G04 DipTrace 2.4.0.2*
%INTopAssy.gbr*%
%MOIN*%
%ADD10C,0.0098*%
%ADD12C,0.003*%
%ADD43C,0.0154*%
%ADD114C,0.0046*%
%ADD115C,0.0124*%
%FSLAX44Y44*%
G04*
G70*
G90*
G75*
G01*
%LNTopAssy*%
%LPD*%
X43902Y2106D2*
D10*
Y6894D1*
X40402Y16106D2*
Y20894D1*
X41402Y16106D2*
Y20894D1*
X42402Y16106D2*
Y20894D1*
X46856Y3536D2*
X51644D1*
X25902Y10606D2*
Y15394D1*
X32902Y8811D2*
Y17189D1*
X27902Y8811D2*
Y17189D1*
X31856Y5098D2*
X34644D1*
X1687Y48188D2*
X14811D1*
Y46613D1*
X1687D1*
Y48188D1*
Y46613D2*
X14811D1*
Y45038D1*
X1687D1*
Y46613D1*
Y45038D2*
X14811D1*
Y43463D1*
X1687D1*
Y45038D1*
Y43463D2*
X14811D1*
Y41888D1*
X1687D1*
Y43463D1*
Y41888D2*
X14811D1*
Y40313D1*
X1687D1*
Y41888D1*
Y40313D2*
X14811D1*
Y38739D1*
X1687D1*
Y40313D1*
X14811Y48188D2*
X21373D1*
Y46613D1*
X14811D1*
Y48188D1*
Y46613D2*
X21373D1*
Y45038D1*
X14811D1*
Y46613D1*
Y45038D2*
X21373D1*
Y43463D1*
X14811D1*
Y45038D1*
Y43463D2*
X21373D1*
Y41888D1*
X14811D1*
Y43463D1*
Y41888D2*
X21373D1*
Y40313D1*
X14811D1*
Y41888D1*
Y40313D2*
X21373D1*
Y38739D1*
X14811D1*
Y40313D1*
X12249Y7468D2*
D114*
X12221Y7453D1*
X12192Y7425D1*
X12178Y7396D1*
Y7339D1*
X12192Y7310D1*
X12221Y7281D1*
X12249Y7267D1*
X12292Y7252D1*
X12364D1*
X12407Y7267D1*
X12436Y7281D1*
X12465Y7310D1*
X12479Y7339D1*
Y7396D1*
X12465Y7425D1*
X12436Y7453D1*
X12407Y7468D1*
X12235Y7560D2*
X12221Y7589D1*
X12178Y7632D1*
X12479D1*
X12178Y7811D2*
X12192Y7768D1*
X12235Y7739D1*
X12307Y7725D1*
X12350D1*
X12422Y7739D1*
X12465Y7768D1*
X12479Y7811D1*
Y7840D1*
X12465Y7883D1*
X12422Y7911D1*
X12350Y7926D1*
X12307D1*
X12235Y7911D1*
X12192Y7883D1*
X12178Y7840D1*
Y7811D1*
X12235Y7911D2*
X12422Y7739D1*
X12221Y8191D2*
X12192Y8176D1*
X12178Y8133D1*
Y8105D1*
X12192Y8062D1*
X12235Y8033D1*
X12307Y8019D1*
X12379D1*
X12436Y8033D1*
X12465Y8062D1*
X12479Y8105D1*
Y8119D1*
X12465Y8162D1*
X12436Y8191D1*
X12393Y8205D1*
X12379D1*
X12336Y8191D1*
X12307Y8162D1*
X12293Y8119D1*
Y8105D1*
X12307Y8062D1*
X12336Y8033D1*
X12379Y8019D1*
X13046Y6293D2*
X13031Y6322D1*
X13003Y6350D1*
X12974Y6365D1*
X12917D1*
X12888Y6350D1*
X12859Y6322D1*
X12845Y6293D1*
X12830Y6250D1*
Y6178D1*
X12845Y6135D1*
X12859Y6106D1*
X12888Y6078D1*
X12917Y6063D1*
X12974D1*
X13003Y6078D1*
X13031Y6106D1*
X13046Y6135D1*
X13138Y6307D2*
X13167Y6322D1*
X13210Y6364D1*
Y6063D1*
X13389Y6364D2*
X13346Y6350D1*
X13317Y6307D1*
X13303Y6235D1*
Y6192D1*
X13317Y6121D1*
X13346Y6077D1*
X13389Y6063D1*
X13418D1*
X13461Y6077D1*
X13489Y6121D1*
X13504Y6192D1*
Y6235D1*
X13489Y6307D1*
X13461Y6350D1*
X13418Y6364D1*
X13389D1*
X13489Y6307D2*
X13317Y6121D1*
X13654Y6063D2*
X13797Y6364D1*
X13596D1*
X15096Y14987D2*
X15068Y14972D1*
X15039Y14944D1*
X15025Y14915D1*
Y14858D1*
X15039Y14829D1*
X15068Y14800D1*
X15096Y14786D1*
X15140Y14771D1*
X15211D1*
X15254Y14786D1*
X15283Y14800D1*
X15312Y14829D1*
X15326Y14858D1*
Y14915D1*
X15312Y14944D1*
X15283Y14972D1*
X15254Y14987D1*
X15082Y15079D2*
X15068Y15108D1*
X15025Y15151D1*
X15326D1*
X15082Y15244D2*
X15068Y15273D1*
X15025Y15316D1*
X15326D1*
X15025Y15495D2*
X15039Y15452D1*
X15082Y15423D1*
X15154Y15409D1*
X15197D1*
X15269Y15423D1*
X15312Y15452D1*
X15326Y15495D1*
Y15523D1*
X15312Y15566D1*
X15269Y15595D1*
X15197Y15609D1*
X15154D1*
X15082Y15595D1*
X15039Y15566D1*
X15025Y15523D1*
Y15495D1*
X15082Y15595D2*
X15269Y15423D1*
X6889Y10451D2*
Y10150D1*
X6789Y10451D2*
X6990D1*
X7082Y10393D2*
X7111Y10408D1*
X7154Y10451D1*
Y10150D1*
X7333Y10451D2*
X7290Y10437D1*
X7261Y10393D1*
X7247Y10322D1*
Y10279D1*
X7261Y10207D1*
X7290Y10164D1*
X7333Y10150D1*
X7362D1*
X7405Y10164D1*
X7433Y10207D1*
X7448Y10279D1*
Y10322D1*
X7433Y10393D1*
X7405Y10437D1*
X7362Y10451D1*
X7333D1*
X7433Y10393D2*
X7261Y10207D1*
X7541Y10393D2*
X7569Y10408D1*
X7613Y10451D1*
Y10150D1*
X21302Y10985D2*
Y10683D1*
X21201Y10985D2*
X21402D1*
X21495Y10927D2*
X21523Y10942D1*
X21567Y10984D1*
Y10683D1*
X21745Y10984D2*
X21702Y10970D1*
X21673Y10927D1*
X21659Y10855D1*
Y10812D1*
X21673Y10741D1*
X21702Y10698D1*
X21745Y10683D1*
X21774D1*
X21817Y10698D1*
X21846Y10741D1*
X21860Y10812D1*
Y10855D1*
X21846Y10927D1*
X21817Y10970D1*
X21774Y10984D1*
X21745D1*
X21846Y10927D2*
X21673Y10741D1*
X21967Y10913D2*
Y10927D1*
X21982Y10956D1*
X21996Y10970D1*
X22025Y10984D1*
X22082D1*
X22111Y10970D1*
X22125Y10956D1*
X22140Y10927D1*
Y10899D1*
X22125Y10870D1*
X22096Y10827D1*
X21953Y10683D1*
X22154D1*
X14645Y5290D2*
X14631Y5319D1*
X14602Y5348D1*
X14573Y5362D1*
X14516D1*
X14487Y5348D1*
X14459Y5319D1*
X14444Y5290D1*
X14430Y5247D1*
Y5175D1*
X14444Y5133D1*
X14459Y5104D1*
X14487Y5075D1*
X14516Y5061D1*
X14573D1*
X14602Y5075D1*
X14631Y5104D1*
X14645Y5133D1*
X14738Y5304D2*
X14767Y5319D1*
X14810Y5362D1*
Y5061D1*
X14902Y5304D2*
X14931Y5319D1*
X14974Y5362D1*
Y5061D1*
X15124D2*
X15268Y5362D1*
X15067D1*
X14583Y4526D2*
X14568Y4555D1*
X14540Y4583D1*
X14511Y4598D1*
X14454D1*
X14425Y4583D1*
X14396Y4555D1*
X14382Y4526D1*
X14368Y4483D1*
Y4411D1*
X14382Y4368D1*
X14396Y4339D1*
X14425Y4311D1*
X14454Y4296D1*
X14511D1*
X14540Y4311D1*
X14568Y4339D1*
X14583Y4368D1*
X14675Y4540D2*
X14704Y4555D1*
X14747Y4597D1*
Y4296D1*
X14840Y4540D2*
X14869Y4555D1*
X14912Y4597D1*
Y4296D1*
X15076Y4597D2*
X15033Y4583D1*
X15019Y4555D1*
Y4526D1*
X15033Y4497D1*
X15062Y4483D1*
X15119Y4468D1*
X15162Y4454D1*
X15191Y4425D1*
X15205Y4397D1*
Y4354D1*
X15191Y4325D1*
X15177Y4311D1*
X15134Y4296D1*
X15076D1*
X15033Y4311D1*
X15019Y4325D1*
X15005Y4354D1*
Y4397D1*
X15019Y4425D1*
X15048Y4454D1*
X15090Y4468D1*
X15148Y4483D1*
X15177Y4497D1*
X15191Y4526D1*
Y4555D1*
X15177Y4583D1*
X15134Y4597D1*
X15076D1*
X18464Y14488D2*
X18436Y14473D1*
X18407Y14444D1*
X18393Y14416D1*
Y14359D1*
X18407Y14330D1*
X18436Y14301D1*
X18464Y14287D1*
X18507Y14272D1*
X18579D1*
X18622Y14287D1*
X18651Y14301D1*
X18680Y14330D1*
X18694Y14359D1*
Y14416D1*
X18680Y14444D1*
X18651Y14473D1*
X18622Y14488D1*
X18450Y14580D2*
X18436Y14609D1*
X18393Y14652D1*
X18694D1*
X18450Y14745D2*
X18436Y14774D1*
X18393Y14817D1*
X18694D1*
Y15053D2*
X18393D1*
X18594Y14909D1*
Y15125D1*
X19215Y14433D2*
X19187Y14419D1*
X19158Y14390D1*
X19144Y14362D1*
Y14304D1*
X19158Y14275D1*
X19187Y14247D1*
X19215Y14232D1*
X19259Y14218D1*
X19331D1*
X19373Y14232D1*
X19402Y14247D1*
X19431Y14275D1*
X19445Y14304D1*
Y14362D1*
X19431Y14390D1*
X19402Y14419D1*
X19373Y14433D1*
X19202Y14526D2*
X19187Y14555D1*
X19144Y14598D1*
X19445D1*
X19202Y14690D2*
X19187Y14719D1*
X19144Y14762D1*
X19445D1*
X19144Y15027D2*
Y14884D1*
X19273Y14870D1*
X19259Y14884D1*
X19244Y14927D1*
Y14970D1*
X19259Y15013D1*
X19287Y15042D1*
X19331Y15056D1*
X19359D1*
X19402Y15042D1*
X19431Y15013D1*
X19445Y14970D1*
Y14927D1*
X19431Y14884D1*
X19416Y14870D1*
X19388Y14855D1*
X46685Y7441D2*
X46657Y7427D1*
X46628Y7398D1*
X46614Y7370D1*
Y7312D1*
X46628Y7284D1*
X46657Y7255D1*
X46685Y7240D1*
X46729Y7226D1*
X46801D1*
X46843Y7240D1*
X46872Y7255D1*
X46901Y7284D1*
X46915Y7312D1*
Y7370D1*
X46901Y7398D1*
X46872Y7427D1*
X46843Y7441D1*
X46686Y7549D2*
X46672D1*
X46643Y7563D1*
X46628Y7577D1*
X46614Y7606D1*
Y7663D1*
X46628Y7692D1*
X46643Y7706D1*
X46672Y7721D1*
X46700D1*
X46729Y7706D1*
X46772Y7678D1*
X46915Y7534D1*
Y7735D1*
X46614Y7914D2*
X46628Y7871D1*
X46672Y7842D1*
X46743Y7828D1*
X46786D1*
X46858Y7842D1*
X46901Y7871D1*
X46915Y7914D1*
Y7942D1*
X46901Y7985D1*
X46858Y8014D1*
X46786Y8029D1*
X46743D1*
X46672Y8014D1*
X46628Y7985D1*
X46614Y7942D1*
Y7914D1*
X46672Y8014D2*
X46858Y7842D1*
X46672Y8121D2*
X46657Y8150D1*
X46614Y8193D1*
X46915D1*
X53462Y5962D2*
X53433Y5948D1*
X53405Y5919D1*
X53390Y5891D1*
Y5833D1*
X53405Y5805D1*
X53433Y5776D1*
X53462Y5761D1*
X53505Y5747D1*
X53577D1*
X53620Y5761D1*
X53649Y5776D1*
X53677Y5805D1*
X53692Y5833D1*
Y5891D1*
X53677Y5919D1*
X53649Y5948D1*
X53620Y5962D1*
X53462Y6070D2*
X53448D1*
X53419Y6084D1*
X53405Y6098D1*
X53391Y6127D1*
Y6184D1*
X53405Y6213D1*
X53419Y6227D1*
X53448Y6242D1*
X53477D1*
X53505Y6227D1*
X53548Y6199D1*
X53692Y6055D1*
Y6256D1*
X53391Y6435D2*
X53405Y6392D1*
X53448Y6363D1*
X53520Y6349D1*
X53563D1*
X53634Y6363D1*
X53678Y6392D1*
X53692Y6435D1*
Y6463D1*
X53678Y6506D1*
X53634Y6535D1*
X53563Y6550D1*
X53520D1*
X53448Y6535D1*
X53405Y6506D1*
X53391Y6463D1*
Y6435D1*
X53448Y6535D2*
X53634Y6363D1*
X53462Y6657D2*
X53448D1*
X53419Y6671D1*
X53405Y6685D1*
X53391Y6714D1*
Y6772D1*
X53405Y6800D1*
X53419Y6814D1*
X53448Y6829D1*
X53477D1*
X53505Y6814D1*
X53548Y6786D1*
X53692Y6642D1*
Y6843D1*
X47373Y15020D2*
X47344Y15006D1*
X47316Y14977D1*
X47301Y14948D1*
Y14891D1*
X47316Y14862D1*
X47344Y14834D1*
X47373Y14819D1*
X47416Y14805D1*
X47488D1*
X47531Y14819D1*
X47560Y14834D1*
X47588Y14862D1*
X47603Y14891D1*
Y14948D1*
X47588Y14977D1*
X47560Y15006D1*
X47531Y15020D1*
X47373Y15127D2*
X47359D1*
X47330Y15142D1*
X47316Y15156D1*
X47302Y15185D1*
Y15242D1*
X47316Y15271D1*
X47330Y15285D1*
X47359Y15299D1*
X47388D1*
X47416Y15285D1*
X47459Y15256D1*
X47603Y15113D1*
Y15314D1*
X47302Y15493D2*
X47316Y15449D1*
X47359Y15421D1*
X47431Y15406D1*
X47474D1*
X47545Y15421D1*
X47588Y15449D1*
X47603Y15493D1*
Y15521D1*
X47588Y15564D1*
X47545Y15593D1*
X47474Y15607D1*
X47431D1*
X47359Y15593D1*
X47316Y15564D1*
X47302Y15521D1*
Y15493D1*
X47359Y15593D2*
X47545Y15421D1*
X47302Y15729D2*
Y15886D1*
X47416Y15800D1*
Y15843D1*
X47431Y15872D1*
X47445Y15886D1*
X47488Y15901D1*
X47517D1*
X47560Y15886D1*
X47588Y15858D1*
X47603Y15815D1*
Y15772D1*
X47588Y15729D1*
X47574Y15714D1*
X47545Y15700D1*
X51685Y7432D2*
X51657Y7418D1*
X51628Y7389D1*
X51614Y7361D1*
Y7303D1*
X51628Y7274D1*
X51657Y7246D1*
X51685Y7231D1*
X51729Y7217D1*
X51801D1*
X51843Y7231D1*
X51872Y7246D1*
X51901Y7274D1*
X51915Y7303D1*
Y7361D1*
X51901Y7389D1*
X51872Y7418D1*
X51843Y7432D1*
X51686Y7539D2*
X51672D1*
X51643Y7554D1*
X51628Y7568D1*
X51614Y7597D1*
Y7654D1*
X51628Y7683D1*
X51643Y7697D1*
X51672Y7712D1*
X51700D1*
X51729Y7697D1*
X51772Y7668D1*
X51915Y7525D1*
Y7726D1*
X51614Y7905D2*
X51628Y7862D1*
X51672Y7833D1*
X51743Y7818D1*
X51786D1*
X51858Y7833D1*
X51901Y7862D1*
X51915Y7905D1*
Y7933D1*
X51901Y7976D1*
X51858Y8005D1*
X51786Y8019D1*
X51743D1*
X51672Y8005D1*
X51628Y7976D1*
X51614Y7933D1*
Y7905D1*
X51672Y8005D2*
X51858Y7833D1*
X51915Y8256D2*
X51614D1*
X51815Y8112D1*
Y8327D1*
X50935Y15020D2*
X50907Y15006D1*
X50878Y14977D1*
X50864Y14948D1*
Y14891D1*
X50878Y14862D1*
X50907Y14834D1*
X50935Y14819D1*
X50979Y14805D1*
X51051D1*
X51093Y14819D1*
X51122Y14834D1*
X51151Y14862D1*
X51165Y14891D1*
Y14948D1*
X51151Y14977D1*
X51122Y15006D1*
X51093Y15020D1*
X50936Y15127D2*
X50922D1*
X50893Y15142D1*
X50878Y15156D1*
X50864Y15185D1*
Y15242D1*
X50878Y15271D1*
X50893Y15285D1*
X50922Y15299D1*
X50950D1*
X50979Y15285D1*
X51022Y15256D1*
X51165Y15113D1*
Y15314D1*
X50864Y15493D2*
X50878Y15449D1*
X50922Y15421D1*
X50993Y15406D1*
X51036D1*
X51108Y15421D1*
X51151Y15449D1*
X51165Y15493D1*
Y15521D1*
X51151Y15564D1*
X51108Y15593D1*
X51036Y15607D1*
X50993D1*
X50922Y15593D1*
X50878Y15564D1*
X50864Y15521D1*
Y15493D1*
X50922Y15593D2*
X51108Y15421D1*
X50864Y15872D2*
Y15729D1*
X50993Y15714D1*
X50979Y15729D1*
X50964Y15772D1*
Y15815D1*
X50979Y15858D1*
X51007Y15887D1*
X51051Y15901D1*
X51079D1*
X51122Y15887D1*
X51151Y15858D1*
X51165Y15815D1*
Y15772D1*
X51151Y15729D1*
X51136Y15714D1*
X51108Y15700D1*
X48712Y8657D2*
X48683Y8643D1*
X48655Y8614D1*
X48640Y8586D1*
Y8528D1*
X48655Y8499D1*
X48683Y8471D1*
X48712Y8456D1*
X48755Y8442D1*
X48827D1*
X48870Y8456D1*
X48899Y8471D1*
X48927Y8499D1*
X48942Y8528D1*
Y8586D1*
X48927Y8614D1*
X48899Y8643D1*
X48870Y8657D1*
X48712Y8764D2*
X48698D1*
X48669Y8779D1*
X48655Y8793D1*
X48641Y8822D1*
Y8879D1*
X48655Y8908D1*
X48669Y8922D1*
X48698Y8937D1*
X48727D1*
X48755Y8922D1*
X48798Y8893D1*
X48942Y8750D1*
Y8951D1*
X48641Y9130D2*
X48655Y9087D1*
X48698Y9058D1*
X48770Y9043D1*
X48813D1*
X48884Y9058D1*
X48928Y9087D1*
X48942Y9130D1*
Y9158D1*
X48928Y9201D1*
X48884Y9230D1*
X48813Y9244D1*
X48770D1*
X48698Y9230D1*
X48655Y9201D1*
X48641Y9158D1*
Y9130D1*
X48698Y9230D2*
X48884Y9058D1*
X48683Y9509D2*
X48655Y9495D1*
X48641Y9452D1*
Y9423D1*
X48655Y9380D1*
X48698Y9351D1*
X48770Y9337D1*
X48841D1*
X48899Y9351D1*
X48928Y9380D1*
X48942Y9423D1*
Y9437D1*
X48928Y9480D1*
X48899Y9509D1*
X48856Y9523D1*
X48841D1*
X48798Y9509D1*
X48770Y9480D1*
X48755Y9437D1*
Y9423D1*
X48770Y9380D1*
X48798Y9351D1*
X48841Y9337D1*
X50462Y4150D2*
X50433Y4136D1*
X50405Y4107D1*
X50390Y4078D1*
Y4021D1*
X50405Y3992D1*
X50433Y3964D1*
X50462Y3949D1*
X50505Y3935D1*
X50577D1*
X50620Y3949D1*
X50649Y3964D1*
X50677Y3992D1*
X50692Y4021D1*
Y4078D1*
X50677Y4107D1*
X50649Y4136D1*
X50620Y4150D1*
X50462Y4257D2*
X50448D1*
X50419Y4271D1*
X50405Y4286D1*
X50391Y4314D1*
Y4372D1*
X50405Y4400D1*
X50419Y4415D1*
X50448Y4429D1*
X50477D1*
X50505Y4415D1*
X50548Y4386D1*
X50692Y4243D1*
Y4443D1*
X50391Y4622D2*
X50405Y4579D1*
X50448Y4550D1*
X50520Y4536D1*
X50563D1*
X50634Y4550D1*
X50678Y4579D1*
X50692Y4622D1*
Y4651D1*
X50678Y4694D1*
X50634Y4722D1*
X50563Y4737D1*
X50520D1*
X50448Y4722D1*
X50405Y4694D1*
X50391Y4651D1*
Y4622D1*
X50448Y4722D2*
X50634Y4550D1*
X50692Y4887D2*
X50391Y5031D1*
Y4830D1*
X52149Y11935D2*
X52121Y11920D1*
X52092Y11892D1*
X52078Y11863D1*
Y11806D1*
X52092Y11777D1*
X52121Y11748D1*
X52149Y11734D1*
X52193Y11719D1*
X52265D1*
X52307Y11734D1*
X52336Y11748D1*
X52365Y11777D1*
X52379Y11806D1*
Y11863D1*
X52365Y11892D1*
X52336Y11920D1*
X52307Y11935D1*
X52150Y12042D2*
X52136D1*
X52107Y12056D1*
X52092Y12070D1*
X52078Y12099D1*
Y12157D1*
X52092Y12185D1*
X52107Y12199D1*
X52136Y12214D1*
X52164D1*
X52193Y12199D1*
X52236Y12171D1*
X52379Y12027D1*
Y12228D1*
X52078Y12407D2*
X52092Y12364D1*
X52136Y12335D1*
X52207Y12321D1*
X52250D1*
X52322Y12335D1*
X52365Y12364D1*
X52379Y12407D1*
Y12436D1*
X52365Y12479D1*
X52322Y12507D1*
X52250Y12522D1*
X52207D1*
X52136Y12507D1*
X52092Y12479D1*
X52078Y12436D1*
Y12407D1*
X52136Y12507D2*
X52322Y12335D1*
X52078Y12686D2*
X52092Y12643D1*
X52121Y12629D1*
X52150D1*
X52178Y12643D1*
X52193Y12672D1*
X52207Y12729D1*
X52221Y12772D1*
X52250Y12801D1*
X52279Y12815D1*
X52322D1*
X52350Y12801D1*
X52365Y12787D1*
X52379Y12744D1*
Y12686D1*
X52365Y12643D1*
X52350Y12629D1*
X52322Y12615D1*
X52279D1*
X52250Y12629D1*
X52221Y12658D1*
X52207Y12700D1*
X52193Y12758D1*
X52178Y12787D1*
X52150Y12801D1*
X52121D1*
X52092Y12787D1*
X52078Y12744D1*
Y12686D1*
X52149Y10504D2*
X52121Y10490D1*
X52092Y10461D1*
X52078Y10433D1*
Y10375D1*
X52092Y10346D1*
X52121Y10318D1*
X52149Y10303D1*
X52193Y10289D1*
X52265D1*
X52307Y10303D1*
X52336Y10318D1*
X52365Y10346D1*
X52379Y10375D1*
Y10433D1*
X52365Y10461D1*
X52336Y10490D1*
X52307Y10504D1*
X52150Y10611D2*
X52136D1*
X52107Y10626D1*
X52092Y10640D1*
X52078Y10669D1*
Y10726D1*
X52092Y10755D1*
X52107Y10769D1*
X52136Y10783D1*
X52164D1*
X52193Y10769D1*
X52236Y10740D1*
X52379Y10597D1*
Y10798D1*
X52078Y10977D2*
X52092Y10934D1*
X52136Y10905D1*
X52207Y10890D1*
X52250D1*
X52322Y10905D1*
X52365Y10934D1*
X52379Y10977D1*
Y11005D1*
X52365Y11048D1*
X52322Y11077D1*
X52250Y11091D1*
X52207D1*
X52136Y11077D1*
X52092Y11048D1*
X52078Y11005D1*
Y10977D1*
X52136Y11077D2*
X52322Y10905D1*
X52178Y11371D2*
X52221Y11356D1*
X52250Y11328D1*
X52265Y11284D1*
Y11270D1*
X52250Y11227D1*
X52221Y11199D1*
X52178Y11184D1*
X52164D1*
X52121Y11199D1*
X52092Y11227D1*
X52078Y11270D1*
Y11284D1*
X52092Y11328D1*
X52121Y11356D1*
X52178Y11371D1*
X52250D1*
X52322Y11356D1*
X52365Y11328D1*
X52379Y11284D1*
Y11256D1*
X52365Y11213D1*
X52336Y11199D1*
X46900Y12589D2*
X46871Y12575D1*
X46842Y12546D1*
X46828Y12518D1*
Y12460D1*
X46842Y12432D1*
X46871Y12403D1*
X46900Y12388D1*
X46943Y12374D1*
X47015D1*
X47057Y12388D1*
X47086Y12403D1*
X47115Y12432D1*
X47129Y12460D1*
Y12518D1*
X47115Y12546D1*
X47086Y12575D1*
X47057Y12589D1*
X46900Y12697D2*
X46886D1*
X46857Y12711D1*
X46842Y12725D1*
X46828Y12754D1*
Y12811D1*
X46842Y12840D1*
X46857Y12854D1*
X46886Y12869D1*
X46914D1*
X46943Y12854D1*
X46986Y12826D1*
X47129Y12682D1*
Y12883D1*
X46886Y12976D2*
X46871Y13004D1*
X46828Y13048D1*
X47129D1*
X46828Y13226D2*
X46842Y13183D1*
X46886Y13154D1*
X46957Y13140D1*
X47000D1*
X47072Y13154D1*
X47115Y13183D1*
X47129Y13226D1*
Y13255D1*
X47115Y13298D1*
X47072Y13327D1*
X47000Y13341D1*
X46957D1*
X46886Y13327D1*
X46842Y13298D1*
X46828Y13255D1*
Y13226D1*
X46886Y13327D2*
X47072Y13154D1*
X29650Y17152D2*
X29621Y17138D1*
X29592Y17109D1*
X29578Y17080D1*
Y17023D1*
X29592Y16994D1*
X29621Y16966D1*
X29650Y16951D1*
X29693Y16937D1*
X29765D1*
X29807Y16951D1*
X29836Y16966D1*
X29865Y16994D1*
X29879Y17023D1*
Y17080D1*
X29865Y17109D1*
X29836Y17138D1*
X29807Y17152D1*
X29578Y17273D2*
Y17431D1*
X29693Y17345D1*
Y17388D1*
X29707Y17417D1*
X29721Y17431D1*
X29765Y17445D1*
X29793D1*
X29836Y17431D1*
X29865Y17402D1*
X29879Y17359D1*
Y17316D1*
X29865Y17273D1*
X29850Y17259D1*
X29822Y17245D1*
X29578Y17624D2*
X29592Y17581D1*
X29636Y17552D1*
X29707Y17538D1*
X29750D1*
X29822Y17552D1*
X29865Y17581D1*
X29879Y17624D1*
Y17653D1*
X29865Y17696D1*
X29822Y17724D1*
X29750Y17739D1*
X29707D1*
X29636Y17724D1*
X29592Y17696D1*
X29578Y17653D1*
Y17624D1*
X29636Y17724D2*
X29822Y17552D1*
X29636Y17832D2*
X29621Y17861D1*
X29578Y17904D1*
X29879D1*
X31198Y8856D2*
X31184Y8885D1*
X31155Y8914D1*
X31127Y8928D1*
X31069D1*
X31040Y8914D1*
X31012Y8885D1*
X30997Y8856D1*
X30983Y8813D1*
Y8741D1*
X30997Y8699D1*
X31012Y8670D1*
X31040Y8641D1*
X31069Y8627D1*
X31127D1*
X31155Y8641D1*
X31184Y8670D1*
X31198Y8699D1*
X31320Y8928D2*
X31477D1*
X31391Y8813D1*
X31434D1*
X31463Y8799D1*
X31477Y8784D1*
X31492Y8741D1*
Y8713D1*
X31477Y8670D1*
X31449Y8641D1*
X31406Y8627D1*
X31362D1*
X31320Y8641D1*
X31305Y8655D1*
X31291Y8684D1*
X31671Y8928D2*
X31628Y8913D1*
X31599Y8870D1*
X31584Y8799D1*
Y8756D1*
X31599Y8684D1*
X31628Y8641D1*
X31671Y8627D1*
X31699D1*
X31742Y8641D1*
X31771Y8684D1*
X31785Y8756D1*
Y8799D1*
X31771Y8870D1*
X31742Y8913D1*
X31699Y8928D1*
X31671D1*
X31771Y8870D2*
X31599Y8684D1*
X31893Y8856D2*
Y8870D1*
X31907Y8899D1*
X31921Y8913D1*
X31950Y8928D1*
X32007D1*
X32036Y8913D1*
X32050Y8899D1*
X32065Y8870D1*
Y8842D1*
X32050Y8813D1*
X32022Y8770D1*
X31878Y8627D1*
X32079D1*
X29636Y8856D2*
X29621Y8885D1*
X29593Y8914D1*
X29564Y8928D1*
X29507D1*
X29478Y8914D1*
X29449Y8885D1*
X29435Y8856D1*
X29421Y8813D1*
Y8741D1*
X29435Y8699D1*
X29449Y8670D1*
X29478Y8641D1*
X29507Y8627D1*
X29564D1*
X29593Y8641D1*
X29621Y8670D1*
X29636Y8699D1*
X29757Y8928D2*
X29915D1*
X29829Y8813D1*
X29872D1*
X29900Y8799D1*
X29915Y8784D1*
X29929Y8741D1*
Y8713D1*
X29915Y8670D1*
X29886Y8641D1*
X29843Y8627D1*
X29800D1*
X29757Y8641D1*
X29743Y8655D1*
X29728Y8684D1*
X30108Y8928D2*
X30065Y8913D1*
X30036Y8870D1*
X30022Y8799D1*
Y8756D1*
X30036Y8684D1*
X30065Y8641D1*
X30108Y8627D1*
X30137D1*
X30180Y8641D1*
X30208Y8684D1*
X30223Y8756D1*
Y8799D1*
X30208Y8870D1*
X30180Y8913D1*
X30137Y8928D1*
X30108D1*
X30208Y8870D2*
X30036Y8684D1*
X30344Y8928D2*
X30502D1*
X30416Y8813D1*
X30459D1*
X30488Y8799D1*
X30502Y8784D1*
X30517Y8741D1*
Y8713D1*
X30502Y8670D1*
X30473Y8641D1*
X30430Y8627D1*
X30387D1*
X30344Y8641D1*
X30330Y8655D1*
X30316Y8684D1*
X2763Y13442D2*
X2748Y13470D1*
X2720Y13499D1*
X2691Y13513D1*
X2634D1*
X2605Y13499D1*
X2576Y13470D1*
X2562Y13442D1*
X2547Y13398D1*
Y13326D1*
X2562Y13284D1*
X2576Y13255D1*
X2605Y13226D1*
X2634Y13212D1*
X2691D1*
X2720Y13226D1*
X2748Y13255D1*
X2763Y13284D1*
X3027Y13513D2*
X2884D1*
X2870Y13384D1*
X2884Y13398D1*
X2927Y13413D1*
X2970D1*
X3013Y13398D1*
X3042Y13370D1*
X3056Y13326D1*
Y13298D1*
X3042Y13255D1*
X3013Y13226D1*
X2970Y13212D1*
X2927D1*
X2884Y13226D1*
X2870Y13241D1*
X2855Y13269D1*
X3235Y13513D2*
X3192Y13499D1*
X3163Y13455D1*
X3149Y13384D1*
Y13341D1*
X3163Y13269D1*
X3192Y13226D1*
X3235Y13212D1*
X3264D1*
X3307Y13226D1*
X3335Y13269D1*
X3350Y13341D1*
Y13384D1*
X3335Y13455D1*
X3307Y13499D1*
X3264Y13513D1*
X3235D1*
X3335Y13455D2*
X3163Y13269D1*
X3443Y13455D2*
X3471Y13470D1*
X3515Y13513D1*
Y13212D1*
X34464Y6163D2*
X34450Y6191D1*
X34421Y6220D1*
X34393Y6235D1*
X34335D1*
X34307Y6220D1*
X34278Y6191D1*
X34263Y6163D1*
X34249Y6120D1*
Y6048D1*
X34263Y6005D1*
X34278Y5976D1*
X34307Y5948D1*
X34335Y5933D1*
X34393D1*
X34421Y5948D1*
X34450Y5976D1*
X34464Y6005D1*
X34729Y6234D2*
X34586D1*
X34572Y6105D1*
X34586Y6119D1*
X34629Y6134D1*
X34672D1*
X34715Y6119D1*
X34744Y6091D1*
X34758Y6048D1*
Y6019D1*
X34744Y5976D1*
X34715Y5947D1*
X34672Y5933D1*
X34629D1*
X34586Y5947D1*
X34572Y5962D1*
X34557Y5990D1*
X34937Y6234D2*
X34894Y6220D1*
X34865Y6177D1*
X34851Y6105D1*
Y6062D1*
X34865Y5990D1*
X34894Y5947D1*
X34937Y5933D1*
X34965D1*
X35008Y5947D1*
X35037Y5990D1*
X35052Y6062D1*
Y6105D1*
X35037Y6177D1*
X35008Y6220D1*
X34965Y6234D1*
X34937D1*
X35037Y6177D2*
X34865Y5990D1*
X35159Y6163D2*
Y6177D1*
X35173Y6206D1*
X35187Y6220D1*
X35216Y6234D1*
X35274D1*
X35302Y6220D1*
X35316Y6206D1*
X35331Y6177D1*
Y6148D1*
X35316Y6119D1*
X35288Y6077D1*
X35144Y5933D1*
X35345D1*
X17303Y12390D2*
Y12088D1*
X17403D1*
X17446Y12103D1*
X17475Y12132D1*
X17489Y12160D1*
X17504Y12203D1*
Y12275D1*
X17489Y12318D1*
X17475Y12347D1*
X17446Y12376D1*
X17403Y12390D1*
X17303D1*
X17596Y12332D2*
X17625Y12347D1*
X17668Y12390D1*
Y12088D1*
X17847Y12390D2*
X17804Y12375D1*
X17775Y12332D1*
X17761Y12261D1*
Y12217D1*
X17775Y12146D1*
X17804Y12103D1*
X17847Y12088D1*
X17876D1*
X17919Y12103D1*
X17947Y12146D1*
X17962Y12217D1*
Y12261D1*
X17947Y12332D1*
X17919Y12375D1*
X17876Y12390D1*
X17847D1*
X17947Y12332D2*
X17775Y12146D1*
X18198Y12088D2*
Y12390D1*
X18054Y12189D1*
X18270D1*
X7266Y14068D2*
Y13767D1*
X7366D1*
X7410Y13781D1*
X7438Y13810D1*
X7453Y13839D1*
X7467Y13881D1*
Y13953D1*
X7453Y13997D1*
X7438Y14025D1*
X7410Y14054D1*
X7366Y14068D1*
X7266D1*
X7560Y14010D2*
X7588Y14025D1*
X7632Y14068D1*
Y13767D1*
X7810Y14068D2*
X7767Y14054D1*
X7738Y14010D1*
X7724Y13939D1*
Y13896D1*
X7738Y13824D1*
X7767Y13781D1*
X7810Y13767D1*
X7839D1*
X7882Y13781D1*
X7911Y13824D1*
X7925Y13896D1*
Y13939D1*
X7911Y14010D1*
X7882Y14054D1*
X7839Y14068D1*
X7810D1*
X7911Y14010D2*
X7738Y13824D1*
X8032Y13996D2*
Y14010D1*
X8047Y14039D1*
X8061Y14054D1*
X8090Y14068D1*
X8147D1*
X8176Y14054D1*
X8190Y14039D1*
X8204Y14010D1*
Y13982D1*
X8190Y13953D1*
X8161Y13910D1*
X8018Y13767D1*
X8219D1*
X9454Y14006D2*
Y13704D1*
X9554D1*
X9597Y13719D1*
X9626Y13747D1*
X9640Y13776D1*
X9655Y13819D1*
Y13891D1*
X9640Y13934D1*
X9626Y13963D1*
X9597Y13992D1*
X9554Y14006D1*
X9454D1*
X9747Y13948D2*
X9776Y13963D1*
X9819Y14005D1*
Y13704D1*
X9998Y14005D2*
X9955Y13991D1*
X9926Y13948D1*
X9912Y13876D1*
Y13833D1*
X9926Y13762D1*
X9955Y13719D1*
X9998Y13704D1*
X10027D1*
X10070Y13719D1*
X10098Y13762D1*
X10113Y13833D1*
Y13876D1*
X10098Y13948D1*
X10070Y13991D1*
X10027Y14005D1*
X9998D1*
X10098Y13948D2*
X9926Y13762D1*
X10234Y14005D2*
X10392D1*
X10306Y13891D1*
X10349D1*
X10378Y13876D1*
X10392Y13862D1*
X10406Y13819D1*
Y13791D1*
X10392Y13747D1*
X10363Y13719D1*
X10320Y13704D1*
X10277D1*
X10234Y13719D1*
X10220Y13733D1*
X10206Y13762D1*
X27712Y8004D2*
Y7703D1*
X27813D1*
X27856Y7717D1*
X27885Y7746D1*
X27899Y7775D1*
X27913Y7818D1*
Y7890D1*
X27899Y7933D1*
X27885Y7961D1*
X27856Y7990D1*
X27813Y8004D1*
X27712D1*
X28150Y7703D2*
Y8004D1*
X28006Y7803D1*
X28221D1*
X28400Y8004D2*
X28357Y7990D1*
X28328Y7947D1*
X28314Y7875D1*
Y7832D1*
X28328Y7760D1*
X28357Y7717D1*
X28400Y7703D1*
X28429D1*
X28472Y7717D1*
X28500Y7760D1*
X28515Y7832D1*
Y7875D1*
X28500Y7947D1*
X28472Y7990D1*
X28429Y8004D1*
X28400D1*
X28500Y7947D2*
X28328Y7760D1*
X28607Y7947D2*
X28636Y7961D1*
X28679Y8004D1*
Y7703D1*
X799Y11614D2*
X1100D1*
Y11715D1*
X1086Y11758D1*
X1057Y11787D1*
X1028Y11801D1*
X986Y11815D1*
X914D1*
X870Y11801D1*
X842Y11787D1*
X813Y11758D1*
X799Y11715D1*
Y11614D1*
Y12080D2*
Y11937D1*
X928Y11922D1*
X914Y11937D1*
X899Y11980D1*
Y12023D1*
X914Y12066D1*
X942Y12095D1*
X986Y12109D1*
X1014D1*
X1057Y12095D1*
X1086Y12066D1*
X1100Y12023D1*
Y11980D1*
X1086Y11937D1*
X1071Y11922D1*
X1043Y11908D1*
X799Y12288D2*
X813Y12245D1*
X857Y12216D1*
X928Y12201D1*
X971D1*
X1043Y12216D1*
X1086Y12245D1*
X1100Y12288D1*
Y12316D1*
X1086Y12359D1*
X1043Y12388D1*
X971Y12402D1*
X928D1*
X857Y12388D1*
X813Y12359D1*
X799Y12316D1*
Y12288D1*
X857Y12388D2*
X1043Y12216D1*
X857Y12495D2*
X842Y12524D1*
X799Y12567D1*
X1100D1*
X5111Y11362D2*
X5413D1*
Y11463D1*
X5398Y11506D1*
X5370Y11535D1*
X5341Y11549D1*
X5298Y11563D1*
X5226D1*
X5183Y11549D1*
X5154Y11535D1*
X5126Y11506D1*
X5111Y11463D1*
Y11362D1*
X5112Y11828D2*
Y11685D1*
X5241Y11670D1*
X5226Y11685D1*
X5212Y11728D1*
Y11771D1*
X5226Y11814D1*
X5255Y11843D1*
X5298Y11857D1*
X5327D1*
X5370Y11843D1*
X5399Y11814D1*
X5413Y11771D1*
Y11728D1*
X5399Y11685D1*
X5384Y11670D1*
X5355Y11656D1*
X5112Y12036D2*
X5126Y11993D1*
X5169Y11964D1*
X5241Y11949D1*
X5284D1*
X5355Y11964D1*
X5399Y11993D1*
X5413Y12036D1*
Y12064D1*
X5399Y12107D1*
X5355Y12136D1*
X5284Y12150D1*
X5241D1*
X5169Y12136D1*
X5126Y12107D1*
X5112Y12064D1*
Y12036D1*
X5169Y12136D2*
X5355Y11964D1*
X5183Y12258D2*
X5169D1*
X5140Y12272D1*
X5126Y12286D1*
X5112Y12315D1*
Y12372D1*
X5126Y12401D1*
X5140Y12415D1*
X5169Y12430D1*
X5198D1*
X5226Y12415D1*
X5269Y12387D1*
X5413Y12243D1*
Y12444D1*
X21409Y4275D2*
X21223D1*
Y3973D1*
Y4131D2*
X21337D1*
X21502Y4275D2*
Y3973D1*
X21631D1*
X21674Y3988D1*
X21689Y4002D1*
X21703Y4031D1*
Y4074D1*
X21689Y4103D1*
X21674Y4117D1*
X21631Y4131D1*
X21674Y4146D1*
X21689Y4160D1*
X21703Y4188D1*
Y4217D1*
X21689Y4246D1*
X21674Y4260D1*
X21631Y4275D1*
X21502D1*
Y4131D2*
X21631D1*
X21796Y4217D2*
X21825Y4232D1*
X21868Y4274D1*
Y3973D1*
X22046Y4274D2*
X22003Y4260D1*
X21975Y4217D1*
X21960Y4145D1*
Y4102D1*
X21975Y4031D1*
X22003Y3987D1*
X22046Y3973D1*
X22075D1*
X22118Y3987D1*
X22147Y4031D1*
X22161Y4102D1*
Y4145D1*
X22147Y4217D1*
X22118Y4260D1*
X22075Y4274D1*
X22046D1*
X22147Y4217D2*
X21975Y4031D1*
X22254Y4217D2*
X22283Y4232D1*
X22326Y4274D1*
Y3973D1*
X53361Y4386D2*
X53174D1*
Y4085D1*
Y4243D2*
X53289D1*
X53454Y4386D2*
Y4085D1*
X53583D1*
X53626Y4099D1*
X53640Y4114D1*
X53655Y4142D1*
Y4185D1*
X53640Y4214D1*
X53626Y4228D1*
X53583Y4243D1*
X53626Y4257D1*
X53640Y4271D1*
X53655Y4300D1*
Y4329D1*
X53640Y4357D1*
X53626Y4372D1*
X53583Y4386D1*
X53454D1*
Y4243D2*
X53583D1*
X53762Y4314D2*
Y4329D1*
X53776Y4357D1*
X53790Y4372D1*
X53819Y4386D1*
X53877D1*
X53905Y4372D1*
X53919Y4357D1*
X53934Y4329D1*
Y4300D1*
X53919Y4271D1*
X53891Y4228D1*
X53747Y4085D1*
X53948D1*
X54127Y4386D2*
X54084Y4372D1*
X54055Y4329D1*
X54041Y4257D1*
Y4214D1*
X54055Y4142D1*
X54084Y4099D1*
X54127Y4085D1*
X54156D1*
X54199Y4099D1*
X54227Y4142D1*
X54242Y4214D1*
Y4257D1*
X54227Y4329D1*
X54199Y4372D1*
X54156Y4386D1*
X54127D1*
X54227Y4329D2*
X54055Y4142D1*
X54334Y4329D2*
X54363Y4343D1*
X54406Y4386D1*
Y4085D1*
X25218Y10199D2*
X25031D1*
Y9897D1*
Y10055D2*
X25146D1*
X25310Y10199D2*
Y9897D1*
X25440D1*
X25483Y9912D1*
X25497Y9926D1*
X25511Y9955D1*
Y9998D1*
X25497Y10027D1*
X25483Y10041D1*
X25440Y10055D1*
X25483Y10070D1*
X25497Y10084D1*
X25511Y10112D1*
Y10141D1*
X25497Y10170D1*
X25483Y10184D1*
X25440Y10199D1*
X25310D1*
Y10055D2*
X25440D1*
X25633Y10198D2*
X25790D1*
X25705Y10084D1*
X25748D1*
X25776Y10069D1*
X25790Y10055D1*
X25805Y10012D1*
Y9983D1*
X25790Y9940D1*
X25762Y9912D1*
X25719Y9897D1*
X25676D1*
X25633Y9912D1*
X25619Y9926D1*
X25604Y9955D1*
X25984Y10198D2*
X25941Y10184D1*
X25912Y10141D1*
X25898Y10069D1*
Y10026D1*
X25912Y9955D1*
X25941Y9912D1*
X25984Y9897D1*
X26012D1*
X26055Y9912D1*
X26084Y9955D1*
X26099Y10026D1*
Y10069D1*
X26084Y10141D1*
X26055Y10184D1*
X26012Y10198D1*
X25984D1*
X26084Y10141D2*
X25912Y9955D1*
X26191Y10141D2*
X26220Y10156D1*
X26263Y10198D1*
Y9897D1*
X14489Y18189D2*
X14303D1*
Y17888D1*
Y18046D2*
X14417D1*
X14582Y18189D2*
Y17888D1*
X14682D1*
X14725Y17902D1*
X14754Y17931D1*
X14769Y17960D1*
X14783Y18003D1*
Y18075D1*
X14769Y18118D1*
X14754Y18146D1*
X14725Y18175D1*
X14682Y18189D1*
X14582D1*
X14875Y18132D2*
X14904Y18146D1*
X14947Y18189D1*
Y17888D1*
X8300Y1939D2*
X8113D1*
Y1638D1*
Y1796D2*
X8228D1*
X8392Y1939D2*
Y1638D1*
X8493D1*
X8536Y1652D1*
X8565Y1681D1*
X8579Y1710D1*
X8593Y1753D1*
Y1825D1*
X8579Y1868D1*
X8565Y1896D1*
X8536Y1925D1*
X8493Y1939D1*
X8392D1*
X8701Y1867D2*
Y1882D1*
X8715Y1910D1*
X8729Y1925D1*
X8758Y1939D1*
X8815D1*
X8844Y1925D1*
X8858Y1910D1*
X8873Y1882D1*
Y1853D1*
X8858Y1824D1*
X8830Y1781D1*
X8686Y1638D1*
X8887D1*
X52300Y2689D2*
X52113D1*
Y2388D1*
Y2546D2*
X52228D1*
X52392Y2689D2*
Y2388D1*
X52493D1*
X52536Y2402D1*
X52565Y2431D1*
X52579Y2460D1*
X52593Y2503D1*
Y2575D1*
X52579Y2618D1*
X52565Y2646D1*
X52536Y2675D1*
X52493Y2689D1*
X52392D1*
X52715D2*
X52872D1*
X52786Y2574D1*
X52830D1*
X52858Y2560D1*
X52872Y2546D1*
X52887Y2503D1*
Y2474D1*
X52872Y2431D1*
X52844Y2402D1*
X52801Y2388D1*
X52758D1*
X52715Y2402D1*
X52701Y2417D1*
X52686Y2445D1*
X41432Y14939D2*
Y14710D1*
X41418Y14667D1*
X41403Y14652D1*
X41375Y14638D1*
X41346D1*
X41318Y14652D1*
X41303Y14667D1*
X41289Y14710D1*
Y14738D1*
X41697Y14896D2*
X41683Y14925D1*
X41640Y14939D1*
X41611D1*
X41568Y14925D1*
X41539Y14882D1*
X41525Y14810D1*
Y14738D1*
X41539Y14681D1*
X41568Y14652D1*
X41611Y14638D1*
X41625D1*
X41668Y14652D1*
X41697Y14681D1*
X41711Y14724D1*
Y14738D1*
X41697Y14781D1*
X41668Y14810D1*
X41625Y14824D1*
X41611D1*
X41568Y14810D1*
X41539Y14781D1*
X41525Y14738D1*
X41432Y7939D2*
Y7710D1*
X41418Y7667D1*
X41403Y7652D1*
X41375Y7638D1*
X41346D1*
X41317Y7652D1*
X41303Y7667D1*
X41289Y7710D1*
Y7738D1*
X41711Y7839D2*
X41697Y7796D1*
X41668Y7767D1*
X41625Y7753D1*
X41611D1*
X41568Y7767D1*
X41539Y7796D1*
X41525Y7839D1*
Y7853D1*
X41539Y7896D1*
X41568Y7925D1*
X41611Y7939D1*
X41625D1*
X41668Y7925D1*
X41697Y7896D1*
X41711Y7839D1*
Y7767D1*
X41697Y7695D1*
X41668Y7652D1*
X41625Y7638D1*
X41597D1*
X41554Y7652D1*
X41539Y7681D1*
X44093Y7333D2*
Y7104D1*
X44078Y7060D1*
X44064Y7046D1*
X44035Y7032D1*
X44006D1*
X43978Y7046D1*
X43964Y7060D1*
X43949Y7104D1*
Y7132D1*
X44185Y7275D2*
X44214Y7290D1*
X44257Y7333D1*
Y7032D1*
X44436Y7333D2*
X44393Y7318D1*
X44364Y7275D1*
X44350Y7204D1*
Y7161D1*
X44364Y7089D1*
X44393Y7046D1*
X44436Y7032D1*
X44465D1*
X44508Y7046D1*
X44536Y7089D1*
X44551Y7161D1*
Y7204D1*
X44536Y7275D1*
X44508Y7318D1*
X44465Y7333D1*
X44436D1*
X44536Y7275D2*
X44364Y7089D1*
X40595Y21083D2*
Y20854D1*
X40580Y20810D1*
X40566Y20796D1*
X40537Y20782D1*
X40508D1*
X40480Y20796D1*
X40466Y20810D1*
X40451Y20854D1*
Y20882D1*
X40687Y21025D2*
X40716Y21040D1*
X40759Y21083D1*
Y20782D1*
X40852Y21025D2*
X40881Y21040D1*
X40924Y21083D1*
Y20782D1*
X41530Y21083D2*
Y20854D1*
X41516Y20810D1*
X41501Y20796D1*
X41473Y20782D1*
X41444D1*
X41415Y20796D1*
X41401Y20810D1*
X41387Y20854D1*
Y20882D1*
X41623Y21025D2*
X41652Y21040D1*
X41695Y21083D1*
Y20782D1*
X41802Y21011D2*
Y21025D1*
X41816Y21054D1*
X41831Y21068D1*
X41859Y21083D1*
X41917D1*
X41945Y21068D1*
X41960Y21054D1*
X41974Y21025D1*
Y20997D1*
X41960Y20968D1*
X41931Y20925D1*
X41787Y20782D1*
X41988D1*
X42530Y21083D2*
Y20854D1*
X42516Y20810D1*
X42501Y20796D1*
X42473Y20782D1*
X42444D1*
X42415Y20796D1*
X42401Y20810D1*
X42387Y20854D1*
Y20882D1*
X42623Y21025D2*
X42652Y21040D1*
X42695Y21083D1*
Y20782D1*
X42816Y21083D2*
X42974D1*
X42888Y20968D1*
X42931D1*
X42960Y20954D1*
X42974Y20939D1*
X42988Y20896D1*
Y20868D1*
X42974Y20825D1*
X42945Y20796D1*
X42902Y20782D1*
X42859D1*
X42816Y20796D1*
X42802Y20810D1*
X42787Y20839D1*
X6685Y16957D2*
X6915D1*
X6958Y16942D1*
X6972Y16928D1*
X6987Y16899D1*
Y16870D1*
X6972Y16842D1*
X6958Y16828D1*
X6915Y16813D1*
X6886D1*
X6743Y17049D2*
X6729Y17078D1*
X6686Y17121D1*
X6987D1*
X6686Y17300D2*
X6700Y17257D1*
X6743Y17228D1*
X6815Y17214D1*
X6858D1*
X6930Y17228D1*
X6973Y17257D1*
X6987Y17300D1*
Y17329D1*
X6973Y17372D1*
X6930Y17400D1*
X6858Y17415D1*
X6815D1*
X6743Y17400D1*
X6700Y17372D1*
X6686Y17329D1*
Y17300D1*
X6743Y17400D2*
X6930Y17228D1*
X6743Y17507D2*
X6729Y17536D1*
X6686Y17579D1*
X6987D1*
X45989Y20392D2*
Y20163D1*
X45975Y20120D1*
X45960Y20105D1*
X45932Y20091D1*
X45903D1*
X45875Y20105D1*
X45860Y20120D1*
X45846Y20163D1*
Y20191D1*
X46096Y20320D2*
Y20334D1*
X46111Y20363D1*
X46125Y20378D1*
X46154Y20392D1*
X46211D1*
X46240Y20378D1*
X46254Y20363D1*
X46269Y20334D1*
Y20306D1*
X46254Y20277D1*
X46225Y20234D1*
X46082Y20091D1*
X46283D1*
X46462Y20392D2*
X46419Y20378D1*
X46390Y20334D1*
X46375Y20263D1*
Y20220D1*
X46390Y20148D1*
X46419Y20105D1*
X46462Y20091D1*
X46490D1*
X46533Y20105D1*
X46562Y20148D1*
X46576Y20220D1*
Y20263D1*
X46562Y20334D1*
X46533Y20378D1*
X46490Y20392D1*
X46462D1*
X46562Y20334D2*
X46390Y20148D1*
X46669Y20334D2*
X46698Y20349D1*
X46741Y20392D1*
Y20091D1*
X49925Y20392D2*
Y20163D1*
X49910Y20120D1*
X49896Y20105D1*
X49867Y20091D1*
X49838D1*
X49810Y20105D1*
X49796Y20120D1*
X49781Y20163D1*
Y20191D1*
X50032Y20320D2*
Y20334D1*
X50046Y20363D1*
X50060Y20378D1*
X50089Y20392D1*
X50147D1*
X50175Y20378D1*
X50189Y20363D1*
X50204Y20334D1*
Y20306D1*
X50189Y20277D1*
X50161Y20234D1*
X50017Y20091D1*
X50218D1*
X50397Y20392D2*
X50354Y20378D1*
X50325Y20334D1*
X50311Y20263D1*
Y20220D1*
X50325Y20148D1*
X50354Y20105D1*
X50397Y20091D1*
X50426D1*
X50469Y20105D1*
X50497Y20148D1*
X50512Y20220D1*
Y20263D1*
X50497Y20334D1*
X50469Y20378D1*
X50426Y20392D1*
X50397D1*
X50497Y20334D2*
X50325Y20148D1*
X50619Y20320D2*
Y20334D1*
X50633Y20363D1*
X50648Y20378D1*
X50676Y20392D1*
X50734D1*
X50762Y20378D1*
X50777Y20363D1*
X50791Y20334D1*
Y20306D1*
X50777Y20277D1*
X50748Y20234D1*
X50605Y20091D1*
X50805D1*
X48881Y2189D2*
Y1960D1*
X48867Y1917D1*
X48853Y1902D1*
X48824Y1888D1*
X48795D1*
X48767Y1902D1*
X48752Y1917D1*
X48738Y1960D1*
Y1988D1*
X48989Y2117D2*
Y2132D1*
X49003Y2160D1*
X49017Y2175D1*
X49046Y2189D1*
X49103D1*
X49132Y2175D1*
X49146Y2160D1*
X49161Y2132D1*
Y2103D1*
X49146Y2074D1*
X49118Y2031D1*
X48974Y1888D1*
X49175D1*
X49354Y2189D2*
X49311Y2175D1*
X49282Y2132D1*
X49268Y2060D1*
Y2017D1*
X49282Y1945D1*
X49311Y1902D1*
X49354Y1888D1*
X49382D1*
X49425Y1902D1*
X49454Y1945D1*
X49469Y2017D1*
Y2060D1*
X49454Y2132D1*
X49425Y2175D1*
X49382Y2189D1*
X49354D1*
X49454Y2132D2*
X49282Y1945D1*
X49590Y2189D2*
X49748D1*
X49662Y2074D1*
X49705D1*
X49733Y2060D1*
X49748Y2046D1*
X49762Y2003D1*
Y1974D1*
X49748Y1931D1*
X49719Y1902D1*
X49676Y1888D1*
X49633D1*
X49590Y1902D1*
X49576Y1917D1*
X49561Y1945D1*
X25946Y15833D2*
Y15604D1*
X25932Y15560D1*
X25917Y15546D1*
X25889Y15532D1*
X25860D1*
X25831Y15546D1*
X25817Y15560D1*
X25802Y15604D1*
Y15632D1*
X26067Y15833D2*
X26225D1*
X26139Y15718D1*
X26182D1*
X26211Y15704D1*
X26225Y15689D1*
X26239Y15646D1*
Y15618D1*
X26225Y15575D1*
X26196Y15546D1*
X26153Y15532D1*
X26110D1*
X26067Y15546D1*
X26053Y15560D1*
X26039Y15589D1*
X26418Y15833D2*
X26375Y15818D1*
X26346Y15775D1*
X26332Y15704D1*
Y15661D1*
X26346Y15589D1*
X26375Y15546D1*
X26418Y15532D1*
X26447D1*
X26490Y15546D1*
X26519Y15589D1*
X26533Y15661D1*
Y15704D1*
X26519Y15775D1*
X26490Y15818D1*
X26447Y15833D1*
X26418D1*
X26519Y15775D2*
X26346Y15589D1*
X26626Y15775D2*
X26655Y15790D1*
X26698Y15833D1*
Y15532D1*
X32857Y17628D2*
Y17399D1*
X32843Y17356D1*
X32828Y17341D1*
X32799Y17327D1*
X32771D1*
X32742Y17341D1*
X32728Y17356D1*
X32713Y17399D1*
Y17427D1*
X32978Y17628D2*
X33136D1*
X33050Y17513D1*
X33093D1*
X33122Y17499D1*
X33136Y17485D1*
X33150Y17442D1*
Y17413D1*
X33136Y17370D1*
X33107Y17341D1*
X33064Y17327D1*
X33021D1*
X32978Y17341D1*
X32964Y17356D1*
X32949Y17384D1*
X33329Y17628D2*
X33286Y17614D1*
X33257Y17571D1*
X33243Y17499D1*
Y17456D1*
X33257Y17384D1*
X33286Y17341D1*
X33329Y17327D1*
X33358D1*
X33401Y17341D1*
X33429Y17384D1*
X33444Y17456D1*
Y17499D1*
X33429Y17571D1*
X33401Y17614D1*
X33358Y17628D1*
X33329D1*
X33429Y17571D2*
X33257Y17384D1*
X33551Y17556D2*
Y17571D1*
X33565Y17599D1*
X33580Y17614D1*
X33609Y17628D1*
X33666D1*
X33694Y17614D1*
X33709Y17599D1*
X33723Y17571D1*
Y17542D1*
X33709Y17513D1*
X33680Y17470D1*
X33537Y17327D1*
X33738D1*
X27857Y17628D2*
Y17399D1*
X27843Y17356D1*
X27828Y17341D1*
X27799Y17327D1*
X27771D1*
X27742Y17341D1*
X27728Y17356D1*
X27713Y17399D1*
Y17427D1*
X27978Y17628D2*
X28136D1*
X28050Y17513D1*
X28093D1*
X28122Y17499D1*
X28136Y17485D1*
X28150Y17442D1*
Y17413D1*
X28136Y17370D1*
X28107Y17341D1*
X28064Y17327D1*
X28021D1*
X27978Y17341D1*
X27964Y17356D1*
X27949Y17384D1*
X28329Y17628D2*
X28286Y17614D1*
X28257Y17571D1*
X28243Y17499D1*
Y17456D1*
X28257Y17384D1*
X28286Y17341D1*
X28329Y17327D1*
X28358D1*
X28401Y17341D1*
X28429Y17384D1*
X28444Y17456D1*
Y17499D1*
X28429Y17571D1*
X28401Y17614D1*
X28358Y17628D1*
X28329D1*
X28429Y17571D2*
X28257Y17384D1*
X28565Y17628D2*
X28723D1*
X28637Y17513D1*
X28680D1*
X28709Y17499D1*
X28723Y17485D1*
X28738Y17442D1*
Y17413D1*
X28723Y17370D1*
X28694Y17341D1*
X28651Y17327D1*
X28608D1*
X28565Y17341D1*
X28551Y17356D1*
X28537Y17384D1*
X24563Y4544D2*
X24793D1*
X24836Y4530D1*
X24850Y4515D1*
X24865Y4487D1*
Y4458D1*
X24850Y4429D1*
X24836Y4415D1*
X24793Y4400D1*
X24764D1*
X24865Y4780D2*
X24564D1*
X24764Y4637D1*
Y4852D1*
X24564Y5031D2*
X24578Y4988D1*
X24621Y4959D1*
X24693Y4944D1*
X24736D1*
X24807Y4959D1*
X24850Y4988D1*
X24865Y5031D1*
Y5059D1*
X24850Y5102D1*
X24807Y5131D1*
X24736Y5145D1*
X24693D1*
X24621Y5131D1*
X24578Y5102D1*
X24564Y5059D1*
Y5031D1*
X24621Y5131D2*
X24807Y4959D1*
X24621Y5238D2*
X24606Y5267D1*
X24564Y5310D1*
X24865D1*
X31506Y3987D2*
X31736D1*
X31779Y3973D1*
X31793Y3958D1*
X31807Y3930D1*
Y3901D1*
X31793Y3872D1*
X31779Y3858D1*
X31736Y3843D1*
X31707D1*
X31807Y4223D2*
X31506D1*
X31707Y4080D1*
Y4295D1*
X31506Y4474D2*
X31521Y4431D1*
X31564Y4402D1*
X31635Y4387D1*
X31678D1*
X31750Y4402D1*
X31793Y4431D1*
X31807Y4474D1*
Y4502D1*
X31793Y4545D1*
X31750Y4574D1*
X31678Y4588D1*
X31635D1*
X31564Y4574D1*
X31521Y4545D1*
X31506Y4502D1*
Y4474D1*
X31564Y4574D2*
X31750Y4402D1*
X31578Y4696D2*
X31564D1*
X31535Y4710D1*
X31521Y4724D1*
X31506Y4753D1*
Y4810D1*
X31521Y4839D1*
X31535Y4853D1*
X31564Y4868D1*
X31592D1*
X31621Y4853D1*
X31664Y4825D1*
X31807Y4681D1*
Y4882D1*
X2696Y19979D2*
Y19750D1*
X2682Y19707D1*
X2667Y19692D1*
X2639Y19678D1*
X2610D1*
X2581Y19692D1*
X2567Y19707D1*
X2552Y19750D1*
Y19778D1*
X2961Y19979D2*
X2817D1*
X2803Y19850D1*
X2817Y19864D1*
X2860Y19879D1*
X2903D1*
X2946Y19864D1*
X2975Y19836D1*
X2989Y19793D1*
Y19764D1*
X2975Y19721D1*
X2946Y19692D1*
X2903Y19678D1*
X2860D1*
X2817Y19692D1*
X2803Y19707D1*
X2789Y19735D1*
X3168Y19979D2*
X3125Y19965D1*
X3096Y19922D1*
X3082Y19850D1*
Y19807D1*
X3096Y19735D1*
X3125Y19692D1*
X3168Y19678D1*
X3197D1*
X3240Y19692D1*
X3269Y19735D1*
X3283Y19807D1*
Y19850D1*
X3269Y19922D1*
X3240Y19965D1*
X3197Y19979D1*
X3168D1*
X3269Y19922D2*
X3096Y19735D1*
X3376Y19922D2*
X3405Y19936D1*
X3448Y19979D1*
Y19678D1*
X34569Y4564D2*
Y4335D1*
X34555Y4292D1*
X34540Y4277D1*
X34512Y4263D1*
X34483D1*
X34454Y4277D1*
X34440Y4292D1*
X34425Y4335D1*
Y4363D1*
X34834Y4564D2*
X34690D1*
X34676Y4435D1*
X34690Y4449D1*
X34734Y4464D1*
X34776D1*
X34819Y4449D1*
X34848Y4421D1*
X34863Y4378D1*
Y4349D1*
X34848Y4306D1*
X34819Y4277D1*
X34776Y4263D1*
X34734D1*
X34690Y4277D1*
X34676Y4292D1*
X34662Y4320D1*
X35041Y4564D2*
X34998Y4550D1*
X34969Y4507D1*
X34955Y4435D1*
Y4392D1*
X34969Y4320D1*
X34998Y4277D1*
X35041Y4263D1*
X35070D1*
X35113Y4277D1*
X35142Y4320D1*
X35156Y4392D1*
Y4435D1*
X35142Y4507D1*
X35113Y4550D1*
X35070Y4564D1*
X35041D1*
X35142Y4507D2*
X34969Y4320D1*
X35263Y4492D2*
Y4507D1*
X35278Y4535D1*
X35292Y4550D1*
X35321Y4564D1*
X35378D1*
X35407Y4550D1*
X35421Y4535D1*
X35435Y4507D1*
Y4478D1*
X35421Y4449D1*
X35392Y4406D1*
X35249Y4263D1*
X35450D1*
X24913Y5767D2*
X24927Y5738D1*
X24956Y5709D1*
X24985Y5695D1*
X25028Y5681D1*
X25099D1*
X25142Y5695D1*
X25171Y5709D1*
X25200Y5738D1*
X25214Y5767D1*
Y5824D1*
X25200Y5853D1*
X25171Y5882D1*
X25142Y5896D1*
X25099Y5910D1*
X25028D1*
X24985Y5896D1*
X24956Y5882D1*
X24927Y5853D1*
X24913Y5824D1*
Y5767D1*
X25157Y5810D2*
X25243Y5896D1*
X25214Y6147D2*
X24913D1*
X25114Y6003D1*
Y6218D1*
X24913Y6397D2*
X24928Y6354D1*
X24971Y6325D1*
X25042Y6311D1*
X25085D1*
X25157Y6325D1*
X25200Y6354D1*
X25214Y6397D1*
Y6426D1*
X25200Y6469D1*
X25157Y6497D1*
X25085Y6512D1*
X25042D1*
X24971Y6497D1*
X24928Y6469D1*
X24913Y6426D1*
Y6397D1*
X24971Y6497D2*
X25157Y6325D1*
X24971Y6605D2*
X24956Y6633D1*
X24913Y6676D1*
X25214D1*
X30665Y5694D2*
X30637Y5680D1*
X30608Y5651D1*
X30594Y5622D1*
X30579Y5579D1*
Y5507D1*
X30594Y5464D1*
X30608Y5436D1*
X30637Y5407D1*
X30665Y5392D1*
X30723D1*
X30751Y5407D1*
X30780Y5436D1*
X30794Y5464D1*
X30809Y5507D1*
Y5579D1*
X30794Y5622D1*
X30780Y5651D1*
X30751Y5680D1*
X30723Y5694D1*
X30665D1*
X30708Y5450D2*
X30794Y5364D1*
X31045Y5392D2*
Y5693D1*
X30901Y5493D1*
X31117D1*
X31295Y5693D2*
X31252Y5679D1*
X31224Y5636D1*
X31209Y5564D1*
Y5521D1*
X31224Y5450D1*
X31252Y5406D1*
X31295Y5392D1*
X31324D1*
X31367Y5406D1*
X31396Y5450D1*
X31410Y5521D1*
Y5564D1*
X31396Y5636D1*
X31367Y5679D1*
X31324Y5693D1*
X31295D1*
X31396Y5636D2*
X31224Y5450D1*
X31517Y5622D2*
Y5636D1*
X31532Y5665D1*
X31546Y5679D1*
X31575Y5693D1*
X31632D1*
X31661Y5679D1*
X31675Y5665D1*
X31690Y5636D1*
Y5607D1*
X31675Y5579D1*
X31646Y5536D1*
X31503Y5392D1*
X31704D1*
X27502Y5541D2*
X27516Y5512D1*
X27545Y5483D1*
X27574Y5469D1*
X27617Y5455D1*
X27689D1*
X27732Y5469D1*
X27760Y5483D1*
X27789Y5512D1*
X27804Y5541D1*
Y5598D1*
X27789Y5627D1*
X27760Y5656D1*
X27732Y5670D1*
X27689Y5684D1*
X27617D1*
X27574Y5670D1*
X27545Y5656D1*
X27516Y5627D1*
X27502Y5598D1*
Y5541D1*
X27746Y5584D2*
X27832Y5670D1*
X27804Y5921D2*
X27503D1*
X27703Y5777D1*
Y5992D1*
X27503Y6171D2*
X27517Y6128D1*
X27560Y6099D1*
X27632Y6085D1*
X27675D1*
X27747Y6099D1*
X27790Y6128D1*
X27804Y6171D1*
Y6200D1*
X27790Y6243D1*
X27747Y6271D1*
X27675Y6286D1*
X27632D1*
X27560Y6271D1*
X27517Y6243D1*
X27503Y6200D1*
Y6171D1*
X27560Y6271D2*
X27747Y6099D1*
X27503Y6407D2*
Y6565D1*
X27618Y6479D1*
Y6522D1*
X27632Y6551D1*
X27646Y6565D1*
X27689Y6579D1*
X27718D1*
X27761Y6565D1*
X27790Y6536D1*
X27804Y6493D1*
Y6450D1*
X27790Y6407D1*
X27775Y6393D1*
X27747Y6378D1*
X383Y8439D2*
X397Y8410D1*
X426Y8382D1*
X455Y8367D1*
X498Y8353D1*
X570D1*
X613Y8367D1*
X641Y8382D1*
X670Y8410D1*
X685Y8439D1*
Y8496D1*
X670Y8525D1*
X641Y8554D1*
X613Y8568D1*
X570Y8583D1*
X498D1*
X455Y8568D1*
X426Y8554D1*
X397Y8525D1*
X383Y8496D1*
Y8439D1*
X627Y8482D2*
X713Y8568D1*
X384Y8847D2*
Y8704D1*
X513Y8690D1*
X499Y8704D1*
X484Y8747D1*
Y8790D1*
X499Y8833D1*
X527Y8862D1*
X570Y8876D1*
X599D1*
X642Y8862D1*
X671Y8833D1*
X685Y8790D1*
Y8747D1*
X671Y8704D1*
X656Y8690D1*
X628Y8675D1*
X384Y9055D2*
X398Y9012D1*
X441Y8983D1*
X513Y8969D1*
X556D1*
X628Y8983D1*
X671Y9012D1*
X685Y9055D1*
Y9083D1*
X671Y9127D1*
X628Y9155D1*
X556Y9170D1*
X513D1*
X441Y9155D1*
X398Y9127D1*
X384Y9083D1*
Y9055D1*
X441Y9155D2*
X628Y8983D1*
X441Y9262D2*
X427Y9291D1*
X384Y9334D1*
X685D1*
X5196Y8437D2*
X5210Y8408D1*
X5239Y8380D1*
X5268Y8365D1*
X5311Y8351D1*
X5382D1*
X5425Y8365D1*
X5454Y8380D1*
X5483Y8408D1*
X5497Y8437D1*
Y8494D1*
X5483Y8523D1*
X5454Y8552D1*
X5425Y8566D1*
X5382Y8581D1*
X5311D1*
X5268Y8566D1*
X5239Y8552D1*
X5210Y8523D1*
X5196Y8494D1*
Y8437D1*
X5440Y8480D2*
X5526Y8566D1*
X5196Y8845D2*
Y8702D1*
X5325Y8688D1*
X5311Y8702D1*
X5296Y8745D1*
Y8788D1*
X5311Y8831D1*
X5340Y8860D1*
X5383Y8874D1*
X5411D1*
X5454Y8860D1*
X5483Y8831D1*
X5497Y8788D1*
Y8745D1*
X5483Y8702D1*
X5469Y8688D1*
X5440Y8673D1*
X5196Y9053D2*
X5211Y9010D1*
X5254Y8981D1*
X5325Y8967D1*
X5368D1*
X5440Y8981D1*
X5483Y9010D1*
X5497Y9053D1*
Y9081D1*
X5483Y9125D1*
X5440Y9153D1*
X5368Y9168D1*
X5325D1*
X5254Y9153D1*
X5211Y9125D1*
X5196Y9081D1*
Y9053D1*
X5254Y9153D2*
X5440Y8981D1*
X5268Y9275D2*
X5254D1*
X5225Y9289D1*
X5211Y9303D1*
X5196Y9332D1*
Y9390D1*
X5211Y9418D1*
X5225Y9432D1*
X5254Y9447D1*
X5282D1*
X5311Y9432D1*
X5354Y9404D1*
X5497Y9260D1*
Y9461D1*
X35696Y20517D2*
X35825D1*
X35868Y20531D1*
X35883Y20546D1*
X35897Y20574D1*
Y20603D1*
X35883Y20632D1*
X35868Y20646D1*
X35825Y20660D1*
X35696D1*
Y20359D1*
X35796Y20517D2*
X35897Y20359D1*
X35990Y20603D2*
X36018Y20617D1*
X36062Y20660D1*
Y20359D1*
X13196Y7234D2*
Y7363D1*
X13182Y7406D1*
X13167Y7421D1*
X13139Y7435D1*
X13110D1*
X13082Y7421D1*
X13067Y7406D1*
X13053Y7363D1*
Y7234D1*
X13354D1*
X13196Y7335D2*
X13354Y7435D1*
X13110Y7528D2*
X13096Y7556D1*
X13053Y7600D1*
X13354D1*
X13053Y7778D2*
X13067Y7735D1*
X13110Y7706D1*
X13182Y7692D1*
X13225D1*
X13297Y7706D1*
X13340Y7735D1*
X13354Y7778D1*
Y7807D1*
X13340Y7850D1*
X13297Y7879D1*
X13225Y7893D1*
X13182D1*
X13110Y7879D1*
X13067Y7850D1*
X13053Y7807D1*
Y7778D1*
X13110Y7879D2*
X13297Y7706D1*
X13354Y8043D2*
X13053Y8187D1*
Y7986D1*
X15892Y14756D2*
Y14885D1*
X15877Y14928D1*
X15863Y14942D1*
X15835Y14957D1*
X15806D1*
X15777Y14942D1*
X15763Y14928D1*
X15748Y14885D1*
Y14756D1*
X16050D1*
X15892Y14856D2*
X16050Y14957D1*
X15806Y15049D2*
X15791Y15078D1*
X15749Y15121D1*
X16050D1*
X15806Y15214D2*
X15791Y15243D1*
X15749Y15286D1*
X16050D1*
X15820Y15393D2*
X15806D1*
X15777Y15407D1*
X15763Y15421D1*
X15749Y15450D1*
Y15508D1*
X15763Y15536D1*
X15777Y15550D1*
X15806Y15565D1*
X15835D1*
X15863Y15550D1*
X15906Y15522D1*
X16050Y15378D1*
Y15579D1*
X15671Y8531D2*
X15800D1*
X15843Y8546D1*
X15858Y8560D1*
X15872Y8589D1*
Y8618D1*
X15858Y8646D1*
X15843Y8661D1*
X15800Y8675D1*
X15671D1*
Y8374D1*
X15771Y8531D2*
X15872Y8374D1*
X15964Y8617D2*
X15993Y8632D1*
X16036Y8675D1*
Y8374D1*
X16129Y8617D2*
X16158Y8632D1*
X16201Y8675D1*
Y8374D1*
X16322Y8675D2*
X16480D1*
X16394Y8560D1*
X16437D1*
X16466Y8546D1*
X16480Y8531D1*
X16495Y8488D1*
Y8460D1*
X16480Y8417D1*
X16451Y8388D1*
X16408Y8374D1*
X16365D1*
X16322Y8388D1*
X16308Y8402D1*
X16294Y8431D1*
X5877Y15307D2*
X6006D1*
X6049Y15321D1*
X6064Y15335D1*
X6078Y15364D1*
Y15393D1*
X6064Y15421D1*
X6049Y15436D1*
X6006Y15450D1*
X5877D1*
Y15149D1*
X5978Y15307D2*
X6078Y15149D1*
X6171Y15393D2*
X6200Y15407D1*
X6243Y15450D1*
Y15149D1*
X6422Y15450D2*
X6378Y15436D1*
X6350Y15393D1*
X6335Y15321D1*
Y15278D1*
X6350Y15206D1*
X6378Y15163D1*
X6422Y15149D1*
X6450D1*
X6493Y15163D1*
X6522Y15206D1*
X6536Y15278D1*
Y15321D1*
X6522Y15393D1*
X6493Y15436D1*
X6450Y15450D1*
X6422D1*
X6522Y15393D2*
X6350Y15206D1*
X6644Y15378D2*
Y15393D1*
X6658Y15421D1*
X6672Y15436D1*
X6701Y15450D1*
X6758D1*
X6787Y15436D1*
X6801Y15421D1*
X6816Y15393D1*
Y15364D1*
X6801Y15335D1*
X6773Y15292D1*
X6629Y15149D1*
X6830D1*
X10922Y15369D2*
X11051D1*
X11094Y15384D1*
X11109Y15398D1*
X11123Y15427D1*
Y15455D1*
X11109Y15484D1*
X11094Y15499D1*
X11051Y15513D1*
X10922D1*
Y15211D1*
X11022Y15369D2*
X11123Y15211D1*
X11216Y15455D2*
X11244Y15470D1*
X11287Y15513D1*
Y15211D1*
X11466Y15513D2*
X11423Y15498D1*
X11394Y15455D1*
X11380Y15384D1*
Y15340D1*
X11394Y15269D1*
X11423Y15226D1*
X11466Y15211D1*
X11495D1*
X11538Y15226D1*
X11566Y15269D1*
X11581Y15340D1*
Y15384D1*
X11566Y15455D1*
X11538Y15498D1*
X11495Y15513D1*
X11466D1*
X11566Y15455D2*
X11394Y15269D1*
X11703Y15513D2*
X11860D1*
X11774Y15398D1*
X11817D1*
X11846Y15384D1*
X11860Y15369D1*
X11875Y15326D1*
Y15298D1*
X11860Y15255D1*
X11832Y15226D1*
X11788Y15211D1*
X11745D1*
X11703Y15226D1*
X11688Y15240D1*
X11674Y15269D1*
X53189Y4993D2*
X53318D1*
X53361Y5007D1*
X53376Y5021D1*
X53390Y5050D1*
Y5079D1*
X53376Y5107D1*
X53361Y5122D1*
X53318Y5136D1*
X53189D1*
Y4835D1*
X53289Y4993D2*
X53390Y4835D1*
X53497Y5064D2*
Y5078D1*
X53511Y5107D1*
X53526Y5122D1*
X53555Y5136D1*
X53612D1*
X53640Y5122D1*
X53655Y5107D1*
X53669Y5078D1*
Y5050D1*
X53655Y5021D1*
X53626Y4978D1*
X53483Y4835D1*
X53684D1*
X53862Y5136D2*
X53819Y5122D1*
X53790Y5078D1*
X53776Y5007D1*
Y4964D1*
X53790Y4892D1*
X53819Y4849D1*
X53862Y4835D1*
X53891D1*
X53934Y4849D1*
X53963Y4892D1*
X53977Y4964D1*
Y5007D1*
X53963Y5078D1*
X53934Y5122D1*
X53891Y5136D1*
X53862D1*
X53963Y5078D2*
X53790Y4892D1*
X54070Y5078D2*
X54099Y5093D1*
X54142Y5136D1*
Y4835D1*
X47507Y7231D2*
Y7360D1*
X47493Y7403D1*
X47479Y7418D1*
X47450Y7432D1*
X47421D1*
X47393Y7418D1*
X47378Y7403D1*
X47364Y7360D1*
Y7231D1*
X47665D1*
X47507Y7332D2*
X47665Y7432D1*
X47436Y7539D2*
X47422D1*
X47393Y7554D1*
X47378Y7568D1*
X47364Y7597D1*
Y7654D1*
X47378Y7683D1*
X47393Y7697D1*
X47422Y7712D1*
X47450D1*
X47479Y7697D1*
X47522Y7668D1*
X47665Y7525D1*
Y7726D1*
X47364Y7905D2*
X47378Y7862D1*
X47422Y7833D1*
X47493Y7818D1*
X47536D1*
X47608Y7833D1*
X47651Y7862D1*
X47665Y7905D1*
Y7933D1*
X47651Y7976D1*
X47608Y8005D1*
X47536Y8019D1*
X47493D1*
X47422Y8005D1*
X47378Y7976D1*
X47364Y7933D1*
Y7905D1*
X47422Y8005D2*
X47608Y7833D1*
X47436Y8127D2*
X47422D1*
X47393Y8141D1*
X47378Y8155D1*
X47364Y8184D1*
Y8241D1*
X47378Y8270D1*
X47393Y8284D1*
X47422Y8299D1*
X47450D1*
X47479Y8284D1*
X47522Y8256D1*
X47665Y8112D1*
Y8313D1*
X46007Y7249D2*
Y7378D1*
X45993Y7422D1*
X45979Y7436D1*
X45950Y7450D1*
X45921D1*
X45893Y7436D1*
X45878Y7422D1*
X45864Y7378D1*
Y7249D1*
X46165D1*
X46007Y7350D2*
X46165Y7450D1*
X45936Y7558D2*
X45922D1*
X45893Y7572D1*
X45878Y7586D1*
X45864Y7615D1*
Y7672D1*
X45878Y7701D1*
X45893Y7715D1*
X45922Y7730D1*
X45950D1*
X45979Y7715D1*
X46022Y7687D1*
X46165Y7543D1*
Y7744D1*
X45864Y7923D2*
X45878Y7880D1*
X45922Y7851D1*
X45993Y7837D1*
X46036D1*
X46108Y7851D1*
X46151Y7880D1*
X46165Y7923D1*
Y7951D1*
X46151Y7995D1*
X46108Y8023D1*
X46036Y8038D1*
X45993D1*
X45922Y8023D1*
X45878Y7995D1*
X45864Y7951D1*
Y7923D1*
X45922Y8023D2*
X46108Y7851D1*
X45864Y8159D2*
Y8317D1*
X45979Y8231D1*
Y8274D1*
X45993Y8302D1*
X46007Y8317D1*
X46051Y8331D1*
X46079D1*
X46122Y8317D1*
X46151Y8288D1*
X46165Y8245D1*
Y8202D1*
X46151Y8159D1*
X46136Y8145D1*
X46108Y8130D1*
X46757Y14787D2*
Y14916D1*
X46743Y14959D1*
X46729Y14973D1*
X46700Y14988D1*
X46671D1*
X46643Y14973D1*
X46628Y14959D1*
X46614Y14916D1*
Y14787D1*
X46915D1*
X46757Y14887D2*
X46915Y14988D1*
X46686Y15095D2*
X46672D1*
X46643Y15109D1*
X46628Y15123D1*
X46614Y15152D1*
Y15210D1*
X46628Y15238D1*
X46643Y15252D1*
X46672Y15267D1*
X46700D1*
X46729Y15252D1*
X46772Y15224D1*
X46915Y15080D1*
Y15281D1*
X46614Y15460D2*
X46628Y15417D1*
X46672Y15388D1*
X46743Y15374D1*
X46786D1*
X46858Y15388D1*
X46901Y15417D1*
X46915Y15460D1*
Y15489D1*
X46901Y15532D1*
X46858Y15560D1*
X46786Y15575D1*
X46743D1*
X46672Y15560D1*
X46628Y15532D1*
X46614Y15489D1*
Y15460D1*
X46672Y15560D2*
X46858Y15388D1*
X46915Y15811D2*
X46614D1*
X46815Y15667D1*
Y15883D1*
X48195Y7231D2*
Y7360D1*
X48180Y7403D1*
X48166Y7418D1*
X48138Y7432D1*
X48109D1*
X48080Y7418D1*
X48066Y7403D1*
X48051Y7360D1*
Y7231D1*
X48353D1*
X48195Y7332D2*
X48353Y7432D1*
X48123Y7539D2*
X48109D1*
X48080Y7554D1*
X48066Y7568D1*
X48052Y7597D1*
Y7654D1*
X48066Y7683D1*
X48080Y7697D1*
X48109Y7712D1*
X48138D1*
X48166Y7697D1*
X48209Y7668D1*
X48353Y7525D1*
Y7726D1*
X48052Y7905D2*
X48066Y7862D1*
X48109Y7833D1*
X48181Y7818D1*
X48224D1*
X48295Y7833D1*
X48338Y7862D1*
X48353Y7905D1*
Y7933D1*
X48338Y7976D1*
X48295Y8005D1*
X48224Y8019D1*
X48181D1*
X48109Y8005D1*
X48066Y7976D1*
X48052Y7933D1*
Y7905D1*
X48109Y8005D2*
X48295Y7833D1*
X48052Y8284D2*
Y8141D1*
X48181Y8127D1*
X48166Y8141D1*
X48152Y8184D1*
Y8227D1*
X48166Y8270D1*
X48195Y8299D1*
X48238Y8313D1*
X48267D1*
X48310Y8299D1*
X48338Y8270D1*
X48353Y8227D1*
Y8184D1*
X48338Y8141D1*
X48324Y8127D1*
X48295Y8112D1*
X48257Y14882D2*
Y15011D1*
X48243Y15054D1*
X48229Y15068D1*
X48200Y15083D1*
X48171D1*
X48143Y15068D1*
X48128Y15054D1*
X48114Y15011D1*
Y14882D1*
X48415D1*
X48257Y14982D2*
X48415Y15083D1*
X48186Y15190D2*
X48172D1*
X48143Y15204D1*
X48128Y15218D1*
X48114Y15247D1*
Y15305D1*
X48128Y15333D1*
X48143Y15347D1*
X48172Y15362D1*
X48200D1*
X48229Y15347D1*
X48272Y15319D1*
X48415Y15175D1*
Y15376D1*
X48114Y15555D2*
X48128Y15512D1*
X48172Y15483D1*
X48243Y15469D1*
X48286D1*
X48358Y15483D1*
X48401Y15512D1*
X48415Y15555D1*
Y15584D1*
X48401Y15627D1*
X48358Y15655D1*
X48286Y15670D1*
X48243D1*
X48172Y15655D1*
X48128Y15627D1*
X48114Y15584D1*
Y15555D1*
X48172Y15655D2*
X48358Y15483D1*
X48157Y15935D2*
X48128Y15920D1*
X48114Y15877D1*
Y15849D1*
X48128Y15806D1*
X48172Y15777D1*
X48243Y15763D1*
X48315D1*
X48372Y15777D1*
X48401Y15806D1*
X48415Y15849D1*
Y15863D1*
X48401Y15906D1*
X48372Y15935D1*
X48329Y15949D1*
X48315D1*
X48272Y15935D1*
X48243Y15906D1*
X48229Y15863D1*
Y15849D1*
X48243Y15806D1*
X48272Y15777D1*
X48315Y15763D1*
X51007Y7231D2*
Y7360D1*
X50993Y7403D1*
X50979Y7418D1*
X50950Y7432D1*
X50921D1*
X50893Y7418D1*
X50878Y7403D1*
X50864Y7360D1*
Y7231D1*
X51165D1*
X51007Y7332D2*
X51165Y7432D1*
X50936Y7539D2*
X50922D1*
X50893Y7554D1*
X50878Y7568D1*
X50864Y7597D1*
Y7654D1*
X50878Y7683D1*
X50893Y7697D1*
X50922Y7712D1*
X50950D1*
X50979Y7697D1*
X51022Y7668D1*
X51165Y7525D1*
Y7726D1*
X50864Y7905D2*
X50878Y7862D1*
X50922Y7833D1*
X50993Y7818D1*
X51036D1*
X51108Y7833D1*
X51151Y7862D1*
X51165Y7905D1*
Y7933D1*
X51151Y7976D1*
X51108Y8005D1*
X51036Y8019D1*
X50993D1*
X50922Y8005D1*
X50878Y7976D1*
X50864Y7933D1*
Y7905D1*
X50922Y8005D2*
X51108Y7833D1*
X51165Y8169D2*
X50864Y8313D1*
Y8112D1*
X52507Y7248D2*
Y7377D1*
X52493Y7420D1*
X52479Y7434D1*
X52450Y7449D1*
X52421D1*
X52393Y7434D1*
X52378Y7420D1*
X52364Y7377D1*
Y7248D1*
X52665D1*
X52507Y7348D2*
X52665Y7449D1*
X52436Y7556D2*
X52422D1*
X52393Y7570D1*
X52378Y7584D1*
X52364Y7613D1*
Y7671D1*
X52378Y7699D1*
X52393Y7713D1*
X52422Y7728D1*
X52450D1*
X52479Y7713D1*
X52522Y7685D1*
X52665Y7541D1*
Y7742D1*
X52364Y7921D2*
X52378Y7878D1*
X52422Y7849D1*
X52493Y7835D1*
X52536D1*
X52608Y7849D1*
X52651Y7878D1*
X52665Y7921D1*
Y7950D1*
X52651Y7993D1*
X52608Y8021D1*
X52536Y8036D1*
X52493D1*
X52422Y8021D1*
X52378Y7993D1*
X52364Y7950D1*
Y7921D1*
X52422Y8021D2*
X52608Y7849D1*
X52364Y8200D2*
X52378Y8157D1*
X52407Y8143D1*
X52436D1*
X52464Y8157D1*
X52479Y8186D1*
X52493Y8243D1*
X52507Y8286D1*
X52536Y8315D1*
X52565Y8329D1*
X52608D1*
X52636Y8315D1*
X52651Y8301D1*
X52665Y8257D1*
Y8200D1*
X52651Y8157D1*
X52636Y8143D1*
X52608Y8128D1*
X52565D1*
X52536Y8143D1*
X52507Y8172D1*
X52493Y8214D1*
X52479Y8272D1*
X52464Y8301D1*
X52436Y8315D1*
X52407D1*
X52378Y8301D1*
X52364Y8257D1*
Y8200D1*
X51757Y14863D2*
Y14992D1*
X51743Y15036D1*
X51729Y15050D1*
X51700Y15064D1*
X51671D1*
X51643Y15050D1*
X51628Y15036D1*
X51614Y14992D1*
Y14863D1*
X51915D1*
X51757Y14964D2*
X51915Y15064D1*
X51686Y15172D2*
X51672D1*
X51643Y15186D1*
X51628Y15200D1*
X51614Y15229D1*
Y15286D1*
X51628Y15315D1*
X51643Y15329D1*
X51672Y15344D1*
X51700D1*
X51729Y15329D1*
X51772Y15301D1*
X51915Y15157D1*
Y15358D1*
X51614Y15537D2*
X51628Y15494D1*
X51672Y15465D1*
X51743Y15451D1*
X51786D1*
X51858Y15465D1*
X51901Y15494D1*
X51915Y15537D1*
Y15565D1*
X51901Y15608D1*
X51858Y15637D1*
X51786Y15652D1*
X51743D1*
X51672Y15637D1*
X51628Y15608D1*
X51614Y15565D1*
Y15537D1*
X51672Y15637D2*
X51858Y15465D1*
X51714Y15931D2*
X51757Y15916D1*
X51786Y15888D1*
X51801Y15845D1*
Y15830D1*
X51786Y15787D1*
X51757Y15759D1*
X51714Y15744D1*
X51700D1*
X51657Y15759D1*
X51628Y15787D1*
X51614Y15830D1*
Y15845D1*
X51628Y15888D1*
X51657Y15916D1*
X51714Y15931D1*
X51786D1*
X51858Y15916D1*
X51901Y15888D1*
X51915Y15845D1*
Y15816D1*
X51901Y15773D1*
X51872Y15759D1*
X50257Y7296D2*
Y7425D1*
X50243Y7468D1*
X50229Y7482D1*
X50200Y7497D1*
X50171D1*
X50143Y7482D1*
X50128Y7468D1*
X50114Y7425D1*
Y7296D1*
X50415D1*
X50257Y7396D2*
X50415Y7497D1*
X50186Y7604D2*
X50172D1*
X50143Y7618D1*
X50128Y7632D1*
X50114Y7661D1*
Y7719D1*
X50128Y7747D1*
X50143Y7761D1*
X50172Y7776D1*
X50200D1*
X50229Y7761D1*
X50272Y7733D1*
X50415Y7589D1*
Y7790D1*
X50172Y7883D2*
X50157Y7912D1*
X50114Y7955D1*
X50415D1*
X50114Y8134D2*
X50128Y8091D1*
X50172Y8062D1*
X50243Y8048D1*
X50286D1*
X50358Y8062D1*
X50401Y8091D1*
X50415Y8134D1*
Y8162D1*
X50401Y8205D1*
X50358Y8234D1*
X50286Y8249D1*
X50243D1*
X50172Y8234D1*
X50128Y8205D1*
X50114Y8162D1*
Y8134D1*
X50172Y8234D2*
X50358Y8062D1*
X50195Y14941D2*
Y15070D1*
X50180Y15113D1*
X50166Y15128D1*
X50138Y15142D1*
X50109D1*
X50080Y15128D1*
X50066Y15113D1*
X50051Y15070D1*
Y14941D1*
X50353D1*
X50195Y15041D2*
X50353Y15142D1*
X50123Y15249D2*
X50109D1*
X50080Y15263D1*
X50066Y15278D1*
X50052Y15307D1*
Y15364D1*
X50066Y15392D1*
X50080Y15407D1*
X50109Y15421D1*
X50138D1*
X50166Y15407D1*
X50209Y15378D1*
X50353Y15235D1*
Y15436D1*
X50109Y15528D2*
X50094Y15557D1*
X50052Y15600D1*
X50353D1*
X50109Y15693D2*
X50094Y15722D1*
X50052Y15765D1*
X50353D1*
X43939Y11930D2*
X44068D1*
X44111Y11945D1*
X44126Y11959D1*
X44140Y11987D1*
Y12016D1*
X44126Y12045D1*
X44111Y12059D1*
X44068Y12074D1*
X43939D1*
Y11772D1*
X44039Y11930D2*
X44140Y11772D1*
X44247Y12002D2*
Y12016D1*
X44261Y12045D1*
X44276Y12059D1*
X44304Y12073D1*
X44362D1*
X44390Y12059D1*
X44405Y12045D1*
X44419Y12016D1*
Y11987D1*
X44405Y11959D1*
X44376Y11916D1*
X44232Y11772D1*
X44433D1*
X44526Y12016D2*
X44555Y12031D1*
X44598Y12073D1*
Y11772D1*
X44705Y12002D2*
Y12016D1*
X44719Y12045D1*
X44734Y12059D1*
X44763Y12073D1*
X44820D1*
X44848Y12059D1*
X44863Y12045D1*
X44877Y12016D1*
Y11987D1*
X44863Y11959D1*
X44834Y11916D1*
X44691Y11772D1*
X44892D1*
X43921Y11243D2*
X44050D1*
X44093Y11257D1*
X44107Y11272D1*
X44122Y11300D1*
Y11329D1*
X44107Y11357D1*
X44093Y11372D1*
X44050Y11386D1*
X43921D1*
Y11085D1*
X44021Y11243D2*
X44122Y11085D1*
X44229Y11314D2*
Y11329D1*
X44243Y11357D1*
X44257Y11372D1*
X44286Y11386D1*
X44344D1*
X44372Y11372D1*
X44386Y11357D1*
X44401Y11329D1*
Y11300D1*
X44386Y11271D1*
X44358Y11228D1*
X44214Y11085D1*
X44415D1*
X44508Y11329D2*
X44537Y11343D1*
X44580Y11386D1*
Y11085D1*
X44701Y11386D2*
X44859D1*
X44773Y11271D1*
X44816D1*
X44845Y11257D1*
X44859Y11243D1*
X44873Y11200D1*
Y11171D1*
X44859Y11128D1*
X44830Y11099D1*
X44787Y11085D1*
X44744D1*
X44701Y11099D1*
X44687Y11114D1*
X44672Y11142D1*
X30673Y16961D2*
Y17090D1*
X30658Y17133D1*
X30644Y17148D1*
X30615Y17162D1*
X30587D1*
X30558Y17148D1*
X30543Y17133D1*
X30529Y17090D1*
Y16961D1*
X30831D1*
X30673Y17062D2*
X30831Y17162D1*
X30529Y17284D2*
Y17441D1*
X30644Y17355D1*
Y17398D1*
X30658Y17427D1*
X30673Y17441D1*
X30716Y17456D1*
X30744D1*
X30787Y17441D1*
X30816Y17413D1*
X30831Y17369D1*
Y17326D1*
X30816Y17284D1*
X30802Y17269D1*
X30773Y17255D1*
X30529Y17635D2*
X30544Y17591D1*
X30587Y17563D1*
X30658Y17548D1*
X30702D1*
X30773Y17563D1*
X30816Y17591D1*
X30831Y17635D1*
Y17663D1*
X30816Y17706D1*
X30773Y17735D1*
X30702Y17749D1*
X30658D1*
X30587Y17735D1*
X30544Y17706D1*
X30529Y17663D1*
Y17635D1*
X30587Y17735D2*
X30773Y17563D1*
X30587Y17842D2*
X30572Y17871D1*
X30529Y17914D1*
X30831D1*
X29624Y12243D2*
X29753D1*
X29797Y12257D1*
X29811Y12271D1*
X29825Y12300D1*
Y12329D1*
X29811Y12357D1*
X29797Y12372D1*
X29753Y12386D1*
X29624D1*
Y12085D1*
X29725Y12243D2*
X29825Y12085D1*
X29947Y12386D2*
X30104D1*
X30019Y12271D1*
X30062D1*
X30090Y12257D1*
X30104Y12243D1*
X30119Y12199D1*
Y12171D1*
X30104Y12128D1*
X30076Y12099D1*
X30033Y12085D1*
X29990D1*
X29947Y12099D1*
X29933Y12114D1*
X29918Y12142D1*
X30298Y12386D2*
X30255Y12372D1*
X30226Y12328D1*
X30212Y12257D1*
Y12214D1*
X30226Y12142D1*
X30255Y12099D1*
X30298Y12085D1*
X30326D1*
X30370Y12099D1*
X30398Y12142D1*
X30413Y12214D1*
Y12257D1*
X30398Y12328D1*
X30370Y12372D1*
X30326Y12386D1*
X30298D1*
X30398Y12328D2*
X30226Y12142D1*
X30520Y12314D2*
Y12328D1*
X30534Y12357D1*
X30548Y12372D1*
X30577Y12386D1*
X30635D1*
X30663Y12372D1*
X30677Y12357D1*
X30692Y12328D1*
Y12300D1*
X30677Y12271D1*
X30649Y12228D1*
X30505Y12085D1*
X30706D1*
X29624Y13243D2*
X29753D1*
X29797Y13257D1*
X29811Y13271D1*
X29825Y13300D1*
Y13329D1*
X29811Y13357D1*
X29797Y13372D1*
X29753Y13386D1*
X29624D1*
Y13085D1*
X29725Y13243D2*
X29825Y13085D1*
X29947Y13386D2*
X30104D1*
X30019Y13271D1*
X30062D1*
X30090Y13257D1*
X30104Y13243D1*
X30119Y13199D1*
Y13171D1*
X30104Y13128D1*
X30076Y13099D1*
X30033Y13085D1*
X29990D1*
X29947Y13099D1*
X29933Y13114D1*
X29918Y13142D1*
X30298Y13386D2*
X30255Y13372D1*
X30226Y13328D1*
X30212Y13257D1*
Y13214D1*
X30226Y13142D1*
X30255Y13099D1*
X30298Y13085D1*
X30326D1*
X30370Y13099D1*
X30398Y13142D1*
X30413Y13214D1*
Y13257D1*
X30398Y13328D1*
X30370Y13372D1*
X30326Y13386D1*
X30298D1*
X30398Y13328D2*
X30226Y13142D1*
X30534Y13386D2*
X30692D1*
X30606Y13271D1*
X30649D1*
X30677Y13257D1*
X30692Y13243D1*
X30706Y13199D1*
Y13171D1*
X30692Y13128D1*
X30663Y13099D1*
X30620Y13085D1*
X30577D1*
X30534Y13099D1*
X30520Y13114D1*
X30505Y13142D1*
X29617Y14243D2*
X29746D1*
X29789Y14257D1*
X29804Y14271D1*
X29818Y14300D1*
Y14329D1*
X29804Y14357D1*
X29789Y14372D1*
X29746Y14386D1*
X29617D1*
Y14085D1*
X29718Y14243D2*
X29818Y14085D1*
X29940Y14386D2*
X30097D1*
X30011Y14271D1*
X30055D1*
X30083Y14257D1*
X30097Y14243D1*
X30112Y14199D1*
Y14171D1*
X30097Y14128D1*
X30069Y14099D1*
X30026Y14085D1*
X29983D1*
X29940Y14099D1*
X29926Y14114D1*
X29911Y14142D1*
X30291Y14386D2*
X30248Y14372D1*
X30219Y14328D1*
X30205Y14257D1*
Y14214D1*
X30219Y14142D1*
X30248Y14099D1*
X30291Y14085D1*
X30319D1*
X30362Y14099D1*
X30391Y14142D1*
X30406Y14214D1*
Y14257D1*
X30391Y14328D1*
X30362Y14372D1*
X30319Y14386D1*
X30291D1*
X30391Y14328D2*
X30219Y14142D1*
X30642Y14085D2*
Y14386D1*
X30498Y14185D1*
X30713D1*
X31044Y12243D2*
X31173D1*
X31216Y12257D1*
X31230Y12271D1*
X31245Y12300D1*
Y12329D1*
X31230Y12357D1*
X31216Y12372D1*
X31173Y12386D1*
X31044D1*
Y12085D1*
X31144Y12243D2*
X31245Y12085D1*
X31366Y12386D2*
X31524D1*
X31438Y12271D1*
X31481D1*
X31509Y12257D1*
X31524Y12243D1*
X31538Y12199D1*
Y12171D1*
X31524Y12128D1*
X31495Y12099D1*
X31452Y12085D1*
X31409D1*
X31366Y12099D1*
X31352Y12114D1*
X31337Y12142D1*
X31717Y12386D2*
X31674Y12372D1*
X31645Y12328D1*
X31631Y12257D1*
Y12214D1*
X31645Y12142D1*
X31674Y12099D1*
X31717Y12085D1*
X31746D1*
X31789Y12099D1*
X31817Y12142D1*
X31832Y12214D1*
Y12257D1*
X31817Y12328D1*
X31789Y12372D1*
X31746Y12386D1*
X31717D1*
X31817Y12328D2*
X31645Y12142D1*
X32097Y12386D2*
X31953D1*
X31939Y12257D1*
X31953Y12271D1*
X31997Y12286D1*
X32039D1*
X32082Y12271D1*
X32111Y12243D1*
X32126Y12199D1*
Y12171D1*
X32111Y12128D1*
X32082Y12099D1*
X32039Y12085D1*
X31997D1*
X31953Y12099D1*
X31939Y12114D1*
X31925Y12142D1*
X31051Y13243D2*
X31180D1*
X31223Y13257D1*
X31238Y13271D1*
X31252Y13300D1*
Y13329D1*
X31238Y13357D1*
X31223Y13372D1*
X31180Y13386D1*
X31051D1*
Y13085D1*
X31152Y13243D2*
X31252Y13085D1*
X31374Y13386D2*
X31531D1*
X31445Y13271D1*
X31488D1*
X31517Y13257D1*
X31531Y13243D1*
X31546Y13199D1*
Y13171D1*
X31531Y13128D1*
X31503Y13099D1*
X31459Y13085D1*
X31416D1*
X31374Y13099D1*
X31359Y13114D1*
X31345Y13142D1*
X31724Y13386D2*
X31681Y13372D1*
X31653Y13328D1*
X31638Y13257D1*
Y13214D1*
X31653Y13142D1*
X31681Y13099D1*
X31724Y13085D1*
X31753D1*
X31796Y13099D1*
X31825Y13142D1*
X31839Y13214D1*
Y13257D1*
X31825Y13328D1*
X31796Y13372D1*
X31753Y13386D1*
X31724D1*
X31825Y13328D2*
X31653Y13142D1*
X32104Y13343D2*
X32090Y13372D1*
X32047Y13386D1*
X32018D1*
X31975Y13372D1*
X31946Y13328D1*
X31932Y13257D1*
Y13185D1*
X31946Y13128D1*
X31975Y13099D1*
X32018Y13085D1*
X32032D1*
X32075Y13099D1*
X32104Y13128D1*
X32118Y13171D1*
Y13185D1*
X32104Y13228D1*
X32075Y13257D1*
X32032Y13271D1*
X32018D1*
X31975Y13257D1*
X31946Y13228D1*
X31932Y13185D1*
X31044Y14243D2*
X31173D1*
X31216Y14257D1*
X31230Y14271D1*
X31245Y14300D1*
Y14329D1*
X31230Y14357D1*
X31216Y14372D1*
X31173Y14386D1*
X31044D1*
Y14085D1*
X31144Y14243D2*
X31245Y14085D1*
X31366Y14386D2*
X31524D1*
X31438Y14271D1*
X31481D1*
X31509Y14257D1*
X31524Y14243D1*
X31538Y14199D1*
Y14171D1*
X31524Y14128D1*
X31495Y14099D1*
X31452Y14085D1*
X31409D1*
X31366Y14099D1*
X31352Y14114D1*
X31337Y14142D1*
X31717Y14386D2*
X31674Y14372D1*
X31645Y14328D1*
X31631Y14257D1*
Y14214D1*
X31645Y14142D1*
X31674Y14099D1*
X31717Y14085D1*
X31746D1*
X31789Y14099D1*
X31817Y14142D1*
X31832Y14214D1*
Y14257D1*
X31817Y14328D1*
X31789Y14372D1*
X31746Y14386D1*
X31717D1*
X31817Y14328D2*
X31645Y14142D1*
X31982Y14085D2*
X32126Y14386D1*
X31925D1*
X29682Y7868D2*
X29811D1*
X29854Y7882D1*
X29869Y7896D1*
X29883Y7925D1*
Y7954D1*
X29869Y7982D1*
X29854Y7997D1*
X29811Y8011D1*
X29682D1*
Y7710D1*
X29782Y7868D2*
X29883Y7710D1*
X30119D2*
Y8011D1*
X29975Y7810D1*
X30191D1*
X30370Y8011D2*
X30326Y7997D1*
X30298Y7953D1*
X30283Y7882D1*
Y7839D1*
X30298Y7767D1*
X30326Y7724D1*
X30370Y7710D1*
X30398D1*
X30441Y7724D1*
X30470Y7767D1*
X30484Y7839D1*
Y7882D1*
X30470Y7953D1*
X30441Y7997D1*
X30398Y8011D1*
X30370D1*
X30470Y7953D2*
X30298Y7767D1*
X30577Y7953D2*
X30606Y7968D1*
X30649Y8011D1*
Y7710D1*
X31948Y6537D2*
Y6666D1*
X31934Y6709D1*
X31919Y6724D1*
X31891Y6738D1*
X31862D1*
X31834Y6724D1*
X31819Y6709D1*
X31805Y6666D1*
Y6537D1*
X32106D1*
X31948Y6638D2*
X32106Y6738D1*
Y6975D2*
X31805D1*
X32006Y6831D1*
Y7046D1*
X31805Y7225D2*
X31819Y7182D1*
X31862Y7153D1*
X31934Y7139D1*
X31977D1*
X32049Y7153D1*
X32092Y7182D1*
X32106Y7225D1*
Y7254D1*
X32092Y7297D1*
X32049Y7325D1*
X31977Y7340D1*
X31934D1*
X31862Y7325D1*
X31819Y7297D1*
X31805Y7254D1*
Y7225D1*
X31862Y7325D2*
X32049Y7153D1*
X31877Y7447D2*
X31862D1*
X31834Y7461D1*
X31819Y7475D1*
X31805Y7504D1*
Y7562D1*
X31819Y7590D1*
X31834Y7604D1*
X31862Y7619D1*
X31891D1*
X31920Y7604D1*
X31963Y7576D1*
X32106Y7432D1*
Y7633D1*
X25495Y7993D2*
X25624D1*
X25667Y8008D1*
X25682Y8022D1*
X25696Y8051D1*
Y8080D1*
X25682Y8108D1*
X25667Y8123D1*
X25624Y8137D1*
X25495D1*
Y7836D1*
X25596Y7993D2*
X25696Y7836D1*
X25932D2*
Y8137D1*
X25789Y7936D1*
X26004D1*
X26183Y8137D2*
X26140Y8122D1*
X26111Y8079D1*
X26097Y8008D1*
Y7965D1*
X26111Y7893D1*
X26140Y7850D1*
X26183Y7836D1*
X26211D1*
X26254Y7850D1*
X26283Y7893D1*
X26298Y7965D1*
Y8008D1*
X26283Y8079D1*
X26254Y8122D1*
X26211Y8137D1*
X26183D1*
X26283Y8079D2*
X26111Y7893D1*
X26419Y8137D2*
X26577D1*
X26491Y8022D1*
X26534D1*
X26562Y8008D1*
X26577Y7993D1*
X26591Y7950D1*
Y7922D1*
X26577Y7879D1*
X26548Y7850D1*
X26505Y7836D1*
X26462D1*
X26419Y7850D1*
X26405Y7864D1*
X26390Y7893D1*
X639Y4630D2*
X768D1*
X811Y4645D1*
X826Y4659D1*
X840Y4688D1*
Y4717D1*
X826Y4745D1*
X811Y4760D1*
X768Y4774D1*
X639D1*
Y4473D1*
X740Y4630D2*
X840Y4473D1*
X1105Y4774D2*
X962D1*
X947Y4645D1*
X962Y4659D1*
X1005Y4674D1*
X1048D1*
X1091Y4659D1*
X1120Y4630D1*
X1134Y4587D1*
Y4559D1*
X1120Y4516D1*
X1091Y4487D1*
X1048Y4473D1*
X1005D1*
X962Y4487D1*
X947Y4501D1*
X933Y4530D1*
X1313Y4774D2*
X1270Y4759D1*
X1241Y4716D1*
X1226Y4645D1*
Y4602D1*
X1241Y4530D1*
X1270Y4487D1*
X1313Y4473D1*
X1341D1*
X1384Y4487D1*
X1413Y4530D1*
X1427Y4602D1*
Y4645D1*
X1413Y4716D1*
X1384Y4759D1*
X1341Y4774D1*
X1313D1*
X1413Y4716D2*
X1241Y4530D1*
X1520Y4716D2*
X1549Y4731D1*
X1592Y4774D1*
Y4473D1*
X4512Y4630D2*
X4641D1*
X4684Y4645D1*
X4699Y4659D1*
X4713Y4688D1*
Y4717D1*
X4699Y4745D1*
X4684Y4760D1*
X4641Y4774D1*
X4512D1*
Y4473D1*
X4613Y4630D2*
X4713Y4473D1*
X4978Y4774D2*
X4835D1*
X4820Y4645D1*
X4835Y4659D1*
X4878Y4674D1*
X4921D1*
X4964Y4659D1*
X4993Y4630D1*
X5007Y4587D1*
Y4559D1*
X4993Y4516D1*
X4964Y4487D1*
X4921Y4473D1*
X4878D1*
X4835Y4487D1*
X4820Y4501D1*
X4806Y4530D1*
X5186Y4774D2*
X5143Y4759D1*
X5114Y4716D1*
X5099Y4645D1*
Y4602D1*
X5114Y4530D1*
X5143Y4487D1*
X5186Y4473D1*
X5214D1*
X5257Y4487D1*
X5286Y4530D1*
X5300Y4602D1*
Y4645D1*
X5286Y4716D1*
X5257Y4759D1*
X5214Y4774D1*
X5186D1*
X5286Y4716D2*
X5114Y4530D1*
X5408Y4702D2*
Y4716D1*
X5422Y4745D1*
X5436Y4759D1*
X5465Y4774D1*
X5522D1*
X5551Y4759D1*
X5565Y4745D1*
X5580Y4716D1*
Y4688D1*
X5565Y4659D1*
X5537Y4616D1*
X5393Y4473D1*
X5594D1*
X34294Y6805D2*
X34423D1*
X34466Y6820D1*
X34480Y6834D1*
X34495Y6862D1*
Y6891D1*
X34480Y6920D1*
X34466Y6934D1*
X34423Y6949D1*
X34294D1*
Y6647D1*
X34394Y6805D2*
X34495Y6647D1*
X34759Y6948D2*
X34616D1*
X34602Y6819D1*
X34616Y6834D1*
X34659Y6848D1*
X34702D1*
X34745Y6834D1*
X34774Y6805D1*
X34788Y6762D1*
Y6733D1*
X34774Y6690D1*
X34745Y6661D1*
X34702Y6647D1*
X34659D1*
X34616Y6661D1*
X34602Y6676D1*
X34587Y6705D1*
X34967Y6948D2*
X34924Y6934D1*
X34895Y6891D1*
X34881Y6819D1*
Y6776D1*
X34895Y6705D1*
X34924Y6661D1*
X34967Y6647D1*
X34996D1*
X35039Y6661D1*
X35067Y6705D1*
X35082Y6776D1*
Y6819D1*
X35067Y6891D1*
X35039Y6934D1*
X34996Y6948D1*
X34967D1*
X35067Y6891D2*
X34895Y6705D1*
X35203Y6948D2*
X35361D1*
X35275Y6834D1*
X35318D1*
X35347Y6819D1*
X35361Y6805D1*
X35376Y6762D1*
Y6733D1*
X35361Y6690D1*
X35332Y6661D1*
X35289Y6647D1*
X35246D1*
X35203Y6661D1*
X35189Y6676D1*
X35175Y6705D1*
X1880Y4630D2*
X2009D1*
X2052Y4645D1*
X2067Y4659D1*
X2081Y4688D1*
Y4717D1*
X2067Y4745D1*
X2052Y4760D1*
X2009Y4774D1*
X1880D1*
Y4473D1*
X1981Y4630D2*
X2081Y4473D1*
X2346Y4774D2*
X2203D1*
X2188Y4645D1*
X2203Y4659D1*
X2246Y4674D1*
X2288D1*
X2332Y4659D1*
X2360Y4630D1*
X2375Y4587D1*
Y4559D1*
X2360Y4516D1*
X2332Y4487D1*
X2288Y4473D1*
X2246D1*
X2203Y4487D1*
X2188Y4501D1*
X2174Y4530D1*
X2554Y4774D2*
X2510Y4759D1*
X2482Y4716D1*
X2467Y4645D1*
Y4602D1*
X2482Y4530D1*
X2510Y4487D1*
X2554Y4473D1*
X2582D1*
X2625Y4487D1*
X2654Y4530D1*
X2668Y4602D1*
Y4645D1*
X2654Y4716D1*
X2625Y4759D1*
X2582Y4774D1*
X2554D1*
X2654Y4716D2*
X2482Y4530D1*
X2905Y4473D2*
Y4774D1*
X2761Y4573D1*
X2976D1*
X3200Y4630D2*
X3329D1*
X3372Y4645D1*
X3386Y4659D1*
X3401Y4688D1*
Y4717D1*
X3386Y4745D1*
X3372Y4760D1*
X3329Y4774D1*
X3200D1*
Y4473D1*
X3300Y4630D2*
X3401Y4473D1*
X3665Y4774D2*
X3522D1*
X3508Y4645D1*
X3522Y4659D1*
X3565Y4674D1*
X3608D1*
X3651Y4659D1*
X3680Y4630D1*
X3694Y4587D1*
Y4559D1*
X3680Y4516D1*
X3651Y4487D1*
X3608Y4473D1*
X3565D1*
X3522Y4487D1*
X3508Y4501D1*
X3493Y4530D1*
X3873Y4774D2*
X3830Y4759D1*
X3801Y4716D1*
X3787Y4645D1*
Y4602D1*
X3801Y4530D1*
X3830Y4487D1*
X3873Y4473D1*
X3902D1*
X3945Y4487D1*
X3973Y4530D1*
X3988Y4602D1*
Y4645D1*
X3973Y4716D1*
X3945Y4759D1*
X3902Y4774D1*
X3873D1*
X3973Y4716D2*
X3801Y4530D1*
X4253Y4774D2*
X4109D1*
X4095Y4645D1*
X4109Y4659D1*
X4153Y4674D1*
X4195D1*
X4238Y4659D1*
X4267Y4630D1*
X4282Y4587D1*
Y4559D1*
X4267Y4516D1*
X4238Y4487D1*
X4195Y4473D1*
X4153D1*
X4109Y4487D1*
X4095Y4501D1*
X4081Y4530D1*
X21230Y17615D2*
Y17400D1*
X21245Y17357D1*
X21273Y17328D1*
X21317Y17314D1*
X21345D1*
X21388Y17328D1*
X21417Y17357D1*
X21431Y17400D1*
Y17615D1*
X21524Y17558D2*
X21553Y17572D1*
X21596Y17615D1*
Y17314D1*
X21775Y17615D2*
X21732Y17601D1*
X21703Y17558D1*
X21688Y17486D1*
Y17443D1*
X21703Y17371D1*
X21732Y17328D1*
X21775Y17314D1*
X21803D1*
X21846Y17328D1*
X21875Y17371D1*
X21889Y17443D1*
Y17486D1*
X21875Y17558D1*
X21846Y17601D1*
X21803Y17615D1*
X21775D1*
X21875Y17558D2*
X21703Y17371D1*
X21997Y17543D2*
Y17558D1*
X22011Y17586D1*
X22025Y17601D1*
X22054Y17615D1*
X22111D1*
X22140Y17601D1*
X22154Y17586D1*
X22169Y17558D1*
Y17529D1*
X22154Y17500D1*
X22126Y17457D1*
X21982Y17314D1*
X22183D1*
X51117Y4488D2*
X51332D1*
X51375Y4502D1*
X51404Y4531D1*
X51418Y4574D1*
Y4603D1*
X51404Y4646D1*
X51375Y4675D1*
X51332Y4689D1*
X51117D1*
X51189Y4796D2*
X51174D1*
X51146Y4811D1*
X51131Y4825D1*
X51117Y4854D1*
Y4911D1*
X51131Y4940D1*
X51146Y4954D1*
X51174Y4969D1*
X51203D1*
X51232Y4954D1*
X51275Y4925D1*
X51418Y4782D1*
Y4983D1*
X51117Y5162D2*
X51131Y5119D1*
X51174Y5090D1*
X51246Y5075D1*
X51289D1*
X51361Y5090D1*
X51404Y5119D1*
X51418Y5162D1*
Y5190D1*
X51404Y5233D1*
X51361Y5262D1*
X51289Y5276D1*
X51246D1*
X51174Y5262D1*
X51131Y5233D1*
X51117Y5190D1*
Y5162D1*
X51174Y5262D2*
X51361Y5090D1*
X51174Y5369D2*
X51160Y5398D1*
X51117Y5441D1*
X51418D1*
X46397Y10459D2*
Y10244D1*
X46411Y10201D1*
X46440Y10172D1*
X46483Y10158D1*
X46511D1*
X46554Y10172D1*
X46583Y10201D1*
X46598Y10244D1*
Y10459D1*
X46705Y10387D2*
Y10401D1*
X46719Y10430D1*
X46733Y10444D1*
X46762Y10459D1*
X46820D1*
X46848Y10444D1*
X46862Y10430D1*
X46877Y10401D1*
Y10373D1*
X46862Y10344D1*
X46834Y10301D1*
X46690Y10158D1*
X46891D1*
X47070Y10459D2*
X47027Y10444D1*
X46998Y10401D1*
X46984Y10330D1*
Y10287D1*
X46998Y10215D1*
X47027Y10172D1*
X47070Y10158D1*
X47099D1*
X47142Y10172D1*
X47170Y10215D1*
X47185Y10287D1*
Y10330D1*
X47170Y10401D1*
X47142Y10444D1*
X47099Y10459D1*
X47070D1*
X47170Y10401D2*
X46998Y10215D1*
X47292Y10387D2*
Y10401D1*
X47306Y10430D1*
X47321Y10444D1*
X47349Y10459D1*
X47407D1*
X47435Y10444D1*
X47450Y10430D1*
X47464Y10401D1*
Y10373D1*
X47450Y10344D1*
X47421Y10301D1*
X47277Y10158D1*
X47478D1*
X48041Y5763D2*
X48257D1*
X48300Y5777D1*
X48328Y5806D1*
X48343Y5849D1*
Y5878D1*
X48328Y5921D1*
X48300Y5949D1*
X48257Y5964D1*
X48041D1*
X48113Y6071D2*
X48099D1*
X48070Y6085D1*
X48056Y6099D1*
X48042Y6128D1*
Y6186D1*
X48056Y6214D1*
X48070Y6228D1*
X48099Y6243D1*
X48128D1*
X48156Y6228D1*
X48199Y6200D1*
X48343Y6056D1*
Y6257D1*
X48042Y6436D2*
X48056Y6393D1*
X48099Y6364D1*
X48171Y6350D1*
X48214D1*
X48285Y6364D1*
X48329Y6393D1*
X48343Y6436D1*
Y6465D1*
X48329Y6508D1*
X48285Y6536D1*
X48214Y6551D1*
X48171D1*
X48099Y6536D1*
X48056Y6508D1*
X48042Y6465D1*
Y6436D1*
X48099Y6536D2*
X48285Y6364D1*
X48042Y6672D2*
Y6830D1*
X48156Y6744D1*
Y6787D1*
X48171Y6816D1*
X48185Y6830D1*
X48228Y6845D1*
X48257D1*
X48300Y6830D1*
X48329Y6801D1*
X48343Y6758D1*
Y6715D1*
X48329Y6672D1*
X48314Y6658D1*
X48285Y6644D1*
X14195Y12699D2*
Y12484D1*
X14210Y12441D1*
X14238Y12412D1*
X14282Y12398D1*
X14310D1*
X14353Y12412D1*
X14382Y12441D1*
X14396Y12484D1*
Y12699D1*
X14489Y12642D2*
X14518Y12656D1*
X14561Y12699D1*
Y12398D1*
X14740Y12699D2*
X14697Y12685D1*
X14668Y12642D1*
X14654Y12570D1*
Y12527D1*
X14668Y12455D1*
X14697Y12412D1*
X14740Y12398D1*
X14768D1*
X14811Y12412D1*
X14840Y12455D1*
X14855Y12527D1*
Y12570D1*
X14840Y12642D1*
X14811Y12685D1*
X14768Y12699D1*
X14740D1*
X14840Y12642D2*
X14668Y12455D1*
X14947Y12642D2*
X14976Y12656D1*
X15019Y12699D1*
Y12398D1*
X13329Y14823D2*
Y14952D1*
X13315Y14995D1*
X13300Y15010D1*
X13272Y15024D1*
X13243D1*
X13214Y15010D1*
X13200Y14995D1*
X13186Y14952D1*
Y14823D1*
X13487D1*
X13329Y14924D2*
X13487Y15024D1*
X13243Y15117D2*
X13229Y15146D1*
X13186Y15189D1*
X13487D1*
X13186Y15368D2*
X13200Y15325D1*
X13243Y15296D1*
X13315Y15282D1*
X13358D1*
X13430Y15296D1*
X13473Y15325D1*
X13487Y15368D1*
Y15396D1*
X13473Y15439D1*
X13430Y15468D1*
X13358Y15483D1*
X13315D1*
X13243Y15468D1*
X13200Y15439D1*
X13186Y15396D1*
Y15368D1*
X13243Y15468D2*
X13430Y15296D1*
X13229Y15747D2*
X13200Y15733D1*
X13186Y15690D1*
Y15661D1*
X13200Y15618D1*
X13243Y15589D1*
X13315Y15575D1*
X13386D1*
X13444Y15589D1*
X13473Y15618D1*
X13487Y15661D1*
Y15676D1*
X13473Y15718D1*
X13444Y15747D1*
X13401Y15762D1*
X13386D1*
X13343Y15747D1*
X13315Y15718D1*
X13301Y15676D1*
Y15661D1*
X13315Y15618D1*
X13343Y15589D1*
X13386Y15575D1*
X14034Y14985D2*
X14005Y14971D1*
X13976Y14942D1*
X13962Y14913D1*
Y14856D1*
X13976Y14827D1*
X14005Y14799D1*
X14034Y14784D1*
X14077Y14770D1*
X14149D1*
X14192Y14784D1*
X14221Y14799D1*
X14249Y14827D1*
X14264Y14856D1*
Y14913D1*
X14249Y14942D1*
X14221Y14971D1*
X14192Y14985D1*
X14020Y15078D2*
X14005Y15106D1*
X13963Y15149D1*
X14264D1*
X13963Y15328D2*
X13977Y15285D1*
X14020Y15256D1*
X14092Y15242D1*
X14135D1*
X14206Y15256D1*
X14249Y15285D1*
X14264Y15328D1*
Y15357D1*
X14249Y15400D1*
X14206Y15428D1*
X14135Y15443D1*
X14092D1*
X14020Y15428D1*
X13977Y15400D1*
X13963Y15357D1*
Y15328D1*
X14020Y15428D2*
X14206Y15256D1*
X13963Y15607D2*
X13977Y15565D1*
X14005Y15550D1*
X14034D1*
X14063Y15565D1*
X14077Y15593D1*
X14092Y15650D1*
X14106Y15694D1*
X14135Y15722D1*
X14163Y15736D1*
X14206D1*
X14235Y15722D1*
X14249Y15708D1*
X14264Y15665D1*
Y15607D1*
X14249Y15565D1*
X14235Y15550D1*
X14206Y15536D1*
X14163D1*
X14135Y15550D1*
X14106Y15579D1*
X14092Y15622D1*
X14077Y15679D1*
X14063Y15708D1*
X14034Y15722D1*
X14005D1*
X13977Y15708D1*
X13963Y15665D1*
Y15607D1*
X12725Y8531D2*
X12854D1*
X12897Y8546D1*
X12912Y8560D1*
X12926Y8589D1*
Y8618D1*
X12912Y8646D1*
X12897Y8661D1*
X12854Y8675D1*
X12725D1*
Y8374D1*
X12826Y8531D2*
X12926Y8374D1*
X13019Y8617D2*
X13048Y8632D1*
X13091Y8675D1*
Y8374D1*
X13270Y8675D2*
X13226Y8660D1*
X13198Y8617D1*
X13183Y8546D1*
Y8503D1*
X13198Y8431D1*
X13226Y8388D1*
X13270Y8374D1*
X13298D1*
X13341Y8388D1*
X13370Y8431D1*
X13384Y8503D1*
Y8546D1*
X13370Y8617D1*
X13341Y8660D1*
X13298Y8675D1*
X13270D1*
X13370Y8617D2*
X13198Y8431D1*
X13621Y8374D2*
Y8675D1*
X13477Y8474D1*
X13692D1*
X16875Y7405D2*
X16846Y7391D1*
X16817Y7362D1*
X16803Y7333D1*
Y7276D1*
X16817Y7247D1*
X16846Y7219D1*
X16875Y7204D1*
X16918Y7190D1*
X16990D1*
X17033Y7204D1*
X17061Y7219D1*
X17090Y7247D1*
X17105Y7276D1*
Y7333D1*
X17090Y7362D1*
X17061Y7391D1*
X17033Y7405D1*
X16861Y7498D2*
X16846Y7527D1*
X16803Y7570D1*
X17105D1*
X16803Y7748D2*
X16818Y7705D1*
X16861Y7677D1*
X16932Y7662D1*
X16976D1*
X17047Y7677D1*
X17090Y7705D1*
X17105Y7748D1*
Y7777D1*
X17090Y7820D1*
X17047Y7849D1*
X16976Y7863D1*
X16932D1*
X16861Y7849D1*
X16818Y7820D1*
X16803Y7777D1*
Y7748D1*
X16861Y7849D2*
X17047Y7677D1*
X16904Y8143D2*
X16947Y8128D1*
X16976Y8099D1*
X16990Y8056D1*
Y8042D1*
X16976Y7999D1*
X16947Y7970D1*
X16904Y7956D1*
X16889D1*
X16846Y7970D1*
X16818Y7999D1*
X16803Y8042D1*
Y8056D1*
X16818Y8099D1*
X16846Y8128D1*
X16904Y8143D1*
X16976D1*
X17047Y8128D1*
X17090Y8099D1*
X17105Y8056D1*
Y8028D1*
X17090Y7985D1*
X17061Y7970D1*
X15800Y6356D2*
X15786Y6384D1*
X15757Y6413D1*
X15728Y6427D1*
X15671D1*
X15642Y6413D1*
X15614Y6384D1*
X15599Y6356D1*
X15585Y6312D1*
Y6240D1*
X15599Y6198D1*
X15614Y6169D1*
X15642Y6140D1*
X15671Y6126D1*
X15728D1*
X15757Y6140D1*
X15786Y6169D1*
X15800Y6198D1*
X15893Y6369D2*
X15921Y6384D1*
X15964Y6427D1*
Y6126D1*
X16057Y6369D2*
X16086Y6384D1*
X16129Y6427D1*
Y6126D1*
X16222Y6369D2*
X16251Y6384D1*
X16294Y6427D1*
Y6126D1*
X16072Y7363D2*
Y7492D1*
X16057Y7535D1*
X16043Y7550D1*
X16014Y7564D1*
X15985D1*
X15957Y7550D1*
X15942Y7535D1*
X15928Y7492D1*
Y7363D1*
X16229D1*
X16072Y7464D2*
X16229Y7564D1*
X15986Y7657D2*
X15971Y7685D1*
X15928Y7729D1*
X16229D1*
X15986Y7821D2*
X15971Y7850D1*
X15928Y7893D1*
X16229D1*
X15986Y7986D2*
X15971Y8015D1*
X15928Y8058D1*
X16229D1*
X18503Y4163D2*
X18489Y4192D1*
X18460Y4221D1*
X18431Y4235D1*
X18374D1*
X18345Y4221D1*
X18317Y4192D1*
X18302Y4163D1*
X18288Y4120D1*
Y4048D1*
X18302Y4006D1*
X18317Y3977D1*
X18345Y3948D1*
X18374Y3934D1*
X18431D1*
X18460Y3948D1*
X18489Y3977D1*
X18503Y4006D1*
X18596Y4177D2*
X18625Y4192D1*
X18668Y4235D1*
Y3934D1*
X18760Y4177D2*
X18789Y4192D1*
X18832Y4235D1*
Y3934D1*
X18954Y4235D2*
X19111D1*
X19025Y4120D1*
X19068D1*
X19097Y4106D1*
X19111Y4091D1*
X19126Y4048D1*
Y4020D1*
X19111Y3977D1*
X19083Y3948D1*
X19040Y3934D1*
X18996D1*
X18954Y3948D1*
X18939Y3962D1*
X18925Y3991D1*
X9208Y3663D2*
X9194Y3692D1*
X9165Y3721D1*
X9137Y3735D1*
X9079D1*
X9050Y3721D1*
X9022Y3692D1*
X9007Y3663D1*
X8993Y3620D1*
Y3548D1*
X9007Y3505D1*
X9022Y3477D1*
X9050Y3448D1*
X9079Y3433D1*
X9137D1*
X9165Y3448D1*
X9194Y3477D1*
X9208Y3505D1*
X9301Y3677D2*
X9330Y3692D1*
X9373Y3735D1*
Y3433D1*
X9552Y3735D2*
X9509Y3720D1*
X9480Y3677D1*
X9465Y3606D1*
Y3562D1*
X9480Y3491D1*
X9509Y3448D1*
X9552Y3433D1*
X9580D1*
X9623Y3448D1*
X9652Y3491D1*
X9666Y3562D1*
Y3606D1*
X9652Y3677D1*
X9623Y3720D1*
X9580Y3735D1*
X9552D1*
X9652Y3677D2*
X9480Y3491D1*
X9903Y3433D2*
Y3735D1*
X9759Y3534D1*
X9974D1*
X16704Y14829D2*
Y14958D1*
X16690Y15001D1*
X16676Y15016D1*
X16647Y15030D1*
X16618D1*
X16590Y15016D1*
X16575Y15001D1*
X16561Y14958D1*
Y14829D1*
X16862D1*
X16704Y14930D2*
X16862Y15030D1*
X16619Y15123D2*
X16604Y15152D1*
X16561Y15195D1*
X16862D1*
X16619Y15287D2*
X16604Y15316D1*
X16561Y15359D1*
X16862D1*
Y15596D2*
X16561D1*
X16762Y15452D1*
Y15667D1*
X12642Y14834D2*
Y14963D1*
X12627Y15006D1*
X12613Y15021D1*
X12584Y15035D1*
X12555D1*
X12527Y15021D1*
X12512Y15006D1*
X12498Y14963D1*
Y14834D1*
X12799D1*
X12642Y14935D2*
X12799Y15035D1*
X12556Y15128D2*
X12541Y15157D1*
X12498Y15200D1*
X12799D1*
X12498Y15379D2*
X12513Y15336D1*
X12556Y15307D1*
X12627Y15293D1*
X12670D1*
X12742Y15307D1*
X12785Y15336D1*
X12799Y15379D1*
Y15407D1*
X12785Y15450D1*
X12742Y15479D1*
X12670Y15494D1*
X12627D1*
X12556Y15479D1*
X12513Y15450D1*
X12498Y15407D1*
Y15379D1*
X12556Y15479D2*
X12742Y15307D1*
X12498Y15758D2*
Y15615D1*
X12627Y15601D1*
X12613Y15615D1*
X12598Y15658D1*
Y15701D1*
X12613Y15744D1*
X12642Y15773D1*
X12685Y15787D1*
X12713D1*
X12756Y15773D1*
X12785Y15744D1*
X12799Y15701D1*
Y15658D1*
X12785Y15615D1*
X12771Y15601D1*
X12742Y15586D1*
X7712Y10749D2*
X7684Y10735D1*
X7655Y10706D1*
X7640Y10677D1*
Y10620D1*
X7655Y10591D1*
X7684Y10563D1*
X7712Y10548D1*
X7755Y10534D1*
X7827D1*
X7870Y10548D1*
X7899Y10563D1*
X7927Y10591D1*
X7942Y10620D1*
Y10677D1*
X7927Y10706D1*
X7899Y10735D1*
X7870Y10749D1*
X7698Y10842D2*
X7684Y10870D1*
X7641Y10913D1*
X7942D1*
X7641Y11092D2*
X7655Y11049D1*
X7698Y11020D1*
X7770Y11006D1*
X7813D1*
X7885Y11020D1*
X7928Y11049D1*
X7942Y11092D1*
Y11121D1*
X7928Y11164D1*
X7885Y11192D1*
X7813Y11207D1*
X7770D1*
X7698Y11192D1*
X7655Y11164D1*
X7641Y11121D1*
Y11092D1*
X7698Y11192D2*
X7885Y11020D1*
X7641Y11329D2*
Y11486D1*
X7756Y11400D1*
Y11443D1*
X7770Y11472D1*
X7784Y11486D1*
X7827Y11501D1*
X7856D1*
X7899Y11486D1*
X7928Y11458D1*
X7942Y11414D1*
Y11371D1*
X7928Y11329D1*
X7913Y11314D1*
X7885Y11300D1*
X19462Y12883D2*
X19433Y12869D1*
X19405Y12840D1*
X19390Y12812D1*
Y12754D1*
X19405Y12725D1*
X19433Y12697D1*
X19462Y12682D1*
X19505Y12668D1*
X19577D1*
X19620Y12682D1*
X19649Y12697D1*
X19677Y12725D1*
X19692Y12754D1*
Y12812D1*
X19677Y12840D1*
X19649Y12869D1*
X19620Y12883D1*
X19448Y12976D2*
X19433Y13005D1*
X19391Y13048D1*
X19692D1*
X19448Y13141D2*
X19433Y13169D1*
X19391Y13213D1*
X19692D1*
X19433Y13477D2*
X19405Y13463D1*
X19391Y13420D1*
Y13391D1*
X19405Y13348D1*
X19448Y13319D1*
X19520Y13305D1*
X19591D1*
X19649Y13319D1*
X19678Y13348D1*
X19692Y13391D1*
Y13406D1*
X19678Y13448D1*
X19649Y13477D1*
X19606Y13492D1*
X19591D1*
X19548Y13477D1*
X19520Y13448D1*
X19505Y13406D1*
Y13391D1*
X19520Y13348D1*
X19548Y13319D1*
X19591Y13305D1*
X14947Y7111D2*
Y7240D1*
X14932Y7283D1*
X14918Y7298D1*
X14889Y7312D1*
X14860D1*
X14832Y7298D1*
X14817Y7283D1*
X14803Y7240D1*
Y7111D1*
X15104D1*
X14947Y7212D2*
X15104Y7312D1*
X14861Y7405D2*
X14846Y7433D1*
X14803Y7477D1*
X15104D1*
X14861Y7569D2*
X14846Y7598D1*
X14803Y7641D1*
X15104D1*
X14803Y7820D2*
X14818Y7777D1*
X14861Y7748D1*
X14932Y7734D1*
X14975D1*
X15047Y7748D1*
X15090Y7777D1*
X15104Y7820D1*
Y7849D1*
X15090Y7892D1*
X15047Y7920D1*
X14975Y7935D1*
X14932D1*
X14861Y7920D1*
X14818Y7892D1*
X14803Y7849D1*
Y7820D1*
X14861Y7920D2*
X15047Y7748D1*
X14321Y7047D2*
Y7176D1*
X14307Y7219D1*
X14293Y7233D1*
X14264Y7248D1*
X14235D1*
X14207Y7233D1*
X14192Y7219D1*
X14178Y7176D1*
Y7047D1*
X14479D1*
X14321Y7147D2*
X14479Y7248D1*
X14236Y7340D2*
X14221Y7369D1*
X14178Y7412D1*
X14479D1*
X14178Y7591D2*
X14192Y7548D1*
X14236Y7519D1*
X14307Y7505D1*
X14350D1*
X14422Y7519D1*
X14465Y7548D1*
X14479Y7591D1*
Y7620D1*
X14465Y7663D1*
X14422Y7691D1*
X14350Y7706D1*
X14307D1*
X14236Y7691D1*
X14192Y7663D1*
X14178Y7620D1*
Y7591D1*
X14236Y7691D2*
X14422Y7519D1*
X14178Y7870D2*
X14192Y7827D1*
X14221Y7813D1*
X14250D1*
X14278Y7827D1*
X14293Y7856D1*
X14307Y7913D1*
X14321Y7956D1*
X14350Y7985D1*
X14379Y7999D1*
X14422D1*
X14450Y7985D1*
X14465Y7971D1*
X14479Y7927D1*
Y7870D1*
X14465Y7827D1*
X14450Y7813D1*
X14422Y7798D1*
X14379D1*
X14350Y7813D1*
X14321Y7842D1*
X14307Y7884D1*
X14293Y7942D1*
X14278Y7971D1*
X14250Y7985D1*
X14221D1*
X14192Y7971D1*
X14178Y7927D1*
Y7870D1*
X14179Y10119D2*
X14308D1*
X14352Y10133D1*
X14366Y10147D1*
X14380Y10176D1*
Y10205D1*
X14366Y10233D1*
X14352Y10248D1*
X14308Y10262D1*
X14179D1*
Y9961D1*
X14280Y10119D2*
X14380Y9961D1*
X14473Y10204D2*
X14502Y10219D1*
X14545Y10262D1*
Y9961D1*
X14724Y10262D2*
X14681Y10248D1*
X14652Y10204D1*
X14638Y10133D1*
Y10090D1*
X14652Y10018D1*
X14681Y9975D1*
X14724Y9961D1*
X14752D1*
X14795Y9975D1*
X14824Y10018D1*
X14839Y10090D1*
Y10133D1*
X14824Y10204D1*
X14795Y10248D1*
X14752Y10262D1*
X14724D1*
X14824Y10204D2*
X14652Y10018D1*
X15118Y10162D2*
X15103Y10119D1*
X15075Y10090D1*
X15032Y10075D1*
X15017D1*
X14974Y10090D1*
X14946Y10119D1*
X14931Y10162D1*
Y10176D1*
X14946Y10219D1*
X14974Y10248D1*
X15017Y10262D1*
X15032D1*
X15075Y10248D1*
X15103Y10219D1*
X15118Y10162D1*
Y10090D1*
X15103Y10018D1*
X15075Y9975D1*
X15032Y9961D1*
X15003D1*
X14960Y9975D1*
X14946Y10004D1*
X8929Y13326D2*
Y13025D1*
X9029D1*
X9072Y13039D1*
X9101Y13068D1*
X9115Y13097D1*
X9130Y13139D1*
Y13211D1*
X9115Y13255D1*
X9101Y13283D1*
X9072Y13312D1*
X9029Y13326D1*
X8929D1*
X9222Y13268D2*
X9251Y13283D1*
X9294Y13326D1*
Y13025D1*
X9473Y13326D2*
X9430Y13312D1*
X9401Y13268D1*
X9387Y13197D1*
Y13154D1*
X9401Y13082D1*
X9430Y13039D1*
X9473Y13025D1*
X9502D1*
X9545Y13039D1*
X9573Y13082D1*
X9588Y13154D1*
Y13197D1*
X9573Y13268D1*
X9545Y13312D1*
X9502Y13326D1*
X9473D1*
X9573Y13268D2*
X9401Y13082D1*
X9680Y13268D2*
X9709Y13283D1*
X9752Y13326D1*
Y13025D1*
X11456Y12631D2*
X11441Y12659D1*
X11412Y12688D1*
X11384Y12703D1*
X11327D1*
X11298Y12688D1*
X11269Y12659D1*
X11255Y12631D1*
X11240Y12588D1*
Y12516D1*
X11255Y12473D1*
X11269Y12444D1*
X11298Y12416D1*
X11327Y12401D1*
X11384D1*
X11412Y12416D1*
X11441Y12444D1*
X11456Y12473D1*
X11548Y12645D2*
X11577Y12659D1*
X11620Y12702D1*
Y12401D1*
X11799Y12702D2*
X11756Y12688D1*
X11727Y12645D1*
X11713Y12573D1*
Y12530D1*
X11727Y12458D1*
X11756Y12415D1*
X11799Y12401D1*
X11827D1*
X11871Y12415D1*
X11899Y12458D1*
X11914Y12530D1*
Y12573D1*
X11899Y12645D1*
X11871Y12688D1*
X11827Y12702D1*
X11799D1*
X11899Y12645D2*
X11727Y12458D1*
X12006Y12645D2*
X12035Y12659D1*
X12078Y12702D1*
Y12401D1*
X11382Y13451D2*
X11367Y13479D1*
X11339Y13508D1*
X11310Y13523D1*
X11253D1*
X11224Y13508D1*
X11195Y13479D1*
X11181Y13451D1*
X11166Y13408D1*
Y13336D1*
X11181Y13293D1*
X11195Y13264D1*
X11224Y13236D1*
X11253Y13221D1*
X11310D1*
X11339Y13236D1*
X11367Y13264D1*
X11382Y13293D1*
X11474Y13465D2*
X11503Y13479D1*
X11546Y13522D1*
Y13221D1*
X11725Y13522D2*
X11682Y13508D1*
X11653Y13465D1*
X11639Y13393D1*
Y13350D1*
X11653Y13278D1*
X11682Y13235D1*
X11725Y13221D1*
X11754D1*
X11797Y13235D1*
X11825Y13278D1*
X11840Y13350D1*
Y13393D1*
X11825Y13465D1*
X11797Y13508D1*
X11754Y13522D1*
X11725D1*
X11825Y13465D2*
X11653Y13278D1*
X11947Y13451D2*
Y13465D1*
X11961Y13494D1*
X11976Y13508D1*
X12005Y13522D1*
X12062D1*
X12090Y13508D1*
X12105Y13494D1*
X12119Y13465D1*
Y13436D1*
X12105Y13407D1*
X12076Y13365D1*
X11933Y13221D1*
X12134D1*
X12220Y10427D2*
X12206Y10455D1*
X12177Y10484D1*
X12149Y10498D1*
X12091D1*
X12063Y10484D1*
X12034Y10455D1*
X12019Y10427D1*
X12005Y10384D1*
Y10312D1*
X12019Y10269D1*
X12034Y10240D1*
X12063Y10212D1*
X12091Y10197D1*
X12149D1*
X12177Y10212D1*
X12206Y10240D1*
X12220Y10269D1*
X12313Y10441D2*
X12342Y10455D1*
X12385Y10498D1*
Y10197D1*
X12564Y10498D2*
X12521Y10484D1*
X12492Y10441D1*
X12478Y10369D1*
Y10326D1*
X12492Y10254D1*
X12521Y10211D1*
X12564Y10197D1*
X12592D1*
X12636Y10211D1*
X12664Y10254D1*
X12679Y10326D1*
Y10369D1*
X12664Y10441D1*
X12636Y10484D1*
X12592Y10498D1*
X12564D1*
X12664Y10441D2*
X12492Y10254D1*
X12943Y10498D2*
X12800D1*
X12786Y10369D1*
X12800Y10383D1*
X12843Y10398D1*
X12886D1*
X12929Y10383D1*
X12958Y10355D1*
X12972Y10312D1*
Y10283D1*
X12958Y10240D1*
X12929Y10211D1*
X12886Y10197D1*
X12843D1*
X12800Y10211D1*
X12786Y10226D1*
X12771Y10254D1*
X16467Y10427D2*
X16453Y10455D1*
X16424Y10484D1*
X16395Y10498D1*
X16338D1*
X16309Y10484D1*
X16281Y10455D1*
X16266Y10427D1*
X16252Y10384D1*
Y10312D1*
X16266Y10269D1*
X16281Y10240D1*
X16309Y10212D1*
X16338Y10197D1*
X16395D1*
X16424Y10212D1*
X16453Y10240D1*
X16467Y10269D1*
X16560Y10441D2*
X16588Y10455D1*
X16632Y10498D1*
Y10197D1*
X16724Y10441D2*
X16753Y10455D1*
X16796Y10498D1*
Y10197D1*
X16903Y10426D2*
Y10441D1*
X16918Y10470D1*
X16932Y10484D1*
X16961Y10498D1*
X17018D1*
X17047Y10484D1*
X17061Y10470D1*
X17075Y10441D1*
Y10412D1*
X17061Y10383D1*
X17032Y10341D1*
X16889Y10197D1*
X17090D1*
X10912Y10327D2*
X11041D1*
X11084Y10342D1*
X11099Y10356D1*
X11113Y10385D1*
Y10413D1*
X11099Y10442D1*
X11084Y10457D1*
X11041Y10471D1*
X10912D1*
Y10169D1*
X11012Y10327D2*
X11113Y10169D1*
X11206Y10413D2*
X11234Y10428D1*
X11278Y10470D1*
Y10169D1*
X11456Y10470D2*
X11413Y10456D1*
X11384Y10413D1*
X11370Y10341D1*
Y10298D1*
X11384Y10227D1*
X11413Y10184D1*
X11456Y10169D1*
X11485D1*
X11528Y10184D1*
X11557Y10227D1*
X11571Y10298D1*
Y10341D1*
X11557Y10413D1*
X11528Y10456D1*
X11485Y10470D1*
X11456D1*
X11557Y10413D2*
X11384Y10227D1*
X11664Y10413D2*
X11693Y10428D1*
X11736Y10470D1*
Y10169D1*
X20474Y12515D2*
X20603D1*
X20647Y12529D1*
X20661Y12544D1*
X20675Y12572D1*
Y12601D1*
X20661Y12629D1*
X20647Y12644D1*
X20603Y12658D1*
X20474D1*
Y12357D1*
X20575Y12515D2*
X20675Y12357D1*
X20768Y12601D2*
X20797Y12615D1*
X20840Y12658D1*
Y12357D1*
X20933Y12601D2*
X20961Y12615D1*
X21005Y12658D1*
Y12357D1*
X21269Y12658D2*
X21126D1*
X21112Y12529D1*
X21126Y12543D1*
X21169Y12558D1*
X21212D1*
X21255Y12543D1*
X21284Y12515D1*
X21298Y12472D1*
Y12443D1*
X21284Y12400D1*
X21255Y12371D1*
X21212Y12357D1*
X21169D1*
X21126Y12371D1*
X21112Y12386D1*
X21097Y12414D1*
X22299Y13761D2*
X22112D1*
Y13460D1*
Y13618D2*
X22227D1*
X22391Y13761D2*
Y13460D1*
X22520D1*
X22564Y13474D1*
X22578Y13489D1*
X22592Y13517D1*
Y13560D1*
X22578Y13589D1*
X22564Y13603D1*
X22520Y13618D1*
X22564Y13632D1*
X22578Y13646D1*
X22592Y13675D1*
Y13704D1*
X22578Y13732D1*
X22564Y13747D1*
X22520Y13761D1*
X22391D1*
Y13618D2*
X22520D1*
X22685Y13703D2*
X22714Y13718D1*
X22757Y13761D1*
Y13460D1*
X22936Y13761D2*
X22892Y13747D1*
X22864Y13703D1*
X22849Y13632D1*
Y13589D1*
X22864Y13517D1*
X22892Y13474D1*
X22936Y13460D1*
X22964D1*
X23007Y13474D1*
X23036Y13517D1*
X23050Y13589D1*
Y13632D1*
X23036Y13703D1*
X23007Y13747D1*
X22964Y13761D1*
X22936D1*
X23036Y13703D2*
X22864Y13517D1*
X23158Y13689D2*
Y13703D1*
X23172Y13732D1*
X23186Y13747D1*
X23215Y13761D1*
X23272D1*
X23301Y13747D1*
X23315Y13732D1*
X23330Y13703D1*
Y13675D1*
X23315Y13646D1*
X23287Y13603D1*
X23143Y13460D1*
X23344D1*
X7132Y47850D2*
D115*
Y47046D1*
X7668Y47850D2*
Y47046D1*
X7132Y47467D2*
X7668D1*
X8106Y47582D2*
X8030Y47544D1*
X7953Y47467D1*
X7915Y47352D1*
Y47276D1*
X7953Y47161D1*
X8030Y47085D1*
X8106Y47046D1*
X8221D1*
X8298Y47085D1*
X8374Y47161D1*
X8413Y47276D1*
Y47352D1*
X8374Y47467D1*
X8298Y47544D1*
X8221Y47582D1*
X8106D1*
X8660Y47850D2*
Y47046D1*
X8907Y47352D2*
X9366D1*
Y47429D1*
X9328Y47506D1*
X9290Y47544D1*
X9213Y47582D1*
X9098D1*
X9022Y47544D1*
X8945Y47467D1*
X8907Y47352D1*
Y47276D1*
X8945Y47161D1*
X9022Y47085D1*
X9098Y47046D1*
X9213D1*
X9290Y47085D1*
X9366Y47161D1*
X2143Y45893D2*
X2487D1*
X2602Y45931D1*
X2641Y45969D1*
X2679Y46045D1*
Y46122D1*
X2641Y46198D1*
X2602Y46237D1*
X2487Y46275D1*
X2143D1*
Y45472D1*
X2411Y45893D2*
X2679Y45472D1*
X3117Y46007D2*
X3041Y45969D1*
X2964Y45893D1*
X2926Y45778D1*
Y45701D1*
X2964Y45587D1*
X3041Y45510D1*
X3117Y45472D1*
X3232D1*
X3309Y45510D1*
X3385Y45587D1*
X3424Y45701D1*
Y45778D1*
X3385Y45893D1*
X3309Y45969D1*
X3232Y46007D1*
X3117D1*
X3671D2*
Y45625D1*
X3709Y45510D1*
X3786Y45472D1*
X3901D1*
X3977Y45510D1*
X4092Y45625D1*
Y46007D2*
Y45472D1*
X4339Y46007D2*
Y45472D1*
Y45854D2*
X4454Y45969D1*
X4531Y46007D1*
X4645D1*
X4722Y45969D1*
X4760Y45854D1*
Y45472D1*
X5466Y46275D2*
Y45472D1*
Y45893D2*
X5390Y45969D1*
X5313Y46007D1*
X5198D1*
X5122Y45969D1*
X5045Y45893D1*
X5007Y45778D1*
Y45701D1*
X5045Y45587D1*
X5122Y45510D1*
X5198Y45472D1*
X5313D1*
X5390Y45510D1*
X5466Y45587D1*
X6490Y46122D2*
X6567Y46160D1*
X6682Y46275D1*
Y45472D1*
X6968Y46084D2*
Y46122D1*
X7006Y46198D1*
X7044Y46237D1*
X7121Y46275D1*
X7274D1*
X7350Y46237D1*
X7388Y46198D1*
X7427Y46122D1*
Y46045D1*
X7388Y45969D1*
X7312Y45854D1*
X6929Y45472D1*
X7465D1*
X8490Y46007D2*
Y45472D1*
Y45854D2*
X8605Y45969D1*
X8682Y46007D1*
X8796D1*
X8873Y45969D1*
X8911Y45854D1*
Y45472D1*
Y45854D2*
X9026Y45969D1*
X9103Y46007D1*
X9217D1*
X9294Y45969D1*
X9333Y45854D1*
Y45472D1*
X9580Y46275D2*
X9618Y46237D1*
X9656Y46275D1*
X9618Y46314D1*
X9580Y46275D1*
X9618Y46007D2*
Y45472D1*
X9903Y46275D2*
Y45472D1*
X2143Y44318D2*
X2487D1*
X2602Y44357D1*
X2641Y44395D1*
X2679Y44471D1*
Y44548D1*
X2641Y44624D1*
X2602Y44663D1*
X2487Y44701D1*
X2143D1*
Y43897D1*
X2411Y44318D2*
X2679Y43897D1*
X3117Y44433D2*
X3041Y44395D1*
X2964Y44318D1*
X2926Y44203D1*
Y44127D1*
X2964Y44012D1*
X3041Y43936D1*
X3117Y43897D1*
X3232D1*
X3309Y43936D1*
X3385Y44012D1*
X3424Y44127D1*
Y44203D1*
X3385Y44318D1*
X3309Y44395D1*
X3232Y44433D1*
X3117D1*
X3671D2*
Y44050D1*
X3709Y43936D1*
X3786Y43897D1*
X3901D1*
X3977Y43936D1*
X4092Y44050D1*
Y44433D2*
Y43897D1*
X4339Y44433D2*
Y43897D1*
Y44280D2*
X4454Y44395D1*
X4531Y44433D1*
X4645D1*
X4722Y44395D1*
X4760Y44280D1*
Y43897D1*
X5466Y44701D2*
Y43897D1*
Y44318D2*
X5390Y44395D1*
X5313Y44433D1*
X5198D1*
X5122Y44395D1*
X5045Y44318D1*
X5007Y44203D1*
Y44127D1*
X5045Y44012D1*
X5122Y43936D1*
X5198Y43897D1*
X5313D1*
X5390Y43936D1*
X5466Y44012D1*
X6567Y44700D2*
X6987D1*
X6758Y44394D1*
X6873D1*
X6949Y44356D1*
X6987Y44318D1*
X7026Y44203D1*
Y44127D1*
X6987Y44012D1*
X6911Y43935D1*
X6796Y43897D1*
X6681D1*
X6567Y43935D1*
X6529Y43974D1*
X6490Y44050D1*
X7771Y44433D2*
X7732Y44318D1*
X7656Y44241D1*
X7541Y44203D1*
X7503D1*
X7388Y44241D1*
X7312Y44318D1*
X7273Y44433D1*
Y44471D1*
X7312Y44586D1*
X7388Y44662D1*
X7503Y44700D1*
X7541D1*
X7656Y44662D1*
X7732Y44586D1*
X7771Y44433D1*
Y44241D1*
X7732Y44050D1*
X7656Y43935D1*
X7541Y43897D1*
X7465D1*
X7350Y43935D1*
X7312Y44012D1*
X8056Y43974D2*
X8018Y43935D1*
X8056Y43897D1*
X8095Y43935D1*
X8056Y43974D1*
X8725Y43897D2*
Y44700D1*
X8342Y44165D1*
X8916D1*
X9941Y44433D2*
Y43897D1*
Y44280D2*
X10056Y44395D1*
X10133Y44433D1*
X10247D1*
X10324Y44395D1*
X10362Y44280D1*
Y43897D1*
Y44280D2*
X10477Y44395D1*
X10553Y44433D1*
X10668D1*
X10744Y44395D1*
X10783Y44280D1*
Y43897D1*
X11030Y44701D2*
X11068Y44663D1*
X11107Y44701D1*
X11068Y44740D1*
X11030Y44701D1*
X11068Y44433D2*
Y43897D1*
X11354Y44701D2*
Y43897D1*
X2143Y42743D2*
X2487D1*
X2602Y42782D1*
X2641Y42820D1*
X2679Y42896D1*
Y42973D1*
X2641Y43049D1*
X2602Y43088D1*
X2487Y43126D1*
X2143D1*
Y42322D1*
X2411Y42743D2*
X2679Y42322D1*
X3117Y42858D2*
X3041Y42820D1*
X2964Y42743D1*
X2926Y42628D1*
Y42552D1*
X2964Y42437D1*
X3041Y42361D1*
X3117Y42322D1*
X3232D1*
X3309Y42361D1*
X3385Y42437D1*
X3424Y42552D1*
Y42628D1*
X3385Y42743D1*
X3309Y42820D1*
X3232Y42858D1*
X3117D1*
X3671D2*
Y42475D1*
X3709Y42361D1*
X3786Y42322D1*
X3901D1*
X3977Y42361D1*
X4092Y42475D1*
Y42858D2*
Y42322D1*
X4339Y42858D2*
Y42322D1*
Y42705D2*
X4454Y42820D1*
X4531Y42858D1*
X4645D1*
X4722Y42820D1*
X4760Y42705D1*
Y42322D1*
X5466Y43126D2*
Y42322D1*
Y42743D2*
X5390Y42820D1*
X5313Y42858D1*
X5198D1*
X5122Y42820D1*
X5045Y42743D1*
X5007Y42628D1*
Y42552D1*
X5045Y42437D1*
X5122Y42361D1*
X5198Y42322D1*
X5313D1*
X5390Y42361D1*
X5466Y42437D1*
X6873Y42322D2*
Y43125D1*
X6490Y42590D1*
X7064D1*
X7388Y43125D2*
X7808D1*
X7579Y42819D1*
X7694D1*
X7770Y42781D1*
X7808Y42743D1*
X7847Y42628D1*
Y42552D1*
X7808Y42437D1*
X7732Y42360D1*
X7617Y42322D1*
X7502D1*
X7388Y42360D1*
X7350Y42399D1*
X7311Y42475D1*
X8132Y42399D2*
X8094Y42360D1*
X8132Y42322D1*
X8171Y42360D1*
X8132Y42399D1*
X8495Y43125D2*
X8915D1*
X8686Y42819D1*
X8801D1*
X8877Y42781D1*
X8915Y42743D1*
X8954Y42628D1*
Y42552D1*
X8915Y42437D1*
X8839Y42360D1*
X8724Y42322D1*
X8609D1*
X8495Y42360D1*
X8457Y42399D1*
X8418Y42475D1*
X9979Y42858D2*
Y42322D1*
Y42705D2*
X10094Y42820D1*
X10171Y42858D1*
X10285D1*
X10362Y42820D1*
X10400Y42705D1*
Y42322D1*
Y42705D2*
X10515Y42820D1*
X10591Y42858D1*
X10706D1*
X10783Y42820D1*
X10821Y42705D1*
Y42322D1*
X11068Y43126D2*
X11106Y43088D1*
X11145Y43126D1*
X11106Y43165D1*
X11068Y43126D1*
X11106Y42858D2*
Y42322D1*
X11392Y43126D2*
Y42322D1*
X2143Y41168D2*
X2487D1*
X2602Y41207D1*
X2641Y41245D1*
X2679Y41321D1*
Y41398D1*
X2641Y41474D1*
X2602Y41513D1*
X2487Y41551D1*
X2143D1*
Y40747D1*
X2411Y41168D2*
X2679Y40747D1*
X3117Y41283D2*
X3041Y41245D1*
X2964Y41168D1*
X2926Y41053D1*
Y40977D1*
X2964Y40862D1*
X3041Y40786D1*
X3117Y40747D1*
X3232D1*
X3309Y40786D1*
X3385Y40862D1*
X3424Y40977D1*
Y41053D1*
X3385Y41168D1*
X3309Y41245D1*
X3232Y41283D1*
X3117D1*
X3671D2*
Y40900D1*
X3709Y40786D1*
X3786Y40747D1*
X3901D1*
X3977Y40786D1*
X4092Y40900D1*
Y41283D2*
Y40747D1*
X4339Y41283D2*
Y40747D1*
Y41130D2*
X4454Y41245D1*
X4531Y41283D1*
X4645D1*
X4722Y41245D1*
X4760Y41130D1*
Y40747D1*
X5466Y41551D2*
Y40747D1*
Y41168D2*
X5390Y41245D1*
X5313Y41283D1*
X5198D1*
X5122Y41245D1*
X5045Y41168D1*
X5007Y41053D1*
Y40977D1*
X5045Y40862D1*
X5122Y40786D1*
X5198Y40747D1*
X5313D1*
X5390Y40786D1*
X5466Y40862D1*
X6873Y40747D2*
Y41550D1*
X6490Y41015D1*
X7064D1*
X7809Y41283D2*
X7770Y41168D1*
X7694Y41091D1*
X7579Y41053D1*
X7541D1*
X7426Y41091D1*
X7350Y41168D1*
X7311Y41283D1*
Y41321D1*
X7350Y41436D1*
X7426Y41512D1*
X7541Y41550D1*
X7579D1*
X7694Y41512D1*
X7770Y41436D1*
X7809Y41283D1*
Y41091D1*
X7770Y40900D1*
X7694Y40785D1*
X7579Y40747D1*
X7503D1*
X7388Y40785D1*
X7350Y40862D1*
X8094Y40824D2*
X8056Y40785D1*
X8094Y40747D1*
X8133Y40785D1*
X8094Y40824D1*
X8419Y41359D2*
Y41397D1*
X8457Y41474D1*
X8495Y41512D1*
X8572Y41550D1*
X8725D1*
X8801Y41512D1*
X8839Y41474D1*
X8878Y41397D1*
Y41321D1*
X8839Y41244D1*
X8763Y41130D1*
X8380Y40747D1*
X8916D1*
X9941Y41283D2*
Y40747D1*
Y41130D2*
X10056Y41245D1*
X10133Y41283D1*
X10247D1*
X10324Y41245D1*
X10362Y41130D1*
Y40747D1*
Y41130D2*
X10477Y41245D1*
X10553Y41283D1*
X10668D1*
X10744Y41245D1*
X10783Y41130D1*
Y40747D1*
X11030Y41551D2*
X11068Y41513D1*
X11107Y41551D1*
X11068Y41590D1*
X11030Y41551D1*
X11068Y41283D2*
Y40747D1*
X11354Y41551D2*
Y40747D1*
X2143Y39593D2*
X2487D1*
X2602Y39632D1*
X2641Y39670D1*
X2679Y39746D1*
Y39823D1*
X2641Y39899D1*
X2602Y39938D1*
X2487Y39976D1*
X2143D1*
Y39172D1*
X2411Y39593D2*
X2679Y39172D1*
X3117Y39708D2*
X3041Y39670D1*
X2964Y39593D1*
X2926Y39478D1*
Y39402D1*
X2964Y39287D1*
X3041Y39211D1*
X3117Y39172D1*
X3232D1*
X3309Y39211D1*
X3385Y39287D1*
X3424Y39402D1*
Y39478D1*
X3385Y39593D1*
X3309Y39670D1*
X3232Y39708D1*
X3117D1*
X3671D2*
Y39325D1*
X3709Y39211D1*
X3786Y39172D1*
X3901D1*
X3977Y39211D1*
X4092Y39325D1*
Y39708D2*
Y39172D1*
X4339Y39708D2*
Y39172D1*
Y39555D2*
X4454Y39670D1*
X4531Y39708D1*
X4645D1*
X4722Y39670D1*
X4760Y39555D1*
Y39172D1*
X5466Y39976D2*
Y39172D1*
Y39593D2*
X5390Y39670D1*
X5313Y39708D1*
X5198D1*
X5122Y39670D1*
X5045Y39593D1*
X5007Y39478D1*
Y39402D1*
X5045Y39287D1*
X5122Y39211D1*
X5198Y39172D1*
X5313D1*
X5390Y39211D1*
X5466Y39287D1*
X6949Y39975D2*
X6567D1*
X6529Y39631D1*
X6567Y39669D1*
X6682Y39708D1*
X6796D1*
X6911Y39669D1*
X6988Y39593D1*
X7026Y39478D1*
Y39402D1*
X6988Y39287D1*
X6911Y39210D1*
X6796Y39172D1*
X6682D1*
X6567Y39210D1*
X6529Y39249D1*
X6490Y39325D1*
X7273Y39822D2*
X7350Y39861D1*
X7465Y39975D1*
Y39172D1*
X7750Y39249D2*
X7712Y39210D1*
X7750Y39172D1*
X7789Y39210D1*
X7750Y39249D1*
X8075Y39784D2*
Y39822D1*
X8113Y39899D1*
X8151Y39937D1*
X8228Y39975D1*
X8381D1*
X8457Y39937D1*
X8495Y39899D1*
X8534Y39822D1*
Y39746D1*
X8495Y39669D1*
X8419Y39555D1*
X8036Y39172D1*
X8572D1*
X9597Y39708D2*
Y39172D1*
Y39555D2*
X9712Y39670D1*
X9789Y39708D1*
X9903D1*
X9980Y39670D1*
X10018Y39555D1*
Y39172D1*
Y39555D2*
X10133Y39670D1*
X10209Y39708D1*
X10324D1*
X10400Y39670D1*
X10439Y39555D1*
Y39172D1*
X10686Y39976D2*
X10724Y39938D1*
X10763Y39976D1*
X10724Y40015D1*
X10686Y39976D1*
X10724Y39708D2*
Y39172D1*
X11010Y39976D2*
Y39172D1*
X17062Y47659D2*
X17024Y47735D1*
X16947Y47812D1*
X16871Y47850D1*
X16718D1*
X16641Y47812D1*
X16565Y47735D1*
X16526Y47659D1*
X16488Y47544D1*
Y47352D1*
X16526Y47238D1*
X16565Y47161D1*
X16641Y47085D1*
X16718Y47046D1*
X16871D1*
X16947Y47085D1*
X17024Y47161D1*
X17062Y47238D1*
X17500Y47582D2*
X17424Y47544D1*
X17347Y47467D1*
X17309Y47352D1*
Y47276D1*
X17347Y47161D1*
X17424Y47085D1*
X17500Y47046D1*
X17615D1*
X17692Y47085D1*
X17768Y47161D1*
X17807Y47276D1*
Y47352D1*
X17768Y47467D1*
X17692Y47544D1*
X17615Y47582D1*
X17500D1*
X18054D2*
Y47199D1*
X18092Y47085D1*
X18169Y47046D1*
X18284D1*
X18360Y47085D1*
X18475Y47199D1*
Y47582D2*
Y47046D1*
X18722Y47582D2*
Y47046D1*
Y47429D2*
X18837Y47544D1*
X18914Y47582D1*
X19028D1*
X19105Y47544D1*
X19143Y47429D1*
Y47046D1*
X19505Y47850D2*
Y47199D1*
X19543Y47085D1*
X19620Y47046D1*
X19696D1*
X19390Y47582D2*
X19658D1*
X15725Y46160D2*
X15687Y46237D1*
X15572Y46275D1*
X15496D1*
X15381Y46237D1*
X15304Y46122D1*
X15266Y45931D1*
Y45740D1*
X15304Y45587D1*
X15381Y45510D1*
X15496Y45472D1*
X15534D1*
X15648Y45510D1*
X15725Y45587D1*
X15763Y45701D1*
Y45740D1*
X15725Y45854D1*
X15648Y45931D1*
X15534Y45969D1*
X15496D1*
X15381Y45931D1*
X15304Y45854D1*
X15266Y45740D1*
X16087Y46275D2*
X16507D1*
X16278Y45969D1*
X16393D1*
X16469Y45931D1*
X16507Y45893D1*
X16546Y45778D1*
Y45701D1*
X16507Y45587D1*
X16431Y45510D1*
X16316Y45472D1*
X16201D1*
X16087Y45510D1*
X16049Y45549D1*
X16010Y45625D1*
X17252Y46160D2*
X17214Y46237D1*
X17099Y46275D1*
X17023D1*
X16908Y46237D1*
X16831Y46122D1*
X16793Y45931D1*
Y45740D1*
X16831Y45587D1*
X16908Y45510D1*
X17023Y45472D1*
X17061D1*
X17175Y45510D1*
X17252Y45587D1*
X17290Y45701D1*
Y45740D1*
X17252Y45854D1*
X17175Y45931D1*
X17061Y45969D1*
X17023D1*
X16908Y45931D1*
X16831Y45854D1*
X16793Y45740D1*
X15266Y44547D2*
X15343Y44586D1*
X15458Y44700D1*
Y43897D1*
X15935Y44700D2*
X15820Y44662D1*
X15743Y44547D1*
X15705Y44356D1*
Y44241D1*
X15743Y44050D1*
X15820Y43935D1*
X15935Y43897D1*
X16011D1*
X16126Y43935D1*
X16202Y44050D1*
X16241Y44241D1*
Y44356D1*
X16202Y44547D1*
X16126Y44662D1*
X16011Y44700D1*
X15935D1*
X16202Y44547D2*
X15743Y44050D1*
X15266Y42972D2*
X15343Y43011D1*
X15458Y43125D1*
Y42322D1*
X16164Y43125D2*
X15782D1*
X15744Y42781D1*
X15782Y42819D1*
X15897Y42858D1*
X16011D1*
X16126Y42819D1*
X16203Y42743D1*
X16241Y42628D1*
Y42552D1*
X16203Y42437D1*
X16126Y42360D1*
X16011Y42322D1*
X15897D1*
X15782Y42360D1*
X15744Y42399D1*
X15705Y42475D1*
X16527Y42934D2*
Y42972D1*
X16565Y43049D1*
X16603Y43087D1*
X16680Y43125D1*
X16833D1*
X16909Y43087D1*
X16947Y43049D1*
X16986Y42972D1*
Y42896D1*
X16947Y42819D1*
X16871Y42705D1*
X16488Y42322D1*
X17024D1*
X15343Y41550D2*
X15763D1*
X15534Y41244D1*
X15649D1*
X15725Y41206D1*
X15763Y41168D1*
X15802Y41053D1*
Y40977D1*
X15763Y40862D1*
X15687Y40785D1*
X15572Y40747D1*
X15457D1*
X15343Y40785D1*
X15305Y40824D1*
X15266Y40900D1*
X15649Y39172D2*
Y39975D1*
X15266Y39440D1*
X15840D1*
X685Y-4386D2*
D43*
X62D1*
Y-5391D1*
Y-4865D2*
X445D1*
X1567Y-4721D2*
Y-5391D1*
Y-4865D2*
X1472Y-4769D1*
X1376Y-4721D1*
X1233D1*
X1137Y-4769D1*
X1042Y-4865D1*
X994Y-5009D1*
Y-5104D1*
X1042Y-5247D1*
X1137Y-5342D1*
X1233Y-5391D1*
X1376D1*
X1472Y-5342D1*
X1567Y-5247D1*
X1876Y-4386D2*
Y-5391D1*
Y-4865D2*
X1972Y-4769D1*
X2067Y-4721D1*
X2211D1*
X2306Y-4769D1*
X2402Y-4865D1*
X2450Y-5009D1*
Y-5104D1*
X2402Y-5247D1*
X2306Y-5342D1*
X2211Y-5391D1*
X2067D1*
X1972Y-5342D1*
X1876Y-5247D1*
X4400Y-4386D2*
Y-5391D1*
X3731Y-4386D1*
Y-5391D1*
X4948Y-4721D2*
X4853Y-4769D1*
X4757Y-4865D1*
X4709Y-5009D1*
Y-5104D1*
X4757Y-5247D1*
X4853Y-5342D1*
X4948Y-5391D1*
X5092D1*
X5188Y-5342D1*
X5283Y-5247D1*
X5332Y-5104D1*
Y-5009D1*
X5283Y-4865D1*
X5188Y-4769D1*
X5092Y-4721D1*
X4948D1*
X5784Y-4386D2*
Y-5200D1*
X5832Y-5342D1*
X5928Y-5391D1*
X6023D1*
X5640Y-4721D2*
X5975D1*
X6332Y-5009D2*
X6905D1*
Y-4912D1*
X6858Y-4816D1*
X6810Y-4769D1*
X6714Y-4721D1*
X6570D1*
X6475Y-4769D1*
X6379Y-4865D1*
X6332Y-5009D1*
Y-5104D1*
X6379Y-5247D1*
X6475Y-5342D1*
X6570Y-5391D1*
X6714D1*
X6810Y-5342D1*
X6905Y-5247D1*
X7740Y-4865D2*
X7693Y-4769D1*
X7549Y-4721D1*
X7405D1*
X7262Y-4769D1*
X7214Y-4865D1*
X7262Y-4960D1*
X7358Y-5009D1*
X7597Y-5056D1*
X7693Y-5104D1*
X7740Y-5200D1*
Y-5247D1*
X7693Y-5342D1*
X7549Y-5391D1*
X7405D1*
X7262Y-5342D1*
X7214Y-5247D1*
X8098Y-4721D2*
X8049Y-4770D1*
X8098Y-4817D1*
X8145Y-4770D1*
X8098Y-4721D1*
Y-5295D2*
X8049Y-5344D1*
X8098Y-5391D1*
X8145Y-5344D1*
X8098Y-5295D1*
X43568Y3506D2*
D12*
X43769D1*
Y3592D1*
X43759Y3621D1*
X43750Y3630D1*
X43731Y3640D1*
X43702D1*
X43683Y3630D1*
X43673Y3621D1*
X43664Y3592D1*
X43654Y3621D1*
X43644Y3630D1*
X43625Y3640D1*
X43606D1*
X43587Y3630D1*
X43577Y3621D1*
X43568Y3592D1*
Y3506D1*
X43664D2*
Y3592D1*
X43568Y3759D2*
X43577Y3740D1*
X43597Y3721D1*
X43616Y3711D1*
X43644Y3702D1*
X43692D1*
X43721Y3711D1*
X43740Y3721D1*
X43759Y3740D1*
X43769Y3759D1*
Y3797D1*
X43759Y3816D1*
X43740Y3835D1*
X43721Y3845D1*
X43692Y3854D1*
X43644D1*
X43616Y3845D1*
X43597Y3835D1*
X43577Y3816D1*
X43568Y3797D1*
Y3759D1*
X43769Y4069D2*
X43568Y3993D1*
X43769Y3916D1*
X43702Y3945D2*
Y4041D1*
X43664Y4131D2*
Y4217D1*
X43654Y4246D1*
X43644Y4256D1*
X43625Y4265D1*
X43606D1*
X43587Y4256D1*
X43577Y4246D1*
X43568Y4217D1*
Y4131D1*
X43769D1*
X43664Y4198D2*
X43769Y4265D1*
X43568Y4327D2*
X43769D1*
Y4394D1*
X43759Y4423D1*
X43740Y4442D1*
X43721Y4451D1*
X43692Y4461D1*
X43644D1*
X43616Y4451D1*
X43597Y4442D1*
X43577Y4423D1*
X43568Y4394D1*
Y4327D1*
Y4841D2*
Y4717D1*
X43769D1*
Y4841D1*
X43664Y4717D2*
Y4794D1*
X43568Y4903D2*
X43769D1*
Y4970D1*
X43759Y4999D1*
X43740Y5018D1*
X43721Y5028D1*
X43692Y5037D1*
X43644D1*
X43616Y5028D1*
X43597Y5018D1*
X43577Y4999D1*
X43568Y4970D1*
Y4903D1*
X43616Y5242D2*
X43597Y5233D1*
X43577Y5214D1*
X43568Y5195D1*
Y5156D1*
X43577Y5137D1*
X43597Y5118D1*
X43616Y5108D1*
X43644Y5099D1*
X43692D1*
X43721Y5108D1*
X43740Y5118D1*
X43759Y5137D1*
X43769Y5156D1*
Y5195D1*
X43759Y5214D1*
X43740Y5233D1*
X43721Y5242D1*
X43692D1*
Y5195D1*
X43568Y5428D2*
Y5304D1*
X43769D1*
Y5428D1*
X43664Y5304D2*
Y5381D1*
X40068Y17506D2*
X40269D1*
Y17592D1*
X40259Y17621D1*
X40250Y17630D1*
X40231Y17640D1*
X40202D1*
X40183Y17630D1*
X40173Y17621D1*
X40164Y17592D1*
X40154Y17621D1*
X40144Y17630D1*
X40125Y17640D1*
X40106D1*
X40087Y17630D1*
X40077Y17621D1*
X40068Y17592D1*
Y17506D1*
X40164D2*
Y17592D1*
X40068Y17759D2*
X40077Y17740D1*
X40097Y17721D1*
X40116Y17711D1*
X40144Y17702D1*
X40192D1*
X40221Y17711D1*
X40240Y17721D1*
X40259Y17740D1*
X40269Y17759D1*
Y17797D1*
X40259Y17816D1*
X40240Y17835D1*
X40221Y17845D1*
X40192Y17854D1*
X40144D1*
X40116Y17845D1*
X40097Y17835D1*
X40077Y17816D1*
X40068Y17797D1*
Y17759D1*
X40269Y18069D2*
X40068Y17993D1*
X40269Y17916D1*
X40202Y17945D2*
Y18041D1*
X40164Y18131D2*
Y18217D1*
X40154Y18246D1*
X40144Y18256D1*
X40125Y18265D1*
X40106D1*
X40087Y18256D1*
X40077Y18246D1*
X40068Y18217D1*
Y18131D1*
X40269D1*
X40164Y18198D2*
X40269Y18265D1*
X40068Y18327D2*
X40269D1*
Y18394D1*
X40259Y18423D1*
X40240Y18442D1*
X40221Y18451D1*
X40192Y18461D1*
X40144D1*
X40116Y18451D1*
X40097Y18442D1*
X40077Y18423D1*
X40068Y18394D1*
Y18327D1*
Y18841D2*
Y18717D1*
X40269D1*
Y18841D1*
X40164Y18717D2*
Y18794D1*
X40068Y18903D2*
X40269D1*
Y18970D1*
X40259Y18999D1*
X40240Y19018D1*
X40221Y19028D1*
X40192Y19037D1*
X40144D1*
X40116Y19028D1*
X40097Y19018D1*
X40077Y18999D1*
X40068Y18970D1*
Y18903D1*
X40116Y19242D2*
X40097Y19233D1*
X40077Y19214D1*
X40068Y19195D1*
Y19156D1*
X40077Y19137D1*
X40097Y19118D1*
X40116Y19108D1*
X40144Y19099D1*
X40192D1*
X40221Y19108D1*
X40240Y19118D1*
X40259Y19137D1*
X40269Y19156D1*
Y19195D1*
X40259Y19214D1*
X40240Y19233D1*
X40221Y19242D1*
X40192D1*
Y19195D1*
X40068Y19428D2*
Y19304D1*
X40269D1*
Y19428D1*
X40164Y19304D2*
Y19381D1*
X41068Y17506D2*
X41269D1*
Y17592D1*
X41259Y17621D1*
X41250Y17630D1*
X41231Y17640D1*
X41202D1*
X41183Y17630D1*
X41173Y17621D1*
X41164Y17592D1*
X41154Y17621D1*
X41144Y17630D1*
X41125Y17640D1*
X41106D1*
X41087Y17630D1*
X41077Y17621D1*
X41068Y17592D1*
Y17506D1*
X41164D2*
Y17592D1*
X41068Y17759D2*
X41077Y17740D1*
X41097Y17721D1*
X41116Y17711D1*
X41144Y17702D1*
X41192D1*
X41221Y17711D1*
X41240Y17721D1*
X41259Y17740D1*
X41269Y17759D1*
Y17797D1*
X41259Y17816D1*
X41240Y17835D1*
X41221Y17845D1*
X41192Y17854D1*
X41144D1*
X41116Y17845D1*
X41097Y17835D1*
X41077Y17816D1*
X41068Y17797D1*
Y17759D1*
X41269Y18069D2*
X41068Y17993D1*
X41269Y17916D1*
X41202Y17945D2*
Y18041D1*
X41164Y18131D2*
Y18217D1*
X41154Y18246D1*
X41144Y18256D1*
X41125Y18265D1*
X41106D1*
X41087Y18256D1*
X41077Y18246D1*
X41068Y18217D1*
Y18131D1*
X41269D1*
X41164Y18198D2*
X41269Y18265D1*
X41068Y18327D2*
X41269D1*
Y18394D1*
X41259Y18423D1*
X41240Y18442D1*
X41221Y18451D1*
X41192Y18461D1*
X41144D1*
X41116Y18451D1*
X41097Y18442D1*
X41077Y18423D1*
X41068Y18394D1*
Y18327D1*
Y18841D2*
Y18717D1*
X41269D1*
Y18841D1*
X41164Y18717D2*
Y18794D1*
X41068Y18903D2*
X41269D1*
Y18970D1*
X41259Y18999D1*
X41240Y19018D1*
X41221Y19028D1*
X41192Y19037D1*
X41144D1*
X41116Y19028D1*
X41097Y19018D1*
X41077Y18999D1*
X41068Y18970D1*
Y18903D1*
X41116Y19242D2*
X41097Y19233D1*
X41077Y19214D1*
X41068Y19195D1*
Y19156D1*
X41077Y19137D1*
X41097Y19118D1*
X41116Y19108D1*
X41144Y19099D1*
X41192D1*
X41221Y19108D1*
X41240Y19118D1*
X41259Y19137D1*
X41269Y19156D1*
Y19195D1*
X41259Y19214D1*
X41240Y19233D1*
X41221Y19242D1*
X41192D1*
Y19195D1*
X41068Y19428D2*
Y19304D1*
X41269D1*
Y19428D1*
X41164Y19304D2*
Y19381D1*
X42068Y17506D2*
X42269D1*
Y17592D1*
X42259Y17621D1*
X42250Y17630D1*
X42231Y17640D1*
X42202D1*
X42183Y17630D1*
X42173Y17621D1*
X42164Y17592D1*
X42154Y17621D1*
X42144Y17630D1*
X42125Y17640D1*
X42106D1*
X42087Y17630D1*
X42077Y17621D1*
X42068Y17592D1*
Y17506D1*
X42164D2*
Y17592D1*
X42068Y17759D2*
X42077Y17740D1*
X42097Y17721D1*
X42116Y17711D1*
X42144Y17702D1*
X42192D1*
X42221Y17711D1*
X42240Y17721D1*
X42259Y17740D1*
X42269Y17759D1*
Y17797D1*
X42259Y17816D1*
X42240Y17835D1*
X42221Y17845D1*
X42192Y17854D1*
X42144D1*
X42116Y17845D1*
X42097Y17835D1*
X42077Y17816D1*
X42068Y17797D1*
Y17759D1*
X42269Y18069D2*
X42068Y17993D1*
X42269Y17916D1*
X42202Y17945D2*
Y18041D1*
X42164Y18131D2*
Y18217D1*
X42154Y18246D1*
X42144Y18256D1*
X42125Y18265D1*
X42106D1*
X42087Y18256D1*
X42077Y18246D1*
X42068Y18217D1*
Y18131D1*
X42269D1*
X42164Y18198D2*
X42269Y18265D1*
X42068Y18327D2*
X42269D1*
Y18394D1*
X42259Y18423D1*
X42240Y18442D1*
X42221Y18451D1*
X42192Y18461D1*
X42144D1*
X42116Y18451D1*
X42097Y18442D1*
X42077Y18423D1*
X42068Y18394D1*
Y18327D1*
Y18841D2*
Y18717D1*
X42269D1*
Y18841D1*
X42164Y18717D2*
Y18794D1*
X42068Y18903D2*
X42269D1*
Y18970D1*
X42259Y18999D1*
X42240Y19018D1*
X42221Y19028D1*
X42192Y19037D1*
X42144D1*
X42116Y19028D1*
X42097Y19018D1*
X42077Y18999D1*
X42068Y18970D1*
Y18903D1*
X42116Y19242D2*
X42097Y19233D1*
X42077Y19214D1*
X42068Y19195D1*
Y19156D1*
X42077Y19137D1*
X42097Y19118D1*
X42116Y19108D1*
X42144Y19099D1*
X42192D1*
X42221Y19108D1*
X42240Y19118D1*
X42259Y19137D1*
X42269Y19156D1*
Y19195D1*
X42259Y19214D1*
X42240Y19233D1*
X42221Y19242D1*
X42192D1*
Y19195D1*
X42068Y19428D2*
Y19304D1*
X42269D1*
Y19428D1*
X42164Y19304D2*
Y19381D1*
X48256Y3870D2*
Y3669D1*
X48342D1*
X48371Y3678D1*
X48380Y3688D1*
X48390Y3707D1*
Y3736D1*
X48380Y3755D1*
X48371Y3764D1*
X48342Y3774D1*
X48371Y3784D1*
X48380Y3793D1*
X48390Y3812D1*
Y3831D1*
X48380Y3850D1*
X48371Y3860D1*
X48342Y3870D1*
X48256D1*
Y3774D2*
X48342D1*
X48509Y3870D2*
X48490Y3860D1*
X48471Y3841D1*
X48461Y3822D1*
X48452Y3793D1*
Y3745D1*
X48461Y3717D1*
X48471Y3697D1*
X48490Y3678D1*
X48509Y3669D1*
X48547D1*
X48566Y3678D1*
X48585Y3697D1*
X48595Y3717D1*
X48604Y3745D1*
Y3793D1*
X48595Y3822D1*
X48585Y3841D1*
X48566Y3860D1*
X48547Y3870D1*
X48509D1*
X48819Y3669D2*
X48743Y3870D1*
X48666Y3669D1*
X48695Y3736D2*
X48791D1*
X48881Y3774D2*
X48967D1*
X48996Y3784D1*
X49006Y3793D1*
X49015Y3812D1*
Y3831D1*
X49006Y3850D1*
X48996Y3860D1*
X48967Y3870D1*
X48881D1*
Y3669D1*
X48948Y3774D2*
X49015Y3669D1*
X49077Y3870D2*
Y3669D1*
X49144D1*
X49173Y3678D1*
X49192Y3697D1*
X49201Y3717D1*
X49211Y3745D1*
Y3793D1*
X49201Y3822D1*
X49192Y3841D1*
X49173Y3860D1*
X49144Y3870D1*
X49077D1*
X49591D2*
X49467D1*
Y3669D1*
X49591D1*
X49467Y3774D2*
X49544D1*
X49653Y3870D2*
Y3669D1*
X49720D1*
X49749Y3678D1*
X49768Y3697D1*
X49778Y3717D1*
X49787Y3745D1*
Y3793D1*
X49778Y3822D1*
X49768Y3841D1*
X49749Y3860D1*
X49720Y3870D1*
X49653D1*
X49992Y3822D2*
X49983Y3841D1*
X49964Y3860D1*
X49945Y3870D1*
X49906D1*
X49887Y3860D1*
X49868Y3841D1*
X49858Y3822D1*
X49849Y3793D1*
Y3745D1*
X49858Y3717D1*
X49868Y3697D1*
X49887Y3678D1*
X49906Y3669D1*
X49945D1*
X49964Y3678D1*
X49983Y3697D1*
X49992Y3717D1*
Y3745D1*
X49945D1*
X50178Y3870D2*
X50054D1*
Y3669D1*
X50178D1*
X50054Y3774D2*
X50131D1*
X25568Y12006D2*
X25769D1*
Y12092D1*
X25759Y12121D1*
X25750Y12130D1*
X25731Y12140D1*
X25702D1*
X25683Y12130D1*
X25673Y12121D1*
X25664Y12092D1*
X25654Y12121D1*
X25644Y12130D1*
X25625Y12140D1*
X25606D1*
X25587Y12130D1*
X25577Y12121D1*
X25568Y12092D1*
Y12006D1*
X25664D2*
Y12092D1*
X25568Y12259D2*
X25577Y12240D1*
X25597Y12221D1*
X25616Y12211D1*
X25644Y12202D1*
X25692D1*
X25721Y12211D1*
X25740Y12221D1*
X25759Y12240D1*
X25769Y12259D1*
Y12297D1*
X25759Y12316D1*
X25740Y12335D1*
X25721Y12345D1*
X25692Y12354D1*
X25644D1*
X25616Y12345D1*
X25597Y12335D1*
X25577Y12316D1*
X25568Y12297D1*
Y12259D1*
X25769Y12569D2*
X25568Y12493D1*
X25769Y12416D1*
X25702Y12445D2*
Y12541D1*
X25664Y12631D2*
Y12717D1*
X25654Y12746D1*
X25644Y12756D1*
X25625Y12765D1*
X25606D1*
X25587Y12756D1*
X25577Y12746D1*
X25568Y12717D1*
Y12631D1*
X25769D1*
X25664Y12698D2*
X25769Y12765D1*
X25568Y12827D2*
X25769D1*
Y12894D1*
X25759Y12923D1*
X25740Y12942D1*
X25721Y12951D1*
X25692Y12961D1*
X25644D1*
X25616Y12951D1*
X25597Y12942D1*
X25577Y12923D1*
X25568Y12894D1*
Y12827D1*
Y13341D2*
Y13217D1*
X25769D1*
Y13341D1*
X25664Y13217D2*
Y13294D1*
X25568Y13403D2*
X25769D1*
Y13470D1*
X25759Y13499D1*
X25740Y13518D1*
X25721Y13528D1*
X25692Y13537D1*
X25644D1*
X25616Y13528D1*
X25597Y13518D1*
X25577Y13499D1*
X25568Y13470D1*
Y13403D1*
X25616Y13742D2*
X25597Y13733D1*
X25577Y13714D1*
X25568Y13695D1*
Y13656D1*
X25577Y13637D1*
X25597Y13618D1*
X25616Y13608D1*
X25644Y13599D1*
X25692D1*
X25721Y13608D1*
X25740Y13618D1*
X25759Y13637D1*
X25769Y13656D1*
Y13695D1*
X25759Y13714D1*
X25740Y13733D1*
X25721Y13742D1*
X25692D1*
Y13695D1*
X25568Y13928D2*
Y13804D1*
X25769D1*
Y13928D1*
X25664Y13804D2*
Y13881D1*
X32519Y12006D2*
X32720D1*
Y12092D1*
X32710Y12121D1*
X32700Y12130D1*
X32681Y12140D1*
X32653D1*
X32633Y12130D1*
X32624Y12121D1*
X32614Y12092D1*
X32605Y12121D1*
X32595Y12130D1*
X32576Y12140D1*
X32557D1*
X32538Y12130D1*
X32528Y12121D1*
X32519Y12092D1*
Y12006D1*
X32614D2*
Y12092D1*
X32519Y12259D2*
X32528Y12240D1*
X32547Y12221D1*
X32566Y12211D1*
X32595Y12202D1*
X32643D1*
X32672Y12211D1*
X32691Y12221D1*
X32710Y12240D1*
X32720Y12259D1*
Y12297D1*
X32710Y12316D1*
X32691Y12336D1*
X32672Y12345D1*
X32643Y12355D1*
X32595D1*
X32566Y12345D1*
X32547Y12336D1*
X32528Y12316D1*
X32519Y12297D1*
Y12259D1*
X32720Y12570D2*
X32519Y12493D1*
X32720Y12416D1*
X32653Y12445D2*
Y12541D1*
X32614Y12631D2*
Y12717D1*
X32605Y12746D1*
X32595Y12756D1*
X32576Y12765D1*
X32557D1*
X32538Y12756D1*
X32528Y12746D1*
X32519Y12717D1*
Y12631D1*
X32720D1*
X32614Y12698D2*
X32720Y12765D1*
X32519Y12827D2*
X32720D1*
Y12894D1*
X32710Y12923D1*
X32691Y12942D1*
X32672Y12952D1*
X32643Y12961D1*
X32595D1*
X32566Y12952D1*
X32547Y12942D1*
X32528Y12923D1*
X32519Y12894D1*
Y12827D1*
Y13341D2*
Y13217D1*
X32720D1*
Y13341D1*
X32614Y13217D2*
Y13294D1*
X32519Y13403D2*
X32720D1*
Y13470D1*
X32710Y13499D1*
X32691Y13518D1*
X32672Y13528D1*
X32643Y13537D1*
X32595D1*
X32566Y13528D1*
X32547Y13518D1*
X32528Y13499D1*
X32519Y13470D1*
Y13403D1*
X32566Y13742D2*
X32547Y13733D1*
X32528Y13714D1*
X32519Y13695D1*
Y13656D1*
X32528Y13637D1*
X32547Y13618D1*
X32566Y13608D1*
X32595Y13599D1*
X32643D1*
X32672Y13608D1*
X32691Y13618D1*
X32710Y13637D1*
X32720Y13656D1*
Y13695D1*
X32710Y13714D1*
X32691Y13733D1*
X32672Y13742D1*
X32643D1*
Y13695D1*
X32519Y13928D2*
Y13804D1*
X32720D1*
Y13928D1*
X32614Y13804D2*
Y13881D1*
X27519Y12006D2*
X27720D1*
Y12092D1*
X27710Y12121D1*
X27700Y12130D1*
X27681Y12140D1*
X27653D1*
X27633Y12130D1*
X27624Y12121D1*
X27614Y12092D1*
X27605Y12121D1*
X27595Y12130D1*
X27576Y12140D1*
X27557D1*
X27538Y12130D1*
X27528Y12121D1*
X27519Y12092D1*
Y12006D1*
X27614D2*
Y12092D1*
X27519Y12259D2*
X27528Y12240D1*
X27547Y12221D1*
X27566Y12211D1*
X27595Y12202D1*
X27643D1*
X27672Y12211D1*
X27691Y12221D1*
X27710Y12240D1*
X27720Y12259D1*
Y12297D1*
X27710Y12316D1*
X27691Y12336D1*
X27672Y12345D1*
X27643Y12355D1*
X27595D1*
X27566Y12345D1*
X27547Y12336D1*
X27528Y12316D1*
X27519Y12297D1*
Y12259D1*
X27720Y12570D2*
X27519Y12493D1*
X27720Y12416D1*
X27653Y12445D2*
Y12541D1*
X27614Y12631D2*
Y12717D1*
X27605Y12746D1*
X27595Y12756D1*
X27576Y12765D1*
X27557D1*
X27538Y12756D1*
X27528Y12746D1*
X27519Y12717D1*
Y12631D1*
X27720D1*
X27614Y12698D2*
X27720Y12765D1*
X27519Y12827D2*
X27720D1*
Y12894D1*
X27710Y12923D1*
X27691Y12942D1*
X27672Y12952D1*
X27643Y12961D1*
X27595D1*
X27566Y12952D1*
X27547Y12942D1*
X27528Y12923D1*
X27519Y12894D1*
Y12827D1*
Y13341D2*
Y13217D1*
X27720D1*
Y13341D1*
X27614Y13217D2*
Y13294D1*
X27519Y13403D2*
X27720D1*
Y13470D1*
X27710Y13499D1*
X27691Y13518D1*
X27672Y13528D1*
X27643Y13537D1*
X27595D1*
X27566Y13528D1*
X27547Y13518D1*
X27528Y13499D1*
X27519Y13470D1*
Y13403D1*
X27566Y13742D2*
X27547Y13733D1*
X27528Y13714D1*
X27519Y13695D1*
Y13656D1*
X27528Y13637D1*
X27547Y13618D1*
X27566Y13608D1*
X27595Y13599D1*
X27643D1*
X27672Y13608D1*
X27691Y13618D1*
X27710Y13637D1*
X27720Y13656D1*
Y13695D1*
X27710Y13714D1*
X27691Y13733D1*
X27672Y13742D1*
X27643D1*
Y13695D1*
X27519Y13928D2*
Y13804D1*
X27720D1*
Y13928D1*
X27614Y13804D2*
Y13881D1*
X32265Y5432D2*
Y5231D1*
X32352D1*
X32380Y5241D1*
X32390Y5250D1*
X32399Y5269D1*
Y5298D1*
X32390Y5317D1*
X32380Y5327D1*
X32352Y5336D1*
X32380Y5346D1*
X32390Y5356D1*
X32399Y5375D1*
Y5394D1*
X32390Y5413D1*
X32380Y5423D1*
X32352Y5432D1*
X32265D1*
Y5336D2*
X32352D1*
X32519Y5432D2*
X32499Y5423D1*
X32480Y5403D1*
X32471Y5384D1*
X32461Y5356D1*
Y5308D1*
X32471Y5279D1*
X32480Y5260D1*
X32499Y5241D1*
X32519Y5231D1*
X32557D1*
X32576Y5241D1*
X32595Y5260D1*
X32605Y5279D1*
X32614Y5308D1*
Y5356D1*
X32605Y5384D1*
X32595Y5403D1*
X32576Y5423D1*
X32557Y5432D1*
X32519D1*
X32829Y5231D2*
X32752Y5432D1*
X32676Y5231D1*
X32705Y5298D2*
X32800D1*
X32891Y5336D2*
X32977D1*
X33005Y5346D1*
X33015Y5356D1*
X33025Y5375D1*
Y5394D1*
X33015Y5413D1*
X33005Y5423D1*
X32977Y5432D1*
X32891D1*
Y5231D1*
X32958Y5336D2*
X33025Y5231D1*
X33086Y5432D2*
Y5231D1*
X33153D1*
X33182Y5241D1*
X33201Y5260D1*
X33211Y5279D1*
X33220Y5308D1*
Y5356D1*
X33211Y5384D1*
X33201Y5403D1*
X33182Y5423D1*
X33153Y5432D1*
X33086D1*
X33601D2*
X33477D1*
Y5231D1*
X33601D1*
X33477Y5336D2*
X33553D1*
X33663Y5432D2*
Y5231D1*
X33730D1*
X33758Y5241D1*
X33778Y5260D1*
X33787Y5279D1*
X33797Y5308D1*
Y5356D1*
X33787Y5384D1*
X33778Y5403D1*
X33758Y5423D1*
X33730Y5432D1*
X33663D1*
X34002Y5384D2*
X33992Y5403D1*
X33973Y5423D1*
X33954Y5432D1*
X33916D1*
X33897Y5423D1*
X33878Y5403D1*
X33868Y5384D1*
X33858Y5356D1*
Y5308D1*
X33868Y5279D1*
X33878Y5260D1*
X33897Y5241D1*
X33916Y5231D1*
X33954D1*
X33973Y5241D1*
X33992Y5260D1*
X34002Y5279D1*
Y5308D1*
X33954D1*
X34188Y5432D2*
X34064D1*
Y5231D1*
X34188D1*
X34064Y5336D2*
X34140D1*
M02*
