G04 DipTrace 2.4.0.2*
%INTopMask.gbr*%
%MOIN*%
%ADD33C,0.1*%
%ADD37R,0.0709X0.0709*%
%ADD38C,0.0709*%
%ADD46R,0.0748X0.0748*%
%ADD47C,0.0748*%
%ADD64R,0.071X0.1143*%
%ADD66R,0.2611X0.1119*%
%ADD68R,0.0178X0.0356*%
%ADD70R,0.0237X0.0631*%
%ADD72R,0.0316X0.0867*%
%ADD74R,0.0926X0.136*%
%ADD76R,0.0926X0.0454*%
%ADD79C,0.0828*%
%ADD80R,0.0828X0.0828*%
%ADD81R,0.0493X0.0336*%
%ADD83R,0.0336X0.0493*%
%ADD85O,0.0828X0.1064*%
%ADD87R,0.0828X0.1064*%
%ADD91C,0.0789*%
%ADD92R,0.0789X0.0789*%
%ADD94C,0.058*%
%ADD96R,0.0907X0.0631*%
%ADD98R,0.0631X0.071*%
%ADD100R,0.0631X0.0907*%
%ADD102R,0.1143X0.071*%
%ADD104R,0.0592X0.0671*%
%ADD106R,0.0926X0.1852*%
%ADD108R,0.0671X0.0592*%
%ADD110R,0.0513X0.0474*%
%ADD112R,0.0474X0.0513*%
%FSLAX44Y44*%
G04*
G70*
G90*
G75*
G01*
%LNTopMask*%
%LPD*%
D112*
X12751Y8063D3*
Y7394D3*
D110*
X13711Y6729D3*
X13042D3*
D108*
X15197Y13583D3*
Y14331D3*
D106*
X10126Y9063D3*
X8776D3*
Y5717D3*
X10126D3*
X19127Y6188D3*
X20477D3*
Y9535D3*
X19127D3*
D104*
X16457Y5315D3*
X15709D3*
X16457Y4488D3*
X15709D3*
D108*
X18440Y15778D3*
Y16526D3*
X19316Y15779D3*
Y16528D3*
D112*
X46750Y8750D3*
Y9419D3*
D108*
X52812Y5875D3*
Y6623D3*
D112*
X47500Y14500D3*
Y13831D3*
X51750Y8750D3*
Y9419D3*
X51000Y14500D3*
Y13831D3*
D108*
X49375Y8625D3*
Y9373D3*
X50500Y5875D3*
Y6623D3*
X51500Y12687D3*
Y11939D3*
Y11187D3*
Y10439D3*
X47000Y11187D3*
Y11936D3*
X29750Y15750D3*
Y16498D3*
D102*
X31500Y9500D3*
Y10602D3*
X30000Y9500D3*
Y10602D3*
X3000Y12500D3*
Y11398D3*
D104*
X33002Y6125D3*
X33750D3*
D100*
X16939Y11314D3*
X18672D3*
D98*
X7126Y14564D3*
X8307D3*
X9188D3*
X10370D3*
X29000Y7250D3*
X27819D3*
D96*
X1750Y12750D3*
Y11018D3*
X4312Y12750D3*
Y11018D3*
D110*
X22062Y4687D3*
X21393D3*
X52750Y4250D3*
X52081D3*
X25562Y9500D3*
X26232D3*
D33*
X14625Y17250D3*
D94*
D3*
D33*
X8500Y1000D3*
D94*
D3*
D33*
X52500Y1750D3*
D94*
D3*
D46*
X11000Y1000D3*
D47*
X12000D3*
X13000D3*
X14000D3*
X15000D3*
X16000D3*
X17000D3*
X18000D3*
D46*
X9400Y20000D3*
D47*
X10400D3*
X11400D3*
X12400D3*
X13400D3*
X14400D3*
X15400D3*
X16400D3*
D46*
X38000D3*
D47*
X37000D3*
X38000Y19000D3*
X37000D3*
X38000Y18000D3*
X37000D3*
X38000Y17000D3*
X37000D3*
X38000Y16000D3*
X37000D3*
X38000Y15000D3*
X37000D3*
X38000Y14000D3*
X37000D3*
X38000Y13000D3*
X37000D3*
X38000Y12000D3*
X37000D3*
X38000Y11000D3*
X37000D3*
X38000Y10000D3*
X37000D3*
X38000Y9000D3*
X37000D3*
X38000Y8000D3*
X37000D3*
X38000Y7000D3*
X37000D3*
X38000Y6000D3*
X37000D3*
X38000Y5000D3*
X37000D3*
X38000Y4000D3*
X37000D3*
X38000Y3000D3*
X37000D3*
D46*
X20000Y1000D3*
D47*
X21000D3*
X22000D3*
X23000D3*
X24000D3*
X25000D3*
X26000D3*
X27000D3*
D46*
X18000Y20000D3*
D47*
X19000D3*
X20000D3*
X21000D3*
X22000D3*
X23000D3*
X24000D3*
X25000D3*
D46*
X42000Y10000D3*
D47*
X41000D3*
X42000Y11000D3*
X41000D3*
X42000Y12000D3*
X41000D3*
X42000Y13000D3*
X41000D3*
X42000Y14000D3*
X41000D3*
D46*
X29000Y1000D3*
D47*
X30000D3*
X31000D3*
X32000D3*
X33000D3*
X34000D3*
X35000D3*
X36000D3*
D46*
X27000Y20000D3*
D47*
X28000D3*
X29000D3*
X30000D3*
X31000D3*
X32000D3*
X33000D3*
X34000D3*
D46*
X42000Y3000D3*
D47*
X41000D3*
X42000Y4000D3*
X41000D3*
X42000Y5000D3*
X41000D3*
X42000Y6000D3*
X41000D3*
X42000Y7000D3*
X41000D3*
D46*
X44500Y3000D3*
D47*
Y4000D3*
Y5000D3*
Y6000D3*
D46*
X41000Y17000D3*
D47*
Y18000D3*
Y19000D3*
Y20000D3*
D46*
X42000Y17000D3*
D47*
Y18000D3*
Y19000D3*
Y20000D3*
D46*
X43000Y17000D3*
D47*
Y18000D3*
Y19000D3*
Y20000D3*
D92*
X7750Y17250D3*
D91*
X8750D3*
X9750D3*
D37*
X46500Y17000D3*
D38*
Y17984D3*
Y18969D3*
D37*
X50500Y17000D3*
D38*
Y17984D3*
Y18969D3*
D46*
X47750Y2937D3*
D47*
X48750D3*
X49750D3*
X50750D3*
D46*
X26500Y11500D3*
D47*
Y12500D3*
Y13500D3*
Y14500D3*
D46*
X33500Y9500D3*
D47*
Y10500D3*
Y11500D3*
Y12500D3*
Y13500D3*
Y14500D3*
Y15500D3*
Y16500D3*
D46*
X28500Y9500D3*
D47*
Y10500D3*
Y11500D3*
Y12500D3*
Y13500D3*
Y14500D3*
Y15500D3*
Y16500D3*
D37*
X26995Y4243D3*
D38*
X26011D3*
D37*
X30500Y4250D3*
D38*
X29516D3*
D87*
X4500Y18250D3*
D85*
X3500D3*
X2500D3*
X1500D3*
D46*
X32750Y4500D3*
D47*
X33750D3*
D83*
X26517Y6642D3*
X25769D3*
X26143Y5736D3*
D81*
X29691Y6438D3*
Y5690D3*
X30596Y6064D3*
X28304Y6451D3*
Y5703D3*
X29209Y6077D3*
D80*
X2000Y7500D3*
D79*
Y8500D3*
Y9500D3*
D80*
X4250Y7500D3*
D79*
Y8500D3*
Y9500D3*
D110*
X35544Y20024D3*
X36213D3*
D112*
X13689Y7376D3*
Y8045D3*
X15947Y13583D3*
Y14252D3*
D110*
X16417Y8976D3*
X15748D3*
X7813Y15314D3*
X7144D3*
X9689Y15377D3*
X10358D3*
X52081Y5000D3*
X52750D3*
D112*
X47500Y8750D3*
Y9419D3*
X46000Y9500D3*
Y8831D3*
X46750Y13750D3*
Y14419D3*
X48250Y8750D3*
Y9419D3*
Y14500D3*
Y13831D3*
X51000Y8750D3*
Y9419D3*
X52500Y9498D3*
Y8829D3*
X51750Y13750D3*
Y14419D3*
X50250Y8750D3*
Y9419D3*
Y14500D3*
Y13831D3*
D110*
X46250Y11875D3*
X45581D3*
X45562Y11250D3*
X46232D3*
D112*
X30665Y16335D3*
Y15665D3*
D110*
X30500Y11750D3*
X29831D3*
X30500Y12750D3*
X29831D3*
X30500Y13750D3*
X29831D3*
X31250Y11750D3*
X31919D3*
X31250Y12750D3*
X31919D3*
X31250Y13750D3*
X31919D3*
X30500Y7250D3*
X29831D3*
D112*
X31441Y7357D3*
Y6688D3*
D110*
X26440Y7313D3*
X25771D3*
D112*
X2000Y5250D3*
Y5919D3*
X4250Y5250D3*
Y5919D3*
D110*
X33000Y6812D3*
X33669D3*
D112*
X2750Y5250D3*
Y5919D3*
X3500Y5250D3*
Y5919D3*
D76*
X20315Y16654D3*
Y15748D3*
Y14843D3*
D74*
X22598Y15748D3*
D81*
X52062Y5875D3*
Y6623D3*
X51157Y6249D3*
D72*
X47750Y10500D3*
X48250D3*
X48750D3*
X49250D3*
X49750D3*
X50250D3*
X50750D3*
Y12626D3*
X50250D3*
X49750D3*
X49250D3*
X48750D3*
X48250D3*
X47750D3*
D70*
X48875Y5875D3*
X49131D3*
X49387D3*
X49643D3*
Y7607D3*
X49387D3*
X49131D3*
X48875D3*
D68*
X13564Y10564D3*
X13761D3*
X13958D3*
X14154D3*
X14351D3*
X14548D3*
X14745D3*
X14942D3*
X15139D3*
X15336D3*
X15532D3*
X15729D3*
Y12060D3*
X15532D3*
X15336D3*
X15139D3*
X14942D3*
X14745D3*
X14548D3*
X14351D3*
X14154D3*
X13958D3*
X13761D3*
X13564D3*
D66*
X14647Y11312D3*
D112*
X13322Y13583D3*
Y14252D3*
D108*
X14134Y13583D3*
Y14331D3*
D110*
X12874Y8976D3*
X13543D3*
D112*
X16502Y8063D3*
Y7394D3*
D110*
X15667Y6729D3*
X16336D3*
D112*
X15627Y7376D3*
Y8045D3*
D104*
X19065Y4750D3*
X18316D3*
X9188Y4188D3*
X9936D3*
D112*
X16697Y14270D3*
Y13601D3*
X12634Y14270D3*
Y13601D3*
D108*
X8500Y11187D3*
Y10439D3*
X19500Y12062D3*
Y11314D3*
D112*
X14939Y8313D3*
Y8983D3*
X14314Y8313D3*
Y8983D3*
D110*
Y9626D3*
X14983D3*
D100*
X10187Y12250D3*
X8455D3*
D104*
X11417Y11024D3*
X12165D3*
X11417Y11850D3*
X12165D3*
X13228Y9724D3*
X12480D3*
X16063Y9764D3*
X16811D3*
D64*
X10375Y10812D3*
X9273D3*
X21437Y11688D3*
X20335D3*
D110*
X21688Y13625D3*
X21018D3*
M02*
