G04 DipTrace 2.4.0.2*
%INBottomMask.gbr*%
%MOIN*%
%ADD62C,0.075*%
%ADD64R,0.075X0.075*%
%FSLAX44Y44*%
G04*
G70*
G90*
G75*
G01*
%LNBotMask*%
%LPD*%
D64*
X41940Y17940D3*
D62*
X40940D3*
X41940Y16940D3*
X40940D3*
X41940Y15940D3*
X40940D3*
X41940Y14940D3*
X40940D3*
X41940Y13940D3*
X40940D3*
X41940Y12940D3*
X40940D3*
X41940Y11940D3*
X40940D3*
X41940Y10940D3*
X40940D3*
X41940Y9940D3*
X40940D3*
X41940Y8940D3*
X40940D3*
X41940Y7940D3*
X40940D3*
X41940Y6940D3*
X40940D3*
D64*
X22940Y5940D3*
D62*
X23940D3*
X24940D3*
X25940D3*
X26940D3*
X27940D3*
X28940D3*
X29940D3*
X30940D3*
X31940D3*
D64*
X43940Y6940D3*
D62*
X42940D3*
X43940Y7940D3*
X42940D3*
X43940Y8940D3*
X42940D3*
X43940Y9940D3*
X42940D3*
X43940Y10940D3*
X42940D3*
D64*
X43940Y12940D3*
D62*
X42940D3*
X43940Y13940D3*
X42940D3*
X43940Y14940D3*
X42940D3*
X43940Y15940D3*
X42940D3*
X43940Y16940D3*
X42940D3*
D64*
X11621Y18314D3*
D62*
X12621D3*
X13621D3*
D64*
X22489Y13040D3*
D62*
Y14040D3*
Y15040D3*
D64*
X31224Y13036D3*
D62*
Y14036D3*
Y15036D3*
D64*
X38440Y16940D3*
D62*
Y17940D3*
D64*
X33440Y15940D3*
D62*
Y16940D3*
Y17940D3*
D64*
X33318Y8941D3*
D62*
Y9941D3*
Y10941D3*
Y11941D3*
D64*
X39940Y6940D3*
D62*
Y7940D3*
Y8940D3*
Y9940D3*
Y10940D3*
Y11940D3*
Y12940D3*
Y13940D3*
D64*
X34940Y6940D3*
D62*
Y7940D3*
Y8940D3*
Y9940D3*
Y10940D3*
Y11940D3*
Y12940D3*
Y13940D3*
D64*
X16940Y4940D3*
D62*
X17940D3*
X18940D3*
X19940D3*
X20940D3*
X21940D3*
X22940D3*
X23940D3*
X24940D3*
X25940D3*
X26940D3*
X27940D3*
X28940D3*
X29940D3*
X30940D3*
M02*
