G04 DipTrace 2.4.0.2*
%INBottom.gbr*%
%MOIN*%
%ADD13C,0.013*%
%ADD14C,0.03*%
%ADD17C,0.04*%
%ADD26R,0.0669X0.0669*%
%ADD27C,0.0669*%
%FSLAX44Y44*%
G04*
G70*
G90*
G75*
G01*
%LNBottom*%
%LPD*%
X12941Y12566D2*
D13*
Y9816D1*
X12754Y9628D1*
X32444Y16066D2*
X30756D1*
Y7756D1*
X29940Y6940D1*
D14*
X27131D1*
X8816Y8190D2*
D13*
X9004D1*
Y6190D1*
X29940Y7940D2*
X30002D1*
X30440Y8378D1*
Y13440D1*
X29940Y13940D1*
X29444D1*
X28943Y14441D1*
Y14879D1*
Y16937D1*
X28940Y16940D1*
X26192Y14879D2*
X28943D1*
X8629Y16941D2*
X9941D1*
Y17065D1*
Y17939D1*
X9940Y17940D1*
X11315Y17065D2*
X9941D1*
X7950Y9307D2*
X8920D1*
X9941Y10328D1*
X10804Y11191D1*
X12191D1*
X9941Y16941D2*
Y15940D1*
Y15754D1*
Y10328D1*
X17504Y14878D2*
Y15629D1*
X17379Y15754D1*
X16440D1*
X9941D1*
X10566Y9691D2*
X11566D1*
X11941Y10066D1*
Y10941D1*
X12191Y11191D1*
X14940Y4940D2*
Y5504D1*
X14692Y5753D1*
X12691D1*
Y6690D1*
X38940Y10940D2*
X38945D1*
X39444Y10441D1*
Y6440D1*
X39382Y6378D1*
X37006D1*
X36944Y6440D1*
Y6936D1*
X36940Y6940D1*
X35940D2*
Y6444D1*
X36006Y6378D1*
X37006D1*
X12691Y6690D2*
X9941D1*
Y10328D1*
X15940Y4940D2*
Y5938D1*
X16442Y6440D1*
Y8942D1*
X16940Y9440D1*
X21505Y10253D2*
X20380D1*
X9940Y15940D2*
X9941D1*
X16440D2*
Y15754D1*
X24630Y14566D2*
Y18066D1*
X24255Y18442D1*
X6753D1*
Y17316D1*
X18755Y15879D2*
Y17004D1*
X18567Y17191D1*
X13066D1*
X21003Y11441D2*
X22440Y11443D1*
X25940Y4940D2*
X26068D1*
X24943Y6065D1*
Y7815D1*
X35940Y7940D2*
X36440Y7440D1*
X37440D1*
X37940Y6940D1*
X27380Y11816D2*
Y10753D1*
X26568Y6253D2*
Y7565D1*
X26630Y7628D1*
X27380D1*
Y8941D1*
X18130Y16816D2*
Y14588D1*
X18442D1*
Y13879D1*
X25130Y16879D2*
Y13754D1*
X35940Y15940D2*
X36440Y16440D1*
X38440D1*
X38940Y15940D1*
X35940Y14940D2*
X36440Y15440D1*
X38440D1*
X38940Y14940D1*
X36940Y12940D2*
X37440Y13440D1*
X38440D1*
X38940Y13940D1*
X36940Y11940D2*
X37378Y12378D1*
X38378D1*
X38940Y12940D1*
X36940Y9940D2*
X37440Y9440D1*
X38440D1*
Y8627D1*
X38940Y8127D1*
Y7940D1*
X35940Y8940D2*
X36440Y8440D1*
X38253D1*
X38440Y8253D1*
Y7440D1*
X38940Y6940D1*
X36940Y17940D2*
X36377Y18503D1*
X29503D1*
X28940Y17940D1*
D17*
X12941Y12566D3*
X12754Y9628D3*
X32444Y16066D3*
X27131Y6940D3*
X8816Y8190D3*
X9004Y6190D3*
X8629Y16941D3*
X11315Y17065D3*
X7950Y9307D3*
X12191Y11191D3*
X10566Y9691D3*
X12691Y6690D3*
X16940Y9440D3*
X21505Y10253D3*
X20380D3*
X24630Y14566D3*
X6753Y17316D3*
X18755Y15879D3*
X13066Y17191D3*
X21003Y11441D3*
X22440Y11443D3*
X24943Y7815D3*
X27380Y11816D3*
Y10753D3*
X26568Y6253D3*
X27380Y8941D3*
Y10753D3*
X18130Y16816D3*
X18442Y13879D3*
X25130Y16879D3*
Y13754D3*
X9940Y15940D3*
Y15440D3*
Y14940D3*
Y14440D3*
Y13940D3*
Y13440D3*
Y12940D3*
Y12440D3*
Y11940D3*
Y11440D3*
Y10940D3*
Y10440D3*
Y9940D3*
Y9440D3*
Y8940D3*
X16440Y15940D3*
Y15440D3*
Y14940D3*
Y14440D3*
Y13940D3*
Y13440D3*
Y12940D3*
Y12440D3*
Y11940D3*
Y11440D3*
Y10940D3*
Y10440D3*
Y9940D3*
Y9440D3*
Y8940D3*
X32256Y14504D3*
Y14004D3*
Y13504D3*
Y13004D3*
X32819Y14504D3*
Y14004D3*
Y13504D3*
Y13004D3*
X32256Y12503D3*
X32819D3*
X31381Y13754D3*
Y13254D3*
X4620Y17991D2*
D14*
X6297D1*
X7210D2*
X8212D1*
X11664D2*
X24071D1*
X25086D2*
X28217D1*
X29663D2*
X30616D1*
X37668D2*
X39261D1*
X4620Y17693D2*
X6297D1*
X7210D2*
X8212D1*
X11623D2*
X12781D1*
X13349D2*
X24173D1*
X25086D2*
X28258D1*
X29622D2*
X30616D1*
X37668D2*
X39261D1*
X4620Y17394D2*
X6166D1*
X7341D2*
X8212D1*
X11401D2*
X12514D1*
X18996D2*
X24173D1*
X25386D2*
X28213D1*
X29667D2*
X30616D1*
X4620Y17095D2*
X6207D1*
X7300D2*
X12481D1*
X19201D2*
X24173D1*
X25677D2*
X28213D1*
X29667D2*
X30616D1*
X4620Y16797D2*
X6510D1*
X6997D2*
X12637D1*
X19209D2*
X24173D1*
X25718D2*
X28213D1*
X29667D2*
X30616D1*
X4620Y16498D2*
X17636D1*
X19209D2*
X24173D1*
X25587D2*
X28213D1*
X29667D2*
X30616D1*
X4620Y16199D2*
X17673D1*
X19246D2*
X24173D1*
X25587D2*
X30321D1*
X4620Y15900D2*
X17673D1*
X19345D2*
X24173D1*
X25587D2*
X30300D1*
X4620Y15602D2*
X17673D1*
X19275D2*
X24173D1*
X25587D2*
X30300D1*
X4620Y15303D2*
X16923D1*
X18586D2*
X24173D1*
X26776D2*
X30300D1*
X4620Y15004D2*
X16791D1*
X18586D2*
X24173D1*
X26907D2*
X30300D1*
X4620Y14706D2*
X16800D1*
X18881D2*
X24054D1*
X26899D2*
X30300D1*
X4620Y14407D2*
X16964D1*
X18898D2*
X24063D1*
X26735D2*
X29394D1*
X4620Y14108D2*
X16816D1*
X18984D2*
X24276D1*
X26878D2*
X29234D1*
X4620Y13810D2*
X16783D1*
X19029D2*
X24542D1*
X26915D2*
X29226D1*
X4620Y13511D2*
X16779D1*
X18898D2*
X24592D1*
X26919D2*
X29361D1*
X4620Y13212D2*
X16779D1*
X18229D2*
X24948D1*
X25312D2*
X25465D1*
X26919D2*
X29271D1*
X4620Y12914D2*
X12469D1*
X13415D2*
X16779D1*
X18229D2*
X25465D1*
X26919D2*
X29213D1*
X4620Y12615D2*
X12350D1*
X13530D2*
X16779D1*
X18229D2*
X25465D1*
X26919D2*
X28114D1*
X28523D2*
X29295D1*
X4620Y12316D2*
X12407D1*
X13476D2*
X16779D1*
X18229D2*
X25465D1*
X26919D2*
X27093D1*
X28933D2*
X29324D1*
X4620Y12018D2*
X12485D1*
X13398D2*
X26827D1*
X29040D2*
X29220D1*
X38636D2*
X39261D1*
X4620Y11719D2*
X12485D1*
X13398D2*
X20482D1*
X22958D2*
X26798D1*
X29007D2*
X29250D1*
X37631D2*
X39261D1*
X4620Y11420D2*
X12485D1*
X13398D2*
X20413D1*
X23032D2*
X26925D1*
X28855D2*
X29406D1*
X4620Y11121D2*
X12485D1*
X13398D2*
X20511D1*
X22929D2*
X26925D1*
X29019D2*
X29238D1*
X4620Y10823D2*
X12485D1*
X13398D2*
X26794D1*
X29036D2*
X29220D1*
X4620Y10524D2*
X12485D1*
X13398D2*
X26839D1*
X28908D2*
X29353D1*
X4620Y10225D2*
X12485D1*
X13398D2*
X27159D1*
X28982D2*
X29275D1*
X4620Y9927D2*
X12247D1*
X13398D2*
X27594D1*
X29044D2*
X29213D1*
X4620Y9628D2*
X12161D1*
X13353D2*
X27594D1*
X29044D2*
X29287D1*
X4620Y9329D2*
X12247D1*
X13259D2*
X26946D1*
X29044D2*
X29332D1*
X4620Y9031D2*
X26798D1*
X29044D2*
X29220D1*
X4620Y8732D2*
X8634D1*
X8994D2*
X26831D1*
X29044D2*
X29246D1*
X4620Y8433D2*
X8278D1*
X9383D2*
X26925D1*
X29044D2*
X29419D1*
X4620Y8135D2*
X8228D1*
X9461D2*
X24452D1*
X25435D2*
X26925D1*
X27838D2*
X29242D1*
X4620Y7836D2*
X8351D1*
X9461D2*
X24350D1*
X25533D2*
X26207D1*
X27838D2*
X29222D1*
X4620Y7537D2*
X8548D1*
X9461D2*
X24423D1*
X25459D2*
X26113D1*
X27826D2*
X29341D1*
X4620Y7239D2*
X8548D1*
X9461D2*
X24485D1*
X25398D2*
X26113D1*
X4620Y6940D2*
X8548D1*
X9461D2*
X24485D1*
X25398D2*
X26113D1*
X4620Y6641D2*
X8548D1*
X9461D2*
X24485D1*
X25398D2*
X26113D1*
X4620Y6342D2*
X8433D1*
X9576D2*
X24485D1*
X25398D2*
X25982D1*
X27153D2*
X29554D1*
X30327D2*
X30628D1*
X36327D2*
X36550D1*
X37328D2*
X37551D1*
X4620Y6044D2*
X8429D1*
X9576D2*
X24485D1*
X25599D2*
X26015D1*
X27120D2*
X39261D1*
X4620Y5745D2*
X8630D1*
X9375D2*
X24628D1*
X25898D2*
X26298D1*
X26837D2*
X39261D1*
X4620Y5446D2*
X9213D1*
X26448D2*
X39261D1*
X4620Y5148D2*
X9213D1*
X26636D2*
X39261D1*
X4620Y4849D2*
X9213D1*
X26661D2*
X39261D1*
X37637Y18288D2*
Y17566D1*
X37808Y17624D1*
X37938Y17637D1*
X38068Y17625D1*
X38194Y17589D1*
X38311Y17529D1*
X38440Y17422D1*
X38501Y17481D1*
X38610Y17554D1*
X38731Y17605D1*
X38859Y17632D1*
X38990Y17635D1*
X39120Y17613D1*
X39243Y17568D1*
X39290Y17543D1*
Y18289D1*
X37640Y18290D1*
X37624Y11810D2*
X37588Y11684D1*
X37528Y11567D1*
X37420Y11439D1*
X37462Y11447D1*
X37565Y11527D1*
X37682Y11587D1*
X37808Y11624D1*
X37938Y11637D1*
X38068Y11625D1*
X38194Y11589D1*
X38311Y11529D1*
X38440Y11422D1*
X38501Y11481D1*
X38610Y11554D1*
X38731Y11605D1*
X38859Y11632D1*
X38990Y11635D1*
X39120Y11613D1*
X39243Y11568D1*
X39290Y11543D1*
Y12244D1*
X38845Y12243D1*
X38679Y12076D1*
X38574Y11998D1*
X38446Y11957D1*
X38246Y11951D1*
X37635D1*
X37624Y11810D1*
X37439Y6455D2*
X37328Y6362D1*
X37213Y6299D1*
X37088Y6259D1*
X36958Y6244D1*
X36827Y6253D1*
X36701Y6286D1*
X36582Y6342D1*
X36477Y6420D1*
X36439Y6455D1*
X36350Y6377D1*
X36237Y6310D1*
X36114Y6265D1*
X35984Y6245D1*
X35853Y6249D1*
X35761Y6267D1*
X35742Y6235D1*
X35649Y6142D1*
X35530Y6089D1*
X35313Y6078D1*
X31006D1*
X30877Y6102D1*
X30766Y6169D1*
X30685Y6272D1*
X30647Y6401D1*
X30644Y7043D1*
X30624Y6810D1*
X30588Y6684D1*
X30528Y6567D1*
X30448Y6463D1*
X30350Y6377D1*
X30237Y6310D1*
X30114Y6265D1*
X29984Y6245D1*
X29853Y6249D1*
X29725Y6277D1*
X29605Y6329D1*
X29471Y6429D1*
X27360Y6428D1*
X27226Y6386D1*
X27115Y6380D1*
X27130Y6253D1*
X27115Y6123D1*
X27070Y6000D1*
X26998Y5890D1*
X26902Y5801D1*
X26788Y5736D1*
X26663Y5699D1*
X26532Y5692D1*
X26403Y5715D1*
X26283Y5768D1*
X26179Y5847D1*
X26096Y5948D1*
X26038Y6066D1*
X26009Y6193D1*
X26010Y6324D1*
X26042Y6451D1*
X26102Y6568D1*
X26142Y6614D1*
X26141Y7565D1*
X26161Y7695D1*
X26236Y7834D1*
X26373Y7968D1*
X26475Y8026D1*
X26601Y8054D1*
X26954Y8055D1*
Y8575D1*
X26908Y8636D1*
X26851Y8753D1*
X26822Y8881D1*
X26823Y9012D1*
X26855Y9139D1*
X26915Y9255D1*
X27000Y9355D1*
X27107Y9431D1*
X27228Y9481D1*
X27357Y9502D1*
X27487Y9492D1*
X27623Y9446D1*
X27621Y9637D1*
X27691D1*
X27656Y9724D1*
X27627Y9852D1*
X27623Y9983D1*
X27643Y10112D1*
X27687Y10236D1*
X27735Y10317D1*
X27601Y10236D1*
X27475Y10199D1*
X27345Y10192D1*
X27216Y10216D1*
X27096Y10269D1*
X26992Y10348D1*
X26908Y10449D1*
X26851Y10566D1*
X26822Y10694D1*
X26823Y10825D1*
X26855Y10952D1*
X26915Y11068D1*
X26955Y11115D1*
X26954Y11454D1*
X26908Y11511D1*
X26851Y11629D1*
X26822Y11756D1*
X26823Y11887D1*
X26855Y12014D1*
X26915Y12131D1*
X27000Y12230D1*
X27107Y12307D1*
X27228Y12357D1*
X27357Y12377D1*
X27487Y12368D1*
X27612Y12328D1*
X27707Y12271D1*
X27754Y12349D1*
X27840Y12447D1*
X27943Y12528D1*
X28060Y12588D1*
X28186Y12624D1*
X28316Y12637D1*
X28447Y12625D1*
X28573Y12589D1*
X28689Y12530D1*
X28793Y12450D1*
X28880Y12352D1*
X28947Y12239D1*
X28992Y12116D1*
X29015Y11941D1*
X29002Y11810D1*
X28966Y11684D1*
X28906Y11567D1*
X28799Y11439D1*
X28880Y11352D1*
X28947Y11239D1*
X28992Y11116D1*
X29015Y10941D1*
X29002Y10810D1*
X28966Y10684D1*
X28906Y10567D1*
X28799Y10439D1*
X28880Y10352D1*
X28947Y10239D1*
X28992Y10116D1*
X29015Y9941D1*
X29002Y9810D1*
X28966Y9684D1*
X28942Y9637D1*
X29015D1*
Y8244D1*
X27805D1*
X27807Y7628D1*
X27790Y7509D1*
X27787Y7452D1*
X29439Y7456D1*
X29357Y7558D1*
X29296Y7674D1*
X29258Y7800D1*
X29243Y7930D1*
X29254Y8061D1*
X29289Y8187D1*
X29346Y8305D1*
X29425Y8409D1*
X29455Y8440D1*
X29404Y8495D1*
X29330Y8603D1*
X29278Y8724D1*
X29249Y8851D1*
X29245Y8982D1*
X29265Y9112D1*
X29309Y9235D1*
X29375Y9348D1*
X29454Y9437D1*
X29330Y9603D1*
X29278Y9724D1*
X29249Y9851D1*
X29245Y9982D1*
X29265Y10112D1*
X29309Y10235D1*
X29375Y10348D1*
X29454Y10437D1*
X29330Y10603D1*
X29278Y10724D1*
X29249Y10851D1*
X29245Y10982D1*
X29265Y11112D1*
X29309Y11235D1*
X29375Y11348D1*
X29454Y11437D1*
X29330Y11603D1*
X29278Y11724D1*
X29249Y11851D1*
X29245Y11982D1*
X29265Y12112D1*
X29309Y12235D1*
X29375Y12348D1*
X29454Y12437D1*
X29330Y12603D1*
X29278Y12724D1*
X29249Y12851D1*
X29245Y12982D1*
X29265Y13112D1*
X29309Y13235D1*
X29375Y13348D1*
X29454Y13437D1*
X29357Y13558D1*
X29296Y13674D1*
X29258Y13800D1*
X29243Y13930D1*
X29254Y14061D1*
X29289Y14187D1*
X29346Y14305D1*
X29425Y14409D1*
X29522Y14497D1*
X29634Y14566D1*
X29756Y14612D1*
X29886Y14635D1*
X30017Y14632D1*
X30145Y14606D1*
X30266Y14556D1*
X30329Y14518D1*
Y16066D1*
X30349Y16195D1*
X30407Y16313D1*
X30498Y16407D1*
X30603Y16464D1*
X30644Y16545D1*
X30645Y18070D1*
X30341Y18076D1*
X29680D1*
X29635Y17986D1*
X29624Y17810D1*
X29588Y17684D1*
X29564Y17636D1*
X29637Y17637D1*
Y16243D1*
X28243D1*
Y17637D1*
X28313D1*
X28278Y17724D1*
X28249Y17851D1*
X28245Y17982D1*
X28265Y18112D1*
X28309Y18235D1*
X28340Y18288D1*
X24992Y18290D1*
X25051Y18139D1*
X25057Y17935D1*
Y17439D1*
X25237Y17431D1*
X25362Y17391D1*
X25474Y17323D1*
X25568Y17232D1*
X25637Y17121D1*
X25680Y16997D1*
X25692Y16879D1*
X25677Y16749D1*
X25632Y16626D1*
X25557Y16514D1*
X25561Y15174D1*
X25628Y15287D1*
X25714Y15385D1*
X25817Y15466D1*
X25934Y15526D1*
X26060Y15562D1*
X26190Y15575D1*
X26321Y15563D1*
X26447Y15527D1*
X26564Y15468D1*
X26667Y15388D1*
X26754Y15290D1*
X26822Y15177D1*
X26866Y15054D1*
X26887Y14925D1*
X26884Y14800D1*
X26857Y14672D1*
X26807Y14551D1*
X26735Y14441D1*
X26677Y14378D1*
X26754Y14290D1*
X26822Y14177D1*
X26866Y14054D1*
X26889Y13879D1*
X26877Y13748D1*
X26840Y13622D1*
X26816Y13575D1*
X26889D1*
Y12182D1*
X25496D1*
Y13326D1*
X25351Y13237D1*
X25225Y13200D1*
X25094Y13193D1*
X24966Y13216D1*
X24846Y13269D1*
X24741Y13348D1*
X24658Y13449D1*
X24600Y13566D1*
X24571Y13694D1*
X24573Y13825D1*
X24604Y13952D1*
X24633Y14007D1*
X24466Y14029D1*
X24346Y14081D1*
X24241Y14160D1*
X24158Y14261D1*
X24100Y14379D1*
X24071Y14507D1*
X24073Y14638D1*
X24104Y14765D1*
X24165Y14881D1*
X24205Y14927D1*
X24203Y17892D1*
X24076Y18017D1*
X21499Y18015D1*
X11636D1*
X11624Y17810D1*
X11588Y17684D1*
X11528Y17567D1*
X11448Y17463D1*
X11350Y17377D1*
X11237Y17310D1*
X11114Y17265D1*
X10984Y17245D1*
X10853Y17249D1*
X10725Y17277D1*
X10605Y17329D1*
X10497Y17403D1*
X10442Y17458D1*
X10350Y17377D1*
X10237Y17310D1*
X10114Y17265D1*
X9984Y17245D1*
X9853Y17249D1*
X9725Y17277D1*
X9637Y17313D1*
Y17243D1*
X8243D1*
Y18018D1*
X7326Y18015D1*
X7182D1*
X7180Y17683D1*
X7260Y17559D1*
X7303Y17435D1*
X7315Y17316D1*
X7300Y17186D1*
X7255Y17063D1*
X7183Y16954D1*
X7087Y16865D1*
X6974Y16799D1*
X6848Y16762D1*
X6717Y16756D1*
X6589Y16779D1*
X6469Y16832D1*
X6364Y16911D1*
X6281Y17012D1*
X6223Y17129D1*
X6194Y17257D1*
X6196Y17388D1*
X6228Y17515D1*
X6288Y17631D1*
X6328Y17678D1*
X6326Y18288D1*
X4593Y18290D1*
X4590Y17128D1*
Y4591D1*
X9242Y4590D1*
X9243Y5637D1*
X10637D1*
Y5567D1*
X10808Y5624D1*
X10938Y5637D1*
X11068Y5625D1*
X11194Y5589D1*
X11311Y5529D1*
X11440Y5422D1*
X11565Y5527D1*
X11682Y5587D1*
X11808Y5624D1*
X11938Y5637D1*
X12068Y5625D1*
X12194Y5589D1*
X12311Y5529D1*
X12440Y5422D1*
X12565Y5527D1*
X12682Y5587D1*
X12808Y5624D1*
X12938Y5637D1*
X13068Y5625D1*
X13194Y5589D1*
X13311Y5529D1*
X13440Y5422D1*
X13565Y5527D1*
X13682Y5587D1*
X13808Y5624D1*
X13938Y5637D1*
X14068Y5625D1*
X14194Y5589D1*
X14311Y5529D1*
X14440Y5422D1*
X14501Y5481D1*
X14610Y5554D1*
X14731Y5605D1*
X14859Y5632D1*
X14990Y5635D1*
X15120Y5613D1*
X15243Y5568D1*
X15355Y5500D1*
X15440Y5425D1*
X15543Y5513D1*
X15658Y5577D1*
X15782Y5618D1*
X15912Y5636D1*
X16043Y5629D1*
X16170Y5598D1*
X16289Y5543D1*
X16396Y5467D1*
X16440Y5425D1*
X16565Y5527D1*
X16682Y5587D1*
X16808Y5624D1*
X16938Y5637D1*
X17068Y5625D1*
X17194Y5589D1*
X17311Y5529D1*
X17440Y5422D1*
X17565Y5527D1*
X17682Y5587D1*
X17808Y5624D1*
X17938Y5637D1*
X18068Y5625D1*
X18194Y5589D1*
X18311Y5529D1*
X18440Y5422D1*
X18565Y5527D1*
X18682Y5587D1*
X18808Y5624D1*
X18938Y5637D1*
X19068Y5625D1*
X19194Y5589D1*
X19311Y5529D1*
X19440Y5422D1*
X19565Y5527D1*
X19682Y5587D1*
X19808Y5624D1*
X19938Y5637D1*
X20068Y5625D1*
X20194Y5589D1*
X20311Y5529D1*
X20440Y5422D1*
X20565Y5527D1*
X20682Y5587D1*
X20808Y5624D1*
X20938Y5637D1*
X21068Y5625D1*
X21194Y5589D1*
X21311Y5529D1*
X21440Y5422D1*
X21565Y5527D1*
X21682Y5587D1*
X21808Y5624D1*
X21938Y5637D1*
X22068Y5625D1*
X22194Y5589D1*
X22311Y5529D1*
X22440Y5422D1*
X22565Y5527D1*
X22682Y5587D1*
X22808Y5624D1*
X22938Y5637D1*
X23068Y5625D1*
X23194Y5589D1*
X23311Y5529D1*
X23440Y5422D1*
X23565Y5527D1*
X23682Y5587D1*
X23808Y5624D1*
X23938Y5637D1*
X24068Y5625D1*
X24194Y5589D1*
X24311Y5529D1*
X24440Y5422D1*
X24565Y5527D1*
X24682Y5587D1*
X24788Y5618D1*
X24641Y5763D1*
X24564Y5869D1*
X24522Y5997D1*
X24516Y6196D1*
Y7447D1*
X24470Y7511D1*
X24413Y7628D1*
X24384Y7756D1*
X24385Y7887D1*
X24417Y8014D1*
X24477Y8130D1*
X24563Y8229D1*
X24669Y8306D1*
X24790Y8356D1*
X24919Y8377D1*
X25050Y8367D1*
X25174Y8327D1*
X25287Y8260D1*
X25380Y8168D1*
X25450Y8058D1*
X25492Y7934D1*
X25505Y7815D1*
X25489Y7685D1*
X25445Y7562D1*
X25369Y7450D1*
X25370Y6245D1*
X25978Y5633D1*
X26068Y5625D1*
X26194Y5589D1*
X26311Y5529D1*
X26415Y5449D1*
X26502Y5351D1*
X26569Y5239D1*
X26614Y5116D1*
X26637Y4940D1*
X26624Y4810D1*
X26588Y4684D1*
X26541Y4592D1*
X28456Y4590D1*
X39287D1*
X39290Y5752D1*
Y6240D1*
X38324Y6243D1*
X38243D1*
Y6313D1*
X38114Y6265D1*
X37984Y6245D1*
X37853Y6249D1*
X37725Y6277D1*
X37605Y6329D1*
X37497Y6403D1*
X37442Y6458D1*
X18201Y13374D2*
Y12182D1*
X16808D1*
Y13575D1*
X16878D1*
X16842Y13662D1*
X16813Y13790D1*
X16809Y13921D1*
X16829Y14050D1*
X16873Y14174D1*
X16940Y14287D1*
X17018Y14376D1*
X16922Y14497D1*
X16860Y14613D1*
X16822Y14738D1*
X16808Y14868D1*
X16818Y14999D1*
X16853Y15125D1*
X16911Y15243D1*
X16990Y15348D1*
X17087Y15436D1*
X17198Y15504D1*
X17321Y15550D1*
X17450Y15573D1*
X17581Y15571D1*
X17702Y15546D1*
X17703Y16454D1*
X17657Y16512D1*
X17600Y16629D1*
X17571Y16761D1*
X16861Y16764D1*
X13428D1*
X13287Y16674D1*
X13161Y16637D1*
X13031Y16631D1*
X12902Y16654D1*
X12782Y16707D1*
X12678Y16786D1*
X12594Y16887D1*
X12537Y17004D1*
X12508Y17132D1*
X12509Y17263D1*
X12541Y17390D1*
X12601Y17506D1*
X12686Y17605D1*
X12793Y17682D1*
X12914Y17732D1*
X13043Y17753D1*
X13173Y17743D1*
X13298Y17703D1*
X13431Y17616D1*
X14773Y17618D1*
X18567D1*
X18696Y17598D1*
X18816Y17537D1*
X18962Y17401D1*
X19056Y17306D1*
X19134Y17200D1*
X19175Y17072D1*
X19182Y16873D1*
Y16245D1*
X19262Y16121D1*
X19304Y15997D1*
X19317Y15879D1*
X19301Y15749D1*
X19256Y15626D1*
X19184Y15516D1*
X19089Y15427D1*
X18975Y15362D1*
X18850Y15325D1*
X18719Y15318D1*
X18590Y15341D1*
X18556Y15356D1*
X18557Y14999D1*
X18676Y14945D1*
X18773Y14858D1*
X18839Y14745D1*
X18869Y14588D1*
Y14248D1*
X18949Y14121D1*
X18991Y13997D1*
X19004Y13879D1*
X18989Y13748D1*
X18944Y13626D1*
X18872Y13516D1*
X18776Y13427D1*
X18663Y13362D1*
X18537Y13325D1*
X18406Y13318D1*
X18277Y13341D1*
X18199Y13376D1*
X13368Y12201D2*
Y9816D1*
X13347Y9683D1*
X13301Y9498D1*
X13256Y9375D1*
X13184Y9266D1*
X13088Y9176D1*
X12974Y9111D1*
X12849Y9074D1*
X12718Y9067D1*
X12589Y9091D1*
X12469Y9143D1*
X12365Y9222D1*
X12282Y9323D1*
X12224Y9441D1*
X12195Y9569D1*
X12197Y9700D1*
X12228Y9827D1*
X12288Y9943D1*
X12374Y10042D1*
X12480Y10119D1*
X12514Y10133D1*
X12515Y12198D1*
X12469Y12261D1*
X12412Y12379D1*
X12383Y12506D1*
X12384Y12637D1*
X12416Y12764D1*
X12476Y12881D1*
X12561Y12980D1*
X12668Y13057D1*
X12788Y13107D1*
X12918Y13127D1*
X13048Y13118D1*
X13173Y13078D1*
X13285Y13010D1*
X13379Y12919D1*
X13449Y12808D1*
X13491Y12684D1*
X13503Y12566D1*
X13488Y12436D1*
X13443Y12313D1*
X13368Y12201D1*
X9431Y8059D2*
Y6554D1*
X9511Y6432D1*
X9553Y6308D1*
X9566Y6190D1*
X9550Y6060D1*
X9505Y5937D1*
X9433Y5828D1*
X9338Y5738D1*
X9224Y5673D1*
X9098Y5636D1*
X8968Y5629D1*
X8839Y5653D1*
X8719Y5706D1*
X8615Y5785D1*
X8531Y5886D1*
X8474Y6003D1*
X8445Y6131D1*
X8446Y6262D1*
X8478Y6389D1*
X8538Y6505D1*
X8578Y6552D1*
X8577Y7679D1*
X8427Y7785D1*
X8344Y7886D1*
X8286Y8003D1*
X8257Y8131D1*
X8259Y8262D1*
X8290Y8389D1*
X8350Y8505D1*
X8436Y8604D1*
X8542Y8681D1*
X8663Y8731D1*
X8792Y8752D1*
X8923Y8742D1*
X9048Y8702D1*
X9160Y8635D1*
X9332Y8463D1*
X9397Y8357D1*
X9430Y8219D1*
X9431Y8059D1*
X21367Y11868D2*
X22072Y11870D1*
X22166Y11934D1*
X22287Y11984D1*
X22416Y12005D1*
X22547Y11995D1*
X22672Y11955D1*
X22784Y11888D1*
X22877Y11796D1*
X22947Y11685D1*
X22989Y11561D1*
X23002Y11443D1*
X22987Y11313D1*
X22942Y11190D1*
X22870Y11081D1*
X22774Y10991D1*
X22661Y10926D1*
X22535Y10889D1*
X22404Y10882D1*
X22275Y10906D1*
X22155Y10959D1*
X22080Y11015D1*
X21370Y11014D1*
X21223Y10924D1*
X21097Y10887D1*
X20967Y10880D1*
X20838Y10903D1*
X20718Y10956D1*
X20614Y11035D1*
X20530Y11136D1*
X20473Y11254D1*
X20444Y11381D1*
X20445Y11512D1*
X20477Y11639D1*
X20537Y11756D1*
X20622Y11855D1*
X20729Y11931D1*
X20850Y11982D1*
X20979Y12002D1*
X21109Y11993D1*
X21234Y11953D1*
X21361Y11871D1*
X27736Y10321D2*
X27601Y10236D1*
X27475Y10199D1*
X27345Y10192D1*
X27216Y10216D1*
X27096Y10269D1*
X26992Y10348D1*
X26908Y10449D1*
X26851Y10566D1*
X26822Y10694D1*
X26823Y10825D1*
X26855Y10952D1*
X26915Y11068D1*
X26955Y11115D1*
X36940Y6940D2*
D17*
Y6244D1*
X35940Y6940D2*
Y6244D1*
X38940Y11636D2*
Y10940D1*
Y17636D2*
Y16940D1*
X9940Y17940D2*
Y17244D1*
X17504Y15575D2*
Y14878D1*
X16808D2*
X17504D1*
X26192Y15575D2*
Y14879D1*
X26888D1*
X28940Y16940D2*
Y16244D1*
X28244Y16940D2*
X29636D1*
X14940Y5636D2*
Y4940D1*
X15940Y5636D2*
Y4940D1*
X29244Y7940D2*
X29940D1*
Y14636D2*
Y13940D1*
X29244D2*
X29940D1*
X31186Y17618D2*
D14*
X34212D1*
X31186Y17319D2*
X34212D1*
X31186Y17020D2*
X34212D1*
X31186Y16722D2*
X34212D1*
X32906Y16423D2*
X34212D1*
X33033Y16124D2*
X35237D1*
X32980Y15826D2*
X35225D1*
X31213Y15527D2*
X32256D1*
X32631D2*
X35266D1*
X31213Y15228D2*
X35266D1*
X31213Y14930D2*
X35213D1*
X31213Y14631D2*
X34823D1*
X35059D2*
X35266D1*
X31213Y14332D2*
X34335D1*
X31213Y14034D2*
X34220D1*
X31213Y13735D2*
X34245D1*
X31213Y13436D2*
X34421D1*
X31213Y13137D2*
X34241D1*
X31213Y12839D2*
X34220D1*
X31213Y12540D2*
X34339D1*
X31213Y12241D2*
X34282D1*
X31213Y11943D2*
X34212D1*
X31213Y11644D2*
X34278D1*
X31213Y11345D2*
X34343D1*
X31213Y11047D2*
X34220D1*
X31213Y10748D2*
X34241D1*
X31213Y10449D2*
X32186D1*
X34194D2*
X34417D1*
X31213Y10151D2*
X31997D1*
X31213Y9852D2*
X31969D1*
X31213Y9553D2*
X32079D1*
X31213Y9255D2*
X32038D1*
X31213Y8956D2*
X31965D1*
X31213Y8657D2*
X32022D1*
X31213Y8358D2*
X32104D1*
X31213Y8060D2*
X31973D1*
X31213Y7761D2*
X31985D1*
X31186Y7462D2*
X32153D1*
X31186Y7164D2*
X34212D1*
X31186Y6865D2*
X34212D1*
X35293Y15690D2*
X35249Y15851D1*
X35245Y15982D1*
X35265Y16112D1*
X35294Y16193D1*
X35243Y16243D1*
X34243D1*
Y17637D1*
X34313D1*
X34278Y17724D1*
X34249Y17851D1*
X34247Y17913D1*
X33344Y17916D1*
X31158D1*
X31156Y16496D1*
X32080Y16493D1*
X32170Y16557D1*
X32291Y16607D1*
X32420Y16628D1*
X32550Y16618D1*
X32675Y16578D1*
X32787Y16511D1*
X32881Y16419D1*
X32951Y16308D1*
X32993Y16184D1*
X33006Y16066D1*
X32990Y15936D1*
X32945Y15813D1*
X32873Y15704D1*
X32778Y15614D1*
X32664Y15549D1*
X32538Y15512D1*
X32408Y15505D1*
X32279Y15529D1*
X32159Y15582D1*
X32084Y15638D1*
X31184Y15639D1*
X31183Y7756D1*
X31156Y7568D1*
Y6588D1*
X33237Y6590D1*
X34242D1*
X34243Y7240D1*
X33074Y7243D1*
X32993D1*
Y7313D1*
X32864Y7265D1*
X32734Y7245D1*
X32603Y7249D1*
X32475Y7277D1*
X32355Y7329D1*
X32247Y7403D1*
X32154Y7495D1*
X32080Y7603D1*
X32028Y7724D1*
X31999Y7851D1*
X31995Y7982D1*
X32015Y8112D1*
X32059Y8235D1*
X32125Y8348D1*
X32204Y8437D1*
X32080Y8603D1*
X32028Y8724D1*
X31999Y8851D1*
X31995Y8982D1*
X32015Y9112D1*
X32059Y9235D1*
X32125Y9348D1*
X32204Y9437D1*
X32080Y9603D1*
X32028Y9724D1*
X31999Y9851D1*
X31995Y9982D1*
X32015Y10112D1*
X32059Y10235D1*
X32125Y10348D1*
X32212Y10447D1*
X32315Y10527D1*
X32432Y10587D1*
X32558Y10624D1*
X32688Y10637D1*
X32818Y10625D1*
X32944Y10589D1*
X33061Y10529D1*
X33190Y10422D1*
X33315Y10527D1*
X33432Y10587D1*
X33558Y10624D1*
X33688Y10637D1*
X33818Y10625D1*
X33944Y10589D1*
X34061Y10529D1*
X34165Y10449D1*
X34252Y10351D1*
X34313Y10249D1*
X34375Y10348D1*
X34454Y10437D1*
X34330Y10603D1*
X34278Y10724D1*
X34249Y10851D1*
X34245Y10982D1*
X34265Y11112D1*
X34309Y11235D1*
X34375Y11348D1*
X34454Y11437D1*
X34330Y11603D1*
X34278Y11724D1*
X34249Y11851D1*
X34245Y11982D1*
X34265Y12112D1*
X34309Y12235D1*
X34375Y12348D1*
X34454Y12437D1*
X34330Y12603D1*
X34278Y12724D1*
X34249Y12851D1*
X34245Y12982D1*
X34265Y13112D1*
X34309Y13235D1*
X34375Y13348D1*
X34454Y13437D1*
X34330Y13603D1*
X34278Y13724D1*
X34249Y13851D1*
X34245Y13982D1*
X34265Y14112D1*
X34309Y14235D1*
X34375Y14348D1*
X34462Y14447D1*
X34565Y14527D1*
X34682Y14587D1*
X34808Y14624D1*
X34938Y14637D1*
X35068Y14625D1*
X35194Y14589D1*
X35293Y14539D1*
X35294Y14679D1*
X35249Y14851D1*
X35245Y14982D1*
X35265Y15112D1*
X35294Y15193D1*
Y15680D1*
D26*
X36940Y17940D3*
D27*
X35940D3*
X36940Y16940D3*
X35940D3*
X36940Y15940D3*
X35940D3*
X36940Y14940D3*
X35940D3*
X36940Y13940D3*
X35940D3*
X36940Y12940D3*
X35940D3*
X36940Y11940D3*
X35940D3*
X36940Y10940D3*
X35940D3*
X36940Y9940D3*
X35940D3*
X36940Y8940D3*
X35940D3*
X36940Y7940D3*
X35940D3*
X36940Y6940D3*
X35940D3*
D26*
X33690Y7940D3*
D27*
X32690D3*
X33690Y8940D3*
X32690D3*
X33690Y9940D3*
X32690D3*
D26*
X38940Y6940D3*
D27*
X37940D3*
X38940Y7940D3*
X37940D3*
X38940Y8940D3*
X37940D3*
X38940Y9940D3*
X37940D3*
X38940Y10940D3*
X37940D3*
D26*
X38940Y12940D3*
D27*
X37940D3*
X38940Y13940D3*
X37940D3*
X38940Y14940D3*
X37940D3*
X38940Y15940D3*
X37940D3*
X38940Y16940D3*
X37940D3*
D26*
X8940Y17940D3*
D27*
X9940D3*
X10940D3*
D26*
X17504Y12878D3*
D27*
Y13878D3*
Y14878D3*
D26*
X26192Y12879D3*
D27*
Y13879D3*
Y14879D3*
D26*
X34940Y16940D3*
D27*
Y17940D3*
D26*
X28940Y16940D3*
D27*
Y17940D3*
D26*
X28318Y8941D3*
D27*
Y9941D3*
Y10941D3*
Y11941D3*
D26*
X9940Y4940D3*
D27*
X10940D3*
X11940D3*
X12940D3*
X13940D3*
X14940D3*
X15940D3*
X16940D3*
X17940D3*
X18940D3*
X19940D3*
X20940D3*
X21940D3*
X22940D3*
X23940D3*
X24940D3*
X25940D3*
D26*
X34940Y6940D3*
D27*
Y7940D3*
Y8940D3*
Y9940D3*
Y10940D3*
Y11940D3*
Y12940D3*
Y13940D3*
X29940Y6940D3*
Y7940D3*
Y8940D3*
Y9940D3*
Y10940D3*
Y11940D3*
Y12940D3*
Y13940D3*
M02*
