G04 DipTrace 2.4.0.2*
%INTop.gbr*%
%MOIN*%
%ADD13C,0.013*%
%ADD14C,0.03*%
%ADD15C,0.025*%
%ADD16C,0.06*%
%ADD17C,0.04*%
%ADD18R,0.0591X0.0512*%
%ADD19R,0.0394X0.0433*%
%ADD20R,0.063X0.1063*%
%ADD21R,0.0433X0.0394*%
%ADD22R,0.0512X0.0591*%
%ADD23R,0.1063X0.063*%
%ADD25R,0.0945X0.0945*%
%ADD26R,0.0669X0.0669*%
%ADD27C,0.0669*%
%ADD28R,0.1161X0.1378*%
%ADD29R,0.1378X0.1161*%
%ADD31R,0.0413X0.0256*%
%ADD32R,0.0256X0.0413*%
%ADD34R,0.0157X0.0551*%
%ADD35R,0.0866X0.0591*%
%ADD36R,0.0846X0.0374*%
%ADD37R,0.0846X0.128*%
%ADD38R,0.0236X0.0787*%
%FSLAX44Y44*%
G04*
G70*
G90*
G75*
G01*
%LNTop*%
%LPD*%
X33752Y15377D2*
D13*
Y14438D1*
X33690Y14376D1*
X28753Y6878D2*
D14*
X29878D1*
D13*
X29940Y6940D1*
X31190D2*
D14*
X29940D1*
X23443Y7834D2*
D13*
X22755D1*
X12328Y10316D2*
Y9116D1*
X12453Y8992D1*
X12629Y8816D1*
Y8565D1*
X12691Y8503D1*
X14504Y7253D2*
X13816D1*
X13567Y7503D1*
Y8315D1*
X13442Y8440D1*
X12754D1*
X12691Y8503D1*
X12584Y12048D2*
Y12566D1*
X12941D1*
X12754Y9628D2*
Y8992D1*
X12453D1*
X8078Y10173D2*
Y11116D1*
X7816Y11378D1*
X6003D1*
Y12628D1*
X5441Y10066D2*
Y10941D1*
X5878Y11378D1*
X6003D1*
X14504Y7253D2*
D14*
Y6627D1*
X14004Y6128D1*
X8941D1*
X5253D1*
X4628Y6753D1*
Y12566D1*
X4691Y12628D1*
X6003D1*
X33752Y15377D2*
D13*
Y15946D1*
X33694Y16004D1*
X32506D1*
X32444Y16066D1*
X27131Y6940D2*
D14*
X20255D1*
Y7002D1*
Y7253D1*
X16814D1*
X14504D1*
X22755Y7834D2*
D13*
Y7002D1*
X20255D1*
X8078Y8440D2*
Y7940D1*
X8691D1*
X8816Y8065D1*
Y8190D1*
X9004Y6190D2*
X8941Y6128D1*
X16814Y6658D2*
D14*
Y7253D1*
X17958Y6752D2*
D13*
X16909D1*
X16814Y6658D1*
X32127Y11002D2*
X32984D1*
X33002Y11021D1*
X31377Y15438D2*
X31877D1*
X32543D1*
Y15377D1*
X33003D1*
X28753Y7980D2*
D14*
X29900D1*
D13*
X29940Y7940D1*
D14*
X31088D1*
D13*
X31190Y8042D1*
X29940Y13940D2*
X28942D1*
X28940Y13938D1*
X32940Y6940D2*
X32128D1*
X32003Y7065D1*
Y8002D1*
X31230D1*
X31190Y8042D1*
X31877Y15438D2*
Y15940D1*
X30815D1*
X29940Y15065D1*
Y13940D1*
X31440Y17192D2*
X30519D1*
X30440Y17271D1*
X31377Y15438D2*
X31001D1*
X30752Y15190D1*
Y11440D1*
X31190Y11002D1*
X32127D1*
X38940Y16940D2*
X39440Y16440D1*
Y11440D1*
X38940Y10940D1*
X30440Y17271D2*
X29940D1*
Y18442D1*
X28506D1*
X28381Y18317D1*
Y17499D1*
X28940Y16940D1*
X25449Y10360D2*
Y9884D1*
X25380Y9816D1*
X24445D1*
X24443Y9814D1*
X22505Y10001D2*
X23380D1*
X24443D1*
Y9814D1*
X24067Y15314D2*
X22257D1*
X22192Y15379D1*
Y16004D1*
Y16005D1*
X19317Y14566D2*
X20192D1*
X20567Y14941D1*
X21942D1*
X22257Y15256D1*
Y15314D1*
X21192Y16005D2*
Y17504D1*
X22192D1*
Y16005D1*
X23817Y12129D2*
Y11691D1*
X26693D1*
Y13395D1*
X25693D1*
Y14879D1*
X26192D1*
X17504Y14878D2*
X18005D1*
Y13391D1*
X17004D1*
Y11628D1*
X20380D1*
X19817D1*
Y12129D1*
X19317Y14566D2*
Y14441D1*
X18942D1*
X18505Y14878D1*
X17504D1*
X24067Y15314D2*
X25070D1*
X25505Y14879D1*
X26192D1*
X12200Y11182D2*
D14*
X13888D1*
D13*
X14129Y10941D1*
X11816Y12048D2*
Y11566D1*
X12200Y11182D1*
X11379Y16191D2*
D14*
Y15004D1*
X12504Y13691D2*
D13*
X11897D1*
X11879Y13673D1*
X11085Y9191D2*
X10691D1*
X10566Y9066D1*
Y7565D1*
X10754Y7378D1*
X11691D1*
X11754Y7440D1*
Y7860D1*
X11736Y7878D1*
X12691Y7755D2*
X11859D1*
X11736Y7878D1*
X6191Y9690D2*
X6860D1*
X6878Y9709D1*
Y9253D1*
Y8797D1*
X6191Y8779D2*
X6860D1*
X6878Y8797D1*
Y9253D2*
X8003D1*
X7950Y9307D1*
X8334Y8440D2*
Y8923D1*
X7950Y9307D1*
X5441Y9318D2*
X5626D1*
X5691Y9253D1*
X6878D1*
X5441Y9318D2*
Y6878D1*
X6173D1*
X6191Y6860D1*
X8543Y16128D2*
D14*
Y14879D1*
X15940Y4940D2*
D13*
X14940D1*
X8543Y16128D2*
X8629D1*
Y16941D1*
X11379Y16191D2*
X11315D1*
Y17065D1*
X7950Y9307D2*
D3*
X12191Y11191D2*
X12200Y11182D1*
X11085Y9191D2*
X11066D1*
X10566Y9691D1*
X12691Y6690D2*
Y7755D1*
X16940Y9440D2*
X20380D1*
Y10253D1*
Y11628D1*
X22505Y10001D2*
X21757D1*
X21505Y10253D1*
X8334Y10173D2*
X8504Y10191D1*
D14*
Y12274D1*
X8149Y12628D1*
X5941Y14772D2*
Y13627D1*
X8191D1*
Y12670D1*
X8149Y12628D1*
X21692Y13879D2*
D13*
Y14504D1*
X24005D1*
X24067Y14566D1*
X8566Y7503D2*
Y6878D1*
X7441Y16128D2*
D14*
Y14879D1*
X5941Y16504D2*
X7065D1*
X7441Y16128D1*
Y17940D1*
X8940D1*
X24067Y14566D2*
D13*
X24630D1*
X6753Y17316D2*
X7378D1*
Y16191D1*
X7441Y16128D1*
Y14879D2*
Y14127D1*
X9127D1*
X9252Y14002D1*
Y7752D1*
X9004Y7503D1*
X8566D1*
X6860Y6860D2*
X7878D1*
X7897Y6878D1*
Y7503D2*
Y6878D1*
X7822Y8440D2*
Y7578D1*
X7897Y7503D1*
X7566Y8440D2*
Y8190D1*
X7503Y8128D1*
X6878D1*
Y7485D1*
X6191Y8110D2*
Y7503D1*
X6209Y7485D1*
X14504Y9399D2*
D14*
X14962D1*
X15567Y10003D1*
Y11378D1*
X15504Y11441D1*
X12584Y10316D2*
D13*
X12754D1*
D14*
Y10128D1*
X13618D1*
Y9503D1*
X14399D1*
X14504Y9399D1*
X7566Y10173D2*
D13*
X7084D1*
X6878Y10378D1*
X6191Y10360D2*
Y10628D1*
X6378Y10815D1*
X7566D1*
X7816Y10565D1*
Y10179D1*
X7822Y10173D1*
X15504Y12189D2*
D14*
Y12816D1*
X13986D1*
X14129Y12673D1*
X14504Y14191D2*
Y13048D1*
X14129Y12673D1*
X19317Y15314D2*
D13*
X21692D1*
Y16005D1*
X12481Y16191D2*
D14*
Y15004D1*
Y16191D2*
X14359D1*
D13*
X14504Y16336D1*
X11066Y11628D2*
Y11296D1*
Y10985D1*
X12481Y16191D2*
X12441Y16231D1*
D14*
Y17191D1*
Y17879D1*
X11001D1*
D13*
X10940Y17940D1*
X19317Y15314D2*
Y15316D1*
X18755Y15879D1*
X13066Y17191D2*
X12441D1*
X12481Y15004D2*
Y14356D1*
X12315Y14190D1*
X10628D1*
Y11296D1*
X11066D1*
X11816Y10316D2*
X11066D1*
Y12298D2*
X11210D1*
X11441Y12066D1*
Y10691D1*
X11066Y10316D1*
X12072D2*
Y9196D1*
X12066Y9191D1*
X11754D1*
X11736Y8503D2*
Y9172D1*
X11754Y9191D1*
X11066Y8503D2*
Y7878D1*
X12072Y12048D2*
Y12810D1*
X11879Y13003D1*
X12328Y12048D2*
Y12846D1*
X12504Y13022D1*
X25960Y8628D2*
Y8378D1*
X26380D1*
X26693Y8690D1*
X22755Y8503D2*
X23443D1*
Y9253D1*
X22505D1*
X23380D1*
X22505D2*
X21003D1*
Y11441D1*
Y12129D1*
X20380D1*
X26693Y8690D2*
Y8440D1*
X27756D1*
Y11378D1*
X22505D1*
X22440Y11443D1*
Y12129D1*
X23192D1*
X21065Y12127D2*
X20381D1*
X20380Y12129D1*
X23191Y12127D2*
X23192Y12129D1*
X31377Y11628D2*
X32127D1*
Y11672D1*
X32984D1*
X33002Y11690D1*
X33815D1*
Y12440D1*
X33690Y12565D1*
X31407Y13471D2*
Y12326D1*
X31377Y12297D1*
X31407Y13471D2*
Y14661D1*
X31377Y14690D1*
X33690Y13471D2*
X34158D1*
X34440Y13753D1*
Y15127D1*
X34940D1*
X31407Y13471D2*
X33690D1*
X34940Y17940D2*
X33440D1*
X33066Y17566D1*
X32346D1*
X31440Y17940D2*
X30940D1*
X30440D1*
X35940D2*
X35878D1*
X35378Y18440D1*
X30940D1*
Y17940D1*
X24943Y7815D2*
X25193Y8065D1*
Y8628D1*
X25449D2*
Y7878D1*
X27631D1*
X27756Y7753D1*
Y6003D1*
X37128D1*
X37940Y6815D1*
Y6940D1*
X36940Y8940D2*
X37940D1*
X36940D2*
X36440Y8440D1*
Y6315D1*
X36378Y6252D1*
X28003D1*
Y8128D1*
X25690D1*
Y8613D1*
X25705Y8628D1*
X26693Y10066D2*
Y9360D1*
X25705Y10360D2*
Y9378D1*
X26755D1*
X26774Y9360D1*
X26693D1*
X24443Y9065D2*
X24755D1*
X25005Y9316D1*
X25767D1*
X25705Y9378D1*
X13940Y4940D2*
Y4879D1*
X14442Y4378D1*
X16440D1*
Y5753D1*
X29940Y12940D2*
X29190D1*
X28940Y13190D1*
X32690Y7940D2*
Y8940D1*
Y9940D1*
X30815D1*
X30440Y10315D1*
Y12565D1*
X30065Y12940D1*
X29940D1*
X28940Y13190D2*
X28318D1*
Y14440D1*
X29440D1*
X29690Y14690D1*
Y15315D1*
X29815Y15440D1*
Y16377D1*
X30128Y16690D1*
X32378D1*
X28318Y13190D2*
X27380D1*
Y11816D1*
Y10753D2*
X26711D1*
X26693Y10735D1*
X10940Y4940D2*
Y4691D1*
X11254Y4378D1*
X14442D1*
X16440Y5753D2*
Y6190D1*
X18628D1*
X19565D1*
Y6253D1*
X26568D1*
X27380Y8941D2*
Y10753D1*
X18628Y6752D2*
Y6190D1*
X21192Y13879D2*
Y13441D1*
X21567Y13066D1*
Y10816D1*
X25068D1*
X25193Y10691D1*
Y10360D1*
X25960D2*
Y11066D1*
X21817D1*
Y13003D1*
X22192Y13378D1*
Y13878D1*
Y13879D1*
X34940Y15797D2*
Y16940D1*
X33047Y16690D2*
X34690D1*
X34940Y16940D1*
X20692Y13879D2*
Y12816D1*
X20398D1*
X20380Y12798D1*
X19817D2*
X20398Y12816D1*
X19817Y12798D2*
X19255D1*
X18648D1*
X18630Y12816D1*
X21065Y12797D2*
X20646D1*
X20398Y12816D1*
X19255Y12129D2*
X18648D1*
X18630Y12147D1*
X18252D1*
Y12878D1*
Y13441D1*
X20192D1*
Y13879D1*
X17504Y12878D2*
X18252D1*
X18692Y16816D2*
X18130D1*
X18442Y13879D2*
X20192D1*
X22692D2*
Y12813D1*
X22707Y12798D1*
X23192D1*
X23817D1*
X24380D1*
X24924D1*
X24942Y12816D1*
X22440Y12797D2*
X22707Y12798D1*
X24380Y12129D2*
X24924D1*
X24942Y12147D1*
X25440D1*
Y12850D1*
Y13378D1*
X23255D1*
X23193Y13441D1*
Y13878D1*
X23192Y13879D1*
X25440Y12850D2*
X26164D1*
X26192Y12879D1*
X24630Y16879D2*
X25130D1*
Y13754D2*
X23192D1*
Y13879D1*
X20692Y16005D2*
Y17504D1*
X20130D1*
X19398D1*
X19380Y17486D1*
X18692D1*
X20192Y16005D2*
Y16772D1*
X20130Y16835D1*
X19398D1*
X19380Y16816D1*
X17504Y13878D2*
X17004D1*
Y16254D1*
X20192D1*
Y16005D1*
X23943Y17566D2*
X23273D1*
X23255Y17548D1*
X22711D1*
X22692Y17566D1*
Y16005D1*
X24630Y17548D2*
X23961D1*
X23943Y17566D1*
X23192Y16005D2*
Y16816D1*
X23255Y16879D1*
X23924D1*
X23943Y16897D1*
X26192Y13879D2*
X26693D1*
Y16005D1*
X23192D1*
X16940Y4940D2*
D14*
X17188D1*
Y5753D1*
X28318Y8941D2*
D13*
X29940D1*
Y8940D1*
X28318Y9941D2*
X29940D1*
Y9940D1*
X28318Y10941D2*
X29940D1*
Y10940D1*
X28318Y11941D2*
X29940D1*
Y11940D1*
X34940Y7940D2*
X33690D1*
Y7021D1*
X33609Y6940D1*
X34940Y8940D2*
X33690D1*
X34940Y9940D2*
X33690D1*
X34940Y11940D2*
Y10940D1*
X36940Y15940D2*
X37940Y14940D1*
X36940D2*
X37940Y13940D1*
X36940D2*
X37940Y12940D1*
X36940Y10940D2*
X37940Y9940D1*
X34940Y13940D2*
X35940D1*
Y11940D2*
X36440Y11440D1*
X38440D1*
Y10440D1*
X38940Y9940D1*
Y8940D2*
X38440Y9440D1*
X36440D1*
Y10440D1*
X35940Y10940D1*
Y12940D2*
X34940D1*
X35940Y9940D2*
X35877D1*
X35440Y9503D1*
Y7440D1*
X34940Y6940D1*
X36940Y7940D2*
X37940D1*
X35940Y16940D2*
X36440Y17440D1*
X37440D1*
X37940Y16940D1*
X36940D2*
X37940Y15940D1*
D17*
X12941Y12566D3*
X12754Y9628D3*
X32444Y16066D3*
X27131Y6940D3*
X8816Y8190D3*
X9004Y6190D3*
X8629Y16941D3*
X11315Y17065D3*
X7950Y9307D3*
X12191Y11191D3*
X10566Y9691D3*
X12691Y6690D3*
X16940Y9440D3*
X21505Y10253D3*
X20380D3*
X24630Y14566D3*
X6753Y17316D3*
X18755Y15879D3*
X13066Y17191D3*
X21003Y11441D3*
X22440Y11443D3*
X24943Y7815D3*
X27380Y11816D3*
Y10753D3*
X26568Y6253D3*
X27380Y8941D3*
Y10753D3*
X18130Y16816D3*
X18442Y13879D3*
X25130Y16879D3*
Y13754D3*
X9940Y15940D3*
Y15440D3*
Y14940D3*
Y14440D3*
Y13940D3*
Y13440D3*
Y12940D3*
Y12440D3*
Y11940D3*
Y11440D3*
Y10940D3*
Y10440D3*
Y9940D3*
Y9440D3*
Y8940D3*
X16440Y15940D3*
Y15440D3*
Y14940D3*
Y14440D3*
Y13940D3*
Y13440D3*
Y12940D3*
Y12440D3*
Y11940D3*
Y11440D3*
Y10940D3*
Y10440D3*
Y9940D3*
Y9440D3*
Y8940D3*
X32256Y14504D3*
Y14004D3*
Y13504D3*
Y13004D3*
X32819Y14504D3*
Y14004D3*
Y13504D3*
Y13004D3*
X32256Y12503D3*
X32819D3*
X31381Y13754D3*
Y13254D3*
X32033Y14566D2*
D15*
X32905D1*
X32190Y14318D2*
X32905D1*
X32190Y14069D2*
X32905D1*
X32190Y13820D2*
X32905D1*
X32190Y13572D2*
X32905D1*
X32190Y13323D2*
X32905D1*
X32190Y13074D2*
X32905D1*
X32190Y12825D2*
X32905D1*
X32190Y12577D2*
X32905D1*
X31936Y12328D2*
X32905D1*
X32934Y14747D2*
X32413D1*
Y14814D1*
X32006Y14815D1*
X32008Y14446D1*
X32165Y14445D1*
Y12496D1*
X31909D1*
Y12252D1*
X32928D1*
X32932Y12793D1*
X32936Y13087D1*
X32932Y13199D1*
Y14749D1*
X31377Y14690D2*
D16*
X32007D1*
X31377Y12297D2*
X31909D1*
X32932Y13471D2*
X33690D1*
X31407D2*
X32164D1*
X12972Y17991D2*
D14*
X18104D1*
X20719D2*
X22623D1*
X25218D2*
X28217D1*
X29663D2*
X29853D1*
X37668D2*
X39261D1*
X13349Y17693D2*
X18104D1*
X21104D2*
X22254D1*
X25218D2*
X28258D1*
X29622D2*
X29853D1*
X37820D2*
X39261D1*
X7981Y17394D2*
X8212D1*
X13620D2*
X18104D1*
X21149D2*
X22238D1*
X25386D2*
X28213D1*
X29667D2*
X29853D1*
X7981Y17095D2*
X11899D1*
X15584D2*
X17612D1*
X21149D2*
X22238D1*
X25677D2*
X28213D1*
X29667D2*
X29853D1*
X9248Y16797D2*
X10673D1*
X15584D2*
X17538D1*
X21149D2*
X22238D1*
X25718D2*
X28213D1*
X9248Y16498D2*
X10673D1*
X15584D2*
X16623D1*
X25574D2*
X28213D1*
X9248Y16199D2*
X10673D1*
X15584D2*
X16549D1*
X27104D2*
X29357D1*
X30270D2*
X31768D1*
X9248Y15900D2*
X10673D1*
X15584D2*
X16549D1*
X27149D2*
X29357D1*
X30270D2*
X30690D1*
X9248Y15602D2*
X10673D1*
X13189D2*
X13424D1*
X15584D2*
X16549D1*
X17462D2*
X18235D1*
X27149D2*
X29345D1*
X30270D2*
X30690D1*
X9248Y15303D2*
X10673D1*
X13189D2*
X16549D1*
X18086D2*
X18629D1*
X24754D2*
X25609D1*
X27149D2*
X29234D1*
X30250D2*
X30690D1*
X32066D2*
X32355D1*
X9248Y15004D2*
X10673D1*
X13189D2*
X13424D1*
X15584D2*
X16549D1*
X18221D2*
X18629D1*
X22015D2*
X23382D1*
X25012D2*
X25477D1*
X27149D2*
X29234D1*
X30147D2*
X30678D1*
X9248Y14706D2*
X10673D1*
X13189D2*
X13424D1*
X15584D2*
X16549D1*
X18209D2*
X18629D1*
X20005D2*
X21286D1*
X25205D2*
X25486D1*
X27149D2*
X27954D1*
X30147D2*
X30673D1*
X9482Y14407D2*
X10230D1*
X13189D2*
X13424D1*
X15584D2*
X16549D1*
X18049D2*
X18223D1*
X25201D2*
X25650D1*
X27149D2*
X27860D1*
X9695Y14108D2*
X10172D1*
X13091D2*
X13424D1*
X15584D2*
X16549D1*
X27149D2*
X27860D1*
X9707Y13810D2*
X10172D1*
X13091D2*
X13424D1*
X15584D2*
X16554D1*
X27145D2*
X27860D1*
X9707Y13511D2*
X10172D1*
X11085D2*
X11292D1*
X13091D2*
X13424D1*
X15584D2*
X16759D1*
X9707Y13212D2*
X10172D1*
X11085D2*
X11292D1*
X13091D2*
X13264D1*
X15859D2*
X16779D1*
X9707Y12914D2*
X10172D1*
X11085D2*
X11292D1*
X16035D2*
X16779D1*
X9707Y12615D2*
X10172D1*
X16191D2*
X16779D1*
X9707Y12316D2*
X10172D1*
X16191D2*
X16779D1*
X9707Y12018D2*
X10172D1*
X13095D2*
X13264D1*
X16191D2*
X17817D1*
X25878D2*
X26827D1*
X37664D2*
X39261D1*
X9707Y11719D2*
X10172D1*
X13054D2*
X13264D1*
X16191D2*
X18042D1*
X38792D2*
X39261D1*
X9707Y11420D2*
X10172D1*
X13054D2*
X13264D1*
X16191D2*
X20413D1*
X34174D2*
X34405D1*
X9707Y11121D2*
X10209D1*
X13025D2*
X13264D1*
X16191D2*
X20511D1*
X33592D2*
X34237D1*
X9707Y10823D2*
X10476D1*
X13054D2*
X13264D1*
X16191D2*
X20544D1*
X30897D2*
X31539D1*
X33592D2*
X34225D1*
X9707Y10524D2*
X10476D1*
X16109D2*
X20544D1*
X30897D2*
X31539D1*
X34100D2*
X34352D1*
X9707Y10225D2*
X10476D1*
X16109D2*
X20544D1*
X21461D2*
X21905D1*
X9707Y9927D2*
X10476D1*
X16101D2*
X20544D1*
X9707Y9628D2*
X10476D1*
X15945D2*
X20544D1*
X9707Y9329D2*
X10476D1*
X15646D2*
X20544D1*
X30549D2*
X32084D1*
X9707Y9031D2*
X10459D1*
X15584D2*
X20609D1*
X30660D2*
X31969D1*
X9707Y8732D2*
X10459D1*
X15584D2*
X22168D1*
X30635D2*
X31994D1*
X5172Y8433D2*
X5604D1*
X9707D2*
X10459D1*
X14005D2*
X22168D1*
X5172Y8135D2*
X5604D1*
X9707D2*
X10459D1*
X15584D2*
X22168D1*
X5172Y7836D2*
X5600D1*
X9707D2*
X10459D1*
X15584D2*
X22168D1*
X5172Y7537D2*
X5600D1*
X9650D2*
X10459D1*
X20710D2*
X22168D1*
X5172Y7239D2*
X5583D1*
X9371D2*
X12005D1*
X32111D2*
X32330D1*
X5196Y6940D2*
X5583D1*
X9174D2*
X13424D1*
X32111D2*
X32330D1*
X9367Y6641D2*
X13424D1*
X15584D2*
X16271D1*
X15584Y6342D2*
X16012D1*
X14674Y6044D2*
X15922D1*
X14374Y5745D2*
X15922D1*
X9220Y15772D2*
Y14544D1*
X9374Y14476D1*
X9513Y14346D1*
X9625Y14211D1*
X9668Y14098D1*
X9650Y14159D1*
X9679Y14002D1*
Y7752D1*
X9659Y7623D1*
X9598Y7503D1*
X9462Y7357D1*
X9306Y7201D1*
X9196Y7123D1*
X9156Y7105D1*
X9144Y7043D1*
Y6736D1*
X9235Y6702D1*
X9337Y6641D1*
X13456Y6640D1*
X13453Y7012D1*
X13322Y7137D1*
X12034D1*
Y7320D1*
X10488Y7319D1*
X10492Y8437D1*
X10488Y8863D1*
Y9062D1*
X10508D1*
X10506Y9550D1*
X10507Y10884D1*
X10381Y10947D1*
X10287Y11038D1*
X10225Y11153D1*
X10201Y11296D1*
Y14190D1*
X10221Y14319D1*
X10279Y14436D1*
X10370Y14530D1*
X10485Y14592D1*
X10628Y14617D1*
X10705D1*
X10702Y14793D1*
Y17085D1*
X11930D1*
X11929Y17368D1*
X11338Y17367D1*
X11237Y17310D1*
X11114Y17265D1*
X10984Y17245D1*
X10853Y17249D1*
X10725Y17277D1*
X10605Y17329D1*
X10497Y17403D1*
X10442Y17458D1*
X10350Y17377D1*
X10237Y17310D1*
X10114Y17265D1*
X9984Y17245D1*
X9853Y17249D1*
X9725Y17277D1*
X9637Y17313D1*
Y17243D1*
X8243D1*
Y17428D1*
X7952D1*
X7953Y17025D1*
X8129Y17022D1*
X9220D1*
Y15773D1*
X5632Y8200D2*
X5633Y8700D1*
X5141D1*
X5140Y6968D1*
X5463Y6642D1*
X5612D1*
Y7419D1*
X5631D1*
X5635Y8044D1*
X5632Y8688D1*
Y8700D1*
X11320Y12872D2*
X11324Y13582D1*
X11320Y13672D1*
Y13763D1*
X11056D1*
X11054Y12874D1*
X11324Y12876D1*
X16161Y12058D2*
Y10823D1*
X16075D1*
X16079Y10003D1*
X16062Y9873D1*
X16013Y9752D1*
X15929Y9641D1*
X15555Y9267D1*
Y8456D1*
X13968D1*
X13993Y8344D1*
Y8197D1*
X15555Y8196D1*
Y7765D1*
X20255D1*
X20385Y7748D1*
X20506Y7699D1*
X20611Y7621D1*
X20685Y7529D1*
X20780Y7452D1*
X22195D1*
X22196Y8412D1*
Y8765D1*
X21936Y8763D1*
Y8825D1*
X21003Y8826D1*
X20873Y8846D1*
X20756Y8904D1*
X20662Y8995D1*
X20600Y9110D1*
X20576Y9253D1*
Y11078D1*
X20530Y11136D1*
X20473Y11254D1*
X20444Y11381D1*
X20445Y11512D1*
X20454Y11548D1*
X19821Y11550D1*
X18696D1*
Y11570D1*
X18071Y11568D1*
Y11761D1*
X18018Y11790D1*
X17921Y11877D1*
X17855Y11990D1*
X17826Y12147D1*
Y12184D1*
X16808Y12182D1*
Y13502D1*
X16770Y13521D1*
X16673Y13609D1*
X16607Y13722D1*
X16577Y13878D1*
Y16254D1*
X16597Y16383D1*
X16656Y16500D1*
X16746Y16594D1*
X16861Y16656D1*
X17004Y16681D1*
X17583D1*
X17571Y16757D1*
X17572Y16888D1*
X17604Y17015D1*
X17664Y17131D1*
X17749Y17230D1*
X17856Y17307D1*
X17977Y17357D1*
X18134Y17376D1*
X18137Y17395D1*
X18133Y17826D1*
Y18064D1*
X19251Y18060D1*
X19346Y18064D1*
X19571D1*
Y18082D1*
X20689D1*
X20692Y17931D1*
X20821Y17911D1*
X20939Y17853D1*
X21033Y17762D1*
X21095Y17647D1*
X21119Y17504D1*
Y16762D1*
X21172Y16756D1*
X21290Y16760D1*
X22266D1*
Y17566D1*
X22286Y17696D1*
X22344Y17813D1*
X22435Y17907D1*
X22550Y17969D1*
X22682Y17993D1*
X22696Y18019D1*
Y18127D1*
X23381D1*
X23384Y18145D1*
X24501D1*
Y18124D1*
X25189Y18127D1*
Y17437D1*
X25362Y17391D1*
X25474Y17323D1*
X25568Y17232D1*
X25637Y17121D1*
X25680Y16997D1*
X25692Y16879D1*
X25677Y16749D1*
X25632Y16626D1*
X25560Y16517D1*
X25467Y16430D1*
X26693Y16431D1*
X26822Y16411D1*
X26939Y16353D1*
X27033Y16262D1*
X27095Y16147D1*
X27120Y16005D1*
Y13879D1*
X27100Y13749D1*
X27042Y13632D1*
X26959Y13545D1*
X26889Y13444D1*
Y12182D1*
X25868D1*
X25847Y12018D1*
X25789Y11901D1*
X25706Y11813D1*
X25917Y11805D1*
X26815D1*
X26823Y11887D1*
X26855Y12014D1*
X26915Y12131D1*
X26955Y12177D1*
X26954Y13190D1*
X26974Y13319D1*
X27032Y13436D1*
X27123Y13530D1*
X27238Y13592D1*
X27380Y13617D1*
X27893D1*
X27891Y14440D1*
X27911Y14569D1*
X27969Y14686D1*
X28060Y14780D1*
X28175Y14842D1*
X28318Y14867D1*
X29265D1*
X29263Y15315D1*
X29283Y15444D1*
X29358Y15583D1*
X29391Y15620D1*
X29388Y16240D1*
X29243Y16243D1*
X28243D1*
Y17637D1*
X28313D1*
X28278Y17724D1*
X28249Y17851D1*
X28245Y17982D1*
X28265Y18112D1*
X28309Y18235D1*
X28340Y18288D1*
X23954Y18290D1*
X12746D1*
X12785Y18258D1*
X12870Y18159D1*
X12927Y18041D1*
X12953Y17879D1*
Y17744D1*
X13043Y17753D1*
X13173Y17743D1*
X13298Y17703D1*
X13410Y17636D1*
X13504Y17544D1*
X13574Y17434D1*
X13619Y17276D1*
X15555Y17279D1*
Y15394D1*
X13453D1*
Y15677D1*
X13157Y15679D1*
X13154Y15298D1*
X13158Y14847D1*
Y14110D1*
X13064D1*
X13063Y13112D1*
X13173Y13078D1*
X13294Y13002D1*
Y13507D1*
X13453Y13510D1*
Y15133D1*
X15555D1*
Y13325D1*
X15617Y13315D1*
X15740Y13270D1*
X15848Y13195D1*
X15933Y13096D1*
X15989Y12978D1*
X16016Y12804D1*
X16161Y12807D1*
X16157Y11571D1*
X14847Y11772D2*
Y11837D1*
X13294Y11838D1*
Y12130D1*
X13162Y12049D1*
X13024Y12011D1*
X13025Y11410D1*
X12996D1*
X12995Y10952D1*
X13025Y10953D1*
Y10752D1*
X13148Y10642D1*
X13291Y10640D1*
X13294Y10867D1*
Y11775D1*
X14847D1*
X32386Y15302D2*
Y15507D1*
X32279Y15529D1*
X32159Y15582D1*
X32036Y15683D1*
X32035Y15304D1*
X32390Y15302D1*
X30720Y15052D2*
X30724Y15308D1*
X30720Y15398D1*
Y16056D1*
X31882D1*
X31799Y16131D1*
Y16266D1*
X30934Y16263D1*
X30306D1*
X30241Y16200D1*
X30242Y15440D1*
X30222Y15311D1*
X30147Y15172D1*
X30114Y15135D1*
X30115Y14646D1*
X30120Y14613D1*
X30243Y14568D1*
X30355Y14500D1*
X30452Y14412D1*
X30532Y14308D1*
X30590Y14191D1*
X30621Y14085D1*
Y14472D1*
X30699D1*
X30703Y14883D1*
X30715Y15030D1*
X30720Y15161D1*
Y15319D1*
X32188Y10424D2*
X31569D1*
Y11050D1*
X30867Y11049D1*
Y10494D1*
X30994Y10365D1*
X32140Y10367D1*
X19974Y14888D2*
X19975Y14634D1*
X20672Y14630D1*
X21106Y14634D1*
X21172Y14630D1*
X21335Y14738D1*
X21438Y14846D1*
X21430Y14887D1*
X19974Y14882D1*
X19970Y14696D1*
X18660Y14397D2*
Y15324D1*
X18590Y15341D1*
X18470Y15394D1*
X18366Y15473D1*
X18282Y15574D1*
X18225Y15692D1*
X18196Y15823D1*
X17432Y15827D1*
X17431Y15569D1*
X17529Y15575D1*
X17659Y15558D1*
X17783Y15517D1*
X17898Y15453D1*
X17998Y15370D1*
X18082Y15268D1*
X18145Y15153D1*
X18185Y15029D1*
X18201Y14899D1*
X18193Y14774D1*
X18161Y14647D1*
X18106Y14528D1*
X18030Y14421D1*
X17989Y14378D1*
X18168Y14369D1*
X18289Y14419D1*
X18418Y14440D1*
X18549Y14430D1*
X18662Y14394D1*
X24724Y15184D2*
X24725Y15122D1*
X24862Y15078D1*
X24974Y15011D1*
X25068Y14919D1*
X25137Y14808D1*
X25180Y14684D1*
X25192Y14566D1*
X25177Y14436D1*
X25133Y14317D1*
X25237Y14305D1*
X25362Y14266D1*
X25474Y14198D1*
X25541Y14132D1*
X25628Y14287D1*
X25706Y14376D1*
X25609Y14497D1*
X25548Y14613D1*
X25510Y14738D1*
X25496Y14868D1*
X25506Y14999D1*
X25541Y15125D1*
X25599Y15243D1*
X25677Y15348D1*
X25774Y15436D1*
X25886Y15504D1*
X26009Y15551D1*
X26138Y15573D1*
X26266Y15571D1*
X25906Y15578D1*
X24720D1*
X24725Y15486D1*
Y15119D1*
X23410Y14928D2*
X23414Y15184D1*
X23410Y15249D1*
X22712Y15253D1*
X22462Y15249D1*
X22114D1*
X22103Y15199D1*
X22049Y15080D1*
X21947Y14972D1*
X21955Y14931D1*
X23410Y14932D1*
Y15195D1*
X23172Y15249D1*
X22212Y15253D1*
X22111Y15249D1*
X22099Y15185D1*
X22041Y15068D1*
X21950Y14974D1*
X32083Y7596D2*
Y6678D1*
X32362Y6679D1*
X32361Y7325D1*
X32247Y7403D1*
X32154Y7495D1*
X32083Y7591D1*
Y7365D1*
X30601Y8719D2*
X32028Y8724D1*
X31999Y8851D1*
X31995Y8982D1*
X32015Y9112D1*
X32059Y9235D1*
X32125Y9348D1*
X32204Y9437D1*
X32142Y9512D1*
X30815Y9513D1*
X30686Y9533D1*
X30566Y9594D1*
X30528Y9567D1*
X30420Y9439D1*
X30502Y9351D1*
X30569Y9239D1*
X30614Y9116D1*
X30637Y8940D1*
X30624Y8810D1*
X30598Y8719D1*
X37637Y18288D2*
Y17821D1*
X37742Y17742D1*
X37855Y17629D1*
X37938Y17637D1*
X38068Y17625D1*
X38194Y17589D1*
X38311Y17529D1*
X38440Y17422D1*
X38501Y17481D1*
X38610Y17554D1*
X38731Y17605D1*
X38859Y17632D1*
X38990Y17635D1*
X39120Y17613D1*
X39243Y17568D1*
X39290Y17543D1*
Y18289D1*
X37640Y18290D1*
X37423Y12440D2*
X37502Y12351D1*
X37569Y12239D1*
X37614Y12116D1*
X37637Y11940D1*
X37630Y11871D1*
X38440Y11867D1*
X38569Y11847D1*
X38686Y11789D1*
X38773Y11706D1*
X38833Y11628D1*
X38964Y11636D1*
X39094Y11619D1*
X39219Y11578D1*
X39290Y11543D1*
Y12244D1*
X38243Y12243D1*
Y12313D1*
X38114Y12265D1*
X37984Y12245D1*
X37853Y12249D1*
X37725Y12277D1*
X37605Y12329D1*
X37497Y12403D1*
X37442Y12458D1*
X33562Y10624D2*
X33688Y10637D1*
X33818Y10625D1*
X33944Y10589D1*
X34061Y10529D1*
X34165Y10449D1*
X34239Y10367D1*
X34391D1*
X34404Y10495D1*
X34330Y10603D1*
X34278Y10724D1*
X34249Y10851D1*
X34245Y10982D1*
X34265Y11112D1*
X34309Y11235D1*
X34375Y11348D1*
X34454Y11437D1*
X34330Y11603D1*
X34278Y11724D1*
X34249Y11864D1*
X34242Y11690D1*
X34222Y11561D1*
X34164Y11444D1*
X34073Y11350D1*
X33958Y11288D1*
X33815Y11263D1*
X33561Y11258D1*
Y10624D1*
X29566Y17637D2*
X29637D1*
Y16802D1*
X29862Y17023D1*
X29881Y17060D1*
Y18292D1*
X29544Y18290D1*
X29614Y18116D1*
X29637Y17940D1*
X29624Y17810D1*
X29588Y17684D1*
X29564Y17636D1*
X15555Y6740D2*
Y6310D1*
X14903D1*
X14773Y6173D1*
X14366Y5766D1*
X14263Y5686D1*
X14162Y5641D1*
X14194Y5589D1*
X14311Y5529D1*
X14440Y5422D1*
X14501Y5481D1*
X14610Y5554D1*
X14731Y5605D1*
X14859Y5632D1*
X14990Y5635D1*
X15120Y5613D1*
X15243Y5568D1*
X15355Y5500D1*
X15440Y5425D1*
X15543Y5513D1*
X15658Y5577D1*
X15782Y5618D1*
X15912Y5636D1*
X15950D1*
Y6321D1*
X16036D1*
X16083Y6424D1*
X16171Y6521D1*
X16301Y6593D1*
X16302Y6744D1*
X15764Y6741D1*
X15555D1*
X21936Y10117D2*
Y10390D1*
X21567Y10389D1*
X21448Y10406D1*
X21429Y10391D1*
Y10116D1*
X21937Y10117D1*
X5441Y9318D2*
D13*
Y8700D1*
X8543Y14879D2*
X9220D1*
X8543Y17021D2*
Y16128D1*
X9220D1*
X5633Y8779D2*
X6191D1*
X12691Y7755D2*
Y7138D1*
X11321Y13673D2*
X11879D1*
X10702Y15004D2*
X11379D1*
Y17084D2*
Y16191D1*
X10702D2*
X11379D1*
X11736Y7878D2*
Y7320D1*
X10507Y9191D2*
X11085D1*
X32386Y15377D2*
X33003D1*
X31377Y16055D2*
Y15438D1*
X30721D2*
X32034D1*
X32127Y11002D2*
Y10424D1*
X31569Y11002D2*
X32127D1*
X18660Y14566D2*
X19974D1*
X23410Y15314D2*
X24724D1*
X31190Y8719D2*
Y8042D1*
X14129Y11775D2*
Y10941D1*
X13295D2*
X14129D1*
X38940Y11636D2*
Y10940D1*
Y17636D2*
Y16940D1*
X9940Y17940D2*
Y17244D1*
X17504Y15575D2*
Y14878D1*
X18201D1*
X26192Y15575D2*
Y14879D1*
X25496D2*
X26192D1*
X28940Y16940D2*
Y16244D1*
X28244Y16940D2*
X29636D1*
X5613Y6860D2*
X6191D1*
X12504Y13691D2*
X13062D1*
X33002Y11021D2*
X33561D1*
X29882Y17271D2*
X30440D1*
X19817Y12129D2*
Y11551D1*
X32362Y6940D2*
X32940D1*
X12200Y11182D2*
X12995D1*
X21937Y10001D2*
X22505D1*
X22192Y16760D2*
Y15249D1*
X21192Y16760D2*
Y16005D1*
X14940Y5636D2*
Y4940D1*
X15940Y5636D2*
Y4940D1*
D18*
X5441Y10066D3*
Y9318D3*
D19*
X6878Y10378D3*
Y9709D3*
D20*
X7441Y14879D3*
X8543D3*
X7441Y16128D3*
X8543D3*
D21*
X8566Y6878D3*
X7897D3*
D19*
X6191Y8110D3*
Y8779D3*
X6878Y8128D3*
Y8797D3*
D18*
X12691Y8503D3*
Y7755D3*
D19*
X11879Y13003D3*
Y13673D3*
D18*
X15504Y11441D3*
Y12189D3*
D20*
X11379Y15004D3*
X12481D3*
X11379Y16191D3*
X12481D3*
D19*
X11066Y10316D3*
Y10985D3*
D21*
Y7878D3*
X11736D3*
X11754Y9191D3*
X11085D3*
D22*
X33752Y15377D3*
X33003D3*
D18*
X31377Y14690D3*
Y15438D3*
D19*
X32127Y11672D3*
Y11002D3*
X19255Y12129D3*
Y12798D3*
D18*
X24443Y9065D3*
Y9814D3*
X23380Y9253D3*
Y10001D3*
D19*
X24380Y12129D3*
Y12798D3*
X19380Y16816D3*
Y17486D3*
X23943Y16897D3*
Y17566D3*
D18*
X19317Y14566D3*
Y15314D3*
X24067Y14566D3*
Y15314D3*
X28940Y13190D3*
Y13938D3*
D23*
X28753Y6878D3*
Y7980D3*
X31190Y6940D3*
Y8042D3*
D25*
X5941Y16504D3*
Y14772D3*
X14129Y10941D3*
Y12673D3*
D26*
X36940Y17940D3*
D27*
X35940D3*
X36940Y16940D3*
X35940D3*
X36940Y15940D3*
X35940D3*
X36940Y14940D3*
X35940D3*
X36940Y13940D3*
X35940D3*
X36940Y12940D3*
X35940D3*
X36940Y11940D3*
X35940D3*
X36940Y10940D3*
X35940D3*
X36940Y9940D3*
X35940D3*
X36940Y8940D3*
X35940D3*
X36940Y7940D3*
X35940D3*
X36940Y6940D3*
X35940D3*
D26*
X33690Y7940D3*
D27*
X32690D3*
X33690Y8940D3*
X32690D3*
X33690Y9940D3*
X32690D3*
D26*
X38940Y6940D3*
D27*
X37940D3*
X38940Y7940D3*
X37940D3*
X38940Y8940D3*
X37940D3*
X38940Y9940D3*
X37940D3*
X38940Y10940D3*
X37940D3*
D26*
X38940Y12940D3*
D27*
X37940D3*
X38940Y13940D3*
X37940D3*
X38940Y14940D3*
X37940D3*
X38940Y15940D3*
X37940D3*
X38940Y16940D3*
X37940D3*
D26*
X8940Y17940D3*
D27*
X9940D3*
X10940D3*
D26*
X17504Y12878D3*
D27*
Y13878D3*
Y14878D3*
D26*
X26192Y12879D3*
D27*
Y13879D3*
Y14879D3*
D26*
X34940Y16940D3*
D27*
Y17940D3*
D26*
X28940Y16940D3*
D27*
Y17940D3*
D26*
X28318Y8941D3*
D27*
Y9941D3*
Y10941D3*
Y11941D3*
D28*
X6003Y12628D3*
X8149D3*
D29*
X14504Y7253D3*
Y9399D3*
Y14191D3*
Y16336D3*
D31*
X31440Y17940D3*
Y17192D3*
X32346Y17566D3*
D32*
X16440Y5753D3*
X17188D3*
X16814Y6658D3*
D21*
X8566Y7503D3*
X7897D3*
X6191Y6860D3*
X6860D3*
X6878Y7485D3*
X6209D3*
D19*
X6191Y9690D3*
Y10360D3*
X12504Y13691D3*
Y13022D3*
X11066Y11628D3*
Y12298D3*
D21*
Y8503D3*
X11736D3*
D19*
X31377Y11628D3*
Y12297D3*
X33002Y11021D3*
Y11690D3*
X30440Y17940D3*
Y17271D3*
D21*
X32378Y16690D3*
X33047D3*
D19*
X34940Y15127D3*
Y15797D3*
X22755Y8503D3*
Y7834D3*
X23443Y8503D3*
Y7834D3*
X26693Y10066D3*
Y10735D3*
Y8690D3*
Y9360D3*
X20380Y12129D3*
Y12798D3*
X19817Y12129D3*
Y12798D3*
X18630Y12816D3*
Y12147D3*
X23192Y12129D3*
Y12798D3*
X23817Y12129D3*
Y12798D3*
X24942Y12816D3*
Y12147D3*
X20130Y17504D3*
Y16835D3*
X18692Y16816D3*
Y17486D3*
X23255Y17548D3*
Y16879D3*
X24630D3*
Y17548D3*
D21*
X18628Y6752D3*
X17958D3*
X32940Y6940D3*
X33609D3*
D19*
X21065Y12127D3*
Y12797D3*
X22440Y12127D3*
Y12797D3*
D34*
X7566Y8440D3*
X7822D3*
X8078D3*
X8334D3*
Y10173D3*
X8078D3*
X7822D3*
X7566D3*
D35*
X7950Y9307D3*
D34*
X11816Y10316D3*
X12072D3*
X12328D3*
X12584D3*
Y12048D3*
X12328D3*
X12072D3*
X11816D3*
D35*
X12200Y11182D3*
D36*
X33690Y12565D3*
Y13471D3*
Y14376D3*
D37*
X31407Y13471D3*
D34*
X25193Y8628D3*
X25449D3*
X25705D3*
X25960D3*
Y10360D3*
X25705D3*
X25449D3*
X25193D3*
D31*
X22505Y9253D3*
Y10001D3*
X21599Y9627D3*
D38*
X20192Y13879D3*
X20692D3*
X21192D3*
X21692D3*
X22192D3*
X22692D3*
X23192D3*
Y16005D3*
X22692D3*
X22192D3*
X21692D3*
X21192D3*
X20692D3*
X20192D3*
D26*
X9940Y4940D3*
D27*
X10940D3*
X11940D3*
X12940D3*
X13940D3*
X14940D3*
X15940D3*
X16940D3*
X17940D3*
X18940D3*
X19940D3*
X20940D3*
X21940D3*
X22940D3*
X23940D3*
X24940D3*
X25940D3*
D26*
X34940Y6940D3*
D27*
Y7940D3*
Y8940D3*
Y9940D3*
Y10940D3*
Y11940D3*
Y12940D3*
Y13940D3*
X29940Y6940D3*
Y7940D3*
Y8940D3*
Y9940D3*
Y10940D3*
Y11940D3*
Y12940D3*
Y13940D3*
M02*
