G04 DipTrace 2.4.0.2*
%INTopAssy.gbr*%
%MOIN*%
%ADD10C,0.0098*%
%ADD12C,0.003*%
%FSLAX44Y44*%
G04*
G70*
G90*
G75*
G01*
%LNTopAssy*%
%LPD*%
X8046Y18538D2*
D10*
X11834D1*
X16906Y11985D2*
Y15772D1*
X25594Y11985D2*
Y15772D1*
X34342Y16046D2*
Y18834D1*
X28342Y16046D2*
Y18834D1*
X27720Y8047D2*
Y12834D1*
X8956Y18872D2*
D12*
Y18671D1*
X9042D1*
X9071Y18681D1*
X9080Y18690D1*
X9090Y18709D1*
Y18738D1*
X9080Y18757D1*
X9071Y18767D1*
X9042Y18776D1*
X9071Y18786D1*
X9080Y18796D1*
X9090Y18815D1*
Y18834D1*
X9080Y18853D1*
X9071Y18863D1*
X9042Y18872D1*
X8956D1*
Y18776D2*
X9042D1*
X9209Y18872D2*
X9190Y18863D1*
X9171Y18843D1*
X9161Y18824D1*
X9151Y18796D1*
Y18748D1*
X9161Y18719D1*
X9171Y18700D1*
X9190Y18681D1*
X9209Y18671D1*
X9247D1*
X9266Y18681D1*
X9285Y18700D1*
X9295Y18719D1*
X9304Y18748D1*
Y18796D1*
X9295Y18824D1*
X9285Y18843D1*
X9266Y18863D1*
X9247Y18872D1*
X9209D1*
X9519Y18671D2*
X9443Y18872D1*
X9366Y18671D1*
X9395Y18738D2*
X9491D1*
X9581Y18776D2*
X9667D1*
X9696Y18786D1*
X9705Y18796D1*
X9715Y18815D1*
Y18834D1*
X9705Y18853D1*
X9696Y18863D1*
X9667Y18872D1*
X9581D1*
Y18671D1*
X9648Y18776D2*
X9715Y18671D1*
X9777Y18872D2*
Y18671D1*
X9844D1*
X9872Y18681D1*
X9892Y18700D1*
X9901Y18719D1*
X9911Y18748D1*
Y18796D1*
X9901Y18824D1*
X9892Y18843D1*
X9872Y18863D1*
X9844Y18872D1*
X9777D1*
X10291D2*
X10167D1*
Y18671D1*
X10291D1*
X10167Y18776D2*
X10243D1*
X10353Y18872D2*
Y18671D1*
X10420D1*
X10449Y18681D1*
X10468Y18700D1*
X10477Y18719D1*
X10487Y18748D1*
Y18796D1*
X10477Y18824D1*
X10468Y18843D1*
X10449Y18863D1*
X10420Y18872D1*
X10353D1*
X10692Y18824D2*
X10683Y18843D1*
X10663Y18863D1*
X10644Y18872D1*
X10606D1*
X10587Y18863D1*
X10568Y18843D1*
X10558Y18824D1*
X10549Y18796D1*
Y18748D1*
X10558Y18719D1*
X10568Y18700D1*
X10587Y18681D1*
X10606Y18671D1*
X10644D1*
X10663Y18681D1*
X10683Y18700D1*
X10692Y18719D1*
Y18748D1*
X10644D1*
X10878Y18872D2*
X10754D1*
Y18671D1*
X10878D1*
X10754Y18776D2*
X10830D1*
X16572Y12894D2*
X16773D1*
Y12980D1*
X16764Y13009D1*
X16754Y13018D1*
X16735Y13028D1*
X16706D1*
X16687Y13018D1*
X16678Y13009D1*
X16668Y12980D1*
X16658Y13009D1*
X16649Y13018D1*
X16630Y13028D1*
X16611D1*
X16592Y13018D1*
X16582Y13009D1*
X16572Y12980D1*
Y12894D1*
X16668D2*
Y12980D1*
X16572Y13147D2*
X16582Y13128D1*
X16601Y13109D1*
X16620Y13099D1*
X16649Y13090D1*
X16697D1*
X16725Y13099D1*
X16745Y13109D1*
X16764Y13128D1*
X16773Y13147D1*
Y13185D1*
X16764Y13204D1*
X16745Y13224D1*
X16725Y13233D1*
X16697Y13243D1*
X16649D1*
X16620Y13233D1*
X16601Y13224D1*
X16582Y13204D1*
X16572Y13185D1*
Y13147D1*
X16773Y13458D2*
X16572Y13381D1*
X16773Y13304D1*
X16706Y13333D2*
Y13429D1*
X16668Y13519D2*
Y13605D1*
X16658Y13634D1*
X16649Y13644D1*
X16630Y13653D1*
X16611D1*
X16592Y13644D1*
X16582Y13634D1*
X16572Y13605D1*
Y13519D1*
X16773D1*
X16668Y13586D2*
X16773Y13653D1*
X16572Y13715D2*
X16773D1*
Y13782D1*
X16764Y13811D1*
X16745Y13830D1*
X16725Y13840D1*
X16697Y13849D1*
X16649D1*
X16620Y13840D1*
X16601Y13830D1*
X16582Y13811D1*
X16572Y13782D1*
Y13715D1*
Y14230D2*
Y14105D1*
X16773D1*
Y14230D1*
X16668Y14105D2*
Y14182D1*
X16572Y14291D2*
X16773D1*
Y14358D1*
X16764Y14387D1*
X16745Y14406D1*
X16725Y14416D1*
X16697Y14425D1*
X16649D1*
X16620Y14416D1*
X16601Y14406D1*
X16582Y14387D1*
X16572Y14358D1*
Y14291D1*
X16620Y14631D2*
X16601Y14621D1*
X16582Y14602D1*
X16572Y14583D1*
Y14545D1*
X16582Y14525D1*
X16601Y14506D1*
X16620Y14497D1*
X16649Y14487D1*
X16697D1*
X16725Y14497D1*
X16745Y14506D1*
X16764Y14525D1*
X16773Y14545D1*
Y14583D1*
X16764Y14602D1*
X16745Y14621D1*
X16725Y14631D1*
X16697D1*
Y14583D1*
X16572Y14817D2*
Y14692D1*
X16773D1*
Y14817D1*
X16668Y14692D2*
Y14769D1*
X25260Y12894D2*
X25461D1*
Y12980D1*
X25451Y13009D1*
X25442Y13019D1*
X25423Y13028D1*
X25394D1*
X25375Y13019D1*
X25365Y13009D1*
X25356Y12980D1*
X25346Y13009D1*
X25337Y13019D1*
X25318Y13028D1*
X25298D1*
X25279Y13019D1*
X25270Y13009D1*
X25260Y12980D1*
Y12894D1*
X25356D2*
Y12980D1*
X25260Y13147D2*
X25270Y13128D1*
X25289Y13109D1*
X25308Y13099D1*
X25337Y13090D1*
X25385D1*
X25413Y13099D1*
X25432Y13109D1*
X25451Y13128D1*
X25461Y13147D1*
Y13186D1*
X25451Y13205D1*
X25432Y13224D1*
X25413Y13233D1*
X25385Y13243D1*
X25337D1*
X25308Y13233D1*
X25289Y13224D1*
X25270Y13205D1*
X25260Y13186D1*
Y13147D1*
X25461Y13458D2*
X25260Y13381D1*
X25461Y13305D1*
X25394Y13333D2*
Y13429D1*
X25356Y13520D2*
Y13606D1*
X25346Y13634D1*
X25337Y13644D1*
X25318Y13654D1*
X25298D1*
X25279Y13644D1*
X25270Y13634D1*
X25260Y13606D1*
Y13520D1*
X25461D1*
X25356Y13587D2*
X25461Y13654D1*
X25260Y13715D2*
X25461D1*
Y13782D1*
X25451Y13811D1*
X25432Y13830D1*
X25413Y13840D1*
X25385Y13849D1*
X25337D1*
X25308Y13840D1*
X25289Y13830D1*
X25270Y13811D1*
X25260Y13782D1*
Y13715D1*
Y14230D2*
Y14105D1*
X25461D1*
Y14230D1*
X25356Y14105D2*
Y14182D1*
X25260Y14291D2*
X25461D1*
Y14358D1*
X25451Y14387D1*
X25432Y14406D1*
X25413Y14416D1*
X25385Y14425D1*
X25337D1*
X25308Y14416D1*
X25289Y14406D1*
X25270Y14387D1*
X25260Y14358D1*
Y14291D1*
X25308Y14631D2*
X25289Y14621D1*
X25270Y14602D1*
X25260Y14583D1*
Y14545D1*
X25270Y14525D1*
X25289Y14506D1*
X25308Y14497D1*
X25337Y14487D1*
X25385D1*
X25413Y14497D1*
X25432Y14506D1*
X25451Y14525D1*
X25461Y14545D1*
Y14583D1*
X25451Y14602D1*
X25432Y14621D1*
X25413Y14631D1*
X25385D1*
Y14583D1*
X25260Y14817D2*
Y14692D1*
X25461D1*
Y14817D1*
X25356Y14692D2*
Y14769D1*
X34008Y16455D2*
X34209D1*
Y16542D1*
X34199Y16570D1*
X34190Y16580D1*
X34171Y16589D1*
X34142D1*
X34123Y16580D1*
X34113Y16570D1*
X34104Y16542D1*
X34094Y16570D1*
X34084Y16580D1*
X34065Y16589D1*
X34046D1*
X34027Y16580D1*
X34017Y16570D1*
X34008Y16542D1*
Y16455D1*
X34104D2*
Y16542D1*
X34008Y16709D2*
X34017Y16689D1*
X34037Y16670D1*
X34056Y16661D1*
X34084Y16651D1*
X34132D1*
X34161Y16661D1*
X34180Y16670D1*
X34199Y16689D1*
X34209Y16709D1*
Y16747D1*
X34199Y16766D1*
X34180Y16785D1*
X34161Y16795D1*
X34132Y16804D1*
X34084D1*
X34056Y16795D1*
X34037Y16785D1*
X34017Y16766D1*
X34008Y16747D1*
Y16709D1*
X34209Y17019D2*
X34008Y16942D1*
X34209Y16866D1*
X34142Y16895D2*
Y16990D1*
X34104Y17081D2*
Y17167D1*
X34094Y17195D1*
X34084Y17205D1*
X34065Y17215D1*
X34046D1*
X34027Y17205D1*
X34017Y17195D1*
X34008Y17167D1*
Y17081D1*
X34209D1*
X34104Y17148D2*
X34209Y17215D1*
X34008Y17276D2*
X34209D1*
Y17343D1*
X34199Y17372D1*
X34180Y17391D1*
X34161Y17401D1*
X34132Y17410D1*
X34084D1*
X34056Y17401D1*
X34037Y17391D1*
X34017Y17372D1*
X34008Y17343D1*
Y17276D1*
Y17791D2*
Y17667D1*
X34209D1*
Y17791D1*
X34104Y17667D2*
Y17743D1*
X34008Y17853D2*
X34209D1*
Y17920D1*
X34199Y17948D1*
X34180Y17968D1*
X34161Y17977D1*
X34132Y17987D1*
X34084D1*
X34056Y17977D1*
X34037Y17968D1*
X34017Y17948D1*
X34008Y17920D1*
Y17853D1*
X34056Y18192D2*
X34037Y18182D1*
X34017Y18163D1*
X34008Y18144D1*
Y18106D1*
X34017Y18087D1*
X34037Y18068D1*
X34056Y18058D1*
X34084Y18048D1*
X34132D1*
X34161Y18058D1*
X34180Y18068D1*
X34199Y18087D1*
X34209Y18106D1*
Y18144D1*
X34199Y18163D1*
X34180Y18182D1*
X34161Y18192D1*
X34132D1*
Y18144D1*
X34008Y18378D2*
Y18254D1*
X34209D1*
Y18378D1*
X34104Y18254D2*
Y18330D1*
X28008Y16455D2*
X28209D1*
Y16542D1*
X28199Y16570D1*
X28190Y16580D1*
X28171Y16589D1*
X28142D1*
X28123Y16580D1*
X28113Y16570D1*
X28104Y16542D1*
X28094Y16570D1*
X28084Y16580D1*
X28065Y16589D1*
X28046D1*
X28027Y16580D1*
X28017Y16570D1*
X28008Y16542D1*
Y16455D1*
X28104D2*
Y16542D1*
X28008Y16709D2*
X28017Y16689D1*
X28037Y16670D1*
X28056Y16661D1*
X28084Y16651D1*
X28132D1*
X28161Y16661D1*
X28180Y16670D1*
X28199Y16689D1*
X28209Y16709D1*
Y16747D1*
X28199Y16766D1*
X28180Y16785D1*
X28161Y16795D1*
X28132Y16804D1*
X28084D1*
X28056Y16795D1*
X28037Y16785D1*
X28017Y16766D1*
X28008Y16747D1*
Y16709D1*
X28209Y17019D2*
X28008Y16942D1*
X28209Y16866D1*
X28142Y16895D2*
Y16990D1*
X28104Y17081D2*
Y17167D1*
X28094Y17195D1*
X28084Y17205D1*
X28065Y17215D1*
X28046D1*
X28027Y17205D1*
X28017Y17195D1*
X28008Y17167D1*
Y17081D1*
X28209D1*
X28104Y17148D2*
X28209Y17215D1*
X28008Y17276D2*
X28209D1*
Y17343D1*
X28199Y17372D1*
X28180Y17391D1*
X28161Y17401D1*
X28132Y17410D1*
X28084D1*
X28056Y17401D1*
X28037Y17391D1*
X28017Y17372D1*
X28008Y17343D1*
Y17276D1*
Y17791D2*
Y17667D1*
X28209D1*
Y17791D1*
X28104Y17667D2*
Y17743D1*
X28008Y17853D2*
X28209D1*
Y17920D1*
X28199Y17948D1*
X28180Y17968D1*
X28161Y17977D1*
X28132Y17987D1*
X28084D1*
X28056Y17977D1*
X28037Y17968D1*
X28017Y17948D1*
X28008Y17920D1*
Y17853D1*
X28056Y18192D2*
X28037Y18182D1*
X28017Y18163D1*
X28008Y18144D1*
Y18106D1*
X28017Y18087D1*
X28037Y18068D1*
X28056Y18058D1*
X28084Y18048D1*
X28132D1*
X28161Y18058D1*
X28180Y18068D1*
X28199Y18087D1*
X28209Y18106D1*
Y18144D1*
X28199Y18163D1*
X28180Y18182D1*
X28161Y18192D1*
X28132D1*
Y18144D1*
X28008Y18378D2*
Y18254D1*
X28209D1*
Y18378D1*
X28104Y18254D2*
Y18330D1*
X27386Y9446D2*
X27587D1*
Y9533D1*
X27577Y9561D1*
X27568Y9571D1*
X27549Y9580D1*
X27520D1*
X27501Y9571D1*
X27491Y9561D1*
X27482Y9533D1*
X27472Y9561D1*
X27462Y9571D1*
X27443Y9580D1*
X27424D1*
X27405Y9571D1*
X27395Y9561D1*
X27386Y9533D1*
Y9446D1*
X27482D2*
Y9533D1*
X27386Y9700D2*
X27395Y9680D1*
X27415Y9661D1*
X27434Y9652D1*
X27462Y9642D1*
X27510D1*
X27539Y9652D1*
X27558Y9661D1*
X27577Y9680D1*
X27587Y9700D1*
Y9738D1*
X27577Y9757D1*
X27558Y9776D1*
X27539Y9786D1*
X27510Y9795D1*
X27462D1*
X27434Y9786D1*
X27415Y9776D1*
X27395Y9757D1*
X27386Y9738D1*
Y9700D1*
X27587Y10010D2*
X27386Y9933D1*
X27587Y9857D1*
X27520Y9886D2*
Y9981D1*
X27482Y10072D2*
Y10158D1*
X27472Y10186D1*
X27462Y10196D1*
X27443Y10206D1*
X27424D1*
X27405Y10196D1*
X27395Y10186D1*
X27386Y10158D1*
Y10072D1*
X27587D1*
X27482Y10139D2*
X27587Y10206D1*
X27386Y10267D2*
X27587D1*
Y10334D1*
X27577Y10363D1*
X27558Y10382D1*
X27539Y10392D1*
X27510Y10401D1*
X27462D1*
X27434Y10392D1*
X27415Y10382D1*
X27395Y10363D1*
X27386Y10334D1*
Y10267D1*
Y10782D2*
Y10658D1*
X27587D1*
Y10782D1*
X27482Y10658D2*
Y10734D1*
X27386Y10844D2*
X27587D1*
Y10911D1*
X27577Y10939D1*
X27558Y10959D1*
X27539Y10968D1*
X27510Y10978D1*
X27462D1*
X27434Y10968D1*
X27415Y10959D1*
X27395Y10939D1*
X27386Y10911D1*
Y10844D1*
X27434Y11183D2*
X27415Y11173D1*
X27395Y11154D1*
X27386Y11135D1*
Y11097D1*
X27395Y11078D1*
X27415Y11059D1*
X27434Y11049D1*
X27462Y11039D1*
X27510D1*
X27539Y11049D1*
X27558Y11059D1*
X27577Y11078D1*
X27587Y11097D1*
Y11135D1*
X27577Y11154D1*
X27558Y11173D1*
X27539Y11183D1*
X27510D1*
Y11135D1*
X27386Y11369D2*
Y11245D1*
X27587D1*
Y11369D1*
X27482Y11245D2*
Y11321D1*
M02*
