G04 DipTrace 2.4.0.2*
%INTop.gbr*%
%MOIN*%
%ADD13C,0.03*%
%ADD14C,0.012*%
%ADD15C,0.013*%
%ADD16C,0.0551*%
%ADD17C,0.06*%
%ADD18C,0.0512*%
%ADD19C,0.0394*%
%ADD20C,0.0118*%
%ADD21C,0.01*%
%ADD22C,0.02*%
%ADD24R,0.0433X0.0394*%
%ADD25R,0.0512X0.0591*%
%ADD26R,0.063X0.1063*%
%ADD27R,0.0394X0.0433*%
%ADD28R,0.0591X0.0512*%
%ADD29R,0.1063X0.063*%
%ADD31R,0.0551X0.0827*%
%ADD32R,0.0827X0.0551*%
%ADD33R,0.063X0.0551*%
%ADD34R,0.0551X0.063*%
%ADD36C,0.05*%
%ADD37R,0.0669X0.0669*%
%ADD38C,0.0669*%
%ADD39R,0.0709X0.0709*%
%ADD40C,0.0709*%
%ADD41R,0.063X0.063*%
%ADD42C,0.063*%
%ADD43R,0.0748X0.0984*%
%ADD44O,0.0748X0.0984*%
%ADD45R,0.0953X0.2102*%
%ADD47R,0.0256X0.0413*%
%ADD48R,0.0413X0.0256*%
%ADD49R,0.0748X0.0748*%
%ADD50C,0.0748*%
%ADD51R,0.0709X0.126*%
%ADD53R,0.063X0.0118*%
%ADD54R,0.0236X0.0787*%
%ADD55R,0.0157X0.0551*%
%ADD56C,0.024*%
%FSLAX44Y44*%
G04*
G70*
G90*
G75*
G01*
%LNTop*%
%LPD*%
X3500Y18250D2*
D13*
Y19000D1*
X3250Y19250D1*
X1750D1*
X1500Y19000D1*
Y18250D1*
X3500D2*
Y14437D1*
X3000Y13937D1*
Y12500D1*
X25562Y9500D2*
D14*
Y8623D1*
X25000Y8061D1*
Y3060D1*
X24500Y2560D1*
Y500D1*
X18000D1*
Y1000D1*
X10062Y437D2*
D13*
X18000D1*
Y1000D1*
X22250Y4437D2*
Y2500D1*
X1750Y12750D2*
X2750D1*
X3000Y12500D1*
Y12562D1*
X3250Y12812D1*
X4250D1*
X4312Y12750D1*
X26995Y4243D2*
Y3242D1*
X26690Y2938D1*
X24905D1*
D14*
X24500Y2560D1*
X45005Y11250D2*
D15*
X45562D1*
X7938Y11001D2*
D13*
X7876D1*
Y11814D1*
Y13937D1*
X7937Y13875D1*
X14437Y12562D2*
D16*
Y11987D1*
D17*
Y11813D1*
Y11312D1*
X14500Y11250D1*
X15810D1*
X15821Y11239D1*
X16125Y4750D2*
D13*
X16686D1*
Y4749D1*
X15821Y11239D2*
Y11821D1*
X11187Y11187D2*
D15*
Y4312D1*
X16687D2*
Y4749D1*
X16686D1*
X7835Y16773D2*
D13*
Y13977D1*
X7937Y13875D1*
X7813Y11814D2*
X7876D1*
X43000Y20000D2*
Y19000D1*
Y18000D1*
Y17000D1*
X38000Y20000D2*
D14*
X37000D1*
X30665Y16335D2*
X30500Y16500D1*
Y20750D1*
X34754D1*
X37000D1*
Y20671D1*
Y20000D1*
Y20671D2*
X37079Y20750D1*
X43000D1*
Y20000D1*
X33669Y6812D2*
X33750D1*
Y7563D1*
X34441D1*
X34754Y7876D1*
Y20750D1*
X30500Y7250D2*
D15*
X30750D1*
X31063Y7563D1*
X31463D1*
X33750D1*
X52812Y5875D2*
Y5062D1*
X52750Y5000D1*
Y4250D1*
Y5000D2*
X52875D1*
X53062Y5187D1*
X53375D1*
X31463Y7563D2*
Y7380D1*
X31441Y7357D1*
X45005Y11876D2*
X45581D1*
Y11875D1*
X9939Y11001D2*
D13*
X10001D1*
Y11814D1*
Y13875D1*
X9937D1*
X15937Y14295D2*
D16*
Y14870D1*
D17*
Y15375D1*
X16000Y15438D1*
X16739D1*
X17500D1*
X16739D2*
D13*
Y15261D1*
X17125Y14875D1*
X10040Y16773D2*
Y13977D1*
X9937Y13875D1*
X10064Y11814D2*
X10001D1*
X38000Y19000D2*
D15*
X38500D1*
X39500Y20000D1*
X41000D1*
X37000Y13000D2*
X37500Y13500D1*
X40250D1*
X40750Y14000D1*
X41000D1*
Y13000D2*
X38000D1*
X37000Y12000D2*
X37500Y12500D1*
X41500D1*
X42000Y13000D1*
X41000Y12000D2*
X38000D1*
X37000Y11000D2*
X37500Y11500D1*
X41500D1*
X42000Y12000D1*
X41000Y11000D2*
X38000D1*
X41000Y10000D2*
X38000D1*
X42000Y11000D2*
X41500Y10500D1*
X37687D1*
X37500Y10313D1*
Y9500D1*
X38000Y9000D1*
X37000Y8000D2*
X37500Y7500D1*
X38312D1*
X39312Y6500D1*
X41500D1*
X42000Y6000D1*
X38000Y8000D2*
X39500Y9500D1*
X42000D1*
Y10000D1*
X37000Y7000D2*
X37500Y6500D1*
X38375D1*
X39375Y5500D1*
X41500D1*
X42000Y5000D1*
X38000Y7000D2*
X38312D1*
X39312Y6000D1*
X41000D1*
X48875Y5875D2*
Y5625D1*
X48812Y5562D1*
X45438D1*
X45000Y6000D1*
X44500D1*
X48875Y7607D2*
Y7937D1*
X48625Y8187D1*
Y9875D1*
X48750Y10000D1*
Y10500D1*
X48625Y9875D2*
X48645D1*
X48750Y10000D1*
X49643Y7607D2*
Y7893D1*
X49875Y8125D1*
Y9875D1*
X49750Y10000D1*
Y10500D1*
X2000Y9500D2*
D13*
X3000D1*
X4250D1*
X3000Y11398D2*
Y9500D1*
X2750Y5919D2*
D15*
X3136D1*
X3500D1*
X3136D2*
Y9364D1*
X3000Y9500D1*
X28500Y16500D2*
X29748D1*
X29750Y16498D1*
X28500Y10500D2*
X29898D1*
X30000Y10602D1*
X31500D1*
X33750Y6125D2*
Y4500D1*
X42000Y20000D2*
Y19000D1*
Y18000D1*
Y17000D1*
X47500Y8750D2*
Y7937D1*
X51000D2*
Y8750D1*
X14500Y10148D2*
D17*
X15258D1*
Y10136D1*
X15821D1*
X15258Y7063D2*
Y10136D1*
X17187Y9812D2*
D16*
Y9875D1*
D17*
X16937Y10125D1*
X15832D1*
X15821Y10136D1*
X17187Y9812D2*
D16*
X17595Y10220D1*
D17*
X18375Y11000D1*
Y12437D1*
X21148D1*
Y7500D1*
X18561Y7625D2*
D18*
X19008D1*
D17*
X21023D1*
X21148Y7500D1*
X18482Y6063D2*
D15*
X19062D1*
Y7571D1*
X19008Y7625D1*
X12518Y6437D2*
Y5937D1*
X15258Y7063D2*
D17*
Y5901D1*
D19*
X15192Y5836D1*
X14919Y5562D1*
X15192Y5836D2*
D17*
Y5086D1*
D18*
X14919Y4812D1*
X12518Y5937D2*
D15*
Y4732D1*
X13437Y3812D1*
X14937D1*
Y4794D1*
X14919Y4812D1*
X14679Y15509D2*
D16*
Y16500D1*
D17*
X15960D1*
X16000Y16540D1*
X17500D1*
X18585D1*
X21148Y13977D1*
Y12437D1*
X17831Y4937D2*
D15*
Y3812D1*
X14937D1*
X17831D2*
X19062D1*
Y6063D1*
X49131Y7607D2*
Y7994D1*
X48875Y8250D1*
Y9125D1*
X49123Y9373D1*
X49375D1*
X49131Y7607D2*
Y7193D1*
X49062Y7125D1*
Y6875D1*
X49250Y6687D1*
X50436D1*
X50500Y6623D1*
X52062D1*
X52812D1*
X50750Y2937D2*
X49750D1*
X48750D1*
X47750D1*
X49375Y9373D2*
Y9375D1*
X48937D1*
X9316Y11814D2*
D13*
X8561D1*
X25769Y6642D2*
D15*
Y7311D1*
X25771Y7313D1*
X2750Y5250D2*
X2000D1*
X2750Y4625D2*
Y5250D1*
X2000Y8500D2*
D13*
X1438D1*
X1000Y8938D1*
Y10813D1*
X1034Y10847D1*
X1125Y10937D1*
X1187D1*
X1312Y11062D1*
X1705D1*
X1750Y11018D1*
X1034Y10847D2*
Y13472D1*
X2500Y14938D1*
Y18250D1*
X29691Y6438D2*
D15*
X28316D1*
X28304Y6451D1*
X27819Y7250D2*
Y7319D1*
X28313Y7813D1*
X34254D1*
X34504Y8063D1*
Y18439D1*
X28304Y6451D2*
X28178D1*
X27815Y6813D1*
Y7247D1*
X27819Y7250D1*
X29691Y6438D2*
X31191D1*
X31441Y6688D1*
X26517Y6642D2*
Y7237D1*
X26440Y7313D1*
X26503D1*
X27253Y8063D1*
X34066D1*
X34254Y8251D1*
Y18689D1*
X34504Y18939D1*
X44500Y3000D2*
X42000D1*
X37000Y5000D2*
X37500Y4500D1*
X41250D1*
X41500Y4250D1*
Y3500D1*
X42000Y3000D1*
X49387Y5875D2*
Y5449D1*
X49000Y5062D1*
X45562D1*
X45250Y4750D1*
Y4000D1*
X44500D1*
X41000Y5000D2*
X38000D1*
X41000D2*
X41250D1*
X41750Y4500D1*
X42937D1*
X43437Y4000D1*
X44500D1*
X14391Y7359D2*
D20*
Y7556D1*
Y7752D1*
Y8111D1*
D17*
Y8609D1*
D16*
X14375Y8625D1*
X14000D1*
D17*
X13125Y9500D1*
Y13438D1*
D18*
X13720Y13437D1*
D17*
X16592D1*
D18*
X17187D1*
X13125Y14186D2*
X13373D1*
D17*
X13500Y14312D1*
X14420D1*
D16*
X14437Y14295D1*
X13125Y14186D2*
D18*
Y14741D1*
D17*
Y15330D1*
D16*
X12946Y15509D1*
X30500Y13750D2*
D15*
X31250D1*
Y13500D1*
X31500Y13250D1*
X32750D1*
X33500Y12500D1*
X30500Y12750D2*
X31250D1*
Y12500D1*
X31500Y12250D1*
X32750D1*
X33500Y11500D1*
X30500Y11750D2*
X31250D1*
Y11500D1*
X31500Y11250D1*
X32750D1*
X33500Y10500D1*
X7938Y10332D2*
Y9403D1*
X7972D1*
X16124Y6374D2*
D20*
Y6250D1*
D15*
Y5420D1*
X16125Y5419D1*
X16686D1*
X49387Y7607D2*
Y8488D1*
X49312Y8562D1*
X49438D1*
X49375Y8625D1*
X52081Y4250D2*
X50625D1*
X50062Y4812D1*
Y5312D1*
X49375Y7000D2*
Y7382D1*
X49387D1*
Y7607D1*
X48250Y9419D2*
X47500D1*
X46750D1*
X46669Y9500D1*
X46000D1*
X48250Y10500D2*
Y9419D1*
X50250D2*
X51000D1*
X51750D1*
X51829Y9498D1*
X52500D1*
X50250Y9419D2*
Y10500D1*
X48250Y13831D2*
Y12626D1*
Y13831D2*
X47500D1*
X47419Y13750D1*
X46750D1*
X50250Y13831D2*
X51000D1*
X51081Y13750D1*
X51750D1*
X50250Y13831D2*
Y12626D1*
X4250Y7500D2*
Y5919D1*
X33500Y14500D2*
Y13500D1*
X26143Y5736D2*
Y4375D1*
X26011Y4243D1*
X16124Y7359D2*
D20*
Y7556D1*
Y7752D1*
Y8111D1*
D17*
Y8609D1*
D16*
X16107Y8625D1*
D17*
X17437D1*
X18812Y10000D1*
X19587D1*
X9937Y9368D2*
D15*
Y10331D1*
X9939Y10332D1*
X49250Y10500D2*
D13*
Y11250D1*
X51500D1*
Y11187D1*
X49250Y11250D2*
X47063D1*
X47000Y11187D1*
Y11250D1*
X46232D1*
X49250Y12626D2*
Y11875D1*
X51435D1*
X51500Y11939D1*
X49250Y11875D2*
X47061D1*
X47000Y11936D1*
Y11875D1*
X46250D1*
X30596Y6064D2*
D15*
Y4346D1*
X30500Y4250D1*
X17812Y6063D2*
X17562D1*
X17062Y6562D1*
X16132D1*
D20*
X16124Y6571D1*
X17812Y6063D2*
D15*
Y5518D1*
X17831Y5500D1*
X14391Y6768D2*
D20*
X14011D1*
D15*
X13706D1*
X13625Y6688D1*
Y6000D1*
X13250D1*
X13187Y5937D1*
X22250Y12437D2*
D17*
Y10188D1*
X22437Y10000D1*
X22250Y7500D2*
Y8312D1*
Y9812D1*
X22437Y10000D1*
X22250Y5107D2*
D19*
Y6976D1*
D17*
Y7500D1*
X17812Y7625D2*
D18*
Y7030D1*
D19*
Y7000D1*
X16124Y7162D2*
D20*
X16504D1*
D15*
X17651D1*
X17812Y7000D1*
Y7625D2*
Y8062D1*
X18062Y8312D1*
X20500D1*
X22937D2*
X22250D1*
X12518Y6937D2*
X12125D1*
X12000Y6812D1*
Y4125D1*
X12875Y3250D1*
X19875D1*
X20500Y3875D1*
Y5062D1*
X21875D2*
X22206D1*
X22250Y5107D1*
X29831Y7250D2*
X29000D1*
X16124Y6965D2*
D20*
X16504D1*
D15*
X17098D1*
X17437Y6625D1*
X18438D1*
X18500Y6687D1*
Y6982D1*
X18482Y7000D1*
X14391Y6571D2*
D20*
X14011D1*
D15*
X13946D1*
X13875Y6500D1*
Y5108D1*
X14171Y4812D1*
X14250Y5562D2*
Y6233D1*
X14304Y6287D1*
D20*
X14391Y6374D1*
Y6965D2*
X14011D1*
D15*
X13215D1*
X13187Y6937D1*
Y6437D1*
X18500Y4937D2*
Y5500D1*
X29209Y6077D2*
X30125D1*
Y5312D1*
X29500Y4687D1*
Y4234D1*
X29516Y4250D1*
X15937Y12563D2*
D16*
X16651D1*
D17*
X17061D1*
D18*
X17187Y12689D1*
Y12134D1*
D17*
Y12120D1*
D16*
Y11545D1*
X2000Y7500D2*
D15*
Y5919D1*
X28304Y5703D2*
X29678D1*
X29691Y5690D1*
X3500Y5250D2*
X4250D1*
X3500Y4625D2*
Y5250D1*
X4312Y11018D2*
D13*
X4670D1*
X5312Y10375D1*
Y8812D1*
X5000Y8500D1*
X4250D1*
X5312Y10375D2*
X5348Y10339D1*
Y13589D1*
X4500Y14437D1*
Y18250D1*
X38000Y16000D2*
D15*
X38500D1*
X39500Y17000D1*
X41000D1*
X38000D2*
X38500D1*
X39500Y18000D1*
X41000D1*
X49131Y5875D2*
Y5506D1*
X48937Y5312D1*
X45312D1*
X45000Y5000D1*
X44500D1*
X37000Y4000D2*
X37500Y3500D1*
X40437D1*
X40937Y3000D1*
X41000D1*
Y4000D2*
X38000D1*
X31500Y9500D2*
D13*
X30000D1*
X28500D1*
X26232D1*
X26500Y13500D2*
X28500D1*
X26500Y14500D2*
X28500D1*
X26500Y12500D2*
X28500D1*
X26500Y11500D2*
X28500D1*
Y15500D2*
X29500D1*
X29750Y15750D1*
X30581D1*
X30665Y15665D1*
X29750Y15750D2*
X29831Y15669D1*
Y13750D1*
Y12750D1*
Y11750D1*
X33000Y6812D2*
D15*
X33002Y6810D1*
Y6125D1*
X32750Y5873D1*
Y4500D1*
X33000Y1000D2*
D14*
X32562Y1438D1*
Y4500D1*
X32750D1*
X48250Y8750D2*
D15*
Y7638D1*
X50250D2*
Y8750D1*
X52081Y5000D2*
Y5857D1*
X52062Y5875D1*
X50500D1*
X49643D1*
X50500D2*
Y5313D1*
X46750Y8750D2*
X46669Y8831D1*
X46000D1*
X45919Y8750D1*
X45625D1*
X45562Y8813D1*
Y9812D1*
X45687Y9937D1*
X47293D1*
X47687D1*
X47750Y10000D1*
Y10500D1*
X48250Y14500D2*
Y15125D1*
Y15319D1*
X46569Y17000D1*
X46500D1*
X47293Y9937D2*
X47317Y9962D1*
Y10626D1*
Y15125D2*
X48250D1*
X46750Y14419D2*
X46831Y14500D1*
X47500D1*
X47750Y12626D2*
Y13188D1*
X47625Y13313D1*
X46437D1*
X46312Y13438D1*
Y14312D1*
X46419Y14419D1*
X46750D1*
X45817Y15352D1*
Y17439D1*
X46362Y17984D1*
X46500D1*
X52500Y8829D2*
X52421Y8750D1*
X51750D1*
X52500Y8829D2*
X52579Y8750D1*
X52875D1*
X52937Y8812D1*
Y9937D1*
X50813D1*
X50750Y10000D1*
Y10500D1*
X50250Y14500D2*
Y15014D1*
X50299Y15063D1*
X50500Y15264D1*
Y17000D1*
X52937Y9937D2*
Y10437D1*
X51312Y15063D2*
X50299D1*
X51750Y14419D2*
X51669Y14500D1*
X51000D1*
X50750Y12626D2*
Y13250D1*
X50813Y13313D1*
X52063D1*
X52187Y13437D1*
Y14419D1*
X51750D1*
X50500Y17984D2*
X50511Y17996D1*
X51750Y16757D1*
Y14419D1*
X38000Y18000D2*
X38500D1*
X39500Y19000D1*
X41000D1*
X31919Y11750D2*
X32500D1*
X31919Y12750D2*
X32500D1*
X31919Y13750D2*
X32500D1*
D56*
X10062Y437D3*
X22250Y2500D3*
X45005Y11250D3*
X15821Y11821D3*
X11187Y11187D3*
Y4312D3*
X16687D3*
X14437Y11813D3*
X53375Y5187D3*
X45005Y11876D3*
X17125Y14875D3*
X48625Y9875D3*
X49875D3*
X47500Y7937D3*
X51000D3*
X48937Y9375D3*
X2750Y4625D3*
X34504Y18439D3*
Y18939D3*
X50062Y5312D3*
X49375Y7000D3*
X20500Y8312D3*
X22937D3*
X20500Y5062D3*
X21875D3*
X3500Y4625D3*
X48250Y7638D3*
X50250D3*
X50500Y5313D3*
D3*
X47317Y10626D3*
Y15125D3*
X52937Y10437D3*
X51312Y15063D3*
X32500Y11750D3*
Y12750D3*
Y13750D3*
X23625Y17937D3*
Y17437D3*
Y16937D3*
Y16437D3*
Y15937D3*
Y15437D3*
Y14937D3*
Y14437D3*
Y13937D3*
Y13437D3*
Y12937D3*
Y12437D3*
Y11937D3*
Y11437D3*
Y10937D3*
Y10437D3*
Y9937D3*
Y9437D3*
Y8937D3*
Y8437D3*
Y7937D3*
Y7437D3*
Y6937D3*
Y6437D3*
Y5937D3*
Y5437D3*
Y4937D3*
Y4437D3*
Y3937D3*
Y3437D3*
X24125Y17937D3*
Y17437D3*
Y16937D3*
Y16437D3*
Y15937D3*
Y15437D3*
Y14937D3*
Y14437D3*
Y13937D3*
Y13437D3*
Y12937D3*
Y12437D3*
Y11937D3*
Y11437D3*
Y10937D3*
Y10437D3*
Y9937D3*
Y9437D3*
Y8937D3*
Y8437D3*
Y7937D3*
Y7437D3*
Y6937D3*
X6062Y19937D3*
Y19437D3*
Y18937D3*
Y18437D3*
Y17937D3*
Y17437D3*
Y16937D3*
Y16437D3*
Y15937D3*
Y15437D3*
Y14937D3*
Y14437D3*
Y13937D3*
Y13437D3*
Y12937D3*
Y12437D3*
Y11937D3*
Y11437D3*
Y10937D3*
Y10437D3*
Y9937D3*
Y9437D3*
Y8937D3*
Y8437D3*
Y7937D3*
Y7437D3*
Y6937D3*
Y6437D3*
Y5937D3*
Y5437D3*
Y4937D3*
Y4437D3*
X15062Y7500D3*
X15437D3*
X15062Y7250D3*
X15437D3*
X15062Y7000D3*
X15437D3*
X15062Y6750D3*
X15437D3*
X24125Y6437D3*
Y5937D3*
Y5437D3*
Y4937D3*
Y4437D3*
Y3937D3*
Y3437D3*
X24625Y17937D3*
Y17437D3*
Y16937D3*
Y16437D3*
Y15937D3*
Y15437D3*
Y14937D3*
Y14437D3*
Y13937D3*
Y13437D3*
Y12937D3*
Y12437D3*
Y11937D3*
Y11437D3*
Y10937D3*
X43062Y11938D3*
Y11438D3*
Y10938D3*
Y10438D3*
Y9938D3*
Y9438D3*
Y8938D3*
Y8438D3*
Y7938D3*
Y7438D3*
X43562Y11938D3*
X24625Y10437D3*
X43562Y11438D3*
X25062Y2000D3*
X25562D3*
X26062D3*
X26562D3*
X27062D3*
X27562D3*
X28062D3*
X28562D3*
X29062D3*
X29562D3*
X30062D3*
X30562D3*
X31062D3*
X31562D3*
X32062D3*
X24625Y9937D3*
X33062Y2000D3*
X33562D3*
X34062D3*
X34562D3*
X35062D3*
X35562D3*
X36062D3*
X36562D3*
X37062D3*
X37562D3*
X8937Y17313D3*
Y16813D3*
Y16312D3*
Y15813D3*
Y15313D3*
X24625Y9437D3*
X43562Y10938D3*
Y10438D3*
Y9938D3*
X6625Y18938D3*
X11625Y17250D3*
X7125Y18938D3*
X12125Y17250D3*
X7625Y18938D3*
X12625Y17250D3*
X8125Y18938D3*
X13125Y17250D3*
X8625Y18938D3*
X13625Y17250D3*
X9125Y18938D3*
X14125Y17250D3*
X9625Y18938D3*
X14625Y17250D3*
X10125Y18938D3*
X15125Y17250D3*
X10625Y18938D3*
X15625Y17250D3*
X11125Y18938D3*
X16125Y17250D3*
X11625Y18938D3*
X16625Y17250D3*
X12125Y18938D3*
X49687Y4125D3*
X12625Y18938D3*
X17625Y17250D3*
X13125Y18938D3*
X18125Y17250D3*
X13625Y18938D3*
X18625Y17250D3*
X14125Y18938D3*
X19125Y17250D3*
X14625Y18938D3*
X19625Y17250D3*
X15125Y18938D3*
X20125Y17250D3*
X15625Y18938D3*
X20625Y17250D3*
X16125Y18938D3*
X21125Y17250D3*
X16625Y18938D3*
X21625Y17250D3*
X53375Y20187D3*
Y19687D3*
Y19187D3*
Y18687D3*
X18125Y18938D3*
Y18438D3*
X18625Y18938D3*
Y18438D3*
X19125Y18938D3*
Y18438D3*
X19625Y18938D3*
Y18438D3*
X20125Y18938D3*
Y18438D3*
X20625Y18938D3*
Y18438D3*
X21125Y18938D3*
Y18438D3*
X21625Y18938D3*
Y18438D3*
X22125Y18938D3*
Y18438D3*
X22625Y18938D3*
Y18438D3*
X23125Y18938D3*
Y18438D3*
X23625Y18938D3*
Y18438D3*
X24125Y18938D3*
Y18438D3*
X24625Y18938D3*
Y18438D3*
X25125Y18938D3*
Y18438D3*
X25625Y18938D3*
Y18438D3*
X26125Y18938D3*
Y18438D3*
X26625Y18938D3*
Y18438D3*
X27125Y18938D3*
Y18438D3*
X27625Y18938D3*
Y18438D3*
X28125Y18938D3*
Y18438D3*
X28625Y18938D3*
Y18438D3*
X29125Y18938D3*
Y18438D3*
X29625Y18938D3*
Y18438D3*
X30125Y18938D3*
Y18438D3*
X53375Y18187D3*
Y17687D3*
Y17187D3*
Y16687D3*
Y16187D3*
Y15687D3*
Y15187D3*
Y14687D3*
Y14187D3*
Y13687D3*
Y13187D3*
Y12687D3*
Y12187D3*
Y11687D3*
Y11187D3*
Y10687D3*
Y10187D3*
Y9687D3*
Y9187D3*
Y8687D3*
Y8187D3*
Y7687D3*
Y7187D3*
Y6687D3*
Y6187D3*
Y5687D3*
Y4687D3*
Y4187D3*
X52255Y11189D3*
X53375Y3687D3*
Y3187D3*
Y2687D3*
Y2187D3*
Y1687D3*
Y1187D3*
X53875Y20187D3*
Y19687D3*
Y19187D3*
Y18687D3*
Y18187D3*
Y17687D3*
Y17187D3*
Y16687D3*
Y16187D3*
Y15687D3*
Y15187D3*
Y14687D3*
Y14187D3*
Y13687D3*
Y13187D3*
Y12687D3*
Y12187D3*
Y11687D3*
Y11187D3*
Y10687D3*
Y10187D3*
Y9687D3*
Y9187D3*
Y8687D3*
Y8187D3*
Y7687D3*
Y7187D3*
Y6687D3*
Y6187D3*
Y5687D3*
Y4687D3*
Y4187D3*
X52255Y10689D3*
X53875Y3687D3*
Y3187D3*
Y2687D3*
Y2187D3*
Y1687D3*
Y1187D3*
X36062Y10500D3*
Y10000D3*
Y9500D3*
Y9000D3*
Y8500D3*
Y8000D3*
Y7500D3*
Y7000D3*
Y6500D3*
Y6000D3*
Y5500D3*
Y5000D3*
Y4500D3*
Y4000D3*
Y3500D3*
Y3000D3*
Y2500D3*
X43562Y9438D3*
Y8938D3*
Y8438D3*
Y7938D3*
Y7438D3*
X44062Y11938D3*
Y11438D3*
Y10938D3*
Y10438D3*
Y9938D3*
Y9438D3*
Y8938D3*
Y8438D3*
Y7938D3*
Y7438D3*
X44562Y11938D3*
Y11437D3*
Y10938D3*
Y10438D3*
Y9938D3*
Y9438D3*
Y8938D3*
Y8438D3*
Y7938D3*
Y7437D3*
X24625Y8937D3*
Y8437D3*
Y7937D3*
Y7437D3*
Y6937D3*
Y6437D3*
Y5937D3*
Y5437D3*
X37062Y1000D3*
X37562D3*
X38062D3*
X38562D3*
X39062D3*
X39562D3*
X40062D3*
X40562D3*
X41062D3*
X41562D3*
X42062D3*
X42562D3*
X43062D3*
X43562D3*
X44062D3*
X44562D3*
X45062D3*
X45562D3*
X46062D3*
X46562D3*
X47062D3*
X47562D3*
X48062D3*
X48562D3*
X49062D3*
X43875Y19687D3*
X50062Y1000D3*
X50562D3*
X51062D3*
X51562D3*
X52062D3*
X52562D3*
X53062D3*
X44875Y20187D3*
X45375D3*
X45875D3*
X46375D3*
X46875D3*
X47375D3*
X47875D3*
X48375D3*
X48875D3*
X49375D3*
X49875D3*
X50375D3*
X50875D3*
X51375D3*
X51875D3*
X52375D3*
X52875D3*
X24625Y4937D3*
Y4437D3*
Y3937D3*
Y3437D3*
X14250Y9437D3*
X14750D3*
X15250D3*
X15750D3*
X16250D3*
X20750Y11000D3*
Y10500D3*
Y10000D3*
X27750Y8500D3*
X12125Y14750D3*
X28250Y8500D3*
X12125Y14250D3*
X28750Y8500D3*
X12125Y16250D3*
X29250Y8500D3*
X49687Y4625D3*
X29750Y8500D3*
X30250D3*
X49562Y1000D3*
X30750Y8500D3*
X31250D3*
X46250Y8062D3*
X31750Y8500D3*
X46250Y7562D3*
X32250Y8500D3*
X46250Y7062D3*
X32750Y8500D3*
X46250Y6562D3*
X33250Y8500D3*
X47687Y4125D3*
X33750Y8500D3*
X48187Y4125D3*
X31000Y18938D3*
Y18438D3*
X31500Y18938D3*
Y18438D3*
X32000Y18938D3*
Y18438D3*
X32500Y18938D3*
Y18438D3*
X33000Y18938D3*
Y18438D3*
X33500Y18938D3*
Y18438D3*
X34000Y18938D3*
Y18438D3*
X20750Y9500D3*
Y9000D3*
X21250Y11000D3*
Y10500D3*
Y10000D3*
Y9500D3*
Y9000D3*
X8500Y2625D3*
X9000D3*
X9500D3*
X10000D3*
X10500D3*
X11000D3*
X11500D3*
X12000D3*
X12500D3*
X13000D3*
X13500D3*
X14000D3*
X14500D3*
X15000D3*
X15500D3*
X16000D3*
X16500D3*
X17000D3*
X17500D3*
X18000D3*
X18500D3*
X18625Y16750D3*
Y16250D3*
Y15750D3*
Y15250D3*
Y14750D3*
Y14250D3*
Y13750D3*
Y13250D3*
Y12750D3*
Y12250D3*
Y11750D3*
X12125Y16750D3*
X48687Y4125D3*
X12125Y15750D3*
Y15250D3*
X13187Y3687D3*
X13687D3*
X12125Y13750D3*
Y13250D3*
Y12750D3*
Y12250D3*
Y10750D3*
Y10250D3*
Y9750D3*
Y9250D3*
Y8750D3*
Y8250D3*
Y7750D3*
X14187Y3687D3*
X14687D3*
X15187D3*
X15687D3*
X16187D3*
X16687D3*
X17187D3*
X17687D3*
X18187D3*
X18687D3*
X19187D3*
X19687D3*
X49187Y4125D3*
X46750Y8062D3*
Y7562D3*
Y7062D3*
Y6562D3*
X47687Y4625D3*
X48187D3*
X48687D3*
X49187D3*
X51500Y8062D3*
Y7562D3*
X46250Y6062D3*
X45687Y4125D3*
X46187D3*
X46687D3*
X47187D3*
X52000Y8062D3*
Y7562D3*
X46750Y6062D3*
X45687Y4625D3*
X46187D3*
X46687D3*
X47187D3*
X43875Y20187D3*
Y19187D3*
Y18687D3*
Y18187D3*
Y17687D3*
Y17187D3*
Y16687D3*
Y16187D3*
Y15687D3*
Y15187D3*
Y14687D3*
Y14187D3*
X44375Y20187D3*
Y19687D3*
Y19187D3*
Y18687D3*
Y18187D3*
Y17687D3*
Y17187D3*
Y16687D3*
Y16187D3*
Y15687D3*
Y15187D3*
Y14687D3*
Y14187D3*
X49000Y16063D3*
Y15563D3*
Y15063D3*
Y14562D3*
Y14063D3*
Y13563D3*
X49500Y16063D3*
Y15563D3*
Y15063D3*
Y14562D3*
Y14063D3*
Y13563D3*
X52250Y12688D3*
Y12188D3*
Y11688D3*
X560Y20851D2*
D21*
X30192D1*
X43308D2*
X54441D1*
X560Y20753D2*
X30177D1*
X43323D2*
X54441D1*
X560Y20654D2*
X30177D1*
X43323D2*
X54441D1*
X560Y20555D2*
X8802D1*
X9998D2*
X10195D1*
X10605D2*
X11195D1*
X11605D2*
X12195D1*
X12605D2*
X13195D1*
X13605D2*
X14195D1*
X14605D2*
X15195D1*
X15605D2*
X16195D1*
X16605D2*
X17402D1*
X18598D2*
X18795D1*
X19205D2*
X19795D1*
X20205D2*
X20795D1*
X21205D2*
X21795D1*
X22205D2*
X22795D1*
X23205D2*
X23795D1*
X24205D2*
X24795D1*
X25205D2*
X26402D1*
X27598D2*
X27795D1*
X28205D2*
X28795D1*
X29205D2*
X29795D1*
X43323D2*
X54441D1*
X560Y20457D2*
X8802D1*
X10781D2*
X11019D1*
X11781D2*
X12019D1*
X12781D2*
X13019D1*
X13781D2*
X14019D1*
X14781D2*
X15019D1*
X15781D2*
X16019D1*
X16781D2*
X17402D1*
X19381D2*
X19619D1*
X20381D2*
X20619D1*
X21381D2*
X21619D1*
X22381D2*
X22619D1*
X23381D2*
X23619D1*
X24381D2*
X24619D1*
X25381D2*
X26402D1*
X28381D2*
X28619D1*
X29381D2*
X29619D1*
X43381D2*
X54441D1*
X560Y20358D2*
X8802D1*
X16878D2*
X17402D1*
X25478D2*
X26402D1*
X35865D2*
X36522D1*
X43478D2*
X54441D1*
X560Y20259D2*
X8802D1*
X16939D2*
X17402D1*
X25539D2*
X26402D1*
X35942D2*
X36461D1*
X43539D2*
X54441D1*
X560Y20160D2*
X8802D1*
X16976D2*
X17402D1*
X25576D2*
X26402D1*
X35987D2*
X36424D1*
X43576D2*
X54441D1*
X560Y20062D2*
X8802D1*
X16995D2*
X17402D1*
X25595D2*
X26402D1*
X36011D2*
X36405D1*
X43595D2*
X54441D1*
X560Y19963D2*
X8802D1*
X16997D2*
X17402D1*
X25597D2*
X26402D1*
X36012D2*
X36403D1*
X43597D2*
X54441D1*
X560Y19864D2*
X8802D1*
X16983D2*
X17402D1*
X25583D2*
X26402D1*
X35995D2*
X36417D1*
X43583D2*
X54441D1*
X560Y19766D2*
X8802D1*
X16950D2*
X17402D1*
X25550D2*
X26402D1*
X35956D2*
X36450D1*
X43550D2*
X54441D1*
X560Y19667D2*
X8802D1*
X16895D2*
X17402D1*
X25495D2*
X26402D1*
X35889D2*
X36505D1*
X43495D2*
X54441D1*
X560Y19568D2*
X1491D1*
X3509D2*
X8802D1*
X10811D2*
X10989D1*
X11811D2*
X11989D1*
X12811D2*
X12989D1*
X13811D2*
X13989D1*
X14811D2*
X14989D1*
X15811D2*
X15989D1*
X16811D2*
X17402D1*
X19411D2*
X19589D1*
X20411D2*
X20589D1*
X21411D2*
X21589D1*
X22411D2*
X22589D1*
X23411D2*
X23589D1*
X24411D2*
X24589D1*
X25411D2*
X26402D1*
X28411D2*
X28589D1*
X29411D2*
X29589D1*
X31411D2*
X31589D1*
X32411D2*
X32589D1*
X33411D2*
X33589D1*
X35078D2*
X35230D1*
X35770D2*
X36589D1*
X43414D2*
X54441D1*
X560Y19470D2*
X1389D1*
X3611D2*
X8802D1*
X9998D2*
X10135D1*
X10665D2*
X11135D1*
X11665D2*
X12135D1*
X12665D2*
X13135D1*
X13665D2*
X14135D1*
X14665D2*
X15135D1*
X15665D2*
X16135D1*
X16665D2*
X17402D1*
X18598D2*
X18735D1*
X19265D2*
X19735D1*
X20265D2*
X20735D1*
X21265D2*
X21735D1*
X22265D2*
X22735D1*
X23265D2*
X23735D1*
X24265D2*
X24735D1*
X25265D2*
X26402D1*
X27598D2*
X27735D1*
X28265D2*
X28735D1*
X29265D2*
X29735D1*
X31265D2*
X31735D1*
X32265D2*
X32735D1*
X33265D2*
X33735D1*
X34265D2*
X34430D1*
X35078D2*
X36636D1*
X43414D2*
X46220D1*
X46780D2*
X50220D1*
X50780D2*
X54441D1*
X560Y19371D2*
X1289D1*
X3711D2*
X30177D1*
X30823D2*
X34430D1*
X35078D2*
X36533D1*
X43467D2*
X46088D1*
X46912D2*
X50088D1*
X50912D2*
X54441D1*
X560Y19272D2*
X1192D1*
X3808D2*
X30177D1*
X30823D2*
X34324D1*
X35078D2*
X36469D1*
X43531D2*
X46010D1*
X46990D2*
X50010D1*
X50990D2*
X54441D1*
X560Y19174D2*
X1125D1*
X3875D2*
X30177D1*
X30823D2*
X34202D1*
X35078D2*
X36428D1*
X43572D2*
X45960D1*
X47040D2*
X49960D1*
X51040D2*
X54441D1*
X560Y19075D2*
X1094D1*
X3906D2*
X30177D1*
X30823D2*
X34145D1*
X35078D2*
X36406D1*
X43594D2*
X45931D1*
X47069D2*
X49931D1*
X51069D2*
X54441D1*
X560Y18976D2*
X1086D1*
X5137D2*
X30177D1*
X30823D2*
X34080D1*
X35078D2*
X36402D1*
X43598D2*
X45922D1*
X47080D2*
X49920D1*
X51080D2*
X54441D1*
X560Y18878D2*
X1086D1*
X5137D2*
X30177D1*
X30823D2*
X33986D1*
X35078D2*
X36414D1*
X43586D2*
X45928D1*
X47072D2*
X49928D1*
X51072D2*
X54441D1*
X560Y18779D2*
X1016D1*
X5137D2*
X30177D1*
X30823D2*
X33938D1*
X35078D2*
X36444D1*
X43556D2*
X45953D1*
X47047D2*
X49953D1*
X51047D2*
X54441D1*
X560Y18680D2*
X945D1*
X5137D2*
X30177D1*
X30823D2*
X33925D1*
X35078D2*
X36495D1*
X43505D2*
X46000D1*
X47000D2*
X50000D1*
X51000D2*
X54441D1*
X560Y18581D2*
X900D1*
X5137D2*
X30177D1*
X30823D2*
X33925D1*
X35078D2*
X36577D1*
X43423D2*
X46074D1*
X46926D2*
X50074D1*
X50926D2*
X54441D1*
X560Y18483D2*
X872D1*
X5137D2*
X30177D1*
X30823D2*
X33925D1*
X35078D2*
X36653D1*
X43414D2*
X46194D1*
X46806D2*
X50194D1*
X50806D2*
X54441D1*
X560Y18384D2*
X863D1*
X5137D2*
X30177D1*
X30823D2*
X33925D1*
X35078D2*
X36544D1*
X43456D2*
X46086D1*
X46914D2*
X50086D1*
X50914D2*
X54441D1*
X560Y18285D2*
X863D1*
X5137D2*
X30177D1*
X30823D2*
X33925D1*
X35078D2*
X36475D1*
X43525D2*
X46008D1*
X46992D2*
X50008D1*
X50992D2*
X54441D1*
X560Y18187D2*
X863D1*
X5137D2*
X30177D1*
X30823D2*
X33925D1*
X35078D2*
X36431D1*
X43569D2*
X45958D1*
X47042D2*
X49958D1*
X51042D2*
X54441D1*
X560Y18088D2*
X864D1*
X5137D2*
X30177D1*
X30823D2*
X33925D1*
X35078D2*
X36408D1*
X43592D2*
X45931D1*
X47069D2*
X49931D1*
X51069D2*
X54441D1*
X560Y17989D2*
X878D1*
X5137D2*
X30177D1*
X30823D2*
X33925D1*
X35078D2*
X36402D1*
X43598D2*
X45906D1*
X47080D2*
X49920D1*
X51080D2*
X54441D1*
X560Y17891D2*
X910D1*
X5137D2*
X30177D1*
X30823D2*
X33925D1*
X35078D2*
X36411D1*
X43589D2*
X45808D1*
X47072D2*
X49928D1*
X51078D2*
X54441D1*
X560Y17792D2*
X963D1*
X5137D2*
X30177D1*
X30823D2*
X33925D1*
X35078D2*
X36439D1*
X43561D2*
X45710D1*
X47045D2*
X49955D1*
X51176D2*
X54441D1*
X560Y17693D2*
X1041D1*
X1959D2*
X2041D1*
X5137D2*
X30177D1*
X30823D2*
X33925D1*
X35078D2*
X36488D1*
X43512D2*
X45611D1*
X46998D2*
X50002D1*
X51275D2*
X54441D1*
X560Y17595D2*
X1166D1*
X1834D2*
X2086D1*
X5137D2*
X7217D1*
X8453D2*
X9422D1*
X10658D2*
X30177D1*
X30823D2*
X33925D1*
X35078D2*
X36563D1*
X43437D2*
X45528D1*
X46925D2*
X50075D1*
X51373D2*
X54441D1*
X560Y17496D2*
X2086D1*
X4914D2*
X7217D1*
X8453D2*
X9422D1*
X10658D2*
X30177D1*
X30823D2*
X33925D1*
X35078D2*
X36674D1*
X43598D2*
X45494D1*
X47080D2*
X49920D1*
X51472D2*
X54441D1*
X560Y17397D2*
X2086D1*
X4914D2*
X7217D1*
X8453D2*
X9422D1*
X10658D2*
X30177D1*
X30823D2*
X33925D1*
X35078D2*
X36556D1*
X43598D2*
X45489D1*
X47080D2*
X49920D1*
X51570D2*
X54441D1*
X560Y17299D2*
X2086D1*
X4914D2*
X7217D1*
X8453D2*
X9422D1*
X10658D2*
X30177D1*
X30823D2*
X33925D1*
X35078D2*
X36483D1*
X43598D2*
X45489D1*
X47080D2*
X49920D1*
X51670D2*
X54441D1*
X560Y17200D2*
X2086D1*
X4914D2*
X7217D1*
X8453D2*
X9422D1*
X10658D2*
X30177D1*
X30823D2*
X33925D1*
X35078D2*
X36436D1*
X43598D2*
X45489D1*
X47080D2*
X49920D1*
X51769D2*
X54441D1*
X560Y17101D2*
X2086D1*
X4914D2*
X7217D1*
X8453D2*
X9422D1*
X10658D2*
X15205D1*
X18295D2*
X30177D1*
X30823D2*
X33925D1*
X35078D2*
X36410D1*
X43598D2*
X45489D1*
X47080D2*
X49920D1*
X51867D2*
X54441D1*
X560Y17002D2*
X2086D1*
X4914D2*
X7217D1*
X8453D2*
X9422D1*
X10658D2*
X15205D1*
X18295D2*
X28183D1*
X28817D2*
X29191D1*
X30823D2*
X33183D1*
X33817D2*
X33925D1*
X35078D2*
X36402D1*
X43598D2*
X45489D1*
X47080D2*
X49920D1*
X51965D2*
X54441D1*
X560Y16904D2*
X2086D1*
X4914D2*
X7217D1*
X8453D2*
X9422D1*
X10658D2*
X15205D1*
X18295D2*
X28063D1*
X28937D2*
X29191D1*
X30823D2*
X33063D1*
X35078D2*
X36410D1*
X43598D2*
X45489D1*
X47126D2*
X49920D1*
X52044D2*
X54441D1*
X560Y16805D2*
X2086D1*
X4914D2*
X7217D1*
X8453D2*
X9422D1*
X10658D2*
X15205D1*
X18295D2*
X27986D1*
X29014D2*
X29191D1*
X30823D2*
X32986D1*
X35078D2*
X36435D1*
X43598D2*
X45489D1*
X47225D2*
X49920D1*
X52075D2*
X54441D1*
X560Y16706D2*
X2086D1*
X4914D2*
X7217D1*
X8453D2*
X9422D1*
X10658D2*
X15205D1*
X18295D2*
X27939D1*
X29061D2*
X29191D1*
X31126D2*
X32939D1*
X35078D2*
X36480D1*
X43598D2*
X45489D1*
X47323D2*
X49920D1*
X52080D2*
X54441D1*
X560Y16608D2*
X2086D1*
X4914D2*
X7217D1*
X8453D2*
X9422D1*
X10658D2*
X15205D1*
X18295D2*
X27911D1*
X29089D2*
X29191D1*
X31126D2*
X32911D1*
X35078D2*
X36552D1*
X39569D2*
X40402D1*
X43598D2*
X45489D1*
X47422D2*
X49920D1*
X52080D2*
X54441D1*
X560Y16509D2*
X2086D1*
X4914D2*
X7217D1*
X8453D2*
X9422D1*
X10658D2*
X15205D1*
X18295D2*
X27902D1*
X29098D2*
X29191D1*
X31126D2*
X32902D1*
X35078D2*
X36666D1*
X39470D2*
X40402D1*
X43598D2*
X45489D1*
X47522D2*
X49920D1*
X52080D2*
X54441D1*
X560Y16410D2*
X2086D1*
X4914D2*
X7217D1*
X8453D2*
X9422D1*
X10658D2*
X15205D1*
X18295D2*
X27908D1*
X29092D2*
X29191D1*
X31126D2*
X32908D1*
X35078D2*
X36569D1*
X39372D2*
X45489D1*
X47620D2*
X50170D1*
X52080D2*
X54441D1*
X560Y16312D2*
X2086D1*
X4914D2*
X7217D1*
X8453D2*
X9422D1*
X10658D2*
X15205D1*
X18295D2*
X27933D1*
X29067D2*
X29191D1*
X31126D2*
X32933D1*
X35078D2*
X36491D1*
X39273D2*
X45489D1*
X47719D2*
X50170D1*
X52080D2*
X54441D1*
X560Y16213D2*
X2086D1*
X4914D2*
X7217D1*
X8453D2*
X9422D1*
X10658D2*
X15205D1*
X18295D2*
X27977D1*
X29023D2*
X29191D1*
X31126D2*
X32977D1*
X35078D2*
X36441D1*
X39173D2*
X45489D1*
X47817D2*
X50170D1*
X52080D2*
X54441D1*
X560Y16114D2*
X2086D1*
X4914D2*
X7217D1*
X8453D2*
X9422D1*
X10658D2*
X12406D1*
X13486D2*
X14139D1*
X18295D2*
X28045D1*
X28955D2*
X29191D1*
X31126D2*
X33045D1*
X35078D2*
X36413D1*
X39075D2*
X45489D1*
X47915D2*
X50170D1*
X52080D2*
X54441D1*
X560Y16016D2*
X2086D1*
X4914D2*
X7217D1*
X8453D2*
X9422D1*
X10658D2*
X12406D1*
X13486D2*
X14139D1*
X18295D2*
X28156D1*
X28844D2*
X29191D1*
X31126D2*
X33156D1*
X35078D2*
X36402D1*
X38976D2*
X45489D1*
X48014D2*
X50170D1*
X52080D2*
X54441D1*
X560Y15917D2*
X2086D1*
X4914D2*
X7217D1*
X8453D2*
X9422D1*
X10658D2*
X12406D1*
X13486D2*
X14139D1*
X18295D2*
X28075D1*
X28925D2*
X29191D1*
X31126D2*
X33075D1*
X35078D2*
X36408D1*
X38878D2*
X45489D1*
X48114D2*
X50170D1*
X52080D2*
X54441D1*
X560Y15818D2*
X2086D1*
X4914D2*
X7422D1*
X8248D2*
X9627D1*
X10453D2*
X12406D1*
X13486D2*
X14139D1*
X18295D2*
X27995D1*
X31126D2*
X32995D1*
X35078D2*
X36430D1*
X38780D2*
X45489D1*
X48212D2*
X50170D1*
X52080D2*
X54441D1*
X560Y15720D2*
X2086D1*
X4914D2*
X7422D1*
X8248D2*
X9627D1*
X10453D2*
X12406D1*
X13530D2*
X14139D1*
X18295D2*
X27944D1*
X31126D2*
X32944D1*
X35078D2*
X36472D1*
X38662D2*
X45489D1*
X48311D2*
X50170D1*
X52080D2*
X54441D1*
X560Y15621D2*
X2086D1*
X4914D2*
X7422D1*
X8248D2*
X9627D1*
X10453D2*
X12406D1*
X13606D2*
X14139D1*
X18295D2*
X27914D1*
X31126D2*
X32914D1*
X35078D2*
X36539D1*
X38461D2*
X45489D1*
X48409D2*
X50170D1*
X52080D2*
X54441D1*
X560Y15522D2*
X2086D1*
X4914D2*
X7422D1*
X8248D2*
X9627D1*
X10453D2*
X12406D1*
X13655D2*
X14139D1*
X18295D2*
X27902D1*
X31126D2*
X32902D1*
X35078D2*
X36647D1*
X38353D2*
X45489D1*
X48506D2*
X50170D1*
X52080D2*
X54441D1*
X560Y15423D2*
X2086D1*
X4914D2*
X7422D1*
X8248D2*
X9627D1*
X10453D2*
X12406D1*
X13681D2*
X14139D1*
X18295D2*
X27906D1*
X31126D2*
X32906D1*
X35078D2*
X36581D1*
X38419D2*
X45489D1*
X48561D2*
X50170D1*
X52080D2*
X54441D1*
X560Y15325D2*
X2086D1*
X4914D2*
X7422D1*
X8248D2*
X9627D1*
X10453D2*
X12406D1*
X13689D2*
X14139D1*
X18295D2*
X27928D1*
X31126D2*
X32928D1*
X35078D2*
X36499D1*
X38501D2*
X45489D1*
X48580D2*
X50100D1*
X52080D2*
X54441D1*
X560Y15226D2*
X2086D1*
X4914D2*
X7422D1*
X8248D2*
X9627D1*
X10453D2*
X12406D1*
X13689D2*
X14139D1*
X18295D2*
X27969D1*
X31126D2*
X32969D1*
X35078D2*
X36447D1*
X38553D2*
X45514D1*
X48580D2*
X50002D1*
X52080D2*
X54441D1*
X560Y15127D2*
X2086D1*
X4914D2*
X7422D1*
X8248D2*
X9627D1*
X10453D2*
X12406D1*
X13689D2*
X14139D1*
X18295D2*
X28035D1*
X30245D2*
X33035D1*
X35078D2*
X36416D1*
X38584D2*
X45581D1*
X48580D2*
X49942D1*
X52080D2*
X54441D1*
X560Y15029D2*
X2010D1*
X4914D2*
X7422D1*
X8248D2*
X9627D1*
X10453D2*
X12406D1*
X13689D2*
X14139D1*
X18295D2*
X26231D1*
X26769D2*
X28138D1*
X28862D2*
X29417D1*
X30245D2*
X33138D1*
X35078D2*
X36402D1*
X38598D2*
X45680D1*
X48580D2*
X49922D1*
X52080D2*
X54441D1*
X560Y14930D2*
X1911D1*
X4914D2*
X7422D1*
X8248D2*
X9627D1*
X10453D2*
X12406D1*
X13689D2*
X14139D1*
X18295D2*
X26088D1*
X26912D2*
X28088D1*
X28912D2*
X29417D1*
X30245D2*
X33088D1*
X35078D2*
X36406D1*
X38594D2*
X45778D1*
X48711D2*
X49789D1*
X52080D2*
X54441D1*
X560Y14831D2*
X1813D1*
X4914D2*
X7422D1*
X8248D2*
X9627D1*
X10453D2*
X12561D1*
X14623D2*
X15375D1*
X16500D2*
X16588D1*
X17536D2*
X26003D1*
X28997D2*
X29417D1*
X30245D2*
X33003D1*
X35078D2*
X36427D1*
X38573D2*
X45877D1*
X48711D2*
X49789D1*
X52211D2*
X54441D1*
X560Y14733D2*
X1714D1*
X4914D2*
X7422D1*
X8248D2*
X9627D1*
X10453D2*
X12561D1*
X15115D2*
X15260D1*
X16615D2*
X16686D1*
X17512D2*
X25950D1*
X29050D2*
X29417D1*
X30245D2*
X32950D1*
X35078D2*
X36466D1*
X38534D2*
X45975D1*
X48711D2*
X49789D1*
X52256D2*
X54441D1*
X560Y14634D2*
X1616D1*
X4914D2*
X7422D1*
X8248D2*
X9627D1*
X10453D2*
X12566D1*
X15115D2*
X15260D1*
X16615D2*
X16785D1*
X17459D2*
X25917D1*
X29083D2*
X29417D1*
X30245D2*
X32917D1*
X35078D2*
X36530D1*
X38470D2*
X46075D1*
X48711D2*
X49789D1*
X52433D2*
X54441D1*
X560Y14535D2*
X1517D1*
X4983D2*
X7422D1*
X8248D2*
X9627D1*
X10453D2*
X12566D1*
X15115D2*
X15260D1*
X16615D2*
X16897D1*
X17353D2*
X25903D1*
X29097D2*
X29417D1*
X30245D2*
X32903D1*
X35078D2*
X36628D1*
X38372D2*
X40745D1*
X41255D2*
X41745D1*
X42255D2*
X46075D1*
X48711D2*
X49789D1*
X52495D2*
X54441D1*
X560Y14437D2*
X1417D1*
X5083D2*
X7319D1*
X8556D2*
X8694D1*
X9181D2*
X9627D1*
X10453D2*
X12566D1*
X15115D2*
X15260D1*
X16615D2*
X25905D1*
X29095D2*
X29417D1*
X30245D2*
X32905D1*
X35078D2*
X36595D1*
X38405D2*
X40595D1*
X41405D2*
X41595D1*
X42405D2*
X46010D1*
X48711D2*
X49789D1*
X52515D2*
X54441D1*
X560Y14338D2*
X1319D1*
X5181D2*
X7319D1*
X9342D2*
X9533D1*
X10453D2*
X12566D1*
X15115D2*
X15260D1*
X16615D2*
X25924D1*
X29076D2*
X29417D1*
X30245D2*
X32924D1*
X35078D2*
X36508D1*
X38492D2*
X40508D1*
X42492D2*
X45985D1*
X48711D2*
X49789D1*
X52517D2*
X54441D1*
X560Y14239D2*
X1220D1*
X5280D2*
X7319D1*
X10453D2*
X12566D1*
X15115D2*
X15260D1*
X16615D2*
X25963D1*
X29037D2*
X29417D1*
X30245D2*
X32963D1*
X35078D2*
X36452D1*
X38548D2*
X40452D1*
X42548D2*
X45983D1*
X48711D2*
X49789D1*
X52517D2*
X54441D1*
X560Y14141D2*
X1122D1*
X5378D2*
X7319D1*
X10495D2*
X12566D1*
X15115D2*
X15260D1*
X16615D2*
X26024D1*
X28976D2*
X29350D1*
X32400D2*
X33024D1*
X35078D2*
X36419D1*
X38581D2*
X40419D1*
X42581D2*
X45983D1*
X48711D2*
X49789D1*
X52517D2*
X54441D1*
X560Y14042D2*
X1024D1*
X5476D2*
X7319D1*
X10533D2*
X12566D1*
X15115D2*
X15260D1*
X16615D2*
X26120D1*
X28880D2*
X29350D1*
X32744D2*
X33120D1*
X35078D2*
X36403D1*
X38597D2*
X40331D1*
X42597D2*
X45983D1*
X48711D2*
X49789D1*
X52517D2*
X54441D1*
X560Y13943D2*
X925D1*
X5575D2*
X7319D1*
X10551D2*
X12566D1*
X17747D2*
X26103D1*
X28897D2*
X29350D1*
X32830D2*
X33103D1*
X35078D2*
X36405D1*
X38595D2*
X40233D1*
X42595D2*
X45983D1*
X48711D2*
X49789D1*
X52517D2*
X54441D1*
X560Y13844D2*
X825D1*
X5672D2*
X7319D1*
X10555D2*
X12566D1*
X17747D2*
X26013D1*
X28987D2*
X29350D1*
X32872D2*
X33013D1*
X35078D2*
X36422D1*
X38578D2*
X40133D1*
X42578D2*
X45983D1*
X48711D2*
X49789D1*
X52517D2*
X54441D1*
X560Y13746D2*
X728D1*
X5731D2*
X7319D1*
X10542D2*
X12566D1*
X17747D2*
X25955D1*
X29045D2*
X29350D1*
X32884D2*
X32955D1*
X35078D2*
X36460D1*
X42540D2*
X45983D1*
X48711D2*
X49789D1*
X52517D2*
X54441D1*
X560Y13647D2*
X661D1*
X5758D2*
X7319D1*
X10511D2*
X12566D1*
X17747D2*
X25920D1*
X29080D2*
X29350D1*
X35078D2*
X36519D1*
X42481D2*
X45983D1*
X48711D2*
X49789D1*
X52517D2*
X54441D1*
X560Y13548D2*
X628D1*
X5762D2*
X7319D1*
X10461D2*
X12566D1*
X17747D2*
X25903D1*
X29097D2*
X29350D1*
X35078D2*
X36613D1*
X42387D2*
X45983D1*
X48711D2*
X49789D1*
X52517D2*
X54441D1*
X560Y13450D2*
X620D1*
X5762D2*
X7319D1*
X9383D2*
X9492D1*
X10415D2*
X12561D1*
X17747D2*
X25903D1*
X29097D2*
X29350D1*
X35078D2*
X36611D1*
X42389D2*
X45983D1*
X48711D2*
X49789D1*
X52517D2*
X54441D1*
X560Y13351D2*
X620D1*
X5762D2*
X7319D1*
X8556D2*
X8619D1*
X9256D2*
X9588D1*
X10415D2*
X12561D1*
X17747D2*
X25920D1*
X29080D2*
X29350D1*
X35078D2*
X36517D1*
X42483D2*
X45995D1*
X48580D2*
X49920D1*
X52505D2*
X54441D1*
X560Y13252D2*
X620D1*
X5762D2*
X7463D1*
X8290D2*
X9588D1*
X10415D2*
X12561D1*
X17747D2*
X25956D1*
X29044D2*
X29417D1*
X35078D2*
X36458D1*
X42542D2*
X46042D1*
X52458D2*
X54441D1*
X560Y13154D2*
X620D1*
X5762D2*
X7463D1*
X8290D2*
X9588D1*
X10415D2*
X12561D1*
X17747D2*
X20569D1*
X22830D2*
X26014D1*
X28986D2*
X29350D1*
X35078D2*
X36422D1*
X42578D2*
X46136D1*
X52364D2*
X54441D1*
X560Y13055D2*
X620D1*
X5762D2*
X7463D1*
X8290D2*
X9588D1*
X10415D2*
X12561D1*
X17747D2*
X20569D1*
X22830D2*
X26105D1*
X28895D2*
X29350D1*
X35078D2*
X36403D1*
X42597D2*
X46239D1*
X52261D2*
X54441D1*
X560Y12956D2*
X620D1*
X5762D2*
X7463D1*
X8290D2*
X9588D1*
X10415D2*
X12561D1*
X17747D2*
X20569D1*
X22830D2*
X26119D1*
X28881D2*
X29350D1*
X35078D2*
X36403D1*
X42597D2*
X47367D1*
X52059D2*
X54441D1*
X560Y12858D2*
X620D1*
X5762D2*
X7463D1*
X8290D2*
X9588D1*
X10415D2*
X12561D1*
X13689D2*
X13760D1*
X17747D2*
X20569D1*
X22830D2*
X26022D1*
X28978D2*
X29350D1*
X35078D2*
X36419D1*
X42581D2*
X47367D1*
X52059D2*
X54441D1*
X560Y12759D2*
X620D1*
X5762D2*
X7463D1*
X8290D2*
X9588D1*
X10415D2*
X12561D1*
X13689D2*
X13760D1*
X17747D2*
X20569D1*
X22830D2*
X25961D1*
X29039D2*
X29350D1*
X35078D2*
X36453D1*
X42547D2*
X47367D1*
X52059D2*
X54441D1*
X560Y12660D2*
X620D1*
X5762D2*
X7463D1*
X8290D2*
X9588D1*
X10415D2*
X12561D1*
X13689D2*
X13760D1*
X17747D2*
X20569D1*
X22830D2*
X25924D1*
X29076D2*
X29350D1*
X35078D2*
X36510D1*
X42490D2*
X47367D1*
X52059D2*
X54441D1*
X560Y12562D2*
X620D1*
X5762D2*
X7463D1*
X8290D2*
X9588D1*
X10415D2*
X12561D1*
X13689D2*
X13760D1*
X17747D2*
X20569D1*
X22830D2*
X25905D1*
X29095D2*
X29350D1*
X35078D2*
X36597D1*
X42403D2*
X47367D1*
X52059D2*
X54441D1*
X560Y12463D2*
X620D1*
X5762D2*
X7463D1*
X8290D2*
X9588D1*
X10415D2*
X12561D1*
X13689D2*
X13760D1*
X17747D2*
X20569D1*
X22830D2*
X25903D1*
X29097D2*
X29350D1*
X35078D2*
X36627D1*
X42373D2*
X47367D1*
X52059D2*
X54441D1*
X560Y12364D2*
X620D1*
X5762D2*
X7463D1*
X8290D2*
X9588D1*
X10415D2*
X12561D1*
X13689D2*
X13760D1*
X17747D2*
X20569D1*
X22830D2*
X25917D1*
X29083D2*
X29350D1*
X35078D2*
X36528D1*
X42472D2*
X46441D1*
X52059D2*
X54441D1*
X560Y12265D2*
X620D1*
X5762D2*
X7294D1*
X10583D2*
X12561D1*
X13689D2*
X13760D1*
X17747D2*
X20569D1*
X22830D2*
X25950D1*
X29050D2*
X29417D1*
X35078D2*
X36464D1*
X42536D2*
X45100D1*
X52059D2*
X54441D1*
X560Y12167D2*
X620D1*
X5762D2*
X7294D1*
X10583D2*
X12561D1*
X13689D2*
X13760D1*
X17750D2*
X20569D1*
X22830D2*
X26005D1*
X28995D2*
X29350D1*
X35078D2*
X36425D1*
X42575D2*
X44760D1*
X52059D2*
X54441D1*
X560Y12068D2*
X620D1*
X5762D2*
X7294D1*
X10583D2*
X12561D1*
X13689D2*
X13760D1*
X17865D2*
X20569D1*
X22830D2*
X25902D1*
X28909D2*
X29350D1*
X35078D2*
X36405D1*
X42595D2*
X44674D1*
X52059D2*
X54441D1*
X560Y11969D2*
X620D1*
X5762D2*
X7294D1*
X10583D2*
X12561D1*
X13689D2*
X13874D1*
X17865D2*
X20569D1*
X22830D2*
X25902D1*
X28865D2*
X29350D1*
X35078D2*
X36402D1*
X42598D2*
X44633D1*
X52059D2*
X54441D1*
X560Y11871D2*
X620D1*
X5762D2*
X7294D1*
X10583D2*
X12561D1*
X13689D2*
X13874D1*
X17865D2*
X20569D1*
X22830D2*
X25902D1*
X28967D2*
X29350D1*
X35078D2*
X36416D1*
X42584D2*
X44620D1*
X52059D2*
X54441D1*
X560Y11772D2*
X620D1*
X5762D2*
X7294D1*
X10583D2*
X12561D1*
X17865D2*
X20569D1*
X22830D2*
X25902D1*
X29031D2*
X29350D1*
X35078D2*
X36447D1*
X42553D2*
X44636D1*
X52059D2*
X54441D1*
X560Y11673D2*
X620D1*
X5762D2*
X7294D1*
X10583D2*
X12561D1*
X17865D2*
X20569D1*
X22830D2*
X25902D1*
X29072D2*
X29350D1*
X35078D2*
X36500D1*
X42500D2*
X44680D1*
X52059D2*
X54441D1*
X560Y11575D2*
X620D1*
X5762D2*
X7294D1*
X10583D2*
X12561D1*
X17865D2*
X21686D1*
X22814D2*
X25902D1*
X29094D2*
X29350D1*
X35078D2*
X36583D1*
X42417D2*
X44774D1*
X52059D2*
X54441D1*
X560Y11476D2*
X620D1*
X5762D2*
X7294D1*
X10583D2*
X10939D1*
X11436D2*
X12561D1*
X17865D2*
X21686D1*
X22814D2*
X25902D1*
X29098D2*
X29350D1*
X35078D2*
X36644D1*
X42356D2*
X44697D1*
X52059D2*
X54441D1*
X560Y11377D2*
X620D1*
X5762D2*
X7294D1*
X10583D2*
X10855D1*
X11520D2*
X12561D1*
X17865D2*
X21686D1*
X22814D2*
X25902D1*
X29086D2*
X29350D1*
X35078D2*
X36538D1*
X42462D2*
X44642D1*
X52059D2*
X54441D1*
X560Y11279D2*
X620D1*
X5762D2*
X7294D1*
X10583D2*
X10814D1*
X11561D2*
X12561D1*
X17865D2*
X18847D1*
X20328D2*
X21686D1*
X23178D2*
X25902D1*
X29055D2*
X31011D1*
X35078D2*
X36472D1*
X42528D2*
X44622D1*
X52059D2*
X54441D1*
X560Y11180D2*
X620D1*
X5762D2*
X7463D1*
X8398D2*
X9478D1*
X10415D2*
X10803D1*
X11572D2*
X12561D1*
X17865D2*
X18847D1*
X20328D2*
X21686D1*
X23178D2*
X25902D1*
X29005D2*
X31110D1*
X35078D2*
X36430D1*
X42570D2*
X44627D1*
X52059D2*
X54441D1*
X560Y11081D2*
X620D1*
X5762D2*
X7463D1*
X8398D2*
X9478D1*
X10415D2*
X10819D1*
X11556D2*
X12561D1*
X17865D2*
X18847D1*
X20328D2*
X21686D1*
X23178D2*
X25902D1*
X27098D2*
X28077D1*
X28923D2*
X29205D1*
X35078D2*
X36406D1*
X42594D2*
X44661D1*
X52059D2*
X54441D1*
X560Y10983D2*
X620D1*
X5762D2*
X7463D1*
X8398D2*
X9478D1*
X10414D2*
X10858D1*
X11517D2*
X12561D1*
X16615D2*
X18847D1*
X20328D2*
X21686D1*
X23178D2*
X25902D1*
X27098D2*
X28153D1*
X28847D2*
X29205D1*
X35078D2*
X36402D1*
X42598D2*
X44733D1*
X52059D2*
X54441D1*
X5762Y10884D2*
X7478D1*
X8398D2*
X9478D1*
X10400D2*
X10858D1*
X11517D2*
X12561D1*
X16615D2*
X18847D1*
X20328D2*
X21686D1*
X23178D2*
X28044D1*
X28956D2*
X29205D1*
X32295D2*
X32655D1*
X35078D2*
X36413D1*
X42587D2*
X44919D1*
X52059D2*
X54441D1*
X2428Y10785D2*
X3635D1*
X5762D2*
X7478D1*
X8398D2*
X9478D1*
X10400D2*
X10858D1*
X11517D2*
X12561D1*
X16615D2*
X18847D1*
X20328D2*
X21686D1*
X23178D2*
X27975D1*
X29025D2*
X29205D1*
X32295D2*
X32753D1*
X35078D2*
X36442D1*
X42558D2*
X46441D1*
X52059D2*
X52789D1*
X53086D2*
X54441D1*
X2428Y10686D2*
X3635D1*
X5762D2*
X7478D1*
X8398D2*
X9478D1*
X10400D2*
X10858D1*
X11517D2*
X12561D1*
X16615D2*
X18847D1*
X20328D2*
X21686D1*
X23178D2*
X27931D1*
X29069D2*
X29205D1*
X32295D2*
X32853D1*
X35078D2*
X36492D1*
X42508D2*
X46441D1*
X52059D2*
X52649D1*
X53226D2*
X54441D1*
X2428Y10588D2*
X3635D1*
X5762D2*
X7478D1*
X8398D2*
X9478D1*
X10400D2*
X10858D1*
X11517D2*
X12561D1*
X16615D2*
X18847D1*
X20328D2*
X21686D1*
X23178D2*
X27908D1*
X29092D2*
X29205D1*
X32295D2*
X32908D1*
X35078D2*
X36570D1*
X42598D2*
X46936D1*
X52059D2*
X52585D1*
X53290D2*
X54441D1*
X2428Y10489D2*
X3635D1*
X5762D2*
X7478D1*
X8398D2*
X9478D1*
X10400D2*
X10858D1*
X11517D2*
X12561D1*
X16615D2*
X18542D1*
X20328D2*
X21686D1*
X23178D2*
X27902D1*
X29098D2*
X29205D1*
X32295D2*
X32902D1*
X35078D2*
X36663D1*
X42598D2*
X46960D1*
X52059D2*
X52556D1*
X53319D2*
X54441D1*
X1414Y10390D2*
X4716D1*
X5762D2*
X7478D1*
X8398D2*
X9478D1*
X10400D2*
X10858D1*
X11517D2*
X12561D1*
X16615D2*
X18410D1*
X20328D2*
X21686D1*
X23178D2*
X27911D1*
X29089D2*
X29205D1*
X32295D2*
X32911D1*
X35078D2*
X36550D1*
X42598D2*
X46989D1*
X52059D2*
X52556D1*
X53319D2*
X54441D1*
X1414Y10292D2*
X4814D1*
X5759D2*
X7478D1*
X8398D2*
X9478D1*
X10400D2*
X10858D1*
X11517D2*
X12561D1*
X17865D2*
X18311D1*
X20328D2*
X21686D1*
X23178D2*
X27939D1*
X29061D2*
X29205D1*
X32295D2*
X32939D1*
X35078D2*
X36478D1*
X42598D2*
X46989D1*
X52059D2*
X52583D1*
X53292D2*
X54441D1*
X1414Y10193D2*
X4899D1*
X5734D2*
X7478D1*
X8398D2*
X9478D1*
X10400D2*
X10858D1*
X11517D2*
X12561D1*
X17865D2*
X18213D1*
X20328D2*
X21686D1*
X23178D2*
X27988D1*
X29012D2*
X29205D1*
X32295D2*
X32988D1*
X35078D2*
X36435D1*
X42598D2*
X45486D1*
X53267D2*
X54441D1*
X1414Y10094D2*
X1788D1*
X2212D2*
X4038D1*
X4462D2*
X4899D1*
X5726D2*
X7478D1*
X8398D2*
X9478D1*
X10400D2*
X10858D1*
X11517D2*
X12561D1*
X17865D2*
X18114D1*
X20328D2*
X21694D1*
X23178D2*
X28064D1*
X28936D2*
X29205D1*
X32295D2*
X33064D1*
X35078D2*
X36410D1*
X42598D2*
X45383D1*
X53267D2*
X54441D1*
X1414Y9996D2*
X1605D1*
X2395D2*
X3855D1*
X4645D2*
X4899D1*
X5726D2*
X7478D1*
X8398D2*
X9478D1*
X10400D2*
X10858D1*
X11517D2*
X12561D1*
X17865D2*
X18014D1*
X20328D2*
X21697D1*
X23178D2*
X27902D1*
X29098D2*
X29205D1*
X32295D2*
X32902D1*
X35078D2*
X36402D1*
X42598D2*
X45291D1*
X53267D2*
X54441D1*
X1414Y9897D2*
X1503D1*
X2497D2*
X3753D1*
X4747D2*
X4899D1*
X5726D2*
X7392D1*
X8551D2*
X9358D1*
X10517D2*
X10858D1*
X11517D2*
X12561D1*
X20328D2*
X21692D1*
X23178D2*
X25081D1*
X32295D2*
X32902D1*
X35078D2*
X36411D1*
X42598D2*
X45245D1*
X53267D2*
X54441D1*
X2562Y9798D2*
X3688D1*
X4812D2*
X4899D1*
X5726D2*
X7392D1*
X8551D2*
X9358D1*
X10517D2*
X10858D1*
X11517D2*
X12561D1*
X20328D2*
X21686D1*
X23178D2*
X25081D1*
X32295D2*
X32902D1*
X35078D2*
X36438D1*
X42598D2*
X45233D1*
X53267D2*
X54441D1*
X2605Y9700D2*
X3645D1*
X5726D2*
X7392D1*
X8551D2*
X9358D1*
X10517D2*
X10858D1*
X11517D2*
X12561D1*
X20328D2*
X21686D1*
X23178D2*
X25081D1*
X32295D2*
X32902D1*
X35078D2*
X36485D1*
X42598D2*
X45233D1*
X53267D2*
X54441D1*
X2630Y9601D2*
X3620D1*
X5726D2*
X7392D1*
X8551D2*
X9358D1*
X10517D2*
X10858D1*
X11517D2*
X12561D1*
X20328D2*
X21686D1*
X23178D2*
X25081D1*
X32295D2*
X32902D1*
X35078D2*
X36558D1*
X42598D2*
X45233D1*
X53267D2*
X54441D1*
X2637Y9502D2*
X3613D1*
X5726D2*
X7392D1*
X8551D2*
X9358D1*
X10517D2*
X10858D1*
X11517D2*
X12561D1*
X13915D2*
X16510D1*
X20328D2*
X21686D1*
X23178D2*
X25081D1*
X32295D2*
X32902D1*
X35078D2*
X36677D1*
X42598D2*
X45233D1*
X53267D2*
X54441D1*
X2631Y9404D2*
X3619D1*
X5726D2*
X7392D1*
X8551D2*
X9358D1*
X10517D2*
X10858D1*
X11517D2*
X12569D1*
X14015D2*
X16510D1*
X20328D2*
X21686D1*
X23178D2*
X25081D1*
X32295D2*
X32902D1*
X35078D2*
X36561D1*
X42314D2*
X45233D1*
X53267D2*
X54441D1*
X2606Y9305D2*
X3644D1*
X5726D2*
X7392D1*
X8551D2*
X9358D1*
X10517D2*
X10858D1*
X11517D2*
X12597D1*
X14114D2*
X16510D1*
X20328D2*
X21686D1*
X23178D2*
X25081D1*
X32295D2*
X32902D1*
X35078D2*
X36486D1*
X42262D2*
X45233D1*
X53267D2*
X54441D1*
X2565Y9206D2*
X3685D1*
X4815D2*
X4899D1*
X5726D2*
X7392D1*
X8551D2*
X9358D1*
X10517D2*
X10858D1*
X11517D2*
X12645D1*
X14914D2*
X15567D1*
X16647D2*
X17225D1*
X20328D2*
X21686D1*
X23178D2*
X25081D1*
X32295D2*
X32902D1*
X35078D2*
X36439D1*
X42134D2*
X45233D1*
X53267D2*
X54441D1*
X2500Y9107D2*
X3750D1*
X4750D2*
X4899D1*
X5726D2*
X7392D1*
X8551D2*
X9358D1*
X10517D2*
X10858D1*
X11517D2*
X12724D1*
X14914D2*
X15567D1*
X18714D2*
X18847D1*
X20328D2*
X21686D1*
X23178D2*
X25081D1*
X32295D2*
X32902D1*
X35078D2*
X36411D1*
X39569D2*
X45233D1*
X53267D2*
X54441D1*
X2401Y9009D2*
X3849D1*
X4651D2*
X4899D1*
X5726D2*
X7392D1*
X8551D2*
X9358D1*
X10517D2*
X10858D1*
X11517D2*
X12824D1*
X14914D2*
X15567D1*
X18614D2*
X18847D1*
X20328D2*
X21686D1*
X23178D2*
X25239D1*
X25886D2*
X27902D1*
X29098D2*
X29205D1*
X32295D2*
X32902D1*
X35078D2*
X36402D1*
X39470D2*
X45233D1*
X53267D2*
X54441D1*
X2486Y8910D2*
X3764D1*
X4736D2*
X4828D1*
X5726D2*
X7392D1*
X8551D2*
X9358D1*
X10517D2*
X10858D1*
X11517D2*
X12922D1*
X14914D2*
X15567D1*
X18515D2*
X18847D1*
X20328D2*
X21686D1*
X23178D2*
X25239D1*
X25886D2*
X33925D1*
X35078D2*
X36408D1*
X39372D2*
X45233D1*
X53267D2*
X54441D1*
X2555Y8811D2*
X3695D1*
X5726D2*
X10858D1*
X11517D2*
X13020D1*
X14917D2*
X15567D1*
X18417D2*
X18847D1*
X20328D2*
X21686D1*
X23178D2*
X25239D1*
X25886D2*
X33925D1*
X35078D2*
X36433D1*
X39272D2*
X45233D1*
X53267D2*
X54441D1*
X560Y8713D2*
X655D1*
X2601D2*
X3649D1*
X5714D2*
X7392D1*
X8551D2*
X9358D1*
X10517D2*
X10858D1*
X11517D2*
X13119D1*
X14945D2*
X15550D1*
X18319D2*
X18847D1*
X20328D2*
X21686D1*
X23178D2*
X25199D1*
X25886D2*
X33925D1*
X35078D2*
X36477D1*
X39173D2*
X45250D1*
X53250D2*
X54441D1*
X560Y8614D2*
X742D1*
X2628D2*
X3622D1*
X5675D2*
X7392D1*
X8551D2*
X9358D1*
X10517D2*
X10858D1*
X11517D2*
X13217D1*
X14955D2*
X15544D1*
X20731D2*
X21686D1*
X23169D2*
X25100D1*
X25886D2*
X33925D1*
X35078D2*
X36545D1*
X39075D2*
X45303D1*
X53197D2*
X54441D1*
X560Y8515D2*
X841D1*
X2637D2*
X3613D1*
X5597D2*
X7392D1*
X8551D2*
X9358D1*
X10517D2*
X10858D1*
X11517D2*
X13316D1*
X14955D2*
X15555D1*
X20825D2*
X21686D1*
X23262D2*
X25000D1*
X25867D2*
X33925D1*
X35078D2*
X36656D1*
X38976D2*
X45399D1*
X53101D2*
X54441D1*
X560Y8417D2*
X939D1*
X2633D2*
X3617D1*
X5498D2*
X7392D1*
X8551D2*
X9358D1*
X10517D2*
X10858D1*
X11517D2*
X13416D1*
X14955D2*
X15560D1*
X20869D2*
X21686D1*
X23306D2*
X24902D1*
X25809D2*
X33925D1*
X35078D2*
X36575D1*
X38878D2*
X45539D1*
X52961D2*
X54441D1*
X560Y8318D2*
X1038D1*
X2611D2*
X3639D1*
X5400D2*
X7392D1*
X8551D2*
X9358D1*
X10517D2*
X10858D1*
X11517D2*
X13514D1*
X14955D2*
X15560D1*
X20884D2*
X21686D1*
X23322D2*
X24803D1*
X25711D2*
X27052D1*
X35078D2*
X36495D1*
X38780D2*
X46289D1*
X52211D2*
X54441D1*
X560Y8219D2*
X1138D1*
X2572D2*
X3678D1*
X5300D2*
X7392D1*
X8551D2*
X9358D1*
X10517D2*
X10858D1*
X11517D2*
X13613D1*
X14955D2*
X15560D1*
X23309D2*
X24719D1*
X25612D2*
X26949D1*
X35078D2*
X36444D1*
X38680D2*
X47920D1*
X50580D2*
X54441D1*
X560Y8121D2*
X1289D1*
X2637D2*
X3613D1*
X5148D2*
X7392D1*
X8551D2*
X9358D1*
X10517D2*
X10858D1*
X11517D2*
X13761D1*
X14955D2*
X15560D1*
X23269D2*
X24681D1*
X25514D2*
X26849D1*
X35078D2*
X36414D1*
X38586D2*
X47920D1*
X50580D2*
X54441D1*
X560Y8022D2*
X1363D1*
X2637D2*
X3613D1*
X4887D2*
X7392D1*
X8551D2*
X9358D1*
X10517D2*
X10858D1*
X11517D2*
X13813D1*
X14970D2*
X15545D1*
X23183D2*
X24677D1*
X25415D2*
X26750D1*
X35078D2*
X36402D1*
X38598D2*
X47920D1*
X50580D2*
X54441D1*
X560Y7923D2*
X1363D1*
X2637D2*
X3613D1*
X4887D2*
X7392D1*
X8551D2*
X9358D1*
X10517D2*
X10858D1*
X11517D2*
X13813D1*
X14970D2*
X15545D1*
X19080D2*
X20569D1*
X22830D2*
X24677D1*
X25323D2*
X26652D1*
X35078D2*
X36406D1*
X38594D2*
X47920D1*
X50580D2*
X54441D1*
X560Y7825D2*
X1363D1*
X2637D2*
X3613D1*
X4887D2*
X7392D1*
X8551D2*
X9358D1*
X10517D2*
X10858D1*
X11517D2*
X13813D1*
X19080D2*
X20569D1*
X22830D2*
X24677D1*
X25323D2*
X26553D1*
X35073D2*
X36428D1*
X38572D2*
X47916D1*
X50584D2*
X54441D1*
X560Y7726D2*
X1363D1*
X2637D2*
X3613D1*
X4887D2*
X7392D1*
X8551D2*
X9358D1*
X10517D2*
X10858D1*
X11517D2*
X13813D1*
X19080D2*
X20569D1*
X22830D2*
X24677D1*
X35039D2*
X36469D1*
X38548D2*
X47877D1*
X50623D2*
X54441D1*
X560Y7627D2*
X1363D1*
X2637D2*
X3613D1*
X4887D2*
X10858D1*
X11517D2*
X13813D1*
X19080D2*
X20569D1*
X22830D2*
X24677D1*
X34959D2*
X36535D1*
X38647D2*
X47866D1*
X50634D2*
X54441D1*
X560Y7528D2*
X1363D1*
X2637D2*
X3613D1*
X4887D2*
X10858D1*
X11517D2*
X13813D1*
X19080D2*
X20569D1*
X22830D2*
X24677D1*
X27180D2*
X27280D1*
X34861D2*
X36638D1*
X38745D2*
X40731D1*
X41269D2*
X41731D1*
X42269D2*
X47883D1*
X50617D2*
X54441D1*
X560Y7430D2*
X1363D1*
X2637D2*
X3613D1*
X4887D2*
X10858D1*
X11517D2*
X13813D1*
X19080D2*
X20569D1*
X22830D2*
X24677D1*
X27080D2*
X27280D1*
X34761D2*
X36588D1*
X38844D2*
X40588D1*
X41412D2*
X41588D1*
X42412D2*
X47930D1*
X50570D2*
X54441D1*
X560Y7331D2*
X1363D1*
X2637D2*
X3613D1*
X4887D2*
X10858D1*
X11517D2*
X12038D1*
X13667D2*
X13813D1*
X19080D2*
X20569D1*
X22830D2*
X24677D1*
X26981D2*
X27280D1*
X34662D2*
X36503D1*
X38942D2*
X40503D1*
X42497D2*
X48027D1*
X48473D2*
X48533D1*
X50473D2*
X54441D1*
X560Y7232D2*
X1363D1*
X2637D2*
X3613D1*
X4887D2*
X10858D1*
X11517D2*
X11994D1*
X19080D2*
X20569D1*
X22830D2*
X24677D1*
X26920D2*
X27280D1*
X31901D2*
X32519D1*
X34150D2*
X36449D1*
X39040D2*
X40449D1*
X42551D2*
X48533D1*
X49986D2*
X54441D1*
X560Y7134D2*
X1363D1*
X2637D2*
X3613D1*
X4887D2*
X10858D1*
X11517D2*
X11861D1*
X19080D2*
X20569D1*
X22830D2*
X24677D1*
X26920D2*
X27280D1*
X31901D2*
X32519D1*
X34150D2*
X36417D1*
X39139D2*
X40417D1*
X42583D2*
X48533D1*
X49986D2*
X54441D1*
X560Y7035D2*
X1363D1*
X2637D2*
X3613D1*
X4887D2*
X10858D1*
X11517D2*
X11761D1*
X18962D2*
X20569D1*
X22830D2*
X24677D1*
X26920D2*
X27280D1*
X31901D2*
X32519D1*
X34150D2*
X36403D1*
X39239D2*
X40403D1*
X42597D2*
X48992D1*
X49758D2*
X49941D1*
X51059D2*
X52253D1*
X53372D2*
X54441D1*
X560Y6936D2*
X1363D1*
X2637D2*
X3613D1*
X4887D2*
X10858D1*
X11517D2*
X11695D1*
X18962D2*
X20569D1*
X22830D2*
X24677D1*
X26920D2*
X27280D1*
X31901D2*
X32519D1*
X34150D2*
X36405D1*
X39337D2*
X40405D1*
X42595D2*
X48997D1*
X49753D2*
X49941D1*
X51059D2*
X51592D1*
X53372D2*
X54441D1*
X560Y6838D2*
X1670D1*
X2330D2*
X3920D1*
X4580D2*
X10858D1*
X11517D2*
X11672D1*
X18962D2*
X20569D1*
X22830D2*
X24677D1*
X25323D2*
X25378D1*
X26909D2*
X27280D1*
X31901D2*
X32519D1*
X34150D2*
X36424D1*
X39436D2*
X40424D1*
X42576D2*
X49028D1*
X49722D2*
X49941D1*
X51059D2*
X51592D1*
X53372D2*
X54441D1*
X560Y6739D2*
X1670D1*
X2330D2*
X3920D1*
X4580D2*
X10858D1*
X11517D2*
X11670D1*
X18962D2*
X20569D1*
X22830D2*
X24677D1*
X25323D2*
X25378D1*
X26909D2*
X27280D1*
X31901D2*
X32519D1*
X34150D2*
X36463D1*
X42537D2*
X49097D1*
X49653D2*
X49941D1*
X51059D2*
X51592D1*
X53372D2*
X54441D1*
X560Y6640D2*
X1670D1*
X2330D2*
X3920D1*
X4580D2*
X10858D1*
X11517D2*
X11670D1*
X18962D2*
X21789D1*
X22711D2*
X24677D1*
X25323D2*
X25378D1*
X26909D2*
X27538D1*
X31901D2*
X32483D1*
X34270D2*
X36524D1*
X42476D2*
X49263D1*
X49487D2*
X49941D1*
X51059D2*
X51592D1*
X53372D2*
X54441D1*
X560Y6542D2*
X1670D1*
X2330D2*
X3920D1*
X4580D2*
X10858D1*
X11517D2*
X11670D1*
X18794D2*
X21789D1*
X22711D2*
X24677D1*
X25323D2*
X25378D1*
X26909D2*
X27627D1*
X31901D2*
X32483D1*
X34270D2*
X36620D1*
X42380D2*
X44260D1*
X44740D2*
X49941D1*
X53372D2*
X54441D1*
X560Y6443D2*
X1670D1*
X2330D2*
X3920D1*
X4580D2*
X10858D1*
X11517D2*
X11670D1*
X18962D2*
X21789D1*
X22711D2*
X24677D1*
X25323D2*
X25378D1*
X26909D2*
X27725D1*
X31901D2*
X32483D1*
X34270D2*
X36602D1*
X42398D2*
X44102D1*
X44898D2*
X49941D1*
X53372D2*
X54441D1*
X560Y6344D2*
X1539D1*
X4711D2*
X10858D1*
X11517D2*
X11670D1*
X18962D2*
X21789D1*
X22711D2*
X24677D1*
X25323D2*
X25378D1*
X26909D2*
X27824D1*
X31901D2*
X32483D1*
X34270D2*
X36513D1*
X42487D2*
X44013D1*
X44987D2*
X48533D1*
X53372D2*
X54441D1*
X560Y6246D2*
X1539D1*
X4711D2*
X10858D1*
X11517D2*
X11670D1*
X14970D2*
X15545D1*
X18962D2*
X21789D1*
X22711D2*
X24677D1*
X25323D2*
X25378D1*
X26909D2*
X27833D1*
X31901D2*
X32483D1*
X34270D2*
X36455D1*
X42545D2*
X43955D1*
X45214D2*
X48533D1*
X53372D2*
X54441D1*
X560Y6147D2*
X1539D1*
X4711D2*
X10858D1*
X11517D2*
X11670D1*
X14970D2*
X15545D1*
X16703D2*
X17017D1*
X18962D2*
X21789D1*
X22711D2*
X24677D1*
X25323D2*
X25752D1*
X26534D2*
X27833D1*
X31331D2*
X32483D1*
X34270D2*
X36420D1*
X42580D2*
X43920D1*
X45314D2*
X48533D1*
X53372D2*
X54441D1*
X560Y6048D2*
X1539D1*
X4711D2*
X10858D1*
X11517D2*
X11670D1*
X14578D2*
X15795D1*
X16453D2*
X17116D1*
X18962D2*
X21789D1*
X22711D2*
X24677D1*
X25323D2*
X25752D1*
X26534D2*
X27833D1*
X31067D2*
X32474D1*
X34270D2*
X36403D1*
X42597D2*
X43903D1*
X45412D2*
X48533D1*
X53372D2*
X54441D1*
X560Y5949D2*
X1539D1*
X4711D2*
X10858D1*
X11517D2*
X11670D1*
X15400D2*
X15795D1*
X16453D2*
X17214D1*
X18981D2*
X21789D1*
X22711D2*
X24677D1*
X25323D2*
X25752D1*
X26534D2*
X27833D1*
X31067D2*
X32430D1*
X34270D2*
X36403D1*
X42597D2*
X43903D1*
X45511D2*
X48533D1*
X53372D2*
X54441D1*
X560Y5851D2*
X1539D1*
X4711D2*
X10858D1*
X11517D2*
X11670D1*
X15400D2*
X15664D1*
X17147D2*
X17313D1*
X18981D2*
X21789D1*
X22711D2*
X24677D1*
X25323D2*
X25752D1*
X26534D2*
X27833D1*
X31067D2*
X32420D1*
X34270D2*
X36420D1*
X42580D2*
X43920D1*
X53372D2*
X54441D1*
X560Y5752D2*
X1539D1*
X4711D2*
X10858D1*
X11517D2*
X11670D1*
X15400D2*
X15664D1*
X17147D2*
X17331D1*
X18981D2*
X21789D1*
X22711D2*
X24677D1*
X25323D2*
X25752D1*
X26534D2*
X27833D1*
X31067D2*
X32420D1*
X34270D2*
X36456D1*
X42544D2*
X43956D1*
X53372D2*
X54441D1*
X560Y5653D2*
X1539D1*
X4711D2*
X10858D1*
X11517D2*
X11670D1*
X15400D2*
X15664D1*
X17147D2*
X17331D1*
X18981D2*
X21789D1*
X22711D2*
X24677D1*
X25323D2*
X25752D1*
X26534D2*
X27833D1*
X30925D2*
X32420D1*
X34270D2*
X36514D1*
X42486D2*
X44014D1*
X53372D2*
X54441D1*
X560Y5555D2*
X1539D1*
X4711D2*
X10858D1*
X11517D2*
X11670D1*
X15400D2*
X15664D1*
X17147D2*
X17350D1*
X18981D2*
X21789D1*
X22711D2*
X24677D1*
X25323D2*
X25752D1*
X26534D2*
X27833D1*
X30925D2*
X32420D1*
X33080D2*
X36605D1*
X42395D2*
X44105D1*
X53456D2*
X54441D1*
X560Y5456D2*
X1539D1*
X4711D2*
X10858D1*
X11517D2*
X11670D1*
X12330D2*
X13545D1*
X15400D2*
X15664D1*
X17147D2*
X17350D1*
X18981D2*
X21789D1*
X22711D2*
X24677D1*
X25323D2*
X25752D1*
X26534D2*
X27833D1*
X30925D2*
X32420D1*
X33080D2*
X36617D1*
X42383D2*
X44117D1*
X53645D2*
X54441D1*
X560Y5357D2*
X1539D1*
X4711D2*
X10858D1*
X11517D2*
X11670D1*
X12330D2*
X13545D1*
X15439D2*
X15664D1*
X17147D2*
X17350D1*
X18981D2*
X20260D1*
X20740D2*
X21635D1*
X22711D2*
X24677D1*
X25323D2*
X25752D1*
X26534D2*
X27833D1*
X28775D2*
X29220D1*
X30925D2*
X32420D1*
X33080D2*
X36522D1*
X42478D2*
X44022D1*
X53719D2*
X54441D1*
X560Y5259D2*
X1539D1*
X4711D2*
X10858D1*
X11517D2*
X11670D1*
X12330D2*
X13545D1*
X15439D2*
X15664D1*
X17147D2*
X17350D1*
X18981D2*
X20172D1*
X20828D2*
X21547D1*
X22711D2*
X24677D1*
X25323D2*
X25814D1*
X26472D2*
X29610D1*
X30925D2*
X32420D1*
X33080D2*
X36461D1*
X42539D2*
X43961D1*
X53751D2*
X54441D1*
X560Y5160D2*
X1539D1*
X4711D2*
X10858D1*
X11517D2*
X11670D1*
X12330D2*
X13545D1*
X15439D2*
X15664D1*
X17147D2*
X17350D1*
X18981D2*
X20128D1*
X20872D2*
X21503D1*
X22711D2*
X24677D1*
X25323D2*
X25814D1*
X26472D2*
X29511D1*
X30925D2*
X32420D1*
X33080D2*
X36424D1*
X42576D2*
X43924D1*
X49558D2*
X49711D1*
X53758D2*
X54441D1*
X560Y5061D2*
X1539D1*
X4711D2*
X10858D1*
X11517D2*
X11670D1*
X12330D2*
X13550D1*
X15439D2*
X15664D1*
X17147D2*
X17350D1*
X18981D2*
X20116D1*
X20884D2*
X21491D1*
X22711D2*
X24677D1*
X25323D2*
X25814D1*
X26472D2*
X29413D1*
X30925D2*
X32152D1*
X33348D2*
X33563D1*
X33937D2*
X36405D1*
X42595D2*
X43905D1*
X49459D2*
X49733D1*
X53737D2*
X54441D1*
X560Y4963D2*
X1539D1*
X4711D2*
X10858D1*
X11517D2*
X11670D1*
X12330D2*
X13581D1*
X15439D2*
X15664D1*
X17147D2*
X17350D1*
X18981D2*
X20130D1*
X20870D2*
X21505D1*
X22711D2*
X24677D1*
X25323D2*
X25814D1*
X26472D2*
X29314D1*
X30925D2*
X32152D1*
X34123D2*
X36403D1*
X42597D2*
X43903D1*
X49361D2*
X49733D1*
X53684D2*
X54441D1*
X560Y4864D2*
X1539D1*
X4711D2*
X10858D1*
X11517D2*
X11670D1*
X12330D2*
X13652D1*
X15439D2*
X15664D1*
X17147D2*
X17350D1*
X18981D2*
X20170D1*
X20830D2*
X21549D1*
X22711D2*
X24677D1*
X25323D2*
X25814D1*
X26472D2*
X29225D1*
X30925D2*
X32152D1*
X34223D2*
X36417D1*
X42583D2*
X43917D1*
X49262D2*
X49733D1*
X53572D2*
X54441D1*
X560Y4765D2*
X2394D1*
X3856D2*
X10858D1*
X11517D2*
X11670D1*
X12330D2*
X13652D1*
X15439D2*
X15664D1*
X17147D2*
X17350D1*
X18981D2*
X20170D1*
X20830D2*
X21638D1*
X22711D2*
X24677D1*
X25323D2*
X25777D1*
X27573D2*
X29181D1*
X31080D2*
X32152D1*
X34286D2*
X36450D1*
X43125D2*
X43950D1*
X49125D2*
X49738D1*
X53231D2*
X54441D1*
X560Y4667D2*
X2369D1*
X3881D2*
X10858D1*
X11517D2*
X11670D1*
X12330D2*
X13652D1*
X15439D2*
X15664D1*
X17147D2*
X17350D1*
X18981D2*
X20170D1*
X20830D2*
X21789D1*
X22711D2*
X24677D1*
X25323D2*
X25622D1*
X27573D2*
X29119D1*
X31080D2*
X32152D1*
X34325D2*
X36505D1*
X43231D2*
X44005D1*
X45628D2*
X49769D1*
X53231D2*
X54441D1*
X560Y4568D2*
X2370D1*
X3880D2*
X10858D1*
X11517D2*
X11670D1*
X12330D2*
X13652D1*
X15439D2*
X15664D1*
X17147D2*
X17350D1*
X18981D2*
X20170D1*
X20830D2*
X21789D1*
X22711D2*
X24677D1*
X25323D2*
X25535D1*
X27573D2*
X29035D1*
X31080D2*
X32152D1*
X34345D2*
X36591D1*
X43331D2*
X44091D1*
X45580D2*
X49845D1*
X53231D2*
X54441D1*
X560Y4469D2*
X2400D1*
X3100D2*
X3150D1*
X3850D2*
X10838D1*
X11537D2*
X11670D1*
X12330D2*
X13652D1*
X15439D2*
X15664D1*
X17147D2*
X20170D1*
X20830D2*
X21789D1*
X22711D2*
X24677D1*
X25323D2*
X25478D1*
X27573D2*
X28981D1*
X31080D2*
X32152D1*
X34348D2*
X36635D1*
X43430D2*
X44135D1*
X45580D2*
X49945D1*
X53231D2*
X54441D1*
X560Y4370D2*
X2466D1*
X3034D2*
X3216D1*
X3784D2*
X10808D1*
X11567D2*
X11670D1*
X12330D2*
X13652D1*
X15439D2*
X15664D1*
X17147D2*
X20170D1*
X20830D2*
X21789D1*
X22711D2*
X24677D1*
X25323D2*
X25447D1*
X27573D2*
X28950D1*
X31080D2*
X32152D1*
X34334D2*
X36533D1*
X43528D2*
X44033D1*
X45580D2*
X50044D1*
X53231D2*
X54441D1*
X560Y4272D2*
X2617D1*
X2883D2*
X3367D1*
X3633D2*
X10806D1*
X11569D2*
X11670D1*
X12330D2*
X13652D1*
X15439D2*
X16306D1*
X17069D2*
X20170D1*
X20830D2*
X21789D1*
X22711D2*
X24677D1*
X25323D2*
X25433D1*
X27573D2*
X28938D1*
X31080D2*
X32152D1*
X34303D2*
X36467D1*
X45580D2*
X50142D1*
X53231D2*
X54441D1*
X560Y4173D2*
X10830D1*
X11545D2*
X11670D1*
X12412D2*
X16330D1*
X17045D2*
X20170D1*
X20830D2*
X21789D1*
X22711D2*
X24677D1*
X25323D2*
X25436D1*
X27573D2*
X28942D1*
X31080D2*
X32152D1*
X34250D2*
X36428D1*
X45580D2*
X50241D1*
X53231D2*
X54441D1*
X560Y4074D2*
X10889D1*
X11486D2*
X11675D1*
X12511D2*
X16389D1*
X16986D2*
X20170D1*
X20830D2*
X21789D1*
X22711D2*
X24677D1*
X25323D2*
X25458D1*
X27573D2*
X28964D1*
X31080D2*
X32152D1*
X34167D2*
X36406D1*
X45580D2*
X50339D1*
X53231D2*
X54441D1*
X560Y3976D2*
X11014D1*
X11361D2*
X11708D1*
X12611D2*
X16514D1*
X16861D2*
X20139D1*
X20830D2*
X21789D1*
X22711D2*
X24677D1*
X25323D2*
X25499D1*
X27573D2*
X29008D1*
X31080D2*
X32152D1*
X33348D2*
X33472D1*
X34028D2*
X36402D1*
X45578D2*
X50452D1*
X53231D2*
X54441D1*
X560Y3877D2*
X11788D1*
X12709D2*
X20041D1*
X20830D2*
X21836D1*
X22664D2*
X24677D1*
X25323D2*
X25564D1*
X27573D2*
X29077D1*
X31080D2*
X32239D1*
X32886D2*
X36414D1*
X45555D2*
X51600D1*
X53231D2*
X54441D1*
X560Y3778D2*
X11886D1*
X12808D2*
X19942D1*
X20814D2*
X21836D1*
X22664D2*
X24677D1*
X25323D2*
X25672D1*
X26350D2*
X26416D1*
X27573D2*
X29188D1*
X29844D2*
X29920D1*
X31080D2*
X32239D1*
X32886D2*
X36445D1*
X45489D2*
X54441D1*
X560Y3680D2*
X11985D1*
X12906D2*
X19844D1*
X20762D2*
X21836D1*
X22664D2*
X24677D1*
X25323D2*
X25919D1*
X26103D2*
X26416D1*
X27573D2*
X32239D1*
X32886D2*
X36497D1*
X45003D2*
X54441D1*
X560Y3581D2*
X12083D1*
X13005D2*
X19745D1*
X20667D2*
X21836D1*
X22664D2*
X24677D1*
X25323D2*
X26581D1*
X27409D2*
X32239D1*
X32886D2*
X36577D1*
X45098D2*
X54441D1*
X560Y3482D2*
X12181D1*
X20569D2*
X21836D1*
X22664D2*
X24677D1*
X25323D2*
X26581D1*
X27409D2*
X32239D1*
X32886D2*
X36653D1*
X45098D2*
X47152D1*
X48348D2*
X48517D1*
X48983D2*
X49517D1*
X49983D2*
X50517D1*
X50983D2*
X54441D1*
X560Y3384D2*
X12280D1*
X20470D2*
X21836D1*
X22664D2*
X24677D1*
X25323D2*
X26555D1*
X27409D2*
X32239D1*
X32886D2*
X36544D1*
X45098D2*
X47152D1*
X49144D2*
X49356D1*
X50144D2*
X50356D1*
X51144D2*
X54441D1*
X560Y3285D2*
X12380D1*
X20370D2*
X21836D1*
X22664D2*
X24677D1*
X27409D2*
X32239D1*
X32886D2*
X36475D1*
X45098D2*
X47152D1*
X51236D2*
X54441D1*
X560Y3186D2*
X12478D1*
X20272D2*
X21836D1*
X22664D2*
X24577D1*
X27405D2*
X32239D1*
X32886D2*
X36431D1*
X45098D2*
X47152D1*
X51294D2*
X54441D1*
X560Y3088D2*
X12577D1*
X20173D2*
X21836D1*
X22664D2*
X24520D1*
X27378D2*
X32239D1*
X32886D2*
X36408D1*
X38592D2*
X40389D1*
X45098D2*
X47152D1*
X51330D2*
X54441D1*
X560Y2989D2*
X12681D1*
X20069D2*
X21836D1*
X22664D2*
X24475D1*
X27319D2*
X32239D1*
X32886D2*
X36402D1*
X38598D2*
X40402D1*
X45098D2*
X47152D1*
X51347D2*
X54441D1*
X560Y2890D2*
X21836D1*
X22664D2*
X24377D1*
X27223D2*
X32239D1*
X32886D2*
X36411D1*
X38589D2*
X40411D1*
X45098D2*
X47152D1*
X51347D2*
X54441D1*
X560Y2791D2*
X21836D1*
X22664D2*
X24277D1*
X27125D2*
X32239D1*
X32886D2*
X36439D1*
X38561D2*
X40439D1*
X45098D2*
X47152D1*
X51330D2*
X54441D1*
X560Y2693D2*
X21836D1*
X22664D2*
X24205D1*
X27026D2*
X32239D1*
X32886D2*
X36488D1*
X38512D2*
X40488D1*
X45098D2*
X47152D1*
X51295D2*
X54441D1*
X560Y2594D2*
X21836D1*
X22664D2*
X24178D1*
X26912D2*
X32239D1*
X32886D2*
X36564D1*
X37436D2*
X37564D1*
X38436D2*
X40564D1*
X42598D2*
X43902D1*
X45098D2*
X47152D1*
X51237D2*
X54441D1*
X560Y2495D2*
X21836D1*
X22664D2*
X24177D1*
X24901D2*
X32239D1*
X32886D2*
X36688D1*
X37312D2*
X37688D1*
X38312D2*
X40688D1*
X41312D2*
X41402D1*
X42598D2*
X43902D1*
X45098D2*
X47152D1*
X49148D2*
X49352D1*
X50148D2*
X50352D1*
X51148D2*
X54441D1*
X560Y2397D2*
X21850D1*
X22650D2*
X24177D1*
X24823D2*
X32239D1*
X32886D2*
X47152D1*
X48348D2*
X48508D1*
X48992D2*
X49508D1*
X49992D2*
X50508D1*
X50992D2*
X54441D1*
X560Y2298D2*
X21891D1*
X22609D2*
X24177D1*
X24823D2*
X32239D1*
X32886D2*
X54441D1*
X560Y2199D2*
X21970D1*
X22530D2*
X24177D1*
X24823D2*
X32239D1*
X32886D2*
X52263D1*
X52737D2*
X54441D1*
X560Y2101D2*
X22180D1*
X22320D2*
X24177D1*
X24823D2*
X32239D1*
X32886D2*
X52128D1*
X52872D2*
X54441D1*
X560Y2002D2*
X24177D1*
X24823D2*
X32239D1*
X32886D2*
X52053D1*
X52947D2*
X54441D1*
X560Y1903D2*
X24177D1*
X24823D2*
X32239D1*
X32886D2*
X52010D1*
X52990D2*
X54441D1*
X560Y1805D2*
X24177D1*
X24823D2*
X32239D1*
X32886D2*
X51989D1*
X53011D2*
X54441D1*
X560Y1706D2*
X24177D1*
X24823D2*
X32239D1*
X32886D2*
X51988D1*
X53012D2*
X54441D1*
X560Y1607D2*
X24177D1*
X24823D2*
X32239D1*
X32886D2*
X52006D1*
X52994D2*
X54441D1*
X560Y1509D2*
X10402D1*
X11598D2*
X11694D1*
X12306D2*
X12694D1*
X13306D2*
X13694D1*
X14306D2*
X14694D1*
X15306D2*
X15694D1*
X16306D2*
X16694D1*
X17306D2*
X17694D1*
X18306D2*
X19402D1*
X20598D2*
X20694D1*
X21306D2*
X21694D1*
X22306D2*
X22694D1*
X23306D2*
X23694D1*
X25306D2*
X25694D1*
X26306D2*
X26694D1*
X27306D2*
X28402D1*
X29598D2*
X29694D1*
X30306D2*
X30694D1*
X31306D2*
X31694D1*
X33306D2*
X33694D1*
X34306D2*
X34694D1*
X35306D2*
X35694D1*
X36306D2*
X52047D1*
X52953D2*
X54441D1*
X560Y1410D2*
X8197D1*
X8803D2*
X10402D1*
X12433D2*
X12567D1*
X13433D2*
X13567D1*
X14433D2*
X14567D1*
X15433D2*
X15567D1*
X16433D2*
X16567D1*
X17433D2*
X17567D1*
X18433D2*
X19402D1*
X21433D2*
X21567D1*
X22433D2*
X22567D1*
X23433D2*
X23567D1*
X25433D2*
X25567D1*
X26433D2*
X26567D1*
X27433D2*
X28402D1*
X30433D2*
X30567D1*
X31433D2*
X31567D1*
X33433D2*
X33567D1*
X34433D2*
X34567D1*
X35433D2*
X35567D1*
X36433D2*
X52119D1*
X52881D2*
X54441D1*
X560Y1311D2*
X8094D1*
X8906D2*
X10402D1*
X18509D2*
X19402D1*
X27509D2*
X28402D1*
X36509D2*
X52242D1*
X52758D2*
X54441D1*
X560Y1212D2*
X8033D1*
X8967D2*
X10402D1*
X18559D2*
X19402D1*
X27559D2*
X28402D1*
X36559D2*
X54441D1*
X560Y1114D2*
X7999D1*
X9001D2*
X10402D1*
X18587D2*
X19402D1*
X27587D2*
X28402D1*
X36587D2*
X54441D1*
X560Y1015D2*
X7986D1*
X9014D2*
X10402D1*
X18598D2*
X19402D1*
X27598D2*
X28402D1*
X36598D2*
X54441D1*
X560Y916D2*
X7992D1*
X9008D2*
X10402D1*
X18592D2*
X19402D1*
X27592D2*
X28402D1*
X36592D2*
X54441D1*
X560Y818D2*
X8020D1*
X8980D2*
X9916D1*
X18570D2*
X19402D1*
X27570D2*
X28402D1*
X36570D2*
X54441D1*
X560Y719D2*
X8072D1*
X8928D2*
X9763D1*
X27526D2*
X28402D1*
X36526D2*
X54441D1*
X560Y620D2*
X8158D1*
X8842D2*
X9692D1*
X27459D2*
X28402D1*
X36459D2*
X54441D1*
X13764Y11819D2*
X13885D1*
X13883Y11987D1*
X13886Y12032D1*
X13770Y12033D1*
Y12884D1*
X13678Y12885D1*
X13679Y11538D1*
Y9730D1*
X13714Y9694D1*
Y11819D1*
X13764D1*
X15036Y9579D2*
X13830D1*
X14117Y9292D1*
X14905D1*
Y8816D1*
X14928Y8748D1*
X14944Y8649D1*
X14945Y8359D1*
X14943Y8066D1*
X14960Y8065D1*
Y7848D1*
X15555Y7849D1*
X15556Y7869D1*
X15555Y8065D1*
X15572D1*
X15570Y8211D1*
Y8491D1*
X15558Y8555D1*
X15554Y8655D1*
X15568Y8754D1*
X15577Y8785D1*
X15578Y9292D1*
X16520Y9293D1*
Y9568D1*
X15035Y9567D1*
Y9579D1*
X7353Y12363D2*
X7472Y12364D1*
Y13265D1*
X7329Y13267D1*
Y14483D1*
X7431D1*
Y15888D1*
X7227Y15889D1*
Y17657D1*
X8443D1*
Y15889D1*
X8239D1*
Y14484D1*
X8546Y14483D1*
Y14341D1*
X8618Y14393D1*
X8688Y14430D1*
X8763Y14458D1*
X8841Y14476D1*
X8921Y14483D1*
X9001Y14480D1*
X9079Y14467D1*
X9156Y14443D1*
X9228Y14409D1*
X9296Y14367D1*
X9357Y14315D1*
X9411Y14256D1*
X9437Y14222D1*
X9481Y14277D1*
X9553Y14346D1*
X9636Y14403D1*
Y15888D1*
X9432Y15889D1*
Y17657D1*
X10648D1*
Y15889D1*
X10443D1*
X10444Y14212D1*
X10486Y14138D1*
X10522Y14045D1*
X10542Y13947D1*
X10546Y13875D1*
X10538Y13775D1*
X10513Y13679D1*
X10473Y13587D1*
X10419Y13503D1*
X10404Y13485D1*
X10405Y13175D1*
Y12364D1*
X10573Y12363D1*
Y11264D1*
X10405D1*
Y11001D1*
X10402Y10951D1*
X10397Y10924D1*
X10389Y10872D1*
X10388Y10531D1*
X10389Y10552D1*
Y9899D1*
X10506Y9898D1*
Y8839D1*
X9369D1*
Y9898D1*
X9489D1*
X9488Y10211D1*
X9489Y10802D1*
X9488Y10781D1*
X9485Y11264D1*
X8389D1*
X8388Y10531D1*
X8389Y10552D1*
Y9932D1*
X8541Y9933D1*
Y8873D1*
X7403D1*
Y9933D1*
X7489D1*
X7487Y10211D1*
X7489Y10802D1*
X7487Y10781D1*
Y10892D1*
X7475Y10950D1*
X7472Y11051D1*
Y11265D1*
X7303Y11264D1*
Y12363D1*
X7353D1*
X8280D2*
X8323Y12361D1*
X8331Y12363D1*
X9597Y12364D1*
Y13372D1*
X9532Y13422D1*
X9463Y13494D1*
X9437Y13527D1*
X9387Y13465D1*
X9329Y13410D1*
X9265Y13362D1*
X9195Y13324D1*
X9120Y13295D1*
X9043Y13276D1*
X8963Y13267D1*
X8883Y13269D1*
X8804Y13281D1*
X8727Y13304D1*
X8654Y13337D1*
X8586Y13378D1*
X8545Y13410D1*
X8546Y13267D1*
X8279D1*
X8280Y12837D1*
X8281Y12363D1*
X8321D1*
X47201Y8281D2*
X47051Y8279D1*
X46299D1*
Y8359D1*
X45549Y8360D1*
Y8440D1*
X45482Y8465D1*
X45439Y8491D1*
X45364Y8560D1*
X45305Y8625D1*
X45278Y8668D1*
X45259Y8714D1*
X45248Y8762D1*
X45244Y8863D1*
Y9812D1*
X45247Y9862D1*
X45259Y9911D1*
X45278Y9957D1*
X45304Y10000D1*
X45372Y10073D1*
X45462Y10163D1*
X45500Y10195D1*
X45543Y10222D1*
X45589Y10241D1*
X45637Y10252D1*
X45737Y10256D1*
X46998D1*
Y10432D1*
X46964Y10503D1*
X46951Y10551D1*
X46944Y10601D1*
X46948Y10677D1*
X46451Y10678D1*
Y10798D1*
X45952Y10799D1*
X45761Y10801D1*
X45783Y10799D1*
X45092D1*
Y10886D1*
X45042Y10878D1*
X44992Y10876D1*
X44943Y10881D1*
X44894Y10893D1*
X44847Y10911D1*
X44804Y10935D1*
X44763Y10964D1*
X44727Y10999D1*
X44696Y11038D1*
X44671Y11081D1*
X44651Y11127D1*
X44638Y11175D1*
X44631Y11225D1*
Y11275D1*
X44638Y11324D1*
X44651Y11372D1*
X44671Y11419D1*
X44696Y11462D1*
X44727Y11501D1*
X44763Y11535D1*
X44799Y11562D1*
X44763Y11590D1*
X44727Y11625D1*
X44696Y11664D1*
X44671Y11707D1*
X44651Y11753D1*
X44638Y11802D1*
X44631Y11851D1*
Y11901D1*
X44638Y11951D1*
X44651Y11999D1*
X44671Y12045D1*
X44696Y12088D1*
X44727Y12127D1*
X44763Y12162D1*
X44803Y12191D1*
X44847Y12215D1*
X44894Y12233D1*
X44942Y12245D1*
X44992Y12250D1*
X45042Y12248D1*
X45111Y12234D1*
X45110Y12326D1*
X46051Y12324D1*
X46029Y12326D1*
X46450D1*
X46451Y12445D1*
X47377D1*
X47378Y12992D1*
X47175Y12994D1*
X46437D1*
X46388Y12997D1*
X46339Y13009D1*
X46293Y13028D1*
X46250Y13054D1*
X46177Y13122D1*
X46087Y13212D1*
X46055Y13250D1*
X46028Y13293D1*
X46009Y13339D1*
X45998Y13387D1*
X45994Y13488D1*
Y14312D1*
X45997Y14362D1*
X46009Y14411D1*
X46028Y14457D1*
X46054Y14500D1*
X46122Y14573D1*
X46134Y14586D1*
X45782Y14936D1*
X45592Y15126D1*
X45559Y15164D1*
X45533Y15207D1*
X45514Y15253D1*
X45502Y15302D1*
X45498Y15402D1*
Y17439D1*
X45502Y17489D1*
X45514Y17538D1*
X45533Y17584D1*
X45559Y17626D1*
X45627Y17700D1*
X45931Y18004D1*
X45942Y18096D1*
X45970Y18192D1*
X46015Y18281D1*
X46074Y18362D1*
X46147Y18430D1*
X46215Y18476D1*
X46159Y18513D1*
X46098Y18566D1*
X46046Y18626D1*
X46002Y18693D1*
X45968Y18766D1*
X45945Y18842D1*
X45933Y18921D1*
X45932Y19001D1*
X45942Y19080D1*
X45963Y19157D1*
X45995Y19231D1*
X46037Y19299D1*
X46088Y19361D1*
X46147Y19414D1*
X46213Y19460D1*
X46284Y19495D1*
X46360Y19520D1*
X46439Y19534D1*
X46519Y19537D1*
X46598Y19529D1*
X46676Y19510D1*
X46750Y19480D1*
X46819Y19440D1*
X46882Y19390D1*
X46937Y19332D1*
X46984Y19268D1*
X47021Y19197D1*
X47048Y19121D1*
X47064Y19043D1*
X47069Y18969D1*
X47063Y18889D1*
X47047Y18811D1*
X47019Y18736D1*
X46981Y18665D1*
X46934Y18601D1*
X46878Y18543D1*
X46815Y18495D1*
X46785Y18476D1*
X46844Y18438D1*
X46918Y18371D1*
X46979Y18292D1*
X47025Y18203D1*
X47055Y18108D1*
X47068Y18009D1*
X47067Y17934D1*
X47049Y17836D1*
X47015Y17742D1*
X46965Y17656D1*
X46900Y17580D1*
X46887Y17568D1*
X47069Y17569D1*
Y16952D1*
X48476Y15545D1*
X48508Y15507D1*
X48534Y15464D1*
X48553Y15418D1*
X48565Y15369D1*
X48569Y15269D1*
Y14970D1*
X48701Y14971D1*
X48699Y14029D1*
X48701Y14051D1*
Y13360D1*
X48568D1*
X48569Y13273D1*
X48898Y13274D1*
X49622Y13272D1*
X49618Y13274D1*
X49931Y13276D1*
Y13359D1*
X49799Y13360D1*
X49801Y14301D1*
X49799Y14279D1*
Y14971D1*
X49932D1*
X49931Y15014D1*
X49935Y15063D1*
X49947Y15112D1*
X49966Y15158D1*
X49992Y15201D1*
X50057Y15272D1*
X50180Y15395D1*
X50181Y16431D1*
X49931D1*
Y17569D1*
X50111D1*
X50058Y17626D1*
X50002Y17709D1*
X49962Y17800D1*
X49938Y17897D1*
X49931Y17997D1*
X49942Y18096D1*
X49970Y18192D1*
X50015Y18281D1*
X50074Y18362D1*
X50147Y18430D1*
X50215Y18476D1*
X50159Y18513D1*
X50098Y18566D1*
X50046Y18626D1*
X50002Y18693D1*
X49968Y18766D1*
X49945Y18842D1*
X49933Y18921D1*
X49932Y19001D1*
X49942Y19080D1*
X49963Y19157D1*
X49995Y19231D1*
X50037Y19299D1*
X50088Y19361D1*
X50147Y19414D1*
X50213Y19460D1*
X50284Y19495D1*
X50360Y19520D1*
X50439Y19534D1*
X50519Y19537D1*
X50598Y19529D1*
X50676Y19510D1*
X50750Y19480D1*
X50819Y19440D1*
X50882Y19390D1*
X50937Y19332D1*
X50984Y19268D1*
X51021Y19197D1*
X51048Y19121D1*
X51064Y19043D1*
X51069Y18969D1*
X51063Y18889D1*
X51047Y18811D1*
X51019Y18736D1*
X50981Y18665D1*
X50934Y18601D1*
X50878Y18543D1*
X50815Y18495D1*
X50785Y18476D1*
X50844Y18438D1*
X50918Y18371D1*
X50979Y18292D1*
X51025Y18203D1*
X51055Y18108D1*
X51068Y18009D1*
X51067Y17934D1*
X51062Y17896D1*
X51976Y16983D1*
X52008Y16945D1*
X52034Y16902D1*
X52053Y16856D1*
X52065Y16807D1*
X52069Y16707D1*
Y14890D1*
X52201D1*
Y14738D1*
X52236Y14734D1*
X52285Y14723D1*
X52331Y14704D1*
X52374Y14678D1*
X52412Y14646D1*
X52445Y14608D1*
X52471Y14566D1*
X52490Y14520D1*
X52502Y14471D1*
X52506Y14369D1*
Y13437D1*
X52503Y13388D1*
X52491Y13339D1*
X52472Y13293D1*
X52446Y13250D1*
X52378Y13177D1*
X52288Y13087D1*
X52250Y13055D1*
X52207Y13028D1*
X52161Y13009D1*
X52113Y12998D1*
X52048Y12994D1*
X52049Y12737D1*
X52048Y11430D1*
X52049Y11397D1*
X52048Y10678D1*
X52049Y10669D1*
Y10257D1*
X52611Y10256D1*
X52584Y10315D1*
X52571Y10363D1*
X52564Y10412D1*
Y10462D1*
X52571Y10512D1*
X52584Y10560D1*
X52604Y10606D1*
X52629Y10649D1*
X52660Y10688D1*
X52696Y10723D1*
X52736Y10753D1*
X52780Y10777D1*
X52826Y10795D1*
X52875Y10806D1*
X52925Y10811D1*
X52975Y10810D1*
X53024Y10801D1*
X53072Y10787D1*
X53117Y10766D1*
X53159Y10739D1*
X53197Y10707D1*
X53231Y10670D1*
X53259Y10628D1*
X53282Y10584D1*
X53298Y10537D1*
X53308Y10488D1*
X53312Y10437D1*
X53308Y10388D1*
X53298Y10339D1*
X53282Y10291D1*
X53257Y10243D1*
X53256Y8812D1*
X53253Y8763D1*
X53241Y8714D1*
X53222Y8668D1*
X53196Y8625D1*
X53128Y8552D1*
X53063Y8492D1*
X53020Y8466D1*
X52974Y8447D1*
X52951Y8399D1*
Y8358D1*
X52199D1*
X52201Y8279D1*
X51299Y8281D1*
X51291Y8279D1*
X50569D1*
Y7833D1*
X50594Y7784D1*
X50611Y7737D1*
X50621Y7688D1*
X50624Y7638D1*
X50621Y7588D1*
X50611Y7539D1*
X50594Y7492D1*
X50572Y7447D1*
X50544Y7406D1*
X50510Y7369D1*
X50472Y7337D1*
X50430Y7310D1*
X50385Y7289D1*
X50337Y7274D1*
X50288Y7266D1*
X50238Y7264D1*
X50188Y7269D1*
X50139Y7280D1*
X50093Y7298D1*
X50049Y7322D1*
X50009Y7352D1*
X49976Y7383D1*
X49975Y7132D1*
X50261Y7133D1*
X51049D1*
Y6631D1*
X51602D1*
Y7005D1*
X52263D1*
Y7133D1*
X53362D1*
Y5561D1*
X53412Y5560D1*
X53461Y5551D1*
X53509Y5537D1*
X53554Y5516D1*
X53597Y5489D1*
X53635Y5457D1*
X53668Y5420D1*
X53697Y5378D1*
X53719Y5334D1*
X53736Y5287D1*
X53746Y5238D1*
X53749Y5187D1*
X53746Y5138D1*
X53736Y5089D1*
X53719Y5041D1*
X53697Y4997D1*
X53669Y4956D1*
X53635Y4919D1*
X53597Y4886D1*
X53555Y4859D1*
X53510Y4838D1*
X53462Y4824D1*
X53413Y4815D1*
X53363Y4814D1*
X53313Y4819D1*
X53264Y4830D1*
X53219Y4848D1*
X53221Y4549D1*
Y3799D1*
X52279Y3801D1*
X52301Y3799D1*
X51610D1*
Y3932D1*
X50881Y3931D1*
X50625D1*
X50575Y3935D1*
X50527Y3947D1*
X50480Y3966D1*
X50438Y3992D1*
X50364Y4060D1*
X49837Y4587D1*
X49804Y4625D1*
X49778Y4667D1*
X49759Y4714D1*
X49747Y4762D1*
X49743Y4862D1*
Y5117D1*
X49709Y5190D1*
X49696Y5238D1*
X49689Y5287D1*
X49690Y5345D1*
X49646Y5263D1*
X49577Y5188D1*
X49226Y4837D1*
X49188Y4805D1*
X49145Y4778D1*
X49099Y4759D1*
X49050Y4748D1*
X48950Y4744D1*
X45695D1*
X45568Y4617D1*
X45569Y4000D1*
X45565Y3950D1*
X45553Y3902D1*
X45534Y3855D1*
X45508Y3813D1*
X45476Y3775D1*
X45438Y3742D1*
X45395Y3716D1*
X45349Y3697D1*
X45301Y3685D1*
X45200Y3681D1*
X44995D1*
X44958Y3630D1*
X44921Y3589D1*
X45089D1*
Y2411D1*
X43911D1*
Y2682D1*
X42589Y2681D1*
Y2411D1*
X41411D1*
Y2579D1*
X41350Y2527D1*
X41265Y2474D1*
X41172Y2437D1*
X41074Y2416D1*
X40975Y2412D1*
X40876Y2425D1*
X40780Y2454D1*
X40691Y2499D1*
X40611Y2558D1*
X40542Y2631D1*
X40486Y2713D1*
X40445Y2804D1*
X40420Y2901D1*
X40411Y3001D1*
X40416Y3071D1*
X40304Y3182D1*
X39937Y3181D1*
X38561D1*
X38580Y3098D1*
X38588Y3019D1*
X38586Y2940D1*
X38572Y2861D1*
X38548Y2785D1*
X38514Y2713D1*
X38470Y2646D1*
X38418Y2585D1*
X38358Y2533D1*
X38291Y2488D1*
X38219Y2454D1*
X38143Y2429D1*
X38065Y2415D1*
X37985Y2412D1*
X37905Y2419D1*
X37827Y2437D1*
X37753Y2466D1*
X37682Y2504D1*
X37618Y2552D1*
X37561Y2608D1*
X37512Y2671D1*
X37500Y2689D1*
X37458Y2630D1*
X37404Y2571D1*
X37342Y2521D1*
X37274Y2479D1*
X37201Y2447D1*
X37124Y2425D1*
X37045Y2413D1*
X36965Y2412D1*
X36885Y2423D1*
X36808Y2443D1*
X36735Y2475D1*
X36666Y2515D1*
X36603Y2565D1*
X36548Y2623D1*
X36501Y2688D1*
X36463Y2758D1*
X36436Y2833D1*
X36418Y2911D1*
X36411Y2991D1*
X36416Y3071D1*
X36431Y3149D1*
X36456Y3225D1*
X36491Y3296D1*
X36536Y3363D1*
X36590Y3422D1*
X36651Y3474D1*
X36689Y3500D1*
X36611Y3558D1*
X36542Y3631D1*
X36486Y3713D1*
X36445Y3804D1*
X36420Y3901D1*
X36411Y4001D1*
X36420Y4100D1*
X36445Y4197D1*
X36487Y4288D1*
X36543Y4370D1*
X36612Y4442D1*
X36691Y4501D1*
X36650Y4527D1*
X36575Y4593D1*
X36512Y4671D1*
X36463Y4758D1*
X36430Y4852D1*
X36413Y4951D1*
X36414Y5051D1*
X36431Y5149D1*
X36464Y5243D1*
X36513Y5330D1*
X36576Y5408D1*
X36651Y5474D1*
X36691Y5501D1*
X36650Y5527D1*
X36575Y5593D1*
X36512Y5671D1*
X36463Y5758D1*
X36430Y5852D1*
X36413Y5951D1*
X36414Y6051D1*
X36431Y6149D1*
X36464Y6243D1*
X36513Y6330D1*
X36576Y6408D1*
X36651Y6474D1*
X36691Y6501D1*
X36650Y6527D1*
X36575Y6593D1*
X36512Y6671D1*
X36463Y6758D1*
X36430Y6852D1*
X36413Y6951D1*
X36414Y7051D1*
X36431Y7149D1*
X36464Y7243D1*
X36513Y7330D1*
X36576Y7408D1*
X36651Y7474D1*
X36691Y7501D1*
X36650Y7527D1*
X36575Y7593D1*
X36512Y7671D1*
X36463Y7758D1*
X36430Y7852D1*
X36413Y7951D1*
X36414Y8051D1*
X36431Y8149D1*
X36464Y8243D1*
X36513Y8330D1*
X36576Y8408D1*
X36651Y8474D1*
X36691Y8501D1*
X36650Y8527D1*
X36575Y8593D1*
X36512Y8671D1*
X36463Y8758D1*
X36430Y8852D1*
X36413Y8951D1*
X36414Y9051D1*
X36431Y9149D1*
X36464Y9243D1*
X36513Y9330D1*
X36576Y9408D1*
X36651Y9474D1*
X36691Y9501D1*
X36650Y9527D1*
X36575Y9593D1*
X36512Y9671D1*
X36463Y9758D1*
X36430Y9852D1*
X36413Y9951D1*
X36414Y10051D1*
X36431Y10149D1*
X36464Y10243D1*
X36513Y10330D1*
X36576Y10408D1*
X36651Y10474D1*
X36691Y10501D1*
X36650Y10527D1*
X36575Y10593D1*
X36512Y10671D1*
X36463Y10758D1*
X36430Y10852D1*
X36413Y10951D1*
X36414Y11051D1*
X36431Y11149D1*
X36464Y11243D1*
X36513Y11330D1*
X36576Y11408D1*
X36651Y11474D1*
X36691Y11501D1*
X36650Y11527D1*
X36575Y11593D1*
X36512Y11671D1*
X36463Y11758D1*
X36430Y11852D1*
X36413Y11951D1*
X36414Y12051D1*
X36431Y12149D1*
X36464Y12243D1*
X36513Y12330D1*
X36576Y12408D1*
X36651Y12474D1*
X36691Y12501D1*
X36650Y12527D1*
X36575Y12593D1*
X36512Y12671D1*
X36463Y12758D1*
X36430Y12852D1*
X36413Y12951D1*
X36414Y13051D1*
X36431Y13149D1*
X36464Y13243D1*
X36513Y13330D1*
X36576Y13408D1*
X36651Y13474D1*
X36691Y13501D1*
X36650Y13527D1*
X36575Y13593D1*
X36512Y13671D1*
X36463Y13758D1*
X36430Y13852D1*
X36413Y13951D1*
X36414Y14051D1*
X36431Y14149D1*
X36464Y14243D1*
X36513Y14330D1*
X36576Y14408D1*
X36651Y14474D1*
X36691Y14501D1*
X36650Y14527D1*
X36575Y14593D1*
X36512Y14671D1*
X36463Y14758D1*
X36430Y14852D1*
X36413Y14951D1*
X36414Y15051D1*
X36431Y15149D1*
X36464Y15243D1*
X36513Y15330D1*
X36576Y15408D1*
X36651Y15474D1*
X36691Y15501D1*
X36650Y15527D1*
X36575Y15593D1*
X36512Y15671D1*
X36463Y15758D1*
X36430Y15852D1*
X36413Y15951D1*
X36414Y16051D1*
X36431Y16149D1*
X36464Y16243D1*
X36513Y16330D1*
X36576Y16408D1*
X36651Y16474D1*
X36691Y16501D1*
X36650Y16527D1*
X36575Y16593D1*
X36512Y16671D1*
X36463Y16758D1*
X36430Y16852D1*
X36413Y16951D1*
X36414Y17051D1*
X36431Y17149D1*
X36464Y17243D1*
X36513Y17330D1*
X36576Y17408D1*
X36651Y17474D1*
X36691Y17501D1*
X36650Y17527D1*
X36575Y17593D1*
X36512Y17671D1*
X36463Y17758D1*
X36430Y17852D1*
X36413Y17951D1*
X36414Y18051D1*
X36431Y18149D1*
X36464Y18243D1*
X36513Y18330D1*
X36576Y18408D1*
X36651Y18474D1*
X36691Y18501D1*
X36650Y18527D1*
X36575Y18593D1*
X36512Y18671D1*
X36463Y18758D1*
X36430Y18852D1*
X36413Y18951D1*
X36414Y19051D1*
X36431Y19149D1*
X36464Y19243D1*
X36513Y19330D1*
X36576Y19408D1*
X36651Y19474D1*
X36691Y19501D1*
X36650Y19527D1*
X36575Y19593D1*
X36512Y19671D1*
X36463Y19758D1*
X36430Y19852D1*
X36413Y19951D1*
X36414Y20051D1*
X36431Y20149D1*
X36464Y20243D1*
X36513Y20330D1*
X36576Y20408D1*
X36606Y20437D1*
X36300Y20436D1*
X35752D1*
X35803Y20403D1*
X35876Y20335D1*
X35935Y20254D1*
X35977Y20164D1*
X36000Y20067D1*
X36004Y20000D1*
X35994Y19901D1*
X35965Y19805D1*
X35917Y19717D1*
X35853Y19641D1*
X35776Y19578D1*
X35687Y19532D1*
X35591Y19504D1*
X35492Y19496D1*
X35393Y19508D1*
X35298Y19538D1*
X35211Y19587D1*
X35135Y19653D1*
X35074Y19731D1*
X35068Y19741D1*
Y14400D1*
Y7876D1*
X35064Y7826D1*
X35052Y7778D1*
X35032Y7731D1*
X35006Y7689D1*
X34976Y7654D1*
X34663Y7341D1*
X34625Y7309D1*
X34582Y7283D1*
X34536Y7264D1*
X34488Y7253D1*
X34441Y7249D1*
X34140D1*
Y6674D1*
X34260D1*
Y5576D1*
X33070D1*
X33069Y5087D1*
X33339Y5089D1*
X33340Y4922D1*
X33401Y4974D1*
X33468Y5017D1*
X33541Y5050D1*
X33617Y5073D1*
X33696Y5086D1*
X33776Y5088D1*
X33855Y5079D1*
X33933Y5059D1*
X34007Y5030D1*
X34076Y4990D1*
X34140Y4941D1*
X34196Y4884D1*
X34244Y4820D1*
X34283Y4750D1*
X34312Y4676D1*
X34330Y4598D1*
X34338Y4519D1*
X34336Y4440D1*
X34322Y4361D1*
X34298Y4285D1*
X34264Y4213D1*
X34220Y4146D1*
X34168Y4085D1*
X34108Y4033D1*
X34041Y3988D1*
X33969Y3954D1*
X33893Y3929D1*
X33815Y3915D1*
X33735Y3912D1*
X33655Y3919D1*
X33577Y3937D1*
X33503Y3966D1*
X33432Y4004D1*
X33368Y4052D1*
X33338Y4079D1*
X33339Y3911D1*
X32878D1*
X32876Y3650D1*
X32877Y1576D1*
X32976Y1588D1*
X33076Y1584D1*
X33173Y1563D1*
X33266Y1525D1*
X33351Y1473D1*
X33426Y1406D1*
X33488Y1329D1*
X33499Y1311D1*
X33543Y1370D1*
X33612Y1442D1*
X33692Y1502D1*
X33781Y1547D1*
X33877Y1576D1*
X33976Y1588D1*
X34076Y1584D1*
X34173Y1563D1*
X34266Y1525D1*
X34351Y1473D1*
X34426Y1406D1*
X34488Y1329D1*
X34499Y1311D1*
X34543Y1370D1*
X34612Y1442D1*
X34692Y1502D1*
X34781Y1547D1*
X34877Y1576D1*
X34976Y1588D1*
X35076Y1584D1*
X35173Y1563D1*
X35266Y1525D1*
X35351Y1473D1*
X35426Y1406D1*
X35488Y1329D1*
X35499Y1311D1*
X35543Y1370D1*
X35612Y1442D1*
X35692Y1502D1*
X35781Y1547D1*
X35877Y1576D1*
X35976Y1588D1*
X36076Y1584D1*
X36173Y1563D1*
X36266Y1525D1*
X36351Y1473D1*
X36426Y1406D1*
X36488Y1329D1*
X36537Y1241D1*
X36570Y1147D1*
X36587Y1049D1*
Y950D1*
X36570Y852D1*
X36536Y757D1*
X36488Y670D1*
X36425Y593D1*
X36378Y549D1*
X37300Y550D1*
X54450D1*
Y20950D1*
X43242D1*
X43282Y20888D1*
X43300Y20842D1*
X43311Y20793D1*
X43314Y20750D1*
Y20498D1*
X43390Y20441D1*
X43459Y20369D1*
X43515Y20286D1*
X43555Y20195D1*
X43580Y20098D1*
X43589Y20000D1*
X43580Y19900D1*
X43555Y19804D1*
X43514Y19713D1*
X43458Y19630D1*
X43403Y19572D1*
X43404Y19427D1*
X43459Y19369D1*
X43515Y19286D1*
X43555Y19195D1*
X43580Y19098D1*
X43589Y19000D1*
X43580Y18900D1*
X43555Y18804D1*
X43514Y18713D1*
X43458Y18630D1*
X43403Y18572D1*
X43404Y18427D1*
X43459Y18369D1*
X43515Y18286D1*
X43555Y18195D1*
X43580Y18098D1*
X43589Y18000D1*
X43580Y17900D1*
X43555Y17804D1*
X43514Y17713D1*
X43458Y17630D1*
X43421Y17589D1*
X43589D1*
Y16411D1*
X42411Y16413D1*
X42379Y16411D1*
X40411D1*
Y16682D1*
X39633Y16681D1*
X38726Y15774D1*
X38688Y15742D1*
X38645Y15716D1*
X38599Y15697D1*
X38550Y15685D1*
X38495Y15681D1*
X38458Y15630D1*
X38389Y15558D1*
X38310Y15500D1*
X38351Y15473D1*
X38426Y15406D1*
X38488Y15329D1*
X38537Y15241D1*
X38570Y15147D1*
X38587Y15049D1*
Y14950D1*
X38570Y14852D1*
X38536Y14757D1*
X38488Y14670D1*
X38425Y14593D1*
X38350Y14527D1*
X38310Y14500D1*
X38351Y14473D1*
X38426Y14406D1*
X38488Y14329D1*
X38537Y14241D1*
X38570Y14147D1*
X38587Y14049D1*
Y13950D1*
X38570Y13852D1*
X38560Y13820D1*
X38950Y13819D1*
X40117D1*
X40426Y14127D1*
X40445Y14197D1*
X40487Y14288D1*
X40543Y14370D1*
X40612Y14442D1*
X40692Y14502D1*
X40781Y14547D1*
X40877Y14576D1*
X40976Y14588D1*
X41076Y14584D1*
X41173Y14563D1*
X41266Y14525D1*
X41351Y14473D1*
X41426Y14406D1*
X41488Y14329D1*
X41499Y14311D1*
X41543Y14370D1*
X41597Y14429D1*
X41659Y14480D1*
X41727Y14521D1*
X41800Y14554D1*
X41877Y14576D1*
X41956Y14587D1*
X42036Y14588D1*
X42115Y14577D1*
X42192Y14556D1*
X42266Y14525D1*
X42335Y14484D1*
X42397Y14434D1*
X42452Y14377D1*
X42499Y14312D1*
X42537Y14241D1*
X42565Y14166D1*
X42582Y14088D1*
X42589Y14009D1*
X42584Y13930D1*
X42570Y13852D1*
X42544Y13776D1*
X42509Y13704D1*
X42464Y13638D1*
X42411Y13578D1*
X42350Y13527D1*
X42310Y13500D1*
X42390Y13441D1*
X42459Y13369D1*
X42515Y13286D1*
X42555Y13195D1*
X42580Y13098D1*
X42589Y13000D1*
X42580Y12900D1*
X42555Y12804D1*
X42514Y12713D1*
X42458Y12630D1*
X42389Y12558D1*
X42310Y12500D1*
X42351Y12473D1*
X42426Y12406D1*
X42488Y12329D1*
X42537Y12241D1*
X42570Y12147D1*
X42587Y12049D1*
Y11950D1*
X42570Y11852D1*
X42536Y11757D1*
X42488Y11670D1*
X42425Y11593D1*
X42350Y11527D1*
X42310Y11500D1*
X42351Y11473D1*
X42426Y11406D1*
X42488Y11329D1*
X42537Y11241D1*
X42570Y11147D1*
X42587Y11049D1*
Y10950D1*
X42570Y10852D1*
X42536Y10757D1*
X42488Y10670D1*
X42425Y10593D1*
X42421Y10589D1*
X42589D1*
Y9411D1*
X42306D1*
X42285Y9356D1*
X42259Y9314D1*
X42227Y9276D1*
X42189Y9243D1*
X42146Y9217D1*
X42100Y9197D1*
X42052Y9185D1*
X41950Y9181D1*
X39633D1*
X38575Y8124D1*
X38587Y8049D1*
Y7950D1*
X38570Y7852D1*
X38536Y7757D1*
X38526Y7737D1*
X38962Y7301D1*
X39445Y6818D1*
X40439Y6819D1*
X40420Y6901D1*
X40411Y7001D1*
X40420Y7100D1*
X40445Y7197D1*
X40487Y7288D1*
X40543Y7370D1*
X40612Y7442D1*
X40692Y7502D1*
X40781Y7547D1*
X40877Y7576D1*
X40976Y7588D1*
X41076Y7584D1*
X41173Y7563D1*
X41266Y7525D1*
X41351Y7473D1*
X41426Y7406D1*
X41488Y7329D1*
X41499Y7311D1*
X41543Y7370D1*
X41597Y7429D1*
X41659Y7480D1*
X41727Y7521D1*
X41800Y7554D1*
X41877Y7576D1*
X41956Y7587D1*
X42036Y7588D1*
X42115Y7577D1*
X42192Y7556D1*
X42266Y7525D1*
X42335Y7484D1*
X42397Y7434D1*
X42452Y7377D1*
X42499Y7312D1*
X42537Y7241D1*
X42565Y7166D1*
X42582Y7088D1*
X42589Y7009D1*
X42584Y6930D1*
X42570Y6852D1*
X42544Y6776D1*
X42509Y6704D1*
X42464Y6638D1*
X42411Y6578D1*
X42350Y6527D1*
X42310Y6500D1*
X42390Y6441D1*
X42459Y6369D1*
X42515Y6286D1*
X42555Y6195D1*
X42580Y6098D1*
X42589Y6000D1*
X42580Y5900D1*
X42555Y5804D1*
X42514Y5713D1*
X42458Y5630D1*
X42389Y5558D1*
X42310Y5500D1*
X42351Y5473D1*
X42426Y5406D1*
X42488Y5329D1*
X42537Y5241D1*
X42570Y5147D1*
X42587Y5049D1*
Y4950D1*
X42570Y4852D1*
X42560Y4820D1*
X42937Y4819D1*
X42987Y4815D1*
X43036Y4803D1*
X43082Y4784D1*
X43125Y4758D1*
X43198Y4690D1*
X43571Y4318D1*
X43937Y4319D1*
X44005D1*
X44043Y4370D1*
X44112Y4442D1*
X44191Y4501D1*
X44150Y4527D1*
X44075Y4593D1*
X44012Y4671D1*
X43963Y4758D1*
X43930Y4852D1*
X43913Y4951D1*
X43914Y5051D1*
X43931Y5149D1*
X43964Y5243D1*
X44013Y5330D1*
X44076Y5408D1*
X44151Y5474D1*
X44191Y5501D1*
X44150Y5527D1*
X44075Y5593D1*
X44012Y5671D1*
X43963Y5758D1*
X43930Y5852D1*
X43913Y5951D1*
X43914Y6051D1*
X43931Y6149D1*
X43964Y6243D1*
X44013Y6330D1*
X44076Y6408D1*
X44151Y6474D1*
X44236Y6526D1*
X44329Y6563D1*
X44426Y6584D1*
X44526Y6588D1*
X44625Y6575D1*
X44721Y6546D1*
X44810Y6501D1*
X44890Y6441D1*
X44959Y6369D1*
X44994Y6319D1*
X45048Y6315D1*
X45097Y6304D1*
X45143Y6285D1*
X45186Y6259D1*
X45261Y6190D1*
X45569Y5882D1*
X48542Y5881D1*
Y6405D1*
X49208Y6403D1*
X49304Y6405D1*
X49720Y6403D1*
X49760Y6405D1*
X49952D1*
X49951Y6473D1*
Y7078D1*
X49740D1*
X49746Y7050D1*
X49749Y7000D1*
X49746Y6950D1*
X49736Y6901D1*
X49719Y6854D1*
X49697Y6809D1*
X49669Y6768D1*
X49635Y6731D1*
X49597Y6699D1*
X49555Y6672D1*
X49510Y6651D1*
X49462Y6636D1*
X49413Y6628D1*
X49363Y6626D1*
X49313Y6631D1*
X49264Y6643D1*
X49218Y6661D1*
X49174Y6685D1*
X49134Y6714D1*
X49098Y6749D1*
X49067Y6788D1*
X49041Y6831D1*
X49022Y6877D1*
X49008Y6925D1*
X49002Y6975D1*
Y7025D1*
X49008Y7078D1*
X48542D1*
Y7404D1*
X48510Y7369D1*
X48472Y7337D1*
X48430Y7310D1*
X48385Y7289D1*
X48337Y7274D1*
X48288Y7266D1*
X48238Y7264D1*
X48188Y7269D1*
X48139Y7280D1*
X48093Y7298D1*
X48049Y7322D1*
X48009Y7352D1*
X47973Y7387D1*
X47942Y7426D1*
X47916Y7469D1*
X47897Y7515D1*
X47883Y7563D1*
X47877Y7613D1*
Y7663D1*
X47883Y7712D1*
X47897Y7760D1*
X47931Y7832D1*
Y8279D1*
X47049Y8280D1*
X29201Y15904D2*
X29202Y16260D1*
X29201Y16268D1*
Y17008D1*
X30186D1*
Y19442D1*
X30124Y19425D1*
X30025Y19412D1*
X29925Y19416D1*
X29827Y19437D1*
X29735Y19475D1*
X29650Y19527D1*
X29575Y19593D1*
X29512Y19671D1*
X29500Y19691D1*
X29458Y19630D1*
X29389Y19558D1*
X29308Y19499D1*
X29219Y19454D1*
X29124Y19425D1*
X29025Y19412D1*
X28925Y19416D1*
X28827Y19437D1*
X28735Y19475D1*
X28650Y19527D1*
X28575Y19593D1*
X28512Y19671D1*
X28500Y19691D1*
X28458Y19630D1*
X28389Y19558D1*
X28308Y19499D1*
X28219Y19454D1*
X28124Y19425D1*
X28025Y19412D1*
X27925Y19416D1*
X27827Y19437D1*
X27735Y19475D1*
X27650Y19527D1*
X27589Y19579D1*
Y19411D1*
X26411D1*
Y20589D1*
X27589D1*
Y20421D1*
X27651Y20474D1*
X27736Y20526D1*
X27829Y20563D1*
X27926Y20584D1*
X28026Y20588D1*
X28125Y20575D1*
X28221Y20546D1*
X28310Y20501D1*
X28390Y20441D1*
X28459Y20369D1*
X28499Y20311D1*
X28543Y20370D1*
X28612Y20442D1*
X28692Y20502D1*
X28781Y20547D1*
X28877Y20576D1*
X28976Y20588D1*
X29076Y20584D1*
X29173Y20563D1*
X29266Y20525D1*
X29351Y20473D1*
X29426Y20406D1*
X29488Y20329D1*
X29499Y20311D1*
X29543Y20370D1*
X29612Y20442D1*
X29692Y20502D1*
X29781Y20547D1*
X29877Y20576D1*
X29976Y20588D1*
X30076Y20584D1*
X30173Y20563D1*
X30187Y20558D1*
X30186Y20750D1*
X30190Y20800D1*
X30202Y20848D1*
X30221Y20894D1*
X30253Y20943D1*
X30250Y20950D1*
X550D1*
Y550D1*
X8273D1*
X8211Y587D1*
X8135Y653D1*
X8074Y731D1*
X8029Y821D1*
X8003Y917D1*
X7996Y1017D1*
X8009Y1116D1*
X8042Y1210D1*
X8092Y1296D1*
X8159Y1371D1*
X8238Y1431D1*
X8328Y1474D1*
X8425Y1498D1*
X8525Y1503D1*
X8624Y1489D1*
X8718Y1455D1*
X8803Y1403D1*
X8876Y1335D1*
X8935Y1254D1*
X8977Y1164D1*
X9000Y1067D1*
X9004Y1000D1*
X8994Y901D1*
X8965Y805D1*
X8917Y717D1*
X8853Y641D1*
X8776Y578D1*
X8725Y550D1*
X9673D1*
X9692Y598D1*
X9715Y643D1*
X9743Y684D1*
X9775Y722D1*
X9813Y755D1*
X9854Y783D1*
X9898Y807D1*
X9945Y824D1*
X9994Y836D1*
X10062Y841D1*
X10411D1*
Y1589D1*
X11589D1*
Y1421D1*
X11651Y1474D1*
X11736Y1526D1*
X11829Y1563D1*
X11926Y1584D1*
X12026Y1588D1*
X12125Y1575D1*
X12221Y1546D1*
X12310Y1501D1*
X12390Y1441D1*
X12459Y1369D1*
X12499Y1311D1*
X12543Y1370D1*
X12612Y1442D1*
X12692Y1502D1*
X12781Y1547D1*
X12877Y1576D1*
X12976Y1588D1*
X13076Y1584D1*
X13173Y1563D1*
X13266Y1525D1*
X13351Y1473D1*
X13426Y1406D1*
X13488Y1329D1*
X13499Y1311D1*
X13543Y1370D1*
X13612Y1442D1*
X13692Y1502D1*
X13781Y1547D1*
X13877Y1576D1*
X13976Y1588D1*
X14076Y1584D1*
X14173Y1563D1*
X14266Y1525D1*
X14351Y1473D1*
X14426Y1406D1*
X14488Y1329D1*
X14499Y1311D1*
X14543Y1370D1*
X14612Y1442D1*
X14692Y1502D1*
X14781Y1547D1*
X14877Y1576D1*
X14976Y1588D1*
X15076Y1584D1*
X15173Y1563D1*
X15266Y1525D1*
X15351Y1473D1*
X15426Y1406D1*
X15488Y1329D1*
X15499Y1311D1*
X15543Y1370D1*
X15597Y1429D1*
X15659Y1480D1*
X15727Y1521D1*
X15800Y1554D1*
X15877Y1576D1*
X15956Y1587D1*
X16036Y1588D1*
X16115Y1577D1*
X16192Y1556D1*
X16266Y1525D1*
X16335Y1484D1*
X16397Y1434D1*
X16452Y1377D1*
X16500Y1310D1*
X16543Y1370D1*
X16597Y1429D1*
X16659Y1480D1*
X16727Y1521D1*
X16800Y1554D1*
X16877Y1576D1*
X16956Y1587D1*
X17036Y1588D1*
X17115Y1577D1*
X17192Y1556D1*
X17266Y1525D1*
X17335Y1484D1*
X17397Y1434D1*
X17452Y1377D1*
X17500Y1310D1*
X17543Y1370D1*
X17612Y1442D1*
X17692Y1502D1*
X17781Y1547D1*
X17877Y1576D1*
X17976Y1588D1*
X18076Y1584D1*
X18173Y1563D1*
X18266Y1525D1*
X18351Y1473D1*
X18426Y1406D1*
X18488Y1329D1*
X18537Y1241D1*
X18570Y1147D1*
X18587Y1049D1*
Y950D1*
X18570Y852D1*
X18558Y814D1*
X19411D1*
Y1589D1*
X20589D1*
Y1421D1*
X20651Y1474D1*
X20736Y1526D1*
X20829Y1563D1*
X20926Y1584D1*
X21026Y1588D1*
X21125Y1575D1*
X21221Y1546D1*
X21310Y1501D1*
X21390Y1441D1*
X21459Y1369D1*
X21499Y1311D1*
X21543Y1370D1*
X21612Y1442D1*
X21692Y1502D1*
X21781Y1547D1*
X21877Y1576D1*
X21976Y1588D1*
X22076Y1584D1*
X22173Y1563D1*
X22266Y1525D1*
X22351Y1473D1*
X22426Y1406D1*
X22488Y1329D1*
X22499Y1311D1*
X22543Y1370D1*
X22612Y1442D1*
X22692Y1502D1*
X22781Y1547D1*
X22877Y1576D1*
X22976Y1588D1*
X23076Y1584D1*
X23173Y1563D1*
X23266Y1525D1*
X23351Y1473D1*
X23426Y1406D1*
X23488Y1329D1*
X23499Y1311D1*
X23543Y1370D1*
X23612Y1442D1*
X23692Y1502D1*
X23781Y1547D1*
X23877Y1576D1*
X23976Y1588D1*
X24076Y1584D1*
X24173Y1563D1*
X24187Y1558D1*
X24186Y2560D1*
X24190Y2610D1*
X24202Y2659D1*
X24221Y2705D1*
X24248Y2747D1*
X24278Y2782D1*
X24509Y3013D1*
X24517Y3052D1*
X24534Y3099D1*
X24557Y3143D1*
X24585Y3185D1*
X24618Y3222D1*
X24655Y3255D1*
X24687Y3278D1*
X24686Y3610D1*
Y8061D1*
X24690Y8111D1*
X24702Y8159D1*
X24721Y8205D1*
X24748Y8247D1*
X24778Y8283D1*
X25248Y8752D1*
Y9050D1*
X25092Y9049D1*
Y9951D1*
X26033Y9949D1*
X26011Y9951D1*
X26702D1*
Y9902D1*
X26932Y9904D1*
X27911D1*
Y10089D1*
X28079D1*
X28023Y10154D1*
X27981Y10222D1*
X27948Y10295D1*
X27925Y10372D1*
X27913Y10451D1*
X27912Y10531D1*
X27922Y10610D1*
X27942Y10687D1*
X27973Y10761D1*
X28013Y10830D1*
X28062Y10893D1*
X28119Y10949D1*
X28184Y10996D1*
X28189Y11000D1*
X28111Y11058D1*
X28072Y11097D1*
X27089Y11096D1*
Y10911D1*
X25911D1*
Y12089D1*
X26079D1*
X26012Y12171D1*
X25963Y12258D1*
X25930Y12352D1*
X25913Y12451D1*
X25914Y12551D1*
X25931Y12649D1*
X25964Y12743D1*
X26013Y12830D1*
X26076Y12908D1*
X26151Y12974D1*
X26191Y13001D1*
X26150Y13027D1*
X26075Y13093D1*
X26012Y13171D1*
X25963Y13258D1*
X25930Y13352D1*
X25913Y13451D1*
X25914Y13551D1*
X25931Y13649D1*
X25964Y13743D1*
X26013Y13830D1*
X26076Y13908D1*
X26151Y13974D1*
X26191Y14001D1*
X26150Y14027D1*
X26075Y14093D1*
X26012Y14171D1*
X25963Y14258D1*
X25930Y14352D1*
X25913Y14451D1*
X25914Y14551D1*
X25931Y14649D1*
X25964Y14743D1*
X26013Y14830D1*
X26076Y14908D1*
X26151Y14974D1*
X26236Y15026D1*
X26329Y15063D1*
X26426Y15084D1*
X26526Y15088D1*
X26625Y15075D1*
X26721Y15046D1*
X26810Y15001D1*
X26890Y14941D1*
X26929Y14903D1*
X27300Y14904D1*
X28073D1*
X28112Y14942D1*
X28191Y15001D1*
X28150Y15027D1*
X28075Y15093D1*
X28012Y15171D1*
X27963Y15258D1*
X27930Y15352D1*
X27913Y15451D1*
X27914Y15551D1*
X27931Y15649D1*
X27964Y15743D1*
X28013Y15830D1*
X28076Y15908D1*
X28151Y15974D1*
X28191Y16001D1*
X28158Y16021D1*
X28096Y16072D1*
X28042Y16131D1*
X27996Y16196D1*
X27959Y16267D1*
X27933Y16343D1*
X27917Y16421D1*
X27911Y16501D1*
X27917Y16580D1*
X27933Y16659D1*
X27960Y16734D1*
X27997Y16805D1*
X28043Y16870D1*
X28097Y16929D1*
X28159Y16980D1*
X28227Y17021D1*
X28300Y17054D1*
X28377Y17076D1*
X28456Y17087D1*
X28536Y17088D1*
X28615Y17077D1*
X28692Y17056D1*
X28766Y17025D1*
X28835Y16984D1*
X28897Y16934D1*
X28952Y16877D1*
X28999Y16812D1*
X29037Y16741D1*
X29065Y16666D1*
X29082Y16588D1*
X29089Y16509D1*
X29084Y16430D1*
X29070Y16352D1*
X29044Y16276D1*
X29009Y16204D1*
X28964Y16138D1*
X28911Y16078D1*
X28850Y16027D1*
X28810Y16000D1*
X28890Y15941D1*
X28929Y15903D1*
X29202Y15904D1*
X32285Y10069D2*
Y8931D1*
X30715Y8933D1*
X30735Y8931D1*
X29215D1*
Y9095D1*
X29089Y9096D1*
Y8911D1*
X27911D1*
Y9097D1*
X27700Y9096D1*
X26702D1*
Y9049D1*
X25875D1*
X25876Y8623D1*
X25873Y8573D1*
X25861Y8525D1*
X25841Y8479D1*
X25815Y8436D1*
X25785Y8401D1*
X25315Y7932D1*
X25314Y7765D1*
X25390Y7764D1*
X26503D1*
X27027Y8289D1*
X27065Y8321D1*
X27108Y8347D1*
X27154Y8367D1*
X27203Y8378D1*
X27303Y8382D1*
X33936D1*
X33935Y8851D1*
Y8912D1*
X32911Y8911D1*
Y10089D1*
X33079D1*
X33012Y10171D1*
X32963Y10258D1*
X32930Y10352D1*
X32913Y10451D1*
X32914Y10551D1*
X32925Y10623D1*
X32617Y10932D1*
X32286Y10931D1*
X32285Y10033D1*
X30725Y11171D2*
X31128D1*
X31025Y11275D1*
X30971Y11299D1*
X30779Y11301D1*
X30671Y11299D1*
X30029Y11301D1*
X30051Y11299D1*
X29360D1*
Y12201D1*
X29427D1*
Y12298D1*
X29360Y12299D1*
Y13201D1*
X29427D1*
Y13298D1*
X29360Y13299D1*
Y14201D1*
X29427D1*
Y15095D1*
X28927Y15096D1*
X28889Y15058D1*
X28810Y15000D1*
X28851Y14973D1*
X28926Y14906D1*
X28988Y14829D1*
X29037Y14741D1*
X29070Y14647D1*
X29087Y14549D1*
Y14450D1*
X29070Y14352D1*
X29036Y14257D1*
X28988Y14170D1*
X28925Y14093D1*
X28850Y14027D1*
X28810Y14000D1*
X28851Y13973D1*
X28926Y13906D1*
X28988Y13829D1*
X29037Y13741D1*
X29070Y13647D1*
X29087Y13549D1*
Y13450D1*
X29070Y13352D1*
X29036Y13257D1*
X28988Y13170D1*
X28925Y13093D1*
X28850Y13027D1*
X28810Y13000D1*
X28851Y12973D1*
X28926Y12906D1*
X28988Y12829D1*
X29037Y12741D1*
X29070Y12647D1*
X29087Y12549D1*
Y12450D1*
X29070Y12352D1*
X29036Y12257D1*
X28988Y12170D1*
X28925Y12093D1*
X28850Y12027D1*
X28810Y12000D1*
X28851Y11973D1*
X28926Y11906D1*
X28988Y11829D1*
X29037Y11741D1*
X29070Y11647D1*
X29087Y11549D1*
Y11450D1*
X29070Y11352D1*
X29036Y11257D1*
X28988Y11170D1*
X28925Y11093D1*
X28850Y11027D1*
X28810Y11000D1*
X28851Y10973D1*
X28912Y10921D1*
X28965Y10861D1*
X29010Y10795D1*
X29045Y10723D1*
X29070Y10647D1*
X29085Y10568D1*
X29089Y10490D1*
X29082Y10410D1*
X29064Y10332D1*
X29036Y10257D1*
X28999Y10187D1*
X28952Y10122D1*
X28921Y10088D1*
X29089Y10089D1*
Y9903D1*
X29214Y9904D1*
X29216Y10069D1*
X29215Y10103D1*
Y11171D1*
X30725D1*
X3645Y10829D2*
X2417D1*
Y10488D1*
X1403D1*
X1404Y9698D1*
X1436Y9777D1*
X1476Y9846D1*
X1524Y9910D1*
X1580Y9967D1*
X1643Y10017D1*
X1712Y10058D1*
X1785Y10090D1*
X1862Y10113D1*
X1941Y10125D1*
X2021Y10128D1*
X2100Y10120D1*
X2178Y10102D1*
X2253Y10075D1*
X2324Y10038D1*
X2390Y9992D1*
X2449Y9939D1*
X2501Y9878D1*
X2545Y9812D1*
X2580Y9740D1*
X2606Y9664D1*
X2622Y9586D1*
X2628Y9506D1*
X2624Y9430D1*
X2610Y9351D1*
X2586Y9275D1*
X2553Y9202D1*
X2511Y9135D1*
X2460Y9073D1*
X2402Y9018D1*
X2380Y9000D1*
X2442Y8946D1*
X2507Y8870D1*
X2560Y8785D1*
X2598Y8693D1*
X2621Y8596D1*
X2628Y8500D1*
X2620Y8400D1*
X2596Y8303D1*
X2558Y8211D1*
X2506Y8128D1*
X2628D1*
Y6872D1*
X2320D1*
X2319Y6550D1*
Y6390D1*
X3931D1*
Y6871D1*
X3678Y6872D1*
X3622D1*
Y8128D1*
X3745D1*
X3703Y8191D1*
X3661Y8282D1*
X3634Y8378D1*
X3622Y8477D1*
X3627Y8577D1*
X3647Y8675D1*
X3682Y8768D1*
X3732Y8855D1*
X3795Y8932D1*
X3870Y9000D1*
X3813Y9049D1*
X3759Y9108D1*
X3713Y9174D1*
X3676Y9245D1*
X3648Y9320D1*
X3630Y9397D1*
X3622Y9477D1*
X3625Y9557D1*
X3637Y9636D1*
X3659Y9713D1*
X3691Y9786D1*
X3732Y9855D1*
X3781Y9918D1*
X3838Y9974D1*
X3901Y10022D1*
X3971Y10062D1*
X4044Y10093D1*
X4121Y10115D1*
X4201Y10126D1*
X4281Y10127D1*
X4360Y10118D1*
X4438Y10099D1*
X4512Y10071D1*
X4583Y10033D1*
X4648Y9986D1*
X4706Y9932D1*
X4757Y9870D1*
X4800Y9803D1*
X4834Y9730D1*
X4859Y9654D1*
X4873Y9576D1*
X4878Y9500D1*
X4873Y9420D1*
X4858Y9342D1*
X4833Y9266D1*
X4798Y9194D1*
X4755Y9127D1*
X4703Y9065D1*
X4644Y9011D1*
X4630Y9000D1*
X4692Y8946D1*
X4731Y8903D1*
X4833Y8904D1*
X4908Y8979D1*
Y10208D1*
X4628Y10488D1*
X3645D1*
Y10830D1*
X32492Y6062D2*
Y6674D1*
X32531D1*
X32529Y6912D1*
Y7244D1*
X31892D1*
Y6887D1*
Y6218D1*
X31419Y6215D1*
X31378Y6180D1*
X31336Y6154D1*
X31290Y6135D1*
X31241Y6123D1*
X31141Y6119D1*
X31058D1*
X31057Y5746D1*
Y5682D1*
X30915D1*
Y4819D1*
X31069D1*
Y3681D1*
X29931D1*
Y3861D1*
X29879Y3812D1*
X29797Y3755D1*
X29706Y3714D1*
X29609Y3689D1*
X29509Y3681D1*
X29410Y3691D1*
X29314Y3718D1*
X29224Y3762D1*
X29143Y3820D1*
X29074Y3892D1*
X29018Y3975D1*
X28977Y4066D1*
X28953Y4163D1*
X28947Y4263D1*
X28958Y4362D1*
X28986Y4458D1*
X29031Y4547D1*
X29090Y4627D1*
X29162Y4696D1*
X29181Y4710D1*
X29196Y4784D1*
X29215Y4831D1*
X29241Y4873D1*
X29310Y4948D1*
X29669Y5307D1*
X29230Y5308D1*
X29228Y5384D1*
X28764D1*
Y5321D1*
X27843D1*
X27844Y6085D1*
X27843Y6119D1*
Y6336D1*
X27590Y6588D1*
X27557Y6626D1*
X27531Y6668D1*
X27498Y6681D1*
X27289D1*
Y7648D1*
X26912Y7271D1*
X26911Y6862D1*
X26900D1*
X26899Y6403D1*
Y6181D1*
X26525D1*
Y5276D1*
X26461D1*
X26462Y4810D1*
X26626Y4811D1*
X27564D1*
Y3674D1*
X27400D1*
X27399Y3242D1*
X27396Y3193D1*
X27387Y3143D1*
X27371Y3096D1*
X27350Y3050D1*
X27324Y3008D1*
X27281Y2957D1*
X26976Y2652D1*
X26939Y2619D1*
X26897Y2591D1*
X26853Y2568D1*
X26806Y2551D1*
X26757Y2539D1*
X26690Y2534D1*
X24933D1*
X24814Y2424D1*
Y1559D1*
X24877Y1576D1*
X24976Y1588D1*
X25076Y1584D1*
X25173Y1563D1*
X25266Y1525D1*
X25351Y1473D1*
X25426Y1406D1*
X25488Y1329D1*
X25499Y1311D1*
X25543Y1370D1*
X25612Y1442D1*
X25692Y1502D1*
X25781Y1547D1*
X25877Y1576D1*
X25976Y1588D1*
X26076Y1584D1*
X26173Y1563D1*
X26266Y1525D1*
X26351Y1473D1*
X26426Y1406D1*
X26488Y1329D1*
X26499Y1311D1*
X26543Y1370D1*
X26612Y1442D1*
X26692Y1502D1*
X26781Y1547D1*
X26877Y1576D1*
X26976Y1588D1*
X27076Y1584D1*
X27173Y1563D1*
X27266Y1525D1*
X27351Y1473D1*
X27426Y1406D1*
X27488Y1329D1*
X27537Y1241D1*
X27570Y1147D1*
X27587Y1049D1*
Y950D1*
X27570Y852D1*
X27536Y757D1*
X27488Y670D1*
X27425Y593D1*
X27378Y549D1*
X28300Y550D1*
X28411D1*
Y1589D1*
X29589D1*
Y1421D1*
X29651Y1474D1*
X29736Y1526D1*
X29829Y1563D1*
X29926Y1584D1*
X30026Y1588D1*
X30125Y1575D1*
X30221Y1546D1*
X30310Y1501D1*
X30390Y1441D1*
X30459Y1369D1*
X30499Y1311D1*
X30543Y1370D1*
X30612Y1442D1*
X30692Y1502D1*
X30781Y1547D1*
X30877Y1576D1*
X30976Y1588D1*
X31076Y1584D1*
X31173Y1563D1*
X31266Y1525D1*
X31351Y1473D1*
X31426Y1406D1*
X31488Y1329D1*
X31499Y1311D1*
X31543Y1370D1*
X31612Y1442D1*
X31692Y1502D1*
X31781Y1547D1*
X31877Y1576D1*
X31976Y1588D1*
X32076Y1584D1*
X32173Y1563D1*
X32248Y1533D1*
Y1988D1*
Y3911D1*
X32161D1*
Y5089D1*
X32432D1*
X32431Y5873D1*
X32435Y5923D1*
X32447Y5971D1*
X32466Y6018D1*
X32492Y6060D1*
X16637Y9285D2*
Y9178D1*
X17209Y9179D1*
X17312Y9283D1*
X16636D1*
X7413Y8751D2*
X8541D1*
Y7692D1*
X7403D1*
Y8751D1*
X7413D1*
X9379Y8717D2*
X10506D1*
Y7658D1*
X9369D1*
Y8717D1*
X9379D1*
X53002Y1700D2*
X52982Y1602D1*
X52943Y1510D1*
X52887Y1427D1*
X52816Y1357D1*
X52733Y1303D1*
X52640Y1266D1*
X52542Y1248D1*
X52442Y1249D1*
X52344Y1271D1*
X52253Y1311D1*
X52171Y1368D1*
X52102Y1440D1*
X52049Y1525D1*
X52014Y1618D1*
X51997Y1717D1*
X52000Y1816D1*
X52023Y1914D1*
X52065Y2004D1*
X52124Y2085D1*
X52197Y2153D1*
X52282Y2205D1*
X52376Y2239D1*
X52475Y2253D1*
X52575Y2248D1*
X52671Y2224D1*
X52762Y2181D1*
X52841Y2121D1*
X52908Y2046D1*
X52958Y1960D1*
X52991Y1866D1*
X53004Y1767D1*
X53002Y1700D1*
X8861Y20589D2*
X9989D1*
X9990Y20422D1*
X10051Y20474D1*
X10118Y20517D1*
X10191Y20550D1*
X10267Y20573D1*
X10346Y20586D1*
X10426Y20588D1*
X10505Y20579D1*
X10583Y20559D1*
X10657Y20530D1*
X10726Y20490D1*
X10790Y20441D1*
X10846Y20384D1*
X10894Y20320D1*
X10900Y20310D1*
X10943Y20370D1*
X11012Y20442D1*
X11092Y20502D1*
X11181Y20547D1*
X11277Y20576D1*
X11376Y20588D1*
X11476Y20584D1*
X11573Y20563D1*
X11666Y20525D1*
X11751Y20473D1*
X11826Y20406D1*
X11888Y20329D1*
X11899Y20311D1*
X11943Y20370D1*
X12012Y20442D1*
X12092Y20502D1*
X12181Y20547D1*
X12277Y20576D1*
X12376Y20588D1*
X12476Y20584D1*
X12573Y20563D1*
X12666Y20525D1*
X12751Y20473D1*
X12826Y20406D1*
X12888Y20329D1*
X12899Y20311D1*
X12943Y20370D1*
X13012Y20442D1*
X13092Y20502D1*
X13181Y20547D1*
X13277Y20576D1*
X13376Y20588D1*
X13476Y20584D1*
X13573Y20563D1*
X13666Y20525D1*
X13751Y20473D1*
X13826Y20406D1*
X13888Y20329D1*
X13899Y20311D1*
X13943Y20370D1*
X14012Y20442D1*
X14092Y20502D1*
X14181Y20547D1*
X14277Y20576D1*
X14376Y20588D1*
X14476Y20584D1*
X14573Y20563D1*
X14666Y20525D1*
X14751Y20473D1*
X14826Y20406D1*
X14888Y20329D1*
X14899Y20311D1*
X14943Y20370D1*
X15012Y20442D1*
X15092Y20502D1*
X15181Y20547D1*
X15277Y20576D1*
X15376Y20588D1*
X15476Y20584D1*
X15573Y20563D1*
X15666Y20525D1*
X15751Y20473D1*
X15826Y20406D1*
X15888Y20329D1*
X15899Y20311D1*
X15943Y20370D1*
X16012Y20442D1*
X16092Y20502D1*
X16181Y20547D1*
X16277Y20576D1*
X16376Y20588D1*
X16476Y20584D1*
X16573Y20563D1*
X16666Y20525D1*
X16751Y20473D1*
X16826Y20406D1*
X16888Y20329D1*
X16937Y20241D1*
X16970Y20147D1*
X16987Y20049D1*
Y19950D1*
X16970Y19852D1*
X16936Y19757D1*
X16888Y19670D1*
X16825Y19593D1*
X16750Y19527D1*
X16665Y19474D1*
X16572Y19437D1*
X16474Y19416D1*
X16375Y19412D1*
X16276Y19425D1*
X16180Y19454D1*
X16091Y19499D1*
X16011Y19558D1*
X15942Y19631D1*
X15900Y19691D1*
X15858Y19630D1*
X15789Y19558D1*
X15708Y19499D1*
X15619Y19454D1*
X15524Y19425D1*
X15425Y19412D1*
X15325Y19416D1*
X15227Y19437D1*
X15135Y19475D1*
X15050Y19527D1*
X14975Y19593D1*
X14912Y19671D1*
X14900Y19691D1*
X14858Y19630D1*
X14789Y19558D1*
X14708Y19499D1*
X14619Y19454D1*
X14524Y19425D1*
X14425Y19412D1*
X14325Y19416D1*
X14227Y19437D1*
X14135Y19475D1*
X14050Y19527D1*
X13975Y19593D1*
X13912Y19671D1*
X13900Y19691D1*
X13858Y19630D1*
X13789Y19558D1*
X13708Y19499D1*
X13619Y19454D1*
X13524Y19425D1*
X13425Y19412D1*
X13325Y19416D1*
X13227Y19437D1*
X13135Y19475D1*
X13050Y19527D1*
X12975Y19593D1*
X12912Y19671D1*
X12900Y19691D1*
X12858Y19630D1*
X12789Y19558D1*
X12708Y19499D1*
X12619Y19454D1*
X12524Y19425D1*
X12425Y19412D1*
X12325Y19416D1*
X12227Y19437D1*
X12135Y19475D1*
X12050Y19527D1*
X11975Y19593D1*
X11912Y19671D1*
X11900Y19691D1*
X11858Y19630D1*
X11789Y19558D1*
X11708Y19499D1*
X11619Y19454D1*
X11524Y19425D1*
X11425Y19412D1*
X11325Y19416D1*
X11227Y19437D1*
X11135Y19475D1*
X11050Y19527D1*
X10975Y19593D1*
X10912Y19671D1*
X10900Y19691D1*
X10876Y19654D1*
X10825Y19593D1*
X10766Y19539D1*
X10700Y19493D1*
X10628Y19458D1*
X10553Y19432D1*
X10474Y19416D1*
X10395Y19411D1*
X10315Y19418D1*
X10237Y19434D1*
X10162Y19462D1*
X10091Y19499D1*
X10026Y19545D1*
X9988Y19579D1*
X9989Y19411D1*
X8811D1*
Y20589D1*
X8861D1*
X17461D2*
X18589D1*
Y20421D1*
X18651Y20474D1*
X18736Y20526D1*
X18829Y20563D1*
X18926Y20584D1*
X19026Y20588D1*
X19125Y20575D1*
X19221Y20546D1*
X19310Y20501D1*
X19390Y20441D1*
X19459Y20369D1*
X19499Y20311D1*
X19543Y20370D1*
X19612Y20442D1*
X19692Y20502D1*
X19781Y20547D1*
X19877Y20576D1*
X19976Y20588D1*
X20076Y20584D1*
X20173Y20563D1*
X20266Y20525D1*
X20351Y20473D1*
X20426Y20406D1*
X20488Y20329D1*
X20499Y20311D1*
X20543Y20370D1*
X20612Y20442D1*
X20692Y20502D1*
X20781Y20547D1*
X20877Y20576D1*
X20976Y20588D1*
X21076Y20584D1*
X21173Y20563D1*
X21266Y20525D1*
X21351Y20473D1*
X21426Y20406D1*
X21488Y20329D1*
X21499Y20311D1*
X21543Y20370D1*
X21612Y20442D1*
X21692Y20502D1*
X21781Y20547D1*
X21877Y20576D1*
X21976Y20588D1*
X22076Y20584D1*
X22173Y20563D1*
X22266Y20525D1*
X22351Y20473D1*
X22426Y20406D1*
X22488Y20329D1*
X22499Y20311D1*
X22543Y20370D1*
X22612Y20442D1*
X22692Y20502D1*
X22781Y20547D1*
X22877Y20576D1*
X22976Y20588D1*
X23076Y20584D1*
X23173Y20563D1*
X23266Y20525D1*
X23351Y20473D1*
X23426Y20406D1*
X23488Y20329D1*
X23499Y20311D1*
X23543Y20370D1*
X23612Y20442D1*
X23692Y20502D1*
X23781Y20547D1*
X23877Y20576D1*
X23976Y20588D1*
X24076Y20584D1*
X24173Y20563D1*
X24266Y20525D1*
X24351Y20473D1*
X24426Y20406D1*
X24488Y20329D1*
X24499Y20311D1*
X24543Y20370D1*
X24612Y20442D1*
X24692Y20502D1*
X24781Y20547D1*
X24877Y20576D1*
X24976Y20588D1*
X25076Y20584D1*
X25173Y20563D1*
X25266Y20525D1*
X25351Y20473D1*
X25426Y20406D1*
X25488Y20329D1*
X25537Y20241D1*
X25570Y20147D1*
X25587Y20049D1*
Y19950D1*
X25570Y19852D1*
X25536Y19757D1*
X25488Y19670D1*
X25425Y19593D1*
X25350Y19527D1*
X25265Y19474D1*
X25172Y19437D1*
X25074Y19416D1*
X24975Y19412D1*
X24876Y19425D1*
X24780Y19454D1*
X24691Y19499D1*
X24611Y19558D1*
X24542Y19631D1*
X24500Y19691D1*
X24458Y19630D1*
X24389Y19558D1*
X24308Y19499D1*
X24219Y19454D1*
X24124Y19425D1*
X24025Y19412D1*
X23925Y19416D1*
X23827Y19437D1*
X23735Y19475D1*
X23650Y19527D1*
X23575Y19593D1*
X23512Y19671D1*
X23500Y19691D1*
X23458Y19630D1*
X23389Y19558D1*
X23308Y19499D1*
X23219Y19454D1*
X23124Y19425D1*
X23025Y19412D1*
X22925Y19416D1*
X22827Y19437D1*
X22735Y19475D1*
X22650Y19527D1*
X22575Y19593D1*
X22512Y19671D1*
X22500Y19691D1*
X22458Y19630D1*
X22389Y19558D1*
X22308Y19499D1*
X22219Y19454D1*
X22124Y19425D1*
X22025Y19412D1*
X21925Y19416D1*
X21827Y19437D1*
X21735Y19475D1*
X21650Y19527D1*
X21575Y19593D1*
X21512Y19671D1*
X21500Y19691D1*
X21458Y19630D1*
X21389Y19558D1*
X21308Y19499D1*
X21219Y19454D1*
X21124Y19425D1*
X21025Y19412D1*
X20925Y19416D1*
X20827Y19437D1*
X20735Y19475D1*
X20650Y19527D1*
X20575Y19593D1*
X20512Y19671D1*
X20500Y19691D1*
X20458Y19630D1*
X20389Y19558D1*
X20308Y19499D1*
X20219Y19454D1*
X20124Y19425D1*
X20025Y19412D1*
X19925Y19416D1*
X19827Y19437D1*
X19735Y19475D1*
X19650Y19527D1*
X19575Y19593D1*
X19512Y19671D1*
X19500Y19691D1*
X19458Y19630D1*
X19389Y19558D1*
X19308Y19499D1*
X19219Y19454D1*
X19124Y19425D1*
X19025Y19412D1*
X18925Y19416D1*
X18827Y19437D1*
X18735Y19475D1*
X18650Y19527D1*
X18589Y19579D1*
Y19411D1*
X17411D1*
Y20589D1*
X17461D1*
X31500Y19690D2*
X31458Y19630D1*
X31389Y19558D1*
X31308Y19499D1*
X31219Y19454D1*
X31124Y19425D1*
X31025Y19412D1*
X30925Y19416D1*
X30827Y19437D1*
X30814Y19442D1*
X30815Y16805D1*
X31116D1*
X31115Y15864D1*
X31116Y15886D1*
Y15195D1*
X30233D1*
X30235Y14919D1*
Y14202D1*
X30301Y14199D1*
X30279Y14201D1*
X30971Y14199D1*
X31079Y14201D1*
X31721Y14199D1*
X31699Y14201D1*
X32390D1*
Y14109D1*
X32437Y14119D1*
X32487Y14124D1*
X32537Y14122D1*
X32586Y14114D1*
X32634Y14099D1*
X32679Y14078D1*
X32722Y14051D1*
X32760Y14019D1*
X32793Y13982D1*
X32822Y13941D1*
X32844Y13896D1*
X32861Y13849D1*
X32871Y13800D1*
X32874Y13750D1*
X32871Y13700D1*
X32861Y13651D1*
X32844Y13604D1*
X32823Y13561D1*
X32895Y13534D1*
X32914Y13551D1*
X32931Y13649D1*
X32964Y13743D1*
X33013Y13830D1*
X33076Y13908D1*
X33151Y13974D1*
X33181Y13994D1*
Y14005D1*
X33111Y14058D1*
X33042Y14131D1*
X32986Y14213D1*
X32945Y14304D1*
X32920Y14401D1*
X32911Y14501D1*
X32920Y14600D1*
X32945Y14697D1*
X32987Y14788D1*
X33043Y14870D1*
X33112Y14942D1*
X33191Y15001D1*
X33150Y15027D1*
X33075Y15093D1*
X33012Y15171D1*
X32963Y15258D1*
X32930Y15352D1*
X32913Y15451D1*
X32914Y15551D1*
X32931Y15649D1*
X32964Y15743D1*
X33013Y15830D1*
X33076Y15908D1*
X33151Y15974D1*
X33191Y16001D1*
X33150Y16027D1*
X33075Y16093D1*
X33012Y16171D1*
X32963Y16258D1*
X32930Y16352D1*
X32913Y16451D1*
X32914Y16551D1*
X32931Y16649D1*
X32964Y16743D1*
X33013Y16830D1*
X33076Y16908D1*
X33151Y16974D1*
X33236Y17026D1*
X33329Y17063D1*
X33426Y17084D1*
X33526Y17088D1*
X33625Y17075D1*
X33721Y17046D1*
X33810Y17001D1*
X33890Y16941D1*
X33935Y16896D1*
Y18689D1*
X33939Y18739D1*
X33950Y18788D1*
X33969Y18834D1*
X33995Y18877D1*
X34063Y18950D1*
X34140Y19027D1*
X34170Y19108D1*
X34195Y19151D1*
X34226Y19190D1*
X34262Y19225D1*
X34302Y19255D1*
X34346Y19279D1*
X34393Y19297D1*
X34440Y19308D1*
Y19609D1*
X34389Y19558D1*
X34308Y19499D1*
X34219Y19454D1*
X34124Y19425D1*
X34025Y19412D1*
X33925Y19416D1*
X33827Y19437D1*
X33735Y19475D1*
X33650Y19527D1*
X33575Y19593D1*
X33512Y19671D1*
X33500Y19691D1*
X33458Y19630D1*
X33389Y19558D1*
X33308Y19499D1*
X33219Y19454D1*
X33124Y19425D1*
X33025Y19412D1*
X32925Y19416D1*
X32827Y19437D1*
X32735Y19475D1*
X32650Y19527D1*
X32575Y19593D1*
X32512Y19671D1*
X32500Y19691D1*
X32458Y19630D1*
X32389Y19558D1*
X32308Y19499D1*
X32219Y19454D1*
X32124Y19425D1*
X32025Y19412D1*
X31925Y19416D1*
X31827Y19437D1*
X31735Y19475D1*
X31650Y19527D1*
X31575Y19593D1*
X31512Y19671D1*
X31500Y19691D1*
X47171Y3526D2*
X48339D1*
X48340Y3360D1*
X48401Y3411D1*
X48468Y3454D1*
X48541Y3488D1*
X48617Y3511D1*
X48696Y3524D1*
X48776Y3526D1*
X48855Y3517D1*
X48933Y3497D1*
X49007Y3467D1*
X49076Y3427D1*
X49140Y3379D1*
X49196Y3322D1*
X49244Y3258D1*
X49250Y3248D1*
X49293Y3308D1*
X49347Y3367D1*
X49409Y3417D1*
X49477Y3459D1*
X49550Y3491D1*
X49627Y3513D1*
X49706Y3525D1*
X49786D1*
X49865Y3515D1*
X49942Y3494D1*
X50016Y3463D1*
X50085Y3422D1*
X50147Y3372D1*
X50202Y3314D1*
X50250Y3248D1*
X50293Y3308D1*
X50347Y3367D1*
X50409Y3417D1*
X50477Y3459D1*
X50550Y3491D1*
X50627Y3513D1*
X50706Y3525D1*
X50786D1*
X50865Y3515D1*
X50942Y3494D1*
X51016Y3463D1*
X51085Y3422D1*
X51147Y3372D1*
X51202Y3314D1*
X51249Y3249D1*
X51287Y3179D1*
X51315Y3104D1*
X51332Y3026D1*
X51339Y2946D1*
X51334Y2868D1*
X51320Y2789D1*
X51294Y2713D1*
X51259Y2642D1*
X51214Y2575D1*
X51161Y2516D1*
X51100Y2464D1*
X51032Y2421D1*
X50960Y2388D1*
X50883Y2364D1*
X50805Y2351D1*
X50725Y2349D1*
X50645Y2358D1*
X50568Y2378D1*
X50494Y2408D1*
X50424Y2447D1*
X50361Y2496D1*
X50304Y2553D1*
X50256Y2617D1*
X50250Y2627D1*
X50208Y2568D1*
X50154Y2509D1*
X50092Y2458D1*
X50024Y2416D1*
X49951Y2384D1*
X49874Y2362D1*
X49795Y2351D1*
X49715Y2350D1*
X49635Y2360D1*
X49558Y2381D1*
X49485Y2412D1*
X49416Y2453D1*
X49353Y2503D1*
X49298Y2560D1*
X49251Y2625D1*
X49249D1*
X49202Y2560D1*
X49146Y2502D1*
X49084Y2452D1*
X49015Y2412D1*
X48941Y2381D1*
X48864Y2360D1*
X48785Y2350D1*
X48705Y2351D1*
X48626Y2362D1*
X48549Y2384D1*
X48476Y2417D1*
X48408Y2459D1*
X48346Y2509D1*
X48339Y2516D1*
Y2349D1*
X47161D1*
Y3526D1*
X47171D1*
X26590Y3674D2*
X26426D1*
Y3853D1*
X26374Y3804D1*
X26292Y3748D1*
X26201Y3706D1*
X26104Y3681D1*
X26004Y3674D1*
X25905Y3683D1*
X25809Y3711D1*
X25719Y3754D1*
X25638Y3813D1*
X25569Y3884D1*
X25513Y3967D1*
X25472Y4058D1*
X25448Y4155D1*
X25442Y4255D1*
X25453Y4354D1*
X25481Y4450D1*
X25525Y4540D1*
X25585Y4620D1*
X25657Y4689D1*
X25741Y4743D1*
X25825Y4780D1*
X25824Y5276D1*
X25761D1*
Y6181D1*
X25387D1*
Y6863D1*
X25314Y6861D1*
Y3340D1*
X25655Y3342D1*
X26522D1*
X26591Y3410D1*
Y3675D1*
X3905Y18996D2*
X5128D1*
Y17504D1*
X4905D1*
X4904Y15150D1*
Y14605D1*
X5634Y13875D1*
X5667Y13837D1*
X5695Y13796D1*
X5718Y13752D1*
X5735Y13705D1*
X5747Y13656D1*
X5752Y13589D1*
Y10339D1*
X5749Y10289D1*
X5740Y10240D1*
X5721Y10185D1*
X5716Y10075D1*
Y8812D1*
X5713Y8763D1*
X5704Y8714D1*
X5689Y8666D1*
X5668Y8621D1*
X5642Y8578D1*
X5598Y8527D1*
X5286Y8214D1*
X5248Y8181D1*
X5207Y8153D1*
X5163Y8130D1*
X5116Y8113D1*
X5067Y8102D1*
X5000Y8096D1*
X4877D1*
X4878Y7878D1*
Y6872D1*
X4570D1*
X4569Y6550D1*
Y6389D1*
X4701Y6390D1*
X4699Y5449D1*
X4701Y5471D1*
Y4779D1*
X3840D1*
X3861Y4724D1*
X3871Y4675D1*
X3874Y4625D1*
X3871Y4575D1*
X3861Y4526D1*
X3844Y4479D1*
X3822Y4434D1*
X3794Y4393D1*
X3760Y4356D1*
X3722Y4324D1*
X3680Y4297D1*
X3635Y4276D1*
X3587Y4261D1*
X3538Y4253D1*
X3488Y4251D1*
X3438Y4256D1*
X3389Y4268D1*
X3343Y4286D1*
X3299Y4310D1*
X3259Y4339D1*
X3223Y4374D1*
X3192Y4413D1*
X3166Y4456D1*
X3147Y4502D1*
X3133Y4550D1*
X3127Y4600D1*
Y4650D1*
X3133Y4699D1*
X3147Y4747D1*
X3161Y4781D1*
X3090Y4779D1*
X3111Y4724D1*
X3121Y4675D1*
X3124Y4625D1*
X3121Y4575D1*
X3111Y4526D1*
X3094Y4479D1*
X3072Y4434D1*
X3044Y4393D1*
X3010Y4356D1*
X2972Y4324D1*
X2930Y4297D1*
X2885Y4276D1*
X2837Y4261D1*
X2788Y4253D1*
X2738Y4251D1*
X2688Y4256D1*
X2639Y4268D1*
X2593Y4286D1*
X2549Y4310D1*
X2509Y4339D1*
X2473Y4374D1*
X2442Y4413D1*
X2416Y4456D1*
X2397Y4502D1*
X2383Y4550D1*
X2377Y4600D1*
Y4650D1*
X2383Y4699D1*
X2397Y4747D1*
X2411Y4781D1*
X2299Y4779D1*
X1549D1*
X1551Y5721D1*
X1549Y5699D1*
Y6390D1*
X1682D1*
X1681Y6871D1*
X1428Y6872D1*
X1372D1*
Y8102D1*
X1293Y8123D1*
X1247Y8144D1*
X1205Y8170D1*
X1152Y8214D1*
X714Y8652D1*
X681Y8689D1*
X653Y8731D1*
X630Y8775D1*
X613Y8822D1*
X602Y8871D1*
X596Y8938D1*
Y10813D1*
X599Y10862D1*
X608Y10911D1*
X621Y10951D1*
X630Y10997D1*
Y13472D1*
X633Y13521D1*
X642Y13571D1*
X658Y13618D1*
X679Y13663D1*
X705Y13706D1*
X748Y13757D1*
X2095Y15104D1*
X2096Y16238D1*
Y17652D1*
X2042Y17702D1*
X2001Y17752D1*
X1939Y17683D1*
X1863Y17619D1*
X1777Y17568D1*
X1684Y17531D1*
X1586Y17510D1*
X1486Y17504D1*
X1387Y17514D1*
X1291Y17540D1*
X1199Y17581D1*
X1116Y17635D1*
X1042Y17702D1*
X980Y17780D1*
X930Y17867D1*
X896Y17961D1*
X876Y18059D1*
X872Y18132D1*
X874Y18368D1*
X877Y18445D1*
X897Y18543D1*
X932Y18636D1*
X982Y18723D1*
X1045Y18801D1*
X1096Y18850D1*
X1099Y19050D1*
X1108Y19099D1*
X1124Y19147D1*
X1145Y19192D1*
X1171Y19234D1*
X1214Y19286D1*
X1464Y19536D1*
X1502Y19569D1*
X1543Y19597D1*
X1587Y19620D1*
X1634Y19637D1*
X1683Y19648D1*
X1750Y19654D1*
X3250D1*
X3300Y19651D1*
X3349Y19642D1*
X3397Y19626D1*
X3442Y19605D1*
X3484Y19579D1*
X3536Y19536D1*
X3786Y19286D1*
X3819Y19248D1*
X3847Y19207D1*
X3870Y19163D1*
X3887Y19116D1*
X3898Y19067D1*
X3904Y18995D1*
X11506Y10992D2*
Y4508D1*
X11532Y4459D1*
X11548Y4412D1*
X11558Y4363D1*
X11562Y4312D1*
X11558Y4263D1*
X11548Y4214D1*
X11532Y4166D1*
X11509Y4122D1*
X11481Y4081D1*
X11448Y4044D1*
X11409Y4011D1*
X11367Y3984D1*
X11322Y3963D1*
X11274Y3949D1*
X11225Y3940D1*
X11175Y3939D1*
X11125Y3944D1*
X11077Y3955D1*
X11030Y3973D1*
X10986Y3997D1*
X10946Y4027D1*
X10910Y4061D1*
X10879Y4101D1*
X10854Y4144D1*
X10834Y4190D1*
X10821Y4238D1*
X10814Y4287D1*
Y4337D1*
X10821Y4387D1*
X10834Y4435D1*
X10869Y4507D1*
X10868Y10992D1*
X10834Y11065D1*
X10821Y11113D1*
X10814Y11162D1*
Y11212D1*
X10821Y11262D1*
X10834Y11310D1*
X10854Y11356D1*
X10879Y11399D1*
X10910Y11438D1*
X10946Y11473D1*
X10986Y11503D1*
X11030Y11527D1*
X11076Y11545D1*
X11125Y11556D1*
X11175Y11561D1*
X11225Y11560D1*
X11274Y11551D1*
X11322Y11537D1*
X11367Y11516D1*
X11409Y11489D1*
X11447Y11457D1*
X11481Y11420D1*
X11509Y11378D1*
X11532Y11334D1*
X11548Y11287D1*
X11558Y11238D1*
X11562Y11187D1*
X11558Y11138D1*
X11548Y11089D1*
X11532Y11041D1*
X11507Y10993D1*
X16809Y13947D2*
X17737D1*
X17735Y12928D1*
X17737Y12949D1*
X17739Y12186D1*
X17741Y12103D1*
X17740Y12074D1*
X17855D1*
Y11015D1*
X16606D1*
X16605Y10670D1*
X16606Y10635D1*
Y10342D1*
X17855D1*
Y9826D1*
X18421Y10392D1*
X18497Y10456D1*
X18584Y10505D1*
X18679Y10538D1*
X18779Y10553D1*
X18858Y10554D1*
X18857Y11195D1*
Y11305D1*
X20317D1*
Y8695D1*
X18857D1*
Y9262D1*
X18462Y8866D1*
X18226Y8630D1*
X18962Y8631D1*
X20305D1*
X20342Y8652D1*
X20389Y8670D1*
X20437Y8681D1*
X20487Y8686D1*
X20537Y8685D1*
X20586Y8676D1*
X20634Y8662D1*
X20679Y8641D1*
X20722Y8614D1*
X20760Y8582D1*
X20793Y8545D1*
X20822Y8503D1*
X20844Y8459D1*
X20861Y8412D1*
X20871Y8363D1*
X20872Y8286D1*
X21459Y8285D1*
X21696D1*
Y9812D1*
X21705Y9913D1*
X21707Y10045D1*
X21703Y10097D1*
X21696Y10188D1*
Y11652D1*
X20579D1*
Y13223D1*
X22819D1*
Y11652D1*
X22805D1*
X22804Y11305D1*
X23168D1*
Y8695D1*
X22804D1*
Y8661D1*
X22875Y8681D1*
X22925Y8686D1*
X22975Y8685D1*
X23024Y8676D1*
X23072Y8662D1*
X23117Y8641D1*
X23159Y8614D1*
X23197Y8582D1*
X23231Y8545D1*
X23259Y8503D1*
X23282Y8459D1*
X23298Y8412D1*
X23308Y8363D1*
X23312Y8312D1*
X23308Y8263D1*
X23298Y8214D1*
X23282Y8166D1*
X23259Y8122D1*
X23231Y8081D1*
X23198Y8044D1*
X23159Y8011D1*
X23117Y7984D1*
X23072Y7963D1*
X23024Y7949D1*
X22975Y7940D1*
X22925Y7939D1*
X22875Y7944D1*
X22819Y7959D1*
Y6715D1*
X22739D1*
X22701Y6656D1*
Y4636D1*
Y3967D1*
X22652D1*
X22654Y3737D1*
Y2500D1*
X22651Y2450D1*
X22642Y2401D1*
X22626Y2353D1*
X22605Y2308D1*
X22579Y2266D1*
X22548Y2227D1*
X22512Y2192D1*
X22472Y2162D1*
X22428Y2137D1*
X22382Y2118D1*
X22334Y2105D1*
X22285Y2097D1*
X22235Y2096D1*
X22185Y2101D1*
X22136Y2112D1*
X22089Y2129D1*
X22045Y2152D1*
X22003Y2180D1*
X21966Y2213D1*
X21932Y2250D1*
X21904Y2291D1*
X21881Y2336D1*
X21863Y2383D1*
X21852Y2431D1*
X21846Y2500D1*
Y3967D1*
X21799D1*
Y4697D1*
X21764Y4705D1*
X21718Y4723D1*
X21674Y4747D1*
X21634Y4777D1*
X21598Y4811D1*
X21567Y4851D1*
X21541Y4894D1*
X21522Y4940D1*
X21508Y4988D1*
X21502Y5037D1*
Y5087D1*
X21508Y5137D1*
X21522Y5185D1*
X21541Y5231D1*
X21566Y5274D1*
X21597Y5313D1*
X21633Y5348D1*
X21673Y5378D1*
X21717Y5402D1*
X21764Y5420D1*
X21799Y5428D1*
X21801Y5577D1*
X21799Y5557D1*
X21797Y6657D1*
X21762Y6714D1*
X21681Y6716D1*
X21647Y6715D1*
X20579D1*
Y7947D1*
X20538Y7940D1*
X20488Y7939D1*
X20438Y7944D1*
X20389Y7955D1*
X20343Y7973D1*
X20300Y7994D1*
X19070D1*
Y7076D1*
X18952D1*
Y6549D1*
X18788D1*
X18767Y6513D1*
X18952D1*
Y5951D1*
X18971D1*
X18969Y5049D1*
X18971Y4888D1*
Y4487D1*
X18030Y4488D1*
X18021Y4487D1*
X17360D1*
X17361Y5612D1*
X17342D1*
Y5832D1*
X16929Y6245D1*
X16692Y6244D1*
X16693Y6061D1*
X16441D1*
X16443Y5900D1*
Y5889D1*
X16576Y5888D1*
X16885Y5889D1*
X17137D1*
X17135Y4948D1*
X17137Y4970D1*
Y4279D1*
X17060D1*
X17048Y4214D1*
X17032Y4166D1*
X17009Y4122D1*
X16981Y4081D1*
X16948Y4044D1*
X16909Y4011D1*
X16867Y3984D1*
X16822Y3963D1*
X16774Y3949D1*
X16725Y3940D1*
X16675Y3939D1*
X16625Y3944D1*
X16577Y3955D1*
X16530Y3973D1*
X16486Y3997D1*
X16446Y4027D1*
X16410Y4061D1*
X16379Y4101D1*
X16354Y4144D1*
X16334Y4190D1*
X16321Y4238D1*
X16315Y4280D1*
X16235D1*
X15926Y4279D1*
X15674D1*
X15676Y5220D1*
X15674Y5199D1*
Y5890D1*
X15804D1*
X15805Y6063D1*
X15555Y6061D1*
Y6279D1*
X14960Y6278D1*
X14959Y6258D1*
X14960Y6061D1*
X14568D1*
X14569Y6012D1*
X14848Y6013D1*
X15390D1*
Y5362D1*
X15429D1*
Y4263D1*
X13661D1*
Y4871D1*
X13618Y4920D1*
X13592Y4962D1*
X13572Y5008D1*
X13560Y5057D1*
X13556Y5158D1*
Y5488D1*
X13208Y5487D1*
X12716Y5488D1*
X12708Y5487D1*
X12319D1*
Y4258D1*
X13007Y3569D1*
X19742D1*
X20181Y4007D1*
Y4867D1*
X20147Y4940D1*
X20133Y4988D1*
X20127Y5037D1*
Y5087D1*
X20133Y5137D1*
X20147Y5185D1*
X20166Y5231D1*
X20191Y5274D1*
X20222Y5313D1*
X20258Y5348D1*
X20298Y5378D1*
X20342Y5402D1*
X20389Y5420D1*
X20437Y5431D1*
X20487Y5436D1*
X20537Y5435D1*
X20586Y5426D1*
X20634Y5412D1*
X20679Y5391D1*
X20722Y5364D1*
X20760Y5332D1*
X20793Y5295D1*
X20822Y5253D1*
X20844Y5209D1*
X20861Y5162D1*
X20871Y5113D1*
X20874Y5062D1*
X20871Y5013D1*
X20861Y4964D1*
X20844Y4916D1*
X20819Y4868D1*
Y3875D1*
X20815Y3825D1*
X20803Y3777D1*
X20784Y3730D1*
X20758Y3688D1*
X20690Y3614D1*
X20101Y3024D1*
X20063Y2992D1*
X20020Y2966D1*
X19974Y2947D1*
X19925Y2935D1*
X19825Y2931D1*
X12875D1*
X12825Y2935D1*
X12777Y2947D1*
X12730Y2966D1*
X12688Y2992D1*
X12614Y3060D1*
X11774Y3899D1*
X11742Y3937D1*
X11716Y3980D1*
X11697Y4026D1*
X11685Y4075D1*
X11681Y4175D1*
Y6812D1*
X11685Y6862D1*
X11697Y6911D1*
X11716Y6957D1*
X11742Y7000D1*
X11810Y7073D1*
X11899Y7163D1*
X11937Y7195D1*
X11980Y7222D1*
X12026Y7241D1*
X12047Y7287D1*
Y7388D1*
X12988Y7387D1*
X12966Y7388D1*
X13658D1*
Y7284D1*
X13822D1*
X13824Y7869D1*
X13822Y8065D1*
X13840D1*
X13838Y8095D1*
X13763Y8124D1*
X13677Y8175D1*
X13608Y8233D1*
X12700Y9145D1*
X12643Y9227D1*
X12602Y9318D1*
X12578Y9415D1*
X12571Y9500D1*
X12573Y13487D1*
X12576Y13528D1*
X12577Y13947D1*
X12576Y13926D1*
Y14671D1*
X12571Y14741D1*
Y14843D1*
X12417Y14841D1*
Y16176D1*
X13476D1*
Y15759D1*
X13547Y15689D1*
X13605Y15608D1*
X13647Y15517D1*
X13672Y15420D1*
X13679Y15330D1*
Y14866D1*
X14148D1*
X14149Y15491D1*
Y16176D1*
X15208D1*
Y14841D1*
X14584D1*
X14631Y14824D1*
X15105D1*
Y13992D1*
X15269Y13991D1*
X15270Y14215D1*
Y14824D1*
X15384D1*
Y14869D1*
X15215D1*
X15216Y16006D1*
X15215Y16041D1*
Y17109D1*
X18285D1*
Y14869D1*
X17528D1*
X17521Y14793D1*
X17507Y14745D1*
X17488Y14698D1*
X17464Y14655D1*
X17434Y14615D1*
X17400Y14579D1*
X17361Y14547D1*
X17319Y14520D1*
X17273Y14499D1*
X17226Y14484D1*
X17177Y14474D1*
X17127Y14471D1*
X17077Y14474D1*
X17028Y14483D1*
X16980Y14498D1*
X16935Y14519D1*
X16892Y14545D1*
X16839Y14589D1*
X16560Y14869D1*
X16490D1*
X16520Y14824D1*
X16605Y14823D1*
Y13992D1*
X16692Y13982D1*
X16788Y13956D1*
X16807Y13948D1*
X17238Y13947D1*
X18482Y6063D2*
D22*
X18952D1*
X17831Y4937D2*
Y4487D1*
X17360Y4937D2*
X17831D1*
X14919Y4812D2*
Y4263D1*
Y4812D2*
X15429D1*
X21148Y8285D2*
Y6715D1*
X20579Y7500D2*
X21148D1*
Y13223D2*
Y11652D1*
X20579Y12437D2*
X21148D1*
X18561Y7625D2*
X19070D1*
X14500Y10148D2*
Y9579D1*
X13715Y10148D2*
X14500D1*
X15821Y10136D2*
Y9568D1*
X8561Y12363D2*
Y11265D1*
X16000Y17109D2*
Y16540D1*
X15215D2*
X16000D1*
X17500Y17109D2*
Y16540D1*
X18285D1*
X9316Y12363D2*
Y11265D1*
X52812Y7133D2*
Y6623D1*
X53362D1*
X50500Y7133D2*
Y6623D1*
X49951D2*
X51049D1*
X51500Y12687D2*
X52049D1*
X51500Y10439D2*
X52049D1*
X29750Y17008D2*
Y16498D1*
X29201D2*
X29750D1*
X31500Y10602D2*
X32285D1*
X30000Y11171D2*
Y10602D1*
X29215D2*
X30000D1*
X3000Y11398D2*
Y10829D1*
X33750Y6125D2*
Y5576D1*
Y6125D2*
X34260D1*
X14679Y16176D2*
Y14842D1*
X14149Y15509D2*
X15208D1*
X7972Y8751D2*
Y7692D1*
X7403Y8222D2*
X8541D1*
X9937Y8717D2*
Y7658D1*
X9369Y8187D2*
X10506D1*
X17187Y10342D2*
Y9283D1*
Y9812D2*
X17855D1*
X16000Y1588D2*
Y1000D1*
X17000Y1588D2*
Y1000D1*
X10400Y20588D2*
Y19412D1*
X38000Y3000D2*
Y2412D1*
Y3000D2*
X38588D1*
X37000D2*
Y2412D1*
X36412Y3000D2*
X37000D1*
X42000Y14588D2*
Y14000D1*
X42588D1*
X42000Y7588D2*
Y7000D1*
X42588D1*
X42000Y17000D2*
Y16412D1*
X8937Y14483D2*
Y13267D1*
X46500Y19537D2*
Y18969D1*
X45931D2*
X47069D1*
X50500Y19537D2*
Y18969D1*
X49931D2*
X51069D1*
X47750Y3526D2*
Y2349D1*
X47162Y2937D2*
X47750D1*
X48750Y3526D2*
Y2349D1*
X49750Y3526D2*
Y2349D1*
X50750Y3526D2*
Y2349D1*
Y2937D2*
X51338D1*
X27912Y10500D2*
X29088D1*
X28500Y17088D2*
Y16500D1*
X27912D2*
X29088D1*
X33750Y5088D2*
Y3912D1*
Y4500D2*
X34338D1*
X25769Y6642D2*
Y6181D1*
X25387Y6642D2*
X25769D1*
X2000Y10128D2*
Y9500D1*
X2628D1*
X4250Y10128D2*
Y9500D1*
X3622D2*
X4878D1*
X25771Y7764D2*
Y7313D1*
X14919Y6013D2*
Y5562D1*
X15389D1*
X12518Y5937D2*
Y5487D1*
X47500Y8750D2*
Y8280D1*
X51000Y8750D2*
Y8280D1*
X2750Y6390D2*
Y5919D1*
X3500Y6390D2*
Y5919D1*
X15258Y7849D2*
Y6278D1*
X52062Y7005D2*
Y6623D1*
X51602D2*
X52062D1*
X49750Y13273D2*
Y12626D1*
X48750Y13273D2*
Y12626D1*
D24*
X17812Y6063D3*
X18482D3*
X18500Y4937D3*
X17831D3*
D25*
X14171Y4812D3*
X14919D3*
D26*
X22250Y7500D3*
X21148D3*
X22250Y12437D3*
X21148D3*
D25*
X17812Y7625D3*
X18561D3*
D27*
X16686Y4749D3*
Y5419D3*
D28*
X13125Y13438D3*
Y14186D3*
D29*
X14500Y11250D3*
Y10148D3*
X15821Y11239D3*
Y10136D3*
D25*
X7813Y11814D3*
X8561D3*
D29*
X16000Y15438D3*
Y16540D3*
X17500Y15438D3*
Y16540D3*
D25*
X10064Y11814D3*
X9316D3*
D28*
X17187Y13437D3*
Y12689D3*
D27*
X46750Y8750D3*
Y9419D3*
D28*
X52812Y5875D3*
Y6623D3*
D27*
X47500Y14500D3*
Y13831D3*
X51750Y8750D3*
Y9419D3*
X51000Y14500D3*
Y13831D3*
D28*
X49375Y8625D3*
Y9373D3*
X50500Y5875D3*
Y6623D3*
X51500Y12687D3*
Y11939D3*
Y11187D3*
Y10439D3*
X47000Y11187D3*
Y11936D3*
X29750Y15750D3*
Y16498D3*
D29*
X31500Y9500D3*
Y10602D3*
X30000Y9500D3*
Y10602D3*
X3000Y12500D3*
Y11398D3*
D25*
X33002Y6125D3*
X33750D3*
D31*
X14375Y8625D3*
X16107D3*
D32*
X14437Y12562D3*
Y14295D3*
D31*
X12946Y15509D3*
X14679D3*
D33*
X7972Y9403D3*
Y8222D3*
X9937Y8187D3*
Y9368D3*
D32*
X17187Y9812D3*
Y11545D3*
X15937Y12563D3*
Y14295D3*
D34*
X29000Y7250D3*
X27819D3*
D32*
X1750Y12750D3*
Y11018D3*
X4312Y12750D3*
Y11018D3*
D27*
X22250Y4437D3*
Y5107D3*
D24*
X52750Y4250D3*
X52081D3*
X25562Y9500D3*
X26232D3*
D36*
X35500Y20000D3*
X8500Y1000D3*
X52500Y1750D3*
D37*
X11000Y1000D3*
D38*
X12000D3*
X13000D3*
X14000D3*
X15000D3*
X16000D3*
X17000D3*
X18000D3*
D37*
X9400Y20000D3*
D38*
X10400D3*
X11400D3*
X12400D3*
X13400D3*
X14400D3*
X15400D3*
X16400D3*
D37*
X38000D3*
D38*
X37000D3*
X38000Y19000D3*
X37000D3*
X38000Y18000D3*
X37000D3*
X38000Y17000D3*
X37000D3*
X38000Y16000D3*
X37000D3*
X38000Y15000D3*
X37000D3*
X38000Y14000D3*
X37000D3*
X38000Y13000D3*
X37000D3*
X38000Y12000D3*
X37000D3*
X38000Y11000D3*
X37000D3*
X38000Y10000D3*
X37000D3*
X38000Y9000D3*
X37000D3*
X38000Y8000D3*
X37000D3*
X38000Y7000D3*
X37000D3*
X38000Y6000D3*
X37000D3*
X38000Y5000D3*
X37000D3*
X38000Y4000D3*
X37000D3*
X38000Y3000D3*
X37000D3*
D37*
X20000Y1000D3*
D38*
X21000D3*
X22000D3*
X23000D3*
X24000D3*
X25000D3*
X26000D3*
X27000D3*
D37*
X18000Y20000D3*
D38*
X19000D3*
X20000D3*
X21000D3*
X22000D3*
X23000D3*
X24000D3*
X25000D3*
D37*
X42000Y10000D3*
D38*
X41000D3*
X42000Y11000D3*
X41000D3*
X42000Y12000D3*
X41000D3*
X42000Y13000D3*
X41000D3*
X42000Y14000D3*
X41000D3*
D37*
X29000Y1000D3*
D38*
X30000D3*
X31000D3*
X32000D3*
X33000D3*
X34000D3*
X35000D3*
X36000D3*
D37*
X27000Y20000D3*
D38*
X28000D3*
X29000D3*
X30000D3*
X31000D3*
X32000D3*
X33000D3*
X34000D3*
D37*
X42000Y3000D3*
D38*
X41000D3*
X42000Y4000D3*
X41000D3*
X42000Y5000D3*
X41000D3*
X42000Y6000D3*
X41000D3*
X42000Y7000D3*
X41000D3*
D37*
X44500Y3000D3*
D38*
Y4000D3*
Y5000D3*
Y6000D3*
D37*
X41000Y17000D3*
D38*
Y18000D3*
Y19000D3*
Y20000D3*
D37*
X42000Y17000D3*
D38*
Y18000D3*
Y19000D3*
Y20000D3*
D37*
X43000Y17000D3*
D38*
Y18000D3*
Y19000D3*
Y20000D3*
D39*
X7937Y13875D3*
D40*
X8937D3*
X9937D3*
D41*
X46500Y17000D3*
D42*
Y17984D3*
Y18969D3*
D41*
X50500Y17000D3*
D42*
Y17984D3*
Y18969D3*
D37*
X47750Y2937D3*
D38*
X48750D3*
X49750D3*
X50750D3*
D37*
X26500Y11500D3*
D38*
Y12500D3*
Y13500D3*
Y14500D3*
D37*
X33500Y9500D3*
D38*
Y10500D3*
Y11500D3*
Y12500D3*
Y13500D3*
Y14500D3*
Y15500D3*
Y16500D3*
D37*
X28500Y9500D3*
D38*
Y10500D3*
Y11500D3*
Y12500D3*
Y13500D3*
Y14500D3*
Y15500D3*
Y16500D3*
D41*
X26995Y4243D3*
D42*
X26011D3*
D41*
X30500Y4250D3*
D42*
X29516D3*
D43*
X4500Y18250D3*
D44*
X3500D3*
X2500D3*
X1500D3*
D37*
X32750Y4500D3*
D38*
X33750D3*
D45*
X22437Y10000D3*
X19587D3*
D47*
X26517Y6642D3*
X25769D3*
X26143Y5736D3*
D48*
X29691Y6438D3*
Y5690D3*
X30596Y6064D3*
X28304Y6451D3*
Y5703D3*
X29209Y6077D3*
D49*
X2000Y7500D3*
D50*
Y8500D3*
Y9500D3*
D49*
X4250Y7500D3*
D50*
Y8500D3*
Y9500D3*
D24*
X26440Y7313D3*
X25771D3*
X14250Y5562D3*
X14919D3*
X18500Y5500D3*
X17831D3*
X13187Y5937D3*
X12518D3*
X17812Y7000D3*
X18482D3*
X13187Y6437D3*
X12518D3*
X13187Y6937D3*
X12518D3*
D27*
X16125Y4750D3*
Y5419D3*
X7938Y11001D3*
Y10332D3*
X9939Y11001D3*
Y10332D3*
D51*
X10040Y16773D3*
X7835D3*
D24*
X52081Y5000D3*
X52750D3*
D27*
X47500Y8750D3*
Y9419D3*
X46000Y9500D3*
Y8831D3*
X46750Y13750D3*
Y14419D3*
X48250Y8750D3*
Y9419D3*
Y14500D3*
Y13831D3*
X51000Y8750D3*
Y9419D3*
X52500Y9498D3*
Y8829D3*
X51750Y13750D3*
Y14419D3*
X50250Y8750D3*
Y9419D3*
Y14500D3*
Y13831D3*
D24*
X46250Y11875D3*
X45581D3*
X45562Y11250D3*
X46232D3*
D27*
X30665Y16335D3*
Y15665D3*
D24*
X30500Y11750D3*
X29831D3*
X30500Y12750D3*
X29831D3*
X30500Y13750D3*
X29831D3*
X31250Y11750D3*
X31919D3*
X31250Y12750D3*
X31919D3*
X31250Y13750D3*
X31919D3*
X30500Y7250D3*
X29831D3*
D27*
X31441Y7357D3*
Y6688D3*
X2000Y5250D3*
Y5919D3*
X4250Y5250D3*
Y5919D3*
D24*
X33000Y6812D3*
X33669D3*
D27*
X2750Y5250D3*
Y5919D3*
X3500Y5250D3*
Y5919D3*
D53*
X16124Y6374D3*
Y6571D3*
Y6768D3*
Y6965D3*
Y7162D3*
Y7359D3*
Y7556D3*
Y7752D3*
X14391D3*
Y7556D3*
Y7359D3*
Y7162D3*
Y6965D3*
Y6768D3*
Y6571D3*
Y6374D3*
D26*
X15258Y7063D3*
D48*
X52062Y5875D3*
Y6623D3*
X51157Y6249D3*
D54*
X47750Y10500D3*
X48250D3*
X48750D3*
X49250D3*
X49750D3*
X50250D3*
X50750D3*
Y12626D3*
X50250D3*
X49750D3*
X49250D3*
X48750D3*
X48250D3*
X47750D3*
D55*
X48875Y5875D3*
X49131D3*
X49387D3*
X49643D3*
Y7607D3*
X49387D3*
X49131D3*
X48875D3*
M02*
