G04 DipTrace 2.4.0.2*
%INTopMask.gbr*%
%MOIN*%
%ADD35C,0.1*%
%ADD39R,0.0709X0.0709*%
%ADD40C,0.0709*%
%ADD49R,0.0748X0.0748*%
%ADD50C,0.0748*%
%ADD62R,0.0237X0.0631*%
%ADD64R,0.0316X0.0867*%
%ADD66R,0.071X0.0198*%
%ADD69R,0.0789X0.134*%
%ADD71C,0.0828*%
%ADD72R,0.0828X0.0828*%
%ADD73R,0.0493X0.0336*%
%ADD75R,0.0336X0.0493*%
%ADD77R,0.1033X0.2182*%
%ADD79O,0.0828X0.1064*%
%ADD81R,0.0828X0.1064*%
%ADD85C,0.0789*%
%ADD86R,0.0789X0.0789*%
%ADD88C,0.058*%
%ADD90R,0.0631X0.071*%
%ADD92R,0.071X0.0631*%
%ADD94R,0.0907X0.0631*%
%ADD96R,0.0631X0.0907*%
%ADD98R,0.1143X0.071*%
%ADD100R,0.0671X0.0592*%
%ADD102R,0.0474X0.0513*%
%ADD104R,0.071X0.1143*%
%ADD106R,0.0592X0.0671*%
%ADD108R,0.0513X0.0474*%
%FSLAX44Y44*%
G04*
G70*
G90*
G75*
G01*
%LNTopMask*%
%LPD*%
D108*
X17812Y6063D3*
X18482D3*
X18500Y4937D3*
X17831D3*
D106*
X14171Y4812D3*
X14919D3*
D104*
X22250Y7500D3*
X21148D3*
X22250Y12437D3*
X21148D3*
D106*
X17812Y7625D3*
X18561D3*
D102*
X16686Y4749D3*
Y5419D3*
D100*
X13125Y13438D3*
Y14186D3*
D98*
X14500Y11250D3*
Y10148D3*
X15821Y11239D3*
Y10136D3*
D106*
X7813Y11814D3*
X8561D3*
D98*
X16000Y15438D3*
Y16540D3*
X17500Y15438D3*
Y16540D3*
D106*
X10064Y11814D3*
X9316D3*
D100*
X17187Y13437D3*
Y12689D3*
D102*
X46750Y8750D3*
Y9419D3*
D100*
X52812Y5875D3*
Y6623D3*
D102*
X47500Y14500D3*
Y13831D3*
X51750Y8750D3*
Y9419D3*
X51000Y14500D3*
Y13831D3*
D100*
X49375Y8625D3*
Y9373D3*
X50500Y5875D3*
Y6623D3*
X51500Y12687D3*
Y11939D3*
Y11187D3*
Y10439D3*
X47000Y11187D3*
Y11936D3*
X29750Y15750D3*
Y16498D3*
D98*
X31500Y9500D3*
Y10602D3*
X30000Y9500D3*
Y10602D3*
X3000Y12500D3*
Y11398D3*
D106*
X33002Y6125D3*
X33750D3*
D96*
X14375Y8625D3*
X16107D3*
D94*
X14437Y12562D3*
Y14295D3*
D96*
X12946Y15509D3*
X14679D3*
D92*
X7972Y9403D3*
Y8222D3*
X9937Y8187D3*
Y9368D3*
D94*
X17187Y9812D3*
Y11545D3*
X15937Y12563D3*
Y14295D3*
D90*
X29000Y7250D3*
X27819D3*
D94*
X1750Y12750D3*
Y11018D3*
X4312Y12750D3*
Y11018D3*
D102*
X22250Y4437D3*
Y5107D3*
D108*
X52750Y4250D3*
X52081D3*
X25562Y9500D3*
X26232D3*
D35*
X35500Y20000D3*
D88*
D3*
D35*
X8500Y1000D3*
D88*
D3*
D35*
X52500Y1750D3*
D88*
D3*
D49*
X11000Y1000D3*
D50*
X12000D3*
X13000D3*
X14000D3*
X15000D3*
X16000D3*
X17000D3*
X18000D3*
D49*
X9400Y20000D3*
D50*
X10400D3*
X11400D3*
X12400D3*
X13400D3*
X14400D3*
X15400D3*
X16400D3*
D49*
X38000D3*
D50*
X37000D3*
X38000Y19000D3*
X37000D3*
X38000Y18000D3*
X37000D3*
X38000Y17000D3*
X37000D3*
X38000Y16000D3*
X37000D3*
X38000Y15000D3*
X37000D3*
X38000Y14000D3*
X37000D3*
X38000Y13000D3*
X37000D3*
X38000Y12000D3*
X37000D3*
X38000Y11000D3*
X37000D3*
X38000Y10000D3*
X37000D3*
X38000Y9000D3*
X37000D3*
X38000Y8000D3*
X37000D3*
X38000Y7000D3*
X37000D3*
X38000Y6000D3*
X37000D3*
X38000Y5000D3*
X37000D3*
X38000Y4000D3*
X37000D3*
X38000Y3000D3*
X37000D3*
D49*
X20000Y1000D3*
D50*
X21000D3*
X22000D3*
X23000D3*
X24000D3*
X25000D3*
X26000D3*
X27000D3*
D49*
X18000Y20000D3*
D50*
X19000D3*
X20000D3*
X21000D3*
X22000D3*
X23000D3*
X24000D3*
X25000D3*
D49*
X42000Y10000D3*
D50*
X41000D3*
X42000Y11000D3*
X41000D3*
X42000Y12000D3*
X41000D3*
X42000Y13000D3*
X41000D3*
X42000Y14000D3*
X41000D3*
D49*
X29000Y1000D3*
D50*
X30000D3*
X31000D3*
X32000D3*
X33000D3*
X34000D3*
X35000D3*
X36000D3*
D49*
X27000Y20000D3*
D50*
X28000D3*
X29000D3*
X30000D3*
X31000D3*
X32000D3*
X33000D3*
X34000D3*
D49*
X42000Y3000D3*
D50*
X41000D3*
X42000Y4000D3*
X41000D3*
X42000Y5000D3*
X41000D3*
X42000Y6000D3*
X41000D3*
X42000Y7000D3*
X41000D3*
D49*
X44500Y3000D3*
D50*
Y4000D3*
Y5000D3*
Y6000D3*
D49*
X41000Y17000D3*
D50*
Y18000D3*
Y19000D3*
Y20000D3*
D49*
X42000Y17000D3*
D50*
Y18000D3*
Y19000D3*
Y20000D3*
D49*
X43000Y17000D3*
D50*
Y18000D3*
Y19000D3*
Y20000D3*
D86*
X7937Y13875D3*
D85*
X8937D3*
X9937D3*
D39*
X46500Y17000D3*
D40*
Y17984D3*
Y18969D3*
D39*
X50500Y17000D3*
D40*
Y17984D3*
Y18969D3*
D49*
X47750Y2937D3*
D50*
X48750D3*
X49750D3*
X50750D3*
D49*
X26500Y11500D3*
D50*
Y12500D3*
Y13500D3*
Y14500D3*
D49*
X33500Y9500D3*
D50*
Y10500D3*
Y11500D3*
Y12500D3*
Y13500D3*
Y14500D3*
Y15500D3*
Y16500D3*
D49*
X28500Y9500D3*
D50*
Y10500D3*
Y11500D3*
Y12500D3*
Y13500D3*
Y14500D3*
Y15500D3*
Y16500D3*
D39*
X26995Y4243D3*
D40*
X26011D3*
D39*
X30500Y4250D3*
D40*
X29516D3*
D81*
X4500Y18250D3*
D79*
X3500D3*
X2500D3*
X1500D3*
D49*
X32750Y4500D3*
D50*
X33750D3*
D77*
X22437Y10000D3*
X19587D3*
D75*
X26517Y6642D3*
X25769D3*
X26143Y5736D3*
D73*
X29691Y6438D3*
Y5690D3*
X30596Y6064D3*
X28304Y6451D3*
Y5703D3*
X29209Y6077D3*
D72*
X2000Y7500D3*
D71*
Y8500D3*
Y9500D3*
D72*
X4250Y7500D3*
D71*
Y8500D3*
Y9500D3*
D108*
X26440Y7313D3*
X25771D3*
X14250Y5562D3*
X14919D3*
X18500Y5500D3*
X17831D3*
X13187Y5937D3*
X12518D3*
X17812Y7000D3*
X18482D3*
X13187Y6437D3*
X12518D3*
X13187Y6937D3*
X12518D3*
D102*
X16125Y4750D3*
Y5419D3*
X7938Y11001D3*
Y10332D3*
X9939Y11001D3*
Y10332D3*
D69*
X10040Y16773D3*
X7835D3*
D108*
X52081Y5000D3*
X52750D3*
D102*
X47500Y8750D3*
Y9419D3*
X46000Y9500D3*
Y8831D3*
X46750Y13750D3*
Y14419D3*
X48250Y8750D3*
Y9419D3*
Y14500D3*
Y13831D3*
X51000Y8750D3*
Y9419D3*
X52500Y9498D3*
Y8829D3*
X51750Y13750D3*
Y14419D3*
X50250Y8750D3*
Y9419D3*
Y14500D3*
Y13831D3*
D108*
X46250Y11875D3*
X45581D3*
X45562Y11250D3*
X46232D3*
D102*
X30665Y16335D3*
Y15665D3*
D108*
X30500Y11750D3*
X29831D3*
X30500Y12750D3*
X29831D3*
X30500Y13750D3*
X29831D3*
X31250Y11750D3*
X31919D3*
X31250Y12750D3*
X31919D3*
X31250Y13750D3*
X31919D3*
X30500Y7250D3*
X29831D3*
D102*
X31441Y7357D3*
Y6688D3*
X2000Y5250D3*
Y5919D3*
X4250Y5250D3*
Y5919D3*
D108*
X33000Y6812D3*
X33669D3*
D102*
X2750Y5250D3*
Y5919D3*
X3500Y5250D3*
Y5919D3*
D66*
X16124Y6374D3*
Y6571D3*
Y6768D3*
Y6965D3*
Y7162D3*
Y7359D3*
Y7556D3*
Y7752D3*
X14391D3*
Y7556D3*
Y7359D3*
Y7162D3*
Y6965D3*
Y6768D3*
Y6571D3*
Y6374D3*
D104*
X15258Y7063D3*
D73*
X52062Y5875D3*
Y6623D3*
X51157Y6249D3*
D64*
X47750Y10500D3*
X48250D3*
X48750D3*
X49250D3*
X49750D3*
X50250D3*
X50750D3*
Y12626D3*
X50250D3*
X49750D3*
X49250D3*
X48750D3*
X48250D3*
X47750D3*
D62*
X48875Y5875D3*
X49131D3*
X49387D3*
X49643D3*
Y7607D3*
X49387D3*
X49131D3*
X48875D3*
M02*
