G04 DipTrace 2.4.0.2*
%INTopSilk.gbr*%
%MOIN*%
%ADD10C,0.0098*%
%ADD12C,0.003*%
%ADD23C,0.0013*%
%ADD30C,0.0236*%
%ADD46C,0.0154*%
%ADD110C,0.0046*%
%ADD112C,0.0062*%
%FSLAX44Y44*%
G04*
G70*
G90*
G75*
G01*
%LNTopSilk*%
%LPD*%
X13757Y4557D2*
D10*
Y5068D1*
X21742Y7992D2*
Y7008D1*
X21817Y7992D2*
Y7008D1*
Y7992D2*
X21581D1*
X21817Y7008D2*
X21581D1*
X21742Y12930D2*
Y11945D1*
X21817Y12930D2*
Y11945D1*
Y12930D2*
X21581D1*
X21817Y11945D2*
X21581D1*
X17399Y7369D2*
Y7881D1*
X13381Y13024D2*
X12869D1*
X14008Y10742D2*
X14992D1*
X14008Y10817D2*
X14992D1*
X14008D2*
Y10581D1*
X14992Y10817D2*
Y10581D1*
X15329Y10731D2*
X16313D1*
X15329Y10805D2*
X16313D1*
X15329D2*
Y10570D1*
X16313Y10805D2*
Y10570D1*
X7400Y11558D2*
Y12069D1*
X16492Y15945D2*
X15508D1*
X16492Y15871D2*
X15508D1*
X16492D2*
Y16106D1*
X15508Y15871D2*
Y16106D1*
X17992Y15945D2*
X17008D1*
X17992Y15871D2*
X17008D1*
X17992D2*
Y16106D1*
X17008Y15871D2*
Y16106D1*
X10477Y12069D2*
Y11558D1*
X16932Y13851D2*
X17443D1*
X53068Y5461D2*
X52557D1*
X49631Y8211D2*
X49119D1*
X50756Y5461D2*
X50244D1*
X51244Y13101D2*
X51756D1*
X51244Y11601D2*
X51756D1*
X47256Y10774D2*
X46744D1*
X30006Y15336D2*
X29494D1*
X31992Y10008D2*
X31008D1*
X31992Y9933D2*
X31008D1*
X31992D2*
Y10169D1*
X31008Y9933D2*
Y10169D1*
X30492Y10008D2*
X29508D1*
X30492Y9933D2*
X29508D1*
X30492D2*
Y10169D1*
X29508Y9933D2*
Y10169D1*
X2508Y11992D2*
X3492D1*
X2508Y12067D2*
X3492D1*
X2508D2*
Y11831D1*
X3492Y12067D2*
Y11831D1*
X32588Y5869D2*
Y6381D1*
D30*
X13804Y8625D3*
X14769Y9137D2*
D10*
X15713D1*
X14769Y8113D2*
X15713D1*
D30*
X14437Y11992D3*
X13926Y12956D2*
D10*
Y13901D1*
X14949Y12956D2*
Y13901D1*
D30*
X12375Y15509D3*
X13340Y16021D2*
D10*
X14285D1*
X13340Y14997D2*
X14285D1*
X7696Y7769D2*
X8248D1*
X7677Y8714D2*
Y8911D1*
X8267Y8714D2*
Y8911D1*
X10213Y9821D2*
X9662D1*
X10233Y8876D2*
Y8679D1*
X9642Y8876D2*
Y8679D1*
D30*
X17187Y9242D3*
X16676Y10206D2*
D10*
Y11151D1*
X17699Y10206D2*
Y11151D1*
D30*
X15937Y11992D3*
X15426Y12956D2*
D10*
Y13901D1*
X16449Y12956D2*
Y13901D1*
X27366Y7526D2*
Y6974D1*
X28311Y7545D2*
X28508D1*
X28311Y6955D2*
X28508D1*
D30*
X1750Y13321D3*
X2262Y12356D2*
D10*
Y11412D1*
X1238Y12356D2*
Y11412D1*
D30*
X4312Y13321D3*
X4824Y12356D2*
D10*
Y11412D1*
X3801Y12356D2*
Y11412D1*
X40500Y9500D2*
X42500D1*
Y14500D1*
X40500D1*
Y9500D1*
Y2500D2*
X42500D1*
Y7500D1*
X40500D1*
Y2500D1*
X44000D2*
X45000D1*
Y6500D1*
X44000D1*
Y2500D1*
X40500Y16500D2*
X41500D1*
Y20500D1*
X40500D1*
Y16500D1*
X41500D2*
X42500D1*
Y20500D1*
X41500D1*
Y16500D1*
X42500D2*
X43500D1*
Y20500D1*
X42500D1*
Y16500D1*
X7437Y15009D2*
X10437D1*
X7437Y12725D2*
X10437D1*
X7437D2*
Y15009D1*
X10437Y12725D2*
Y15009D1*
X7437Y14615D2*
X10437D1*
X47425Y16016D2*
Y19953D1*
X45161Y16016D2*
X46500D1*
X45161Y19953D2*
X46500D1*
Y16016D2*
X47425D1*
X45161D2*
Y19953D1*
X47425D2*
X46500D1*
X51425Y16016D2*
Y19953D1*
X49161Y16016D2*
X50500D1*
X49161Y19953D2*
X50500D1*
Y16016D2*
X51425D1*
X49161D2*
Y19953D1*
X51425D2*
X50500D1*
X47250Y3438D2*
X51250D1*
Y2437D1*
X47250D1*
Y3438D1*
X26000Y11000D2*
X27000D1*
Y15000D1*
X26000D1*
Y11000D1*
X33000Y9000D2*
X34000D1*
Y17000D1*
X33000D1*
Y9000D1*
X28000D2*
X29000D1*
Y17000D1*
X28000D1*
Y9000D1*
X27841Y5168D2*
X25164D1*
X27841Y2786D2*
Y4243D1*
X25164Y2786D2*
Y4243D1*
X27841D2*
Y5168D1*
Y2786D2*
X25164D1*
Y5168D2*
Y4243D1*
X31346Y5175D2*
X28669D1*
X31346Y2793D2*
Y4250D1*
X28669Y2793D2*
Y4250D1*
X31346D2*
Y5175D1*
Y2793D2*
X28669D1*
Y5175D2*
Y4250D1*
X5091Y19510D2*
X909D1*
Y16951D1*
X5091D1*
Y19510D1*
G36*
X4657Y19225D2*
X4343D1*
Y19540D1*
X4657D1*
Y19225D1*
G37*
G36*
X3658D2*
X3343D1*
Y19540D1*
X3658D1*
Y19225D1*
G37*
G36*
X2657D2*
X2342D1*
Y19540D1*
X2657D1*
Y19225D1*
G37*
G36*
X1657D2*
X1342D1*
Y19540D1*
X1657D1*
Y19225D1*
G37*
X32250Y5000D2*
D10*
X34250D1*
Y4000D1*
X32250D1*
Y5000D1*
X19402Y11610D2*
Y11221D1*
X22623Y11610D2*
X19402D1*
Y8390D2*
Y8779D1*
X22623Y8390D2*
X19402D1*
X22623Y11610D2*
Y11221D1*
Y8390D2*
Y8779D1*
D46*
X26825Y6789D3*
X26733Y6288D2*
D10*
X25552D1*
Y6091D1*
X26733D1*
Y6288D1*
D46*
X29544Y6747D3*
X30045Y6655D2*
D10*
Y5474D1*
X30242D1*
Y6655D1*
X30045D1*
D46*
X28156Y6759D3*
X28658Y6667D2*
D10*
Y5486D1*
X28855D1*
Y6667D1*
X28658D1*
X937Y6531D2*
X2709D1*
Y10469D1*
X937D1*
Y6531D1*
X1291D2*
Y10469D1*
X3187Y6531D2*
X4959D1*
Y10469D1*
X3187D1*
Y6531D1*
X3541D2*
Y10469D1*
X9567Y16182D2*
X8308D1*
X9567Y17364D2*
X8308D1*
X15691Y6276D2*
Y7851D1*
X14825D2*
Y6276D1*
X15691Y7851D2*
X14825D1*
X15691Y6276D2*
X15415D1*
X15100D2*
X14825D1*
X15415D2*
G03X15100Y6276I-158J0D01*
G01*
D46*
X52210Y5567D3*
X51708Y5659D2*
D10*
Y6840D1*
X51511D1*
Y5659D1*
X51708D1*
X47557Y11051D2*
X50943D1*
X47557Y12075D2*
X50943D1*
Y11051D2*
Y12075D1*
X47557Y11051D2*
Y11366D1*
Y11760D2*
Y12075D1*
Y11366D2*
G03X47557Y11760I0J197D01*
G01*
X48668Y6308D2*
X49849D1*
X48668Y7174D2*
X49849D1*
Y6308D2*
Y7174D1*
X48668Y6308D2*
Y6584D1*
Y6899D2*
Y7174D1*
Y6584D2*
G03X48668Y6899I0J158D01*
G01*
X8000Y18500D2*
D23*
X35500D1*
Y2500D1*
X9500D2*
X35500D1*
X8000Y20500D2*
Y18500D1*
X9500Y2500D2*
Y500D1*
X39500Y20500D2*
Y500D1*
G36*
X5500Y2563D2*
X7500D1*
Y1313D1*
X5500D1*
Y2563D1*
G37*
X5023Y967D2*
D12*
X5083D1*
X3653Y957D2*
X3873D1*
X4995D2*
X5107D1*
X1123Y947D2*
X1133D1*
X1393D2*
X1443D1*
X1723D2*
X1773D1*
X2253D2*
X2303D1*
X2583D2*
X2633D1*
X2913D2*
X2963D1*
X3303D2*
X3313D1*
X3653D2*
X3897D1*
X4972D2*
X5128D1*
X1113Y937D2*
X1133D1*
X1374D2*
X1459D1*
X1704D2*
X1789D1*
X2234D2*
X2319D1*
X2564D2*
X2649D1*
X2894D2*
X2979D1*
X3293D2*
X3313D1*
X3653D2*
X3915D1*
X4954D2*
X4993D1*
X5102D2*
X5145D1*
X1103Y927D2*
X1133D1*
X1358D2*
X1473D1*
X1688D2*
X1803D1*
X2218D2*
X2333D1*
X2548D2*
X2663D1*
X2878D2*
X2993D1*
X3283D2*
X3313D1*
X3653D2*
X3683D1*
X3879D2*
X3929D1*
X4938D2*
X4975D1*
X5121D2*
X5158D1*
X1093Y917D2*
X1133D1*
X1345D2*
X1375D1*
X1451D2*
X1484D1*
X1675D2*
X1705D1*
X1781D2*
X1814D1*
X2205D2*
X2235D1*
X2311D2*
X2344D1*
X2535D2*
X2565D1*
X2641D2*
X2674D1*
X2865D2*
X2895D1*
X2971D2*
X3004D1*
X3273D2*
X3313D1*
X3653D2*
X3683D1*
X3900D2*
X3940D1*
X4926D2*
X4959D1*
X5136D2*
X5167D1*
X1083Y907D2*
X1133D1*
X1334D2*
X1359D1*
X1466D2*
X1494D1*
X1664D2*
X1689D1*
X1796D2*
X1824D1*
X2194D2*
X2219D1*
X2326D2*
X2354D1*
X2524D2*
X2549D1*
X2656D2*
X2684D1*
X2854D2*
X2879D1*
X2986D2*
X3014D1*
X3263D2*
X3313D1*
X3653D2*
X3683D1*
X3917D2*
X3948D1*
X4915D2*
X4946D1*
X5148D2*
X5175D1*
X1072Y897D2*
X1133D1*
X1325D2*
X1347D1*
X1478D2*
X1502D1*
X1655D2*
X1677D1*
X1808D2*
X1832D1*
X2185D2*
X2207D1*
X2338D2*
X2362D1*
X2515D2*
X2537D1*
X2668D2*
X2692D1*
X2845D2*
X2867D1*
X2998D2*
X3022D1*
X3252D2*
X3313D1*
X3653D2*
X3683D1*
X3926D2*
X3954D1*
X4908D2*
X4934D1*
X5157D2*
X5183D1*
X1061Y887D2*
X1133D1*
X1317D2*
X1338D1*
X1487D2*
X1509D1*
X1647D2*
X1668D1*
X1817D2*
X1839D1*
X2177D2*
X2198D1*
X2347D2*
X2369D1*
X2507D2*
X2528D1*
X2677D2*
X2699D1*
X2837D2*
X2858D1*
X3007D2*
X3029D1*
X3241D2*
X3313D1*
X3653D2*
X3683D1*
X3930D2*
X3958D1*
X4901D2*
X4925D1*
X5164D2*
X5189D1*
X1047Y877D2*
X1133D1*
X1312D2*
X1332D1*
X1494D2*
X1514D1*
X1642D2*
X1662D1*
X1824D2*
X1844D1*
X2172D2*
X2192D1*
X2354D2*
X2374D1*
X2502D2*
X2522D1*
X2684D2*
X2704D1*
X2832D2*
X2852D1*
X3014D2*
X3034D1*
X3227D2*
X3313D1*
X3653D2*
X3683D1*
X3931D2*
X3961D1*
X4896D2*
X4919D1*
X5169D2*
X5196D1*
X1032Y867D2*
X1053D1*
X1103D2*
X1133D1*
X1307D2*
X1327D1*
X1498D2*
X1519D1*
X1637D2*
X1657D1*
X1828D2*
X1849D1*
X2167D2*
X2187D1*
X2358D2*
X2379D1*
X2497D2*
X2517D1*
X2688D2*
X2709D1*
X2827D2*
X2847D1*
X3018D2*
X3039D1*
X3213D2*
X3233D1*
X3283D2*
X3313D1*
X3653D2*
X3683D1*
X3932D2*
X3962D1*
X4890D2*
X4914D1*
X5173D2*
X5203D1*
X1017Y857D2*
X1038D1*
X1103D2*
X1133D1*
X1304D2*
X1325D1*
X1501D2*
X1522D1*
X1634D2*
X1655D1*
X1831D2*
X1852D1*
X2164D2*
X2185D1*
X2361D2*
X2382D1*
X2494D2*
X2515D1*
X2691D2*
X2712D1*
X2824D2*
X2845D1*
X3021D2*
X3042D1*
X3200D2*
X3217D1*
X3283D2*
X3313D1*
X3653D2*
X3683D1*
X3933D2*
X3962D1*
X4163D2*
X4213D1*
X4885D2*
X4910D1*
X1003Y847D2*
X1023D1*
X1103D2*
X1133D1*
X1302D2*
X1323D1*
X1504D2*
X1526D1*
X1632D2*
X1653D1*
X1834D2*
X1856D1*
X2162D2*
X2183D1*
X2364D2*
X2386D1*
X2492D2*
X2513D1*
X2694D2*
X2716D1*
X2822D2*
X2843D1*
X3024D2*
X3046D1*
X3190D2*
X3201D1*
X3283D2*
X3313D1*
X3653D2*
X3683D1*
X3932D2*
X3962D1*
X4140D2*
X4231D1*
X4393D2*
X4413D1*
X4603D2*
X4623D1*
X4881D2*
X4907D1*
X1103Y837D2*
X1133D1*
X1299D2*
X1321D1*
X1507D2*
X1529D1*
X1629D2*
X1651D1*
X1837D2*
X1859D1*
X2159D2*
X2181D1*
X2367D2*
X2389D1*
X2489D2*
X2511D1*
X2697D2*
X2719D1*
X2819D2*
X2841D1*
X3027D2*
X3049D1*
X3183D2*
D3*
X3283D2*
X3313D1*
X3653D2*
X3683D1*
X3931D2*
X3961D1*
X4121D2*
X4247D1*
X4394D2*
X4414D1*
X4601D2*
X4619D1*
X4877D2*
X4904D1*
X1103Y827D2*
X1133D1*
X1296D2*
X1319D1*
X1509D2*
X1531D1*
X1626D2*
X1649D1*
X1839D2*
X1861D1*
X2156D2*
X2179D1*
X2369D2*
X2391D1*
X2486D2*
X2509D1*
X2699D2*
X2721D1*
X2816D2*
X2839D1*
X3029D2*
X3051D1*
X3283D2*
X3313D1*
X3653D2*
X3683D1*
X3928D2*
X3957D1*
X4107D2*
X4143D1*
X4231D2*
X4260D1*
X4397D2*
X4417D1*
X4599D2*
X4616D1*
X4875D2*
X4902D1*
X1103Y817D2*
X1133D1*
X1294D2*
X1316D1*
X1511D2*
X1532D1*
X1624D2*
X1646D1*
X1841D2*
X1862D1*
X2154D2*
X2176D1*
X2371D2*
X2392D1*
X2484D2*
X2506D1*
X2701D2*
X2722D1*
X2814D2*
X2836D1*
X3031D2*
X3052D1*
X3283D2*
X3313D1*
X3653D2*
X3683D1*
X3923D2*
X3952D1*
X4096D2*
X4125D1*
X4246D2*
X4271D1*
X4401D2*
X4420D1*
X4596D2*
X4613D1*
X4873D2*
X4899D1*
X1103Y807D2*
X1133D1*
X1294D2*
X1314D1*
X1512D2*
X1533D1*
X1624D2*
X1644D1*
X1842D2*
X1863D1*
X2154D2*
X2174D1*
X2372D2*
X2393D1*
X2484D2*
X2504D1*
X2702D2*
X2723D1*
X2814D2*
X2834D1*
X3032D2*
X3053D1*
X3283D2*
X3313D1*
X3653D2*
X3683D1*
X3912D2*
X3946D1*
X4088D2*
X4111D1*
X4258D2*
X4281D1*
X4405D2*
X4423D1*
X4593D2*
X4609D1*
X4871D2*
X4896D1*
X1103Y797D2*
X1133D1*
X1293D2*
X1314D1*
X1513D2*
X1533D1*
X1623D2*
X1644D1*
X1843D2*
X1863D1*
X2153D2*
X2174D1*
X2373D2*
X2393D1*
X2483D2*
X2504D1*
X2703D2*
X2723D1*
X2813D2*
X2834D1*
X3033D2*
X3053D1*
X3283D2*
X3313D1*
X3653D2*
X3683D1*
X3898D2*
X3939D1*
X4081D2*
X4100D1*
X4267D2*
X4288D1*
X4409D2*
X4426D1*
X4589D2*
X4605D1*
X4869D2*
X4894D1*
X1103Y787D2*
X1133D1*
X1293D2*
X1313D1*
X1513D2*
X1533D1*
X1623D2*
X1643D1*
X1843D2*
X1863D1*
X2153D2*
X2173D1*
X2373D2*
X2393D1*
X2483D2*
X2503D1*
X2703D2*
X2723D1*
X2813D2*
X2833D1*
X3033D2*
X3053D1*
X3283D2*
X3313D1*
X3653D2*
X3683D1*
X3881D2*
X3929D1*
X4076D2*
X4093D1*
X4274D2*
X4294D1*
X4413D2*
X4430D1*
X4585D2*
X4600D1*
X4866D2*
X4894D1*
X1103Y777D2*
X1133D1*
X1293D2*
X1313D1*
X1513D2*
X1533D1*
X1623D2*
X1643D1*
X1843D2*
X1863D1*
X2153D2*
X2173D1*
X2373D2*
X2393D1*
X2483D2*
X2503D1*
X2703D2*
X2723D1*
X2813D2*
X2833D1*
X3033D2*
X3053D1*
X3283D2*
X3313D1*
X3653D2*
X3914D1*
X4071D2*
X4088D1*
X4278D2*
X4298D1*
X4416D2*
X4433D1*
X4580D2*
X4597D1*
X4864D2*
X4893D1*
X1103Y767D2*
X1133D1*
X1293D2*
X1313D1*
X1513D2*
X1533D1*
X1623D2*
X1643D1*
X1843D2*
X1863D1*
X2153D2*
X2173D1*
X2373D2*
X2393D1*
X2483D2*
X2503D1*
X2703D2*
X2723D1*
X2813D2*
X2833D1*
X3033D2*
X3053D1*
X3283D2*
X3313D1*
X3653D2*
X3897D1*
X4067D2*
X4085D1*
X4281D2*
X4301D1*
X4420D2*
X4436D1*
X4577D2*
X4593D1*
X4864D2*
X4893D1*
X1103Y757D2*
X1133D1*
X1293D2*
X1313D1*
X1513D2*
X1533D1*
X1623D2*
X1643D1*
X1843D2*
X1863D1*
X2153D2*
X2173D1*
X2373D2*
X2393D1*
X2483D2*
X2503D1*
X2703D2*
X2723D1*
X2813D2*
X2833D1*
X3033D2*
X3053D1*
X3283D2*
X3313D1*
X3653D2*
X3879D1*
X4064D2*
X4084D1*
X4282D2*
X4304D1*
X4423D2*
X4440D1*
X4573D2*
X4590D1*
X4865D2*
X4893D1*
X1103Y747D2*
X1133D1*
X1293D2*
X1313D1*
X1513D2*
X1533D1*
X1623D2*
X1643D1*
X1843D2*
X1863D1*
X2153D2*
X2173D1*
X2373D2*
X2393D1*
X2483D2*
X2503D1*
X2703D2*
X2723D1*
X2813D2*
X2833D1*
X3033D2*
X3053D1*
X3283D2*
X3313D1*
X3653D2*
X3683D1*
X3811D2*
X3865D1*
X4062D2*
X4083D1*
X4282D2*
X4307D1*
X4427D2*
X4443D1*
X4570D2*
X4586D1*
X4867D2*
X4893D1*
X1103Y737D2*
X1133D1*
X1293D2*
X1313D1*
X1513D2*
X1533D1*
X1623D2*
X1643D1*
X1843D2*
X1863D1*
X2153D2*
X2173D1*
X2373D2*
X2393D1*
X2483D2*
X2503D1*
X2703D2*
X2723D1*
X2813D2*
X2833D1*
X3033D2*
X3053D1*
X3283D2*
X3313D1*
X3653D2*
X3683D1*
X3827D2*
X3857D1*
X4059D2*
X4083D1*
X4283D2*
X4309D1*
X4431D2*
X4447D1*
X4566D2*
X4583D1*
X4869D2*
X4893D1*
X1103Y727D2*
X1133D1*
X1293D2*
X1313D1*
X1513D2*
X1533D1*
X1623D2*
X1643D1*
X1843D2*
X1863D1*
X2153D2*
X2173D1*
X2373D2*
X2393D1*
X2483D2*
X2503D1*
X2703D2*
X2723D1*
X2813D2*
X2833D1*
X3033D2*
X3053D1*
X3283D2*
X3313D1*
X3653D2*
X3683D1*
X3840D2*
X3864D1*
X4056D2*
X4311D1*
X4435D2*
X4451D1*
X4563D2*
X4579D1*
X4871D2*
X4894D1*
X1103Y717D2*
X1133D1*
X1293D2*
X1313D1*
X1513D2*
X1533D1*
X1623D2*
X1643D1*
X1843D2*
X1863D1*
X1943D2*
X2083D1*
X2153D2*
X2173D1*
X2373D2*
X2393D1*
X2483D2*
X2503D1*
X2703D2*
X2723D1*
X2813D2*
X2833D1*
X3033D2*
X3053D1*
X3283D2*
X3313D1*
X3653D2*
X3683D1*
X3850D2*
X3873D1*
X4055D2*
X4312D1*
X4439D2*
X4455D1*
X4559D2*
X4575D1*
X4872D2*
X4897D1*
X1103Y707D2*
X1133D1*
X1293D2*
X1313D1*
X1512D2*
X1533D1*
X1623D2*
X1643D1*
X1842D2*
X1863D1*
X1943D2*
X2083D1*
X2153D2*
X2173D1*
X2372D2*
X2393D1*
X2483D2*
X2503D1*
X2702D2*
X2723D1*
X2813D2*
X2833D1*
X3032D2*
X3053D1*
X3283D2*
X3313D1*
X3653D2*
X3683D1*
X3858D2*
X3883D1*
X4054D2*
X4313D1*
X4443D2*
X4459D1*
X4556D2*
X4570D1*
X4874D2*
X4899D1*
X1103Y697D2*
X1133D1*
X1294D2*
X1314D1*
X1511D2*
X1532D1*
X1624D2*
X1644D1*
X1841D2*
X1862D1*
X1943D2*
X2083D1*
X2154D2*
X2174D1*
X2371D2*
X2392D1*
X2484D2*
X2504D1*
X2701D2*
X2722D1*
X2814D2*
X2834D1*
X3031D2*
X3052D1*
X3283D2*
X3313D1*
X3653D2*
X3683D1*
X3866D2*
X3893D1*
X4055D2*
X4083D1*
X4446D2*
X4463D1*
X4553D2*
X4567D1*
X4877D2*
X4902D1*
X1103Y687D2*
X1133D1*
X1297D2*
X1317D1*
X1509D2*
X1531D1*
X1627D2*
X1647D1*
X1839D2*
X1861D1*
X2157D2*
X2177D1*
X2369D2*
X2391D1*
X2487D2*
X2507D1*
X2699D2*
X2721D1*
X2817D2*
X2837D1*
X3029D2*
X3051D1*
X3283D2*
X3313D1*
X3653D2*
X3683D1*
X3874D2*
X3902D1*
X4057D2*
X4083D1*
X4450D2*
X4466D1*
X4549D2*
X4563D1*
X4880D2*
X4904D1*
X1103Y677D2*
X1133D1*
X1299D2*
X1319D1*
X1506D2*
X1529D1*
X1629D2*
X1649D1*
X1836D2*
X1859D1*
X2159D2*
X2179D1*
X2366D2*
X2389D1*
X2489D2*
X2509D1*
X2696D2*
X2719D1*
X2819D2*
X2839D1*
X3026D2*
X3049D1*
X3283D2*
X3313D1*
X3653D2*
X3683D1*
X3882D2*
X3911D1*
X4060D2*
X4083D1*
X4453D2*
X4470D1*
X4545D2*
X4560D1*
X4883D2*
X4907D1*
X5183D2*
X5203D1*
X1103Y667D2*
X1133D1*
X1302D2*
X1322D1*
X1504D2*
X1526D1*
X1632D2*
X1652D1*
X1834D2*
X1856D1*
X2162D2*
X2182D1*
X2364D2*
X2386D1*
X2492D2*
X2512D1*
X2694D2*
X2716D1*
X2822D2*
X2842D1*
X3024D2*
X3046D1*
X3283D2*
X3313D1*
X3653D2*
X3683D1*
X3889D2*
X3918D1*
X4062D2*
X4083D1*
X4457D2*
X4473D1*
X4540D2*
X4556D1*
X4887D2*
X4910D1*
X5179D2*
X5201D1*
X1103Y657D2*
X1133D1*
X1304D2*
X1324D1*
X1502D2*
X1523D1*
X1634D2*
X1654D1*
X1832D2*
X1853D1*
X2164D2*
X2184D1*
X2362D2*
X2383D1*
X2494D2*
X2514D1*
X2692D2*
X2713D1*
X2824D2*
X2844D1*
X3022D2*
X3043D1*
X3283D2*
X3313D1*
X3653D2*
X3683D1*
X3896D2*
X3925D1*
X4064D2*
X4085D1*
X4461D2*
X4476D1*
X4536D2*
X4553D1*
X4891D2*
X4913D1*
X5175D2*
X5198D1*
X1103Y647D2*
X1133D1*
X1307D2*
X1327D1*
X1499D2*
X1519D1*
X1637D2*
X1657D1*
X1829D2*
X1849D1*
X2167D2*
X2187D1*
X2359D2*
X2379D1*
X2497D2*
X2517D1*
X2689D2*
X2709D1*
X2827D2*
X2847D1*
X3019D2*
X3039D1*
X3283D2*
X3313D1*
X3653D2*
X3683D1*
X3903D2*
X3930D1*
X4067D2*
X4087D1*
X4465D2*
X4480D1*
X4532D2*
X4549D1*
X4896D2*
X4918D1*
X5170D2*
X5194D1*
X1103Y637D2*
X1133D1*
X1311D2*
X1331D1*
X1494D2*
X1514D1*
X1641D2*
X1661D1*
X1824D2*
X1844D1*
X2171D2*
X2191D1*
X2354D2*
X2374D1*
X2501D2*
X2521D1*
X2684D2*
X2704D1*
X2831D2*
X2851D1*
X3014D2*
X3034D1*
X3283D2*
X3313D1*
X3653D2*
X3683D1*
X3909D2*
X3936D1*
X4071D2*
X4092D1*
X4469D2*
X4485D1*
X4524D2*
X4545D1*
X4901D2*
X4925D1*
X5165D2*
X5189D1*
X1103Y627D2*
X1133D1*
X1317D2*
X1338D1*
X1488D2*
X1509D1*
X1647D2*
X1668D1*
X1818D2*
X1839D1*
X2177D2*
X2198D1*
X2348D2*
X2369D1*
X2507D2*
X2528D1*
X2678D2*
X2699D1*
X2837D2*
X2858D1*
X3008D2*
X3029D1*
X3283D2*
X3313D1*
X3653D2*
X3683D1*
X3916D2*
X3943D1*
X4076D2*
X4097D1*
X4473D2*
X4498D1*
X4505D2*
X4540D1*
X4907D2*
X4934D1*
X5158D2*
X5182D1*
X1103Y617D2*
X1133D1*
X1324D2*
X1347D1*
X1479D2*
X1502D1*
X1654D2*
X1677D1*
X1809D2*
X1832D1*
X2184D2*
X2207D1*
X2339D2*
X2362D1*
X2514D2*
X2537D1*
X2669D2*
X2692D1*
X2844D2*
X2867D1*
X2999D2*
X3022D1*
X3283D2*
X3313D1*
X3653D2*
X3683D1*
X3923D2*
X3950D1*
X4081D2*
X4106D1*
X4273D2*
X4303D1*
X4476D2*
X4537D1*
X4915D2*
X4946D1*
X5148D2*
X5176D1*
X1103Y607D2*
X1133D1*
X1331D2*
X1373D1*
X1453D2*
X1494D1*
X1661D2*
X1703D1*
X1783D2*
X1824D1*
X2191D2*
X2233D1*
X2313D2*
X2354D1*
X2521D2*
X2563D1*
X2643D2*
X2684D1*
X2851D2*
X2893D1*
X2973D2*
X3014D1*
X3283D2*
X3313D1*
X3653D2*
X3683D1*
X3929D2*
X3956D1*
X4087D2*
X4116D1*
X4262D2*
X4293D1*
X4480D2*
X4533D1*
X4924D2*
X4963D1*
X5135D2*
X5167D1*
X1103Y597D2*
X1133D1*
X1341D2*
X1413D1*
X1412D2*
X1485D1*
X1671D2*
X1743D1*
X1742D2*
X1815D1*
X2201D2*
X2273D1*
X2272D2*
X2345D1*
X2531D2*
X2603D1*
X2602D2*
X2675D1*
X2861D2*
X2933D1*
X2932D2*
X3005D1*
X3283D2*
X3313D1*
X3653D2*
X3683D1*
X3935D2*
X3963D1*
X4095D2*
X4144D1*
X4233D2*
X4283D1*
X4483D2*
X4530D1*
X4935D2*
X4995D1*
X5101D2*
X5157D1*
X1103Y587D2*
X1133D1*
X1355D2*
X1472D1*
X1685D2*
X1802D1*
X2215D2*
X2332D1*
X2545D2*
X2662D1*
X2875D2*
X2992D1*
X3283D2*
X3313D1*
X3653D2*
X3683D1*
X3940D2*
X3969D1*
X4106D2*
X4188D1*
X4272D1*
X4486D2*
X4526D1*
X4950D2*
X5048D1*
X5143D1*
X1103Y577D2*
X1133D1*
X1373D2*
X1458D1*
X1703D2*
X1788D1*
X2233D2*
X2318D1*
X2563D2*
X2648D1*
X2893D2*
X2978D1*
X3283D2*
X3313D1*
X3653D2*
X3683D1*
X3946D2*
X3976D1*
X4121D2*
X4259D1*
X4490D2*
X4524D1*
X4968D2*
X5126D1*
X1103Y567D2*
X1133D1*
X1393D2*
X1443D1*
X1723D2*
X1773D1*
X2253D2*
X2303D1*
X2583D2*
X2633D1*
X2913D2*
X2963D1*
X3283D2*
X3313D1*
X3653D2*
X3683D1*
X3953D2*
X3983D1*
X4141D2*
X4242D1*
X4493D2*
X4523D1*
X4989D2*
X5105D1*
X4163Y557D2*
X4223D1*
X5013D2*
X5083D1*
X3653Y1707D2*
X3873D1*
X1123Y1697D2*
X1133D1*
X1393D2*
X1443D1*
X1783D2*
X1793D1*
X2253D2*
X2303D1*
X2583D2*
X2633D1*
X2913D2*
X2963D1*
X3303D2*
X3313D1*
X3653D2*
X3897D1*
X1113Y1687D2*
X1133D1*
X1374D2*
X1459D1*
X1773D2*
X1793D1*
X2234D2*
X2319D1*
X2564D2*
X2649D1*
X2894D2*
X2979D1*
X3293D2*
X3313D1*
X3653D2*
X3915D1*
X1103Y1677D2*
X1133D1*
X1358D2*
X1473D1*
X1763D2*
X1793D1*
X2218D2*
X2333D1*
X2548D2*
X2663D1*
X2878D2*
X2993D1*
X3283D2*
X3313D1*
X3653D2*
X3683D1*
X3879D2*
X3929D1*
X1093Y1667D2*
X1133D1*
X1345D2*
X1375D1*
X1451D2*
X1484D1*
X1753D2*
X1793D1*
X2205D2*
X2235D1*
X2311D2*
X2344D1*
X2535D2*
X2565D1*
X2641D2*
X2674D1*
X2865D2*
X2895D1*
X2971D2*
X3004D1*
X3273D2*
X3313D1*
X3653D2*
X3683D1*
X3900D2*
X3940D1*
X1083Y1657D2*
X1133D1*
X1334D2*
X1359D1*
X1466D2*
X1494D1*
X1743D2*
X1793D1*
X2194D2*
X2219D1*
X2326D2*
X2354D1*
X2524D2*
X2549D1*
X2656D2*
X2684D1*
X2854D2*
X2879D1*
X2986D2*
X3014D1*
X3263D2*
X3313D1*
X3653D2*
X3683D1*
X3917D2*
X3948D1*
X1072Y1647D2*
X1133D1*
X1325D2*
X1347D1*
X1478D2*
X1502D1*
X1732D2*
X1793D1*
X2185D2*
X2207D1*
X2338D2*
X2362D1*
X2515D2*
X2537D1*
X2668D2*
X2692D1*
X2845D2*
X2867D1*
X2998D2*
X3022D1*
X3252D2*
X3313D1*
X3653D2*
X3683D1*
X3926D2*
X3954D1*
X1061Y1637D2*
X1133D1*
X1317D2*
X1338D1*
X1487D2*
X1509D1*
X1721D2*
X1793D1*
X2177D2*
X2198D1*
X2347D2*
X2369D1*
X2507D2*
X2528D1*
X2677D2*
X2699D1*
X2837D2*
X2858D1*
X3007D2*
X3029D1*
X3241D2*
X3313D1*
X3653D2*
X3683D1*
X3930D2*
X3958D1*
X1047Y1627D2*
X1133D1*
X1312D2*
X1332D1*
X1494D2*
X1514D1*
X1707D2*
X1793D1*
X2172D2*
X2192D1*
X2354D2*
X2374D1*
X2502D2*
X2522D1*
X2684D2*
X2704D1*
X2832D2*
X2852D1*
X3014D2*
X3034D1*
X3227D2*
X3313D1*
X3653D2*
X3683D1*
X3931D2*
X3961D1*
X1032Y1617D2*
X1053D1*
X1103D2*
X1133D1*
X1307D2*
X1327D1*
X1498D2*
X1519D1*
X1693D2*
X1713D1*
X1763D2*
X1793D1*
X2167D2*
X2187D1*
X2358D2*
X2379D1*
X2497D2*
X2517D1*
X2688D2*
X2709D1*
X2827D2*
X2847D1*
X3018D2*
X3039D1*
X3213D2*
X3233D1*
X3283D2*
X3313D1*
X3653D2*
X3683D1*
X3932D2*
X3962D1*
X1017Y1607D2*
X1038D1*
X1103D2*
X1133D1*
X1304D2*
X1325D1*
X1501D2*
X1522D1*
X1680D2*
X1697D1*
X1763D2*
X1793D1*
X2164D2*
X2185D1*
X2361D2*
X2382D1*
X2494D2*
X2515D1*
X2691D2*
X2712D1*
X2824D2*
X2845D1*
X3021D2*
X3042D1*
X3200D2*
X3217D1*
X3283D2*
X3313D1*
X3653D2*
X3683D1*
X3933D2*
X3962D1*
X4163D2*
X4213D1*
X1003Y1597D2*
X1023D1*
X1103D2*
X1133D1*
X1302D2*
X1323D1*
X1504D2*
X1526D1*
X1670D2*
X1681D1*
X1763D2*
X1793D1*
X2162D2*
X2183D1*
X2364D2*
X2386D1*
X2492D2*
X2513D1*
X2694D2*
X2716D1*
X2822D2*
X2843D1*
X3024D2*
X3046D1*
X3190D2*
X3201D1*
X3283D2*
X3313D1*
X3653D2*
X3683D1*
X3932D2*
X3962D1*
X4140D2*
X4231D1*
X4393D2*
X4413D1*
X4603D2*
X4623D1*
X1103Y1587D2*
X1133D1*
X1299D2*
X1321D1*
X1507D2*
X1529D1*
X1663D2*
D3*
X1763D2*
X1793D1*
X2159D2*
X2181D1*
X2367D2*
X2389D1*
X2489D2*
X2511D1*
X2697D2*
X2719D1*
X2819D2*
X2841D1*
X3027D2*
X3049D1*
X3183D2*
D3*
X3283D2*
X3313D1*
X3653D2*
X3683D1*
X3931D2*
X3961D1*
X4121D2*
X4247D1*
X4394D2*
X4414D1*
X4601D2*
X4619D1*
X1103Y1577D2*
X1133D1*
X1296D2*
X1319D1*
X1509D2*
X1531D1*
X1763D2*
X1793D1*
X2156D2*
X2179D1*
X2369D2*
X2391D1*
X2486D2*
X2509D1*
X2699D2*
X2721D1*
X2816D2*
X2839D1*
X3029D2*
X3051D1*
X3283D2*
X3313D1*
X3653D2*
X3683D1*
X3928D2*
X3957D1*
X4107D2*
X4143D1*
X4231D2*
X4260D1*
X4397D2*
X4417D1*
X4599D2*
X4616D1*
X1103Y1567D2*
X1133D1*
X1294D2*
X1316D1*
X1511D2*
X1532D1*
X1763D2*
X1793D1*
X2154D2*
X2176D1*
X2371D2*
X2392D1*
X2484D2*
X2506D1*
X2701D2*
X2722D1*
X2814D2*
X2836D1*
X3031D2*
X3052D1*
X3283D2*
X3313D1*
X3653D2*
X3683D1*
X3923D2*
X3952D1*
X4096D2*
X4125D1*
X4246D2*
X4271D1*
X4401D2*
X4420D1*
X4596D2*
X4613D1*
X1103Y1557D2*
X1133D1*
X1294D2*
X1314D1*
X1512D2*
X1533D1*
X1763D2*
X1793D1*
X2154D2*
X2174D1*
X2372D2*
X2393D1*
X2484D2*
X2504D1*
X2702D2*
X2723D1*
X2814D2*
X2834D1*
X3032D2*
X3053D1*
X3283D2*
X3313D1*
X3653D2*
X3683D1*
X3912D2*
X3946D1*
X4088D2*
X4111D1*
X4258D2*
X4281D1*
X4405D2*
X4423D1*
X4593D2*
X4609D1*
X1103Y1547D2*
X1133D1*
X1293D2*
X1314D1*
X1513D2*
X1533D1*
X1763D2*
X1793D1*
X2153D2*
X2174D1*
X2373D2*
X2393D1*
X2483D2*
X2504D1*
X2703D2*
X2723D1*
X2813D2*
X2834D1*
X3033D2*
X3053D1*
X3283D2*
X3313D1*
X3653D2*
X3683D1*
X3898D2*
X3939D1*
X4081D2*
X4100D1*
X4267D2*
X4288D1*
X4409D2*
X4426D1*
X4589D2*
X4605D1*
X1103Y1537D2*
X1133D1*
X1293D2*
X1313D1*
X1513D2*
X1533D1*
X1763D2*
X1793D1*
X2153D2*
X2173D1*
X2373D2*
X2393D1*
X2483D2*
X2503D1*
X2703D2*
X2723D1*
X2813D2*
X2833D1*
X3033D2*
X3053D1*
X3283D2*
X3313D1*
X3653D2*
X3683D1*
X3881D2*
X3929D1*
X4076D2*
X4093D1*
X4274D2*
X4294D1*
X4413D2*
X4430D1*
X4585D2*
X4600D1*
X1103Y1527D2*
X1133D1*
X1293D2*
X1313D1*
X1513D2*
X1533D1*
X1763D2*
X1793D1*
X2153D2*
X2173D1*
X2373D2*
X2393D1*
X2483D2*
X2503D1*
X2703D2*
X2723D1*
X2813D2*
X2833D1*
X3033D2*
X3053D1*
X3283D2*
X3313D1*
X3653D2*
X3914D1*
X4071D2*
X4088D1*
X4278D2*
X4298D1*
X4416D2*
X4433D1*
X4580D2*
X4597D1*
X1103Y1517D2*
X1133D1*
X1293D2*
X1313D1*
X1513D2*
X1533D1*
X1763D2*
X1793D1*
X2153D2*
X2173D1*
X2373D2*
X2393D1*
X2483D2*
X2503D1*
X2703D2*
X2723D1*
X2813D2*
X2833D1*
X3033D2*
X3053D1*
X3283D2*
X3313D1*
X3653D2*
X3897D1*
X4067D2*
X4085D1*
X4281D2*
X4301D1*
X4420D2*
X4436D1*
X4577D2*
X4593D1*
X1103Y1507D2*
X1133D1*
X1293D2*
X1313D1*
X1513D2*
X1533D1*
X1763D2*
X1793D1*
X2153D2*
X2173D1*
X2373D2*
X2393D1*
X2483D2*
X2503D1*
X2703D2*
X2723D1*
X2813D2*
X2833D1*
X3033D2*
X3053D1*
X3283D2*
X3313D1*
X3653D2*
X3879D1*
X4064D2*
X4084D1*
X4282D2*
X4304D1*
X4423D2*
X4440D1*
X4573D2*
X4590D1*
X1103Y1497D2*
X1133D1*
X1293D2*
X1313D1*
X1513D2*
X1533D1*
X1763D2*
X1793D1*
X2153D2*
X2173D1*
X2373D2*
X2393D1*
X2483D2*
X2503D1*
X2703D2*
X2723D1*
X2813D2*
X2833D1*
X3033D2*
X3053D1*
X3283D2*
X3313D1*
X3653D2*
X3683D1*
X3811D2*
X3865D1*
X4062D2*
X4083D1*
X4282D2*
X4307D1*
X4427D2*
X4443D1*
X4570D2*
X4586D1*
X1103Y1487D2*
X1133D1*
X1293D2*
X1313D1*
X1513D2*
X1533D1*
X1763D2*
X1793D1*
X2153D2*
X2173D1*
X2373D2*
X2393D1*
X2483D2*
X2503D1*
X2703D2*
X2723D1*
X2813D2*
X2833D1*
X3033D2*
X3053D1*
X3283D2*
X3313D1*
X3653D2*
X3683D1*
X3827D2*
X3857D1*
X4059D2*
X4083D1*
X4283D2*
X4309D1*
X4431D2*
X4447D1*
X4566D2*
X4583D1*
X1103Y1477D2*
X1133D1*
X1293D2*
X1313D1*
X1513D2*
X1533D1*
X1763D2*
X1793D1*
X2153D2*
X2173D1*
X2373D2*
X2393D1*
X2483D2*
X2503D1*
X2703D2*
X2723D1*
X2813D2*
X2833D1*
X3033D2*
X3053D1*
X3283D2*
X3313D1*
X3653D2*
X3683D1*
X3840D2*
X3864D1*
X4056D2*
X4311D1*
X4435D2*
X4451D1*
X4563D2*
X4579D1*
X1103Y1467D2*
X1133D1*
X1293D2*
X1313D1*
X1513D2*
X1533D1*
X1763D2*
X1793D1*
X1943D2*
X2083D1*
X2153D2*
X2173D1*
X2373D2*
X2393D1*
X2483D2*
X2503D1*
X2703D2*
X2723D1*
X2813D2*
X2833D1*
X3033D2*
X3053D1*
X3283D2*
X3313D1*
X3653D2*
X3683D1*
X3850D2*
X3873D1*
X4055D2*
X4312D1*
X4439D2*
X4455D1*
X4559D2*
X4575D1*
X1103Y1457D2*
X1133D1*
X1293D2*
X1313D1*
X1512D2*
X1533D1*
X1763D2*
X1793D1*
X1943D2*
X2083D1*
X2153D2*
X2173D1*
X2372D2*
X2393D1*
X2483D2*
X2503D1*
X2702D2*
X2723D1*
X2813D2*
X2833D1*
X3032D2*
X3053D1*
X3283D2*
X3313D1*
X3653D2*
X3683D1*
X3858D2*
X3883D1*
X4054D2*
X4313D1*
X4443D2*
X4459D1*
X4556D2*
X4570D1*
X1103Y1447D2*
X1133D1*
X1294D2*
X1314D1*
X1511D2*
X1532D1*
X1763D2*
X1793D1*
X1943D2*
X2083D1*
X2154D2*
X2174D1*
X2371D2*
X2392D1*
X2484D2*
X2504D1*
X2701D2*
X2722D1*
X2814D2*
X2834D1*
X3031D2*
X3052D1*
X3283D2*
X3313D1*
X3653D2*
X3683D1*
X3866D2*
X3893D1*
X4055D2*
X4083D1*
X4446D2*
X4463D1*
X4553D2*
X4567D1*
X1103Y1437D2*
X1133D1*
X1297D2*
X1317D1*
X1509D2*
X1531D1*
X1763D2*
X1793D1*
X2157D2*
X2177D1*
X2369D2*
X2391D1*
X2487D2*
X2507D1*
X2699D2*
X2721D1*
X2817D2*
X2837D1*
X3029D2*
X3051D1*
X3283D2*
X3313D1*
X3653D2*
X3683D1*
X3874D2*
X3902D1*
X4057D2*
X4083D1*
X4450D2*
X4466D1*
X4549D2*
X4563D1*
X1103Y1427D2*
X1133D1*
X1299D2*
X1319D1*
X1506D2*
X1529D1*
X1763D2*
X1793D1*
X2159D2*
X2179D1*
X2366D2*
X2389D1*
X2489D2*
X2509D1*
X2696D2*
X2719D1*
X2819D2*
X2839D1*
X3026D2*
X3049D1*
X3283D2*
X3313D1*
X3653D2*
X3683D1*
X3882D2*
X3911D1*
X4060D2*
X4083D1*
X4453D2*
X4470D1*
X4545D2*
X4560D1*
X1103Y1417D2*
X1133D1*
X1302D2*
X1322D1*
X1504D2*
X1526D1*
X1763D2*
X1793D1*
X2162D2*
X2182D1*
X2364D2*
X2386D1*
X2492D2*
X2512D1*
X2694D2*
X2716D1*
X2822D2*
X2842D1*
X3024D2*
X3046D1*
X3283D2*
X3313D1*
X3653D2*
X3683D1*
X3889D2*
X3918D1*
X4062D2*
X4083D1*
X4457D2*
X4473D1*
X4540D2*
X4556D1*
X1103Y1407D2*
X1133D1*
X1304D2*
X1324D1*
X1502D2*
X1523D1*
X1763D2*
X1793D1*
X2164D2*
X2184D1*
X2362D2*
X2383D1*
X2494D2*
X2514D1*
X2692D2*
X2713D1*
X2824D2*
X2844D1*
X3022D2*
X3043D1*
X3283D2*
X3313D1*
X3653D2*
X3683D1*
X3896D2*
X3925D1*
X4064D2*
X4085D1*
X4461D2*
X4476D1*
X4536D2*
X4553D1*
X1103Y1397D2*
X1133D1*
X1307D2*
X1327D1*
X1499D2*
X1519D1*
X1763D2*
X1793D1*
X2167D2*
X2187D1*
X2359D2*
X2379D1*
X2497D2*
X2517D1*
X2689D2*
X2709D1*
X2827D2*
X2847D1*
X3019D2*
X3039D1*
X3283D2*
X3313D1*
X3653D2*
X3683D1*
X3903D2*
X3930D1*
X4067D2*
X4087D1*
X4465D2*
X4480D1*
X4532D2*
X4549D1*
X1103Y1387D2*
X1133D1*
X1311D2*
X1331D1*
X1494D2*
X1514D1*
X1763D2*
X1793D1*
X2171D2*
X2191D1*
X2354D2*
X2374D1*
X2501D2*
X2521D1*
X2684D2*
X2704D1*
X2831D2*
X2851D1*
X3014D2*
X3034D1*
X3283D2*
X3313D1*
X3653D2*
X3683D1*
X3909D2*
X3936D1*
X4071D2*
X4092D1*
X4469D2*
X4485D1*
X4524D2*
X4545D1*
X1103Y1377D2*
X1133D1*
X1317D2*
X1338D1*
X1488D2*
X1509D1*
X1763D2*
X1793D1*
X2177D2*
X2198D1*
X2348D2*
X2369D1*
X2507D2*
X2528D1*
X2678D2*
X2699D1*
X2837D2*
X2858D1*
X3008D2*
X3029D1*
X3283D2*
X3313D1*
X3653D2*
X3683D1*
X3916D2*
X3943D1*
X4076D2*
X4097D1*
X4473D2*
X4498D1*
X4505D2*
X4540D1*
X1103Y1367D2*
X1133D1*
X1324D2*
X1347D1*
X1479D2*
X1502D1*
X1763D2*
X1793D1*
X2184D2*
X2207D1*
X2339D2*
X2362D1*
X2514D2*
X2537D1*
X2669D2*
X2692D1*
X2844D2*
X2867D1*
X2999D2*
X3022D1*
X3283D2*
X3313D1*
X3653D2*
X3683D1*
X3923D2*
X3950D1*
X4081D2*
X4106D1*
X4273D2*
X4303D1*
X4476D2*
X4537D1*
X1103Y1357D2*
X1133D1*
X1331D2*
X1373D1*
X1453D2*
X1494D1*
X1763D2*
X1793D1*
X2191D2*
X2233D1*
X2313D2*
X2354D1*
X2521D2*
X2563D1*
X2643D2*
X2684D1*
X2851D2*
X2893D1*
X2973D2*
X3014D1*
X3283D2*
X3313D1*
X3653D2*
X3683D1*
X3929D2*
X3956D1*
X4087D2*
X4116D1*
X4262D2*
X4293D1*
X4480D2*
X4533D1*
X1103Y1347D2*
X1133D1*
X1341D2*
X1413D1*
X1412D2*
X1485D1*
X1763D2*
X1793D1*
X2201D2*
X2273D1*
X2272D2*
X2345D1*
X2531D2*
X2603D1*
X2602D2*
X2675D1*
X2861D2*
X2933D1*
X2932D2*
X3005D1*
X3283D2*
X3313D1*
X3653D2*
X3683D1*
X3935D2*
X3963D1*
X4095D2*
X4144D1*
X4233D2*
X4283D1*
X4483D2*
X4530D1*
X1103Y1337D2*
X1133D1*
X1355D2*
X1472D1*
X1763D2*
X1793D1*
X2215D2*
X2332D1*
X2545D2*
X2662D1*
X2875D2*
X2992D1*
X3283D2*
X3313D1*
X3653D2*
X3683D1*
X3940D2*
X3969D1*
X4106D2*
X4188D1*
X4272D1*
X4486D2*
X4526D1*
X1103Y1327D2*
X1133D1*
X1373D2*
X1458D1*
X1763D2*
X1793D1*
X2233D2*
X2318D1*
X2563D2*
X2648D1*
X2893D2*
X2978D1*
X3283D2*
X3313D1*
X3653D2*
X3683D1*
X3946D2*
X3976D1*
X4121D2*
X4259D1*
X4490D2*
X4524D1*
X1103Y1317D2*
X1133D1*
X1393D2*
X1443D1*
X1763D2*
X1793D1*
X2253D2*
X2303D1*
X2583D2*
X2633D1*
X2913D2*
X2963D1*
X3283D2*
X3313D1*
X3653D2*
X3683D1*
X3953D2*
X3983D1*
X4141D2*
X4242D1*
X4493D2*
X4523D1*
X4163Y1307D2*
X4223D1*
X4465Y3155D2*
X4525D1*
X5435D2*
X5495D1*
X3545Y3145D2*
X3765D1*
X3975D2*
X4245D1*
X4440D2*
X4551D1*
X4755D2*
X4785D1*
X4905D2*
X4935D1*
X5185D2*
X5215D1*
X5410D2*
X5521D1*
X5725D2*
X5755D1*
X6005D2*
X6035D1*
X6155D2*
X6185D1*
X6305D2*
X6575D1*
X6695D2*
X6715D1*
X7025D2*
X7215D1*
X3545Y3135D2*
X3789D1*
X3975D2*
X4245D1*
X4419D2*
X4572D1*
X4755D2*
X4785D1*
X4905D2*
X4942D1*
X5185D2*
X5215D1*
X5389D2*
X5542D1*
X5725D2*
X5755D1*
X6005D2*
X6035D1*
X6155D2*
X6185D1*
X6305D2*
X6575D1*
X6695D2*
X6715D1*
X7025D2*
X7240D1*
X3545Y3125D2*
X3808D1*
X3975D2*
X4245D1*
X4402D2*
X4437D1*
X4553D2*
X4588D1*
X4755D2*
X4785D1*
X4905D2*
X4949D1*
X5185D2*
X5215D1*
X5372D2*
X5407D1*
X5523D2*
X5558D1*
X5725D2*
X5755D1*
X6005D2*
X6035D1*
X6155D2*
X6185D1*
X6305D2*
X6575D1*
X6695D2*
X6715D1*
X7025D2*
X7261D1*
X3545Y3115D2*
X3575D1*
X3771D2*
X3822D1*
X3975D2*
X4005D1*
X4390D2*
X4421D1*
X4569D2*
X4601D1*
X4755D2*
X4785D1*
X4905D2*
X4955D1*
X5185D2*
X5215D1*
X5360D2*
X5391D1*
X5539D2*
X5571D1*
X5725D2*
X5755D1*
X6005D2*
X6035D1*
X6155D2*
X6185D1*
X6305D2*
X6335D1*
X6695D2*
X6715D1*
X7025D2*
X7055D1*
X7235D2*
X7278D1*
X3545Y3105D2*
X3575D1*
X3793D2*
X3832D1*
X3975D2*
X4005D1*
X4381D2*
X4409D1*
X4582D2*
X4610D1*
X4755D2*
X4785D1*
X4905D2*
X4962D1*
X5185D2*
X5215D1*
X5351D2*
X5379D1*
X5552D2*
X5580D1*
X5725D2*
X5755D1*
X6005D2*
X6035D1*
X6155D2*
X6185D1*
X6305D2*
X6335D1*
X6695D2*
X6715D1*
X7025D2*
X7055D1*
X7253D2*
X7290D1*
X3545Y3095D2*
X3575D1*
X3810D2*
X3840D1*
X3975D2*
X4005D1*
X4375D2*
X4399D1*
X4592D2*
X4617D1*
X4755D2*
X4785D1*
X4905D2*
X4969D1*
X5185D2*
X5215D1*
X5345D2*
X5369D1*
X5562D2*
X5587D1*
X5725D2*
X5755D1*
X6005D2*
X6035D1*
X6155D2*
X6185D1*
X6305D2*
X6335D1*
X6695D2*
X6715D1*
X7025D2*
X7055D1*
X7269D2*
X7300D1*
X3545Y3085D2*
X3575D1*
X3819D2*
X3846D1*
X3975D2*
X4005D1*
X4370D2*
X4391D1*
X4600D2*
X4622D1*
X4755D2*
X4785D1*
X4905D2*
X4977D1*
X5185D2*
X5215D1*
X5340D2*
X5361D1*
X5570D2*
X5592D1*
X5725D2*
X5755D1*
X6005D2*
X6035D1*
X6155D2*
X6185D1*
X6305D2*
X6335D1*
X6695D2*
X6715D1*
X7025D2*
X7055D1*
X7281D2*
X7308D1*
X3545Y3075D2*
X3575D1*
X3822D2*
X3851D1*
X3975D2*
X4005D1*
X4367D2*
X4388D1*
X4603D2*
X4627D1*
X4755D2*
X4785D1*
X4905D2*
X4984D1*
X5185D2*
X5215D1*
X5337D2*
X5358D1*
X5573D2*
X5597D1*
X5725D2*
X5755D1*
X6005D2*
X6035D1*
X6155D2*
X6185D1*
X6305D2*
X6335D1*
X6695D2*
X6715D1*
X7025D2*
X7055D1*
X7290D2*
X7315D1*
X3545Y3065D2*
X3575D1*
X3824D2*
X3853D1*
X3975D2*
X4005D1*
X4366D2*
X4386D1*
X4604D2*
X4632D1*
X4755D2*
X4785D1*
X4905D2*
X4925D1*
X4965D2*
X4992D1*
X5185D2*
X5215D1*
X5336D2*
X5356D1*
X5574D2*
X5602D1*
X5725D2*
X5755D1*
X6005D2*
X6035D1*
X6155D2*
X6185D1*
X6305D2*
X6335D1*
X6695D2*
X6715D1*
X7025D2*
X7055D1*
X7297D2*
X7321D1*
X3545Y3055D2*
X3575D1*
X3825D2*
X3854D1*
X3975D2*
X4005D1*
X4366D2*
X4386D1*
X4605D2*
X4635D1*
X4755D2*
X4785D1*
X4905D2*
X4925D1*
X4974D2*
X4998D1*
X5185D2*
X5215D1*
X5336D2*
X5356D1*
X5575D2*
X5605D1*
X5725D2*
X5755D1*
X6005D2*
X6035D1*
X6155D2*
X6185D1*
X6305D2*
X6335D1*
X6695D2*
X6715D1*
X7025D2*
X7055D1*
X7302D2*
X7327D1*
X3545Y3045D2*
X3575D1*
X3825D2*
X3855D1*
X3975D2*
X4005D1*
X4366D2*
X4386D1*
X4755D2*
X4785D1*
X4905D2*
X4925D1*
X4981D2*
X5005D1*
X5185D2*
X5215D1*
X5336D2*
X5356D1*
X5725D2*
X5755D1*
X6005D2*
X6035D1*
X6155D2*
X6185D1*
X6305D2*
X6335D1*
X6695D2*
X6715D1*
X7025D2*
X7055D1*
X7307D2*
X7331D1*
X3545Y3035D2*
X3575D1*
X3825D2*
X3855D1*
X3975D2*
X4005D1*
X4367D2*
X4388D1*
X4755D2*
X4785D1*
X4905D2*
X4925D1*
X4988D2*
X5012D1*
X5185D2*
X5215D1*
X5337D2*
X5358D1*
X5725D2*
X5755D1*
X6005D2*
X6035D1*
X6155D2*
X6185D1*
X6305D2*
X6335D1*
X6695D2*
X6715D1*
X7025D2*
X7055D1*
X7311D2*
X7335D1*
X3545Y3025D2*
X3575D1*
X3824D2*
X3853D1*
X3975D2*
X4005D1*
X4370D2*
X4391D1*
X4755D2*
X4785D1*
X4905D2*
X4925D1*
X4995D2*
X5019D1*
X5185D2*
X5215D1*
X5340D2*
X5361D1*
X5725D2*
X5755D1*
X6005D2*
X6035D1*
X6155D2*
X6185D1*
X6305D2*
X6335D1*
X6695D2*
X6715D1*
X7025D2*
X7055D1*
X7313D2*
X7339D1*
X3545Y3015D2*
X3575D1*
X3820D2*
X3850D1*
X3975D2*
X4005D1*
X4374D2*
X4400D1*
X4755D2*
X4785D1*
X4905D2*
X4925D1*
X5002D2*
X5025D1*
X5185D2*
X5215D1*
X5344D2*
X5370D1*
X5725D2*
X5755D1*
X6005D2*
X6035D1*
X6155D2*
X6185D1*
X6305D2*
X6335D1*
X6695D2*
X6715D1*
X7025D2*
X7055D1*
X7315D2*
X7342D1*
X3545Y3005D2*
X3575D1*
X3816D2*
X3844D1*
X3975D2*
X4005D1*
X4380D2*
X4415D1*
X4755D2*
X4785D1*
X4905D2*
X4925D1*
X5009D2*
X5032D1*
X5185D2*
X5215D1*
X5350D2*
X5385D1*
X5725D2*
X5755D1*
X6005D2*
X6035D1*
X6155D2*
X6185D1*
X6305D2*
X6335D1*
X6695D2*
X6715D1*
X7025D2*
X7055D1*
X7315D2*
X7344D1*
X3545Y2995D2*
X3575D1*
X3805D2*
X3838D1*
X3975D2*
X4005D1*
X4389D2*
X4437D1*
X4755D2*
X4785D1*
X4905D2*
X4925D1*
X5015D2*
X5039D1*
X5185D2*
X5215D1*
X5359D2*
X5407D1*
X5725D2*
X5755D1*
X6005D2*
X6035D1*
X6155D2*
X6185D1*
X6305D2*
X6335D1*
X6695D2*
X6715D1*
X7025D2*
X7055D1*
X7315D2*
X7345D1*
X3545Y2985D2*
X3575D1*
X3791D2*
X3831D1*
X3975D2*
X4005D1*
X4401D2*
X4465D1*
X4755D2*
X4785D1*
X4905D2*
X4925D1*
X5022D2*
X5045D1*
X5185D2*
X5215D1*
X5371D2*
X5435D1*
X5725D2*
X5755D1*
X6005D2*
X6035D1*
X6155D2*
X6185D1*
X6305D2*
X6335D1*
X6695D2*
X6715D1*
X7025D2*
X7055D1*
X7315D2*
X7345D1*
X3545Y2975D2*
X3575D1*
X3774D2*
X3821D1*
X3975D2*
X4005D1*
X4417D2*
X4497D1*
X4755D2*
X4785D1*
X4905D2*
X4925D1*
X5029D2*
X5052D1*
X5185D2*
X5215D1*
X5387D2*
X5467D1*
X5725D2*
X6035D1*
X6155D2*
X6185D1*
X6305D2*
X6335D1*
X6695D2*
X6715D1*
X7025D2*
X7055D1*
X7315D2*
X7345D1*
X3545Y2965D2*
X3807D1*
X3975D2*
X4235D1*
X4438D2*
X4529D1*
X4755D2*
X4785D1*
X4905D2*
X4925D1*
X5035D2*
X5059D1*
X5185D2*
X5215D1*
X5408D2*
X5499D1*
X5725D2*
X6035D1*
X6155D2*
X6185D1*
X6305D2*
X6565D1*
X6695D2*
X6715D1*
X7025D2*
X7055D1*
X7315D2*
X7345D1*
X3545Y2955D2*
X3789D1*
X3975D2*
X4235D1*
X4466D2*
X4557D1*
X4755D2*
X4785D1*
X4905D2*
X4925D1*
X5042D2*
X5065D1*
X5185D2*
X5215D1*
X5436D2*
X5527D1*
X5725D2*
X6035D1*
X6155D2*
X6185D1*
X6305D2*
X6565D1*
X6695D2*
X6715D1*
X7025D2*
X7055D1*
X7315D2*
X7345D1*
X3545Y2945D2*
X3772D1*
X3975D2*
X4235D1*
X4498D2*
X4580D1*
X4755D2*
X4785D1*
X4905D2*
X4925D1*
X5049D2*
X5072D1*
X5185D2*
X5215D1*
X5468D2*
X5550D1*
X5725D2*
X5755D1*
X6005D2*
X6035D1*
X6155D2*
X6185D1*
X6305D2*
X6565D1*
X6695D2*
X6715D1*
X7025D2*
X7055D1*
X7315D2*
X7345D1*
X3545Y2935D2*
X3575D1*
X3703D2*
X3757D1*
X3975D2*
X4005D1*
X4530D2*
X4598D1*
X4755D2*
X4785D1*
X4905D2*
X4925D1*
X5055D2*
X5079D1*
X5185D2*
X5215D1*
X5500D2*
X5568D1*
X5725D2*
X5755D1*
X6005D2*
X6035D1*
X6155D2*
X6185D1*
X6305D2*
X6335D1*
X6695D2*
X6715D1*
X7025D2*
X7055D1*
X7315D2*
X7345D1*
X3545Y2925D2*
X3575D1*
X3719D2*
X3750D1*
X3975D2*
X4005D1*
X4559D2*
X4612D1*
X4755D2*
X4785D1*
X4905D2*
X4925D1*
X5062D2*
X5085D1*
X5185D2*
X5215D1*
X5529D2*
X5582D1*
X5725D2*
X5755D1*
X6005D2*
X6035D1*
X6155D2*
X6185D1*
X6305D2*
X6335D1*
X6695D2*
X6715D1*
X7025D2*
X7055D1*
X7315D2*
X7345D1*
X3545Y2915D2*
X3575D1*
X3732D2*
X3756D1*
X3975D2*
X4005D1*
X4582D2*
X4622D1*
X4755D2*
X4785D1*
X4905D2*
X4925D1*
X5069D2*
X5092D1*
X5185D2*
X5215D1*
X5552D2*
X5592D1*
X5725D2*
X5755D1*
X6005D2*
X6035D1*
X6155D2*
X6185D1*
X6305D2*
X6335D1*
X6695D2*
X6715D1*
X7025D2*
X7055D1*
X7315D2*
X7345D1*
X3545Y2905D2*
X3575D1*
X3743D2*
X3765D1*
X3975D2*
X4005D1*
X4598D2*
X4630D1*
X4755D2*
X4785D1*
X4905D2*
X4925D1*
X5075D2*
X5099D1*
X5185D2*
X5215D1*
X5568D2*
X5600D1*
X5725D2*
X5755D1*
X6005D2*
X6035D1*
X6155D2*
X6185D1*
X6305D2*
X6335D1*
X6695D2*
X6715D1*
X7025D2*
X7055D1*
X7315D2*
X7344D1*
X3545Y2895D2*
X3575D1*
X3751D2*
X3775D1*
X3975D2*
X4005D1*
X4608D2*
X4636D1*
X4755D2*
X4785D1*
X4905D2*
X4925D1*
X5082D2*
X5107D1*
X5185D2*
X5215D1*
X5578D2*
X5606D1*
X5725D2*
X5755D1*
X6005D2*
X6035D1*
X6155D2*
X6185D1*
X6305D2*
X6335D1*
X6695D2*
X6715D1*
X7025D2*
X7055D1*
X7315D2*
X7341D1*
X3545Y2885D2*
X3575D1*
X3759D2*
X3785D1*
X3975D2*
X4005D1*
X4616D2*
X4641D1*
X4755D2*
X4785D1*
X4905D2*
X4925D1*
X5089D2*
X5114D1*
X5185D2*
X5215D1*
X5586D2*
X5611D1*
X5725D2*
X5755D1*
X6005D2*
X6035D1*
X6155D2*
X6185D1*
X6305D2*
X6335D1*
X6695D2*
X6715D1*
X7025D2*
X7055D1*
X7314D2*
X7338D1*
X3545Y2875D2*
X3575D1*
X3767D2*
X3795D1*
X3975D2*
X4005D1*
X4620D2*
X4643D1*
X4755D2*
X4785D1*
X4905D2*
X4925D1*
X5097D2*
X5122D1*
X5185D2*
X5215D1*
X5590D2*
X5613D1*
X5725D2*
X5755D1*
X6005D2*
X6035D1*
X6155D2*
X6185D1*
X6305D2*
X6335D1*
X6695D2*
X6715D1*
X7025D2*
X7055D1*
X7311D2*
X7335D1*
X3545Y2865D2*
X3575D1*
X3774D2*
X3804D1*
X3975D2*
X4005D1*
X4355D2*
X4365D1*
X4623D2*
X4644D1*
X4755D2*
X4785D1*
X4905D2*
X4925D1*
X5104D2*
X5129D1*
X5185D2*
X5215D1*
X5325D2*
X5335D1*
X5593D2*
X5614D1*
X5725D2*
X5755D1*
X6005D2*
X6035D1*
X6155D2*
X6185D1*
X6305D2*
X6335D1*
X6695D2*
X6715D1*
X7025D2*
X7055D1*
X7308D2*
X7332D1*
X3545Y2855D2*
X3575D1*
X3782D2*
X3811D1*
X3975D2*
X4005D1*
X4345D2*
X4370D1*
X4624D2*
X4645D1*
X4755D2*
X4785D1*
X4905D2*
X4925D1*
X5112D2*
X5136D1*
X5184D2*
X5215D1*
X5315D2*
X5340D1*
X5594D2*
X5615D1*
X5725D2*
X5755D1*
X6005D2*
X6035D1*
X6155D2*
X6185D1*
X6305D2*
X6335D1*
X6695D2*
X6715D1*
X7025D2*
X7055D1*
X7305D2*
X7329D1*
X3545Y2845D2*
X3575D1*
X3788D2*
X3817D1*
X3975D2*
X4005D1*
X4350D2*
X4375D1*
X4625D2*
X4645D1*
X4755D2*
X4785D1*
X4905D2*
X4925D1*
X5118D2*
X5146D1*
X5181D2*
X5215D1*
X5320D2*
X5345D1*
X5595D2*
X5615D1*
X5725D2*
X5755D1*
X6005D2*
X6035D1*
X6155D2*
X6185D1*
X6305D2*
X6335D1*
X6695D2*
X6715D1*
X7025D2*
X7055D1*
X7302D2*
X7325D1*
X3545Y2835D2*
X3575D1*
X3795D2*
X3823D1*
X3975D2*
X4005D1*
X4355D2*
X4379D1*
X4624D2*
X4644D1*
X4755D2*
X4785D1*
X4905D2*
X4925D1*
X5125D2*
X5159D1*
X5170D2*
X5215D1*
X5325D2*
X5349D1*
X5594D2*
X5614D1*
X5725D2*
X5755D1*
X6005D2*
X6035D1*
X6155D2*
X6185D1*
X6305D2*
X6335D1*
X6695D2*
X6715D1*
X7025D2*
X7055D1*
X7297D2*
X7320D1*
X3545Y2825D2*
X3575D1*
X3802D2*
X3829D1*
X3975D2*
X4005D1*
X4359D2*
X4384D1*
X4621D2*
X4641D1*
X4755D2*
X4785D1*
X4905D2*
X4925D1*
X5132D2*
X5215D1*
X5329D2*
X5354D1*
X5591D2*
X5611D1*
X5725D2*
X5755D1*
X6005D2*
X6035D1*
X6155D2*
X6185D1*
X6305D2*
X6335D1*
X6695D2*
X6715D1*
X7025D2*
X7055D1*
X7290D2*
X7313D1*
X3545Y2815D2*
X3575D1*
X3809D2*
X3836D1*
X3975D2*
X4005D1*
X4364D2*
X4390D1*
X4616D2*
X4637D1*
X4755D2*
X4785D1*
X4905D2*
X4925D1*
X5139D2*
X5215D1*
X5334D2*
X5360D1*
X5586D2*
X5607D1*
X5725D2*
X5755D1*
X6005D2*
X6035D1*
X6155D2*
X6185D1*
X6305D2*
X6335D1*
X6695D2*
X6715D1*
X7025D2*
X7055D1*
X7281D2*
X7304D1*
X3545Y2805D2*
X3575D1*
X3815D2*
X3842D1*
X3975D2*
X4005D1*
X4370D2*
X4400D1*
X4610D2*
X4631D1*
X4755D2*
X4785D1*
X4905D2*
X4925D1*
X5145D2*
X5215D1*
X5340D2*
X5370D1*
X5580D2*
X5601D1*
X5725D2*
X5755D1*
X6005D2*
X6035D1*
X6155D2*
X6185D1*
X6305D2*
X6335D1*
X6695D2*
X6715D1*
X7025D2*
X7055D1*
X7266D2*
X7295D1*
X3545Y2795D2*
X3575D1*
X3822D2*
X3849D1*
X3975D2*
X4005D1*
X4378D2*
X4413D1*
X4593D2*
X4623D1*
X4755D2*
X4785D1*
X4905D2*
X4925D1*
X5152D2*
X5215D1*
X5348D2*
X5383D1*
X5563D2*
X5593D1*
X5725D2*
X5755D1*
X6005D2*
X6035D1*
X6155D2*
X6185D1*
X6305D2*
X6335D1*
X6695D2*
X6715D1*
X7025D2*
X7055D1*
X7246D2*
X7285D1*
X3545Y2785D2*
X3575D1*
X3827D2*
X3855D1*
X3975D2*
X4005D1*
X4388D2*
X4449D1*
X4560D2*
X4614D1*
X4755D2*
X4785D1*
X4905D2*
X4925D1*
X5159D2*
X5215D1*
X5358D2*
X5419D1*
X5530D2*
X5584D1*
X5725D2*
X5755D1*
X6005D2*
X6035D1*
X6155D2*
X6185D1*
X6305D2*
X6335D1*
X6695D2*
X6715D1*
X7025D2*
X7055D1*
X7222D2*
X7272D1*
X3545Y2775D2*
X3575D1*
X3833D2*
X3862D1*
X3975D2*
X4255D1*
X4402D2*
X4505D1*
X4602D1*
X4755D2*
X4785D1*
X4905D2*
X4925D1*
X5165D2*
X5215D1*
X5372D2*
X5475D1*
X5572D1*
X5725D2*
X5755D1*
X6005D2*
X6035D1*
X6155D2*
X6185D1*
X6305D2*
X6585D1*
X6695D2*
X6925D1*
X7025D2*
X7255D1*
X3545Y2765D2*
X3575D1*
X3839D2*
X3868D1*
X3975D2*
X4255D1*
X4420D2*
X4587D1*
X4755D2*
X4785D1*
X4905D2*
X4925D1*
X5171D2*
X5215D1*
X5390D2*
X5557D1*
X5725D2*
X5755D1*
X6005D2*
X6035D1*
X6155D2*
X6185D1*
X6305D2*
X6585D1*
X6695D2*
X6925D1*
X7025D2*
X7232D1*
X3545Y2755D2*
X3575D1*
X3845D2*
X3875D1*
X3975D2*
X4255D1*
X4442D2*
X4567D1*
X4755D2*
X4785D1*
X4905D2*
X4925D1*
X5175D2*
X5215D1*
X5412D2*
X5537D1*
X5725D2*
X5755D1*
X6005D2*
X6035D1*
X6155D2*
X6185D1*
X6305D2*
X6585D1*
X6695D2*
X6925D1*
X7025D2*
X7205D1*
X4465Y2745D2*
X4545D1*
X5435D2*
X5515D1*
X1857Y3888D2*
D3*
X1844Y3858D2*
X1887D1*
X1835Y3828D2*
X1887D1*
X1831Y3798D2*
X1887D1*
X1829Y3768D2*
X1887D1*
X1828Y3738D2*
X1887D1*
X1617Y3708D2*
X1647D1*
X1828D2*
X1887D1*
X2097D2*
D3*
X1604Y3678D2*
X1647D1*
X1828D2*
X1887D1*
X2084D2*
X2127D1*
X1595Y3648D2*
X1647D1*
X1828D2*
X1887D1*
X2076D2*
X2127D1*
X1591Y3618D2*
X1647D1*
X1827D2*
X1887D1*
X2076D2*
X2127D1*
X1589Y3588D2*
X1647D1*
X1827D2*
X1887D1*
X2081D2*
X2128D1*
X1588Y3558D2*
X1646D1*
X1827D2*
X1887D1*
X2088D2*
X2129D1*
X1586Y3528D2*
X1642D1*
X1827D2*
X1887D1*
X2093D2*
X2132D1*
X1583Y3498D2*
X1635D1*
X1827D2*
X1887D1*
X2096D2*
X2140D1*
X1575Y3468D2*
X1628D1*
X1827D2*
X1887D1*
X2098D2*
X2147D1*
X1568Y3438D2*
X1621D1*
X1827D2*
X1887D1*
X2102D2*
X2154D1*
X1561Y3408D2*
X1615D1*
X1827D2*
X1887D1*
X2110D2*
X2160D1*
X1554Y3378D2*
X1606D1*
X1827D2*
X1887D1*
X2117D2*
X2169D1*
X1545Y3348D2*
X1597D1*
X1827D2*
X1887D1*
X2124D2*
X2178D1*
X1533Y3318D2*
X1588D1*
X1827D2*
X1887D1*
X2130D2*
X2188D1*
X1520Y3288D2*
X1577D1*
X1827D2*
X1887D1*
X2140D2*
X2199D1*
X1509Y3258D2*
X1567D1*
X1827D2*
X1887D1*
X2152D2*
X2212D1*
X1498Y3228D2*
X1558D1*
X1827D2*
X1887D1*
X2166D2*
X2226D1*
X1487Y3198D2*
X1546D1*
X1827D2*
X1887D1*
X2180D2*
X2240D1*
X1473Y3168D2*
X1533D1*
X1827D2*
X1887D1*
X2194D2*
X2255D1*
X1459Y3138D2*
X1519D1*
X1827D2*
X1887D1*
X2206D2*
X2270D1*
X1445Y3108D2*
X1505D1*
X1827D2*
X1887D1*
X2217D2*
X2285D1*
X1430Y3078D2*
X1490D1*
X1827D2*
X1887D1*
X2228D2*
X2300D1*
X1414Y3048D2*
X1475D1*
X1827D2*
X1887D1*
X2243D2*
X2315D1*
X1396Y3018D2*
X1460D1*
X1827D2*
X1887D1*
X2260D2*
X2330D1*
X1377Y2988D2*
X1445D1*
X1827D2*
X1887D1*
X2278D2*
X2345D1*
X1358Y2958D2*
X1430D1*
X1827D2*
X1887D1*
X2297D2*
X2360D1*
X1342Y2928D2*
X1414D1*
X1827D2*
X1887D1*
X2314D2*
X2375D1*
X1326Y2898D2*
X1396D1*
X1827D2*
X1888D1*
X2329D2*
X2391D1*
X1310Y2868D2*
X1377D1*
X1617D2*
X1647D1*
X1825D2*
X1890D1*
X2097D2*
D3*
X2345D2*
X2409D1*
X1294Y2838D2*
X1358D1*
X1625D2*
X1705D1*
X1820D2*
X1895D1*
X2026D2*
X2127D1*
X2361D2*
X2428D1*
X1276Y2808D2*
X1341D1*
X1652D2*
X1776D1*
X1796D2*
X1919D1*
X1945D2*
X2083D1*
X2379D2*
X2447D1*
X1257Y2778D2*
X1325D1*
X1686D2*
X2037D1*
X2398D2*
X2464D1*
X1238Y2748D2*
X1306D1*
X1720D2*
X1999D1*
X2417D2*
X2480D1*
X1221Y2718D2*
X1287D1*
X1746D2*
X1970D1*
X2433D2*
X2499D1*
X1205Y2688D2*
X1268D1*
X1767D2*
X1947D1*
X2449D2*
X2518D1*
X1186Y2658D2*
X1252D1*
X1718D2*
X1997D1*
X2465D2*
X2537D1*
X1167Y2628D2*
X1236D1*
X1667D2*
X2048D1*
X2481D2*
X2553D1*
X1148Y2598D2*
X1220D1*
X1614D2*
X1739D1*
X1827D2*
X1887D1*
X1976D2*
X2101D1*
X2499D2*
X2569D1*
X1132Y2568D2*
X1204D1*
X1560D2*
X1682D1*
X1827D2*
X1887D1*
X2033D2*
X2155D1*
X2518D2*
X2585D1*
X1116Y2538D2*
X1186D1*
X1510D2*
X1630D1*
X1828D2*
X1887D1*
X2085D2*
X2205D1*
X2536D2*
X2600D1*
X1103Y2508D2*
X1169D1*
X1465D2*
X1579D1*
X1829D2*
X1887D1*
X2138D2*
X2250D1*
X2551D2*
X2614D1*
X1092Y2478D2*
X1155D1*
X1427D2*
X1529D1*
X1833D2*
X1887D1*
X2192D2*
X2288D1*
X2562D2*
X2624D1*
X1096Y2448D2*
X1157D1*
X1399D2*
X1482D1*
X1844D2*
X1887D1*
X2249D2*
X2316D1*
X2559D2*
X2629D1*
X1105Y2418D2*
X1165D1*
X1377D2*
X1437D1*
X1857D2*
X1887D1*
X2307D2*
X2337D1*
X2550D2*
X2622D1*
X1117Y2388D2*
X1177D1*
X2538D2*
X2611D1*
X1131Y2358D2*
X1192D1*
X2524D2*
X2595D1*
X1145Y2328D2*
X1209D1*
X2510D2*
X2576D1*
X1161Y2298D2*
X1227D1*
X2494D2*
X2558D1*
X1179Y2268D2*
X1242D1*
X2475D2*
X2541D1*
X1198Y2238D2*
X1251D1*
X2452D2*
X2524D1*
X1218Y2208D2*
X2505D1*
X1237Y2178D2*
X2482D1*
X1257Y2148D2*
X2457D1*
X5023Y967D2*
X4995Y957D1*
X4972Y947D1*
X4954Y937D1*
X4938Y927D1*
X4926Y917D1*
X4915Y907D1*
X4908Y897D1*
X4901Y887D1*
X4896Y877D1*
X4890Y867D1*
X4885Y857D1*
X4881Y847D1*
X4877Y837D1*
X4875Y827D1*
X4873Y817D1*
X4871Y807D1*
X4869Y797D1*
X4866Y787D1*
X4864Y777D1*
Y767D1*
X4865Y757D1*
X4867Y747D1*
X4869Y737D1*
X4871Y727D1*
X4872Y717D1*
X4874Y707D1*
X4877Y697D1*
X4880Y687D1*
X4883Y677D1*
X4887Y667D1*
X4891Y657D1*
X4896Y647D1*
X4901Y637D1*
X4907Y627D1*
X4915Y617D1*
X4924Y607D1*
X4935Y597D1*
X4950Y587D1*
X4968Y577D1*
X4989Y567D1*
X5013Y557D1*
X5083Y967D2*
X5107Y957D1*
X5128Y947D1*
X5145Y937D1*
X5158Y927D1*
X5167Y917D1*
X5175Y907D1*
X5183Y897D1*
X5189Y887D1*
X5196Y877D1*
X5203Y867D1*
X3653Y957D2*
Y947D1*
Y937D1*
Y927D1*
Y917D1*
Y907D1*
Y897D1*
Y887D1*
Y877D1*
Y867D1*
Y857D1*
Y847D1*
Y837D1*
Y827D1*
Y817D1*
Y807D1*
Y797D1*
Y787D1*
Y777D1*
Y767D1*
Y757D1*
Y747D1*
Y737D1*
Y727D1*
Y717D1*
Y707D1*
Y697D1*
Y687D1*
Y677D1*
Y667D1*
Y657D1*
Y647D1*
Y637D1*
Y627D1*
Y617D1*
Y607D1*
Y597D1*
Y587D1*
Y577D1*
Y567D1*
X3873Y957D2*
X3897Y947D1*
X3915Y937D1*
X3929Y927D1*
X3940Y917D1*
X3948Y907D1*
X3954Y897D1*
X3958Y887D1*
X3961Y877D1*
X3962Y867D1*
Y857D1*
Y847D1*
X3961Y837D1*
X3957Y827D1*
X3952Y817D1*
X3946Y807D1*
X3939Y797D1*
X3929Y787D1*
X3914Y777D1*
X3897Y767D1*
X3879Y757D1*
X3865Y747D1*
X3857Y737D1*
X3864Y727D1*
X3873Y717D1*
X3883Y707D1*
X3893Y697D1*
X3902Y687D1*
X3911Y677D1*
X3918Y667D1*
X3925Y657D1*
X3930Y647D1*
X3936Y637D1*
X3943Y627D1*
X3950Y617D1*
X3956Y607D1*
X3963Y597D1*
X3969Y587D1*
X3976Y577D1*
X3983Y567D1*
X1123Y947D2*
X1113Y937D1*
X1103Y927D1*
X1093Y917D1*
X1083Y907D1*
X1072Y897D1*
X1061Y887D1*
X1047Y877D1*
X1032Y867D1*
X1017Y857D1*
X1003Y847D1*
X1133Y947D2*
Y937D1*
Y927D1*
Y917D1*
Y907D1*
Y897D1*
Y887D1*
Y877D1*
Y867D1*
Y857D1*
Y847D1*
Y837D1*
Y827D1*
Y817D1*
Y807D1*
Y797D1*
Y787D1*
Y777D1*
Y767D1*
Y757D1*
Y747D1*
Y737D1*
Y727D1*
Y717D1*
Y707D1*
Y697D1*
Y687D1*
Y677D1*
Y667D1*
Y657D1*
Y647D1*
Y637D1*
Y627D1*
Y617D1*
Y607D1*
Y597D1*
Y587D1*
Y577D1*
Y567D1*
X1393Y947D2*
X1374Y937D1*
X1358Y927D1*
X1345Y917D1*
X1334Y907D1*
X1325Y897D1*
X1317Y887D1*
X1312Y877D1*
X1307Y867D1*
X1304Y857D1*
X1302Y847D1*
X1299Y837D1*
X1296Y827D1*
X1294Y817D1*
Y807D1*
X1293Y797D1*
Y787D1*
Y777D1*
Y767D1*
Y757D1*
Y747D1*
Y737D1*
Y727D1*
Y717D1*
Y707D1*
X1294Y697D1*
X1297Y687D1*
X1299Y677D1*
X1302Y667D1*
X1304Y657D1*
X1307Y647D1*
X1311Y637D1*
X1317Y627D1*
X1324Y617D1*
X1331Y607D1*
X1341Y597D1*
X1355Y587D1*
X1373Y577D1*
X1393Y567D1*
X1443Y947D2*
X1459Y937D1*
X1473Y927D1*
X1484Y917D1*
X1494Y907D1*
X1502Y897D1*
X1509Y887D1*
X1514Y877D1*
X1519Y867D1*
X1522Y857D1*
X1526Y847D1*
X1529Y837D1*
X1531Y827D1*
X1532Y817D1*
X1533Y807D1*
Y797D1*
Y787D1*
Y777D1*
Y767D1*
Y757D1*
Y747D1*
Y737D1*
Y727D1*
Y717D1*
Y707D1*
X1532Y697D1*
X1531Y687D1*
X1529Y677D1*
X1526Y667D1*
X1523Y657D1*
X1519Y647D1*
X1514Y637D1*
X1509Y627D1*
X1502Y617D1*
X1494Y607D1*
X1485Y597D1*
X1472Y587D1*
X1458Y577D1*
X1443Y567D1*
X1723Y947D2*
X1704Y937D1*
X1688Y927D1*
X1675Y917D1*
X1664Y907D1*
X1655Y897D1*
X1647Y887D1*
X1642Y877D1*
X1637Y867D1*
X1634Y857D1*
X1632Y847D1*
X1629Y837D1*
X1626Y827D1*
X1624Y817D1*
Y807D1*
X1623Y797D1*
Y787D1*
Y777D1*
Y767D1*
Y757D1*
Y747D1*
Y737D1*
Y727D1*
Y717D1*
Y707D1*
X1624Y697D1*
X1627Y687D1*
X1629Y677D1*
X1632Y667D1*
X1634Y657D1*
X1637Y647D1*
X1641Y637D1*
X1647Y627D1*
X1654Y617D1*
X1661Y607D1*
X1671Y597D1*
X1685Y587D1*
X1703Y577D1*
X1723Y567D1*
X1773Y947D2*
X1789Y937D1*
X1803Y927D1*
X1814Y917D1*
X1824Y907D1*
X1832Y897D1*
X1839Y887D1*
X1844Y877D1*
X1849Y867D1*
X1852Y857D1*
X1856Y847D1*
X1859Y837D1*
X1861Y827D1*
X1862Y817D1*
X1863Y807D1*
Y797D1*
Y787D1*
Y777D1*
Y767D1*
Y757D1*
Y747D1*
Y737D1*
Y727D1*
Y717D1*
Y707D1*
X1862Y697D1*
X1861Y687D1*
X1859Y677D1*
X1856Y667D1*
X1853Y657D1*
X1849Y647D1*
X1844Y637D1*
X1839Y627D1*
X1832Y617D1*
X1824Y607D1*
X1815Y597D1*
X1802Y587D1*
X1788Y577D1*
X1773Y567D1*
X2253Y947D2*
X2234Y937D1*
X2218Y927D1*
X2205Y917D1*
X2194Y907D1*
X2185Y897D1*
X2177Y887D1*
X2172Y877D1*
X2167Y867D1*
X2164Y857D1*
X2162Y847D1*
X2159Y837D1*
X2156Y827D1*
X2154Y817D1*
Y807D1*
X2153Y797D1*
Y787D1*
Y777D1*
Y767D1*
Y757D1*
Y747D1*
Y737D1*
Y727D1*
Y717D1*
Y707D1*
X2154Y697D1*
X2157Y687D1*
X2159Y677D1*
X2162Y667D1*
X2164Y657D1*
X2167Y647D1*
X2171Y637D1*
X2177Y627D1*
X2184Y617D1*
X2191Y607D1*
X2201Y597D1*
X2215Y587D1*
X2233Y577D1*
X2253Y567D1*
X2303Y947D2*
X2319Y937D1*
X2333Y927D1*
X2344Y917D1*
X2354Y907D1*
X2362Y897D1*
X2369Y887D1*
X2374Y877D1*
X2379Y867D1*
X2382Y857D1*
X2386Y847D1*
X2389Y837D1*
X2391Y827D1*
X2392Y817D1*
X2393Y807D1*
Y797D1*
Y787D1*
Y777D1*
Y767D1*
Y757D1*
Y747D1*
Y737D1*
Y727D1*
Y717D1*
Y707D1*
X2392Y697D1*
X2391Y687D1*
X2389Y677D1*
X2386Y667D1*
X2383Y657D1*
X2379Y647D1*
X2374Y637D1*
X2369Y627D1*
X2362Y617D1*
X2354Y607D1*
X2345Y597D1*
X2332Y587D1*
X2318Y577D1*
X2303Y567D1*
X2583Y947D2*
X2564Y937D1*
X2548Y927D1*
X2535Y917D1*
X2524Y907D1*
X2515Y897D1*
X2507Y887D1*
X2502Y877D1*
X2497Y867D1*
X2494Y857D1*
X2492Y847D1*
X2489Y837D1*
X2486Y827D1*
X2484Y817D1*
Y807D1*
X2483Y797D1*
Y787D1*
Y777D1*
Y767D1*
Y757D1*
Y747D1*
Y737D1*
Y727D1*
Y717D1*
Y707D1*
X2484Y697D1*
X2487Y687D1*
X2489Y677D1*
X2492Y667D1*
X2494Y657D1*
X2497Y647D1*
X2501Y637D1*
X2507Y627D1*
X2514Y617D1*
X2521Y607D1*
X2531Y597D1*
X2545Y587D1*
X2563Y577D1*
X2583Y567D1*
X2633Y947D2*
X2649Y937D1*
X2663Y927D1*
X2674Y917D1*
X2684Y907D1*
X2692Y897D1*
X2699Y887D1*
X2704Y877D1*
X2709Y867D1*
X2712Y857D1*
X2716Y847D1*
X2719Y837D1*
X2721Y827D1*
X2722Y817D1*
X2723Y807D1*
Y797D1*
Y787D1*
Y777D1*
Y767D1*
Y757D1*
Y747D1*
Y737D1*
Y727D1*
Y717D1*
Y707D1*
X2722Y697D1*
X2721Y687D1*
X2719Y677D1*
X2716Y667D1*
X2713Y657D1*
X2709Y647D1*
X2704Y637D1*
X2699Y627D1*
X2692Y617D1*
X2684Y607D1*
X2675Y597D1*
X2662Y587D1*
X2648Y577D1*
X2633Y567D1*
X2913Y947D2*
X2894Y937D1*
X2878Y927D1*
X2865Y917D1*
X2854Y907D1*
X2845Y897D1*
X2837Y887D1*
X2832Y877D1*
X2827Y867D1*
X2824Y857D1*
X2822Y847D1*
X2819Y837D1*
X2816Y827D1*
X2814Y817D1*
Y807D1*
X2813Y797D1*
Y787D1*
Y777D1*
Y767D1*
Y757D1*
Y747D1*
Y737D1*
Y727D1*
Y717D1*
Y707D1*
X2814Y697D1*
X2817Y687D1*
X2819Y677D1*
X2822Y667D1*
X2824Y657D1*
X2827Y647D1*
X2831Y637D1*
X2837Y627D1*
X2844Y617D1*
X2851Y607D1*
X2861Y597D1*
X2875Y587D1*
X2893Y577D1*
X2913Y567D1*
X2963Y947D2*
X2979Y937D1*
X2993Y927D1*
X3004Y917D1*
X3014Y907D1*
X3022Y897D1*
X3029Y887D1*
X3034Y877D1*
X3039Y867D1*
X3042Y857D1*
X3046Y847D1*
X3049Y837D1*
X3051Y827D1*
X3052Y817D1*
X3053Y807D1*
Y797D1*
Y787D1*
Y777D1*
Y767D1*
Y757D1*
Y747D1*
Y737D1*
Y727D1*
Y717D1*
Y707D1*
X3052Y697D1*
X3051Y687D1*
X3049Y677D1*
X3046Y667D1*
X3043Y657D1*
X3039Y647D1*
X3034Y637D1*
X3029Y627D1*
X3022Y617D1*
X3014Y607D1*
X3005Y597D1*
X2992Y587D1*
X2978Y577D1*
X2963Y567D1*
X3303Y947D2*
X3293Y937D1*
X3283Y927D1*
X3273Y917D1*
X3263Y907D1*
X3252Y897D1*
X3241Y887D1*
X3227Y877D1*
X3213Y867D1*
X3200Y857D1*
X3190Y847D1*
X3183Y837D1*
X3313Y947D2*
Y937D1*
Y927D1*
Y917D1*
Y907D1*
Y897D1*
Y887D1*
Y877D1*
Y867D1*
Y857D1*
Y847D1*
Y837D1*
Y827D1*
Y817D1*
Y807D1*
Y797D1*
Y787D1*
Y777D1*
Y767D1*
Y757D1*
Y747D1*
Y737D1*
Y727D1*
Y717D1*
Y707D1*
Y697D1*
Y687D1*
Y677D1*
Y667D1*
Y657D1*
Y647D1*
Y637D1*
Y627D1*
Y617D1*
Y607D1*
Y597D1*
Y587D1*
Y577D1*
Y567D1*
X5013Y947D2*
X4993Y937D1*
X4975Y927D1*
X4959Y917D1*
X4946Y907D1*
X4934Y897D1*
X4925Y887D1*
X4919Y877D1*
X4914Y867D1*
X4910Y857D1*
X4907Y847D1*
X4904Y837D1*
X4902Y827D1*
X4899Y817D1*
X4896Y807D1*
X4894Y797D1*
Y787D1*
X4893Y777D1*
Y767D1*
Y757D1*
Y747D1*
Y737D1*
X4894Y727D1*
X4897Y717D1*
X4899Y707D1*
X4902Y697D1*
X4904Y687D1*
X4907Y677D1*
X4910Y667D1*
X4913Y657D1*
X4918Y647D1*
X4925Y637D1*
X4934Y627D1*
X4946Y617D1*
X4963Y607D1*
X4995Y597D1*
X5048Y587D1*
X5113Y577D1*
X5083Y947D2*
X5102Y937D1*
X5121Y927D1*
X5136Y917D1*
X5148Y907D1*
X5157Y897D1*
X5164Y887D1*
X5169Y877D1*
X5173Y867D1*
X3683Y937D2*
Y927D1*
Y917D1*
Y907D1*
Y897D1*
Y887D1*
Y877D1*
Y867D1*
Y857D1*
Y847D1*
Y837D1*
Y827D1*
Y817D1*
Y807D1*
Y797D1*
Y787D1*
Y777D1*
X3853Y937D2*
X3879Y927D1*
X3900Y917D1*
X3917Y907D1*
X3926Y897D1*
X3930Y887D1*
X3931Y877D1*
X3932Y867D1*
X3933Y857D1*
X3932Y847D1*
X3931Y837D1*
X3928Y827D1*
X3923Y817D1*
X3912Y807D1*
X3898Y797D1*
X3881Y787D1*
X3863Y777D1*
X1393Y927D2*
X1375Y917D1*
X1359Y907D1*
X1347Y897D1*
X1338Y887D1*
X1332Y877D1*
X1327Y867D1*
X1325Y857D1*
X1323Y847D1*
X1321Y837D1*
X1319Y827D1*
X1316Y817D1*
X1314Y807D1*
Y797D1*
X1313Y787D1*
Y777D1*
Y767D1*
Y757D1*
Y747D1*
Y737D1*
Y727D1*
Y717D1*
Y707D1*
X1314Y697D1*
X1317Y687D1*
X1319Y677D1*
X1322Y667D1*
X1324Y657D1*
X1327Y647D1*
X1331Y637D1*
X1338Y627D1*
X1347Y617D1*
X1373Y607D1*
X1413Y597D1*
X1463Y587D1*
X1433Y927D2*
X1451Y917D1*
X1466Y907D1*
X1478Y897D1*
X1487Y887D1*
X1494Y877D1*
X1498Y867D1*
X1501Y857D1*
X1504Y847D1*
X1507Y837D1*
X1509Y827D1*
X1511Y817D1*
X1512Y807D1*
X1513Y797D1*
Y787D1*
Y777D1*
Y767D1*
Y757D1*
Y747D1*
Y737D1*
Y727D1*
Y717D1*
X1512Y707D1*
X1511Y697D1*
X1509Y687D1*
X1506Y677D1*
X1504Y667D1*
X1502Y657D1*
X1499Y647D1*
X1494Y637D1*
X1488Y627D1*
X1479Y617D1*
X1453Y607D1*
X1412Y597D1*
X1363Y587D1*
X1723Y927D2*
X1705Y917D1*
X1689Y907D1*
X1677Y897D1*
X1668Y887D1*
X1662Y877D1*
X1657Y867D1*
X1655Y857D1*
X1653Y847D1*
X1651Y837D1*
X1649Y827D1*
X1646Y817D1*
X1644Y807D1*
Y797D1*
X1643Y787D1*
Y777D1*
Y767D1*
Y757D1*
Y747D1*
Y737D1*
Y727D1*
Y717D1*
Y707D1*
X1644Y697D1*
X1647Y687D1*
X1649Y677D1*
X1652Y667D1*
X1654Y657D1*
X1657Y647D1*
X1661Y637D1*
X1668Y627D1*
X1677Y617D1*
X1703Y607D1*
X1743Y597D1*
X1793Y587D1*
X1763Y927D2*
X1781Y917D1*
X1796Y907D1*
X1808Y897D1*
X1817Y887D1*
X1824Y877D1*
X1828Y867D1*
X1831Y857D1*
X1834Y847D1*
X1837Y837D1*
X1839Y827D1*
X1841Y817D1*
X1842Y807D1*
X1843Y797D1*
Y787D1*
Y777D1*
Y767D1*
Y757D1*
Y747D1*
Y737D1*
Y727D1*
Y717D1*
X1842Y707D1*
X1841Y697D1*
X1839Y687D1*
X1836Y677D1*
X1834Y667D1*
X1832Y657D1*
X1829Y647D1*
X1824Y637D1*
X1818Y627D1*
X1809Y617D1*
X1783Y607D1*
X1742Y597D1*
X1693Y587D1*
X2253Y927D2*
X2235Y917D1*
X2219Y907D1*
X2207Y897D1*
X2198Y887D1*
X2192Y877D1*
X2187Y867D1*
X2185Y857D1*
X2183Y847D1*
X2181Y837D1*
X2179Y827D1*
X2176Y817D1*
X2174Y807D1*
Y797D1*
X2173Y787D1*
Y777D1*
Y767D1*
Y757D1*
Y747D1*
Y737D1*
Y727D1*
Y717D1*
Y707D1*
X2174Y697D1*
X2177Y687D1*
X2179Y677D1*
X2182Y667D1*
X2184Y657D1*
X2187Y647D1*
X2191Y637D1*
X2198Y627D1*
X2207Y617D1*
X2233Y607D1*
X2273Y597D1*
X2323Y587D1*
X2293Y927D2*
X2311Y917D1*
X2326Y907D1*
X2338Y897D1*
X2347Y887D1*
X2354Y877D1*
X2358Y867D1*
X2361Y857D1*
X2364Y847D1*
X2367Y837D1*
X2369Y827D1*
X2371Y817D1*
X2372Y807D1*
X2373Y797D1*
Y787D1*
Y777D1*
Y767D1*
Y757D1*
Y747D1*
Y737D1*
Y727D1*
Y717D1*
X2372Y707D1*
X2371Y697D1*
X2369Y687D1*
X2366Y677D1*
X2364Y667D1*
X2362Y657D1*
X2359Y647D1*
X2354Y637D1*
X2348Y627D1*
X2339Y617D1*
X2313Y607D1*
X2272Y597D1*
X2223Y587D1*
X2583Y927D2*
X2565Y917D1*
X2549Y907D1*
X2537Y897D1*
X2528Y887D1*
X2522Y877D1*
X2517Y867D1*
X2515Y857D1*
X2513Y847D1*
X2511Y837D1*
X2509Y827D1*
X2506Y817D1*
X2504Y807D1*
Y797D1*
X2503Y787D1*
Y777D1*
Y767D1*
Y757D1*
Y747D1*
Y737D1*
Y727D1*
Y717D1*
Y707D1*
X2504Y697D1*
X2507Y687D1*
X2509Y677D1*
X2512Y667D1*
X2514Y657D1*
X2517Y647D1*
X2521Y637D1*
X2528Y627D1*
X2537Y617D1*
X2563Y607D1*
X2603Y597D1*
X2653Y587D1*
X2623Y927D2*
X2641Y917D1*
X2656Y907D1*
X2668Y897D1*
X2677Y887D1*
X2684Y877D1*
X2688Y867D1*
X2691Y857D1*
X2694Y847D1*
X2697Y837D1*
X2699Y827D1*
X2701Y817D1*
X2702Y807D1*
X2703Y797D1*
Y787D1*
Y777D1*
Y767D1*
Y757D1*
Y747D1*
Y737D1*
Y727D1*
Y717D1*
X2702Y707D1*
X2701Y697D1*
X2699Y687D1*
X2696Y677D1*
X2694Y667D1*
X2692Y657D1*
X2689Y647D1*
X2684Y637D1*
X2678Y627D1*
X2669Y617D1*
X2643Y607D1*
X2602Y597D1*
X2553Y587D1*
X2913Y927D2*
X2895Y917D1*
X2879Y907D1*
X2867Y897D1*
X2858Y887D1*
X2852Y877D1*
X2847Y867D1*
X2845Y857D1*
X2843Y847D1*
X2841Y837D1*
X2839Y827D1*
X2836Y817D1*
X2834Y807D1*
Y797D1*
X2833Y787D1*
Y777D1*
Y767D1*
Y757D1*
Y747D1*
Y737D1*
Y727D1*
Y717D1*
Y707D1*
X2834Y697D1*
X2837Y687D1*
X2839Y677D1*
X2842Y667D1*
X2844Y657D1*
X2847Y647D1*
X2851Y637D1*
X2858Y627D1*
X2867Y617D1*
X2893Y607D1*
X2933Y597D1*
X2983Y587D1*
X2953Y927D2*
X2971Y917D1*
X2986Y907D1*
X2998Y897D1*
X3007Y887D1*
X3014Y877D1*
X3018Y867D1*
X3021Y857D1*
X3024Y847D1*
X3027Y837D1*
X3029Y827D1*
X3031Y817D1*
X3032Y807D1*
X3033Y797D1*
Y787D1*
Y777D1*
Y767D1*
Y757D1*
Y747D1*
Y737D1*
Y727D1*
Y717D1*
X3032Y707D1*
X3031Y697D1*
X3029Y687D1*
X3026Y677D1*
X3024Y667D1*
X3022Y657D1*
X3019Y647D1*
X3014Y637D1*
X3008Y627D1*
X2999Y617D1*
X2973Y607D1*
X2932Y597D1*
X2883Y587D1*
X1053Y867D2*
X1038Y857D1*
X1023Y847D1*
X1103Y877D2*
Y867D1*
Y857D1*
Y847D1*
Y837D1*
Y827D1*
Y817D1*
Y807D1*
Y797D1*
Y787D1*
Y777D1*
Y767D1*
Y757D1*
Y747D1*
Y737D1*
Y727D1*
Y717D1*
Y707D1*
Y697D1*
Y687D1*
Y677D1*
Y667D1*
Y657D1*
Y647D1*
Y637D1*
Y627D1*
Y617D1*
Y607D1*
Y597D1*
Y587D1*
Y577D1*
Y567D1*
X3233Y867D2*
X3217Y857D1*
X3201Y847D1*
X3183Y837D1*
X3283Y877D2*
Y867D1*
Y857D1*
Y847D1*
Y837D1*
Y827D1*
Y817D1*
Y807D1*
Y797D1*
Y787D1*
Y777D1*
Y767D1*
Y757D1*
Y747D1*
Y737D1*
Y727D1*
Y717D1*
Y707D1*
Y697D1*
Y687D1*
Y677D1*
Y667D1*
Y657D1*
Y647D1*
Y637D1*
Y627D1*
Y617D1*
Y607D1*
Y597D1*
Y587D1*
Y577D1*
Y567D1*
X4163Y857D2*
X4140Y847D1*
X4121Y837D1*
X4107Y827D1*
X4096Y817D1*
X4088Y807D1*
X4081Y797D1*
X4076Y787D1*
X4071Y777D1*
X4067Y767D1*
X4064Y757D1*
X4062Y747D1*
X4059Y737D1*
X4056Y727D1*
X4055Y717D1*
X4054Y707D1*
X4055Y697D1*
X4057Y687D1*
X4060Y677D1*
X4062Y667D1*
X4064Y657D1*
X4067Y647D1*
X4071Y637D1*
X4076Y627D1*
X4081Y617D1*
X4087Y607D1*
X4095Y597D1*
X4106Y587D1*
X4121Y577D1*
X4141Y567D1*
X4163Y557D1*
X4213Y857D2*
X4231Y847D1*
X4247Y837D1*
X4260Y827D1*
X4271Y817D1*
X4281Y807D1*
X4288Y797D1*
X4294Y787D1*
X4298Y777D1*
X4301Y767D1*
X4304Y757D1*
X4307Y747D1*
X4309Y737D1*
X4311Y727D1*
X4312Y717D1*
X4313Y707D1*
X4393Y847D2*
X4394Y837D1*
X4397Y827D1*
X4401Y817D1*
X4405Y807D1*
X4409Y797D1*
X4413Y787D1*
X4416Y777D1*
X4420Y767D1*
X4423Y757D1*
X4427Y747D1*
X4431Y737D1*
X4435Y727D1*
X4439Y717D1*
X4443Y707D1*
X4446Y697D1*
X4450Y687D1*
X4453Y677D1*
X4457Y667D1*
X4461Y657D1*
X4465Y647D1*
X4469Y637D1*
X4473Y627D1*
X4476Y617D1*
X4480Y607D1*
X4483Y597D1*
X4486Y587D1*
X4490Y577D1*
X4493Y567D1*
X4413Y847D2*
X4414Y837D1*
X4417Y827D1*
X4420Y817D1*
X4423Y807D1*
X4426Y797D1*
X4430Y787D1*
X4433Y777D1*
X4436Y767D1*
X4440Y757D1*
X4443Y747D1*
X4447Y737D1*
X4451Y727D1*
X4455Y717D1*
X4459Y707D1*
X4463Y697D1*
X4466Y687D1*
X4470Y677D1*
X4473Y667D1*
X4476Y657D1*
X4480Y647D1*
X4485Y637D1*
X4498Y627D1*
X4513Y617D1*
X4603Y847D2*
X4601Y837D1*
X4599Y827D1*
X4596Y817D1*
X4593Y807D1*
X4589Y797D1*
X4585Y787D1*
X4580Y777D1*
X4577Y767D1*
X4573Y757D1*
X4570Y747D1*
X4566Y737D1*
X4563Y727D1*
X4559Y717D1*
X4556Y707D1*
X4553Y697D1*
X4549Y687D1*
X4545Y677D1*
X4540Y667D1*
X4536Y657D1*
X4532Y647D1*
X4524Y637D1*
X4505Y627D1*
X4483Y617D1*
X4623Y847D2*
X4619Y837D1*
X4616Y827D1*
X4613Y817D1*
X4609Y807D1*
X4605Y797D1*
X4600Y787D1*
X4597Y777D1*
X4593Y767D1*
X4590Y757D1*
X4586Y747D1*
X4583Y737D1*
X4579Y727D1*
X4575Y717D1*
X4570Y707D1*
X4567Y697D1*
X4563Y687D1*
X4560Y677D1*
X4556Y667D1*
X4553Y657D1*
X4549Y647D1*
X4545Y637D1*
X4540Y627D1*
X4537Y617D1*
X4533Y607D1*
X4530Y597D1*
X4526Y587D1*
X4524Y577D1*
X4523Y567D1*
X4163Y837D2*
X4143Y827D1*
X4125Y817D1*
X4111Y807D1*
X4100Y797D1*
X4093Y787D1*
X4088Y777D1*
X4085Y767D1*
X4084Y757D1*
X4083Y747D1*
Y737D1*
Y727D1*
X4213Y837D2*
X4231Y827D1*
X4246Y817D1*
X4258Y807D1*
X4267Y797D1*
X4274Y787D1*
X4278Y777D1*
X4281Y767D1*
X4282Y757D1*
Y747D1*
X4283Y737D1*
Y727D1*
X3683Y757D2*
Y747D1*
Y737D1*
Y727D1*
Y717D1*
Y707D1*
Y697D1*
Y687D1*
Y677D1*
Y667D1*
Y657D1*
Y647D1*
Y637D1*
Y627D1*
Y617D1*
Y607D1*
Y597D1*
Y587D1*
Y577D1*
Y567D1*
X3793Y757D2*
X3811Y747D1*
X3827Y737D1*
X3840Y727D1*
X3850Y717D1*
X3858Y707D1*
X3866Y697D1*
X3874Y687D1*
X3882Y677D1*
X3889Y667D1*
X3896Y657D1*
X3903Y647D1*
X3909Y637D1*
X3916Y627D1*
X3923Y617D1*
X3929Y607D1*
X3935Y597D1*
X3940Y587D1*
X3946Y577D1*
X3953Y567D1*
X1943Y717D2*
Y707D1*
Y697D1*
X2083Y717D2*
Y707D1*
Y697D1*
X4083Y707D2*
Y697D1*
Y687D1*
Y677D1*
Y667D1*
X4085Y657D1*
X4087Y647D1*
X4092Y637D1*
X4097Y627D1*
X4106Y617D1*
X4116Y607D1*
X4144Y597D1*
X4188Y587D1*
X4243Y577D1*
X5183Y677D2*
X5179Y667D1*
X5175Y657D1*
X5170Y647D1*
X5165Y637D1*
X5158Y627D1*
X5148Y617D1*
X5135Y607D1*
X5101Y597D1*
X5048Y587D1*
X4983Y577D1*
X5203Y677D2*
X5201Y667D1*
X5198Y657D1*
X5194Y647D1*
X5189Y637D1*
X5182Y627D1*
X5176Y617D1*
X5167Y607D1*
X5157Y597D1*
X5143Y587D1*
X5126Y577D1*
X5105Y567D1*
X5083Y557D1*
X4273Y617D2*
X4262Y607D1*
X4233Y597D1*
X4188Y587D1*
X4133Y577D1*
X4303Y617D2*
X4293Y607D1*
X4283Y597D1*
X4272Y587D1*
X4259Y577D1*
X4242Y567D1*
X4223Y557D1*
X3653Y1707D2*
Y1697D1*
Y1687D1*
Y1677D1*
Y1667D1*
Y1657D1*
Y1647D1*
Y1637D1*
Y1627D1*
Y1617D1*
Y1607D1*
Y1597D1*
Y1587D1*
Y1577D1*
Y1567D1*
Y1557D1*
Y1547D1*
Y1537D1*
Y1527D1*
Y1517D1*
Y1507D1*
Y1497D1*
Y1487D1*
Y1477D1*
Y1467D1*
Y1457D1*
Y1447D1*
Y1437D1*
Y1427D1*
Y1417D1*
Y1407D1*
Y1397D1*
Y1387D1*
Y1377D1*
Y1367D1*
Y1357D1*
Y1347D1*
Y1337D1*
Y1327D1*
Y1317D1*
X3873Y1707D2*
X3897Y1697D1*
X3915Y1687D1*
X3929Y1677D1*
X3940Y1667D1*
X3948Y1657D1*
X3954Y1647D1*
X3958Y1637D1*
X3961Y1627D1*
X3962Y1617D1*
Y1607D1*
Y1597D1*
X3961Y1587D1*
X3957Y1577D1*
X3952Y1567D1*
X3946Y1557D1*
X3939Y1547D1*
X3929Y1537D1*
X3914Y1527D1*
X3897Y1517D1*
X3879Y1507D1*
X3865Y1497D1*
X3857Y1487D1*
X3864Y1477D1*
X3873Y1467D1*
X3883Y1457D1*
X3893Y1447D1*
X3902Y1437D1*
X3911Y1427D1*
X3918Y1417D1*
X3925Y1407D1*
X3930Y1397D1*
X3936Y1387D1*
X3943Y1377D1*
X3950Y1367D1*
X3956Y1357D1*
X3963Y1347D1*
X3969Y1337D1*
X3976Y1327D1*
X3983Y1317D1*
X1123Y1697D2*
X1113Y1687D1*
X1103Y1677D1*
X1093Y1667D1*
X1083Y1657D1*
X1072Y1647D1*
X1061Y1637D1*
X1047Y1627D1*
X1032Y1617D1*
X1017Y1607D1*
X1003Y1597D1*
X1133Y1697D2*
Y1687D1*
Y1677D1*
Y1667D1*
Y1657D1*
Y1647D1*
Y1637D1*
Y1627D1*
Y1617D1*
Y1607D1*
Y1597D1*
Y1587D1*
Y1577D1*
Y1567D1*
Y1557D1*
Y1547D1*
Y1537D1*
Y1527D1*
Y1517D1*
Y1507D1*
Y1497D1*
Y1487D1*
Y1477D1*
Y1467D1*
Y1457D1*
Y1447D1*
Y1437D1*
Y1427D1*
Y1417D1*
Y1407D1*
Y1397D1*
Y1387D1*
Y1377D1*
Y1367D1*
Y1357D1*
Y1347D1*
Y1337D1*
Y1327D1*
Y1317D1*
X1393Y1697D2*
X1374Y1687D1*
X1358Y1677D1*
X1345Y1667D1*
X1334Y1657D1*
X1325Y1647D1*
X1317Y1637D1*
X1312Y1627D1*
X1307Y1617D1*
X1304Y1607D1*
X1302Y1597D1*
X1299Y1587D1*
X1296Y1577D1*
X1294Y1567D1*
Y1557D1*
X1293Y1547D1*
Y1537D1*
Y1527D1*
Y1517D1*
Y1507D1*
Y1497D1*
Y1487D1*
Y1477D1*
Y1467D1*
Y1457D1*
X1294Y1447D1*
X1297Y1437D1*
X1299Y1427D1*
X1302Y1417D1*
X1304Y1407D1*
X1307Y1397D1*
X1311Y1387D1*
X1317Y1377D1*
X1324Y1367D1*
X1331Y1357D1*
X1341Y1347D1*
X1355Y1337D1*
X1373Y1327D1*
X1393Y1317D1*
X1443Y1697D2*
X1459Y1687D1*
X1473Y1677D1*
X1484Y1667D1*
X1494Y1657D1*
X1502Y1647D1*
X1509Y1637D1*
X1514Y1627D1*
X1519Y1617D1*
X1522Y1607D1*
X1526Y1597D1*
X1529Y1587D1*
X1531Y1577D1*
X1532Y1567D1*
X1533Y1557D1*
Y1547D1*
Y1537D1*
Y1527D1*
Y1517D1*
Y1507D1*
Y1497D1*
Y1487D1*
Y1477D1*
Y1467D1*
Y1457D1*
X1532Y1447D1*
X1531Y1437D1*
X1529Y1427D1*
X1526Y1417D1*
X1523Y1407D1*
X1519Y1397D1*
X1514Y1387D1*
X1509Y1377D1*
X1502Y1367D1*
X1494Y1357D1*
X1485Y1347D1*
X1472Y1337D1*
X1458Y1327D1*
X1443Y1317D1*
X1783Y1697D2*
X1773Y1687D1*
X1763Y1677D1*
X1753Y1667D1*
X1743Y1657D1*
X1732Y1647D1*
X1721Y1637D1*
X1707Y1627D1*
X1693Y1617D1*
X1680Y1607D1*
X1670Y1597D1*
X1663Y1587D1*
X1793Y1697D2*
Y1687D1*
Y1677D1*
Y1667D1*
Y1657D1*
Y1647D1*
Y1637D1*
Y1627D1*
Y1617D1*
Y1607D1*
Y1597D1*
Y1587D1*
Y1577D1*
Y1567D1*
Y1557D1*
Y1547D1*
Y1537D1*
Y1527D1*
Y1517D1*
Y1507D1*
Y1497D1*
Y1487D1*
Y1477D1*
Y1467D1*
Y1457D1*
Y1447D1*
Y1437D1*
Y1427D1*
Y1417D1*
Y1407D1*
Y1397D1*
Y1387D1*
Y1377D1*
Y1367D1*
Y1357D1*
Y1347D1*
Y1337D1*
Y1327D1*
Y1317D1*
X2253Y1697D2*
X2234Y1687D1*
X2218Y1677D1*
X2205Y1667D1*
X2194Y1657D1*
X2185Y1647D1*
X2177Y1637D1*
X2172Y1627D1*
X2167Y1617D1*
X2164Y1607D1*
X2162Y1597D1*
X2159Y1587D1*
X2156Y1577D1*
X2154Y1567D1*
Y1557D1*
X2153Y1547D1*
Y1537D1*
Y1527D1*
Y1517D1*
Y1507D1*
Y1497D1*
Y1487D1*
Y1477D1*
Y1467D1*
Y1457D1*
X2154Y1447D1*
X2157Y1437D1*
X2159Y1427D1*
X2162Y1417D1*
X2164Y1407D1*
X2167Y1397D1*
X2171Y1387D1*
X2177Y1377D1*
X2184Y1367D1*
X2191Y1357D1*
X2201Y1347D1*
X2215Y1337D1*
X2233Y1327D1*
X2253Y1317D1*
X2303Y1697D2*
X2319Y1687D1*
X2333Y1677D1*
X2344Y1667D1*
X2354Y1657D1*
X2362Y1647D1*
X2369Y1637D1*
X2374Y1627D1*
X2379Y1617D1*
X2382Y1607D1*
X2386Y1597D1*
X2389Y1587D1*
X2391Y1577D1*
X2392Y1567D1*
X2393Y1557D1*
Y1547D1*
Y1537D1*
Y1527D1*
Y1517D1*
Y1507D1*
Y1497D1*
Y1487D1*
Y1477D1*
Y1467D1*
Y1457D1*
X2392Y1447D1*
X2391Y1437D1*
X2389Y1427D1*
X2386Y1417D1*
X2383Y1407D1*
X2379Y1397D1*
X2374Y1387D1*
X2369Y1377D1*
X2362Y1367D1*
X2354Y1357D1*
X2345Y1347D1*
X2332Y1337D1*
X2318Y1327D1*
X2303Y1317D1*
X2583Y1697D2*
X2564Y1687D1*
X2548Y1677D1*
X2535Y1667D1*
X2524Y1657D1*
X2515Y1647D1*
X2507Y1637D1*
X2502Y1627D1*
X2497Y1617D1*
X2494Y1607D1*
X2492Y1597D1*
X2489Y1587D1*
X2486Y1577D1*
X2484Y1567D1*
Y1557D1*
X2483Y1547D1*
Y1537D1*
Y1527D1*
Y1517D1*
Y1507D1*
Y1497D1*
Y1487D1*
Y1477D1*
Y1467D1*
Y1457D1*
X2484Y1447D1*
X2487Y1437D1*
X2489Y1427D1*
X2492Y1417D1*
X2494Y1407D1*
X2497Y1397D1*
X2501Y1387D1*
X2507Y1377D1*
X2514Y1367D1*
X2521Y1357D1*
X2531Y1347D1*
X2545Y1337D1*
X2563Y1327D1*
X2583Y1317D1*
X2633Y1697D2*
X2649Y1687D1*
X2663Y1677D1*
X2674Y1667D1*
X2684Y1657D1*
X2692Y1647D1*
X2699Y1637D1*
X2704Y1627D1*
X2709Y1617D1*
X2712Y1607D1*
X2716Y1597D1*
X2719Y1587D1*
X2721Y1577D1*
X2722Y1567D1*
X2723Y1557D1*
Y1547D1*
Y1537D1*
Y1527D1*
Y1517D1*
Y1507D1*
Y1497D1*
Y1487D1*
Y1477D1*
Y1467D1*
Y1457D1*
X2722Y1447D1*
X2721Y1437D1*
X2719Y1427D1*
X2716Y1417D1*
X2713Y1407D1*
X2709Y1397D1*
X2704Y1387D1*
X2699Y1377D1*
X2692Y1367D1*
X2684Y1357D1*
X2675Y1347D1*
X2662Y1337D1*
X2648Y1327D1*
X2633Y1317D1*
X2913Y1697D2*
X2894Y1687D1*
X2878Y1677D1*
X2865Y1667D1*
X2854Y1657D1*
X2845Y1647D1*
X2837Y1637D1*
X2832Y1627D1*
X2827Y1617D1*
X2824Y1607D1*
X2822Y1597D1*
X2819Y1587D1*
X2816Y1577D1*
X2814Y1567D1*
Y1557D1*
X2813Y1547D1*
Y1537D1*
Y1527D1*
Y1517D1*
Y1507D1*
Y1497D1*
Y1487D1*
Y1477D1*
Y1467D1*
Y1457D1*
X2814Y1447D1*
X2817Y1437D1*
X2819Y1427D1*
X2822Y1417D1*
X2824Y1407D1*
X2827Y1397D1*
X2831Y1387D1*
X2837Y1377D1*
X2844Y1367D1*
X2851Y1357D1*
X2861Y1347D1*
X2875Y1337D1*
X2893Y1327D1*
X2913Y1317D1*
X2963Y1697D2*
X2979Y1687D1*
X2993Y1677D1*
X3004Y1667D1*
X3014Y1657D1*
X3022Y1647D1*
X3029Y1637D1*
X3034Y1627D1*
X3039Y1617D1*
X3042Y1607D1*
X3046Y1597D1*
X3049Y1587D1*
X3051Y1577D1*
X3052Y1567D1*
X3053Y1557D1*
Y1547D1*
Y1537D1*
Y1527D1*
Y1517D1*
Y1507D1*
Y1497D1*
Y1487D1*
Y1477D1*
Y1467D1*
Y1457D1*
X3052Y1447D1*
X3051Y1437D1*
X3049Y1427D1*
X3046Y1417D1*
X3043Y1407D1*
X3039Y1397D1*
X3034Y1387D1*
X3029Y1377D1*
X3022Y1367D1*
X3014Y1357D1*
X3005Y1347D1*
X2992Y1337D1*
X2978Y1327D1*
X2963Y1317D1*
X3303Y1697D2*
X3293Y1687D1*
X3283Y1677D1*
X3273Y1667D1*
X3263Y1657D1*
X3252Y1647D1*
X3241Y1637D1*
X3227Y1627D1*
X3213Y1617D1*
X3200Y1607D1*
X3190Y1597D1*
X3183Y1587D1*
X3313Y1697D2*
Y1687D1*
Y1677D1*
Y1667D1*
Y1657D1*
Y1647D1*
Y1637D1*
Y1627D1*
Y1617D1*
Y1607D1*
Y1597D1*
Y1587D1*
Y1577D1*
Y1567D1*
Y1557D1*
Y1547D1*
Y1537D1*
Y1527D1*
Y1517D1*
Y1507D1*
Y1497D1*
Y1487D1*
Y1477D1*
Y1467D1*
Y1457D1*
Y1447D1*
Y1437D1*
Y1427D1*
Y1417D1*
Y1407D1*
Y1397D1*
Y1387D1*
Y1377D1*
Y1367D1*
Y1357D1*
Y1347D1*
Y1337D1*
Y1327D1*
Y1317D1*
X3683Y1687D2*
Y1677D1*
Y1667D1*
Y1657D1*
Y1647D1*
Y1637D1*
Y1627D1*
Y1617D1*
Y1607D1*
Y1597D1*
Y1587D1*
Y1577D1*
Y1567D1*
Y1557D1*
Y1547D1*
Y1537D1*
Y1527D1*
X3853Y1687D2*
X3879Y1677D1*
X3900Y1667D1*
X3917Y1657D1*
X3926Y1647D1*
X3930Y1637D1*
X3931Y1627D1*
X3932Y1617D1*
X3933Y1607D1*
X3932Y1597D1*
X3931Y1587D1*
X3928Y1577D1*
X3923Y1567D1*
X3912Y1557D1*
X3898Y1547D1*
X3881Y1537D1*
X3863Y1527D1*
X1393Y1677D2*
X1375Y1667D1*
X1359Y1657D1*
X1347Y1647D1*
X1338Y1637D1*
X1332Y1627D1*
X1327Y1617D1*
X1325Y1607D1*
X1323Y1597D1*
X1321Y1587D1*
X1319Y1577D1*
X1316Y1567D1*
X1314Y1557D1*
Y1547D1*
X1313Y1537D1*
Y1527D1*
Y1517D1*
Y1507D1*
Y1497D1*
Y1487D1*
Y1477D1*
Y1467D1*
Y1457D1*
X1314Y1447D1*
X1317Y1437D1*
X1319Y1427D1*
X1322Y1417D1*
X1324Y1407D1*
X1327Y1397D1*
X1331Y1387D1*
X1338Y1377D1*
X1347Y1367D1*
X1373Y1357D1*
X1413Y1347D1*
X1463Y1337D1*
X1433Y1677D2*
X1451Y1667D1*
X1466Y1657D1*
X1478Y1647D1*
X1487Y1637D1*
X1494Y1627D1*
X1498Y1617D1*
X1501Y1607D1*
X1504Y1597D1*
X1507Y1587D1*
X1509Y1577D1*
X1511Y1567D1*
X1512Y1557D1*
X1513Y1547D1*
Y1537D1*
Y1527D1*
Y1517D1*
Y1507D1*
Y1497D1*
Y1487D1*
Y1477D1*
Y1467D1*
X1512Y1457D1*
X1511Y1447D1*
X1509Y1437D1*
X1506Y1427D1*
X1504Y1417D1*
X1502Y1407D1*
X1499Y1397D1*
X1494Y1387D1*
X1488Y1377D1*
X1479Y1367D1*
X1453Y1357D1*
X1412Y1347D1*
X1363Y1337D1*
X2253Y1677D2*
X2235Y1667D1*
X2219Y1657D1*
X2207Y1647D1*
X2198Y1637D1*
X2192Y1627D1*
X2187Y1617D1*
X2185Y1607D1*
X2183Y1597D1*
X2181Y1587D1*
X2179Y1577D1*
X2176Y1567D1*
X2174Y1557D1*
Y1547D1*
X2173Y1537D1*
Y1527D1*
Y1517D1*
Y1507D1*
Y1497D1*
Y1487D1*
Y1477D1*
Y1467D1*
Y1457D1*
X2174Y1447D1*
X2177Y1437D1*
X2179Y1427D1*
X2182Y1417D1*
X2184Y1407D1*
X2187Y1397D1*
X2191Y1387D1*
X2198Y1377D1*
X2207Y1367D1*
X2233Y1357D1*
X2273Y1347D1*
X2323Y1337D1*
X2293Y1677D2*
X2311Y1667D1*
X2326Y1657D1*
X2338Y1647D1*
X2347Y1637D1*
X2354Y1627D1*
X2358Y1617D1*
X2361Y1607D1*
X2364Y1597D1*
X2367Y1587D1*
X2369Y1577D1*
X2371Y1567D1*
X2372Y1557D1*
X2373Y1547D1*
Y1537D1*
Y1527D1*
Y1517D1*
Y1507D1*
Y1497D1*
Y1487D1*
Y1477D1*
Y1467D1*
X2372Y1457D1*
X2371Y1447D1*
X2369Y1437D1*
X2366Y1427D1*
X2364Y1417D1*
X2362Y1407D1*
X2359Y1397D1*
X2354Y1387D1*
X2348Y1377D1*
X2339Y1367D1*
X2313Y1357D1*
X2272Y1347D1*
X2223Y1337D1*
X2583Y1677D2*
X2565Y1667D1*
X2549Y1657D1*
X2537Y1647D1*
X2528Y1637D1*
X2522Y1627D1*
X2517Y1617D1*
X2515Y1607D1*
X2513Y1597D1*
X2511Y1587D1*
X2509Y1577D1*
X2506Y1567D1*
X2504Y1557D1*
Y1547D1*
X2503Y1537D1*
Y1527D1*
Y1517D1*
Y1507D1*
Y1497D1*
Y1487D1*
Y1477D1*
Y1467D1*
Y1457D1*
X2504Y1447D1*
X2507Y1437D1*
X2509Y1427D1*
X2512Y1417D1*
X2514Y1407D1*
X2517Y1397D1*
X2521Y1387D1*
X2528Y1377D1*
X2537Y1367D1*
X2563Y1357D1*
X2603Y1347D1*
X2653Y1337D1*
X2623Y1677D2*
X2641Y1667D1*
X2656Y1657D1*
X2668Y1647D1*
X2677Y1637D1*
X2684Y1627D1*
X2688Y1617D1*
X2691Y1607D1*
X2694Y1597D1*
X2697Y1587D1*
X2699Y1577D1*
X2701Y1567D1*
X2702Y1557D1*
X2703Y1547D1*
Y1537D1*
Y1527D1*
Y1517D1*
Y1507D1*
Y1497D1*
Y1487D1*
Y1477D1*
Y1467D1*
X2702Y1457D1*
X2701Y1447D1*
X2699Y1437D1*
X2696Y1427D1*
X2694Y1417D1*
X2692Y1407D1*
X2689Y1397D1*
X2684Y1387D1*
X2678Y1377D1*
X2669Y1367D1*
X2643Y1357D1*
X2602Y1347D1*
X2553Y1337D1*
X2913Y1677D2*
X2895Y1667D1*
X2879Y1657D1*
X2867Y1647D1*
X2858Y1637D1*
X2852Y1627D1*
X2847Y1617D1*
X2845Y1607D1*
X2843Y1597D1*
X2841Y1587D1*
X2839Y1577D1*
X2836Y1567D1*
X2834Y1557D1*
Y1547D1*
X2833Y1537D1*
Y1527D1*
Y1517D1*
Y1507D1*
Y1497D1*
Y1487D1*
Y1477D1*
Y1467D1*
Y1457D1*
X2834Y1447D1*
X2837Y1437D1*
X2839Y1427D1*
X2842Y1417D1*
X2844Y1407D1*
X2847Y1397D1*
X2851Y1387D1*
X2858Y1377D1*
X2867Y1367D1*
X2893Y1357D1*
X2933Y1347D1*
X2983Y1337D1*
X2953Y1677D2*
X2971Y1667D1*
X2986Y1657D1*
X2998Y1647D1*
X3007Y1637D1*
X3014Y1627D1*
X3018Y1617D1*
X3021Y1607D1*
X3024Y1597D1*
X3027Y1587D1*
X3029Y1577D1*
X3031Y1567D1*
X3032Y1557D1*
X3033Y1547D1*
Y1537D1*
Y1527D1*
Y1517D1*
Y1507D1*
Y1497D1*
Y1487D1*
Y1477D1*
Y1467D1*
X3032Y1457D1*
X3031Y1447D1*
X3029Y1437D1*
X3026Y1427D1*
X3024Y1417D1*
X3022Y1407D1*
X3019Y1397D1*
X3014Y1387D1*
X3008Y1377D1*
X2999Y1367D1*
X2973Y1357D1*
X2932Y1347D1*
X2883Y1337D1*
X1053Y1617D2*
X1038Y1607D1*
X1023Y1597D1*
X1103Y1627D2*
Y1617D1*
Y1607D1*
Y1597D1*
Y1587D1*
Y1577D1*
Y1567D1*
Y1557D1*
Y1547D1*
Y1537D1*
Y1527D1*
Y1517D1*
Y1507D1*
Y1497D1*
Y1487D1*
Y1477D1*
Y1467D1*
Y1457D1*
Y1447D1*
Y1437D1*
Y1427D1*
Y1417D1*
Y1407D1*
Y1397D1*
Y1387D1*
Y1377D1*
Y1367D1*
Y1357D1*
Y1347D1*
Y1337D1*
Y1327D1*
Y1317D1*
X1713Y1617D2*
X1697Y1607D1*
X1681Y1597D1*
X1663Y1587D1*
X1763Y1627D2*
Y1617D1*
Y1607D1*
Y1597D1*
Y1587D1*
Y1577D1*
Y1567D1*
Y1557D1*
Y1547D1*
Y1537D1*
Y1527D1*
Y1517D1*
Y1507D1*
Y1497D1*
Y1487D1*
Y1477D1*
Y1467D1*
Y1457D1*
Y1447D1*
Y1437D1*
Y1427D1*
Y1417D1*
Y1407D1*
Y1397D1*
Y1387D1*
Y1377D1*
Y1367D1*
Y1357D1*
Y1347D1*
Y1337D1*
Y1327D1*
Y1317D1*
X3233Y1617D2*
X3217Y1607D1*
X3201Y1597D1*
X3183Y1587D1*
X3283Y1627D2*
Y1617D1*
Y1607D1*
Y1597D1*
Y1587D1*
Y1577D1*
Y1567D1*
Y1557D1*
Y1547D1*
Y1537D1*
Y1527D1*
Y1517D1*
Y1507D1*
Y1497D1*
Y1487D1*
Y1477D1*
Y1467D1*
Y1457D1*
Y1447D1*
Y1437D1*
Y1427D1*
Y1417D1*
Y1407D1*
Y1397D1*
Y1387D1*
Y1377D1*
Y1367D1*
Y1357D1*
Y1347D1*
Y1337D1*
Y1327D1*
Y1317D1*
X4163Y1607D2*
X4140Y1597D1*
X4121Y1587D1*
X4107Y1577D1*
X4096Y1567D1*
X4088Y1557D1*
X4081Y1547D1*
X4076Y1537D1*
X4071Y1527D1*
X4067Y1517D1*
X4064Y1507D1*
X4062Y1497D1*
X4059Y1487D1*
X4056Y1477D1*
X4055Y1467D1*
X4054Y1457D1*
X4055Y1447D1*
X4057Y1437D1*
X4060Y1427D1*
X4062Y1417D1*
X4064Y1407D1*
X4067Y1397D1*
X4071Y1387D1*
X4076Y1377D1*
X4081Y1367D1*
X4087Y1357D1*
X4095Y1347D1*
X4106Y1337D1*
X4121Y1327D1*
X4141Y1317D1*
X4163Y1307D1*
X4213Y1607D2*
X4231Y1597D1*
X4247Y1587D1*
X4260Y1577D1*
X4271Y1567D1*
X4281Y1557D1*
X4288Y1547D1*
X4294Y1537D1*
X4298Y1527D1*
X4301Y1517D1*
X4304Y1507D1*
X4307Y1497D1*
X4309Y1487D1*
X4311Y1477D1*
X4312Y1467D1*
X4313Y1457D1*
X4393Y1597D2*
X4394Y1587D1*
X4397Y1577D1*
X4401Y1567D1*
X4405Y1557D1*
X4409Y1547D1*
X4413Y1537D1*
X4416Y1527D1*
X4420Y1517D1*
X4423Y1507D1*
X4427Y1497D1*
X4431Y1487D1*
X4435Y1477D1*
X4439Y1467D1*
X4443Y1457D1*
X4446Y1447D1*
X4450Y1437D1*
X4453Y1427D1*
X4457Y1417D1*
X4461Y1407D1*
X4465Y1397D1*
X4469Y1387D1*
X4473Y1377D1*
X4476Y1367D1*
X4480Y1357D1*
X4483Y1347D1*
X4486Y1337D1*
X4490Y1327D1*
X4493Y1317D1*
X4413Y1597D2*
X4414Y1587D1*
X4417Y1577D1*
X4420Y1567D1*
X4423Y1557D1*
X4426Y1547D1*
X4430Y1537D1*
X4433Y1527D1*
X4436Y1517D1*
X4440Y1507D1*
X4443Y1497D1*
X4447Y1487D1*
X4451Y1477D1*
X4455Y1467D1*
X4459Y1457D1*
X4463Y1447D1*
X4466Y1437D1*
X4470Y1427D1*
X4473Y1417D1*
X4476Y1407D1*
X4480Y1397D1*
X4485Y1387D1*
X4498Y1377D1*
X4513Y1367D1*
X4603Y1597D2*
X4601Y1587D1*
X4599Y1577D1*
X4596Y1567D1*
X4593Y1557D1*
X4589Y1547D1*
X4585Y1537D1*
X4580Y1527D1*
X4577Y1517D1*
X4573Y1507D1*
X4570Y1497D1*
X4566Y1487D1*
X4563Y1477D1*
X4559Y1467D1*
X4556Y1457D1*
X4553Y1447D1*
X4549Y1437D1*
X4545Y1427D1*
X4540Y1417D1*
X4536Y1407D1*
X4532Y1397D1*
X4524Y1387D1*
X4505Y1377D1*
X4483Y1367D1*
X4623Y1597D2*
X4619Y1587D1*
X4616Y1577D1*
X4613Y1567D1*
X4609Y1557D1*
X4605Y1547D1*
X4600Y1537D1*
X4597Y1527D1*
X4593Y1517D1*
X4590Y1507D1*
X4586Y1497D1*
X4583Y1487D1*
X4579Y1477D1*
X4575Y1467D1*
X4570Y1457D1*
X4567Y1447D1*
X4563Y1437D1*
X4560Y1427D1*
X4556Y1417D1*
X4553Y1407D1*
X4549Y1397D1*
X4545Y1387D1*
X4540Y1377D1*
X4537Y1367D1*
X4533Y1357D1*
X4530Y1347D1*
X4526Y1337D1*
X4524Y1327D1*
X4523Y1317D1*
X4163Y1587D2*
X4143Y1577D1*
X4125Y1567D1*
X4111Y1557D1*
X4100Y1547D1*
X4093Y1537D1*
X4088Y1527D1*
X4085Y1517D1*
X4084Y1507D1*
X4083Y1497D1*
Y1487D1*
Y1477D1*
X4213Y1587D2*
X4231Y1577D1*
X4246Y1567D1*
X4258Y1557D1*
X4267Y1547D1*
X4274Y1537D1*
X4278Y1527D1*
X4281Y1517D1*
X4282Y1507D1*
Y1497D1*
X4283Y1487D1*
Y1477D1*
X3683Y1507D2*
Y1497D1*
Y1487D1*
Y1477D1*
Y1467D1*
Y1457D1*
Y1447D1*
Y1437D1*
Y1427D1*
Y1417D1*
Y1407D1*
Y1397D1*
Y1387D1*
Y1377D1*
Y1367D1*
Y1357D1*
Y1347D1*
Y1337D1*
Y1327D1*
Y1317D1*
X3793Y1507D2*
X3811Y1497D1*
X3827Y1487D1*
X3840Y1477D1*
X3850Y1467D1*
X3858Y1457D1*
X3866Y1447D1*
X3874Y1437D1*
X3882Y1427D1*
X3889Y1417D1*
X3896Y1407D1*
X3903Y1397D1*
X3909Y1387D1*
X3916Y1377D1*
X3923Y1367D1*
X3929Y1357D1*
X3935Y1347D1*
X3940Y1337D1*
X3946Y1327D1*
X3953Y1317D1*
X1943Y1467D2*
Y1457D1*
Y1447D1*
X2083Y1467D2*
Y1457D1*
Y1447D1*
X4083Y1457D2*
Y1447D1*
Y1437D1*
Y1427D1*
Y1417D1*
X4085Y1407D1*
X4087Y1397D1*
X4092Y1387D1*
X4097Y1377D1*
X4106Y1367D1*
X4116Y1357D1*
X4144Y1347D1*
X4188Y1337D1*
X4243Y1327D1*
X4273Y1367D2*
X4262Y1357D1*
X4233Y1347D1*
X4188Y1337D1*
X4133Y1327D1*
X4303Y1367D2*
X4293Y1357D1*
X4283Y1347D1*
X4272Y1337D1*
X4259Y1327D1*
X4242Y1317D1*
X4223Y1307D1*
X4465Y3155D2*
X4440Y3145D1*
X4419Y3135D1*
X4402Y3125D1*
X4390Y3115D1*
X4381Y3105D1*
X4375Y3095D1*
X4370Y3085D1*
X4367Y3075D1*
X4366Y3065D1*
Y3055D1*
Y3045D1*
X4367Y3035D1*
X4370Y3025D1*
X4374Y3015D1*
X4380Y3005D1*
X4389Y2995D1*
X4401Y2985D1*
X4417Y2975D1*
X4438Y2965D1*
X4466Y2955D1*
X4498Y2945D1*
X4530Y2935D1*
X4559Y2925D1*
X4582Y2915D1*
X4598Y2905D1*
X4608Y2895D1*
X4616Y2885D1*
X4620Y2875D1*
X4623Y2865D1*
X4624Y2855D1*
X4625Y2845D1*
X4624Y2835D1*
X4621Y2825D1*
X4616Y2815D1*
X4610Y2805D1*
X4593Y2795D1*
X4560Y2785D1*
X4505Y2775D1*
X4435Y2765D1*
X4525Y3155D2*
X4551Y3145D1*
X4572Y3135D1*
X4588Y3125D1*
X4601Y3115D1*
X4610Y3105D1*
X4617Y3095D1*
X4622Y3085D1*
X4627Y3075D1*
X4632Y3065D1*
X4635Y3055D1*
X5435Y3155D2*
X5410Y3145D1*
X5389Y3135D1*
X5372Y3125D1*
X5360Y3115D1*
X5351Y3105D1*
X5345Y3095D1*
X5340Y3085D1*
X5337Y3075D1*
X5336Y3065D1*
Y3055D1*
Y3045D1*
X5337Y3035D1*
X5340Y3025D1*
X5344Y3015D1*
X5350Y3005D1*
X5359Y2995D1*
X5371Y2985D1*
X5387Y2975D1*
X5408Y2965D1*
X5436Y2955D1*
X5468Y2945D1*
X5500Y2935D1*
X5529Y2925D1*
X5552Y2915D1*
X5568Y2905D1*
X5578Y2895D1*
X5586Y2885D1*
X5590Y2875D1*
X5593Y2865D1*
X5594Y2855D1*
X5595Y2845D1*
X5594Y2835D1*
X5591Y2825D1*
X5586Y2815D1*
X5580Y2805D1*
X5563Y2795D1*
X5530Y2785D1*
X5475Y2775D1*
X5405Y2765D1*
X5495Y3155D2*
X5521Y3145D1*
X5542Y3135D1*
X5558Y3125D1*
X5571Y3115D1*
X5580Y3105D1*
X5587Y3095D1*
X5592Y3085D1*
X5597Y3075D1*
X5602Y3065D1*
X5605Y3055D1*
X3545Y3145D2*
Y3135D1*
Y3125D1*
Y3115D1*
Y3105D1*
Y3095D1*
Y3085D1*
Y3075D1*
Y3065D1*
Y3055D1*
Y3045D1*
Y3035D1*
Y3025D1*
Y3015D1*
Y3005D1*
Y2995D1*
Y2985D1*
Y2975D1*
Y2965D1*
Y2955D1*
Y2945D1*
Y2935D1*
Y2925D1*
Y2915D1*
Y2905D1*
Y2895D1*
Y2885D1*
Y2875D1*
Y2865D1*
Y2855D1*
Y2845D1*
Y2835D1*
Y2825D1*
Y2815D1*
Y2805D1*
Y2795D1*
Y2785D1*
Y2775D1*
Y2765D1*
Y2755D1*
X3765Y3145D2*
X3789Y3135D1*
X3808Y3125D1*
X3822Y3115D1*
X3832Y3105D1*
X3840Y3095D1*
X3846Y3085D1*
X3851Y3075D1*
X3853Y3065D1*
X3854Y3055D1*
X3855Y3045D1*
Y3035D1*
X3853Y3025D1*
X3850Y3015D1*
X3844Y3005D1*
X3838Y2995D1*
X3831Y2985D1*
X3821Y2975D1*
X3807Y2965D1*
X3789Y2955D1*
X3772Y2945D1*
X3757Y2935D1*
X3750Y2925D1*
X3756Y2915D1*
X3765Y2905D1*
X3775Y2895D1*
X3785Y2885D1*
X3795Y2875D1*
X3804Y2865D1*
X3811Y2855D1*
X3817Y2845D1*
X3823Y2835D1*
X3829Y2825D1*
X3836Y2815D1*
X3842Y2805D1*
X3849Y2795D1*
X3855Y2785D1*
X3862Y2775D1*
X3868Y2765D1*
X3875Y2755D1*
X3975Y3145D2*
Y3135D1*
Y3125D1*
Y3115D1*
Y3105D1*
Y3095D1*
Y3085D1*
Y3075D1*
Y3065D1*
Y3055D1*
Y3045D1*
Y3035D1*
Y3025D1*
Y3015D1*
Y3005D1*
Y2995D1*
Y2985D1*
Y2975D1*
Y2965D1*
Y2955D1*
Y2945D1*
Y2935D1*
Y2925D1*
Y2915D1*
Y2905D1*
Y2895D1*
Y2885D1*
Y2875D1*
Y2865D1*
Y2855D1*
Y2845D1*
Y2835D1*
Y2825D1*
Y2815D1*
Y2805D1*
Y2795D1*
Y2785D1*
Y2775D1*
Y2765D1*
Y2755D1*
X4245Y3145D2*
Y3135D1*
Y3125D1*
X4755Y3145D2*
Y3135D1*
Y3125D1*
Y3115D1*
Y3105D1*
Y3095D1*
Y3085D1*
Y3075D1*
Y3065D1*
Y3055D1*
Y3045D1*
Y3035D1*
Y3025D1*
Y3015D1*
Y3005D1*
Y2995D1*
Y2985D1*
Y2975D1*
Y2965D1*
Y2955D1*
Y2945D1*
Y2935D1*
Y2925D1*
Y2915D1*
Y2905D1*
Y2895D1*
Y2885D1*
Y2875D1*
Y2865D1*
Y2855D1*
Y2845D1*
Y2835D1*
Y2825D1*
Y2815D1*
Y2805D1*
Y2795D1*
Y2785D1*
Y2775D1*
Y2765D1*
Y2755D1*
X4785Y3145D2*
Y3135D1*
Y3125D1*
Y3115D1*
Y3105D1*
Y3095D1*
Y3085D1*
Y3075D1*
Y3065D1*
Y3055D1*
Y3045D1*
Y3035D1*
Y3025D1*
Y3015D1*
Y3005D1*
Y2995D1*
Y2985D1*
Y2975D1*
Y2965D1*
Y2955D1*
Y2945D1*
Y2935D1*
Y2925D1*
Y2915D1*
Y2905D1*
Y2895D1*
Y2885D1*
Y2875D1*
Y2865D1*
Y2855D1*
Y2845D1*
Y2835D1*
Y2825D1*
Y2815D1*
Y2805D1*
Y2795D1*
Y2785D1*
Y2775D1*
Y2765D1*
Y2755D1*
X4905Y3145D2*
Y3135D1*
Y3125D1*
Y3115D1*
Y3105D1*
Y3095D1*
Y3085D1*
Y3075D1*
Y3065D1*
Y3055D1*
Y3045D1*
Y3035D1*
Y3025D1*
Y3015D1*
Y3005D1*
Y2995D1*
Y2985D1*
Y2975D1*
Y2965D1*
Y2955D1*
Y2945D1*
Y2935D1*
Y2925D1*
Y2915D1*
Y2905D1*
Y2895D1*
Y2885D1*
Y2875D1*
Y2865D1*
Y2855D1*
Y2845D1*
Y2835D1*
Y2825D1*
Y2815D1*
Y2805D1*
Y2795D1*
Y2785D1*
Y2775D1*
Y2765D1*
Y2755D1*
X4935Y3145D2*
X4942Y3135D1*
X4949Y3125D1*
X4955Y3115D1*
X4962Y3105D1*
X4969Y3095D1*
X4977Y3085D1*
X4984Y3075D1*
X4992Y3065D1*
X4998Y3055D1*
X5005Y3045D1*
X5012Y3035D1*
X5019Y3025D1*
X5025Y3015D1*
X5032Y3005D1*
X5039Y2995D1*
X5045Y2985D1*
X5052Y2975D1*
X5059Y2965D1*
X5065Y2955D1*
X5072Y2945D1*
X5079Y2935D1*
X5085Y2925D1*
X5092Y2915D1*
X5099Y2905D1*
X5107Y2895D1*
X5114Y2885D1*
X5122Y2875D1*
X5129Y2865D1*
X5136Y2855D1*
X5146Y2845D1*
X5159Y2835D1*
X5175Y2825D1*
X5185Y3145D2*
Y3135D1*
Y3125D1*
Y3115D1*
Y3105D1*
Y3095D1*
Y3085D1*
Y3075D1*
Y3065D1*
Y3055D1*
Y3045D1*
Y3035D1*
Y3025D1*
Y3015D1*
Y3005D1*
Y2995D1*
Y2985D1*
Y2975D1*
Y2965D1*
Y2955D1*
Y2945D1*
Y2935D1*
Y2925D1*
Y2915D1*
Y2905D1*
Y2895D1*
Y2885D1*
Y2875D1*
Y2865D1*
X5184Y2855D1*
X5181Y2845D1*
X5170Y2835D1*
X5155Y2825D1*
X5215Y3145D2*
Y3135D1*
Y3125D1*
Y3115D1*
Y3105D1*
Y3095D1*
Y3085D1*
Y3075D1*
Y3065D1*
Y3055D1*
Y3045D1*
Y3035D1*
Y3025D1*
Y3015D1*
Y3005D1*
Y2995D1*
Y2985D1*
Y2975D1*
Y2965D1*
Y2955D1*
Y2945D1*
Y2935D1*
Y2925D1*
Y2915D1*
Y2905D1*
Y2895D1*
Y2885D1*
Y2875D1*
Y2865D1*
Y2855D1*
Y2845D1*
Y2835D1*
Y2825D1*
Y2815D1*
Y2805D1*
Y2795D1*
Y2785D1*
Y2775D1*
Y2765D1*
Y2755D1*
X5725Y3145D2*
Y3135D1*
Y3125D1*
Y3115D1*
Y3105D1*
Y3095D1*
Y3085D1*
Y3075D1*
Y3065D1*
Y3055D1*
Y3045D1*
Y3035D1*
Y3025D1*
Y3015D1*
Y3005D1*
Y2995D1*
Y2985D1*
Y2975D1*
Y2965D1*
Y2955D1*
Y2945D1*
Y2935D1*
Y2925D1*
Y2915D1*
Y2905D1*
Y2895D1*
Y2885D1*
Y2875D1*
Y2865D1*
Y2855D1*
Y2845D1*
Y2835D1*
Y2825D1*
Y2815D1*
Y2805D1*
Y2795D1*
Y2785D1*
Y2775D1*
Y2765D1*
Y2755D1*
X5755Y3145D2*
Y3135D1*
Y3125D1*
Y3115D1*
Y3105D1*
Y3095D1*
Y3085D1*
Y3075D1*
Y3065D1*
Y3055D1*
Y3045D1*
Y3035D1*
Y3025D1*
Y3015D1*
Y3005D1*
Y2995D1*
Y2985D1*
Y2975D1*
X6005Y3145D2*
Y3135D1*
Y3125D1*
Y3115D1*
Y3105D1*
Y3095D1*
Y3085D1*
Y3075D1*
Y3065D1*
Y3055D1*
Y3045D1*
Y3035D1*
Y3025D1*
Y3015D1*
Y3005D1*
Y2995D1*
Y2985D1*
Y2975D1*
X6035Y3145D2*
Y3135D1*
Y3125D1*
Y3115D1*
Y3105D1*
Y3095D1*
Y3085D1*
Y3075D1*
Y3065D1*
Y3055D1*
Y3045D1*
Y3035D1*
Y3025D1*
Y3015D1*
Y3005D1*
Y2995D1*
Y2985D1*
Y2975D1*
Y2965D1*
Y2955D1*
Y2945D1*
Y2935D1*
Y2925D1*
Y2915D1*
Y2905D1*
Y2895D1*
Y2885D1*
Y2875D1*
Y2865D1*
Y2855D1*
Y2845D1*
Y2835D1*
Y2825D1*
Y2815D1*
Y2805D1*
Y2795D1*
Y2785D1*
Y2775D1*
Y2765D1*
Y2755D1*
X6155Y3145D2*
Y3135D1*
Y3125D1*
Y3115D1*
Y3105D1*
Y3095D1*
Y3085D1*
Y3075D1*
Y3065D1*
Y3055D1*
Y3045D1*
Y3035D1*
Y3025D1*
Y3015D1*
Y3005D1*
Y2995D1*
Y2985D1*
Y2975D1*
Y2965D1*
Y2955D1*
Y2945D1*
Y2935D1*
Y2925D1*
Y2915D1*
Y2905D1*
Y2895D1*
Y2885D1*
Y2875D1*
Y2865D1*
Y2855D1*
Y2845D1*
Y2835D1*
Y2825D1*
Y2815D1*
Y2805D1*
Y2795D1*
Y2785D1*
Y2775D1*
Y2765D1*
Y2755D1*
X6185Y3145D2*
Y3135D1*
Y3125D1*
Y3115D1*
Y3105D1*
Y3095D1*
Y3085D1*
Y3075D1*
Y3065D1*
Y3055D1*
Y3045D1*
Y3035D1*
Y3025D1*
Y3015D1*
Y3005D1*
Y2995D1*
Y2985D1*
Y2975D1*
Y2965D1*
Y2955D1*
Y2945D1*
Y2935D1*
Y2925D1*
Y2915D1*
Y2905D1*
Y2895D1*
Y2885D1*
Y2875D1*
Y2865D1*
Y2855D1*
Y2845D1*
Y2835D1*
Y2825D1*
Y2815D1*
Y2805D1*
Y2795D1*
Y2785D1*
Y2775D1*
Y2765D1*
Y2755D1*
X6305Y3145D2*
Y3135D1*
Y3125D1*
Y3115D1*
Y3105D1*
Y3095D1*
Y3085D1*
Y3075D1*
Y3065D1*
Y3055D1*
Y3045D1*
Y3035D1*
Y3025D1*
Y3015D1*
Y3005D1*
Y2995D1*
Y2985D1*
Y2975D1*
Y2965D1*
Y2955D1*
Y2945D1*
Y2935D1*
Y2925D1*
Y2915D1*
Y2905D1*
Y2895D1*
Y2885D1*
Y2875D1*
Y2865D1*
Y2855D1*
Y2845D1*
Y2835D1*
Y2825D1*
Y2815D1*
Y2805D1*
Y2795D1*
Y2785D1*
Y2775D1*
Y2765D1*
Y2755D1*
X6575Y3145D2*
Y3135D1*
Y3125D1*
X6695Y3145D2*
Y3135D1*
Y3125D1*
Y3115D1*
Y3105D1*
Y3095D1*
Y3085D1*
Y3075D1*
Y3065D1*
Y3055D1*
Y3045D1*
Y3035D1*
Y3025D1*
Y3015D1*
Y3005D1*
Y2995D1*
Y2985D1*
Y2975D1*
Y2965D1*
Y2955D1*
Y2945D1*
Y2935D1*
Y2925D1*
Y2915D1*
Y2905D1*
Y2895D1*
Y2885D1*
Y2875D1*
Y2865D1*
Y2855D1*
Y2845D1*
Y2835D1*
Y2825D1*
Y2815D1*
Y2805D1*
Y2795D1*
Y2785D1*
Y2775D1*
Y2765D1*
Y2755D1*
X6715Y3145D2*
Y3135D1*
Y3125D1*
Y3115D1*
Y3105D1*
Y3095D1*
Y3085D1*
Y3075D1*
Y3065D1*
Y3055D1*
Y3045D1*
Y3035D1*
Y3025D1*
Y3015D1*
Y3005D1*
Y2995D1*
Y2985D1*
Y2975D1*
Y2965D1*
Y2955D1*
Y2945D1*
Y2935D1*
Y2925D1*
Y2915D1*
Y2905D1*
Y2895D1*
Y2885D1*
Y2875D1*
Y2865D1*
Y2855D1*
Y2845D1*
Y2835D1*
Y2825D1*
Y2815D1*
Y2805D1*
Y2795D1*
Y2785D1*
Y2775D1*
X7025Y3145D2*
Y3135D1*
Y3125D1*
Y3115D1*
Y3105D1*
Y3095D1*
Y3085D1*
Y3075D1*
Y3065D1*
Y3055D1*
Y3045D1*
Y3035D1*
Y3025D1*
Y3015D1*
Y3005D1*
Y2995D1*
Y2985D1*
Y2975D1*
Y2965D1*
Y2955D1*
Y2945D1*
Y2935D1*
Y2925D1*
Y2915D1*
Y2905D1*
Y2895D1*
Y2885D1*
Y2875D1*
Y2865D1*
Y2855D1*
Y2845D1*
Y2835D1*
Y2825D1*
Y2815D1*
Y2805D1*
Y2795D1*
Y2785D1*
Y2775D1*
Y2765D1*
Y2755D1*
X7215Y3145D2*
X7240Y3135D1*
X7261Y3125D1*
X7278Y3115D1*
X7290Y3105D1*
X7300Y3095D1*
X7308Y3085D1*
X7315Y3075D1*
X7321Y3065D1*
X7327Y3055D1*
X7331Y3045D1*
X7335Y3035D1*
X7339Y3025D1*
X7342Y3015D1*
X7344Y3005D1*
X7345Y2995D1*
Y2985D1*
Y2975D1*
Y2965D1*
Y2955D1*
Y2945D1*
Y2935D1*
Y2925D1*
Y2915D1*
X7344Y2905D1*
X7341Y2895D1*
X7338Y2885D1*
X7335Y2875D1*
X7332Y2865D1*
X7329Y2855D1*
X7325Y2845D1*
X7320Y2835D1*
X7313Y2825D1*
X7304Y2815D1*
X7295Y2805D1*
X7285Y2795D1*
X7272Y2785D1*
X7255Y2775D1*
X7232Y2765D1*
X7205Y2755D1*
X4455Y3135D2*
X4437Y3125D1*
X4421Y3115D1*
X4409Y3105D1*
X4399Y3095D1*
X4391Y3085D1*
X4388Y3075D1*
X4386Y3065D1*
Y3055D1*
Y3045D1*
X4388Y3035D1*
X4391Y3025D1*
X4400Y3015D1*
X4415Y3005D1*
X4437Y2995D1*
X4465Y2985D1*
X4497Y2975D1*
X4529Y2965D1*
X4557Y2955D1*
X4580Y2945D1*
X4598Y2935D1*
X4612Y2925D1*
X4622Y2915D1*
X4630Y2905D1*
X4636Y2895D1*
X4641Y2885D1*
X4643Y2875D1*
X4644Y2865D1*
X4645Y2855D1*
Y2845D1*
X4644Y2835D1*
X4641Y2825D1*
X4637Y2815D1*
X4631Y2805D1*
X4623Y2795D1*
X4614Y2785D1*
X4602Y2775D1*
X4587Y2765D1*
X4567Y2755D1*
X4545Y2745D1*
X4535Y3135D2*
X4553Y3125D1*
X4569Y3115D1*
X4582Y3105D1*
X4592Y3095D1*
X4600Y3085D1*
X4603Y3075D1*
X4604Y3065D1*
X4605Y3055D1*
X5425Y3135D2*
X5407Y3125D1*
X5391Y3115D1*
X5379Y3105D1*
X5369Y3095D1*
X5361Y3085D1*
X5358Y3075D1*
X5356Y3065D1*
Y3055D1*
Y3045D1*
X5358Y3035D1*
X5361Y3025D1*
X5370Y3015D1*
X5385Y3005D1*
X5407Y2995D1*
X5435Y2985D1*
X5467Y2975D1*
X5499Y2965D1*
X5527Y2955D1*
X5550Y2945D1*
X5568Y2935D1*
X5582Y2925D1*
X5592Y2915D1*
X5600Y2905D1*
X5606Y2895D1*
X5611Y2885D1*
X5613Y2875D1*
X5614Y2865D1*
X5615Y2855D1*
Y2845D1*
X5614Y2835D1*
X5611Y2825D1*
X5607Y2815D1*
X5601Y2805D1*
X5593Y2795D1*
X5584Y2785D1*
X5572Y2775D1*
X5557Y2765D1*
X5537Y2755D1*
X5515Y2745D1*
X5505Y3135D2*
X5523Y3125D1*
X5539Y3115D1*
X5552Y3105D1*
X5562Y3095D1*
X5570Y3085D1*
X5573Y3075D1*
X5574Y3065D1*
X5575Y3055D1*
X3575Y3125D2*
Y3115D1*
Y3105D1*
Y3095D1*
Y3085D1*
Y3075D1*
Y3065D1*
Y3055D1*
Y3045D1*
Y3035D1*
Y3025D1*
Y3015D1*
Y3005D1*
Y2995D1*
Y2985D1*
Y2975D1*
Y2965D1*
X3745Y3125D2*
X3771Y3115D1*
X3793Y3105D1*
X3810Y3095D1*
X3819Y3085D1*
X3822Y3075D1*
X3824Y3065D1*
X3825Y3055D1*
Y3045D1*
Y3035D1*
X3824Y3025D1*
X3820Y3015D1*
X3816Y3005D1*
X3805Y2995D1*
X3791Y2985D1*
X3774Y2975D1*
X3755Y2965D1*
X4005Y3125D2*
Y3115D1*
Y3105D1*
Y3095D1*
Y3085D1*
Y3075D1*
Y3065D1*
Y3055D1*
Y3045D1*
Y3035D1*
Y3025D1*
Y3015D1*
Y3005D1*
Y2995D1*
Y2985D1*
Y2975D1*
Y2965D1*
X6335Y3125D2*
Y3115D1*
Y3105D1*
Y3095D1*
Y3085D1*
Y3075D1*
Y3065D1*
Y3055D1*
Y3045D1*
Y3035D1*
Y3025D1*
Y3015D1*
Y3005D1*
Y2995D1*
Y2985D1*
Y2975D1*
Y2965D1*
X7055Y3125D2*
Y3115D1*
Y3105D1*
Y3095D1*
Y3085D1*
Y3075D1*
Y3065D1*
Y3055D1*
Y3045D1*
Y3035D1*
Y3025D1*
Y3015D1*
Y3005D1*
Y2995D1*
Y2985D1*
Y2975D1*
Y2965D1*
Y2955D1*
Y2945D1*
Y2935D1*
Y2925D1*
Y2915D1*
Y2905D1*
Y2895D1*
Y2885D1*
Y2875D1*
Y2865D1*
Y2855D1*
Y2845D1*
Y2835D1*
Y2825D1*
Y2815D1*
Y2805D1*
Y2795D1*
Y2785D1*
Y2775D1*
X7215Y3125D2*
X7235Y3115D1*
X7253Y3105D1*
X7269Y3095D1*
X7281Y3085D1*
X7290Y3075D1*
X7297Y3065D1*
X7302Y3055D1*
X7307Y3045D1*
X7311Y3035D1*
X7313Y3025D1*
X7315Y3015D1*
Y3005D1*
Y2995D1*
Y2985D1*
Y2975D1*
Y2965D1*
Y2955D1*
Y2945D1*
Y2935D1*
Y2925D1*
Y2915D1*
Y2905D1*
Y2895D1*
X7314Y2885D1*
X7311Y2875D1*
X7308Y2865D1*
X7305Y2855D1*
X7302Y2845D1*
X7297Y2835D1*
X7290Y2825D1*
X7281Y2815D1*
X7266Y2805D1*
X7246Y2795D1*
X7222Y2785D1*
X7195Y2775D1*
X4925Y3075D2*
Y3065D1*
Y3055D1*
Y3045D1*
Y3035D1*
Y3025D1*
Y3015D1*
Y3005D1*
Y2995D1*
Y2985D1*
Y2975D1*
Y2965D1*
Y2955D1*
Y2945D1*
Y2935D1*
Y2925D1*
Y2915D1*
Y2905D1*
Y2895D1*
Y2885D1*
Y2875D1*
Y2865D1*
Y2855D1*
Y2845D1*
Y2835D1*
Y2825D1*
Y2815D1*
Y2805D1*
Y2795D1*
Y2785D1*
Y2775D1*
Y2765D1*
Y2755D1*
X4955Y3075D2*
X4965Y3065D1*
X4974Y3055D1*
X4981Y3045D1*
X4988Y3035D1*
X4995Y3025D1*
X5002Y3015D1*
X5009Y3005D1*
X5015Y2995D1*
X5022Y2985D1*
X5029Y2975D1*
X5035Y2965D1*
X5042Y2955D1*
X5049Y2945D1*
X5055Y2935D1*
X5062Y2925D1*
X5069Y2915D1*
X5075Y2905D1*
X5082Y2895D1*
X5089Y2885D1*
X5097Y2875D1*
X5104Y2865D1*
X5112Y2855D1*
X5118Y2845D1*
X5125Y2835D1*
X5132Y2825D1*
X5139Y2815D1*
X5145Y2805D1*
X5152Y2795D1*
X5159Y2785D1*
X5165Y2775D1*
X5171Y2765D1*
X5175Y2755D1*
X4235Y2965D2*
Y2955D1*
Y2945D1*
X6565Y2965D2*
Y2955D1*
Y2945D1*
X5755Y2955D2*
Y2945D1*
Y2935D1*
Y2925D1*
Y2915D1*
Y2905D1*
Y2895D1*
Y2885D1*
Y2875D1*
Y2865D1*
Y2855D1*
Y2845D1*
Y2835D1*
Y2825D1*
Y2815D1*
Y2805D1*
Y2795D1*
Y2785D1*
Y2775D1*
Y2765D1*
Y2755D1*
X6005Y2955D2*
Y2945D1*
Y2935D1*
Y2925D1*
Y2915D1*
Y2905D1*
Y2895D1*
Y2885D1*
Y2875D1*
Y2865D1*
Y2855D1*
Y2845D1*
Y2835D1*
Y2825D1*
Y2815D1*
Y2805D1*
Y2795D1*
Y2785D1*
Y2775D1*
Y2765D1*
Y2755D1*
X3575Y2945D2*
Y2935D1*
Y2925D1*
Y2915D1*
Y2905D1*
Y2895D1*
Y2885D1*
Y2875D1*
Y2865D1*
Y2855D1*
Y2845D1*
Y2835D1*
Y2825D1*
Y2815D1*
Y2805D1*
Y2795D1*
Y2785D1*
Y2775D1*
Y2765D1*
Y2755D1*
X3685Y2945D2*
X3703Y2935D1*
X3719Y2925D1*
X3732Y2915D1*
X3743Y2905D1*
X3751Y2895D1*
X3759Y2885D1*
X3767Y2875D1*
X3774Y2865D1*
X3782Y2855D1*
X3788Y2845D1*
X3795Y2835D1*
X3802Y2825D1*
X3809Y2815D1*
X3815Y2805D1*
X3822Y2795D1*
X3827Y2785D1*
X3833Y2775D1*
X3839Y2765D1*
X3845Y2755D1*
X4005Y2945D2*
Y2935D1*
Y2925D1*
Y2915D1*
Y2905D1*
Y2895D1*
Y2885D1*
Y2875D1*
Y2865D1*
Y2855D1*
Y2845D1*
Y2835D1*
Y2825D1*
Y2815D1*
Y2805D1*
Y2795D1*
Y2785D1*
Y2775D1*
X6335Y2945D2*
Y2935D1*
Y2925D1*
Y2915D1*
Y2905D1*
Y2895D1*
Y2885D1*
Y2875D1*
Y2865D1*
Y2855D1*
Y2845D1*
Y2835D1*
Y2825D1*
Y2815D1*
Y2805D1*
Y2795D1*
Y2785D1*
Y2775D1*
X4355Y2865D2*
X4345Y2855D1*
X4350Y2845D1*
X4355Y2835D1*
X4359Y2825D1*
X4364Y2815D1*
X4370Y2805D1*
X4378Y2795D1*
X4388Y2785D1*
X4402Y2775D1*
X4420Y2765D1*
X4442Y2755D1*
X4465Y2745D1*
X4365Y2865D2*
X4370Y2855D1*
X4375Y2845D1*
X4379Y2835D1*
X4384Y2825D1*
X4390Y2815D1*
X4400Y2805D1*
X4413Y2795D1*
X4449Y2785D1*
X4505Y2775D1*
X4575Y2765D1*
X5325Y2865D2*
X5315Y2855D1*
X5320Y2845D1*
X5325Y2835D1*
X5329Y2825D1*
X5334Y2815D1*
X5340Y2805D1*
X5348Y2795D1*
X5358Y2785D1*
X5372Y2775D1*
X5390Y2765D1*
X5412Y2755D1*
X5435Y2745D1*
X5335Y2865D2*
X5340Y2855D1*
X5345Y2845D1*
X5349Y2835D1*
X5354Y2825D1*
X5360Y2815D1*
X5370Y2805D1*
X5383Y2795D1*
X5419Y2785D1*
X5475Y2775D1*
X5545Y2765D1*
X4255Y2775D2*
Y2765D1*
Y2755D1*
X6585Y2775D2*
Y2765D1*
Y2755D1*
X6925Y2775D2*
Y2765D1*
Y2755D1*
X1857Y3888D2*
X1844Y3858D1*
X1835Y3828D1*
X1831Y3798D1*
X1829Y3768D1*
X1828Y3738D1*
Y3708D1*
Y3678D1*
Y3648D1*
X1827Y3618D1*
Y3588D1*
Y3558D1*
Y3528D1*
Y3498D1*
Y3468D1*
Y3438D1*
Y3408D1*
Y3378D1*
Y3348D1*
Y3318D1*
Y3288D1*
Y3258D1*
Y3228D1*
Y3198D1*
Y3168D1*
Y3138D1*
Y3108D1*
Y3078D1*
Y3048D1*
Y3018D1*
Y2988D1*
Y2958D1*
Y2928D1*
Y2898D1*
X1825Y2868D1*
X1820Y2838D1*
X1796Y2808D1*
X1767Y2778D1*
X1887Y3858D2*
Y3828D1*
Y3798D1*
Y3768D1*
Y3738D1*
Y3708D1*
Y3678D1*
Y3648D1*
Y3618D1*
Y3588D1*
Y3558D1*
Y3528D1*
Y3498D1*
Y3468D1*
Y3438D1*
Y3408D1*
Y3378D1*
Y3348D1*
Y3318D1*
Y3288D1*
Y3258D1*
Y3228D1*
Y3198D1*
Y3168D1*
Y3138D1*
Y3108D1*
Y3078D1*
Y3048D1*
Y3018D1*
Y2988D1*
Y2958D1*
Y2928D1*
X1888Y2898D1*
X1890Y2868D1*
X1895Y2838D1*
X1919Y2808D1*
X1947Y2778D1*
X1617Y3708D2*
X1604Y3678D1*
X1595Y3648D1*
X1591Y3618D1*
X1589Y3588D1*
X1588Y3558D1*
X1586Y3528D1*
X1583Y3498D1*
X1575Y3468D1*
X1568Y3438D1*
X1561Y3408D1*
X1554Y3378D1*
X1545Y3348D1*
X1533Y3318D1*
X1520Y3288D1*
X1509Y3258D1*
X1498Y3228D1*
X1487Y3198D1*
X1473Y3168D1*
X1459Y3138D1*
X1445Y3108D1*
X1430Y3078D1*
X1414Y3048D1*
X1396Y3018D1*
X1377Y2988D1*
X1358Y2958D1*
X1342Y2928D1*
X1326Y2898D1*
X1310Y2868D1*
X1294Y2838D1*
X1276Y2808D1*
X1257Y2778D1*
X1238Y2748D1*
X1221Y2718D1*
X1205Y2688D1*
X1186Y2658D1*
X1167Y2628D1*
X1148Y2598D1*
X1132Y2568D1*
X1116Y2538D1*
X1103Y2508D1*
X1092Y2478D1*
X1096Y2448D1*
X1105Y2418D1*
X1117Y2388D1*
X1131Y2358D1*
X1145Y2328D1*
X1161Y2298D1*
X1179Y2268D1*
X1198Y2238D1*
X1218Y2208D1*
X1237Y2178D1*
X1257Y2148D1*
X1647Y3708D2*
Y3678D1*
Y3648D1*
Y3618D1*
Y3588D1*
X1646Y3558D1*
X1642Y3528D1*
X1635Y3498D1*
X1628Y3468D1*
X1621Y3438D1*
X1615Y3408D1*
X1606Y3378D1*
X1597Y3348D1*
X1588Y3318D1*
X1577Y3288D1*
X1567Y3258D1*
X1558Y3228D1*
X1546Y3198D1*
X1533Y3168D1*
X1519Y3138D1*
X1505Y3108D1*
X1490Y3078D1*
X1475Y3048D1*
X1460Y3018D1*
X1445Y2988D1*
X1430Y2958D1*
X1414Y2928D1*
X1396Y2898D1*
X1377Y2868D1*
X1358Y2838D1*
X1341Y2808D1*
X1325Y2778D1*
X1306Y2748D1*
X1287Y2718D1*
X1268Y2688D1*
X1252Y2658D1*
X1236Y2628D1*
X1220Y2598D1*
X1204Y2568D1*
X1186Y2538D1*
X1169Y2508D1*
X1155Y2478D1*
X1157Y2448D1*
X1165Y2418D1*
X1177Y2388D1*
X1192Y2358D1*
X1209Y2328D1*
X1227Y2298D1*
X1242Y2268D1*
X1251Y2238D1*
X1257Y2208D1*
X2097Y3708D2*
X2084Y3678D1*
X2076Y3648D1*
Y3618D1*
X2081Y3588D1*
X2088Y3558D1*
X2093Y3528D1*
X2096Y3498D1*
X2098Y3468D1*
X2102Y3438D1*
X2110Y3408D1*
X2117Y3378D1*
X2124Y3348D1*
X2130Y3318D1*
X2140Y3288D1*
X2152Y3258D1*
X2166Y3228D1*
X2180Y3198D1*
X2194Y3168D1*
X2206Y3138D1*
X2217Y3108D1*
X2228Y3078D1*
X2243Y3048D1*
X2260Y3018D1*
X2278Y2988D1*
X2297Y2958D1*
X2314Y2928D1*
X2329Y2898D1*
X2345Y2868D1*
X2361Y2838D1*
X2379Y2808D1*
X2398Y2778D1*
X2417Y2748D1*
X2433Y2718D1*
X2449Y2688D1*
X2465Y2658D1*
X2481Y2628D1*
X2499Y2598D1*
X2518Y2568D1*
X2536Y2538D1*
X2551Y2508D1*
X2562Y2478D1*
X2559Y2448D1*
X2550Y2418D1*
X2538Y2388D1*
X2524Y2358D1*
X2510Y2328D1*
X2494Y2298D1*
X2475Y2268D1*
X2452Y2238D1*
X2427Y2208D1*
X2127Y3678D2*
Y3648D1*
Y3618D1*
X2128Y3588D1*
X2129Y3558D1*
X2132Y3528D1*
X2140Y3498D1*
X2147Y3468D1*
X2154Y3438D1*
X2160Y3408D1*
X2169Y3378D1*
X2178Y3348D1*
X2188Y3318D1*
X2199Y3288D1*
X2212Y3258D1*
X2226Y3228D1*
X2240Y3198D1*
X2255Y3168D1*
X2270Y3138D1*
X2285Y3108D1*
X2300Y3078D1*
X2315Y3048D1*
X2330Y3018D1*
X2345Y2988D1*
X2360Y2958D1*
X2375Y2928D1*
X2391Y2898D1*
X2409Y2868D1*
X2428Y2838D1*
X2447Y2808D1*
X2464Y2778D1*
X2480Y2748D1*
X2499Y2718D1*
X2518Y2688D1*
X2537Y2658D1*
X2553Y2628D1*
X2569Y2598D1*
X2585Y2568D1*
X2600Y2538D1*
X2614Y2508D1*
X2624Y2478D1*
X2629Y2448D1*
X2622Y2418D1*
X2611Y2388D1*
X2595Y2358D1*
X2576Y2328D1*
X2558Y2298D1*
X2541Y2268D1*
X2524Y2238D1*
X2505Y2208D1*
X2482Y2178D1*
X2457Y2148D1*
X1617Y2868D2*
X1625Y2838D1*
X1652Y2808D1*
X1686Y2778D1*
X1720Y2748D1*
X1746Y2718D1*
X1767Y2688D1*
X1718Y2658D1*
X1667Y2628D1*
X1614Y2598D1*
X1560Y2568D1*
X1510Y2538D1*
X1465Y2508D1*
X1427Y2478D1*
X1399Y2448D1*
X1377Y2418D1*
X1647Y2868D2*
X1705Y2838D1*
X1776Y2808D1*
X1857Y2778D1*
X2097Y2868D2*
X2026Y2838D1*
X1945Y2808D1*
X1857Y2778D1*
X2127Y2838D2*
X2083Y2808D1*
X2037Y2778D1*
X1999Y2748D1*
X1970Y2718D1*
X1947Y2688D1*
X1997Y2658D1*
X2048Y2628D1*
X2101Y2598D1*
X2155Y2568D1*
X2205Y2538D1*
X2250Y2508D1*
X2288Y2478D1*
X2316Y2448D1*
X2337Y2418D1*
X1797Y2628D2*
X1739Y2598D1*
X1682Y2568D1*
X1630Y2538D1*
X1579Y2508D1*
X1529Y2478D1*
X1482Y2448D1*
X1437Y2418D1*
X1827Y2628D2*
Y2598D1*
Y2568D1*
X1828Y2538D1*
X1829Y2508D1*
X1833Y2478D1*
X1844Y2448D1*
X1857Y2418D1*
X1887Y2628D2*
Y2598D1*
Y2568D1*
Y2538D1*
Y2508D1*
Y2478D1*
Y2448D1*
Y2418D1*
X1917Y2628D2*
X1976Y2598D1*
X2033Y2568D1*
X2085Y2538D1*
X2138Y2508D1*
X2192Y2478D1*
X2249Y2448D1*
X2307Y2418D1*
X19193Y6127D2*
D110*
X19179Y6156D1*
X19150Y6184D1*
X19122Y6199D1*
X19064D1*
X19035Y6184D1*
X19007Y6156D1*
X18992Y6127D1*
X18978Y6084D1*
Y6012D1*
X18992Y5969D1*
X19007Y5940D1*
X19035Y5912D1*
X19064Y5897D1*
X19122D1*
X19150Y5912D1*
X19179Y5940D1*
X19193Y5969D1*
X19286Y6141D2*
X19315Y6156D1*
X19358Y6198D1*
Y5897D1*
X19537Y6198D2*
X19494Y6184D1*
X19465Y6141D1*
X19451Y6069D1*
Y6026D1*
X19465Y5955D1*
X19494Y5911D1*
X19537Y5897D1*
X19565D1*
X19608Y5911D1*
X19637Y5955D1*
X19652Y6026D1*
Y6069D1*
X19637Y6141D1*
X19608Y6184D1*
X19565Y6198D1*
X19537D1*
X19637Y6141D2*
X19465Y5955D1*
X19744Y6141D2*
X19773Y6156D1*
X19816Y6198D1*
Y5897D1*
X19210Y5002D2*
X19195Y5031D1*
X19167Y5059D1*
X19138Y5074D1*
X19081D1*
X19052Y5059D1*
X19023Y5031D1*
X19009Y5002D1*
X18995Y4959D1*
Y4887D1*
X19009Y4844D1*
X19023Y4815D1*
X19052Y4787D1*
X19081Y4772D1*
X19138D1*
X19167Y4787D1*
X19195Y4815D1*
X19210Y4844D1*
X19302Y5016D2*
X19331Y5031D1*
X19374Y5073D1*
Y4772D1*
X19553Y5073D2*
X19510Y5059D1*
X19481Y5016D1*
X19467Y4944D1*
Y4901D1*
X19481Y4830D1*
X19510Y4786D1*
X19553Y4772D1*
X19582D1*
X19625Y4786D1*
X19653Y4830D1*
X19668Y4901D1*
Y4944D1*
X19653Y5016D1*
X19625Y5059D1*
X19582Y5073D1*
X19553D1*
X19653Y5016D2*
X19481Y4830D1*
X19775Y5002D2*
Y5016D1*
X19789Y5045D1*
X19804Y5059D1*
X19833Y5073D1*
X19890D1*
X19918Y5059D1*
X19933Y5045D1*
X19947Y5016D1*
Y4987D1*
X19933Y4959D1*
X19904Y4916D1*
X19761Y4772D1*
X19962D1*
X14323Y4225D2*
X14309Y4254D1*
X14280Y4283D1*
X14251Y4297D1*
X14194D1*
X14165Y4283D1*
X14136Y4254D1*
X14122Y4225D1*
X14108Y4182D1*
Y4110D1*
X14122Y4068D1*
X14136Y4039D1*
X14165Y4010D1*
X14194Y3996D1*
X14251D1*
X14280Y4010D1*
X14309Y4039D1*
X14323Y4068D1*
X14415Y4239D2*
X14444Y4254D1*
X14487Y4297D1*
Y3996D1*
X14666Y4297D2*
X14623Y4282D1*
X14594Y4239D1*
X14580Y4168D1*
Y4125D1*
X14594Y4053D1*
X14623Y4010D1*
X14666Y3996D1*
X14695D1*
X14738Y4010D1*
X14766Y4053D1*
X14781Y4125D1*
Y4168D1*
X14766Y4239D1*
X14738Y4282D1*
X14695Y4297D1*
X14666D1*
X14766Y4239D2*
X14594Y4053D1*
X14903Y4297D2*
X15060D1*
X14974Y4182D1*
X15017D1*
X15046Y4168D1*
X15060Y4153D1*
X15075Y4110D1*
Y4082D1*
X15060Y4039D1*
X15032Y4010D1*
X14988Y3996D1*
X14945D1*
X14903Y4010D1*
X14888Y4024D1*
X14874Y4053D1*
X22831Y7256D2*
X22803Y7242D1*
X22774Y7213D1*
X22759Y7184D1*
Y7127D1*
X22774Y7098D1*
X22803Y7070D1*
X22831Y7055D1*
X22874Y7041D1*
X22946D1*
X22989Y7055D1*
X23018Y7070D1*
X23046Y7098D1*
X23061Y7127D1*
Y7184D1*
X23046Y7213D1*
X23018Y7242D1*
X22989Y7256D1*
X22817Y7349D2*
X22803Y7378D1*
X22760Y7421D1*
X23061D1*
X22760Y7600D2*
X22774Y7556D1*
X22817Y7528D1*
X22889Y7513D1*
X22932D1*
X23004Y7528D1*
X23047Y7556D1*
X23061Y7600D1*
Y7628D1*
X23047Y7671D1*
X23004Y7700D1*
X22932Y7714D1*
X22889D1*
X22817Y7700D1*
X22774Y7671D1*
X22760Y7628D1*
Y7600D1*
X22817Y7700D2*
X23004Y7528D1*
X23061Y7951D2*
X22760D1*
X22960Y7807D1*
Y8022D1*
X22894Y12138D2*
X22865Y12124D1*
X22836Y12095D1*
X22822Y12067D1*
Y12009D1*
X22836Y11980D1*
X22865Y11952D1*
X22894Y11937D1*
X22937Y11923D1*
X23009D1*
X23051Y11937D1*
X23080Y11952D1*
X23109Y11980D1*
X23123Y12009D1*
Y12067D1*
X23109Y12095D1*
X23080Y12124D1*
X23051Y12138D1*
X22880Y12231D2*
X22865Y12260D1*
X22822Y12303D1*
X23123D1*
X22822Y12482D2*
X22837Y12439D1*
X22880Y12410D1*
X22951Y12395D1*
X22994D1*
X23066Y12410D1*
X23109Y12439D1*
X23123Y12482D1*
Y12510D1*
X23109Y12553D1*
X23066Y12582D1*
X22994Y12596D1*
X22951D1*
X22880Y12582D1*
X22837Y12553D1*
X22822Y12510D1*
Y12482D1*
X22880Y12582D2*
X23066Y12410D1*
X22822Y12861D2*
Y12718D1*
X22951Y12704D1*
X22937Y12718D1*
X22922Y12761D1*
Y12804D1*
X22937Y12847D1*
X22966Y12876D1*
X23009Y12890D1*
X23037D1*
X23080Y12876D1*
X23109Y12847D1*
X23123Y12804D1*
Y12761D1*
X23109Y12718D1*
X23095Y12704D1*
X23066Y12689D1*
X19222Y7725D2*
X19208Y7754D1*
X19179Y7783D1*
X19150Y7797D1*
X19093D1*
X19064Y7783D1*
X19035Y7754D1*
X19021Y7725D1*
X19007Y7682D1*
Y7610D1*
X19021Y7568D1*
X19035Y7539D1*
X19064Y7510D1*
X19093Y7496D1*
X19150D1*
X19179Y7510D1*
X19208Y7539D1*
X19222Y7568D1*
X19314Y7739D2*
X19343Y7754D1*
X19386Y7797D1*
Y7496D1*
X19565Y7797D2*
X19522Y7782D1*
X19493Y7739D1*
X19479Y7668D1*
Y7625D1*
X19493Y7553D1*
X19522Y7510D1*
X19565Y7496D1*
X19594D1*
X19637Y7510D1*
X19665Y7553D1*
X19680Y7625D1*
Y7668D1*
X19665Y7739D1*
X19637Y7782D1*
X19594Y7797D1*
X19565D1*
X19665Y7739D2*
X19493Y7553D1*
X19945Y7754D2*
X19930Y7782D1*
X19887Y7797D1*
X19859D1*
X19816Y7782D1*
X19787Y7739D1*
X19773Y7668D1*
Y7596D1*
X19787Y7539D1*
X19816Y7510D1*
X19859Y7496D1*
X19873D1*
X19916Y7510D1*
X19945Y7539D1*
X19959Y7582D1*
Y7596D1*
X19945Y7639D1*
X19916Y7668D1*
X19873Y7682D1*
X19859D1*
X19816Y7668D1*
X19787Y7639D1*
X19773Y7596D1*
X16622Y3691D2*
X16593Y3677D1*
X16564Y3648D1*
X16550Y3619D1*
Y3562D1*
X16564Y3533D1*
X16593Y3504D1*
X16622Y3490D1*
X16665Y3476D1*
X16737D1*
X16779Y3490D1*
X16808Y3504D1*
X16837Y3533D1*
X16851Y3562D1*
Y3619D1*
X16837Y3648D1*
X16808Y3677D1*
X16779Y3691D1*
X16608Y3783D2*
X16593Y3812D1*
X16550Y3855D1*
X16851D1*
X16550Y4034D2*
X16565Y3991D1*
X16608Y3962D1*
X16679Y3948D1*
X16722D1*
X16794Y3962D1*
X16837Y3991D1*
X16851Y4034D1*
Y4063D1*
X16837Y4106D1*
X16794Y4134D1*
X16722Y4149D1*
X16679D1*
X16608Y4134D1*
X16565Y4106D1*
X16550Y4063D1*
Y4034D1*
X16608Y4134D2*
X16794Y3962D1*
X16851Y4299D2*
X16550Y4443D1*
Y4242D1*
X12337Y13465D2*
X12308Y13450D1*
X12280Y13421D1*
X12265Y13393D1*
Y13336D1*
X12280Y13307D1*
X12308Y13278D1*
X12337Y13264D1*
X12380Y13249D1*
X12452D1*
X12495Y13264D1*
X12524Y13278D1*
X12552Y13307D1*
X12567Y13336D1*
Y13393D1*
X12552Y13421D1*
X12524Y13450D1*
X12495Y13465D1*
X12323Y13557D2*
X12308Y13586D1*
X12266Y13629D1*
X12567D1*
X12266Y13808D2*
X12280Y13765D1*
X12323Y13736D1*
X12395Y13722D1*
X12438D1*
X12509Y13736D1*
X12553Y13765D1*
X12567Y13808D1*
Y13837D1*
X12553Y13880D1*
X12509Y13908D1*
X12438Y13923D1*
X12395D1*
X12323Y13908D1*
X12280Y13880D1*
X12266Y13837D1*
Y13808D1*
X12323Y13908D2*
X12509Y13736D1*
X12266Y14087D2*
X12280Y14044D1*
X12308Y14030D1*
X12337D1*
X12366Y14044D1*
X12380Y14073D1*
X12395Y14130D1*
X12409Y14173D1*
X12438Y14202D1*
X12466Y14216D1*
X12509D1*
X12538Y14202D1*
X12553Y14187D1*
X12567Y14144D1*
Y14087D1*
X12553Y14044D1*
X12538Y14030D1*
X12509Y14015D1*
X12466D1*
X12438Y14030D1*
X12409Y14058D1*
X12395Y14101D1*
X12380Y14159D1*
X12366Y14187D1*
X12337Y14202D1*
X12308D1*
X12280Y14187D1*
X12266Y14144D1*
Y14087D1*
X13707Y9504D2*
X13693Y9533D1*
X13664Y9561D1*
X13635Y9576D1*
X13578D1*
X13549Y9561D1*
X13521Y9533D1*
X13506Y9504D1*
X13492Y9461D1*
Y9389D1*
X13506Y9346D1*
X13521Y9317D1*
X13549Y9289D1*
X13578Y9274D1*
X13635D1*
X13664Y9289D1*
X13693Y9317D1*
X13707Y9346D1*
X13800Y9518D2*
X13829Y9533D1*
X13872Y9575D1*
Y9274D1*
X14051Y9575D2*
X14007Y9561D1*
X13979Y9518D1*
X13964Y9446D1*
Y9403D1*
X13979Y9332D1*
X14007Y9288D1*
X14051Y9274D1*
X14079D1*
X14122Y9288D1*
X14151Y9332D1*
X14165Y9403D1*
Y9446D1*
X14151Y9518D1*
X14122Y9561D1*
X14079Y9575D1*
X14051D1*
X14151Y9518D2*
X13979Y9332D1*
X14445Y9475D2*
X14430Y9432D1*
X14402Y9403D1*
X14358Y9389D1*
X14344D1*
X14301Y9403D1*
X14273Y9432D1*
X14258Y9475D1*
Y9489D1*
X14273Y9533D1*
X14301Y9561D1*
X14344Y9575D1*
X14358D1*
X14402Y9561D1*
X14430Y9533D1*
X14445Y9475D1*
Y9403D1*
X14430Y9332D1*
X14402Y9288D1*
X14358Y9274D1*
X14330D1*
X14287Y9288D1*
X14273Y9317D1*
X16085Y9493D2*
X16071Y9521D1*
X16042Y9550D1*
X16014Y9564D1*
X15956D1*
X15928Y9550D1*
X15899Y9521D1*
X15884Y9493D1*
X15870Y9450D1*
Y9378D1*
X15884Y9335D1*
X15899Y9306D1*
X15928Y9277D1*
X15956Y9263D1*
X16014D1*
X16042Y9277D1*
X16071Y9306D1*
X16085Y9335D1*
X16178Y9507D2*
X16207Y9521D1*
X16250Y9564D1*
Y9263D1*
X16343Y9507D2*
X16371Y9521D1*
X16415Y9564D1*
Y9263D1*
X16593Y9564D2*
X16550Y9550D1*
X16521Y9507D1*
X16507Y9435D1*
Y9392D1*
X16521Y9320D1*
X16550Y9277D1*
X16593Y9263D1*
X16622D1*
X16665Y9277D1*
X16694Y9320D1*
X16708Y9392D1*
Y9435D1*
X16694Y9507D1*
X16665Y9550D1*
X16622Y9564D1*
X16593D1*
X16694Y9507D2*
X16521Y9320D1*
X7969Y12477D2*
X7955Y12505D1*
X7926Y12534D1*
X7898Y12548D1*
X7840D1*
X7811Y12534D1*
X7783Y12505D1*
X7768Y12477D1*
X7754Y12434D1*
Y12362D1*
X7768Y12319D1*
X7783Y12290D1*
X7811Y12262D1*
X7840Y12247D1*
X7898D1*
X7926Y12262D1*
X7955Y12290D1*
X7969Y12319D1*
X8062Y12491D2*
X8091Y12505D1*
X8134Y12548D1*
Y12247D1*
X8226Y12491D2*
X8255Y12505D1*
X8298Y12548D1*
Y12247D1*
X8391Y12491D2*
X8420Y12505D1*
X8463Y12548D1*
Y12247D1*
X15693Y17325D2*
X15679Y17354D1*
X15650Y17383D1*
X15622Y17397D1*
X15564D1*
X15536Y17383D1*
X15507Y17354D1*
X15492Y17325D1*
X15478Y17282D1*
Y17210D1*
X15492Y17167D1*
X15507Y17139D1*
X15536Y17110D1*
X15564Y17095D1*
X15622D1*
X15650Y17110D1*
X15679Y17139D1*
X15693Y17167D1*
X15786Y17339D2*
X15815Y17354D1*
X15858Y17397D1*
Y17095D1*
X15951Y17339D2*
X15979Y17354D1*
X16023Y17397D1*
Y17095D1*
X16130Y17325D2*
Y17339D1*
X16144Y17368D1*
X16158Y17382D1*
X16187Y17397D1*
X16245D1*
X16273Y17382D1*
X16287Y17368D1*
X16302Y17339D1*
Y17311D1*
X16287Y17282D1*
X16259Y17239D1*
X16115Y17095D1*
X16316D1*
X17381Y17325D2*
X17367Y17354D1*
X17338Y17383D1*
X17309Y17397D1*
X17252D1*
X17223Y17383D1*
X17194Y17354D1*
X17180Y17325D1*
X17166Y17282D1*
Y17210D1*
X17180Y17167D1*
X17194Y17138D1*
X17223Y17110D1*
X17252Y17095D1*
X17309D1*
X17338Y17110D1*
X17367Y17138D1*
X17381Y17167D1*
X17473Y17339D2*
X17502Y17354D1*
X17545Y17396D1*
Y17095D1*
X17638Y17339D2*
X17667Y17354D1*
X17710Y17396D1*
Y17095D1*
X17832Y17396D2*
X17989D1*
X17903Y17282D1*
X17946D1*
X17975Y17267D1*
X17989Y17253D1*
X18004Y17210D1*
Y17182D1*
X17989Y17138D1*
X17961Y17110D1*
X17917Y17095D1*
X17874D1*
X17832Y17110D1*
X17817Y17124D1*
X17803Y17153D1*
X9557Y12477D2*
X9543Y12505D1*
X9514Y12534D1*
X9486Y12548D1*
X9428D1*
X9400Y12534D1*
X9371Y12505D1*
X9357Y12477D1*
X9342Y12434D1*
Y12362D1*
X9357Y12319D1*
X9371Y12290D1*
X9400Y12262D1*
X9428Y12247D1*
X9486D1*
X9514Y12262D1*
X9543Y12290D1*
X9557Y12319D1*
X9650Y12491D2*
X9679Y12505D1*
X9722Y12548D1*
Y12247D1*
X9815Y12491D2*
X9844Y12505D1*
X9887Y12548D1*
Y12247D1*
X10123D2*
Y12548D1*
X9979Y12347D1*
X10195D1*
X17837Y12939D2*
X17808Y12924D1*
X17780Y12895D1*
X17765Y12867D1*
Y12810D1*
X17780Y12781D1*
X17808Y12752D1*
X17837Y12738D1*
X17880Y12723D1*
X17952D1*
X17995Y12738D1*
X18024Y12752D1*
X18052Y12781D1*
X18067Y12810D1*
Y12867D1*
X18052Y12895D1*
X18024Y12924D1*
X17995Y12939D1*
X17823Y13031D2*
X17808Y13060D1*
X17766Y13103D1*
X18067D1*
X17823Y13196D2*
X17808Y13225D1*
X17766Y13268D1*
X18067D1*
X17766Y13532D2*
Y13389D1*
X17895Y13375D1*
X17880Y13389D1*
X17866Y13432D1*
Y13475D1*
X17880Y13518D1*
X17909Y13547D1*
X17952Y13561D1*
X17981D1*
X18024Y13547D1*
X18053Y13518D1*
X18067Y13475D1*
Y13432D1*
X18053Y13389D1*
X18038Y13375D1*
X18009Y13360D1*
X46685Y7441D2*
X46657Y7427D1*
X46628Y7398D1*
X46614Y7370D1*
Y7312D1*
X46628Y7284D1*
X46657Y7255D1*
X46685Y7240D1*
X46729Y7226D1*
X46801D1*
X46843Y7240D1*
X46872Y7255D1*
X46901Y7284D1*
X46915Y7312D1*
Y7370D1*
X46901Y7398D1*
X46872Y7427D1*
X46843Y7441D1*
X46686Y7549D2*
X46672D1*
X46643Y7563D1*
X46628Y7577D1*
X46614Y7606D1*
Y7663D1*
X46628Y7692D1*
X46643Y7706D1*
X46672Y7721D1*
X46700D1*
X46729Y7706D1*
X46772Y7678D1*
X46915Y7534D1*
Y7735D1*
X46614Y7914D2*
X46628Y7871D1*
X46672Y7842D1*
X46743Y7828D1*
X46786D1*
X46858Y7842D1*
X46901Y7871D1*
X46915Y7914D1*
Y7942D1*
X46901Y7985D1*
X46858Y8014D1*
X46786Y8029D1*
X46743D1*
X46672Y8014D1*
X46628Y7985D1*
X46614Y7942D1*
Y7914D1*
X46672Y8014D2*
X46858Y7842D1*
X46672Y8121D2*
X46657Y8150D1*
X46614Y8193D1*
X46915D1*
X53462Y5962D2*
X53433Y5948D1*
X53405Y5919D1*
X53390Y5891D1*
Y5833D1*
X53405Y5805D1*
X53433Y5776D1*
X53462Y5761D1*
X53505Y5747D1*
X53577D1*
X53620Y5761D1*
X53649Y5776D1*
X53677Y5805D1*
X53692Y5833D1*
Y5891D1*
X53677Y5919D1*
X53649Y5948D1*
X53620Y5962D1*
X53462Y6070D2*
X53448D1*
X53419Y6084D1*
X53405Y6098D1*
X53391Y6127D1*
Y6184D1*
X53405Y6213D1*
X53419Y6227D1*
X53448Y6242D1*
X53477D1*
X53505Y6227D1*
X53548Y6199D1*
X53692Y6055D1*
Y6256D1*
X53391Y6435D2*
X53405Y6392D1*
X53448Y6363D1*
X53520Y6349D1*
X53563D1*
X53634Y6363D1*
X53678Y6392D1*
X53692Y6435D1*
Y6463D1*
X53678Y6506D1*
X53634Y6535D1*
X53563Y6550D1*
X53520D1*
X53448Y6535D1*
X53405Y6506D1*
X53391Y6463D1*
Y6435D1*
X53448Y6535D2*
X53634Y6363D1*
X53462Y6657D2*
X53448D1*
X53419Y6671D1*
X53405Y6685D1*
X53391Y6714D1*
Y6772D1*
X53405Y6800D1*
X53419Y6814D1*
X53448Y6829D1*
X53477D1*
X53505Y6814D1*
X53548Y6786D1*
X53692Y6642D1*
Y6843D1*
X47373Y15020D2*
X47344Y15006D1*
X47316Y14977D1*
X47301Y14948D1*
Y14891D1*
X47316Y14862D1*
X47344Y14834D1*
X47373Y14819D1*
X47416Y14805D1*
X47488D1*
X47531Y14819D1*
X47560Y14834D1*
X47588Y14862D1*
X47603Y14891D1*
Y14948D1*
X47588Y14977D1*
X47560Y15006D1*
X47531Y15020D1*
X47373Y15127D2*
X47359D1*
X47330Y15142D1*
X47316Y15156D1*
X47302Y15185D1*
Y15242D1*
X47316Y15271D1*
X47330Y15285D1*
X47359Y15299D1*
X47388D1*
X47416Y15285D1*
X47459Y15256D1*
X47603Y15113D1*
Y15314D1*
X47302Y15493D2*
X47316Y15449D1*
X47359Y15421D1*
X47431Y15406D1*
X47474D1*
X47545Y15421D1*
X47588Y15449D1*
X47603Y15493D1*
Y15521D1*
X47588Y15564D1*
X47545Y15593D1*
X47474Y15607D1*
X47431D1*
X47359Y15593D1*
X47316Y15564D1*
X47302Y15521D1*
Y15493D1*
X47359Y15593D2*
X47545Y15421D1*
X47302Y15729D2*
Y15886D1*
X47416Y15800D1*
Y15843D1*
X47431Y15872D1*
X47445Y15886D1*
X47488Y15901D1*
X47517D1*
X47560Y15886D1*
X47588Y15858D1*
X47603Y15815D1*
Y15772D1*
X47588Y15729D1*
X47574Y15714D1*
X47545Y15700D1*
X51685Y7432D2*
X51657Y7418D1*
X51628Y7389D1*
X51614Y7361D1*
Y7303D1*
X51628Y7274D1*
X51657Y7246D1*
X51685Y7231D1*
X51729Y7217D1*
X51801D1*
X51843Y7231D1*
X51872Y7246D1*
X51901Y7274D1*
X51915Y7303D1*
Y7361D1*
X51901Y7389D1*
X51872Y7418D1*
X51843Y7432D1*
X51686Y7539D2*
X51672D1*
X51643Y7554D1*
X51628Y7568D1*
X51614Y7597D1*
Y7654D1*
X51628Y7683D1*
X51643Y7697D1*
X51672Y7712D1*
X51700D1*
X51729Y7697D1*
X51772Y7668D1*
X51915Y7525D1*
Y7726D1*
X51614Y7905D2*
X51628Y7862D1*
X51672Y7833D1*
X51743Y7818D1*
X51786D1*
X51858Y7833D1*
X51901Y7862D1*
X51915Y7905D1*
Y7933D1*
X51901Y7976D1*
X51858Y8005D1*
X51786Y8019D1*
X51743D1*
X51672Y8005D1*
X51628Y7976D1*
X51614Y7933D1*
Y7905D1*
X51672Y8005D2*
X51858Y7833D1*
X51915Y8256D2*
X51614D1*
X51815Y8112D1*
Y8327D1*
X50935Y15020D2*
X50907Y15006D1*
X50878Y14977D1*
X50864Y14948D1*
Y14891D1*
X50878Y14862D1*
X50907Y14834D1*
X50935Y14819D1*
X50979Y14805D1*
X51051D1*
X51093Y14819D1*
X51122Y14834D1*
X51151Y14862D1*
X51165Y14891D1*
Y14948D1*
X51151Y14977D1*
X51122Y15006D1*
X51093Y15020D1*
X50936Y15127D2*
X50922D1*
X50893Y15142D1*
X50878Y15156D1*
X50864Y15185D1*
Y15242D1*
X50878Y15271D1*
X50893Y15285D1*
X50922Y15299D1*
X50950D1*
X50979Y15285D1*
X51022Y15256D1*
X51165Y15113D1*
Y15314D1*
X50864Y15493D2*
X50878Y15449D1*
X50922Y15421D1*
X50993Y15406D1*
X51036D1*
X51108Y15421D1*
X51151Y15449D1*
X51165Y15493D1*
Y15521D1*
X51151Y15564D1*
X51108Y15593D1*
X51036Y15607D1*
X50993D1*
X50922Y15593D1*
X50878Y15564D1*
X50864Y15521D1*
Y15493D1*
X50922Y15593D2*
X51108Y15421D1*
X50864Y15872D2*
Y15729D1*
X50993Y15714D1*
X50979Y15729D1*
X50964Y15772D1*
Y15815D1*
X50979Y15858D1*
X51007Y15887D1*
X51051Y15901D1*
X51079D1*
X51122Y15887D1*
X51151Y15858D1*
X51165Y15815D1*
Y15772D1*
X51151Y15729D1*
X51136Y15714D1*
X51108Y15700D1*
X48712Y8657D2*
X48683Y8643D1*
X48655Y8614D1*
X48640Y8586D1*
Y8528D1*
X48655Y8499D1*
X48683Y8471D1*
X48712Y8456D1*
X48755Y8442D1*
X48827D1*
X48870Y8456D1*
X48899Y8471D1*
X48927Y8499D1*
X48942Y8528D1*
Y8586D1*
X48927Y8614D1*
X48899Y8643D1*
X48870Y8657D1*
X48712Y8764D2*
X48698D1*
X48669Y8779D1*
X48655Y8793D1*
X48641Y8822D1*
Y8879D1*
X48655Y8908D1*
X48669Y8922D1*
X48698Y8937D1*
X48727D1*
X48755Y8922D1*
X48798Y8893D1*
X48942Y8750D1*
Y8951D1*
X48641Y9130D2*
X48655Y9087D1*
X48698Y9058D1*
X48770Y9043D1*
X48813D1*
X48884Y9058D1*
X48928Y9087D1*
X48942Y9130D1*
Y9158D1*
X48928Y9201D1*
X48884Y9230D1*
X48813Y9244D1*
X48770D1*
X48698Y9230D1*
X48655Y9201D1*
X48641Y9158D1*
Y9130D1*
X48698Y9230D2*
X48884Y9058D1*
X48683Y9509D2*
X48655Y9495D1*
X48641Y9452D1*
Y9423D1*
X48655Y9380D1*
X48698Y9351D1*
X48770Y9337D1*
X48841D1*
X48899Y9351D1*
X48928Y9380D1*
X48942Y9423D1*
Y9437D1*
X48928Y9480D1*
X48899Y9509D1*
X48856Y9523D1*
X48841D1*
X48798Y9509D1*
X48770Y9480D1*
X48755Y9437D1*
Y9423D1*
X48770Y9380D1*
X48798Y9351D1*
X48841Y9337D1*
X50462Y4150D2*
X50433Y4136D1*
X50405Y4107D1*
X50390Y4078D1*
Y4021D1*
X50405Y3992D1*
X50433Y3964D1*
X50462Y3949D1*
X50505Y3935D1*
X50577D1*
X50620Y3949D1*
X50649Y3964D1*
X50677Y3992D1*
X50692Y4021D1*
Y4078D1*
X50677Y4107D1*
X50649Y4136D1*
X50620Y4150D1*
X50462Y4257D2*
X50448D1*
X50419Y4271D1*
X50405Y4286D1*
X50391Y4314D1*
Y4372D1*
X50405Y4400D1*
X50419Y4415D1*
X50448Y4429D1*
X50477D1*
X50505Y4415D1*
X50548Y4386D1*
X50692Y4243D1*
Y4443D1*
X50391Y4622D2*
X50405Y4579D1*
X50448Y4550D1*
X50520Y4536D1*
X50563D1*
X50634Y4550D1*
X50678Y4579D1*
X50692Y4622D1*
Y4651D1*
X50678Y4694D1*
X50634Y4722D1*
X50563Y4737D1*
X50520D1*
X50448Y4722D1*
X50405Y4694D1*
X50391Y4651D1*
Y4622D1*
X50448Y4722D2*
X50634Y4550D1*
X50692Y4887D2*
X50391Y5031D1*
Y4830D1*
X52149Y11935D2*
X52121Y11920D1*
X52092Y11892D1*
X52078Y11863D1*
Y11806D1*
X52092Y11777D1*
X52121Y11748D1*
X52149Y11734D1*
X52193Y11719D1*
X52265D1*
X52307Y11734D1*
X52336Y11748D1*
X52365Y11777D1*
X52379Y11806D1*
Y11863D1*
X52365Y11892D1*
X52336Y11920D1*
X52307Y11935D1*
X52150Y12042D2*
X52136D1*
X52107Y12056D1*
X52092Y12070D1*
X52078Y12099D1*
Y12157D1*
X52092Y12185D1*
X52107Y12199D1*
X52136Y12214D1*
X52164D1*
X52193Y12199D1*
X52236Y12171D1*
X52379Y12027D1*
Y12228D1*
X52078Y12407D2*
X52092Y12364D1*
X52136Y12335D1*
X52207Y12321D1*
X52250D1*
X52322Y12335D1*
X52365Y12364D1*
X52379Y12407D1*
Y12436D1*
X52365Y12479D1*
X52322Y12507D1*
X52250Y12522D1*
X52207D1*
X52136Y12507D1*
X52092Y12479D1*
X52078Y12436D1*
Y12407D1*
X52136Y12507D2*
X52322Y12335D1*
X52078Y12686D2*
X52092Y12643D1*
X52121Y12629D1*
X52150D1*
X52178Y12643D1*
X52193Y12672D1*
X52207Y12729D1*
X52221Y12772D1*
X52250Y12801D1*
X52279Y12815D1*
X52322D1*
X52350Y12801D1*
X52365Y12787D1*
X52379Y12744D1*
Y12686D1*
X52365Y12643D1*
X52350Y12629D1*
X52322Y12615D1*
X52279D1*
X52250Y12629D1*
X52221Y12658D1*
X52207Y12700D1*
X52193Y12758D1*
X52178Y12787D1*
X52150Y12801D1*
X52121D1*
X52092Y12787D1*
X52078Y12744D1*
Y12686D1*
X52149Y10504D2*
X52121Y10490D1*
X52092Y10461D1*
X52078Y10433D1*
Y10375D1*
X52092Y10346D1*
X52121Y10318D1*
X52149Y10303D1*
X52193Y10289D1*
X52265D1*
X52307Y10303D1*
X52336Y10318D1*
X52365Y10346D1*
X52379Y10375D1*
Y10433D1*
X52365Y10461D1*
X52336Y10490D1*
X52307Y10504D1*
X52150Y10611D2*
X52136D1*
X52107Y10626D1*
X52092Y10640D1*
X52078Y10669D1*
Y10726D1*
X52092Y10755D1*
X52107Y10769D1*
X52136Y10783D1*
X52164D1*
X52193Y10769D1*
X52236Y10740D1*
X52379Y10597D1*
Y10798D1*
X52078Y10977D2*
X52092Y10934D1*
X52136Y10905D1*
X52207Y10890D1*
X52250D1*
X52322Y10905D1*
X52365Y10934D1*
X52379Y10977D1*
Y11005D1*
X52365Y11048D1*
X52322Y11077D1*
X52250Y11091D1*
X52207D1*
X52136Y11077D1*
X52092Y11048D1*
X52078Y11005D1*
Y10977D1*
X52136Y11077D2*
X52322Y10905D1*
X52178Y11371D2*
X52221Y11356D1*
X52250Y11328D1*
X52265Y11284D1*
Y11270D1*
X52250Y11227D1*
X52221Y11199D1*
X52178Y11184D1*
X52164D1*
X52121Y11199D1*
X52092Y11227D1*
X52078Y11270D1*
Y11284D1*
X52092Y11328D1*
X52121Y11356D1*
X52178Y11371D1*
X52250D1*
X52322Y11356D1*
X52365Y11328D1*
X52379Y11284D1*
Y11256D1*
X52365Y11213D1*
X52336Y11199D1*
X46900Y12589D2*
X46871Y12575D1*
X46842Y12546D1*
X46828Y12518D1*
Y12460D1*
X46842Y12432D1*
X46871Y12403D1*
X46900Y12388D1*
X46943Y12374D1*
X47015D1*
X47057Y12388D1*
X47086Y12403D1*
X47115Y12432D1*
X47129Y12460D1*
Y12518D1*
X47115Y12546D1*
X47086Y12575D1*
X47057Y12589D1*
X46900Y12697D2*
X46886D1*
X46857Y12711D1*
X46842Y12725D1*
X46828Y12754D1*
Y12811D1*
X46842Y12840D1*
X46857Y12854D1*
X46886Y12869D1*
X46914D1*
X46943Y12854D1*
X46986Y12826D1*
X47129Y12682D1*
Y12883D1*
X46886Y12976D2*
X46871Y13004D1*
X46828Y13048D1*
X47129D1*
X46828Y13226D2*
X46842Y13183D1*
X46886Y13154D1*
X46957Y13140D1*
X47000D1*
X47072Y13154D1*
X47115Y13183D1*
X47129Y13226D1*
Y13255D1*
X47115Y13298D1*
X47072Y13327D1*
X47000Y13341D1*
X46957D1*
X46886Y13327D1*
X46842Y13298D1*
X46828Y13255D1*
Y13226D1*
X46886Y13327D2*
X47072Y13154D1*
X29650Y17152D2*
X29621Y17138D1*
X29592Y17109D1*
X29578Y17080D1*
Y17023D1*
X29592Y16994D1*
X29621Y16966D1*
X29650Y16951D1*
X29693Y16937D1*
X29765D1*
X29807Y16951D1*
X29836Y16966D1*
X29865Y16994D1*
X29879Y17023D1*
Y17080D1*
X29865Y17109D1*
X29836Y17138D1*
X29807Y17152D1*
X29578Y17273D2*
Y17431D1*
X29693Y17345D1*
Y17388D1*
X29707Y17417D1*
X29721Y17431D1*
X29765Y17445D1*
X29793D1*
X29836Y17431D1*
X29865Y17402D1*
X29879Y17359D1*
Y17316D1*
X29865Y17273D1*
X29850Y17259D1*
X29822Y17245D1*
X29578Y17624D2*
X29592Y17581D1*
X29636Y17552D1*
X29707Y17538D1*
X29750D1*
X29822Y17552D1*
X29865Y17581D1*
X29879Y17624D1*
Y17653D1*
X29865Y17696D1*
X29822Y17724D1*
X29750Y17739D1*
X29707D1*
X29636Y17724D1*
X29592Y17696D1*
X29578Y17653D1*
Y17624D1*
X29636Y17724D2*
X29822Y17552D1*
X29636Y17832D2*
X29621Y17861D1*
X29578Y17904D1*
X29879D1*
X31198Y8856D2*
X31184Y8885D1*
X31155Y8914D1*
X31127Y8928D1*
X31069D1*
X31040Y8914D1*
X31012Y8885D1*
X30997Y8856D1*
X30983Y8813D1*
Y8741D1*
X30997Y8699D1*
X31012Y8670D1*
X31040Y8641D1*
X31069Y8627D1*
X31127D1*
X31155Y8641D1*
X31184Y8670D1*
X31198Y8699D1*
X31320Y8928D2*
X31477D1*
X31391Y8813D1*
X31434D1*
X31463Y8799D1*
X31477Y8784D1*
X31492Y8741D1*
Y8713D1*
X31477Y8670D1*
X31449Y8641D1*
X31406Y8627D1*
X31362D1*
X31320Y8641D1*
X31305Y8655D1*
X31291Y8684D1*
X31671Y8928D2*
X31628Y8913D1*
X31599Y8870D1*
X31584Y8799D1*
Y8756D1*
X31599Y8684D1*
X31628Y8641D1*
X31671Y8627D1*
X31699D1*
X31742Y8641D1*
X31771Y8684D1*
X31785Y8756D1*
Y8799D1*
X31771Y8870D1*
X31742Y8913D1*
X31699Y8928D1*
X31671D1*
X31771Y8870D2*
X31599Y8684D1*
X31893Y8856D2*
Y8870D1*
X31907Y8899D1*
X31921Y8913D1*
X31950Y8928D1*
X32007D1*
X32036Y8913D1*
X32050Y8899D1*
X32065Y8870D1*
Y8842D1*
X32050Y8813D1*
X32022Y8770D1*
X31878Y8627D1*
X32079D1*
X29636Y8856D2*
X29621Y8885D1*
X29593Y8914D1*
X29564Y8928D1*
X29507D1*
X29478Y8914D1*
X29449Y8885D1*
X29435Y8856D1*
X29421Y8813D1*
Y8741D1*
X29435Y8699D1*
X29449Y8670D1*
X29478Y8641D1*
X29507Y8627D1*
X29564D1*
X29593Y8641D1*
X29621Y8670D1*
X29636Y8699D1*
X29757Y8928D2*
X29915D1*
X29829Y8813D1*
X29872D1*
X29900Y8799D1*
X29915Y8784D1*
X29929Y8741D1*
Y8713D1*
X29915Y8670D1*
X29886Y8641D1*
X29843Y8627D1*
X29800D1*
X29757Y8641D1*
X29743Y8655D1*
X29728Y8684D1*
X30108Y8928D2*
X30065Y8913D1*
X30036Y8870D1*
X30022Y8799D1*
Y8756D1*
X30036Y8684D1*
X30065Y8641D1*
X30108Y8627D1*
X30137D1*
X30180Y8641D1*
X30208Y8684D1*
X30223Y8756D1*
Y8799D1*
X30208Y8870D1*
X30180Y8913D1*
X30137Y8928D1*
X30108D1*
X30208Y8870D2*
X30036Y8684D1*
X30344Y8928D2*
X30502D1*
X30416Y8813D1*
X30459D1*
X30488Y8799D1*
X30502Y8784D1*
X30517Y8741D1*
Y8713D1*
X30502Y8670D1*
X30473Y8641D1*
X30430Y8627D1*
X30387D1*
X30344Y8641D1*
X30330Y8655D1*
X30316Y8684D1*
X2763Y13442D2*
X2748Y13470D1*
X2720Y13499D1*
X2691Y13513D1*
X2634D1*
X2605Y13499D1*
X2576Y13470D1*
X2562Y13442D1*
X2547Y13398D1*
Y13326D1*
X2562Y13284D1*
X2576Y13255D1*
X2605Y13226D1*
X2634Y13212D1*
X2691D1*
X2720Y13226D1*
X2748Y13255D1*
X2763Y13284D1*
X3027Y13513D2*
X2884D1*
X2870Y13384D1*
X2884Y13398D1*
X2927Y13413D1*
X2970D1*
X3013Y13398D1*
X3042Y13370D1*
X3056Y13326D1*
Y13298D1*
X3042Y13255D1*
X3013Y13226D1*
X2970Y13212D1*
X2927D1*
X2884Y13226D1*
X2870Y13241D1*
X2855Y13269D1*
X3235Y13513D2*
X3192Y13499D1*
X3163Y13455D1*
X3149Y13384D1*
Y13341D1*
X3163Y13269D1*
X3192Y13226D1*
X3235Y13212D1*
X3264D1*
X3307Y13226D1*
X3335Y13269D1*
X3350Y13341D1*
Y13384D1*
X3335Y13455D1*
X3307Y13499D1*
X3264Y13513D1*
X3235D1*
X3335Y13455D2*
X3163Y13269D1*
X3443Y13455D2*
X3471Y13470D1*
X3515Y13513D1*
Y13212D1*
X34464Y6163D2*
X34450Y6191D1*
X34421Y6220D1*
X34393Y6235D1*
X34335D1*
X34307Y6220D1*
X34278Y6191D1*
X34263Y6163D1*
X34249Y6120D1*
Y6048D1*
X34263Y6005D1*
X34278Y5976D1*
X34307Y5948D1*
X34335Y5933D1*
X34393D1*
X34421Y5948D1*
X34450Y5976D1*
X34464Y6005D1*
X34729Y6234D2*
X34586D1*
X34572Y6105D1*
X34586Y6119D1*
X34629Y6134D1*
X34672D1*
X34715Y6119D1*
X34744Y6091D1*
X34758Y6048D1*
Y6019D1*
X34744Y5976D1*
X34715Y5947D1*
X34672Y5933D1*
X34629D1*
X34586Y5947D1*
X34572Y5962D1*
X34557Y5990D1*
X34937Y6234D2*
X34894Y6220D1*
X34865Y6177D1*
X34851Y6105D1*
Y6062D1*
X34865Y5990D1*
X34894Y5947D1*
X34937Y5933D1*
X34965D1*
X35008Y5947D1*
X35037Y5990D1*
X35052Y6062D1*
Y6105D1*
X35037Y6177D1*
X35008Y6220D1*
X34965Y6234D1*
X34937D1*
X35037Y6177D2*
X34865Y5990D1*
X35159Y6163D2*
Y6177D1*
X35173Y6206D1*
X35187Y6220D1*
X35216Y6234D1*
X35274D1*
X35302Y6220D1*
X35316Y6206D1*
X35331Y6177D1*
Y6148D1*
X35316Y6119D1*
X35288Y6077D1*
X35144Y5933D1*
X35345D1*
X14748Y9576D2*
Y9275D1*
X14848D1*
X14891Y9289D1*
X14920Y9318D1*
X14934Y9347D1*
X14948Y9389D1*
Y9461D1*
X14934Y9505D1*
X14920Y9533D1*
X14891Y9562D1*
X14848Y9576D1*
X14748D1*
X15041Y9518D2*
X15070Y9533D1*
X15113Y9576D1*
Y9275D1*
X15292Y9576D2*
X15249Y9562D1*
X15220Y9518D1*
X15206Y9447D1*
Y9404D1*
X15220Y9332D1*
X15249Y9289D1*
X15292Y9275D1*
X15320D1*
X15364Y9289D1*
X15392Y9332D1*
X15407Y9404D1*
Y9447D1*
X15392Y9518D1*
X15364Y9562D1*
X15320Y9576D1*
X15292D1*
X15392Y9518D2*
X15220Y9332D1*
X15499Y9518D2*
X15528Y9533D1*
X15571Y9576D1*
Y9275D1*
X12762Y12661D2*
Y12360D1*
X12862D1*
X12905Y12374D1*
X12934Y12403D1*
X12949Y12432D1*
X12963Y12475D1*
Y12546D1*
X12949Y12590D1*
X12934Y12618D1*
X12905Y12647D1*
X12862Y12661D1*
X12762D1*
X13055Y12604D2*
X13084Y12618D1*
X13127Y12661D1*
Y12360D1*
X13306Y12661D2*
X13263Y12647D1*
X13234Y12604D1*
X13220Y12532D1*
Y12489D1*
X13234Y12417D1*
X13263Y12374D1*
X13306Y12360D1*
X13335D1*
X13378Y12374D1*
X13406Y12417D1*
X13421Y12489D1*
Y12532D1*
X13406Y12604D1*
X13378Y12647D1*
X13335Y12661D1*
X13306D1*
X13406Y12604D2*
X13234Y12417D1*
X13528Y12589D2*
Y12604D1*
X13542Y12632D1*
X13557Y12647D1*
X13586Y12661D1*
X13643D1*
X13671Y12647D1*
X13686Y12632D1*
X13700Y12604D1*
Y12575D1*
X13686Y12546D1*
X13657Y12503D1*
X13514Y12360D1*
X13715D1*
X13317Y16585D2*
Y16284D1*
X13417D1*
X13460Y16298D1*
X13489Y16327D1*
X13504Y16356D1*
X13518Y16398D1*
Y16470D1*
X13504Y16513D1*
X13489Y16542D1*
X13460Y16571D1*
X13417Y16585D1*
X13317D1*
X13610Y16527D2*
X13639Y16542D1*
X13682Y16585D1*
Y16284D1*
X13861Y16585D2*
X13818Y16570D1*
X13789Y16527D1*
X13775Y16456D1*
Y16413D1*
X13789Y16341D1*
X13818Y16298D1*
X13861Y16284D1*
X13890D1*
X13933Y16298D1*
X13961Y16341D1*
X13976Y16413D1*
Y16456D1*
X13961Y16527D1*
X13933Y16570D1*
X13890Y16585D1*
X13861D1*
X13961Y16527D2*
X13789Y16341D1*
X14098Y16585D2*
X14255D1*
X14169Y16470D1*
X14212D1*
X14241Y16456D1*
X14255Y16441D1*
X14270Y16398D1*
Y16370D1*
X14255Y16327D1*
X14227Y16298D1*
X14183Y16284D1*
X14140D1*
X14098Y16298D1*
X14083Y16312D1*
X14069Y16341D1*
X7093Y8303D2*
X7394D1*
Y8403D1*
X7379Y8446D1*
X7351Y8475D1*
X7322Y8490D1*
X7279Y8504D1*
X7207D1*
X7164Y8490D1*
X7136Y8475D1*
X7107Y8446D1*
X7093Y8403D1*
Y8303D1*
X7150Y8596D2*
X7136Y8625D1*
X7093Y8668D1*
X7394D1*
X7093Y8847D2*
X7107Y8804D1*
X7150Y8775D1*
X7222Y8761D1*
X7265D1*
X7337Y8775D1*
X7380Y8804D1*
X7394Y8847D1*
Y8876D1*
X7380Y8919D1*
X7337Y8947D1*
X7265Y8962D1*
X7222D1*
X7150Y8947D1*
X7107Y8919D1*
X7093Y8876D1*
Y8847D1*
X7150Y8947D2*
X7337Y8775D1*
X7394Y9198D2*
X7093D1*
X7294Y9055D1*
Y9270D1*
X10558Y8328D2*
X10860D1*
Y8428D1*
X10845Y8471D1*
X10817Y8500D1*
X10788Y8514D1*
X10745Y8529D1*
X10673D1*
X10630Y8514D1*
X10601Y8500D1*
X10572Y8471D1*
X10558Y8428D1*
Y8328D1*
X10616Y8621D2*
X10601Y8650D1*
X10559Y8693D1*
X10860D1*
X10559Y8872D2*
X10573Y8829D1*
X10616Y8800D1*
X10688Y8786D1*
X10731D1*
X10802Y8800D1*
X10845Y8829D1*
X10860Y8872D1*
Y8901D1*
X10845Y8944D1*
X10802Y8972D1*
X10731Y8987D1*
X10688D1*
X10616Y8972D1*
X10573Y8944D1*
X10559Y8901D1*
Y8872D1*
X10616Y8972D2*
X10802Y8800D1*
X10559Y9252D2*
Y9108D1*
X10688Y9094D1*
X10673Y9108D1*
X10659Y9151D1*
Y9194D1*
X10673Y9237D1*
X10702Y9266D1*
X10745Y9280D1*
X10773D1*
X10817Y9266D1*
X10845Y9237D1*
X10860Y9194D1*
Y9151D1*
X10845Y9108D1*
X10831Y9094D1*
X10802Y9079D1*
X17986Y10190D2*
X18288D1*
Y10291D1*
X18273Y10334D1*
X18245Y10363D1*
X18216Y10377D1*
X18173Y10391D1*
X18101D1*
X18058Y10377D1*
X18029Y10363D1*
X18001Y10334D1*
X17986Y10291D1*
Y10190D1*
X18044Y10484D2*
X18029Y10513D1*
X17987Y10556D1*
X18288D1*
X17987Y10735D2*
X18001Y10692D1*
X18044Y10663D1*
X18116Y10648D1*
X18159D1*
X18230Y10663D1*
X18274Y10692D1*
X18288Y10735D1*
Y10763D1*
X18274Y10806D1*
X18230Y10835D1*
X18159Y10849D1*
X18116D1*
X18044Y10835D1*
X18001Y10806D1*
X17987Y10763D1*
Y10735D1*
X18044Y10835D2*
X18230Y10663D1*
X18029Y11114D2*
X18001Y11100D1*
X17987Y11057D1*
Y11028D1*
X18001Y10985D1*
X18044Y10956D1*
X18116Y10942D1*
X18187D1*
X18245Y10956D1*
X18274Y10985D1*
X18288Y11028D1*
Y11043D1*
X18274Y11085D1*
X18245Y11114D1*
X18202Y11128D1*
X18187D1*
X18144Y11114D1*
X18116Y11085D1*
X18101Y11043D1*
Y11028D1*
X18116Y10985D1*
X18144Y10956D1*
X18187Y10942D1*
X16574Y14536D2*
Y14235D1*
X16675D1*
X16718Y14249D1*
X16747Y14278D1*
X16761Y14307D1*
X16775Y14350D1*
Y14422D1*
X16761Y14465D1*
X16747Y14493D1*
X16718Y14522D1*
X16675Y14536D1*
X16574D1*
X16868Y14479D2*
X16897Y14493D1*
X16940Y14536D1*
Y14235D1*
X17119Y14536D2*
X17076Y14522D1*
X17047Y14479D1*
X17033Y14407D1*
Y14364D1*
X17047Y14292D1*
X17076Y14249D1*
X17119Y14235D1*
X17147D1*
X17190Y14249D1*
X17219Y14292D1*
X17233Y14364D1*
Y14407D1*
X17219Y14479D1*
X17190Y14522D1*
X17147Y14536D1*
X17119D1*
X17219Y14479D2*
X17047Y14292D1*
X17383Y14235D2*
X17527Y14536D1*
X17326D1*
X27712Y8004D2*
Y7703D1*
X27813D1*
X27856Y7717D1*
X27885Y7746D1*
X27899Y7775D1*
X27913Y7818D1*
Y7890D1*
X27899Y7933D1*
X27885Y7961D1*
X27856Y7990D1*
X27813Y8004D1*
X27712D1*
X28150Y7703D2*
Y8004D1*
X28006Y7803D1*
X28221D1*
X28400Y8004D2*
X28357Y7990D1*
X28328Y7947D1*
X28314Y7875D1*
Y7832D1*
X28328Y7760D1*
X28357Y7717D1*
X28400Y7703D1*
X28429D1*
X28472Y7717D1*
X28500Y7760D1*
X28515Y7832D1*
Y7875D1*
X28500Y7947D1*
X28472Y7990D1*
X28429Y8004D1*
X28400D1*
X28500Y7947D2*
X28328Y7760D1*
X28607Y7947D2*
X28636Y7961D1*
X28679Y8004D1*
Y7703D1*
X799Y11614D2*
X1100D1*
Y11715D1*
X1086Y11758D1*
X1057Y11787D1*
X1028Y11801D1*
X986Y11815D1*
X914D1*
X870Y11801D1*
X842Y11787D1*
X813Y11758D1*
X799Y11715D1*
Y11614D1*
Y12080D2*
Y11937D1*
X928Y11922D1*
X914Y11937D1*
X899Y11980D1*
Y12023D1*
X914Y12066D1*
X942Y12095D1*
X986Y12109D1*
X1014D1*
X1057Y12095D1*
X1086Y12066D1*
X1100Y12023D1*
Y11980D1*
X1086Y11937D1*
X1071Y11922D1*
X1043Y11908D1*
X799Y12288D2*
X813Y12245D1*
X857Y12216D1*
X928Y12201D1*
X971D1*
X1043Y12216D1*
X1086Y12245D1*
X1100Y12288D1*
Y12316D1*
X1086Y12359D1*
X1043Y12388D1*
X971Y12402D1*
X928D1*
X857Y12388D1*
X813Y12359D1*
X799Y12316D1*
Y12288D1*
X857Y12388D2*
X1043Y12216D1*
X857Y12495D2*
X842Y12524D1*
X799Y12567D1*
X1100D1*
X5111Y11362D2*
X5413D1*
Y11463D1*
X5398Y11506D1*
X5370Y11535D1*
X5341Y11549D1*
X5298Y11563D1*
X5226D1*
X5183Y11549D1*
X5154Y11535D1*
X5126Y11506D1*
X5111Y11463D1*
Y11362D1*
X5112Y11828D2*
Y11685D1*
X5241Y11670D1*
X5226Y11685D1*
X5212Y11728D1*
Y11771D1*
X5226Y11814D1*
X5255Y11843D1*
X5298Y11857D1*
X5327D1*
X5370Y11843D1*
X5399Y11814D1*
X5413Y11771D1*
Y11728D1*
X5399Y11685D1*
X5384Y11670D1*
X5355Y11656D1*
X5112Y12036D2*
X5126Y11993D1*
X5169Y11964D1*
X5241Y11949D1*
X5284D1*
X5355Y11964D1*
X5399Y11993D1*
X5413Y12036D1*
Y12064D1*
X5399Y12107D1*
X5355Y12136D1*
X5284Y12150D1*
X5241D1*
X5169Y12136D1*
X5126Y12107D1*
X5112Y12064D1*
Y12036D1*
X5169Y12136D2*
X5355Y11964D1*
X5183Y12258D2*
X5169D1*
X5140Y12272D1*
X5126Y12286D1*
X5112Y12315D1*
Y12372D1*
X5126Y12401D1*
X5140Y12415D1*
X5169Y12430D1*
X5198D1*
X5226Y12415D1*
X5269Y12387D1*
X5413Y12243D1*
Y12444D1*
X22676Y4345D2*
Y4158D1*
X22978D1*
X22820D2*
Y4273D1*
X22676Y4438D2*
X22978D1*
Y4567D1*
X22963Y4610D1*
X22949Y4624D1*
X22920Y4639D1*
X22877D1*
X22848Y4624D1*
X22834Y4610D1*
X22820Y4567D1*
X22805Y4610D1*
X22791Y4624D1*
X22762Y4639D1*
X22734D1*
X22705Y4624D1*
X22691Y4610D1*
X22676Y4567D1*
Y4438D1*
X22820D2*
Y4567D1*
X22734Y4731D2*
X22719Y4760D1*
X22677Y4803D1*
X22978D1*
X22677Y4982D2*
X22691Y4939D1*
X22734Y4910D1*
X22806Y4896D1*
X22849D1*
X22920Y4910D1*
X22963Y4939D1*
X22978Y4982D1*
Y5011D1*
X22963Y5054D1*
X22920Y5082D1*
X22849Y5097D1*
X22806D1*
X22734Y5082D1*
X22691Y5054D1*
X22677Y5011D1*
Y4982D1*
X22734Y5082D2*
X22920Y4910D1*
X22734Y5189D2*
X22719Y5218D1*
X22677Y5261D1*
X22978D1*
X53361Y4386D2*
X53174D1*
Y4085D1*
Y4243D2*
X53289D1*
X53454Y4386D2*
Y4085D1*
X53583D1*
X53626Y4099D1*
X53640Y4114D1*
X53655Y4142D1*
Y4185D1*
X53640Y4214D1*
X53626Y4228D1*
X53583Y4243D1*
X53626Y4257D1*
X53640Y4271D1*
X53655Y4300D1*
Y4329D1*
X53640Y4357D1*
X53626Y4372D1*
X53583Y4386D1*
X53454D1*
Y4243D2*
X53583D1*
X53762Y4314D2*
Y4329D1*
X53776Y4357D1*
X53790Y4372D1*
X53819Y4386D1*
X53877D1*
X53905Y4372D1*
X53919Y4357D1*
X53934Y4329D1*
Y4300D1*
X53919Y4271D1*
X53891Y4228D1*
X53747Y4085D1*
X53948D1*
X54127Y4386D2*
X54084Y4372D1*
X54055Y4329D1*
X54041Y4257D1*
Y4214D1*
X54055Y4142D1*
X54084Y4099D1*
X54127Y4085D1*
X54156D1*
X54199Y4099D1*
X54227Y4142D1*
X54242Y4214D1*
Y4257D1*
X54227Y4329D1*
X54199Y4372D1*
X54156Y4386D1*
X54127D1*
X54227Y4329D2*
X54055Y4142D1*
X54334Y4329D2*
X54363Y4343D1*
X54406Y4386D1*
Y4085D1*
X25218Y10199D2*
X25031D1*
Y9897D1*
Y10055D2*
X25146D1*
X25310Y10199D2*
Y9897D1*
X25440D1*
X25483Y9912D1*
X25497Y9926D1*
X25511Y9955D1*
Y9998D1*
X25497Y10027D1*
X25483Y10041D1*
X25440Y10055D1*
X25483Y10070D1*
X25497Y10084D1*
X25511Y10112D1*
Y10141D1*
X25497Y10170D1*
X25483Y10184D1*
X25440Y10199D1*
X25310D1*
Y10055D2*
X25440D1*
X25633Y10198D2*
X25790D1*
X25705Y10084D1*
X25748D1*
X25776Y10069D1*
X25790Y10055D1*
X25805Y10012D1*
Y9983D1*
X25790Y9940D1*
X25762Y9912D1*
X25719Y9897D1*
X25676D1*
X25633Y9912D1*
X25619Y9926D1*
X25604Y9955D1*
X25984Y10198D2*
X25941Y10184D1*
X25912Y10141D1*
X25898Y10069D1*
Y10026D1*
X25912Y9955D1*
X25941Y9912D1*
X25984Y9897D1*
X26012D1*
X26055Y9912D1*
X26084Y9955D1*
X26099Y10026D1*
Y10069D1*
X26084Y10141D1*
X26055Y10184D1*
X26012Y10198D1*
X25984D1*
X26084Y10141D2*
X25912Y9955D1*
X26191Y10141D2*
X26220Y10156D1*
X26263Y10198D1*
Y9897D1*
X35364Y20939D2*
X35178D1*
Y20638D1*
Y20796D2*
X35292D1*
X35457Y20939D2*
Y20638D1*
X35557D1*
X35600Y20652D1*
X35629Y20681D1*
X35644Y20710D1*
X35658Y20753D1*
Y20825D1*
X35644Y20868D1*
X35629Y20896D1*
X35600Y20925D1*
X35557Y20939D1*
X35457D1*
X35750Y20882D2*
X35779Y20896D1*
X35822Y20939D1*
Y20638D1*
X8300Y1939D2*
X8113D1*
Y1638D1*
Y1796D2*
X8228D1*
X8392Y1939D2*
Y1638D1*
X8493D1*
X8536Y1652D1*
X8565Y1681D1*
X8579Y1710D1*
X8593Y1753D1*
Y1825D1*
X8579Y1868D1*
X8565Y1896D1*
X8536Y1925D1*
X8493Y1939D1*
X8392D1*
X8701Y1867D2*
Y1882D1*
X8715Y1910D1*
X8729Y1925D1*
X8758Y1939D1*
X8815D1*
X8844Y1925D1*
X8858Y1910D1*
X8873Y1882D1*
Y1853D1*
X8858Y1824D1*
X8830Y1781D1*
X8686Y1638D1*
X8887D1*
X52300Y2689D2*
X52113D1*
Y2388D1*
Y2546D2*
X52228D1*
X52392Y2689D2*
Y2388D1*
X52493D1*
X52536Y2402D1*
X52565Y2431D1*
X52579Y2460D1*
X52593Y2503D1*
Y2575D1*
X52579Y2618D1*
X52565Y2646D1*
X52536Y2675D1*
X52493Y2689D1*
X52392D1*
X52715D2*
X52872D1*
X52786Y2574D1*
X52830D1*
X52858Y2560D1*
X52872Y2546D1*
X52887Y2503D1*
Y2474D1*
X52872Y2431D1*
X52844Y2402D1*
X52801Y2388D1*
X52758D1*
X52715Y2402D1*
X52701Y2417D1*
X52686Y2445D1*
X41432Y14939D2*
Y14710D1*
X41418Y14667D1*
X41403Y14652D1*
X41375Y14638D1*
X41346D1*
X41318Y14652D1*
X41303Y14667D1*
X41289Y14710D1*
Y14738D1*
X41697Y14896D2*
X41683Y14925D1*
X41640Y14939D1*
X41611D1*
X41568Y14925D1*
X41539Y14882D1*
X41525Y14810D1*
Y14738D1*
X41539Y14681D1*
X41568Y14652D1*
X41611Y14638D1*
X41625D1*
X41668Y14652D1*
X41697Y14681D1*
X41711Y14724D1*
Y14738D1*
X41697Y14781D1*
X41668Y14810D1*
X41625Y14824D1*
X41611D1*
X41568Y14810D1*
X41539Y14781D1*
X41525Y14738D1*
X41432Y7939D2*
Y7710D1*
X41418Y7667D1*
X41403Y7652D1*
X41375Y7638D1*
X41346D1*
X41317Y7652D1*
X41303Y7667D1*
X41289Y7710D1*
Y7738D1*
X41711Y7839D2*
X41697Y7796D1*
X41668Y7767D1*
X41625Y7753D1*
X41611D1*
X41568Y7767D1*
X41539Y7796D1*
X41525Y7839D1*
Y7853D1*
X41539Y7896D1*
X41568Y7925D1*
X41611Y7939D1*
X41625D1*
X41668Y7925D1*
X41697Y7896D1*
X41711Y7839D1*
Y7767D1*
X41697Y7695D1*
X41668Y7652D1*
X41625Y7638D1*
X41597D1*
X41554Y7652D1*
X41539Y7681D1*
X44093Y7333D2*
Y7104D1*
X44078Y7060D1*
X44064Y7046D1*
X44035Y7032D1*
X44006D1*
X43978Y7046D1*
X43964Y7060D1*
X43949Y7104D1*
Y7132D1*
X44185Y7275D2*
X44214Y7290D1*
X44257Y7333D1*
Y7032D1*
X44436Y7333D2*
X44393Y7318D1*
X44364Y7275D1*
X44350Y7204D1*
Y7161D1*
X44364Y7089D1*
X44393Y7046D1*
X44436Y7032D1*
X44465D1*
X44508Y7046D1*
X44536Y7089D1*
X44551Y7161D1*
Y7204D1*
X44536Y7275D1*
X44508Y7318D1*
X44465Y7333D1*
X44436D1*
X44536Y7275D2*
X44364Y7089D1*
X40595Y21083D2*
Y20854D1*
X40580Y20810D1*
X40566Y20796D1*
X40537Y20782D1*
X40508D1*
X40480Y20796D1*
X40466Y20810D1*
X40451Y20854D1*
Y20882D1*
X40687Y21025D2*
X40716Y21040D1*
X40759Y21083D1*
Y20782D1*
X40852Y21025D2*
X40881Y21040D1*
X40924Y21083D1*
Y20782D1*
X41530Y21083D2*
Y20854D1*
X41516Y20810D1*
X41501Y20796D1*
X41473Y20782D1*
X41444D1*
X41415Y20796D1*
X41401Y20810D1*
X41387Y20854D1*
Y20882D1*
X41623Y21025D2*
X41652Y21040D1*
X41695Y21083D1*
Y20782D1*
X41802Y21011D2*
Y21025D1*
X41816Y21054D1*
X41831Y21068D1*
X41859Y21083D1*
X41917D1*
X41945Y21068D1*
X41960Y21054D1*
X41974Y21025D1*
Y20997D1*
X41960Y20968D1*
X41931Y20925D1*
X41787Y20782D1*
X41988D1*
X42530Y21083D2*
Y20854D1*
X42516Y20810D1*
X42501Y20796D1*
X42473Y20782D1*
X42444D1*
X42415Y20796D1*
X42401Y20810D1*
X42387Y20854D1*
Y20882D1*
X42623Y21025D2*
X42652Y21040D1*
X42695Y21083D1*
Y20782D1*
X42816Y21083D2*
X42974D1*
X42888Y20968D1*
X42931D1*
X42960Y20954D1*
X42974Y20939D1*
X42988Y20896D1*
Y20868D1*
X42974Y20825D1*
X42945Y20796D1*
X42902Y20782D1*
X42859D1*
X42816Y20796D1*
X42802Y20810D1*
X42787Y20839D1*
X6873Y13582D2*
X7102D1*
X7146Y13567D1*
X7160Y13553D1*
X7174Y13524D1*
Y13495D1*
X7160Y13467D1*
X7146Y13453D1*
X7102Y13438D1*
X7074D1*
X6931Y13674D2*
X6916Y13703D1*
X6873Y13746D1*
X7174D1*
X6873Y13925D2*
X6888Y13882D1*
X6931Y13853D1*
X7002Y13839D1*
X7045D1*
X7117Y13853D1*
X7160Y13882D1*
X7174Y13925D1*
Y13954D1*
X7160Y13997D1*
X7117Y14025D1*
X7045Y14040D1*
X7002D1*
X6931Y14025D1*
X6888Y13997D1*
X6873Y13954D1*
Y13925D1*
X6931Y14025D2*
X7117Y13853D1*
X6931Y14132D2*
X6916Y14161D1*
X6873Y14204D1*
X7174D1*
X45989Y20392D2*
Y20163D1*
X45975Y20120D1*
X45960Y20105D1*
X45932Y20091D1*
X45903D1*
X45875Y20105D1*
X45860Y20120D1*
X45846Y20163D1*
Y20191D1*
X46096Y20320D2*
Y20334D1*
X46111Y20363D1*
X46125Y20378D1*
X46154Y20392D1*
X46211D1*
X46240Y20378D1*
X46254Y20363D1*
X46269Y20334D1*
Y20306D1*
X46254Y20277D1*
X46225Y20234D1*
X46082Y20091D1*
X46283D1*
X46462Y20392D2*
X46419Y20378D1*
X46390Y20334D1*
X46375Y20263D1*
Y20220D1*
X46390Y20148D1*
X46419Y20105D1*
X46462Y20091D1*
X46490D1*
X46533Y20105D1*
X46562Y20148D1*
X46576Y20220D1*
Y20263D1*
X46562Y20334D1*
X46533Y20378D1*
X46490Y20392D1*
X46462D1*
X46562Y20334D2*
X46390Y20148D1*
X46669Y20334D2*
X46698Y20349D1*
X46741Y20392D1*
Y20091D1*
X49925Y20392D2*
Y20163D1*
X49910Y20120D1*
X49896Y20105D1*
X49867Y20091D1*
X49838D1*
X49810Y20105D1*
X49796Y20120D1*
X49781Y20163D1*
Y20191D1*
X50032Y20320D2*
Y20334D1*
X50046Y20363D1*
X50060Y20378D1*
X50089Y20392D1*
X50147D1*
X50175Y20378D1*
X50189Y20363D1*
X50204Y20334D1*
Y20306D1*
X50189Y20277D1*
X50161Y20234D1*
X50017Y20091D1*
X50218D1*
X50397Y20392D2*
X50354Y20378D1*
X50325Y20334D1*
X50311Y20263D1*
Y20220D1*
X50325Y20148D1*
X50354Y20105D1*
X50397Y20091D1*
X50426D1*
X50469Y20105D1*
X50497Y20148D1*
X50512Y20220D1*
Y20263D1*
X50497Y20334D1*
X50469Y20378D1*
X50426Y20392D1*
X50397D1*
X50497Y20334D2*
X50325Y20148D1*
X50619Y20320D2*
Y20334D1*
X50633Y20363D1*
X50648Y20378D1*
X50676Y20392D1*
X50734D1*
X50762Y20378D1*
X50777Y20363D1*
X50791Y20334D1*
Y20306D1*
X50777Y20277D1*
X50748Y20234D1*
X50605Y20091D1*
X50805D1*
X48881Y2189D2*
Y1960D1*
X48867Y1917D1*
X48853Y1902D1*
X48824Y1888D1*
X48795D1*
X48767Y1902D1*
X48752Y1917D1*
X48738Y1960D1*
Y1988D1*
X48989Y2117D2*
Y2132D1*
X49003Y2160D1*
X49017Y2175D1*
X49046Y2189D1*
X49103D1*
X49132Y2175D1*
X49146Y2160D1*
X49161Y2132D1*
Y2103D1*
X49146Y2074D1*
X49118Y2031D1*
X48974Y1888D1*
X49175D1*
X49354Y2189D2*
X49311Y2175D1*
X49282Y2132D1*
X49268Y2060D1*
Y2017D1*
X49282Y1945D1*
X49311Y1902D1*
X49354Y1888D1*
X49382D1*
X49425Y1902D1*
X49454Y1945D1*
X49469Y2017D1*
Y2060D1*
X49454Y2132D1*
X49425Y2175D1*
X49382Y2189D1*
X49354D1*
X49454Y2132D2*
X49282Y1945D1*
X49590Y2189D2*
X49748D1*
X49662Y2074D1*
X49705D1*
X49733Y2060D1*
X49748Y2046D1*
X49762Y2003D1*
Y1974D1*
X49748Y1931D1*
X49719Y1902D1*
X49676Y1888D1*
X49633D1*
X49590Y1902D1*
X49576Y1917D1*
X49561Y1945D1*
X25946Y15833D2*
Y15604D1*
X25932Y15560D1*
X25917Y15546D1*
X25889Y15532D1*
X25860D1*
X25831Y15546D1*
X25817Y15560D1*
X25802Y15604D1*
Y15632D1*
X26067Y15833D2*
X26225D1*
X26139Y15718D1*
X26182D1*
X26211Y15704D1*
X26225Y15689D1*
X26239Y15646D1*
Y15618D1*
X26225Y15575D1*
X26196Y15546D1*
X26153Y15532D1*
X26110D1*
X26067Y15546D1*
X26053Y15560D1*
X26039Y15589D1*
X26418Y15833D2*
X26375Y15818D1*
X26346Y15775D1*
X26332Y15704D1*
Y15661D1*
X26346Y15589D1*
X26375Y15546D1*
X26418Y15532D1*
X26447D1*
X26490Y15546D1*
X26519Y15589D1*
X26533Y15661D1*
Y15704D1*
X26519Y15775D1*
X26490Y15818D1*
X26447Y15833D1*
X26418D1*
X26519Y15775D2*
X26346Y15589D1*
X26626Y15775D2*
X26655Y15790D1*
X26698Y15833D1*
Y15532D1*
X32857Y17628D2*
Y17399D1*
X32843Y17356D1*
X32828Y17341D1*
X32799Y17327D1*
X32771D1*
X32742Y17341D1*
X32728Y17356D1*
X32713Y17399D1*
Y17427D1*
X32978Y17628D2*
X33136D1*
X33050Y17513D1*
X33093D1*
X33122Y17499D1*
X33136Y17485D1*
X33150Y17442D1*
Y17413D1*
X33136Y17370D1*
X33107Y17341D1*
X33064Y17327D1*
X33021D1*
X32978Y17341D1*
X32964Y17356D1*
X32949Y17384D1*
X33329Y17628D2*
X33286Y17614D1*
X33257Y17571D1*
X33243Y17499D1*
Y17456D1*
X33257Y17384D1*
X33286Y17341D1*
X33329Y17327D1*
X33358D1*
X33401Y17341D1*
X33429Y17384D1*
X33444Y17456D1*
Y17499D1*
X33429Y17571D1*
X33401Y17614D1*
X33358Y17628D1*
X33329D1*
X33429Y17571D2*
X33257Y17384D1*
X33551Y17556D2*
Y17571D1*
X33565Y17599D1*
X33580Y17614D1*
X33609Y17628D1*
X33666D1*
X33694Y17614D1*
X33709Y17599D1*
X33723Y17571D1*
Y17542D1*
X33709Y17513D1*
X33680Y17470D1*
X33537Y17327D1*
X33738D1*
X27857Y17628D2*
Y17399D1*
X27843Y17356D1*
X27828Y17341D1*
X27799Y17327D1*
X27771D1*
X27742Y17341D1*
X27728Y17356D1*
X27713Y17399D1*
Y17427D1*
X27978Y17628D2*
X28136D1*
X28050Y17513D1*
X28093D1*
X28122Y17499D1*
X28136Y17485D1*
X28150Y17442D1*
Y17413D1*
X28136Y17370D1*
X28107Y17341D1*
X28064Y17327D1*
X28021D1*
X27978Y17341D1*
X27964Y17356D1*
X27949Y17384D1*
X28329Y17628D2*
X28286Y17614D1*
X28257Y17571D1*
X28243Y17499D1*
Y17456D1*
X28257Y17384D1*
X28286Y17341D1*
X28329Y17327D1*
X28358D1*
X28401Y17341D1*
X28429Y17384D1*
X28444Y17456D1*
Y17499D1*
X28429Y17571D1*
X28401Y17614D1*
X28358Y17628D1*
X28329D1*
X28429Y17571D2*
X28257Y17384D1*
X28565Y17628D2*
X28723D1*
X28637Y17513D1*
X28680D1*
X28709Y17499D1*
X28723Y17485D1*
X28738Y17442D1*
Y17413D1*
X28723Y17370D1*
X28694Y17341D1*
X28651Y17327D1*
X28608D1*
X28565Y17341D1*
X28551Y17356D1*
X28537Y17384D1*
X24563Y4544D2*
X24793D1*
X24836Y4530D1*
X24850Y4515D1*
X24865Y4487D1*
Y4458D1*
X24850Y4429D1*
X24836Y4415D1*
X24793Y4400D1*
X24764D1*
X24865Y4780D2*
X24564D1*
X24764Y4637D1*
Y4852D1*
X24564Y5031D2*
X24578Y4988D1*
X24621Y4959D1*
X24693Y4944D1*
X24736D1*
X24807Y4959D1*
X24850Y4988D1*
X24865Y5031D1*
Y5059D1*
X24850Y5102D1*
X24807Y5131D1*
X24736Y5145D1*
X24693D1*
X24621Y5131D1*
X24578Y5102D1*
X24564Y5059D1*
Y5031D1*
X24621Y5131D2*
X24807Y4959D1*
X24621Y5238D2*
X24606Y5267D1*
X24564Y5310D1*
X24865D1*
X31506Y3987D2*
X31736D1*
X31779Y3973D1*
X31793Y3958D1*
X31807Y3930D1*
Y3901D1*
X31793Y3872D1*
X31779Y3858D1*
X31736Y3843D1*
X31707D1*
X31807Y4223D2*
X31506D1*
X31707Y4080D1*
Y4295D1*
X31506Y4474D2*
X31521Y4431D1*
X31564Y4402D1*
X31635Y4387D1*
X31678D1*
X31750Y4402D1*
X31793Y4431D1*
X31807Y4474D1*
Y4502D1*
X31793Y4545D1*
X31750Y4574D1*
X31678Y4588D1*
X31635D1*
X31564Y4574D1*
X31521Y4545D1*
X31506Y4502D1*
Y4474D1*
X31564Y4574D2*
X31750Y4402D1*
X31578Y4696D2*
X31564D1*
X31535Y4710D1*
X31521Y4724D1*
X31506Y4753D1*
Y4810D1*
X31521Y4839D1*
X31535Y4853D1*
X31564Y4868D1*
X31592D1*
X31621Y4853D1*
X31664Y4825D1*
X31807Y4681D1*
Y4882D1*
X2696Y19979D2*
Y19750D1*
X2682Y19707D1*
X2667Y19692D1*
X2639Y19678D1*
X2610D1*
X2581Y19692D1*
X2567Y19707D1*
X2552Y19750D1*
Y19778D1*
X2961Y19979D2*
X2817D1*
X2803Y19850D1*
X2817Y19864D1*
X2860Y19879D1*
X2903D1*
X2946Y19864D1*
X2975Y19836D1*
X2989Y19793D1*
Y19764D1*
X2975Y19721D1*
X2946Y19692D1*
X2903Y19678D1*
X2860D1*
X2817Y19692D1*
X2803Y19707D1*
X2789Y19735D1*
X3168Y19979D2*
X3125Y19965D1*
X3096Y19922D1*
X3082Y19850D1*
Y19807D1*
X3096Y19735D1*
X3125Y19692D1*
X3168Y19678D1*
X3197D1*
X3240Y19692D1*
X3269Y19735D1*
X3283Y19807D1*
Y19850D1*
X3269Y19922D1*
X3240Y19965D1*
X3197Y19979D1*
X3168D1*
X3269Y19922D2*
X3096Y19735D1*
X3376Y19922D2*
X3405Y19936D1*
X3448Y19979D1*
Y19678D1*
X34569Y4564D2*
Y4335D1*
X34555Y4292D1*
X34540Y4277D1*
X34512Y4263D1*
X34483D1*
X34454Y4277D1*
X34440Y4292D1*
X34425Y4335D1*
Y4363D1*
X34834Y4564D2*
X34690D1*
X34676Y4435D1*
X34690Y4449D1*
X34734Y4464D1*
X34776D1*
X34819Y4449D1*
X34848Y4421D1*
X34863Y4378D1*
Y4349D1*
X34848Y4306D1*
X34819Y4277D1*
X34776Y4263D1*
X34734D1*
X34690Y4277D1*
X34676Y4292D1*
X34662Y4320D1*
X35041Y4564D2*
X34998Y4550D1*
X34969Y4507D1*
X34955Y4435D1*
Y4392D1*
X34969Y4320D1*
X34998Y4277D1*
X35041Y4263D1*
X35070D1*
X35113Y4277D1*
X35142Y4320D1*
X35156Y4392D1*
Y4435D1*
X35142Y4507D1*
X35113Y4550D1*
X35070Y4564D1*
X35041D1*
X35142Y4507D2*
X34969Y4320D1*
X35263Y4492D2*
Y4507D1*
X35278Y4535D1*
X35292Y4550D1*
X35321Y4564D1*
X35378D1*
X35407Y4550D1*
X35421Y4535D1*
X35435Y4507D1*
Y4478D1*
X35421Y4449D1*
X35392Y4406D1*
X35249Y4263D1*
X35450D1*
X23073Y9588D2*
X23374D1*
Y9760D1*
X23131Y9853D2*
X23116Y9881D1*
X23073Y9924D1*
X23374D1*
X23073Y10103D2*
X23088Y10060D1*
X23131Y10031D1*
X23202Y10017D1*
X23245D1*
X23317Y10031D1*
X23360Y10060D1*
X23374Y10103D1*
Y10132D1*
X23360Y10175D1*
X23317Y10203D1*
X23245Y10218D1*
X23202D1*
X23131Y10203D1*
X23088Y10175D1*
X23073Y10132D1*
Y10103D1*
X23131Y10203D2*
X23317Y10031D1*
X23131Y10311D2*
X23116Y10340D1*
X23073Y10383D1*
X23374D1*
X24913Y5767D2*
X24927Y5738D1*
X24956Y5709D1*
X24985Y5695D1*
X25028Y5681D1*
X25099D1*
X25142Y5695D1*
X25171Y5709D1*
X25200Y5738D1*
X25214Y5767D1*
Y5824D1*
X25200Y5853D1*
X25171Y5882D1*
X25142Y5896D1*
X25099Y5910D1*
X25028D1*
X24985Y5896D1*
X24956Y5882D1*
X24927Y5853D1*
X24913Y5824D1*
Y5767D1*
X25157Y5810D2*
X25243Y5896D1*
X25214Y6147D2*
X24913D1*
X25114Y6003D1*
Y6218D1*
X24913Y6397D2*
X24928Y6354D1*
X24971Y6325D1*
X25042Y6311D1*
X25085D1*
X25157Y6325D1*
X25200Y6354D1*
X25214Y6397D1*
Y6426D1*
X25200Y6469D1*
X25157Y6497D1*
X25085Y6512D1*
X25042D1*
X24971Y6497D1*
X24928Y6469D1*
X24913Y6426D1*
Y6397D1*
X24971Y6497D2*
X25157Y6325D1*
X24971Y6605D2*
X24956Y6633D1*
X24913Y6676D1*
X25214D1*
X30665Y5694D2*
X30637Y5680D1*
X30608Y5651D1*
X30594Y5622D1*
X30579Y5579D1*
Y5507D1*
X30594Y5464D1*
X30608Y5436D1*
X30637Y5407D1*
X30665Y5392D1*
X30723D1*
X30751Y5407D1*
X30780Y5436D1*
X30794Y5464D1*
X30809Y5507D1*
Y5579D1*
X30794Y5622D1*
X30780Y5651D1*
X30751Y5680D1*
X30723Y5694D1*
X30665D1*
X30708Y5450D2*
X30794Y5364D1*
X31045Y5392D2*
Y5693D1*
X30901Y5493D1*
X31117D1*
X31295Y5693D2*
X31252Y5679D1*
X31224Y5636D1*
X31209Y5564D1*
Y5521D1*
X31224Y5450D1*
X31252Y5406D1*
X31295Y5392D1*
X31324D1*
X31367Y5406D1*
X31396Y5450D1*
X31410Y5521D1*
Y5564D1*
X31396Y5636D1*
X31367Y5679D1*
X31324Y5693D1*
X31295D1*
X31396Y5636D2*
X31224Y5450D1*
X31517Y5622D2*
Y5636D1*
X31532Y5665D1*
X31546Y5679D1*
X31575Y5693D1*
X31632D1*
X31661Y5679D1*
X31675Y5665D1*
X31690Y5636D1*
Y5607D1*
X31675Y5579D1*
X31646Y5536D1*
X31503Y5392D1*
X31704D1*
X27502Y5541D2*
X27516Y5512D1*
X27545Y5483D1*
X27574Y5469D1*
X27617Y5455D1*
X27689D1*
X27732Y5469D1*
X27760Y5483D1*
X27789Y5512D1*
X27804Y5541D1*
Y5598D1*
X27789Y5627D1*
X27760Y5656D1*
X27732Y5670D1*
X27689Y5684D1*
X27617D1*
X27574Y5670D1*
X27545Y5656D1*
X27516Y5627D1*
X27502Y5598D1*
Y5541D1*
X27746Y5584D2*
X27832Y5670D1*
X27804Y5921D2*
X27503D1*
X27703Y5777D1*
Y5992D1*
X27503Y6171D2*
X27517Y6128D1*
X27560Y6099D1*
X27632Y6085D1*
X27675D1*
X27747Y6099D1*
X27790Y6128D1*
X27804Y6171D1*
Y6200D1*
X27790Y6243D1*
X27747Y6271D1*
X27675Y6286D1*
X27632D1*
X27560Y6271D1*
X27517Y6243D1*
X27503Y6200D1*
Y6171D1*
X27560Y6271D2*
X27747Y6099D1*
X27503Y6407D2*
Y6565D1*
X27618Y6479D1*
Y6522D1*
X27632Y6551D1*
X27646Y6565D1*
X27689Y6579D1*
X27718D1*
X27761Y6565D1*
X27790Y6536D1*
X27804Y6493D1*
Y6450D1*
X27790Y6407D1*
X27775Y6393D1*
X27747Y6378D1*
X383Y8439D2*
X397Y8410D1*
X426Y8382D1*
X455Y8367D1*
X498Y8353D1*
X570D1*
X613Y8367D1*
X641Y8382D1*
X670Y8410D1*
X685Y8439D1*
Y8496D1*
X670Y8525D1*
X641Y8554D1*
X613Y8568D1*
X570Y8583D1*
X498D1*
X455Y8568D1*
X426Y8554D1*
X397Y8525D1*
X383Y8496D1*
Y8439D1*
X627Y8482D2*
X713Y8568D1*
X384Y8847D2*
Y8704D1*
X513Y8690D1*
X499Y8704D1*
X484Y8747D1*
Y8790D1*
X499Y8833D1*
X527Y8862D1*
X570Y8876D1*
X599D1*
X642Y8862D1*
X671Y8833D1*
X685Y8790D1*
Y8747D1*
X671Y8704D1*
X656Y8690D1*
X628Y8675D1*
X384Y9055D2*
X398Y9012D1*
X441Y8983D1*
X513Y8969D1*
X556D1*
X628Y8983D1*
X671Y9012D1*
X685Y9055D1*
Y9083D1*
X671Y9127D1*
X628Y9155D1*
X556Y9170D1*
X513D1*
X441Y9155D1*
X398Y9127D1*
X384Y9083D1*
Y9055D1*
X441Y9155D2*
X628Y8983D1*
X441Y9262D2*
X427Y9291D1*
X384Y9334D1*
X685D1*
X5196Y8437D2*
X5210Y8408D1*
X5239Y8380D1*
X5268Y8365D1*
X5311Y8351D1*
X5382D1*
X5425Y8365D1*
X5454Y8380D1*
X5483Y8408D1*
X5497Y8437D1*
Y8494D1*
X5483Y8523D1*
X5454Y8552D1*
X5425Y8566D1*
X5382Y8581D1*
X5311D1*
X5268Y8566D1*
X5239Y8552D1*
X5210Y8523D1*
X5196Y8494D1*
Y8437D1*
X5440Y8480D2*
X5526Y8566D1*
X5196Y8845D2*
Y8702D1*
X5325Y8688D1*
X5311Y8702D1*
X5296Y8745D1*
Y8788D1*
X5311Y8831D1*
X5340Y8860D1*
X5383Y8874D1*
X5411D1*
X5454Y8860D1*
X5483Y8831D1*
X5497Y8788D1*
Y8745D1*
X5483Y8702D1*
X5469Y8688D1*
X5440Y8673D1*
X5196Y9053D2*
X5211Y9010D1*
X5254Y8981D1*
X5325Y8967D1*
X5368D1*
X5440Y8981D1*
X5483Y9010D1*
X5497Y9053D1*
Y9081D1*
X5483Y9125D1*
X5440Y9153D1*
X5368Y9168D1*
X5325D1*
X5254Y9153D1*
X5211Y9125D1*
X5196Y9081D1*
Y9053D1*
X5254Y9153D2*
X5440Y8981D1*
X5268Y9275D2*
X5254D1*
X5225Y9289D1*
X5211Y9303D1*
X5196Y9332D1*
Y9390D1*
X5211Y9418D1*
X5225Y9432D1*
X5254Y9447D1*
X5282D1*
X5311Y9432D1*
X5354Y9404D1*
X5497Y9260D1*
Y9461D1*
X25495Y7993D2*
X25624D1*
X25667Y8008D1*
X25682Y8022D1*
X25696Y8051D1*
Y8080D1*
X25682Y8108D1*
X25667Y8123D1*
X25624Y8137D1*
X25495D1*
Y7836D1*
X25596Y7993D2*
X25696Y7836D1*
X25932D2*
Y8137D1*
X25789Y7936D1*
X26004D1*
X26183Y8137D2*
X26140Y8122D1*
X26111Y8079D1*
X26097Y8008D1*
Y7965D1*
X26111Y7893D1*
X26140Y7850D1*
X26183Y7836D1*
X26211D1*
X26254Y7850D1*
X26283Y7893D1*
X26298Y7965D1*
Y8008D1*
X26283Y8079D1*
X26254Y8122D1*
X26211Y8137D1*
X26183D1*
X26283Y8079D2*
X26111Y7893D1*
X26405Y8065D2*
Y8079D1*
X26419Y8108D1*
X26433Y8122D1*
X26462Y8137D1*
X26519D1*
X26548Y8122D1*
X26562Y8108D1*
X26577Y8079D1*
Y8051D1*
X26562Y8022D1*
X26534Y7979D1*
X26390Y7836D1*
X26591D1*
X14173Y5993D2*
X14302D1*
X14345Y6007D1*
X14359Y6021D1*
X14374Y6050D1*
Y6079D1*
X14359Y6107D1*
X14345Y6122D1*
X14302Y6136D1*
X14173D1*
Y5835D1*
X14273Y5993D2*
X14374Y5835D1*
X14466Y6078D2*
X14495Y6093D1*
X14538Y6136D1*
Y5835D1*
X14717Y6136D2*
X14674Y6122D1*
X14645Y6078D1*
X14631Y6007D1*
Y5964D1*
X14645Y5892D1*
X14674Y5849D1*
X14717Y5835D1*
X14746D1*
X14789Y5849D1*
X14817Y5892D1*
X14832Y5964D1*
Y6007D1*
X14817Y6078D1*
X14789Y6122D1*
X14746Y6136D1*
X14717D1*
X14817Y6078D2*
X14645Y5892D1*
X14924Y6078D2*
X14953Y6093D1*
X14996Y6136D1*
Y5835D1*
X19002Y5493D2*
X19131D1*
X19174Y5507D1*
X19188Y5521D1*
X19202Y5550D1*
Y5579D1*
X19188Y5607D1*
X19174Y5622D1*
X19131Y5636D1*
X19002D1*
Y5335D1*
X19102Y5493D2*
X19202Y5335D1*
X19295Y5578D2*
X19324Y5593D1*
X19367Y5636D1*
Y5335D1*
X19546Y5636D2*
X19503Y5622D1*
X19474Y5578D1*
X19460Y5507D1*
Y5464D1*
X19474Y5392D1*
X19503Y5349D1*
X19546Y5335D1*
X19574D1*
X19618Y5349D1*
X19646Y5392D1*
X19661Y5464D1*
Y5507D1*
X19646Y5578D1*
X19618Y5622D1*
X19574Y5636D1*
X19546D1*
X19646Y5578D2*
X19474Y5392D1*
X19768Y5564D2*
Y5578D1*
X19782Y5607D1*
X19796Y5622D1*
X19825Y5636D1*
X19883D1*
X19911Y5622D1*
X19925Y5607D1*
X19940Y5578D1*
Y5550D1*
X19925Y5521D1*
X19897Y5478D1*
X19753Y5335D1*
X19954D1*
X11189Y5868D2*
X11318D1*
X11361Y5882D1*
X11375Y5896D1*
X11389Y5925D1*
Y5954D1*
X11375Y5982D1*
X11361Y5997D1*
X11318Y6011D1*
X11189D1*
Y5710D1*
X11289Y5868D2*
X11389Y5710D1*
X11482Y5953D2*
X11511Y5968D1*
X11554Y6011D1*
Y5710D1*
X11733Y6011D2*
X11690Y5997D1*
X11661Y5953D1*
X11647Y5882D1*
Y5839D1*
X11661Y5767D1*
X11690Y5724D1*
X11733Y5710D1*
X11761D1*
X11805Y5724D1*
X11833Y5767D1*
X11848Y5839D1*
Y5882D1*
X11833Y5953D1*
X11805Y5997D1*
X11761Y6011D1*
X11733D1*
X11833Y5953D2*
X11661Y5767D1*
X11969Y6011D2*
X12127D1*
X12041Y5896D1*
X12084D1*
X12112Y5882D1*
X12127Y5868D1*
X12141Y5824D1*
Y5796D1*
X12127Y5753D1*
X12098Y5724D1*
X12055Y5710D1*
X12012D1*
X11969Y5724D1*
X11955Y5739D1*
X11940Y5767D1*
X19039Y6993D2*
X19168D1*
X19211Y7007D1*
X19225Y7021D1*
X19240Y7050D1*
Y7079D1*
X19225Y7107D1*
X19211Y7122D1*
X19168Y7136D1*
X19039D1*
Y6835D1*
X19139Y6993D2*
X19240Y6835D1*
X19332Y7078D2*
X19361Y7093D1*
X19404Y7136D1*
Y6835D1*
X19583Y7136D2*
X19540Y7122D1*
X19511Y7078D1*
X19497Y7007D1*
Y6964D1*
X19511Y6892D1*
X19540Y6849D1*
X19583Y6835D1*
X19612D1*
X19655Y6849D1*
X19683Y6892D1*
X19698Y6964D1*
Y7007D1*
X19683Y7078D1*
X19655Y7122D1*
X19612Y7136D1*
X19583D1*
X19683Y7078D2*
X19511Y6892D1*
X19934Y6835D2*
Y7136D1*
X19790Y6935D1*
X20006D1*
X11189Y6430D2*
X11318D1*
X11361Y6445D1*
X11375Y6459D1*
X11389Y6487D1*
Y6516D1*
X11375Y6545D1*
X11361Y6559D1*
X11318Y6574D1*
X11189D1*
Y6272D1*
X11289Y6430D2*
X11389Y6272D1*
X11482Y6516D2*
X11511Y6531D1*
X11554Y6573D1*
Y6272D1*
X11733Y6573D2*
X11690Y6559D1*
X11661Y6516D1*
X11647Y6444D1*
Y6401D1*
X11661Y6330D1*
X11690Y6286D1*
X11733Y6272D1*
X11761D1*
X11805Y6286D1*
X11833Y6330D1*
X11848Y6401D1*
Y6444D1*
X11833Y6516D1*
X11805Y6559D1*
X11761Y6573D1*
X11733D1*
X11833Y6516D2*
X11661Y6330D1*
X12112Y6573D2*
X11969D1*
X11955Y6444D1*
X11969Y6459D1*
X12012Y6473D1*
X12055D1*
X12098Y6459D1*
X12127Y6430D1*
X12141Y6387D1*
Y6358D1*
X12127Y6315D1*
X12098Y6286D1*
X12055Y6272D1*
X12012D1*
X11969Y6286D1*
X11955Y6301D1*
X11940Y6330D1*
X11196Y6993D2*
X11325D1*
X11368Y7007D1*
X11383Y7021D1*
X11397Y7050D1*
Y7079D1*
X11383Y7107D1*
X11368Y7122D1*
X11325Y7136D1*
X11196D1*
Y6835D1*
X11296Y6993D2*
X11397Y6835D1*
X11489Y7078D2*
X11518Y7093D1*
X11561Y7136D1*
Y6835D1*
X11740Y7136D2*
X11697Y7122D1*
X11668Y7078D1*
X11654Y7007D1*
Y6964D1*
X11668Y6892D1*
X11697Y6849D1*
X11740Y6835D1*
X11769D1*
X11812Y6849D1*
X11840Y6892D1*
X11855Y6964D1*
Y7007D1*
X11840Y7078D1*
X11812Y7122D1*
X11769Y7136D1*
X11740D1*
X11840Y7078D2*
X11668Y6892D1*
X12120Y7093D2*
X12105Y7122D1*
X12062Y7136D1*
X12034D1*
X11991Y7122D1*
X11962Y7078D1*
X11948Y7007D1*
Y6935D1*
X11962Y6878D1*
X11991Y6849D1*
X12034Y6835D1*
X12048D1*
X12091Y6849D1*
X12120Y6878D1*
X12134Y6921D1*
Y6935D1*
X12120Y6978D1*
X12091Y7007D1*
X12048Y7021D1*
X12034D1*
X11991Y7007D1*
X11962Y6978D1*
X11948Y6935D1*
X16132Y3483D2*
Y3612D1*
X16118Y3655D1*
X16103Y3670D1*
X16075Y3684D1*
X16046D1*
X16018Y3670D1*
X16003Y3655D1*
X15989Y3612D1*
Y3483D1*
X16290D1*
X16132Y3584D2*
X16290Y3684D1*
X16046Y3777D2*
X16032Y3806D1*
X15989Y3849D1*
X16290D1*
X15989Y4028D2*
X16003Y3984D1*
X16046Y3956D1*
X16118Y3941D1*
X16161D1*
X16233Y3956D1*
X16276Y3984D1*
X16290Y4028D1*
Y4056D1*
X16276Y4099D1*
X16233Y4128D1*
X16161Y4142D1*
X16118D1*
X16046Y4128D1*
X16003Y4099D1*
X15989Y4056D1*
Y4028D1*
X16046Y4128D2*
X16233Y3956D1*
X16290Y4292D2*
X15989Y4436D1*
Y4235D1*
X7196Y10190D2*
Y10319D1*
X7181Y10362D1*
X7167Y10377D1*
X7138Y10391D1*
X7110D1*
X7081Y10377D1*
X7066Y10362D1*
X7052Y10319D1*
Y10190D1*
X7354D1*
X7196Y10291D2*
X7354Y10391D1*
X7110Y10484D2*
X7095Y10513D1*
X7052Y10556D1*
X7354D1*
X7052Y10735D2*
X7067Y10692D1*
X7110Y10663D1*
X7181Y10648D1*
X7225D1*
X7296Y10663D1*
X7339Y10692D1*
X7354Y10735D1*
Y10763D1*
X7339Y10806D1*
X7296Y10835D1*
X7225Y10849D1*
X7181D1*
X7110Y10835D1*
X7067Y10806D1*
X7052Y10763D1*
Y10735D1*
X7110Y10835D2*
X7296Y10663D1*
X7052Y11014D2*
X7067Y10971D1*
X7095Y10956D1*
X7124D1*
X7153Y10971D1*
X7167Y10999D1*
X7181Y11057D1*
X7196Y11100D1*
X7225Y11128D1*
X7253Y11143D1*
X7296D1*
X7325Y11128D1*
X7339Y11114D1*
X7354Y11071D1*
Y11014D1*
X7339Y10971D1*
X7325Y10956D1*
X7296Y10942D1*
X7253D1*
X7225Y10956D1*
X7196Y10985D1*
X7181Y11028D1*
X7167Y11085D1*
X7153Y11114D1*
X7124Y11128D1*
X7095D1*
X7067Y11114D1*
X7052Y11071D1*
Y11014D1*
X10696Y10260D2*
Y10389D1*
X10681Y10432D1*
X10667Y10446D1*
X10639Y10461D1*
X10610D1*
X10581Y10446D1*
X10567Y10432D1*
X10552Y10389D1*
Y10260D1*
X10854D1*
X10696Y10360D2*
X10854Y10461D1*
X10610Y10553D2*
X10595Y10582D1*
X10553Y10625D1*
X10854D1*
X10553Y10804D2*
X10567Y10761D1*
X10610Y10732D1*
X10682Y10718D1*
X10725D1*
X10796Y10732D1*
X10840Y10761D1*
X10854Y10804D1*
Y10833D1*
X10840Y10876D1*
X10796Y10904D1*
X10725Y10919D1*
X10682D1*
X10610Y10904D1*
X10567Y10876D1*
X10553Y10833D1*
Y10804D1*
X10610Y10904D2*
X10796Y10732D1*
X10653Y11198D2*
X10696Y11184D1*
X10725Y11155D1*
X10739Y11112D1*
Y11098D1*
X10725Y11055D1*
X10696Y11026D1*
X10653Y11012D1*
X10639D1*
X10595Y11026D1*
X10567Y11055D1*
X10553Y11098D1*
Y11112D1*
X10567Y11155D1*
X10595Y11184D1*
X10653Y11198D1*
X10725D1*
X10796Y11184D1*
X10840Y11155D1*
X10854Y11112D1*
Y11084D1*
X10840Y11040D1*
X10811Y11026D1*
X8588Y15823D2*
X8717D1*
X8760Y15838D1*
X8775Y15852D1*
X8789Y15881D1*
Y15909D1*
X8775Y15938D1*
X8760Y15952D1*
X8717Y15967D1*
X8588D1*
Y15665D1*
X8689Y15823D2*
X8789Y15665D1*
X8882Y15909D2*
X8911Y15924D1*
X8954Y15966D1*
Y15665D1*
X9046Y15909D2*
X9075Y15924D1*
X9118Y15966D1*
Y15665D1*
X9297Y15966D2*
X9254Y15952D1*
X9225Y15909D1*
X9211Y15837D1*
Y15794D1*
X9225Y15723D1*
X9254Y15680D1*
X9297Y15665D1*
X9326D1*
X9369Y15680D1*
X9397Y15723D1*
X9412Y15794D1*
Y15837D1*
X9397Y15909D1*
X9369Y15952D1*
X9326Y15966D1*
X9297D1*
X9397Y15909D2*
X9225Y15723D1*
X53189Y4993D2*
X53318D1*
X53361Y5007D1*
X53376Y5021D1*
X53390Y5050D1*
Y5079D1*
X53376Y5107D1*
X53361Y5122D1*
X53318Y5136D1*
X53189D1*
Y4835D1*
X53289Y4993D2*
X53390Y4835D1*
X53497Y5064D2*
Y5078D1*
X53511Y5107D1*
X53526Y5122D1*
X53555Y5136D1*
X53612D1*
X53640Y5122D1*
X53655Y5107D1*
X53669Y5078D1*
Y5050D1*
X53655Y5021D1*
X53626Y4978D1*
X53483Y4835D1*
X53684D1*
X53862Y5136D2*
X53819Y5122D1*
X53790Y5078D1*
X53776Y5007D1*
Y4964D1*
X53790Y4892D1*
X53819Y4849D1*
X53862Y4835D1*
X53891D1*
X53934Y4849D1*
X53963Y4892D1*
X53977Y4964D1*
Y5007D1*
X53963Y5078D1*
X53934Y5122D1*
X53891Y5136D1*
X53862D1*
X53963Y5078D2*
X53790Y4892D1*
X54070Y5078D2*
X54099Y5093D1*
X54142Y5136D1*
Y4835D1*
X47507Y7231D2*
Y7360D1*
X47493Y7403D1*
X47479Y7418D1*
X47450Y7432D1*
X47421D1*
X47393Y7418D1*
X47378Y7403D1*
X47364Y7360D1*
Y7231D1*
X47665D1*
X47507Y7332D2*
X47665Y7432D1*
X47436Y7539D2*
X47422D1*
X47393Y7554D1*
X47378Y7568D1*
X47364Y7597D1*
Y7654D1*
X47378Y7683D1*
X47393Y7697D1*
X47422Y7712D1*
X47450D1*
X47479Y7697D1*
X47522Y7668D1*
X47665Y7525D1*
Y7726D1*
X47364Y7905D2*
X47378Y7862D1*
X47422Y7833D1*
X47493Y7818D1*
X47536D1*
X47608Y7833D1*
X47651Y7862D1*
X47665Y7905D1*
Y7933D1*
X47651Y7976D1*
X47608Y8005D1*
X47536Y8019D1*
X47493D1*
X47422Y8005D1*
X47378Y7976D1*
X47364Y7933D1*
Y7905D1*
X47422Y8005D2*
X47608Y7833D1*
X47436Y8127D2*
X47422D1*
X47393Y8141D1*
X47378Y8155D1*
X47364Y8184D1*
Y8241D1*
X47378Y8270D1*
X47393Y8284D1*
X47422Y8299D1*
X47450D1*
X47479Y8284D1*
X47522Y8256D1*
X47665Y8112D1*
Y8313D1*
X46007Y7249D2*
Y7378D1*
X45993Y7422D1*
X45979Y7436D1*
X45950Y7450D1*
X45921D1*
X45893Y7436D1*
X45878Y7422D1*
X45864Y7378D1*
Y7249D1*
X46165D1*
X46007Y7350D2*
X46165Y7450D1*
X45936Y7558D2*
X45922D1*
X45893Y7572D1*
X45878Y7586D1*
X45864Y7615D1*
Y7672D1*
X45878Y7701D1*
X45893Y7715D1*
X45922Y7730D1*
X45950D1*
X45979Y7715D1*
X46022Y7687D1*
X46165Y7543D1*
Y7744D1*
X45864Y7923D2*
X45878Y7880D1*
X45922Y7851D1*
X45993Y7837D1*
X46036D1*
X46108Y7851D1*
X46151Y7880D1*
X46165Y7923D1*
Y7951D1*
X46151Y7995D1*
X46108Y8023D1*
X46036Y8038D1*
X45993D1*
X45922Y8023D1*
X45878Y7995D1*
X45864Y7951D1*
Y7923D1*
X45922Y8023D2*
X46108Y7851D1*
X45864Y8159D2*
Y8317D1*
X45979Y8231D1*
Y8274D1*
X45993Y8302D1*
X46007Y8317D1*
X46051Y8331D1*
X46079D1*
X46122Y8317D1*
X46151Y8288D1*
X46165Y8245D1*
Y8202D1*
X46151Y8159D1*
X46136Y8145D1*
X46108Y8130D1*
X46757Y14787D2*
Y14916D1*
X46743Y14959D1*
X46729Y14973D1*
X46700Y14988D1*
X46671D1*
X46643Y14973D1*
X46628Y14959D1*
X46614Y14916D1*
Y14787D1*
X46915D1*
X46757Y14887D2*
X46915Y14988D1*
X46686Y15095D2*
X46672D1*
X46643Y15109D1*
X46628Y15123D1*
X46614Y15152D1*
Y15210D1*
X46628Y15238D1*
X46643Y15252D1*
X46672Y15267D1*
X46700D1*
X46729Y15252D1*
X46772Y15224D1*
X46915Y15080D1*
Y15281D1*
X46614Y15460D2*
X46628Y15417D1*
X46672Y15388D1*
X46743Y15374D1*
X46786D1*
X46858Y15388D1*
X46901Y15417D1*
X46915Y15460D1*
Y15489D1*
X46901Y15532D1*
X46858Y15560D1*
X46786Y15575D1*
X46743D1*
X46672Y15560D1*
X46628Y15532D1*
X46614Y15489D1*
Y15460D1*
X46672Y15560D2*
X46858Y15388D1*
X46915Y15811D2*
X46614D1*
X46815Y15667D1*
Y15883D1*
X48195Y7231D2*
Y7360D1*
X48180Y7403D1*
X48166Y7418D1*
X48138Y7432D1*
X48109D1*
X48080Y7418D1*
X48066Y7403D1*
X48051Y7360D1*
Y7231D1*
X48353D1*
X48195Y7332D2*
X48353Y7432D1*
X48123Y7539D2*
X48109D1*
X48080Y7554D1*
X48066Y7568D1*
X48052Y7597D1*
Y7654D1*
X48066Y7683D1*
X48080Y7697D1*
X48109Y7712D1*
X48138D1*
X48166Y7697D1*
X48209Y7668D1*
X48353Y7525D1*
Y7726D1*
X48052Y7905D2*
X48066Y7862D1*
X48109Y7833D1*
X48181Y7818D1*
X48224D1*
X48295Y7833D1*
X48338Y7862D1*
X48353Y7905D1*
Y7933D1*
X48338Y7976D1*
X48295Y8005D1*
X48224Y8019D1*
X48181D1*
X48109Y8005D1*
X48066Y7976D1*
X48052Y7933D1*
Y7905D1*
X48109Y8005D2*
X48295Y7833D1*
X48052Y8284D2*
Y8141D1*
X48181Y8127D1*
X48166Y8141D1*
X48152Y8184D1*
Y8227D1*
X48166Y8270D1*
X48195Y8299D1*
X48238Y8313D1*
X48267D1*
X48310Y8299D1*
X48338Y8270D1*
X48353Y8227D1*
Y8184D1*
X48338Y8141D1*
X48324Y8127D1*
X48295Y8112D1*
X48257Y14882D2*
Y15011D1*
X48243Y15054D1*
X48229Y15068D1*
X48200Y15083D1*
X48171D1*
X48143Y15068D1*
X48128Y15054D1*
X48114Y15011D1*
Y14882D1*
X48415D1*
X48257Y14982D2*
X48415Y15083D1*
X48186Y15190D2*
X48172D1*
X48143Y15204D1*
X48128Y15218D1*
X48114Y15247D1*
Y15305D1*
X48128Y15333D1*
X48143Y15347D1*
X48172Y15362D1*
X48200D1*
X48229Y15347D1*
X48272Y15319D1*
X48415Y15175D1*
Y15376D1*
X48114Y15555D2*
X48128Y15512D1*
X48172Y15483D1*
X48243Y15469D1*
X48286D1*
X48358Y15483D1*
X48401Y15512D1*
X48415Y15555D1*
Y15584D1*
X48401Y15627D1*
X48358Y15655D1*
X48286Y15670D1*
X48243D1*
X48172Y15655D1*
X48128Y15627D1*
X48114Y15584D1*
Y15555D1*
X48172Y15655D2*
X48358Y15483D1*
X48157Y15935D2*
X48128Y15920D1*
X48114Y15877D1*
Y15849D1*
X48128Y15806D1*
X48172Y15777D1*
X48243Y15763D1*
X48315D1*
X48372Y15777D1*
X48401Y15806D1*
X48415Y15849D1*
Y15863D1*
X48401Y15906D1*
X48372Y15935D1*
X48329Y15949D1*
X48315D1*
X48272Y15935D1*
X48243Y15906D1*
X48229Y15863D1*
Y15849D1*
X48243Y15806D1*
X48272Y15777D1*
X48315Y15763D1*
X51007Y7231D2*
Y7360D1*
X50993Y7403D1*
X50979Y7418D1*
X50950Y7432D1*
X50921D1*
X50893Y7418D1*
X50878Y7403D1*
X50864Y7360D1*
Y7231D1*
X51165D1*
X51007Y7332D2*
X51165Y7432D1*
X50936Y7539D2*
X50922D1*
X50893Y7554D1*
X50878Y7568D1*
X50864Y7597D1*
Y7654D1*
X50878Y7683D1*
X50893Y7697D1*
X50922Y7712D1*
X50950D1*
X50979Y7697D1*
X51022Y7668D1*
X51165Y7525D1*
Y7726D1*
X50864Y7905D2*
X50878Y7862D1*
X50922Y7833D1*
X50993Y7818D1*
X51036D1*
X51108Y7833D1*
X51151Y7862D1*
X51165Y7905D1*
Y7933D1*
X51151Y7976D1*
X51108Y8005D1*
X51036Y8019D1*
X50993D1*
X50922Y8005D1*
X50878Y7976D1*
X50864Y7933D1*
Y7905D1*
X50922Y8005D2*
X51108Y7833D1*
X51165Y8169D2*
X50864Y8313D1*
Y8112D1*
X52507Y7248D2*
Y7377D1*
X52493Y7420D1*
X52479Y7434D1*
X52450Y7449D1*
X52421D1*
X52393Y7434D1*
X52378Y7420D1*
X52364Y7377D1*
Y7248D1*
X52665D1*
X52507Y7348D2*
X52665Y7449D1*
X52436Y7556D2*
X52422D1*
X52393Y7570D1*
X52378Y7584D1*
X52364Y7613D1*
Y7671D1*
X52378Y7699D1*
X52393Y7713D1*
X52422Y7728D1*
X52450D1*
X52479Y7713D1*
X52522Y7685D1*
X52665Y7541D1*
Y7742D1*
X52364Y7921D2*
X52378Y7878D1*
X52422Y7849D1*
X52493Y7835D1*
X52536D1*
X52608Y7849D1*
X52651Y7878D1*
X52665Y7921D1*
Y7950D1*
X52651Y7993D1*
X52608Y8021D1*
X52536Y8036D1*
X52493D1*
X52422Y8021D1*
X52378Y7993D1*
X52364Y7950D1*
Y7921D1*
X52422Y8021D2*
X52608Y7849D1*
X52364Y8200D2*
X52378Y8157D1*
X52407Y8143D1*
X52436D1*
X52464Y8157D1*
X52479Y8186D1*
X52493Y8243D1*
X52507Y8286D1*
X52536Y8315D1*
X52565Y8329D1*
X52608D1*
X52636Y8315D1*
X52651Y8301D1*
X52665Y8257D1*
Y8200D1*
X52651Y8157D1*
X52636Y8143D1*
X52608Y8128D1*
X52565D1*
X52536Y8143D1*
X52507Y8172D1*
X52493Y8214D1*
X52479Y8272D1*
X52464Y8301D1*
X52436Y8315D1*
X52407D1*
X52378Y8301D1*
X52364Y8257D1*
Y8200D1*
X51757Y14863D2*
Y14992D1*
X51743Y15036D1*
X51729Y15050D1*
X51700Y15064D1*
X51671D1*
X51643Y15050D1*
X51628Y15036D1*
X51614Y14992D1*
Y14863D1*
X51915D1*
X51757Y14964D2*
X51915Y15064D1*
X51686Y15172D2*
X51672D1*
X51643Y15186D1*
X51628Y15200D1*
X51614Y15229D1*
Y15286D1*
X51628Y15315D1*
X51643Y15329D1*
X51672Y15344D1*
X51700D1*
X51729Y15329D1*
X51772Y15301D1*
X51915Y15157D1*
Y15358D1*
X51614Y15537D2*
X51628Y15494D1*
X51672Y15465D1*
X51743Y15451D1*
X51786D1*
X51858Y15465D1*
X51901Y15494D1*
X51915Y15537D1*
Y15565D1*
X51901Y15608D1*
X51858Y15637D1*
X51786Y15652D1*
X51743D1*
X51672Y15637D1*
X51628Y15608D1*
X51614Y15565D1*
Y15537D1*
X51672Y15637D2*
X51858Y15465D1*
X51714Y15931D2*
X51757Y15916D1*
X51786Y15888D1*
X51801Y15845D1*
Y15830D1*
X51786Y15787D1*
X51757Y15759D1*
X51714Y15744D1*
X51700D1*
X51657Y15759D1*
X51628Y15787D1*
X51614Y15830D1*
Y15845D1*
X51628Y15888D1*
X51657Y15916D1*
X51714Y15931D1*
X51786D1*
X51858Y15916D1*
X51901Y15888D1*
X51915Y15845D1*
Y15816D1*
X51901Y15773D1*
X51872Y15759D1*
X50257Y7296D2*
Y7425D1*
X50243Y7468D1*
X50229Y7482D1*
X50200Y7497D1*
X50171D1*
X50143Y7482D1*
X50128Y7468D1*
X50114Y7425D1*
Y7296D1*
X50415D1*
X50257Y7396D2*
X50415Y7497D1*
X50186Y7604D2*
X50172D1*
X50143Y7618D1*
X50128Y7632D1*
X50114Y7661D1*
Y7719D1*
X50128Y7747D1*
X50143Y7761D1*
X50172Y7776D1*
X50200D1*
X50229Y7761D1*
X50272Y7733D1*
X50415Y7589D1*
Y7790D1*
X50172Y7883D2*
X50157Y7912D1*
X50114Y7955D1*
X50415D1*
X50114Y8134D2*
X50128Y8091D1*
X50172Y8062D1*
X50243Y8048D1*
X50286D1*
X50358Y8062D1*
X50401Y8091D1*
X50415Y8134D1*
Y8162D1*
X50401Y8205D1*
X50358Y8234D1*
X50286Y8249D1*
X50243D1*
X50172Y8234D1*
X50128Y8205D1*
X50114Y8162D1*
Y8134D1*
X50172Y8234D2*
X50358Y8062D1*
X50195Y14941D2*
Y15070D1*
X50180Y15113D1*
X50166Y15128D1*
X50138Y15142D1*
X50109D1*
X50080Y15128D1*
X50066Y15113D1*
X50051Y15070D1*
Y14941D1*
X50353D1*
X50195Y15041D2*
X50353Y15142D1*
X50123Y15249D2*
X50109D1*
X50080Y15263D1*
X50066Y15278D1*
X50052Y15307D1*
Y15364D1*
X50066Y15392D1*
X50080Y15407D1*
X50109Y15421D1*
X50138D1*
X50166Y15407D1*
X50209Y15378D1*
X50353Y15235D1*
Y15436D1*
X50109Y15528D2*
X50094Y15557D1*
X50052Y15600D1*
X50353D1*
X50109Y15693D2*
X50094Y15722D1*
X50052Y15765D1*
X50353D1*
X43939Y11930D2*
X44068D1*
X44111Y11945D1*
X44126Y11959D1*
X44140Y11987D1*
Y12016D1*
X44126Y12045D1*
X44111Y12059D1*
X44068Y12074D1*
X43939D1*
Y11772D1*
X44039Y11930D2*
X44140Y11772D1*
X44247Y12002D2*
Y12016D1*
X44261Y12045D1*
X44276Y12059D1*
X44304Y12073D1*
X44362D1*
X44390Y12059D1*
X44405Y12045D1*
X44419Y12016D1*
Y11987D1*
X44405Y11959D1*
X44376Y11916D1*
X44232Y11772D1*
X44433D1*
X44526Y12016D2*
X44555Y12031D1*
X44598Y12073D1*
Y11772D1*
X44705Y12002D2*
Y12016D1*
X44719Y12045D1*
X44734Y12059D1*
X44763Y12073D1*
X44820D1*
X44848Y12059D1*
X44863Y12045D1*
X44877Y12016D1*
Y11987D1*
X44863Y11959D1*
X44834Y11916D1*
X44691Y11772D1*
X44892D1*
X43921Y11243D2*
X44050D1*
X44093Y11257D1*
X44107Y11272D1*
X44122Y11300D1*
Y11329D1*
X44107Y11357D1*
X44093Y11372D1*
X44050Y11386D1*
X43921D1*
Y11085D1*
X44021Y11243D2*
X44122Y11085D1*
X44229Y11314D2*
Y11329D1*
X44243Y11357D1*
X44257Y11372D1*
X44286Y11386D1*
X44344D1*
X44372Y11372D1*
X44386Y11357D1*
X44401Y11329D1*
Y11300D1*
X44386Y11271D1*
X44358Y11228D1*
X44214Y11085D1*
X44415D1*
X44508Y11329D2*
X44537Y11343D1*
X44580Y11386D1*
Y11085D1*
X44701Y11386D2*
X44859D1*
X44773Y11271D1*
X44816D1*
X44845Y11257D1*
X44859Y11243D1*
X44873Y11200D1*
Y11171D1*
X44859Y11128D1*
X44830Y11099D1*
X44787Y11085D1*
X44744D1*
X44701Y11099D1*
X44687Y11114D1*
X44672Y11142D1*
X30673Y16961D2*
Y17090D1*
X30658Y17133D1*
X30644Y17148D1*
X30615Y17162D1*
X30587D1*
X30558Y17148D1*
X30543Y17133D1*
X30529Y17090D1*
Y16961D1*
X30831D1*
X30673Y17062D2*
X30831Y17162D1*
X30529Y17284D2*
Y17441D1*
X30644Y17355D1*
Y17398D1*
X30658Y17427D1*
X30673Y17441D1*
X30716Y17456D1*
X30744D1*
X30787Y17441D1*
X30816Y17413D1*
X30831Y17369D1*
Y17326D1*
X30816Y17284D1*
X30802Y17269D1*
X30773Y17255D1*
X30529Y17635D2*
X30544Y17591D1*
X30587Y17563D1*
X30658Y17548D1*
X30702D1*
X30773Y17563D1*
X30816Y17591D1*
X30831Y17635D1*
Y17663D1*
X30816Y17706D1*
X30773Y17735D1*
X30702Y17749D1*
X30658D1*
X30587Y17735D1*
X30544Y17706D1*
X30529Y17663D1*
Y17635D1*
X30587Y17735D2*
X30773Y17563D1*
X30587Y17842D2*
X30572Y17871D1*
X30529Y17914D1*
X30831D1*
X29624Y12243D2*
X29753D1*
X29797Y12257D1*
X29811Y12271D1*
X29825Y12300D1*
Y12329D1*
X29811Y12357D1*
X29797Y12372D1*
X29753Y12386D1*
X29624D1*
Y12085D1*
X29725Y12243D2*
X29825Y12085D1*
X29947Y12386D2*
X30104D1*
X30019Y12271D1*
X30062D1*
X30090Y12257D1*
X30104Y12243D1*
X30119Y12199D1*
Y12171D1*
X30104Y12128D1*
X30076Y12099D1*
X30033Y12085D1*
X29990D1*
X29947Y12099D1*
X29933Y12114D1*
X29918Y12142D1*
X30298Y12386D2*
X30255Y12372D1*
X30226Y12328D1*
X30212Y12257D1*
Y12214D1*
X30226Y12142D1*
X30255Y12099D1*
X30298Y12085D1*
X30326D1*
X30370Y12099D1*
X30398Y12142D1*
X30413Y12214D1*
Y12257D1*
X30398Y12328D1*
X30370Y12372D1*
X30326Y12386D1*
X30298D1*
X30398Y12328D2*
X30226Y12142D1*
X30520Y12314D2*
Y12328D1*
X30534Y12357D1*
X30548Y12372D1*
X30577Y12386D1*
X30635D1*
X30663Y12372D1*
X30677Y12357D1*
X30692Y12328D1*
Y12300D1*
X30677Y12271D1*
X30649Y12228D1*
X30505Y12085D1*
X30706D1*
X29624Y13243D2*
X29753D1*
X29797Y13257D1*
X29811Y13271D1*
X29825Y13300D1*
Y13329D1*
X29811Y13357D1*
X29797Y13372D1*
X29753Y13386D1*
X29624D1*
Y13085D1*
X29725Y13243D2*
X29825Y13085D1*
X29947Y13386D2*
X30104D1*
X30019Y13271D1*
X30062D1*
X30090Y13257D1*
X30104Y13243D1*
X30119Y13199D1*
Y13171D1*
X30104Y13128D1*
X30076Y13099D1*
X30033Y13085D1*
X29990D1*
X29947Y13099D1*
X29933Y13114D1*
X29918Y13142D1*
X30298Y13386D2*
X30255Y13372D1*
X30226Y13328D1*
X30212Y13257D1*
Y13214D1*
X30226Y13142D1*
X30255Y13099D1*
X30298Y13085D1*
X30326D1*
X30370Y13099D1*
X30398Y13142D1*
X30413Y13214D1*
Y13257D1*
X30398Y13328D1*
X30370Y13372D1*
X30326Y13386D1*
X30298D1*
X30398Y13328D2*
X30226Y13142D1*
X30534Y13386D2*
X30692D1*
X30606Y13271D1*
X30649D1*
X30677Y13257D1*
X30692Y13243D1*
X30706Y13199D1*
Y13171D1*
X30692Y13128D1*
X30663Y13099D1*
X30620Y13085D1*
X30577D1*
X30534Y13099D1*
X30520Y13114D1*
X30505Y13142D1*
X29617Y14243D2*
X29746D1*
X29789Y14257D1*
X29804Y14271D1*
X29818Y14300D1*
Y14329D1*
X29804Y14357D1*
X29789Y14372D1*
X29746Y14386D1*
X29617D1*
Y14085D1*
X29718Y14243D2*
X29818Y14085D1*
X29940Y14386D2*
X30097D1*
X30011Y14271D1*
X30055D1*
X30083Y14257D1*
X30097Y14243D1*
X30112Y14199D1*
Y14171D1*
X30097Y14128D1*
X30069Y14099D1*
X30026Y14085D1*
X29983D1*
X29940Y14099D1*
X29926Y14114D1*
X29911Y14142D1*
X30291Y14386D2*
X30248Y14372D1*
X30219Y14328D1*
X30205Y14257D1*
Y14214D1*
X30219Y14142D1*
X30248Y14099D1*
X30291Y14085D1*
X30319D1*
X30362Y14099D1*
X30391Y14142D1*
X30406Y14214D1*
Y14257D1*
X30391Y14328D1*
X30362Y14372D1*
X30319Y14386D1*
X30291D1*
X30391Y14328D2*
X30219Y14142D1*
X30642Y14085D2*
Y14386D1*
X30498Y14185D1*
X30713D1*
X31044Y12243D2*
X31173D1*
X31216Y12257D1*
X31230Y12271D1*
X31245Y12300D1*
Y12329D1*
X31230Y12357D1*
X31216Y12372D1*
X31173Y12386D1*
X31044D1*
Y12085D1*
X31144Y12243D2*
X31245Y12085D1*
X31366Y12386D2*
X31524D1*
X31438Y12271D1*
X31481D1*
X31509Y12257D1*
X31524Y12243D1*
X31538Y12199D1*
Y12171D1*
X31524Y12128D1*
X31495Y12099D1*
X31452Y12085D1*
X31409D1*
X31366Y12099D1*
X31352Y12114D1*
X31337Y12142D1*
X31717Y12386D2*
X31674Y12372D1*
X31645Y12328D1*
X31631Y12257D1*
Y12214D1*
X31645Y12142D1*
X31674Y12099D1*
X31717Y12085D1*
X31746D1*
X31789Y12099D1*
X31817Y12142D1*
X31832Y12214D1*
Y12257D1*
X31817Y12328D1*
X31789Y12372D1*
X31746Y12386D1*
X31717D1*
X31817Y12328D2*
X31645Y12142D1*
X32097Y12386D2*
X31953D1*
X31939Y12257D1*
X31953Y12271D1*
X31997Y12286D1*
X32039D1*
X32082Y12271D1*
X32111Y12243D1*
X32126Y12199D1*
Y12171D1*
X32111Y12128D1*
X32082Y12099D1*
X32039Y12085D1*
X31997D1*
X31953Y12099D1*
X31939Y12114D1*
X31925Y12142D1*
X31051Y13243D2*
X31180D1*
X31223Y13257D1*
X31238Y13271D1*
X31252Y13300D1*
Y13329D1*
X31238Y13357D1*
X31223Y13372D1*
X31180Y13386D1*
X31051D1*
Y13085D1*
X31152Y13243D2*
X31252Y13085D1*
X31374Y13386D2*
X31531D1*
X31445Y13271D1*
X31488D1*
X31517Y13257D1*
X31531Y13243D1*
X31546Y13199D1*
Y13171D1*
X31531Y13128D1*
X31503Y13099D1*
X31459Y13085D1*
X31416D1*
X31374Y13099D1*
X31359Y13114D1*
X31345Y13142D1*
X31724Y13386D2*
X31681Y13372D1*
X31653Y13328D1*
X31638Y13257D1*
Y13214D1*
X31653Y13142D1*
X31681Y13099D1*
X31724Y13085D1*
X31753D1*
X31796Y13099D1*
X31825Y13142D1*
X31839Y13214D1*
Y13257D1*
X31825Y13328D1*
X31796Y13372D1*
X31753Y13386D1*
X31724D1*
X31825Y13328D2*
X31653Y13142D1*
X32104Y13343D2*
X32090Y13372D1*
X32047Y13386D1*
X32018D1*
X31975Y13372D1*
X31946Y13328D1*
X31932Y13257D1*
Y13185D1*
X31946Y13128D1*
X31975Y13099D1*
X32018Y13085D1*
X32032D1*
X32075Y13099D1*
X32104Y13128D1*
X32118Y13171D1*
Y13185D1*
X32104Y13228D1*
X32075Y13257D1*
X32032Y13271D1*
X32018D1*
X31975Y13257D1*
X31946Y13228D1*
X31932Y13185D1*
X31044Y14243D2*
X31173D1*
X31216Y14257D1*
X31230Y14271D1*
X31245Y14300D1*
Y14329D1*
X31230Y14357D1*
X31216Y14372D1*
X31173Y14386D1*
X31044D1*
Y14085D1*
X31144Y14243D2*
X31245Y14085D1*
X31366Y14386D2*
X31524D1*
X31438Y14271D1*
X31481D1*
X31509Y14257D1*
X31524Y14243D1*
X31538Y14199D1*
Y14171D1*
X31524Y14128D1*
X31495Y14099D1*
X31452Y14085D1*
X31409D1*
X31366Y14099D1*
X31352Y14114D1*
X31337Y14142D1*
X31717Y14386D2*
X31674Y14372D1*
X31645Y14328D1*
X31631Y14257D1*
Y14214D1*
X31645Y14142D1*
X31674Y14099D1*
X31717Y14085D1*
X31746D1*
X31789Y14099D1*
X31817Y14142D1*
X31832Y14214D1*
Y14257D1*
X31817Y14328D1*
X31789Y14372D1*
X31746Y14386D1*
X31717D1*
X31817Y14328D2*
X31645Y14142D1*
X31982Y14085D2*
X32126Y14386D1*
X31925D1*
X29682Y7868D2*
X29811D1*
X29854Y7882D1*
X29869Y7896D1*
X29883Y7925D1*
Y7954D1*
X29869Y7982D1*
X29854Y7997D1*
X29811Y8011D1*
X29682D1*
Y7710D1*
X29782Y7868D2*
X29883Y7710D1*
X30119D2*
Y8011D1*
X29975Y7810D1*
X30191D1*
X30370Y8011D2*
X30326Y7997D1*
X30298Y7953D1*
X30283Y7882D1*
Y7839D1*
X30298Y7767D1*
X30326Y7724D1*
X30370Y7710D1*
X30398D1*
X30441Y7724D1*
X30470Y7767D1*
X30484Y7839D1*
Y7882D1*
X30470Y7953D1*
X30441Y7997D1*
X30398Y8011D1*
X30370D1*
X30470Y7953D2*
X30298Y7767D1*
X30577Y7953D2*
X30606Y7968D1*
X30649Y8011D1*
Y7710D1*
X31948Y6537D2*
Y6666D1*
X31934Y6709D1*
X31919Y6724D1*
X31891Y6738D1*
X31862D1*
X31834Y6724D1*
X31819Y6709D1*
X31805Y6666D1*
Y6537D1*
X32106D1*
X31948Y6638D2*
X32106Y6738D1*
Y6975D2*
X31805D1*
X32006Y6831D1*
Y7046D1*
X31805Y7225D2*
X31819Y7182D1*
X31862Y7153D1*
X31934Y7139D1*
X31977D1*
X32049Y7153D1*
X32092Y7182D1*
X32106Y7225D1*
Y7254D1*
X32092Y7297D1*
X32049Y7325D1*
X31977Y7340D1*
X31934D1*
X31862Y7325D1*
X31819Y7297D1*
X31805Y7254D1*
Y7225D1*
X31862Y7325D2*
X32049Y7153D1*
X31805Y7461D2*
Y7619D1*
X31920Y7533D1*
Y7576D1*
X31934Y7604D1*
X31948Y7619D1*
X31991Y7633D1*
X32020D1*
X32063Y7619D1*
X32092Y7590D1*
X32106Y7547D1*
Y7504D1*
X32092Y7461D1*
X32077Y7447D1*
X32049Y7432D1*
X639Y4630D2*
X768D1*
X811Y4645D1*
X826Y4659D1*
X840Y4688D1*
Y4717D1*
X826Y4745D1*
X811Y4760D1*
X768Y4774D1*
X639D1*
Y4473D1*
X740Y4630D2*
X840Y4473D1*
X1105Y4774D2*
X962D1*
X947Y4645D1*
X962Y4659D1*
X1005Y4674D1*
X1048D1*
X1091Y4659D1*
X1120Y4630D1*
X1134Y4587D1*
Y4559D1*
X1120Y4516D1*
X1091Y4487D1*
X1048Y4473D1*
X1005D1*
X962Y4487D1*
X947Y4501D1*
X933Y4530D1*
X1313Y4774D2*
X1270Y4759D1*
X1241Y4716D1*
X1226Y4645D1*
Y4602D1*
X1241Y4530D1*
X1270Y4487D1*
X1313Y4473D1*
X1341D1*
X1384Y4487D1*
X1413Y4530D1*
X1427Y4602D1*
Y4645D1*
X1413Y4716D1*
X1384Y4759D1*
X1341Y4774D1*
X1313D1*
X1413Y4716D2*
X1241Y4530D1*
X1520Y4716D2*
X1549Y4731D1*
X1592Y4774D1*
Y4473D1*
X4512Y4630D2*
X4641D1*
X4684Y4645D1*
X4699Y4659D1*
X4713Y4688D1*
Y4717D1*
X4699Y4745D1*
X4684Y4760D1*
X4641Y4774D1*
X4512D1*
Y4473D1*
X4613Y4630D2*
X4713Y4473D1*
X4978Y4774D2*
X4835D1*
X4820Y4645D1*
X4835Y4659D1*
X4878Y4674D1*
X4921D1*
X4964Y4659D1*
X4993Y4630D1*
X5007Y4587D1*
Y4559D1*
X4993Y4516D1*
X4964Y4487D1*
X4921Y4473D1*
X4878D1*
X4835Y4487D1*
X4820Y4501D1*
X4806Y4530D1*
X5186Y4774D2*
X5143Y4759D1*
X5114Y4716D1*
X5099Y4645D1*
Y4602D1*
X5114Y4530D1*
X5143Y4487D1*
X5186Y4473D1*
X5214D1*
X5257Y4487D1*
X5286Y4530D1*
X5300Y4602D1*
Y4645D1*
X5286Y4716D1*
X5257Y4759D1*
X5214Y4774D1*
X5186D1*
X5286Y4716D2*
X5114Y4530D1*
X5408Y4702D2*
Y4716D1*
X5422Y4745D1*
X5436Y4759D1*
X5465Y4774D1*
X5522D1*
X5551Y4759D1*
X5565Y4745D1*
X5580Y4716D1*
Y4688D1*
X5565Y4659D1*
X5537Y4616D1*
X5393Y4473D1*
X5594D1*
X34294Y6805D2*
X34423D1*
X34466Y6820D1*
X34480Y6834D1*
X34495Y6862D1*
Y6891D1*
X34480Y6920D1*
X34466Y6934D1*
X34423Y6949D1*
X34294D1*
Y6647D1*
X34394Y6805D2*
X34495Y6647D1*
X34759Y6948D2*
X34616D1*
X34602Y6819D1*
X34616Y6834D1*
X34659Y6848D1*
X34702D1*
X34745Y6834D1*
X34774Y6805D1*
X34788Y6762D1*
Y6733D1*
X34774Y6690D1*
X34745Y6661D1*
X34702Y6647D1*
X34659D1*
X34616Y6661D1*
X34602Y6676D1*
X34587Y6705D1*
X34967Y6948D2*
X34924Y6934D1*
X34895Y6891D1*
X34881Y6819D1*
Y6776D1*
X34895Y6705D1*
X34924Y6661D1*
X34967Y6647D1*
X34996D1*
X35039Y6661D1*
X35067Y6705D1*
X35082Y6776D1*
Y6819D1*
X35067Y6891D1*
X35039Y6934D1*
X34996Y6948D1*
X34967D1*
X35067Y6891D2*
X34895Y6705D1*
X35203Y6948D2*
X35361D1*
X35275Y6834D1*
X35318D1*
X35347Y6819D1*
X35361Y6805D1*
X35376Y6762D1*
Y6733D1*
X35361Y6690D1*
X35332Y6661D1*
X35289Y6647D1*
X35246D1*
X35203Y6661D1*
X35189Y6676D1*
X35175Y6705D1*
X1880Y4630D2*
X2009D1*
X2052Y4645D1*
X2067Y4659D1*
X2081Y4688D1*
Y4717D1*
X2067Y4745D1*
X2052Y4760D1*
X2009Y4774D1*
X1880D1*
Y4473D1*
X1981Y4630D2*
X2081Y4473D1*
X2346Y4774D2*
X2203D1*
X2188Y4645D1*
X2203Y4659D1*
X2246Y4674D1*
X2288D1*
X2332Y4659D1*
X2360Y4630D1*
X2375Y4587D1*
Y4559D1*
X2360Y4516D1*
X2332Y4487D1*
X2288Y4473D1*
X2246D1*
X2203Y4487D1*
X2188Y4501D1*
X2174Y4530D1*
X2554Y4774D2*
X2510Y4759D1*
X2482Y4716D1*
X2467Y4645D1*
Y4602D1*
X2482Y4530D1*
X2510Y4487D1*
X2554Y4473D1*
X2582D1*
X2625Y4487D1*
X2654Y4530D1*
X2668Y4602D1*
Y4645D1*
X2654Y4716D1*
X2625Y4759D1*
X2582Y4774D1*
X2554D1*
X2654Y4716D2*
X2482Y4530D1*
X2905Y4473D2*
Y4774D1*
X2761Y4573D1*
X2976D1*
X3200Y4630D2*
X3329D1*
X3372Y4645D1*
X3386Y4659D1*
X3401Y4688D1*
Y4717D1*
X3386Y4745D1*
X3372Y4760D1*
X3329Y4774D1*
X3200D1*
Y4473D1*
X3300Y4630D2*
X3401Y4473D1*
X3665Y4774D2*
X3522D1*
X3508Y4645D1*
X3522Y4659D1*
X3565Y4674D1*
X3608D1*
X3651Y4659D1*
X3680Y4630D1*
X3694Y4587D1*
Y4559D1*
X3680Y4516D1*
X3651Y4487D1*
X3608Y4473D1*
X3565D1*
X3522Y4487D1*
X3508Y4501D1*
X3493Y4530D1*
X3873Y4774D2*
X3830Y4759D1*
X3801Y4716D1*
X3787Y4645D1*
Y4602D1*
X3801Y4530D1*
X3830Y4487D1*
X3873Y4473D1*
X3902D1*
X3945Y4487D1*
X3973Y4530D1*
X3988Y4602D1*
Y4645D1*
X3973Y4716D1*
X3945Y4759D1*
X3902Y4774D1*
X3873D1*
X3973Y4716D2*
X3801Y4530D1*
X4253Y4774D2*
X4109D1*
X4095Y4645D1*
X4109Y4659D1*
X4153Y4674D1*
X4195D1*
X4238Y4659D1*
X4267Y4630D1*
X4282Y4587D1*
Y4559D1*
X4267Y4516D1*
X4238Y4487D1*
X4195Y4473D1*
X4153D1*
X4109Y4487D1*
X4095Y4501D1*
X4081Y4530D1*
X15533Y6103D2*
Y5887D1*
X15547Y5844D1*
X15576Y5816D1*
X15619Y5801D1*
X15648D1*
X15691Y5816D1*
X15720Y5844D1*
X15734Y5887D1*
Y6103D1*
X15827Y6045D2*
X15856Y6060D1*
X15899Y6102D1*
Y5801D1*
X16078Y6102D2*
X16034Y6088D1*
X16006Y6045D1*
X15991Y5973D1*
Y5930D1*
X16006Y5859D1*
X16034Y5816D1*
X16078Y5801D1*
X16106D1*
X16149Y5816D1*
X16178Y5859D1*
X16192Y5930D1*
Y5973D1*
X16178Y6045D1*
X16149Y6088D1*
X16106Y6102D1*
X16078D1*
X16178Y6045D2*
X16006Y5859D1*
X16285Y6045D2*
X16314Y6060D1*
X16357Y6102D1*
Y5801D1*
X51117Y4488D2*
X51332D1*
X51375Y4502D1*
X51404Y4531D1*
X51418Y4574D1*
Y4603D1*
X51404Y4646D1*
X51375Y4675D1*
X51332Y4689D1*
X51117D1*
X51189Y4796D2*
X51174D1*
X51146Y4811D1*
X51131Y4825D1*
X51117Y4854D1*
Y4911D1*
X51131Y4940D1*
X51146Y4954D1*
X51174Y4969D1*
X51203D1*
X51232Y4954D1*
X51275Y4925D1*
X51418Y4782D1*
Y4983D1*
X51117Y5162D2*
X51131Y5119D1*
X51174Y5090D1*
X51246Y5075D1*
X51289D1*
X51361Y5090D1*
X51404Y5119D1*
X51418Y5162D1*
Y5190D1*
X51404Y5233D1*
X51361Y5262D1*
X51289Y5276D1*
X51246D1*
X51174Y5262D1*
X51131Y5233D1*
X51117Y5190D1*
Y5162D1*
X51174Y5262D2*
X51361Y5090D1*
X51174Y5369D2*
X51160Y5398D1*
X51117Y5441D1*
X51418D1*
X46397Y10459D2*
Y10244D1*
X46411Y10201D1*
X46440Y10172D1*
X46483Y10158D1*
X46511D1*
X46554Y10172D1*
X46583Y10201D1*
X46598Y10244D1*
Y10459D1*
X46705Y10387D2*
Y10401D1*
X46719Y10430D1*
X46733Y10444D1*
X46762Y10459D1*
X46820D1*
X46848Y10444D1*
X46862Y10430D1*
X46877Y10401D1*
Y10373D1*
X46862Y10344D1*
X46834Y10301D1*
X46690Y10158D1*
X46891D1*
X47070Y10459D2*
X47027Y10444D1*
X46998Y10401D1*
X46984Y10330D1*
Y10287D1*
X46998Y10215D1*
X47027Y10172D1*
X47070Y10158D1*
X47099D1*
X47142Y10172D1*
X47170Y10215D1*
X47185Y10287D1*
Y10330D1*
X47170Y10401D1*
X47142Y10444D1*
X47099Y10459D1*
X47070D1*
X47170Y10401D2*
X46998Y10215D1*
X47292Y10387D2*
Y10401D1*
X47306Y10430D1*
X47321Y10444D1*
X47349Y10459D1*
X47407D1*
X47435Y10444D1*
X47450Y10430D1*
X47464Y10401D1*
Y10373D1*
X47450Y10344D1*
X47421Y10301D1*
X47277Y10158D1*
X47478D1*
X48041Y5763D2*
X48257D1*
X48300Y5777D1*
X48328Y5806D1*
X48343Y5849D1*
Y5878D1*
X48328Y5921D1*
X48300Y5949D1*
X48257Y5964D1*
X48041D1*
X48113Y6071D2*
X48099D1*
X48070Y6085D1*
X48056Y6099D1*
X48042Y6128D1*
Y6186D1*
X48056Y6214D1*
X48070Y6228D1*
X48099Y6243D1*
X48128D1*
X48156Y6228D1*
X48199Y6200D1*
X48343Y6056D1*
Y6257D1*
X48042Y6436D2*
X48056Y6393D1*
X48099Y6364D1*
X48171Y6350D1*
X48214D1*
X48285Y6364D1*
X48329Y6393D1*
X48343Y6436D1*
Y6465D1*
X48329Y6508D1*
X48285Y6536D1*
X48214Y6551D1*
X48171D1*
X48099Y6536D1*
X48056Y6508D1*
X48042Y6465D1*
Y6436D1*
X48099Y6536D2*
X48285Y6364D1*
X48042Y6672D2*
Y6830D1*
X48156Y6744D1*
Y6787D1*
X48171Y6816D1*
X48185Y6830D1*
X48228Y6845D1*
X48257D1*
X48300Y6830D1*
X48329Y6801D1*
X48343Y6758D1*
Y6715D1*
X48329Y6672D1*
X48314Y6658D1*
X48285Y6644D1*
X38948Y19852D2*
D112*
X38794Y20254D1*
X38641Y19852D1*
X38699Y19986D2*
X38890D1*
X39071Y20254D2*
Y19967D1*
X39090Y19910D1*
X39129Y19872D1*
X39186Y19852D1*
X39224D1*
X39282Y19872D1*
X39320Y19910D1*
X39339Y19967D1*
Y20254D1*
X39463D2*
X39731Y19852D1*
Y20254D2*
X39463Y19852D1*
X38641Y19192D2*
X38909D1*
X38641Y18790D1*
X38909D1*
X39339D2*
Y19192D1*
X39186Y18790D1*
X39033Y19192D1*
Y18790D1*
X39462Y19192D2*
Y18790D1*
X39854Y19192D2*
Y18790D1*
X39586Y19192D1*
Y18790D1*
X38909Y18134D2*
X38871Y18173D1*
X38814Y18192D1*
X38737D1*
X38680Y18173D1*
X38641Y18134D1*
Y18096D1*
X38661Y18058D1*
X38680Y18039D1*
X38718Y18020D1*
X38833Y17981D1*
X38871Y17962D1*
X38890Y17943D1*
X38909Y17905D1*
Y17847D1*
X38871Y17809D1*
X38814Y17790D1*
X38737D1*
X38680Y17809D1*
X38641Y17847D1*
X39339Y17790D2*
X39186Y18192D1*
X39033Y17790D1*
X39090Y17924D2*
X39282D1*
X39712Y18192D2*
X39463D1*
Y17790D1*
Y18000D2*
X39616D1*
X40084Y18192D2*
X39835D1*
Y17790D1*
X40084D1*
X39835Y18000D2*
X39988D1*
X38909Y17197D2*
X38871Y17235D1*
X38814Y17254D1*
X38737D1*
X38680Y17235D1*
X38641Y17197D1*
Y17159D1*
X38661Y17120D1*
X38680Y17101D1*
X38718Y17082D1*
X38833Y17044D1*
X38871Y17025D1*
X38890Y17005D1*
X38909Y16967D1*
Y16910D1*
X38871Y16872D1*
X38814Y16852D1*
X38737D1*
X38680Y16872D1*
X38641Y16910D1*
X39339Y16852D2*
X39186Y17254D1*
X39033Y16852D1*
X39090Y16986D2*
X39282D1*
X39712Y17254D2*
X39463D1*
Y16852D1*
Y17063D2*
X39616D1*
X40084Y17254D2*
X39835D1*
Y16852D1*
X40084D1*
X39835Y17063D2*
X39988D1*
X47858Y16907D2*
X47820Y16888D1*
X47781Y16850D1*
X47762Y16812D1*
Y16735D1*
X47781Y16697D1*
X47820Y16659D1*
X47858Y16639D1*
X47915Y16620D1*
X48011D1*
X48068Y16639D1*
X48107Y16659D1*
X48145Y16697D1*
X48164Y16735D1*
Y16812D1*
X48145Y16850D1*
X48107Y16888D1*
X48068Y16907D1*
X48011D1*
Y16812D1*
X48164Y17337D2*
X47762Y17184D1*
X48164Y17031D1*
X48030Y17088D2*
Y17280D1*
X47762Y17461D2*
X48164D1*
Y17690D1*
X47762Y17814D2*
X48164Y17967D1*
X47762Y18120D1*
Y18358D2*
X47781Y18320D1*
X47820Y18282D1*
X47858Y18262D1*
X47915Y18243D1*
X48011D1*
X48068Y18262D1*
X48107Y18282D1*
X48145Y18320D1*
X48164Y18358D1*
Y18435D1*
X48145Y18473D1*
X48107Y18511D1*
X48068Y18530D1*
X48011Y18549D1*
X47915D1*
X47858Y18530D1*
X47820Y18511D1*
X47781Y18473D1*
X47762Y18435D1*
Y18358D1*
X47964Y18673D2*
Y18894D1*
X47762Y19017D2*
X48164Y19285D1*
X47762D2*
X48164Y19017D1*
X51920Y16970D2*
X51882Y16951D1*
X51844Y16912D1*
X51825Y16874D1*
Y16798D1*
X51844Y16759D1*
X51882Y16721D1*
X51920Y16702D1*
X51978Y16683D1*
X52074D1*
X52131Y16702D1*
X52169Y16721D1*
X52207Y16759D1*
X52227Y16798D1*
Y16874D1*
X52207Y16912D1*
X52169Y16951D1*
X52131Y16970D1*
X52074D1*
Y16874D1*
X52227Y17400D2*
X51825Y17246D1*
X52227Y17093D1*
X52093Y17151D2*
Y17342D1*
X51825Y17523D2*
X52227D1*
Y17753D1*
X51825Y17876D2*
X52227Y18029D1*
X51825Y18182D1*
Y18421D2*
X51844Y18382D1*
X51882Y18344D1*
X51920Y18325D1*
X51978Y18306D1*
X52074D1*
X52131Y18325D1*
X52169Y18344D1*
X52207Y18382D1*
X52227Y18421D1*
Y18497D1*
X52207Y18535D1*
X52169Y18574D1*
X52131Y18593D1*
X52074Y18612D1*
X51978D1*
X51920Y18593D1*
X51882Y18574D1*
X51844Y18535D1*
X51825Y18497D1*
Y18421D1*
X52026Y18735D2*
Y18956D1*
X51825Y19080D2*
X52016Y19233D1*
X52227D1*
X51825Y19386D2*
X52016Y19233D1*
X40733Y15913D2*
X40694Y15875D1*
X40675Y15817D1*
Y15741D1*
X40694Y15683D1*
X40733Y15645D1*
X40771D1*
X40809Y15664D1*
X40828Y15683D1*
X40847Y15721D1*
X40886Y15836D1*
X40905Y15875D1*
X40924Y15894D1*
X40962Y15913D1*
X41020D1*
X41058Y15875D1*
X41077Y15817D1*
Y15741D1*
X41058Y15683D1*
X41020Y15645D1*
X29726Y2428D2*
Y2026D1*
X29592Y2428D2*
X29860D1*
X30118D2*
Y2026D1*
X29984Y2428D2*
X30252D1*
X30375D2*
Y2026D1*
X30605D1*
X32664Y2428D2*
Y2026D1*
X32530Y2428D2*
X32798D1*
X33170D2*
X32921D1*
Y2026D1*
X33170D1*
X32921Y2236D2*
X33074D1*
X33599Y2026D2*
Y2428D1*
X33446Y2026D1*
X33293Y2428D1*
Y2026D1*
X33723Y2217D2*
X33895D1*
X33952Y2236D1*
X33972Y2256D1*
X33991Y2294D1*
Y2351D1*
X33972Y2389D1*
X33952Y2409D1*
X33895Y2428D1*
X33723D1*
Y2026D1*
X7093Y18119D2*
X7074Y18157D1*
X7036Y18195D1*
X6998Y18214D1*
X6921D1*
X6883Y18195D1*
X6845Y18157D1*
X6825Y18119D1*
X6806Y18061D1*
Y17965D1*
X6825Y17908D1*
X6845Y17870D1*
X6883Y17832D1*
X6921Y17812D1*
X6998D1*
X7036Y17832D1*
X7074Y17870D1*
X7093Y17908D1*
Y17965D1*
X6998D1*
X7523Y17812D2*
X7370Y18214D1*
X7217Y17812D1*
X7274Y17946D2*
X7466D1*
X7647Y18214D2*
Y17812D1*
X7876D1*
X8000Y18214D2*
X8153Y17812D1*
X8306Y18214D1*
X8544D2*
X8506Y18195D1*
X8468Y18157D1*
X8448Y18119D1*
X8429Y18061D1*
Y17965D1*
X8448Y17908D1*
X8468Y17870D1*
X8506Y17832D1*
X8544Y17812D1*
X8621D1*
X8659Y17832D1*
X8697Y17870D1*
X8716Y17908D1*
X8735Y17965D1*
Y18061D1*
X8716Y18119D1*
X8697Y18157D1*
X8659Y18195D1*
X8621Y18214D1*
X8544D1*
X8859Y18013D2*
X9080D1*
X9203Y18004D2*
X9376D1*
X9433Y18023D1*
X9452Y18042D1*
X9471Y18080D1*
Y18138D1*
X9452Y18176D1*
X9433Y18195D1*
X9376Y18214D1*
X9203D1*
Y17812D1*
X9710Y18214D2*
X9671Y18195D1*
X9633Y18157D1*
X9614Y18119D1*
X9595Y18061D1*
Y17965D1*
X9614Y17908D1*
X9633Y17870D1*
X9671Y17832D1*
X9710Y17812D1*
X9786D1*
X9824Y17832D1*
X9863Y17870D1*
X9882Y17908D1*
X9901Y17965D1*
Y18061D1*
X9882Y18119D1*
X9863Y18157D1*
X9824Y18195D1*
X9786Y18214D1*
X9710D1*
X10024D2*
X10120Y17812D1*
X10216Y18214D1*
X10311Y17812D1*
X10407Y18214D1*
X10779D2*
X10531D1*
Y17812D1*
X10779D1*
X10531Y18023D2*
X10684D1*
X10903D2*
X11075D1*
X11132Y18042D1*
X11151Y18061D1*
X11170Y18099D1*
Y18138D1*
X11151Y18176D1*
X11132Y18195D1*
X11075Y18214D1*
X10903D1*
Y17812D1*
X11036Y18023D2*
X11170Y17812D1*
X24321Y11950D2*
X24282Y11912D1*
X24263Y11854D1*
Y11778D1*
X24282Y11720D1*
X24321Y11682D1*
X24359D1*
X24397Y11701D1*
X24416Y11720D1*
X24435Y11758D1*
X24474Y11873D1*
X24493Y11912D1*
X24512Y11931D1*
X24550Y11950D1*
X24608D1*
X24646Y11912D1*
X24665Y11854D1*
Y11778D1*
X24646Y11720D1*
X24608Y11682D1*
X24263Y12207D2*
X24665D1*
X24263Y12073D2*
Y12341D1*
Y12713D2*
Y12465D1*
X24665D1*
Y12713D1*
X24455Y12465D2*
Y12618D1*
X24474Y12837D2*
Y13009D1*
X24455Y13066D1*
X24435Y13086D1*
X24397Y13105D1*
X24340D1*
X24302Y13086D1*
X24282Y13066D1*
X24263Y13009D1*
Y12837D1*
X24665D1*
X24474Y13228D2*
Y13401D1*
X24455Y13458D1*
X24435Y13477D1*
X24397Y13496D1*
X24340D1*
X24302Y13477D1*
X24282Y13458D1*
X24263Y13401D1*
Y13228D1*
X24665D1*
X24263Y13868D2*
Y13620D1*
X24665D1*
Y13868D1*
X24455Y13620D2*
Y13773D1*
Y13992D2*
Y14164D1*
X24435Y14221D1*
X24416Y14241D1*
X24378Y14260D1*
X24340D1*
X24302Y14241D1*
X24282Y14221D1*
X24263Y14164D1*
Y13992D1*
X24665D1*
X24455Y14126D2*
X24665Y14260D1*
X34591Y9678D2*
X34342D1*
Y9276D1*
X34591D1*
X34342Y9486D2*
X34495D1*
X34982Y9678D2*
Y9276D1*
X34714Y9678D1*
Y9276D1*
X34342Y9783D2*
X35106D1*
X1278Y15119D2*
X1258Y15158D1*
X1201Y15215D1*
X1603D1*
X1297Y15358D2*
X1278D1*
X1239Y15377D1*
X1220Y15396D1*
X1201Y15435D1*
Y15511D1*
X1220Y15549D1*
X1239Y15568D1*
X1278Y15588D1*
X1316D1*
X1354Y15568D1*
X1411Y15530D1*
X1603Y15339D1*
Y15607D1*
X1201Y15730D2*
X1603Y15883D1*
X1201Y16036D1*
X3403Y15119D2*
X3383Y15158D1*
X3326Y15215D1*
X3728D1*
X3422Y15358D2*
X3403D1*
X3364Y15377D1*
X3345Y15396D1*
X3326Y15435D1*
Y15511D1*
X3345Y15549D1*
X3364Y15568D1*
X3403Y15588D1*
X3441D1*
X3479Y15568D1*
X3536Y15530D1*
X3728Y15339D1*
Y15607D1*
X3326Y15730D2*
X3728Y15883D1*
X3326Y16036D1*
X2263Y15119D2*
X2665D1*
X2263Y15387D2*
X2665D1*
X2455Y15119D2*
Y15387D1*
X2263Y15759D2*
Y15511D1*
X2665D1*
Y15759D1*
X2455Y15511D2*
Y15664D1*
X2665Y16189D2*
X2263Y16036D1*
X2665Y15883D1*
X2531Y15940D2*
Y16132D1*
X2263Y16447D2*
X2665D1*
X2263Y16313D2*
Y16581D1*
X4599Y15119D2*
Y15292D1*
X4580Y15349D1*
X4560Y15368D1*
X4522Y15387D1*
X4465D1*
X4427Y15368D1*
X4407Y15349D1*
X4388Y15292D1*
Y15119D1*
X4790D1*
X4388Y15511D2*
X4675D1*
X4733Y15530D1*
X4771Y15568D1*
X4790Y15626D1*
Y15664D1*
X4771Y15721D1*
X4733Y15760D1*
X4675Y15779D1*
X4388D1*
X4790Y16208D2*
X4388D1*
X4790Y16055D1*
X4388Y15902D1*
X4790D1*
X4599Y16332D2*
Y16504D1*
X4580Y16561D1*
X4560Y16581D1*
X4522Y16600D1*
X4465D1*
X4427Y16581D1*
X4407Y16561D1*
X4388Y16504D1*
Y16332D1*
X4790D1*
X24905Y2428D2*
Y2026D1*
X25134D1*
X25564D2*
X25411Y2428D1*
X25258Y2026D1*
X25315Y2160D2*
X25507D1*
X25956Y2370D2*
X25918Y2409D1*
X25860Y2428D1*
X25784D1*
X25726Y2409D1*
X25688Y2370D1*
Y2332D1*
X25707Y2294D1*
X25726Y2275D1*
X25764Y2256D1*
X25879Y2217D1*
X25918Y2198D1*
X25937Y2179D1*
X25956Y2141D1*
Y2083D1*
X25918Y2045D1*
X25860Y2026D1*
X25784D1*
X25726Y2045D1*
X25688Y2083D1*
X26328Y2428D2*
X26079D1*
Y2026D1*
X26328D1*
X26079Y2236D2*
X26232D1*
X26451D2*
X26623D1*
X26681Y2256D1*
X26700Y2275D1*
X26719Y2313D1*
Y2351D1*
X26700Y2389D1*
X26681Y2409D1*
X26623Y2428D1*
X26451D1*
Y2026D1*
X26585Y2236D2*
X26719Y2026D1*
X27232Y2351D2*
X27270Y2370D1*
X27327Y2427D1*
Y2026D1*
X27470Y2332D2*
Y2351D1*
X27489Y2389D1*
X27508Y2408D1*
X27547Y2427D1*
X27623D1*
X27661Y2408D1*
X27680Y2389D1*
X27700Y2351D1*
Y2313D1*
X27680Y2274D1*
X27642Y2217D1*
X27451Y2026D1*
X27719D1*
X27842Y2428D2*
X27995Y2026D1*
X28148Y2428D1*
X43129Y6082D2*
X43110Y6120D1*
X43072Y6159D1*
X43034Y6178D1*
X42957D1*
X42919Y6159D1*
X42881Y6120D1*
X42861Y6082D1*
X42842Y6025D1*
Y5929D1*
X42861Y5872D1*
X42881Y5833D1*
X42919Y5795D1*
X42957Y5776D1*
X43034D1*
X43072Y5795D1*
X43110Y5833D1*
X43129Y5872D1*
X43521Y6120D2*
X43483Y6159D1*
X43425Y6178D1*
X43349D1*
X43291Y6159D1*
X43253Y6120D1*
Y6082D1*
X43272Y6044D1*
X43291Y6025D1*
X43329Y6006D1*
X43444Y5967D1*
X43483Y5948D1*
X43502Y5929D1*
X43521Y5891D1*
Y5833D1*
X43483Y5795D1*
X43425Y5776D1*
X43349D1*
X43291Y5795D1*
X43253Y5833D1*
X43129Y5082D2*
X43110Y5120D1*
X43072Y5159D1*
X43034Y5178D1*
X42957D1*
X42919Y5159D1*
X42881Y5120D1*
X42861Y5082D1*
X42842Y5025D1*
Y4929D1*
X42861Y4872D1*
X42881Y4833D1*
X42919Y4795D1*
X42957Y4776D1*
X43034D1*
X43072Y4795D1*
X43110Y4833D1*
X43129Y4872D1*
X43253Y5178D2*
Y4776D1*
X43521Y5178D2*
X43253Y4910D1*
X43348Y5006D2*
X43521Y4776D1*
X43110Y4120D2*
X43072Y4159D1*
X43015Y4178D1*
X42938D1*
X42881Y4159D1*
X42842Y4120D1*
Y4082D1*
X42862Y4044D1*
X42881Y4025D1*
X42919Y4006D1*
X43034Y3967D1*
X43072Y3948D1*
X43091Y3929D1*
X43110Y3891D1*
Y3833D1*
X43072Y3795D1*
X43015Y3776D1*
X42938D1*
X42881Y3795D1*
X42842Y3833D1*
X43234Y4178D2*
Y3776D1*
X43110Y3120D2*
X43072Y3159D1*
X43015Y3178D1*
X42938D1*
X42881Y3159D1*
X42842Y3120D1*
Y3082D1*
X42862Y3044D1*
X42881Y3025D1*
X42919Y3006D1*
X43034Y2967D1*
X43072Y2948D1*
X43091Y2929D1*
X43110Y2891D1*
Y2833D1*
X43072Y2795D1*
X43015Y2776D1*
X42938D1*
X42881Y2795D1*
X42842Y2833D1*
X43349Y3178D2*
X43310Y3159D1*
X43272Y3120D1*
X43253Y3082D1*
X43234Y3025D1*
Y2929D1*
X43253Y2872D1*
X43272Y2833D1*
X43310Y2795D1*
X43349Y2776D1*
X43425D1*
X43463Y2795D1*
X43502Y2833D1*
X43521Y2872D1*
X43540Y2929D1*
Y3025D1*
X43521Y3082D1*
X43502Y3120D1*
X43463Y3159D1*
X43425Y3178D1*
X43349D1*
X41965Y15682D2*
Y15903D1*
X42919Y15790D2*
X43263D1*
X43091Y15618D2*
Y15962D1*
X48688Y17163D2*
Y16818D1*
X48516Y16990D2*
X48861D1*
X48579Y17928D2*
X48800D1*
X48866Y19159D2*
X48847Y19197D1*
X48808Y19235D1*
X48770Y19254D1*
X48694D1*
X48655Y19235D1*
X48617Y19197D1*
X48598Y19159D1*
X48579Y19101D1*
Y19005D1*
X48598Y18948D1*
X48617Y18910D1*
X48655Y18872D1*
X48694Y18852D1*
X48770D1*
X48808Y18872D1*
X48847Y18910D1*
X48866Y18948D1*
Y19005D1*
X48770D1*
X33928Y3596D2*
X33909Y3634D1*
X33871Y3673D1*
X33833Y3692D1*
X33756D1*
X33718Y3673D1*
X33680Y3634D1*
X33660Y3596D1*
X33641Y3539D1*
Y3443D1*
X33660Y3386D1*
X33680Y3347D1*
X33718Y3309D1*
X33756Y3290D1*
X33833D1*
X33871Y3309D1*
X33909Y3347D1*
X33928Y3386D1*
Y3443D1*
X33833D1*
X32909Y3634D2*
X32871Y3673D1*
X32814Y3692D1*
X32737D1*
X32680Y3673D1*
X32641Y3634D1*
Y3596D1*
X32661Y3558D1*
X32680Y3539D1*
X32718Y3520D1*
X32833Y3481D1*
X32871Y3462D1*
X32890Y3443D1*
X32909Y3405D1*
Y3347D1*
X32871Y3309D1*
X32814Y3290D1*
X32737D1*
X32680Y3309D1*
X32641Y3347D1*
X7840Y6494D2*
X7821Y6533D1*
X7764Y6590D1*
X8165D1*
X7764Y6943D2*
Y6752D1*
X7936Y6733D1*
X7917Y6752D1*
X7897Y6810D1*
Y6867D1*
X7917Y6924D1*
X7955Y6963D1*
X8012Y6982D1*
X8050D1*
X8108Y6963D1*
X8146Y6924D1*
X8165Y6867D1*
Y6810D1*
X8146Y6752D1*
X8127Y6733D1*
X8089Y6714D1*
X7763Y7105D2*
X8165Y7258D1*
X7763Y7411D1*
X9964Y6119D2*
Y6340D1*
X9840Y6464D2*
X9821Y6502D1*
X9764Y6560D1*
X10165D1*
X9764Y6913D2*
Y6722D1*
X9936Y6703D1*
X9917Y6722D1*
X9897Y6779D1*
Y6836D1*
X9917Y6894D1*
X9955Y6932D1*
X10012Y6951D1*
X10050D1*
X10108Y6932D1*
X10146Y6894D1*
X10165Y6836D1*
Y6779D1*
X10146Y6722D1*
X10127Y6703D1*
X10089Y6683D1*
X9763Y7075D2*
X10165Y7228D1*
X9763Y7381D1*
X8859Y6594D2*
X8821Y6575D1*
X8782Y6536D1*
X8763Y6498D1*
Y6422D1*
X8782Y6383D1*
X8821Y6345D1*
X8859Y6326D1*
X8916Y6307D1*
X9012D1*
X9069Y6326D1*
X9108Y6345D1*
X9146Y6383D1*
X9165Y6422D1*
Y6498D1*
X9146Y6536D1*
X9108Y6575D1*
X9069Y6594D1*
X9012D1*
Y6498D1*
X8763Y6985D2*
X9165D1*
X8763Y6717D1*
X9165D1*
X8763Y7109D2*
X9165D1*
Y7243D1*
X9146Y7300D1*
X9108Y7339D1*
X9069Y7358D1*
X9012Y7377D1*
X8916D1*
X8859Y7358D1*
X8821Y7339D1*
X8782Y7300D1*
X8763Y7243D1*
Y7109D1*
X27141Y14615D2*
X27180Y14634D1*
X27237Y14691D1*
Y14290D1*
X27361Y14692D2*
Y14290D1*
X27533D1*
X27591Y14309D1*
X27610Y14328D1*
X27629Y14366D1*
Y14424D1*
X27610Y14462D1*
X27591Y14481D1*
X27533Y14500D1*
X27591Y14520D1*
X27610Y14539D1*
X27629Y14577D1*
Y14615D1*
X27610Y14653D1*
X27591Y14673D1*
X27533Y14692D1*
X27361D1*
Y14500D2*
X27533D1*
X27141Y13552D2*
X27180Y13572D1*
X27237Y13629D1*
Y13227D1*
X27667D2*
X27514Y13629D1*
X27361Y13227D1*
X27418Y13361D2*
X27610D1*
X27161Y12533D2*
Y12552D1*
X27180Y12591D1*
X27199Y12610D1*
X27237Y12629D1*
X27314D1*
X27352Y12610D1*
X27371Y12591D1*
X27390Y12552D1*
Y12514D1*
X27371Y12476D1*
X27333Y12419D1*
X27141Y12227D1*
X27409D1*
X27839D2*
X27686Y12629D1*
X27533Y12227D1*
X27590Y12361D2*
X27782D1*
X27161Y11533D2*
Y11552D1*
X27180Y11591D1*
X27199Y11610D1*
X27237Y11629D1*
X27314D1*
X27352Y11610D1*
X27371Y11591D1*
X27390Y11552D1*
Y11514D1*
X27371Y11476D1*
X27333Y11419D1*
X27141Y11227D1*
X27409D1*
X27533Y11629D2*
Y11227D1*
X27705D1*
X27763Y11247D1*
X27782Y11266D1*
X27801Y11304D1*
Y11361D1*
X27782Y11400D1*
X27763Y11419D1*
X27705Y11438D1*
X27763Y11457D1*
X27782Y11476D1*
X27801Y11514D1*
Y11553D1*
X27782Y11591D1*
X27763Y11610D1*
X27705Y11629D1*
X27533D1*
Y11438D2*
X27705D1*
X44626Y17100D2*
Y16756D1*
X44454Y16928D2*
X44798D1*
X44516Y17865D2*
X44737D1*
X44803Y19096D2*
X44784Y19134D1*
X44746Y19173D1*
X44708Y19192D1*
X44631D1*
X44593Y19173D1*
X44555Y19134D1*
X44535Y19096D1*
X44516Y19039D1*
Y18943D1*
X44535Y18886D1*
X44555Y18847D1*
X44593Y18809D1*
X44631Y18790D1*
X44708D1*
X44746Y18809D1*
X44784Y18847D1*
X44803Y18886D1*
Y18943D1*
X44708D1*
X24954Y14692D2*
Y14290D1*
X25126D1*
X25184Y14309D1*
X25203Y14328D1*
X25222Y14366D1*
Y14424D1*
X25203Y14462D1*
X25184Y14481D1*
X25126Y14500D1*
X25184Y14520D1*
X25203Y14539D1*
X25222Y14577D1*
Y14615D1*
X25203Y14653D1*
X25184Y14673D1*
X25126Y14692D1*
X24954D1*
Y14500D2*
X25126D1*
X25345Y14692D2*
Y14290D1*
X25613Y14692D2*
X25345Y14424D1*
X25441Y14520D2*
X25613Y14290D1*
X25241Y13534D2*
X25222Y13572D1*
X25183Y13610D1*
X25145Y13629D1*
X25069D1*
X25030Y13610D1*
X24992Y13572D1*
X24973Y13534D1*
X24954Y13476D1*
Y13380D1*
X24973Y13323D1*
X24992Y13285D1*
X25030Y13247D1*
X25069Y13227D1*
X25145D1*
X25183Y13247D1*
X25222Y13285D1*
X25241Y13323D1*
Y13380D1*
X25145D1*
X24954Y12438D2*
X25126D1*
X25183Y12457D1*
X25203Y12476D1*
X25222Y12514D1*
Y12553D1*
X25203Y12591D1*
X25183Y12610D1*
X25126Y12629D1*
X24954D1*
Y12227D1*
X25088Y12438D2*
X25222Y12227D1*
X24954Y11629D2*
Y11227D1*
X25126D1*
X25184Y11247D1*
X25203Y11266D1*
X25222Y11304D1*
Y11361D1*
X25203Y11400D1*
X25184Y11419D1*
X25126Y11438D1*
X25184Y11457D1*
X25203Y11476D1*
X25222Y11514D1*
Y11553D1*
X25203Y11591D1*
X25184Y11610D1*
X25126Y11629D1*
X24954D1*
Y11438D2*
X25126D1*
X25345Y11629D2*
Y11227D1*
X25575D1*
X34648Y10276D2*
Y10678D1*
X34495Y10276D1*
X34342Y10678D1*
Y10276D1*
X35040Y10620D2*
X35002Y10659D1*
X34944Y10678D1*
X34868D1*
X34810Y10659D1*
X34772Y10620D1*
Y10582D1*
X34791Y10544D1*
X34810Y10525D1*
X34848Y10506D1*
X34963Y10467D1*
X35002Y10448D1*
X35021Y10429D1*
X35040Y10391D1*
Y10333D1*
X35002Y10295D1*
X34944Y10276D1*
X34868D1*
X34810Y10295D1*
X34772Y10333D1*
X35163Y10601D2*
X35202Y10620D1*
X35259Y10677D1*
Y10276D1*
X34648Y11276D2*
Y11678D1*
X34495Y11276D1*
X34342Y11678D1*
Y11276D1*
X35040Y11620D2*
X35002Y11659D1*
X34944Y11678D1*
X34868D1*
X34810Y11659D1*
X34772Y11620D1*
Y11582D1*
X34791Y11544D1*
X34810Y11525D1*
X34848Y11506D1*
X34963Y11467D1*
X35002Y11448D1*
X35021Y11429D1*
X35040Y11391D1*
Y11333D1*
X35002Y11295D1*
X34944Y11276D1*
X34868D1*
X34810Y11295D1*
X34772Y11333D1*
X35183Y11582D2*
Y11601D1*
X35202Y11639D1*
X35221Y11658D1*
X35259Y11677D1*
X35336D1*
X35374Y11658D1*
X35393Y11639D1*
X35412Y11601D1*
Y11563D1*
X35393Y11524D1*
X35355Y11467D1*
X35163Y11276D1*
X35431D1*
X34648Y12276D2*
Y12678D1*
X34495Y12276D1*
X34342Y12678D1*
Y12276D1*
X35040Y12620D2*
X35002Y12659D1*
X34944Y12678D1*
X34868D1*
X34810Y12659D1*
X34772Y12620D1*
Y12582D1*
X34791Y12544D1*
X34810Y12525D1*
X34848Y12506D1*
X34963Y12467D1*
X35002Y12448D1*
X35021Y12429D1*
X35040Y12391D1*
Y12333D1*
X35002Y12295D1*
X34944Y12276D1*
X34868D1*
X34810Y12295D1*
X34772Y12333D1*
X35202Y12677D2*
X35412D1*
X35297Y12524D1*
X35355D1*
X35393Y12505D1*
X35412Y12486D1*
X35431Y12429D1*
Y12391D1*
X35412Y12333D1*
X35374Y12295D1*
X35316Y12276D1*
X35259D1*
X35202Y12295D1*
X35183Y12314D1*
X35163Y12352D1*
X34342Y13486D2*
X34514D1*
X34572Y13506D1*
X34591Y13525D1*
X34610Y13563D1*
Y13601D1*
X34591Y13639D1*
X34572Y13659D1*
X34514Y13678D1*
X34342D1*
Y13276D1*
X34476Y13486D2*
X34610Y13276D1*
X35002Y13620D2*
X34964Y13659D1*
X34906Y13678D1*
X34830D1*
X34772Y13659D1*
X34734Y13620D1*
Y13582D1*
X34753Y13544D1*
X34772Y13525D1*
X34810Y13506D1*
X34925Y13467D1*
X34964Y13448D1*
X34983Y13429D1*
X35002Y13391D1*
Y13333D1*
X34964Y13295D1*
X34906Y13276D1*
X34830D1*
X34772Y13295D1*
X34734Y13333D1*
X35259Y13678D2*
Y13276D1*
X35125Y13678D2*
X35393D1*
X34342Y13783D2*
X35517D1*
X34610Y14620D2*
X34572Y14659D1*
X34515Y14678D1*
X34438D1*
X34381Y14659D1*
X34342Y14620D1*
Y14582D1*
X34362Y14544D1*
X34381Y14525D1*
X34419Y14506D1*
X34534Y14467D1*
X34572Y14448D1*
X34591Y14429D1*
X34610Y14391D1*
Y14333D1*
X34572Y14295D1*
X34515Y14276D1*
X34438D1*
X34381Y14295D1*
X34342Y14333D1*
X34734Y14678D2*
Y14276D1*
X34963D1*
X35087Y14467D2*
X35259D1*
X35316Y14486D1*
X35336Y14506D1*
X35355Y14544D1*
Y14601D1*
X35336Y14639D1*
X35316Y14659D1*
X35259Y14678D1*
X35087D1*
Y14276D1*
X34342Y14783D2*
X35478D1*
X34610Y15620D2*
X34572Y15659D1*
X34515Y15678D1*
X34438D1*
X34381Y15659D1*
X34342Y15620D1*
Y15582D1*
X34362Y15544D1*
X34381Y15525D1*
X34419Y15506D1*
X34534Y15467D1*
X34572Y15448D1*
X34591Y15429D1*
X34610Y15391D1*
Y15333D1*
X34572Y15295D1*
X34515Y15276D1*
X34438D1*
X34381Y15295D1*
X34342Y15333D1*
X34868Y15678D2*
Y15276D1*
X34734Y15678D2*
X35002D1*
X35374D2*
X35125D1*
Y15276D1*
X35374D1*
X35125Y15486D2*
X35278D1*
X35497Y15467D2*
X35670D1*
X35727Y15486D1*
X35746Y15506D1*
X35765Y15544D1*
Y15601D1*
X35746Y15639D1*
X35727Y15659D1*
X35670Y15678D1*
X35497D1*
Y15276D1*
X34342Y16678D2*
Y16276D1*
X34476D1*
X34534Y16295D1*
X34572Y16333D1*
X34591Y16372D1*
X34610Y16429D1*
Y16525D1*
X34591Y16582D1*
X34572Y16620D1*
X34534Y16659D1*
X34476Y16678D1*
X34342D1*
X34734D2*
Y16276D1*
X34857Y16486D2*
X35029D1*
X35087Y16506D1*
X35106Y16525D1*
X35125Y16563D1*
Y16601D1*
X35106Y16639D1*
X35087Y16659D1*
X35029Y16678D1*
X34857D1*
Y16276D1*
X34991Y16486D2*
X35125Y16276D1*
X26780Y9601D2*
X26818Y9620D1*
X26876Y9677D1*
Y9276D1*
X27019Y9582D2*
Y9601D1*
X27038Y9639D1*
X27057Y9658D1*
X27095Y9677D1*
X27172D1*
X27210Y9658D1*
X27229Y9639D1*
X27248Y9601D1*
Y9563D1*
X27229Y9524D1*
X27191Y9467D1*
X26999Y9276D1*
X27267D1*
X27391Y9678D2*
X27544Y9276D1*
X27697Y9678D1*
X27379Y10582D2*
X27360Y10620D1*
X27322Y10659D1*
X27284Y10678D1*
X27207D1*
X27169Y10659D1*
X27131Y10620D1*
X27111Y10582D1*
X27092Y10525D1*
Y10429D1*
X27111Y10372D1*
X27131Y10333D1*
X27169Y10295D1*
X27207Y10276D1*
X27284D1*
X27322Y10295D1*
X27360Y10333D1*
X27379Y10372D1*
Y10429D1*
X27284D1*
X27322Y15677D2*
X27131D1*
X27112Y15505D1*
X27131Y15524D1*
X27188Y15544D1*
X27245D1*
X27303Y15524D1*
X27341Y15486D1*
X27360Y15429D1*
Y15391D1*
X27341Y15333D1*
X27303Y15295D1*
X27245Y15276D1*
X27188D1*
X27131Y15295D1*
X27112Y15314D1*
X27092Y15352D1*
X27484Y15678D2*
X27637Y15276D1*
X27790Y15678D1*
X27379Y16582D2*
X27360Y16620D1*
X27322Y16659D1*
X27284Y16678D1*
X27207D1*
X27169Y16659D1*
X27131Y16620D1*
X27111Y16582D1*
X27092Y16525D1*
Y16429D1*
X27111Y16372D1*
X27131Y16333D1*
X27169Y16295D1*
X27207Y16276D1*
X27284D1*
X27322Y16295D1*
X27360Y16333D1*
X27379Y16372D1*
Y16429D1*
X27284D1*
X39723Y4535D2*
X40125D1*
Y4765D1*
X39819Y5175D2*
X39781Y5156D1*
X39743Y5118D1*
X39723Y5080D1*
Y5003D1*
X39743Y4965D1*
X39781Y4927D1*
X39819Y4907D1*
X39876Y4888D1*
X39972D1*
X40029Y4907D1*
X40068Y4927D1*
X40106Y4965D1*
X40125Y5003D1*
Y5080D1*
X40106Y5118D1*
X40068Y5156D1*
X40029Y5175D1*
X39723Y5299D2*
X40125D1*
Y5433D1*
X40106Y5490D1*
X40068Y5529D1*
X40029Y5548D1*
X39972Y5567D1*
X39876D1*
X39819Y5548D1*
X39781Y5529D1*
X39743Y5490D1*
X39723Y5433D1*
Y5299D1*
Y11536D2*
X40125D1*
Y11765D1*
X39819Y12176D2*
X39781Y12157D1*
X39743Y12118D1*
X39723Y12080D1*
Y12004D1*
X39743Y11965D1*
X39781Y11927D1*
X39819Y11908D1*
X39876Y11889D1*
X39972D1*
X40029Y11908D1*
X40068Y11927D1*
X40106Y11965D1*
X40125Y12004D1*
Y12080D1*
X40106Y12118D1*
X40068Y12157D1*
X40029Y12176D1*
X39723Y12299D2*
X40125D1*
Y12433D1*
X40106Y12491D1*
X40068Y12529D1*
X40029Y12548D1*
X39972Y12567D1*
X39876D1*
X39819Y12548D1*
X39781Y12529D1*
X39743Y12491D1*
X39723Y12433D1*
Y12299D1*
X42904Y14172D2*
X42866Y14153D1*
X42828Y14114D1*
X42809Y14076D1*
Y14000D1*
X42828Y13961D1*
X42866Y13923D1*
X42904Y13904D1*
X42962Y13885D1*
X43058D1*
X43115Y13904D1*
X43153Y13923D1*
X43191Y13961D1*
X43211Y14000D1*
Y14076D1*
X43191Y14114D1*
X43153Y14153D1*
X43115Y14172D1*
X43058D1*
Y14076D1*
X42779Y7131D2*
X42741Y7112D1*
X42703Y7074D1*
X42684Y7036D1*
Y6959D1*
X42703Y6921D1*
X42741Y6883D1*
X42779Y6863D1*
X42837Y6844D1*
X42933D1*
X42990Y6863D1*
X43028Y6883D1*
X43066Y6921D1*
X43086Y6959D1*
Y7036D1*
X43066Y7074D1*
X43028Y7112D1*
X42990Y7131D1*
X42933D1*
Y7036D1*
M02*
