G04 DipTrace 2.4.0.2*
%INBottomMask.gbr*%
%MOIN*%
%ADD35R,0.0709X0.0709*%
%ADD36C,0.0709*%
%ADD44R,0.0748X0.0748*%
%ADD45C,0.0748*%
%ADD49C,0.0591*%
%ADD81C,0.0828*%
%ADD82R,0.0828X0.0828*%
%ADD87O,0.0828X0.1064*%
%ADD89R,0.0828X0.1064*%
%ADD93C,0.0789*%
%ADD94R,0.0789X0.0789*%
%FSLAX44Y44*%
G04*
G70*
G90*
G75*
G01*
%LNBotMask*%
%LPD*%
D44*
X11000Y1000D3*
D45*
X12000D3*
X13000D3*
X14000D3*
X15000D3*
X16000D3*
X17000D3*
X18000D3*
D44*
X9400Y20000D3*
D45*
X10400D3*
X11400D3*
X12400D3*
X13400D3*
X14400D3*
X15400D3*
X16400D3*
D44*
X38000D3*
D45*
X37000D3*
X38000Y19000D3*
X37000D3*
X38000Y18000D3*
X37000D3*
X38000Y17000D3*
X37000D3*
X38000Y16000D3*
X37000D3*
X38000Y15000D3*
X37000D3*
X38000Y14000D3*
X37000D3*
X38000Y13000D3*
X37000D3*
X38000Y12000D3*
X37000D3*
X38000Y11000D3*
X37000D3*
X38000Y10000D3*
X37000D3*
X38000Y9000D3*
X37000D3*
X38000Y8000D3*
X37000D3*
X38000Y7000D3*
X37000D3*
X38000Y6000D3*
X37000D3*
X38000Y5000D3*
X37000D3*
X38000Y4000D3*
X37000D3*
X38000Y3000D3*
X37000D3*
D44*
X20000Y1000D3*
D45*
X21000D3*
X22000D3*
X23000D3*
X24000D3*
X25000D3*
X26000D3*
X27000D3*
D44*
X18000Y20000D3*
D45*
X19000D3*
X20000D3*
X21000D3*
X22000D3*
X23000D3*
X24000D3*
X25000D3*
D44*
X42000Y10000D3*
D45*
X41000D3*
X42000Y11000D3*
X41000D3*
X42000Y12000D3*
X41000D3*
X42000Y13000D3*
X41000D3*
X42000Y14000D3*
X41000D3*
D44*
X29000Y1000D3*
D45*
X30000D3*
X31000D3*
X32000D3*
X33000D3*
X34000D3*
X35000D3*
X36000D3*
D44*
X27000Y20000D3*
D45*
X28000D3*
X29000D3*
X30000D3*
X31000D3*
X32000D3*
X33000D3*
X34000D3*
D44*
X42000Y3000D3*
D45*
X41000D3*
X42000Y4000D3*
X41000D3*
X42000Y5000D3*
X41000D3*
X42000Y6000D3*
X41000D3*
X42000Y7000D3*
X41000D3*
D44*
X44500Y3000D3*
D45*
Y4000D3*
Y5000D3*
Y6000D3*
D44*
X41000Y17000D3*
D45*
Y18000D3*
Y19000D3*
Y20000D3*
D44*
X42000Y17000D3*
D45*
Y18000D3*
Y19000D3*
Y20000D3*
D44*
X43000Y17000D3*
D45*
Y18000D3*
Y19000D3*
Y20000D3*
D94*
X7750Y17250D3*
D93*
X8750D3*
X9750D3*
D35*
X46500Y17000D3*
D36*
Y17984D3*
Y18969D3*
D35*
X50500Y17000D3*
D36*
Y17984D3*
Y18969D3*
D44*
X47750Y2937D3*
D45*
X48750D3*
X49750D3*
X50750D3*
D44*
X26500Y11500D3*
D45*
Y12500D3*
Y13500D3*
Y14500D3*
D44*
X33500Y9500D3*
D45*
Y10500D3*
Y11500D3*
Y12500D3*
Y13500D3*
Y14500D3*
Y15500D3*
Y16500D3*
D44*
X28500Y9500D3*
D45*
Y10500D3*
Y11500D3*
Y12500D3*
Y13500D3*
Y14500D3*
Y15500D3*
Y16500D3*
D35*
X26995Y4243D3*
D36*
X26011D3*
D35*
X30500Y4250D3*
D36*
X29516D3*
D89*
X4500Y18250D3*
D87*
X3500D3*
X2500D3*
X1500D3*
D44*
X32750Y4500D3*
D45*
X33750D3*
D82*
X2000Y7500D3*
D81*
Y8500D3*
Y9500D3*
D82*
X4250Y7500D3*
D81*
Y8500D3*
Y9500D3*
D49*
X7750Y16250D3*
X8750D3*
X9750D3*
X51187Y5312D3*
X45500Y17000D3*
Y18000D3*
X51187Y4437D3*
X49500Y17000D3*
Y18000D3*
X48687Y10375D3*
X49812D3*
X30500Y3250D3*
X29500D3*
X3000Y8500D3*
X5250D3*
X32750Y3500D3*
M02*
