G04 DipTrace 2.4.0.2*
%INBottomSilk.gbr*%
%MOIN*%
%ADD10C,0.0098*%
%ADD87C,0.0046*%
%FSLAX44Y44*%
G04*
G70*
G90*
G75*
G01*
%LNBotSilk*%
%LPD*%
X35440Y18440D2*
D10*
X37440D1*
Y6440D1*
X35440D1*
Y18440D1*
X11441Y4440D2*
X26440D1*
Y5440D1*
X11441D1*
Y4440D1*
X36451Y18879D2*
D87*
Y18650D1*
X36465Y18607D1*
X36480Y18593D1*
X36508Y18578D1*
X36537D1*
X36565Y18593D1*
X36580Y18607D1*
X36594Y18650D1*
Y18679D1*
X36358Y18822D2*
X36329Y18836D1*
X36286Y18879D1*
Y18578D1*
X11035Y5122D2*
Y4893D1*
X11049Y4850D1*
X11064Y4835D1*
X11092Y4821D1*
X11121D1*
X11150Y4835D1*
X11164Y4850D1*
X11179Y4893D1*
Y4921D1*
X10942Y5064D2*
X10913Y5079D1*
X10870Y5122D1*
Y4821D1*
X10606Y5122D2*
X10749D1*
X10763Y4993D1*
X10749Y5007D1*
X10706Y5022D1*
X10663D1*
X10620Y5007D1*
X10591Y4979D1*
X10577Y4935D1*
Y4907D1*
X10591Y4864D1*
X10620Y4835D1*
X10663Y4821D1*
X10706D1*
X10749Y4835D1*
X10763Y4850D1*
X10778Y4878D1*
X72440Y18440D2*
D10*
X74440D1*
Y6440D1*
X72440D1*
Y18440D1*
X48441Y4440D2*
X63440D1*
Y5440D1*
X48441D1*
Y4440D1*
X73451Y18879D2*
D87*
Y18650D1*
X73465Y18607D1*
X73480Y18593D1*
X73508Y18578D1*
X73537D1*
X73565Y18593D1*
X73580Y18607D1*
X73594Y18650D1*
Y18679D1*
X73358Y18822D2*
X73329Y18836D1*
X73286Y18879D1*
Y18578D1*
X48035Y5122D2*
Y4893D1*
X48049Y4850D1*
X48064Y4835D1*
X48092Y4821D1*
X48121D1*
X48150Y4835D1*
X48164Y4850D1*
X48179Y4893D1*
Y4921D1*
X47942Y5064D2*
X47913Y5079D1*
X47870Y5122D1*
Y4821D1*
X47606Y5122D2*
X47749D1*
X47763Y4993D1*
X47749Y5007D1*
X47706Y5022D1*
X47663D1*
X47620Y5007D1*
X47591Y4979D1*
X47577Y4935D1*
Y4907D1*
X47591Y4864D1*
X47620Y4835D1*
X47663Y4821D1*
X47706D1*
X47749Y4835D1*
X47763Y4850D1*
X47778Y4878D1*
X35440Y34440D2*
D10*
X37440D1*
Y22440D1*
X35440D1*
Y34440D1*
X11441Y20440D2*
X26440D1*
Y21440D1*
X11441D1*
Y20440D1*
X36451Y34879D2*
D87*
Y34650D1*
X36465Y34607D1*
X36480Y34593D1*
X36508Y34578D1*
X36537D1*
X36565Y34593D1*
X36580Y34607D1*
X36594Y34650D1*
Y34679D1*
X36358Y34822D2*
X36329Y34836D1*
X36286Y34879D1*
Y34578D1*
X11035Y21122D2*
Y20893D1*
X11049Y20850D1*
X11064Y20835D1*
X11092Y20821D1*
X11121D1*
X11150Y20835D1*
X11164Y20850D1*
X11179Y20893D1*
Y20921D1*
X10942Y21064D2*
X10913Y21079D1*
X10870Y21122D1*
Y20821D1*
X10606Y21122D2*
X10749D1*
X10763Y20993D1*
X10749Y21007D1*
X10706Y21022D1*
X10663D1*
X10620Y21007D1*
X10591Y20979D1*
X10577Y20935D1*
Y20907D1*
X10591Y20864D1*
X10620Y20835D1*
X10663Y20821D1*
X10706D1*
X10749Y20835D1*
X10763Y20850D1*
X10778Y20878D1*
X72440Y34440D2*
D10*
X74440D1*
Y22440D1*
X72440D1*
Y34440D1*
X48441Y20440D2*
X63440D1*
Y21440D1*
X48441D1*
Y20440D1*
X73451Y34879D2*
D87*
Y34650D1*
X73465Y34607D1*
X73480Y34593D1*
X73508Y34578D1*
X73537D1*
X73565Y34593D1*
X73580Y34607D1*
X73594Y34650D1*
Y34679D1*
X73358Y34822D2*
X73329Y34836D1*
X73286Y34879D1*
Y34578D1*
X48035Y21122D2*
Y20893D1*
X48049Y20850D1*
X48064Y20835D1*
X48092Y20821D1*
X48121D1*
X48150Y20835D1*
X48164Y20850D1*
X48179Y20893D1*
Y20921D1*
X47942Y21064D2*
X47913Y21079D1*
X47870Y21122D1*
Y20821D1*
X47606Y21122D2*
X47749D1*
X47763Y20993D1*
X47749Y21007D1*
X47706Y21022D1*
X47663D1*
X47620Y21007D1*
X47591Y20979D1*
X47577Y20935D1*
Y20907D1*
X47591Y20864D1*
X47620Y20835D1*
X47663Y20821D1*
X47706D1*
X47749Y20835D1*
X47763Y20850D1*
X47778Y20878D1*
X35440Y50440D2*
D10*
X37440D1*
Y38440D1*
X35440D1*
Y50440D1*
X11441Y36440D2*
X26440D1*
Y37440D1*
X11441D1*
Y36440D1*
X36451Y50879D2*
D87*
Y50650D1*
X36465Y50607D1*
X36480Y50593D1*
X36508Y50578D1*
X36537D1*
X36565Y50593D1*
X36580Y50607D1*
X36594Y50650D1*
Y50679D1*
X36358Y50822D2*
X36329Y50836D1*
X36286Y50879D1*
Y50578D1*
X11035Y37122D2*
Y36893D1*
X11049Y36850D1*
X11064Y36835D1*
X11092Y36821D1*
X11121D1*
X11150Y36835D1*
X11164Y36850D1*
X11179Y36893D1*
Y36921D1*
X10942Y37064D2*
X10913Y37079D1*
X10870Y37122D1*
Y36821D1*
X10606Y37122D2*
X10749D1*
X10763Y36993D1*
X10749Y37007D1*
X10706Y37022D1*
X10663D1*
X10620Y37007D1*
X10591Y36979D1*
X10577Y36935D1*
Y36907D1*
X10591Y36864D1*
X10620Y36835D1*
X10663Y36821D1*
X10706D1*
X10749Y36835D1*
X10763Y36850D1*
X10778Y36878D1*
X72440Y50440D2*
D10*
X74440D1*
Y38440D1*
X72440D1*
Y50440D1*
X48441Y36440D2*
X63440D1*
Y37440D1*
X48441D1*
Y36440D1*
X73451Y50879D2*
D87*
Y50650D1*
X73465Y50607D1*
X73480Y50593D1*
X73508Y50578D1*
X73537D1*
X73565Y50593D1*
X73580Y50607D1*
X73594Y50650D1*
Y50679D1*
X73358Y50822D2*
X73329Y50836D1*
X73286Y50879D1*
Y50578D1*
X48035Y37122D2*
Y36893D1*
X48049Y36850D1*
X48064Y36835D1*
X48092Y36821D1*
X48121D1*
X48150Y36835D1*
X48164Y36850D1*
X48179Y36893D1*
Y36921D1*
X47942Y37064D2*
X47913Y37079D1*
X47870Y37122D1*
Y36821D1*
X47606Y37122D2*
X47749D1*
X47763Y36993D1*
X47749Y37007D1*
X47706Y37022D1*
X47663D1*
X47620Y37007D1*
X47591Y36979D1*
X47577Y36935D1*
Y36907D1*
X47591Y36864D1*
X47620Y36835D1*
X47663Y36821D1*
X47706D1*
X47749Y36835D1*
X47763Y36850D1*
X47778Y36878D1*
X35440Y66440D2*
D10*
X37440D1*
Y54440D1*
X35440D1*
Y66440D1*
X11441Y52440D2*
X26440D1*
Y53440D1*
X11441D1*
Y52440D1*
X36451Y66879D2*
D87*
Y66650D1*
X36465Y66607D1*
X36480Y66593D1*
X36508Y66578D1*
X36537D1*
X36565Y66593D1*
X36580Y66607D1*
X36594Y66650D1*
Y66679D1*
X36358Y66822D2*
X36329Y66836D1*
X36286Y66879D1*
Y66578D1*
X11035Y53122D2*
Y52893D1*
X11049Y52850D1*
X11064Y52835D1*
X11092Y52821D1*
X11121D1*
X11150Y52835D1*
X11164Y52850D1*
X11179Y52893D1*
Y52921D1*
X10942Y53064D2*
X10913Y53079D1*
X10870Y53122D1*
Y52821D1*
X10606Y53122D2*
X10749D1*
X10763Y52993D1*
X10749Y53007D1*
X10706Y53022D1*
X10663D1*
X10620Y53007D1*
X10591Y52979D1*
X10577Y52935D1*
Y52907D1*
X10591Y52864D1*
X10620Y52835D1*
X10663Y52821D1*
X10706D1*
X10749Y52835D1*
X10763Y52850D1*
X10778Y52878D1*
X72440Y66440D2*
D10*
X74440D1*
Y54440D1*
X72440D1*
Y66440D1*
X48441Y52440D2*
X63440D1*
Y53440D1*
X48441D1*
Y52440D1*
X73451Y66879D2*
D87*
Y66650D1*
X73465Y66607D1*
X73480Y66593D1*
X73508Y66578D1*
X73537D1*
X73565Y66593D1*
X73580Y66607D1*
X73594Y66650D1*
Y66679D1*
X73358Y66822D2*
X73329Y66836D1*
X73286Y66879D1*
Y66578D1*
X48035Y53122D2*
Y52893D1*
X48049Y52850D1*
X48064Y52835D1*
X48092Y52821D1*
X48121D1*
X48150Y52835D1*
X48164Y52850D1*
X48179Y52893D1*
Y52921D1*
X47942Y53064D2*
X47913Y53079D1*
X47870Y53122D1*
Y52821D1*
X47606Y53122D2*
X47749D1*
X47763Y52993D1*
X47749Y53007D1*
X47706Y53022D1*
X47663D1*
X47620Y53007D1*
X47591Y52979D1*
X47577Y52935D1*
Y52907D1*
X47591Y52864D1*
X47620Y52835D1*
X47663Y52821D1*
X47706D1*
X47749Y52835D1*
X47763Y52850D1*
X47778Y52878D1*
M02*
