G04 DipTrace 2.4.0.2*
%INBottomAssy.gbr*%
%MOIN*%
%ADD10C,0.0098*%
%ADD12C,0.003*%
%ADD87C,0.0046*%
%FSLAX44Y44*%
G04*
G70*
G90*
G75*
G01*
%LNBotAssy*%
%LPD*%
X11161Y4342D2*
D10*
X26720D1*
X36451Y18879D2*
D87*
Y18650D1*
X36465Y18607D1*
X36480Y18593D1*
X36508Y18578D1*
X36537D1*
X36565Y18593D1*
X36580Y18607D1*
X36594Y18650D1*
Y18679D1*
X36358Y18822D2*
X36329Y18836D1*
X36286Y18879D1*
Y18578D1*
X11035Y5122D2*
Y4893D1*
X11049Y4850D1*
X11064Y4835D1*
X11092Y4821D1*
X11121D1*
X11150Y4835D1*
X11164Y4850D1*
X11179Y4893D1*
Y4921D1*
X10942Y5064D2*
X10913Y5079D1*
X10870Y5122D1*
Y4821D1*
X10606Y5122D2*
X10749D1*
X10763Y4993D1*
X10749Y5007D1*
X10706Y5022D1*
X10663D1*
X10620Y5007D1*
X10591Y4979D1*
X10577Y4935D1*
Y4907D1*
X10591Y4864D1*
X10620Y4835D1*
X10663Y4821D1*
X10706D1*
X10749Y4835D1*
X10763Y4850D1*
X10778Y4878D1*
X17945Y3959D2*
D12*
Y4160D1*
X18031D1*
X18060Y4150D1*
X18070Y4141D1*
X18079Y4121D1*
Y4093D1*
X18070Y4074D1*
X18060Y4064D1*
X18031Y4055D1*
X18060Y4045D1*
X18070Y4035D1*
X18079Y4016D1*
Y3997D1*
X18070Y3978D1*
X18060Y3968D1*
X18031Y3959D1*
X17945D1*
Y4055D2*
X18031D1*
X18198Y3959D2*
X18179Y3968D1*
X18160Y3988D1*
X18150Y4007D1*
X18141Y4035D1*
Y4083D1*
X18150Y4112D1*
X18160Y4131D1*
X18179Y4150D1*
X18198Y4160D1*
X18237D1*
X18256Y4150D1*
X18275Y4131D1*
X18284Y4112D1*
X18294Y4083D1*
Y4035D1*
X18284Y4007D1*
X18275Y3988D1*
X18256Y3968D1*
X18237Y3959D1*
X18198D1*
X18509Y4160D2*
X18432Y3959D1*
X18356Y4160D1*
X18384Y4093D2*
X18480D1*
X18571Y4055D2*
X18657D1*
X18685Y4045D1*
X18695Y4035D1*
X18704Y4016D1*
Y3997D1*
X18695Y3978D1*
X18685Y3968D1*
X18657Y3959D1*
X18571D1*
Y4160D1*
X18638Y4055D2*
X18704Y4160D1*
X18766Y3959D2*
Y4160D1*
X18833D1*
X18862Y4150D1*
X18881Y4131D1*
X18891Y4112D1*
X18900Y4083D1*
Y4035D1*
X18891Y4007D1*
X18881Y3988D1*
X18862Y3968D1*
X18833Y3959D1*
X18766D1*
X19281D2*
X19156D1*
Y4160D1*
X19281D1*
X19156Y4055D2*
X19233D1*
X19342Y3959D2*
Y4160D1*
X19409D1*
X19438Y4150D1*
X19457Y4131D1*
X19467Y4112D1*
X19476Y4083D1*
Y4035D1*
X19467Y4007D1*
X19457Y3988D1*
X19438Y3968D1*
X19409Y3959D1*
X19342D1*
X19682Y4007D2*
X19672Y3988D1*
X19653Y3968D1*
X19634Y3959D1*
X19596D1*
X19576Y3968D1*
X19557Y3988D1*
X19548Y4007D1*
X19538Y4035D1*
Y4083D1*
X19548Y4112D1*
X19557Y4131D1*
X19576Y4150D1*
X19596Y4160D1*
X19634D1*
X19653Y4150D1*
X19672Y4131D1*
X19682Y4112D1*
Y4083D1*
X19634D1*
X19868Y3959D2*
X19743D1*
Y4160D1*
X19868D1*
X19743Y4055D2*
X19820D1*
X48161Y4342D2*
D10*
X63720D1*
X73451Y18879D2*
D87*
Y18650D1*
X73465Y18607D1*
X73480Y18593D1*
X73508Y18578D1*
X73537D1*
X73565Y18593D1*
X73580Y18607D1*
X73594Y18650D1*
Y18679D1*
X73358Y18822D2*
X73329Y18836D1*
X73286Y18879D1*
Y18578D1*
X48035Y5122D2*
Y4893D1*
X48049Y4850D1*
X48064Y4835D1*
X48092Y4821D1*
X48121D1*
X48150Y4835D1*
X48164Y4850D1*
X48179Y4893D1*
Y4921D1*
X47942Y5064D2*
X47913Y5079D1*
X47870Y5122D1*
Y4821D1*
X47606Y5122D2*
X47749D1*
X47763Y4993D1*
X47749Y5007D1*
X47706Y5022D1*
X47663D1*
X47620Y5007D1*
X47591Y4979D1*
X47577Y4935D1*
Y4907D1*
X47591Y4864D1*
X47620Y4835D1*
X47663Y4821D1*
X47706D1*
X47749Y4835D1*
X47763Y4850D1*
X47778Y4878D1*
X54945Y3959D2*
D12*
Y4160D1*
X55031D1*
X55060Y4150D1*
X55070Y4141D1*
X55079Y4121D1*
Y4093D1*
X55070Y4074D1*
X55060Y4064D1*
X55031Y4055D1*
X55060Y4045D1*
X55070Y4035D1*
X55079Y4016D1*
Y3997D1*
X55070Y3978D1*
X55060Y3968D1*
X55031Y3959D1*
X54945D1*
Y4055D2*
X55031D1*
X55198Y3959D2*
X55179Y3968D1*
X55160Y3988D1*
X55150Y4007D1*
X55141Y4035D1*
Y4083D1*
X55150Y4112D1*
X55160Y4131D1*
X55179Y4150D1*
X55198Y4160D1*
X55237D1*
X55256Y4150D1*
X55275Y4131D1*
X55284Y4112D1*
X55294Y4083D1*
Y4035D1*
X55284Y4007D1*
X55275Y3988D1*
X55256Y3968D1*
X55237Y3959D1*
X55198D1*
X55509Y4160D2*
X55432Y3959D1*
X55356Y4160D1*
X55384Y4093D2*
X55480D1*
X55571Y4055D2*
X55657D1*
X55685Y4045D1*
X55695Y4035D1*
X55704Y4016D1*
Y3997D1*
X55695Y3978D1*
X55685Y3968D1*
X55657Y3959D1*
X55571D1*
Y4160D1*
X55638Y4055D2*
X55704Y4160D1*
X55766Y3959D2*
Y4160D1*
X55833D1*
X55862Y4150D1*
X55881Y4131D1*
X55891Y4112D1*
X55900Y4083D1*
Y4035D1*
X55891Y4007D1*
X55881Y3988D1*
X55862Y3968D1*
X55833Y3959D1*
X55766D1*
X56281D2*
X56156D1*
Y4160D1*
X56281D1*
X56156Y4055D2*
X56233D1*
X56342Y3959D2*
Y4160D1*
X56409D1*
X56438Y4150D1*
X56457Y4131D1*
X56467Y4112D1*
X56476Y4083D1*
Y4035D1*
X56467Y4007D1*
X56457Y3988D1*
X56438Y3968D1*
X56409Y3959D1*
X56342D1*
X56682Y4007D2*
X56672Y3988D1*
X56653Y3968D1*
X56634Y3959D1*
X56596D1*
X56576Y3968D1*
X56557Y3988D1*
X56548Y4007D1*
X56538Y4035D1*
Y4083D1*
X56548Y4112D1*
X56557Y4131D1*
X56576Y4150D1*
X56596Y4160D1*
X56634D1*
X56653Y4150D1*
X56672Y4131D1*
X56682Y4112D1*
Y4083D1*
X56634D1*
X56868Y3959D2*
X56743D1*
Y4160D1*
X56868D1*
X56743Y4055D2*
X56820D1*
X11161Y20342D2*
D10*
X26720D1*
X36451Y34879D2*
D87*
Y34650D1*
X36465Y34607D1*
X36480Y34593D1*
X36508Y34578D1*
X36537D1*
X36565Y34593D1*
X36580Y34607D1*
X36594Y34650D1*
Y34679D1*
X36358Y34822D2*
X36329Y34836D1*
X36286Y34879D1*
Y34578D1*
X11035Y21122D2*
Y20893D1*
X11049Y20850D1*
X11064Y20835D1*
X11092Y20821D1*
X11121D1*
X11150Y20835D1*
X11164Y20850D1*
X11179Y20893D1*
Y20921D1*
X10942Y21064D2*
X10913Y21079D1*
X10870Y21122D1*
Y20821D1*
X10606Y21122D2*
X10749D1*
X10763Y20993D1*
X10749Y21007D1*
X10706Y21022D1*
X10663D1*
X10620Y21007D1*
X10591Y20979D1*
X10577Y20935D1*
Y20907D1*
X10591Y20864D1*
X10620Y20835D1*
X10663Y20821D1*
X10706D1*
X10749Y20835D1*
X10763Y20850D1*
X10778Y20878D1*
X17945Y19959D2*
D12*
Y20160D1*
X18031D1*
X18060Y20150D1*
X18070Y20141D1*
X18079Y20121D1*
Y20093D1*
X18070Y20074D1*
X18060Y20064D1*
X18031Y20055D1*
X18060Y20045D1*
X18070Y20035D1*
X18079Y20016D1*
Y19997D1*
X18070Y19978D1*
X18060Y19968D1*
X18031Y19959D1*
X17945D1*
Y20055D2*
X18031D1*
X18198Y19959D2*
X18179Y19968D1*
X18160Y19988D1*
X18150Y20007D1*
X18141Y20035D1*
Y20083D1*
X18150Y20112D1*
X18160Y20131D1*
X18179Y20150D1*
X18198Y20160D1*
X18237D1*
X18256Y20150D1*
X18275Y20131D1*
X18284Y20112D1*
X18294Y20083D1*
Y20035D1*
X18284Y20007D1*
X18275Y19988D1*
X18256Y19968D1*
X18237Y19959D1*
X18198D1*
X18509Y20160D2*
X18432Y19959D1*
X18356Y20160D1*
X18384Y20093D2*
X18480D1*
X18571Y20055D2*
X18657D1*
X18685Y20045D1*
X18695Y20035D1*
X18704Y20016D1*
Y19997D1*
X18695Y19978D1*
X18685Y19968D1*
X18657Y19959D1*
X18571D1*
Y20160D1*
X18638Y20055D2*
X18704Y20160D1*
X18766Y19959D2*
Y20160D1*
X18833D1*
X18862Y20150D1*
X18881Y20131D1*
X18891Y20112D1*
X18900Y20083D1*
Y20035D1*
X18891Y20007D1*
X18881Y19988D1*
X18862Y19968D1*
X18833Y19959D1*
X18766D1*
X19281D2*
X19156D1*
Y20160D1*
X19281D1*
X19156Y20055D2*
X19233D1*
X19342Y19959D2*
Y20160D1*
X19409D1*
X19438Y20150D1*
X19457Y20131D1*
X19467Y20112D1*
X19476Y20083D1*
Y20035D1*
X19467Y20007D1*
X19457Y19988D1*
X19438Y19968D1*
X19409Y19959D1*
X19342D1*
X19682Y20007D2*
X19672Y19988D1*
X19653Y19968D1*
X19634Y19959D1*
X19596D1*
X19576Y19968D1*
X19557Y19988D1*
X19548Y20007D1*
X19538Y20035D1*
Y20083D1*
X19548Y20112D1*
X19557Y20131D1*
X19576Y20150D1*
X19596Y20160D1*
X19634D1*
X19653Y20150D1*
X19672Y20131D1*
X19682Y20112D1*
Y20083D1*
X19634D1*
X19868Y19959D2*
X19743D1*
Y20160D1*
X19868D1*
X19743Y20055D2*
X19820D1*
X48161Y20342D2*
D10*
X63720D1*
X73451Y34879D2*
D87*
Y34650D1*
X73465Y34607D1*
X73480Y34593D1*
X73508Y34578D1*
X73537D1*
X73565Y34593D1*
X73580Y34607D1*
X73594Y34650D1*
Y34679D1*
X73358Y34822D2*
X73329Y34836D1*
X73286Y34879D1*
Y34578D1*
X48035Y21122D2*
Y20893D1*
X48049Y20850D1*
X48064Y20835D1*
X48092Y20821D1*
X48121D1*
X48150Y20835D1*
X48164Y20850D1*
X48179Y20893D1*
Y20921D1*
X47942Y21064D2*
X47913Y21079D1*
X47870Y21122D1*
Y20821D1*
X47606Y21122D2*
X47749D1*
X47763Y20993D1*
X47749Y21007D1*
X47706Y21022D1*
X47663D1*
X47620Y21007D1*
X47591Y20979D1*
X47577Y20935D1*
Y20907D1*
X47591Y20864D1*
X47620Y20835D1*
X47663Y20821D1*
X47706D1*
X47749Y20835D1*
X47763Y20850D1*
X47778Y20878D1*
X54945Y19959D2*
D12*
Y20160D1*
X55031D1*
X55060Y20150D1*
X55070Y20141D1*
X55079Y20121D1*
Y20093D1*
X55070Y20074D1*
X55060Y20064D1*
X55031Y20055D1*
X55060Y20045D1*
X55070Y20035D1*
X55079Y20016D1*
Y19997D1*
X55070Y19978D1*
X55060Y19968D1*
X55031Y19959D1*
X54945D1*
Y20055D2*
X55031D1*
X55198Y19959D2*
X55179Y19968D1*
X55160Y19988D1*
X55150Y20007D1*
X55141Y20035D1*
Y20083D1*
X55150Y20112D1*
X55160Y20131D1*
X55179Y20150D1*
X55198Y20160D1*
X55237D1*
X55256Y20150D1*
X55275Y20131D1*
X55284Y20112D1*
X55294Y20083D1*
Y20035D1*
X55284Y20007D1*
X55275Y19988D1*
X55256Y19968D1*
X55237Y19959D1*
X55198D1*
X55509Y20160D2*
X55432Y19959D1*
X55356Y20160D1*
X55384Y20093D2*
X55480D1*
X55571Y20055D2*
X55657D1*
X55685Y20045D1*
X55695Y20035D1*
X55704Y20016D1*
Y19997D1*
X55695Y19978D1*
X55685Y19968D1*
X55657Y19959D1*
X55571D1*
Y20160D1*
X55638Y20055D2*
X55704Y20160D1*
X55766Y19959D2*
Y20160D1*
X55833D1*
X55862Y20150D1*
X55881Y20131D1*
X55891Y20112D1*
X55900Y20083D1*
Y20035D1*
X55891Y20007D1*
X55881Y19988D1*
X55862Y19968D1*
X55833Y19959D1*
X55766D1*
X56281D2*
X56156D1*
Y20160D1*
X56281D1*
X56156Y20055D2*
X56233D1*
X56342Y19959D2*
Y20160D1*
X56409D1*
X56438Y20150D1*
X56457Y20131D1*
X56467Y20112D1*
X56476Y20083D1*
Y20035D1*
X56467Y20007D1*
X56457Y19988D1*
X56438Y19968D1*
X56409Y19959D1*
X56342D1*
X56682Y20007D2*
X56672Y19988D1*
X56653Y19968D1*
X56634Y19959D1*
X56596D1*
X56576Y19968D1*
X56557Y19988D1*
X56548Y20007D1*
X56538Y20035D1*
Y20083D1*
X56548Y20112D1*
X56557Y20131D1*
X56576Y20150D1*
X56596Y20160D1*
X56634D1*
X56653Y20150D1*
X56672Y20131D1*
X56682Y20112D1*
Y20083D1*
X56634D1*
X56868Y19959D2*
X56743D1*
Y20160D1*
X56868D1*
X56743Y20055D2*
X56820D1*
X11161Y36342D2*
D10*
X26720D1*
X36451Y50879D2*
D87*
Y50650D1*
X36465Y50607D1*
X36480Y50593D1*
X36508Y50578D1*
X36537D1*
X36565Y50593D1*
X36580Y50607D1*
X36594Y50650D1*
Y50679D1*
X36358Y50822D2*
X36329Y50836D1*
X36286Y50879D1*
Y50578D1*
X11035Y37122D2*
Y36893D1*
X11049Y36850D1*
X11064Y36835D1*
X11092Y36821D1*
X11121D1*
X11150Y36835D1*
X11164Y36850D1*
X11179Y36893D1*
Y36921D1*
X10942Y37064D2*
X10913Y37079D1*
X10870Y37122D1*
Y36821D1*
X10606Y37122D2*
X10749D1*
X10763Y36993D1*
X10749Y37007D1*
X10706Y37022D1*
X10663D1*
X10620Y37007D1*
X10591Y36979D1*
X10577Y36935D1*
Y36907D1*
X10591Y36864D1*
X10620Y36835D1*
X10663Y36821D1*
X10706D1*
X10749Y36835D1*
X10763Y36850D1*
X10778Y36878D1*
X17945Y35959D2*
D12*
Y36160D1*
X18031D1*
X18060Y36150D1*
X18070Y36141D1*
X18079Y36121D1*
Y36093D1*
X18070Y36074D1*
X18060Y36064D1*
X18031Y36055D1*
X18060Y36045D1*
X18070Y36035D1*
X18079Y36016D1*
Y35997D1*
X18070Y35978D1*
X18060Y35968D1*
X18031Y35959D1*
X17945D1*
Y36055D2*
X18031D1*
X18198Y35959D2*
X18179Y35968D1*
X18160Y35988D1*
X18150Y36007D1*
X18141Y36035D1*
Y36083D1*
X18150Y36112D1*
X18160Y36131D1*
X18179Y36150D1*
X18198Y36160D1*
X18237D1*
X18256Y36150D1*
X18275Y36131D1*
X18284Y36112D1*
X18294Y36083D1*
Y36035D1*
X18284Y36007D1*
X18275Y35988D1*
X18256Y35968D1*
X18237Y35959D1*
X18198D1*
X18509Y36160D2*
X18432Y35959D1*
X18356Y36160D1*
X18384Y36093D2*
X18480D1*
X18571Y36055D2*
X18657D1*
X18685Y36045D1*
X18695Y36035D1*
X18704Y36016D1*
Y35997D1*
X18695Y35978D1*
X18685Y35968D1*
X18657Y35959D1*
X18571D1*
Y36160D1*
X18638Y36055D2*
X18704Y36160D1*
X18766Y35959D2*
Y36160D1*
X18833D1*
X18862Y36150D1*
X18881Y36131D1*
X18891Y36112D1*
X18900Y36083D1*
Y36035D1*
X18891Y36007D1*
X18881Y35988D1*
X18862Y35968D1*
X18833Y35959D1*
X18766D1*
X19281D2*
X19156D1*
Y36160D1*
X19281D1*
X19156Y36055D2*
X19233D1*
X19342Y35959D2*
Y36160D1*
X19409D1*
X19438Y36150D1*
X19457Y36131D1*
X19467Y36112D1*
X19476Y36083D1*
Y36035D1*
X19467Y36007D1*
X19457Y35988D1*
X19438Y35968D1*
X19409Y35959D1*
X19342D1*
X19682Y36007D2*
X19672Y35988D1*
X19653Y35968D1*
X19634Y35959D1*
X19596D1*
X19576Y35968D1*
X19557Y35988D1*
X19548Y36007D1*
X19538Y36035D1*
Y36083D1*
X19548Y36112D1*
X19557Y36131D1*
X19576Y36150D1*
X19596Y36160D1*
X19634D1*
X19653Y36150D1*
X19672Y36131D1*
X19682Y36112D1*
Y36083D1*
X19634D1*
X19868Y35959D2*
X19743D1*
Y36160D1*
X19868D1*
X19743Y36055D2*
X19820D1*
X48161Y36342D2*
D10*
X63720D1*
X73451Y50879D2*
D87*
Y50650D1*
X73465Y50607D1*
X73480Y50593D1*
X73508Y50578D1*
X73537D1*
X73565Y50593D1*
X73580Y50607D1*
X73594Y50650D1*
Y50679D1*
X73358Y50822D2*
X73329Y50836D1*
X73286Y50879D1*
Y50578D1*
X48035Y37122D2*
Y36893D1*
X48049Y36850D1*
X48064Y36835D1*
X48092Y36821D1*
X48121D1*
X48150Y36835D1*
X48164Y36850D1*
X48179Y36893D1*
Y36921D1*
X47942Y37064D2*
X47913Y37079D1*
X47870Y37122D1*
Y36821D1*
X47606Y37122D2*
X47749D1*
X47763Y36993D1*
X47749Y37007D1*
X47706Y37022D1*
X47663D1*
X47620Y37007D1*
X47591Y36979D1*
X47577Y36935D1*
Y36907D1*
X47591Y36864D1*
X47620Y36835D1*
X47663Y36821D1*
X47706D1*
X47749Y36835D1*
X47763Y36850D1*
X47778Y36878D1*
X54945Y35959D2*
D12*
Y36160D1*
X55031D1*
X55060Y36150D1*
X55070Y36141D1*
X55079Y36121D1*
Y36093D1*
X55070Y36074D1*
X55060Y36064D1*
X55031Y36055D1*
X55060Y36045D1*
X55070Y36035D1*
X55079Y36016D1*
Y35997D1*
X55070Y35978D1*
X55060Y35968D1*
X55031Y35959D1*
X54945D1*
Y36055D2*
X55031D1*
X55198Y35959D2*
X55179Y35968D1*
X55160Y35988D1*
X55150Y36007D1*
X55141Y36035D1*
Y36083D1*
X55150Y36112D1*
X55160Y36131D1*
X55179Y36150D1*
X55198Y36160D1*
X55237D1*
X55256Y36150D1*
X55275Y36131D1*
X55284Y36112D1*
X55294Y36083D1*
Y36035D1*
X55284Y36007D1*
X55275Y35988D1*
X55256Y35968D1*
X55237Y35959D1*
X55198D1*
X55509Y36160D2*
X55432Y35959D1*
X55356Y36160D1*
X55384Y36093D2*
X55480D1*
X55571Y36055D2*
X55657D1*
X55685Y36045D1*
X55695Y36035D1*
X55704Y36016D1*
Y35997D1*
X55695Y35978D1*
X55685Y35968D1*
X55657Y35959D1*
X55571D1*
Y36160D1*
X55638Y36055D2*
X55704Y36160D1*
X55766Y35959D2*
Y36160D1*
X55833D1*
X55862Y36150D1*
X55881Y36131D1*
X55891Y36112D1*
X55900Y36083D1*
Y36035D1*
X55891Y36007D1*
X55881Y35988D1*
X55862Y35968D1*
X55833Y35959D1*
X55766D1*
X56281D2*
X56156D1*
Y36160D1*
X56281D1*
X56156Y36055D2*
X56233D1*
X56342Y35959D2*
Y36160D1*
X56409D1*
X56438Y36150D1*
X56457Y36131D1*
X56467Y36112D1*
X56476Y36083D1*
Y36035D1*
X56467Y36007D1*
X56457Y35988D1*
X56438Y35968D1*
X56409Y35959D1*
X56342D1*
X56682Y36007D2*
X56672Y35988D1*
X56653Y35968D1*
X56634Y35959D1*
X56596D1*
X56576Y35968D1*
X56557Y35988D1*
X56548Y36007D1*
X56538Y36035D1*
Y36083D1*
X56548Y36112D1*
X56557Y36131D1*
X56576Y36150D1*
X56596Y36160D1*
X56634D1*
X56653Y36150D1*
X56672Y36131D1*
X56682Y36112D1*
Y36083D1*
X56634D1*
X56868Y35959D2*
X56743D1*
Y36160D1*
X56868D1*
X56743Y36055D2*
X56820D1*
X11161Y52342D2*
D10*
X26720D1*
X36451Y66879D2*
D87*
Y66650D1*
X36465Y66607D1*
X36480Y66593D1*
X36508Y66578D1*
X36537D1*
X36565Y66593D1*
X36580Y66607D1*
X36594Y66650D1*
Y66679D1*
X36358Y66822D2*
X36329Y66836D1*
X36286Y66879D1*
Y66578D1*
X11035Y53122D2*
Y52893D1*
X11049Y52850D1*
X11064Y52835D1*
X11092Y52821D1*
X11121D1*
X11150Y52835D1*
X11164Y52850D1*
X11179Y52893D1*
Y52921D1*
X10942Y53064D2*
X10913Y53079D1*
X10870Y53122D1*
Y52821D1*
X10606Y53122D2*
X10749D1*
X10763Y52993D1*
X10749Y53007D1*
X10706Y53022D1*
X10663D1*
X10620Y53007D1*
X10591Y52979D1*
X10577Y52935D1*
Y52907D1*
X10591Y52864D1*
X10620Y52835D1*
X10663Y52821D1*
X10706D1*
X10749Y52835D1*
X10763Y52850D1*
X10778Y52878D1*
X17945Y51959D2*
D12*
Y52160D1*
X18031D1*
X18060Y52150D1*
X18070Y52141D1*
X18079Y52121D1*
Y52093D1*
X18070Y52074D1*
X18060Y52064D1*
X18031Y52055D1*
X18060Y52045D1*
X18070Y52035D1*
X18079Y52016D1*
Y51997D1*
X18070Y51978D1*
X18060Y51968D1*
X18031Y51959D1*
X17945D1*
Y52055D2*
X18031D1*
X18198Y51959D2*
X18179Y51968D1*
X18160Y51988D1*
X18150Y52007D1*
X18141Y52035D1*
Y52083D1*
X18150Y52112D1*
X18160Y52131D1*
X18179Y52150D1*
X18198Y52160D1*
X18237D1*
X18256Y52150D1*
X18275Y52131D1*
X18284Y52112D1*
X18294Y52083D1*
Y52035D1*
X18284Y52007D1*
X18275Y51988D1*
X18256Y51968D1*
X18237Y51959D1*
X18198D1*
X18509Y52160D2*
X18432Y51959D1*
X18356Y52160D1*
X18384Y52093D2*
X18480D1*
X18571Y52055D2*
X18657D1*
X18685Y52045D1*
X18695Y52035D1*
X18704Y52016D1*
Y51997D1*
X18695Y51978D1*
X18685Y51968D1*
X18657Y51959D1*
X18571D1*
Y52160D1*
X18638Y52055D2*
X18704Y52160D1*
X18766Y51959D2*
Y52160D1*
X18833D1*
X18862Y52150D1*
X18881Y52131D1*
X18891Y52112D1*
X18900Y52083D1*
Y52035D1*
X18891Y52007D1*
X18881Y51988D1*
X18862Y51968D1*
X18833Y51959D1*
X18766D1*
X19281D2*
X19156D1*
Y52160D1*
X19281D1*
X19156Y52055D2*
X19233D1*
X19342Y51959D2*
Y52160D1*
X19409D1*
X19438Y52150D1*
X19457Y52131D1*
X19467Y52112D1*
X19476Y52083D1*
Y52035D1*
X19467Y52007D1*
X19457Y51988D1*
X19438Y51968D1*
X19409Y51959D1*
X19342D1*
X19682Y52007D2*
X19672Y51988D1*
X19653Y51968D1*
X19634Y51959D1*
X19596D1*
X19576Y51968D1*
X19557Y51988D1*
X19548Y52007D1*
X19538Y52035D1*
Y52083D1*
X19548Y52112D1*
X19557Y52131D1*
X19576Y52150D1*
X19596Y52160D1*
X19634D1*
X19653Y52150D1*
X19672Y52131D1*
X19682Y52112D1*
Y52083D1*
X19634D1*
X19868Y51959D2*
X19743D1*
Y52160D1*
X19868D1*
X19743Y52055D2*
X19820D1*
X48161Y52342D2*
D10*
X63720D1*
X73451Y66879D2*
D87*
Y66650D1*
X73465Y66607D1*
X73480Y66593D1*
X73508Y66578D1*
X73537D1*
X73565Y66593D1*
X73580Y66607D1*
X73594Y66650D1*
Y66679D1*
X73358Y66822D2*
X73329Y66836D1*
X73286Y66879D1*
Y66578D1*
X48035Y53122D2*
Y52893D1*
X48049Y52850D1*
X48064Y52835D1*
X48092Y52821D1*
X48121D1*
X48150Y52835D1*
X48164Y52850D1*
X48179Y52893D1*
Y52921D1*
X47942Y53064D2*
X47913Y53079D1*
X47870Y53122D1*
Y52821D1*
X47606Y53122D2*
X47749D1*
X47763Y52993D1*
X47749Y53007D1*
X47706Y53022D1*
X47663D1*
X47620Y53007D1*
X47591Y52979D1*
X47577Y52935D1*
Y52907D1*
X47591Y52864D1*
X47620Y52835D1*
X47663Y52821D1*
X47706D1*
X47749Y52835D1*
X47763Y52850D1*
X47778Y52878D1*
X54945Y51959D2*
D12*
Y52160D1*
X55031D1*
X55060Y52150D1*
X55070Y52141D1*
X55079Y52121D1*
Y52093D1*
X55070Y52074D1*
X55060Y52064D1*
X55031Y52055D1*
X55060Y52045D1*
X55070Y52035D1*
X55079Y52016D1*
Y51997D1*
X55070Y51978D1*
X55060Y51968D1*
X55031Y51959D1*
X54945D1*
Y52055D2*
X55031D1*
X55198Y51959D2*
X55179Y51968D1*
X55160Y51988D1*
X55150Y52007D1*
X55141Y52035D1*
Y52083D1*
X55150Y52112D1*
X55160Y52131D1*
X55179Y52150D1*
X55198Y52160D1*
X55237D1*
X55256Y52150D1*
X55275Y52131D1*
X55284Y52112D1*
X55294Y52083D1*
Y52035D1*
X55284Y52007D1*
X55275Y51988D1*
X55256Y51968D1*
X55237Y51959D1*
X55198D1*
X55509Y52160D2*
X55432Y51959D1*
X55356Y52160D1*
X55384Y52093D2*
X55480D1*
X55571Y52055D2*
X55657D1*
X55685Y52045D1*
X55695Y52035D1*
X55704Y52016D1*
Y51997D1*
X55695Y51978D1*
X55685Y51968D1*
X55657Y51959D1*
X55571D1*
Y52160D1*
X55638Y52055D2*
X55704Y52160D1*
X55766Y51959D2*
Y52160D1*
X55833D1*
X55862Y52150D1*
X55881Y52131D1*
X55891Y52112D1*
X55900Y52083D1*
Y52035D1*
X55891Y52007D1*
X55881Y51988D1*
X55862Y51968D1*
X55833Y51959D1*
X55766D1*
X56281D2*
X56156D1*
Y52160D1*
X56281D1*
X56156Y52055D2*
X56233D1*
X56342Y51959D2*
Y52160D1*
X56409D1*
X56438Y52150D1*
X56457Y52131D1*
X56467Y52112D1*
X56476Y52083D1*
Y52035D1*
X56467Y52007D1*
X56457Y51988D1*
X56438Y51968D1*
X56409Y51959D1*
X56342D1*
X56682Y52007D2*
X56672Y51988D1*
X56653Y51968D1*
X56634Y51959D1*
X56596D1*
X56576Y51968D1*
X56557Y51988D1*
X56548Y52007D1*
X56538Y52035D1*
Y52083D1*
X56548Y52112D1*
X56557Y52131D1*
X56576Y52150D1*
X56596Y52160D1*
X56634D1*
X56653Y52150D1*
X56672Y52131D1*
X56682Y52112D1*
Y52083D1*
X56634D1*
X56868Y51959D2*
X56743D1*
Y52160D1*
X56868D1*
X56743Y52055D2*
X56820D1*
M02*
