M48
INCH
T01C0.0191
T02C0.0433
%
T01
X+009940Y+015940
X+009940Y+015440
X+009940Y+014940
X+009940Y+014440
X+009940Y+013940
X+009940Y+013440
X+009940Y+012940
X+009940Y+012440
X+009940Y+011940
X+009940Y+011440
X+009940Y+010940
X+009940Y+010440
X+009940Y+009940
X+009940Y+009440
X+009940Y+008940
X+010566Y+009691
X+012754Y+009628
X+012191Y+011191
X+012941Y+012566
X+016440Y+012440
X+016440Y+012940
X+016440Y+013440
X+016440Y+013940
X+016440Y+014440
X+016440Y+014940
X+016440Y+015440
X+016440Y+015940
X+018130Y+016816
X+018755Y+015879
X+018442Y+013879
X+016440Y+011940
X+016440Y+011440
X+016440Y+010940
X+016440Y+010440
X+016440Y+009940
X+016440Y+009440
X+016440Y+008940
X+016940Y+009440
X+020380Y+010253
X+021505Y+010253
X+021005Y+011441
X+022442Y+011441
X+025130Y+013754
X+024630Y+014566
X+025130Y+016879
X+027380Y+011816
X+027380Y+010753
X+027380Y+009066
X+027131Y+006940
X+026568Y+006378
X+024943Y+007815
X+031381Y+013254
X+031381Y+013754
X+032256Y+014004
X+032256Y+013504
X+032256Y+013004
X+032256Y+012503
X+032819Y+012503
X+032819Y+013004
X+032819Y+013504
X+032819Y+014004
X+032819Y+014504
X+032256Y+014504
X+032444Y+016066
X+013066Y+017191
X+011316Y+016941
X+008629Y+016941
X+006753Y+017316
X+007950Y+009307
X+008816Y+008190
X+009004Y+006190
X+012691Y+006690
T02
X+036940Y+017940
X+035940Y+017940
X+034940Y+017940
X+034940Y+016940
X+035940Y+016940
X+035940Y+015940
X+035940Y+014940
X+035940Y+013940
X+036940Y+013940
X+036940Y+014940
X+037940Y+014940
X+037940Y+013940
X+037940Y+012940
X+038940Y+012940
X+038940Y+013940
X+038940Y+014940
X+038940Y+015940
X+037940Y+015940
X+037940Y+016940
X+038940Y+016940
X+036940Y+016940
X+036940Y+015940
X+034940Y+013940
X+034940Y+012940
X+034940Y+011940
X+034940Y+010940
X+035940Y+010940
X+035940Y+011940
X+036940Y+011940
X+036940Y+010940
X+036940Y+009940
X+037940Y+009940
X+037940Y+008940
X+037940Y+007940
X+038940Y+007940
X+038940Y+008940
X+038940Y+009940
X+038940Y+010940
X+037940Y+010940
X+036940Y+008940
X+036940Y+007940
X+036940Y+006940
X+037940Y+006940
X+038940Y+006940
X+035940Y+006940
X+035940Y+007940
X+035940Y+008940
X+035940Y+009940
X+034940Y+009940
X+034940Y+008940
X+034940Y+007940
X+034940Y+006940
X+033690Y+007940
X+033690Y+008940
X+033690Y+009940
X+032690Y+009940
X+032690Y+008940
X+032690Y+007940
X+029940Y+007940
X+029940Y+008940
X+029940Y+009940
X+029940Y+010940
X+029940Y+011940
X+029940Y+012940
X+029940Y+013940
X+028318Y+011941
X+028318Y+010941
X+028318Y+009941
X+028318Y+008941
X+029940Y+006940
X+025940Y+004940
X+024940Y+004940
X+023940Y+004940
X+022940Y+004940
X+021940Y+004940
X+020940Y+004940
X+019940Y+004940
X+018940Y+004940
X+017940Y+004940
X+016940Y+004940
X+015940Y+004940
X+014940Y+004940
X+013940Y+004940
X+012940Y+004940
X+011940Y+004940
X+010940Y+004940
X+009940Y+004940
X+017504Y+012878
X+017504Y+013878
X+017504Y+014878
X+010940Y+017940
X+009940Y+017940
X+008940Y+017940
X+026192Y+014879
X+026192Y+013879
X+026192Y+012879
X+028940Y+016940
X+028940Y+017940
X+035940Y+012940
X+036940Y+012940
T00
M30
