G04 DipTrace 2.4.0.2*
%INBottomMask.gbr*%
%MOIN*%
%ADD31R,0.0709X0.0709*%
%ADD32C,0.0709*%
%ADD69C,0.0789*%
%ADD70R,0.0789X0.0789*%
%ADD71C,0.0749*%
%ADD73R,0.0749X0.0749*%
%FSLAX44Y44*%
G04*
G70*
G90*
G75*
G01*
%LNBotMask*%
%LPD*%
D73*
X38000Y14000D3*
D71*
X37000D3*
X38000Y13000D3*
X37000D3*
X38000Y12000D3*
X37000D3*
X38000Y11000D3*
X37000D3*
X38000Y10000D3*
X37000D3*
X38000Y9000D3*
X37000D3*
X38000Y8000D3*
X37000D3*
X38000Y7000D3*
X37000D3*
X38000Y6000D3*
X37000D3*
X38000Y5000D3*
X37000D3*
X38000Y4000D3*
X37000D3*
X38000Y3000D3*
X37000D3*
D73*
X19000Y2000D3*
D71*
X20000D3*
X21000D3*
X22000D3*
X23000D3*
X24000D3*
X25000D3*
X26000D3*
X27000D3*
X28000D3*
D73*
X40000Y3000D3*
D71*
X39000D3*
X40000Y4000D3*
X39000D3*
X40000Y5000D3*
X39000D3*
X40000Y6000D3*
X39000D3*
X40000Y7000D3*
X39000D3*
D73*
X40000Y9000D3*
D71*
X39000D3*
X40000Y10000D3*
X39000D3*
X40000Y11000D3*
X39000D3*
X40000Y12000D3*
X39000D3*
X40000Y13000D3*
X39000D3*
D70*
X7681Y14374D3*
D69*
X8681D3*
X9681D3*
D31*
X18549Y9116D3*
D32*
Y10100D3*
Y11084D3*
D31*
X27284Y9112D3*
D32*
Y10096D3*
Y11080D3*
D31*
X34500Y13008D3*
D32*
Y13992D3*
D73*
X29366Y13945D3*
D71*
Y12945D3*
Y11945D3*
D73*
X29378Y5001D3*
D71*
Y6001D3*
Y7001D3*
Y8001D3*
D73*
X36000Y3000D3*
D71*
Y4000D3*
Y5000D3*
Y6000D3*
Y7000D3*
Y8000D3*
Y9000D3*
Y10000D3*
D73*
X31000Y3000D3*
D71*
Y4000D3*
Y5000D3*
Y6000D3*
Y7000D3*
Y8000D3*
Y9000D3*
Y10000D3*
D73*
X13000Y1000D3*
D71*
X14000D3*
X15000D3*
X16000D3*
X17000D3*
X18000D3*
X19000D3*
X20000D3*
X21000D3*
X22000D3*
X23000D3*
X24000D3*
X25000D3*
X26000D3*
X27000D3*
D73*
X81500Y14000D3*
D71*
X80500D3*
X81500Y13000D3*
X80500D3*
X81500Y12000D3*
X80500D3*
X81500Y11000D3*
X80500D3*
X81500Y10000D3*
X80500D3*
X81500Y9000D3*
X80500D3*
X81500Y8000D3*
X80500D3*
X81500Y7000D3*
X80500D3*
X81500Y6000D3*
X80500D3*
X81500Y5000D3*
X80500D3*
X81500Y4000D3*
X80500D3*
X81500Y3000D3*
X80500D3*
D73*
X62500Y2000D3*
D71*
X63500D3*
X64500D3*
X65500D3*
X66500D3*
X67500D3*
X68500D3*
X69500D3*
X70500D3*
X71500D3*
D73*
X83500Y3000D3*
D71*
X82500D3*
X83500Y4000D3*
X82500D3*
X83500Y5000D3*
X82500D3*
X83500Y6000D3*
X82500D3*
X83500Y7000D3*
X82500D3*
D73*
X83500Y9000D3*
D71*
X82500D3*
X83500Y10000D3*
X82500D3*
X83500Y11000D3*
X82500D3*
X83500Y12000D3*
X82500D3*
X83500Y13000D3*
X82500D3*
D70*
X51181Y14374D3*
D69*
X52181D3*
X53181D3*
D31*
X62049Y9116D3*
D32*
Y10100D3*
Y11084D3*
D31*
X70784Y9112D3*
D32*
Y10096D3*
Y11080D3*
D31*
X78000Y13008D3*
D32*
Y13992D3*
D73*
X72866Y13945D3*
D71*
Y12945D3*
Y11945D3*
D73*
X72878Y5001D3*
D71*
Y6001D3*
Y7001D3*
Y8001D3*
D73*
X79500Y3000D3*
D71*
Y4000D3*
Y5000D3*
Y6000D3*
Y7000D3*
Y8000D3*
Y9000D3*
Y10000D3*
D73*
X74500Y3000D3*
D71*
Y4000D3*
Y5000D3*
Y6000D3*
Y7000D3*
Y8000D3*
Y9000D3*
Y10000D3*
D73*
X56500Y1000D3*
D71*
X57500D3*
X58500D3*
X59500D3*
X60500D3*
X61500D3*
X62500D3*
X63500D3*
X64500D3*
X65500D3*
X66500D3*
X67500D3*
X68500D3*
X69500D3*
X70500D3*
D73*
X38000Y32500D3*
D71*
X37000D3*
X38000Y31500D3*
X37000D3*
X38000Y30500D3*
X37000D3*
X38000Y29500D3*
X37000D3*
X38000Y28500D3*
X37000D3*
X38000Y27500D3*
X37000D3*
X38000Y26500D3*
X37000D3*
X38000Y25500D3*
X37000D3*
X38000Y24500D3*
X37000D3*
X38000Y23500D3*
X37000D3*
X38000Y22500D3*
X37000D3*
X38000Y21500D3*
X37000D3*
D73*
X19000Y20500D3*
D71*
X20000D3*
X21000D3*
X22000D3*
X23000D3*
X24000D3*
X25000D3*
X26000D3*
X27000D3*
X28000D3*
D73*
X40000Y21500D3*
D71*
X39000D3*
X40000Y22500D3*
X39000D3*
X40000Y23500D3*
X39000D3*
X40000Y24500D3*
X39000D3*
X40000Y25500D3*
X39000D3*
D73*
X40000Y27500D3*
D71*
X39000D3*
X40000Y28500D3*
X39000D3*
X40000Y29500D3*
X39000D3*
X40000Y30500D3*
X39000D3*
X40000Y31500D3*
X39000D3*
D70*
X7681Y32874D3*
D69*
X8681D3*
X9681D3*
D31*
X18549Y27616D3*
D32*
Y28600D3*
Y29584D3*
D31*
X27284Y27612D3*
D32*
Y28596D3*
Y29580D3*
D31*
X34500Y31508D3*
D32*
Y32492D3*
D73*
X29366Y32445D3*
D71*
Y31445D3*
Y30445D3*
D73*
X29378Y23501D3*
D71*
Y24501D3*
Y25501D3*
Y26501D3*
D73*
X36000Y21500D3*
D71*
Y22500D3*
Y23500D3*
Y24500D3*
Y25500D3*
Y26500D3*
Y27500D3*
Y28500D3*
D73*
X31000Y21500D3*
D71*
Y22500D3*
Y23500D3*
Y24500D3*
Y25500D3*
Y26500D3*
Y27500D3*
Y28500D3*
D73*
X13000Y19500D3*
D71*
X14000D3*
X15000D3*
X16000D3*
X17000D3*
X18000D3*
X19000D3*
X20000D3*
X21000D3*
X22000D3*
X23000D3*
X24000D3*
X25000D3*
X26000D3*
X27000D3*
D73*
X81500Y32500D3*
D71*
X80500D3*
X81500Y31500D3*
X80500D3*
X81500Y30500D3*
X80500D3*
X81500Y29500D3*
X80500D3*
X81500Y28500D3*
X80500D3*
X81500Y27500D3*
X80500D3*
X81500Y26500D3*
X80500D3*
X81500Y25500D3*
X80500D3*
X81500Y24500D3*
X80500D3*
X81500Y23500D3*
X80500D3*
X81500Y22500D3*
X80500D3*
X81500Y21500D3*
X80500D3*
D73*
X62500Y20500D3*
D71*
X63500D3*
X64500D3*
X65500D3*
X66500D3*
X67500D3*
X68500D3*
X69500D3*
X70500D3*
X71500D3*
D73*
X83500Y21500D3*
D71*
X82500D3*
X83500Y22500D3*
X82500D3*
X83500Y23500D3*
X82500D3*
X83500Y24500D3*
X82500D3*
X83500Y25500D3*
X82500D3*
D73*
X83500Y27500D3*
D71*
X82500D3*
X83500Y28500D3*
X82500D3*
X83500Y29500D3*
X82500D3*
X83500Y30500D3*
X82500D3*
X83500Y31500D3*
X82500D3*
D70*
X51181Y32874D3*
D69*
X52181D3*
X53181D3*
D31*
X62049Y27616D3*
D32*
Y28600D3*
Y29584D3*
D31*
X70784Y27612D3*
D32*
Y28596D3*
Y29580D3*
D31*
X78000Y31508D3*
D32*
Y32492D3*
D73*
X72866Y32445D3*
D71*
Y31445D3*
Y30445D3*
D73*
X72878Y23501D3*
D71*
Y24501D3*
Y25501D3*
Y26501D3*
D73*
X79500Y21500D3*
D71*
Y22500D3*
Y23500D3*
Y24500D3*
Y25500D3*
Y26500D3*
Y27500D3*
Y28500D3*
D73*
X74500Y21500D3*
D71*
Y22500D3*
Y23500D3*
Y24500D3*
Y25500D3*
Y26500D3*
Y27500D3*
Y28500D3*
D73*
X56500Y19500D3*
D71*
X57500D3*
X58500D3*
X59500D3*
X60500D3*
X61500D3*
X62500D3*
X63500D3*
X64500D3*
X65500D3*
X66500D3*
X67500D3*
X68500D3*
X69500D3*
X70500D3*
D73*
X38000Y51000D3*
D71*
X37000D3*
X38000Y50000D3*
X37000D3*
X38000Y49000D3*
X37000D3*
X38000Y48000D3*
X37000D3*
X38000Y47000D3*
X37000D3*
X38000Y46000D3*
X37000D3*
X38000Y45000D3*
X37000D3*
X38000Y44000D3*
X37000D3*
X38000Y43000D3*
X37000D3*
X38000Y42000D3*
X37000D3*
X38000Y41000D3*
X37000D3*
X38000Y40000D3*
X37000D3*
D73*
X19000Y39000D3*
D71*
X20000D3*
X21000D3*
X22000D3*
X23000D3*
X24000D3*
X25000D3*
X26000D3*
X27000D3*
X28000D3*
D73*
X40000Y40000D3*
D71*
X39000D3*
X40000Y41000D3*
X39000D3*
X40000Y42000D3*
X39000D3*
X40000Y43000D3*
X39000D3*
X40000Y44000D3*
X39000D3*
D73*
X40000Y46000D3*
D71*
X39000D3*
X40000Y47000D3*
X39000D3*
X40000Y48000D3*
X39000D3*
X40000Y49000D3*
X39000D3*
X40000Y50000D3*
X39000D3*
D70*
X7681Y51374D3*
D69*
X8681D3*
X9681D3*
D31*
X18549Y46116D3*
D32*
Y47100D3*
Y48084D3*
D31*
X27284Y46112D3*
D32*
Y47096D3*
Y48080D3*
D31*
X34500Y50008D3*
D32*
Y50992D3*
D73*
X29366Y50945D3*
D71*
Y49945D3*
Y48945D3*
D73*
X29378Y42001D3*
D71*
Y43001D3*
Y44001D3*
Y45001D3*
D73*
X36000Y40000D3*
D71*
Y41000D3*
Y42000D3*
Y43000D3*
Y44000D3*
Y45000D3*
Y46000D3*
Y47000D3*
D73*
X31000Y40000D3*
D71*
Y41000D3*
Y42000D3*
Y43000D3*
Y44000D3*
Y45000D3*
Y46000D3*
Y47000D3*
D73*
X13000Y38000D3*
D71*
X14000D3*
X15000D3*
X16000D3*
X17000D3*
X18000D3*
X19000D3*
X20000D3*
X21000D3*
X22000D3*
X23000D3*
X24000D3*
X25000D3*
X26000D3*
X27000D3*
D73*
X81500Y51000D3*
D71*
X80500D3*
X81500Y50000D3*
X80500D3*
X81500Y49000D3*
X80500D3*
X81500Y48000D3*
X80500D3*
X81500Y47000D3*
X80500D3*
X81500Y46000D3*
X80500D3*
X81500Y45000D3*
X80500D3*
X81500Y44000D3*
X80500D3*
X81500Y43000D3*
X80500D3*
X81500Y42000D3*
X80500D3*
X81500Y41000D3*
X80500D3*
X81500Y40000D3*
X80500D3*
D73*
X62500Y39000D3*
D71*
X63500D3*
X64500D3*
X65500D3*
X66500D3*
X67500D3*
X68500D3*
X69500D3*
X70500D3*
X71500D3*
D73*
X83500Y40000D3*
D71*
X82500D3*
X83500Y41000D3*
X82500D3*
X83500Y42000D3*
X82500D3*
X83500Y43000D3*
X82500D3*
X83500Y44000D3*
X82500D3*
D73*
X83500Y46000D3*
D71*
X82500D3*
X83500Y47000D3*
X82500D3*
X83500Y48000D3*
X82500D3*
X83500Y49000D3*
X82500D3*
X83500Y50000D3*
X82500D3*
D70*
X51181Y51374D3*
D69*
X52181D3*
X53181D3*
D31*
X62049Y46116D3*
D32*
Y47100D3*
Y48084D3*
D31*
X70784Y46112D3*
D32*
Y47096D3*
Y48080D3*
D31*
X78000Y50008D3*
D32*
Y50992D3*
D73*
X72866Y50945D3*
D71*
Y49945D3*
Y48945D3*
D73*
X72878Y42001D3*
D71*
Y43001D3*
Y44001D3*
Y45001D3*
D73*
X79500Y40000D3*
D71*
Y41000D3*
Y42000D3*
Y43000D3*
Y44000D3*
Y45000D3*
Y46000D3*
Y47000D3*
D73*
X74500Y40000D3*
D71*
Y41000D3*
Y42000D3*
Y43000D3*
Y44000D3*
Y45000D3*
Y46000D3*
Y47000D3*
D73*
X56500Y38000D3*
D71*
X57500D3*
X58500D3*
X59500D3*
X60500D3*
X61500D3*
X62500D3*
X63500D3*
X64500D3*
X65500D3*
X66500D3*
X67500D3*
X68500D3*
X69500D3*
X70500D3*
M02*
