G04 DipTrace 2.4.0.2*
%INBottomAssy.gbr*%
%MOIN*%
%ADD10C,0.0098*%
%ADD12C,0.003*%
%ADD89C,0.0046*%
%FSLAX44Y44*%
G04*
G70*
G90*
G75*
G01*
%LNBotAssy*%
%LPD*%
X12220Y402D2*
D10*
X27780D1*
X37511Y14939D2*
D89*
Y14710D1*
X37525Y14667D1*
X37539Y14652D1*
X37568Y14638D1*
X37597D1*
X37625Y14652D1*
X37640Y14667D1*
X37654Y14710D1*
Y14738D1*
X37418Y14882D2*
X37389Y14896D1*
X37346Y14939D1*
Y14638D1*
X12095Y1182D2*
Y952D1*
X12109Y909D1*
X12124Y895D1*
X12152Y881D1*
X12181D1*
X12210Y895D1*
X12224Y909D1*
X12238Y952D1*
Y981D1*
X12002Y1124D2*
X11973Y1139D1*
X11930Y1182D1*
Y881D1*
X11665Y1182D2*
X11809D1*
X11823Y1053D1*
X11809Y1067D1*
X11766Y1081D1*
X11723D1*
X11680Y1067D1*
X11651Y1038D1*
X11637Y995D1*
Y967D1*
X11651Y924D1*
X11680Y895D1*
X11723Y881D1*
X11766D1*
X11809Y895D1*
X11823Y909D1*
X11838Y938D1*
X19005Y19D2*
D12*
Y220D1*
X19091D1*
X19120Y210D1*
X19129Y200D1*
X19139Y181D1*
Y153D1*
X19129Y133D1*
X19120Y124D1*
X19091Y114D1*
X19120Y105D1*
X19129Y95D1*
X19139Y76D1*
Y57D1*
X19129Y38D1*
X19120Y28D1*
X19091Y19D1*
X19005D1*
Y114D2*
X19091D1*
X19258Y19D2*
X19239Y28D1*
X19220Y47D1*
X19210Y66D1*
X19201Y95D1*
Y143D1*
X19210Y172D1*
X19220Y191D1*
X19239Y210D1*
X19258Y220D1*
X19296D1*
X19315Y210D1*
X19335Y191D1*
X19344Y172D1*
X19354Y143D1*
Y95D1*
X19344Y66D1*
X19335Y47D1*
X19315Y28D1*
X19296Y19D1*
X19258D1*
X19569Y220D2*
X19492Y19D1*
X19415Y220D1*
X19444Y153D2*
X19540D1*
X19630Y114D2*
X19716D1*
X19745Y105D1*
X19755Y95D1*
X19764Y76D1*
Y57D1*
X19755Y38D1*
X19745Y28D1*
X19716Y19D1*
X19630D1*
Y220D1*
X19697Y114D2*
X19764Y220D1*
X19826Y19D2*
Y220D1*
X19893D1*
X19922Y210D1*
X19941Y191D1*
X19951Y172D1*
X19960Y143D1*
Y95D1*
X19951Y66D1*
X19941Y47D1*
X19922Y28D1*
X19893Y19D1*
X19826D1*
X20340D2*
X20216D1*
Y220D1*
X20340D1*
X20216Y114D2*
X20293D1*
X20402Y19D2*
Y220D1*
X20469D1*
X20498Y210D1*
X20517Y191D1*
X20527Y172D1*
X20536Y143D1*
Y95D1*
X20527Y66D1*
X20517Y47D1*
X20498Y28D1*
X20469Y19D1*
X20402D1*
X20741Y66D2*
X20732Y47D1*
X20713Y28D1*
X20694Y19D1*
X20655D1*
X20636Y28D1*
X20617Y47D1*
X20607Y66D1*
X20598Y95D1*
Y143D1*
X20607Y172D1*
X20617Y191D1*
X20636Y210D1*
X20655Y220D1*
X20694D1*
X20713Y210D1*
X20732Y191D1*
X20741Y172D1*
Y143D1*
X20694D1*
X20927Y19D2*
X20803D1*
Y220D1*
X20927D1*
X20803Y114D2*
X20880D1*
X55720Y402D2*
D10*
X71280D1*
X81011Y14939D2*
D89*
Y14710D1*
X81025Y14667D1*
X81039Y14652D1*
X81068Y14638D1*
X81097D1*
X81125Y14652D1*
X81140Y14667D1*
X81154Y14710D1*
Y14738D1*
X80918Y14882D2*
X80889Y14896D1*
X80846Y14939D1*
Y14638D1*
X55595Y1182D2*
Y952D1*
X55609Y909D1*
X55624Y895D1*
X55652Y881D1*
X55681D1*
X55710Y895D1*
X55724Y909D1*
X55738Y952D1*
Y981D1*
X55502Y1124D2*
X55473Y1139D1*
X55430Y1182D1*
Y881D1*
X55165Y1182D2*
X55309D1*
X55323Y1053D1*
X55309Y1067D1*
X55266Y1081D1*
X55223D1*
X55180Y1067D1*
X55151Y1038D1*
X55137Y995D1*
Y967D1*
X55151Y924D1*
X55180Y895D1*
X55223Y881D1*
X55266D1*
X55309Y895D1*
X55323Y909D1*
X55338Y938D1*
X62505Y19D2*
D12*
Y220D1*
X62591D1*
X62620Y210D1*
X62629Y200D1*
X62639Y181D1*
Y153D1*
X62629Y133D1*
X62620Y124D1*
X62591Y114D1*
X62620Y105D1*
X62629Y95D1*
X62639Y76D1*
Y57D1*
X62629Y38D1*
X62620Y28D1*
X62591Y19D1*
X62505D1*
Y114D2*
X62591D1*
X62758Y19D2*
X62739Y28D1*
X62720Y47D1*
X62710Y66D1*
X62701Y95D1*
Y143D1*
X62710Y172D1*
X62720Y191D1*
X62739Y210D1*
X62758Y220D1*
X62796D1*
X62815Y210D1*
X62835Y191D1*
X62844Y172D1*
X62854Y143D1*
Y95D1*
X62844Y66D1*
X62835Y47D1*
X62815Y28D1*
X62796Y19D1*
X62758D1*
X63069Y220D2*
X62992Y19D1*
X62915Y220D1*
X62944Y153D2*
X63040D1*
X63130Y114D2*
X63216D1*
X63245Y105D1*
X63255Y95D1*
X63264Y76D1*
Y57D1*
X63255Y38D1*
X63245Y28D1*
X63216Y19D1*
X63130D1*
Y220D1*
X63197Y114D2*
X63264Y220D1*
X63326Y19D2*
Y220D1*
X63393D1*
X63422Y210D1*
X63441Y191D1*
X63451Y172D1*
X63460Y143D1*
Y95D1*
X63451Y66D1*
X63441Y47D1*
X63422Y28D1*
X63393Y19D1*
X63326D1*
X63840D2*
X63716D1*
Y220D1*
X63840D1*
X63716Y114D2*
X63793D1*
X63902Y19D2*
Y220D1*
X63969D1*
X63998Y210D1*
X64017Y191D1*
X64027Y172D1*
X64036Y143D1*
Y95D1*
X64027Y66D1*
X64017Y47D1*
X63998Y28D1*
X63969Y19D1*
X63902D1*
X64241Y66D2*
X64232Y47D1*
X64213Y28D1*
X64194Y19D1*
X64155D1*
X64136Y28D1*
X64117Y47D1*
X64107Y66D1*
X64098Y95D1*
Y143D1*
X64107Y172D1*
X64117Y191D1*
X64136Y210D1*
X64155Y220D1*
X64194D1*
X64213Y210D1*
X64232Y191D1*
X64241Y172D1*
Y143D1*
X64194D1*
X64427Y19D2*
X64303D1*
Y220D1*
X64427D1*
X64303Y114D2*
X64380D1*
X12220Y18902D2*
D10*
X27780D1*
X37511Y33439D2*
D89*
Y33210D1*
X37525Y33167D1*
X37539Y33152D1*
X37568Y33138D1*
X37597D1*
X37625Y33152D1*
X37640Y33167D1*
X37654Y33210D1*
Y33238D1*
X37418Y33382D2*
X37389Y33396D1*
X37346Y33439D1*
Y33138D1*
X12095Y19682D2*
Y19452D1*
X12109Y19409D1*
X12124Y19395D1*
X12152Y19381D1*
X12181D1*
X12210Y19395D1*
X12224Y19409D1*
X12238Y19452D1*
Y19481D1*
X12002Y19624D2*
X11973Y19639D1*
X11930Y19682D1*
Y19381D1*
X11665Y19682D2*
X11809D1*
X11823Y19553D1*
X11809Y19567D1*
X11766Y19581D1*
X11723D1*
X11680Y19567D1*
X11651Y19538D1*
X11637Y19495D1*
Y19467D1*
X11651Y19424D1*
X11680Y19395D1*
X11723Y19381D1*
X11766D1*
X11809Y19395D1*
X11823Y19409D1*
X11838Y19438D1*
X19005Y18519D2*
D12*
Y18720D1*
X19091D1*
X19120Y18710D1*
X19129Y18700D1*
X19139Y18681D1*
Y18653D1*
X19129Y18633D1*
X19120Y18624D1*
X19091Y18614D1*
X19120Y18605D1*
X19129Y18595D1*
X19139Y18576D1*
Y18557D1*
X19129Y18538D1*
X19120Y18528D1*
X19091Y18519D1*
X19005D1*
Y18614D2*
X19091D1*
X19258Y18519D2*
X19239Y18528D1*
X19220Y18547D1*
X19210Y18566D1*
X19201Y18595D1*
Y18643D1*
X19210Y18672D1*
X19220Y18691D1*
X19239Y18710D1*
X19258Y18720D1*
X19296D1*
X19315Y18710D1*
X19335Y18691D1*
X19344Y18672D1*
X19354Y18643D1*
Y18595D1*
X19344Y18566D1*
X19335Y18547D1*
X19315Y18528D1*
X19296Y18519D1*
X19258D1*
X19569Y18720D2*
X19492Y18519D1*
X19415Y18720D1*
X19444Y18653D2*
X19540D1*
X19630Y18614D2*
X19716D1*
X19745Y18605D1*
X19755Y18595D1*
X19764Y18576D1*
Y18557D1*
X19755Y18538D1*
X19745Y18528D1*
X19716Y18519D1*
X19630D1*
Y18720D1*
X19697Y18614D2*
X19764Y18720D1*
X19826Y18519D2*
Y18720D1*
X19893D1*
X19922Y18710D1*
X19941Y18691D1*
X19951Y18672D1*
X19960Y18643D1*
Y18595D1*
X19951Y18566D1*
X19941Y18547D1*
X19922Y18528D1*
X19893Y18519D1*
X19826D1*
X20340D2*
X20216D1*
Y18720D1*
X20340D1*
X20216Y18614D2*
X20293D1*
X20402Y18519D2*
Y18720D1*
X20469D1*
X20498Y18710D1*
X20517Y18691D1*
X20527Y18672D1*
X20536Y18643D1*
Y18595D1*
X20527Y18566D1*
X20517Y18547D1*
X20498Y18528D1*
X20469Y18519D1*
X20402D1*
X20741Y18566D2*
X20732Y18547D1*
X20713Y18528D1*
X20694Y18519D1*
X20655D1*
X20636Y18528D1*
X20617Y18547D1*
X20607Y18566D1*
X20598Y18595D1*
Y18643D1*
X20607Y18672D1*
X20617Y18691D1*
X20636Y18710D1*
X20655Y18720D1*
X20694D1*
X20713Y18710D1*
X20732Y18691D1*
X20741Y18672D1*
Y18643D1*
X20694D1*
X20927Y18519D2*
X20803D1*
Y18720D1*
X20927D1*
X20803Y18614D2*
X20880D1*
X55720Y18902D2*
D10*
X71280D1*
X81011Y33439D2*
D89*
Y33210D1*
X81025Y33167D1*
X81039Y33152D1*
X81068Y33138D1*
X81097D1*
X81125Y33152D1*
X81140Y33167D1*
X81154Y33210D1*
Y33238D1*
X80918Y33382D2*
X80889Y33396D1*
X80846Y33439D1*
Y33138D1*
X55595Y19682D2*
Y19452D1*
X55609Y19409D1*
X55624Y19395D1*
X55652Y19381D1*
X55681D1*
X55710Y19395D1*
X55724Y19409D1*
X55738Y19452D1*
Y19481D1*
X55502Y19624D2*
X55473Y19639D1*
X55430Y19682D1*
Y19381D1*
X55165Y19682D2*
X55309D1*
X55323Y19553D1*
X55309Y19567D1*
X55266Y19581D1*
X55223D1*
X55180Y19567D1*
X55151Y19538D1*
X55137Y19495D1*
Y19467D1*
X55151Y19424D1*
X55180Y19395D1*
X55223Y19381D1*
X55266D1*
X55309Y19395D1*
X55323Y19409D1*
X55338Y19438D1*
X62505Y18519D2*
D12*
Y18720D1*
X62591D1*
X62620Y18710D1*
X62629Y18700D1*
X62639Y18681D1*
Y18653D1*
X62629Y18633D1*
X62620Y18624D1*
X62591Y18614D1*
X62620Y18605D1*
X62629Y18595D1*
X62639Y18576D1*
Y18557D1*
X62629Y18538D1*
X62620Y18528D1*
X62591Y18519D1*
X62505D1*
Y18614D2*
X62591D1*
X62758Y18519D2*
X62739Y18528D1*
X62720Y18547D1*
X62710Y18566D1*
X62701Y18595D1*
Y18643D1*
X62710Y18672D1*
X62720Y18691D1*
X62739Y18710D1*
X62758Y18720D1*
X62796D1*
X62815Y18710D1*
X62835Y18691D1*
X62844Y18672D1*
X62854Y18643D1*
Y18595D1*
X62844Y18566D1*
X62835Y18547D1*
X62815Y18528D1*
X62796Y18519D1*
X62758D1*
X63069Y18720D2*
X62992Y18519D1*
X62915Y18720D1*
X62944Y18653D2*
X63040D1*
X63130Y18614D2*
X63216D1*
X63245Y18605D1*
X63255Y18595D1*
X63264Y18576D1*
Y18557D1*
X63255Y18538D1*
X63245Y18528D1*
X63216Y18519D1*
X63130D1*
Y18720D1*
X63197Y18614D2*
X63264Y18720D1*
X63326Y18519D2*
Y18720D1*
X63393D1*
X63422Y18710D1*
X63441Y18691D1*
X63451Y18672D1*
X63460Y18643D1*
Y18595D1*
X63451Y18566D1*
X63441Y18547D1*
X63422Y18528D1*
X63393Y18519D1*
X63326D1*
X63840D2*
X63716D1*
Y18720D1*
X63840D1*
X63716Y18614D2*
X63793D1*
X63902Y18519D2*
Y18720D1*
X63969D1*
X63998Y18710D1*
X64017Y18691D1*
X64027Y18672D1*
X64036Y18643D1*
Y18595D1*
X64027Y18566D1*
X64017Y18547D1*
X63998Y18528D1*
X63969Y18519D1*
X63902D1*
X64241Y18566D2*
X64232Y18547D1*
X64213Y18528D1*
X64194Y18519D1*
X64155D1*
X64136Y18528D1*
X64117Y18547D1*
X64107Y18566D1*
X64098Y18595D1*
Y18643D1*
X64107Y18672D1*
X64117Y18691D1*
X64136Y18710D1*
X64155Y18720D1*
X64194D1*
X64213Y18710D1*
X64232Y18691D1*
X64241Y18672D1*
Y18643D1*
X64194D1*
X64427Y18519D2*
X64303D1*
Y18720D1*
X64427D1*
X64303Y18614D2*
X64380D1*
X12220Y37402D2*
D10*
X27780D1*
X37511Y51939D2*
D89*
Y51710D1*
X37525Y51667D1*
X37539Y51652D1*
X37568Y51638D1*
X37597D1*
X37625Y51652D1*
X37640Y51667D1*
X37654Y51710D1*
Y51738D1*
X37418Y51882D2*
X37389Y51896D1*
X37346Y51939D1*
Y51638D1*
X12095Y38182D2*
Y37952D1*
X12109Y37909D1*
X12124Y37895D1*
X12152Y37881D1*
X12181D1*
X12210Y37895D1*
X12224Y37909D1*
X12238Y37952D1*
Y37981D1*
X12002Y38124D2*
X11973Y38139D1*
X11930Y38182D1*
Y37881D1*
X11665Y38182D2*
X11809D1*
X11823Y38053D1*
X11809Y38067D1*
X11766Y38081D1*
X11723D1*
X11680Y38067D1*
X11651Y38038D1*
X11637Y37995D1*
Y37967D1*
X11651Y37924D1*
X11680Y37895D1*
X11723Y37881D1*
X11766D1*
X11809Y37895D1*
X11823Y37909D1*
X11838Y37938D1*
X19005Y37019D2*
D12*
Y37220D1*
X19091D1*
X19120Y37210D1*
X19129Y37200D1*
X19139Y37181D1*
Y37153D1*
X19129Y37133D1*
X19120Y37124D1*
X19091Y37114D1*
X19120Y37105D1*
X19129Y37095D1*
X19139Y37076D1*
Y37057D1*
X19129Y37038D1*
X19120Y37028D1*
X19091Y37019D1*
X19005D1*
Y37114D2*
X19091D1*
X19258Y37019D2*
X19239Y37028D1*
X19220Y37047D1*
X19210Y37066D1*
X19201Y37095D1*
Y37143D1*
X19210Y37172D1*
X19220Y37191D1*
X19239Y37210D1*
X19258Y37220D1*
X19296D1*
X19315Y37210D1*
X19335Y37191D1*
X19344Y37172D1*
X19354Y37143D1*
Y37095D1*
X19344Y37066D1*
X19335Y37047D1*
X19315Y37028D1*
X19296Y37019D1*
X19258D1*
X19569Y37220D2*
X19492Y37019D1*
X19415Y37220D1*
X19444Y37153D2*
X19540D1*
X19630Y37114D2*
X19716D1*
X19745Y37105D1*
X19755Y37095D1*
X19764Y37076D1*
Y37057D1*
X19755Y37038D1*
X19745Y37028D1*
X19716Y37019D1*
X19630D1*
Y37220D1*
X19697Y37114D2*
X19764Y37220D1*
X19826Y37019D2*
Y37220D1*
X19893D1*
X19922Y37210D1*
X19941Y37191D1*
X19951Y37172D1*
X19960Y37143D1*
Y37095D1*
X19951Y37066D1*
X19941Y37047D1*
X19922Y37028D1*
X19893Y37019D1*
X19826D1*
X20340D2*
X20216D1*
Y37220D1*
X20340D1*
X20216Y37114D2*
X20293D1*
X20402Y37019D2*
Y37220D1*
X20469D1*
X20498Y37210D1*
X20517Y37191D1*
X20527Y37172D1*
X20536Y37143D1*
Y37095D1*
X20527Y37066D1*
X20517Y37047D1*
X20498Y37028D1*
X20469Y37019D1*
X20402D1*
X20741Y37066D2*
X20732Y37047D1*
X20713Y37028D1*
X20694Y37019D1*
X20655D1*
X20636Y37028D1*
X20617Y37047D1*
X20607Y37066D1*
X20598Y37095D1*
Y37143D1*
X20607Y37172D1*
X20617Y37191D1*
X20636Y37210D1*
X20655Y37220D1*
X20694D1*
X20713Y37210D1*
X20732Y37191D1*
X20741Y37172D1*
Y37143D1*
X20694D1*
X20927Y37019D2*
X20803D1*
Y37220D1*
X20927D1*
X20803Y37114D2*
X20880D1*
X55720Y37402D2*
D10*
X71280D1*
X81011Y51939D2*
D89*
Y51710D1*
X81025Y51667D1*
X81039Y51652D1*
X81068Y51638D1*
X81097D1*
X81125Y51652D1*
X81140Y51667D1*
X81154Y51710D1*
Y51738D1*
X80918Y51882D2*
X80889Y51896D1*
X80846Y51939D1*
Y51638D1*
X55595Y38182D2*
Y37952D1*
X55609Y37909D1*
X55624Y37895D1*
X55652Y37881D1*
X55681D1*
X55710Y37895D1*
X55724Y37909D1*
X55738Y37952D1*
Y37981D1*
X55502Y38124D2*
X55473Y38139D1*
X55430Y38182D1*
Y37881D1*
X55165Y38182D2*
X55309D1*
X55323Y38053D1*
X55309Y38067D1*
X55266Y38081D1*
X55223D1*
X55180Y38067D1*
X55151Y38038D1*
X55137Y37995D1*
Y37967D1*
X55151Y37924D1*
X55180Y37895D1*
X55223Y37881D1*
X55266D1*
X55309Y37895D1*
X55323Y37909D1*
X55338Y37938D1*
X62505Y37019D2*
D12*
Y37220D1*
X62591D1*
X62620Y37210D1*
X62629Y37200D1*
X62639Y37181D1*
Y37153D1*
X62629Y37133D1*
X62620Y37124D1*
X62591Y37114D1*
X62620Y37105D1*
X62629Y37095D1*
X62639Y37076D1*
Y37057D1*
X62629Y37038D1*
X62620Y37028D1*
X62591Y37019D1*
X62505D1*
Y37114D2*
X62591D1*
X62758Y37019D2*
X62739Y37028D1*
X62720Y37047D1*
X62710Y37066D1*
X62701Y37095D1*
Y37143D1*
X62710Y37172D1*
X62720Y37191D1*
X62739Y37210D1*
X62758Y37220D1*
X62796D1*
X62815Y37210D1*
X62835Y37191D1*
X62844Y37172D1*
X62854Y37143D1*
Y37095D1*
X62844Y37066D1*
X62835Y37047D1*
X62815Y37028D1*
X62796Y37019D1*
X62758D1*
X63069Y37220D2*
X62992Y37019D1*
X62915Y37220D1*
X62944Y37153D2*
X63040D1*
X63130Y37114D2*
X63216D1*
X63245Y37105D1*
X63255Y37095D1*
X63264Y37076D1*
Y37057D1*
X63255Y37038D1*
X63245Y37028D1*
X63216Y37019D1*
X63130D1*
Y37220D1*
X63197Y37114D2*
X63264Y37220D1*
X63326Y37019D2*
Y37220D1*
X63393D1*
X63422Y37210D1*
X63441Y37191D1*
X63451Y37172D1*
X63460Y37143D1*
Y37095D1*
X63451Y37066D1*
X63441Y37047D1*
X63422Y37028D1*
X63393Y37019D1*
X63326D1*
X63840D2*
X63716D1*
Y37220D1*
X63840D1*
X63716Y37114D2*
X63793D1*
X63902Y37019D2*
Y37220D1*
X63969D1*
X63998Y37210D1*
X64017Y37191D1*
X64027Y37172D1*
X64036Y37143D1*
Y37095D1*
X64027Y37066D1*
X64017Y37047D1*
X63998Y37028D1*
X63969Y37019D1*
X63902D1*
X64241Y37066D2*
X64232Y37047D1*
X64213Y37028D1*
X64194Y37019D1*
X64155D1*
X64136Y37028D1*
X64117Y37047D1*
X64107Y37066D1*
X64098Y37095D1*
Y37143D1*
X64107Y37172D1*
X64117Y37191D1*
X64136Y37210D1*
X64155Y37220D1*
X64194D1*
X64213Y37210D1*
X64232Y37191D1*
X64241Y37172D1*
Y37143D1*
X64194D1*
X64427Y37019D2*
X64303D1*
Y37220D1*
X64427D1*
X64303Y37114D2*
X64380D1*
M02*
