G04 DipTrace 2.4.0.2*
%INTop.gbr*%
%MOIN*%
%ADD13C,0.013*%
%ADD14C,0.03*%
%ADD15C,0.0394*%
%ADD16C,0.025*%
%ADD17C,0.06*%
%ADD18C,0.04*%
%ADD19R,0.0433X0.0394*%
%ADD20R,0.1063X0.063*%
%ADD21R,0.0512X0.0591*%
%ADD22R,0.0591X0.0512*%
%ADD23R,0.0394X0.0433*%
%ADD25R,0.0945X0.0945*%
%ADD27R,0.0236X0.0236*%
%ADD28R,0.0315X0.0315*%
%ADD29R,0.0669X0.0669*%
%ADD30C,0.0669*%
%ADD31R,0.0709X0.0709*%
%ADD32C,0.0709*%
%ADD33R,0.063X0.063*%
%ADD34C,0.063*%
%ADD36R,0.0413X0.0256*%
%ADD38R,0.0846X0.1772*%
%ADD39R,0.0709X0.0157*%
%ADD40R,0.0984X0.1654*%
%ADD41R,0.0846X0.0374*%
%ADD42R,0.0846X0.128*%
%ADD43R,0.0157X0.0551*%
%ADD44R,0.0236X0.0787*%
%FSLAX44Y44*%
G04*
G70*
G90*
G75*
G01*
%LNTop*%
%LPD*%
X32188Y2938D2*
D13*
X31062D1*
X31000Y3000D1*
X29875D1*
X29813Y2938D1*
X24419Y4562D2*
Y4004D1*
D14*
X21220D1*
X20079D1*
X18921D1*
X17812D1*
X17756D1*
X17012D1*
X16466Y4550D1*
X13757D1*
X25429Y4004D2*
X24419D1*
X17750Y4551D2*
D13*
X18921D1*
X20073D1*
X20079Y4557D1*
X21230D1*
X31059Y11124D2*
X30467D1*
X30357Y11014D1*
X20079Y4557D2*
D14*
Y4004D1*
X18921Y4551D2*
Y4004D1*
X17750Y4551D2*
Y4066D1*
X17812Y4004D1*
X21230Y4557D2*
D13*
X22450D1*
X22456Y4562D1*
X21230Y4557D2*
D14*
X21220D1*
Y4004D1*
X17756Y3484D2*
Y4004D1*
X1635Y12937D2*
X2854D1*
Y12933D1*
D15*
X4248D1*
Y10154D1*
X2709D1*
X2587Y10031D1*
X7681Y14374D2*
X5693D1*
X4252Y12933D1*
X4248Y10154D2*
D13*
Y9394D1*
X4232Y9409D1*
Y7299D2*
Y2547D1*
X7469Y2732D2*
Y2858D1*
X7795Y3185D1*
X8122D1*
X8140Y3203D1*
X17953Y14094D2*
X17819D1*
X17543Y14370D1*
X11425D1*
X30000Y9250D2*
X29125D1*
Y10444D1*
X30522Y11841D1*
Y11945D1*
Y12372D1*
X29125Y9250D2*
X28440D1*
Y7876D1*
Y6813D2*
X27771D1*
X27753Y6795D1*
X30000Y9250D2*
X30750D1*
X31000Y9000D1*
X33898Y5531D2*
Y4774D1*
X33893Y4063D2*
Y4774D1*
X33898D1*
X31000Y9000D2*
X31500Y8500D1*
Y6020D1*
X31555Y5965D1*
X33465D1*
X33898Y5531D1*
X15000Y1000D2*
X15026D1*
X15600Y1575D1*
X17520D1*
X19031Y3496D2*
X20012D1*
Y3553D1*
X21000D1*
X24000D1*
X28317D1*
X21000Y2000D2*
Y3553D1*
X24000Y2000D2*
Y3553D1*
X29366Y11945D2*
X30522D1*
X14785Y13402D2*
D14*
X15985D1*
D13*
X16003Y13384D1*
X9681Y14374D2*
D15*
X10795D1*
Y13512D1*
Y11831D1*
X10752Y11787D1*
X14785Y13402D2*
Y13512D1*
X10795D1*
X17953Y13504D2*
D13*
X16123D1*
X16003Y13384D1*
Y13641D1*
X16358Y13996D1*
X16382Y10362D2*
Y5154D1*
Y3760D2*
X16402D1*
Y2516D1*
X16122Y2236D1*
X8136D1*
Y2639D1*
X6398Y2224D2*
X8136Y2236D1*
X37000Y13000D2*
X37500Y13500D1*
X38500D1*
X39000Y13000D1*
X38000D2*
X39000Y12000D1*
X38000D2*
X39000Y11000D1*
X38000D2*
X39000Y10000D1*
X38000D2*
X39000Y9000D1*
X37000Y8000D2*
X37500Y7500D1*
X39500D1*
Y6500D1*
X40000Y6000D1*
Y5000D2*
X39500Y5500D1*
X37620D1*
X37500Y5620D1*
Y6500D1*
X37000Y7000D1*
X38000D2*
X39000Y6000D1*
X25449Y4768D2*
X25398D1*
X25192Y4562D1*
X25125D1*
X25062Y4500D1*
X22252Y9939D2*
Y9638D1*
X22627Y9262D1*
Y7278D1*
X23030Y6876D1*
X25376D1*
X25449Y6803D1*
Y6500D1*
X26217D2*
Y6850D1*
X25941Y7126D1*
X23177D1*
X22877Y7426D1*
Y9251D1*
X23252Y9626D1*
Y9938D1*
Y9939D1*
X10105Y4799D2*
X11047D1*
X11250Y4596D1*
Y4173D1*
X33187Y6433D2*
X34044D1*
X34062Y6451D1*
X32437Y11104D2*
X32569D1*
Y10827D1*
X33819D1*
X34000Y3000D2*
X33188D1*
X33063Y3125D1*
Y3965D1*
X32965Y4062D1*
X32210D1*
X32188Y4040D1*
X31201Y13346D2*
X30620D1*
X30541Y13425D1*
X32437Y11104D2*
X31614D1*
Y10000D1*
X31752D1*
Y6654D1*
X31973Y6433D1*
X33187D1*
X40000Y13000D2*
X40500Y12500D1*
Y7500D1*
X40000Y7000D1*
X23565Y6061D2*
X24492D1*
Y6059D1*
X25052Y11374D2*
X23317D1*
X23252Y11439D1*
Y12064D1*
Y12065D1*
X20507Y10626D2*
X21252D1*
X21627Y11001D1*
X23002D1*
X23317Y11316D1*
Y11374D1*
X22252Y12065D2*
Y13564D1*
X22500D1*
X23252D1*
Y12065D1*
X24338Y8189D2*
Y7751D1*
X27753D1*
Y9571D1*
X26753D1*
Y11080D1*
X27284D1*
X18549Y11084D2*
X19065D1*
Y9583D1*
X18064D1*
Y7688D1*
X21440D1*
X21161D1*
Y8189D1*
X20507Y10626D2*
Y10501D1*
X20002D1*
X19419Y11084D1*
X18549D1*
X25052Y11374D2*
X26130D1*
X26424Y11080D1*
X27284D1*
X23565Y6061D2*
X22817D1*
X22565Y6313D1*
X21440D2*
Y7688D1*
X31000Y4000D2*
X29852D1*
X29813Y4040D1*
X31000Y4000D2*
X32148D1*
X32188Y4040D1*
X30000Y9998D2*
X30998D1*
X31000Y10000D1*
X31614D1*
X30000Y9998D2*
Y10063D1*
X29688Y10375D1*
X16000Y1000D2*
X17000D1*
X5711Y4494D2*
Y3920D1*
X5699Y3908D1*
Y3349D1*
X5660Y3310D1*
Y3075D1*
X5983Y2752D1*
X6797D1*
X7428Y3383D1*
Y3679D1*
X7822D1*
X9000D1*
Y4346D1*
Y5147D1*
X8964Y5183D1*
X7822Y4031D2*
Y3679D1*
X14785Y12300D2*
D14*
X15985D1*
D13*
X16003Y12282D1*
X1635Y11835D2*
D14*
X2854D1*
Y11831D1*
X15013Y10567D2*
D15*
Y11291D1*
X16003Y12282D1*
X13956Y3357D2*
D13*
Y4061D1*
X12479D1*
X11843D1*
Y3323D1*
X12732Y5616D2*
X12722Y5626D1*
X11955D1*
X8750Y4346D2*
X9250D1*
X8750Y4846D2*
X9250D1*
X8750Y5346D2*
X9250D1*
X8750Y5846D2*
X9250D1*
X8750D2*
Y5346D1*
Y4846D1*
Y4346D1*
X9000D1*
X17750Y5654D2*
X18921D1*
X20073D1*
X20079Y5659D1*
X21230D1*
X25705Y6500D2*
Y6059D1*
Y5803D1*
X25866Y5642D1*
X26394D1*
X26827Y5209D1*
X26957D1*
X24492Y6059D2*
X25705D1*
X22500Y13500D2*
Y13564D1*
X30541Y13425D2*
Y13415D1*
X30079Y12953D1*
X29374D1*
X29366Y12945D1*
X28555D1*
X28500Y13000D1*
X31201Y14094D2*
X30541D1*
X37000Y14000D2*
X36938D1*
X36375Y14563D1*
X30541D1*
Y14094D1*
X32467Y8901D2*
Y7756D1*
X32437Y7727D1*
X32467Y8901D2*
Y9973D1*
X32437Y10002D1*
X34750Y8901D2*
Y8858D1*
X35167D1*
X35500Y9191D1*
Y10906D1*
X35591D1*
X32467Y8901D2*
X34750D1*
X38000Y5000D2*
X39000D1*
X38000D2*
X37500Y4500D1*
Y2687D1*
X37125Y2312D1*
X29272D1*
X29063Y2522D1*
Y3969D1*
X28843Y4189D1*
X26157D1*
X25961Y4386D1*
Y4768D1*
X5548Y5150D2*
X5504D1*
X5157Y4803D1*
Y2795D1*
X5728Y2224D1*
X11861Y2681D2*
X12532D1*
X12540Y2690D1*
X12542Y3306D2*
Y2692D1*
X11866Y7067D2*
D15*
Y8205D1*
X12102Y8441D1*
X15013Y8835D2*
X12496D1*
X12102Y8441D1*
X5445D2*
X2728D1*
X2587Y8299D1*
X5764Y7059D2*
Y8122D1*
X5445Y8441D1*
X7822Y4287D2*
D13*
X7257D1*
X7180Y4211D1*
Y3526D1*
X6991Y3337D1*
X6435D1*
X6408Y3310D1*
X10105Y4287D2*
X10675D1*
Y3618D1*
X10980Y3313D1*
X11164D1*
X11174Y3323D1*
Y2699D1*
X11192Y2681D1*
X7822Y4543D2*
X7028D1*
X6873Y4388D1*
Y3963D1*
X6838Y3927D1*
X6387D1*
X6368Y3908D1*
X10032Y2639D2*
Y3209D1*
X10105Y4031D2*
Y3282D1*
X10032Y3209D1*
X8809Y3203D2*
X9357D1*
X9363Y3209D1*
X8805Y2639D2*
X9363D1*
Y3208D1*
X32437Y7058D2*
X33187D1*
Y7102D1*
X34044D1*
X34062Y7120D1*
X34875D1*
Y7870D1*
X34750Y7995D1*
X34500Y13992D2*
X32746D1*
Y13720D1*
X32324D1*
X32106D1*
X32224Y13002D2*
Y13621D1*
X32324Y13720D1*
X36240Y13750D2*
Y13996D1*
X36220Y14016D1*
X34524D1*
X34500Y13992D1*
X27753Y6126D2*
Y5773D1*
Y5420D1*
Y5773D2*
X27141D1*
X26957Y5957D1*
X25961Y6500D2*
Y6012D1*
X26028Y5945D1*
X26945D1*
X26957Y5957D1*
X36260Y10906D2*
Y11339D1*
X34911D1*
Y12000D1*
X34500D1*
Y13008D1*
X31191Y12372D2*
X31358D1*
Y12293D1*
X32244D1*
Y12096D1*
X34500D1*
Y13008D1*
X36250Y11841D2*
X36260Y11339D1*
X32224Y12333D2*
X32244Y12293D1*
X21752Y9939D2*
Y8876D1*
X21674D1*
Y8858D1*
X21696D1*
X21161D2*
X21674D1*
X21161D2*
X20598D1*
X20042D1*
X20036Y8864D1*
X22260Y8858D2*
X21706D1*
X21674Y8876D1*
X23752Y9939D2*
Y8873D1*
X23767Y8858D1*
X23796D1*
X24338D1*
X24869D1*
X25397D1*
X25408Y8868D1*
X23252Y8858D2*
X23767D1*
X21752Y12065D2*
Y13564D1*
X21190D1*
X20458D1*
X20440Y13546D1*
X19752D1*
X25003Y13626D2*
X24333D1*
X24315Y13608D1*
X23771D1*
X23752Y13626D1*
Y12065D1*
X25690Y13608D2*
X25021D1*
X25003Y13626D1*
X31000Y5000D2*
X29379D1*
X29378Y5001D1*
Y6001D2*
X30999D1*
X31000Y6000D1*
Y7000D2*
X29379D1*
X29378Y7001D1*
Y8001D2*
X30999D1*
X31000Y8000D1*
X36000Y4000D2*
X34625D1*
X34563Y4063D1*
X34669Y3000D2*
X34625D1*
Y4000D1*
X36000Y5000D2*
X34567D1*
Y4774D1*
Y5531D2*
X36000D1*
Y6000D1*
Y7000D2*
Y8000D1*
X19000Y2000D2*
X20000Y1000D1*
X26000D2*
X27000Y2000D1*
X24000Y1000D2*
X25000Y2000D1*
Y1000D2*
X26000Y2000D1*
X13212Y3306D2*
Y2692D1*
X13210Y2690D1*
X13953D1*
X13956Y2687D1*
X36250Y12510D2*
Y13150D1*
X36240Y13159D1*
X7047Y5551D2*
Y4843D1*
X7087Y4803D1*
X7818D1*
X7822Y4799D1*
X22752Y9939D2*
Y10564D1*
X24990D1*
X25052Y10626D1*
X18622Y14094D2*
X19173D1*
X25052Y9752D2*
Y10626D1*
X20507Y11374D2*
X22752D1*
Y12065D1*
X20507Y11374D2*
Y12042D1*
X20496Y12031D1*
X19173Y13504D2*
X18622D1*
X34567Y10827D2*
X34754D1*
Y9685D1*
X34633Y9806D1*
X34750D1*
X31059Y11793D2*
X31333D1*
X31350Y11811D1*
X33632D1*
X34016Y11427D1*
X34528D1*
Y10827D1*
X34567D1*
X6388Y6261D2*
Y5688D1*
X6374Y5674D1*
X6414Y5150D2*
Y5634D1*
X6374Y5674D1*
X6380Y4494D2*
Y5115D1*
X6414Y5150D1*
X7047Y6220D2*
X6428D1*
X6388Y6261D1*
X5705Y5674D2*
Y6247D1*
X5719Y6261D1*
X10105Y5055D2*
X10636D1*
X11207Y5626D1*
D14*
X11246D1*
Y5094D1*
X11738D1*
X11919Y4913D1*
Y4596D1*
X13087D1*
Y4550D1*
X5445Y11787D2*
D15*
Y10110D1*
X11203D1*
X12122D1*
Y11768D1*
X12102Y11787D1*
X11207Y5626D2*
X11203Y6321D1*
X5719Y6261D2*
D13*
X4953D1*
X26217Y4768D2*
Y4571D1*
X27573D1*
X27753Y4750D1*
X23125Y4562D2*
X23750D1*
Y5313D1*
X23565D1*
X24492D1*
Y5311D1*
X23565Y5313D2*
X22063D1*
Y7501D1*
Y8189D1*
X21696D1*
X23565Y7438D2*
X23500Y7503D1*
Y8189D1*
X23796D1*
X22260D2*
X21696D1*
X23252D2*
X23795D1*
X23796D1*
X26217Y4768D2*
Y5295D1*
X24508D1*
X24492Y5311D1*
X25705Y4768D2*
X25689D1*
Y4323D1*
X26074Y3938D1*
X28691D1*
X28816Y3813D1*
Y2385D1*
X29138Y2063D1*
X38188D1*
X39000Y2875D1*
Y3000D1*
X38000Y4000D2*
X39000D1*
X7822Y5311D2*
Y5567D1*
Y5823D1*
Y6079D1*
Y6334D1*
Y6335D1*
X10105Y5311D2*
Y5567D1*
Y5823D1*
Y6079D1*
Y6335D1*
X6512Y7059D2*
D14*
X7264D1*
X7822Y6501D1*
Y6335D1*
X6512Y7059D2*
X10105D1*
X11110D1*
D13*
X11118Y7067D1*
X10105Y6335D2*
D14*
Y7059D1*
X6512D2*
D15*
Y8157D1*
X6795Y8441D1*
X11118Y7067D2*
Y8075D1*
X10752Y8441D1*
X18000Y1000D2*
D14*
Y2177D1*
X17764Y2413D1*
Y2807D1*
X17756Y2815D1*
X20598Y8189D2*
D13*
X20042D1*
X20036Y8195D1*
X19312D1*
Y9100D1*
Y9501D1*
X21252D1*
Y9939D1*
X18549Y9116D2*
X19312Y9100D1*
X19752Y12876D2*
X19190D1*
X20295Y9528D2*
X21252D1*
Y9939D1*
Y12065D2*
Y12832D1*
X21190Y12895D1*
X20458D1*
X20440Y12876D1*
X18549Y10100D2*
X18063D1*
Y12433D1*
X21252D1*
Y12065D1*
X24869Y8189D2*
X25397D1*
X25408Y8199D1*
X25817D1*
Y8910D1*
X25797D1*
Y9311D1*
X24252D1*
Y9939D1*
X25817Y8910D2*
X27082D1*
X27284Y9112D1*
X25690Y12939D2*
X25778D1*
Y9331D2*
X24252D1*
Y9939D1*
Y12065D2*
Y12876D1*
X24315Y12939D1*
X24984D1*
X25003Y12957D1*
X27284Y10096D2*
X27753D1*
Y12453D1*
X24252D1*
Y12065D1*
X36000Y10000D2*
X37000D1*
Y6000D2*
X36500Y5500D1*
Y3500D1*
X36000Y3000D1*
X29366Y13945D2*
Y13972D1*
X30197Y14803D1*
X37197D1*
X38000Y14000D1*
X36000Y9000D2*
X37000D1*
D18*
X25429Y4004D3*
X30357Y11014D3*
X4232Y9409D3*
Y7299D3*
Y2547D3*
X7469Y2732D3*
X11425Y14370D3*
X28440Y7876D3*
Y6813D3*
X17520Y1575D3*
X19031Y3496D3*
X28317Y3553D3*
X16358Y13996D3*
X16382Y10362D3*
Y5154D3*
Y3760D3*
X25062Y4500D3*
X11250Y4173D3*
X22565Y6313D3*
X21440D3*
X29688Y10375D3*
X12732Y5616D3*
X12479Y4061D3*
X19173Y14094D3*
X25052Y9752D3*
X20496Y12031D3*
X19173Y13504D3*
X11203Y6321D3*
Y10110D3*
X4953Y6261D3*
X23500Y7501D3*
X22063D3*
X19190Y12876D3*
X20295Y9528D3*
X25778Y12939D3*
Y9331D3*
X8750Y5846D3*
Y5346D3*
X17000Y13000D3*
Y12500D3*
Y12000D3*
Y11500D3*
Y11000D3*
Y10500D3*
Y10000D3*
Y9500D3*
Y9000D3*
Y8500D3*
Y8000D3*
Y7500D3*
Y7000D3*
Y6500D3*
Y6000D3*
X8295Y8453D3*
X4752Y1709D3*
X5252D3*
X8750Y4846D3*
Y4346D3*
X9250Y5846D3*
Y5346D3*
Y4846D3*
Y4346D3*
X6406Y13283D3*
X6906D3*
X7406D3*
X7906D3*
X33316Y9924D3*
Y9424D3*
Y8924D3*
Y8424D3*
X33879Y9924D3*
Y9424D3*
Y8924D3*
Y8424D3*
X33316Y7924D3*
X33879D3*
X32441Y9174D3*
Y8674D3*
X8406Y13283D3*
X8906D3*
X9406D3*
X9906D3*
X8795Y8453D3*
X9295D3*
X5752Y1709D3*
X6252D3*
X6752D3*
X7252D3*
X7752D3*
X8252D3*
X8752D3*
X9252D3*
X9752D3*
X10252D3*
X10752D3*
X8295Y7953D3*
X11752Y1709D3*
X12252D3*
X12752D3*
X13252D3*
X17500Y7500D3*
Y7000D3*
X8795Y7953D3*
X9295D3*
X1406Y11118D3*
X1906D3*
X2406D3*
X2906D3*
X3406D3*
X14583Y11496D3*
X15083D3*
X15583D3*
X17500Y6500D3*
X13250Y7096D3*
Y6596D3*
Y6096D3*
Y5596D3*
X18000Y7500D3*
Y7000D3*
Y6500D3*
X18500Y7500D3*
Y7000D3*
Y6500D3*
X19000Y7500D3*
Y7000D3*
Y6500D3*
X19500Y7500D3*
Y7000D3*
Y6500D3*
X20000Y7500D3*
Y7000D3*
Y6500D3*
X20500Y7500D3*
Y7000D3*
Y6500D3*
X21000Y7500D3*
Y7000D3*
Y6500D3*
X22500Y13500D3*
Y13000D3*
X23000Y13500D3*
Y13000D3*
X28500Y14000D3*
Y13500D3*
Y13000D3*
Y12500D3*
Y12000D3*
Y11500D3*
Y11000D3*
Y10500D3*
Y10000D3*
X29000Y1500D3*
X29500D3*
X30000D3*
X30500D3*
X31000D3*
X31500D3*
X32000D3*
X32500D3*
X33000D3*
X33500D3*
X34000D3*
X34500D3*
X35000D3*
X35500D3*
X36000D3*
X36500D3*
X37000D3*
X37500D3*
X38000D3*
X38500D3*
X39000D3*
X39500D3*
X40000D3*
X1000Y11000D3*
Y10500D3*
Y10000D3*
Y9500D3*
Y9000D3*
Y8500D3*
Y8000D3*
Y7500D3*
Y7000D3*
Y6500D3*
Y6000D3*
Y5500D3*
Y5000D3*
Y4500D3*
Y4000D3*
Y3500D3*
Y3000D3*
Y2500D3*
Y2000D3*
Y1500D3*
Y1000D3*
X33328Y9967D2*
D16*
X33966D1*
X33328Y9718D2*
X33966D1*
X33328Y9469D2*
X33966D1*
X33250Y9221D2*
X33966D1*
X33250Y8972D2*
X33966D1*
X33250Y8723D2*
X33966D1*
X33250Y8475D2*
X33966D1*
X33250Y8226D2*
X33966D1*
X33250Y7977D2*
X33966D1*
X32996Y7729D2*
X33966D1*
X33992Y10196D2*
X33976Y10200D1*
X33992Y10159D1*
Y10194D1*
X33304Y10196D1*
Y9352D1*
X33225Y9350D1*
Y7926D1*
X32969D1*
Y7653D1*
X33535D1*
X33531Y7672D1*
X33995D1*
X33992Y8223D1*
X33996Y8517D1*
X33992Y8629D1*
Y10159D1*
X32437Y10002D2*
D17*
X33304D1*
X32437Y7727D2*
X32969D1*
X33992Y8901D2*
X34750D1*
X32467D2*
X33224D1*
X680Y14051D2*
D14*
X4551D1*
X21778D2*
X23682D1*
X26281D2*
X28640D1*
X38727D2*
X40320D1*
X680Y13753D2*
X4251D1*
X5890D2*
X6954D1*
X9028D2*
X9337D1*
X10024D2*
X10206D1*
X22163D2*
X23313D1*
X26281D2*
X28640D1*
X38879D2*
X40320D1*
X5591Y13454D2*
X10206D1*
X22208D2*
X23297D1*
X26281D2*
X28640D1*
X5296Y13155D2*
X10206D1*
X22208D2*
X23297D1*
X26326D2*
X28673D1*
X7609Y12857D2*
X9936D1*
X12915D2*
X13860D1*
X16926D2*
X17978D1*
X22208D2*
X23297D1*
X27921D2*
X28645D1*
X7609Y12558D2*
X9936D1*
X12915D2*
X13860D1*
X16926D2*
X17625D1*
X28196D2*
X28755D1*
X7609Y12259D2*
X9936D1*
X12915D2*
X13860D1*
X16926D2*
X17605D1*
X28208D2*
X28714D1*
X7609Y11960D2*
X9936D1*
X12915D2*
X13860D1*
X16926D2*
X17605D1*
X18522D2*
X19819D1*
X25739D2*
X27295D1*
X28208D2*
X28640D1*
X7609Y11662D2*
X9936D1*
X12915D2*
X13860D1*
X16926D2*
X17605D1*
X18989D2*
X19819D1*
X25739D2*
X26848D1*
X28208D2*
X28698D1*
X7609Y11363D2*
X9936D1*
X12915D2*
X14147D1*
X15876D2*
X17605D1*
X19223D2*
X19819D1*
X25739D2*
X26610D1*
X28208D2*
X28952D1*
X680Y11064D2*
X3661D1*
X7609D2*
X9936D1*
X12915D2*
X14147D1*
X15876D2*
X17605D1*
X19276D2*
X19819D1*
X23078D2*
X24367D1*
X25739D2*
X26557D1*
X28208D2*
X29112D1*
X680Y10766D2*
X1721D1*
X3450D2*
X3661D1*
X7609D2*
X9936D1*
X12915D2*
X14147D1*
X16803D2*
X17605D1*
X19190D2*
X19819D1*
X21195D2*
X22345D1*
X25739D2*
X26639D1*
X28208D2*
X28813D1*
X680Y10467D2*
X1721D1*
X12710D2*
X14147D1*
X16963D2*
X17605D1*
X19170D2*
X19819D1*
X25739D2*
X26664D1*
X28208D2*
X28669D1*
X680Y10168D2*
X1721D1*
X12710D2*
X14147D1*
X16939D2*
X17605D1*
X19272D2*
X19819D1*
X25739D2*
X26561D1*
X28208D2*
X28669D1*
X680Y9870D2*
X1721D1*
X12657D2*
X14147D1*
X16840D2*
X17674D1*
X25965D2*
X26594D1*
X28147D2*
X28669D1*
X680Y9571D2*
X1721D1*
X3450D2*
X3665D1*
X12915D2*
X14147D1*
X16840D2*
X17822D1*
X26314D2*
X26557D1*
X680Y9272D2*
X1721D1*
X3450D2*
X3657D1*
X7609D2*
X9936D1*
X16840D2*
X17822D1*
X680Y8974D2*
X1721D1*
X7609D2*
X9936D1*
X16840D2*
X17822D1*
X680Y8675D2*
X1721D1*
X7609D2*
X9936D1*
X16840D2*
X17822D1*
X680Y8376D2*
X1721D1*
X7609D2*
X9936D1*
X16840D2*
X18855D1*
X26273D2*
X27984D1*
X680Y8078D2*
X1721D1*
X7609D2*
X9936D1*
X12915D2*
X14147D1*
X16840D2*
X18872D1*
X26256D2*
X27886D1*
X38723D2*
X40320D1*
X680Y7779D2*
X1721D1*
X3450D2*
X3911D1*
X7609D2*
X9936D1*
X12915D2*
X15923D1*
X16840D2*
X19188D1*
X25998D2*
X27857D1*
X39851D2*
X40320D1*
X680Y7480D2*
X1721D1*
X3450D2*
X3669D1*
X12915D2*
X15923D1*
X16840D2*
X21472D1*
X26207D2*
X28013D1*
X680Y7181D2*
X3653D1*
X12514D2*
X15923D1*
X16840D2*
X21570D1*
X26519D2*
X27164D1*
X680Y6883D2*
X3776D1*
X12514D2*
X15923D1*
X16840D2*
X21607D1*
X26687D2*
X27164D1*
X680Y6584D2*
X3776D1*
X12514D2*
X15923D1*
X16840D2*
X21607D1*
X26687D2*
X27164D1*
X34651D2*
X35411D1*
X680Y6285D2*
X3776D1*
X11792D2*
X15923D1*
X34651D2*
X35333D1*
X680Y5987D2*
X3776D1*
X12604D2*
X15923D1*
X680Y5688D2*
X3776D1*
X4689D2*
X5096D1*
X12604D2*
X15923D1*
X680Y5389D2*
X3776D1*
X4689D2*
X5039D1*
X12604D2*
X15841D1*
X31608D2*
X33291D1*
X680Y5091D2*
X3776D1*
X14363D2*
X15792D1*
X31719D2*
X33291D1*
X680Y4792D2*
X3776D1*
X31694D2*
X33291D1*
X680Y4493D2*
X3776D1*
X33109D2*
X33286D1*
X680Y4195D2*
X3776D1*
X33109D2*
X33286D1*
X680Y3896D2*
X3776D1*
X11767D2*
X13368D1*
X14544D2*
X15808D1*
X33109D2*
X33286D1*
X680Y3597D2*
X3776D1*
X14544D2*
X15812D1*
X33109D2*
X33286D1*
X680Y3299D2*
X3776D1*
X14544D2*
X15944D1*
X33109D2*
X33394D1*
X680Y3000D2*
X3776D1*
X14544D2*
X15944D1*
X18345D2*
X18736D1*
X19325D2*
X20545D1*
X21458D2*
X23543D1*
X24456D2*
X28189D1*
X33109D2*
X33394D1*
X680Y2701D2*
X3661D1*
X14544D2*
X15944D1*
X18345D2*
X20545D1*
X21458D2*
X23543D1*
X24456D2*
X28357D1*
X680Y2402D2*
X3661D1*
X680Y2104D2*
X3858D1*
X4607D2*
X5121D1*
X38863D2*
X40320D1*
X680Y1805D2*
X5121D1*
X7539D2*
X15197D1*
X38563D2*
X40320D1*
X680Y1506D2*
X12273D1*
X28520D2*
X40320D1*
X680Y1208D2*
X12273D1*
X27696D2*
X40320D1*
X680Y909D2*
X12273D1*
X27720D2*
X40320D1*
X16883Y6330D2*
X19185D1*
X19211Y6336D1*
X21635D1*
X21636Y7138D1*
X21590Y7196D1*
X21533Y7314D1*
X21504Y7441D1*
X21505Y7572D1*
X21510Y7610D1*
X20039Y7614D1*
X19477Y7616D1*
Y7768D1*
X19312D1*
X19183Y7788D1*
X19066Y7846D1*
X18972Y7937D1*
X18910Y8052D1*
X18886Y8195D1*
Y8404D1*
X17852Y8403D1*
Y9728D1*
X17732Y9830D1*
X17666Y9943D1*
X17636Y10100D1*
Y12433D1*
X17656Y12562D1*
X17714Y12679D1*
X17805Y12773D1*
X17920Y12835D1*
X18063Y12860D1*
X18625D1*
X18544Y12945D1*
X18044Y12949D1*
X17613Y12945D1*
X17374D1*
Y13080D1*
X16899Y13077D1*
X16897Y12707D1*
Y11605D1*
X15110D1*
Y11624D1*
X13892Y11623D1*
Y12954D1*
X12886Y12953D1*
X12888Y10540D1*
X12678D1*
X12681Y10110D1*
X12666Y9980D1*
X12620Y9857D1*
X12498Y9689D1*
X12888D1*
X12890Y9394D1*
X14182D1*
X14178Y9669D1*
X15847D1*
Y8001D1*
X14178D1*
Y8275D1*
X12884Y8276D1*
X12888Y7720D1*
Y7193D1*
X12482D1*
X12484Y6410D1*
X11758D1*
X11762Y6292D1*
X11770Y6283D1*
X11825Y6279D1*
X11914Y6283D1*
X12573D1*
Y5108D1*
X13666Y5105D1*
X14097Y5109D1*
X14335D1*
Y5064D1*
X15828Y5062D1*
X15824Y5225D1*
X15856Y5352D1*
X15916Y5468D1*
X15956Y5515D1*
X15955Y9997D1*
X15910Y10058D1*
X15847Y10195D1*
Y9733D1*
X14178D1*
Y11402D1*
X15847D1*
Y10535D1*
X15916Y10677D1*
X16002Y10776D1*
X16108Y10853D1*
X16229Y10903D1*
X16358Y10924D1*
X16489Y10914D1*
X16614Y10874D1*
X16726Y10807D1*
X16819Y10715D1*
X16889Y10604D1*
X16931Y10480D1*
X16944Y10362D1*
X16929Y10232D1*
X16884Y10109D1*
X16809Y9997D1*
Y5519D1*
X16856Y5448D1*
X16857Y6330D1*
X16883D1*
X11729Y3882D2*
X11753Y3878D1*
X11842Y3882D1*
X12422D1*
Y3864D1*
X13121Y3861D1*
X13400Y3865D1*
X13397Y3935D1*
X14515D1*
Y2663D1*
X15948D1*
X15975Y2778D1*
Y3373D1*
X15910Y3455D1*
X15852Y3573D1*
X15823Y3700D1*
X15824Y3831D1*
X15856Y3958D1*
X15896Y4035D1*
X14760Y4038D1*
X14337D1*
X14335Y3991D1*
X13178Y3995D1*
X12747Y3991D1*
X12509D1*
Y4085D1*
X12498Y4038D1*
X11792D1*
X11752Y3920D1*
X11727Y3883D1*
X11763Y3882D1*
X26656Y6575D2*
X27198D1*
X27194Y6704D1*
Y7373D1*
X28191D1*
X28052Y7470D1*
X27968Y7571D1*
X27911Y7689D1*
X27882Y7816D1*
X27883Y7947D1*
X27915Y8074D1*
X27975Y8191D1*
X28015Y8237D1*
X28014Y9250D1*
X28034Y9379D1*
X28092Y9496D1*
X28183Y9590D1*
X28298Y9652D1*
X28440Y9677D1*
X28699D1*
X28698Y10444D1*
X28718Y10573D1*
X28779Y10693D1*
X28916Y10839D1*
X29325Y11247D1*
X29152Y11282D1*
X29031Y11334D1*
X28923Y11407D1*
X28830Y11500D1*
X28756Y11608D1*
X28704Y11728D1*
X28675Y11856D1*
X28671Y11987D1*
X28691Y12117D1*
X28735Y12240D1*
X28802Y12353D1*
X28880Y12442D1*
X28783Y12563D1*
X28722Y12679D1*
X28684Y12805D1*
X28670Y12935D1*
X28680Y13065D1*
X28715Y13192D1*
X28739Y13248D1*
X28670D1*
Y14351D1*
X19671Y14350D1*
X19723Y14213D1*
X19732Y14128D1*
X20311Y14124D1*
X20631D1*
Y14142D1*
X21749D1*
X21752Y13991D1*
X21881Y13971D1*
X21999Y13913D1*
X22093Y13822D1*
X22155Y13707D1*
X22179Y13564D1*
Y12822D1*
X22232Y12816D1*
X22350Y12820D1*
X23326D1*
Y13626D1*
X23346Y13756D1*
X23404Y13873D1*
X23495Y13967D1*
X23610Y14029D1*
X23742Y14053D1*
X23756Y14079D1*
Y14187D1*
X24441D1*
X24444Y14205D1*
X25561D1*
Y14184D1*
X26249Y14187D1*
Y13243D1*
X26285Y13181D1*
X26327Y13057D1*
X26340Y12939D1*
X26332Y12878D1*
X27753Y12880D1*
X27882Y12860D1*
X27999Y12802D1*
X28093Y12711D1*
X28155Y12596D1*
X28180Y12453D1*
Y10096D1*
X28160Y9967D1*
X28102Y9850D1*
X28019Y9763D1*
X27980Y9661D1*
Y8399D1*
X26587D1*
Y8485D1*
X26241Y8483D1*
X26244Y8199D1*
X26224Y8070D1*
X26166Y7953D1*
X26086Y7868D1*
X25969Y7801D1*
X25967Y7620D1*
X25429D1*
X25428Y7610D1*
X24310Y7614D1*
X24293Y7610D1*
X24055D1*
X24096Y7553D1*
X25941D1*
X26070Y7533D1*
X26190Y7472D1*
X26336Y7335D1*
X26521Y7149D1*
X26563Y7138D1*
X26657D1*
Y6576D1*
X2531Y13610D2*
X3748D1*
Y13491D1*
X4023Y13492D1*
X4880Y14352D1*
X650Y14350D1*
Y651D1*
X12307Y650D1*
X12303Y1222D1*
Y1697D1*
X13697D1*
Y1627D1*
X13868Y1684D1*
X13998Y1697D1*
X14128Y1685D1*
X14254Y1649D1*
X14371Y1589D1*
X14500Y1482D1*
X14625Y1587D1*
X14742Y1647D1*
X14868Y1684D1*
X14998Y1697D1*
X15108Y1687D1*
X15231Y1809D1*
X7482Y1805D1*
X6978Y1801D1*
X6976Y1666D1*
X5819Y1670D1*
X5388Y1666D1*
X5150D1*
X5148Y2201D1*
X4824Y2529D1*
X4794Y2547D1*
X4779Y2417D1*
X4734Y2294D1*
X4662Y2185D1*
X4566Y2095D1*
X4453Y2030D1*
X4327Y1993D1*
X4196Y1986D1*
X4068Y2010D1*
X3948Y2063D1*
X3843Y2142D1*
X3760Y2243D1*
X3702Y2360D1*
X3673Y2488D1*
X3675Y2619D1*
X3707Y2746D1*
X3767Y2862D1*
X3807Y2909D1*
X3805Y6931D1*
X3760Y6995D1*
X3702Y7112D1*
X3673Y7240D1*
X3675Y7371D1*
X3707Y7498D1*
X3767Y7614D1*
X3852Y7713D1*
X3958Y7790D1*
X4079Y7840D1*
X4209Y7861D1*
X4339Y7851D1*
X4464Y7811D1*
X4576Y7744D1*
X4661Y7661D1*
X4657Y7882D1*
X3423D1*
X3421Y7465D1*
X1752D1*
Y9134D1*
X3421D1*
Y8998D1*
X3843Y9004D1*
X3760Y9105D1*
X3702Y9222D1*
X3673Y9350D1*
X3675Y9481D1*
X3704Y9596D1*
X3424Y9595D1*
X3421Y9197D1*
X1752D1*
Y10866D1*
X3421D1*
Y10714D1*
X3689Y10712D1*
Y11150D1*
X3512Y11154D1*
X741Y11158D1*
Y13614D1*
X2528Y13610D1*
X21164Y10948D2*
X21166Y10694D1*
X21732Y10690D1*
X22166Y10694D1*
X22232Y10690D1*
X22395Y10798D1*
X22498Y10906D1*
X22490Y10947D1*
X21164Y10942D1*
X21160Y10756D1*
X21272Y10694D1*
X22232D1*
X20004Y10008D2*
X19850D1*
Y11992D1*
X19936D1*
X19809Y12006D1*
X18492D1*
X18494Y11794D1*
X18625Y11792D1*
X18754Y11766D1*
X18875Y11716D1*
X18984Y11644D1*
X19078Y11552D1*
X19154Y11445D1*
X19208Y11326D1*
X19238Y11198D1*
X19245Y11074D1*
X19228Y10944D1*
X19186Y10819D1*
X19123Y10705D1*
X19033Y10599D1*
X19111Y10511D1*
X19178Y10399D1*
X19223Y10276D1*
X19245Y10100D1*
X19233Y9969D1*
X19218Y9918D1*
X19312Y9928D1*
X19899D1*
X20005Y10006D1*
X25710Y11244D2*
Y10008D1*
X25550D1*
X25602Y9866D1*
X25754Y9892D1*
X25884Y9882D1*
X26009Y9843D1*
X26121Y9775D1*
X26215Y9684D1*
X26285Y9573D1*
X26327Y9449D1*
X26342Y9337D1*
X26584D1*
X26587Y9793D1*
X26657D1*
X26622Y9880D1*
X26593Y10007D1*
X26588Y10138D1*
X26609Y10268D1*
X26653Y10391D1*
X26719Y10504D1*
X26797Y10593D1*
X26701Y10714D1*
X26640Y10830D1*
X26601Y10956D1*
X26587Y11086D1*
X26598Y11217D1*
X26632Y11343D1*
X26690Y11461D1*
X26769Y11565D1*
X26866Y11653D1*
X26978Y11722D1*
X27100Y11768D1*
X27229Y11791D1*
X27327D1*
X27326Y12028D1*
X24730Y12026D1*
X24736Y11992D1*
X25710D1*
X25709Y10756D1*
X24395Y10988D2*
X24399Y11244D1*
X24395Y11308D1*
X23772Y11313D1*
X23522Y11309D1*
X23174D1*
X23163Y11259D1*
X23109Y11140D1*
X23007Y11032D1*
X23015Y10991D1*
X24395Y10992D1*
Y11255D1*
X24232Y11309D1*
X23272Y11313D1*
X23171Y11309D1*
X23159Y11245D1*
X23101Y11128D1*
X23010Y11034D1*
X33078Y3614D2*
X33081Y2741D1*
X33418Y2739D1*
X33421Y2966D1*
Y3503D1*
X33315Y3504D1*
X33319Y5332D1*
X33317Y5508D1*
X33285Y5540D1*
X31551Y5538D1*
X31508Y5523D1*
X31480Y5499D1*
X31562Y5411D1*
X31629Y5299D1*
X31674Y5176D1*
X31697Y5000D1*
X31684Y4870D1*
X31635Y4718D1*
X33081Y4717D1*
X33080Y3363D1*
X5068Y5313D2*
Y5630D1*
X5130D1*
X5126Y5726D1*
X5048Y5707D1*
X4917Y5700D1*
X4788Y5723D1*
X4658Y5783D1*
X4659Y2915D1*
X4729Y2807D1*
X4731Y4803D1*
X4751Y4932D1*
X4812Y5052D1*
X4948Y5198D1*
X5067Y5317D1*
X38697Y14348D2*
Y13881D1*
X38802Y13802D1*
X38915Y13689D1*
X38998Y13697D1*
X39128Y13685D1*
X39254Y13649D1*
X39371Y13589D1*
X39500Y13482D1*
X39561Y13541D1*
X39670Y13614D1*
X39791Y13665D1*
X39919Y13692D1*
X40050Y13695D1*
X40180Y13673D1*
X40303Y13628D1*
X40350Y13603D1*
Y14349D1*
X38700Y14350D1*
X38483Y8500D2*
X38562Y8411D1*
X38629Y8299D1*
X38674Y8176D1*
X38697Y8000D1*
X38690Y7931D1*
X39500Y7927D1*
X39629Y7907D1*
X39746Y7849D1*
X39833Y7766D1*
X39893Y7688D1*
X40024Y7696D1*
X40154Y7679D1*
X40279Y7638D1*
X40350Y7603D1*
Y8304D1*
X39303Y8303D1*
Y8373D1*
X39174Y8325D1*
X39044Y8305D1*
X38913Y8309D1*
X38785Y8337D1*
X38665Y8389D1*
X38557Y8463D1*
X38502Y8518D1*
X21427Y2547D2*
X21500Y2482D1*
X21625Y2587D1*
X21742Y2647D1*
X21868Y2684D1*
X21998Y2697D1*
X22128Y2685D1*
X22254Y2649D1*
X22371Y2589D1*
X22500Y2482D1*
X22561Y2541D1*
X22670Y2614D1*
X22791Y2665D1*
X22919Y2692D1*
X23050Y2695D1*
X23180Y2673D1*
X23303Y2628D1*
X23415Y2560D1*
X23500Y2485D1*
X23570Y2544D1*
X23573Y3128D1*
X21429Y3126D1*
X21427Y2548D1*
X24427Y2547D2*
X24500Y2482D1*
X24625Y2587D1*
X24742Y2647D1*
X24868Y2684D1*
X24998Y2697D1*
X25128Y2685D1*
X25254Y2649D1*
X25371Y2589D1*
X25500Y2482D1*
X25625Y2587D1*
X25742Y2647D1*
X25868Y2684D1*
X25998Y2697D1*
X26128Y2685D1*
X26254Y2649D1*
X26371Y2589D1*
X26500Y2482D1*
X26625Y2587D1*
X26742Y2647D1*
X26868Y2684D1*
X26998Y2697D1*
X27128Y2685D1*
X27254Y2649D1*
X27371Y2589D1*
X27500Y2482D1*
X27561Y2541D1*
X27670Y2614D1*
X27791Y2665D1*
X27919Y2692D1*
X28050Y2695D1*
X28180Y2673D1*
X28303Y2628D1*
X28389Y2578D1*
Y2996D1*
X28281Y2992D1*
X28152Y3016D1*
X28032Y3068D1*
X27957Y3125D1*
X24425Y3126D1*
X24427Y2548D1*
X28690Y1908D2*
X28657Y1768D1*
X28602Y1649D1*
X28526Y1543D1*
X28431Y1452D1*
X28321Y1381D1*
X28199Y1332D1*
X28071Y1307D1*
X27940Y1306D1*
X27811Y1330D1*
X27688Y1377D1*
X27577Y1446D1*
X27499Y1515D1*
X27629Y1299D1*
X27674Y1176D1*
X27697Y1000D1*
X27684Y870D1*
X27648Y744D1*
X27601Y652D1*
X29371Y650D1*
X40350D1*
Y2300D1*
X39384Y2303D1*
X39303D1*
Y2373D1*
X39174Y2325D1*
X39032Y2305D1*
X38489Y1761D1*
X38384Y1683D1*
X38256Y1642D1*
X38056Y1636D1*
X29138D1*
X29009Y1656D1*
X28889Y1717D1*
X28744Y1853D1*
X28688Y1908D1*
X8378Y13746D2*
Y13677D1*
X6984D1*
Y13813D1*
X5922Y13815D1*
X5146Y13036D1*
X6230Y13035D1*
X7580D1*
Y10669D1*
X9967Y10671D1*
Y13035D1*
X10233D1*
X10236Y13819D1*
X10091Y13811D1*
X9978Y13744D1*
X9855Y13699D1*
X9725Y13679D1*
X9595Y13683D1*
X9467Y13711D1*
X9346Y13763D1*
X9238Y13837D1*
X9183Y13892D1*
X9091Y13811D1*
X8978Y13744D1*
X8855Y13699D1*
X8725Y13679D1*
X8595Y13683D1*
X8467Y13711D1*
X8378Y13747D1*
X35308Y5956D2*
X35305Y6042D1*
X35325Y6172D1*
X35369Y6295D1*
X35435Y6408D1*
X35514Y6497D1*
X35390Y6663D1*
X35338Y6784D1*
X35309Y6911D1*
X35305Y7042D1*
X35325Y7172D1*
X35354Y7253D1*
X35302Y7214D1*
Y7120D1*
X35282Y6991D1*
X35224Y6874D1*
X35133Y6780D1*
X35018Y6718D1*
X34875Y6693D1*
X34621Y6688D1*
Y6090D1*
X35145D1*
Y5955D1*
X35301Y5958D1*
X18313Y3393D2*
X18316Y2697D1*
X19697D1*
Y2627D1*
X19816Y2672D1*
X19946Y2695D1*
X20077Y2692D1*
X20205Y2666D1*
X20326Y2616D1*
X20435Y2544D1*
X20500Y2485D1*
X20570Y2544D1*
X20573Y3128D1*
X20217Y3122D1*
X20111Y3081D1*
X20012Y3069D1*
X19401D1*
X19252Y2979D1*
X19126Y2942D1*
X18996Y2935D1*
X18867Y2959D1*
X18747Y3011D1*
X18643Y3090D1*
X18559Y3191D1*
X18502Y3309D1*
X18473Y3437D1*
Y3490D1*
X18318Y3492D1*
X18315Y2906D1*
Y2700D1*
X7580Y9553D2*
Y7569D1*
X9924Y7571D1*
X9969D1*
X9967Y9030D1*
Y9551D1*
X7582D1*
X17750Y6330D2*
Y5654D1*
X16857D2*
X17750D1*
X18921Y6330D2*
Y5654D1*
X20079Y6336D2*
Y5659D1*
X21230Y6336D2*
Y5659D1*
X11843Y3881D2*
Y3323D1*
X11955Y6283D2*
Y5626D1*
X12572D1*
X14785Y12300D2*
Y11623D1*
X13892Y12300D2*
X14785D1*
X16003Y12282D2*
Y11605D1*
Y12282D2*
X16896D1*
X2854Y11831D2*
Y11154D1*
X1635Y11835D2*
Y11158D1*
X742Y11835D2*
X1635D1*
X19850Y10626D2*
X21164D1*
X25052Y11991D2*
Y11374D1*
X24396D2*
X25709D1*
X32188Y4716D2*
Y4040D1*
X33080D1*
X15013Y11401D2*
Y9733D1*
X14179Y10567D2*
X15847D1*
X20000Y2696D2*
Y2000D1*
X23000Y2696D2*
Y2000D1*
X28000Y2696D2*
Y1304D1*
Y2000D2*
X28696D1*
X40000Y7696D2*
Y7000D1*
Y13696D2*
Y13000D1*
X8681Y14374D2*
Y13678D1*
X18549Y11796D2*
Y11100D1*
X19245D1*
X27284Y11792D2*
Y11096D1*
X26588D2*
X27284D1*
X28670Y12945D2*
X29366D1*
X13956Y3935D2*
Y3357D1*
X14514D1*
X21161Y8189D2*
Y7611D1*
X24338Y8189D2*
Y7611D1*
X34062Y6451D2*
X34621D1*
X33422Y3000D2*
X34000D1*
X6795Y13035D2*
Y11787D1*
X7580D1*
X23252Y12820D2*
Y11309D1*
X22252Y12820D2*
Y12065D1*
D19*
X9363Y2639D3*
X10032D3*
D20*
X17750Y4551D3*
Y5654D3*
X18921Y4551D3*
Y5654D3*
X20079Y4557D3*
Y5659D3*
X21230Y4557D3*
Y5659D3*
D19*
X11192Y2681D3*
X11861D3*
D21*
X6408Y3310D3*
X5660D3*
D19*
X11174Y3323D3*
X11843D3*
D21*
X11207Y5626D3*
X11955D3*
D22*
X26957Y5957D3*
Y5209D3*
X24492Y5311D3*
Y6059D3*
D20*
X14785Y12300D3*
Y13402D3*
X16003Y12282D3*
Y13384D3*
D21*
X5764Y7059D3*
X6512D3*
X11118Y7067D3*
X11866D3*
D23*
X20598Y8189D3*
Y8858D3*
X20440Y12876D3*
Y13546D3*
D20*
X2854Y12933D3*
Y11831D3*
X1635Y12937D3*
Y11835D3*
D23*
X24869Y8189D3*
Y8858D3*
X25003Y12957D3*
Y13626D3*
D21*
X34567Y10827D3*
X33819D3*
D20*
X32437Y10002D3*
Y11104D3*
D23*
X33187Y7102D3*
Y6433D3*
D22*
X20507Y10626D3*
Y11374D3*
X25052Y10626D3*
Y11374D3*
D20*
X29813Y2938D3*
Y4040D3*
X32188Y2938D3*
Y4040D3*
D22*
X30000Y9250D3*
Y9998D3*
D25*
X2587Y10031D3*
Y8299D3*
X15013Y10567D3*
Y8835D3*
D27*
X6414Y5150D3*
X5548D3*
D28*
X36240Y13750D3*
Y13159D3*
D29*
X38000Y14000D3*
D30*
X37000D3*
X38000Y13000D3*
X37000D3*
X38000Y12000D3*
X37000D3*
X38000Y11000D3*
X37000D3*
X38000Y10000D3*
X37000D3*
X38000Y9000D3*
X37000D3*
X38000Y8000D3*
X37000D3*
X38000Y7000D3*
X37000D3*
X38000Y6000D3*
X37000D3*
X38000Y5000D3*
X37000D3*
X38000Y4000D3*
X37000D3*
X38000Y3000D3*
X37000D3*
D29*
X19000Y2000D3*
D30*
X20000D3*
X21000D3*
X22000D3*
X23000D3*
X24000D3*
X25000D3*
X26000D3*
X27000D3*
X28000D3*
D29*
X40000Y3000D3*
D30*
X39000D3*
X40000Y4000D3*
X39000D3*
X40000Y5000D3*
X39000D3*
X40000Y6000D3*
X39000D3*
X40000Y7000D3*
X39000D3*
D29*
X40000Y9000D3*
D30*
X39000D3*
X40000Y10000D3*
X39000D3*
X40000Y11000D3*
X39000D3*
X40000Y12000D3*
X39000D3*
X40000Y13000D3*
X39000D3*
D31*
X7681Y14374D3*
D32*
X8681D3*
X9681D3*
D33*
X18549Y9116D3*
D34*
Y10100D3*
Y11084D3*
D33*
X27284Y9112D3*
D34*
Y10096D3*
Y11080D3*
D33*
X34500Y13008D3*
D34*
Y13992D3*
D29*
X29366Y13945D3*
D30*
Y12945D3*
Y11945D3*
D29*
X29378Y5001D3*
D30*
Y6001D3*
Y7001D3*
Y8001D3*
D29*
X36000Y3000D3*
D30*
Y4000D3*
Y5000D3*
Y6000D3*
Y7000D3*
Y8000D3*
Y9000D3*
Y10000D3*
D29*
X31000Y3000D3*
D30*
Y4000D3*
Y5000D3*
Y6000D3*
Y7000D3*
Y8000D3*
Y9000D3*
Y10000D3*
D29*
X13000Y1000D3*
D30*
X14000D3*
X15000D3*
X16000D3*
X17000D3*
X18000D3*
X19000D3*
X20000D3*
X21000D3*
X22000D3*
X23000D3*
X24000D3*
X25000D3*
X26000D3*
X27000D3*
D36*
X31201Y14094D3*
Y13346D3*
X32106Y13720D3*
D19*
X8809Y3203D3*
X8140D3*
X8805Y2639D3*
X8136D3*
X10032Y3209D3*
X9363D3*
D23*
X13956Y3357D3*
Y2687D3*
D19*
X13212Y3306D3*
X12542D3*
X13210Y2690D3*
X12540D3*
X5699Y3908D3*
X6368D3*
X11250Y4596D3*
X11919D3*
X5711Y4494D3*
X6380D3*
X13757Y4550D3*
X13087D3*
X5705Y5674D3*
X6374D3*
X5719Y6261D3*
X6388D3*
X23750Y4562D3*
X24419D3*
X23125D3*
X22456D3*
D23*
X27753Y6126D3*
Y6795D3*
Y4750D3*
Y5420D3*
X21161Y8189D3*
Y8858D3*
X22260Y8189D3*
Y8858D3*
X20036Y8864D3*
Y8195D3*
X21190Y13564D3*
Y12895D3*
X21696Y8189D3*
Y8858D3*
X19752Y12876D3*
Y13546D3*
X24338Y8189D3*
Y8858D3*
X23252Y8189D3*
Y8858D3*
X25408Y8868D3*
Y8199D3*
X24315Y13608D3*
Y12939D3*
X23796Y8189D3*
Y8858D3*
X25690Y12939D3*
Y13608D3*
X31059Y11124D3*
Y11793D3*
D19*
X30522Y12372D3*
X31191D3*
X35591Y10906D3*
X36260D3*
D23*
X34062Y6451D3*
Y7120D3*
X32437Y7058D3*
Y7727D3*
X30541Y14094D3*
Y13425D3*
D19*
X18622Y13504D3*
X17953D3*
Y14094D3*
X18622D3*
X34000Y3000D3*
X34669D3*
X34563Y4063D3*
X33893D3*
D23*
X17756Y2815D3*
Y3484D3*
D19*
X34567Y4774D3*
X33898D3*
X34567Y5531D3*
X33898D3*
D23*
X32224Y12333D3*
Y13002D3*
X36250Y11841D3*
Y12510D3*
X7047Y6220D3*
Y5551D3*
D19*
X6398Y2224D3*
X5728D3*
D38*
X5445Y8441D3*
X6795D3*
Y11787D3*
X5445D3*
X10752Y8441D3*
X12102D3*
Y11787D3*
X10752D3*
D39*
X10105Y4031D3*
Y4287D3*
Y4543D3*
Y4799D3*
Y5055D3*
Y5311D3*
Y5567D3*
Y5823D3*
Y6079D3*
Y6335D3*
X7822D3*
Y6079D3*
Y5823D3*
Y5567D3*
Y5311D3*
Y5055D3*
Y4799D3*
Y4543D3*
Y4287D3*
Y4031D3*
D40*
X8964Y5183D3*
D41*
X34750Y7995D3*
Y8901D3*
Y9806D3*
D42*
X32467Y8901D3*
D43*
X25449Y4768D3*
X25705D3*
X25961D3*
X26217D3*
Y6500D3*
X25961D3*
X25705D3*
X25449D3*
D36*
X23565Y5313D3*
Y6061D3*
X22659Y5687D3*
D44*
X21252Y9939D3*
X21752D3*
X22252D3*
X22752D3*
X23252D3*
X23752D3*
X24252D3*
Y12065D3*
X23752D3*
X23252D3*
X22752D3*
X22252D3*
X21752D3*
X21252D3*
X75688Y2938D2*
D13*
X74562D1*
X74500Y3000D1*
X73375D1*
X73313Y2938D1*
X67919Y4562D2*
Y4004D1*
D14*
X64720D1*
X63579D1*
X62421D1*
X61312D1*
X61256D1*
X60512D1*
X59966Y4550D1*
X57257D1*
X68929Y4004D2*
X67919D1*
X61250Y4551D2*
D13*
X62421D1*
X63573D1*
X63579Y4557D1*
X64730D1*
X74559Y11124D2*
X73967D1*
X73857Y11014D1*
X63579Y4557D2*
D14*
Y4004D1*
X62421Y4551D2*
Y4004D1*
X61250Y4551D2*
Y4066D1*
X61312Y4004D1*
X64730Y4557D2*
D13*
X65950D1*
X65956Y4562D1*
X64730Y4557D2*
D14*
X64720D1*
Y4004D1*
X61256Y3484D2*
Y4004D1*
X45135Y12937D2*
X46354D1*
Y12933D1*
D15*
X47748D1*
Y10154D1*
X46209D1*
X46087Y10031D1*
X51181Y14374D2*
X49193D1*
X47752Y12933D1*
X47748Y10154D2*
D13*
Y9394D1*
X47732Y9409D1*
Y7299D2*
Y2547D1*
X50969Y2732D2*
Y2858D1*
X51295Y3185D1*
X51622D1*
X51640Y3203D1*
X61453Y14094D2*
X61319D1*
X61043Y14370D1*
X54925D1*
X73500Y9250D2*
X72625D1*
Y10444D1*
X74022Y11841D1*
Y11945D1*
Y12372D1*
X72625Y9250D2*
X71940D1*
Y7876D1*
Y6813D2*
X71271D1*
X71253Y6795D1*
X73500Y9250D2*
X74250D1*
X74500Y9000D1*
X77398Y5531D2*
Y4774D1*
X77393Y4063D2*
Y4774D1*
X77398D1*
X74500Y9000D2*
X75000Y8500D1*
Y6020D1*
X75055Y5965D1*
X76965D1*
X77398Y5531D1*
X58500Y1000D2*
X58526D1*
X59100Y1575D1*
X61020D1*
X62531Y3496D2*
X63512D1*
Y3553D1*
X64500D1*
X67500D1*
X71817D1*
X64500Y2000D2*
Y3553D1*
X67500Y2000D2*
Y3553D1*
X72866Y11945D2*
X74022D1*
X58285Y13402D2*
D14*
X59485D1*
D13*
X59503Y13384D1*
X53181Y14374D2*
D15*
X54295D1*
Y13512D1*
Y11831D1*
X54252Y11787D1*
X58285Y13402D2*
Y13512D1*
X54295D1*
X61453Y13504D2*
D13*
X59623D1*
X59503Y13384D1*
Y13641D1*
X59858Y13996D1*
X59882Y10362D2*
Y5154D1*
Y3760D2*
X59902D1*
Y2516D1*
X59622Y2236D1*
X51636D1*
Y2639D1*
X49898Y2224D2*
X51636Y2236D1*
X80500Y13000D2*
X81000Y13500D1*
X82000D1*
X82500Y13000D1*
X81500D2*
X82500Y12000D1*
X81500D2*
X82500Y11000D1*
X81500D2*
X82500Y10000D1*
X81500D2*
X82500Y9000D1*
X80500Y8000D2*
X81000Y7500D1*
X83000D1*
Y6500D1*
X83500Y6000D1*
Y5000D2*
X83000Y5500D1*
X81120D1*
X81000Y5620D1*
Y6500D1*
X80500Y7000D1*
X81500D2*
X82500Y6000D1*
X68949Y4768D2*
X68898D1*
X68692Y4562D1*
X68625D1*
X68562Y4500D1*
X65752Y9939D2*
Y9638D1*
X66127Y9262D1*
Y7278D1*
X66530Y6876D1*
X68876D1*
X68949Y6803D1*
Y6500D1*
X69717D2*
Y6850D1*
X69441Y7126D1*
X66677D1*
X66377Y7426D1*
Y9251D1*
X66752Y9626D1*
Y9938D1*
Y9939D1*
X53605Y4799D2*
X54547D1*
X54750Y4596D1*
Y4173D1*
X76687Y6433D2*
X77544D1*
X77562Y6451D1*
X75937Y11104D2*
X76069D1*
Y10827D1*
X77319D1*
X77500Y3000D2*
X76688D1*
X76563Y3125D1*
Y3965D1*
X76465Y4062D1*
X75710D1*
X75688Y4040D1*
X74701Y13346D2*
X74120D1*
X74041Y13425D1*
X75937Y11104D2*
X75114D1*
Y10000D1*
X75252D1*
Y6654D1*
X75473Y6433D1*
X76687D1*
X83500Y13000D2*
X84000Y12500D1*
Y7500D1*
X83500Y7000D1*
X67065Y6061D2*
X67992D1*
Y6059D1*
X68552Y11374D2*
X66817D1*
X66752Y11439D1*
Y12064D1*
Y12065D1*
X64007Y10626D2*
X64752D1*
X65127Y11001D1*
X66502D1*
X66817Y11316D1*
Y11374D1*
X65752Y12065D2*
Y13564D1*
X66000D1*
X66752D1*
Y12065D1*
X67838Y8189D2*
Y7751D1*
X71253D1*
Y9571D1*
X70253D1*
Y11080D1*
X70784D1*
X62049Y11084D2*
X62565D1*
Y9583D1*
X61564D1*
Y7688D1*
X64940D1*
X64661D1*
Y8189D1*
X64007Y10626D2*
Y10501D1*
X63502D1*
X62919Y11084D1*
X62049D1*
X68552Y11374D2*
X69630D1*
X69924Y11080D1*
X70784D1*
X67065Y6061D2*
X66317D1*
X66065Y6313D1*
X64940D2*
Y7688D1*
X74500Y4000D2*
X73352D1*
X73313Y4040D1*
X74500Y4000D2*
X75648D1*
X75688Y4040D1*
X73500Y9998D2*
X74498D1*
X74500Y10000D1*
X75114D1*
X73500Y9998D2*
Y10063D1*
X73188Y10375D1*
X59500Y1000D2*
X60500D1*
X49211Y4494D2*
Y3920D1*
X49199Y3908D1*
Y3349D1*
X49160Y3310D1*
Y3075D1*
X49483Y2752D1*
X50297D1*
X50928Y3383D1*
Y3679D1*
X51322D1*
X52500D1*
Y4346D1*
Y5147D1*
X52464Y5183D1*
X51322Y4031D2*
Y3679D1*
X58285Y12300D2*
D14*
X59485D1*
D13*
X59503Y12282D1*
X45135Y11835D2*
D14*
X46354D1*
Y11831D1*
X58513Y10567D2*
D15*
Y11291D1*
X59503Y12282D1*
X57456Y3357D2*
D13*
Y4061D1*
X55979D1*
X55343D1*
Y3323D1*
X56232Y5616D2*
X56222Y5626D1*
X55455D1*
X52250Y4346D2*
X52750D1*
X52250Y4846D2*
X52750D1*
X52250Y5346D2*
X52750D1*
X52250Y5846D2*
X52750D1*
X52250D2*
Y5346D1*
Y4846D1*
Y4346D1*
X52500D1*
X61250Y5654D2*
X62421D1*
X63573D1*
X63579Y5659D1*
X64730D1*
X69205Y6500D2*
Y6059D1*
Y5803D1*
X69366Y5642D1*
X69894D1*
X70327Y5209D1*
X70457D1*
X67992Y6059D2*
X69205D1*
X66000Y13500D2*
Y13564D1*
X74041Y13425D2*
Y13415D1*
X73579Y12953D1*
X72874D1*
X72866Y12945D1*
X72055D1*
X72000Y13000D1*
X74701Y14094D2*
X74041D1*
X80500Y14000D2*
X80438D1*
X79875Y14563D1*
X74041D1*
Y14094D1*
X75967Y8901D2*
Y7756D1*
X75937Y7727D1*
X75967Y8901D2*
Y9973D1*
X75937Y10002D1*
X78250Y8901D2*
Y8858D1*
X78667D1*
X79000Y9191D1*
Y10906D1*
X79091D1*
X75967Y8901D2*
X78250D1*
X81500Y5000D2*
X82500D1*
X81500D2*
X81000Y4500D1*
Y2687D1*
X80625Y2312D1*
X72772D1*
X72563Y2522D1*
Y3969D1*
X72343Y4189D1*
X69657D1*
X69461Y4386D1*
Y4768D1*
X49048Y5150D2*
X49004D1*
X48657Y4803D1*
Y2795D1*
X49228Y2224D1*
X55361Y2681D2*
X56032D1*
X56040Y2690D1*
X56042Y3306D2*
Y2692D1*
X55366Y7067D2*
D15*
Y8205D1*
X55602Y8441D1*
X58513Y8835D2*
X55996D1*
X55602Y8441D1*
X48945D2*
X46228D1*
X46087Y8299D1*
X49264Y7059D2*
Y8122D1*
X48945Y8441D1*
X51322Y4287D2*
D13*
X50757D1*
X50680Y4211D1*
Y3526D1*
X50491Y3337D1*
X49935D1*
X49908Y3310D1*
X53605Y4287D2*
X54175D1*
Y3618D1*
X54480Y3313D1*
X54664D1*
X54674Y3323D1*
Y2699D1*
X54692Y2681D1*
X51322Y4543D2*
X50528D1*
X50373Y4388D1*
Y3963D1*
X50338Y3927D1*
X49887D1*
X49868Y3908D1*
X53532Y2639D2*
Y3209D1*
X53605Y4031D2*
Y3282D1*
X53532Y3209D1*
X52309Y3203D2*
X52857D1*
X52863Y3209D1*
X52305Y2639D2*
X52863D1*
Y3208D1*
X75937Y7058D2*
X76687D1*
Y7102D1*
X77544D1*
X77562Y7120D1*
X78375D1*
Y7870D1*
X78250Y7995D1*
X78000Y13992D2*
X76246D1*
Y13720D1*
X75824D1*
X75606D1*
X75724Y13002D2*
Y13621D1*
X75824Y13720D1*
X79740Y13750D2*
Y13996D1*
X79720Y14016D1*
X78024D1*
X78000Y13992D1*
X71253Y6126D2*
Y5773D1*
Y5420D1*
Y5773D2*
X70641D1*
X70457Y5957D1*
X69461Y6500D2*
Y6012D1*
X69528Y5945D1*
X70445D1*
X70457Y5957D1*
X79760Y10906D2*
Y11339D1*
X78411D1*
Y12000D1*
X78000D1*
Y13008D1*
X74691Y12372D2*
X74858D1*
Y12293D1*
X75744D1*
Y12096D1*
X78000D1*
Y13008D1*
X79750Y11841D2*
X79760Y11339D1*
X75724Y12333D2*
X75744Y12293D1*
X65252Y9939D2*
Y8876D1*
X65174D1*
Y8858D1*
X65196D1*
X64661D2*
X65174D1*
X64661D2*
X64098D1*
X63542D1*
X63536Y8864D1*
X65760Y8858D2*
X65206D1*
X65174Y8876D1*
X67252Y9939D2*
Y8873D1*
X67267Y8858D1*
X67296D1*
X67838D1*
X68369D1*
X68897D1*
X68908Y8868D1*
X66752Y8858D2*
X67267D1*
X65252Y12065D2*
Y13564D1*
X64690D1*
X63958D1*
X63940Y13546D1*
X63252D1*
X68503Y13626D2*
X67833D1*
X67815Y13608D1*
X67271D1*
X67252Y13626D1*
Y12065D1*
X69190Y13608D2*
X68521D1*
X68503Y13626D1*
X74500Y5000D2*
X72879D1*
X72878Y5001D1*
Y6001D2*
X74499D1*
X74500Y6000D1*
Y7000D2*
X72879D1*
X72878Y7001D1*
Y8001D2*
X74499D1*
X74500Y8000D1*
X79500Y4000D2*
X78125D1*
X78063Y4063D1*
X78169Y3000D2*
X78125D1*
Y4000D1*
X79500Y5000D2*
X78067D1*
Y4774D1*
Y5531D2*
X79500D1*
Y6000D1*
Y7000D2*
Y8000D1*
X62500Y2000D2*
X63500Y1000D1*
X69500D2*
X70500Y2000D1*
X67500Y1000D2*
X68500Y2000D1*
Y1000D2*
X69500Y2000D1*
X56712Y3306D2*
Y2692D1*
X56710Y2690D1*
X57453D1*
X57456Y2687D1*
X79750Y12510D2*
Y13150D1*
X79740Y13159D1*
X50547Y5551D2*
Y4843D1*
X50587Y4803D1*
X51318D1*
X51322Y4799D1*
X66252Y9939D2*
Y10564D1*
X68490D1*
X68552Y10626D1*
X62122Y14094D2*
X62673D1*
X68552Y9752D2*
Y10626D1*
X64007Y11374D2*
X66252D1*
Y12065D1*
X64007Y11374D2*
Y12042D1*
X63996Y12031D1*
X62673Y13504D2*
X62122D1*
X78067Y10827D2*
X78254D1*
Y9685D1*
X78133Y9806D1*
X78250D1*
X74559Y11793D2*
X74833D1*
X74850Y11811D1*
X77132D1*
X77516Y11427D1*
X78028D1*
Y10827D1*
X78067D1*
X49888Y6261D2*
Y5688D1*
X49874Y5674D1*
X49914Y5150D2*
Y5634D1*
X49874Y5674D1*
X49880Y4494D2*
Y5115D1*
X49914Y5150D1*
X50547Y6220D2*
X49928D1*
X49888Y6261D1*
X49205Y5674D2*
Y6247D1*
X49219Y6261D1*
X53605Y5055D2*
X54136D1*
X54707Y5626D1*
D14*
X54746D1*
Y5094D1*
X55238D1*
X55419Y4913D1*
Y4596D1*
X56587D1*
Y4550D1*
X48945Y11787D2*
D15*
Y10110D1*
X54703D1*
X55622D1*
Y11768D1*
X55602Y11787D1*
X54707Y5626D2*
X54703Y6321D1*
X49219Y6261D2*
D13*
X48453D1*
X69717Y4768D2*
Y4571D1*
X71073D1*
X71253Y4750D1*
X66625Y4562D2*
X67250D1*
Y5313D1*
X67065D1*
X67992D1*
Y5311D1*
X67065Y5313D2*
X65563D1*
Y7501D1*
Y8189D1*
X65196D1*
X67065Y7438D2*
X67000Y7503D1*
Y8189D1*
X67296D1*
X65760D2*
X65196D1*
X66752D2*
X67295D1*
X67296D1*
X69717Y4768D2*
Y5295D1*
X68008D1*
X67992Y5311D1*
X69205Y4768D2*
X69189D1*
Y4323D1*
X69574Y3938D1*
X72191D1*
X72316Y3813D1*
Y2385D1*
X72638Y2063D1*
X81688D1*
X82500Y2875D1*
Y3000D1*
X81500Y4000D2*
X82500D1*
X51322Y5311D2*
Y5567D1*
Y5823D1*
Y6079D1*
Y6334D1*
Y6335D1*
X53605Y5311D2*
Y5567D1*
Y5823D1*
Y6079D1*
Y6335D1*
X50012Y7059D2*
D14*
X50764D1*
X51322Y6501D1*
Y6335D1*
X50012Y7059D2*
X53605D1*
X54610D1*
D13*
X54618Y7067D1*
X53605Y6335D2*
D14*
Y7059D1*
X50012D2*
D15*
Y8157D1*
X50295Y8441D1*
X54618Y7067D2*
Y8075D1*
X54252Y8441D1*
X61500Y1000D2*
D14*
Y2177D1*
X61264Y2413D1*
Y2807D1*
X61256Y2815D1*
X64098Y8189D2*
D13*
X63542D1*
X63536Y8195D1*
X62812D1*
Y9100D1*
Y9501D1*
X64752D1*
Y9939D1*
X62049Y9116D2*
X62812Y9100D1*
X63252Y12876D2*
X62690D1*
X63795Y9528D2*
X64752D1*
Y9939D1*
Y12065D2*
Y12832D1*
X64690Y12895D1*
X63958D1*
X63940Y12876D1*
X62049Y10100D2*
X61563D1*
Y12433D1*
X64752D1*
Y12065D1*
X68369Y8189D2*
X68897D1*
X68908Y8199D1*
X69317D1*
Y8910D1*
X69297D1*
Y9311D1*
X67752D1*
Y9939D1*
X69317Y8910D2*
X70582D1*
X70784Y9112D1*
X69190Y12939D2*
X69278D1*
Y9331D2*
X67752D1*
Y9939D1*
Y12065D2*
Y12876D1*
X67815Y12939D1*
X68484D1*
X68503Y12957D1*
X70784Y10096D2*
X71253D1*
Y12453D1*
X67752D1*
Y12065D1*
X79500Y10000D2*
X80500D1*
Y6000D2*
X80000Y5500D1*
Y3500D1*
X79500Y3000D1*
X72866Y13945D2*
Y13972D1*
X73697Y14803D1*
X80697D1*
X81500Y14000D1*
X79500Y9000D2*
X80500D1*
D18*
X68929Y4004D3*
X73857Y11014D3*
X47732Y9409D3*
Y7299D3*
Y2547D3*
X50969Y2732D3*
X54925Y14370D3*
X71940Y7876D3*
Y6813D3*
X61020Y1575D3*
X62531Y3496D3*
X71817Y3553D3*
X59858Y13996D3*
X59882Y10362D3*
Y5154D3*
Y3760D3*
X68562Y4500D3*
X54750Y4173D3*
X66065Y6313D3*
X64940D3*
X73188Y10375D3*
X56232Y5616D3*
X55979Y4061D3*
X62673Y14094D3*
X68552Y9752D3*
X63996Y12031D3*
X62673Y13504D3*
X54703Y6321D3*
Y10110D3*
X48453Y6261D3*
X67000Y7501D3*
X65563D3*
X62690Y12876D3*
X63795Y9528D3*
X69278Y12939D3*
Y9331D3*
X52250Y5846D3*
Y5346D3*
X60500Y13000D3*
Y12500D3*
Y12000D3*
Y11500D3*
Y11000D3*
Y10500D3*
Y10000D3*
Y9500D3*
Y9000D3*
Y8500D3*
Y8000D3*
Y7500D3*
Y7000D3*
Y6500D3*
Y6000D3*
X51795Y8453D3*
X48252Y1709D3*
X48752D3*
X52250Y4846D3*
Y4346D3*
X52750Y5846D3*
Y5346D3*
Y4846D3*
Y4346D3*
X49906Y13283D3*
X50406D3*
X50906D3*
X51406D3*
X76816Y9924D3*
Y9424D3*
Y8924D3*
Y8424D3*
X77379Y9924D3*
Y9424D3*
Y8924D3*
Y8424D3*
X76816Y7924D3*
X77379D3*
X75941Y9174D3*
Y8674D3*
X51906Y13283D3*
X52406D3*
X52906D3*
X53406D3*
X52295Y8453D3*
X52795D3*
X49252Y1709D3*
X49752D3*
X50252D3*
X50752D3*
X51252D3*
X51752D3*
X52252D3*
X52752D3*
X53252D3*
X53752D3*
X54252D3*
X51795Y7953D3*
X55252Y1709D3*
X55752D3*
X56252D3*
X56752D3*
X61000Y7500D3*
Y7000D3*
X52295Y7953D3*
X52795D3*
X44906Y11118D3*
X45406D3*
X45906D3*
X46406D3*
X46906D3*
X58083Y11496D3*
X58583D3*
X59083D3*
X61000Y6500D3*
X56750Y7096D3*
Y6596D3*
Y6096D3*
Y5596D3*
X61500Y7500D3*
Y7000D3*
Y6500D3*
X62000Y7500D3*
Y7000D3*
Y6500D3*
X62500Y7500D3*
Y7000D3*
Y6500D3*
X63000Y7500D3*
Y7000D3*
Y6500D3*
X63500Y7500D3*
Y7000D3*
Y6500D3*
X64000Y7500D3*
Y7000D3*
Y6500D3*
X64500Y7500D3*
Y7000D3*
Y6500D3*
X66000Y13500D3*
Y13000D3*
X66500Y13500D3*
Y13000D3*
X72000Y14000D3*
Y13500D3*
Y13000D3*
Y12500D3*
Y12000D3*
Y11500D3*
Y11000D3*
Y10500D3*
Y10000D3*
X72500Y1500D3*
X73000D3*
X73500D3*
X74000D3*
X74500D3*
X75000D3*
X75500D3*
X76000D3*
X76500D3*
X77000D3*
X77500D3*
X78000D3*
X78500D3*
X79000D3*
X79500D3*
X80000D3*
X80500D3*
X81000D3*
X81500D3*
X82000D3*
X82500D3*
X83000D3*
X83500D3*
X44500Y11000D3*
Y10500D3*
Y10000D3*
Y9500D3*
Y9000D3*
Y8500D3*
Y8000D3*
Y7500D3*
Y7000D3*
Y6500D3*
Y6000D3*
Y5500D3*
Y5000D3*
Y4500D3*
Y4000D3*
Y3500D3*
Y3000D3*
Y2500D3*
Y2000D3*
Y1500D3*
Y1000D3*
X76828Y9967D2*
D16*
X77466D1*
X76828Y9718D2*
X77466D1*
X76828Y9469D2*
X77466D1*
X76750Y9221D2*
X77466D1*
X76750Y8972D2*
X77466D1*
X76750Y8723D2*
X77466D1*
X76750Y8475D2*
X77466D1*
X76750Y8226D2*
X77466D1*
X76750Y7977D2*
X77466D1*
X76496Y7729D2*
X77466D1*
X77492Y10196D2*
X77476Y10200D1*
X77492Y10159D1*
Y10194D1*
X76804Y10196D1*
Y9352D1*
X76725Y9350D1*
Y7926D1*
X76469D1*
Y7653D1*
X77035D1*
X77031Y7672D1*
X77495D1*
X77492Y8223D1*
X77496Y8517D1*
X77492Y8629D1*
Y10159D1*
X75937Y10002D2*
D17*
X76804D1*
X75937Y7727D2*
X76469D1*
X77492Y8901D2*
X78250D1*
X75967D2*
X76724D1*
X44180Y14051D2*
D14*
X48051D1*
X65278D2*
X67182D1*
X69781D2*
X72140D1*
X82227D2*
X83820D1*
X44180Y13753D2*
X47751D1*
X49390D2*
X50454D1*
X52528D2*
X52837D1*
X53524D2*
X53706D1*
X65663D2*
X66813D1*
X69781D2*
X72140D1*
X82379D2*
X83820D1*
X49091Y13454D2*
X53706D1*
X65708D2*
X66797D1*
X69781D2*
X72140D1*
X48796Y13155D2*
X53706D1*
X65708D2*
X66797D1*
X69826D2*
X72173D1*
X51109Y12857D2*
X53436D1*
X56415D2*
X57360D1*
X60426D2*
X61478D1*
X65708D2*
X66797D1*
X71421D2*
X72145D1*
X51109Y12558D2*
X53436D1*
X56415D2*
X57360D1*
X60426D2*
X61125D1*
X71696D2*
X72255D1*
X51109Y12259D2*
X53436D1*
X56415D2*
X57360D1*
X60426D2*
X61105D1*
X71708D2*
X72214D1*
X51109Y11960D2*
X53436D1*
X56415D2*
X57360D1*
X60426D2*
X61105D1*
X62022D2*
X63319D1*
X69239D2*
X70795D1*
X71708D2*
X72140D1*
X51109Y11662D2*
X53436D1*
X56415D2*
X57360D1*
X60426D2*
X61105D1*
X62489D2*
X63319D1*
X69239D2*
X70348D1*
X71708D2*
X72198D1*
X51109Y11363D2*
X53436D1*
X56415D2*
X57647D1*
X59376D2*
X61105D1*
X62723D2*
X63319D1*
X69239D2*
X70110D1*
X71708D2*
X72452D1*
X44180Y11064D2*
X47161D1*
X51109D2*
X53436D1*
X56415D2*
X57647D1*
X59376D2*
X61105D1*
X62776D2*
X63319D1*
X66578D2*
X67867D1*
X69239D2*
X70057D1*
X71708D2*
X72612D1*
X44180Y10766D2*
X45221D1*
X46950D2*
X47161D1*
X51109D2*
X53436D1*
X56415D2*
X57647D1*
X60303D2*
X61105D1*
X62690D2*
X63319D1*
X64695D2*
X65845D1*
X69239D2*
X70139D1*
X71708D2*
X72313D1*
X44180Y10467D2*
X45221D1*
X56210D2*
X57647D1*
X60463D2*
X61105D1*
X62670D2*
X63319D1*
X69239D2*
X70164D1*
X71708D2*
X72169D1*
X44180Y10168D2*
X45221D1*
X56210D2*
X57647D1*
X60439D2*
X61105D1*
X62772D2*
X63319D1*
X69239D2*
X70061D1*
X71708D2*
X72169D1*
X44180Y9870D2*
X45221D1*
X56157D2*
X57647D1*
X60340D2*
X61174D1*
X69465D2*
X70094D1*
X71647D2*
X72169D1*
X44180Y9571D2*
X45221D1*
X46950D2*
X47165D1*
X56415D2*
X57647D1*
X60340D2*
X61322D1*
X69814D2*
X70057D1*
X44180Y9272D2*
X45221D1*
X46950D2*
X47157D1*
X51109D2*
X53436D1*
X60340D2*
X61322D1*
X44180Y8974D2*
X45221D1*
X51109D2*
X53436D1*
X60340D2*
X61322D1*
X44180Y8675D2*
X45221D1*
X51109D2*
X53436D1*
X60340D2*
X61322D1*
X44180Y8376D2*
X45221D1*
X51109D2*
X53436D1*
X60340D2*
X62355D1*
X69773D2*
X71484D1*
X44180Y8078D2*
X45221D1*
X51109D2*
X53436D1*
X56415D2*
X57647D1*
X60340D2*
X62372D1*
X69756D2*
X71386D1*
X82223D2*
X83820D1*
X44180Y7779D2*
X45221D1*
X46950D2*
X47411D1*
X51109D2*
X53436D1*
X56415D2*
X59423D1*
X60340D2*
X62688D1*
X69498D2*
X71357D1*
X83351D2*
X83820D1*
X44180Y7480D2*
X45221D1*
X46950D2*
X47169D1*
X56415D2*
X59423D1*
X60340D2*
X64972D1*
X69707D2*
X71513D1*
X44180Y7181D2*
X47153D1*
X56014D2*
X59423D1*
X60340D2*
X65070D1*
X70019D2*
X70664D1*
X44180Y6883D2*
X47276D1*
X56014D2*
X59423D1*
X60340D2*
X65107D1*
X70187D2*
X70664D1*
X44180Y6584D2*
X47276D1*
X56014D2*
X59423D1*
X60340D2*
X65107D1*
X70187D2*
X70664D1*
X78151D2*
X78911D1*
X44180Y6285D2*
X47276D1*
X55292D2*
X59423D1*
X78151D2*
X78833D1*
X44180Y5987D2*
X47276D1*
X56104D2*
X59423D1*
X44180Y5688D2*
X47276D1*
X48189D2*
X48596D1*
X56104D2*
X59423D1*
X44180Y5389D2*
X47276D1*
X48189D2*
X48539D1*
X56104D2*
X59341D1*
X75108D2*
X76791D1*
X44180Y5091D2*
X47276D1*
X57863D2*
X59292D1*
X75219D2*
X76791D1*
X44180Y4792D2*
X47276D1*
X75194D2*
X76791D1*
X44180Y4493D2*
X47276D1*
X76609D2*
X76786D1*
X44180Y4195D2*
X47276D1*
X76609D2*
X76786D1*
X44180Y3896D2*
X47276D1*
X55267D2*
X56868D1*
X58044D2*
X59308D1*
X76609D2*
X76786D1*
X44180Y3597D2*
X47276D1*
X58044D2*
X59312D1*
X76609D2*
X76786D1*
X44180Y3299D2*
X47276D1*
X58044D2*
X59444D1*
X76609D2*
X76894D1*
X44180Y3000D2*
X47276D1*
X58044D2*
X59444D1*
X61845D2*
X62236D1*
X62825D2*
X64045D1*
X64958D2*
X67043D1*
X67956D2*
X71689D1*
X76609D2*
X76894D1*
X44180Y2701D2*
X47161D1*
X58044D2*
X59444D1*
X61845D2*
X64045D1*
X64958D2*
X67043D1*
X67956D2*
X71857D1*
X44180Y2402D2*
X47161D1*
X44180Y2104D2*
X47358D1*
X48107D2*
X48621D1*
X82363D2*
X83820D1*
X44180Y1805D2*
X48621D1*
X51039D2*
X58697D1*
X82063D2*
X83820D1*
X44180Y1506D2*
X55773D1*
X72020D2*
X83820D1*
X44180Y1208D2*
X55773D1*
X71196D2*
X83820D1*
X44180Y909D2*
X55773D1*
X71220D2*
X83820D1*
X60383Y6330D2*
X62685D1*
X62711Y6336D1*
X65135D1*
X65136Y7138D1*
X65090Y7196D1*
X65033Y7314D1*
X65004Y7441D1*
X65005Y7572D1*
X65010Y7610D1*
X63539Y7614D1*
X62977Y7616D1*
Y7768D1*
X62812D1*
X62683Y7788D1*
X62566Y7846D1*
X62472Y7937D1*
X62410Y8052D1*
X62386Y8195D1*
Y8404D1*
X61352Y8403D1*
Y9728D1*
X61232Y9830D1*
X61166Y9943D1*
X61136Y10100D1*
Y12433D1*
X61156Y12562D1*
X61214Y12679D1*
X61305Y12773D1*
X61420Y12835D1*
X61563Y12860D1*
X62125D1*
X62044Y12945D1*
X61544Y12949D1*
X61113Y12945D1*
X60874D1*
Y13080D1*
X60399Y13077D1*
X60397Y12707D1*
Y11605D1*
X58610D1*
Y11624D1*
X57392Y11623D1*
Y12954D1*
X56386Y12953D1*
X56388Y10540D1*
X56178D1*
X56181Y10110D1*
X56166Y9980D1*
X56120Y9857D1*
X55998Y9689D1*
X56388D1*
X56390Y9394D1*
X57682D1*
X57678Y9669D1*
X59347D1*
Y8001D1*
X57678D1*
Y8275D1*
X56384Y8276D1*
X56388Y7720D1*
Y7193D1*
X55982D1*
X55984Y6410D1*
X55258D1*
X55262Y6292D1*
X55270Y6283D1*
X55325Y6279D1*
X55414Y6283D1*
X56073D1*
Y5108D1*
X57166Y5105D1*
X57597Y5109D1*
X57835D1*
Y5064D1*
X59328Y5062D1*
X59324Y5225D1*
X59356Y5352D1*
X59416Y5468D1*
X59456Y5515D1*
X59455Y9997D1*
X59410Y10058D1*
X59347Y10195D1*
Y9733D1*
X57678D1*
Y11402D1*
X59347D1*
Y10535D1*
X59416Y10677D1*
X59502Y10776D1*
X59608Y10853D1*
X59729Y10903D1*
X59858Y10924D1*
X59989Y10914D1*
X60114Y10874D1*
X60226Y10807D1*
X60319Y10715D1*
X60389Y10604D1*
X60431Y10480D1*
X60444Y10362D1*
X60429Y10232D1*
X60384Y10109D1*
X60309Y9997D1*
Y5519D1*
X60356Y5448D1*
X60357Y6330D1*
X60383D1*
X55229Y3882D2*
X55253Y3878D1*
X55342Y3882D1*
X55922D1*
Y3864D1*
X56621Y3861D1*
X56900Y3865D1*
X56897Y3935D1*
X58015D1*
Y2663D1*
X59448D1*
X59475Y2778D1*
Y3373D1*
X59410Y3455D1*
X59352Y3573D1*
X59323Y3700D1*
X59324Y3831D1*
X59356Y3958D1*
X59396Y4035D1*
X58260Y4038D1*
X57837D1*
X57835Y3991D1*
X56678Y3995D1*
X56247Y3991D1*
X56009D1*
Y4085D1*
X55998Y4038D1*
X55292D1*
X55252Y3920D1*
X55227Y3883D1*
X55263Y3882D1*
X70156Y6575D2*
X70698D1*
X70694Y6704D1*
Y7373D1*
X71691D1*
X71552Y7470D1*
X71468Y7571D1*
X71411Y7689D1*
X71382Y7816D1*
X71383Y7947D1*
X71415Y8074D1*
X71475Y8191D1*
X71515Y8237D1*
X71514Y9250D1*
X71534Y9379D1*
X71592Y9496D1*
X71683Y9590D1*
X71798Y9652D1*
X71940Y9677D1*
X72199D1*
X72198Y10444D1*
X72218Y10573D1*
X72279Y10693D1*
X72416Y10839D1*
X72825Y11247D1*
X72652Y11282D1*
X72531Y11334D1*
X72423Y11407D1*
X72330Y11500D1*
X72256Y11608D1*
X72204Y11728D1*
X72175Y11856D1*
X72171Y11987D1*
X72191Y12117D1*
X72235Y12240D1*
X72302Y12353D1*
X72380Y12442D1*
X72283Y12563D1*
X72222Y12679D1*
X72184Y12805D1*
X72170Y12935D1*
X72180Y13065D1*
X72215Y13192D1*
X72239Y13248D1*
X72170D1*
Y14351D1*
X63171Y14350D1*
X63223Y14213D1*
X63232Y14128D1*
X63811Y14124D1*
X64131D1*
Y14142D1*
X65249D1*
X65252Y13991D1*
X65381Y13971D1*
X65499Y13913D1*
X65593Y13822D1*
X65655Y13707D1*
X65679Y13564D1*
Y12822D1*
X65732Y12816D1*
X65850Y12820D1*
X66826D1*
Y13626D1*
X66846Y13756D1*
X66904Y13873D1*
X66995Y13967D1*
X67110Y14029D1*
X67242Y14053D1*
X67256Y14079D1*
Y14187D1*
X67941D1*
X67944Y14205D1*
X69061D1*
Y14184D1*
X69749Y14187D1*
Y13243D1*
X69785Y13181D1*
X69827Y13057D1*
X69840Y12939D1*
X69832Y12878D1*
X71253Y12880D1*
X71382Y12860D1*
X71499Y12802D1*
X71593Y12711D1*
X71655Y12596D1*
X71680Y12453D1*
Y10096D1*
X71660Y9967D1*
X71602Y9850D1*
X71519Y9763D1*
X71480Y9661D1*
Y8399D1*
X70087D1*
Y8485D1*
X69741Y8483D1*
X69744Y8199D1*
X69724Y8070D1*
X69666Y7953D1*
X69586Y7868D1*
X69469Y7801D1*
X69467Y7620D1*
X68929D1*
X68928Y7610D1*
X67810Y7614D1*
X67793Y7610D1*
X67555D1*
X67596Y7553D1*
X69441D1*
X69570Y7533D1*
X69690Y7472D1*
X69836Y7335D1*
X70021Y7149D1*
X70063Y7138D1*
X70157D1*
Y6576D1*
X46031Y13610D2*
X47248D1*
Y13491D1*
X47523Y13492D1*
X48380Y14352D1*
X44150Y14350D1*
Y651D1*
X55807Y650D1*
X55803Y1222D1*
Y1697D1*
X57197D1*
Y1627D1*
X57368Y1684D1*
X57498Y1697D1*
X57628Y1685D1*
X57754Y1649D1*
X57871Y1589D1*
X58000Y1482D1*
X58125Y1587D1*
X58242Y1647D1*
X58368Y1684D1*
X58498Y1697D1*
X58608Y1687D1*
X58731Y1809D1*
X50982Y1805D1*
X50478Y1801D1*
X50476Y1666D1*
X49319Y1670D1*
X48888Y1666D1*
X48650D1*
X48648Y2201D1*
X48324Y2529D1*
X48294Y2547D1*
X48279Y2417D1*
X48234Y2294D1*
X48162Y2185D1*
X48066Y2095D1*
X47953Y2030D1*
X47827Y1993D1*
X47696Y1986D1*
X47568Y2010D1*
X47448Y2063D1*
X47343Y2142D1*
X47260Y2243D1*
X47202Y2360D1*
X47173Y2488D1*
X47175Y2619D1*
X47207Y2746D1*
X47267Y2862D1*
X47307Y2909D1*
X47305Y6931D1*
X47260Y6995D1*
X47202Y7112D1*
X47173Y7240D1*
X47175Y7371D1*
X47207Y7498D1*
X47267Y7614D1*
X47352Y7713D1*
X47458Y7790D1*
X47579Y7840D1*
X47709Y7861D1*
X47839Y7851D1*
X47964Y7811D1*
X48076Y7744D1*
X48161Y7661D1*
X48157Y7882D1*
X46923D1*
X46921Y7465D1*
X45252D1*
Y9134D1*
X46921D1*
Y8998D1*
X47343Y9004D1*
X47260Y9105D1*
X47202Y9222D1*
X47173Y9350D1*
X47175Y9481D1*
X47204Y9596D1*
X46924Y9595D1*
X46921Y9197D1*
X45252D1*
Y10866D1*
X46921D1*
Y10714D1*
X47189Y10712D1*
Y11150D1*
X47012Y11154D1*
X44241Y11158D1*
Y13614D1*
X46028Y13610D1*
X64664Y10948D2*
X64666Y10694D1*
X65232Y10690D1*
X65666Y10694D1*
X65732Y10690D1*
X65895Y10798D1*
X65998Y10906D1*
X65990Y10947D1*
X64664Y10942D1*
X64660Y10756D1*
X64772Y10694D1*
X65732D1*
X63504Y10008D2*
X63350D1*
Y11992D1*
X63436D1*
X63309Y12006D1*
X61992D1*
X61994Y11794D1*
X62125Y11792D1*
X62254Y11766D1*
X62375Y11716D1*
X62484Y11644D1*
X62578Y11552D1*
X62654Y11445D1*
X62708Y11326D1*
X62738Y11198D1*
X62745Y11074D1*
X62728Y10944D1*
X62686Y10819D1*
X62623Y10705D1*
X62533Y10599D1*
X62611Y10511D1*
X62678Y10399D1*
X62723Y10276D1*
X62745Y10100D1*
X62733Y9969D1*
X62718Y9918D1*
X62812Y9928D1*
X63399D1*
X63505Y10006D1*
X69210Y11244D2*
Y10008D1*
X69050D1*
X69102Y9866D1*
X69254Y9892D1*
X69384Y9882D1*
X69509Y9843D1*
X69621Y9775D1*
X69715Y9684D1*
X69785Y9573D1*
X69827Y9449D1*
X69842Y9337D1*
X70084D1*
X70087Y9793D1*
X70157D1*
X70122Y9880D1*
X70093Y10007D1*
X70088Y10138D1*
X70109Y10268D1*
X70153Y10391D1*
X70219Y10504D1*
X70297Y10593D1*
X70201Y10714D1*
X70140Y10830D1*
X70101Y10956D1*
X70087Y11086D1*
X70098Y11217D1*
X70132Y11343D1*
X70190Y11461D1*
X70269Y11565D1*
X70366Y11653D1*
X70478Y11722D1*
X70600Y11768D1*
X70729Y11791D1*
X70827D1*
X70826Y12028D1*
X68230Y12026D1*
X68236Y11992D1*
X69210D1*
X69209Y10756D1*
X67895Y10988D2*
X67899Y11244D1*
X67895Y11308D1*
X67272Y11313D1*
X67022Y11309D1*
X66674D1*
X66663Y11259D1*
X66609Y11140D1*
X66507Y11032D1*
X66515Y10991D1*
X67895Y10992D1*
Y11255D1*
X67732Y11309D1*
X66772Y11313D1*
X66671Y11309D1*
X66659Y11245D1*
X66601Y11128D1*
X66510Y11034D1*
X76578Y3614D2*
X76581Y2741D1*
X76918Y2739D1*
X76921Y2966D1*
Y3503D1*
X76815Y3504D1*
X76819Y5332D1*
X76817Y5508D1*
X76785Y5540D1*
X75051Y5538D1*
X75008Y5523D1*
X74980Y5499D1*
X75062Y5411D1*
X75129Y5299D1*
X75174Y5176D1*
X75197Y5000D1*
X75184Y4870D1*
X75135Y4718D1*
X76581Y4717D1*
X76580Y3363D1*
X48568Y5313D2*
Y5630D1*
X48630D1*
X48626Y5726D1*
X48548Y5707D1*
X48417Y5700D1*
X48288Y5723D1*
X48158Y5783D1*
X48159Y2915D1*
X48229Y2807D1*
X48231Y4803D1*
X48251Y4932D1*
X48312Y5052D1*
X48448Y5198D1*
X48567Y5317D1*
X82197Y14348D2*
Y13881D1*
X82302Y13802D1*
X82415Y13689D1*
X82498Y13697D1*
X82628Y13685D1*
X82754Y13649D1*
X82871Y13589D1*
X83000Y13482D1*
X83061Y13541D1*
X83170Y13614D1*
X83291Y13665D1*
X83419Y13692D1*
X83550Y13695D1*
X83680Y13673D1*
X83803Y13628D1*
X83850Y13603D1*
Y14349D1*
X82200Y14350D1*
X81983Y8500D2*
X82062Y8411D1*
X82129Y8299D1*
X82174Y8176D1*
X82197Y8000D1*
X82190Y7931D1*
X83000Y7927D1*
X83129Y7907D1*
X83246Y7849D1*
X83333Y7766D1*
X83393Y7688D1*
X83524Y7696D1*
X83654Y7679D1*
X83779Y7638D1*
X83850Y7603D1*
Y8304D1*
X82803Y8303D1*
Y8373D1*
X82674Y8325D1*
X82544Y8305D1*
X82413Y8309D1*
X82285Y8337D1*
X82165Y8389D1*
X82057Y8463D1*
X82002Y8518D1*
X64927Y2547D2*
X65000Y2482D1*
X65125Y2587D1*
X65242Y2647D1*
X65368Y2684D1*
X65498Y2697D1*
X65628Y2685D1*
X65754Y2649D1*
X65871Y2589D1*
X66000Y2482D1*
X66061Y2541D1*
X66170Y2614D1*
X66291Y2665D1*
X66419Y2692D1*
X66550Y2695D1*
X66680Y2673D1*
X66803Y2628D1*
X66915Y2560D1*
X67000Y2485D1*
X67070Y2544D1*
X67073Y3128D1*
X64929Y3126D1*
X64927Y2548D1*
X67927Y2547D2*
X68000Y2482D1*
X68125Y2587D1*
X68242Y2647D1*
X68368Y2684D1*
X68498Y2697D1*
X68628Y2685D1*
X68754Y2649D1*
X68871Y2589D1*
X69000Y2482D1*
X69125Y2587D1*
X69242Y2647D1*
X69368Y2684D1*
X69498Y2697D1*
X69628Y2685D1*
X69754Y2649D1*
X69871Y2589D1*
X70000Y2482D1*
X70125Y2587D1*
X70242Y2647D1*
X70368Y2684D1*
X70498Y2697D1*
X70628Y2685D1*
X70754Y2649D1*
X70871Y2589D1*
X71000Y2482D1*
X71061Y2541D1*
X71170Y2614D1*
X71291Y2665D1*
X71419Y2692D1*
X71550Y2695D1*
X71680Y2673D1*
X71803Y2628D1*
X71889Y2578D1*
Y2996D1*
X71781Y2992D1*
X71652Y3016D1*
X71532Y3068D1*
X71457Y3125D1*
X67925Y3126D1*
X67927Y2548D1*
X72190Y1908D2*
X72157Y1768D1*
X72102Y1649D1*
X72026Y1543D1*
X71931Y1452D1*
X71821Y1381D1*
X71699Y1332D1*
X71571Y1307D1*
X71440Y1306D1*
X71311Y1330D1*
X71188Y1377D1*
X71077Y1446D1*
X70999Y1515D1*
X71129Y1299D1*
X71174Y1176D1*
X71197Y1000D1*
X71184Y870D1*
X71148Y744D1*
X71101Y652D1*
X72871Y650D1*
X83850D1*
Y2300D1*
X82884Y2303D1*
X82803D1*
Y2373D1*
X82674Y2325D1*
X82532Y2305D1*
X81989Y1761D1*
X81884Y1683D1*
X81756Y1642D1*
X81556Y1636D1*
X72638D1*
X72509Y1656D1*
X72389Y1717D1*
X72244Y1853D1*
X72188Y1908D1*
X51878Y13746D2*
Y13677D1*
X50484D1*
Y13813D1*
X49422Y13815D1*
X48646Y13036D1*
X49730Y13035D1*
X51080D1*
Y10669D1*
X53467Y10671D1*
Y13035D1*
X53733D1*
X53736Y13819D1*
X53591Y13811D1*
X53478Y13744D1*
X53355Y13699D1*
X53225Y13679D1*
X53095Y13683D1*
X52967Y13711D1*
X52846Y13763D1*
X52738Y13837D1*
X52683Y13892D1*
X52591Y13811D1*
X52478Y13744D1*
X52355Y13699D1*
X52225Y13679D1*
X52095Y13683D1*
X51967Y13711D1*
X51878Y13747D1*
X78808Y5956D2*
X78805Y6042D1*
X78825Y6172D1*
X78869Y6295D1*
X78935Y6408D1*
X79014Y6497D1*
X78890Y6663D1*
X78838Y6784D1*
X78809Y6911D1*
X78805Y7042D1*
X78825Y7172D1*
X78854Y7253D1*
X78802Y7214D1*
Y7120D1*
X78782Y6991D1*
X78724Y6874D1*
X78633Y6780D1*
X78518Y6718D1*
X78375Y6693D1*
X78121Y6688D1*
Y6090D1*
X78645D1*
Y5955D1*
X78801Y5958D1*
X61813Y3393D2*
X61816Y2697D1*
X63197D1*
Y2627D1*
X63316Y2672D1*
X63446Y2695D1*
X63577Y2692D1*
X63705Y2666D1*
X63826Y2616D1*
X63935Y2544D1*
X64000Y2485D1*
X64070Y2544D1*
X64073Y3128D1*
X63717Y3122D1*
X63611Y3081D1*
X63512Y3069D1*
X62901D1*
X62752Y2979D1*
X62626Y2942D1*
X62496Y2935D1*
X62367Y2959D1*
X62247Y3011D1*
X62143Y3090D1*
X62059Y3191D1*
X62002Y3309D1*
X61973Y3437D1*
Y3490D1*
X61818Y3492D1*
X61815Y2906D1*
Y2700D1*
X51080Y9553D2*
Y7569D1*
X53424Y7571D1*
X53469D1*
X53467Y9030D1*
Y9551D1*
X51082D1*
X61250Y6330D2*
Y5654D1*
X60357D2*
X61250D1*
X62421Y6330D2*
Y5654D1*
X63579Y6336D2*
Y5659D1*
X64730Y6336D2*
Y5659D1*
X55343Y3881D2*
Y3323D1*
X55455Y6283D2*
Y5626D1*
X56072D1*
X58285Y12300D2*
Y11623D1*
X57392Y12300D2*
X58285D1*
X59503Y12282D2*
Y11605D1*
Y12282D2*
X60396D1*
X46354Y11831D2*
Y11154D1*
X45135Y11835D2*
Y11158D1*
X44242Y11835D2*
X45135D1*
X63350Y10626D2*
X64664D1*
X68552Y11991D2*
Y11374D1*
X67896D2*
X69209D1*
X75688Y4716D2*
Y4040D1*
X76580D1*
X58513Y11401D2*
Y9733D1*
X57679Y10567D2*
X59347D1*
X63500Y2696D2*
Y2000D1*
X66500Y2696D2*
Y2000D1*
X71500Y2696D2*
Y1304D1*
Y2000D2*
X72196D1*
X83500Y7696D2*
Y7000D1*
Y13696D2*
Y13000D1*
X52181Y14374D2*
Y13678D1*
X62049Y11796D2*
Y11100D1*
X62745D1*
X70784Y11792D2*
Y11096D1*
X70088D2*
X70784D1*
X72170Y12945D2*
X72866D1*
X57456Y3935D2*
Y3357D1*
X58014D1*
X64661Y8189D2*
Y7611D1*
X67838Y8189D2*
Y7611D1*
X77562Y6451D2*
X78121D1*
X76922Y3000D2*
X77500D1*
X50295Y13035D2*
Y11787D1*
X51080D1*
X66752Y12820D2*
Y11309D1*
X65752Y12820D2*
Y12065D1*
D19*
X52863Y2639D3*
X53532D3*
D20*
X61250Y4551D3*
Y5654D3*
X62421Y4551D3*
Y5654D3*
X63579Y4557D3*
Y5659D3*
X64730Y4557D3*
Y5659D3*
D19*
X54692Y2681D3*
X55361D3*
D21*
X49908Y3310D3*
X49160D3*
D19*
X54674Y3323D3*
X55343D3*
D21*
X54707Y5626D3*
X55455D3*
D22*
X70457Y5957D3*
Y5209D3*
X67992Y5311D3*
Y6059D3*
D20*
X58285Y12300D3*
Y13402D3*
X59503Y12282D3*
Y13384D3*
D21*
X49264Y7059D3*
X50012D3*
X54618Y7067D3*
X55366D3*
D23*
X64098Y8189D3*
Y8858D3*
X63940Y12876D3*
Y13546D3*
D20*
X46354Y12933D3*
Y11831D3*
X45135Y12937D3*
Y11835D3*
D23*
X68369Y8189D3*
Y8858D3*
X68503Y12957D3*
Y13626D3*
D21*
X78067Y10827D3*
X77319D3*
D20*
X75937Y10002D3*
Y11104D3*
D23*
X76687Y7102D3*
Y6433D3*
D22*
X64007Y10626D3*
Y11374D3*
X68552Y10626D3*
Y11374D3*
D20*
X73313Y2938D3*
Y4040D3*
X75688Y2938D3*
Y4040D3*
D22*
X73500Y9250D3*
Y9998D3*
D25*
X46087Y10031D3*
Y8299D3*
X58513Y10567D3*
Y8835D3*
D27*
X49914Y5150D3*
X49048D3*
D28*
X79740Y13750D3*
Y13159D3*
D29*
X81500Y14000D3*
D30*
X80500D3*
X81500Y13000D3*
X80500D3*
X81500Y12000D3*
X80500D3*
X81500Y11000D3*
X80500D3*
X81500Y10000D3*
X80500D3*
X81500Y9000D3*
X80500D3*
X81500Y8000D3*
X80500D3*
X81500Y7000D3*
X80500D3*
X81500Y6000D3*
X80500D3*
X81500Y5000D3*
X80500D3*
X81500Y4000D3*
X80500D3*
X81500Y3000D3*
X80500D3*
D29*
X62500Y2000D3*
D30*
X63500D3*
X64500D3*
X65500D3*
X66500D3*
X67500D3*
X68500D3*
X69500D3*
X70500D3*
X71500D3*
D29*
X83500Y3000D3*
D30*
X82500D3*
X83500Y4000D3*
X82500D3*
X83500Y5000D3*
X82500D3*
X83500Y6000D3*
X82500D3*
X83500Y7000D3*
X82500D3*
D29*
X83500Y9000D3*
D30*
X82500D3*
X83500Y10000D3*
X82500D3*
X83500Y11000D3*
X82500D3*
X83500Y12000D3*
X82500D3*
X83500Y13000D3*
X82500D3*
D31*
X51181Y14374D3*
D32*
X52181D3*
X53181D3*
D33*
X62049Y9116D3*
D34*
Y10100D3*
Y11084D3*
D33*
X70784Y9112D3*
D34*
Y10096D3*
Y11080D3*
D33*
X78000Y13008D3*
D34*
Y13992D3*
D29*
X72866Y13945D3*
D30*
Y12945D3*
Y11945D3*
D29*
X72878Y5001D3*
D30*
Y6001D3*
Y7001D3*
Y8001D3*
D29*
X79500Y3000D3*
D30*
Y4000D3*
Y5000D3*
Y6000D3*
Y7000D3*
Y8000D3*
Y9000D3*
Y10000D3*
D29*
X74500Y3000D3*
D30*
Y4000D3*
Y5000D3*
Y6000D3*
Y7000D3*
Y8000D3*
Y9000D3*
Y10000D3*
D29*
X56500Y1000D3*
D30*
X57500D3*
X58500D3*
X59500D3*
X60500D3*
X61500D3*
X62500D3*
X63500D3*
X64500D3*
X65500D3*
X66500D3*
X67500D3*
X68500D3*
X69500D3*
X70500D3*
D36*
X74701Y14094D3*
Y13346D3*
X75606Y13720D3*
D19*
X52309Y3203D3*
X51640D3*
X52305Y2639D3*
X51636D3*
X53532Y3209D3*
X52863D3*
D23*
X57456Y3357D3*
Y2687D3*
D19*
X56712Y3306D3*
X56042D3*
X56710Y2690D3*
X56040D3*
X49199Y3908D3*
X49868D3*
X54750Y4596D3*
X55419D3*
X49211Y4494D3*
X49880D3*
X57257Y4550D3*
X56587D3*
X49205Y5674D3*
X49874D3*
X49219Y6261D3*
X49888D3*
X67250Y4562D3*
X67919D3*
X66625D3*
X65956D3*
D23*
X71253Y6126D3*
Y6795D3*
Y4750D3*
Y5420D3*
X64661Y8189D3*
Y8858D3*
X65760Y8189D3*
Y8858D3*
X63536Y8864D3*
Y8195D3*
X64690Y13564D3*
Y12895D3*
X65196Y8189D3*
Y8858D3*
X63252Y12876D3*
Y13546D3*
X67838Y8189D3*
Y8858D3*
X66752Y8189D3*
Y8858D3*
X68908Y8868D3*
Y8199D3*
X67815Y13608D3*
Y12939D3*
X67296Y8189D3*
Y8858D3*
X69190Y12939D3*
Y13608D3*
X74559Y11124D3*
Y11793D3*
D19*
X74022Y12372D3*
X74691D3*
X79091Y10906D3*
X79760D3*
D23*
X77562Y6451D3*
Y7120D3*
X75937Y7058D3*
Y7727D3*
X74041Y14094D3*
Y13425D3*
D19*
X62122Y13504D3*
X61453D3*
Y14094D3*
X62122D3*
X77500Y3000D3*
X78169D3*
X78063Y4063D3*
X77393D3*
D23*
X61256Y2815D3*
Y3484D3*
D19*
X78067Y4774D3*
X77398D3*
X78067Y5531D3*
X77398D3*
D23*
X75724Y12333D3*
Y13002D3*
X79750Y11841D3*
Y12510D3*
X50547Y6220D3*
Y5551D3*
D19*
X49898Y2224D3*
X49228D3*
D38*
X48945Y8441D3*
X50295D3*
Y11787D3*
X48945D3*
X54252Y8441D3*
X55602D3*
Y11787D3*
X54252D3*
D39*
X53605Y4031D3*
Y4287D3*
Y4543D3*
Y4799D3*
Y5055D3*
Y5311D3*
Y5567D3*
Y5823D3*
Y6079D3*
Y6335D3*
X51322D3*
Y6079D3*
Y5823D3*
Y5567D3*
Y5311D3*
Y5055D3*
Y4799D3*
Y4543D3*
Y4287D3*
Y4031D3*
D40*
X52464Y5183D3*
D41*
X78250Y7995D3*
Y8901D3*
Y9806D3*
D42*
X75967Y8901D3*
D43*
X68949Y4768D3*
X69205D3*
X69461D3*
X69717D3*
Y6500D3*
X69461D3*
X69205D3*
X68949D3*
D36*
X67065Y5313D3*
Y6061D3*
X66159Y5687D3*
D44*
X64752Y9939D3*
X65252D3*
X65752D3*
X66252D3*
X66752D3*
X67252D3*
X67752D3*
Y12065D3*
X67252D3*
X66752D3*
X66252D3*
X65752D3*
X65252D3*
X64752D3*
X32188Y21438D2*
D13*
X31062D1*
X31000Y21500D1*
X29875D1*
X29813Y21438D1*
X24419Y23062D2*
Y22504D1*
D14*
X21220D1*
X20079D1*
X18921D1*
X17812D1*
X17756D1*
X17012D1*
X16466Y23050D1*
X13757D1*
X25429Y22504D2*
X24419D1*
X17750Y23051D2*
D13*
X18921D1*
X20073D1*
X20079Y23057D1*
X21230D1*
X31059Y29624D2*
X30467D1*
X30357Y29514D1*
X20079Y23057D2*
D14*
Y22504D1*
X18921Y23051D2*
Y22504D1*
X17750Y23051D2*
Y22566D1*
X17812Y22504D1*
X21230Y23057D2*
D13*
X22450D1*
X22456Y23062D1*
X21230Y23057D2*
D14*
X21220D1*
Y22504D1*
X17756Y21984D2*
Y22504D1*
X1635Y31437D2*
X2854D1*
Y31433D1*
D15*
X4248D1*
Y28654D1*
X2709D1*
X2587Y28531D1*
X7681Y32874D2*
X5693D1*
X4252Y31433D1*
X4248Y28654D2*
D13*
Y27894D1*
X4232Y27909D1*
Y25799D2*
Y21047D1*
X7469Y21232D2*
Y21358D1*
X7795Y21685D1*
X8122D1*
X8140Y21703D1*
X17953Y32594D2*
X17819D1*
X17543Y32870D1*
X11425D1*
X30000Y27750D2*
X29125D1*
Y28944D1*
X30522Y30341D1*
Y30445D1*
Y30872D1*
X29125Y27750D2*
X28440D1*
Y26376D1*
Y25313D2*
X27771D1*
X27753Y25295D1*
X30000Y27750D2*
X30750D1*
X31000Y27500D1*
X33898Y24031D2*
Y23274D1*
X33893Y22563D2*
Y23274D1*
X33898D1*
X31000Y27500D2*
X31500Y27000D1*
Y24520D1*
X31555Y24465D1*
X33465D1*
X33898Y24031D1*
X15000Y19500D2*
X15026D1*
X15600Y20075D1*
X17520D1*
X19031Y21996D2*
X20012D1*
Y22053D1*
X21000D1*
X24000D1*
X28317D1*
X21000Y20500D2*
Y22053D1*
X24000Y20500D2*
Y22053D1*
X29366Y30445D2*
X30522D1*
X14785Y31902D2*
D14*
X15985D1*
D13*
X16003Y31884D1*
X9681Y32874D2*
D15*
X10795D1*
Y32012D1*
Y30331D1*
X10752Y30287D1*
X14785Y31902D2*
Y32012D1*
X10795D1*
X17953Y32004D2*
D13*
X16123D1*
X16003Y31884D1*
Y32141D1*
X16358Y32496D1*
X16382Y28862D2*
Y23654D1*
Y22260D2*
X16402D1*
Y21016D1*
X16122Y20736D1*
X8136D1*
Y21139D1*
X6398Y20724D2*
X8136Y20736D1*
X37000Y31500D2*
X37500Y32000D1*
X38500D1*
X39000Y31500D1*
X38000D2*
X39000Y30500D1*
X38000D2*
X39000Y29500D1*
X38000D2*
X39000Y28500D1*
X38000D2*
X39000Y27500D1*
X37000Y26500D2*
X37500Y26000D1*
X39500D1*
Y25000D1*
X40000Y24500D1*
Y23500D2*
X39500Y24000D1*
X37620D1*
X37500Y24120D1*
Y25000D1*
X37000Y25500D1*
X38000D2*
X39000Y24500D1*
X25449Y23268D2*
X25398D1*
X25192Y23062D1*
X25125D1*
X25062Y23000D1*
X22252Y28439D2*
Y28138D1*
X22627Y27762D1*
Y25778D1*
X23030Y25376D1*
X25376D1*
X25449Y25303D1*
Y25000D1*
X26217D2*
Y25350D1*
X25941Y25626D1*
X23177D1*
X22877Y25926D1*
Y27751D1*
X23252Y28126D1*
Y28438D1*
Y28439D1*
X10105Y23299D2*
X11047D1*
X11250Y23096D1*
Y22673D1*
X33187Y24933D2*
X34044D1*
X34062Y24951D1*
X32437Y29604D2*
X32569D1*
Y29327D1*
X33819D1*
X34000Y21500D2*
X33188D1*
X33063Y21625D1*
Y22465D1*
X32965Y22562D1*
X32210D1*
X32188Y22540D1*
X31201Y31846D2*
X30620D1*
X30541Y31925D1*
X32437Y29604D2*
X31614D1*
Y28500D1*
X31752D1*
Y25154D1*
X31973Y24933D1*
X33187D1*
X40000Y31500D2*
X40500Y31000D1*
Y26000D1*
X40000Y25500D1*
X23565Y24561D2*
X24492D1*
Y24559D1*
X25052Y29874D2*
X23317D1*
X23252Y29939D1*
Y30564D1*
Y30565D1*
X20507Y29126D2*
X21252D1*
X21627Y29501D1*
X23002D1*
X23317Y29816D1*
Y29874D1*
X22252Y30565D2*
Y32064D1*
X22500D1*
X23252D1*
Y30565D1*
X24338Y26689D2*
Y26251D1*
X27753D1*
Y28071D1*
X26753D1*
Y29580D1*
X27284D1*
X18549Y29584D2*
X19065D1*
Y28083D1*
X18064D1*
Y26188D1*
X21440D1*
X21161D1*
Y26689D1*
X20507Y29126D2*
Y29001D1*
X20002D1*
X19419Y29584D1*
X18549D1*
X25052Y29874D2*
X26130D1*
X26424Y29580D1*
X27284D1*
X23565Y24561D2*
X22817D1*
X22565Y24813D1*
X21440D2*
Y26188D1*
X31000Y22500D2*
X29852D1*
X29813Y22540D1*
X31000Y22500D2*
X32148D1*
X32188Y22540D1*
X30000Y28498D2*
X30998D1*
X31000Y28500D1*
X31614D1*
X30000Y28498D2*
Y28563D1*
X29688Y28875D1*
X16000Y19500D2*
X17000D1*
X5711Y22994D2*
Y22420D1*
X5699Y22408D1*
Y21849D1*
X5660Y21810D1*
Y21575D1*
X5983Y21252D1*
X6797D1*
X7428Y21883D1*
Y22179D1*
X7822D1*
X9000D1*
Y22846D1*
Y23647D1*
X8964Y23683D1*
X7822Y22531D2*
Y22179D1*
X14785Y30800D2*
D14*
X15985D1*
D13*
X16003Y30782D1*
X1635Y30335D2*
D14*
X2854D1*
Y30331D1*
X15013Y29067D2*
D15*
Y29791D1*
X16003Y30782D1*
X13956Y21857D2*
D13*
Y22561D1*
X12479D1*
X11843D1*
Y21823D1*
X12732Y24116D2*
X12722Y24126D1*
X11955D1*
X8750Y22846D2*
X9250D1*
X8750Y23346D2*
X9250D1*
X8750Y23846D2*
X9250D1*
X8750Y24346D2*
X9250D1*
X8750D2*
Y23846D1*
Y23346D1*
Y22846D1*
X9000D1*
X17750Y24154D2*
X18921D1*
X20073D1*
X20079Y24159D1*
X21230D1*
X25705Y25000D2*
Y24559D1*
Y24303D1*
X25866Y24142D1*
X26394D1*
X26827Y23709D1*
X26957D1*
X24492Y24559D2*
X25705D1*
X22500Y32000D2*
Y32064D1*
X30541Y31925D2*
Y31915D1*
X30079Y31453D1*
X29374D1*
X29366Y31445D1*
X28555D1*
X28500Y31500D1*
X31201Y32594D2*
X30541D1*
X37000Y32500D2*
X36938D1*
X36375Y33063D1*
X30541D1*
Y32594D1*
X32467Y27401D2*
Y26256D1*
X32437Y26227D1*
X32467Y27401D2*
Y28473D1*
X32437Y28502D1*
X34750Y27401D2*
Y27358D1*
X35167D1*
X35500Y27691D1*
Y29406D1*
X35591D1*
X32467Y27401D2*
X34750D1*
X38000Y23500D2*
X39000D1*
X38000D2*
X37500Y23000D1*
Y21187D1*
X37125Y20812D1*
X29272D1*
X29063Y21022D1*
Y22469D1*
X28843Y22689D1*
X26157D1*
X25961Y22886D1*
Y23268D1*
X5548Y23650D2*
X5504D1*
X5157Y23303D1*
Y21295D1*
X5728Y20724D1*
X11861Y21181D2*
X12532D1*
X12540Y21190D1*
X12542Y21806D2*
Y21192D1*
X11866Y25567D2*
D15*
Y26705D1*
X12102Y26941D1*
X15013Y27335D2*
X12496D1*
X12102Y26941D1*
X5445D2*
X2728D1*
X2587Y26799D1*
X5764Y25559D2*
Y26622D1*
X5445Y26941D1*
X7822Y22787D2*
D13*
X7257D1*
X7180Y22711D1*
Y22026D1*
X6991Y21837D1*
X6435D1*
X6408Y21810D1*
X10105Y22787D2*
X10675D1*
Y22118D1*
X10980Y21813D1*
X11164D1*
X11174Y21823D1*
Y21199D1*
X11192Y21181D1*
X7822Y23043D2*
X7028D1*
X6873Y22888D1*
Y22463D1*
X6838Y22427D1*
X6387D1*
X6368Y22408D1*
X10032Y21139D2*
Y21709D1*
X10105Y22531D2*
Y21782D1*
X10032Y21709D1*
X8809Y21703D2*
X9357D1*
X9363Y21709D1*
X8805Y21139D2*
X9363D1*
Y21708D1*
X32437Y25558D2*
X33187D1*
Y25602D1*
X34044D1*
X34062Y25620D1*
X34875D1*
Y26370D1*
X34750Y26495D1*
X34500Y32492D2*
X32746D1*
Y32220D1*
X32324D1*
X32106D1*
X32224Y31502D2*
Y32121D1*
X32324Y32220D1*
X36240Y32250D2*
Y32496D1*
X36220Y32516D1*
X34524D1*
X34500Y32492D1*
X27753Y24626D2*
Y24273D1*
Y23920D1*
Y24273D2*
X27141D1*
X26957Y24457D1*
X25961Y25000D2*
Y24512D1*
X26028Y24445D1*
X26945D1*
X26957Y24457D1*
X36260Y29406D2*
Y29839D1*
X34911D1*
Y30500D1*
X34500D1*
Y31508D1*
X31191Y30872D2*
X31358D1*
Y30793D1*
X32244D1*
Y30596D1*
X34500D1*
Y31508D1*
X36250Y30341D2*
X36260Y29839D1*
X32224Y30833D2*
X32244Y30793D1*
X21752Y28439D2*
Y27376D1*
X21674D1*
Y27358D1*
X21696D1*
X21161D2*
X21674D1*
X21161D2*
X20598D1*
X20042D1*
X20036Y27364D1*
X22260Y27358D2*
X21706D1*
X21674Y27376D1*
X23752Y28439D2*
Y27373D1*
X23767Y27358D1*
X23796D1*
X24338D1*
X24869D1*
X25397D1*
X25408Y27368D1*
X23252Y27358D2*
X23767D1*
X21752Y30565D2*
Y32064D1*
X21190D1*
X20458D1*
X20440Y32046D1*
X19752D1*
X25003Y32126D2*
X24333D1*
X24315Y32108D1*
X23771D1*
X23752Y32126D1*
Y30565D1*
X25690Y32108D2*
X25021D1*
X25003Y32126D1*
X31000Y23500D2*
X29379D1*
X29378Y23501D1*
Y24501D2*
X30999D1*
X31000Y24500D1*
Y25500D2*
X29379D1*
X29378Y25501D1*
Y26501D2*
X30999D1*
X31000Y26500D1*
X36000Y22500D2*
X34625D1*
X34563Y22563D1*
X34669Y21500D2*
X34625D1*
Y22500D1*
X36000Y23500D2*
X34567D1*
Y23274D1*
Y24031D2*
X36000D1*
Y24500D1*
Y25500D2*
Y26500D1*
X19000Y20500D2*
X20000Y19500D1*
X26000D2*
X27000Y20500D1*
X24000Y19500D2*
X25000Y20500D1*
Y19500D2*
X26000Y20500D1*
X13212Y21806D2*
Y21192D1*
X13210Y21190D1*
X13953D1*
X13956Y21187D1*
X36250Y31010D2*
Y31650D1*
X36240Y31659D1*
X7047Y24051D2*
Y23343D1*
X7087Y23303D1*
X7818D1*
X7822Y23299D1*
X22752Y28439D2*
Y29064D1*
X24990D1*
X25052Y29126D1*
X18622Y32594D2*
X19173D1*
X25052Y28252D2*
Y29126D1*
X20507Y29874D2*
X22752D1*
Y30565D1*
X20507Y29874D2*
Y30542D1*
X20496Y30531D1*
X19173Y32004D2*
X18622D1*
X34567Y29327D2*
X34754D1*
Y28185D1*
X34633Y28306D1*
X34750D1*
X31059Y30293D2*
X31333D1*
X31350Y30311D1*
X33632D1*
X34016Y29927D1*
X34528D1*
Y29327D1*
X34567D1*
X6388Y24761D2*
Y24188D1*
X6374Y24174D1*
X6414Y23650D2*
Y24134D1*
X6374Y24174D1*
X6380Y22994D2*
Y23615D1*
X6414Y23650D1*
X7047Y24720D2*
X6428D1*
X6388Y24761D1*
X5705Y24174D2*
Y24747D1*
X5719Y24761D1*
X10105Y23555D2*
X10636D1*
X11207Y24126D1*
D14*
X11246D1*
Y23594D1*
X11738D1*
X11919Y23413D1*
Y23096D1*
X13087D1*
Y23050D1*
X5445Y30287D2*
D15*
Y28610D1*
X11203D1*
X12122D1*
Y30268D1*
X12102Y30287D1*
X11207Y24126D2*
X11203Y24821D1*
X5719Y24761D2*
D13*
X4953D1*
X26217Y23268D2*
Y23071D1*
X27573D1*
X27753Y23250D1*
X23125Y23062D2*
X23750D1*
Y23813D1*
X23565D1*
X24492D1*
Y23811D1*
X23565Y23813D2*
X22063D1*
Y26001D1*
Y26689D1*
X21696D1*
X23565Y25938D2*
X23500Y26003D1*
Y26689D1*
X23796D1*
X22260D2*
X21696D1*
X23252D2*
X23795D1*
X23796D1*
X26217Y23268D2*
Y23795D1*
X24508D1*
X24492Y23811D1*
X25705Y23268D2*
X25689D1*
Y22823D1*
X26074Y22438D1*
X28691D1*
X28816Y22313D1*
Y20885D1*
X29138Y20563D1*
X38188D1*
X39000Y21375D1*
Y21500D1*
X38000Y22500D2*
X39000D1*
X7822Y23811D2*
Y24067D1*
Y24323D1*
Y24579D1*
Y24834D1*
Y24835D1*
X10105Y23811D2*
Y24067D1*
Y24323D1*
Y24579D1*
Y24835D1*
X6512Y25559D2*
D14*
X7264D1*
X7822Y25001D1*
Y24835D1*
X6512Y25559D2*
X10105D1*
X11110D1*
D13*
X11118Y25567D1*
X10105Y24835D2*
D14*
Y25559D1*
X6512D2*
D15*
Y26657D1*
X6795Y26941D1*
X11118Y25567D2*
Y26575D1*
X10752Y26941D1*
X18000Y19500D2*
D14*
Y20677D1*
X17764Y20913D1*
Y21307D1*
X17756Y21315D1*
X20598Y26689D2*
D13*
X20042D1*
X20036Y26695D1*
X19312D1*
Y27600D1*
Y28001D1*
X21252D1*
Y28439D1*
X18549Y27616D2*
X19312Y27600D1*
X19752Y31376D2*
X19190D1*
X20295Y28028D2*
X21252D1*
Y28439D1*
Y30565D2*
Y31332D1*
X21190Y31395D1*
X20458D1*
X20440Y31376D1*
X18549Y28600D2*
X18063D1*
Y30933D1*
X21252D1*
Y30565D1*
X24869Y26689D2*
X25397D1*
X25408Y26699D1*
X25817D1*
Y27410D1*
X25797D1*
Y27811D1*
X24252D1*
Y28439D1*
X25817Y27410D2*
X27082D1*
X27284Y27612D1*
X25690Y31439D2*
X25778D1*
Y27831D2*
X24252D1*
Y28439D1*
Y30565D2*
Y31376D1*
X24315Y31439D1*
X24984D1*
X25003Y31457D1*
X27284Y28596D2*
X27753D1*
Y30953D1*
X24252D1*
Y30565D1*
X36000Y28500D2*
X37000D1*
Y24500D2*
X36500Y24000D1*
Y22000D1*
X36000Y21500D1*
X29366Y32445D2*
Y32472D1*
X30197Y33303D1*
X37197D1*
X38000Y32500D1*
X36000Y27500D2*
X37000D1*
D18*
X25429Y22504D3*
X30357Y29514D3*
X4232Y27909D3*
Y25799D3*
Y21047D3*
X7469Y21232D3*
X11425Y32870D3*
X28440Y26376D3*
Y25313D3*
X17520Y20075D3*
X19031Y21996D3*
X28317Y22053D3*
X16358Y32496D3*
X16382Y28862D3*
Y23654D3*
Y22260D3*
X25062Y23000D3*
X11250Y22673D3*
X22565Y24813D3*
X21440D3*
X29688Y28875D3*
X12732Y24116D3*
X12479Y22561D3*
X19173Y32594D3*
X25052Y28252D3*
X20496Y30531D3*
X19173Y32004D3*
X11203Y24821D3*
Y28610D3*
X4953Y24761D3*
X23500Y26001D3*
X22063D3*
X19190Y31376D3*
X20295Y28028D3*
X25778Y31439D3*
Y27831D3*
X8750Y24346D3*
Y23846D3*
X17000Y31500D3*
Y31000D3*
Y30500D3*
Y30000D3*
Y29500D3*
Y29000D3*
Y28500D3*
Y28000D3*
Y27500D3*
Y27000D3*
Y26500D3*
Y26000D3*
Y25500D3*
Y25000D3*
Y24500D3*
X8295Y26953D3*
X4752Y20209D3*
X5252D3*
X8750Y23346D3*
Y22846D3*
X9250Y24346D3*
Y23846D3*
Y23346D3*
Y22846D3*
X6406Y31783D3*
X6906D3*
X7406D3*
X7906D3*
X33316Y28424D3*
Y27924D3*
Y27424D3*
Y26924D3*
X33879Y28424D3*
Y27924D3*
Y27424D3*
Y26924D3*
X33316Y26424D3*
X33879D3*
X32441Y27674D3*
Y27174D3*
X8406Y31783D3*
X8906D3*
X9406D3*
X9906D3*
X8795Y26953D3*
X9295D3*
X5752Y20209D3*
X6252D3*
X6752D3*
X7252D3*
X7752D3*
X8252D3*
X8752D3*
X9252D3*
X9752D3*
X10252D3*
X10752D3*
X8295Y26453D3*
X11752Y20209D3*
X12252D3*
X12752D3*
X13252D3*
X17500Y26000D3*
Y25500D3*
X8795Y26453D3*
X9295D3*
X1406Y29618D3*
X1906D3*
X2406D3*
X2906D3*
X3406D3*
X14583Y29996D3*
X15083D3*
X15583D3*
X17500Y25000D3*
X13250Y25596D3*
Y25096D3*
Y24596D3*
Y24096D3*
X18000Y26000D3*
Y25500D3*
Y25000D3*
X18500Y26000D3*
Y25500D3*
Y25000D3*
X19000Y26000D3*
Y25500D3*
Y25000D3*
X19500Y26000D3*
Y25500D3*
Y25000D3*
X20000Y26000D3*
Y25500D3*
Y25000D3*
X20500Y26000D3*
Y25500D3*
Y25000D3*
X21000Y26000D3*
Y25500D3*
Y25000D3*
X22500Y32000D3*
Y31500D3*
X23000Y32000D3*
Y31500D3*
X28500Y32500D3*
Y32000D3*
Y31500D3*
Y31000D3*
Y30500D3*
Y30000D3*
Y29500D3*
Y29000D3*
Y28500D3*
X29000Y20000D3*
X29500D3*
X30000D3*
X30500D3*
X31000D3*
X31500D3*
X32000D3*
X32500D3*
X33000D3*
X33500D3*
X34000D3*
X34500D3*
X35000D3*
X35500D3*
X36000D3*
X36500D3*
X37000D3*
X37500D3*
X38000D3*
X38500D3*
X39000D3*
X39500D3*
X40000D3*
X1000Y29500D3*
Y29000D3*
Y28500D3*
Y28000D3*
Y27500D3*
Y27000D3*
Y26500D3*
Y26000D3*
Y25500D3*
Y25000D3*
Y24500D3*
Y24000D3*
Y23500D3*
Y23000D3*
Y22500D3*
Y22000D3*
Y21500D3*
Y21000D3*
Y20500D3*
Y20000D3*
Y19500D3*
X33328Y28467D2*
D16*
X33966D1*
X33328Y28218D2*
X33966D1*
X33328Y27969D2*
X33966D1*
X33250Y27721D2*
X33966D1*
X33250Y27472D2*
X33966D1*
X33250Y27223D2*
X33966D1*
X33250Y26975D2*
X33966D1*
X33250Y26726D2*
X33966D1*
X33250Y26477D2*
X33966D1*
X32996Y26229D2*
X33966D1*
X33992Y28696D2*
X33976Y28700D1*
X33992Y28659D1*
Y28694D1*
X33304Y28696D1*
Y27852D1*
X33225Y27850D1*
Y26426D1*
X32969D1*
Y26153D1*
X33535D1*
X33531Y26172D1*
X33995D1*
X33992Y26723D1*
X33996Y27017D1*
X33992Y27129D1*
Y28659D1*
X32437Y28502D2*
D17*
X33304D1*
X32437Y26227D2*
X32969D1*
X33992Y27401D2*
X34750D1*
X32467D2*
X33224D1*
X680Y32551D2*
D14*
X4551D1*
X21778D2*
X23682D1*
X26281D2*
X28640D1*
X38727D2*
X40320D1*
X680Y32253D2*
X4251D1*
X5890D2*
X6954D1*
X9028D2*
X9337D1*
X10024D2*
X10206D1*
X22163D2*
X23313D1*
X26281D2*
X28640D1*
X38879D2*
X40320D1*
X5591Y31954D2*
X10206D1*
X22208D2*
X23297D1*
X26281D2*
X28640D1*
X5296Y31655D2*
X10206D1*
X22208D2*
X23297D1*
X26326D2*
X28673D1*
X7609Y31357D2*
X9936D1*
X12915D2*
X13860D1*
X16926D2*
X17978D1*
X22208D2*
X23297D1*
X27921D2*
X28645D1*
X7609Y31058D2*
X9936D1*
X12915D2*
X13860D1*
X16926D2*
X17625D1*
X28196D2*
X28755D1*
X7609Y30759D2*
X9936D1*
X12915D2*
X13860D1*
X16926D2*
X17605D1*
X28208D2*
X28714D1*
X7609Y30460D2*
X9936D1*
X12915D2*
X13860D1*
X16926D2*
X17605D1*
X18522D2*
X19819D1*
X25739D2*
X27295D1*
X28208D2*
X28640D1*
X7609Y30162D2*
X9936D1*
X12915D2*
X13860D1*
X16926D2*
X17605D1*
X18989D2*
X19819D1*
X25739D2*
X26848D1*
X28208D2*
X28698D1*
X7609Y29863D2*
X9936D1*
X12915D2*
X14147D1*
X15876D2*
X17605D1*
X19223D2*
X19819D1*
X25739D2*
X26610D1*
X28208D2*
X28952D1*
X680Y29564D2*
X3661D1*
X7609D2*
X9936D1*
X12915D2*
X14147D1*
X15876D2*
X17605D1*
X19276D2*
X19819D1*
X23078D2*
X24367D1*
X25739D2*
X26557D1*
X28208D2*
X29112D1*
X680Y29266D2*
X1721D1*
X3450D2*
X3661D1*
X7609D2*
X9936D1*
X12915D2*
X14147D1*
X16803D2*
X17605D1*
X19190D2*
X19819D1*
X21195D2*
X22345D1*
X25739D2*
X26639D1*
X28208D2*
X28813D1*
X680Y28967D2*
X1721D1*
X12710D2*
X14147D1*
X16963D2*
X17605D1*
X19170D2*
X19819D1*
X25739D2*
X26664D1*
X28208D2*
X28669D1*
X680Y28668D2*
X1721D1*
X12710D2*
X14147D1*
X16939D2*
X17605D1*
X19272D2*
X19819D1*
X25739D2*
X26561D1*
X28208D2*
X28669D1*
X680Y28370D2*
X1721D1*
X12657D2*
X14147D1*
X16840D2*
X17674D1*
X25965D2*
X26594D1*
X28147D2*
X28669D1*
X680Y28071D2*
X1721D1*
X3450D2*
X3665D1*
X12915D2*
X14147D1*
X16840D2*
X17822D1*
X26314D2*
X26557D1*
X680Y27772D2*
X1721D1*
X3450D2*
X3657D1*
X7609D2*
X9936D1*
X16840D2*
X17822D1*
X680Y27474D2*
X1721D1*
X7609D2*
X9936D1*
X16840D2*
X17822D1*
X680Y27175D2*
X1721D1*
X7609D2*
X9936D1*
X16840D2*
X17822D1*
X680Y26876D2*
X1721D1*
X7609D2*
X9936D1*
X16840D2*
X18855D1*
X26273D2*
X27984D1*
X680Y26578D2*
X1721D1*
X7609D2*
X9936D1*
X12915D2*
X14147D1*
X16840D2*
X18872D1*
X26256D2*
X27886D1*
X38723D2*
X40320D1*
X680Y26279D2*
X1721D1*
X3450D2*
X3911D1*
X7609D2*
X9936D1*
X12915D2*
X15923D1*
X16840D2*
X19188D1*
X25998D2*
X27857D1*
X39851D2*
X40320D1*
X680Y25980D2*
X1721D1*
X3450D2*
X3669D1*
X12915D2*
X15923D1*
X16840D2*
X21472D1*
X26207D2*
X28013D1*
X680Y25681D2*
X3653D1*
X12514D2*
X15923D1*
X16840D2*
X21570D1*
X26519D2*
X27164D1*
X680Y25383D2*
X3776D1*
X12514D2*
X15923D1*
X16840D2*
X21607D1*
X26687D2*
X27164D1*
X680Y25084D2*
X3776D1*
X12514D2*
X15923D1*
X16840D2*
X21607D1*
X26687D2*
X27164D1*
X34651D2*
X35411D1*
X680Y24785D2*
X3776D1*
X11792D2*
X15923D1*
X34651D2*
X35333D1*
X680Y24487D2*
X3776D1*
X12604D2*
X15923D1*
X680Y24188D2*
X3776D1*
X4689D2*
X5096D1*
X12604D2*
X15923D1*
X680Y23889D2*
X3776D1*
X4689D2*
X5039D1*
X12604D2*
X15841D1*
X31608D2*
X33291D1*
X680Y23591D2*
X3776D1*
X14363D2*
X15792D1*
X31719D2*
X33291D1*
X680Y23292D2*
X3776D1*
X31694D2*
X33291D1*
X680Y22993D2*
X3776D1*
X33109D2*
X33286D1*
X680Y22695D2*
X3776D1*
X33109D2*
X33286D1*
X680Y22396D2*
X3776D1*
X11767D2*
X13368D1*
X14544D2*
X15808D1*
X33109D2*
X33286D1*
X680Y22097D2*
X3776D1*
X14544D2*
X15812D1*
X33109D2*
X33286D1*
X680Y21799D2*
X3776D1*
X14544D2*
X15944D1*
X33109D2*
X33394D1*
X680Y21500D2*
X3776D1*
X14544D2*
X15944D1*
X18345D2*
X18736D1*
X19325D2*
X20545D1*
X21458D2*
X23543D1*
X24456D2*
X28189D1*
X33109D2*
X33394D1*
X680Y21201D2*
X3661D1*
X14544D2*
X15944D1*
X18345D2*
X20545D1*
X21458D2*
X23543D1*
X24456D2*
X28357D1*
X680Y20902D2*
X3661D1*
X680Y20604D2*
X3858D1*
X4607D2*
X5121D1*
X38863D2*
X40320D1*
X680Y20305D2*
X5121D1*
X7539D2*
X15197D1*
X38563D2*
X40320D1*
X680Y20006D2*
X12273D1*
X28520D2*
X40320D1*
X680Y19708D2*
X12273D1*
X27696D2*
X40320D1*
X680Y19409D2*
X12273D1*
X27720D2*
X40320D1*
X16883Y24830D2*
X19185D1*
X19211Y24836D1*
X21635D1*
X21636Y25638D1*
X21590Y25696D1*
X21533Y25814D1*
X21504Y25941D1*
X21505Y26072D1*
X21510Y26110D1*
X20039Y26114D1*
X19477Y26116D1*
Y26268D1*
X19312D1*
X19183Y26288D1*
X19066Y26346D1*
X18972Y26437D1*
X18910Y26552D1*
X18886Y26695D1*
Y26904D1*
X17852Y26903D1*
Y28228D1*
X17732Y28330D1*
X17666Y28443D1*
X17636Y28600D1*
Y30933D1*
X17656Y31062D1*
X17714Y31179D1*
X17805Y31273D1*
X17920Y31335D1*
X18063Y31360D1*
X18625D1*
X18544Y31445D1*
X18044Y31449D1*
X17613Y31445D1*
X17374D1*
Y31580D1*
X16899Y31577D1*
X16897Y31207D1*
Y30105D1*
X15110D1*
Y30124D1*
X13892Y30123D1*
Y31454D1*
X12886Y31453D1*
X12888Y29040D1*
X12678D1*
X12681Y28610D1*
X12666Y28480D1*
X12620Y28357D1*
X12498Y28189D1*
X12888D1*
X12890Y27894D1*
X14182D1*
X14178Y28169D1*
X15847D1*
Y26501D1*
X14178D1*
Y26775D1*
X12884Y26776D1*
X12888Y26220D1*
Y25693D1*
X12482D1*
X12484Y24910D1*
X11758D1*
X11762Y24792D1*
X11770Y24783D1*
X11825Y24779D1*
X11914Y24783D1*
X12573D1*
Y23608D1*
X13666Y23605D1*
X14097Y23609D1*
X14335D1*
Y23564D1*
X15828Y23562D1*
X15824Y23725D1*
X15856Y23852D1*
X15916Y23968D1*
X15956Y24015D1*
X15955Y28497D1*
X15910Y28558D1*
X15847Y28695D1*
Y28233D1*
X14178D1*
Y29902D1*
X15847D1*
Y29035D1*
X15916Y29177D1*
X16002Y29276D1*
X16108Y29353D1*
X16229Y29403D1*
X16358Y29424D1*
X16489Y29414D1*
X16614Y29374D1*
X16726Y29307D1*
X16819Y29215D1*
X16889Y29104D1*
X16931Y28980D1*
X16944Y28862D1*
X16929Y28732D1*
X16884Y28609D1*
X16809Y28497D1*
Y24019D1*
X16856Y23948D1*
X16857Y24830D1*
X16883D1*
X11729Y22382D2*
X11753Y22378D1*
X11842Y22382D1*
X12422D1*
Y22364D1*
X13121Y22361D1*
X13400Y22365D1*
X13397Y22435D1*
X14515D1*
Y21163D1*
X15948D1*
X15975Y21278D1*
Y21873D1*
X15910Y21955D1*
X15852Y22073D1*
X15823Y22200D1*
X15824Y22331D1*
X15856Y22458D1*
X15896Y22535D1*
X14760Y22538D1*
X14337D1*
X14335Y22491D1*
X13178Y22495D1*
X12747Y22491D1*
X12509D1*
Y22585D1*
X12498Y22538D1*
X11792D1*
X11752Y22420D1*
X11727Y22383D1*
X11763Y22382D1*
X26656Y25075D2*
X27198D1*
X27194Y25204D1*
Y25873D1*
X28191D1*
X28052Y25970D1*
X27968Y26071D1*
X27911Y26189D1*
X27882Y26316D1*
X27883Y26447D1*
X27915Y26574D1*
X27975Y26691D1*
X28015Y26737D1*
X28014Y27750D1*
X28034Y27879D1*
X28092Y27996D1*
X28183Y28090D1*
X28298Y28152D1*
X28440Y28177D1*
X28699D1*
X28698Y28944D1*
X28718Y29073D1*
X28779Y29193D1*
X28916Y29339D1*
X29325Y29747D1*
X29152Y29782D1*
X29031Y29834D1*
X28923Y29907D1*
X28830Y30000D1*
X28756Y30108D1*
X28704Y30228D1*
X28675Y30356D1*
X28671Y30487D1*
X28691Y30617D1*
X28735Y30740D1*
X28802Y30853D1*
X28880Y30942D1*
X28783Y31063D1*
X28722Y31179D1*
X28684Y31305D1*
X28670Y31435D1*
X28680Y31565D1*
X28715Y31692D1*
X28739Y31748D1*
X28670D1*
Y32851D1*
X19671Y32850D1*
X19723Y32713D1*
X19732Y32628D1*
X20311Y32624D1*
X20631D1*
Y32642D1*
X21749D1*
X21752Y32491D1*
X21881Y32471D1*
X21999Y32413D1*
X22093Y32322D1*
X22155Y32207D1*
X22179Y32064D1*
Y31322D1*
X22232Y31316D1*
X22350Y31320D1*
X23326D1*
Y32126D1*
X23346Y32256D1*
X23404Y32373D1*
X23495Y32467D1*
X23610Y32529D1*
X23742Y32553D1*
X23756Y32579D1*
Y32687D1*
X24441D1*
X24444Y32705D1*
X25561D1*
Y32684D1*
X26249Y32687D1*
Y31743D1*
X26285Y31681D1*
X26327Y31557D1*
X26340Y31439D1*
X26332Y31378D1*
X27753Y31380D1*
X27882Y31360D1*
X27999Y31302D1*
X28093Y31211D1*
X28155Y31096D1*
X28180Y30953D1*
Y28596D1*
X28160Y28467D1*
X28102Y28350D1*
X28019Y28263D1*
X27980Y28161D1*
Y26899D1*
X26587D1*
Y26985D1*
X26241Y26983D1*
X26244Y26699D1*
X26224Y26570D1*
X26166Y26453D1*
X26086Y26368D1*
X25969Y26301D1*
X25967Y26120D1*
X25429D1*
X25428Y26110D1*
X24310Y26114D1*
X24293Y26110D1*
X24055D1*
X24096Y26053D1*
X25941D1*
X26070Y26033D1*
X26190Y25972D1*
X26336Y25835D1*
X26521Y25649D1*
X26563Y25638D1*
X26657D1*
Y25076D1*
X2531Y32110D2*
X3748D1*
Y31991D1*
X4023Y31992D1*
X4880Y32852D1*
X650Y32850D1*
Y19151D1*
X12307Y19150D1*
X12303Y19722D1*
Y20197D1*
X13697D1*
Y20127D1*
X13868Y20184D1*
X13998Y20197D1*
X14128Y20185D1*
X14254Y20149D1*
X14371Y20089D1*
X14500Y19982D1*
X14625Y20087D1*
X14742Y20147D1*
X14868Y20184D1*
X14998Y20197D1*
X15108Y20187D1*
X15231Y20309D1*
X7482Y20305D1*
X6978Y20301D1*
X6976Y20166D1*
X5819Y20170D1*
X5388Y20166D1*
X5150D1*
X5148Y20701D1*
X4824Y21029D1*
X4794Y21047D1*
X4779Y20917D1*
X4734Y20794D1*
X4662Y20685D1*
X4566Y20595D1*
X4453Y20530D1*
X4327Y20493D1*
X4196Y20486D1*
X4068Y20510D1*
X3948Y20563D1*
X3843Y20642D1*
X3760Y20743D1*
X3702Y20860D1*
X3673Y20988D1*
X3675Y21119D1*
X3707Y21246D1*
X3767Y21362D1*
X3807Y21409D1*
X3805Y25431D1*
X3760Y25495D1*
X3702Y25612D1*
X3673Y25740D1*
X3675Y25871D1*
X3707Y25998D1*
X3767Y26114D1*
X3852Y26213D1*
X3958Y26290D1*
X4079Y26340D1*
X4209Y26361D1*
X4339Y26351D1*
X4464Y26311D1*
X4576Y26244D1*
X4661Y26161D1*
X4657Y26382D1*
X3423D1*
X3421Y25965D1*
X1752D1*
Y27634D1*
X3421D1*
Y27498D1*
X3843Y27504D1*
X3760Y27605D1*
X3702Y27722D1*
X3673Y27850D1*
X3675Y27981D1*
X3704Y28096D1*
X3424Y28095D1*
X3421Y27697D1*
X1752D1*
Y29366D1*
X3421D1*
Y29214D1*
X3689Y29212D1*
Y29650D1*
X3512Y29654D1*
X741Y29658D1*
Y32114D1*
X2528Y32110D1*
X21164Y29448D2*
X21166Y29194D1*
X21732Y29190D1*
X22166Y29194D1*
X22232Y29190D1*
X22395Y29298D1*
X22498Y29406D1*
X22490Y29447D1*
X21164Y29442D1*
X21160Y29256D1*
X21272Y29194D1*
X22232D1*
X20004Y28508D2*
X19850D1*
Y30492D1*
X19936D1*
X19809Y30506D1*
X18492D1*
X18494Y30294D1*
X18625Y30292D1*
X18754Y30266D1*
X18875Y30216D1*
X18984Y30144D1*
X19078Y30052D1*
X19154Y29945D1*
X19208Y29826D1*
X19238Y29698D1*
X19245Y29574D1*
X19228Y29444D1*
X19186Y29319D1*
X19123Y29205D1*
X19033Y29099D1*
X19111Y29011D1*
X19178Y28899D1*
X19223Y28776D1*
X19245Y28600D1*
X19233Y28469D1*
X19218Y28418D1*
X19312Y28428D1*
X19899D1*
X20005Y28506D1*
X25710Y29744D2*
Y28508D1*
X25550D1*
X25602Y28366D1*
X25754Y28392D1*
X25884Y28382D1*
X26009Y28343D1*
X26121Y28275D1*
X26215Y28184D1*
X26285Y28073D1*
X26327Y27949D1*
X26342Y27837D1*
X26584D1*
X26587Y28293D1*
X26657D1*
X26622Y28380D1*
X26593Y28507D1*
X26588Y28638D1*
X26609Y28768D1*
X26653Y28891D1*
X26719Y29004D1*
X26797Y29093D1*
X26701Y29214D1*
X26640Y29330D1*
X26601Y29456D1*
X26587Y29586D1*
X26598Y29717D1*
X26632Y29843D1*
X26690Y29961D1*
X26769Y30065D1*
X26866Y30153D1*
X26978Y30222D1*
X27100Y30268D1*
X27229Y30291D1*
X27327D1*
X27326Y30528D1*
X24730Y30526D1*
X24736Y30492D1*
X25710D1*
X25709Y29256D1*
X24395Y29488D2*
X24399Y29744D1*
X24395Y29808D1*
X23772Y29813D1*
X23522Y29809D1*
X23174D1*
X23163Y29759D1*
X23109Y29640D1*
X23007Y29532D1*
X23015Y29491D1*
X24395Y29492D1*
Y29755D1*
X24232Y29809D1*
X23272Y29813D1*
X23171Y29809D1*
X23159Y29745D1*
X23101Y29628D1*
X23010Y29534D1*
X33078Y22114D2*
X33081Y21241D1*
X33418Y21239D1*
X33421Y21466D1*
Y22003D1*
X33315Y22004D1*
X33319Y23832D1*
X33317Y24008D1*
X33285Y24040D1*
X31551Y24038D1*
X31508Y24023D1*
X31480Y23999D1*
X31562Y23911D1*
X31629Y23799D1*
X31674Y23676D1*
X31697Y23500D1*
X31684Y23370D1*
X31635Y23218D1*
X33081Y23217D1*
X33080Y21863D1*
X5068Y23813D2*
Y24130D1*
X5130D1*
X5126Y24226D1*
X5048Y24207D1*
X4917Y24200D1*
X4788Y24223D1*
X4658Y24283D1*
X4659Y21415D1*
X4729Y21307D1*
X4731Y23303D1*
X4751Y23432D1*
X4812Y23552D1*
X4948Y23698D1*
X5067Y23817D1*
X38697Y32848D2*
Y32381D1*
X38802Y32302D1*
X38915Y32189D1*
X38998Y32197D1*
X39128Y32185D1*
X39254Y32149D1*
X39371Y32089D1*
X39500Y31982D1*
X39561Y32041D1*
X39670Y32114D1*
X39791Y32165D1*
X39919Y32192D1*
X40050Y32195D1*
X40180Y32173D1*
X40303Y32128D1*
X40350Y32103D1*
Y32849D1*
X38700Y32850D1*
X38483Y27000D2*
X38562Y26911D1*
X38629Y26799D1*
X38674Y26676D1*
X38697Y26500D1*
X38690Y26431D1*
X39500Y26427D1*
X39629Y26407D1*
X39746Y26349D1*
X39833Y26266D1*
X39893Y26188D1*
X40024Y26196D1*
X40154Y26179D1*
X40279Y26138D1*
X40350Y26103D1*
Y26804D1*
X39303Y26803D1*
Y26873D1*
X39174Y26825D1*
X39044Y26805D1*
X38913Y26809D1*
X38785Y26837D1*
X38665Y26889D1*
X38557Y26963D1*
X38502Y27018D1*
X21427Y21047D2*
X21500Y20982D1*
X21625Y21087D1*
X21742Y21147D1*
X21868Y21184D1*
X21998Y21197D1*
X22128Y21185D1*
X22254Y21149D1*
X22371Y21089D1*
X22500Y20982D1*
X22561Y21041D1*
X22670Y21114D1*
X22791Y21165D1*
X22919Y21192D1*
X23050Y21195D1*
X23180Y21173D1*
X23303Y21128D1*
X23415Y21060D1*
X23500Y20985D1*
X23570Y21044D1*
X23573Y21628D1*
X21429Y21626D1*
X21427Y21048D1*
X24427Y21047D2*
X24500Y20982D1*
X24625Y21087D1*
X24742Y21147D1*
X24868Y21184D1*
X24998Y21197D1*
X25128Y21185D1*
X25254Y21149D1*
X25371Y21089D1*
X25500Y20982D1*
X25625Y21087D1*
X25742Y21147D1*
X25868Y21184D1*
X25998Y21197D1*
X26128Y21185D1*
X26254Y21149D1*
X26371Y21089D1*
X26500Y20982D1*
X26625Y21087D1*
X26742Y21147D1*
X26868Y21184D1*
X26998Y21197D1*
X27128Y21185D1*
X27254Y21149D1*
X27371Y21089D1*
X27500Y20982D1*
X27561Y21041D1*
X27670Y21114D1*
X27791Y21165D1*
X27919Y21192D1*
X28050Y21195D1*
X28180Y21173D1*
X28303Y21128D1*
X28389Y21078D1*
Y21496D1*
X28281Y21492D1*
X28152Y21516D1*
X28032Y21568D1*
X27957Y21625D1*
X24425Y21626D1*
X24427Y21048D1*
X28690Y20408D2*
X28657Y20268D1*
X28602Y20149D1*
X28526Y20043D1*
X28431Y19952D1*
X28321Y19881D1*
X28199Y19832D1*
X28071Y19807D1*
X27940Y19806D1*
X27811Y19830D1*
X27688Y19877D1*
X27577Y19946D1*
X27499Y20015D1*
X27629Y19799D1*
X27674Y19676D1*
X27697Y19500D1*
X27684Y19370D1*
X27648Y19244D1*
X27601Y19152D1*
X29371Y19150D1*
X40350D1*
Y20800D1*
X39384Y20803D1*
X39303D1*
Y20873D1*
X39174Y20825D1*
X39032Y20805D1*
X38489Y20261D1*
X38384Y20183D1*
X38256Y20142D1*
X38056Y20136D1*
X29138D1*
X29009Y20156D1*
X28889Y20217D1*
X28744Y20353D1*
X28688Y20408D1*
X8378Y32246D2*
Y32177D1*
X6984D1*
Y32313D1*
X5922Y32315D1*
X5146Y31536D1*
X6230Y31535D1*
X7580D1*
Y29169D1*
X9967Y29171D1*
Y31535D1*
X10233D1*
X10236Y32319D1*
X10091Y32311D1*
X9978Y32244D1*
X9855Y32199D1*
X9725Y32179D1*
X9595Y32183D1*
X9467Y32211D1*
X9346Y32263D1*
X9238Y32337D1*
X9183Y32392D1*
X9091Y32311D1*
X8978Y32244D1*
X8855Y32199D1*
X8725Y32179D1*
X8595Y32183D1*
X8467Y32211D1*
X8378Y32247D1*
X35308Y24456D2*
X35305Y24542D1*
X35325Y24672D1*
X35369Y24795D1*
X35435Y24908D1*
X35514Y24997D1*
X35390Y25163D1*
X35338Y25284D1*
X35309Y25411D1*
X35305Y25542D1*
X35325Y25672D1*
X35354Y25753D1*
X35302Y25714D1*
Y25620D1*
X35282Y25491D1*
X35224Y25374D1*
X35133Y25280D1*
X35018Y25218D1*
X34875Y25193D1*
X34621Y25188D1*
Y24590D1*
X35145D1*
Y24455D1*
X35301Y24458D1*
X18313Y21893D2*
X18316Y21197D1*
X19697D1*
Y21127D1*
X19816Y21172D1*
X19946Y21195D1*
X20077Y21192D1*
X20205Y21166D1*
X20326Y21116D1*
X20435Y21044D1*
X20500Y20985D1*
X20570Y21044D1*
X20573Y21628D1*
X20217Y21622D1*
X20111Y21581D1*
X20012Y21569D1*
X19401D1*
X19252Y21479D1*
X19126Y21442D1*
X18996Y21435D1*
X18867Y21459D1*
X18747Y21511D1*
X18643Y21590D1*
X18559Y21691D1*
X18502Y21809D1*
X18473Y21937D1*
Y21990D1*
X18318Y21992D1*
X18315Y21406D1*
Y21200D1*
X7580Y28053D2*
Y26069D1*
X9924Y26071D1*
X9969D1*
X9967Y27530D1*
Y28051D1*
X7582D1*
X17750Y24830D2*
Y24154D1*
X16857D2*
X17750D1*
X18921Y24830D2*
Y24154D1*
X20079Y24836D2*
Y24159D1*
X21230Y24836D2*
Y24159D1*
X11843Y22381D2*
Y21823D1*
X11955Y24783D2*
Y24126D1*
X12572D1*
X14785Y30800D2*
Y30123D1*
X13892Y30800D2*
X14785D1*
X16003Y30782D2*
Y30105D1*
Y30782D2*
X16896D1*
X2854Y30331D2*
Y29654D1*
X1635Y30335D2*
Y29658D1*
X742Y30335D2*
X1635D1*
X19850Y29126D2*
X21164D1*
X25052Y30491D2*
Y29874D1*
X24396D2*
X25709D1*
X32188Y23216D2*
Y22540D1*
X33080D1*
X15013Y29901D2*
Y28233D1*
X14179Y29067D2*
X15847D1*
X20000Y21196D2*
Y20500D1*
X23000Y21196D2*
Y20500D1*
X28000Y21196D2*
Y19804D1*
Y20500D2*
X28696D1*
X40000Y26196D2*
Y25500D1*
Y32196D2*
Y31500D1*
X8681Y32874D2*
Y32178D1*
X18549Y30296D2*
Y29600D1*
X19245D1*
X27284Y30292D2*
Y29596D1*
X26588D2*
X27284D1*
X28670Y31445D2*
X29366D1*
X13956Y22435D2*
Y21857D1*
X14514D1*
X21161Y26689D2*
Y26111D1*
X24338Y26689D2*
Y26111D1*
X34062Y24951D2*
X34621D1*
X33422Y21500D2*
X34000D1*
X6795Y31535D2*
Y30287D1*
X7580D1*
X23252Y31320D2*
Y29809D1*
X22252Y31320D2*
Y30565D1*
D19*
X9363Y21139D3*
X10032D3*
D20*
X17750Y23051D3*
Y24154D3*
X18921Y23051D3*
Y24154D3*
X20079Y23057D3*
Y24159D3*
X21230Y23057D3*
Y24159D3*
D19*
X11192Y21181D3*
X11861D3*
D21*
X6408Y21810D3*
X5660D3*
D19*
X11174Y21823D3*
X11843D3*
D21*
X11207Y24126D3*
X11955D3*
D22*
X26957Y24457D3*
Y23709D3*
X24492Y23811D3*
Y24559D3*
D20*
X14785Y30800D3*
Y31902D3*
X16003Y30782D3*
Y31884D3*
D21*
X5764Y25559D3*
X6512D3*
X11118Y25567D3*
X11866D3*
D23*
X20598Y26689D3*
Y27358D3*
X20440Y31376D3*
Y32046D3*
D20*
X2854Y31433D3*
Y30331D3*
X1635Y31437D3*
Y30335D3*
D23*
X24869Y26689D3*
Y27358D3*
X25003Y31457D3*
Y32126D3*
D21*
X34567Y29327D3*
X33819D3*
D20*
X32437Y28502D3*
Y29604D3*
D23*
X33187Y25602D3*
Y24933D3*
D22*
X20507Y29126D3*
Y29874D3*
X25052Y29126D3*
Y29874D3*
D20*
X29813Y21438D3*
Y22540D3*
X32188Y21438D3*
Y22540D3*
D22*
X30000Y27750D3*
Y28498D3*
D25*
X2587Y28531D3*
Y26799D3*
X15013Y29067D3*
Y27335D3*
D27*
X6414Y23650D3*
X5548D3*
D28*
X36240Y32250D3*
Y31659D3*
D29*
X38000Y32500D3*
D30*
X37000D3*
X38000Y31500D3*
X37000D3*
X38000Y30500D3*
X37000D3*
X38000Y29500D3*
X37000D3*
X38000Y28500D3*
X37000D3*
X38000Y27500D3*
X37000D3*
X38000Y26500D3*
X37000D3*
X38000Y25500D3*
X37000D3*
X38000Y24500D3*
X37000D3*
X38000Y23500D3*
X37000D3*
X38000Y22500D3*
X37000D3*
X38000Y21500D3*
X37000D3*
D29*
X19000Y20500D3*
D30*
X20000D3*
X21000D3*
X22000D3*
X23000D3*
X24000D3*
X25000D3*
X26000D3*
X27000D3*
X28000D3*
D29*
X40000Y21500D3*
D30*
X39000D3*
X40000Y22500D3*
X39000D3*
X40000Y23500D3*
X39000D3*
X40000Y24500D3*
X39000D3*
X40000Y25500D3*
X39000D3*
D29*
X40000Y27500D3*
D30*
X39000D3*
X40000Y28500D3*
X39000D3*
X40000Y29500D3*
X39000D3*
X40000Y30500D3*
X39000D3*
X40000Y31500D3*
X39000D3*
D31*
X7681Y32874D3*
D32*
X8681D3*
X9681D3*
D33*
X18549Y27616D3*
D34*
Y28600D3*
Y29584D3*
D33*
X27284Y27612D3*
D34*
Y28596D3*
Y29580D3*
D33*
X34500Y31508D3*
D34*
Y32492D3*
D29*
X29366Y32445D3*
D30*
Y31445D3*
Y30445D3*
D29*
X29378Y23501D3*
D30*
Y24501D3*
Y25501D3*
Y26501D3*
D29*
X36000Y21500D3*
D30*
Y22500D3*
Y23500D3*
Y24500D3*
Y25500D3*
Y26500D3*
Y27500D3*
Y28500D3*
D29*
X31000Y21500D3*
D30*
Y22500D3*
Y23500D3*
Y24500D3*
Y25500D3*
Y26500D3*
Y27500D3*
Y28500D3*
D29*
X13000Y19500D3*
D30*
X14000D3*
X15000D3*
X16000D3*
X17000D3*
X18000D3*
X19000D3*
X20000D3*
X21000D3*
X22000D3*
X23000D3*
X24000D3*
X25000D3*
X26000D3*
X27000D3*
D36*
X31201Y32594D3*
Y31846D3*
X32106Y32220D3*
D19*
X8809Y21703D3*
X8140D3*
X8805Y21139D3*
X8136D3*
X10032Y21709D3*
X9363D3*
D23*
X13956Y21857D3*
Y21187D3*
D19*
X13212Y21806D3*
X12542D3*
X13210Y21190D3*
X12540D3*
X5699Y22408D3*
X6368D3*
X11250Y23096D3*
X11919D3*
X5711Y22994D3*
X6380D3*
X13757Y23050D3*
X13087D3*
X5705Y24174D3*
X6374D3*
X5719Y24761D3*
X6388D3*
X23750Y23062D3*
X24419D3*
X23125D3*
X22456D3*
D23*
X27753Y24626D3*
Y25295D3*
Y23250D3*
Y23920D3*
X21161Y26689D3*
Y27358D3*
X22260Y26689D3*
Y27358D3*
X20036Y27364D3*
Y26695D3*
X21190Y32064D3*
Y31395D3*
X21696Y26689D3*
Y27358D3*
X19752Y31376D3*
Y32046D3*
X24338Y26689D3*
Y27358D3*
X23252Y26689D3*
Y27358D3*
X25408Y27368D3*
Y26699D3*
X24315Y32108D3*
Y31439D3*
X23796Y26689D3*
Y27358D3*
X25690Y31439D3*
Y32108D3*
X31059Y29624D3*
Y30293D3*
D19*
X30522Y30872D3*
X31191D3*
X35591Y29406D3*
X36260D3*
D23*
X34062Y24951D3*
Y25620D3*
X32437Y25558D3*
Y26227D3*
X30541Y32594D3*
Y31925D3*
D19*
X18622Y32004D3*
X17953D3*
Y32594D3*
X18622D3*
X34000Y21500D3*
X34669D3*
X34563Y22563D3*
X33893D3*
D23*
X17756Y21315D3*
Y21984D3*
D19*
X34567Y23274D3*
X33898D3*
X34567Y24031D3*
X33898D3*
D23*
X32224Y30833D3*
Y31502D3*
X36250Y30341D3*
Y31010D3*
X7047Y24720D3*
Y24051D3*
D19*
X6398Y20724D3*
X5728D3*
D38*
X5445Y26941D3*
X6795D3*
Y30287D3*
X5445D3*
X10752Y26941D3*
X12102D3*
Y30287D3*
X10752D3*
D39*
X10105Y22531D3*
Y22787D3*
Y23043D3*
Y23299D3*
Y23555D3*
Y23811D3*
Y24067D3*
Y24323D3*
Y24579D3*
Y24835D3*
X7822D3*
Y24579D3*
Y24323D3*
Y24067D3*
Y23811D3*
Y23555D3*
Y23299D3*
Y23043D3*
Y22787D3*
Y22531D3*
D40*
X8964Y23683D3*
D41*
X34750Y26495D3*
Y27401D3*
Y28306D3*
D42*
X32467Y27401D3*
D43*
X25449Y23268D3*
X25705D3*
X25961D3*
X26217D3*
Y25000D3*
X25961D3*
X25705D3*
X25449D3*
D36*
X23565Y23813D3*
Y24561D3*
X22659Y24187D3*
D44*
X21252Y28439D3*
X21752D3*
X22252D3*
X22752D3*
X23252D3*
X23752D3*
X24252D3*
Y30565D3*
X23752D3*
X23252D3*
X22752D3*
X22252D3*
X21752D3*
X21252D3*
X75688Y21438D2*
D13*
X74562D1*
X74500Y21500D1*
X73375D1*
X73313Y21438D1*
X67919Y23062D2*
Y22504D1*
D14*
X64720D1*
X63579D1*
X62421D1*
X61312D1*
X61256D1*
X60512D1*
X59966Y23050D1*
X57257D1*
X68929Y22504D2*
X67919D1*
X61250Y23051D2*
D13*
X62421D1*
X63573D1*
X63579Y23057D1*
X64730D1*
X74559Y29624D2*
X73967D1*
X73857Y29514D1*
X63579Y23057D2*
D14*
Y22504D1*
X62421Y23051D2*
Y22504D1*
X61250Y23051D2*
Y22566D1*
X61312Y22504D1*
X64730Y23057D2*
D13*
X65950D1*
X65956Y23062D1*
X64730Y23057D2*
D14*
X64720D1*
Y22504D1*
X61256Y21984D2*
Y22504D1*
X45135Y31437D2*
X46354D1*
Y31433D1*
D15*
X47748D1*
Y28654D1*
X46209D1*
X46087Y28531D1*
X51181Y32874D2*
X49193D1*
X47752Y31433D1*
X47748Y28654D2*
D13*
Y27894D1*
X47732Y27909D1*
Y25799D2*
Y21047D1*
X50969Y21232D2*
Y21358D1*
X51295Y21685D1*
X51622D1*
X51640Y21703D1*
X61453Y32594D2*
X61319D1*
X61043Y32870D1*
X54925D1*
X73500Y27750D2*
X72625D1*
Y28944D1*
X74022Y30341D1*
Y30445D1*
Y30872D1*
X72625Y27750D2*
X71940D1*
Y26376D1*
Y25313D2*
X71271D1*
X71253Y25295D1*
X73500Y27750D2*
X74250D1*
X74500Y27500D1*
X77398Y24031D2*
Y23274D1*
X77393Y22563D2*
Y23274D1*
X77398D1*
X74500Y27500D2*
X75000Y27000D1*
Y24520D1*
X75055Y24465D1*
X76965D1*
X77398Y24031D1*
X58500Y19500D2*
X58526D1*
X59100Y20075D1*
X61020D1*
X62531Y21996D2*
X63512D1*
Y22053D1*
X64500D1*
X67500D1*
X71817D1*
X64500Y20500D2*
Y22053D1*
X67500Y20500D2*
Y22053D1*
X72866Y30445D2*
X74022D1*
X58285Y31902D2*
D14*
X59485D1*
D13*
X59503Y31884D1*
X53181Y32874D2*
D15*
X54295D1*
Y32012D1*
Y30331D1*
X54252Y30287D1*
X58285Y31902D2*
Y32012D1*
X54295D1*
X61453Y32004D2*
D13*
X59623D1*
X59503Y31884D1*
Y32141D1*
X59858Y32496D1*
X59882Y28862D2*
Y23654D1*
Y22260D2*
X59902D1*
Y21016D1*
X59622Y20736D1*
X51636D1*
Y21139D1*
X49898Y20724D2*
X51636Y20736D1*
X80500Y31500D2*
X81000Y32000D1*
X82000D1*
X82500Y31500D1*
X81500D2*
X82500Y30500D1*
X81500D2*
X82500Y29500D1*
X81500D2*
X82500Y28500D1*
X81500D2*
X82500Y27500D1*
X80500Y26500D2*
X81000Y26000D1*
X83000D1*
Y25000D1*
X83500Y24500D1*
Y23500D2*
X83000Y24000D1*
X81120D1*
X81000Y24120D1*
Y25000D1*
X80500Y25500D1*
X81500D2*
X82500Y24500D1*
X68949Y23268D2*
X68898D1*
X68692Y23062D1*
X68625D1*
X68562Y23000D1*
X65752Y28439D2*
Y28138D1*
X66127Y27762D1*
Y25778D1*
X66530Y25376D1*
X68876D1*
X68949Y25303D1*
Y25000D1*
X69717D2*
Y25350D1*
X69441Y25626D1*
X66677D1*
X66377Y25926D1*
Y27751D1*
X66752Y28126D1*
Y28438D1*
Y28439D1*
X53605Y23299D2*
X54547D1*
X54750Y23096D1*
Y22673D1*
X76687Y24933D2*
X77544D1*
X77562Y24951D1*
X75937Y29604D2*
X76069D1*
Y29327D1*
X77319D1*
X77500Y21500D2*
X76688D1*
X76563Y21625D1*
Y22465D1*
X76465Y22562D1*
X75710D1*
X75688Y22540D1*
X74701Y31846D2*
X74120D1*
X74041Y31925D1*
X75937Y29604D2*
X75114D1*
Y28500D1*
X75252D1*
Y25154D1*
X75473Y24933D1*
X76687D1*
X83500Y31500D2*
X84000Y31000D1*
Y26000D1*
X83500Y25500D1*
X67065Y24561D2*
X67992D1*
Y24559D1*
X68552Y29874D2*
X66817D1*
X66752Y29939D1*
Y30564D1*
Y30565D1*
X64007Y29126D2*
X64752D1*
X65127Y29501D1*
X66502D1*
X66817Y29816D1*
Y29874D1*
X65752Y30565D2*
Y32064D1*
X66000D1*
X66752D1*
Y30565D1*
X67838Y26689D2*
Y26251D1*
X71253D1*
Y28071D1*
X70253D1*
Y29580D1*
X70784D1*
X62049Y29584D2*
X62565D1*
Y28083D1*
X61564D1*
Y26188D1*
X64940D1*
X64661D1*
Y26689D1*
X64007Y29126D2*
Y29001D1*
X63502D1*
X62919Y29584D1*
X62049D1*
X68552Y29874D2*
X69630D1*
X69924Y29580D1*
X70784D1*
X67065Y24561D2*
X66317D1*
X66065Y24813D1*
X64940D2*
Y26188D1*
X74500Y22500D2*
X73352D1*
X73313Y22540D1*
X74500Y22500D2*
X75648D1*
X75688Y22540D1*
X73500Y28498D2*
X74498D1*
X74500Y28500D1*
X75114D1*
X73500Y28498D2*
Y28563D1*
X73188Y28875D1*
X59500Y19500D2*
X60500D1*
X49211Y22994D2*
Y22420D1*
X49199Y22408D1*
Y21849D1*
X49160Y21810D1*
Y21575D1*
X49483Y21252D1*
X50297D1*
X50928Y21883D1*
Y22179D1*
X51322D1*
X52500D1*
Y22846D1*
Y23647D1*
X52464Y23683D1*
X51322Y22531D2*
Y22179D1*
X58285Y30800D2*
D14*
X59485D1*
D13*
X59503Y30782D1*
X45135Y30335D2*
D14*
X46354D1*
Y30331D1*
X58513Y29067D2*
D15*
Y29791D1*
X59503Y30782D1*
X57456Y21857D2*
D13*
Y22561D1*
X55979D1*
X55343D1*
Y21823D1*
X56232Y24116D2*
X56222Y24126D1*
X55455D1*
X52250Y22846D2*
X52750D1*
X52250Y23346D2*
X52750D1*
X52250Y23846D2*
X52750D1*
X52250Y24346D2*
X52750D1*
X52250D2*
Y23846D1*
Y23346D1*
Y22846D1*
X52500D1*
X61250Y24154D2*
X62421D1*
X63573D1*
X63579Y24159D1*
X64730D1*
X69205Y25000D2*
Y24559D1*
Y24303D1*
X69366Y24142D1*
X69894D1*
X70327Y23709D1*
X70457D1*
X67992Y24559D2*
X69205D1*
X66000Y32000D2*
Y32064D1*
X74041Y31925D2*
Y31915D1*
X73579Y31453D1*
X72874D1*
X72866Y31445D1*
X72055D1*
X72000Y31500D1*
X74701Y32594D2*
X74041D1*
X80500Y32500D2*
X80438D1*
X79875Y33063D1*
X74041D1*
Y32594D1*
X75967Y27401D2*
Y26256D1*
X75937Y26227D1*
X75967Y27401D2*
Y28473D1*
X75937Y28502D1*
X78250Y27401D2*
Y27358D1*
X78667D1*
X79000Y27691D1*
Y29406D1*
X79091D1*
X75967Y27401D2*
X78250D1*
X81500Y23500D2*
X82500D1*
X81500D2*
X81000Y23000D1*
Y21187D1*
X80625Y20812D1*
X72772D1*
X72563Y21022D1*
Y22469D1*
X72343Y22689D1*
X69657D1*
X69461Y22886D1*
Y23268D1*
X49048Y23650D2*
X49004D1*
X48657Y23303D1*
Y21295D1*
X49228Y20724D1*
X55361Y21181D2*
X56032D1*
X56040Y21190D1*
X56042Y21806D2*
Y21192D1*
X55366Y25567D2*
D15*
Y26705D1*
X55602Y26941D1*
X58513Y27335D2*
X55996D1*
X55602Y26941D1*
X48945D2*
X46228D1*
X46087Y26799D1*
X49264Y25559D2*
Y26622D1*
X48945Y26941D1*
X51322Y22787D2*
D13*
X50757D1*
X50680Y22711D1*
Y22026D1*
X50491Y21837D1*
X49935D1*
X49908Y21810D1*
X53605Y22787D2*
X54175D1*
Y22118D1*
X54480Y21813D1*
X54664D1*
X54674Y21823D1*
Y21199D1*
X54692Y21181D1*
X51322Y23043D2*
X50528D1*
X50373Y22888D1*
Y22463D1*
X50338Y22427D1*
X49887D1*
X49868Y22408D1*
X53532Y21139D2*
Y21709D1*
X53605Y22531D2*
Y21782D1*
X53532Y21709D1*
X52309Y21703D2*
X52857D1*
X52863Y21709D1*
X52305Y21139D2*
X52863D1*
Y21708D1*
X75937Y25558D2*
X76687D1*
Y25602D1*
X77544D1*
X77562Y25620D1*
X78375D1*
Y26370D1*
X78250Y26495D1*
X78000Y32492D2*
X76246D1*
Y32220D1*
X75824D1*
X75606D1*
X75724Y31502D2*
Y32121D1*
X75824Y32220D1*
X79740Y32250D2*
Y32496D1*
X79720Y32516D1*
X78024D1*
X78000Y32492D1*
X71253Y24626D2*
Y24273D1*
Y23920D1*
Y24273D2*
X70641D1*
X70457Y24457D1*
X69461Y25000D2*
Y24512D1*
X69528Y24445D1*
X70445D1*
X70457Y24457D1*
X79760Y29406D2*
Y29839D1*
X78411D1*
Y30500D1*
X78000D1*
Y31508D1*
X74691Y30872D2*
X74858D1*
Y30793D1*
X75744D1*
Y30596D1*
X78000D1*
Y31508D1*
X79750Y30341D2*
X79760Y29839D1*
X75724Y30833D2*
X75744Y30793D1*
X65252Y28439D2*
Y27376D1*
X65174D1*
Y27358D1*
X65196D1*
X64661D2*
X65174D1*
X64661D2*
X64098D1*
X63542D1*
X63536Y27364D1*
X65760Y27358D2*
X65206D1*
X65174Y27376D1*
X67252Y28439D2*
Y27373D1*
X67267Y27358D1*
X67296D1*
X67838D1*
X68369D1*
X68897D1*
X68908Y27368D1*
X66752Y27358D2*
X67267D1*
X65252Y30565D2*
Y32064D1*
X64690D1*
X63958D1*
X63940Y32046D1*
X63252D1*
X68503Y32126D2*
X67833D1*
X67815Y32108D1*
X67271D1*
X67252Y32126D1*
Y30565D1*
X69190Y32108D2*
X68521D1*
X68503Y32126D1*
X74500Y23500D2*
X72879D1*
X72878Y23501D1*
Y24501D2*
X74499D1*
X74500Y24500D1*
Y25500D2*
X72879D1*
X72878Y25501D1*
Y26501D2*
X74499D1*
X74500Y26500D1*
X79500Y22500D2*
X78125D1*
X78063Y22563D1*
X78169Y21500D2*
X78125D1*
Y22500D1*
X79500Y23500D2*
X78067D1*
Y23274D1*
Y24031D2*
X79500D1*
Y24500D1*
Y25500D2*
Y26500D1*
X62500Y20500D2*
X63500Y19500D1*
X69500D2*
X70500Y20500D1*
X67500Y19500D2*
X68500Y20500D1*
Y19500D2*
X69500Y20500D1*
X56712Y21806D2*
Y21192D1*
X56710Y21190D1*
X57453D1*
X57456Y21187D1*
X79750Y31010D2*
Y31650D1*
X79740Y31659D1*
X50547Y24051D2*
Y23343D1*
X50587Y23303D1*
X51318D1*
X51322Y23299D1*
X66252Y28439D2*
Y29064D1*
X68490D1*
X68552Y29126D1*
X62122Y32594D2*
X62673D1*
X68552Y28252D2*
Y29126D1*
X64007Y29874D2*
X66252D1*
Y30565D1*
X64007Y29874D2*
Y30542D1*
X63996Y30531D1*
X62673Y32004D2*
X62122D1*
X78067Y29327D2*
X78254D1*
Y28185D1*
X78133Y28306D1*
X78250D1*
X74559Y30293D2*
X74833D1*
X74850Y30311D1*
X77132D1*
X77516Y29927D1*
X78028D1*
Y29327D1*
X78067D1*
X49888Y24761D2*
Y24188D1*
X49874Y24174D1*
X49914Y23650D2*
Y24134D1*
X49874Y24174D1*
X49880Y22994D2*
Y23615D1*
X49914Y23650D1*
X50547Y24720D2*
X49928D1*
X49888Y24761D1*
X49205Y24174D2*
Y24747D1*
X49219Y24761D1*
X53605Y23555D2*
X54136D1*
X54707Y24126D1*
D14*
X54746D1*
Y23594D1*
X55238D1*
X55419Y23413D1*
Y23096D1*
X56587D1*
Y23050D1*
X48945Y30287D2*
D15*
Y28610D1*
X54703D1*
X55622D1*
Y30268D1*
X55602Y30287D1*
X54707Y24126D2*
X54703Y24821D1*
X49219Y24761D2*
D13*
X48453D1*
X69717Y23268D2*
Y23071D1*
X71073D1*
X71253Y23250D1*
X66625Y23062D2*
X67250D1*
Y23813D1*
X67065D1*
X67992D1*
Y23811D1*
X67065Y23813D2*
X65563D1*
Y26001D1*
Y26689D1*
X65196D1*
X67065Y25938D2*
X67000Y26003D1*
Y26689D1*
X67296D1*
X65760D2*
X65196D1*
X66752D2*
X67295D1*
X67296D1*
X69717Y23268D2*
Y23795D1*
X68008D1*
X67992Y23811D1*
X69205Y23268D2*
X69189D1*
Y22823D1*
X69574Y22438D1*
X72191D1*
X72316Y22313D1*
Y20885D1*
X72638Y20563D1*
X81688D1*
X82500Y21375D1*
Y21500D1*
X81500Y22500D2*
X82500D1*
X51322Y23811D2*
Y24067D1*
Y24323D1*
Y24579D1*
Y24834D1*
Y24835D1*
X53605Y23811D2*
Y24067D1*
Y24323D1*
Y24579D1*
Y24835D1*
X50012Y25559D2*
D14*
X50764D1*
X51322Y25001D1*
Y24835D1*
X50012Y25559D2*
X53605D1*
X54610D1*
D13*
X54618Y25567D1*
X53605Y24835D2*
D14*
Y25559D1*
X50012D2*
D15*
Y26657D1*
X50295Y26941D1*
X54618Y25567D2*
Y26575D1*
X54252Y26941D1*
X61500Y19500D2*
D14*
Y20677D1*
X61264Y20913D1*
Y21307D1*
X61256Y21315D1*
X64098Y26689D2*
D13*
X63542D1*
X63536Y26695D1*
X62812D1*
Y27600D1*
Y28001D1*
X64752D1*
Y28439D1*
X62049Y27616D2*
X62812Y27600D1*
X63252Y31376D2*
X62690D1*
X63795Y28028D2*
X64752D1*
Y28439D1*
Y30565D2*
Y31332D1*
X64690Y31395D1*
X63958D1*
X63940Y31376D1*
X62049Y28600D2*
X61563D1*
Y30933D1*
X64752D1*
Y30565D1*
X68369Y26689D2*
X68897D1*
X68908Y26699D1*
X69317D1*
Y27410D1*
X69297D1*
Y27811D1*
X67752D1*
Y28439D1*
X69317Y27410D2*
X70582D1*
X70784Y27612D1*
X69190Y31439D2*
X69278D1*
Y27831D2*
X67752D1*
Y28439D1*
Y30565D2*
Y31376D1*
X67815Y31439D1*
X68484D1*
X68503Y31457D1*
X70784Y28596D2*
X71253D1*
Y30953D1*
X67752D1*
Y30565D1*
X79500Y28500D2*
X80500D1*
Y24500D2*
X80000Y24000D1*
Y22000D1*
X79500Y21500D1*
X72866Y32445D2*
Y32472D1*
X73697Y33303D1*
X80697D1*
X81500Y32500D1*
X79500Y27500D2*
X80500D1*
D18*
X68929Y22504D3*
X73857Y29514D3*
X47732Y27909D3*
Y25799D3*
Y21047D3*
X50969Y21232D3*
X54925Y32870D3*
X71940Y26376D3*
Y25313D3*
X61020Y20075D3*
X62531Y21996D3*
X71817Y22053D3*
X59858Y32496D3*
X59882Y28862D3*
Y23654D3*
Y22260D3*
X68562Y23000D3*
X54750Y22673D3*
X66065Y24813D3*
X64940D3*
X73188Y28875D3*
X56232Y24116D3*
X55979Y22561D3*
X62673Y32594D3*
X68552Y28252D3*
X63996Y30531D3*
X62673Y32004D3*
X54703Y24821D3*
Y28610D3*
X48453Y24761D3*
X67000Y26001D3*
X65563D3*
X62690Y31376D3*
X63795Y28028D3*
X69278Y31439D3*
Y27831D3*
X52250Y24346D3*
Y23846D3*
X60500Y31500D3*
Y31000D3*
Y30500D3*
Y30000D3*
Y29500D3*
Y29000D3*
Y28500D3*
Y28000D3*
Y27500D3*
Y27000D3*
Y26500D3*
Y26000D3*
Y25500D3*
Y25000D3*
Y24500D3*
X51795Y26953D3*
X48252Y20209D3*
X48752D3*
X52250Y23346D3*
Y22846D3*
X52750Y24346D3*
Y23846D3*
Y23346D3*
Y22846D3*
X49906Y31783D3*
X50406D3*
X50906D3*
X51406D3*
X76816Y28424D3*
Y27924D3*
Y27424D3*
Y26924D3*
X77379Y28424D3*
Y27924D3*
Y27424D3*
Y26924D3*
X76816Y26424D3*
X77379D3*
X75941Y27674D3*
Y27174D3*
X51906Y31783D3*
X52406D3*
X52906D3*
X53406D3*
X52295Y26953D3*
X52795D3*
X49252Y20209D3*
X49752D3*
X50252D3*
X50752D3*
X51252D3*
X51752D3*
X52252D3*
X52752D3*
X53252D3*
X53752D3*
X54252D3*
X51795Y26453D3*
X55252Y20209D3*
X55752D3*
X56252D3*
X56752D3*
X61000Y26000D3*
Y25500D3*
X52295Y26453D3*
X52795D3*
X44906Y29618D3*
X45406D3*
X45906D3*
X46406D3*
X46906D3*
X58083Y29996D3*
X58583D3*
X59083D3*
X61000Y25000D3*
X56750Y25596D3*
Y25096D3*
Y24596D3*
Y24096D3*
X61500Y26000D3*
Y25500D3*
Y25000D3*
X62000Y26000D3*
Y25500D3*
Y25000D3*
X62500Y26000D3*
Y25500D3*
Y25000D3*
X63000Y26000D3*
Y25500D3*
Y25000D3*
X63500Y26000D3*
Y25500D3*
Y25000D3*
X64000Y26000D3*
Y25500D3*
Y25000D3*
X64500Y26000D3*
Y25500D3*
Y25000D3*
X66000Y32000D3*
Y31500D3*
X66500Y32000D3*
Y31500D3*
X72000Y32500D3*
Y32000D3*
Y31500D3*
Y31000D3*
Y30500D3*
Y30000D3*
Y29500D3*
Y29000D3*
Y28500D3*
X72500Y20000D3*
X73000D3*
X73500D3*
X74000D3*
X74500D3*
X75000D3*
X75500D3*
X76000D3*
X76500D3*
X77000D3*
X77500D3*
X78000D3*
X78500D3*
X79000D3*
X79500D3*
X80000D3*
X80500D3*
X81000D3*
X81500D3*
X82000D3*
X82500D3*
X83000D3*
X83500D3*
X44500Y29500D3*
Y29000D3*
Y28500D3*
Y28000D3*
Y27500D3*
Y27000D3*
Y26500D3*
Y26000D3*
Y25500D3*
Y25000D3*
Y24500D3*
Y24000D3*
Y23500D3*
Y23000D3*
Y22500D3*
Y22000D3*
Y21500D3*
Y21000D3*
Y20500D3*
Y20000D3*
Y19500D3*
X76828Y28467D2*
D16*
X77466D1*
X76828Y28218D2*
X77466D1*
X76828Y27969D2*
X77466D1*
X76750Y27721D2*
X77466D1*
X76750Y27472D2*
X77466D1*
X76750Y27223D2*
X77466D1*
X76750Y26975D2*
X77466D1*
X76750Y26726D2*
X77466D1*
X76750Y26477D2*
X77466D1*
X76496Y26229D2*
X77466D1*
X77492Y28696D2*
X77476Y28700D1*
X77492Y28659D1*
Y28694D1*
X76804Y28696D1*
Y27852D1*
X76725Y27850D1*
Y26426D1*
X76469D1*
Y26153D1*
X77035D1*
X77031Y26172D1*
X77495D1*
X77492Y26723D1*
X77496Y27017D1*
X77492Y27129D1*
Y28659D1*
X75937Y28502D2*
D17*
X76804D1*
X75937Y26227D2*
X76469D1*
X77492Y27401D2*
X78250D1*
X75967D2*
X76724D1*
X44180Y32551D2*
D14*
X48051D1*
X65278D2*
X67182D1*
X69781D2*
X72140D1*
X82227D2*
X83820D1*
X44180Y32253D2*
X47751D1*
X49390D2*
X50454D1*
X52528D2*
X52837D1*
X53524D2*
X53706D1*
X65663D2*
X66813D1*
X69781D2*
X72140D1*
X82379D2*
X83820D1*
X49091Y31954D2*
X53706D1*
X65708D2*
X66797D1*
X69781D2*
X72140D1*
X48796Y31655D2*
X53706D1*
X65708D2*
X66797D1*
X69826D2*
X72173D1*
X51109Y31357D2*
X53436D1*
X56415D2*
X57360D1*
X60426D2*
X61478D1*
X65708D2*
X66797D1*
X71421D2*
X72145D1*
X51109Y31058D2*
X53436D1*
X56415D2*
X57360D1*
X60426D2*
X61125D1*
X71696D2*
X72255D1*
X51109Y30759D2*
X53436D1*
X56415D2*
X57360D1*
X60426D2*
X61105D1*
X71708D2*
X72214D1*
X51109Y30460D2*
X53436D1*
X56415D2*
X57360D1*
X60426D2*
X61105D1*
X62022D2*
X63319D1*
X69239D2*
X70795D1*
X71708D2*
X72140D1*
X51109Y30162D2*
X53436D1*
X56415D2*
X57360D1*
X60426D2*
X61105D1*
X62489D2*
X63319D1*
X69239D2*
X70348D1*
X71708D2*
X72198D1*
X51109Y29863D2*
X53436D1*
X56415D2*
X57647D1*
X59376D2*
X61105D1*
X62723D2*
X63319D1*
X69239D2*
X70110D1*
X71708D2*
X72452D1*
X44180Y29564D2*
X47161D1*
X51109D2*
X53436D1*
X56415D2*
X57647D1*
X59376D2*
X61105D1*
X62776D2*
X63319D1*
X66578D2*
X67867D1*
X69239D2*
X70057D1*
X71708D2*
X72612D1*
X44180Y29266D2*
X45221D1*
X46950D2*
X47161D1*
X51109D2*
X53436D1*
X56415D2*
X57647D1*
X60303D2*
X61105D1*
X62690D2*
X63319D1*
X64695D2*
X65845D1*
X69239D2*
X70139D1*
X71708D2*
X72313D1*
X44180Y28967D2*
X45221D1*
X56210D2*
X57647D1*
X60463D2*
X61105D1*
X62670D2*
X63319D1*
X69239D2*
X70164D1*
X71708D2*
X72169D1*
X44180Y28668D2*
X45221D1*
X56210D2*
X57647D1*
X60439D2*
X61105D1*
X62772D2*
X63319D1*
X69239D2*
X70061D1*
X71708D2*
X72169D1*
X44180Y28370D2*
X45221D1*
X56157D2*
X57647D1*
X60340D2*
X61174D1*
X69465D2*
X70094D1*
X71647D2*
X72169D1*
X44180Y28071D2*
X45221D1*
X46950D2*
X47165D1*
X56415D2*
X57647D1*
X60340D2*
X61322D1*
X69814D2*
X70057D1*
X44180Y27772D2*
X45221D1*
X46950D2*
X47157D1*
X51109D2*
X53436D1*
X60340D2*
X61322D1*
X44180Y27474D2*
X45221D1*
X51109D2*
X53436D1*
X60340D2*
X61322D1*
X44180Y27175D2*
X45221D1*
X51109D2*
X53436D1*
X60340D2*
X61322D1*
X44180Y26876D2*
X45221D1*
X51109D2*
X53436D1*
X60340D2*
X62355D1*
X69773D2*
X71484D1*
X44180Y26578D2*
X45221D1*
X51109D2*
X53436D1*
X56415D2*
X57647D1*
X60340D2*
X62372D1*
X69756D2*
X71386D1*
X82223D2*
X83820D1*
X44180Y26279D2*
X45221D1*
X46950D2*
X47411D1*
X51109D2*
X53436D1*
X56415D2*
X59423D1*
X60340D2*
X62688D1*
X69498D2*
X71357D1*
X83351D2*
X83820D1*
X44180Y25980D2*
X45221D1*
X46950D2*
X47169D1*
X56415D2*
X59423D1*
X60340D2*
X64972D1*
X69707D2*
X71513D1*
X44180Y25681D2*
X47153D1*
X56014D2*
X59423D1*
X60340D2*
X65070D1*
X70019D2*
X70664D1*
X44180Y25383D2*
X47276D1*
X56014D2*
X59423D1*
X60340D2*
X65107D1*
X70187D2*
X70664D1*
X44180Y25084D2*
X47276D1*
X56014D2*
X59423D1*
X60340D2*
X65107D1*
X70187D2*
X70664D1*
X78151D2*
X78911D1*
X44180Y24785D2*
X47276D1*
X55292D2*
X59423D1*
X78151D2*
X78833D1*
X44180Y24487D2*
X47276D1*
X56104D2*
X59423D1*
X44180Y24188D2*
X47276D1*
X48189D2*
X48596D1*
X56104D2*
X59423D1*
X44180Y23889D2*
X47276D1*
X48189D2*
X48539D1*
X56104D2*
X59341D1*
X75108D2*
X76791D1*
X44180Y23591D2*
X47276D1*
X57863D2*
X59292D1*
X75219D2*
X76791D1*
X44180Y23292D2*
X47276D1*
X75194D2*
X76791D1*
X44180Y22993D2*
X47276D1*
X76609D2*
X76786D1*
X44180Y22695D2*
X47276D1*
X76609D2*
X76786D1*
X44180Y22396D2*
X47276D1*
X55267D2*
X56868D1*
X58044D2*
X59308D1*
X76609D2*
X76786D1*
X44180Y22097D2*
X47276D1*
X58044D2*
X59312D1*
X76609D2*
X76786D1*
X44180Y21799D2*
X47276D1*
X58044D2*
X59444D1*
X76609D2*
X76894D1*
X44180Y21500D2*
X47276D1*
X58044D2*
X59444D1*
X61845D2*
X62236D1*
X62825D2*
X64045D1*
X64958D2*
X67043D1*
X67956D2*
X71689D1*
X76609D2*
X76894D1*
X44180Y21201D2*
X47161D1*
X58044D2*
X59444D1*
X61845D2*
X64045D1*
X64958D2*
X67043D1*
X67956D2*
X71857D1*
X44180Y20902D2*
X47161D1*
X44180Y20604D2*
X47358D1*
X48107D2*
X48621D1*
X82363D2*
X83820D1*
X44180Y20305D2*
X48621D1*
X51039D2*
X58697D1*
X82063D2*
X83820D1*
X44180Y20006D2*
X55773D1*
X72020D2*
X83820D1*
X44180Y19708D2*
X55773D1*
X71196D2*
X83820D1*
X44180Y19409D2*
X55773D1*
X71220D2*
X83820D1*
X60383Y24830D2*
X62685D1*
X62711Y24836D1*
X65135D1*
X65136Y25638D1*
X65090Y25696D1*
X65033Y25814D1*
X65004Y25941D1*
X65005Y26072D1*
X65010Y26110D1*
X63539Y26114D1*
X62977Y26116D1*
Y26268D1*
X62812D1*
X62683Y26288D1*
X62566Y26346D1*
X62472Y26437D1*
X62410Y26552D1*
X62386Y26695D1*
Y26904D1*
X61352Y26903D1*
Y28228D1*
X61232Y28330D1*
X61166Y28443D1*
X61136Y28600D1*
Y30933D1*
X61156Y31062D1*
X61214Y31179D1*
X61305Y31273D1*
X61420Y31335D1*
X61563Y31360D1*
X62125D1*
X62044Y31445D1*
X61544Y31449D1*
X61113Y31445D1*
X60874D1*
Y31580D1*
X60399Y31577D1*
X60397Y31207D1*
Y30105D1*
X58610D1*
Y30124D1*
X57392Y30123D1*
Y31454D1*
X56386Y31453D1*
X56388Y29040D1*
X56178D1*
X56181Y28610D1*
X56166Y28480D1*
X56120Y28357D1*
X55998Y28189D1*
X56388D1*
X56390Y27894D1*
X57682D1*
X57678Y28169D1*
X59347D1*
Y26501D1*
X57678D1*
Y26775D1*
X56384Y26776D1*
X56388Y26220D1*
Y25693D1*
X55982D1*
X55984Y24910D1*
X55258D1*
X55262Y24792D1*
X55270Y24783D1*
X55325Y24779D1*
X55414Y24783D1*
X56073D1*
Y23608D1*
X57166Y23605D1*
X57597Y23609D1*
X57835D1*
Y23564D1*
X59328Y23562D1*
X59324Y23725D1*
X59356Y23852D1*
X59416Y23968D1*
X59456Y24015D1*
X59455Y28497D1*
X59410Y28558D1*
X59347Y28695D1*
Y28233D1*
X57678D1*
Y29902D1*
X59347D1*
Y29035D1*
X59416Y29177D1*
X59502Y29276D1*
X59608Y29353D1*
X59729Y29403D1*
X59858Y29424D1*
X59989Y29414D1*
X60114Y29374D1*
X60226Y29307D1*
X60319Y29215D1*
X60389Y29104D1*
X60431Y28980D1*
X60444Y28862D1*
X60429Y28732D1*
X60384Y28609D1*
X60309Y28497D1*
Y24019D1*
X60356Y23948D1*
X60357Y24830D1*
X60383D1*
X55229Y22382D2*
X55253Y22378D1*
X55342Y22382D1*
X55922D1*
Y22364D1*
X56621Y22361D1*
X56900Y22365D1*
X56897Y22435D1*
X58015D1*
Y21163D1*
X59448D1*
X59475Y21278D1*
Y21873D1*
X59410Y21955D1*
X59352Y22073D1*
X59323Y22200D1*
X59324Y22331D1*
X59356Y22458D1*
X59396Y22535D1*
X58260Y22538D1*
X57837D1*
X57835Y22491D1*
X56678Y22495D1*
X56247Y22491D1*
X56009D1*
Y22585D1*
X55998Y22538D1*
X55292D1*
X55252Y22420D1*
X55227Y22383D1*
X55263Y22382D1*
X70156Y25075D2*
X70698D1*
X70694Y25204D1*
Y25873D1*
X71691D1*
X71552Y25970D1*
X71468Y26071D1*
X71411Y26189D1*
X71382Y26316D1*
X71383Y26447D1*
X71415Y26574D1*
X71475Y26691D1*
X71515Y26737D1*
X71514Y27750D1*
X71534Y27879D1*
X71592Y27996D1*
X71683Y28090D1*
X71798Y28152D1*
X71940Y28177D1*
X72199D1*
X72198Y28944D1*
X72218Y29073D1*
X72279Y29193D1*
X72416Y29339D1*
X72825Y29747D1*
X72652Y29782D1*
X72531Y29834D1*
X72423Y29907D1*
X72330Y30000D1*
X72256Y30108D1*
X72204Y30228D1*
X72175Y30356D1*
X72171Y30487D1*
X72191Y30617D1*
X72235Y30740D1*
X72302Y30853D1*
X72380Y30942D1*
X72283Y31063D1*
X72222Y31179D1*
X72184Y31305D1*
X72170Y31435D1*
X72180Y31565D1*
X72215Y31692D1*
X72239Y31748D1*
X72170D1*
Y32851D1*
X63171Y32850D1*
X63223Y32713D1*
X63232Y32628D1*
X63811Y32624D1*
X64131D1*
Y32642D1*
X65249D1*
X65252Y32491D1*
X65381Y32471D1*
X65499Y32413D1*
X65593Y32322D1*
X65655Y32207D1*
X65679Y32064D1*
Y31322D1*
X65732Y31316D1*
X65850Y31320D1*
X66826D1*
Y32126D1*
X66846Y32256D1*
X66904Y32373D1*
X66995Y32467D1*
X67110Y32529D1*
X67242Y32553D1*
X67256Y32579D1*
Y32687D1*
X67941D1*
X67944Y32705D1*
X69061D1*
Y32684D1*
X69749Y32687D1*
Y31743D1*
X69785Y31681D1*
X69827Y31557D1*
X69840Y31439D1*
X69832Y31378D1*
X71253Y31380D1*
X71382Y31360D1*
X71499Y31302D1*
X71593Y31211D1*
X71655Y31096D1*
X71680Y30953D1*
Y28596D1*
X71660Y28467D1*
X71602Y28350D1*
X71519Y28263D1*
X71480Y28161D1*
Y26899D1*
X70087D1*
Y26985D1*
X69741Y26983D1*
X69744Y26699D1*
X69724Y26570D1*
X69666Y26453D1*
X69586Y26368D1*
X69469Y26301D1*
X69467Y26120D1*
X68929D1*
X68928Y26110D1*
X67810Y26114D1*
X67793Y26110D1*
X67555D1*
X67596Y26053D1*
X69441D1*
X69570Y26033D1*
X69690Y25972D1*
X69836Y25835D1*
X70021Y25649D1*
X70063Y25638D1*
X70157D1*
Y25076D1*
X46031Y32110D2*
X47248D1*
Y31991D1*
X47523Y31992D1*
X48380Y32852D1*
X44150Y32850D1*
Y19151D1*
X55807Y19150D1*
X55803Y19722D1*
Y20197D1*
X57197D1*
Y20127D1*
X57368Y20184D1*
X57498Y20197D1*
X57628Y20185D1*
X57754Y20149D1*
X57871Y20089D1*
X58000Y19982D1*
X58125Y20087D1*
X58242Y20147D1*
X58368Y20184D1*
X58498Y20197D1*
X58608Y20187D1*
X58731Y20309D1*
X50982Y20305D1*
X50478Y20301D1*
X50476Y20166D1*
X49319Y20170D1*
X48888Y20166D1*
X48650D1*
X48648Y20701D1*
X48324Y21029D1*
X48294Y21047D1*
X48279Y20917D1*
X48234Y20794D1*
X48162Y20685D1*
X48066Y20595D1*
X47953Y20530D1*
X47827Y20493D1*
X47696Y20486D1*
X47568Y20510D1*
X47448Y20563D1*
X47343Y20642D1*
X47260Y20743D1*
X47202Y20860D1*
X47173Y20988D1*
X47175Y21119D1*
X47207Y21246D1*
X47267Y21362D1*
X47307Y21409D1*
X47305Y25431D1*
X47260Y25495D1*
X47202Y25612D1*
X47173Y25740D1*
X47175Y25871D1*
X47207Y25998D1*
X47267Y26114D1*
X47352Y26213D1*
X47458Y26290D1*
X47579Y26340D1*
X47709Y26361D1*
X47839Y26351D1*
X47964Y26311D1*
X48076Y26244D1*
X48161Y26161D1*
X48157Y26382D1*
X46923D1*
X46921Y25965D1*
X45252D1*
Y27634D1*
X46921D1*
Y27498D1*
X47343Y27504D1*
X47260Y27605D1*
X47202Y27722D1*
X47173Y27850D1*
X47175Y27981D1*
X47204Y28096D1*
X46924Y28095D1*
X46921Y27697D1*
X45252D1*
Y29366D1*
X46921D1*
Y29214D1*
X47189Y29212D1*
Y29650D1*
X47012Y29654D1*
X44241Y29658D1*
Y32114D1*
X46028Y32110D1*
X64664Y29448D2*
X64666Y29194D1*
X65232Y29190D1*
X65666Y29194D1*
X65732Y29190D1*
X65895Y29298D1*
X65998Y29406D1*
X65990Y29447D1*
X64664Y29442D1*
X64660Y29256D1*
X64772Y29194D1*
X65732D1*
X63504Y28508D2*
X63350D1*
Y30492D1*
X63436D1*
X63309Y30506D1*
X61992D1*
X61994Y30294D1*
X62125Y30292D1*
X62254Y30266D1*
X62375Y30216D1*
X62484Y30144D1*
X62578Y30052D1*
X62654Y29945D1*
X62708Y29826D1*
X62738Y29698D1*
X62745Y29574D1*
X62728Y29444D1*
X62686Y29319D1*
X62623Y29205D1*
X62533Y29099D1*
X62611Y29011D1*
X62678Y28899D1*
X62723Y28776D1*
X62745Y28600D1*
X62733Y28469D1*
X62718Y28418D1*
X62812Y28428D1*
X63399D1*
X63505Y28506D1*
X69210Y29744D2*
Y28508D1*
X69050D1*
X69102Y28366D1*
X69254Y28392D1*
X69384Y28382D1*
X69509Y28343D1*
X69621Y28275D1*
X69715Y28184D1*
X69785Y28073D1*
X69827Y27949D1*
X69842Y27837D1*
X70084D1*
X70087Y28293D1*
X70157D1*
X70122Y28380D1*
X70093Y28507D1*
X70088Y28638D1*
X70109Y28768D1*
X70153Y28891D1*
X70219Y29004D1*
X70297Y29093D1*
X70201Y29214D1*
X70140Y29330D1*
X70101Y29456D1*
X70087Y29586D1*
X70098Y29717D1*
X70132Y29843D1*
X70190Y29961D1*
X70269Y30065D1*
X70366Y30153D1*
X70478Y30222D1*
X70600Y30268D1*
X70729Y30291D1*
X70827D1*
X70826Y30528D1*
X68230Y30526D1*
X68236Y30492D1*
X69210D1*
X69209Y29256D1*
X67895Y29488D2*
X67899Y29744D1*
X67895Y29808D1*
X67272Y29813D1*
X67022Y29809D1*
X66674D1*
X66663Y29759D1*
X66609Y29640D1*
X66507Y29532D1*
X66515Y29491D1*
X67895Y29492D1*
Y29755D1*
X67732Y29809D1*
X66772Y29813D1*
X66671Y29809D1*
X66659Y29745D1*
X66601Y29628D1*
X66510Y29534D1*
X76578Y22114D2*
X76581Y21241D1*
X76918Y21239D1*
X76921Y21466D1*
Y22003D1*
X76815Y22004D1*
X76819Y23832D1*
X76817Y24008D1*
X76785Y24040D1*
X75051Y24038D1*
X75008Y24023D1*
X74980Y23999D1*
X75062Y23911D1*
X75129Y23799D1*
X75174Y23676D1*
X75197Y23500D1*
X75184Y23370D1*
X75135Y23218D1*
X76581Y23217D1*
X76580Y21863D1*
X48568Y23813D2*
Y24130D1*
X48630D1*
X48626Y24226D1*
X48548Y24207D1*
X48417Y24200D1*
X48288Y24223D1*
X48158Y24283D1*
X48159Y21415D1*
X48229Y21307D1*
X48231Y23303D1*
X48251Y23432D1*
X48312Y23552D1*
X48448Y23698D1*
X48567Y23817D1*
X82197Y32848D2*
Y32381D1*
X82302Y32302D1*
X82415Y32189D1*
X82498Y32197D1*
X82628Y32185D1*
X82754Y32149D1*
X82871Y32089D1*
X83000Y31982D1*
X83061Y32041D1*
X83170Y32114D1*
X83291Y32165D1*
X83419Y32192D1*
X83550Y32195D1*
X83680Y32173D1*
X83803Y32128D1*
X83850Y32103D1*
Y32849D1*
X82200Y32850D1*
X81983Y27000D2*
X82062Y26911D1*
X82129Y26799D1*
X82174Y26676D1*
X82197Y26500D1*
X82190Y26431D1*
X83000Y26427D1*
X83129Y26407D1*
X83246Y26349D1*
X83333Y26266D1*
X83393Y26188D1*
X83524Y26196D1*
X83654Y26179D1*
X83779Y26138D1*
X83850Y26103D1*
Y26804D1*
X82803Y26803D1*
Y26873D1*
X82674Y26825D1*
X82544Y26805D1*
X82413Y26809D1*
X82285Y26837D1*
X82165Y26889D1*
X82057Y26963D1*
X82002Y27018D1*
X64927Y21047D2*
X65000Y20982D1*
X65125Y21087D1*
X65242Y21147D1*
X65368Y21184D1*
X65498Y21197D1*
X65628Y21185D1*
X65754Y21149D1*
X65871Y21089D1*
X66000Y20982D1*
X66061Y21041D1*
X66170Y21114D1*
X66291Y21165D1*
X66419Y21192D1*
X66550Y21195D1*
X66680Y21173D1*
X66803Y21128D1*
X66915Y21060D1*
X67000Y20985D1*
X67070Y21044D1*
X67073Y21628D1*
X64929Y21626D1*
X64927Y21048D1*
X67927Y21047D2*
X68000Y20982D1*
X68125Y21087D1*
X68242Y21147D1*
X68368Y21184D1*
X68498Y21197D1*
X68628Y21185D1*
X68754Y21149D1*
X68871Y21089D1*
X69000Y20982D1*
X69125Y21087D1*
X69242Y21147D1*
X69368Y21184D1*
X69498Y21197D1*
X69628Y21185D1*
X69754Y21149D1*
X69871Y21089D1*
X70000Y20982D1*
X70125Y21087D1*
X70242Y21147D1*
X70368Y21184D1*
X70498Y21197D1*
X70628Y21185D1*
X70754Y21149D1*
X70871Y21089D1*
X71000Y20982D1*
X71061Y21041D1*
X71170Y21114D1*
X71291Y21165D1*
X71419Y21192D1*
X71550Y21195D1*
X71680Y21173D1*
X71803Y21128D1*
X71889Y21078D1*
Y21496D1*
X71781Y21492D1*
X71652Y21516D1*
X71532Y21568D1*
X71457Y21625D1*
X67925Y21626D1*
X67927Y21048D1*
X72190Y20408D2*
X72157Y20268D1*
X72102Y20149D1*
X72026Y20043D1*
X71931Y19952D1*
X71821Y19881D1*
X71699Y19832D1*
X71571Y19807D1*
X71440Y19806D1*
X71311Y19830D1*
X71188Y19877D1*
X71077Y19946D1*
X70999Y20015D1*
X71129Y19799D1*
X71174Y19676D1*
X71197Y19500D1*
X71184Y19370D1*
X71148Y19244D1*
X71101Y19152D1*
X72871Y19150D1*
X83850D1*
Y20800D1*
X82884Y20803D1*
X82803D1*
Y20873D1*
X82674Y20825D1*
X82532Y20805D1*
X81989Y20261D1*
X81884Y20183D1*
X81756Y20142D1*
X81556Y20136D1*
X72638D1*
X72509Y20156D1*
X72389Y20217D1*
X72244Y20353D1*
X72188Y20408D1*
X51878Y32246D2*
Y32177D1*
X50484D1*
Y32313D1*
X49422Y32315D1*
X48646Y31536D1*
X49730Y31535D1*
X51080D1*
Y29169D1*
X53467Y29171D1*
Y31535D1*
X53733D1*
X53736Y32319D1*
X53591Y32311D1*
X53478Y32244D1*
X53355Y32199D1*
X53225Y32179D1*
X53095Y32183D1*
X52967Y32211D1*
X52846Y32263D1*
X52738Y32337D1*
X52683Y32392D1*
X52591Y32311D1*
X52478Y32244D1*
X52355Y32199D1*
X52225Y32179D1*
X52095Y32183D1*
X51967Y32211D1*
X51878Y32247D1*
X78808Y24456D2*
X78805Y24542D1*
X78825Y24672D1*
X78869Y24795D1*
X78935Y24908D1*
X79014Y24997D1*
X78890Y25163D1*
X78838Y25284D1*
X78809Y25411D1*
X78805Y25542D1*
X78825Y25672D1*
X78854Y25753D1*
X78802Y25714D1*
Y25620D1*
X78782Y25491D1*
X78724Y25374D1*
X78633Y25280D1*
X78518Y25218D1*
X78375Y25193D1*
X78121Y25188D1*
Y24590D1*
X78645D1*
Y24455D1*
X78801Y24458D1*
X61813Y21893D2*
X61816Y21197D1*
X63197D1*
Y21127D1*
X63316Y21172D1*
X63446Y21195D1*
X63577Y21192D1*
X63705Y21166D1*
X63826Y21116D1*
X63935Y21044D1*
X64000Y20985D1*
X64070Y21044D1*
X64073Y21628D1*
X63717Y21622D1*
X63611Y21581D1*
X63512Y21569D1*
X62901D1*
X62752Y21479D1*
X62626Y21442D1*
X62496Y21435D1*
X62367Y21459D1*
X62247Y21511D1*
X62143Y21590D1*
X62059Y21691D1*
X62002Y21809D1*
X61973Y21937D1*
Y21990D1*
X61818Y21992D1*
X61815Y21406D1*
Y21200D1*
X51080Y28053D2*
Y26069D1*
X53424Y26071D1*
X53469D1*
X53467Y27530D1*
Y28051D1*
X51082D1*
X61250Y24830D2*
Y24154D1*
X60357D2*
X61250D1*
X62421Y24830D2*
Y24154D1*
X63579Y24836D2*
Y24159D1*
X64730Y24836D2*
Y24159D1*
X55343Y22381D2*
Y21823D1*
X55455Y24783D2*
Y24126D1*
X56072D1*
X58285Y30800D2*
Y30123D1*
X57392Y30800D2*
X58285D1*
X59503Y30782D2*
Y30105D1*
Y30782D2*
X60396D1*
X46354Y30331D2*
Y29654D1*
X45135Y30335D2*
Y29658D1*
X44242Y30335D2*
X45135D1*
X63350Y29126D2*
X64664D1*
X68552Y30491D2*
Y29874D1*
X67896D2*
X69209D1*
X75688Y23216D2*
Y22540D1*
X76580D1*
X58513Y29901D2*
Y28233D1*
X57679Y29067D2*
X59347D1*
X63500Y21196D2*
Y20500D1*
X66500Y21196D2*
Y20500D1*
X71500Y21196D2*
Y19804D1*
Y20500D2*
X72196D1*
X83500Y26196D2*
Y25500D1*
Y32196D2*
Y31500D1*
X52181Y32874D2*
Y32178D1*
X62049Y30296D2*
Y29600D1*
X62745D1*
X70784Y30292D2*
Y29596D1*
X70088D2*
X70784D1*
X72170Y31445D2*
X72866D1*
X57456Y22435D2*
Y21857D1*
X58014D1*
X64661Y26689D2*
Y26111D1*
X67838Y26689D2*
Y26111D1*
X77562Y24951D2*
X78121D1*
X76922Y21500D2*
X77500D1*
X50295Y31535D2*
Y30287D1*
X51080D1*
X66752Y31320D2*
Y29809D1*
X65752Y31320D2*
Y30565D1*
D19*
X52863Y21139D3*
X53532D3*
D20*
X61250Y23051D3*
Y24154D3*
X62421Y23051D3*
Y24154D3*
X63579Y23057D3*
Y24159D3*
X64730Y23057D3*
Y24159D3*
D19*
X54692Y21181D3*
X55361D3*
D21*
X49908Y21810D3*
X49160D3*
D19*
X54674Y21823D3*
X55343D3*
D21*
X54707Y24126D3*
X55455D3*
D22*
X70457Y24457D3*
Y23709D3*
X67992Y23811D3*
Y24559D3*
D20*
X58285Y30800D3*
Y31902D3*
X59503Y30782D3*
Y31884D3*
D21*
X49264Y25559D3*
X50012D3*
X54618Y25567D3*
X55366D3*
D23*
X64098Y26689D3*
Y27358D3*
X63940Y31376D3*
Y32046D3*
D20*
X46354Y31433D3*
Y30331D3*
X45135Y31437D3*
Y30335D3*
D23*
X68369Y26689D3*
Y27358D3*
X68503Y31457D3*
Y32126D3*
D21*
X78067Y29327D3*
X77319D3*
D20*
X75937Y28502D3*
Y29604D3*
D23*
X76687Y25602D3*
Y24933D3*
D22*
X64007Y29126D3*
Y29874D3*
X68552Y29126D3*
Y29874D3*
D20*
X73313Y21438D3*
Y22540D3*
X75688Y21438D3*
Y22540D3*
D22*
X73500Y27750D3*
Y28498D3*
D25*
X46087Y28531D3*
Y26799D3*
X58513Y29067D3*
Y27335D3*
D27*
X49914Y23650D3*
X49048D3*
D28*
X79740Y32250D3*
Y31659D3*
D29*
X81500Y32500D3*
D30*
X80500D3*
X81500Y31500D3*
X80500D3*
X81500Y30500D3*
X80500D3*
X81500Y29500D3*
X80500D3*
X81500Y28500D3*
X80500D3*
X81500Y27500D3*
X80500D3*
X81500Y26500D3*
X80500D3*
X81500Y25500D3*
X80500D3*
X81500Y24500D3*
X80500D3*
X81500Y23500D3*
X80500D3*
X81500Y22500D3*
X80500D3*
X81500Y21500D3*
X80500D3*
D29*
X62500Y20500D3*
D30*
X63500D3*
X64500D3*
X65500D3*
X66500D3*
X67500D3*
X68500D3*
X69500D3*
X70500D3*
X71500D3*
D29*
X83500Y21500D3*
D30*
X82500D3*
X83500Y22500D3*
X82500D3*
X83500Y23500D3*
X82500D3*
X83500Y24500D3*
X82500D3*
X83500Y25500D3*
X82500D3*
D29*
X83500Y27500D3*
D30*
X82500D3*
X83500Y28500D3*
X82500D3*
X83500Y29500D3*
X82500D3*
X83500Y30500D3*
X82500D3*
X83500Y31500D3*
X82500D3*
D31*
X51181Y32874D3*
D32*
X52181D3*
X53181D3*
D33*
X62049Y27616D3*
D34*
Y28600D3*
Y29584D3*
D33*
X70784Y27612D3*
D34*
Y28596D3*
Y29580D3*
D33*
X78000Y31508D3*
D34*
Y32492D3*
D29*
X72866Y32445D3*
D30*
Y31445D3*
Y30445D3*
D29*
X72878Y23501D3*
D30*
Y24501D3*
Y25501D3*
Y26501D3*
D29*
X79500Y21500D3*
D30*
Y22500D3*
Y23500D3*
Y24500D3*
Y25500D3*
Y26500D3*
Y27500D3*
Y28500D3*
D29*
X74500Y21500D3*
D30*
Y22500D3*
Y23500D3*
Y24500D3*
Y25500D3*
Y26500D3*
Y27500D3*
Y28500D3*
D29*
X56500Y19500D3*
D30*
X57500D3*
X58500D3*
X59500D3*
X60500D3*
X61500D3*
X62500D3*
X63500D3*
X64500D3*
X65500D3*
X66500D3*
X67500D3*
X68500D3*
X69500D3*
X70500D3*
D36*
X74701Y32594D3*
Y31846D3*
X75606Y32220D3*
D19*
X52309Y21703D3*
X51640D3*
X52305Y21139D3*
X51636D3*
X53532Y21709D3*
X52863D3*
D23*
X57456Y21857D3*
Y21187D3*
D19*
X56712Y21806D3*
X56042D3*
X56710Y21190D3*
X56040D3*
X49199Y22408D3*
X49868D3*
X54750Y23096D3*
X55419D3*
X49211Y22994D3*
X49880D3*
X57257Y23050D3*
X56587D3*
X49205Y24174D3*
X49874D3*
X49219Y24761D3*
X49888D3*
X67250Y23062D3*
X67919D3*
X66625D3*
X65956D3*
D23*
X71253Y24626D3*
Y25295D3*
Y23250D3*
Y23920D3*
X64661Y26689D3*
Y27358D3*
X65760Y26689D3*
Y27358D3*
X63536Y27364D3*
Y26695D3*
X64690Y32064D3*
Y31395D3*
X65196Y26689D3*
Y27358D3*
X63252Y31376D3*
Y32046D3*
X67838Y26689D3*
Y27358D3*
X66752Y26689D3*
Y27358D3*
X68908Y27368D3*
Y26699D3*
X67815Y32108D3*
Y31439D3*
X67296Y26689D3*
Y27358D3*
X69190Y31439D3*
Y32108D3*
X74559Y29624D3*
Y30293D3*
D19*
X74022Y30872D3*
X74691D3*
X79091Y29406D3*
X79760D3*
D23*
X77562Y24951D3*
Y25620D3*
X75937Y25558D3*
Y26227D3*
X74041Y32594D3*
Y31925D3*
D19*
X62122Y32004D3*
X61453D3*
Y32594D3*
X62122D3*
X77500Y21500D3*
X78169D3*
X78063Y22563D3*
X77393D3*
D23*
X61256Y21315D3*
Y21984D3*
D19*
X78067Y23274D3*
X77398D3*
X78067Y24031D3*
X77398D3*
D23*
X75724Y30833D3*
Y31502D3*
X79750Y30341D3*
Y31010D3*
X50547Y24720D3*
Y24051D3*
D19*
X49898Y20724D3*
X49228D3*
D38*
X48945Y26941D3*
X50295D3*
Y30287D3*
X48945D3*
X54252Y26941D3*
X55602D3*
Y30287D3*
X54252D3*
D39*
X53605Y22531D3*
Y22787D3*
Y23043D3*
Y23299D3*
Y23555D3*
Y23811D3*
Y24067D3*
Y24323D3*
Y24579D3*
Y24835D3*
X51322D3*
Y24579D3*
Y24323D3*
Y24067D3*
Y23811D3*
Y23555D3*
Y23299D3*
Y23043D3*
Y22787D3*
Y22531D3*
D40*
X52464Y23683D3*
D41*
X78250Y26495D3*
Y27401D3*
Y28306D3*
D42*
X75967Y27401D3*
D43*
X68949Y23268D3*
X69205D3*
X69461D3*
X69717D3*
Y25000D3*
X69461D3*
X69205D3*
X68949D3*
D36*
X67065Y23813D3*
Y24561D3*
X66159Y24187D3*
D44*
X64752Y28439D3*
X65252D3*
X65752D3*
X66252D3*
X66752D3*
X67252D3*
X67752D3*
Y30565D3*
X67252D3*
X66752D3*
X66252D3*
X65752D3*
X65252D3*
X64752D3*
X32188Y39938D2*
D13*
X31062D1*
X31000Y40000D1*
X29875D1*
X29813Y39938D1*
X24419Y41562D2*
Y41004D1*
D14*
X21220D1*
X20079D1*
X18921D1*
X17812D1*
X17756D1*
X17012D1*
X16466Y41550D1*
X13757D1*
X25429Y41004D2*
X24419D1*
X17750Y41551D2*
D13*
X18921D1*
X20073D1*
X20079Y41557D1*
X21230D1*
X31059Y48124D2*
X30467D1*
X30357Y48014D1*
X20079Y41557D2*
D14*
Y41004D1*
X18921Y41551D2*
Y41004D1*
X17750Y41551D2*
Y41066D1*
X17812Y41004D1*
X21230Y41557D2*
D13*
X22450D1*
X22456Y41562D1*
X21230Y41557D2*
D14*
X21220D1*
Y41004D1*
X17756Y40484D2*
Y41004D1*
X1635Y49937D2*
X2854D1*
Y49933D1*
D15*
X4248D1*
Y47154D1*
X2709D1*
X2587Y47031D1*
X7681Y51374D2*
X5693D1*
X4252Y49933D1*
X4248Y47154D2*
D13*
Y46394D1*
X4232Y46409D1*
Y44299D2*
Y39547D1*
X7469Y39732D2*
Y39858D1*
X7795Y40185D1*
X8122D1*
X8140Y40203D1*
X17953Y51094D2*
X17819D1*
X17543Y51370D1*
X11425D1*
X30000Y46250D2*
X29125D1*
Y47444D1*
X30522Y48841D1*
Y48945D1*
Y49372D1*
X29125Y46250D2*
X28440D1*
Y44876D1*
Y43813D2*
X27771D1*
X27753Y43795D1*
X30000Y46250D2*
X30750D1*
X31000Y46000D1*
X33898Y42531D2*
Y41774D1*
X33893Y41063D2*
Y41774D1*
X33898D1*
X31000Y46000D2*
X31500Y45500D1*
Y43020D1*
X31555Y42965D1*
X33465D1*
X33898Y42531D1*
X15000Y38000D2*
X15026D1*
X15600Y38575D1*
X17520D1*
X19031Y40496D2*
X20012D1*
Y40553D1*
X21000D1*
X24000D1*
X28317D1*
X21000Y39000D2*
Y40553D1*
X24000Y39000D2*
Y40553D1*
X29366Y48945D2*
X30522D1*
X14785Y50402D2*
D14*
X15985D1*
D13*
X16003Y50384D1*
X9681Y51374D2*
D15*
X10795D1*
Y50512D1*
Y48831D1*
X10752Y48787D1*
X14785Y50402D2*
Y50512D1*
X10795D1*
X17953Y50504D2*
D13*
X16123D1*
X16003Y50384D1*
Y50641D1*
X16358Y50996D1*
X16382Y47362D2*
Y42154D1*
Y40760D2*
X16402D1*
Y39516D1*
X16122Y39236D1*
X8136D1*
Y39639D1*
X6398Y39224D2*
X8136Y39236D1*
X37000Y50000D2*
X37500Y50500D1*
X38500D1*
X39000Y50000D1*
X38000D2*
X39000Y49000D1*
X38000D2*
X39000Y48000D1*
X38000D2*
X39000Y47000D1*
X38000D2*
X39000Y46000D1*
X37000Y45000D2*
X37500Y44500D1*
X39500D1*
Y43500D1*
X40000Y43000D1*
Y42000D2*
X39500Y42500D1*
X37620D1*
X37500Y42620D1*
Y43500D1*
X37000Y44000D1*
X38000D2*
X39000Y43000D1*
X25449Y41768D2*
X25398D1*
X25192Y41562D1*
X25125D1*
X25062Y41500D1*
X22252Y46939D2*
Y46638D1*
X22627Y46262D1*
Y44278D1*
X23030Y43876D1*
X25376D1*
X25449Y43803D1*
Y43500D1*
X26217D2*
Y43850D1*
X25941Y44126D1*
X23177D1*
X22877Y44426D1*
Y46251D1*
X23252Y46626D1*
Y46938D1*
Y46939D1*
X10105Y41799D2*
X11047D1*
X11250Y41596D1*
Y41173D1*
X33187Y43433D2*
X34044D1*
X34062Y43451D1*
X32437Y48104D2*
X32569D1*
Y47827D1*
X33819D1*
X34000Y40000D2*
X33188D1*
X33063Y40125D1*
Y40965D1*
X32965Y41062D1*
X32210D1*
X32188Y41040D1*
X31201Y50346D2*
X30620D1*
X30541Y50425D1*
X32437Y48104D2*
X31614D1*
Y47000D1*
X31752D1*
Y43654D1*
X31973Y43433D1*
X33187D1*
X40000Y50000D2*
X40500Y49500D1*
Y44500D1*
X40000Y44000D1*
X23565Y43061D2*
X24492D1*
Y43059D1*
X25052Y48374D2*
X23317D1*
X23252Y48439D1*
Y49064D1*
Y49065D1*
X20507Y47626D2*
X21252D1*
X21627Y48001D1*
X23002D1*
X23317Y48316D1*
Y48374D1*
X22252Y49065D2*
Y50564D1*
X22500D1*
X23252D1*
Y49065D1*
X24338Y45189D2*
Y44751D1*
X27753D1*
Y46571D1*
X26753D1*
Y48080D1*
X27284D1*
X18549Y48084D2*
X19065D1*
Y46583D1*
X18064D1*
Y44688D1*
X21440D1*
X21161D1*
Y45189D1*
X20507Y47626D2*
Y47501D1*
X20002D1*
X19419Y48084D1*
X18549D1*
X25052Y48374D2*
X26130D1*
X26424Y48080D1*
X27284D1*
X23565Y43061D2*
X22817D1*
X22565Y43313D1*
X21440D2*
Y44688D1*
X31000Y41000D2*
X29852D1*
X29813Y41040D1*
X31000Y41000D2*
X32148D1*
X32188Y41040D1*
X30000Y46998D2*
X30998D1*
X31000Y47000D1*
X31614D1*
X30000Y46998D2*
Y47063D1*
X29688Y47375D1*
X16000Y38000D2*
X17000D1*
X5711Y41494D2*
Y40920D1*
X5699Y40908D1*
Y40349D1*
X5660Y40310D1*
Y40075D1*
X5983Y39752D1*
X6797D1*
X7428Y40383D1*
Y40679D1*
X7822D1*
X9000D1*
Y41346D1*
Y42147D1*
X8964Y42183D1*
X7822Y41031D2*
Y40679D1*
X14785Y49300D2*
D14*
X15985D1*
D13*
X16003Y49282D1*
X1635Y48835D2*
D14*
X2854D1*
Y48831D1*
X15013Y47567D2*
D15*
Y48291D1*
X16003Y49282D1*
X13956Y40357D2*
D13*
Y41061D1*
X12479D1*
X11843D1*
Y40323D1*
X12732Y42616D2*
X12722Y42626D1*
X11955D1*
X8750Y41346D2*
X9250D1*
X8750Y41846D2*
X9250D1*
X8750Y42346D2*
X9250D1*
X8750Y42846D2*
X9250D1*
X8750D2*
Y42346D1*
Y41846D1*
Y41346D1*
X9000D1*
X17750Y42654D2*
X18921D1*
X20073D1*
X20079Y42659D1*
X21230D1*
X25705Y43500D2*
Y43059D1*
Y42803D1*
X25866Y42642D1*
X26394D1*
X26827Y42209D1*
X26957D1*
X24492Y43059D2*
X25705D1*
X22500Y50500D2*
Y50564D1*
X30541Y50425D2*
Y50415D1*
X30079Y49953D1*
X29374D1*
X29366Y49945D1*
X28555D1*
X28500Y50000D1*
X31201Y51094D2*
X30541D1*
X37000Y51000D2*
X36938D1*
X36375Y51563D1*
X30541D1*
Y51094D1*
X32467Y45901D2*
Y44756D1*
X32437Y44727D1*
X32467Y45901D2*
Y46973D1*
X32437Y47002D1*
X34750Y45901D2*
Y45858D1*
X35167D1*
X35500Y46191D1*
Y47906D1*
X35591D1*
X32467Y45901D2*
X34750D1*
X38000Y42000D2*
X39000D1*
X38000D2*
X37500Y41500D1*
Y39687D1*
X37125Y39312D1*
X29272D1*
X29063Y39522D1*
Y40969D1*
X28843Y41189D1*
X26157D1*
X25961Y41386D1*
Y41768D1*
X5548Y42150D2*
X5504D1*
X5157Y41803D1*
Y39795D1*
X5728Y39224D1*
X11861Y39681D2*
X12532D1*
X12540Y39690D1*
X12542Y40306D2*
Y39692D1*
X11866Y44067D2*
D15*
Y45205D1*
X12102Y45441D1*
X15013Y45835D2*
X12496D1*
X12102Y45441D1*
X5445D2*
X2728D1*
X2587Y45299D1*
X5764Y44059D2*
Y45122D1*
X5445Y45441D1*
X7822Y41287D2*
D13*
X7257D1*
X7180Y41211D1*
Y40526D1*
X6991Y40337D1*
X6435D1*
X6408Y40310D1*
X10105Y41287D2*
X10675D1*
Y40618D1*
X10980Y40313D1*
X11164D1*
X11174Y40323D1*
Y39699D1*
X11192Y39681D1*
X7822Y41543D2*
X7028D1*
X6873Y41388D1*
Y40963D1*
X6838Y40927D1*
X6387D1*
X6368Y40908D1*
X10032Y39639D2*
Y40209D1*
X10105Y41031D2*
Y40282D1*
X10032Y40209D1*
X8809Y40203D2*
X9357D1*
X9363Y40209D1*
X8805Y39639D2*
X9363D1*
Y40208D1*
X32437Y44058D2*
X33187D1*
Y44102D1*
X34044D1*
X34062Y44120D1*
X34875D1*
Y44870D1*
X34750Y44995D1*
X34500Y50992D2*
X32746D1*
Y50720D1*
X32324D1*
X32106D1*
X32224Y50002D2*
Y50621D1*
X32324Y50720D1*
X36240Y50750D2*
Y50996D1*
X36220Y51016D1*
X34524D1*
X34500Y50992D1*
X27753Y43126D2*
Y42773D1*
Y42420D1*
Y42773D2*
X27141D1*
X26957Y42957D1*
X25961Y43500D2*
Y43012D1*
X26028Y42945D1*
X26945D1*
X26957Y42957D1*
X36260Y47906D2*
Y48339D1*
X34911D1*
Y49000D1*
X34500D1*
Y50008D1*
X31191Y49372D2*
X31358D1*
Y49293D1*
X32244D1*
Y49096D1*
X34500D1*
Y50008D1*
X36250Y48841D2*
X36260Y48339D1*
X32224Y49333D2*
X32244Y49293D1*
X21752Y46939D2*
Y45876D1*
X21674D1*
Y45858D1*
X21696D1*
X21161D2*
X21674D1*
X21161D2*
X20598D1*
X20042D1*
X20036Y45864D1*
X22260Y45858D2*
X21706D1*
X21674Y45876D1*
X23752Y46939D2*
Y45873D1*
X23767Y45858D1*
X23796D1*
X24338D1*
X24869D1*
X25397D1*
X25408Y45868D1*
X23252Y45858D2*
X23767D1*
X21752Y49065D2*
Y50564D1*
X21190D1*
X20458D1*
X20440Y50546D1*
X19752D1*
X25003Y50626D2*
X24333D1*
X24315Y50608D1*
X23771D1*
X23752Y50626D1*
Y49065D1*
X25690Y50608D2*
X25021D1*
X25003Y50626D1*
X31000Y42000D2*
X29379D1*
X29378Y42001D1*
Y43001D2*
X30999D1*
X31000Y43000D1*
Y44000D2*
X29379D1*
X29378Y44001D1*
Y45001D2*
X30999D1*
X31000Y45000D1*
X36000Y41000D2*
X34625D1*
X34563Y41063D1*
X34669Y40000D2*
X34625D1*
Y41000D1*
X36000Y42000D2*
X34567D1*
Y41774D1*
Y42531D2*
X36000D1*
Y43000D1*
Y44000D2*
Y45000D1*
X19000Y39000D2*
X20000Y38000D1*
X26000D2*
X27000Y39000D1*
X24000Y38000D2*
X25000Y39000D1*
Y38000D2*
X26000Y39000D1*
X13212Y40306D2*
Y39692D1*
X13210Y39690D1*
X13953D1*
X13956Y39687D1*
X36250Y49510D2*
Y50150D1*
X36240Y50159D1*
X7047Y42551D2*
Y41843D1*
X7087Y41803D1*
X7818D1*
X7822Y41799D1*
X22752Y46939D2*
Y47564D1*
X24990D1*
X25052Y47626D1*
X18622Y51094D2*
X19173D1*
X25052Y46752D2*
Y47626D1*
X20507Y48374D2*
X22752D1*
Y49065D1*
X20507Y48374D2*
Y49042D1*
X20496Y49031D1*
X19173Y50504D2*
X18622D1*
X34567Y47827D2*
X34754D1*
Y46685D1*
X34633Y46806D1*
X34750D1*
X31059Y48793D2*
X31333D1*
X31350Y48811D1*
X33632D1*
X34016Y48427D1*
X34528D1*
Y47827D1*
X34567D1*
X6388Y43261D2*
Y42688D1*
X6374Y42674D1*
X6414Y42150D2*
Y42634D1*
X6374Y42674D1*
X6380Y41494D2*
Y42115D1*
X6414Y42150D1*
X7047Y43220D2*
X6428D1*
X6388Y43261D1*
X5705Y42674D2*
Y43247D1*
X5719Y43261D1*
X10105Y42055D2*
X10636D1*
X11207Y42626D1*
D14*
X11246D1*
Y42094D1*
X11738D1*
X11919Y41913D1*
Y41596D1*
X13087D1*
Y41550D1*
X5445Y48787D2*
D15*
Y47110D1*
X11203D1*
X12122D1*
Y48768D1*
X12102Y48787D1*
X11207Y42626D2*
X11203Y43321D1*
X5719Y43261D2*
D13*
X4953D1*
X26217Y41768D2*
Y41571D1*
X27573D1*
X27753Y41750D1*
X23125Y41562D2*
X23750D1*
Y42313D1*
X23565D1*
X24492D1*
Y42311D1*
X23565Y42313D2*
X22063D1*
Y44501D1*
Y45189D1*
X21696D1*
X23565Y44438D2*
X23500Y44503D1*
Y45189D1*
X23796D1*
X22260D2*
X21696D1*
X23252D2*
X23795D1*
X23796D1*
X26217Y41768D2*
Y42295D1*
X24508D1*
X24492Y42311D1*
X25705Y41768D2*
X25689D1*
Y41323D1*
X26074Y40938D1*
X28691D1*
X28816Y40813D1*
Y39385D1*
X29138Y39063D1*
X38188D1*
X39000Y39875D1*
Y40000D1*
X38000Y41000D2*
X39000D1*
X7822Y42311D2*
Y42567D1*
Y42823D1*
Y43079D1*
Y43334D1*
Y43335D1*
X10105Y42311D2*
Y42567D1*
Y42823D1*
Y43079D1*
Y43335D1*
X6512Y44059D2*
D14*
X7264D1*
X7822Y43501D1*
Y43335D1*
X6512Y44059D2*
X10105D1*
X11110D1*
D13*
X11118Y44067D1*
X10105Y43335D2*
D14*
Y44059D1*
X6512D2*
D15*
Y45157D1*
X6795Y45441D1*
X11118Y44067D2*
Y45075D1*
X10752Y45441D1*
X18000Y38000D2*
D14*
Y39177D1*
X17764Y39413D1*
Y39807D1*
X17756Y39815D1*
X20598Y45189D2*
D13*
X20042D1*
X20036Y45195D1*
X19312D1*
Y46100D1*
Y46501D1*
X21252D1*
Y46939D1*
X18549Y46116D2*
X19312Y46100D1*
X19752Y49876D2*
X19190D1*
X20295Y46528D2*
X21252D1*
Y46939D1*
Y49065D2*
Y49832D1*
X21190Y49895D1*
X20458D1*
X20440Y49876D1*
X18549Y47100D2*
X18063D1*
Y49433D1*
X21252D1*
Y49065D1*
X24869Y45189D2*
X25397D1*
X25408Y45199D1*
X25817D1*
Y45910D1*
X25797D1*
Y46311D1*
X24252D1*
Y46939D1*
X25817Y45910D2*
X27082D1*
X27284Y46112D1*
X25690Y49939D2*
X25778D1*
Y46331D2*
X24252D1*
Y46939D1*
Y49065D2*
Y49876D1*
X24315Y49939D1*
X24984D1*
X25003Y49957D1*
X27284Y47096D2*
X27753D1*
Y49453D1*
X24252D1*
Y49065D1*
X36000Y47000D2*
X37000D1*
Y43000D2*
X36500Y42500D1*
Y40500D1*
X36000Y40000D1*
X29366Y50945D2*
Y50972D1*
X30197Y51803D1*
X37197D1*
X38000Y51000D1*
X36000Y46000D2*
X37000D1*
D18*
X25429Y41004D3*
X30357Y48014D3*
X4232Y46409D3*
Y44299D3*
Y39547D3*
X7469Y39732D3*
X11425Y51370D3*
X28440Y44876D3*
Y43813D3*
X17520Y38575D3*
X19031Y40496D3*
X28317Y40553D3*
X16358Y50996D3*
X16382Y47362D3*
Y42154D3*
Y40760D3*
X25062Y41500D3*
X11250Y41173D3*
X22565Y43313D3*
X21440D3*
X29688Y47375D3*
X12732Y42616D3*
X12479Y41061D3*
X19173Y51094D3*
X25052Y46752D3*
X20496Y49031D3*
X19173Y50504D3*
X11203Y43321D3*
Y47110D3*
X4953Y43261D3*
X23500Y44501D3*
X22063D3*
X19190Y49876D3*
X20295Y46528D3*
X25778Y49939D3*
Y46331D3*
X8750Y42846D3*
Y42346D3*
X17000Y50000D3*
Y49500D3*
Y49000D3*
Y48500D3*
Y48000D3*
Y47500D3*
Y47000D3*
Y46500D3*
Y46000D3*
Y45500D3*
Y45000D3*
Y44500D3*
Y44000D3*
Y43500D3*
Y43000D3*
X8295Y45453D3*
X4752Y38709D3*
X5252D3*
X8750Y41846D3*
Y41346D3*
X9250Y42846D3*
Y42346D3*
Y41846D3*
Y41346D3*
X6406Y50283D3*
X6906D3*
X7406D3*
X7906D3*
X33316Y46924D3*
Y46424D3*
Y45924D3*
Y45424D3*
X33879Y46924D3*
Y46424D3*
Y45924D3*
Y45424D3*
X33316Y44924D3*
X33879D3*
X32441Y46174D3*
Y45674D3*
X8406Y50283D3*
X8906D3*
X9406D3*
X9906D3*
X8795Y45453D3*
X9295D3*
X5752Y38709D3*
X6252D3*
X6752D3*
X7252D3*
X7752D3*
X8252D3*
X8752D3*
X9252D3*
X9752D3*
X10252D3*
X10752D3*
X8295Y44953D3*
X11752Y38709D3*
X12252D3*
X12752D3*
X13252D3*
X17500Y44500D3*
Y44000D3*
X8795Y44953D3*
X9295D3*
X1406Y48118D3*
X1906D3*
X2406D3*
X2906D3*
X3406D3*
X14583Y48496D3*
X15083D3*
X15583D3*
X17500Y43500D3*
X13250Y44096D3*
Y43596D3*
Y43096D3*
Y42596D3*
X18000Y44500D3*
Y44000D3*
Y43500D3*
X18500Y44500D3*
Y44000D3*
Y43500D3*
X19000Y44500D3*
Y44000D3*
Y43500D3*
X19500Y44500D3*
Y44000D3*
Y43500D3*
X20000Y44500D3*
Y44000D3*
Y43500D3*
X20500Y44500D3*
Y44000D3*
Y43500D3*
X21000Y44500D3*
Y44000D3*
Y43500D3*
X22500Y50500D3*
Y50000D3*
X23000Y50500D3*
Y50000D3*
X28500Y51000D3*
Y50500D3*
Y50000D3*
Y49500D3*
Y49000D3*
Y48500D3*
Y48000D3*
Y47500D3*
Y47000D3*
X29000Y38500D3*
X29500D3*
X30000D3*
X30500D3*
X31000D3*
X31500D3*
X32000D3*
X32500D3*
X33000D3*
X33500D3*
X34000D3*
X34500D3*
X35000D3*
X35500D3*
X36000D3*
X36500D3*
X37000D3*
X37500D3*
X38000D3*
X38500D3*
X39000D3*
X39500D3*
X40000D3*
X1000Y48000D3*
Y47500D3*
Y47000D3*
Y46500D3*
Y46000D3*
Y45500D3*
Y45000D3*
Y44500D3*
Y44000D3*
Y43500D3*
Y43000D3*
Y42500D3*
Y42000D3*
Y41500D3*
Y41000D3*
Y40500D3*
Y40000D3*
Y39500D3*
Y39000D3*
Y38500D3*
Y38000D3*
X33328Y46967D2*
D16*
X33966D1*
X33328Y46718D2*
X33966D1*
X33328Y46469D2*
X33966D1*
X33250Y46221D2*
X33966D1*
X33250Y45972D2*
X33966D1*
X33250Y45723D2*
X33966D1*
X33250Y45475D2*
X33966D1*
X33250Y45226D2*
X33966D1*
X33250Y44977D2*
X33966D1*
X32996Y44729D2*
X33966D1*
X33992Y47196D2*
X33976Y47200D1*
X33992Y47159D1*
Y47194D1*
X33304Y47196D1*
Y46352D1*
X33225Y46350D1*
Y44926D1*
X32969D1*
Y44653D1*
X33535D1*
X33531Y44672D1*
X33995D1*
X33992Y45223D1*
X33996Y45517D1*
X33992Y45629D1*
Y47159D1*
X32437Y47002D2*
D17*
X33304D1*
X32437Y44727D2*
X32969D1*
X33992Y45901D2*
X34750D1*
X32467D2*
X33224D1*
X680Y51051D2*
D14*
X4551D1*
X21778D2*
X23682D1*
X26281D2*
X28640D1*
X38727D2*
X40320D1*
X680Y50753D2*
X4251D1*
X5890D2*
X6954D1*
X9028D2*
X9337D1*
X10024D2*
X10206D1*
X22163D2*
X23313D1*
X26281D2*
X28640D1*
X38879D2*
X40320D1*
X5591Y50454D2*
X10206D1*
X22208D2*
X23297D1*
X26281D2*
X28640D1*
X5296Y50155D2*
X10206D1*
X22208D2*
X23297D1*
X26326D2*
X28673D1*
X7609Y49857D2*
X9936D1*
X12915D2*
X13860D1*
X16926D2*
X17978D1*
X22208D2*
X23297D1*
X27921D2*
X28645D1*
X7609Y49558D2*
X9936D1*
X12915D2*
X13860D1*
X16926D2*
X17625D1*
X28196D2*
X28755D1*
X7609Y49259D2*
X9936D1*
X12915D2*
X13860D1*
X16926D2*
X17605D1*
X28208D2*
X28714D1*
X7609Y48960D2*
X9936D1*
X12915D2*
X13860D1*
X16926D2*
X17605D1*
X18522D2*
X19819D1*
X25739D2*
X27295D1*
X28208D2*
X28640D1*
X7609Y48662D2*
X9936D1*
X12915D2*
X13860D1*
X16926D2*
X17605D1*
X18989D2*
X19819D1*
X25739D2*
X26848D1*
X28208D2*
X28698D1*
X7609Y48363D2*
X9936D1*
X12915D2*
X14147D1*
X15876D2*
X17605D1*
X19223D2*
X19819D1*
X25739D2*
X26610D1*
X28208D2*
X28952D1*
X680Y48064D2*
X3661D1*
X7609D2*
X9936D1*
X12915D2*
X14147D1*
X15876D2*
X17605D1*
X19276D2*
X19819D1*
X23078D2*
X24367D1*
X25739D2*
X26557D1*
X28208D2*
X29112D1*
X680Y47766D2*
X1721D1*
X3450D2*
X3661D1*
X7609D2*
X9936D1*
X12915D2*
X14147D1*
X16803D2*
X17605D1*
X19190D2*
X19819D1*
X21195D2*
X22345D1*
X25739D2*
X26639D1*
X28208D2*
X28813D1*
X680Y47467D2*
X1721D1*
X12710D2*
X14147D1*
X16963D2*
X17605D1*
X19170D2*
X19819D1*
X25739D2*
X26664D1*
X28208D2*
X28669D1*
X680Y47168D2*
X1721D1*
X12710D2*
X14147D1*
X16939D2*
X17605D1*
X19272D2*
X19819D1*
X25739D2*
X26561D1*
X28208D2*
X28669D1*
X680Y46870D2*
X1721D1*
X12657D2*
X14147D1*
X16840D2*
X17674D1*
X25965D2*
X26594D1*
X28147D2*
X28669D1*
X680Y46571D2*
X1721D1*
X3450D2*
X3665D1*
X12915D2*
X14147D1*
X16840D2*
X17822D1*
X26314D2*
X26557D1*
X680Y46272D2*
X1721D1*
X3450D2*
X3657D1*
X7609D2*
X9936D1*
X16840D2*
X17822D1*
X680Y45974D2*
X1721D1*
X7609D2*
X9936D1*
X16840D2*
X17822D1*
X680Y45675D2*
X1721D1*
X7609D2*
X9936D1*
X16840D2*
X17822D1*
X680Y45376D2*
X1721D1*
X7609D2*
X9936D1*
X16840D2*
X18855D1*
X26273D2*
X27984D1*
X680Y45078D2*
X1721D1*
X7609D2*
X9936D1*
X12915D2*
X14147D1*
X16840D2*
X18872D1*
X26256D2*
X27886D1*
X38723D2*
X40320D1*
X680Y44779D2*
X1721D1*
X3450D2*
X3911D1*
X7609D2*
X9936D1*
X12915D2*
X15923D1*
X16840D2*
X19188D1*
X25998D2*
X27857D1*
X39851D2*
X40320D1*
X680Y44480D2*
X1721D1*
X3450D2*
X3669D1*
X12915D2*
X15923D1*
X16840D2*
X21472D1*
X26207D2*
X28013D1*
X680Y44181D2*
X3653D1*
X12514D2*
X15923D1*
X16840D2*
X21570D1*
X26519D2*
X27164D1*
X680Y43883D2*
X3776D1*
X12514D2*
X15923D1*
X16840D2*
X21607D1*
X26687D2*
X27164D1*
X680Y43584D2*
X3776D1*
X12514D2*
X15923D1*
X16840D2*
X21607D1*
X26687D2*
X27164D1*
X34651D2*
X35411D1*
X680Y43285D2*
X3776D1*
X11792D2*
X15923D1*
X34651D2*
X35333D1*
X680Y42987D2*
X3776D1*
X12604D2*
X15923D1*
X680Y42688D2*
X3776D1*
X4689D2*
X5096D1*
X12604D2*
X15923D1*
X680Y42389D2*
X3776D1*
X4689D2*
X5039D1*
X12604D2*
X15841D1*
X31608D2*
X33291D1*
X680Y42091D2*
X3776D1*
X14363D2*
X15792D1*
X31719D2*
X33291D1*
X680Y41792D2*
X3776D1*
X31694D2*
X33291D1*
X680Y41493D2*
X3776D1*
X33109D2*
X33286D1*
X680Y41195D2*
X3776D1*
X33109D2*
X33286D1*
X680Y40896D2*
X3776D1*
X11767D2*
X13368D1*
X14544D2*
X15808D1*
X33109D2*
X33286D1*
X680Y40597D2*
X3776D1*
X14544D2*
X15812D1*
X33109D2*
X33286D1*
X680Y40299D2*
X3776D1*
X14544D2*
X15944D1*
X33109D2*
X33394D1*
X680Y40000D2*
X3776D1*
X14544D2*
X15944D1*
X18345D2*
X18736D1*
X19325D2*
X20545D1*
X21458D2*
X23543D1*
X24456D2*
X28189D1*
X33109D2*
X33394D1*
X680Y39701D2*
X3661D1*
X14544D2*
X15944D1*
X18345D2*
X20545D1*
X21458D2*
X23543D1*
X24456D2*
X28357D1*
X680Y39402D2*
X3661D1*
X680Y39104D2*
X3858D1*
X4607D2*
X5121D1*
X38863D2*
X40320D1*
X680Y38805D2*
X5121D1*
X7539D2*
X15197D1*
X38563D2*
X40320D1*
X680Y38506D2*
X12273D1*
X28520D2*
X40320D1*
X680Y38208D2*
X12273D1*
X27696D2*
X40320D1*
X680Y37909D2*
X12273D1*
X27720D2*
X40320D1*
X16883Y43330D2*
X19185D1*
X19211Y43336D1*
X21635D1*
X21636Y44138D1*
X21590Y44196D1*
X21533Y44314D1*
X21504Y44441D1*
X21505Y44572D1*
X21510Y44610D1*
X20039Y44614D1*
X19477Y44616D1*
Y44768D1*
X19312D1*
X19183Y44788D1*
X19066Y44846D1*
X18972Y44937D1*
X18910Y45052D1*
X18886Y45195D1*
Y45404D1*
X17852Y45403D1*
Y46728D1*
X17732Y46830D1*
X17666Y46943D1*
X17636Y47100D1*
Y49433D1*
X17656Y49562D1*
X17714Y49679D1*
X17805Y49773D1*
X17920Y49835D1*
X18063Y49860D1*
X18625D1*
X18544Y49945D1*
X18044Y49949D1*
X17613Y49945D1*
X17374D1*
Y50080D1*
X16899Y50077D1*
X16897Y49707D1*
Y48605D1*
X15110D1*
Y48624D1*
X13892Y48623D1*
Y49954D1*
X12886Y49953D1*
X12888Y47540D1*
X12678D1*
X12681Y47110D1*
X12666Y46980D1*
X12620Y46857D1*
X12498Y46689D1*
X12888D1*
X12890Y46394D1*
X14182D1*
X14178Y46669D1*
X15847D1*
Y45001D1*
X14178D1*
Y45275D1*
X12884Y45276D1*
X12888Y44720D1*
Y44193D1*
X12482D1*
X12484Y43410D1*
X11758D1*
X11762Y43292D1*
X11770Y43283D1*
X11825Y43279D1*
X11914Y43283D1*
X12573D1*
Y42108D1*
X13666Y42105D1*
X14097Y42109D1*
X14335D1*
Y42064D1*
X15828Y42062D1*
X15824Y42225D1*
X15856Y42352D1*
X15916Y42468D1*
X15956Y42515D1*
X15955Y46997D1*
X15910Y47058D1*
X15847Y47195D1*
Y46733D1*
X14178D1*
Y48402D1*
X15847D1*
Y47535D1*
X15916Y47677D1*
X16002Y47776D1*
X16108Y47853D1*
X16229Y47903D1*
X16358Y47924D1*
X16489Y47914D1*
X16614Y47874D1*
X16726Y47807D1*
X16819Y47715D1*
X16889Y47604D1*
X16931Y47480D1*
X16944Y47362D1*
X16929Y47232D1*
X16884Y47109D1*
X16809Y46997D1*
Y42519D1*
X16856Y42448D1*
X16857Y43330D1*
X16883D1*
X11729Y40882D2*
X11753Y40878D1*
X11842Y40882D1*
X12422D1*
Y40864D1*
X13121Y40861D1*
X13400Y40865D1*
X13397Y40935D1*
X14515D1*
Y39663D1*
X15948D1*
X15975Y39778D1*
Y40373D1*
X15910Y40455D1*
X15852Y40573D1*
X15823Y40700D1*
X15824Y40831D1*
X15856Y40958D1*
X15896Y41035D1*
X14760Y41038D1*
X14337D1*
X14335Y40991D1*
X13178Y40995D1*
X12747Y40991D1*
X12509D1*
Y41085D1*
X12498Y41038D1*
X11792D1*
X11752Y40920D1*
X11727Y40883D1*
X11763Y40882D1*
X26656Y43575D2*
X27198D1*
X27194Y43704D1*
Y44373D1*
X28191D1*
X28052Y44470D1*
X27968Y44571D1*
X27911Y44689D1*
X27882Y44816D1*
X27883Y44947D1*
X27915Y45074D1*
X27975Y45191D1*
X28015Y45237D1*
X28014Y46250D1*
X28034Y46379D1*
X28092Y46496D1*
X28183Y46590D1*
X28298Y46652D1*
X28440Y46677D1*
X28699D1*
X28698Y47444D1*
X28718Y47573D1*
X28779Y47693D1*
X28916Y47839D1*
X29325Y48247D1*
X29152Y48282D1*
X29031Y48334D1*
X28923Y48407D1*
X28830Y48500D1*
X28756Y48608D1*
X28704Y48728D1*
X28675Y48856D1*
X28671Y48987D1*
X28691Y49117D1*
X28735Y49240D1*
X28802Y49353D1*
X28880Y49442D1*
X28783Y49563D1*
X28722Y49679D1*
X28684Y49805D1*
X28670Y49935D1*
X28680Y50065D1*
X28715Y50192D1*
X28739Y50248D1*
X28670D1*
Y51351D1*
X19671Y51350D1*
X19723Y51213D1*
X19732Y51128D1*
X20311Y51124D1*
X20631D1*
Y51142D1*
X21749D1*
X21752Y50991D1*
X21881Y50971D1*
X21999Y50913D1*
X22093Y50822D1*
X22155Y50707D1*
X22179Y50564D1*
Y49822D1*
X22232Y49816D1*
X22350Y49820D1*
X23326D1*
Y50626D1*
X23346Y50756D1*
X23404Y50873D1*
X23495Y50967D1*
X23610Y51029D1*
X23742Y51053D1*
X23756Y51079D1*
Y51187D1*
X24441D1*
X24444Y51205D1*
X25561D1*
Y51184D1*
X26249Y51187D1*
Y50243D1*
X26285Y50181D1*
X26327Y50057D1*
X26340Y49939D1*
X26332Y49878D1*
X27753Y49880D1*
X27882Y49860D1*
X27999Y49802D1*
X28093Y49711D1*
X28155Y49596D1*
X28180Y49453D1*
Y47096D1*
X28160Y46967D1*
X28102Y46850D1*
X28019Y46763D1*
X27980Y46661D1*
Y45399D1*
X26587D1*
Y45485D1*
X26241Y45483D1*
X26244Y45199D1*
X26224Y45070D1*
X26166Y44953D1*
X26086Y44868D1*
X25969Y44801D1*
X25967Y44620D1*
X25429D1*
X25428Y44610D1*
X24310Y44614D1*
X24293Y44610D1*
X24055D1*
X24096Y44553D1*
X25941D1*
X26070Y44533D1*
X26190Y44472D1*
X26336Y44335D1*
X26521Y44149D1*
X26563Y44138D1*
X26657D1*
Y43576D1*
X2531Y50610D2*
X3748D1*
Y50491D1*
X4023Y50492D1*
X4880Y51352D1*
X650Y51350D1*
Y37651D1*
X12307Y37650D1*
X12303Y38222D1*
Y38697D1*
X13697D1*
Y38627D1*
X13868Y38684D1*
X13998Y38697D1*
X14128Y38685D1*
X14254Y38649D1*
X14371Y38589D1*
X14500Y38482D1*
X14625Y38587D1*
X14742Y38647D1*
X14868Y38684D1*
X14998Y38697D1*
X15108Y38687D1*
X15231Y38809D1*
X7482Y38805D1*
X6978Y38801D1*
X6976Y38666D1*
X5819Y38670D1*
X5388Y38666D1*
X5150D1*
X5148Y39201D1*
X4824Y39529D1*
X4794Y39547D1*
X4779Y39417D1*
X4734Y39294D1*
X4662Y39185D1*
X4566Y39095D1*
X4453Y39030D1*
X4327Y38993D1*
X4196Y38986D1*
X4068Y39010D1*
X3948Y39063D1*
X3843Y39142D1*
X3760Y39243D1*
X3702Y39360D1*
X3673Y39488D1*
X3675Y39619D1*
X3707Y39746D1*
X3767Y39862D1*
X3807Y39909D1*
X3805Y43931D1*
X3760Y43995D1*
X3702Y44112D1*
X3673Y44240D1*
X3675Y44371D1*
X3707Y44498D1*
X3767Y44614D1*
X3852Y44713D1*
X3958Y44790D1*
X4079Y44840D1*
X4209Y44861D1*
X4339Y44851D1*
X4464Y44811D1*
X4576Y44744D1*
X4661Y44661D1*
X4657Y44882D1*
X3423D1*
X3421Y44465D1*
X1752D1*
Y46134D1*
X3421D1*
Y45998D1*
X3843Y46004D1*
X3760Y46105D1*
X3702Y46222D1*
X3673Y46350D1*
X3675Y46481D1*
X3704Y46596D1*
X3424Y46595D1*
X3421Y46197D1*
X1752D1*
Y47866D1*
X3421D1*
Y47714D1*
X3689Y47712D1*
Y48150D1*
X3512Y48154D1*
X741Y48158D1*
Y50614D1*
X2528Y50610D1*
X21164Y47948D2*
X21166Y47694D1*
X21732Y47690D1*
X22166Y47694D1*
X22232Y47690D1*
X22395Y47798D1*
X22498Y47906D1*
X22490Y47947D1*
X21164Y47942D1*
X21160Y47756D1*
X21272Y47694D1*
X22232D1*
X20004Y47008D2*
X19850D1*
Y48992D1*
X19936D1*
X19809Y49006D1*
X18492D1*
X18494Y48794D1*
X18625Y48792D1*
X18754Y48766D1*
X18875Y48716D1*
X18984Y48644D1*
X19078Y48552D1*
X19154Y48445D1*
X19208Y48326D1*
X19238Y48198D1*
X19245Y48074D1*
X19228Y47944D1*
X19186Y47819D1*
X19123Y47705D1*
X19033Y47599D1*
X19111Y47511D1*
X19178Y47399D1*
X19223Y47276D1*
X19245Y47100D1*
X19233Y46969D1*
X19218Y46918D1*
X19312Y46928D1*
X19899D1*
X20005Y47006D1*
X25710Y48244D2*
Y47008D1*
X25550D1*
X25602Y46866D1*
X25754Y46892D1*
X25884Y46882D1*
X26009Y46843D1*
X26121Y46775D1*
X26215Y46684D1*
X26285Y46573D1*
X26327Y46449D1*
X26342Y46337D1*
X26584D1*
X26587Y46793D1*
X26657D1*
X26622Y46880D1*
X26593Y47007D1*
X26588Y47138D1*
X26609Y47268D1*
X26653Y47391D1*
X26719Y47504D1*
X26797Y47593D1*
X26701Y47714D1*
X26640Y47830D1*
X26601Y47956D1*
X26587Y48086D1*
X26598Y48217D1*
X26632Y48343D1*
X26690Y48461D1*
X26769Y48565D1*
X26866Y48653D1*
X26978Y48722D1*
X27100Y48768D1*
X27229Y48791D1*
X27327D1*
X27326Y49028D1*
X24730Y49026D1*
X24736Y48992D1*
X25710D1*
X25709Y47756D1*
X24395Y47988D2*
X24399Y48244D1*
X24395Y48308D1*
X23772Y48313D1*
X23522Y48309D1*
X23174D1*
X23163Y48259D1*
X23109Y48140D1*
X23007Y48032D1*
X23015Y47991D1*
X24395Y47992D1*
Y48255D1*
X24232Y48309D1*
X23272Y48313D1*
X23171Y48309D1*
X23159Y48245D1*
X23101Y48128D1*
X23010Y48034D1*
X33078Y40614D2*
X33081Y39741D1*
X33418Y39739D1*
X33421Y39966D1*
Y40503D1*
X33315Y40504D1*
X33319Y42332D1*
X33317Y42508D1*
X33285Y42540D1*
X31551Y42538D1*
X31508Y42523D1*
X31480Y42499D1*
X31562Y42411D1*
X31629Y42299D1*
X31674Y42176D1*
X31697Y42000D1*
X31684Y41870D1*
X31635Y41718D1*
X33081Y41717D1*
X33080Y40363D1*
X5068Y42313D2*
Y42630D1*
X5130D1*
X5126Y42726D1*
X5048Y42707D1*
X4917Y42700D1*
X4788Y42723D1*
X4658Y42783D1*
X4659Y39915D1*
X4729Y39807D1*
X4731Y41803D1*
X4751Y41932D1*
X4812Y42052D1*
X4948Y42198D1*
X5067Y42317D1*
X38697Y51348D2*
Y50881D1*
X38802Y50802D1*
X38915Y50689D1*
X38998Y50697D1*
X39128Y50685D1*
X39254Y50649D1*
X39371Y50589D1*
X39500Y50482D1*
X39561Y50541D1*
X39670Y50614D1*
X39791Y50665D1*
X39919Y50692D1*
X40050Y50695D1*
X40180Y50673D1*
X40303Y50628D1*
X40350Y50603D1*
Y51349D1*
X38700Y51350D1*
X38483Y45500D2*
X38562Y45411D1*
X38629Y45299D1*
X38674Y45176D1*
X38697Y45000D1*
X38690Y44931D1*
X39500Y44927D1*
X39629Y44907D1*
X39746Y44849D1*
X39833Y44766D1*
X39893Y44688D1*
X40024Y44696D1*
X40154Y44679D1*
X40279Y44638D1*
X40350Y44603D1*
Y45304D1*
X39303Y45303D1*
Y45373D1*
X39174Y45325D1*
X39044Y45305D1*
X38913Y45309D1*
X38785Y45337D1*
X38665Y45389D1*
X38557Y45463D1*
X38502Y45518D1*
X21427Y39547D2*
X21500Y39482D1*
X21625Y39587D1*
X21742Y39647D1*
X21868Y39684D1*
X21998Y39697D1*
X22128Y39685D1*
X22254Y39649D1*
X22371Y39589D1*
X22500Y39482D1*
X22561Y39541D1*
X22670Y39614D1*
X22791Y39665D1*
X22919Y39692D1*
X23050Y39695D1*
X23180Y39673D1*
X23303Y39628D1*
X23415Y39560D1*
X23500Y39485D1*
X23570Y39544D1*
X23573Y40128D1*
X21429Y40126D1*
X21427Y39548D1*
X24427Y39547D2*
X24500Y39482D1*
X24625Y39587D1*
X24742Y39647D1*
X24868Y39684D1*
X24998Y39697D1*
X25128Y39685D1*
X25254Y39649D1*
X25371Y39589D1*
X25500Y39482D1*
X25625Y39587D1*
X25742Y39647D1*
X25868Y39684D1*
X25998Y39697D1*
X26128Y39685D1*
X26254Y39649D1*
X26371Y39589D1*
X26500Y39482D1*
X26625Y39587D1*
X26742Y39647D1*
X26868Y39684D1*
X26998Y39697D1*
X27128Y39685D1*
X27254Y39649D1*
X27371Y39589D1*
X27500Y39482D1*
X27561Y39541D1*
X27670Y39614D1*
X27791Y39665D1*
X27919Y39692D1*
X28050Y39695D1*
X28180Y39673D1*
X28303Y39628D1*
X28389Y39578D1*
Y39996D1*
X28281Y39992D1*
X28152Y40016D1*
X28032Y40068D1*
X27957Y40125D1*
X24425Y40126D1*
X24427Y39548D1*
X28690Y38908D2*
X28657Y38768D1*
X28602Y38649D1*
X28526Y38543D1*
X28431Y38452D1*
X28321Y38381D1*
X28199Y38332D1*
X28071Y38307D1*
X27940Y38306D1*
X27811Y38330D1*
X27688Y38377D1*
X27577Y38446D1*
X27499Y38515D1*
X27629Y38299D1*
X27674Y38176D1*
X27697Y38000D1*
X27684Y37870D1*
X27648Y37744D1*
X27601Y37652D1*
X29371Y37650D1*
X40350D1*
Y39300D1*
X39384Y39303D1*
X39303D1*
Y39373D1*
X39174Y39325D1*
X39032Y39305D1*
X38489Y38761D1*
X38384Y38683D1*
X38256Y38642D1*
X38056Y38636D1*
X29138D1*
X29009Y38656D1*
X28889Y38717D1*
X28744Y38853D1*
X28688Y38908D1*
X8378Y50746D2*
Y50677D1*
X6984D1*
Y50813D1*
X5922Y50815D1*
X5146Y50036D1*
X6230Y50035D1*
X7580D1*
Y47669D1*
X9967Y47671D1*
Y50035D1*
X10233D1*
X10236Y50819D1*
X10091Y50811D1*
X9978Y50744D1*
X9855Y50699D1*
X9725Y50679D1*
X9595Y50683D1*
X9467Y50711D1*
X9346Y50763D1*
X9238Y50837D1*
X9183Y50892D1*
X9091Y50811D1*
X8978Y50744D1*
X8855Y50699D1*
X8725Y50679D1*
X8595Y50683D1*
X8467Y50711D1*
X8378Y50747D1*
X35308Y42956D2*
X35305Y43042D1*
X35325Y43172D1*
X35369Y43295D1*
X35435Y43408D1*
X35514Y43497D1*
X35390Y43663D1*
X35338Y43784D1*
X35309Y43911D1*
X35305Y44042D1*
X35325Y44172D1*
X35354Y44253D1*
X35302Y44214D1*
Y44120D1*
X35282Y43991D1*
X35224Y43874D1*
X35133Y43780D1*
X35018Y43718D1*
X34875Y43693D1*
X34621Y43688D1*
Y43090D1*
X35145D1*
Y42955D1*
X35301Y42958D1*
X18313Y40393D2*
X18316Y39697D1*
X19697D1*
Y39627D1*
X19816Y39672D1*
X19946Y39695D1*
X20077Y39692D1*
X20205Y39666D1*
X20326Y39616D1*
X20435Y39544D1*
X20500Y39485D1*
X20570Y39544D1*
X20573Y40128D1*
X20217Y40122D1*
X20111Y40081D1*
X20012Y40069D1*
X19401D1*
X19252Y39979D1*
X19126Y39942D1*
X18996Y39935D1*
X18867Y39959D1*
X18747Y40011D1*
X18643Y40090D1*
X18559Y40191D1*
X18502Y40309D1*
X18473Y40437D1*
Y40490D1*
X18318Y40492D1*
X18315Y39906D1*
Y39700D1*
X7580Y46553D2*
Y44569D1*
X9924Y44571D1*
X9969D1*
X9967Y46030D1*
Y46551D1*
X7582D1*
X17750Y43330D2*
Y42654D1*
X16857D2*
X17750D1*
X18921Y43330D2*
Y42654D1*
X20079Y43336D2*
Y42659D1*
X21230Y43336D2*
Y42659D1*
X11843Y40881D2*
Y40323D1*
X11955Y43283D2*
Y42626D1*
X12572D1*
X14785Y49300D2*
Y48623D1*
X13892Y49300D2*
X14785D1*
X16003Y49282D2*
Y48605D1*
Y49282D2*
X16896D1*
X2854Y48831D2*
Y48154D1*
X1635Y48835D2*
Y48158D1*
X742Y48835D2*
X1635D1*
X19850Y47626D2*
X21164D1*
X25052Y48991D2*
Y48374D1*
X24396D2*
X25709D1*
X32188Y41716D2*
Y41040D1*
X33080D1*
X15013Y48401D2*
Y46733D1*
X14179Y47567D2*
X15847D1*
X20000Y39696D2*
Y39000D1*
X23000Y39696D2*
Y39000D1*
X28000Y39696D2*
Y38304D1*
Y39000D2*
X28696D1*
X40000Y44696D2*
Y44000D1*
Y50696D2*
Y50000D1*
X8681Y51374D2*
Y50678D1*
X18549Y48796D2*
Y48100D1*
X19245D1*
X27284Y48792D2*
Y48096D1*
X26588D2*
X27284D1*
X28670Y49945D2*
X29366D1*
X13956Y40935D2*
Y40357D1*
X14514D1*
X21161Y45189D2*
Y44611D1*
X24338Y45189D2*
Y44611D1*
X34062Y43451D2*
X34621D1*
X33422Y40000D2*
X34000D1*
X6795Y50035D2*
Y48787D1*
X7580D1*
X23252Y49820D2*
Y48309D1*
X22252Y49820D2*
Y49065D1*
D19*
X9363Y39639D3*
X10032D3*
D20*
X17750Y41551D3*
Y42654D3*
X18921Y41551D3*
Y42654D3*
X20079Y41557D3*
Y42659D3*
X21230Y41557D3*
Y42659D3*
D19*
X11192Y39681D3*
X11861D3*
D21*
X6408Y40310D3*
X5660D3*
D19*
X11174Y40323D3*
X11843D3*
D21*
X11207Y42626D3*
X11955D3*
D22*
X26957Y42957D3*
Y42209D3*
X24492Y42311D3*
Y43059D3*
D20*
X14785Y49300D3*
Y50402D3*
X16003Y49282D3*
Y50384D3*
D21*
X5764Y44059D3*
X6512D3*
X11118Y44067D3*
X11866D3*
D23*
X20598Y45189D3*
Y45858D3*
X20440Y49876D3*
Y50546D3*
D20*
X2854Y49933D3*
Y48831D3*
X1635Y49937D3*
Y48835D3*
D23*
X24869Y45189D3*
Y45858D3*
X25003Y49957D3*
Y50626D3*
D21*
X34567Y47827D3*
X33819D3*
D20*
X32437Y47002D3*
Y48104D3*
D23*
X33187Y44102D3*
Y43433D3*
D22*
X20507Y47626D3*
Y48374D3*
X25052Y47626D3*
Y48374D3*
D20*
X29813Y39938D3*
Y41040D3*
X32188Y39938D3*
Y41040D3*
D22*
X30000Y46250D3*
Y46998D3*
D25*
X2587Y47031D3*
Y45299D3*
X15013Y47567D3*
Y45835D3*
D27*
X6414Y42150D3*
X5548D3*
D28*
X36240Y50750D3*
Y50159D3*
D29*
X38000Y51000D3*
D30*
X37000D3*
X38000Y50000D3*
X37000D3*
X38000Y49000D3*
X37000D3*
X38000Y48000D3*
X37000D3*
X38000Y47000D3*
X37000D3*
X38000Y46000D3*
X37000D3*
X38000Y45000D3*
X37000D3*
X38000Y44000D3*
X37000D3*
X38000Y43000D3*
X37000D3*
X38000Y42000D3*
X37000D3*
X38000Y41000D3*
X37000D3*
X38000Y40000D3*
X37000D3*
D29*
X19000Y39000D3*
D30*
X20000D3*
X21000D3*
X22000D3*
X23000D3*
X24000D3*
X25000D3*
X26000D3*
X27000D3*
X28000D3*
D29*
X40000Y40000D3*
D30*
X39000D3*
X40000Y41000D3*
X39000D3*
X40000Y42000D3*
X39000D3*
X40000Y43000D3*
X39000D3*
X40000Y44000D3*
X39000D3*
D29*
X40000Y46000D3*
D30*
X39000D3*
X40000Y47000D3*
X39000D3*
X40000Y48000D3*
X39000D3*
X40000Y49000D3*
X39000D3*
X40000Y50000D3*
X39000D3*
D31*
X7681Y51374D3*
D32*
X8681D3*
X9681D3*
D33*
X18549Y46116D3*
D34*
Y47100D3*
Y48084D3*
D33*
X27284Y46112D3*
D34*
Y47096D3*
Y48080D3*
D33*
X34500Y50008D3*
D34*
Y50992D3*
D29*
X29366Y50945D3*
D30*
Y49945D3*
Y48945D3*
D29*
X29378Y42001D3*
D30*
Y43001D3*
Y44001D3*
Y45001D3*
D29*
X36000Y40000D3*
D30*
Y41000D3*
Y42000D3*
Y43000D3*
Y44000D3*
Y45000D3*
Y46000D3*
Y47000D3*
D29*
X31000Y40000D3*
D30*
Y41000D3*
Y42000D3*
Y43000D3*
Y44000D3*
Y45000D3*
Y46000D3*
Y47000D3*
D29*
X13000Y38000D3*
D30*
X14000D3*
X15000D3*
X16000D3*
X17000D3*
X18000D3*
X19000D3*
X20000D3*
X21000D3*
X22000D3*
X23000D3*
X24000D3*
X25000D3*
X26000D3*
X27000D3*
D36*
X31201Y51094D3*
Y50346D3*
X32106Y50720D3*
D19*
X8809Y40203D3*
X8140D3*
X8805Y39639D3*
X8136D3*
X10032Y40209D3*
X9363D3*
D23*
X13956Y40357D3*
Y39687D3*
D19*
X13212Y40306D3*
X12542D3*
X13210Y39690D3*
X12540D3*
X5699Y40908D3*
X6368D3*
X11250Y41596D3*
X11919D3*
X5711Y41494D3*
X6380D3*
X13757Y41550D3*
X13087D3*
X5705Y42674D3*
X6374D3*
X5719Y43261D3*
X6388D3*
X23750Y41562D3*
X24419D3*
X23125D3*
X22456D3*
D23*
X27753Y43126D3*
Y43795D3*
Y41750D3*
Y42420D3*
X21161Y45189D3*
Y45858D3*
X22260Y45189D3*
Y45858D3*
X20036Y45864D3*
Y45195D3*
X21190Y50564D3*
Y49895D3*
X21696Y45189D3*
Y45858D3*
X19752Y49876D3*
Y50546D3*
X24338Y45189D3*
Y45858D3*
X23252Y45189D3*
Y45858D3*
X25408Y45868D3*
Y45199D3*
X24315Y50608D3*
Y49939D3*
X23796Y45189D3*
Y45858D3*
X25690Y49939D3*
Y50608D3*
X31059Y48124D3*
Y48793D3*
D19*
X30522Y49372D3*
X31191D3*
X35591Y47906D3*
X36260D3*
D23*
X34062Y43451D3*
Y44120D3*
X32437Y44058D3*
Y44727D3*
X30541Y51094D3*
Y50425D3*
D19*
X18622Y50504D3*
X17953D3*
Y51094D3*
X18622D3*
X34000Y40000D3*
X34669D3*
X34563Y41063D3*
X33893D3*
D23*
X17756Y39815D3*
Y40484D3*
D19*
X34567Y41774D3*
X33898D3*
X34567Y42531D3*
X33898D3*
D23*
X32224Y49333D3*
Y50002D3*
X36250Y48841D3*
Y49510D3*
X7047Y43220D3*
Y42551D3*
D19*
X6398Y39224D3*
X5728D3*
D38*
X5445Y45441D3*
X6795D3*
Y48787D3*
X5445D3*
X10752Y45441D3*
X12102D3*
Y48787D3*
X10752D3*
D39*
X10105Y41031D3*
Y41287D3*
Y41543D3*
Y41799D3*
Y42055D3*
Y42311D3*
Y42567D3*
Y42823D3*
Y43079D3*
Y43335D3*
X7822D3*
Y43079D3*
Y42823D3*
Y42567D3*
Y42311D3*
Y42055D3*
Y41799D3*
Y41543D3*
Y41287D3*
Y41031D3*
D40*
X8964Y42183D3*
D41*
X34750Y44995D3*
Y45901D3*
Y46806D3*
D42*
X32467Y45901D3*
D43*
X25449Y41768D3*
X25705D3*
X25961D3*
X26217D3*
Y43500D3*
X25961D3*
X25705D3*
X25449D3*
D36*
X23565Y42313D3*
Y43061D3*
X22659Y42687D3*
D44*
X21252Y46939D3*
X21752D3*
X22252D3*
X22752D3*
X23252D3*
X23752D3*
X24252D3*
Y49065D3*
X23752D3*
X23252D3*
X22752D3*
X22252D3*
X21752D3*
X21252D3*
X75688Y39938D2*
D13*
X74562D1*
X74500Y40000D1*
X73375D1*
X73313Y39938D1*
X67919Y41562D2*
Y41004D1*
D14*
X64720D1*
X63579D1*
X62421D1*
X61312D1*
X61256D1*
X60512D1*
X59966Y41550D1*
X57257D1*
X68929Y41004D2*
X67919D1*
X61250Y41551D2*
D13*
X62421D1*
X63573D1*
X63579Y41557D1*
X64730D1*
X74559Y48124D2*
X73967D1*
X73857Y48014D1*
X63579Y41557D2*
D14*
Y41004D1*
X62421Y41551D2*
Y41004D1*
X61250Y41551D2*
Y41066D1*
X61312Y41004D1*
X64730Y41557D2*
D13*
X65950D1*
X65956Y41562D1*
X64730Y41557D2*
D14*
X64720D1*
Y41004D1*
X61256Y40484D2*
Y41004D1*
X45135Y49937D2*
X46354D1*
Y49933D1*
D15*
X47748D1*
Y47154D1*
X46209D1*
X46087Y47031D1*
X51181Y51374D2*
X49193D1*
X47752Y49933D1*
X47748Y47154D2*
D13*
Y46394D1*
X47732Y46409D1*
Y44299D2*
Y39547D1*
X50969Y39732D2*
Y39858D1*
X51295Y40185D1*
X51622D1*
X51640Y40203D1*
X61453Y51094D2*
X61319D1*
X61043Y51370D1*
X54925D1*
X73500Y46250D2*
X72625D1*
Y47444D1*
X74022Y48841D1*
Y48945D1*
Y49372D1*
X72625Y46250D2*
X71940D1*
Y44876D1*
Y43813D2*
X71271D1*
X71253Y43795D1*
X73500Y46250D2*
X74250D1*
X74500Y46000D1*
X77398Y42531D2*
Y41774D1*
X77393Y41063D2*
Y41774D1*
X77398D1*
X74500Y46000D2*
X75000Y45500D1*
Y43020D1*
X75055Y42965D1*
X76965D1*
X77398Y42531D1*
X58500Y38000D2*
X58526D1*
X59100Y38575D1*
X61020D1*
X62531Y40496D2*
X63512D1*
Y40553D1*
X64500D1*
X67500D1*
X71817D1*
X64500Y39000D2*
Y40553D1*
X67500Y39000D2*
Y40553D1*
X72866Y48945D2*
X74022D1*
X58285Y50402D2*
D14*
X59485D1*
D13*
X59503Y50384D1*
X53181Y51374D2*
D15*
X54295D1*
Y50512D1*
Y48831D1*
X54252Y48787D1*
X58285Y50402D2*
Y50512D1*
X54295D1*
X61453Y50504D2*
D13*
X59623D1*
X59503Y50384D1*
Y50641D1*
X59858Y50996D1*
X59882Y47362D2*
Y42154D1*
Y40760D2*
X59902D1*
Y39516D1*
X59622Y39236D1*
X51636D1*
Y39639D1*
X49898Y39224D2*
X51636Y39236D1*
X80500Y50000D2*
X81000Y50500D1*
X82000D1*
X82500Y50000D1*
X81500D2*
X82500Y49000D1*
X81500D2*
X82500Y48000D1*
X81500D2*
X82500Y47000D1*
X81500D2*
X82500Y46000D1*
X80500Y45000D2*
X81000Y44500D1*
X83000D1*
Y43500D1*
X83500Y43000D1*
Y42000D2*
X83000Y42500D1*
X81120D1*
X81000Y42620D1*
Y43500D1*
X80500Y44000D1*
X81500D2*
X82500Y43000D1*
X68949Y41768D2*
X68898D1*
X68692Y41562D1*
X68625D1*
X68562Y41500D1*
X65752Y46939D2*
Y46638D1*
X66127Y46262D1*
Y44278D1*
X66530Y43876D1*
X68876D1*
X68949Y43803D1*
Y43500D1*
X69717D2*
Y43850D1*
X69441Y44126D1*
X66677D1*
X66377Y44426D1*
Y46251D1*
X66752Y46626D1*
Y46938D1*
Y46939D1*
X53605Y41799D2*
X54547D1*
X54750Y41596D1*
Y41173D1*
X76687Y43433D2*
X77544D1*
X77562Y43451D1*
X75937Y48104D2*
X76069D1*
Y47827D1*
X77319D1*
X77500Y40000D2*
X76688D1*
X76563Y40125D1*
Y40965D1*
X76465Y41062D1*
X75710D1*
X75688Y41040D1*
X74701Y50346D2*
X74120D1*
X74041Y50425D1*
X75937Y48104D2*
X75114D1*
Y47000D1*
X75252D1*
Y43654D1*
X75473Y43433D1*
X76687D1*
X83500Y50000D2*
X84000Y49500D1*
Y44500D1*
X83500Y44000D1*
X67065Y43061D2*
X67992D1*
Y43059D1*
X68552Y48374D2*
X66817D1*
X66752Y48439D1*
Y49064D1*
Y49065D1*
X64007Y47626D2*
X64752D1*
X65127Y48001D1*
X66502D1*
X66817Y48316D1*
Y48374D1*
X65752Y49065D2*
Y50564D1*
X66000D1*
X66752D1*
Y49065D1*
X67838Y45189D2*
Y44751D1*
X71253D1*
Y46571D1*
X70253D1*
Y48080D1*
X70784D1*
X62049Y48084D2*
X62565D1*
Y46583D1*
X61564D1*
Y44688D1*
X64940D1*
X64661D1*
Y45189D1*
X64007Y47626D2*
Y47501D1*
X63502D1*
X62919Y48084D1*
X62049D1*
X68552Y48374D2*
X69630D1*
X69924Y48080D1*
X70784D1*
X67065Y43061D2*
X66317D1*
X66065Y43313D1*
X64940D2*
Y44688D1*
X74500Y41000D2*
X73352D1*
X73313Y41040D1*
X74500Y41000D2*
X75648D1*
X75688Y41040D1*
X73500Y46998D2*
X74498D1*
X74500Y47000D1*
X75114D1*
X73500Y46998D2*
Y47063D1*
X73188Y47375D1*
X59500Y38000D2*
X60500D1*
X49211Y41494D2*
Y40920D1*
X49199Y40908D1*
Y40349D1*
X49160Y40310D1*
Y40075D1*
X49483Y39752D1*
X50297D1*
X50928Y40383D1*
Y40679D1*
X51322D1*
X52500D1*
Y41346D1*
Y42147D1*
X52464Y42183D1*
X51322Y41031D2*
Y40679D1*
X58285Y49300D2*
D14*
X59485D1*
D13*
X59503Y49282D1*
X45135Y48835D2*
D14*
X46354D1*
Y48831D1*
X58513Y47567D2*
D15*
Y48291D1*
X59503Y49282D1*
X57456Y40357D2*
D13*
Y41061D1*
X55979D1*
X55343D1*
Y40323D1*
X56232Y42616D2*
X56222Y42626D1*
X55455D1*
X52250Y41346D2*
X52750D1*
X52250Y41846D2*
X52750D1*
X52250Y42346D2*
X52750D1*
X52250Y42846D2*
X52750D1*
X52250D2*
Y42346D1*
Y41846D1*
Y41346D1*
X52500D1*
X61250Y42654D2*
X62421D1*
X63573D1*
X63579Y42659D1*
X64730D1*
X69205Y43500D2*
Y43059D1*
Y42803D1*
X69366Y42642D1*
X69894D1*
X70327Y42209D1*
X70457D1*
X67992Y43059D2*
X69205D1*
X66000Y50500D2*
Y50564D1*
X74041Y50425D2*
Y50415D1*
X73579Y49953D1*
X72874D1*
X72866Y49945D1*
X72055D1*
X72000Y50000D1*
X74701Y51094D2*
X74041D1*
X80500Y51000D2*
X80438D1*
X79875Y51563D1*
X74041D1*
Y51094D1*
X75967Y45901D2*
Y44756D1*
X75937Y44727D1*
X75967Y45901D2*
Y46973D1*
X75937Y47002D1*
X78250Y45901D2*
Y45858D1*
X78667D1*
X79000Y46191D1*
Y47906D1*
X79091D1*
X75967Y45901D2*
X78250D1*
X81500Y42000D2*
X82500D1*
X81500D2*
X81000Y41500D1*
Y39687D1*
X80625Y39312D1*
X72772D1*
X72563Y39522D1*
Y40969D1*
X72343Y41189D1*
X69657D1*
X69461Y41386D1*
Y41768D1*
X49048Y42150D2*
X49004D1*
X48657Y41803D1*
Y39795D1*
X49228Y39224D1*
X55361Y39681D2*
X56032D1*
X56040Y39690D1*
X56042Y40306D2*
Y39692D1*
X55366Y44067D2*
D15*
Y45205D1*
X55602Y45441D1*
X58513Y45835D2*
X55996D1*
X55602Y45441D1*
X48945D2*
X46228D1*
X46087Y45299D1*
X49264Y44059D2*
Y45122D1*
X48945Y45441D1*
X51322Y41287D2*
D13*
X50757D1*
X50680Y41211D1*
Y40526D1*
X50491Y40337D1*
X49935D1*
X49908Y40310D1*
X53605Y41287D2*
X54175D1*
Y40618D1*
X54480Y40313D1*
X54664D1*
X54674Y40323D1*
Y39699D1*
X54692Y39681D1*
X51322Y41543D2*
X50528D1*
X50373Y41388D1*
Y40963D1*
X50338Y40927D1*
X49887D1*
X49868Y40908D1*
X53532Y39639D2*
Y40209D1*
X53605Y41031D2*
Y40282D1*
X53532Y40209D1*
X52309Y40203D2*
X52857D1*
X52863Y40209D1*
X52305Y39639D2*
X52863D1*
Y40208D1*
X75937Y44058D2*
X76687D1*
Y44102D1*
X77544D1*
X77562Y44120D1*
X78375D1*
Y44870D1*
X78250Y44995D1*
X78000Y50992D2*
X76246D1*
Y50720D1*
X75824D1*
X75606D1*
X75724Y50002D2*
Y50621D1*
X75824Y50720D1*
X79740Y50750D2*
Y50996D1*
X79720Y51016D1*
X78024D1*
X78000Y50992D1*
X71253Y43126D2*
Y42773D1*
Y42420D1*
Y42773D2*
X70641D1*
X70457Y42957D1*
X69461Y43500D2*
Y43012D1*
X69528Y42945D1*
X70445D1*
X70457Y42957D1*
X79760Y47906D2*
Y48339D1*
X78411D1*
Y49000D1*
X78000D1*
Y50008D1*
X74691Y49372D2*
X74858D1*
Y49293D1*
X75744D1*
Y49096D1*
X78000D1*
Y50008D1*
X79750Y48841D2*
X79760Y48339D1*
X75724Y49333D2*
X75744Y49293D1*
X65252Y46939D2*
Y45876D1*
X65174D1*
Y45858D1*
X65196D1*
X64661D2*
X65174D1*
X64661D2*
X64098D1*
X63542D1*
X63536Y45864D1*
X65760Y45858D2*
X65206D1*
X65174Y45876D1*
X67252Y46939D2*
Y45873D1*
X67267Y45858D1*
X67296D1*
X67838D1*
X68369D1*
X68897D1*
X68908Y45868D1*
X66752Y45858D2*
X67267D1*
X65252Y49065D2*
Y50564D1*
X64690D1*
X63958D1*
X63940Y50546D1*
X63252D1*
X68503Y50626D2*
X67833D1*
X67815Y50608D1*
X67271D1*
X67252Y50626D1*
Y49065D1*
X69190Y50608D2*
X68521D1*
X68503Y50626D1*
X74500Y42000D2*
X72879D1*
X72878Y42001D1*
Y43001D2*
X74499D1*
X74500Y43000D1*
Y44000D2*
X72879D1*
X72878Y44001D1*
Y45001D2*
X74499D1*
X74500Y45000D1*
X79500Y41000D2*
X78125D1*
X78063Y41063D1*
X78169Y40000D2*
X78125D1*
Y41000D1*
X79500Y42000D2*
X78067D1*
Y41774D1*
Y42531D2*
X79500D1*
Y43000D1*
Y44000D2*
Y45000D1*
X62500Y39000D2*
X63500Y38000D1*
X69500D2*
X70500Y39000D1*
X67500Y38000D2*
X68500Y39000D1*
Y38000D2*
X69500Y39000D1*
X56712Y40306D2*
Y39692D1*
X56710Y39690D1*
X57453D1*
X57456Y39687D1*
X79750Y49510D2*
Y50150D1*
X79740Y50159D1*
X50547Y42551D2*
Y41843D1*
X50587Y41803D1*
X51318D1*
X51322Y41799D1*
X66252Y46939D2*
Y47564D1*
X68490D1*
X68552Y47626D1*
X62122Y51094D2*
X62673D1*
X68552Y46752D2*
Y47626D1*
X64007Y48374D2*
X66252D1*
Y49065D1*
X64007Y48374D2*
Y49042D1*
X63996Y49031D1*
X62673Y50504D2*
X62122D1*
X78067Y47827D2*
X78254D1*
Y46685D1*
X78133Y46806D1*
X78250D1*
X74559Y48793D2*
X74833D1*
X74850Y48811D1*
X77132D1*
X77516Y48427D1*
X78028D1*
Y47827D1*
X78067D1*
X49888Y43261D2*
Y42688D1*
X49874Y42674D1*
X49914Y42150D2*
Y42634D1*
X49874Y42674D1*
X49880Y41494D2*
Y42115D1*
X49914Y42150D1*
X50547Y43220D2*
X49928D1*
X49888Y43261D1*
X49205Y42674D2*
Y43247D1*
X49219Y43261D1*
X53605Y42055D2*
X54136D1*
X54707Y42626D1*
D14*
X54746D1*
Y42094D1*
X55238D1*
X55419Y41913D1*
Y41596D1*
X56587D1*
Y41550D1*
X48945Y48787D2*
D15*
Y47110D1*
X54703D1*
X55622D1*
Y48768D1*
X55602Y48787D1*
X54707Y42626D2*
X54703Y43321D1*
X49219Y43261D2*
D13*
X48453D1*
X69717Y41768D2*
Y41571D1*
X71073D1*
X71253Y41750D1*
X66625Y41562D2*
X67250D1*
Y42313D1*
X67065D1*
X67992D1*
Y42311D1*
X67065Y42313D2*
X65563D1*
Y44501D1*
Y45189D1*
X65196D1*
X67065Y44438D2*
X67000Y44503D1*
Y45189D1*
X67296D1*
X65760D2*
X65196D1*
X66752D2*
X67295D1*
X67296D1*
X69717Y41768D2*
Y42295D1*
X68008D1*
X67992Y42311D1*
X69205Y41768D2*
X69189D1*
Y41323D1*
X69574Y40938D1*
X72191D1*
X72316Y40813D1*
Y39385D1*
X72638Y39063D1*
X81688D1*
X82500Y39875D1*
Y40000D1*
X81500Y41000D2*
X82500D1*
X51322Y42311D2*
Y42567D1*
Y42823D1*
Y43079D1*
Y43334D1*
Y43335D1*
X53605Y42311D2*
Y42567D1*
Y42823D1*
Y43079D1*
Y43335D1*
X50012Y44059D2*
D14*
X50764D1*
X51322Y43501D1*
Y43335D1*
X50012Y44059D2*
X53605D1*
X54610D1*
D13*
X54618Y44067D1*
X53605Y43335D2*
D14*
Y44059D1*
X50012D2*
D15*
Y45157D1*
X50295Y45441D1*
X54618Y44067D2*
Y45075D1*
X54252Y45441D1*
X61500Y38000D2*
D14*
Y39177D1*
X61264Y39413D1*
Y39807D1*
X61256Y39815D1*
X64098Y45189D2*
D13*
X63542D1*
X63536Y45195D1*
X62812D1*
Y46100D1*
Y46501D1*
X64752D1*
Y46939D1*
X62049Y46116D2*
X62812Y46100D1*
X63252Y49876D2*
X62690D1*
X63795Y46528D2*
X64752D1*
Y46939D1*
Y49065D2*
Y49832D1*
X64690Y49895D1*
X63958D1*
X63940Y49876D1*
X62049Y47100D2*
X61563D1*
Y49433D1*
X64752D1*
Y49065D1*
X68369Y45189D2*
X68897D1*
X68908Y45199D1*
X69317D1*
Y45910D1*
X69297D1*
Y46311D1*
X67752D1*
Y46939D1*
X69317Y45910D2*
X70582D1*
X70784Y46112D1*
X69190Y49939D2*
X69278D1*
Y46331D2*
X67752D1*
Y46939D1*
Y49065D2*
Y49876D1*
X67815Y49939D1*
X68484D1*
X68503Y49957D1*
X70784Y47096D2*
X71253D1*
Y49453D1*
X67752D1*
Y49065D1*
X79500Y47000D2*
X80500D1*
Y43000D2*
X80000Y42500D1*
Y40500D1*
X79500Y40000D1*
X72866Y50945D2*
Y50972D1*
X73697Y51803D1*
X80697D1*
X81500Y51000D1*
X79500Y46000D2*
X80500D1*
D18*
X68929Y41004D3*
X73857Y48014D3*
X47732Y46409D3*
Y44299D3*
Y39547D3*
X50969Y39732D3*
X54925Y51370D3*
X71940Y44876D3*
Y43813D3*
X61020Y38575D3*
X62531Y40496D3*
X71817Y40553D3*
X59858Y50996D3*
X59882Y47362D3*
Y42154D3*
Y40760D3*
X68562Y41500D3*
X54750Y41173D3*
X66065Y43313D3*
X64940D3*
X73188Y47375D3*
X56232Y42616D3*
X55979Y41061D3*
X62673Y51094D3*
X68552Y46752D3*
X63996Y49031D3*
X62673Y50504D3*
X54703Y43321D3*
Y47110D3*
X48453Y43261D3*
X67000Y44501D3*
X65563D3*
X62690Y49876D3*
X63795Y46528D3*
X69278Y49939D3*
Y46331D3*
X52250Y42846D3*
Y42346D3*
X60500Y50000D3*
Y49500D3*
Y49000D3*
Y48500D3*
Y48000D3*
Y47500D3*
Y47000D3*
Y46500D3*
Y46000D3*
Y45500D3*
Y45000D3*
Y44500D3*
Y44000D3*
Y43500D3*
Y43000D3*
X51795Y45453D3*
X48252Y38709D3*
X48752D3*
X52250Y41846D3*
Y41346D3*
X52750Y42846D3*
Y42346D3*
Y41846D3*
Y41346D3*
X49906Y50283D3*
X50406D3*
X50906D3*
X51406D3*
X76816Y46924D3*
Y46424D3*
Y45924D3*
Y45424D3*
X77379Y46924D3*
Y46424D3*
Y45924D3*
Y45424D3*
X76816Y44924D3*
X77379D3*
X75941Y46174D3*
Y45674D3*
X51906Y50283D3*
X52406D3*
X52906D3*
X53406D3*
X52295Y45453D3*
X52795D3*
X49252Y38709D3*
X49752D3*
X50252D3*
X50752D3*
X51252D3*
X51752D3*
X52252D3*
X52752D3*
X53252D3*
X53752D3*
X54252D3*
X51795Y44953D3*
X55252Y38709D3*
X55752D3*
X56252D3*
X56752D3*
X61000Y44500D3*
Y44000D3*
X52295Y44953D3*
X52795D3*
X44906Y48118D3*
X45406D3*
X45906D3*
X46406D3*
X46906D3*
X58083Y48496D3*
X58583D3*
X59083D3*
X61000Y43500D3*
X56750Y44096D3*
Y43596D3*
Y43096D3*
Y42596D3*
X61500Y44500D3*
Y44000D3*
Y43500D3*
X62000Y44500D3*
Y44000D3*
Y43500D3*
X62500Y44500D3*
Y44000D3*
Y43500D3*
X63000Y44500D3*
Y44000D3*
Y43500D3*
X63500Y44500D3*
Y44000D3*
Y43500D3*
X64000Y44500D3*
Y44000D3*
Y43500D3*
X64500Y44500D3*
Y44000D3*
Y43500D3*
X66000Y50500D3*
Y50000D3*
X66500Y50500D3*
Y50000D3*
X72000Y51000D3*
Y50500D3*
Y50000D3*
Y49500D3*
Y49000D3*
Y48500D3*
Y48000D3*
Y47500D3*
Y47000D3*
X72500Y38500D3*
X73000D3*
X73500D3*
X74000D3*
X74500D3*
X75000D3*
X75500D3*
X76000D3*
X76500D3*
X77000D3*
X77500D3*
X78000D3*
X78500D3*
X79000D3*
X79500D3*
X80000D3*
X80500D3*
X81000D3*
X81500D3*
X82000D3*
X82500D3*
X83000D3*
X83500D3*
X44500Y48000D3*
Y47500D3*
Y47000D3*
Y46500D3*
Y46000D3*
Y45500D3*
Y45000D3*
Y44500D3*
Y44000D3*
Y43500D3*
Y43000D3*
Y42500D3*
Y42000D3*
Y41500D3*
Y41000D3*
Y40500D3*
Y40000D3*
Y39500D3*
Y39000D3*
Y38500D3*
Y38000D3*
X76828Y46967D2*
D16*
X77466D1*
X76828Y46718D2*
X77466D1*
X76828Y46469D2*
X77466D1*
X76750Y46221D2*
X77466D1*
X76750Y45972D2*
X77466D1*
X76750Y45723D2*
X77466D1*
X76750Y45475D2*
X77466D1*
X76750Y45226D2*
X77466D1*
X76750Y44977D2*
X77466D1*
X76496Y44729D2*
X77466D1*
X77492Y47196D2*
X77476Y47200D1*
X77492Y47159D1*
Y47194D1*
X76804Y47196D1*
Y46352D1*
X76725Y46350D1*
Y44926D1*
X76469D1*
Y44653D1*
X77035D1*
X77031Y44672D1*
X77495D1*
X77492Y45223D1*
X77496Y45517D1*
X77492Y45629D1*
Y47159D1*
X75937Y47002D2*
D17*
X76804D1*
X75937Y44727D2*
X76469D1*
X77492Y45901D2*
X78250D1*
X75967D2*
X76724D1*
X44180Y51051D2*
D14*
X48051D1*
X65278D2*
X67182D1*
X69781D2*
X72140D1*
X82227D2*
X83820D1*
X44180Y50753D2*
X47751D1*
X49390D2*
X50454D1*
X52528D2*
X52837D1*
X53524D2*
X53706D1*
X65663D2*
X66813D1*
X69781D2*
X72140D1*
X82379D2*
X83820D1*
X49091Y50454D2*
X53706D1*
X65708D2*
X66797D1*
X69781D2*
X72140D1*
X48796Y50155D2*
X53706D1*
X65708D2*
X66797D1*
X69826D2*
X72173D1*
X51109Y49857D2*
X53436D1*
X56415D2*
X57360D1*
X60426D2*
X61478D1*
X65708D2*
X66797D1*
X71421D2*
X72145D1*
X51109Y49558D2*
X53436D1*
X56415D2*
X57360D1*
X60426D2*
X61125D1*
X71696D2*
X72255D1*
X51109Y49259D2*
X53436D1*
X56415D2*
X57360D1*
X60426D2*
X61105D1*
X71708D2*
X72214D1*
X51109Y48960D2*
X53436D1*
X56415D2*
X57360D1*
X60426D2*
X61105D1*
X62022D2*
X63319D1*
X69239D2*
X70795D1*
X71708D2*
X72140D1*
X51109Y48662D2*
X53436D1*
X56415D2*
X57360D1*
X60426D2*
X61105D1*
X62489D2*
X63319D1*
X69239D2*
X70348D1*
X71708D2*
X72198D1*
X51109Y48363D2*
X53436D1*
X56415D2*
X57647D1*
X59376D2*
X61105D1*
X62723D2*
X63319D1*
X69239D2*
X70110D1*
X71708D2*
X72452D1*
X44180Y48064D2*
X47161D1*
X51109D2*
X53436D1*
X56415D2*
X57647D1*
X59376D2*
X61105D1*
X62776D2*
X63319D1*
X66578D2*
X67867D1*
X69239D2*
X70057D1*
X71708D2*
X72612D1*
X44180Y47766D2*
X45221D1*
X46950D2*
X47161D1*
X51109D2*
X53436D1*
X56415D2*
X57647D1*
X60303D2*
X61105D1*
X62690D2*
X63319D1*
X64695D2*
X65845D1*
X69239D2*
X70139D1*
X71708D2*
X72313D1*
X44180Y47467D2*
X45221D1*
X56210D2*
X57647D1*
X60463D2*
X61105D1*
X62670D2*
X63319D1*
X69239D2*
X70164D1*
X71708D2*
X72169D1*
X44180Y47168D2*
X45221D1*
X56210D2*
X57647D1*
X60439D2*
X61105D1*
X62772D2*
X63319D1*
X69239D2*
X70061D1*
X71708D2*
X72169D1*
X44180Y46870D2*
X45221D1*
X56157D2*
X57647D1*
X60340D2*
X61174D1*
X69465D2*
X70094D1*
X71647D2*
X72169D1*
X44180Y46571D2*
X45221D1*
X46950D2*
X47165D1*
X56415D2*
X57647D1*
X60340D2*
X61322D1*
X69814D2*
X70057D1*
X44180Y46272D2*
X45221D1*
X46950D2*
X47157D1*
X51109D2*
X53436D1*
X60340D2*
X61322D1*
X44180Y45974D2*
X45221D1*
X51109D2*
X53436D1*
X60340D2*
X61322D1*
X44180Y45675D2*
X45221D1*
X51109D2*
X53436D1*
X60340D2*
X61322D1*
X44180Y45376D2*
X45221D1*
X51109D2*
X53436D1*
X60340D2*
X62355D1*
X69773D2*
X71484D1*
X44180Y45078D2*
X45221D1*
X51109D2*
X53436D1*
X56415D2*
X57647D1*
X60340D2*
X62372D1*
X69756D2*
X71386D1*
X82223D2*
X83820D1*
X44180Y44779D2*
X45221D1*
X46950D2*
X47411D1*
X51109D2*
X53436D1*
X56415D2*
X59423D1*
X60340D2*
X62688D1*
X69498D2*
X71357D1*
X83351D2*
X83820D1*
X44180Y44480D2*
X45221D1*
X46950D2*
X47169D1*
X56415D2*
X59423D1*
X60340D2*
X64972D1*
X69707D2*
X71513D1*
X44180Y44181D2*
X47153D1*
X56014D2*
X59423D1*
X60340D2*
X65070D1*
X70019D2*
X70664D1*
X44180Y43883D2*
X47276D1*
X56014D2*
X59423D1*
X60340D2*
X65107D1*
X70187D2*
X70664D1*
X44180Y43584D2*
X47276D1*
X56014D2*
X59423D1*
X60340D2*
X65107D1*
X70187D2*
X70664D1*
X78151D2*
X78911D1*
X44180Y43285D2*
X47276D1*
X55292D2*
X59423D1*
X78151D2*
X78833D1*
X44180Y42987D2*
X47276D1*
X56104D2*
X59423D1*
X44180Y42688D2*
X47276D1*
X48189D2*
X48596D1*
X56104D2*
X59423D1*
X44180Y42389D2*
X47276D1*
X48189D2*
X48539D1*
X56104D2*
X59341D1*
X75108D2*
X76791D1*
X44180Y42091D2*
X47276D1*
X57863D2*
X59292D1*
X75219D2*
X76791D1*
X44180Y41792D2*
X47276D1*
X75194D2*
X76791D1*
X44180Y41493D2*
X47276D1*
X76609D2*
X76786D1*
X44180Y41195D2*
X47276D1*
X76609D2*
X76786D1*
X44180Y40896D2*
X47276D1*
X55267D2*
X56868D1*
X58044D2*
X59308D1*
X76609D2*
X76786D1*
X44180Y40597D2*
X47276D1*
X58044D2*
X59312D1*
X76609D2*
X76786D1*
X44180Y40299D2*
X47276D1*
X58044D2*
X59444D1*
X76609D2*
X76894D1*
X44180Y40000D2*
X47276D1*
X58044D2*
X59444D1*
X61845D2*
X62236D1*
X62825D2*
X64045D1*
X64958D2*
X67043D1*
X67956D2*
X71689D1*
X76609D2*
X76894D1*
X44180Y39701D2*
X47161D1*
X58044D2*
X59444D1*
X61845D2*
X64045D1*
X64958D2*
X67043D1*
X67956D2*
X71857D1*
X44180Y39402D2*
X47161D1*
X44180Y39104D2*
X47358D1*
X48107D2*
X48621D1*
X82363D2*
X83820D1*
X44180Y38805D2*
X48621D1*
X51039D2*
X58697D1*
X82063D2*
X83820D1*
X44180Y38506D2*
X55773D1*
X72020D2*
X83820D1*
X44180Y38208D2*
X55773D1*
X71196D2*
X83820D1*
X44180Y37909D2*
X55773D1*
X71220D2*
X83820D1*
X60383Y43330D2*
X62685D1*
X62711Y43336D1*
X65135D1*
X65136Y44138D1*
X65090Y44196D1*
X65033Y44314D1*
X65004Y44441D1*
X65005Y44572D1*
X65010Y44610D1*
X63539Y44614D1*
X62977Y44616D1*
Y44768D1*
X62812D1*
X62683Y44788D1*
X62566Y44846D1*
X62472Y44937D1*
X62410Y45052D1*
X62386Y45195D1*
Y45404D1*
X61352Y45403D1*
Y46728D1*
X61232Y46830D1*
X61166Y46943D1*
X61136Y47100D1*
Y49433D1*
X61156Y49562D1*
X61214Y49679D1*
X61305Y49773D1*
X61420Y49835D1*
X61563Y49860D1*
X62125D1*
X62044Y49945D1*
X61544Y49949D1*
X61113Y49945D1*
X60874D1*
Y50080D1*
X60399Y50077D1*
X60397Y49707D1*
Y48605D1*
X58610D1*
Y48624D1*
X57392Y48623D1*
Y49954D1*
X56386Y49953D1*
X56388Y47540D1*
X56178D1*
X56181Y47110D1*
X56166Y46980D1*
X56120Y46857D1*
X55998Y46689D1*
X56388D1*
X56390Y46394D1*
X57682D1*
X57678Y46669D1*
X59347D1*
Y45001D1*
X57678D1*
Y45275D1*
X56384Y45276D1*
X56388Y44720D1*
Y44193D1*
X55982D1*
X55984Y43410D1*
X55258D1*
X55262Y43292D1*
X55270Y43283D1*
X55325Y43279D1*
X55414Y43283D1*
X56073D1*
Y42108D1*
X57166Y42105D1*
X57597Y42109D1*
X57835D1*
Y42064D1*
X59328Y42062D1*
X59324Y42225D1*
X59356Y42352D1*
X59416Y42468D1*
X59456Y42515D1*
X59455Y46997D1*
X59410Y47058D1*
X59347Y47195D1*
Y46733D1*
X57678D1*
Y48402D1*
X59347D1*
Y47535D1*
X59416Y47677D1*
X59502Y47776D1*
X59608Y47853D1*
X59729Y47903D1*
X59858Y47924D1*
X59989Y47914D1*
X60114Y47874D1*
X60226Y47807D1*
X60319Y47715D1*
X60389Y47604D1*
X60431Y47480D1*
X60444Y47362D1*
X60429Y47232D1*
X60384Y47109D1*
X60309Y46997D1*
Y42519D1*
X60356Y42448D1*
X60357Y43330D1*
X60383D1*
X55229Y40882D2*
X55253Y40878D1*
X55342Y40882D1*
X55922D1*
Y40864D1*
X56621Y40861D1*
X56900Y40865D1*
X56897Y40935D1*
X58015D1*
Y39663D1*
X59448D1*
X59475Y39778D1*
Y40373D1*
X59410Y40455D1*
X59352Y40573D1*
X59323Y40700D1*
X59324Y40831D1*
X59356Y40958D1*
X59396Y41035D1*
X58260Y41038D1*
X57837D1*
X57835Y40991D1*
X56678Y40995D1*
X56247Y40991D1*
X56009D1*
Y41085D1*
X55998Y41038D1*
X55292D1*
X55252Y40920D1*
X55227Y40883D1*
X55263Y40882D1*
X70156Y43575D2*
X70698D1*
X70694Y43704D1*
Y44373D1*
X71691D1*
X71552Y44470D1*
X71468Y44571D1*
X71411Y44689D1*
X71382Y44816D1*
X71383Y44947D1*
X71415Y45074D1*
X71475Y45191D1*
X71515Y45237D1*
X71514Y46250D1*
X71534Y46379D1*
X71592Y46496D1*
X71683Y46590D1*
X71798Y46652D1*
X71940Y46677D1*
X72199D1*
X72198Y47444D1*
X72218Y47573D1*
X72279Y47693D1*
X72416Y47839D1*
X72825Y48247D1*
X72652Y48282D1*
X72531Y48334D1*
X72423Y48407D1*
X72330Y48500D1*
X72256Y48608D1*
X72204Y48728D1*
X72175Y48856D1*
X72171Y48987D1*
X72191Y49117D1*
X72235Y49240D1*
X72302Y49353D1*
X72380Y49442D1*
X72283Y49563D1*
X72222Y49679D1*
X72184Y49805D1*
X72170Y49935D1*
X72180Y50065D1*
X72215Y50192D1*
X72239Y50248D1*
X72170D1*
Y51351D1*
X63171Y51350D1*
X63223Y51213D1*
X63232Y51128D1*
X63811Y51124D1*
X64131D1*
Y51142D1*
X65249D1*
X65252Y50991D1*
X65381Y50971D1*
X65499Y50913D1*
X65593Y50822D1*
X65655Y50707D1*
X65679Y50564D1*
Y49822D1*
X65732Y49816D1*
X65850Y49820D1*
X66826D1*
Y50626D1*
X66846Y50756D1*
X66904Y50873D1*
X66995Y50967D1*
X67110Y51029D1*
X67242Y51053D1*
X67256Y51079D1*
Y51187D1*
X67941D1*
X67944Y51205D1*
X69061D1*
Y51184D1*
X69749Y51187D1*
Y50243D1*
X69785Y50181D1*
X69827Y50057D1*
X69840Y49939D1*
X69832Y49878D1*
X71253Y49880D1*
X71382Y49860D1*
X71499Y49802D1*
X71593Y49711D1*
X71655Y49596D1*
X71680Y49453D1*
Y47096D1*
X71660Y46967D1*
X71602Y46850D1*
X71519Y46763D1*
X71480Y46661D1*
Y45399D1*
X70087D1*
Y45485D1*
X69741Y45483D1*
X69744Y45199D1*
X69724Y45070D1*
X69666Y44953D1*
X69586Y44868D1*
X69469Y44801D1*
X69467Y44620D1*
X68929D1*
X68928Y44610D1*
X67810Y44614D1*
X67793Y44610D1*
X67555D1*
X67596Y44553D1*
X69441D1*
X69570Y44533D1*
X69690Y44472D1*
X69836Y44335D1*
X70021Y44149D1*
X70063Y44138D1*
X70157D1*
Y43576D1*
X46031Y50610D2*
X47248D1*
Y50491D1*
X47523Y50492D1*
X48380Y51352D1*
X44150Y51350D1*
Y37651D1*
X55807Y37650D1*
X55803Y38222D1*
Y38697D1*
X57197D1*
Y38627D1*
X57368Y38684D1*
X57498Y38697D1*
X57628Y38685D1*
X57754Y38649D1*
X57871Y38589D1*
X58000Y38482D1*
X58125Y38587D1*
X58242Y38647D1*
X58368Y38684D1*
X58498Y38697D1*
X58608Y38687D1*
X58731Y38809D1*
X50982Y38805D1*
X50478Y38801D1*
X50476Y38666D1*
X49319Y38670D1*
X48888Y38666D1*
X48650D1*
X48648Y39201D1*
X48324Y39529D1*
X48294Y39547D1*
X48279Y39417D1*
X48234Y39294D1*
X48162Y39185D1*
X48066Y39095D1*
X47953Y39030D1*
X47827Y38993D1*
X47696Y38986D1*
X47568Y39010D1*
X47448Y39063D1*
X47343Y39142D1*
X47260Y39243D1*
X47202Y39360D1*
X47173Y39488D1*
X47175Y39619D1*
X47207Y39746D1*
X47267Y39862D1*
X47307Y39909D1*
X47305Y43931D1*
X47260Y43995D1*
X47202Y44112D1*
X47173Y44240D1*
X47175Y44371D1*
X47207Y44498D1*
X47267Y44614D1*
X47352Y44713D1*
X47458Y44790D1*
X47579Y44840D1*
X47709Y44861D1*
X47839Y44851D1*
X47964Y44811D1*
X48076Y44744D1*
X48161Y44661D1*
X48157Y44882D1*
X46923D1*
X46921Y44465D1*
X45252D1*
Y46134D1*
X46921D1*
Y45998D1*
X47343Y46004D1*
X47260Y46105D1*
X47202Y46222D1*
X47173Y46350D1*
X47175Y46481D1*
X47204Y46596D1*
X46924Y46595D1*
X46921Y46197D1*
X45252D1*
Y47866D1*
X46921D1*
Y47714D1*
X47189Y47712D1*
Y48150D1*
X47012Y48154D1*
X44241Y48158D1*
Y50614D1*
X46028Y50610D1*
X64664Y47948D2*
X64666Y47694D1*
X65232Y47690D1*
X65666Y47694D1*
X65732Y47690D1*
X65895Y47798D1*
X65998Y47906D1*
X65990Y47947D1*
X64664Y47942D1*
X64660Y47756D1*
X64772Y47694D1*
X65732D1*
X63504Y47008D2*
X63350D1*
Y48992D1*
X63436D1*
X63309Y49006D1*
X61992D1*
X61994Y48794D1*
X62125Y48792D1*
X62254Y48766D1*
X62375Y48716D1*
X62484Y48644D1*
X62578Y48552D1*
X62654Y48445D1*
X62708Y48326D1*
X62738Y48198D1*
X62745Y48074D1*
X62728Y47944D1*
X62686Y47819D1*
X62623Y47705D1*
X62533Y47599D1*
X62611Y47511D1*
X62678Y47399D1*
X62723Y47276D1*
X62745Y47100D1*
X62733Y46969D1*
X62718Y46918D1*
X62812Y46928D1*
X63399D1*
X63505Y47006D1*
X69210Y48244D2*
Y47008D1*
X69050D1*
X69102Y46866D1*
X69254Y46892D1*
X69384Y46882D1*
X69509Y46843D1*
X69621Y46775D1*
X69715Y46684D1*
X69785Y46573D1*
X69827Y46449D1*
X69842Y46337D1*
X70084D1*
X70087Y46793D1*
X70157D1*
X70122Y46880D1*
X70093Y47007D1*
X70088Y47138D1*
X70109Y47268D1*
X70153Y47391D1*
X70219Y47504D1*
X70297Y47593D1*
X70201Y47714D1*
X70140Y47830D1*
X70101Y47956D1*
X70087Y48086D1*
X70098Y48217D1*
X70132Y48343D1*
X70190Y48461D1*
X70269Y48565D1*
X70366Y48653D1*
X70478Y48722D1*
X70600Y48768D1*
X70729Y48791D1*
X70827D1*
X70826Y49028D1*
X68230Y49026D1*
X68236Y48992D1*
X69210D1*
X69209Y47756D1*
X67895Y47988D2*
X67899Y48244D1*
X67895Y48308D1*
X67272Y48313D1*
X67022Y48309D1*
X66674D1*
X66663Y48259D1*
X66609Y48140D1*
X66507Y48032D1*
X66515Y47991D1*
X67895Y47992D1*
Y48255D1*
X67732Y48309D1*
X66772Y48313D1*
X66671Y48309D1*
X66659Y48245D1*
X66601Y48128D1*
X66510Y48034D1*
X76578Y40614D2*
X76581Y39741D1*
X76918Y39739D1*
X76921Y39966D1*
Y40503D1*
X76815Y40504D1*
X76819Y42332D1*
X76817Y42508D1*
X76785Y42540D1*
X75051Y42538D1*
X75008Y42523D1*
X74980Y42499D1*
X75062Y42411D1*
X75129Y42299D1*
X75174Y42176D1*
X75197Y42000D1*
X75184Y41870D1*
X75135Y41718D1*
X76581Y41717D1*
X76580Y40363D1*
X48568Y42313D2*
Y42630D1*
X48630D1*
X48626Y42726D1*
X48548Y42707D1*
X48417Y42700D1*
X48288Y42723D1*
X48158Y42783D1*
X48159Y39915D1*
X48229Y39807D1*
X48231Y41803D1*
X48251Y41932D1*
X48312Y42052D1*
X48448Y42198D1*
X48567Y42317D1*
X82197Y51348D2*
Y50881D1*
X82302Y50802D1*
X82415Y50689D1*
X82498Y50697D1*
X82628Y50685D1*
X82754Y50649D1*
X82871Y50589D1*
X83000Y50482D1*
X83061Y50541D1*
X83170Y50614D1*
X83291Y50665D1*
X83419Y50692D1*
X83550Y50695D1*
X83680Y50673D1*
X83803Y50628D1*
X83850Y50603D1*
Y51349D1*
X82200Y51350D1*
X81983Y45500D2*
X82062Y45411D1*
X82129Y45299D1*
X82174Y45176D1*
X82197Y45000D1*
X82190Y44931D1*
X83000Y44927D1*
X83129Y44907D1*
X83246Y44849D1*
X83333Y44766D1*
X83393Y44688D1*
X83524Y44696D1*
X83654Y44679D1*
X83779Y44638D1*
X83850Y44603D1*
Y45304D1*
X82803Y45303D1*
Y45373D1*
X82674Y45325D1*
X82544Y45305D1*
X82413Y45309D1*
X82285Y45337D1*
X82165Y45389D1*
X82057Y45463D1*
X82002Y45518D1*
X64927Y39547D2*
X65000Y39482D1*
X65125Y39587D1*
X65242Y39647D1*
X65368Y39684D1*
X65498Y39697D1*
X65628Y39685D1*
X65754Y39649D1*
X65871Y39589D1*
X66000Y39482D1*
X66061Y39541D1*
X66170Y39614D1*
X66291Y39665D1*
X66419Y39692D1*
X66550Y39695D1*
X66680Y39673D1*
X66803Y39628D1*
X66915Y39560D1*
X67000Y39485D1*
X67070Y39544D1*
X67073Y40128D1*
X64929Y40126D1*
X64927Y39548D1*
X67927Y39547D2*
X68000Y39482D1*
X68125Y39587D1*
X68242Y39647D1*
X68368Y39684D1*
X68498Y39697D1*
X68628Y39685D1*
X68754Y39649D1*
X68871Y39589D1*
X69000Y39482D1*
X69125Y39587D1*
X69242Y39647D1*
X69368Y39684D1*
X69498Y39697D1*
X69628Y39685D1*
X69754Y39649D1*
X69871Y39589D1*
X70000Y39482D1*
X70125Y39587D1*
X70242Y39647D1*
X70368Y39684D1*
X70498Y39697D1*
X70628Y39685D1*
X70754Y39649D1*
X70871Y39589D1*
X71000Y39482D1*
X71061Y39541D1*
X71170Y39614D1*
X71291Y39665D1*
X71419Y39692D1*
X71550Y39695D1*
X71680Y39673D1*
X71803Y39628D1*
X71889Y39578D1*
Y39996D1*
X71781Y39992D1*
X71652Y40016D1*
X71532Y40068D1*
X71457Y40125D1*
X67925Y40126D1*
X67927Y39548D1*
X72190Y38908D2*
X72157Y38768D1*
X72102Y38649D1*
X72026Y38543D1*
X71931Y38452D1*
X71821Y38381D1*
X71699Y38332D1*
X71571Y38307D1*
X71440Y38306D1*
X71311Y38330D1*
X71188Y38377D1*
X71077Y38446D1*
X70999Y38515D1*
X71129Y38299D1*
X71174Y38176D1*
X71197Y38000D1*
X71184Y37870D1*
X71148Y37744D1*
X71101Y37652D1*
X72871Y37650D1*
X83850D1*
Y39300D1*
X82884Y39303D1*
X82803D1*
Y39373D1*
X82674Y39325D1*
X82532Y39305D1*
X81989Y38761D1*
X81884Y38683D1*
X81756Y38642D1*
X81556Y38636D1*
X72638D1*
X72509Y38656D1*
X72389Y38717D1*
X72244Y38853D1*
X72188Y38908D1*
X51878Y50746D2*
Y50677D1*
X50484D1*
Y50813D1*
X49422Y50815D1*
X48646Y50036D1*
X49730Y50035D1*
X51080D1*
Y47669D1*
X53467Y47671D1*
Y50035D1*
X53733D1*
X53736Y50819D1*
X53591Y50811D1*
X53478Y50744D1*
X53355Y50699D1*
X53225Y50679D1*
X53095Y50683D1*
X52967Y50711D1*
X52846Y50763D1*
X52738Y50837D1*
X52683Y50892D1*
X52591Y50811D1*
X52478Y50744D1*
X52355Y50699D1*
X52225Y50679D1*
X52095Y50683D1*
X51967Y50711D1*
X51878Y50747D1*
X78808Y42956D2*
X78805Y43042D1*
X78825Y43172D1*
X78869Y43295D1*
X78935Y43408D1*
X79014Y43497D1*
X78890Y43663D1*
X78838Y43784D1*
X78809Y43911D1*
X78805Y44042D1*
X78825Y44172D1*
X78854Y44253D1*
X78802Y44214D1*
Y44120D1*
X78782Y43991D1*
X78724Y43874D1*
X78633Y43780D1*
X78518Y43718D1*
X78375Y43693D1*
X78121Y43688D1*
Y43090D1*
X78645D1*
Y42955D1*
X78801Y42958D1*
X61813Y40393D2*
X61816Y39697D1*
X63197D1*
Y39627D1*
X63316Y39672D1*
X63446Y39695D1*
X63577Y39692D1*
X63705Y39666D1*
X63826Y39616D1*
X63935Y39544D1*
X64000Y39485D1*
X64070Y39544D1*
X64073Y40128D1*
X63717Y40122D1*
X63611Y40081D1*
X63512Y40069D1*
X62901D1*
X62752Y39979D1*
X62626Y39942D1*
X62496Y39935D1*
X62367Y39959D1*
X62247Y40011D1*
X62143Y40090D1*
X62059Y40191D1*
X62002Y40309D1*
X61973Y40437D1*
Y40490D1*
X61818Y40492D1*
X61815Y39906D1*
Y39700D1*
X51080Y46553D2*
Y44569D1*
X53424Y44571D1*
X53469D1*
X53467Y46030D1*
Y46551D1*
X51082D1*
X61250Y43330D2*
Y42654D1*
X60357D2*
X61250D1*
X62421Y43330D2*
Y42654D1*
X63579Y43336D2*
Y42659D1*
X64730Y43336D2*
Y42659D1*
X55343Y40881D2*
Y40323D1*
X55455Y43283D2*
Y42626D1*
X56072D1*
X58285Y49300D2*
Y48623D1*
X57392Y49300D2*
X58285D1*
X59503Y49282D2*
Y48605D1*
Y49282D2*
X60396D1*
X46354Y48831D2*
Y48154D1*
X45135Y48835D2*
Y48158D1*
X44242Y48835D2*
X45135D1*
X63350Y47626D2*
X64664D1*
X68552Y48991D2*
Y48374D1*
X67896D2*
X69209D1*
X75688Y41716D2*
Y41040D1*
X76580D1*
X58513Y48401D2*
Y46733D1*
X57679Y47567D2*
X59347D1*
X63500Y39696D2*
Y39000D1*
X66500Y39696D2*
Y39000D1*
X71500Y39696D2*
Y38304D1*
Y39000D2*
X72196D1*
X83500Y44696D2*
Y44000D1*
Y50696D2*
Y50000D1*
X52181Y51374D2*
Y50678D1*
X62049Y48796D2*
Y48100D1*
X62745D1*
X70784Y48792D2*
Y48096D1*
X70088D2*
X70784D1*
X72170Y49945D2*
X72866D1*
X57456Y40935D2*
Y40357D1*
X58014D1*
X64661Y45189D2*
Y44611D1*
X67838Y45189D2*
Y44611D1*
X77562Y43451D2*
X78121D1*
X76922Y40000D2*
X77500D1*
X50295Y50035D2*
Y48787D1*
X51080D1*
X66752Y49820D2*
Y48309D1*
X65752Y49820D2*
Y49065D1*
D19*
X52863Y39639D3*
X53532D3*
D20*
X61250Y41551D3*
Y42654D3*
X62421Y41551D3*
Y42654D3*
X63579Y41557D3*
Y42659D3*
X64730Y41557D3*
Y42659D3*
D19*
X54692Y39681D3*
X55361D3*
D21*
X49908Y40310D3*
X49160D3*
D19*
X54674Y40323D3*
X55343D3*
D21*
X54707Y42626D3*
X55455D3*
D22*
X70457Y42957D3*
Y42209D3*
X67992Y42311D3*
Y43059D3*
D20*
X58285Y49300D3*
Y50402D3*
X59503Y49282D3*
Y50384D3*
D21*
X49264Y44059D3*
X50012D3*
X54618Y44067D3*
X55366D3*
D23*
X64098Y45189D3*
Y45858D3*
X63940Y49876D3*
Y50546D3*
D20*
X46354Y49933D3*
Y48831D3*
X45135Y49937D3*
Y48835D3*
D23*
X68369Y45189D3*
Y45858D3*
X68503Y49957D3*
Y50626D3*
D21*
X78067Y47827D3*
X77319D3*
D20*
X75937Y47002D3*
Y48104D3*
D23*
X76687Y44102D3*
Y43433D3*
D22*
X64007Y47626D3*
Y48374D3*
X68552Y47626D3*
Y48374D3*
D20*
X73313Y39938D3*
Y41040D3*
X75688Y39938D3*
Y41040D3*
D22*
X73500Y46250D3*
Y46998D3*
D25*
X46087Y47031D3*
Y45299D3*
X58513Y47567D3*
Y45835D3*
D27*
X49914Y42150D3*
X49048D3*
D28*
X79740Y50750D3*
Y50159D3*
D29*
X81500Y51000D3*
D30*
X80500D3*
X81500Y50000D3*
X80500D3*
X81500Y49000D3*
X80500D3*
X81500Y48000D3*
X80500D3*
X81500Y47000D3*
X80500D3*
X81500Y46000D3*
X80500D3*
X81500Y45000D3*
X80500D3*
X81500Y44000D3*
X80500D3*
X81500Y43000D3*
X80500D3*
X81500Y42000D3*
X80500D3*
X81500Y41000D3*
X80500D3*
X81500Y40000D3*
X80500D3*
D29*
X62500Y39000D3*
D30*
X63500D3*
X64500D3*
X65500D3*
X66500D3*
X67500D3*
X68500D3*
X69500D3*
X70500D3*
X71500D3*
D29*
X83500Y40000D3*
D30*
X82500D3*
X83500Y41000D3*
X82500D3*
X83500Y42000D3*
X82500D3*
X83500Y43000D3*
X82500D3*
X83500Y44000D3*
X82500D3*
D29*
X83500Y46000D3*
D30*
X82500D3*
X83500Y47000D3*
X82500D3*
X83500Y48000D3*
X82500D3*
X83500Y49000D3*
X82500D3*
X83500Y50000D3*
X82500D3*
D31*
X51181Y51374D3*
D32*
X52181D3*
X53181D3*
D33*
X62049Y46116D3*
D34*
Y47100D3*
Y48084D3*
D33*
X70784Y46112D3*
D34*
Y47096D3*
Y48080D3*
D33*
X78000Y50008D3*
D34*
Y50992D3*
D29*
X72866Y50945D3*
D30*
Y49945D3*
Y48945D3*
D29*
X72878Y42001D3*
D30*
Y43001D3*
Y44001D3*
Y45001D3*
D29*
X79500Y40000D3*
D30*
Y41000D3*
Y42000D3*
Y43000D3*
Y44000D3*
Y45000D3*
Y46000D3*
Y47000D3*
D29*
X74500Y40000D3*
D30*
Y41000D3*
Y42000D3*
Y43000D3*
Y44000D3*
Y45000D3*
Y46000D3*
Y47000D3*
D29*
X56500Y38000D3*
D30*
X57500D3*
X58500D3*
X59500D3*
X60500D3*
X61500D3*
X62500D3*
X63500D3*
X64500D3*
X65500D3*
X66500D3*
X67500D3*
X68500D3*
X69500D3*
X70500D3*
D36*
X74701Y51094D3*
Y50346D3*
X75606Y50720D3*
D19*
X52309Y40203D3*
X51640D3*
X52305Y39639D3*
X51636D3*
X53532Y40209D3*
X52863D3*
D23*
X57456Y40357D3*
Y39687D3*
D19*
X56712Y40306D3*
X56042D3*
X56710Y39690D3*
X56040D3*
X49199Y40908D3*
X49868D3*
X54750Y41596D3*
X55419D3*
X49211Y41494D3*
X49880D3*
X57257Y41550D3*
X56587D3*
X49205Y42674D3*
X49874D3*
X49219Y43261D3*
X49888D3*
X67250Y41562D3*
X67919D3*
X66625D3*
X65956D3*
D23*
X71253Y43126D3*
Y43795D3*
Y41750D3*
Y42420D3*
X64661Y45189D3*
Y45858D3*
X65760Y45189D3*
Y45858D3*
X63536Y45864D3*
Y45195D3*
X64690Y50564D3*
Y49895D3*
X65196Y45189D3*
Y45858D3*
X63252Y49876D3*
Y50546D3*
X67838Y45189D3*
Y45858D3*
X66752Y45189D3*
Y45858D3*
X68908Y45868D3*
Y45199D3*
X67815Y50608D3*
Y49939D3*
X67296Y45189D3*
Y45858D3*
X69190Y49939D3*
Y50608D3*
X74559Y48124D3*
Y48793D3*
D19*
X74022Y49372D3*
X74691D3*
X79091Y47906D3*
X79760D3*
D23*
X77562Y43451D3*
Y44120D3*
X75937Y44058D3*
Y44727D3*
X74041Y51094D3*
Y50425D3*
D19*
X62122Y50504D3*
X61453D3*
Y51094D3*
X62122D3*
X77500Y40000D3*
X78169D3*
X78063Y41063D3*
X77393D3*
D23*
X61256Y39815D3*
Y40484D3*
D19*
X78067Y41774D3*
X77398D3*
X78067Y42531D3*
X77398D3*
D23*
X75724Y49333D3*
Y50002D3*
X79750Y48841D3*
Y49510D3*
X50547Y43220D3*
Y42551D3*
D19*
X49898Y39224D3*
X49228D3*
D38*
X48945Y45441D3*
X50295D3*
Y48787D3*
X48945D3*
X54252Y45441D3*
X55602D3*
Y48787D3*
X54252D3*
D39*
X53605Y41031D3*
Y41287D3*
Y41543D3*
Y41799D3*
Y42055D3*
Y42311D3*
Y42567D3*
Y42823D3*
Y43079D3*
Y43335D3*
X51322D3*
Y43079D3*
Y42823D3*
Y42567D3*
Y42311D3*
Y42055D3*
Y41799D3*
Y41543D3*
Y41287D3*
Y41031D3*
D40*
X52464Y42183D3*
D41*
X78250Y44995D3*
Y45901D3*
Y46806D3*
D42*
X75967Y45901D3*
D43*
X68949Y41768D3*
X69205D3*
X69461D3*
X69717D3*
Y43500D3*
X69461D3*
X69205D3*
X68949D3*
D36*
X67065Y42313D3*
Y43061D3*
X66159Y42687D3*
D44*
X64752Y46939D3*
X65252D3*
X65752D3*
X66252D3*
X66752D3*
X67252D3*
X67752D3*
Y49065D3*
X67252D3*
X66752D3*
X66252D3*
X65752D3*
X65252D3*
X64752D3*
M02*
