G04 DipTrace 2.4.0.2*
%INBottomSilk.gbr*%
%MOIN*%
%ADD10C,0.0098*%
%ADD24C,0.0013*%
%ADD111C,0.0046*%
%FSLAX44Y44*%
G04*
G70*
G90*
G75*
G01*
%LNBotSilk*%
%LPD*%
X10500Y500D2*
D10*
X18500D1*
Y1500D1*
X10500D1*
Y500D1*
X8900Y19500D2*
X16900D1*
Y20500D1*
X8900D1*
Y19500D1*
X36500Y20500D2*
X38500D1*
Y2500D1*
X36500D1*
Y20500D1*
X19500Y500D2*
X27500D1*
Y1500D1*
X19500D1*
Y500D1*
X17500Y19500D2*
X25500D1*
Y20500D1*
X17500D1*
Y19500D1*
X28500Y500D2*
X36500D1*
Y1500D1*
X28500D1*
Y500D1*
X26500Y19500D2*
X34500D1*
Y20500D1*
X26500D1*
Y19500D1*
X0Y4750D2*
D24*
X4500D1*
Y1250D1*
X0D1*
Y4750D1*
Y17250D2*
X3750D1*
Y12750D1*
X0D1*
Y17250D1*
G36*
Y17437D2*
X5750D1*
Y12250D1*
X0D1*
Y17437D1*
G37*
X14511Y1939D2*
D111*
Y1710D1*
X14525Y1667D1*
X14539Y1652D1*
X14568Y1638D1*
X14597D1*
X14625Y1652D1*
X14640Y1667D1*
X14654Y1710D1*
Y1738D1*
X14418Y1882D2*
X14389Y1896D1*
X14346Y1939D1*
Y1638D1*
X12975Y20939D2*
Y20710D1*
X12989Y20667D1*
X13004Y20652D1*
X13032Y20638D1*
X13061D1*
X13090Y20652D1*
X13104Y20667D1*
X13119Y20710D1*
Y20738D1*
X12868Y20867D2*
Y20882D1*
X12854Y20910D1*
X12839Y20925D1*
X12810Y20939D1*
X12753D1*
X12725Y20925D1*
X12710Y20910D1*
X12696Y20882D1*
Y20853D1*
X12710Y20824D1*
X12739Y20781D1*
X12882Y20638D1*
X12681D1*
X37575Y20939D2*
Y20710D1*
X37589Y20667D1*
X37604Y20652D1*
X37632Y20638D1*
X37661D1*
X37690Y20652D1*
X37704Y20667D1*
X37719Y20710D1*
Y20738D1*
X37454Y20939D2*
X37296D1*
X37382Y20824D1*
X37339D1*
X37310Y20810D1*
X37296Y20796D1*
X37281Y20753D1*
Y20724D1*
X37296Y20681D1*
X37325Y20652D1*
X37368Y20638D1*
X37411D1*
X37454Y20652D1*
X37468Y20667D1*
X37482Y20695D1*
X23582Y1939D2*
Y1710D1*
X23596Y1667D1*
X23611Y1652D1*
X23640Y1638D1*
X23668D1*
X23697Y1652D1*
X23711Y1667D1*
X23726Y1710D1*
Y1738D1*
X23346Y1638D2*
Y1939D1*
X23489Y1738D1*
X23274D1*
X21575Y20939D2*
Y20710D1*
X21589Y20667D1*
X21604Y20652D1*
X21632Y20638D1*
X21661D1*
X21690Y20652D1*
X21704Y20667D1*
X21719Y20710D1*
Y20738D1*
X21310Y20939D2*
X21454D1*
X21468Y20810D1*
X21454Y20824D1*
X21410Y20839D1*
X21368D1*
X21325Y20824D1*
X21296Y20796D1*
X21281Y20753D1*
Y20724D1*
X21296Y20681D1*
X21325Y20652D1*
X21368Y20638D1*
X21410D1*
X21454Y20652D1*
X21468Y20667D1*
X21482Y20695D1*
X32575Y1939D2*
Y1710D1*
X32589Y1667D1*
X32604Y1652D1*
X32632Y1638D1*
X32661D1*
X32690Y1652D1*
X32704Y1667D1*
X32719Y1710D1*
Y1738D1*
X32425Y1638D2*
X32281Y1939D1*
X32482D1*
X30575Y20939D2*
Y20710D1*
X30589Y20667D1*
X30604Y20652D1*
X30632Y20638D1*
X30661D1*
X30690Y20652D1*
X30704Y20667D1*
X30718Y20710D1*
Y20738D1*
X30411Y20939D2*
X30453Y20925D1*
X30468Y20896D1*
Y20867D1*
X30453Y20839D1*
X30425Y20824D1*
X30367Y20810D1*
X30324Y20796D1*
X30296Y20767D1*
X30282Y20738D1*
Y20695D1*
X30296Y20667D1*
X30310Y20652D1*
X30353Y20638D1*
X30411D1*
X30453Y20652D1*
X30468Y20667D1*
X30482Y20695D1*
Y20738D1*
X30468Y20767D1*
X30439Y20796D1*
X30396Y20810D1*
X30339Y20824D1*
X30310Y20839D1*
X30296Y20867D1*
Y20896D1*
X30310Y20925D1*
X30353Y20939D1*
X30411D1*
X7686Y11878D2*
X7987D1*
X7686Y11979D2*
Y11778D1*
X7843Y11685D2*
Y11556D1*
X7829Y11513D1*
X7815Y11499D1*
X7786Y11484D1*
X7743D1*
X7714Y11499D1*
X7700Y11513D1*
X7686Y11556D1*
Y11685D1*
X7987D1*
X7743Y11392D2*
X7729Y11363D1*
X7686Y11320D1*
X7987D1*
X7686Y11141D2*
X7700Y11184D1*
X7743Y11213D1*
X7815Y11227D1*
X7858D1*
X7930Y11213D1*
X7973Y11184D1*
X7987Y11141D1*
Y11112D1*
X7973Y11069D1*
X7930Y11041D1*
X7858Y11026D1*
X7815D1*
X7743Y11041D1*
X7700Y11069D1*
X7686Y11112D1*
Y11141D1*
X7743Y11041D2*
X7930Y11213D1*
X7743Y10934D2*
X7729Y10905D1*
X7686Y10862D1*
X7987D1*
X8811Y11880D2*
X9112D1*
X8811Y11981D2*
Y11780D1*
X8968Y11687D2*
Y11558D1*
X8954Y11515D1*
X8940Y11501D1*
X8911Y11486D1*
X8868D1*
X8839Y11501D1*
X8825Y11515D1*
X8811Y11558D1*
Y11687D1*
X9112D1*
X8868Y11394D2*
X8854Y11365D1*
X8811Y11322D1*
X9112D1*
X8811Y11143D2*
X8825Y11186D1*
X8868Y11215D1*
X8940Y11229D1*
X8983D1*
X9055Y11215D1*
X9098Y11186D1*
X9112Y11143D1*
Y11114D1*
X9098Y11071D1*
X9055Y11043D1*
X8983Y11028D1*
X8940D1*
X8868Y11043D1*
X8825Y11071D1*
X8811Y11114D1*
Y11143D1*
X8868Y11043D2*
X9055Y11215D1*
X8883Y10921D2*
X8868D1*
X8839Y10907D1*
X8825Y10892D1*
X8811Y10864D1*
Y10806D1*
X8825Y10778D1*
X8839Y10763D1*
X8868Y10749D1*
X8897D1*
X8926Y10763D1*
X8968Y10792D1*
X9112Y10936D1*
Y10735D1*
X9873Y11880D2*
X10175D1*
X9873Y11981D2*
Y11780D1*
X10031Y11687D2*
Y11558D1*
X10017Y11515D1*
X10002Y11501D1*
X9974Y11486D1*
X9931D1*
X9902Y11501D1*
X9887Y11515D1*
X9873Y11558D1*
Y11687D1*
X10175D1*
X9931Y11394D2*
X9916Y11365D1*
X9873Y11322D1*
X10175D1*
X9873Y11143D2*
X9888Y11186D1*
X9931Y11215D1*
X10002Y11229D1*
X10046D1*
X10117Y11215D1*
X10160Y11186D1*
X10175Y11143D1*
Y11114D1*
X10160Y11071D1*
X10117Y11043D1*
X10046Y11028D1*
X10002D1*
X9931Y11043D1*
X9888Y11071D1*
X9873Y11114D1*
Y11143D1*
X9931Y11043D2*
X10117Y11215D1*
X9873Y10907D2*
Y10749D1*
X9988Y10835D1*
Y10792D1*
X10002Y10763D1*
X10017Y10749D1*
X10060Y10735D1*
X10088D1*
X10131Y10749D1*
X10160Y10778D1*
X10175Y10821D1*
Y10864D1*
X10160Y10907D1*
X10146Y10921D1*
X10117Y10936D1*
X50748Y4630D2*
X51050D1*
X50748Y4731D2*
Y4530D1*
X50906Y4437D2*
Y4308D1*
X50892Y4265D1*
X50877Y4251D1*
X50849Y4236D1*
X50806D1*
X50777Y4251D1*
X50762Y4265D1*
X50748Y4308D1*
Y4437D1*
X51050D1*
X50820Y4129D2*
X50806D1*
X50777Y4115D1*
X50763Y4101D1*
X50749Y4072D1*
Y4014D1*
X50763Y3986D1*
X50777Y3972D1*
X50806Y3957D1*
X50834D1*
X50863Y3972D1*
X50906Y4000D1*
X51050Y4144D1*
Y3943D1*
X50749Y3764D2*
X50763Y3807D1*
X50806Y3836D1*
X50877Y3850D1*
X50921D1*
X50992Y3836D1*
X51035Y3807D1*
X51050Y3764D1*
Y3735D1*
X51035Y3692D1*
X50992Y3664D1*
X50921Y3649D1*
X50877D1*
X50806Y3664D1*
X50763Y3692D1*
X50749Y3735D1*
Y3764D1*
X50806Y3664D2*
X50992Y3836D1*
X50806Y3557D2*
X50791Y3528D1*
X50748Y3485D1*
X51050D1*
X45462Y16297D2*
Y15996D1*
X45563Y16297D2*
X45362D1*
X45269Y16139D2*
X45140D1*
X45097Y16154D1*
X45082Y16168D1*
X45068Y16197D1*
Y16240D1*
X45082Y16268D1*
X45097Y16283D1*
X45140Y16297D1*
X45269D1*
Y15996D1*
X44961Y16225D2*
Y16239D1*
X44947Y16268D1*
X44932Y16283D1*
X44904Y16297D1*
X44846D1*
X44818Y16283D1*
X44803Y16268D1*
X44789Y16239D1*
Y16211D1*
X44803Y16182D1*
X44832Y16139D1*
X44975Y15996D1*
X44775D1*
X44596Y16297D2*
X44639Y16283D1*
X44668Y16239D1*
X44682Y16168D1*
Y16125D1*
X44668Y16053D1*
X44639Y16010D1*
X44596Y15996D1*
X44567D1*
X44524Y16010D1*
X44496Y16053D1*
X44481Y16125D1*
Y16168D1*
X44496Y16239D1*
X44524Y16283D1*
X44567Y16297D1*
X44596D1*
X44496Y16239D2*
X44668Y16053D1*
X44374Y16225D2*
Y16239D1*
X44359Y16268D1*
X44345Y16283D1*
X44316Y16297D1*
X44259D1*
X44230Y16283D1*
X44216Y16268D1*
X44202Y16239D1*
Y16211D1*
X44216Y16182D1*
X44245Y16139D1*
X44388Y15996D1*
X44187D1*
X45337Y19047D2*
Y18746D1*
X45438Y19047D2*
X45237D1*
X45144Y18889D2*
X45015D1*
X44972Y18904D1*
X44957Y18918D1*
X44943Y18947D1*
Y18990D1*
X44957Y19018D1*
X44972Y19033D1*
X45015Y19047D1*
X45144D1*
Y18746D1*
X44836Y18975D2*
Y18989D1*
X44822Y19018D1*
X44807Y19033D1*
X44779Y19047D1*
X44721D1*
X44693Y19033D1*
X44678Y19018D1*
X44664Y18989D1*
Y18961D1*
X44678Y18932D1*
X44707Y18889D1*
X44850Y18746D1*
X44650D1*
X44471Y19047D2*
X44514Y19033D1*
X44543Y18989D1*
X44557Y18918D1*
Y18875D1*
X44543Y18803D1*
X44514Y18760D1*
X44471Y18746D1*
X44442D1*
X44399Y18760D1*
X44371Y18803D1*
X44356Y18875D1*
Y18918D1*
X44371Y18989D1*
X44399Y19033D1*
X44442Y19047D1*
X44471D1*
X44371Y18989D2*
X44543Y18803D1*
X44234Y19047D2*
X44077D1*
X44163Y18932D1*
X44120D1*
X44091Y18918D1*
X44077Y18904D1*
X44062Y18860D1*
Y18832D1*
X44077Y18789D1*
X44105Y18760D1*
X44149Y18746D1*
X44192D1*
X44234Y18760D1*
X44249Y18775D1*
X44263Y18803D1*
X47623Y4640D2*
X47925D1*
X47623Y4740D2*
Y4539D1*
X47781Y4446D2*
Y4317D1*
X47767Y4274D1*
X47752Y4260D1*
X47724Y4246D1*
X47681D1*
X47652Y4260D1*
X47637Y4274D1*
X47623Y4317D1*
Y4446D1*
X47925D1*
X47695Y4138D2*
X47681D1*
X47652Y4124D1*
X47638Y4110D1*
X47623Y4081D1*
Y4024D1*
X47638Y3995D1*
X47652Y3981D1*
X47681Y3966D1*
X47709D1*
X47738Y3981D1*
X47781Y4009D1*
X47925Y4153D1*
Y3952D1*
X47623Y3773D2*
X47638Y3816D1*
X47681Y3845D1*
X47752Y3859D1*
X47796D1*
X47867Y3845D1*
X47910Y3816D1*
X47925Y3773D1*
Y3745D1*
X47910Y3701D1*
X47867Y3673D1*
X47796Y3658D1*
X47752D1*
X47681Y3673D1*
X47638Y3701D1*
X47623Y3745D1*
Y3773D1*
X47681Y3673D2*
X47867Y3845D1*
X47925Y3422D2*
X47623D1*
X47824Y3566D1*
Y3350D1*
X48837Y17235D2*
Y16933D1*
X48938Y17235D2*
X48737D1*
X48644Y17077D2*
X48515D1*
X48472Y17091D1*
X48457Y17106D1*
X48443Y17134D1*
Y17177D1*
X48457Y17206D1*
X48472Y17220D1*
X48515Y17235D1*
X48644D1*
Y16933D1*
X48336Y17163D2*
Y17177D1*
X48322Y17206D1*
X48307Y17220D1*
X48279Y17234D1*
X48221D1*
X48193Y17220D1*
X48178Y17206D1*
X48164Y17177D1*
Y17148D1*
X48178Y17120D1*
X48207Y17077D1*
X48350Y16933D1*
X48150D1*
X47971Y17234D2*
X48014Y17220D1*
X48043Y17177D1*
X48057Y17105D1*
Y17062D1*
X48043Y16991D1*
X48014Y16947D1*
X47971Y16933D1*
X47942D1*
X47899Y16947D1*
X47871Y16991D1*
X47856Y17062D1*
Y17105D1*
X47871Y17177D1*
X47899Y17220D1*
X47942Y17234D1*
X47971D1*
X47871Y17177D2*
X48043Y16991D1*
X47591Y17234D2*
X47734D1*
X47749Y17105D1*
X47734Y17120D1*
X47691Y17134D1*
X47649D1*
X47605Y17120D1*
X47577Y17091D1*
X47562Y17048D1*
Y17019D1*
X47577Y16976D1*
X47605Y16947D1*
X47649Y16933D1*
X47691D1*
X47734Y16947D1*
X47749Y16962D1*
X47763Y16991D1*
X48830Y18172D2*
Y17871D1*
X48930Y18172D2*
X48729D1*
X48637Y18014D2*
X48507D1*
X48465Y18029D1*
X48450Y18043D1*
X48436Y18072D1*
Y18115D1*
X48450Y18143D1*
X48465Y18158D1*
X48507Y18172D1*
X48637D1*
Y17871D1*
X48329Y18100D2*
Y18114D1*
X48314Y18143D1*
X48300Y18158D1*
X48271Y18172D1*
X48214D1*
X48185Y18158D1*
X48171Y18143D1*
X48156Y18114D1*
Y18086D1*
X48171Y18057D1*
X48200Y18014D1*
X48343Y17871D1*
X48142D1*
X47963Y18172D2*
X48006Y18158D1*
X48035Y18114D1*
X48050Y18043D1*
Y18000D1*
X48035Y17928D1*
X48006Y17885D1*
X47963Y17871D1*
X47935D1*
X47892Y17885D1*
X47863Y17928D1*
X47849Y18000D1*
Y18043D1*
X47863Y18114D1*
X47892Y18158D1*
X47935Y18172D1*
X47963D1*
X47863Y18114D2*
X48035Y17928D1*
X47584Y18129D2*
X47598Y18158D1*
X47641Y18172D1*
X47670D1*
X47713Y18158D1*
X47742Y18114D1*
X47756Y18043D1*
Y17971D1*
X47742Y17914D1*
X47713Y17885D1*
X47670Y17871D1*
X47656D1*
X47613Y17885D1*
X47584Y17914D1*
X47570Y17957D1*
Y17971D1*
X47584Y18014D1*
X47613Y18043D1*
X47656Y18057D1*
X47670D1*
X47713Y18043D1*
X47742Y18014D1*
X47756Y17971D1*
X48748Y4632D2*
X49050D1*
X48748Y4733D2*
Y4532D1*
X48906Y4439D2*
Y4310D1*
X48892Y4267D1*
X48877Y4253D1*
X48849Y4238D1*
X48806D1*
X48777Y4253D1*
X48762Y4267D1*
X48748Y4310D1*
Y4439D1*
X49050D1*
X48820Y4131D2*
X48806D1*
X48777Y4117D1*
X48763Y4103D1*
X48749Y4074D1*
Y4016D1*
X48763Y3988D1*
X48777Y3974D1*
X48806Y3959D1*
X48834D1*
X48863Y3974D1*
X48906Y4002D1*
X49050Y4146D1*
Y3945D1*
X48749Y3766D2*
X48763Y3809D1*
X48806Y3838D1*
X48877Y3852D1*
X48921D1*
X48992Y3838D1*
X49035Y3809D1*
X49050Y3766D1*
Y3737D1*
X49035Y3694D1*
X48992Y3666D1*
X48921Y3651D1*
X48877D1*
X48806Y3666D1*
X48763Y3694D1*
X48749Y3737D1*
Y3766D1*
X48806Y3666D2*
X48992Y3838D1*
X49050Y3501D2*
X48748Y3358D1*
X48749Y3559D1*
X49748Y4695D2*
X50050D1*
X49748Y4795D2*
Y4594D1*
X49906Y4502D2*
Y4372D1*
X49892Y4330D1*
X49877Y4315D1*
X49849Y4301D1*
X49806D1*
X49777Y4315D1*
X49762Y4330D1*
X49748Y4372D1*
Y4502D1*
X50050D1*
X49820Y4194D2*
X49806D1*
X49777Y4179D1*
X49763Y4165D1*
X49749Y4136D1*
Y4079D1*
X49763Y4050D1*
X49777Y4036D1*
X49806Y4021D1*
X49834D1*
X49863Y4036D1*
X49906Y4065D1*
X50050Y4208D1*
Y4007D1*
X49749Y3828D2*
X49763Y3871D1*
X49806Y3900D1*
X49877Y3915D1*
X49921D1*
X49992Y3900D1*
X50035Y3871D1*
X50050Y3828D1*
Y3800D1*
X50035Y3757D1*
X49992Y3728D1*
X49921Y3714D1*
X49877D1*
X49806Y3728D1*
X49763Y3757D1*
X49749Y3800D1*
Y3828D1*
X49806Y3728D2*
X49992Y3900D1*
X49749Y3549D2*
X49763Y3592D1*
X49791Y3607D1*
X49820D1*
X49849Y3592D1*
X49863Y3564D1*
X49877Y3506D1*
X49892Y3463D1*
X49921Y3435D1*
X49949Y3420D1*
X49992D1*
X50021Y3435D1*
X50035Y3449D1*
X50050Y3492D1*
Y3549D1*
X50035Y3592D1*
X50021Y3607D1*
X49992Y3621D1*
X49949D1*
X49921Y3607D1*
X49892Y3578D1*
X49877Y3535D1*
X49863Y3478D1*
X49849Y3449D1*
X49820Y3435D1*
X49791D1*
X49763Y3449D1*
X49748Y3492D1*
X49749Y3549D1*
X31523Y11735D2*
Y11433D1*
X31623Y11735D2*
X31422D1*
X31330Y11577D2*
X31200D1*
X31157Y11591D1*
X31143Y11606D1*
X31129Y11634D1*
Y11677D1*
X31143Y11706D1*
X31157Y11720D1*
X31200Y11735D1*
X31330D1*
Y11433D1*
X31007Y11734D2*
X30850D1*
X30936Y11620D1*
X30892D1*
X30864Y11605D1*
X30850Y11591D1*
X30835Y11548D1*
Y11519D1*
X30850Y11476D1*
X30878Y11447D1*
X30921Y11433D1*
X30964D1*
X31007Y11447D1*
X31021Y11462D1*
X31036Y11491D1*
X30656Y11734D2*
X30699Y11720D1*
X30728Y11677D1*
X30742Y11605D1*
Y11562D1*
X30728Y11491D1*
X30699Y11447D1*
X30656Y11433D1*
X30628D1*
X30585Y11447D1*
X30556Y11491D1*
X30541Y11562D1*
Y11605D1*
X30556Y11677D1*
X30585Y11720D1*
X30628Y11734D1*
X30656D1*
X30556Y11677D2*
X30728Y11491D1*
X30449Y11677D2*
X30420Y11692D1*
X30377Y11734D1*
Y11433D1*
X31587Y12735D2*
Y12433D1*
X31688Y12735D2*
X31487D1*
X31394Y12577D2*
X31265D1*
X31222Y12591D1*
X31207Y12606D1*
X31193Y12634D1*
Y12677D1*
X31207Y12706D1*
X31222Y12720D1*
X31265Y12735D1*
X31394D1*
Y12433D1*
X31072Y12734D2*
X30914D1*
X31000Y12620D1*
X30957D1*
X30928Y12605D1*
X30914Y12591D1*
X30900Y12548D1*
Y12519D1*
X30914Y12476D1*
X30943Y12447D1*
X30986Y12433D1*
X31029D1*
X31072Y12447D1*
X31086Y12462D1*
X31100Y12491D1*
X30721Y12734D2*
X30764Y12720D1*
X30793Y12677D1*
X30807Y12605D1*
Y12562D1*
X30793Y12491D1*
X30764Y12447D1*
X30721Y12433D1*
X30692D1*
X30649Y12447D1*
X30621Y12491D1*
X30606Y12562D1*
Y12605D1*
X30621Y12677D1*
X30649Y12720D1*
X30692Y12734D1*
X30721D1*
X30621Y12677D2*
X30793Y12491D1*
X30499Y12663D2*
Y12677D1*
X30484Y12706D1*
X30470Y12720D1*
X30441Y12734D1*
X30384D1*
X30355Y12720D1*
X30341Y12706D1*
X30327Y12677D1*
Y12648D1*
X30341Y12620D1*
X30370Y12577D1*
X30513Y12433D1*
X30312D1*
X31587Y13672D2*
Y13371D1*
X31688Y13672D2*
X31487D1*
X31394Y13514D2*
X31265D1*
X31222Y13529D1*
X31207Y13543D1*
X31193Y13572D1*
Y13615D1*
X31207Y13643D1*
X31222Y13658D1*
X31265Y13672D1*
X31394D1*
Y13371D1*
X31072Y13672D2*
X30914D1*
X31000Y13557D1*
X30957D1*
X30928Y13543D1*
X30914Y13529D1*
X30900Y13485D1*
Y13457D1*
X30914Y13414D1*
X30943Y13385D1*
X30986Y13371D1*
X31029D1*
X31072Y13385D1*
X31086Y13400D1*
X31100Y13428D1*
X30721Y13672D2*
X30764Y13658D1*
X30793Y13614D1*
X30807Y13543D1*
Y13500D1*
X30793Y13428D1*
X30764Y13385D1*
X30721Y13371D1*
X30692D1*
X30649Y13385D1*
X30621Y13428D1*
X30606Y13500D1*
Y13543D1*
X30621Y13614D1*
X30649Y13658D1*
X30692Y13672D1*
X30721D1*
X30621Y13614D2*
X30793Y13428D1*
X30484Y13672D2*
X30327D1*
X30413Y13557D1*
X30370D1*
X30341Y13543D1*
X30327Y13529D1*
X30312Y13485D1*
Y13457D1*
X30327Y13414D1*
X30355Y13385D1*
X30399Y13371D1*
X30442D1*
X30484Y13385D1*
X30499Y13400D1*
X30513Y13428D1*
X31594Y14610D2*
Y14308D1*
X31695Y14610D2*
X31494D1*
X31401Y14452D2*
X31272D1*
X31229Y14466D1*
X31215Y14481D1*
X31200Y14509D1*
Y14552D1*
X31215Y14581D1*
X31229Y14595D1*
X31272Y14610D1*
X31401D1*
Y14308D1*
X31079Y14609D2*
X30921D1*
X31007Y14495D1*
X30964D1*
X30936Y14480D1*
X30921Y14466D1*
X30907Y14423D1*
Y14394D1*
X30921Y14351D1*
X30950Y14322D1*
X30993Y14308D1*
X31036D1*
X31079Y14322D1*
X31093Y14337D1*
X31108Y14366D1*
X30728Y14609D2*
X30771Y14595D1*
X30800Y14552D1*
X30814Y14480D1*
Y14437D1*
X30800Y14366D1*
X30771Y14322D1*
X30728Y14308D1*
X30699D1*
X30656Y14322D1*
X30628Y14366D1*
X30613Y14437D1*
Y14480D1*
X30628Y14552D1*
X30656Y14595D1*
X30699Y14609D1*
X30728D1*
X30628Y14552D2*
X30800Y14366D1*
X30377Y14308D2*
Y14609D1*
X30520Y14409D1*
X30305D1*
X31123Y4388D2*
X31425D1*
X31123Y4488D2*
Y4287D1*
X31281Y4194D2*
Y4065D1*
X31267Y4022D1*
X31252Y4008D1*
X31224Y3994D1*
X31181D1*
X31152Y4008D1*
X31137Y4022D1*
X31123Y4065D1*
Y4194D1*
X31425D1*
Y3757D2*
X31123D1*
X31324Y3901D1*
Y3686D1*
X31123Y3507D2*
X31138Y3550D1*
X31181Y3579D1*
X31252Y3593D1*
X31296D1*
X31367Y3579D1*
X31410Y3550D1*
X31425Y3507D1*
Y3478D1*
X31410Y3435D1*
X31367Y3407D1*
X31296Y3392D1*
X31252D1*
X31181Y3407D1*
X31138Y3435D1*
X31123Y3478D1*
Y3507D1*
X31181Y3407D2*
X31367Y3579D1*
X31181Y3299D2*
X31166Y3271D1*
X31123Y3227D1*
X31425D1*
X28498Y4452D2*
X28800D1*
X28498Y4553D2*
Y4352D1*
X28656Y4259D2*
Y4130D1*
X28642Y4087D1*
X28627Y4072D1*
X28599Y4058D1*
X28556D1*
X28527Y4072D1*
X28512Y4087D1*
X28498Y4130D1*
Y4259D1*
X28800D1*
Y3822D2*
X28499D1*
X28699Y3965D1*
Y3750D1*
X28499Y3571D2*
X28513Y3614D1*
X28556Y3643D1*
X28627Y3658D1*
X28671D1*
X28742Y3643D1*
X28785Y3614D1*
X28800Y3571D1*
Y3543D1*
X28785Y3500D1*
X28742Y3471D1*
X28671Y3457D1*
X28627D1*
X28556Y3471D1*
X28513Y3500D1*
X28499Y3543D1*
Y3571D1*
X28556Y3471D2*
X28742Y3643D1*
X28570Y3349D2*
X28556D1*
X28527Y3335D1*
X28513Y3321D1*
X28499Y3292D1*
X28498Y3235D1*
X28513Y3206D1*
X28527Y3192D1*
X28556Y3177D1*
X28584D1*
X28613Y3192D1*
X28656Y3220D1*
X28800Y3364D1*
Y3163D1*
X2811Y10568D2*
X3112D1*
X2811Y10668D2*
Y10467D1*
X2969Y10375D2*
Y10246D1*
X2954Y10203D1*
X2940Y10188D1*
X2911Y10174D1*
X2868D1*
X2840Y10188D1*
X2825Y10203D1*
X2811Y10246D1*
Y10375D1*
X3112D1*
X2811Y9909D2*
Y10052D1*
X2940Y10067D1*
X2926Y10052D1*
X2911Y10009D1*
Y9967D1*
X2926Y9923D1*
X2954Y9895D1*
X2997Y9880D1*
X3026D1*
X3069Y9895D1*
X3098Y9923D1*
X3112Y9967D1*
Y10009D1*
X3098Y10052D1*
X3083Y10067D1*
X3055Y10081D1*
X2811Y9701D2*
X2825Y9745D1*
X2868Y9773D1*
X2940Y9788D1*
X2983D1*
X3055Y9773D1*
X3098Y9745D1*
X3112Y9701D1*
Y9673D1*
X3098Y9630D1*
X3055Y9601D1*
X2983Y9587D1*
X2940D1*
X2868Y9601D1*
X2825Y9630D1*
X2811Y9673D1*
Y9701D1*
X2868Y9601D2*
X3055Y9773D1*
X2868Y9494D2*
X2854Y9465D1*
X2811Y9422D1*
X3112D1*
X5123Y10632D2*
X5425D1*
X5123Y10733D2*
Y10532D1*
X5281Y10439D2*
Y10310D1*
X5267Y10267D1*
X5252Y10253D1*
X5224Y10238D1*
X5181D1*
X5152Y10253D1*
X5137Y10267D1*
X5123Y10310D1*
Y10439D1*
X5425D1*
X5124Y9974D2*
Y10117D1*
X5252Y10131D1*
X5238Y10117D1*
X5224Y10074D1*
Y10031D1*
X5238Y9988D1*
X5267Y9959D1*
X5310Y9945D1*
X5338D1*
X5381Y9959D1*
X5410Y9988D1*
X5425Y10031D1*
Y10074D1*
X5410Y10117D1*
X5396Y10131D1*
X5367Y10146D1*
X5124Y9766D2*
X5138Y9809D1*
X5181Y9838D1*
X5252Y9852D1*
X5296D1*
X5367Y9838D1*
X5410Y9809D1*
X5425Y9766D1*
Y9737D1*
X5410Y9694D1*
X5367Y9666D1*
X5296Y9651D1*
X5252D1*
X5181Y9666D1*
X5138Y9694D1*
X5124Y9737D1*
Y9766D1*
X5181Y9666D2*
X5367Y9838D1*
X5195Y9544D2*
X5181D1*
X5152Y9530D1*
X5138Y9515D1*
X5124Y9487D1*
X5123Y9429D1*
X5138Y9401D1*
X5152Y9386D1*
X5181Y9372D1*
X5209D1*
X5238Y9386D1*
X5281Y9415D1*
X5425Y9559D1*
Y9358D1*
X34650Y3610D2*
Y3308D1*
X34750Y3610D2*
X34549D1*
X34457Y3452D2*
X34327D1*
X34284Y3466D1*
X34270Y3481D1*
X34256Y3509D1*
Y3552D1*
X34270Y3581D1*
X34284Y3595D1*
X34327Y3610D1*
X34457D1*
Y3308D1*
X33991Y3609D2*
X34134D1*
X34148Y3480D1*
X34134Y3495D1*
X34091Y3509D1*
X34048D1*
X34005Y3495D1*
X33976Y3466D1*
X33962Y3423D1*
Y3394D1*
X33976Y3351D1*
X34005Y3322D1*
X34048Y3308D1*
X34091D1*
X34134Y3322D1*
X34148Y3337D1*
X34163Y3366D1*
X33783Y3609D2*
X33826Y3595D1*
X33855Y3552D1*
X33869Y3480D1*
Y3437D1*
X33855Y3366D1*
X33826Y3322D1*
X33783Y3308D1*
X33755D1*
X33712Y3322D1*
X33683Y3366D1*
X33668Y3437D1*
Y3480D1*
X33683Y3552D1*
X33712Y3595D1*
X33755Y3609D1*
X33783D1*
X33683Y3552D2*
X33855Y3366D1*
X33547Y3609D2*
X33389D1*
X33475Y3495D1*
X33432D1*
X33404Y3480D1*
X33389Y3466D1*
X33375Y3423D1*
Y3394D1*
X33389Y3351D1*
X33418Y3322D1*
X33461Y3308D1*
X33504D1*
X33547Y3322D1*
X33561Y3337D1*
X33576Y3366D1*
M02*
