G04 DipTrace 2.4.0.2*
%INBottom.gbr*%
%MOIN*%
%ADD13C,0.03*%
%ADD15C,0.013*%
%ADD22C,0.01*%
%ADD23C,0.02*%
%ADD38R,0.0669X0.0669*%
%ADD39C,0.0669*%
%ADD40R,0.0709X0.0709*%
%ADD41C,0.0709*%
%ADD42R,0.063X0.063*%
%ADD43C,0.063*%
%ADD44R,0.0748X0.0984*%
%ADD45O,0.0748X0.0984*%
%ADD49R,0.0748X0.0748*%
%ADD50C,0.0748*%
%ADD52C,0.0591*%
%ADD57C,0.024*%
%FSLAX44Y44*%
G04*
G70*
G90*
G75*
G01*
%LNBottom*%
%LPD*%
X1500Y18250D2*
D13*
X1187Y17937D1*
Y5812D1*
X1937Y5062D1*
X4062D1*
Y3875D1*
X625D1*
Y750D1*
X937Y437D1*
X10062D1*
X22187Y2500D2*
X19500D1*
X18000Y1000D1*
X7937Y12625D2*
Y13875D1*
D15*
Y17688D1*
X8812Y18563D1*
X17000D1*
Y20750D1*
X17250Y21000D1*
X38875D1*
X39000Y20875D1*
Y13500D1*
X44375D1*
X45750Y12125D1*
Y11250D1*
X15821Y11813D2*
Y11187D1*
X11187D1*
Y4312D2*
X17125D1*
X14437Y11813D2*
D13*
X10500D1*
X10312Y11625D1*
X8250D1*
X7937Y11938D1*
Y12625D1*
X43000Y20000D2*
D15*
Y20937D1*
X54437D1*
Y437D1*
X49625D1*
X15000D1*
Y1000D1*
X49625Y1750D2*
Y437D1*
X9937Y12625D2*
D13*
Y13875D1*
D15*
Y17937D1*
X10250Y18250D1*
X17437D1*
Y20625D1*
X17562Y20750D1*
X38625D1*
Y12500D1*
X44812D1*
X45312Y12000D1*
X17000Y14562D2*
D13*
X10625D1*
X9937Y13875D1*
X38000Y6000D2*
D15*
X39500Y4500D1*
X41500D1*
X42000Y4000D1*
X44500Y6000D2*
X44000Y6500D1*
X37500D1*
X37000Y6000D1*
X48750Y6500D2*
Y5500D1*
X49750Y6500D2*
Y5500D1*
X47750Y6500D2*
Y5500D1*
X8937Y12625D2*
Y13875D1*
X49250Y7937D2*
X47500D1*
X49250D2*
X51063D1*
X49250D2*
X49187Y8000D1*
Y15188D1*
X49000Y4687D2*
X46500D1*
Y5062D1*
X11400Y20000D2*
X10900Y20500D1*
X1187D1*
X812Y20125D1*
Y5438D1*
X1625Y4625D1*
X2750D1*
X2000Y8500D2*
D13*
X3000D1*
X48062Y2250D2*
D15*
X47375Y2937D1*
X46500D1*
X48250Y7250D2*
X50250D1*
X50750Y5500D2*
Y6500D1*
X30500Y4500D2*
Y3500D1*
X20500Y8312D2*
X22937D1*
X20500Y5937D2*
X22937D1*
X29516Y4500D2*
X29500Y4484D1*
Y3500D1*
X12400Y20000D2*
X11650Y20750D1*
X1000D1*
X562Y20312D1*
Y5313D1*
X1500Y4375D1*
X3500D1*
Y4625D1*
X5250Y8500D2*
D13*
X4250D1*
X44500Y5000D2*
D15*
X43000Y3500D1*
X41250D1*
X41000Y3250D1*
Y3000D1*
X28500Y13500D2*
D13*
X29750D1*
X28500Y14500D2*
X29750D1*
X28500Y12500D2*
X29750D1*
X28500Y11500D2*
X29750D1*
X32750Y4500D2*
D15*
Y3500D1*
X45000Y17000D2*
X46000D1*
X47312Y10750D2*
Y15125D1*
X46000Y17984D2*
X45984Y18000D1*
X45000D1*
X49500Y17000D2*
X50500D1*
X51312Y11000D2*
Y15063D1*
X49500Y18000D2*
X49516Y17984D1*
X50500D1*
X33500Y16500D2*
X34500D1*
X37000Y19000D1*
X33500Y9500D2*
X34187Y10187D1*
Y11437D1*
X36750Y14000D1*
X37000D1*
X32500Y11750D2*
X32750Y12000D1*
X34000D1*
X37000Y15000D1*
X32500Y12750D2*
X32750Y13000D1*
X33812D1*
X36812Y16000D1*
X37000D1*
X32500Y13750D2*
X32750Y14000D1*
X33812D1*
X36812Y17000D1*
X37000D1*
X33500Y15500D2*
X34437D1*
X36937Y18000D1*
X37000D1*
D57*
X10062Y437D3*
X22187Y2500D3*
X45750Y11250D3*
X15821Y11813D3*
X11187Y11187D3*
Y4312D3*
X17125D3*
X14437Y11813D3*
X49625Y1750D3*
X45312Y12000D3*
X17000Y14562D3*
X49250Y7937D3*
X47500D3*
X51063D3*
X49250D3*
X49187Y15188D3*
X49250Y7937D3*
X49000Y4687D3*
X46500Y5062D3*
X2750Y4625D3*
X48062Y2250D3*
X46500Y2937D3*
X48250Y7250D3*
X50250D3*
X20500Y8312D3*
X22937D3*
X20500Y5937D3*
X22937D3*
X3500Y4625D3*
X47312Y10750D3*
Y15125D3*
X51312Y11000D3*
Y15063D3*
X32500Y11750D3*
Y12750D3*
Y13750D3*
X23625Y17937D3*
Y17437D3*
Y16937D3*
Y16437D3*
Y15937D3*
Y15437D3*
Y14937D3*
Y14437D3*
Y13937D3*
Y13437D3*
Y12937D3*
Y12437D3*
Y11937D3*
Y11437D3*
Y10937D3*
Y10437D3*
Y9937D3*
Y9437D3*
Y8937D3*
Y8437D3*
Y7937D3*
Y7437D3*
Y6937D3*
Y6437D3*
Y5937D3*
Y5437D3*
Y4937D3*
Y4437D3*
Y3937D3*
Y3437D3*
X24125Y17937D3*
Y17437D3*
Y16937D3*
Y16437D3*
Y15937D3*
Y15437D3*
Y14937D3*
Y14437D3*
Y13937D3*
Y13437D3*
Y12937D3*
Y12437D3*
Y11937D3*
Y11437D3*
Y10937D3*
Y10437D3*
Y9937D3*
Y9437D3*
Y8937D3*
Y8437D3*
Y7937D3*
Y7437D3*
Y6937D3*
X6062Y19937D3*
Y19437D3*
Y18937D3*
Y18437D3*
Y17937D3*
Y17437D3*
Y16937D3*
Y16437D3*
Y15937D3*
Y15437D3*
Y14937D3*
Y14437D3*
Y13937D3*
Y13437D3*
Y12937D3*
Y12437D3*
Y11937D3*
Y11437D3*
Y10937D3*
Y10437D3*
Y9937D3*
Y9437D3*
Y8937D3*
Y8437D3*
Y7937D3*
Y7437D3*
Y6937D3*
Y6437D3*
Y5937D3*
Y5437D3*
Y4937D3*
Y4437D3*
X15062Y7500D3*
X15437D3*
X15062Y7250D3*
X15437D3*
X15062Y7000D3*
X15437D3*
X15062Y6750D3*
X15437D3*
X24125Y6437D3*
Y5937D3*
Y5437D3*
Y4937D3*
Y4437D3*
Y3937D3*
Y3437D3*
X24625Y17937D3*
Y17437D3*
Y16937D3*
Y16437D3*
Y15937D3*
Y15437D3*
Y14937D3*
Y14437D3*
Y13937D3*
Y13437D3*
Y12937D3*
Y12437D3*
Y11937D3*
Y11437D3*
Y10937D3*
X43062Y11938D3*
Y11438D3*
Y10938D3*
Y10438D3*
Y9938D3*
Y9438D3*
Y8938D3*
Y8438D3*
Y7938D3*
Y7438D3*
X43562Y11938D3*
X24625Y10437D3*
X43562Y11438D3*
X25062Y2000D3*
X25562D3*
X26062D3*
X26562D3*
X27062D3*
X27562D3*
X28062D3*
X28562D3*
X29062D3*
X29562D3*
X30062D3*
X30562D3*
X31062D3*
X31562D3*
X32062D3*
X24625Y9937D3*
X33062Y2000D3*
X33562D3*
X34062D3*
X34562D3*
X35062D3*
X35562D3*
X36062D3*
X36562D3*
X37062D3*
X37562D3*
X8937Y17313D3*
Y16813D3*
Y16312D3*
Y15813D3*
Y15313D3*
X24625Y9437D3*
X43562Y10938D3*
Y10438D3*
Y9938D3*
X6625Y18938D3*
X11625Y17250D3*
X7125Y18938D3*
X12125Y17250D3*
X7625Y18938D3*
X12625Y17250D3*
X8125Y18938D3*
X13125Y17250D3*
X8625Y18938D3*
X13625Y17250D3*
X9125Y18938D3*
X14125Y17250D3*
X9625Y18938D3*
X14625Y17250D3*
X10125Y18938D3*
X15125Y17250D3*
X10625Y18938D3*
X15625Y17250D3*
X11125Y18938D3*
X16125Y17250D3*
X11625Y18938D3*
X16625Y17250D3*
X12125Y18938D3*
X17125Y17250D3*
X12625Y18938D3*
X17625Y17250D3*
X13125Y18938D3*
X18125Y17250D3*
X13625Y18938D3*
X18625Y17250D3*
X14125Y18938D3*
X19125Y17250D3*
X14625Y18938D3*
X19625Y17250D3*
X15125Y18938D3*
X20125Y17250D3*
X15625Y18938D3*
X20625Y17250D3*
X16125Y18938D3*
X21125Y17250D3*
X16625Y18938D3*
X21625Y17250D3*
X53375Y20187D3*
Y19687D3*
Y19187D3*
Y18687D3*
X18125Y18938D3*
Y18438D3*
X18625Y18938D3*
Y18438D3*
X19125Y18938D3*
Y18438D3*
X19625Y18938D3*
Y18438D3*
X20125Y18938D3*
Y18438D3*
X20625Y18938D3*
Y18438D3*
X21125Y18938D3*
Y18438D3*
X21625Y18938D3*
Y18438D3*
X22125Y18938D3*
Y18438D3*
X22625Y18938D3*
Y18438D3*
X23125Y18938D3*
Y18438D3*
X23625Y18938D3*
Y18438D3*
X24125Y18938D3*
Y18438D3*
X24625Y18938D3*
Y18438D3*
X25125Y18938D3*
Y18438D3*
X25625Y18938D3*
Y18438D3*
X26125Y18938D3*
Y18438D3*
X26625Y18938D3*
Y18438D3*
X27125Y18938D3*
Y18438D3*
X27625Y18938D3*
Y18438D3*
X28125Y18938D3*
Y18438D3*
X28625Y18938D3*
Y18438D3*
X29125Y18938D3*
Y18438D3*
X29625Y18938D3*
Y18438D3*
X30125Y18938D3*
Y18438D3*
X53375Y18187D3*
Y17687D3*
Y17187D3*
Y16687D3*
Y16187D3*
Y15687D3*
Y15187D3*
Y14687D3*
Y14187D3*
Y13687D3*
Y13187D3*
Y12687D3*
Y12187D3*
Y11687D3*
Y11187D3*
Y10687D3*
Y10187D3*
Y9687D3*
Y9187D3*
Y8687D3*
Y8187D3*
Y7687D3*
Y7187D3*
Y6687D3*
Y6187D3*
Y5687D3*
Y5187D3*
Y4687D3*
Y4187D3*
Y3687D3*
Y3187D3*
Y2687D3*
Y2187D3*
Y1687D3*
Y1187D3*
X53875Y20187D3*
Y19687D3*
Y19187D3*
Y18687D3*
Y18187D3*
Y17687D3*
Y17187D3*
Y16687D3*
Y16187D3*
Y15687D3*
Y15187D3*
Y14687D3*
Y14187D3*
Y13687D3*
Y13187D3*
Y12687D3*
Y12187D3*
Y11687D3*
Y11187D3*
Y10687D3*
Y10187D3*
Y9687D3*
Y9187D3*
Y8687D3*
Y8187D3*
Y7687D3*
Y7187D3*
Y6687D3*
Y6187D3*
Y5687D3*
Y5187D3*
Y4687D3*
Y4187D3*
Y3687D3*
Y3187D3*
Y2687D3*
Y2187D3*
Y1687D3*
Y1187D3*
X36062Y10500D3*
Y10000D3*
Y9500D3*
Y9000D3*
Y8500D3*
Y8000D3*
Y7500D3*
Y7000D3*
Y6500D3*
Y6000D3*
Y5500D3*
Y5000D3*
Y4500D3*
Y4000D3*
Y3500D3*
Y3000D3*
Y2500D3*
X43562Y9438D3*
Y8938D3*
Y8438D3*
Y7938D3*
Y7438D3*
X44062Y11938D3*
Y11438D3*
Y10938D3*
Y10438D3*
Y9938D3*
Y9438D3*
Y8938D3*
Y8438D3*
Y7938D3*
Y7438D3*
X44562Y11938D3*
Y11438D3*
Y10938D3*
Y10438D3*
Y9938D3*
Y9438D3*
Y8938D3*
Y8438D3*
Y7938D3*
Y7438D3*
X24625Y8937D3*
Y8437D3*
Y7937D3*
Y7437D3*
Y6937D3*
Y6437D3*
Y5937D3*
Y5437D3*
X37062Y1000D3*
X37562D3*
X38062D3*
X38562D3*
X39062D3*
X39562D3*
X40062D3*
X40562D3*
X41062D3*
X41562D3*
X42062D3*
X42562D3*
X43062D3*
X43562D3*
X44062D3*
X44562D3*
X45062D3*
X45562D3*
X46062D3*
X46562D3*
X47062D3*
X47562D3*
X48062D3*
X48562D3*
X49062D3*
X44375Y20187D3*
X50062Y1000D3*
X50562D3*
X51062D3*
X51562D3*
X52062D3*
X52562D3*
X53062D3*
X44875Y20187D3*
X45375D3*
X45875D3*
X46375D3*
X46875D3*
X47375D3*
X47875D3*
X48375D3*
X48875D3*
X49375D3*
X49875D3*
X50375D3*
X50875D3*
X51375D3*
X51875D3*
X52375D3*
X52875D3*
X24625Y4937D3*
Y4437D3*
Y3937D3*
Y3437D3*
X14250Y9437D3*
X14750D3*
X15250D3*
X15750D3*
X16250D3*
X20750Y11000D3*
Y10500D3*
Y10000D3*
X27750Y8437D3*
Y7937D3*
X28250Y8437D3*
Y7937D3*
X28750Y8437D3*
Y7937D3*
X29250Y8437D3*
Y7937D3*
X29750Y8437D3*
Y7937D3*
X30250Y8437D3*
Y7937D3*
X30750Y8437D3*
Y7937D3*
X31250Y8437D3*
Y7937D3*
X31750Y8437D3*
Y7937D3*
X32250Y8437D3*
Y7937D3*
X32750Y8437D3*
Y7937D3*
X33250Y8437D3*
Y7937D3*
X33750Y8437D3*
Y7937D3*
X31000Y18938D3*
Y18438D3*
X31500Y18938D3*
Y18438D3*
X32000Y18938D3*
Y18438D3*
X32500Y18938D3*
Y18438D3*
X33000Y18938D3*
Y18438D3*
X33500Y18938D3*
Y18438D3*
X34000Y18938D3*
Y18438D3*
X20750Y9500D3*
Y9000D3*
X21250Y11000D3*
Y10500D3*
Y10000D3*
Y9500D3*
Y9000D3*
X8500Y2625D3*
X9000D3*
X9500D3*
X10000D3*
X10500D3*
X11000D3*
X11500D3*
X12000D3*
X12500D3*
X13000D3*
X13500D3*
X14000D3*
X14500D3*
X15000D3*
X15500D3*
X16000D3*
X16500D3*
X17000D3*
X17500D3*
X18000D3*
X18500D3*
X18625Y16750D3*
Y16250D3*
Y15750D3*
Y15250D3*
Y14750D3*
Y14250D3*
Y13750D3*
Y13250D3*
Y12750D3*
Y12250D3*
Y11750D3*
X12125Y16750D3*
Y16250D3*
Y15750D3*
Y15250D3*
X13187Y3687D3*
X13687D3*
X12125Y13750D3*
Y13250D3*
Y12750D3*
Y12250D3*
Y10750D3*
Y10250D3*
Y9750D3*
Y9250D3*
Y8750D3*
Y8250D3*
Y7750D3*
X14187Y3687D3*
X14687D3*
X15187D3*
X15687D3*
X16187D3*
X16687D3*
X17187D3*
X17687D3*
X18187D3*
X18687D3*
X19187D3*
X19687D3*
X39248Y20851D2*
D22*
X42752D1*
X39248Y20753D2*
X42752D1*
X39248Y20654D2*
X42752D1*
X43248D2*
X54189D1*
X39248Y20555D2*
X42752D1*
X43248D2*
X54189D1*
X18519Y20457D2*
X18766D1*
X19234D2*
X19766D1*
X20234D2*
X20766D1*
X21234D2*
X21766D1*
X22234D2*
X22766D1*
X23234D2*
X23766D1*
X24234D2*
X24766D1*
X25234D2*
X26481D1*
X27519D2*
X27766D1*
X28234D2*
X28766D1*
X29234D2*
X29766D1*
X30234D2*
X30766D1*
X31234D2*
X31766D1*
X32234D2*
X32766D1*
X33234D2*
X33766D1*
X34234D2*
X36766D1*
X37234D2*
X37481D1*
X39248D2*
X40766D1*
X41234D2*
X41766D1*
X42234D2*
X42752D1*
X43248D2*
X54189D1*
X18519Y20358D2*
X18628D1*
X19372D2*
X19628D1*
X20372D2*
X20628D1*
X21372D2*
X21628D1*
X22372D2*
X22628D1*
X23372D2*
X23628D1*
X24372D2*
X24628D1*
X25372D2*
X26481D1*
X27519D2*
X27628D1*
X28372D2*
X28628D1*
X29372D2*
X29628D1*
X30372D2*
X30628D1*
X31372D2*
X31628D1*
X32372D2*
X32628D1*
X33372D2*
X33628D1*
X34372D2*
X36628D1*
X37372D2*
X37481D1*
X39248D2*
X40628D1*
X41372D2*
X41628D1*
X42372D2*
X42628D1*
X43372D2*
X54189D1*
X1295Y20259D2*
X8881D1*
X19448D2*
X19552D1*
X20448D2*
X20552D1*
X21448D2*
X21552D1*
X22448D2*
X22552D1*
X23448D2*
X23552D1*
X24448D2*
X24552D1*
X25448D2*
X26481D1*
X28448D2*
X28552D1*
X29448D2*
X29552D1*
X30448D2*
X30552D1*
X31448D2*
X31552D1*
X32448D2*
X32552D1*
X33448D2*
X33552D1*
X34448D2*
X36552D1*
X39248D2*
X40552D1*
X41448D2*
X41552D1*
X42448D2*
X42552D1*
X43448D2*
X54189D1*
X1195Y20160D2*
X8881D1*
X25492D2*
X26481D1*
X34492D2*
X36508D1*
X39248D2*
X40508D1*
X43492D2*
X54189D1*
X1097Y20062D2*
X8881D1*
X25515D2*
X26481D1*
X34515D2*
X36485D1*
X39248D2*
X40485D1*
X43515D2*
X54189D1*
X1061Y19963D2*
X8881D1*
X25517D2*
X26481D1*
X34517D2*
X36483D1*
X39248D2*
X40483D1*
X43517D2*
X54189D1*
X1061Y19864D2*
X8881D1*
X25500D2*
X26481D1*
X34500D2*
X36500D1*
X39248D2*
X40500D1*
X43500D2*
X54189D1*
X1061Y19766D2*
X8881D1*
X10861D2*
X10938D1*
X11861D2*
X11938D1*
X12861D2*
X12938D1*
X13861D2*
X13938D1*
X14861D2*
X14938D1*
X15861D2*
X15938D1*
X19461D2*
X19538D1*
X20461D2*
X20538D1*
X21461D2*
X21538D1*
X22461D2*
X22538D1*
X23461D2*
X23538D1*
X24461D2*
X24538D1*
X25461D2*
X26481D1*
X28461D2*
X28538D1*
X29461D2*
X29538D1*
X30461D2*
X30538D1*
X31461D2*
X31538D1*
X32461D2*
X32538D1*
X33461D2*
X33538D1*
X34461D2*
X36539D1*
X39248D2*
X40539D1*
X43461D2*
X54189D1*
X1061Y19667D2*
X8881D1*
X9919D2*
X10006D1*
X10794D2*
X11006D1*
X11794D2*
X12006D1*
X12794D2*
X13006D1*
X13794D2*
X14006D1*
X14794D2*
X15006D1*
X15794D2*
X16006D1*
X18519D2*
X18606D1*
X19394D2*
X19606D1*
X20394D2*
X20606D1*
X21394D2*
X21606D1*
X22394D2*
X22606D1*
X23394D2*
X23606D1*
X24394D2*
X24606D1*
X25394D2*
X26481D1*
X27519D2*
X27606D1*
X28394D2*
X28606D1*
X29394D2*
X29606D1*
X30394D2*
X30606D1*
X31394D2*
X31606D1*
X32394D2*
X32606D1*
X33394D2*
X33606D1*
X34394D2*
X36606D1*
X39248D2*
X40606D1*
X43394D2*
X54189D1*
X1061Y19568D2*
X8881D1*
X9919D2*
X10120D1*
X10680D2*
X11120D1*
X11680D2*
X12120D1*
X12680D2*
X13120D1*
X13680D2*
X14120D1*
X14680D2*
X15120D1*
X15680D2*
X16120D1*
X16680D2*
X16752D1*
X18519D2*
X18720D1*
X19280D2*
X19720D1*
X20280D2*
X20720D1*
X21280D2*
X21720D1*
X22280D2*
X22720D1*
X23280D2*
X23720D1*
X24280D2*
X24720D1*
X25280D2*
X26481D1*
X27519D2*
X27720D1*
X28280D2*
X28720D1*
X29280D2*
X29720D1*
X30280D2*
X30720D1*
X31280D2*
X31720D1*
X32280D2*
X32720D1*
X33280D2*
X33720D1*
X34280D2*
X36720D1*
X39248D2*
X40720D1*
X43280D2*
X54189D1*
X1061Y19470D2*
X16752D1*
X17686D2*
X36795D1*
X39248D2*
X40795D1*
X43205D2*
X54189D1*
X1061Y19371D2*
X16752D1*
X17686D2*
X36642D1*
X39248D2*
X40642D1*
X43358D2*
X45713D1*
X46287D2*
X50213D1*
X50787D2*
X54189D1*
X1061Y19272D2*
X16752D1*
X17686D2*
X36561D1*
X39248D2*
X40561D1*
X43439D2*
X45606D1*
X46394D2*
X50106D1*
X50894D2*
X54189D1*
X1061Y19174D2*
X16752D1*
X17686D2*
X36513D1*
X39248D2*
X40513D1*
X43487D2*
X45547D1*
X46453D2*
X50047D1*
X50953D2*
X54189D1*
X1061Y19075D2*
X16752D1*
X17686D2*
X36488D1*
X39248D2*
X40488D1*
X43512D2*
X45513D1*
X46487D2*
X50013D1*
X50987D2*
X54189D1*
X1061Y18976D2*
X16752D1*
X17686D2*
X36481D1*
X39248D2*
X40481D1*
X43519D2*
X45502D1*
X46498D2*
X50002D1*
X50998D2*
X54189D1*
X1061Y18878D2*
X1288D1*
X1712D2*
X2288D1*
X2712D2*
X3288D1*
X3712D2*
X3942D1*
X5058D2*
X16752D1*
X17686D2*
X36497D1*
X39248D2*
X40497D1*
X43503D2*
X45510D1*
X46490D2*
X50010D1*
X50990D2*
X54189D1*
X1061Y18779D2*
X1126D1*
X1873D2*
X2127D1*
X2873D2*
X3127D1*
X3873D2*
X3942D1*
X5058D2*
X8702D1*
X17686D2*
X36431D1*
X39248D2*
X40531D1*
X43469D2*
X45539D1*
X46461D2*
X50039D1*
X50961D2*
X54189D1*
X1961Y18680D2*
X2038D1*
X2961D2*
X3038D1*
X5058D2*
X8583D1*
X17686D2*
X36333D1*
X39248D2*
X40594D1*
X43406D2*
X45595D1*
X46405D2*
X50095D1*
X50905D2*
X54189D1*
X5058Y18581D2*
X8483D1*
X17686D2*
X36233D1*
X39248D2*
X40702D1*
X43298D2*
X45691D1*
X46309D2*
X50191D1*
X50809D2*
X54189D1*
X5058Y18483D2*
X8385D1*
X17686D2*
X36135D1*
X39248D2*
X40830D1*
X43170D2*
X45935D1*
X46065D2*
X50435D1*
X50565D2*
X54189D1*
X5058Y18384D2*
X8286D1*
X17686D2*
X36036D1*
X39248D2*
X40656D1*
X43344D2*
X44720D1*
X45280D2*
X45710D1*
X46290D2*
X49220D1*
X49780D2*
X50210D1*
X50790D2*
X54189D1*
X5058Y18285D2*
X8188D1*
X8883D2*
X9938D1*
X17686D2*
X35938D1*
X39248D2*
X40569D1*
X43431D2*
X44617D1*
X45383D2*
X45605D1*
X46395D2*
X49117D1*
X49883D2*
X50105D1*
X50895D2*
X54189D1*
X5058Y18187D2*
X8089D1*
X8784D2*
X9839D1*
X17678D2*
X35839D1*
X39248D2*
X40517D1*
X43483D2*
X44560D1*
X46455D2*
X49060D1*
X50955D2*
X54189D1*
X5058Y18088D2*
X7991D1*
X8686D2*
X9742D1*
X17623D2*
X35741D1*
X39248D2*
X40489D1*
X43511D2*
X44530D1*
X46487D2*
X49030D1*
X50987D2*
X54189D1*
X5058Y17989D2*
X7891D1*
X8587D2*
X9694D1*
X10337D2*
X35642D1*
X39248D2*
X40481D1*
X43519D2*
X44520D1*
X46498D2*
X49020D1*
X50998D2*
X54189D1*
X5058Y17891D2*
X7792D1*
X8489D2*
X9689D1*
X10239D2*
X35542D1*
X39248D2*
X40494D1*
X43506D2*
X44535D1*
X46490D2*
X49035D1*
X50990D2*
X54189D1*
X1940Y17792D2*
X2060D1*
X2940D2*
X3060D1*
X5058D2*
X7713D1*
X8390D2*
X9689D1*
X10186D2*
X35444D1*
X39248D2*
X40527D1*
X43473D2*
X44569D1*
X46459D2*
X49069D1*
X50959D2*
X54189D1*
X1839Y17693D2*
X2161D1*
X2839D2*
X3161D1*
X3839D2*
X3942D1*
X5058D2*
X7689D1*
X8290D2*
X9689D1*
X10186D2*
X35345D1*
X39248D2*
X40585D1*
X43415D2*
X44635D1*
X45365D2*
X45597D1*
X46403D2*
X49135D1*
X49865D2*
X50097D1*
X50903D2*
X54189D1*
X1617Y17595D2*
X2383D1*
X2617D2*
X3383D1*
X3617D2*
X3942D1*
X5058D2*
X7689D1*
X8192D2*
X9689D1*
X10186D2*
X35247D1*
X39248D2*
X40683D1*
X43317D2*
X44753D1*
X45247D2*
X45695D1*
X46305D2*
X49253D1*
X49747D2*
X50195D1*
X50805D2*
X54189D1*
X1522Y17496D2*
X7689D1*
X8186D2*
X9689D1*
X10186D2*
X35149D1*
X39248D2*
X40481D1*
X43519D2*
X45967D1*
X46032D2*
X50467D1*
X50532D2*
X54189D1*
X1522Y17397D2*
X7689D1*
X8186D2*
X9689D1*
X10186D2*
X35050D1*
X39248D2*
X40481D1*
X43519D2*
X44741D1*
X45259D2*
X45502D1*
X46498D2*
X49241D1*
X49759D2*
X50002D1*
X50998D2*
X54189D1*
X1522Y17299D2*
X7689D1*
X8186D2*
X9689D1*
X10186D2*
X34950D1*
X39248D2*
X40481D1*
X43519D2*
X44628D1*
X45372D2*
X45502D1*
X46498D2*
X49128D1*
X49872D2*
X50002D1*
X50998D2*
X54189D1*
X1522Y17200D2*
X7689D1*
X8186D2*
X9689D1*
X10186D2*
X34852D1*
X39248D2*
X40481D1*
X43519D2*
X44566D1*
X46498D2*
X49066D1*
X50998D2*
X54189D1*
X1522Y17101D2*
X7689D1*
X8186D2*
X9689D1*
X10186D2*
X34753D1*
X39248D2*
X40481D1*
X43519D2*
X44531D1*
X46498D2*
X49031D1*
X50998D2*
X54189D1*
X1522Y17002D2*
X7689D1*
X8186D2*
X9689D1*
X10186D2*
X28413D1*
X28587D2*
X33413D1*
X33587D2*
X34655D1*
X39248D2*
X40481D1*
X43519D2*
X44520D1*
X46498D2*
X49020D1*
X50998D2*
X54189D1*
X1522Y16904D2*
X7689D1*
X8186D2*
X9689D1*
X10186D2*
X28181D1*
X28819D2*
X33181D1*
X33819D2*
X34556D1*
X39248D2*
X40481D1*
X43519D2*
X44531D1*
X46498D2*
X49031D1*
X50998D2*
X54189D1*
X1522Y16805D2*
X7689D1*
X8186D2*
X9689D1*
X10186D2*
X28083D1*
X28917D2*
X33083D1*
X33917D2*
X34458D1*
X39248D2*
X40481D1*
X43519D2*
X44563D1*
X46498D2*
X49063D1*
X50998D2*
X54189D1*
X1522Y16706D2*
X7689D1*
X8186D2*
X9689D1*
X10186D2*
X28025D1*
X28975D2*
X33025D1*
X39248D2*
X40481D1*
X43519D2*
X44624D1*
X45376D2*
X45502D1*
X46498D2*
X49124D1*
X49876D2*
X50002D1*
X50998D2*
X54189D1*
X1522Y16608D2*
X7689D1*
X8186D2*
X9689D1*
X10186D2*
X27992D1*
X29008D2*
X32992D1*
X39248D2*
X40481D1*
X43519D2*
X44733D1*
X45267D2*
X45502D1*
X46498D2*
X49233D1*
X49767D2*
X50002D1*
X50998D2*
X54189D1*
X1522Y16509D2*
X7689D1*
X8186D2*
X9689D1*
X10186D2*
X27981D1*
X29019D2*
X32981D1*
X39248D2*
X40481D1*
X43519D2*
X54189D1*
X1522Y16410D2*
X7689D1*
X8186D2*
X9689D1*
X10186D2*
X27989D1*
X29011D2*
X32989D1*
X39248D2*
X54189D1*
X1522Y16312D2*
X7689D1*
X8186D2*
X9689D1*
X10186D2*
X28017D1*
X28983D2*
X33017D1*
X39248D2*
X54189D1*
X1522Y16213D2*
X7689D1*
X8186D2*
X9689D1*
X10186D2*
X28070D1*
X28930D2*
X33070D1*
X39248D2*
X54189D1*
X1522Y16114D2*
X7689D1*
X8186D2*
X9689D1*
X10186D2*
X28158D1*
X28842D2*
X33158D1*
X39248D2*
X54189D1*
X1522Y16016D2*
X7689D1*
X8186D2*
X9689D1*
X10186D2*
X28335D1*
X28665D2*
X33335D1*
X39248D2*
X54189D1*
X1522Y15917D2*
X7689D1*
X8186D2*
X9689D1*
X10186D2*
X28199D1*
X28801D2*
X33199D1*
X39248D2*
X54189D1*
X1522Y15818D2*
X7689D1*
X8186D2*
X9689D1*
X10186D2*
X28094D1*
X28906D2*
X33094D1*
X39248D2*
X54189D1*
X1522Y15720D2*
X7689D1*
X8186D2*
X9689D1*
X10186D2*
X28031D1*
X28969D2*
X33031D1*
X39248D2*
X54189D1*
X1522Y15621D2*
X7689D1*
X8186D2*
X9689D1*
X10186D2*
X27995D1*
X29005D2*
X32995D1*
X39248D2*
X54189D1*
X1522Y15522D2*
X7689D1*
X8186D2*
X9689D1*
X10186D2*
X27981D1*
X29019D2*
X32981D1*
X39248D2*
X54189D1*
X1522Y15423D2*
X7689D1*
X8186D2*
X9689D1*
X10186D2*
X27988D1*
X29012D2*
X32988D1*
X39248D2*
X54189D1*
X1522Y15325D2*
X7689D1*
X8186D2*
X9689D1*
X10186D2*
X28013D1*
X28987D2*
X33013D1*
X39248D2*
X47088D1*
X47537D2*
X51170D1*
X51455D2*
X54189D1*
X1522Y15226D2*
X7689D1*
X8186D2*
X9689D1*
X10186D2*
X28061D1*
X28939D2*
X33061D1*
X39248D2*
X47027D1*
X47598D2*
X51058D1*
X51567D2*
X54189D1*
X1522Y15127D2*
X7689D1*
X8186D2*
X9689D1*
X10186D2*
X28144D1*
X28856D2*
X33144D1*
X39248D2*
X47008D1*
X47617D2*
X51016D1*
X51609D2*
X54189D1*
X1522Y15029D2*
X7689D1*
X8186D2*
X9689D1*
X10186D2*
X28299D1*
X28701D2*
X33299D1*
X39248D2*
X47025D1*
X47600D2*
X51011D1*
X51614D2*
X54189D1*
X1522Y14930D2*
X7689D1*
X8186D2*
X9689D1*
X10186D2*
X26219D1*
X26781D2*
X28219D1*
X28781D2*
X29553D1*
X29947D2*
X33219D1*
X39248D2*
X47064D1*
X47561D2*
X51041D1*
X51584D2*
X54189D1*
X1522Y14831D2*
X7689D1*
X8186D2*
X9689D1*
X10186D2*
X10435D1*
X17190D2*
X26105D1*
X26895D2*
X28105D1*
X28895D2*
X29408D1*
X30092D2*
X33105D1*
X39248D2*
X47064D1*
X47561D2*
X51064D1*
X51561D2*
X54189D1*
X1522Y14733D2*
X7689D1*
X8186D2*
X9689D1*
X10186D2*
X10327D1*
X17286D2*
X26038D1*
X26962D2*
X28038D1*
X30167D2*
X33038D1*
X39248D2*
X47064D1*
X47561D2*
X51064D1*
X51561D2*
X54189D1*
X1522Y14634D2*
X7689D1*
X8186D2*
X9689D1*
X17326D2*
X26000D1*
X27000D2*
X28000D1*
X30209D2*
X33000D1*
X39248D2*
X47064D1*
X47561D2*
X51064D1*
X51561D2*
X54189D1*
X1522Y14535D2*
X7689D1*
X8186D2*
X9689D1*
X17333D2*
X25983D1*
X27017D2*
X27983D1*
X30228D2*
X32983D1*
X39248D2*
X47064D1*
X47561D2*
X51064D1*
X51561D2*
X54189D1*
X1522Y14437D2*
X7689D1*
X8186D2*
X9689D1*
X17308D2*
X25986D1*
X27014D2*
X27986D1*
X30225D2*
X32986D1*
X39248D2*
X40730D1*
X41270D2*
X41730D1*
X42270D2*
X47064D1*
X47561D2*
X51064D1*
X51561D2*
X54189D1*
X1522Y14338D2*
X7399D1*
X8476D2*
X8674D1*
X9201D2*
X9674D1*
X17244D2*
X26008D1*
X26992D2*
X28008D1*
X30200D2*
X33008D1*
X39248D2*
X40610D1*
X41390D2*
X41610D1*
X42390D2*
X47064D1*
X47561D2*
X51064D1*
X51561D2*
X54189D1*
X1522Y14239D2*
X7399D1*
X8476D2*
X8545D1*
X9330D2*
X9545D1*
X17030D2*
X26053D1*
X26947D2*
X28053D1*
X30150D2*
X33053D1*
X39248D2*
X40541D1*
X41459D2*
X41541D1*
X42459D2*
X47064D1*
X47561D2*
X51064D1*
X51561D2*
X54189D1*
X1522Y14141D2*
X7399D1*
X9405D2*
X9470D1*
X10672D2*
X26130D1*
X26870D2*
X28130D1*
X28870D2*
X29439D1*
X30061D2*
X32542D1*
X39248D2*
X40502D1*
X42498D2*
X47064D1*
X47561D2*
X51064D1*
X51561D2*
X54189D1*
X1522Y14042D2*
X7399D1*
X10572D2*
X26269D1*
X26731D2*
X28269D1*
X28731D2*
X29639D1*
X29861D2*
X32444D1*
X39248D2*
X40483D1*
X42517D2*
X47064D1*
X47561D2*
X51064D1*
X51561D2*
X54189D1*
X1522Y13943D2*
X7399D1*
X10473D2*
X26241D1*
X26759D2*
X28241D1*
X28759D2*
X29586D1*
X29914D2*
X32269D1*
X39248D2*
X40485D1*
X42515D2*
X47064D1*
X47561D2*
X51064D1*
X51561D2*
X54189D1*
X1522Y13844D2*
X7399D1*
X10475D2*
X26116D1*
X26884D2*
X28116D1*
X28884D2*
X29422D1*
X30078D2*
X32211D1*
X39248D2*
X40506D1*
X42494D2*
X47064D1*
X47561D2*
X51064D1*
X51561D2*
X54189D1*
X1522Y13746D2*
X7399D1*
X10459D2*
X26045D1*
X26955D2*
X28045D1*
X30159D2*
X32195D1*
X32844D2*
X33045D1*
X39248D2*
X40550D1*
X42450D2*
X47064D1*
X47561D2*
X51064D1*
X51561D2*
X54189D1*
X1522Y13647D2*
X7399D1*
X10423D2*
X26003D1*
X26997D2*
X28003D1*
X30206D2*
X32214D1*
X32786D2*
X33003D1*
X44576D2*
X47064D1*
X47561D2*
X51064D1*
X51561D2*
X54189D1*
X1522Y13548D2*
X7399D1*
X9362D2*
X9513D1*
X10362D2*
X25985D1*
X27015D2*
X27985D1*
X30226D2*
X32277D1*
X32723D2*
X32985D1*
X36647D2*
X36756D1*
X44675D2*
X47064D1*
X47561D2*
X51064D1*
X51561D2*
X54189D1*
X1522Y13450D2*
X7399D1*
X8476D2*
X8614D1*
X9261D2*
X9603D1*
X10272D2*
X25985D1*
X27015D2*
X27985D1*
X30226D2*
X32985D1*
X36547D2*
X36753D1*
X44773D2*
X47064D1*
X47561D2*
X51064D1*
X51561D2*
X54189D1*
X1522Y13351D2*
X7399D1*
X8476D2*
X8861D1*
X9014D2*
X9603D1*
X10272D2*
X26003D1*
X26997D2*
X28003D1*
X30205D2*
X33003D1*
X36448D2*
X36622D1*
X44872D2*
X47064D1*
X47561D2*
X51064D1*
X51561D2*
X54189D1*
X1522Y13252D2*
X7603D1*
X8272D2*
X9603D1*
X10272D2*
X26045D1*
X26955D2*
X28045D1*
X30159D2*
X33045D1*
X36350D2*
X36549D1*
X44970D2*
X47064D1*
X47561D2*
X51064D1*
X51561D2*
X54189D1*
X1522Y13154D2*
X7603D1*
X8272D2*
X9603D1*
X10272D2*
X26117D1*
X26883D2*
X28117D1*
X28883D2*
X29424D1*
X30076D2*
X32556D1*
X36251D2*
X36505D1*
X45069D2*
X47064D1*
X47561D2*
X51064D1*
X51561D2*
X54189D1*
X1522Y13055D2*
X7603D1*
X8272D2*
X9603D1*
X10272D2*
X26244D1*
X26756D2*
X28244D1*
X28756D2*
X29591D1*
X29909D2*
X32458D1*
X36153D2*
X36485D1*
X45169D2*
X47064D1*
X47561D2*
X51064D1*
X51561D2*
X54189D1*
X1522Y12956D2*
X7595D1*
X8280D2*
X9595D1*
X10280D2*
X26266D1*
X26734D2*
X28266D1*
X28734D2*
X29631D1*
X29869D2*
X32280D1*
X36055D2*
X36483D1*
X45267D2*
X47064D1*
X47561D2*
X51064D1*
X51561D2*
X54189D1*
X1522Y12858D2*
X7520D1*
X8355D2*
X9520D1*
X10355D2*
X26128D1*
X26872D2*
X28128D1*
X28872D2*
X29436D1*
X30064D2*
X32216D1*
X35956D2*
X36502D1*
X45365D2*
X47064D1*
X47561D2*
X51064D1*
X51561D2*
X54189D1*
X1522Y12759D2*
X7478D1*
X8397D2*
X9478D1*
X10397D2*
X26052D1*
X26948D2*
X28052D1*
X30151D2*
X32195D1*
X32856D2*
X33052D1*
X35856D2*
X36542D1*
X45464D2*
X47064D1*
X47561D2*
X51064D1*
X51561D2*
X54189D1*
X1522Y12660D2*
X7460D1*
X8415D2*
X9460D1*
X10415D2*
X26008D1*
X26992D2*
X28008D1*
X30201D2*
X32210D1*
X32790D2*
X33008D1*
X35758D2*
X36611D1*
X45562D2*
X47064D1*
X47561D2*
X51064D1*
X51561D2*
X54189D1*
X1522Y12562D2*
X7463D1*
X8412D2*
X9463D1*
X10412D2*
X25985D1*
X27015D2*
X27985D1*
X30225D2*
X32264D1*
X32736D2*
X32985D1*
X35659D2*
X36733D1*
X38267D2*
X38377D1*
X45661D2*
X47064D1*
X47561D2*
X51064D1*
X51561D2*
X54189D1*
X1522Y12463D2*
X7488D1*
X8387D2*
X9488D1*
X10387D2*
X25983D1*
X27017D2*
X27983D1*
X30228D2*
X32427D1*
X32573D2*
X32983D1*
X35561D2*
X36780D1*
X38220D2*
X38378D1*
X45759D2*
X47064D1*
X47561D2*
X51064D1*
X51561D2*
X54189D1*
X1522Y12364D2*
X7538D1*
X8337D2*
X9538D1*
X10337D2*
X26000D1*
X27000D2*
X28000D1*
X30209D2*
X33000D1*
X35462D2*
X36635D1*
X38365D2*
X38418D1*
X45859D2*
X47064D1*
X47561D2*
X51064D1*
X51561D2*
X54189D1*
X1522Y12265D2*
X7603D1*
X8272D2*
X9627D1*
X10248D2*
X26039D1*
X26961D2*
X28039D1*
X30167D2*
X33039D1*
X35364D2*
X36556D1*
X38444D2*
X38569D1*
X45953D2*
X47064D1*
X47561D2*
X51064D1*
X51561D2*
X54189D1*
X1522Y12167D2*
X7603D1*
X8272D2*
X9827D1*
X10048D2*
X26106D1*
X26894D2*
X28106D1*
X28894D2*
X29410D1*
X30090D2*
X32569D1*
X35264D2*
X36510D1*
X38490D2*
X40510D1*
X42490D2*
X44799D1*
X45995D2*
X47064D1*
X47561D2*
X51064D1*
X51561D2*
X54189D1*
X1522Y12068D2*
X7603D1*
X8275D2*
X10291D1*
X14647D2*
X15666D1*
X15976D2*
X26222D1*
X26778D2*
X28222D1*
X28778D2*
X29556D1*
X29944D2*
X32470D1*
X35165D2*
X36486D1*
X38514D2*
X40486D1*
X42514D2*
X44897D1*
X45998D2*
X47064D1*
X47561D2*
X51064D1*
X51561D2*
X54189D1*
X1522Y11969D2*
X7603D1*
X8373D2*
X10189D1*
X14731D2*
X15563D1*
X16080D2*
X25981D1*
X27019D2*
X28294D1*
X28706D2*
X32294D1*
X35067D2*
X36483D1*
X38517D2*
X40483D1*
X42517D2*
X44995D1*
X45998D2*
X47064D1*
X47561D2*
X51064D1*
X51561D2*
X54189D1*
X1522Y11871D2*
X7611D1*
X14765D2*
X15522D1*
X16119D2*
X25981D1*
X27019D2*
X28142D1*
X28858D2*
X29453D1*
X30047D2*
X32222D1*
X34969D2*
X36499D1*
X38501D2*
X40499D1*
X42501D2*
X45039D1*
X45998D2*
X47064D1*
X47561D2*
X51064D1*
X51561D2*
X54189D1*
X1522Y11772D2*
X7649D1*
X14769D2*
X15520D1*
X16122D2*
X25981D1*
X27019D2*
X28061D1*
X30142D2*
X32197D1*
X34870D2*
X36536D1*
X38464D2*
X40536D1*
X42464D2*
X45117D1*
X45998D2*
X47064D1*
X47561D2*
X51064D1*
X51561D2*
X54189D1*
X1522Y11673D2*
X7733D1*
X14740D2*
X15552D1*
X16090D2*
X25981D1*
X27019D2*
X28013D1*
X30197D2*
X32206D1*
X32794D2*
X33013D1*
X34772D2*
X36600D1*
X38400D2*
X40600D1*
X42400D2*
X45502D1*
X45998D2*
X47064D1*
X47561D2*
X51064D1*
X51561D2*
X54189D1*
X1522Y11575D2*
X7833D1*
X14667D2*
X15572D1*
X16070D2*
X25981D1*
X27019D2*
X27988D1*
X30223D2*
X32255D1*
X32745D2*
X32988D1*
X34672D2*
X36711D1*
X38289D2*
X40711D1*
X42289D2*
X45502D1*
X45998D2*
X47064D1*
X47561D2*
X51064D1*
X51561D2*
X54189D1*
X1522Y11476D2*
X7931D1*
X10631D2*
X11120D1*
X11255D2*
X15572D1*
X16070D2*
X25981D1*
X27019D2*
X27981D1*
X30228D2*
X32383D1*
X32617D2*
X32981D1*
X34573D2*
X36811D1*
X38189D2*
X40811D1*
X42189D2*
X45502D1*
X45998D2*
X47064D1*
X47561D2*
X51064D1*
X51561D2*
X54189D1*
X1522Y11377D2*
X8031D1*
X10531D2*
X10953D1*
X16070D2*
X25981D1*
X27019D2*
X27997D1*
X30212D2*
X32997D1*
X34475D2*
X36649D1*
X38351D2*
X40649D1*
X42351D2*
X45475D1*
X46025D2*
X47064D1*
X47561D2*
X51064D1*
X51561D2*
X54189D1*
X1522Y11279D2*
X10899D1*
X16070D2*
X25981D1*
X27019D2*
X28033D1*
X30173D2*
X33033D1*
X34436D2*
X36564D1*
X38436D2*
X40564D1*
X42436D2*
X45447D1*
X46053D2*
X47064D1*
X47561D2*
X51064D1*
X51561D2*
X54189D1*
X1522Y11180D2*
X10883D1*
X16070D2*
X25981D1*
X27019D2*
X28095D1*
X30103D2*
X33095D1*
X34436D2*
X36514D1*
X38486D2*
X40514D1*
X42486D2*
X45455D1*
X46045D2*
X47064D1*
X47561D2*
X51064D1*
X51561D2*
X54189D1*
X1522Y11081D2*
X10903D1*
X16045D2*
X25981D1*
X27019D2*
X28202D1*
X28798D2*
X29528D1*
X29972D2*
X33202D1*
X34436D2*
X36488D1*
X38512D2*
X40488D1*
X42512D2*
X45499D1*
X46001D2*
X47064D1*
X47561D2*
X51020D1*
X51605D2*
X54189D1*
X1522Y10983D2*
X10967D1*
X15953D2*
X28330D1*
X28670D2*
X33330D1*
X34436D2*
X36481D1*
X38519D2*
X40481D1*
X42519D2*
X45617D1*
X45883D2*
X47064D1*
X47561D2*
X51010D1*
X51615D2*
X54189D1*
X1522Y10884D2*
X28156D1*
X28844D2*
X33156D1*
X34436D2*
X36495D1*
X38505D2*
X40495D1*
X42505D2*
X47041D1*
X47584D2*
X51033D1*
X51592D2*
X54189D1*
X1522Y10785D2*
X28069D1*
X28931D2*
X33069D1*
X34436D2*
X36530D1*
X38470D2*
X40530D1*
X42470D2*
X47011D1*
X47614D2*
X51102D1*
X51523D2*
X54189D1*
X1522Y10686D2*
X28017D1*
X28983D2*
X33017D1*
X34436D2*
X36589D1*
X38411D2*
X40589D1*
X42411D2*
X47016D1*
X47609D2*
X54189D1*
X1522Y10588D2*
X27989D1*
X29011D2*
X32989D1*
X34436D2*
X36692D1*
X38308D2*
X40692D1*
X42308D2*
X47058D1*
X47567D2*
X54189D1*
X1522Y10489D2*
X27981D1*
X29019D2*
X32981D1*
X34436D2*
X36850D1*
X38150D2*
X40850D1*
X42519D2*
X47167D1*
X47458D2*
X54189D1*
X1522Y10390D2*
X27994D1*
X29006D2*
X32994D1*
X34436D2*
X36664D1*
X38336D2*
X40664D1*
X42519D2*
X54189D1*
X1522Y10292D2*
X28027D1*
X28973D2*
X33027D1*
X34436D2*
X36574D1*
X38426D2*
X40574D1*
X42519D2*
X54189D1*
X1522Y10193D2*
X28085D1*
X28915D2*
X33085D1*
X34436D2*
X36519D1*
X38481D2*
X40519D1*
X42519D2*
X54189D1*
X1522Y10094D2*
X28183D1*
X28817D2*
X33183D1*
X34417D2*
X36491D1*
X38509D2*
X40491D1*
X42519D2*
X54189D1*
X1522Y9996D2*
X1756D1*
X2244D2*
X4006D1*
X4494D2*
X27981D1*
X29019D2*
X32981D1*
X34344D2*
X36481D1*
X38519D2*
X40481D1*
X42519D2*
X54189D1*
X1522Y9897D2*
X1613D1*
X2387D2*
X3863D1*
X4637D2*
X27981D1*
X29019D2*
X32981D1*
X34245D2*
X36492D1*
X38508D2*
X40492D1*
X42519D2*
X54189D1*
X2470Y9798D2*
X3780D1*
X4720D2*
X27981D1*
X29019D2*
X32981D1*
X34147D2*
X36524D1*
X38476D2*
X40524D1*
X42519D2*
X54189D1*
X2520Y9700D2*
X3730D1*
X4770D2*
X27981D1*
X29019D2*
X32981D1*
X34047D2*
X36580D1*
X38420D2*
X40580D1*
X41420D2*
X41480D1*
X42519D2*
X54189D1*
X2548Y9601D2*
X3702D1*
X4798D2*
X27981D1*
X29019D2*
X32981D1*
X34019D2*
X36675D1*
X38325D2*
X40675D1*
X41325D2*
X41481D1*
X42519D2*
X54189D1*
X2558Y9502D2*
X3692D1*
X4808D2*
X27981D1*
X29019D2*
X32981D1*
X34019D2*
X36886D1*
X38114D2*
X40886D1*
X41114D2*
X41481D1*
X42519D2*
X54189D1*
X2550Y9404D2*
X3700D1*
X4800D2*
X27981D1*
X29019D2*
X32981D1*
X34019D2*
X36680D1*
X38320D2*
X54189D1*
X2522Y9305D2*
X3728D1*
X4772D2*
X27981D1*
X29019D2*
X32981D1*
X34019D2*
X36583D1*
X38417D2*
X54189D1*
X2472Y9206D2*
X3778D1*
X4722D2*
X27981D1*
X29019D2*
X32981D1*
X34019D2*
X36525D1*
X38475D2*
X54189D1*
X2392Y9107D2*
X3858D1*
X4642D2*
X27981D1*
X29019D2*
X32981D1*
X34019D2*
X36492D1*
X38508D2*
X54189D1*
X2253Y9009D2*
X3997D1*
X4503D2*
X27981D1*
X29019D2*
X32981D1*
X34019D2*
X36481D1*
X38519D2*
X54189D1*
X2373Y8910D2*
X2763D1*
X3237D2*
X3877D1*
X4623D2*
X5013D1*
X5487D2*
X36489D1*
X38511D2*
X54189D1*
X3361Y8811D2*
X3789D1*
X5611D2*
X36517D1*
X38483D2*
X54189D1*
X3428Y8713D2*
X3735D1*
X5678D2*
X36570D1*
X38430D2*
X54189D1*
X3465Y8614D2*
X3705D1*
X5715D2*
X36660D1*
X38340D2*
X54189D1*
X3480Y8515D2*
X3692D1*
X5730D2*
X20277D1*
X23161D2*
X36836D1*
X38164D2*
X54189D1*
X3472Y8417D2*
X3699D1*
X5722D2*
X20216D1*
X23222D2*
X36699D1*
X38301D2*
X54189D1*
X3442Y8318D2*
X3724D1*
X5692D2*
X20195D1*
X23242D2*
X36594D1*
X38406D2*
X54189D1*
X3386Y8219D2*
X3769D1*
X5636D2*
X20211D1*
X23226D2*
X36531D1*
X38469D2*
X54189D1*
X2405Y8121D2*
X2714D1*
X3286D2*
X3845D1*
X4655D2*
X4964D1*
X5536D2*
X20267D1*
X23170D2*
X36495D1*
X38505D2*
X54189D1*
X2558Y8022D2*
X3692D1*
X4808D2*
X20445D1*
X20556D2*
X22883D1*
X22992D2*
X36481D1*
X38519D2*
X54189D1*
X2558Y7923D2*
X3692D1*
X4808D2*
X36488D1*
X38512D2*
X54189D1*
X2558Y7825D2*
X3692D1*
X4808D2*
X36513D1*
X38487D2*
X54189D1*
X2558Y7726D2*
X3692D1*
X4808D2*
X36561D1*
X38439D2*
X54189D1*
X2558Y7627D2*
X3692D1*
X4808D2*
X36644D1*
X38356D2*
X54189D1*
X2558Y7528D2*
X3692D1*
X4808D2*
X36800D1*
X38200D2*
X48145D1*
X48355D2*
X50145D1*
X50355D2*
X54189D1*
X2558Y7430D2*
X3692D1*
X4808D2*
X36719D1*
X38281D2*
X40719D1*
X41281D2*
X41719D1*
X42281D2*
X48008D1*
X50492D2*
X54189D1*
X2558Y7331D2*
X3692D1*
X4808D2*
X36603D1*
X38397D2*
X40603D1*
X41397D2*
X41603D1*
X42397D2*
X47958D1*
X50542D2*
X54189D1*
X2558Y7232D2*
X3692D1*
X4808D2*
X36538D1*
X38462D2*
X40538D1*
X41462D2*
X41538D1*
X42462D2*
X47947D1*
X50553D2*
X54189D1*
X2558Y7134D2*
X3692D1*
X4808D2*
X36500D1*
X38500D2*
X40500D1*
X42500D2*
X47970D1*
X50530D2*
X54189D1*
X2558Y7035D2*
X3692D1*
X4808D2*
X36483D1*
X38517D2*
X40483D1*
X42517D2*
X48039D1*
X50461D2*
X54189D1*
X1522Y6936D2*
X36486D1*
X38514D2*
X40486D1*
X42514D2*
X47231D1*
X48269D2*
X48478D1*
X49022D2*
X49478D1*
X50022D2*
X50478D1*
X51022D2*
X54189D1*
X1522Y6838D2*
X36508D1*
X38492D2*
X40508D1*
X42492D2*
X47231D1*
X48269D2*
X48360D1*
X49140D2*
X49360D1*
X50140D2*
X50360D1*
X51140D2*
X54189D1*
X1522Y6739D2*
X36553D1*
X38447D2*
X40553D1*
X42447D2*
X47231D1*
X49209D2*
X49291D1*
X50209D2*
X50291D1*
X51209D2*
X54189D1*
X1522Y6640D2*
X36630D1*
X44208D2*
X47231D1*
X51248D2*
X54189D1*
X1522Y6542D2*
X36770D1*
X44306D2*
X47231D1*
X51267D2*
X54189D1*
X1522Y6443D2*
X36741D1*
X44759D2*
X47231D1*
X51265D2*
X54189D1*
X1522Y6344D2*
X36616D1*
X44884D2*
X47231D1*
X51244D2*
X54189D1*
X1522Y6246D2*
X36545D1*
X44955D2*
X47231D1*
X49200D2*
X49300D1*
X50200D2*
X50300D1*
X51200D2*
X54189D1*
X1522Y6147D2*
X20283D1*
X23155D2*
X36503D1*
X44997D2*
X47231D1*
X48269D2*
X48374D1*
X49126D2*
X49374D1*
X50126D2*
X50374D1*
X51126D2*
X54189D1*
X1522Y6048D2*
X20217D1*
X23220D2*
X36485D1*
X45015D2*
X47231D1*
X48269D2*
X48502D1*
X48998D2*
X49502D1*
X49998D2*
X50502D1*
X50998D2*
X54189D1*
X1522Y5949D2*
X20197D1*
X23240D2*
X36485D1*
X45015D2*
X48502D1*
X48998D2*
X49502D1*
X49998D2*
X50502D1*
X50998D2*
X54189D1*
X1617Y5851D2*
X20210D1*
X23228D2*
X36503D1*
X44997D2*
X48428D1*
X49072D2*
X49428D1*
X50072D2*
X50428D1*
X51072D2*
X54189D1*
X1715Y5752D2*
X20263D1*
X23175D2*
X36545D1*
X44955D2*
X48344D1*
X49156D2*
X49344D1*
X50156D2*
X50344D1*
X51156D2*
X54189D1*
X1814Y5653D2*
X20414D1*
X20586D2*
X22852D1*
X23023D2*
X36617D1*
X44883D2*
X48297D1*
X49203D2*
X49297D1*
X50203D2*
X50297D1*
X51203D2*
X54189D1*
X1914Y5555D2*
X36744D1*
X44756D2*
X48274D1*
X51226D2*
X54189D1*
X2012Y5456D2*
X36766D1*
X44734D2*
X48274D1*
X51226D2*
X54189D1*
X4206Y5357D2*
X36628D1*
X44872D2*
X48292D1*
X49208D2*
X49292D1*
X50208D2*
X50292D1*
X51208D2*
X54189D1*
X4330Y5259D2*
X36552D1*
X44948D2*
X48338D1*
X49162D2*
X49338D1*
X50162D2*
X50338D1*
X51162D2*
X54189D1*
X4381Y5160D2*
X36508D1*
X44992D2*
X48417D1*
X49083D2*
X49417D1*
X50083D2*
X50417D1*
X51083D2*
X54189D1*
X4397Y5061D2*
X36485D1*
X38515D2*
X38591D1*
X45015D2*
X48574D1*
X48926D2*
X49574D1*
X49926D2*
X50574D1*
X50926D2*
X54189D1*
X4397Y4963D2*
X25847D1*
X26184D2*
X26502D1*
X27498D2*
X29347D1*
X29684D2*
X30002D1*
X30998D2*
X32231D1*
X33269D2*
X33528D1*
X33972D2*
X36483D1*
X38517D2*
X38689D1*
X45017D2*
X54189D1*
X4397Y4864D2*
X25680D1*
X26351D2*
X26502D1*
X27498D2*
X29180D1*
X29851D2*
X30002D1*
X30998D2*
X32231D1*
X33269D2*
X33385D1*
X34115D2*
X36500D1*
X38500D2*
X38788D1*
X45000D2*
X54189D1*
X4397Y4765D2*
X25595D1*
X26436D2*
X26502D1*
X27498D2*
X29095D1*
X29936D2*
X30002D1*
X30998D2*
X32231D1*
X34194D2*
X36539D1*
X38461D2*
X38888D1*
X44961D2*
X54189D1*
X4397Y4667D2*
X25545D1*
X27498D2*
X29045D1*
X30998D2*
X32231D1*
X34240D2*
X36606D1*
X38394D2*
X38986D1*
X44894D2*
X54189D1*
X4397Y4568D2*
X11031D1*
X11344D2*
X16969D1*
X17281D2*
X25522D1*
X27498D2*
X29022D1*
X30998D2*
X32231D1*
X34264D2*
X36722D1*
X38278D2*
X39085D1*
X44778D2*
X54189D1*
X4397Y4469D2*
X10928D1*
X17384D2*
X25517D1*
X27498D2*
X29017D1*
X30998D2*
X32231D1*
X34267D2*
X36794D1*
X38206D2*
X39183D1*
X44706D2*
X54189D1*
X4397Y4370D2*
X10889D1*
X17423D2*
X25535D1*
X27498D2*
X29035D1*
X30998D2*
X32231D1*
X34251D2*
X36642D1*
X38358D2*
X39281D1*
X44858D2*
X54189D1*
X4397Y4272D2*
X10886D1*
X17426D2*
X25574D1*
X27498D2*
X29074D1*
X30998D2*
X32231D1*
X34214D2*
X36560D1*
X38440D2*
X39419D1*
X44940D2*
X54189D1*
X4397Y4173D2*
X10919D1*
X17394D2*
X25642D1*
X26389D2*
X26502D1*
X27498D2*
X29142D1*
X29889D2*
X30002D1*
X30998D2*
X32231D1*
X33269D2*
X33350D1*
X34150D2*
X36511D1*
X38489D2*
X40511D1*
X44989D2*
X54189D1*
X4397Y4074D2*
X11005D1*
X17308D2*
X25766D1*
X26265D2*
X26502D1*
X27498D2*
X29252D1*
X29765D2*
X30002D1*
X30998D2*
X32231D1*
X33269D2*
X33461D1*
X34039D2*
X36488D1*
X38512D2*
X40488D1*
X43922D2*
X43986D1*
X45012D2*
X54189D1*
X4397Y3976D2*
X29252D1*
X29748D2*
X30252D1*
X30748D2*
X32502D1*
X32998D2*
X36481D1*
X38519D2*
X40481D1*
X43823D2*
X43981D1*
X45019D2*
X54189D1*
X4397Y3877D2*
X29211D1*
X29789D2*
X30211D1*
X30789D2*
X32461D1*
X33039D2*
X36497D1*
X38503D2*
X40497D1*
X43725D2*
X43997D1*
X45003D2*
X54189D1*
X4381Y3778D2*
X29113D1*
X29887D2*
X30113D1*
X30887D2*
X32363D1*
X33137D2*
X36533D1*
X38467D2*
X40533D1*
X43626D2*
X44033D1*
X44967D2*
X54189D1*
X4331Y3680D2*
X29056D1*
X29944D2*
X30056D1*
X30944D2*
X32306D1*
X33194D2*
X36595D1*
X38405D2*
X40595D1*
X43528D2*
X44095D1*
X44905D2*
X54189D1*
X4208Y3581D2*
X29028D1*
X29972D2*
X30028D1*
X30972D2*
X32278D1*
X33222D2*
X36702D1*
X38298D2*
X40702D1*
X43428D2*
X44202D1*
X44798D2*
X54189D1*
X959Y3482D2*
X29020D1*
X30980D2*
X32270D1*
X33230D2*
X36828D1*
X38172D2*
X40828D1*
X43330D2*
X43981D1*
X45019D2*
X54189D1*
X959Y3384D2*
X29036D1*
X29964D2*
X30035D1*
X30964D2*
X32286D1*
X33214D2*
X36656D1*
X38344D2*
X40656D1*
X43231D2*
X43981D1*
X45019D2*
X54189D1*
X959Y3285D2*
X29074D1*
X29926D2*
X30074D1*
X30926D2*
X32324D1*
X33176D2*
X36569D1*
X38431D2*
X40569D1*
X43114D2*
X43981D1*
X45019D2*
X54189D1*
X959Y3186D2*
X29141D1*
X29859D2*
X30141D1*
X30859D2*
X32391D1*
X33109D2*
X36517D1*
X38483D2*
X40517D1*
X42519D2*
X43981D1*
X45019D2*
X46333D1*
X46667D2*
X54189D1*
X959Y3088D2*
X29266D1*
X29734D2*
X30266D1*
X30734D2*
X32516D1*
X32984D2*
X36489D1*
X38511D2*
X40489D1*
X42519D2*
X43981D1*
X45019D2*
X46238D1*
X47573D2*
X54189D1*
X959Y2989D2*
X36481D1*
X38519D2*
X40481D1*
X42519D2*
X43981D1*
X45019D2*
X46200D1*
X47672D2*
X54189D1*
X959Y2890D2*
X36494D1*
X38506D2*
X40494D1*
X42519D2*
X43981D1*
X45019D2*
X46200D1*
X47770D2*
X54189D1*
X959Y2791D2*
X19349D1*
X22339D2*
X36527D1*
X37473D2*
X37525D1*
X38473D2*
X40527D1*
X42519D2*
X43981D1*
X45019D2*
X46235D1*
X47869D2*
X54189D1*
X959Y2693D2*
X19225D1*
X22458D2*
X36585D1*
X37415D2*
X37585D1*
X38415D2*
X40585D1*
X41415D2*
X41483D1*
X42519D2*
X43981D1*
X45019D2*
X46327D1*
X46673D2*
X47272D1*
X47967D2*
X54189D1*
X959Y2594D2*
X19127D1*
X22508D2*
X36683D1*
X37317D2*
X37683D1*
X38317D2*
X40683D1*
X41317D2*
X41481D1*
X42519D2*
X43981D1*
X45019D2*
X47370D1*
X48065D2*
X54189D1*
X959Y2495D2*
X19027D1*
X22522D2*
X36927D1*
X37073D2*
X37927D1*
X38073D2*
X40927D1*
X41073D2*
X41481D1*
X42519D2*
X43981D1*
X45019D2*
X47469D1*
X48234D2*
X54189D1*
X959Y2397D2*
X18928D1*
X22505D2*
X47567D1*
X48328D2*
X54189D1*
X959Y2298D2*
X18830D1*
X22451D2*
X47667D1*
X48362D2*
X54189D1*
X959Y2199D2*
X18731D1*
X22319D2*
X47763D1*
X48362D2*
X54189D1*
X959Y2101D2*
X18633D1*
X19569D2*
X47799D1*
X48326D2*
X54189D1*
X959Y2002D2*
X18535D1*
X19470D2*
X47895D1*
X48230D2*
X49464D1*
X49786D2*
X54189D1*
X959Y1903D2*
X18435D1*
X19372D2*
X49364D1*
X49886D2*
X54189D1*
X959Y1805D2*
X18336D1*
X19273D2*
X49327D1*
X49923D2*
X54189D1*
X959Y1706D2*
X18238D1*
X19173D2*
X49325D1*
X49925D2*
X54189D1*
X959Y1607D2*
X18139D1*
X19075D2*
X49358D1*
X49892D2*
X54189D1*
X959Y1509D2*
X18041D1*
X18976D2*
X49377D1*
X49873D2*
X54189D1*
X959Y1410D2*
X10481D1*
X11519D2*
X11689D1*
X12311D2*
X12689D1*
X13311D2*
X13689D1*
X14311D2*
X14689D1*
X15311D2*
X15689D1*
X16311D2*
X16689D1*
X17311D2*
X17689D1*
X18878D2*
X19481D1*
X20519D2*
X20689D1*
X21311D2*
X21689D1*
X22311D2*
X22689D1*
X23311D2*
X23689D1*
X24311D2*
X24689D1*
X25311D2*
X25689D1*
X26311D2*
X26689D1*
X27311D2*
X28481D1*
X29519D2*
X29689D1*
X30311D2*
X30689D1*
X31311D2*
X31689D1*
X32311D2*
X32689D1*
X33311D2*
X33689D1*
X34311D2*
X34689D1*
X35311D2*
X35689D1*
X36311D2*
X49377D1*
X49873D2*
X54189D1*
X959Y1311D2*
X10481D1*
X11519D2*
X11589D1*
X12412D2*
X12588D1*
X13412D2*
X13588D1*
X14412D2*
X14588D1*
X15412D2*
X15588D1*
X16412D2*
X16588D1*
X17412D2*
X17588D1*
X18780D2*
X19481D1*
X20519D2*
X20589D1*
X21412D2*
X21588D1*
X22412D2*
X22588D1*
X23412D2*
X23588D1*
X24412D2*
X24588D1*
X25412D2*
X25588D1*
X26412D2*
X26588D1*
X27412D2*
X28481D1*
X29519D2*
X29589D1*
X30412D2*
X30588D1*
X31412D2*
X31588D1*
X32412D2*
X32588D1*
X33412D2*
X33588D1*
X34412D2*
X34588D1*
X35412D2*
X35588D1*
X36412D2*
X49377D1*
X49873D2*
X54189D1*
X959Y1212D2*
X10481D1*
X12472D2*
X12528D1*
X13472D2*
X13528D1*
X14472D2*
X14528D1*
X15472D2*
X15528D1*
X16472D2*
X16528D1*
X17472D2*
X17528D1*
X18681D2*
X19481D1*
X21472D2*
X21528D1*
X22472D2*
X22528D1*
X23472D2*
X23528D1*
X24472D2*
X24528D1*
X25472D2*
X25528D1*
X26472D2*
X26528D1*
X27472D2*
X28481D1*
X30472D2*
X30528D1*
X31472D2*
X31528D1*
X32472D2*
X32528D1*
X33472D2*
X33528D1*
X34472D2*
X34528D1*
X35472D2*
X35528D1*
X36472D2*
X49377D1*
X49873D2*
X54189D1*
X959Y1114D2*
X10481D1*
X18581D2*
X19481D1*
X27506D2*
X28481D1*
X36506D2*
X49377D1*
X49873D2*
X54189D1*
X959Y1015D2*
X10481D1*
X18519D2*
X19481D1*
X27519D2*
X28481D1*
X36519D2*
X49377D1*
X49873D2*
X54189D1*
X959Y916D2*
X10481D1*
X18512D2*
X19481D1*
X27512D2*
X28481D1*
X36512D2*
X49377D1*
X49873D2*
X54189D1*
X1025Y818D2*
X10481D1*
X18484D2*
X19481D1*
X27484D2*
X28481D1*
X36484D2*
X49377D1*
X49873D2*
X54189D1*
X10541Y1509D2*
X11509D1*
Y1132D1*
X11531Y1197D1*
X11578Y1285D1*
X11642Y1361D1*
X11720Y1424D1*
X11808Y1471D1*
X11904Y1499D1*
X12003Y1509D1*
X12102Y1498D1*
X12198Y1469D1*
X12285Y1421D1*
X12362Y1357D1*
X12425Y1280D1*
X12471Y1191D1*
X12500Y1095D1*
X12514Y1150D1*
X12553Y1242D1*
X12608Y1325D1*
X12679Y1395D1*
X12763Y1450D1*
X12855Y1488D1*
X12953Y1506D1*
X13053D1*
X13151Y1486D1*
X13243Y1447D1*
X13325Y1391D1*
X13395Y1320D1*
X13450Y1236D1*
X13488Y1144D1*
X13500Y1094D1*
X13514Y1150D1*
X13553Y1242D1*
X13608Y1325D1*
X13679Y1395D1*
X13763Y1450D1*
X13855Y1488D1*
X13953Y1506D1*
X14053D1*
X14151Y1486D1*
X14243Y1447D1*
X14325Y1391D1*
X14395Y1320D1*
X14450Y1236D1*
X14488Y1144D1*
X14500Y1094D1*
X14514Y1150D1*
X14553Y1242D1*
X14608Y1325D1*
X14679Y1395D1*
X14763Y1450D1*
X14855Y1488D1*
X14953Y1506D1*
X15053D1*
X15151Y1486D1*
X15243Y1447D1*
X15325Y1391D1*
X15395Y1320D1*
X15450Y1236D1*
X15488Y1144D1*
X15500Y1094D1*
X15520Y1169D1*
X15548Y1233D1*
X15584Y1293D1*
X15628Y1347D1*
X15679Y1395D1*
X15737Y1435D1*
X15799Y1467D1*
X15865Y1490D1*
X15933Y1504D1*
X16003Y1509D1*
X16073Y1503D1*
X16141Y1489D1*
X16207Y1465D1*
X16269Y1432D1*
X16325Y1391D1*
X16376Y1343D1*
X16419Y1288D1*
X16455Y1228D1*
X16482Y1163D1*
X16500Y1093D1*
X16517Y1159D1*
X16543Y1224D1*
X16578Y1285D1*
X16621Y1340D1*
X16672Y1388D1*
X16728Y1430D1*
X16790Y1463D1*
X16855Y1488D1*
X16923Y1503D1*
X16993Y1509D1*
X17063Y1505D1*
X17132Y1491D1*
X17198Y1469D1*
X17260Y1437D1*
X17318Y1397D1*
X17369Y1350D1*
X17414Y1296D1*
X17450Y1236D1*
X17479Y1172D1*
X17498Y1105D1*
X17500Y1093D1*
X17514Y1150D1*
X17553Y1242D1*
X17608Y1325D1*
X17679Y1395D1*
X17763Y1450D1*
X17855Y1488D1*
X17953Y1506D1*
X18048D1*
X19271Y2729D1*
X19309Y2762D1*
X19351Y2788D1*
X19397Y2807D1*
X19446Y2819D1*
X19500Y2824D1*
X22187D1*
X22237Y2820D1*
X22286Y2809D1*
X22332Y2790D1*
X22375Y2764D1*
X22413Y2732D1*
X22446Y2695D1*
X22473Y2653D1*
X22493Y2607D1*
X22506Y2559D1*
X22511Y2509D1*
X22509Y2459D1*
X22499Y2410D1*
X22481Y2363D1*
X22457Y2320D1*
X22426Y2281D1*
X22389Y2247D1*
X22348Y2219D1*
X22303Y2197D1*
X22255Y2183D1*
X22187Y2176D1*
X19633D1*
X19305Y1847D1*
X18507Y1046D1*
X18506Y950D1*
X18487Y852D1*
X18468Y801D1*
X19450Y800D1*
X19492D1*
X19491Y1509D1*
X20509D1*
Y1132D1*
X20531Y1197D1*
X20578Y1285D1*
X20642Y1361D1*
X20720Y1424D1*
X20808Y1471D1*
X20904Y1499D1*
X21003Y1509D1*
X21102Y1498D1*
X21198Y1469D1*
X21285Y1421D1*
X21362Y1357D1*
X21425Y1280D1*
X21471Y1191D1*
X21500Y1095D1*
X21514Y1150D1*
X21553Y1242D1*
X21608Y1325D1*
X21679Y1395D1*
X21763Y1450D1*
X21855Y1488D1*
X21953Y1506D1*
X22053D1*
X22151Y1486D1*
X22243Y1447D1*
X22325Y1391D1*
X22395Y1320D1*
X22450Y1236D1*
X22488Y1144D1*
X22500Y1094D1*
X22514Y1150D1*
X22553Y1242D1*
X22608Y1325D1*
X22679Y1395D1*
X22763Y1450D1*
X22855Y1488D1*
X22953Y1506D1*
X23053D1*
X23151Y1486D1*
X23243Y1447D1*
X23325Y1391D1*
X23395Y1320D1*
X23450Y1236D1*
X23488Y1144D1*
X23500Y1094D1*
X23514Y1150D1*
X23553Y1242D1*
X23608Y1325D1*
X23679Y1395D1*
X23763Y1450D1*
X23855Y1488D1*
X23953Y1506D1*
X24053D1*
X24151Y1486D1*
X24243Y1447D1*
X24325Y1391D1*
X24395Y1320D1*
X24450Y1236D1*
X24488Y1144D1*
X24500Y1094D1*
X24514Y1150D1*
X24553Y1242D1*
X24608Y1325D1*
X24679Y1395D1*
X24763Y1450D1*
X24855Y1488D1*
X24953Y1506D1*
X25053D1*
X25151Y1486D1*
X25243Y1447D1*
X25325Y1391D1*
X25395Y1320D1*
X25450Y1236D1*
X25488Y1144D1*
X25500Y1094D1*
X25514Y1150D1*
X25553Y1242D1*
X25608Y1325D1*
X25679Y1395D1*
X25763Y1450D1*
X25855Y1488D1*
X25953Y1506D1*
X26053D1*
X26151Y1486D1*
X26243Y1447D1*
X26325Y1391D1*
X26395Y1320D1*
X26450Y1236D1*
X26488Y1144D1*
X26500Y1094D1*
X26514Y1150D1*
X26553Y1242D1*
X26608Y1325D1*
X26679Y1395D1*
X26763Y1450D1*
X26855Y1488D1*
X26953Y1506D1*
X27053D1*
X27151Y1486D1*
X27243Y1447D1*
X27325Y1391D1*
X27395Y1320D1*
X27450Y1236D1*
X27488Y1144D1*
X27507Y1046D1*
X27506Y950D1*
X27487Y852D1*
X27468Y801D1*
X28450Y800D1*
X28492D1*
X28491Y1509D1*
X29509D1*
Y1132D1*
X29531Y1197D1*
X29578Y1285D1*
X29642Y1361D1*
X29720Y1424D1*
X29808Y1471D1*
X29904Y1499D1*
X30003Y1509D1*
X30102Y1498D1*
X30198Y1469D1*
X30285Y1421D1*
X30362Y1357D1*
X30425Y1280D1*
X30471Y1191D1*
X30500Y1095D1*
X30514Y1150D1*
X30553Y1242D1*
X30608Y1325D1*
X30679Y1395D1*
X30763Y1450D1*
X30855Y1488D1*
X30953Y1506D1*
X31053D1*
X31151Y1486D1*
X31243Y1447D1*
X31325Y1391D1*
X31395Y1320D1*
X31450Y1236D1*
X31488Y1144D1*
X31500Y1094D1*
X31514Y1150D1*
X31553Y1242D1*
X31608Y1325D1*
X31679Y1395D1*
X31763Y1450D1*
X31855Y1488D1*
X31953Y1506D1*
X32053D1*
X32151Y1486D1*
X32243Y1447D1*
X32325Y1391D1*
X32395Y1320D1*
X32450Y1236D1*
X32488Y1144D1*
X32500Y1094D1*
X32514Y1150D1*
X32553Y1242D1*
X32608Y1325D1*
X32679Y1395D1*
X32763Y1450D1*
X32855Y1488D1*
X32953Y1506D1*
X33053D1*
X33151Y1486D1*
X33243Y1447D1*
X33325Y1391D1*
X33395Y1320D1*
X33450Y1236D1*
X33488Y1144D1*
X33500Y1094D1*
X33514Y1150D1*
X33553Y1242D1*
X33608Y1325D1*
X33679Y1395D1*
X33763Y1450D1*
X33855Y1488D1*
X33953Y1506D1*
X34053D1*
X34151Y1486D1*
X34243Y1447D1*
X34325Y1391D1*
X34395Y1320D1*
X34450Y1236D1*
X34488Y1144D1*
X34500Y1094D1*
X34514Y1150D1*
X34553Y1242D1*
X34608Y1325D1*
X34679Y1395D1*
X34763Y1450D1*
X34855Y1488D1*
X34953Y1506D1*
X35053D1*
X35151Y1486D1*
X35243Y1447D1*
X35325Y1391D1*
X35395Y1320D1*
X35450Y1236D1*
X35488Y1144D1*
X35500Y1094D1*
X35514Y1150D1*
X35553Y1242D1*
X35608Y1325D1*
X35679Y1395D1*
X35763Y1450D1*
X35855Y1488D1*
X35953Y1506D1*
X36053D1*
X36151Y1486D1*
X36243Y1447D1*
X36325Y1391D1*
X36395Y1320D1*
X36450Y1236D1*
X36488Y1144D1*
X36507Y1046D1*
X36506Y950D1*
X36487Y852D1*
X36468Y801D1*
X37450Y800D1*
X49386D1*
Y1580D1*
X49357Y1630D1*
X49340Y1677D1*
X49332Y1726D1*
Y1776D1*
X49341Y1825D1*
X49358Y1872D1*
X49382Y1916D1*
X49414Y1954D1*
X49451Y1987D1*
X49494Y2013D1*
X49540Y2032D1*
X49589Y2042D1*
X49639Y2044D1*
X49689Y2037D1*
X49736Y2022D1*
X49781Y1999D1*
X49821Y1969D1*
X49855Y1933D1*
X49883Y1892D1*
X49903Y1846D1*
X49915Y1798D1*
X49919Y1750D1*
X49915Y1700D1*
X49902Y1652D1*
X49882Y1606D1*
X49863Y1579D1*
X49864Y798D1*
X50100Y800D1*
X54198D1*
Y20698D1*
X43239D1*
Y20448D1*
X43285Y20421D1*
X43362Y20357D1*
X43425Y20280D1*
X43471Y20191D1*
X43500Y20095D1*
X43509Y20000D1*
X43499Y19901D1*
X43470Y19805D1*
X43423Y19717D1*
X43359Y19640D1*
X43282Y19577D1*
X43194Y19530D1*
X43098Y19501D1*
X43094Y19500D1*
X43151Y19486D1*
X43243Y19447D1*
X43325Y19391D1*
X43395Y19320D1*
X43450Y19236D1*
X43488Y19144D1*
X43507Y19046D1*
X43506Y18950D1*
X43487Y18852D1*
X43448Y18760D1*
X43393Y18677D1*
X43322Y18606D1*
X43239Y18551D1*
X43147Y18513D1*
X43094Y18500D1*
X43151Y18486D1*
X43243Y18447D1*
X43325Y18391D1*
X43395Y18320D1*
X43450Y18236D1*
X43488Y18144D1*
X43507Y18046D1*
X43506Y17950D1*
X43487Y17852D1*
X43448Y17760D1*
X43393Y17677D1*
X43322Y17606D1*
X43239Y17551D1*
X43147Y17513D1*
X43130Y17509D1*
X43509D1*
Y16491D1*
X42491Y16493D1*
X42459Y16491D1*
X40491D1*
Y17509D1*
X40868D1*
X40804Y17531D1*
X40716Y17578D1*
X40639Y17641D1*
X40576Y17719D1*
X40529Y17807D1*
X40501Y17903D1*
X40491Y18002D1*
X40502Y18101D1*
X40531Y18197D1*
X40578Y18285D1*
X40642Y18361D1*
X40720Y18424D1*
X40808Y18471D1*
X40904Y18499D1*
X40908Y18500D1*
X40851Y18514D1*
X40759Y18552D1*
X40676Y18608D1*
X40606Y18679D1*
X40551Y18762D1*
X40513Y18854D1*
X40494Y18952D1*
Y19052D1*
X40514Y19150D1*
X40553Y19242D1*
X40608Y19325D1*
X40679Y19395D1*
X40763Y19450D1*
X40855Y19488D1*
X40908Y19500D1*
X40851Y19514D1*
X40759Y19552D1*
X40676Y19608D1*
X40606Y19679D1*
X40551Y19762D1*
X40513Y19854D1*
X40494Y19952D1*
Y20052D1*
X40514Y20150D1*
X40553Y20242D1*
X40608Y20325D1*
X40679Y20395D1*
X40763Y20450D1*
X40855Y20488D1*
X40953Y20506D1*
X41053D1*
X41151Y20486D1*
X41243Y20447D1*
X41325Y20391D1*
X41395Y20320D1*
X41450Y20236D1*
X41488Y20144D1*
X41500Y20094D1*
X41520Y20169D1*
X41548Y20233D1*
X41584Y20293D1*
X41628Y20347D1*
X41679Y20395D1*
X41737Y20435D1*
X41799Y20467D1*
X41865Y20490D1*
X41933Y20504D1*
X42003Y20509D1*
X42073Y20503D1*
X42141Y20489D1*
X42207Y20465D1*
X42269Y20432D1*
X42325Y20391D1*
X42376Y20343D1*
X42419Y20288D1*
X42455Y20228D1*
X42482Y20163D1*
X42500Y20093D1*
X42514Y20150D1*
X42553Y20242D1*
X42608Y20325D1*
X42679Y20395D1*
X42761Y20449D1*
Y20939D1*
X42750Y20950D1*
X39227D1*
X39234Y20925D1*
X39239Y20875D1*
Y13739D1*
X40564D1*
X40529Y13807D1*
X40501Y13903D1*
X40491Y14002D1*
X40502Y14101D1*
X40531Y14197D1*
X40578Y14285D1*
X40642Y14361D1*
X40720Y14424D1*
X40808Y14471D1*
X40904Y14499D1*
X41003Y14509D1*
X41102Y14498D1*
X41198Y14469D1*
X41285Y14421D1*
X41362Y14357D1*
X41425Y14280D1*
X41471Y14191D1*
X41500Y14095D1*
X41517Y14159D1*
X41543Y14224D1*
X41578Y14285D1*
X41621Y14340D1*
X41672Y14388D1*
X41728Y14430D1*
X41790Y14463D1*
X41855Y14488D1*
X41923Y14503D1*
X41993Y14509D1*
X42063Y14505D1*
X42132Y14491D1*
X42198Y14469D1*
X42260Y14437D1*
X42318Y14397D1*
X42369Y14350D1*
X42414Y14296D1*
X42450Y14236D1*
X42479Y14172D1*
X42498Y14105D1*
X42507Y14036D1*
Y13960D1*
X42497Y13891D1*
X42477Y13824D1*
X42448Y13760D1*
X42437Y13739D1*
X44375D1*
X44425Y13734D1*
X44472Y13718D1*
X44505Y13701D1*
X44544Y13669D1*
X45919Y12294D1*
X45950Y12255D1*
X45973Y12211D1*
X45984Y12175D1*
X45989Y12125D1*
Y11420D1*
X46008Y11392D1*
X46028Y11346D1*
X46040Y11298D1*
X46044Y11250D1*
X46040Y11200D1*
X46027Y11152D1*
X46007Y11106D1*
X45979Y11065D1*
X45944Y11029D1*
X45904Y10999D1*
X45859Y10977D1*
X45811Y10962D1*
X45762Y10956D1*
X45712Y10958D1*
X45663Y10969D1*
X45617Y10988D1*
X45575Y11014D1*
X45537Y11047D1*
X45506Y11086D1*
X45482Y11130D1*
X45465Y11177D1*
X45457Y11226D1*
Y11276D1*
X45466Y11325D1*
X45483Y11372D1*
X45512Y11422D1*
X45511Y11783D1*
X45466Y11749D1*
X45422Y11727D1*
X45374Y11712D1*
X45324Y11706D1*
X45275Y11708D1*
X45226Y11719D1*
X45179Y11738D1*
X45137Y11764D1*
X45100Y11797D1*
X45068Y11836D1*
X45044Y11880D1*
X45028Y11927D1*
X45024Y11950D1*
X44712Y12261D1*
X42436D1*
X42471Y12191D1*
X42500Y12095D1*
X42509Y12000D1*
X42499Y11901D1*
X42470Y11805D1*
X42423Y11717D1*
X42359Y11640D1*
X42282Y11577D1*
X42194Y11530D1*
X42098Y11501D1*
X42094Y11500D1*
X42151Y11486D1*
X42243Y11447D1*
X42325Y11391D1*
X42395Y11320D1*
X42450Y11236D1*
X42488Y11144D1*
X42507Y11046D1*
X42506Y10950D1*
X42487Y10852D1*
X42448Y10760D1*
X42393Y10677D1*
X42322Y10606D1*
X42239Y10551D1*
X42147Y10513D1*
X42130Y10509D1*
X42509D1*
Y9491D1*
X41491D1*
Y9868D1*
X41470Y9805D1*
X41423Y9717D1*
X41359Y9640D1*
X41282Y9577D1*
X41194Y9530D1*
X41098Y9501D1*
X40999Y9491D1*
X40900Y9501D1*
X40804Y9531D1*
X40716Y9578D1*
X40639Y9641D1*
X40576Y9719D1*
X40529Y9807D1*
X40501Y9903D1*
X40491Y10002D1*
X40502Y10101D1*
X40531Y10197D1*
X40578Y10285D1*
X40642Y10361D1*
X40720Y10424D1*
X40808Y10471D1*
X40904Y10499D1*
X40908Y10500D1*
X40851Y10514D1*
X40759Y10552D1*
X40676Y10608D1*
X40606Y10679D1*
X40551Y10762D1*
X40513Y10854D1*
X40494Y10952D1*
Y11052D1*
X40514Y11150D1*
X40553Y11242D1*
X40608Y11325D1*
X40679Y11395D1*
X40763Y11450D1*
X40855Y11488D1*
X40908Y11500D1*
X40851Y11514D1*
X40759Y11552D1*
X40676Y11608D1*
X40606Y11679D1*
X40551Y11762D1*
X40513Y11854D1*
X40494Y11952D1*
Y12052D1*
X40514Y12150D1*
X40553Y12242D1*
X40562Y12261D1*
X38625D1*
X38575Y12266D1*
X38528Y12282D1*
X38485Y12307D1*
X38448Y12340D1*
X38418Y12380D1*
X38398Y12426D1*
X38387Y12476D1*
X38386Y12670D1*
X38359Y12640D1*
X38282Y12577D1*
X38194Y12530D1*
X38098Y12501D1*
X38094Y12500D1*
X38151Y12486D1*
X38243Y12447D1*
X38325Y12391D1*
X38395Y12320D1*
X38450Y12236D1*
X38488Y12144D1*
X38507Y12046D1*
X38506Y11950D1*
X38487Y11852D1*
X38448Y11760D1*
X38393Y11677D1*
X38322Y11606D1*
X38239Y11551D1*
X38147Y11513D1*
X38094Y11500D1*
X38151Y11486D1*
X38243Y11447D1*
X38325Y11391D1*
X38395Y11320D1*
X38450Y11236D1*
X38488Y11144D1*
X38507Y11046D1*
X38506Y10950D1*
X38487Y10852D1*
X38448Y10760D1*
X38393Y10677D1*
X38322Y10606D1*
X38239Y10551D1*
X38147Y10513D1*
X38094Y10500D1*
X38151Y10486D1*
X38243Y10447D1*
X38325Y10391D1*
X38395Y10320D1*
X38450Y10236D1*
X38488Y10144D1*
X38507Y10046D1*
X38506Y9950D1*
X38487Y9852D1*
X38448Y9760D1*
X38393Y9677D1*
X38322Y9606D1*
X38239Y9551D1*
X38147Y9513D1*
X38094Y9500D1*
X38151Y9486D1*
X38243Y9447D1*
X38325Y9391D1*
X38395Y9320D1*
X38450Y9236D1*
X38488Y9144D1*
X38507Y9046D1*
X38506Y8950D1*
X38487Y8852D1*
X38448Y8760D1*
X38393Y8677D1*
X38322Y8606D1*
X38239Y8551D1*
X38147Y8513D1*
X38094Y8500D1*
X38151Y8486D1*
X38243Y8447D1*
X38325Y8391D1*
X38395Y8320D1*
X38450Y8236D1*
X38488Y8144D1*
X38507Y8046D1*
X38506Y7950D1*
X38487Y7852D1*
X38448Y7760D1*
X38393Y7677D1*
X38322Y7606D1*
X38239Y7551D1*
X38147Y7513D1*
X38094Y7500D1*
X38151Y7486D1*
X38243Y7447D1*
X38325Y7391D1*
X38395Y7320D1*
X38450Y7236D1*
X38488Y7144D1*
X38507Y7046D1*
X38506Y6950D1*
X38487Y6852D1*
X38448Y6760D1*
X38436Y6740D1*
X39050Y6739D1*
X40564D1*
X40529Y6807D1*
X40501Y6903D1*
X40491Y7002D1*
X40502Y7101D1*
X40531Y7197D1*
X40578Y7285D1*
X40642Y7361D1*
X40720Y7424D1*
X40808Y7471D1*
X40904Y7499D1*
X41003Y7509D1*
X41102Y7498D1*
X41198Y7469D1*
X41285Y7421D1*
X41362Y7357D1*
X41425Y7280D1*
X41471Y7191D1*
X41500Y7095D1*
X41517Y7159D1*
X41543Y7224D1*
X41578Y7285D1*
X41621Y7340D1*
X41672Y7388D1*
X41728Y7430D1*
X41790Y7463D1*
X41855Y7488D1*
X41923Y7503D1*
X41993Y7509D1*
X42063Y7505D1*
X42132Y7491D1*
X42198Y7469D1*
X42260Y7437D1*
X42318Y7397D1*
X42369Y7350D1*
X42414Y7296D1*
X42450Y7236D1*
X42479Y7172D1*
X42498Y7105D1*
X42507Y7036D1*
Y6960D1*
X42497Y6891D1*
X42477Y6824D1*
X42448Y6760D1*
X42437Y6739D1*
X44000D1*
X44050Y6734D1*
X44097Y6718D1*
X44130Y6701D1*
X44169Y6669D1*
X44351Y6487D1*
X44404Y6499D1*
X44503Y6509D1*
X44602Y6498D1*
X44698Y6469D1*
X44785Y6421D1*
X44862Y6357D1*
X44925Y6280D1*
X44971Y6191D1*
X45000Y6095D1*
X45009Y6000D1*
X44999Y5901D1*
X44970Y5805D1*
X44923Y5717D1*
X44859Y5640D1*
X44782Y5577D1*
X44694Y5530D1*
X44598Y5501D1*
X44594Y5500D1*
X44651Y5486D1*
X44743Y5447D1*
X44825Y5391D1*
X44895Y5320D1*
X44950Y5236D1*
X44988Y5144D1*
X45007Y5046D1*
X45006Y4950D1*
X44987Y4852D1*
X44948Y4760D1*
X44893Y4677D1*
X44822Y4606D1*
X44739Y4551D1*
X44647Y4513D1*
X44594Y4500D1*
X44651Y4486D1*
X44743Y4447D1*
X44825Y4391D1*
X44895Y4320D1*
X44950Y4236D1*
X44988Y4144D1*
X45007Y4046D1*
X45006Y3950D1*
X44987Y3852D1*
X44948Y3760D1*
X44893Y3677D1*
X44822Y3606D1*
X44739Y3551D1*
X44647Y3513D1*
X44630Y3509D1*
X45009D1*
Y2491D1*
X43991D1*
Y3509D1*
X44368D1*
X44304Y3531D1*
X44216Y3578D1*
X44139Y3641D1*
X44076Y3719D1*
X44029Y3807D1*
X44001Y3903D1*
X43991Y4002D1*
X44002Y4101D1*
X44029Y4192D1*
X43169Y3331D1*
X43130Y3300D1*
X43086Y3277D1*
X43050Y3266D1*
X43000Y3261D1*
X42509Y3259D1*
Y2491D1*
X41491D1*
Y2868D1*
X41470Y2805D1*
X41423Y2717D1*
X41359Y2640D1*
X41282Y2577D1*
X41194Y2530D1*
X41098Y2501D1*
X40999Y2491D1*
X40900Y2501D1*
X40804Y2531D1*
X40716Y2578D1*
X40639Y2641D1*
X40576Y2719D1*
X40529Y2807D1*
X40501Y2903D1*
X40491Y3002D1*
X40502Y3101D1*
X40531Y3197D1*
X40578Y3285D1*
X40642Y3361D1*
X40720Y3424D1*
X40808Y3471D1*
X40904Y3499D1*
X40908Y3500D1*
X40851Y3514D1*
X40759Y3552D1*
X40676Y3608D1*
X40606Y3679D1*
X40551Y3762D1*
X40513Y3854D1*
X40494Y3952D1*
Y4052D1*
X40514Y4150D1*
X40553Y4242D1*
X40565Y4262D1*
X39900Y4261D1*
X39500D1*
X39450Y4266D1*
X39403Y4282D1*
X39370Y4299D1*
X39331Y4331D1*
X38473Y5189D1*
X38500Y5095D1*
X38509Y5000D1*
X38499Y4901D1*
X38470Y4805D1*
X38423Y4717D1*
X38359Y4640D1*
X38282Y4577D1*
X38194Y4530D1*
X38098Y4501D1*
X38094Y4500D1*
X38151Y4486D1*
X38243Y4447D1*
X38325Y4391D1*
X38395Y4320D1*
X38450Y4236D1*
X38488Y4144D1*
X38507Y4046D1*
X38506Y3950D1*
X38487Y3852D1*
X38448Y3760D1*
X38393Y3677D1*
X38322Y3606D1*
X38239Y3551D1*
X38147Y3513D1*
X38094Y3500D1*
X38170Y3479D1*
X38234Y3452D1*
X38294Y3415D1*
X38348Y3371D1*
X38395Y3320D1*
X38436Y3263D1*
X38468Y3200D1*
X38491Y3134D1*
X38504Y3066D1*
X38509Y2990D1*
X38502Y2920D1*
X38487Y2852D1*
X38462Y2787D1*
X38428Y2725D1*
X38386Y2669D1*
X38337Y2619D1*
X38282Y2577D1*
X38221Y2542D1*
X38156Y2516D1*
X38089Y2499D1*
X38019Y2492D1*
X37949Y2494D1*
X37880Y2506D1*
X37813Y2527D1*
X37750Y2557D1*
X37692Y2595D1*
X37639Y2641D1*
X37593Y2694D1*
X37555Y2753D1*
X37526Y2816D1*
X37505Y2883D1*
X37500Y2907D1*
X37484Y2843D1*
X37458Y2778D1*
X37423Y2717D1*
X37380Y2662D1*
X37330Y2613D1*
X37274Y2571D1*
X37212Y2538D1*
X37147Y2513D1*
X37079Y2497D1*
X37009Y2491D1*
X36939Y2495D1*
X36870Y2508D1*
X36804Y2531D1*
X36742Y2562D1*
X36684Y2601D1*
X36632Y2649D1*
X36588Y2702D1*
X36551Y2762D1*
X36522Y2826D1*
X36503Y2893D1*
X36493Y2962D1*
X36492Y3032D1*
X36502Y3101D1*
X36520Y3169D1*
X36548Y3233D1*
X36584Y3293D1*
X36628Y3347D1*
X36679Y3395D1*
X36737Y3435D1*
X36799Y3467D1*
X36865Y3490D1*
X36907Y3500D1*
X36851Y3514D1*
X36759Y3552D1*
X36676Y3608D1*
X36606Y3679D1*
X36551Y3762D1*
X36513Y3854D1*
X36494Y3952D1*
Y4052D1*
X36514Y4150D1*
X36553Y4242D1*
X36608Y4325D1*
X36679Y4395D1*
X36763Y4450D1*
X36855Y4488D1*
X36908Y4500D1*
X36851Y4514D1*
X36759Y4552D1*
X36676Y4608D1*
X36606Y4679D1*
X36551Y4762D1*
X36513Y4854D1*
X36494Y4952D1*
Y5052D1*
X36514Y5150D1*
X36553Y5242D1*
X36608Y5325D1*
X36679Y5395D1*
X36763Y5450D1*
X36855Y5488D1*
X36908Y5500D1*
X36851Y5514D1*
X36759Y5552D1*
X36676Y5608D1*
X36606Y5679D1*
X36551Y5762D1*
X36513Y5854D1*
X36494Y5952D1*
Y6052D1*
X36514Y6150D1*
X36553Y6242D1*
X36608Y6325D1*
X36679Y6395D1*
X36763Y6450D1*
X36855Y6488D1*
X36908Y6500D1*
X36851Y6514D1*
X36759Y6552D1*
X36676Y6608D1*
X36606Y6679D1*
X36551Y6762D1*
X36513Y6854D1*
X36494Y6952D1*
Y7052D1*
X36514Y7150D1*
X36553Y7242D1*
X36608Y7325D1*
X36679Y7395D1*
X36763Y7450D1*
X36855Y7488D1*
X36908Y7500D1*
X36851Y7514D1*
X36759Y7552D1*
X36676Y7608D1*
X36606Y7679D1*
X36551Y7762D1*
X36513Y7854D1*
X36494Y7952D1*
Y8052D1*
X36514Y8150D1*
X36553Y8242D1*
X36608Y8325D1*
X36679Y8395D1*
X36763Y8450D1*
X36855Y8488D1*
X36908Y8500D1*
X36851Y8514D1*
X36759Y8552D1*
X36676Y8608D1*
X36606Y8679D1*
X36551Y8762D1*
X36513Y8854D1*
X36494Y8952D1*
Y9052D1*
X36514Y9150D1*
X36553Y9242D1*
X36608Y9325D1*
X36679Y9395D1*
X36763Y9450D1*
X36855Y9488D1*
X36908Y9500D1*
X36851Y9514D1*
X36759Y9552D1*
X36676Y9608D1*
X36606Y9679D1*
X36551Y9762D1*
X36513Y9854D1*
X36494Y9952D1*
Y10052D1*
X36514Y10150D1*
X36553Y10242D1*
X36608Y10325D1*
X36679Y10395D1*
X36763Y10450D1*
X36855Y10488D1*
X36908Y10500D1*
X36851Y10514D1*
X36759Y10552D1*
X36676Y10608D1*
X36606Y10679D1*
X36551Y10762D1*
X36513Y10854D1*
X36494Y10952D1*
Y11052D1*
X36514Y11150D1*
X36553Y11242D1*
X36608Y11325D1*
X36679Y11395D1*
X36763Y11450D1*
X36855Y11488D1*
X36908Y11500D1*
X36851Y11514D1*
X36759Y11552D1*
X36676Y11608D1*
X36606Y11679D1*
X36551Y11762D1*
X36513Y11854D1*
X36494Y11952D1*
Y12052D1*
X36514Y12150D1*
X36553Y12242D1*
X36608Y12325D1*
X36679Y12395D1*
X36763Y12450D1*
X36855Y12488D1*
X36908Y12500D1*
X36851Y12514D1*
X36759Y12552D1*
X36676Y12608D1*
X36606Y12679D1*
X36551Y12762D1*
X36513Y12854D1*
X36494Y12952D1*
Y13052D1*
X36514Y13150D1*
X36553Y13242D1*
X36608Y13325D1*
X36679Y13395D1*
X36763Y13450D1*
X36855Y13488D1*
X36908Y13500D1*
X36851Y13514D1*
X36759Y13552D1*
X36687Y13599D1*
X34426Y11337D1*
Y10187D1*
X34421Y10138D1*
X34406Y10090D1*
X34388Y10058D1*
X34356Y10019D1*
X34008Y9670D1*
X34009Y8991D1*
X32991D1*
Y10009D1*
X33368D1*
X33304Y10031D1*
X33216Y10078D1*
X33139Y10141D1*
X33076Y10219D1*
X33029Y10307D1*
X33001Y10403D1*
X32991Y10502D1*
X33002Y10601D1*
X33031Y10697D1*
X33078Y10785D1*
X33142Y10861D1*
X33220Y10924D1*
X33308Y10971D1*
X33404Y10999D1*
X33408Y11000D1*
X33351Y11014D1*
X33259Y11052D1*
X33176Y11108D1*
X33106Y11179D1*
X33051Y11262D1*
X33013Y11354D1*
X32994Y11452D1*
Y11552D1*
X33014Y11650D1*
X33053Y11742D1*
X33065Y11762D1*
X32848Y11760D1*
X32790Y11700D1*
X32777Y11652D1*
X32757Y11606D1*
X32729Y11565D1*
X32694Y11529D1*
X32654Y11499D1*
X32609Y11477D1*
X32561Y11462D1*
X32512Y11456D1*
X32462Y11458D1*
X32413Y11469D1*
X32367Y11488D1*
X32325Y11514D1*
X32287Y11547D1*
X32256Y11586D1*
X32232Y11630D1*
X32215Y11677D1*
X32207Y11726D1*
Y11776D1*
X32216Y11825D1*
X32233Y11872D1*
X32257Y11916D1*
X32289Y11954D1*
X32326Y11987D1*
X32369Y12013D1*
X32415Y12032D1*
X32451Y12039D1*
X32581Y12169D1*
X32620Y12200D1*
X32664Y12223D1*
X32700Y12234D1*
X32750Y12239D1*
X33064D1*
X33029Y12307D1*
X33001Y12403D1*
X32991Y12502D1*
X33002Y12601D1*
X33031Y12697D1*
X33065Y12762D1*
X32848Y12760D1*
X32790Y12700D1*
X32777Y12652D1*
X32757Y12606D1*
X32729Y12565D1*
X32694Y12529D1*
X32654Y12499D1*
X32609Y12477D1*
X32561Y12462D1*
X32512Y12456D1*
X32462Y12458D1*
X32413Y12469D1*
X32367Y12488D1*
X32325Y12514D1*
X32287Y12547D1*
X32256Y12586D1*
X32232Y12630D1*
X32215Y12677D1*
X32207Y12726D1*
Y12776D1*
X32216Y12825D1*
X32233Y12872D1*
X32257Y12916D1*
X32289Y12954D1*
X32326Y12987D1*
X32369Y13013D1*
X32415Y13032D1*
X32451Y13039D1*
X32581Y13169D1*
X32620Y13200D1*
X32664Y13223D1*
X32700Y13234D1*
X32750Y13239D1*
X33064D1*
X33029Y13307D1*
X33001Y13403D1*
X32991Y13502D1*
X33002Y13601D1*
X33031Y13697D1*
X33065Y13762D1*
X32848Y13760D1*
X32790Y13700D1*
X32777Y13652D1*
X32757Y13606D1*
X32729Y13565D1*
X32694Y13529D1*
X32654Y13499D1*
X32609Y13477D1*
X32561Y13462D1*
X32512Y13456D1*
X32462Y13458D1*
X32413Y13469D1*
X32367Y13488D1*
X32325Y13514D1*
X32287Y13547D1*
X32256Y13586D1*
X32232Y13630D1*
X32215Y13677D1*
X32207Y13726D1*
Y13776D1*
X32216Y13825D1*
X32233Y13872D1*
X32257Y13916D1*
X32289Y13954D1*
X32326Y13987D1*
X32369Y14013D1*
X32415Y14032D1*
X32451Y14039D1*
X32581Y14169D1*
X32620Y14200D1*
X32664Y14223D1*
X32700Y14234D1*
X32750Y14239D1*
X33064D1*
X33029Y14307D1*
X33001Y14403D1*
X32991Y14502D1*
X33002Y14601D1*
X33031Y14697D1*
X33078Y14785D1*
X33142Y14861D1*
X33220Y14924D1*
X33308Y14971D1*
X33404Y14999D1*
X33408Y15000D1*
X33351Y15014D1*
X33259Y15052D1*
X33176Y15108D1*
X33106Y15179D1*
X33051Y15262D1*
X33013Y15354D1*
X32994Y15452D1*
Y15552D1*
X33014Y15650D1*
X33053Y15742D1*
X33108Y15825D1*
X33179Y15895D1*
X33263Y15950D1*
X33355Y15988D1*
X33408Y16000D1*
X33351Y16014D1*
X33259Y16052D1*
X33176Y16108D1*
X33106Y16179D1*
X33051Y16262D1*
X33013Y16354D1*
X32994Y16452D1*
Y16552D1*
X33014Y16650D1*
X33053Y16742D1*
X33108Y16825D1*
X33179Y16895D1*
X33263Y16950D1*
X33355Y16988D1*
X33453Y17006D1*
X33553D1*
X33651Y16986D1*
X33743Y16947D1*
X33825Y16891D1*
X33895Y16820D1*
X33950Y16738D1*
X34150Y16739D1*
X34402Y16740D1*
X36513Y18854D1*
X36494Y18952D1*
Y19052D1*
X36514Y19150D1*
X36553Y19242D1*
X36608Y19325D1*
X36679Y19395D1*
X36763Y19450D1*
X36855Y19488D1*
X36908Y19500D1*
X36851Y19514D1*
X36759Y19552D1*
X36676Y19608D1*
X36606Y19679D1*
X36551Y19762D1*
X36513Y19854D1*
X36494Y19952D1*
Y20052D1*
X36514Y20150D1*
X36553Y20242D1*
X36608Y20325D1*
X36679Y20395D1*
X36763Y20450D1*
X36855Y20488D1*
X36953Y20506D1*
X37053D1*
X37151Y20486D1*
X37243Y20447D1*
X37325Y20391D1*
X37395Y20320D1*
X37450Y20236D1*
X37488Y20144D1*
X37491Y20130D1*
Y20509D1*
X38375Y20511D1*
X18509Y20509D1*
Y20132D1*
X18531Y20197D1*
X18578Y20285D1*
X18642Y20361D1*
X18720Y20424D1*
X18808Y20471D1*
X18904Y20499D1*
X19003Y20509D1*
X19102Y20498D1*
X19198Y20469D1*
X19285Y20421D1*
X19362Y20357D1*
X19425Y20280D1*
X19471Y20191D1*
X19500Y20095D1*
X19514Y20150D1*
X19553Y20242D1*
X19608Y20325D1*
X19679Y20395D1*
X19763Y20450D1*
X19855Y20488D1*
X19953Y20506D1*
X20053D1*
X20151Y20486D1*
X20243Y20447D1*
X20325Y20391D1*
X20395Y20320D1*
X20450Y20236D1*
X20488Y20144D1*
X20500Y20094D1*
X20514Y20150D1*
X20553Y20242D1*
X20608Y20325D1*
X20679Y20395D1*
X20763Y20450D1*
X20855Y20488D1*
X20953Y20506D1*
X21053D1*
X21151Y20486D1*
X21243Y20447D1*
X21325Y20391D1*
X21395Y20320D1*
X21450Y20236D1*
X21488Y20144D1*
X21500Y20094D1*
X21514Y20150D1*
X21553Y20242D1*
X21608Y20325D1*
X21679Y20395D1*
X21763Y20450D1*
X21855Y20488D1*
X21953Y20506D1*
X22053D1*
X22151Y20486D1*
X22243Y20447D1*
X22325Y20391D1*
X22395Y20320D1*
X22450Y20236D1*
X22488Y20144D1*
X22500Y20094D1*
X22514Y20150D1*
X22553Y20242D1*
X22608Y20325D1*
X22679Y20395D1*
X22763Y20450D1*
X22855Y20488D1*
X22953Y20506D1*
X23053D1*
X23151Y20486D1*
X23243Y20447D1*
X23325Y20391D1*
X23395Y20320D1*
X23450Y20236D1*
X23488Y20144D1*
X23500Y20094D1*
X23514Y20150D1*
X23553Y20242D1*
X23608Y20325D1*
X23679Y20395D1*
X23763Y20450D1*
X23855Y20488D1*
X23953Y20506D1*
X24053D1*
X24151Y20486D1*
X24243Y20447D1*
X24325Y20391D1*
X24395Y20320D1*
X24450Y20236D1*
X24488Y20144D1*
X24500Y20094D1*
X24514Y20150D1*
X24553Y20242D1*
X24608Y20325D1*
X24679Y20395D1*
X24763Y20450D1*
X24855Y20488D1*
X24953Y20506D1*
X25053D1*
X25151Y20486D1*
X25243Y20447D1*
X25325Y20391D1*
X25395Y20320D1*
X25450Y20236D1*
X25488Y20144D1*
X25507Y20046D1*
X25506Y19950D1*
X25487Y19852D1*
X25448Y19760D1*
X25393Y19677D1*
X25322Y19606D1*
X25239Y19551D1*
X25147Y19513D1*
X25049Y19494D1*
X24949D1*
X24851Y19514D1*
X24759Y19552D1*
X24676Y19608D1*
X24606Y19679D1*
X24551Y19762D1*
X24513Y19854D1*
X24500Y19907D1*
X24487Y19852D1*
X24448Y19760D1*
X24393Y19677D1*
X24322Y19606D1*
X24239Y19551D1*
X24147Y19513D1*
X24049Y19494D1*
X23949D1*
X23851Y19514D1*
X23759Y19552D1*
X23676Y19608D1*
X23606Y19679D1*
X23551Y19762D1*
X23513Y19854D1*
X23500Y19907D1*
X23487Y19852D1*
X23448Y19760D1*
X23393Y19677D1*
X23322Y19606D1*
X23239Y19551D1*
X23147Y19513D1*
X23049Y19494D1*
X22949D1*
X22851Y19514D1*
X22759Y19552D1*
X22676Y19608D1*
X22606Y19679D1*
X22551Y19762D1*
X22513Y19854D1*
X22500Y19907D1*
X22487Y19852D1*
X22448Y19760D1*
X22393Y19677D1*
X22322Y19606D1*
X22239Y19551D1*
X22147Y19513D1*
X22049Y19494D1*
X21949D1*
X21851Y19514D1*
X21759Y19552D1*
X21676Y19608D1*
X21606Y19679D1*
X21551Y19762D1*
X21513Y19854D1*
X21500Y19907D1*
X21487Y19852D1*
X21448Y19760D1*
X21393Y19677D1*
X21322Y19606D1*
X21239Y19551D1*
X21147Y19513D1*
X21049Y19494D1*
X20949D1*
X20851Y19514D1*
X20759Y19552D1*
X20676Y19608D1*
X20606Y19679D1*
X20551Y19762D1*
X20513Y19854D1*
X20500Y19907D1*
X20487Y19852D1*
X20448Y19760D1*
X20393Y19677D1*
X20322Y19606D1*
X20239Y19551D1*
X20147Y19513D1*
X20049Y19494D1*
X19949D1*
X19851Y19514D1*
X19759Y19552D1*
X19676Y19608D1*
X19606Y19679D1*
X19551Y19762D1*
X19513Y19854D1*
X19500Y19907D1*
X19487Y19852D1*
X19448Y19760D1*
X19393Y19677D1*
X19322Y19606D1*
X19239Y19551D1*
X19147Y19513D1*
X19049Y19494D1*
X18949D1*
X18851Y19514D1*
X18759Y19552D1*
X18676Y19608D1*
X18606Y19679D1*
X18551Y19762D1*
X18513Y19854D1*
X18509Y19871D1*
Y19491D1*
X17676D1*
Y18250D1*
X17671Y18200D1*
X17656Y18153D1*
X17631Y18110D1*
X17598Y18073D1*
X17557Y18043D1*
X17512Y18023D1*
X17461Y18012D1*
X17187Y18011D1*
X10348Y18010D1*
X10176Y17837D1*
Y14573D1*
X10396Y14792D1*
X10434Y14824D1*
X10476Y14850D1*
X10522Y14870D1*
X10571Y14882D1*
X10625Y14886D1*
X17000D1*
X17050Y14883D1*
X17098Y14871D1*
X17145Y14852D1*
X17188Y14827D1*
X17226Y14795D1*
X17259Y14757D1*
X17286Y14715D1*
X17306Y14669D1*
X17319Y14621D1*
X17324Y14571D1*
X17321Y14522D1*
X17311Y14473D1*
X17294Y14426D1*
X17269Y14382D1*
X17238Y14343D1*
X17202Y14309D1*
X17160Y14281D1*
X17115Y14260D1*
X17067Y14246D1*
X17000Y14238D1*
X10758D1*
X10462Y13941D1*
X10466Y13875D1*
X10456Y13776D1*
X10428Y13680D1*
X10383Y13591D1*
X10321Y13512D1*
X10262Y13459D1*
X10261Y12964D1*
X10315Y12904D1*
X10342Y12862D1*
X10365Y12818D1*
X10383Y12771D1*
X10396Y12723D1*
X10404Y12673D1*
X10407Y12625D1*
X10404Y12575D1*
X10396Y12526D1*
X10383Y12478D1*
X10365Y12431D1*
X10342Y12387D1*
X10314Y12345D1*
X10282Y12307D1*
X10246Y12272D1*
X10207Y12241D1*
X10165Y12214D1*
X10120Y12193D1*
X10073Y12176D1*
X10024Y12164D1*
X9975Y12157D1*
X9925Y12156D1*
X9875Y12160D1*
X9826Y12169D1*
X9778Y12184D1*
X9732Y12203D1*
X9688Y12227D1*
X9647Y12256D1*
X9610Y12289D1*
X9576Y12326D1*
X9546Y12366D1*
X9521Y12409D1*
X9500Y12455D1*
X9485Y12502D1*
X9474Y12551D1*
X9469Y12601D1*
Y12651D1*
X9474Y12700D1*
X9485Y12749D1*
X9501Y12797D1*
X9521Y12842D1*
X9547Y12885D1*
X9577Y12925D1*
X9614Y12965D1*
X9613Y13458D1*
X9560Y13505D1*
X9497Y13583D1*
X9450Y13671D1*
X9438Y13704D1*
X9408Y13634D1*
X9372Y13574D1*
X9328Y13519D1*
X9278Y13471D1*
X9222Y13430D1*
X9160Y13396D1*
X9095Y13371D1*
X9027Y13354D1*
X8957Y13347D1*
X8887Y13349D1*
X8818Y13360D1*
X8751Y13380D1*
X8688Y13409D1*
X8628Y13446D1*
X8575Y13491D1*
X8527Y13542D1*
X8487Y13600D1*
X8466Y13637D1*
Y13347D1*
X8261D1*
Y12964D1*
X8315Y12904D1*
X8342Y12862D1*
X8365Y12818D1*
X8383Y12771D1*
X8396Y12723D1*
X8404Y12673D1*
X8407Y12625D1*
X8404Y12575D1*
X8396Y12526D1*
X8383Y12478D1*
X8365Y12431D1*
X8342Y12387D1*
X8314Y12345D1*
X8261Y12286D1*
Y12070D1*
X8384Y11949D1*
X10180D1*
X10271Y12042D1*
X10309Y12074D1*
X10351Y12100D1*
X10397Y12120D1*
X10446Y12132D1*
X10500Y12137D1*
X14437D1*
X14487Y12133D1*
X14536Y12121D1*
X14582Y12102D1*
X14625Y12077D1*
X14663Y12045D1*
X14696Y12007D1*
X14723Y11965D1*
X14743Y11919D1*
X14756Y11871D1*
X14761Y11821D1*
X14759Y11772D1*
X14749Y11723D1*
X14731Y11676D1*
X14707Y11632D1*
X14676Y11593D1*
X14639Y11559D1*
X14598Y11531D1*
X14553Y11510D1*
X14505Y11496D1*
X14437Y11489D1*
X10633D1*
X10542Y11396D1*
X10504Y11363D1*
X10461Y11337D1*
X10415Y11318D1*
X10367Y11306D1*
X10312Y11301D1*
X8250D1*
X8200Y11305D1*
X8152Y11316D1*
X8105Y11335D1*
X8062Y11361D1*
X8021Y11396D1*
X7708Y11708D1*
X7676Y11746D1*
X7650Y11789D1*
X7630Y11835D1*
X7618Y11883D1*
X7613Y11938D1*
Y12286D1*
X7576Y12326D1*
X7546Y12366D1*
X7521Y12409D1*
X7500Y12455D1*
X7485Y12502D1*
X7474Y12551D1*
X7469Y12601D1*
Y12651D1*
X7474Y12700D1*
X7485Y12749D1*
X7501Y12797D1*
X7521Y12842D1*
X7547Y12885D1*
X7577Y12925D1*
X7614Y12965D1*
X7613Y13345D1*
X7409Y13347D1*
Y14403D1*
X7698D1*
Y17688D1*
X7704Y17737D1*
X7719Y17785D1*
X7737Y17817D1*
X7768Y17857D1*
X8643Y18732D1*
X8682Y18763D1*
X8727Y18786D1*
X8762Y18796D1*
X8812Y18802D1*
X16761D1*
X16759Y19640D1*
X16682Y19577D1*
X16594Y19530D1*
X16498Y19501D1*
X16399Y19491D1*
X16300Y19501D1*
X16204Y19531D1*
X16116Y19578D1*
X16039Y19641D1*
X15976Y19719D1*
X15929Y19807D1*
X15901Y19903D1*
X15900Y19907D1*
X15887Y19852D1*
X15848Y19760D1*
X15793Y19677D1*
X15722Y19606D1*
X15639Y19551D1*
X15547Y19513D1*
X15449Y19494D1*
X15349D1*
X15251Y19514D1*
X15159Y19552D1*
X15076Y19608D1*
X15006Y19679D1*
X14951Y19762D1*
X14913Y19854D1*
X14900Y19907D1*
X14887Y19852D1*
X14848Y19760D1*
X14793Y19677D1*
X14722Y19606D1*
X14639Y19551D1*
X14547Y19513D1*
X14449Y19494D1*
X14349D1*
X14251Y19514D1*
X14159Y19552D1*
X14076Y19608D1*
X14006Y19679D1*
X13951Y19762D1*
X13913Y19854D1*
X13900Y19907D1*
X13887Y19852D1*
X13848Y19760D1*
X13793Y19677D1*
X13722Y19606D1*
X13639Y19551D1*
X13547Y19513D1*
X13449Y19494D1*
X13349D1*
X13251Y19514D1*
X13159Y19552D1*
X13076Y19608D1*
X13006Y19679D1*
X12951Y19762D1*
X12913Y19854D1*
X12900Y19907D1*
X12887Y19852D1*
X12848Y19760D1*
X12793Y19677D1*
X12722Y19606D1*
X12639Y19551D1*
X12547Y19513D1*
X12449Y19494D1*
X12349D1*
X12251Y19514D1*
X12159Y19552D1*
X12076Y19608D1*
X12006Y19679D1*
X11951Y19762D1*
X11913Y19854D1*
X11900Y19907D1*
X11887Y19852D1*
X11848Y19760D1*
X11793Y19677D1*
X11722Y19606D1*
X11639Y19551D1*
X11547Y19513D1*
X11449Y19494D1*
X11349D1*
X11251Y19514D1*
X11159Y19552D1*
X11076Y19608D1*
X11006Y19679D1*
X10951Y19762D1*
X10913Y19854D1*
X10900Y19907D1*
X10884Y19843D1*
X10858Y19778D1*
X10823Y19717D1*
X10780Y19662D1*
X10730Y19613D1*
X10674Y19571D1*
X10612Y19538D1*
X10547Y19513D1*
X10479Y19497D1*
X10409Y19491D1*
X10339Y19495D1*
X10270Y19508D1*
X10204Y19531D1*
X10142Y19562D1*
X10084Y19601D1*
X10032Y19649D1*
X9988Y19702D1*
X9951Y19762D1*
X9922Y19826D1*
X9909Y19869D1*
Y19491D1*
X8891D1*
Y20262D1*
X5300Y20261D1*
X1286Y20260D1*
X1051Y20025D1*
Y18683D1*
X1111Y18754D1*
X1188Y18818D1*
X1274Y18868D1*
X1369Y18900D1*
X1468Y18915D1*
X1567Y18912D1*
X1665Y18891D1*
X1757Y18852D1*
X1841Y18797D1*
X1913Y18728D1*
X1971Y18648D1*
X2000Y18591D1*
X2021Y18635D1*
X2077Y18717D1*
X2148Y18788D1*
X2230Y18845D1*
X2321Y18886D1*
X2418Y18910D1*
X2518Y18916D1*
X2617Y18904D1*
X2712Y18874D1*
X2800Y18827D1*
X2878Y18765D1*
X2944Y18689D1*
X2995Y18603D1*
X3000Y18591D1*
X3021Y18635D1*
X3077Y18717D1*
X3148Y18788D1*
X3230Y18845D1*
X3321Y18886D1*
X3418Y18910D1*
X3518Y18916D1*
X3617Y18904D1*
X3712Y18874D1*
X3800Y18827D1*
X3878Y18765D1*
X3944Y18689D1*
X3952Y18678D1*
Y18916D1*
X5048D1*
Y17584D1*
X3952D1*
Y17823D1*
X3908Y17766D1*
X3835Y17698D1*
X3751Y17645D1*
X3659Y17607D1*
X3561Y17587D1*
X3461Y17585D1*
X3362Y17601D1*
X3268Y17635D1*
X3182Y17686D1*
X3106Y17751D1*
X3044Y17828D1*
X3000Y17909D1*
X2968Y17847D1*
X2908Y17766D1*
X2835Y17698D1*
X2751Y17645D1*
X2659Y17607D1*
X2561Y17587D1*
X2461Y17585D1*
X2362Y17601D1*
X2268Y17635D1*
X2182Y17686D1*
X2106Y17751D1*
X2044Y17828D1*
X2000Y17909D1*
X1968Y17847D1*
X1908Y17766D1*
X1835Y17698D1*
X1751Y17645D1*
X1659Y17607D1*
X1561Y17587D1*
X1512Y17584D1*
X1511Y16387D1*
X1512Y9749D1*
X1547Y9809D1*
X1590Y9864D1*
X1640Y9913D1*
X1696Y9956D1*
X1756Y9991D1*
X1821Y10018D1*
X1888Y10037D1*
X1958Y10046D1*
X2028Y10047D1*
X2097Y10039D1*
X2165Y10023D1*
X2230Y9997D1*
X2292Y9964D1*
X2348Y9923D1*
X2399Y9875D1*
X2444Y9821D1*
X2481Y9762D1*
X2511Y9699D1*
X2532Y9632D1*
X2544Y9563D1*
X2548Y9490D1*
X2542Y9420D1*
X2528Y9352D1*
X2504Y9286D1*
X2473Y9223D1*
X2434Y9165D1*
X2388Y9113D1*
X2335Y9067D1*
X2277Y9027D1*
X2224Y9000D1*
X2300Y8959D1*
X2378Y8896D1*
X2441Y8825D1*
X2661Y8824D1*
X2711Y8870D1*
X2752Y8898D1*
X2796Y8922D1*
X2842Y8942D1*
X2890Y8956D1*
X2939Y8965D1*
X2989Y8969D1*
X3039Y8968D1*
X3088Y8961D1*
X3137Y8949D1*
X3184Y8932D1*
X3228Y8910D1*
X3271Y8883D1*
X3310Y8852D1*
X3346Y8817D1*
X3377Y8779D1*
X3405Y8737D1*
X3428Y8693D1*
X3446Y8646D1*
X3459Y8598D1*
X3467Y8548D1*
X3469Y8500D1*
X3467Y8450D1*
X3459Y8401D1*
X3446Y8353D1*
X3427Y8306D1*
X3404Y8262D1*
X3377Y8220D1*
X3345Y8182D1*
X3309Y8147D1*
X3270Y8116D1*
X3227Y8089D1*
X3182Y8068D1*
X3135Y8051D1*
X3087Y8039D1*
X3037Y8032D1*
X2987Y8031D1*
X2937Y8035D1*
X2888Y8044D1*
X2840Y8059D1*
X2794Y8078D1*
X2751Y8102D1*
X2710Y8131D1*
X2661Y8177D1*
X2442Y8176D1*
X2373Y8099D1*
X2308Y8048D1*
X2548D1*
Y6952D1*
X1512D1*
X1511Y5945D1*
X1841Y5617D1*
X2072Y5386D1*
X4062D1*
X4112Y5383D1*
X4161Y5371D1*
X4207Y5352D1*
X4250Y5327D1*
X4288Y5295D1*
X4321Y5257D1*
X4348Y5215D1*
X4368Y5169D1*
X4381Y5121D1*
X4386Y5062D1*
Y3875D1*
X4383Y3825D1*
X4371Y3777D1*
X4352Y3730D1*
X4327Y3687D1*
X4295Y3649D1*
X4257Y3616D1*
X4215Y3589D1*
X4169Y3569D1*
X4121Y3556D1*
X4062Y3551D1*
X948D1*
X949Y883D1*
X1034Y799D1*
X1500Y800D1*
X10492D1*
X10491Y1509D1*
X10541D1*
X26541Y20509D2*
X27509D1*
Y20132D1*
X27531Y20197D1*
X27578Y20285D1*
X27642Y20361D1*
X27720Y20424D1*
X27808Y20471D1*
X27904Y20499D1*
X28003Y20509D1*
X28102Y20498D1*
X28198Y20469D1*
X28285Y20421D1*
X28362Y20357D1*
X28425Y20280D1*
X28471Y20191D1*
X28500Y20095D1*
X28514Y20150D1*
X28553Y20242D1*
X28608Y20325D1*
X28679Y20395D1*
X28763Y20450D1*
X28855Y20488D1*
X28953Y20506D1*
X29053D1*
X29151Y20486D1*
X29243Y20447D1*
X29325Y20391D1*
X29395Y20320D1*
X29450Y20236D1*
X29488Y20144D1*
X29500Y20094D1*
X29514Y20150D1*
X29553Y20242D1*
X29608Y20325D1*
X29679Y20395D1*
X29763Y20450D1*
X29855Y20488D1*
X29953Y20506D1*
X30053D1*
X30151Y20486D1*
X30243Y20447D1*
X30325Y20391D1*
X30395Y20320D1*
X30450Y20236D1*
X30488Y20144D1*
X30500Y20094D1*
X30514Y20150D1*
X30553Y20242D1*
X30608Y20325D1*
X30679Y20395D1*
X30763Y20450D1*
X30855Y20488D1*
X30953Y20506D1*
X31053D1*
X31151Y20486D1*
X31243Y20447D1*
X31325Y20391D1*
X31395Y20320D1*
X31450Y20236D1*
X31488Y20144D1*
X31500Y20094D1*
X31514Y20150D1*
X31553Y20242D1*
X31608Y20325D1*
X31679Y20395D1*
X31763Y20450D1*
X31855Y20488D1*
X31953Y20506D1*
X32053D1*
X32151Y20486D1*
X32243Y20447D1*
X32325Y20391D1*
X32395Y20320D1*
X32450Y20236D1*
X32488Y20144D1*
X32500Y20094D1*
X32514Y20150D1*
X32553Y20242D1*
X32608Y20325D1*
X32679Y20395D1*
X32763Y20450D1*
X32855Y20488D1*
X32953Y20506D1*
X33053D1*
X33151Y20486D1*
X33243Y20447D1*
X33325Y20391D1*
X33395Y20320D1*
X33450Y20236D1*
X33488Y20144D1*
X33500Y20094D1*
X33514Y20150D1*
X33553Y20242D1*
X33608Y20325D1*
X33679Y20395D1*
X33763Y20450D1*
X33855Y20488D1*
X33953Y20506D1*
X34053D1*
X34151Y20486D1*
X34243Y20447D1*
X34325Y20391D1*
X34395Y20320D1*
X34450Y20236D1*
X34488Y20144D1*
X34507Y20046D1*
X34506Y19950D1*
X34487Y19852D1*
X34448Y19760D1*
X34393Y19677D1*
X34322Y19606D1*
X34239Y19551D1*
X34147Y19513D1*
X34049Y19494D1*
X33949D1*
X33851Y19514D1*
X33759Y19552D1*
X33676Y19608D1*
X33606Y19679D1*
X33551Y19762D1*
X33513Y19854D1*
X33500Y19907D1*
X33487Y19852D1*
X33448Y19760D1*
X33393Y19677D1*
X33322Y19606D1*
X33239Y19551D1*
X33147Y19513D1*
X33049Y19494D1*
X32949D1*
X32851Y19514D1*
X32759Y19552D1*
X32676Y19608D1*
X32606Y19679D1*
X32551Y19762D1*
X32513Y19854D1*
X32500Y19907D1*
X32487Y19852D1*
X32448Y19760D1*
X32393Y19677D1*
X32322Y19606D1*
X32239Y19551D1*
X32147Y19513D1*
X32049Y19494D1*
X31949D1*
X31851Y19514D1*
X31759Y19552D1*
X31676Y19608D1*
X31606Y19679D1*
X31551Y19762D1*
X31513Y19854D1*
X31500Y19907D1*
X31487Y19852D1*
X31448Y19760D1*
X31393Y19677D1*
X31322Y19606D1*
X31239Y19551D1*
X31147Y19513D1*
X31049Y19494D1*
X30949D1*
X30851Y19514D1*
X30759Y19552D1*
X30676Y19608D1*
X30606Y19679D1*
X30551Y19762D1*
X30513Y19854D1*
X30500Y19907D1*
X30487Y19852D1*
X30448Y19760D1*
X30393Y19677D1*
X30322Y19606D1*
X30239Y19551D1*
X30147Y19513D1*
X30049Y19494D1*
X29949D1*
X29851Y19514D1*
X29759Y19552D1*
X29676Y19608D1*
X29606Y19679D1*
X29551Y19762D1*
X29513Y19854D1*
X29500Y19907D1*
X29487Y19852D1*
X29448Y19760D1*
X29393Y19677D1*
X29322Y19606D1*
X29239Y19551D1*
X29147Y19513D1*
X29049Y19494D1*
X28949D1*
X28851Y19514D1*
X28759Y19552D1*
X28676Y19608D1*
X28606Y19679D1*
X28551Y19762D1*
X28513Y19854D1*
X28500Y19907D1*
X28487Y19852D1*
X28448Y19760D1*
X28393Y19677D1*
X28322Y19606D1*
X28239Y19551D1*
X28147Y19513D1*
X28049Y19494D1*
X27949D1*
X27851Y19514D1*
X27759Y19552D1*
X27676Y19608D1*
X27606Y19679D1*
X27551Y19762D1*
X27513Y19854D1*
X27509Y19871D1*
Y19491D1*
X26491D1*
Y20509D1*
X26541D1*
X8176Y14403D2*
X8466D1*
X8467Y14116D1*
X8503Y14176D1*
X8547Y14231D1*
X8597Y14279D1*
X8654Y14321D1*
X8715Y14354D1*
X8780Y14379D1*
X8848Y14396D1*
X8918Y14403D1*
X8988Y14401D1*
X9057Y14390D1*
X9124Y14369D1*
X9187Y14340D1*
X9247Y14303D1*
X9301Y14259D1*
X9348Y14207D1*
X9388Y14150D1*
X9421Y14088D1*
X9438Y14046D1*
X9463Y14107D1*
X9515Y14192D1*
X9582Y14266D1*
X9662Y14326D1*
X9699Y14346D1*
X9698Y17937D1*
X9704Y17987D1*
X9719Y18035D1*
X9737Y18067D1*
X9768Y18106D1*
X9986Y18324D1*
X8911D1*
X8176Y17588D1*
Y14405D1*
X45561Y17489D2*
X46489D1*
Y16511D1*
X45511D1*
Y16763D1*
X45405Y16761D1*
X45345Y16682D1*
X45309Y16647D1*
X45270Y16616D1*
X45227Y16589D1*
X45182Y16568D1*
X45135Y16551D1*
X45087Y16539D1*
X45037Y16532D1*
X44987Y16531D1*
X44937Y16535D1*
X44888Y16544D1*
X44840Y16559D1*
X44794Y16578D1*
X44751Y16602D1*
X44710Y16631D1*
X44672Y16664D1*
X44638Y16701D1*
X44609Y16741D1*
X44583Y16784D1*
X44563Y16830D1*
X44547Y16877D1*
X44537Y16926D1*
X44531Y16976D1*
Y17026D1*
X44537Y17075D1*
X44547Y17124D1*
X44563Y17172D1*
X44584Y17217D1*
X44609Y17260D1*
X44639Y17300D1*
X44673Y17337D1*
X44711Y17370D1*
X44752Y17398D1*
X44796Y17422D1*
X44842Y17442D1*
X44890Y17456D1*
X44939Y17465D1*
X44989Y17469D1*
X45039Y17468D1*
X45088Y17461D1*
X45137Y17449D1*
X45184Y17432D1*
X45228Y17410D1*
X45271Y17383D1*
X45310Y17352D1*
X45346Y17317D1*
X45377Y17279D1*
X45404Y17238D1*
X45511Y17239D1*
Y17489D1*
X45561D1*
X46486Y17934D2*
X46479Y17885D1*
X46466Y17837D1*
X46449Y17790D1*
X46426Y17745D1*
X46400Y17703D1*
X46369Y17663D1*
X46334Y17627D1*
X46296Y17595D1*
X46255Y17567D1*
X46211Y17543D1*
X46165Y17524D1*
X46117Y17509D1*
X46068Y17500D1*
X46018Y17496D1*
X45968D1*
X45918Y17502D1*
X45870Y17513D1*
X45822Y17529D1*
X45777Y17549D1*
X45733Y17574D1*
X45693Y17604D1*
X45656Y17637D1*
X45622Y17674D1*
X45592Y17714D1*
X45565Y17761D1*
X45405D1*
X45345Y17682D1*
X45309Y17647D1*
X45270Y17616D1*
X45227Y17589D1*
X45182Y17568D1*
X45135Y17551D1*
X45087Y17539D1*
X45037Y17532D1*
X44987Y17531D1*
X44937Y17535D1*
X44888Y17544D1*
X44840Y17559D1*
X44794Y17578D1*
X44751Y17602D1*
X44710Y17631D1*
X44672Y17664D1*
X44638Y17701D1*
X44609Y17741D1*
X44583Y17784D1*
X44563Y17830D1*
X44547Y17877D1*
X44537Y17926D1*
X44531Y17976D1*
Y18026D1*
X44537Y18075D1*
X44547Y18124D1*
X44563Y18172D1*
X44584Y18217D1*
X44609Y18260D1*
X44639Y18300D1*
X44673Y18337D1*
X44711Y18370D1*
X44752Y18398D1*
X44796Y18422D1*
X44842Y18442D1*
X44890Y18456D1*
X44939Y18465D1*
X44989Y18469D1*
X45039Y18468D1*
X45088Y18461D1*
X45137Y18449D1*
X45184Y18432D1*
X45228Y18410D1*
X45271Y18383D1*
X45310Y18352D1*
X45346Y18317D1*
X45377Y18279D1*
X45404Y18238D1*
X45583Y18239D1*
X45640Y18315D1*
X45676Y18350D1*
X45715Y18382D1*
X45757Y18409D1*
X45802Y18431D1*
X45848Y18449D1*
X45897Y18462D1*
X45946Y18470D1*
X45996Y18473D1*
X46046Y18471D1*
X46095Y18464D1*
X46144Y18452D1*
X46191Y18435D1*
X46236Y18413D1*
X46278Y18386D1*
X46318Y18356D1*
X46354Y18322D1*
X46387Y18284D1*
X46415Y18243D1*
X46439Y18199D1*
X46459Y18153D1*
X46474Y18105D1*
X46484Y18056D1*
X46489Y17984D1*
X46486Y17934D1*
X46489Y18959D2*
X46482Y18889D1*
X46466Y18821D1*
X46440Y18756D1*
X46405Y18695D1*
X46362Y18640D1*
X46312Y18592D1*
X46255Y18551D1*
X46193Y18519D1*
X46127Y18496D1*
X46058Y18483D1*
X45988Y18480D1*
X45918Y18486D1*
X45850Y18503D1*
X45786Y18529D1*
X45725Y18564D1*
X45670Y18607D1*
X45622Y18658D1*
X45582Y18715D1*
X45550Y18778D1*
X45527Y18844D1*
X45514Y18913D1*
X45511Y18982D1*
X45518Y19052D1*
X45535Y19120D1*
X45561Y19185D1*
X45597Y19245D1*
X45640Y19300D1*
X45691Y19348D1*
X45748Y19388D1*
X45811Y19419D1*
X45877Y19442D1*
X45946Y19454D1*
X46016Y19457D1*
X46085Y19450D1*
X46153Y19433D1*
X46218Y19406D1*
X46278Y19371D1*
X46333Y19327D1*
X46380Y19276D1*
X46420Y19218D1*
X46452Y19156D1*
X46474Y19089D1*
X46486Y19021D1*
X46489Y18959D1*
X50061Y17489D2*
X50989D1*
Y16511D1*
X50011D1*
Y16763D1*
X49905Y16761D1*
X49845Y16682D1*
X49809Y16647D1*
X49770Y16616D1*
X49727Y16589D1*
X49682Y16568D1*
X49635Y16551D1*
X49587Y16539D1*
X49537Y16532D1*
X49487Y16531D1*
X49437Y16535D1*
X49388Y16544D1*
X49340Y16559D1*
X49294Y16578D1*
X49251Y16602D1*
X49210Y16631D1*
X49172Y16664D1*
X49138Y16701D1*
X49109Y16741D1*
X49083Y16784D1*
X49063Y16830D1*
X49047Y16877D1*
X49037Y16926D1*
X49031Y16976D1*
Y17026D1*
X49037Y17075D1*
X49047Y17124D1*
X49063Y17172D1*
X49084Y17217D1*
X49109Y17260D1*
X49139Y17300D1*
X49173Y17337D1*
X49211Y17370D1*
X49252Y17398D1*
X49296Y17422D1*
X49342Y17442D1*
X49390Y17456D1*
X49439Y17465D1*
X49489Y17469D1*
X49539Y17468D1*
X49588Y17461D1*
X49637Y17449D1*
X49684Y17432D1*
X49728Y17410D1*
X49771Y17383D1*
X49810Y17352D1*
X49846Y17317D1*
X49877Y17279D1*
X49904Y17238D1*
X50011Y17239D1*
Y17489D1*
X50061D1*
X50986Y17934D2*
X50979Y17885D1*
X50966Y17837D1*
X50949Y17790D1*
X50926Y17745D1*
X50900Y17703D1*
X50869Y17663D1*
X50834Y17627D1*
X50796Y17595D1*
X50755Y17567D1*
X50711Y17543D1*
X50665Y17524D1*
X50617Y17509D1*
X50568Y17500D1*
X50518Y17496D1*
X50468D1*
X50418Y17502D1*
X50370Y17513D1*
X50322Y17529D1*
X50277Y17549D1*
X50233Y17574D1*
X50193Y17604D1*
X50156Y17637D1*
X50122Y17674D1*
X50074Y17745D1*
X49895D1*
X49845Y17682D1*
X49809Y17647D1*
X49770Y17616D1*
X49727Y17589D1*
X49682Y17568D1*
X49635Y17551D1*
X49587Y17539D1*
X49537Y17532D1*
X49487Y17531D1*
X49437Y17535D1*
X49388Y17544D1*
X49340Y17559D1*
X49294Y17578D1*
X49251Y17602D1*
X49210Y17631D1*
X49172Y17664D1*
X49138Y17701D1*
X49109Y17741D1*
X49083Y17784D1*
X49063Y17830D1*
X49047Y17877D1*
X49037Y17926D1*
X49031Y17976D1*
Y18026D1*
X49037Y18075D1*
X49047Y18124D1*
X49063Y18172D1*
X49084Y18217D1*
X49109Y18260D1*
X49139Y18300D1*
X49173Y18337D1*
X49211Y18370D1*
X49252Y18398D1*
X49296Y18422D1*
X49342Y18442D1*
X49390Y18456D1*
X49439Y18465D1*
X49489Y18469D1*
X49539Y18468D1*
X49588Y18461D1*
X49637Y18449D1*
X49684Y18432D1*
X49728Y18410D1*
X49771Y18383D1*
X49810Y18352D1*
X49846Y18317D1*
X49877Y18279D1*
X49913Y18222D1*
X50066Y18223D1*
X50074D1*
X50108Y18277D1*
X50140Y18315D1*
X50176Y18350D1*
X50215Y18382D1*
X50257Y18409D1*
X50302Y18431D1*
X50348Y18449D1*
X50397Y18462D1*
X50446Y18470D1*
X50496Y18473D1*
X50546Y18471D1*
X50595Y18464D1*
X50644Y18452D1*
X50691Y18435D1*
X50736Y18413D1*
X50778Y18386D1*
X50818Y18356D1*
X50854Y18322D1*
X50887Y18284D1*
X50915Y18243D1*
X50939Y18199D1*
X50959Y18153D1*
X50974Y18105D1*
X50984Y18056D1*
X50989Y17984D1*
X50986Y17934D1*
X50989Y18959D2*
X50982Y18889D1*
X50966Y18821D1*
X50940Y18756D1*
X50905Y18695D1*
X50862Y18640D1*
X50812Y18592D1*
X50755Y18551D1*
X50693Y18519D1*
X50627Y18496D1*
X50558Y18483D1*
X50488Y18480D1*
X50418Y18486D1*
X50350Y18503D1*
X50286Y18529D1*
X50225Y18564D1*
X50170Y18607D1*
X50122Y18658D1*
X50082Y18715D1*
X50050Y18778D1*
X50027Y18844D1*
X50014Y18913D1*
X50011Y18982D1*
X50018Y19052D1*
X50035Y19120D1*
X50061Y19185D1*
X50097Y19245D1*
X50140Y19300D1*
X50191Y19348D1*
X50248Y19388D1*
X50311Y19419D1*
X50377Y19442D1*
X50446Y19454D1*
X50516Y19457D1*
X50585Y19450D1*
X50653Y19433D1*
X50718Y19406D1*
X50778Y19371D1*
X50833Y19327D1*
X50880Y19276D1*
X50920Y19218D1*
X50952Y19156D1*
X50974Y19089D1*
X50986Y19021D1*
X50989Y18959D1*
X47251Y7009D2*
X48082D1*
X48037Y7047D1*
X48006Y7086D1*
X47982Y7130D1*
X47965Y7177D1*
X47957Y7226D1*
Y7276D1*
X47966Y7325D1*
X47983Y7372D1*
X48007Y7416D1*
X48039Y7454D1*
X48076Y7487D1*
X48119Y7513D1*
X48165Y7532D1*
X48214Y7542D1*
X48264Y7544D1*
X48314Y7537D1*
X48361Y7522D1*
X48420Y7489D1*
X50080D1*
X50119Y7513D1*
X50165Y7532D1*
X50214Y7542D1*
X50264Y7544D1*
X50314Y7537D1*
X50361Y7522D1*
X50406Y7499D1*
X50446Y7469D1*
X50480Y7433D1*
X50508Y7392D1*
X50528Y7346D1*
X50540Y7298D1*
X50544Y7250D1*
X50540Y7200D1*
X50527Y7152D1*
X50507Y7106D1*
X50479Y7065D1*
X50444Y7029D1*
X50404Y6999D1*
X50359Y6977D1*
X50311Y6962D1*
X50262Y6956D1*
X50212Y6958D1*
X50163Y6969D1*
X50117Y6988D1*
X50078Y7012D1*
X48420Y7011D1*
X48359Y6977D1*
X48311Y6962D1*
X48257Y6956D1*
X48259Y6889D1*
Y6631D1*
X48281Y6697D1*
X48328Y6785D1*
X48392Y6861D1*
X48470Y6924D1*
X48558Y6971D1*
X48654Y6999D1*
X48753Y7009D1*
X48852Y6998D1*
X48948Y6969D1*
X49035Y6921D1*
X49112Y6857D1*
X49175Y6780D1*
X49221Y6691D1*
X49250Y6595D1*
X49264Y6650D1*
X49303Y6742D1*
X49358Y6825D1*
X49429Y6895D1*
X49513Y6950D1*
X49605Y6988D1*
X49703Y7006D1*
X49803D1*
X49901Y6986D1*
X49993Y6947D1*
X50075Y6891D1*
X50145Y6820D1*
X50200Y6736D1*
X50238Y6644D1*
X50250Y6594D1*
X50264Y6650D1*
X50303Y6742D1*
X50358Y6825D1*
X50429Y6895D1*
X50513Y6950D1*
X50605Y6988D1*
X50703Y7006D1*
X50803D1*
X50901Y6986D1*
X50993Y6947D1*
X51075Y6891D1*
X51145Y6820D1*
X51200Y6736D1*
X51238Y6644D1*
X51257Y6546D1*
X51256Y6450D1*
X51237Y6352D1*
X51198Y6260D1*
X51143Y6177D1*
X51072Y6106D1*
X50989Y6051D1*
Y5905D1*
X51060Y5852D1*
X51096Y5817D1*
X51127Y5779D1*
X51155Y5737D1*
X51178Y5693D1*
X51196Y5646D1*
X51209Y5598D1*
X51217Y5548D1*
X51219Y5500D1*
X51217Y5450D1*
X51209Y5401D1*
X51196Y5353D1*
X51177Y5306D1*
X51154Y5262D1*
X51127Y5220D1*
X51095Y5182D1*
X51059Y5147D1*
X51020Y5116D1*
X50977Y5089D1*
X50932Y5068D1*
X50885Y5051D1*
X50837Y5039D1*
X50787Y5032D1*
X50737Y5031D1*
X50687Y5035D1*
X50638Y5044D1*
X50590Y5059D1*
X50544Y5078D1*
X50501Y5102D1*
X50460Y5131D1*
X50422Y5164D1*
X50388Y5201D1*
X50359Y5241D1*
X50333Y5284D1*
X50313Y5330D1*
X50297Y5377D1*
X50287Y5426D1*
X50281Y5476D1*
Y5526D1*
X50287Y5575D1*
X50297Y5624D1*
X50313Y5672D1*
X50334Y5717D1*
X50359Y5760D1*
X50389Y5800D1*
X50423Y5837D1*
X50461Y5870D1*
X50511Y5904D1*
X50509Y6052D1*
X50426Y6108D1*
X50356Y6179D1*
X50301Y6262D1*
X50263Y6354D1*
X50250Y6407D1*
X50237Y6352D1*
X50198Y6260D1*
X50143Y6177D1*
X50072Y6106D1*
X49989Y6051D1*
Y5905D1*
X50060Y5852D1*
X50096Y5817D1*
X50127Y5779D1*
X50155Y5737D1*
X50178Y5693D1*
X50196Y5646D1*
X50209Y5598D1*
X50217Y5548D1*
X50219Y5500D1*
X50217Y5450D1*
X50209Y5401D1*
X50196Y5353D1*
X50177Y5306D1*
X50154Y5262D1*
X50127Y5220D1*
X50095Y5182D1*
X50059Y5147D1*
X50020Y5116D1*
X49977Y5089D1*
X49932Y5068D1*
X49885Y5051D1*
X49837Y5039D1*
X49787Y5032D1*
X49737Y5031D1*
X49687Y5035D1*
X49638Y5044D1*
X49590Y5059D1*
X49544Y5078D1*
X49501Y5102D1*
X49460Y5131D1*
X49422Y5164D1*
X49388Y5201D1*
X49359Y5241D1*
X49333Y5284D1*
X49313Y5330D1*
X49297Y5377D1*
X49287Y5426D1*
X49281Y5476D1*
Y5526D1*
X49287Y5575D1*
X49297Y5624D1*
X49313Y5672D1*
X49334Y5717D1*
X49359Y5760D1*
X49389Y5800D1*
X49423Y5837D1*
X49461Y5870D1*
X49511Y5904D1*
X49509Y6052D1*
X49426Y6108D1*
X49356Y6179D1*
X49301Y6262D1*
X49263Y6354D1*
X49250Y6407D1*
X49237Y6352D1*
X49198Y6260D1*
X49143Y6177D1*
X49072Y6106D1*
X48989Y6051D1*
Y5905D1*
X49060Y5852D1*
X49096Y5817D1*
X49127Y5779D1*
X49155Y5737D1*
X49178Y5693D1*
X49196Y5646D1*
X49209Y5598D1*
X49217Y5548D1*
X49219Y5500D1*
X49217Y5450D1*
X49209Y5401D1*
X49196Y5353D1*
X49177Y5306D1*
X49154Y5262D1*
X49127Y5220D1*
X49095Y5182D1*
X49059Y5147D1*
X49020Y5116D1*
X48977Y5089D1*
X48932Y5068D1*
X48885Y5051D1*
X48837Y5039D1*
X48787Y5032D1*
X48737Y5031D1*
X48687Y5035D1*
X48638Y5044D1*
X48590Y5059D1*
X48544Y5078D1*
X48501Y5102D1*
X48460Y5131D1*
X48422Y5164D1*
X48388Y5201D1*
X48359Y5241D1*
X48333Y5284D1*
X48313Y5330D1*
X48297Y5377D1*
X48287Y5426D1*
X48281Y5476D1*
Y5526D1*
X48287Y5575D1*
X48297Y5624D1*
X48313Y5672D1*
X48334Y5717D1*
X48359Y5760D1*
X48389Y5800D1*
X48423Y5837D1*
X48461Y5870D1*
X48511Y5904D1*
X48509Y6052D1*
X48426Y6108D1*
X48356Y6179D1*
X48301Y6262D1*
X48263Y6354D1*
X48259Y6369D1*
Y5991D1*
X47241D1*
Y7009D1*
X47251D1*
X26041Y12009D2*
X26368D1*
X26304Y12031D1*
X26216Y12078D1*
X26139Y12141D1*
X26076Y12219D1*
X26029Y12307D1*
X26001Y12403D1*
X25991Y12502D1*
X26002Y12601D1*
X26031Y12697D1*
X26078Y12785D1*
X26142Y12861D1*
X26220Y12924D1*
X26308Y12971D1*
X26404Y12999D1*
X26408Y13000D1*
X26351Y13014D1*
X26259Y13052D1*
X26176Y13108D1*
X26106Y13179D1*
X26051Y13262D1*
X26013Y13354D1*
X25994Y13452D1*
Y13552D1*
X26014Y13650D1*
X26053Y13742D1*
X26108Y13825D1*
X26179Y13895D1*
X26263Y13950D1*
X26355Y13988D1*
X26408Y14000D1*
X26351Y14014D1*
X26259Y14052D1*
X26176Y14108D1*
X26106Y14179D1*
X26051Y14262D1*
X26013Y14354D1*
X25994Y14452D1*
Y14552D1*
X26014Y14650D1*
X26053Y14742D1*
X26108Y14825D1*
X26179Y14895D1*
X26263Y14950D1*
X26355Y14988D1*
X26453Y15006D1*
X26553D1*
X26651Y14986D1*
X26743Y14947D1*
X26825Y14891D1*
X26895Y14820D1*
X26950Y14736D1*
X26988Y14644D1*
X27007Y14546D1*
X27006Y14450D1*
X26987Y14352D1*
X26948Y14260D1*
X26893Y14177D1*
X26822Y14106D1*
X26739Y14051D1*
X26647Y14013D1*
X26594Y14000D1*
X26651Y13986D1*
X26743Y13947D1*
X26825Y13891D1*
X26895Y13820D1*
X26950Y13736D1*
X26988Y13644D1*
X27007Y13546D1*
X27006Y13450D1*
X26987Y13352D1*
X26948Y13260D1*
X26893Y13177D1*
X26822Y13106D1*
X26739Y13051D1*
X26647Y13013D1*
X26594Y13000D1*
X26651Y12986D1*
X26743Y12947D1*
X26825Y12891D1*
X26895Y12820D1*
X26950Y12736D1*
X26988Y12644D1*
X27007Y12546D1*
X27006Y12450D1*
X26987Y12352D1*
X26948Y12260D1*
X26893Y12177D1*
X26822Y12106D1*
X26739Y12051D1*
X26647Y12013D1*
X26630Y12009D1*
X27009D1*
Y10991D1*
X25991D1*
Y12009D1*
X26041D1*
X28041Y10009D2*
X28361Y10011D1*
X28295Y10035D1*
X28233Y10067D1*
X28176Y10108D1*
X28125Y10156D1*
X28082Y10211D1*
X28046Y10271D1*
X28019Y10335D1*
X28001Y10403D1*
X27992Y10472D1*
X27993Y10542D1*
X28004Y10611D1*
X28024Y10678D1*
X28053Y10742D1*
X28090Y10801D1*
X28135Y10854D1*
X28187Y10901D1*
X28245Y10940D1*
X28308Y10971D1*
X28374Y10993D1*
X28407Y11000D1*
X28351Y11014D1*
X28259Y11052D1*
X28176Y11108D1*
X28106Y11179D1*
X28051Y11262D1*
X28013Y11354D1*
X27994Y11452D1*
Y11552D1*
X28014Y11650D1*
X28053Y11742D1*
X28108Y11825D1*
X28179Y11895D1*
X28263Y11950D1*
X28355Y11988D1*
X28408Y12000D1*
X28351Y12014D1*
X28259Y12052D1*
X28176Y12108D1*
X28106Y12179D1*
X28051Y12262D1*
X28013Y12354D1*
X27994Y12452D1*
Y12552D1*
X28014Y12650D1*
X28053Y12742D1*
X28108Y12825D1*
X28179Y12895D1*
X28263Y12950D1*
X28355Y12988D1*
X28408Y13000D1*
X28351Y13014D1*
X28259Y13052D1*
X28176Y13108D1*
X28106Y13179D1*
X28051Y13262D1*
X28013Y13354D1*
X27994Y13452D1*
Y13552D1*
X28014Y13650D1*
X28053Y13742D1*
X28108Y13825D1*
X28179Y13895D1*
X28263Y13950D1*
X28355Y13988D1*
X28408Y14000D1*
X28351Y14014D1*
X28259Y14052D1*
X28176Y14108D1*
X28106Y14179D1*
X28051Y14262D1*
X28013Y14354D1*
X27994Y14452D1*
Y14552D1*
X28014Y14650D1*
X28053Y14742D1*
X28108Y14825D1*
X28179Y14895D1*
X28263Y14950D1*
X28355Y14988D1*
X28408Y15000D1*
X28351Y15014D1*
X28259Y15052D1*
X28176Y15108D1*
X28106Y15179D1*
X28051Y15262D1*
X28013Y15354D1*
X27994Y15452D1*
Y15552D1*
X28014Y15650D1*
X28053Y15742D1*
X28108Y15825D1*
X28179Y15895D1*
X28263Y15950D1*
X28355Y15988D1*
X28408Y16000D1*
X28351Y16014D1*
X28286Y16039D1*
X28225Y16072D1*
X28169Y16114D1*
X28119Y16163D1*
X28076Y16219D1*
X28042Y16280D1*
X28016Y16345D1*
X27999Y16412D1*
X27992Y16482D1*
X27994Y16552D1*
X28006Y16621D1*
X28027Y16688D1*
X28057Y16751D1*
X28096Y16809D1*
X28142Y16861D1*
X28195Y16907D1*
X28254Y16945D1*
X28317Y16975D1*
X28384Y16995D1*
X28453Y17006D1*
X28523Y17008D1*
X28593Y17000D1*
X28660Y16983D1*
X28725Y16956D1*
X28785Y16921D1*
X28840Y16878D1*
X28889Y16828D1*
X28930Y16771D1*
X28964Y16709D1*
X28988Y16644D1*
X29003Y16576D1*
X29009Y16500D1*
X29004Y16430D1*
X28990Y16362D1*
X28966Y16296D1*
X28934Y16234D1*
X28893Y16177D1*
X28845Y16126D1*
X28790Y16082D1*
X28730Y16046D1*
X28666Y16019D1*
X28593Y16000D1*
X28651Y15986D1*
X28743Y15947D1*
X28825Y15891D1*
X28895Y15820D1*
X28950Y15736D1*
X28988Y15644D1*
X29007Y15546D1*
X29006Y15450D1*
X28987Y15352D1*
X28948Y15260D1*
X28893Y15177D1*
X28822Y15106D1*
X28739Y15051D1*
X28647Y15013D1*
X28594Y15000D1*
X28651Y14986D1*
X28743Y14947D1*
X28825Y14891D1*
X28892Y14823D1*
X29411Y14824D1*
X29461Y14870D1*
X29502Y14898D1*
X29546Y14922D1*
X29592Y14942D1*
X29640Y14956D1*
X29689Y14965D1*
X29739Y14969D1*
X29789Y14968D1*
X29838Y14961D1*
X29887Y14949D1*
X29934Y14932D1*
X29978Y14910D1*
X30021Y14883D1*
X30060Y14852D1*
X30096Y14817D1*
X30127Y14779D1*
X30155Y14737D1*
X30178Y14693D1*
X30196Y14646D1*
X30209Y14598D1*
X30217Y14548D1*
X30219Y14500D1*
X30217Y14450D1*
X30209Y14401D1*
X30196Y14353D1*
X30177Y14306D1*
X30154Y14262D1*
X30127Y14220D1*
X30095Y14182D1*
X30059Y14147D1*
X30020Y14116D1*
X29977Y14089D1*
X29932Y14068D1*
X29885Y14051D1*
X29837Y14039D1*
X29787Y14032D1*
X29737Y14031D1*
X29687Y14035D1*
X29638Y14044D1*
X29590Y14059D1*
X29544Y14078D1*
X29501Y14102D1*
X29460Y14131D1*
X29411Y14177D1*
X28892Y14176D1*
X28822Y14106D1*
X28739Y14051D1*
X28647Y14013D1*
X28594Y14000D1*
X28651Y13986D1*
X28743Y13947D1*
X28825Y13891D1*
X28892Y13823D1*
X29411Y13824D1*
X29461Y13870D1*
X29502Y13898D1*
X29546Y13922D1*
X29592Y13942D1*
X29640Y13956D1*
X29689Y13965D1*
X29739Y13969D1*
X29789Y13968D1*
X29838Y13961D1*
X29887Y13949D1*
X29934Y13932D1*
X29978Y13910D1*
X30021Y13883D1*
X30060Y13852D1*
X30096Y13817D1*
X30127Y13779D1*
X30155Y13737D1*
X30178Y13693D1*
X30196Y13646D1*
X30209Y13598D1*
X30217Y13548D1*
X30219Y13500D1*
X30217Y13450D1*
X30209Y13401D1*
X30196Y13353D1*
X30177Y13306D1*
X30154Y13262D1*
X30127Y13220D1*
X30095Y13182D1*
X30059Y13147D1*
X30020Y13116D1*
X29977Y13089D1*
X29932Y13068D1*
X29885Y13051D1*
X29837Y13039D1*
X29787Y13032D1*
X29737Y13031D1*
X29687Y13035D1*
X29638Y13044D1*
X29590Y13059D1*
X29544Y13078D1*
X29501Y13102D1*
X29460Y13131D1*
X29411Y13177D1*
X28892Y13176D1*
X28822Y13106D1*
X28739Y13051D1*
X28647Y13013D1*
X28594Y13000D1*
X28651Y12986D1*
X28743Y12947D1*
X28825Y12891D1*
X28892Y12823D1*
X29411Y12824D1*
X29461Y12870D1*
X29502Y12898D1*
X29546Y12922D1*
X29592Y12942D1*
X29640Y12956D1*
X29689Y12965D1*
X29739Y12969D1*
X29789Y12968D1*
X29838Y12961D1*
X29887Y12949D1*
X29934Y12932D1*
X29978Y12910D1*
X30021Y12883D1*
X30060Y12852D1*
X30096Y12817D1*
X30127Y12779D1*
X30155Y12737D1*
X30178Y12693D1*
X30196Y12646D1*
X30209Y12598D1*
X30217Y12548D1*
X30219Y12500D1*
X30217Y12450D1*
X30209Y12401D1*
X30196Y12353D1*
X30177Y12306D1*
X30154Y12262D1*
X30127Y12220D1*
X30095Y12182D1*
X30059Y12147D1*
X30020Y12116D1*
X29977Y12089D1*
X29932Y12068D1*
X29885Y12051D1*
X29837Y12039D1*
X29787Y12032D1*
X29737Y12031D1*
X29687Y12035D1*
X29638Y12044D1*
X29590Y12059D1*
X29544Y12078D1*
X29501Y12102D1*
X29460Y12131D1*
X29411Y12177D1*
X28892Y12176D1*
X28822Y12106D1*
X28739Y12051D1*
X28647Y12013D1*
X28594Y12000D1*
X28651Y11986D1*
X28743Y11947D1*
X28825Y11891D1*
X28892Y11823D1*
X29411Y11824D1*
X29461Y11870D1*
X29502Y11898D1*
X29546Y11922D1*
X29592Y11942D1*
X29640Y11956D1*
X29689Y11965D1*
X29739Y11969D1*
X29789Y11968D1*
X29838Y11961D1*
X29887Y11949D1*
X29934Y11932D1*
X29978Y11910D1*
X30021Y11883D1*
X30060Y11852D1*
X30096Y11817D1*
X30127Y11779D1*
X30155Y11737D1*
X30178Y11693D1*
X30196Y11646D1*
X30209Y11598D1*
X30217Y11548D1*
X30219Y11500D1*
X30217Y11450D1*
X30209Y11401D1*
X30196Y11353D1*
X30177Y11306D1*
X30154Y11262D1*
X30127Y11220D1*
X30095Y11182D1*
X30059Y11147D1*
X30020Y11116D1*
X29977Y11089D1*
X29932Y11068D1*
X29885Y11051D1*
X29837Y11039D1*
X29787Y11032D1*
X29737Y11031D1*
X29687Y11035D1*
X29638Y11044D1*
X29590Y11059D1*
X29544Y11078D1*
X29501Y11102D1*
X29460Y11131D1*
X29411Y11177D1*
X28892Y11176D1*
X28822Y11106D1*
X28739Y11051D1*
X28647Y11013D1*
X28594Y11000D1*
X28670Y10979D1*
X28734Y10952D1*
X28794Y10915D1*
X28848Y10871D1*
X28895Y10820D1*
X28936Y10763D1*
X28968Y10700D1*
X28991Y10634D1*
X29004Y10566D1*
X29009Y10490D1*
X29002Y10420D1*
X28987Y10352D1*
X28962Y10287D1*
X28928Y10225D1*
X28886Y10169D1*
X28837Y10119D1*
X28782Y10077D1*
X28721Y10042D1*
X28656Y10016D1*
X28631Y10009D1*
X29009D1*
Y8991D1*
X27991D1*
Y10009D1*
X28041D1*
X26561Y4989D2*
X27489D1*
Y4011D1*
X26511D1*
Y4989D1*
X26561D1*
X26505Y4490D2*
X26498Y4420D1*
X26482Y4352D1*
X26456Y4287D1*
X26421Y4227D1*
X26378Y4172D1*
X26328Y4123D1*
X26271Y4083D1*
X26208Y4051D1*
X26142Y4028D1*
X26074Y4014D1*
X26004Y4011D1*
X25934Y4018D1*
X25866Y4034D1*
X25801Y4061D1*
X25741Y4096D1*
X25686Y4139D1*
X25638Y4190D1*
X25597Y4247D1*
X25566Y4309D1*
X25543Y4375D1*
X25530Y4444D1*
X25527Y4514D1*
X25534Y4583D1*
X25551Y4651D1*
X25577Y4716D1*
X25612Y4777D1*
X25656Y4831D1*
X25707Y4879D1*
X25764Y4919D1*
X25827Y4951D1*
X25893Y4973D1*
X25962Y4986D1*
X26032Y4989D1*
X26101Y4981D1*
X26169Y4964D1*
X26234Y4938D1*
X26294Y4902D1*
X26348Y4858D1*
X26396Y4807D1*
X26436Y4750D1*
X26467Y4687D1*
X26490Y4621D1*
X26502Y4552D1*
X26505Y4490D1*
X30061Y4989D2*
X30989D1*
Y4011D1*
X30737D1*
X30739Y3905D1*
X30810Y3852D1*
X30846Y3817D1*
X30877Y3779D1*
X30905Y3737D1*
X30928Y3693D1*
X30946Y3646D1*
X30959Y3598D1*
X30967Y3548D1*
X30969Y3500D1*
X30967Y3450D1*
X30959Y3401D1*
X30946Y3353D1*
X30927Y3306D1*
X30904Y3262D1*
X30877Y3220D1*
X30845Y3182D1*
X30809Y3147D1*
X30770Y3116D1*
X30727Y3089D1*
X30682Y3068D1*
X30635Y3051D1*
X30587Y3039D1*
X30537Y3032D1*
X30487Y3031D1*
X30437Y3035D1*
X30388Y3044D1*
X30340Y3059D1*
X30294Y3078D1*
X30251Y3102D1*
X30210Y3131D1*
X30172Y3164D1*
X30138Y3201D1*
X30109Y3241D1*
X30083Y3284D1*
X30063Y3330D1*
X30047Y3377D1*
X30037Y3426D1*
X30031Y3476D1*
Y3526D1*
X30037Y3575D1*
X30047Y3624D1*
X30063Y3672D1*
X30084Y3717D1*
X30109Y3760D1*
X30139Y3800D1*
X30173Y3837D1*
X30211Y3870D1*
X30261Y3904D1*
Y4011D1*
X30011D1*
Y4989D1*
X30061D1*
X30002Y4450D2*
X29995Y4401D1*
X29982Y4352D1*
X29964Y4306D1*
X29942Y4261D1*
X29916Y4218D1*
X29885Y4179D1*
X29850Y4143D1*
X29812Y4111D1*
X29739Y4066D1*
Y3905D1*
X29810Y3852D1*
X29846Y3817D1*
X29877Y3779D1*
X29905Y3737D1*
X29928Y3693D1*
X29946Y3646D1*
X29959Y3598D1*
X29967Y3548D1*
X29969Y3500D1*
X29967Y3450D1*
X29959Y3401D1*
X29946Y3353D1*
X29927Y3306D1*
X29904Y3262D1*
X29877Y3220D1*
X29845Y3182D1*
X29809Y3147D1*
X29770Y3116D1*
X29727Y3089D1*
X29682Y3068D1*
X29635Y3051D1*
X29587Y3039D1*
X29537Y3032D1*
X29487Y3031D1*
X29437Y3035D1*
X29388Y3044D1*
X29340Y3059D1*
X29294Y3078D1*
X29251Y3102D1*
X29210Y3131D1*
X29172Y3164D1*
X29138Y3201D1*
X29109Y3241D1*
X29083Y3284D1*
X29063Y3330D1*
X29047Y3377D1*
X29037Y3426D1*
X29031Y3476D1*
Y3526D1*
X29037Y3575D1*
X29047Y3624D1*
X29063Y3672D1*
X29084Y3717D1*
X29109Y3760D1*
X29139Y3800D1*
X29173Y3837D1*
X29211Y3870D1*
X29261Y3904D1*
Y4083D1*
X29209Y4119D1*
X29171Y4153D1*
X29138Y4190D1*
X29108Y4230D1*
X29083Y4273D1*
X29062Y4318D1*
X29046Y4366D1*
X29034Y4414D1*
X29028Y4464D1*
X29027Y4514D1*
X29031Y4564D1*
X29040Y4613D1*
X29054Y4661D1*
X29073Y4707D1*
X29096Y4751D1*
X29124Y4793D1*
X29156Y4831D1*
X29192Y4866D1*
X29231Y4897D1*
X29273Y4924D1*
X29317Y4947D1*
X29364Y4965D1*
X29412Y4978D1*
X29462Y4986D1*
X29512Y4989D1*
X29562Y4987D1*
X29611Y4980D1*
X29659Y4967D1*
X29706Y4950D1*
X29751Y4928D1*
X29794Y4902D1*
X29833Y4872D1*
X29870Y4837D1*
X29902Y4799D1*
X29931Y4758D1*
X29955Y4715D1*
X29975Y4669D1*
X29990Y4621D1*
X29999Y4572D1*
X30005Y4500D1*
X30002Y4450D1*
X32291Y5009D2*
X33259D1*
X33261Y4640D1*
X33285Y4706D1*
X33318Y4768D1*
X33358Y4825D1*
X33407Y4875D1*
X33461Y4919D1*
X33522Y4954D1*
X33586Y4981D1*
X33654Y4999D1*
X33723Y5008D1*
X33793Y5007D1*
X33862Y4996D1*
X33929Y4976D1*
X33993Y4947D1*
X34052Y4909D1*
X34105Y4864D1*
X34152Y4812D1*
X34191Y4754D1*
X34221Y4691D1*
X34243Y4625D1*
X34256Y4556D1*
X34258Y4480D1*
X34251Y4410D1*
X34234Y4343D1*
X34208Y4278D1*
X34173Y4217D1*
X34130Y4162D1*
X34080Y4113D1*
X34024Y4071D1*
X33962Y4038D1*
X33897Y4013D1*
X33829Y3997D1*
X33759Y3991D1*
X33689Y3995D1*
X33620Y4008D1*
X33554Y4031D1*
X33492Y4062D1*
X33434Y4101D1*
X33382Y4149D1*
X33338Y4202D1*
X33301Y4262D1*
X33272Y4326D1*
X33259Y4369D1*
Y3991D1*
X32988D1*
X32989Y3905D1*
X33060Y3852D1*
X33096Y3817D1*
X33127Y3779D1*
X33155Y3737D1*
X33178Y3693D1*
X33196Y3646D1*
X33209Y3598D1*
X33217Y3548D1*
X33219Y3500D1*
X33217Y3450D1*
X33209Y3401D1*
X33196Y3353D1*
X33177Y3306D1*
X33154Y3262D1*
X33127Y3220D1*
X33095Y3182D1*
X33059Y3147D1*
X33020Y3116D1*
X32977Y3089D1*
X32932Y3068D1*
X32885Y3051D1*
X32837Y3039D1*
X32787Y3032D1*
X32737Y3031D1*
X32687Y3035D1*
X32638Y3044D1*
X32590Y3059D1*
X32544Y3078D1*
X32501Y3102D1*
X32460Y3131D1*
X32422Y3164D1*
X32388Y3201D1*
X32359Y3241D1*
X32333Y3284D1*
X32313Y3330D1*
X32297Y3377D1*
X32287Y3426D1*
X32281Y3476D1*
Y3526D1*
X32287Y3575D1*
X32297Y3624D1*
X32313Y3672D1*
X32334Y3717D1*
X32359Y3760D1*
X32389Y3800D1*
X32423Y3837D1*
X32461Y3870D1*
X32511Y3904D1*
Y3992D1*
X32241Y3991D1*
Y5009D1*
X32291D1*
X3752Y8048D2*
X3941D1*
X3893Y8084D1*
X3823Y8156D1*
X3768Y8239D1*
X3729Y8331D1*
X3707Y8429D1*
X3703Y8528D1*
X3717Y8627D1*
X3749Y8722D1*
X3797Y8809D1*
X3861Y8886D1*
X3938Y8950D1*
X4026Y9000D1*
X3965Y9032D1*
X3908Y9072D1*
X3856Y9119D1*
X3811Y9172D1*
X3773Y9231D1*
X3742Y9294D1*
X3720Y9360D1*
X3707Y9429D1*
X3702Y9498D1*
X3706Y9568D1*
X3719Y9637D1*
X3741Y9703D1*
X3771Y9767D1*
X3809Y9825D1*
X3854Y9879D1*
X3906Y9926D1*
X3963Y9967D1*
X4024Y9999D1*
X4090Y10024D1*
X4158Y10040D1*
X4228Y10048D1*
X4297Y10046D1*
X4367Y10035D1*
X4434Y10016D1*
X4498Y9989D1*
X4558Y9953D1*
X4614Y9910D1*
X4663Y9860D1*
X4705Y9805D1*
X4741Y9744D1*
X4768Y9680D1*
X4786Y9612D1*
X4796Y9543D1*
X4797Y9470D1*
X4789Y9401D1*
X4772Y9333D1*
X4746Y9268D1*
X4713Y9206D1*
X4671Y9150D1*
X4623Y9099D1*
X4569Y9055D1*
X4510Y9018D1*
X4474Y9000D1*
X4550Y8959D1*
X4628Y8896D1*
X4691Y8825D1*
X4911Y8824D1*
X4961Y8870D1*
X5002Y8898D1*
X5046Y8922D1*
X5092Y8942D1*
X5140Y8956D1*
X5189Y8965D1*
X5239Y8969D1*
X5289Y8968D1*
X5338Y8961D1*
X5387Y8949D1*
X5434Y8932D1*
X5478Y8910D1*
X5521Y8883D1*
X5560Y8852D1*
X5596Y8817D1*
X5627Y8779D1*
X5655Y8737D1*
X5678Y8693D1*
X5696Y8646D1*
X5709Y8598D1*
X5717Y8548D1*
X5719Y8500D1*
X5717Y8450D1*
X5709Y8401D1*
X5696Y8353D1*
X5677Y8306D1*
X5654Y8262D1*
X5627Y8220D1*
X5595Y8182D1*
X5559Y8147D1*
X5520Y8116D1*
X5477Y8089D1*
X5432Y8068D1*
X5385Y8051D1*
X5337Y8039D1*
X5287Y8032D1*
X5237Y8031D1*
X5187Y8035D1*
X5138Y8044D1*
X5090Y8059D1*
X5044Y8078D1*
X5001Y8102D1*
X4960Y8131D1*
X4911Y8177D1*
X4692Y8176D1*
X4623Y8099D1*
X4558Y8048D1*
X4798D1*
Y6952D1*
X3702D1*
Y8048D1*
X3752D1*
X16060Y11642D2*
Y11187D1*
X16055Y11138D1*
X16039Y11090D1*
X16014Y11047D1*
X15981Y11010D1*
X15941Y10981D1*
X15895Y10960D1*
X15845Y10950D1*
X15571Y10948D1*
X11360D1*
X11297Y10914D1*
X11249Y10900D1*
X11199Y10894D1*
X11150Y10896D1*
X11101Y10906D1*
X11054Y10925D1*
X11012Y10952D1*
X10975Y10985D1*
X10943Y11024D1*
X10919Y11067D1*
X10903Y11114D1*
X10894Y11164D1*
X10895Y11214D1*
X10903Y11263D1*
X10920Y11310D1*
X10945Y11353D1*
X10976Y11392D1*
X11014Y11425D1*
X11056Y11451D1*
X11103Y11469D1*
X11152Y11479D1*
X11202Y11481D1*
X11251Y11475D1*
X11299Y11460D1*
X11357Y11427D1*
X15583Y11426D1*
X15582Y11642D1*
X15552Y11692D1*
X15536Y11739D1*
X15528Y11789D1*
Y11839D1*
X15537Y11888D1*
X15553Y11935D1*
X15578Y11978D1*
X15610Y12017D1*
X15647Y12050D1*
X15690Y12076D1*
X15736Y12094D1*
X15785Y12104D1*
X15835Y12106D1*
X15885Y12100D1*
X15932Y12085D1*
X15977Y12062D1*
X16017Y12032D1*
X16051Y11996D1*
X16079Y11954D1*
X16099Y11908D1*
X16111Y11860D1*
X16115Y11813D1*
X16111Y11763D1*
X16098Y11714D1*
X16078Y11669D1*
X16059Y11642D1*
X11358Y4551D2*
X16955D1*
X16994Y4576D1*
X17040Y4594D1*
X17089Y4604D1*
X17139Y4606D1*
X17189Y4600D1*
X17236Y4585D1*
X17281Y4562D1*
X17321Y4532D1*
X17355Y4496D1*
X17383Y4454D1*
X17403Y4408D1*
X17415Y4360D1*
X17419Y4312D1*
X17415Y4263D1*
X17402Y4214D1*
X17382Y4169D1*
X17354Y4128D1*
X17319Y4092D1*
X17279Y4062D1*
X17234Y4039D1*
X17186Y4025D1*
X17137Y4019D1*
X17087Y4021D1*
X17038Y4031D1*
X16992Y4050D1*
X16953Y4074D1*
X12475Y4073D1*
X11358D1*
X11297Y4039D1*
X11249Y4025D1*
X11199Y4019D1*
X11150Y4021D1*
X11101Y4031D1*
X11054Y4050D1*
X11012Y4077D1*
X10975Y4110D1*
X10943Y4149D1*
X10919Y4192D1*
X10903Y4239D1*
X10894Y4289D1*
X10895Y4339D1*
X10903Y4388D1*
X10920Y4435D1*
X10945Y4478D1*
X10976Y4517D1*
X11014Y4550D1*
X11056Y4576D1*
X11103Y4594D1*
X11152Y4604D1*
X11202Y4606D1*
X11251Y4600D1*
X11299Y4585D1*
X11357Y4552D1*
X47773Y2201D2*
X47275Y2698D1*
X46670D1*
X46609Y2664D1*
X46561Y2650D1*
X46512Y2644D1*
X46462Y2646D1*
X46413Y2656D1*
X46367Y2675D1*
X46325Y2702D1*
X46287Y2735D1*
X46256Y2774D1*
X46232Y2817D1*
X46215Y2864D1*
X46207Y2914D1*
Y2964D1*
X46216Y3013D1*
X46233Y3060D1*
X46257Y3103D1*
X46289Y3142D1*
X46326Y3175D1*
X46369Y3201D1*
X46415Y3219D1*
X46464Y3229D1*
X46514Y3231D1*
X46564Y3225D1*
X46611Y3210D1*
X46670Y3177D1*
X47375Y3176D1*
X47425Y3171D1*
X47472Y3156D1*
X47505Y3138D1*
X47544Y3106D1*
X48111Y2540D1*
X48174Y2522D1*
X48218Y2499D1*
X48258Y2469D1*
X48293Y2433D1*
X48320Y2392D1*
X48340Y2346D1*
X48353Y2298D1*
X48357Y2250D1*
X48352Y2200D1*
X48340Y2152D1*
X48319Y2106D1*
X48291Y2065D1*
X48257Y2029D1*
X48216Y1999D1*
X48172Y1977D1*
X48124Y1962D1*
X48074Y1956D1*
X48025Y1958D1*
X47976Y1969D1*
X47929Y1988D1*
X47887Y2014D1*
X47850Y2047D1*
X47818Y2086D1*
X47794Y2130D1*
X47778Y2177D1*
X47774Y2200D1*
X20670Y8551D2*
X22767D1*
X22806Y8576D1*
X22853Y8594D1*
X22902Y8604D1*
X22952Y8606D1*
X23001Y8600D1*
X23049Y8585D1*
X23093Y8562D1*
X23133Y8532D1*
X23168Y8496D1*
X23195Y8454D1*
X23215Y8408D1*
X23228Y8360D1*
X23232Y8312D1*
X23227Y8263D1*
X23215Y8214D1*
X23194Y8169D1*
X23166Y8128D1*
X23132Y8092D1*
X23091Y8062D1*
X23047Y8039D1*
X22999Y8025D1*
X22949Y8019D1*
X22900Y8021D1*
X22851Y8031D1*
X22804Y8050D1*
X22766Y8074D1*
X20670D1*
X20609Y8039D1*
X20561Y8025D1*
X20512Y8019D1*
X20462Y8021D1*
X20413Y8031D1*
X20367Y8050D1*
X20325Y8077D1*
X20287Y8110D1*
X20256Y8149D1*
X20232Y8192D1*
X20215Y8239D1*
X20207Y8289D1*
Y8339D1*
X20216Y8388D1*
X20233Y8435D1*
X20257Y8478D1*
X20289Y8517D1*
X20326Y8550D1*
X20369Y8576D1*
X20415Y8594D1*
X20464Y8604D1*
X20514Y8606D1*
X20564Y8600D1*
X20611Y8585D1*
X20670Y8552D1*
Y6176D2*
X22767D1*
X22806Y6201D1*
X22853Y6219D1*
X22902Y6229D1*
X22952Y6231D1*
X23001Y6225D1*
X23049Y6210D1*
X23093Y6187D1*
X23133Y6157D1*
X23168Y6121D1*
X23195Y6079D1*
X23215Y6033D1*
X23228Y5985D1*
X23232Y5937D1*
X23227Y5888D1*
X23215Y5839D1*
X23194Y5794D1*
X23166Y5753D1*
X23132Y5717D1*
X23091Y5687D1*
X23047Y5664D1*
X22999Y5650D1*
X22949Y5644D1*
X22900Y5646D1*
X22851Y5656D1*
X22804Y5675D1*
X22766Y5699D1*
X20670D1*
X20609Y5664D1*
X20561Y5650D1*
X20512Y5644D1*
X20462Y5646D1*
X20413Y5656D1*
X20367Y5675D1*
X20325Y5702D1*
X20287Y5735D1*
X20256Y5774D1*
X20232Y5817D1*
X20215Y5864D1*
X20207Y5914D1*
Y5964D1*
X20216Y6013D1*
X20233Y6060D1*
X20257Y6103D1*
X20289Y6142D1*
X20326Y6175D1*
X20369Y6201D1*
X20415Y6219D1*
X20464Y6229D1*
X20514Y6231D1*
X20564Y6225D1*
X20611Y6210D1*
X20670Y6177D1*
X47073Y10920D2*
Y14955D1*
X47044Y15005D1*
X47028Y15052D1*
X47019Y15101D1*
X47020Y15151D1*
X47028Y15200D1*
X47045Y15247D1*
X47070Y15291D1*
X47101Y15329D1*
X47139Y15362D1*
X47181Y15388D1*
X47228Y15407D1*
X47277Y15417D1*
X47327Y15419D1*
X47376Y15412D1*
X47424Y15397D1*
X47468Y15374D1*
X47508Y15344D1*
X47543Y15308D1*
X47570Y15267D1*
X47590Y15221D1*
X47603Y15173D1*
X47607Y15125D1*
X47602Y15075D1*
X47590Y15027D1*
X47569Y14981D1*
X47551Y14954D1*
Y13225D1*
Y10920D1*
X47570Y10892D1*
X47590Y10846D1*
X47603Y10798D1*
X47607Y10750D1*
X47602Y10700D1*
X47590Y10652D1*
X47569Y10606D1*
X47541Y10565D1*
X47507Y10529D1*
X47466Y10499D1*
X47422Y10477D1*
X47374Y10462D1*
X47324Y10456D1*
X47275Y10458D1*
X47226Y10469D1*
X47179Y10488D1*
X47137Y10514D1*
X47100Y10547D1*
X47068Y10586D1*
X47044Y10630D1*
X47028Y10677D1*
X47019Y10726D1*
X47020Y10776D1*
X47028Y10825D1*
X47045Y10872D1*
X47075Y10922D1*
X51073Y11170D2*
Y14892D1*
X51044Y14942D1*
X51028Y14989D1*
X51019Y15039D1*
X51020Y15089D1*
X51028Y15138D1*
X51045Y15185D1*
X51070Y15228D1*
X51101Y15267D1*
X51139Y15300D1*
X51181Y15326D1*
X51228Y15344D1*
X51277Y15354D1*
X51327Y15356D1*
X51376Y15350D1*
X51424Y15335D1*
X51468Y15312D1*
X51508Y15282D1*
X51543Y15246D1*
X51570Y15204D1*
X51590Y15158D1*
X51603Y15110D1*
X51607Y15063D1*
X51602Y15013D1*
X51590Y14964D1*
X51569Y14919D1*
X51551Y14892D1*
Y13163D1*
Y11170D1*
X51570Y11142D1*
X51590Y11096D1*
X51603Y11048D1*
X51607Y11000D1*
X51602Y10950D1*
X51590Y10902D1*
X51569Y10856D1*
X51541Y10815D1*
X51507Y10779D1*
X51466Y10749D1*
X51422Y10727D1*
X51374Y10712D1*
X51324Y10706D1*
X51275Y10708D1*
X51226Y10719D1*
X51179Y10738D1*
X51137Y10764D1*
X51100Y10797D1*
X51068Y10836D1*
X51044Y10880D1*
X51028Y10927D1*
X51019Y10976D1*
X51020Y11026D1*
X51028Y11075D1*
X51045Y11122D1*
X51075Y11172D1*
X16000Y1508D2*
D23*
Y1000D1*
X17000Y1508D2*
Y1000D1*
X10400Y20000D2*
Y19492D1*
X38000Y3000D2*
Y2492D1*
Y3000D2*
X38508D1*
X37000D2*
Y2492D1*
X36492Y3000D2*
X37000D1*
X42000Y14508D2*
Y14000D1*
X42508D1*
X42000Y7508D2*
Y7000D1*
X42508D1*
X42000Y17000D2*
Y16492D1*
Y20508D2*
Y20000D1*
X8937Y14403D2*
Y13347D1*
X46000Y19457D2*
Y18480D1*
X45511Y18969D2*
X46489D1*
X50500Y19457D2*
Y18480D1*
X50011Y18969D2*
X50989D1*
X47750Y7008D2*
Y5992D1*
X47242Y6500D2*
X47750D1*
X27992Y10500D2*
X29008D1*
X28500Y17008D2*
Y16500D1*
X27992D2*
X29008D1*
X26016Y4989D2*
Y4011D1*
X25527Y4500D2*
X26505D1*
X33750Y5008D2*
Y3992D1*
Y4500D2*
X34258D1*
X2000Y10048D2*
Y9500D1*
X2548D1*
X4250Y10048D2*
Y9500D1*
X3702D2*
X4798D1*
D38*
X11000Y1000D3*
D39*
X12000D3*
X13000D3*
X14000D3*
X15000D3*
X16000D3*
X17000D3*
X18000D3*
D38*
X9400Y20000D3*
D39*
X10400D3*
X11400D3*
X12400D3*
X13400D3*
X14400D3*
X15400D3*
X16400D3*
D38*
X38000D3*
D39*
X37000D3*
X38000Y19000D3*
X37000D3*
X38000Y18000D3*
X37000D3*
X38000Y17000D3*
X37000D3*
X38000Y16000D3*
X37000D3*
X38000Y15000D3*
X37000D3*
X38000Y14000D3*
X37000D3*
X38000Y13000D3*
X37000D3*
X38000Y12000D3*
X37000D3*
X38000Y11000D3*
X37000D3*
X38000Y10000D3*
X37000D3*
X38000Y9000D3*
X37000D3*
X38000Y8000D3*
X37000D3*
X38000Y7000D3*
X37000D3*
X38000Y6000D3*
X37000D3*
X38000Y5000D3*
X37000D3*
X38000Y4000D3*
X37000D3*
X38000Y3000D3*
X37000D3*
D38*
X20000Y1000D3*
D39*
X21000D3*
X22000D3*
X23000D3*
X24000D3*
X25000D3*
X26000D3*
X27000D3*
D38*
X18000Y20000D3*
D39*
X19000D3*
X20000D3*
X21000D3*
X22000D3*
X23000D3*
X24000D3*
X25000D3*
D38*
X42000Y10000D3*
D39*
X41000D3*
X42000Y11000D3*
X41000D3*
X42000Y12000D3*
X41000D3*
X42000Y13000D3*
X41000D3*
X42000Y14000D3*
X41000D3*
D38*
X29000Y1000D3*
D39*
X30000D3*
X31000D3*
X32000D3*
X33000D3*
X34000D3*
X35000D3*
X36000D3*
D38*
X27000Y20000D3*
D39*
X28000D3*
X29000D3*
X30000D3*
X31000D3*
X32000D3*
X33000D3*
X34000D3*
D38*
X42000Y3000D3*
D39*
X41000D3*
X42000Y4000D3*
X41000D3*
X42000Y5000D3*
X41000D3*
X42000Y6000D3*
X41000D3*
X42000Y7000D3*
X41000D3*
D38*
X44500Y3000D3*
D39*
Y4000D3*
Y5000D3*
Y6000D3*
D38*
X41000Y17000D3*
D39*
Y18000D3*
Y19000D3*
Y20000D3*
D38*
X42000Y17000D3*
D39*
Y18000D3*
Y19000D3*
Y20000D3*
D38*
X43000Y17000D3*
D39*
Y18000D3*
Y19000D3*
Y20000D3*
D40*
X7937Y13875D3*
D41*
X8937D3*
X9937D3*
D42*
X46000Y17000D3*
D43*
Y17984D3*
Y18969D3*
D42*
X50500Y17000D3*
D43*
Y17984D3*
Y18969D3*
D38*
X47750Y6500D3*
D39*
X48750D3*
X49750D3*
X50750D3*
D38*
X26500Y11500D3*
D39*
Y12500D3*
Y13500D3*
Y14500D3*
D38*
X33500Y9500D3*
D39*
Y10500D3*
Y11500D3*
Y12500D3*
Y13500D3*
Y14500D3*
Y15500D3*
Y16500D3*
D38*
X28500Y9500D3*
D39*
Y10500D3*
Y11500D3*
Y12500D3*
Y13500D3*
Y14500D3*
Y15500D3*
Y16500D3*
D42*
X27000Y4500D3*
D43*
X26016D3*
D42*
X30500D3*
D43*
X29516D3*
D44*
X4500Y18250D3*
D45*
X3500D3*
X2500D3*
X1500D3*
D38*
X32750Y4500D3*
D39*
X33750D3*
D49*
X2000Y7500D3*
D50*
Y8500D3*
Y9500D3*
D49*
X4250Y7500D3*
D50*
Y8500D3*
Y9500D3*
D52*
X7937Y12625D3*
X8937D3*
X9937D3*
X50750Y5500D3*
X45000Y17000D3*
Y18000D3*
X47750Y5500D3*
X49500Y17000D3*
Y18000D3*
X48750Y5500D3*
X49750D3*
X29750Y11500D3*
Y12500D3*
Y13500D3*
Y14500D3*
X30500Y3500D3*
X29500D3*
X3000Y8500D3*
X5250D3*
X32750Y3500D3*
M02*
