G04 DipTrace 2.4.0.2*
%INTopAssy.gbr*%
%MOIN*%
%ADD10C,0.0098*%
%ADD12C,0.003*%
%ADD47C,0.0154*%
%ADD111C,0.0046*%
%ADD112C,0.0124*%
%FSLAX44Y44*%
G04*
G70*
G90*
G75*
G01*
%LNTopAssy*%
%LPD*%
X43902Y2106D2*
D10*
Y6894D1*
X40402Y16106D2*
Y20894D1*
X41402Y16106D2*
Y20894D1*
X42402Y16106D2*
Y20894D1*
X46856Y7098D2*
X51644D1*
X25902Y10606D2*
Y15394D1*
X32902Y8811D2*
Y17189D1*
X27902Y8811D2*
Y17189D1*
X31856Y5098D2*
X34644D1*
X187Y36563D2*
X13311D1*
Y34988D1*
X187D1*
Y36563D1*
Y34988D2*
X13311D1*
Y33413D1*
X187D1*
Y34988D1*
Y33413D2*
X13311D1*
Y31838D1*
X187D1*
Y33413D1*
Y31838D2*
X13311D1*
Y30263D1*
X187D1*
Y31838D1*
Y30263D2*
X13311D1*
Y28688D1*
X187D1*
Y30263D1*
Y28688D2*
X13311D1*
Y27114D1*
X187D1*
Y28688D1*
X13311Y36563D2*
X19873D1*
Y34988D1*
X13311D1*
Y36563D1*
Y34988D2*
X19873D1*
Y33413D1*
X13311D1*
Y34988D1*
Y33413D2*
X19873D1*
Y31838D1*
X13311D1*
Y33413D1*
Y31838D2*
X19873D1*
Y30263D1*
X13311D1*
Y31838D1*
Y30263D2*
X19873D1*
Y28688D1*
X13311D1*
Y30263D1*
Y28688D2*
X19873D1*
Y27114D1*
X13311D1*
Y28688D1*
X19193Y6127D2*
D111*
X19179Y6156D1*
X19150Y6184D1*
X19122Y6199D1*
X19064D1*
X19035Y6184D1*
X19007Y6156D1*
X18992Y6127D1*
X18978Y6084D1*
Y6012D1*
X18992Y5969D1*
X19007Y5940D1*
X19035Y5912D1*
X19064Y5897D1*
X19122D1*
X19150Y5912D1*
X19179Y5940D1*
X19193Y5969D1*
X19286Y6141D2*
X19315Y6156D1*
X19358Y6198D1*
Y5897D1*
X19537Y6198D2*
X19494Y6184D1*
X19465Y6141D1*
X19451Y6069D1*
Y6026D1*
X19465Y5955D1*
X19494Y5911D1*
X19537Y5897D1*
X19565D1*
X19608Y5911D1*
X19637Y5955D1*
X19652Y6026D1*
Y6069D1*
X19637Y6141D1*
X19608Y6184D1*
X19565Y6198D1*
X19537D1*
X19637Y6141D2*
X19465Y5955D1*
X19744Y6141D2*
X19773Y6156D1*
X19816Y6198D1*
Y5897D1*
X19210Y5002D2*
X19195Y5031D1*
X19167Y5059D1*
X19138Y5074D1*
X19081D1*
X19052Y5059D1*
X19023Y5031D1*
X19009Y5002D1*
X18995Y4959D1*
Y4887D1*
X19009Y4844D1*
X19023Y4815D1*
X19052Y4787D1*
X19081Y4772D1*
X19138D1*
X19167Y4787D1*
X19195Y4815D1*
X19210Y4844D1*
X19302Y5016D2*
X19331Y5031D1*
X19374Y5073D1*
Y4772D1*
X19553Y5073D2*
X19510Y5059D1*
X19481Y5016D1*
X19467Y4944D1*
Y4901D1*
X19481Y4830D1*
X19510Y4786D1*
X19553Y4772D1*
X19582D1*
X19625Y4786D1*
X19653Y4830D1*
X19668Y4901D1*
Y4944D1*
X19653Y5016D1*
X19625Y5059D1*
X19582Y5073D1*
X19553D1*
X19653Y5016D2*
X19481Y4830D1*
X19775Y5002D2*
Y5016D1*
X19789Y5045D1*
X19804Y5059D1*
X19833Y5073D1*
X19890D1*
X19918Y5059D1*
X19933Y5045D1*
X19947Y5016D1*
Y4987D1*
X19933Y4959D1*
X19904Y4916D1*
X19761Y4772D1*
X19962D1*
X14323Y4225D2*
X14309Y4254D1*
X14280Y4283D1*
X14251Y4297D1*
X14194D1*
X14165Y4283D1*
X14136Y4254D1*
X14122Y4225D1*
X14108Y4182D1*
Y4110D1*
X14122Y4068D1*
X14136Y4039D1*
X14165Y4010D1*
X14194Y3996D1*
X14251D1*
X14280Y4010D1*
X14309Y4039D1*
X14323Y4068D1*
X14415Y4239D2*
X14444Y4254D1*
X14487Y4297D1*
Y3996D1*
X14666Y4297D2*
X14623Y4282D1*
X14594Y4239D1*
X14580Y4168D1*
Y4125D1*
X14594Y4053D1*
X14623Y4010D1*
X14666Y3996D1*
X14695D1*
X14738Y4010D1*
X14766Y4053D1*
X14781Y4125D1*
Y4168D1*
X14766Y4239D1*
X14738Y4282D1*
X14695Y4297D1*
X14666D1*
X14766Y4239D2*
X14594Y4053D1*
X14903Y4297D2*
X15060D1*
X14974Y4182D1*
X15017D1*
X15046Y4168D1*
X15060Y4153D1*
X15075Y4110D1*
Y4082D1*
X15060Y4039D1*
X15032Y4010D1*
X14988Y3996D1*
X14945D1*
X14903Y4010D1*
X14888Y4024D1*
X14874Y4053D1*
X22831Y7256D2*
X22803Y7242D1*
X22774Y7213D1*
X22759Y7184D1*
Y7127D1*
X22774Y7098D1*
X22803Y7070D1*
X22831Y7055D1*
X22874Y7041D1*
X22946D1*
X22989Y7055D1*
X23018Y7070D1*
X23046Y7098D1*
X23061Y7127D1*
Y7184D1*
X23046Y7213D1*
X23018Y7242D1*
X22989Y7256D1*
X22817Y7349D2*
X22803Y7378D1*
X22760Y7421D1*
X23061D1*
X22760Y7600D2*
X22774Y7556D1*
X22817Y7528D1*
X22889Y7513D1*
X22932D1*
X23004Y7528D1*
X23047Y7556D1*
X23061Y7600D1*
Y7628D1*
X23047Y7671D1*
X23004Y7700D1*
X22932Y7714D1*
X22889D1*
X22817Y7700D1*
X22774Y7671D1*
X22760Y7628D1*
Y7600D1*
X22817Y7700D2*
X23004Y7528D1*
X23061Y7951D2*
X22760D1*
X22960Y7807D1*
Y8022D1*
X22894Y12138D2*
X22865Y12124D1*
X22836Y12095D1*
X22822Y12067D1*
Y12009D1*
X22836Y11980D1*
X22865Y11952D1*
X22894Y11937D1*
X22937Y11923D1*
X23009D1*
X23051Y11937D1*
X23080Y11952D1*
X23109Y11980D1*
X23123Y12009D1*
Y12067D1*
X23109Y12095D1*
X23080Y12124D1*
X23051Y12138D1*
X22880Y12231D2*
X22865Y12260D1*
X22822Y12303D1*
X23123D1*
X22822Y12482D2*
X22837Y12439D1*
X22880Y12410D1*
X22951Y12395D1*
X22994D1*
X23066Y12410D1*
X23109Y12439D1*
X23123Y12482D1*
Y12510D1*
X23109Y12553D1*
X23066Y12582D1*
X22994Y12596D1*
X22951D1*
X22880Y12582D1*
X22837Y12553D1*
X22822Y12510D1*
Y12482D1*
X22880Y12582D2*
X23066Y12410D1*
X22822Y12861D2*
Y12718D1*
X22951Y12704D1*
X22937Y12718D1*
X22922Y12761D1*
Y12804D1*
X22937Y12847D1*
X22966Y12876D1*
X23009Y12890D1*
X23037D1*
X23080Y12876D1*
X23109Y12847D1*
X23123Y12804D1*
Y12761D1*
X23109Y12718D1*
X23095Y12704D1*
X23066Y12689D1*
X19222Y7725D2*
X19208Y7754D1*
X19179Y7783D1*
X19150Y7797D1*
X19093D1*
X19064Y7783D1*
X19035Y7754D1*
X19021Y7725D1*
X19007Y7682D1*
Y7610D1*
X19021Y7568D1*
X19035Y7539D1*
X19064Y7510D1*
X19093Y7496D1*
X19150D1*
X19179Y7510D1*
X19208Y7539D1*
X19222Y7568D1*
X19314Y7739D2*
X19343Y7754D1*
X19386Y7797D1*
Y7496D1*
X19565Y7797D2*
X19522Y7782D1*
X19493Y7739D1*
X19479Y7668D1*
Y7625D1*
X19493Y7553D1*
X19522Y7510D1*
X19565Y7496D1*
X19594D1*
X19637Y7510D1*
X19665Y7553D1*
X19680Y7625D1*
Y7668D1*
X19665Y7739D1*
X19637Y7782D1*
X19594Y7797D1*
X19565D1*
X19665Y7739D2*
X19493Y7553D1*
X19945Y7754D2*
X19930Y7782D1*
X19887Y7797D1*
X19859D1*
X19816Y7782D1*
X19787Y7739D1*
X19773Y7668D1*
Y7596D1*
X19787Y7539D1*
X19816Y7510D1*
X19859Y7496D1*
X19873D1*
X19916Y7510D1*
X19945Y7539D1*
X19959Y7582D1*
Y7596D1*
X19945Y7639D1*
X19916Y7668D1*
X19873Y7682D1*
X19859D1*
X19816Y7668D1*
X19787Y7639D1*
X19773Y7596D1*
X16622Y3691D2*
X16593Y3677D1*
X16564Y3648D1*
X16550Y3619D1*
Y3562D1*
X16564Y3533D1*
X16593Y3504D1*
X16622Y3490D1*
X16665Y3476D1*
X16737D1*
X16779Y3490D1*
X16808Y3504D1*
X16837Y3533D1*
X16851Y3562D1*
Y3619D1*
X16837Y3648D1*
X16808Y3677D1*
X16779Y3691D1*
X16608Y3783D2*
X16593Y3812D1*
X16550Y3855D1*
X16851D1*
X16550Y4034D2*
X16565Y3991D1*
X16608Y3962D1*
X16679Y3948D1*
X16722D1*
X16794Y3962D1*
X16837Y3991D1*
X16851Y4034D1*
Y4063D1*
X16837Y4106D1*
X16794Y4134D1*
X16722Y4149D1*
X16679D1*
X16608Y4134D1*
X16565Y4106D1*
X16550Y4063D1*
Y4034D1*
X16608Y4134D2*
X16794Y3962D1*
X16851Y4299D2*
X16550Y4443D1*
Y4242D1*
X12337Y13465D2*
X12308Y13450D1*
X12280Y13421D1*
X12265Y13393D1*
Y13336D1*
X12280Y13307D1*
X12308Y13278D1*
X12337Y13264D1*
X12380Y13249D1*
X12452D1*
X12495Y13264D1*
X12524Y13278D1*
X12552Y13307D1*
X12567Y13336D1*
Y13393D1*
X12552Y13421D1*
X12524Y13450D1*
X12495Y13465D1*
X12323Y13557D2*
X12308Y13586D1*
X12266Y13629D1*
X12567D1*
X12266Y13808D2*
X12280Y13765D1*
X12323Y13736D1*
X12395Y13722D1*
X12438D1*
X12509Y13736D1*
X12553Y13765D1*
X12567Y13808D1*
Y13837D1*
X12553Y13880D1*
X12509Y13908D1*
X12438Y13923D1*
X12395D1*
X12323Y13908D1*
X12280Y13880D1*
X12266Y13837D1*
Y13808D1*
X12323Y13908D2*
X12509Y13736D1*
X12266Y14087D2*
X12280Y14044D1*
X12308Y14030D1*
X12337D1*
X12366Y14044D1*
X12380Y14073D1*
X12395Y14130D1*
X12409Y14173D1*
X12438Y14202D1*
X12466Y14216D1*
X12509D1*
X12538Y14202D1*
X12553Y14187D1*
X12567Y14144D1*
Y14087D1*
X12553Y14044D1*
X12538Y14030D1*
X12509Y14015D1*
X12466D1*
X12438Y14030D1*
X12409Y14058D1*
X12395Y14101D1*
X12380Y14159D1*
X12366Y14187D1*
X12337Y14202D1*
X12308D1*
X12280Y14187D1*
X12266Y14144D1*
Y14087D1*
X13707Y9504D2*
X13693Y9533D1*
X13664Y9561D1*
X13635Y9576D1*
X13578D1*
X13549Y9561D1*
X13521Y9533D1*
X13506Y9504D1*
X13492Y9461D1*
Y9389D1*
X13506Y9346D1*
X13521Y9317D1*
X13549Y9289D1*
X13578Y9274D1*
X13635D1*
X13664Y9289D1*
X13693Y9317D1*
X13707Y9346D1*
X13800Y9518D2*
X13829Y9533D1*
X13872Y9575D1*
Y9274D1*
X14051Y9575D2*
X14007Y9561D1*
X13979Y9518D1*
X13964Y9446D1*
Y9403D1*
X13979Y9332D1*
X14007Y9288D1*
X14051Y9274D1*
X14079D1*
X14122Y9288D1*
X14151Y9332D1*
X14165Y9403D1*
Y9446D1*
X14151Y9518D1*
X14122Y9561D1*
X14079Y9575D1*
X14051D1*
X14151Y9518D2*
X13979Y9332D1*
X14445Y9475D2*
X14430Y9432D1*
X14402Y9403D1*
X14358Y9389D1*
X14344D1*
X14301Y9403D1*
X14273Y9432D1*
X14258Y9475D1*
Y9489D1*
X14273Y9533D1*
X14301Y9561D1*
X14344Y9575D1*
X14358D1*
X14402Y9561D1*
X14430Y9533D1*
X14445Y9475D1*
Y9403D1*
X14430Y9332D1*
X14402Y9288D1*
X14358Y9274D1*
X14330D1*
X14287Y9288D1*
X14273Y9317D1*
X16085Y9493D2*
X16071Y9521D1*
X16042Y9550D1*
X16014Y9564D1*
X15956D1*
X15928Y9550D1*
X15899Y9521D1*
X15884Y9493D1*
X15870Y9450D1*
Y9378D1*
X15884Y9335D1*
X15899Y9306D1*
X15928Y9277D1*
X15956Y9263D1*
X16014D1*
X16042Y9277D1*
X16071Y9306D1*
X16085Y9335D1*
X16178Y9507D2*
X16207Y9521D1*
X16250Y9564D1*
Y9263D1*
X16343Y9507D2*
X16371Y9521D1*
X16415Y9564D1*
Y9263D1*
X16593Y9564D2*
X16550Y9550D1*
X16521Y9507D1*
X16507Y9435D1*
Y9392D1*
X16521Y9320D1*
X16550Y9277D1*
X16593Y9263D1*
X16622D1*
X16665Y9277D1*
X16694Y9320D1*
X16708Y9392D1*
Y9435D1*
X16694Y9507D1*
X16665Y9550D1*
X16622Y9564D1*
X16593D1*
X16694Y9507D2*
X16521Y9320D1*
X15758Y17325D2*
X15744Y17354D1*
X15715Y17383D1*
X15686Y17397D1*
X15629D1*
X15600Y17383D1*
X15571Y17354D1*
X15557Y17325D1*
X15543Y17282D1*
Y17210D1*
X15557Y17167D1*
X15571Y17139D1*
X15600Y17110D1*
X15629Y17095D1*
X15686D1*
X15715Y17110D1*
X15744Y17139D1*
X15758Y17167D1*
X15850Y17339D2*
X15879Y17354D1*
X15922Y17397D1*
Y17095D1*
X16015Y17339D2*
X16044Y17354D1*
X16087Y17397D1*
Y17095D1*
X16180Y17339D2*
X16209Y17354D1*
X16252Y17397D1*
Y17095D1*
X17381Y17325D2*
X17367Y17354D1*
X17338Y17383D1*
X17309Y17397D1*
X17252D1*
X17223Y17383D1*
X17194Y17354D1*
X17180Y17325D1*
X17166Y17282D1*
Y17210D1*
X17180Y17167D1*
X17194Y17138D1*
X17223Y17110D1*
X17252Y17095D1*
X17309D1*
X17338Y17110D1*
X17367Y17138D1*
X17381Y17167D1*
X17473Y17339D2*
X17502Y17354D1*
X17545Y17396D1*
Y17095D1*
X17638Y17339D2*
X17667Y17354D1*
X17710Y17396D1*
Y17095D1*
X17817Y17325D2*
Y17339D1*
X17832Y17368D1*
X17846Y17382D1*
X17875Y17396D1*
X17932D1*
X17961Y17382D1*
X17975Y17368D1*
X17989Y17339D1*
Y17311D1*
X17975Y17282D1*
X17946Y17239D1*
X17803Y17095D1*
X18004D1*
X17837Y12939D2*
X17808Y12924D1*
X17780Y12895D1*
X17765Y12867D1*
Y12810D1*
X17780Y12781D1*
X17808Y12752D1*
X17837Y12738D1*
X17880Y12723D1*
X17952D1*
X17995Y12738D1*
X18024Y12752D1*
X18052Y12781D1*
X18067Y12810D1*
Y12867D1*
X18052Y12895D1*
X18024Y12924D1*
X17995Y12939D1*
X17823Y13031D2*
X17808Y13060D1*
X17766Y13103D1*
X18067D1*
X17823Y13196D2*
X17808Y13225D1*
X17766Y13268D1*
X18067D1*
X17766Y13389D2*
Y13547D1*
X17880Y13461D1*
Y13504D1*
X17895Y13532D1*
X17909Y13547D1*
X17952Y13561D1*
X17981D1*
X18024Y13547D1*
X18053Y13518D1*
X18067Y13475D1*
Y13432D1*
X18053Y13389D1*
X18038Y13375D1*
X18009Y13360D1*
X46685Y7441D2*
X46657Y7427D1*
X46628Y7398D1*
X46614Y7370D1*
Y7312D1*
X46628Y7284D1*
X46657Y7255D1*
X46685Y7240D1*
X46729Y7226D1*
X46801D1*
X46843Y7240D1*
X46872Y7255D1*
X46901Y7284D1*
X46915Y7312D1*
Y7370D1*
X46901Y7398D1*
X46872Y7427D1*
X46843Y7441D1*
X46686Y7549D2*
X46672D1*
X46643Y7563D1*
X46628Y7577D1*
X46614Y7606D1*
Y7663D1*
X46628Y7692D1*
X46643Y7706D1*
X46672Y7721D1*
X46700D1*
X46729Y7706D1*
X46772Y7678D1*
X46915Y7534D1*
Y7735D1*
X46614Y7914D2*
X46628Y7871D1*
X46672Y7842D1*
X46743Y7828D1*
X46786D1*
X46858Y7842D1*
X46901Y7871D1*
X46915Y7914D1*
Y7942D1*
X46901Y7985D1*
X46858Y8014D1*
X46786Y8029D1*
X46743D1*
X46672Y8014D1*
X46628Y7985D1*
X46614Y7942D1*
Y7914D1*
X46672Y8014D2*
X46858Y7842D1*
X46672Y8121D2*
X46657Y8150D1*
X46614Y8193D1*
X46915D1*
X52025Y3212D2*
X51996Y3198D1*
X51967Y3169D1*
X51953Y3141D1*
Y3083D1*
X51967Y3055D1*
X51996Y3026D1*
X52025Y3011D1*
X52068Y2997D1*
X52140D1*
X52182Y3011D1*
X52211Y3026D1*
X52240Y3055D1*
X52254Y3083D1*
Y3141D1*
X52240Y3169D1*
X52211Y3198D1*
X52182Y3212D1*
X52025Y3320D2*
X52011D1*
X51982Y3334D1*
X51967Y3348D1*
X51953Y3377D1*
Y3434D1*
X51967Y3463D1*
X51982Y3477D1*
X52011Y3492D1*
X52039D1*
X52068Y3477D1*
X52111Y3449D1*
X52254Y3305D1*
Y3506D1*
X51953Y3685D2*
X51967Y3642D1*
X52011Y3613D1*
X52082Y3599D1*
X52125D1*
X52197Y3613D1*
X52240Y3642D1*
X52254Y3685D1*
Y3713D1*
X52240Y3756D1*
X52197Y3785D1*
X52125Y3800D1*
X52082D1*
X52011Y3785D1*
X51967Y3756D1*
X51953Y3713D1*
Y3685D1*
X52011Y3785D2*
X52197Y3613D1*
X52025Y3907D2*
X52011D1*
X51982Y3921D1*
X51967Y3935D1*
X51953Y3964D1*
Y4022D1*
X51967Y4050D1*
X51982Y4064D1*
X52011Y4079D1*
X52039D1*
X52068Y4064D1*
X52111Y4036D1*
X52254Y3892D1*
Y4093D1*
X47373Y15020D2*
X47344Y15006D1*
X47316Y14977D1*
X47301Y14948D1*
Y14891D1*
X47316Y14862D1*
X47344Y14834D1*
X47373Y14819D1*
X47416Y14805D1*
X47488D1*
X47531Y14819D1*
X47560Y14834D1*
X47588Y14862D1*
X47603Y14891D1*
Y14948D1*
X47588Y14977D1*
X47560Y15006D1*
X47531Y15020D1*
X47373Y15127D2*
X47359D1*
X47330Y15142D1*
X47316Y15156D1*
X47302Y15185D1*
Y15242D1*
X47316Y15271D1*
X47330Y15285D1*
X47359Y15299D1*
X47388D1*
X47416Y15285D1*
X47459Y15256D1*
X47603Y15113D1*
Y15314D1*
X47302Y15493D2*
X47316Y15449D1*
X47359Y15421D1*
X47431Y15406D1*
X47474D1*
X47545Y15421D1*
X47588Y15449D1*
X47603Y15493D1*
Y15521D1*
X47588Y15564D1*
X47545Y15593D1*
X47474Y15607D1*
X47431D1*
X47359Y15593D1*
X47316Y15564D1*
X47302Y15521D1*
Y15493D1*
X47359Y15593D2*
X47545Y15421D1*
X47302Y15729D2*
Y15886D1*
X47416Y15800D1*
Y15843D1*
X47431Y15872D1*
X47445Y15886D1*
X47488Y15901D1*
X47517D1*
X47560Y15886D1*
X47588Y15858D1*
X47603Y15815D1*
Y15772D1*
X47588Y15729D1*
X47574Y15714D1*
X47545Y15700D1*
X51685Y7432D2*
X51657Y7418D1*
X51628Y7389D1*
X51614Y7361D1*
Y7303D1*
X51628Y7274D1*
X51657Y7246D1*
X51685Y7231D1*
X51729Y7217D1*
X51801D1*
X51843Y7231D1*
X51872Y7246D1*
X51901Y7274D1*
X51915Y7303D1*
Y7361D1*
X51901Y7389D1*
X51872Y7418D1*
X51843Y7432D1*
X51686Y7539D2*
X51672D1*
X51643Y7554D1*
X51628Y7568D1*
X51614Y7597D1*
Y7654D1*
X51628Y7683D1*
X51643Y7697D1*
X51672Y7712D1*
X51700D1*
X51729Y7697D1*
X51772Y7668D1*
X51915Y7525D1*
Y7726D1*
X51614Y7905D2*
X51628Y7862D1*
X51672Y7833D1*
X51743Y7818D1*
X51786D1*
X51858Y7833D1*
X51901Y7862D1*
X51915Y7905D1*
Y7933D1*
X51901Y7976D1*
X51858Y8005D1*
X51786Y8019D1*
X51743D1*
X51672Y8005D1*
X51628Y7976D1*
X51614Y7933D1*
Y7905D1*
X51672Y8005D2*
X51858Y7833D1*
X51915Y8256D2*
X51614D1*
X51815Y8112D1*
Y8327D1*
X50935Y15020D2*
X50907Y15006D1*
X50878Y14977D1*
X50864Y14948D1*
Y14891D1*
X50878Y14862D1*
X50907Y14834D1*
X50935Y14819D1*
X50979Y14805D1*
X51051D1*
X51093Y14819D1*
X51122Y14834D1*
X51151Y14862D1*
X51165Y14891D1*
Y14948D1*
X51151Y14977D1*
X51122Y15006D1*
X51093Y15020D1*
X50936Y15127D2*
X50922D1*
X50893Y15142D1*
X50878Y15156D1*
X50864Y15185D1*
Y15242D1*
X50878Y15271D1*
X50893Y15285D1*
X50922Y15299D1*
X50950D1*
X50979Y15285D1*
X51022Y15256D1*
X51165Y15113D1*
Y15314D1*
X50864Y15493D2*
X50878Y15449D1*
X50922Y15421D1*
X50993Y15406D1*
X51036D1*
X51108Y15421D1*
X51151Y15449D1*
X51165Y15493D1*
Y15521D1*
X51151Y15564D1*
X51108Y15593D1*
X51036Y15607D1*
X50993D1*
X50922Y15593D1*
X50878Y15564D1*
X50864Y15521D1*
Y15493D1*
X50922Y15593D2*
X51108Y15421D1*
X50864Y15872D2*
Y15729D1*
X50993Y15714D1*
X50979Y15729D1*
X50964Y15772D1*
Y15815D1*
X50979Y15858D1*
X51007Y15887D1*
X51051Y15901D1*
X51079D1*
X51122Y15887D1*
X51151Y15858D1*
X51165Y15815D1*
Y15772D1*
X51151Y15729D1*
X51136Y15714D1*
X51108Y15700D1*
X45837Y3722D2*
X45808Y3707D1*
X45780Y3679D1*
X45765Y3650D1*
Y3593D1*
X45780Y3564D1*
X45808Y3535D1*
X45837Y3521D1*
X45880Y3506D1*
X45952D1*
X45995Y3521D1*
X46024Y3535D1*
X46052Y3564D1*
X46067Y3593D1*
Y3650D1*
X46052Y3679D1*
X46024Y3707D1*
X45995Y3722D1*
X45837Y3829D2*
X45823D1*
X45794Y3843D1*
X45780Y3857D1*
X45766Y3886D1*
Y3944D1*
X45780Y3972D1*
X45794Y3986D1*
X45823Y4001D1*
X45852D1*
X45880Y3986D1*
X45923Y3958D1*
X46067Y3814D1*
Y4015D1*
X45766Y4194D2*
X45780Y4151D1*
X45823Y4122D1*
X45895Y4108D1*
X45938D1*
X46009Y4122D1*
X46053Y4151D1*
X46067Y4194D1*
Y4223D1*
X46053Y4266D1*
X46009Y4294D1*
X45938Y4309D1*
X45895D1*
X45823Y4294D1*
X45780Y4266D1*
X45766Y4223D1*
Y4194D1*
X45823Y4294D2*
X46009Y4122D1*
X45808Y4574D2*
X45780Y4559D1*
X45766Y4516D1*
Y4488D1*
X45780Y4445D1*
X45823Y4416D1*
X45895Y4401D1*
X45966D1*
X46024Y4416D1*
X46053Y4445D1*
X46067Y4488D1*
Y4502D1*
X46053Y4545D1*
X46024Y4574D1*
X45981Y4588D1*
X45966D1*
X45923Y4574D1*
X45895Y4545D1*
X45880Y4502D1*
Y4488D1*
X45895Y4445D1*
X45923Y4416D1*
X45966Y4401D1*
X48650Y4775D2*
X48621Y4761D1*
X48592Y4732D1*
X48578Y4703D1*
Y4646D1*
X48592Y4617D1*
X48621Y4589D1*
X48650Y4574D1*
X48693Y4560D1*
X48765D1*
X48807Y4574D1*
X48836Y4589D1*
X48865Y4617D1*
X48879Y4646D1*
Y4703D1*
X48865Y4732D1*
X48836Y4761D1*
X48807Y4775D1*
X48650Y4882D2*
X48636D1*
X48607Y4896D1*
X48592Y4911D1*
X48578Y4939D1*
Y4997D1*
X48592Y5025D1*
X48607Y5040D1*
X48636Y5054D1*
X48664D1*
X48693Y5040D1*
X48736Y5011D1*
X48879Y4868D1*
Y5068D1*
X48578Y5247D2*
X48592Y5204D1*
X48636Y5175D1*
X48707Y5161D1*
X48750D1*
X48822Y5175D1*
X48865Y5204D1*
X48879Y5247D1*
Y5276D1*
X48865Y5319D1*
X48822Y5347D1*
X48750Y5362D1*
X48707D1*
X48636Y5347D1*
X48592Y5319D1*
X48578Y5276D1*
Y5247D1*
X48636Y5347D2*
X48822Y5175D1*
X48879Y5512D2*
X48578Y5656D1*
Y5455D1*
X48935Y15510D2*
X48920Y15539D1*
X48892Y15567D1*
X48863Y15582D1*
X48806D1*
X48777Y15567D1*
X48748Y15539D1*
X48734Y15510D1*
X48719Y15467D1*
Y15395D1*
X48734Y15352D1*
X48748Y15323D1*
X48777Y15295D1*
X48806Y15280D1*
X48863D1*
X48892Y15295D1*
X48920Y15323D1*
X48935Y15352D1*
X49042Y15510D2*
Y15524D1*
X49056Y15553D1*
X49070Y15567D1*
X49099Y15581D1*
X49157D1*
X49185Y15567D1*
X49199Y15553D1*
X49214Y15524D1*
Y15495D1*
X49199Y15467D1*
X49171Y15424D1*
X49027Y15280D1*
X49228D1*
X49407Y15581D2*
X49364Y15567D1*
X49335Y15524D1*
X49321Y15452D1*
Y15409D1*
X49335Y15338D1*
X49364Y15294D1*
X49407Y15280D1*
X49436D1*
X49479Y15294D1*
X49507Y15338D1*
X49522Y15409D1*
Y15452D1*
X49507Y15524D1*
X49479Y15567D1*
X49436Y15581D1*
X49407D1*
X49507Y15524D2*
X49335Y15338D1*
X49686Y15581D2*
X49643Y15567D1*
X49629Y15539D1*
Y15510D1*
X49643Y15481D1*
X49672Y15467D1*
X49729Y15452D1*
X49772Y15438D1*
X49801Y15409D1*
X49815Y15381D1*
Y15338D1*
X49801Y15309D1*
X49787Y15294D1*
X49743Y15280D1*
X49686D1*
X49643Y15294D1*
X49629Y15309D1*
X49614Y15338D1*
Y15381D1*
X49629Y15409D1*
X49658Y15438D1*
X49700Y15452D1*
X49758Y15467D1*
X49787Y15481D1*
X49801Y15510D1*
Y15539D1*
X49787Y15567D1*
X49743Y15581D1*
X49686D1*
X48817Y7760D2*
X48802Y7789D1*
X48773Y7817D1*
X48745Y7832D1*
X48688D1*
X48659Y7817D1*
X48630Y7789D1*
X48616Y7760D1*
X48601Y7717D1*
Y7645D1*
X48616Y7602D1*
X48630Y7573D1*
X48659Y7545D1*
X48688Y7530D1*
X48745D1*
X48773Y7545D1*
X48802Y7573D1*
X48817Y7602D1*
X48924Y7760D2*
Y7774D1*
X48938Y7803D1*
X48952Y7817D1*
X48981Y7831D1*
X49039D1*
X49067Y7817D1*
X49081Y7803D1*
X49096Y7774D1*
Y7745D1*
X49081Y7717D1*
X49053Y7674D1*
X48909Y7530D1*
X49110D1*
X49289Y7831D2*
X49246Y7817D1*
X49217Y7774D1*
X49203Y7702D1*
Y7659D1*
X49217Y7588D1*
X49246Y7544D1*
X49289Y7530D1*
X49318D1*
X49361Y7544D1*
X49389Y7588D1*
X49404Y7659D1*
Y7702D1*
X49389Y7774D1*
X49361Y7817D1*
X49318Y7831D1*
X49289D1*
X49389Y7774D2*
X49217Y7588D1*
X49683Y7731D2*
X49668Y7688D1*
X49640Y7659D1*
X49597Y7645D1*
X49583D1*
X49540Y7659D1*
X49511Y7688D1*
X49496Y7731D1*
Y7745D1*
X49511Y7789D1*
X49540Y7817D1*
X49583Y7831D1*
X49597D1*
X49640Y7817D1*
X49668Y7789D1*
X49683Y7731D1*
Y7659D1*
X49668Y7588D1*
X49640Y7544D1*
X49597Y7530D1*
X49568D1*
X49525Y7544D1*
X49511Y7573D1*
X29650Y17152D2*
X29621Y17138D1*
X29592Y17109D1*
X29578Y17080D1*
Y17023D1*
X29592Y16994D1*
X29621Y16966D1*
X29650Y16951D1*
X29693Y16937D1*
X29765D1*
X29807Y16951D1*
X29836Y16966D1*
X29865Y16994D1*
X29879Y17023D1*
Y17080D1*
X29865Y17109D1*
X29836Y17138D1*
X29807Y17152D1*
X29578Y17273D2*
Y17431D1*
X29693Y17345D1*
Y17388D1*
X29707Y17417D1*
X29721Y17431D1*
X29765Y17445D1*
X29793D1*
X29836Y17431D1*
X29865Y17402D1*
X29879Y17359D1*
Y17316D1*
X29865Y17273D1*
X29850Y17259D1*
X29822Y17245D1*
X29578Y17624D2*
X29592Y17581D1*
X29636Y17552D1*
X29707Y17538D1*
X29750D1*
X29822Y17552D1*
X29865Y17581D1*
X29879Y17624D1*
Y17653D1*
X29865Y17696D1*
X29822Y17724D1*
X29750Y17739D1*
X29707D1*
X29636Y17724D1*
X29592Y17696D1*
X29578Y17653D1*
Y17624D1*
X29636Y17724D2*
X29822Y17552D1*
X29636Y17832D2*
X29621Y17861D1*
X29578Y17904D1*
X29879D1*
X31198Y8856D2*
X31184Y8885D1*
X31155Y8914D1*
X31127Y8928D1*
X31069D1*
X31040Y8914D1*
X31012Y8885D1*
X30997Y8856D1*
X30983Y8813D1*
Y8741D1*
X30997Y8699D1*
X31012Y8670D1*
X31040Y8641D1*
X31069Y8627D1*
X31127D1*
X31155Y8641D1*
X31184Y8670D1*
X31198Y8699D1*
X31320Y8928D2*
X31477D1*
X31391Y8813D1*
X31434D1*
X31463Y8799D1*
X31477Y8784D1*
X31492Y8741D1*
Y8713D1*
X31477Y8670D1*
X31449Y8641D1*
X31406Y8627D1*
X31362D1*
X31320Y8641D1*
X31305Y8655D1*
X31291Y8684D1*
X31671Y8928D2*
X31628Y8913D1*
X31599Y8870D1*
X31584Y8799D1*
Y8756D1*
X31599Y8684D1*
X31628Y8641D1*
X31671Y8627D1*
X31699D1*
X31742Y8641D1*
X31771Y8684D1*
X31785Y8756D1*
Y8799D1*
X31771Y8870D1*
X31742Y8913D1*
X31699Y8928D1*
X31671D1*
X31771Y8870D2*
X31599Y8684D1*
X31893Y8856D2*
Y8870D1*
X31907Y8899D1*
X31921Y8913D1*
X31950Y8928D1*
X32007D1*
X32036Y8913D1*
X32050Y8899D1*
X32065Y8870D1*
Y8842D1*
X32050Y8813D1*
X32022Y8770D1*
X31878Y8627D1*
X32079D1*
X29636Y8856D2*
X29621Y8885D1*
X29593Y8914D1*
X29564Y8928D1*
X29507D1*
X29478Y8914D1*
X29449Y8885D1*
X29435Y8856D1*
X29421Y8813D1*
Y8741D1*
X29435Y8699D1*
X29449Y8670D1*
X29478Y8641D1*
X29507Y8627D1*
X29564D1*
X29593Y8641D1*
X29621Y8670D1*
X29636Y8699D1*
X29757Y8928D2*
X29915D1*
X29829Y8813D1*
X29872D1*
X29900Y8799D1*
X29915Y8784D1*
X29929Y8741D1*
Y8713D1*
X29915Y8670D1*
X29886Y8641D1*
X29843Y8627D1*
X29800D1*
X29757Y8641D1*
X29743Y8655D1*
X29728Y8684D1*
X30108Y8928D2*
X30065Y8913D1*
X30036Y8870D1*
X30022Y8799D1*
Y8756D1*
X30036Y8684D1*
X30065Y8641D1*
X30108Y8627D1*
X30137D1*
X30180Y8641D1*
X30208Y8684D1*
X30223Y8756D1*
Y8799D1*
X30208Y8870D1*
X30180Y8913D1*
X30137Y8928D1*
X30108D1*
X30208Y8870D2*
X30036Y8684D1*
X30344Y8928D2*
X30502D1*
X30416Y8813D1*
X30459D1*
X30488Y8799D1*
X30502Y8784D1*
X30517Y8741D1*
Y8713D1*
X30502Y8670D1*
X30473Y8641D1*
X30430Y8627D1*
X30387D1*
X30344Y8641D1*
X30330Y8655D1*
X30316Y8684D1*
X2763Y13442D2*
X2748Y13470D1*
X2720Y13499D1*
X2691Y13513D1*
X2634D1*
X2605Y13499D1*
X2576Y13470D1*
X2562Y13442D1*
X2547Y13398D1*
Y13326D1*
X2562Y13284D1*
X2576Y13255D1*
X2605Y13226D1*
X2634Y13212D1*
X2691D1*
X2720Y13226D1*
X2748Y13255D1*
X2763Y13284D1*
X3027Y13513D2*
X2884D1*
X2870Y13384D1*
X2884Y13398D1*
X2927Y13413D1*
X2970D1*
X3013Y13398D1*
X3042Y13370D1*
X3056Y13326D1*
Y13298D1*
X3042Y13255D1*
X3013Y13226D1*
X2970Y13212D1*
X2927D1*
X2884Y13226D1*
X2870Y13241D1*
X2855Y13269D1*
X3235Y13513D2*
X3192Y13499D1*
X3163Y13455D1*
X3149Y13384D1*
Y13341D1*
X3163Y13269D1*
X3192Y13226D1*
X3235Y13212D1*
X3264D1*
X3307Y13226D1*
X3335Y13269D1*
X3350Y13341D1*
Y13384D1*
X3335Y13455D1*
X3307Y13499D1*
X3264Y13513D1*
X3235D1*
X3335Y13455D2*
X3163Y13269D1*
X3443Y13455D2*
X3471Y13470D1*
X3515Y13513D1*
Y13212D1*
X34402Y6163D2*
X34388Y6192D1*
X34359Y6220D1*
X34330Y6235D1*
X34273D1*
X34244Y6220D1*
X34215Y6192D1*
X34201Y6163D1*
X34187Y6120D1*
Y6048D1*
X34201Y6005D1*
X34215Y5976D1*
X34244Y5948D1*
X34273Y5933D1*
X34330D1*
X34359Y5948D1*
X34388Y5976D1*
X34402Y6005D1*
X34667Y6234D2*
X34523D1*
X34509Y6105D1*
X34523Y6120D1*
X34566Y6134D1*
X34609D1*
X34652Y6120D1*
X34681Y6091D1*
X34695Y6048D1*
Y6019D1*
X34681Y5976D1*
X34652Y5947D1*
X34609Y5933D1*
X34566D1*
X34523Y5947D1*
X34509Y5962D1*
X34494Y5991D1*
X34874Y6234D2*
X34831Y6220D1*
X34802Y6177D1*
X34788Y6105D1*
Y6062D1*
X34802Y5991D1*
X34831Y5947D1*
X34874Y5933D1*
X34903D1*
X34946Y5947D1*
X34974Y5991D1*
X34989Y6062D1*
Y6105D1*
X34974Y6177D1*
X34946Y6220D1*
X34903Y6234D1*
X34874D1*
X34974Y6177D2*
X34802Y5991D1*
X35096Y6163D2*
Y6177D1*
X35111Y6206D1*
X35125Y6220D1*
X35154Y6234D1*
X35211D1*
X35240Y6220D1*
X35254Y6206D1*
X35268Y6177D1*
Y6148D1*
X35254Y6120D1*
X35225Y6077D1*
X35082Y5933D1*
X35283D1*
X14748Y9576D2*
Y9275D1*
X14848D1*
X14891Y9289D1*
X14920Y9318D1*
X14934Y9347D1*
X14948Y9389D1*
Y9461D1*
X14934Y9505D1*
X14920Y9533D1*
X14891Y9562D1*
X14848Y9576D1*
X14748D1*
X15041Y9518D2*
X15070Y9533D1*
X15113Y9576D1*
Y9275D1*
X15292Y9576D2*
X15249Y9562D1*
X15220Y9518D1*
X15206Y9447D1*
Y9404D1*
X15220Y9332D1*
X15249Y9289D1*
X15292Y9275D1*
X15320D1*
X15364Y9289D1*
X15392Y9332D1*
X15407Y9404D1*
Y9447D1*
X15392Y9518D1*
X15364Y9562D1*
X15320Y9576D1*
X15292D1*
X15392Y9518D2*
X15220Y9332D1*
X15499Y9518D2*
X15528Y9533D1*
X15571Y9576D1*
Y9275D1*
X12762Y12661D2*
Y12360D1*
X12862D1*
X12905Y12374D1*
X12934Y12403D1*
X12949Y12432D1*
X12963Y12475D1*
Y12546D1*
X12949Y12590D1*
X12934Y12618D1*
X12905Y12647D1*
X12862Y12661D1*
X12762D1*
X13055Y12604D2*
X13084Y12618D1*
X13127Y12661D1*
Y12360D1*
X13306Y12661D2*
X13263Y12647D1*
X13234Y12604D1*
X13220Y12532D1*
Y12489D1*
X13234Y12417D1*
X13263Y12374D1*
X13306Y12360D1*
X13335D1*
X13378Y12374D1*
X13406Y12417D1*
X13421Y12489D1*
Y12532D1*
X13406Y12604D1*
X13378Y12647D1*
X13335Y12661D1*
X13306D1*
X13406Y12604D2*
X13234Y12417D1*
X13528Y12589D2*
Y12604D1*
X13542Y12632D1*
X13557Y12647D1*
X13586Y12661D1*
X13643D1*
X13671Y12647D1*
X13686Y12632D1*
X13700Y12604D1*
Y12575D1*
X13686Y12546D1*
X13657Y12503D1*
X13514Y12360D1*
X13715D1*
X13317Y16585D2*
Y16284D1*
X13417D1*
X13460Y16298D1*
X13489Y16327D1*
X13504Y16356D1*
X13518Y16398D1*
Y16470D1*
X13504Y16513D1*
X13489Y16542D1*
X13460Y16571D1*
X13417Y16585D1*
X13317D1*
X13610Y16527D2*
X13639Y16542D1*
X13682Y16585D1*
Y16284D1*
X13861Y16585D2*
X13818Y16570D1*
X13789Y16527D1*
X13775Y16456D1*
Y16413D1*
X13789Y16341D1*
X13818Y16298D1*
X13861Y16284D1*
X13890D1*
X13933Y16298D1*
X13961Y16341D1*
X13976Y16413D1*
Y16456D1*
X13961Y16527D1*
X13933Y16570D1*
X13890Y16585D1*
X13861D1*
X13961Y16527D2*
X13789Y16341D1*
X14098Y16585D2*
X14255D1*
X14169Y16470D1*
X14212D1*
X14241Y16456D1*
X14255Y16441D1*
X14270Y16398D1*
Y16370D1*
X14255Y16327D1*
X14227Y16298D1*
X14183Y16284D1*
X14140D1*
X14098Y16298D1*
X14083Y16312D1*
X14069Y16341D1*
X7093Y9303D2*
X7394D1*
Y9403D1*
X7379Y9447D1*
X7351Y9475D1*
X7322Y9490D1*
X7279Y9504D1*
X7207D1*
X7164Y9490D1*
X7136Y9475D1*
X7107Y9447D1*
X7093Y9403D1*
Y9303D1*
X7150Y9597D2*
X7136Y9625D1*
X7093Y9668D1*
X7394D1*
X7093Y9847D2*
X7107Y9804D1*
X7150Y9775D1*
X7222Y9761D1*
X7265D1*
X7337Y9775D1*
X7380Y9804D1*
X7394Y9847D1*
Y9876D1*
X7380Y9919D1*
X7337Y9947D1*
X7265Y9962D1*
X7222D1*
X7150Y9947D1*
X7107Y9919D1*
X7093Y9876D1*
Y9847D1*
X7150Y9947D2*
X7337Y9775D1*
X7394Y10198D2*
X7093D1*
X7294Y10055D1*
Y10270D1*
X9121Y9453D2*
X9422D1*
Y9553D1*
X9408Y9596D1*
X9379Y9625D1*
X9350Y9639D1*
X9307Y9654D1*
X9235D1*
X9192Y9639D1*
X9164Y9625D1*
X9135Y9596D1*
X9121Y9553D1*
Y9453D1*
X9178Y9746D2*
X9164Y9775D1*
X9121Y9818D1*
X9422D1*
X9121Y9997D2*
X9135Y9954D1*
X9178Y9925D1*
X9250Y9911D1*
X9293D1*
X9365Y9925D1*
X9408Y9954D1*
X9422Y9997D1*
Y10026D1*
X9408Y10069D1*
X9365Y10097D1*
X9293Y10112D1*
X9250D1*
X9178Y10097D1*
X9135Y10069D1*
X9121Y10026D1*
Y9997D1*
X9178Y10097D2*
X9365Y9925D1*
X9121Y10377D2*
Y10233D1*
X9250Y10219D1*
X9236Y10233D1*
X9221Y10276D1*
Y10319D1*
X9236Y10362D1*
X9264Y10391D1*
X9307Y10405D1*
X9336D1*
X9379Y10391D1*
X9408Y10362D1*
X9422Y10319D1*
Y10276D1*
X9408Y10233D1*
X9393Y10219D1*
X9365Y10205D1*
X17986Y10190D2*
X18288D1*
Y10291D1*
X18273Y10334D1*
X18245Y10363D1*
X18216Y10377D1*
X18173Y10391D1*
X18101D1*
X18058Y10377D1*
X18029Y10363D1*
X18001Y10334D1*
X17986Y10291D1*
Y10190D1*
X18044Y10484D2*
X18029Y10513D1*
X17987Y10556D1*
X18288D1*
X17987Y10735D2*
X18001Y10692D1*
X18044Y10663D1*
X18116Y10648D1*
X18159D1*
X18230Y10663D1*
X18274Y10692D1*
X18288Y10735D1*
Y10763D1*
X18274Y10806D1*
X18230Y10835D1*
X18159Y10849D1*
X18116D1*
X18044Y10835D1*
X18001Y10806D1*
X17987Y10763D1*
Y10735D1*
X18044Y10835D2*
X18230Y10663D1*
X18029Y11114D2*
X18001Y11100D1*
X17987Y11057D1*
Y11028D1*
X18001Y10985D1*
X18044Y10956D1*
X18116Y10942D1*
X18187D1*
X18245Y10956D1*
X18274Y10985D1*
X18288Y11028D1*
Y11043D1*
X18274Y11085D1*
X18245Y11114D1*
X18202Y11128D1*
X18187D1*
X18144Y11114D1*
X18116Y11085D1*
X18101Y11043D1*
Y11028D1*
X18116Y10985D1*
X18144Y10956D1*
X18187Y10942D1*
X16574Y14536D2*
Y14235D1*
X16675D1*
X16718Y14249D1*
X16747Y14278D1*
X16761Y14307D1*
X16775Y14350D1*
Y14422D1*
X16761Y14465D1*
X16747Y14493D1*
X16718Y14522D1*
X16675Y14536D1*
X16574D1*
X16868Y14479D2*
X16897Y14493D1*
X16940Y14536D1*
Y14235D1*
X17119Y14536D2*
X17076Y14522D1*
X17047Y14479D1*
X17033Y14407D1*
Y14364D1*
X17047Y14292D1*
X17076Y14249D1*
X17119Y14235D1*
X17147D1*
X17190Y14249D1*
X17219Y14292D1*
X17233Y14364D1*
Y14407D1*
X17219Y14479D1*
X17190Y14522D1*
X17147Y14536D1*
X17119D1*
X17219Y14479D2*
X17047Y14292D1*
X17383Y14235D2*
X17527Y14536D1*
X17326D1*
X29452Y7379D2*
Y7078D1*
X29553D1*
X29596Y7092D1*
X29624Y7121D1*
X29639Y7150D1*
X29653Y7193D1*
Y7265D1*
X29639Y7308D1*
X29624Y7336D1*
X29596Y7365D1*
X29553Y7379D1*
X29452D1*
X29889Y7078D2*
Y7379D1*
X29746Y7178D1*
X29961D1*
X30140Y7379D2*
X30097Y7365D1*
X30068Y7322D1*
X30053Y7250D1*
Y7207D1*
X30068Y7135D1*
X30097Y7092D1*
X30140Y7078D1*
X30168D1*
X30211Y7092D1*
X30240Y7135D1*
X30254Y7207D1*
Y7250D1*
X30240Y7322D1*
X30211Y7365D1*
X30168Y7379D1*
X30140D1*
X30240Y7322D2*
X30068Y7135D1*
X30347Y7322D2*
X30376Y7336D1*
X30419Y7379D1*
Y7078D1*
X799Y11614D2*
X1100D1*
Y11715D1*
X1086Y11758D1*
X1057Y11787D1*
X1028Y11801D1*
X986Y11815D1*
X914D1*
X870Y11801D1*
X842Y11787D1*
X813Y11758D1*
X799Y11715D1*
Y11614D1*
Y12080D2*
Y11937D1*
X928Y11922D1*
X914Y11937D1*
X899Y11980D1*
Y12023D1*
X914Y12066D1*
X942Y12095D1*
X986Y12109D1*
X1014D1*
X1057Y12095D1*
X1086Y12066D1*
X1100Y12023D1*
Y11980D1*
X1086Y11937D1*
X1071Y11922D1*
X1043Y11908D1*
X799Y12288D2*
X813Y12245D1*
X857Y12216D1*
X928Y12201D1*
X971D1*
X1043Y12216D1*
X1086Y12245D1*
X1100Y12288D1*
Y12316D1*
X1086Y12359D1*
X1043Y12388D1*
X971Y12402D1*
X928D1*
X857Y12388D1*
X813Y12359D1*
X799Y12316D1*
Y12288D1*
X857Y12388D2*
X1043Y12216D1*
X857Y12495D2*
X842Y12524D1*
X799Y12567D1*
X1100D1*
X5111Y11362D2*
X5413D1*
Y11463D1*
X5398Y11506D1*
X5370Y11535D1*
X5341Y11549D1*
X5298Y11563D1*
X5226D1*
X5183Y11549D1*
X5154Y11535D1*
X5126Y11506D1*
X5111Y11463D1*
Y11362D1*
X5112Y11828D2*
Y11685D1*
X5241Y11670D1*
X5226Y11685D1*
X5212Y11728D1*
Y11771D1*
X5226Y11814D1*
X5255Y11843D1*
X5298Y11857D1*
X5327D1*
X5370Y11843D1*
X5399Y11814D1*
X5413Y11771D1*
Y11728D1*
X5399Y11685D1*
X5384Y11670D1*
X5355Y11656D1*
X5112Y12036D2*
X5126Y11993D1*
X5169Y11964D1*
X5241Y11949D1*
X5284D1*
X5355Y11964D1*
X5399Y11993D1*
X5413Y12036D1*
Y12064D1*
X5399Y12107D1*
X5355Y12136D1*
X5284Y12150D1*
X5241D1*
X5169Y12136D1*
X5126Y12107D1*
X5112Y12064D1*
Y12036D1*
X5169Y12136D2*
X5355Y11964D1*
X5183Y12258D2*
X5169D1*
X5140Y12272D1*
X5126Y12286D1*
X5112Y12315D1*
Y12372D1*
X5126Y12401D1*
X5140Y12415D1*
X5169Y12430D1*
X5198D1*
X5226Y12415D1*
X5269Y12387D1*
X5413Y12243D1*
Y12444D1*
X22698Y5698D2*
Y5511D1*
X23000D1*
X22842D2*
Y5626D1*
X22698Y5790D2*
X23000D1*
Y5920D1*
X22985Y5963D1*
X22971Y5977D1*
X22942Y5991D1*
X22899D1*
X22871Y5977D1*
X22856Y5963D1*
X22842Y5920D1*
X22827Y5963D1*
X22813Y5977D1*
X22785Y5991D1*
X22756D1*
X22727Y5977D1*
X22713Y5963D1*
X22698Y5920D1*
Y5790D1*
X22842D2*
Y5920D1*
X22756Y6084D2*
X22742Y6113D1*
X22699Y6156D1*
X23000D1*
X22699Y6335D2*
X22713Y6292D1*
X22756Y6263D1*
X22828Y6249D1*
X22871D1*
X22942Y6263D1*
X22986Y6292D1*
X23000Y6335D1*
Y6363D1*
X22986Y6406D1*
X22942Y6435D1*
X22871Y6450D1*
X22828D1*
X22756Y6435D1*
X22713Y6406D1*
X22699Y6363D1*
Y6335D1*
X22756Y6435D2*
X22942Y6263D1*
X22756Y6542D2*
X22742Y6571D1*
X22699Y6614D1*
X23000D1*
X48405Y1699D2*
X48219D1*
Y1397D1*
Y1555D2*
X48333D1*
X48498Y1699D2*
Y1397D1*
X48627D1*
X48670Y1412D1*
X48685Y1426D1*
X48699Y1455D1*
Y1498D1*
X48685Y1527D1*
X48670Y1541D1*
X48627Y1555D1*
X48670Y1570D1*
X48685Y1584D1*
X48699Y1612D1*
Y1641D1*
X48685Y1670D1*
X48670Y1684D1*
X48627Y1699D1*
X48498D1*
Y1555D2*
X48627D1*
X48806Y1627D2*
Y1641D1*
X48820Y1670D1*
X48835Y1684D1*
X48863Y1698D1*
X48921D1*
X48949Y1684D1*
X48964Y1670D1*
X48978Y1641D1*
Y1612D1*
X48964Y1584D1*
X48935Y1541D1*
X48792Y1397D1*
X48992D1*
X49171Y1698D2*
X49128Y1684D1*
X49099Y1641D1*
X49085Y1569D1*
Y1526D1*
X49099Y1455D1*
X49128Y1412D1*
X49171Y1397D1*
X49200D1*
X49243Y1412D1*
X49271Y1455D1*
X49286Y1526D1*
Y1569D1*
X49271Y1641D1*
X49243Y1684D1*
X49200Y1698D1*
X49171D1*
X49271Y1641D2*
X49099Y1455D1*
X49379Y1641D2*
X49408Y1656D1*
X49451Y1698D1*
Y1397D1*
X26236Y10324D2*
X26049D1*
Y10022D1*
Y10180D2*
X26164D1*
X26329Y10324D2*
Y10022D1*
X26458D1*
X26501Y10037D1*
X26515Y10051D1*
X26530Y10080D1*
Y10123D1*
X26515Y10152D1*
X26501Y10166D1*
X26458Y10180D1*
X26501Y10195D1*
X26515Y10209D1*
X26530Y10237D1*
Y10266D1*
X26515Y10295D1*
X26501Y10309D1*
X26458Y10324D1*
X26329D1*
Y10180D2*
X26458D1*
X26651Y10323D2*
X26809D1*
X26723Y10209D1*
X26766D1*
X26794Y10194D1*
X26809Y10180D1*
X26823Y10137D1*
Y10108D1*
X26809Y10065D1*
X26780Y10037D1*
X26737Y10022D1*
X26694D1*
X26651Y10037D1*
X26637Y10051D1*
X26622Y10080D1*
X27002Y10323D2*
X26959Y10309D1*
X26930Y10266D1*
X26916Y10194D1*
Y10151D1*
X26930Y10080D1*
X26959Y10037D1*
X27002Y10022D1*
X27031D1*
X27074Y10037D1*
X27102Y10080D1*
X27117Y10151D1*
Y10194D1*
X27102Y10266D1*
X27074Y10309D1*
X27031Y10323D1*
X27002D1*
X27102Y10266D2*
X26930Y10080D1*
X27209Y10266D2*
X27238Y10281D1*
X27281Y10323D1*
Y10022D1*
X35364Y20939D2*
X35178D1*
Y20638D1*
Y20796D2*
X35292D1*
X35457Y20939D2*
Y20638D1*
X35557D1*
X35600Y20652D1*
X35629Y20681D1*
X35644Y20710D1*
X35658Y20753D1*
Y20825D1*
X35644Y20868D1*
X35629Y20896D1*
X35600Y20925D1*
X35557Y20939D1*
X35457D1*
X35750Y20882D2*
X35779Y20896D1*
X35822Y20939D1*
Y20638D1*
X8300Y1939D2*
X8113D1*
Y1638D1*
Y1796D2*
X8228D1*
X8392Y1939D2*
Y1638D1*
X8493D1*
X8536Y1652D1*
X8565Y1681D1*
X8579Y1710D1*
X8593Y1753D1*
Y1825D1*
X8579Y1868D1*
X8565Y1896D1*
X8536Y1925D1*
X8493Y1939D1*
X8392D1*
X8701Y1867D2*
Y1882D1*
X8715Y1910D1*
X8729Y1925D1*
X8758Y1939D1*
X8815D1*
X8844Y1925D1*
X8858Y1910D1*
X8873Y1882D1*
Y1853D1*
X8858Y1824D1*
X8830Y1781D1*
X8686Y1638D1*
X8887D1*
X41432Y14939D2*
Y14710D1*
X41418Y14667D1*
X41403Y14652D1*
X41375Y14638D1*
X41346D1*
X41318Y14652D1*
X41303Y14667D1*
X41289Y14710D1*
Y14738D1*
X41697Y14896D2*
X41683Y14925D1*
X41640Y14939D1*
X41611D1*
X41568Y14925D1*
X41539Y14882D1*
X41525Y14810D1*
Y14738D1*
X41539Y14681D1*
X41568Y14652D1*
X41611Y14638D1*
X41625D1*
X41668Y14652D1*
X41697Y14681D1*
X41711Y14724D1*
Y14738D1*
X41697Y14781D1*
X41668Y14810D1*
X41625Y14824D1*
X41611D1*
X41568Y14810D1*
X41539Y14781D1*
X41525Y14738D1*
X41432Y7939D2*
Y7710D1*
X41418Y7667D1*
X41403Y7652D1*
X41375Y7638D1*
X41346D1*
X41317Y7652D1*
X41303Y7667D1*
X41289Y7710D1*
Y7738D1*
X41711Y7839D2*
X41697Y7796D1*
X41668Y7767D1*
X41625Y7753D1*
X41611D1*
X41568Y7767D1*
X41539Y7796D1*
X41525Y7839D1*
Y7853D1*
X41539Y7896D1*
X41568Y7925D1*
X41611Y7939D1*
X41625D1*
X41668Y7925D1*
X41697Y7896D1*
X41711Y7839D1*
Y7767D1*
X41697Y7695D1*
X41668Y7652D1*
X41625Y7638D1*
X41597D1*
X41554Y7652D1*
X41539Y7681D1*
X44093Y7333D2*
Y7104D1*
X44078Y7060D1*
X44064Y7046D1*
X44035Y7032D1*
X44006D1*
X43978Y7046D1*
X43964Y7060D1*
X43949Y7104D1*
Y7132D1*
X44185Y7275D2*
X44214Y7290D1*
X44257Y7333D1*
Y7032D1*
X44436Y7333D2*
X44393Y7318D1*
X44364Y7275D1*
X44350Y7204D1*
Y7161D1*
X44364Y7089D1*
X44393Y7046D1*
X44436Y7032D1*
X44465D1*
X44508Y7046D1*
X44536Y7089D1*
X44551Y7161D1*
Y7204D1*
X44536Y7275D1*
X44508Y7318D1*
X44465Y7333D1*
X44436D1*
X44536Y7275D2*
X44364Y7089D1*
X40595Y21083D2*
Y20854D1*
X40580Y20810D1*
X40566Y20796D1*
X40537Y20782D1*
X40508D1*
X40480Y20796D1*
X40466Y20810D1*
X40451Y20854D1*
Y20882D1*
X40687Y21025D2*
X40716Y21040D1*
X40759Y21083D1*
Y20782D1*
X40852Y21025D2*
X40881Y21040D1*
X40924Y21083D1*
Y20782D1*
X41530Y21083D2*
Y20854D1*
X41516Y20810D1*
X41501Y20796D1*
X41473Y20782D1*
X41444D1*
X41415Y20796D1*
X41401Y20810D1*
X41387Y20854D1*
Y20882D1*
X41623Y21025D2*
X41652Y21040D1*
X41695Y21083D1*
Y20782D1*
X41802Y21011D2*
Y21025D1*
X41816Y21054D1*
X41831Y21068D1*
X41859Y21083D1*
X41917D1*
X41945Y21068D1*
X41960Y21054D1*
X41974Y21025D1*
Y20997D1*
X41960Y20968D1*
X41931Y20925D1*
X41787Y20782D1*
X41988D1*
X42530Y21083D2*
Y20854D1*
X42516Y20810D1*
X42501Y20796D1*
X42473Y20782D1*
X42444D1*
X42415Y20796D1*
X42401Y20810D1*
X42387Y20854D1*
Y20882D1*
X42623Y21025D2*
X42652Y21040D1*
X42695Y21083D1*
Y20782D1*
X42816Y21083D2*
X42974D1*
X42888Y20968D1*
X42931D1*
X42960Y20954D1*
X42974Y20939D1*
X42988Y20896D1*
Y20868D1*
X42974Y20825D1*
X42945Y20796D1*
X42902Y20782D1*
X42859D1*
X42816Y20796D1*
X42802Y20810D1*
X42787Y20839D1*
X8760Y15511D2*
Y15281D1*
X8746Y15238D1*
X8732Y15224D1*
X8703Y15209D1*
X8674D1*
X8646Y15224D1*
X8631Y15238D1*
X8617Y15281D1*
Y15310D1*
X8853Y15453D2*
X8882Y15468D1*
X8925Y15510D1*
Y15209D1*
X9104Y15510D2*
X9061Y15496D1*
X9032Y15453D1*
X9018Y15381D1*
Y15338D1*
X9032Y15267D1*
X9061Y15224D1*
X9104Y15209D1*
X9132D1*
X9175Y15224D1*
X9204Y15267D1*
X9219Y15338D1*
Y15381D1*
X9204Y15453D1*
X9175Y15496D1*
X9132Y15510D1*
X9104D1*
X9204Y15453D2*
X9032Y15267D1*
X9311Y15453D2*
X9340Y15468D1*
X9383Y15510D1*
Y15209D1*
X45489Y20392D2*
Y20163D1*
X45475Y20120D1*
X45460Y20105D1*
X45432Y20091D1*
X45403D1*
X45374Y20105D1*
X45360Y20120D1*
X45346Y20163D1*
Y20191D1*
X45596Y20320D2*
Y20334D1*
X45611Y20363D1*
X45625Y20378D1*
X45654Y20392D1*
X45711D1*
X45740Y20378D1*
X45754Y20363D1*
X45769Y20334D1*
Y20306D1*
X45754Y20277D1*
X45725Y20234D1*
X45582Y20091D1*
X45783D1*
X45962Y20392D2*
X45919Y20378D1*
X45890Y20334D1*
X45875Y20263D1*
Y20220D1*
X45890Y20148D1*
X45919Y20105D1*
X45962Y20091D1*
X45990D1*
X46033Y20105D1*
X46062Y20148D1*
X46076Y20220D1*
Y20263D1*
X46062Y20334D1*
X46033Y20378D1*
X45990Y20392D1*
X45962D1*
X46062Y20334D2*
X45890Y20148D1*
X46169Y20334D2*
X46198Y20349D1*
X46241Y20392D1*
Y20091D1*
X49925Y20392D2*
Y20163D1*
X49910Y20120D1*
X49896Y20105D1*
X49867Y20091D1*
X49838D1*
X49810Y20105D1*
X49796Y20120D1*
X49781Y20163D1*
Y20191D1*
X50032Y20320D2*
Y20334D1*
X50046Y20363D1*
X50060Y20378D1*
X50089Y20392D1*
X50147D1*
X50175Y20378D1*
X50189Y20363D1*
X50204Y20334D1*
Y20306D1*
X50189Y20277D1*
X50161Y20234D1*
X50017Y20091D1*
X50218D1*
X50397Y20392D2*
X50354Y20378D1*
X50325Y20334D1*
X50311Y20263D1*
Y20220D1*
X50325Y20148D1*
X50354Y20105D1*
X50397Y20091D1*
X50426D1*
X50469Y20105D1*
X50497Y20148D1*
X50512Y20220D1*
Y20263D1*
X50497Y20334D1*
X50469Y20378D1*
X50426Y20392D1*
X50397D1*
X50497Y20334D2*
X50325Y20148D1*
X50619Y20320D2*
Y20334D1*
X50633Y20363D1*
X50648Y20378D1*
X50676Y20392D1*
X50734D1*
X50762Y20378D1*
X50777Y20363D1*
X50791Y20334D1*
Y20306D1*
X50777Y20277D1*
X50748Y20234D1*
X50605Y20091D1*
X50805D1*
X46131Y6564D2*
Y6335D1*
X46117Y6292D1*
X46103Y6277D1*
X46074Y6263D1*
X46045D1*
X46017Y6277D1*
X46002Y6292D1*
X45988Y6335D1*
Y6363D1*
X46239Y6492D2*
Y6507D1*
X46253Y6535D1*
X46267Y6550D1*
X46296Y6564D1*
X46353D1*
X46382Y6550D1*
X46396Y6535D1*
X46411Y6507D1*
Y6478D1*
X46396Y6449D1*
X46368Y6406D1*
X46224Y6263D1*
X46425D1*
X46604Y6564D2*
X46561Y6550D1*
X46532Y6507D1*
X46518Y6435D1*
Y6392D1*
X46532Y6320D1*
X46561Y6277D1*
X46604Y6263D1*
X46632D1*
X46675Y6277D1*
X46704Y6320D1*
X46719Y6392D1*
Y6435D1*
X46704Y6507D1*
X46675Y6550D1*
X46632Y6564D1*
X46604D1*
X46704Y6507D2*
X46532Y6320D1*
X46840Y6564D2*
X46998D1*
X46912Y6449D1*
X46955D1*
X46983Y6435D1*
X46998Y6421D1*
X47012Y6378D1*
Y6349D1*
X46998Y6306D1*
X46969Y6277D1*
X46926Y6263D1*
X46883D1*
X46840Y6277D1*
X46826Y6292D1*
X46811Y6320D1*
X25946Y15833D2*
Y15604D1*
X25932Y15560D1*
X25917Y15546D1*
X25889Y15532D1*
X25860D1*
X25831Y15546D1*
X25817Y15560D1*
X25802Y15604D1*
Y15632D1*
X26067Y15833D2*
X26225D1*
X26139Y15718D1*
X26182D1*
X26211Y15704D1*
X26225Y15689D1*
X26239Y15646D1*
Y15618D1*
X26225Y15575D1*
X26196Y15546D1*
X26153Y15532D1*
X26110D1*
X26067Y15546D1*
X26053Y15560D1*
X26039Y15589D1*
X26418Y15833D2*
X26375Y15818D1*
X26346Y15775D1*
X26332Y15704D1*
Y15661D1*
X26346Y15589D1*
X26375Y15546D1*
X26418Y15532D1*
X26447D1*
X26490Y15546D1*
X26519Y15589D1*
X26533Y15661D1*
Y15704D1*
X26519Y15775D1*
X26490Y15818D1*
X26447Y15833D1*
X26418D1*
X26519Y15775D2*
X26346Y15589D1*
X26626Y15775D2*
X26655Y15790D1*
X26698Y15833D1*
Y15532D1*
X32857Y17628D2*
Y17399D1*
X32843Y17356D1*
X32828Y17341D1*
X32799Y17327D1*
X32771D1*
X32742Y17341D1*
X32728Y17356D1*
X32713Y17399D1*
Y17427D1*
X32978Y17628D2*
X33136D1*
X33050Y17513D1*
X33093D1*
X33122Y17499D1*
X33136Y17485D1*
X33150Y17442D1*
Y17413D1*
X33136Y17370D1*
X33107Y17341D1*
X33064Y17327D1*
X33021D1*
X32978Y17341D1*
X32964Y17356D1*
X32949Y17384D1*
X33329Y17628D2*
X33286Y17614D1*
X33257Y17571D1*
X33243Y17499D1*
Y17456D1*
X33257Y17384D1*
X33286Y17341D1*
X33329Y17327D1*
X33358D1*
X33401Y17341D1*
X33429Y17384D1*
X33444Y17456D1*
Y17499D1*
X33429Y17571D1*
X33401Y17614D1*
X33358Y17628D1*
X33329D1*
X33429Y17571D2*
X33257Y17384D1*
X33551Y17556D2*
Y17571D1*
X33565Y17599D1*
X33580Y17614D1*
X33609Y17628D1*
X33666D1*
X33694Y17614D1*
X33709Y17599D1*
X33723Y17571D1*
Y17542D1*
X33709Y17513D1*
X33680Y17470D1*
X33537Y17327D1*
X33738D1*
X27857Y17628D2*
Y17399D1*
X27843Y17356D1*
X27828Y17341D1*
X27799Y17327D1*
X27771D1*
X27742Y17341D1*
X27728Y17356D1*
X27713Y17399D1*
Y17427D1*
X27978Y17628D2*
X28136D1*
X28050Y17513D1*
X28093D1*
X28122Y17499D1*
X28136Y17485D1*
X28150Y17442D1*
Y17413D1*
X28136Y17370D1*
X28107Y17341D1*
X28064Y17327D1*
X28021D1*
X27978Y17341D1*
X27964Y17356D1*
X27949Y17384D1*
X28329Y17628D2*
X28286Y17614D1*
X28257Y17571D1*
X28243Y17499D1*
Y17456D1*
X28257Y17384D1*
X28286Y17341D1*
X28329Y17327D1*
X28358D1*
X28401Y17341D1*
X28429Y17384D1*
X28444Y17456D1*
Y17499D1*
X28429Y17571D1*
X28401Y17614D1*
X28358Y17628D1*
X28329D1*
X28429Y17571D2*
X28257Y17384D1*
X28565Y17628D2*
X28723D1*
X28637Y17513D1*
X28680D1*
X28709Y17499D1*
X28723Y17485D1*
X28738Y17442D1*
Y17413D1*
X28723Y17370D1*
X28694Y17341D1*
X28651Y17327D1*
X28608D1*
X28565Y17341D1*
X28551Y17356D1*
X28537Y17384D1*
X25572Y5865D2*
Y5635D1*
X25557Y5592D1*
X25543Y5578D1*
X25514Y5563D1*
X25485D1*
X25457Y5578D1*
X25443Y5592D1*
X25428Y5635D1*
Y5664D1*
X25808Y5563D2*
Y5864D1*
X25664Y5664D1*
X25880D1*
X26058Y5864D2*
X26015Y5850D1*
X25986Y5807D1*
X25972Y5735D1*
Y5692D1*
X25986Y5620D1*
X26015Y5577D1*
X26058Y5563D1*
X26087D1*
X26130Y5577D1*
X26159Y5620D1*
X26173Y5692D1*
Y5735D1*
X26159Y5807D1*
X26130Y5850D1*
X26087Y5864D1*
X26058D1*
X26159Y5807D2*
X25986Y5620D1*
X26266Y5807D2*
X26295Y5821D1*
X26338Y5864D1*
Y5563D1*
X29632Y5865D2*
Y5635D1*
X29618Y5592D1*
X29603Y5578D1*
X29575Y5563D1*
X29546D1*
X29517Y5578D1*
X29503Y5592D1*
X29489Y5635D1*
Y5664D1*
X29868Y5563D2*
Y5864D1*
X29725Y5664D1*
X29940D1*
X30119Y5864D2*
X30076Y5850D1*
X30047Y5807D1*
X30033Y5735D1*
Y5692D1*
X30047Y5620D1*
X30076Y5577D1*
X30119Y5563D1*
X30147D1*
X30190Y5577D1*
X30219Y5620D1*
X30234Y5692D1*
Y5735D1*
X30219Y5807D1*
X30190Y5850D1*
X30147Y5864D1*
X30119D1*
X30219Y5807D2*
X30047Y5620D1*
X30341Y5793D2*
Y5807D1*
X30355Y5836D1*
X30369Y5850D1*
X30398Y5864D1*
X30456D1*
X30484Y5850D1*
X30498Y5836D1*
X30513Y5807D1*
Y5778D1*
X30498Y5749D1*
X30470Y5707D1*
X30326Y5563D1*
X30527D1*
X2696Y19979D2*
Y19750D1*
X2682Y19707D1*
X2667Y19692D1*
X2639Y19678D1*
X2610D1*
X2581Y19692D1*
X2567Y19707D1*
X2552Y19750D1*
Y19778D1*
X2961Y19979D2*
X2817D1*
X2803Y19850D1*
X2817Y19864D1*
X2860Y19879D1*
X2903D1*
X2946Y19864D1*
X2975Y19836D1*
X2989Y19793D1*
Y19764D1*
X2975Y19721D1*
X2946Y19692D1*
X2903Y19678D1*
X2860D1*
X2817Y19692D1*
X2803Y19707D1*
X2789Y19735D1*
X3168Y19979D2*
X3125Y19965D1*
X3096Y19922D1*
X3082Y19850D1*
Y19807D1*
X3096Y19735D1*
X3125Y19692D1*
X3168Y19678D1*
X3197D1*
X3240Y19692D1*
X3269Y19735D1*
X3283Y19807D1*
Y19850D1*
X3269Y19922D1*
X3240Y19965D1*
X3197Y19979D1*
X3168D1*
X3269Y19922D2*
X3096Y19735D1*
X3376Y19922D2*
X3405Y19936D1*
X3448Y19979D1*
Y19678D1*
X32819Y3752D2*
Y3522D1*
X32805Y3479D1*
X32790Y3465D1*
X32762Y3450D1*
X32733D1*
X32704Y3465D1*
X32690Y3479D1*
X32675Y3522D1*
Y3551D1*
X33084Y3752D2*
X32940D1*
X32926Y3623D1*
X32940Y3637D1*
X32984Y3651D1*
X33026D1*
X33069Y3637D1*
X33098Y3608D1*
X33113Y3565D1*
Y3537D1*
X33098Y3494D1*
X33069Y3465D1*
X33026Y3450D1*
X32984D1*
X32940Y3465D1*
X32926Y3479D1*
X32912Y3508D1*
X33291Y3752D2*
X33248Y3737D1*
X33219Y3694D1*
X33205Y3623D1*
Y3579D1*
X33219Y3508D1*
X33248Y3465D1*
X33291Y3450D1*
X33320D1*
X33363Y3465D1*
X33392Y3508D1*
X33406Y3579D1*
Y3623D1*
X33392Y3694D1*
X33363Y3737D1*
X33320Y3752D1*
X33291D1*
X33392Y3694D2*
X33219Y3508D1*
X33513Y3680D2*
Y3694D1*
X33528Y3723D1*
X33542Y3737D1*
X33571Y3752D1*
X33628D1*
X33657Y3737D1*
X33671Y3723D1*
X33685Y3694D1*
Y3666D1*
X33671Y3637D1*
X33642Y3594D1*
X33499Y3450D1*
X33700D1*
X23073Y9588D2*
X23374D1*
Y9760D1*
X23131Y9853D2*
X23116Y9881D1*
X23073Y9924D1*
X23374D1*
X23073Y10103D2*
X23088Y10060D1*
X23131Y10031D1*
X23202Y10017D1*
X23245D1*
X23317Y10031D1*
X23360Y10060D1*
X23374Y10103D1*
Y10132D1*
X23360Y10175D1*
X23317Y10203D1*
X23245Y10218D1*
X23202D1*
X23131Y10203D1*
X23088Y10175D1*
X23073Y10132D1*
Y10103D1*
X23131Y10203D2*
X23317Y10031D1*
X23131Y10311D2*
X23116Y10340D1*
X23073Y10383D1*
X23374D1*
X26908Y5865D2*
X26879Y5851D1*
X26850Y5823D1*
X26836Y5794D1*
X26821Y5751D1*
Y5679D1*
X26836Y5636D1*
X26850Y5607D1*
X26879Y5578D1*
X26908Y5564D1*
X26965D1*
X26994Y5578D1*
X27022Y5607D1*
X27037Y5636D1*
X27051Y5679D1*
Y5751D1*
X27037Y5794D1*
X27022Y5823D1*
X26994Y5851D1*
X26965Y5865D1*
X26908D1*
X26951Y5622D2*
X27037Y5535D1*
X27287Y5564D2*
Y5865D1*
X27144Y5664D1*
X27359D1*
X27538Y5865D2*
X27495Y5851D1*
X27466Y5808D1*
X27452Y5736D1*
Y5693D1*
X27466Y5621D1*
X27495Y5578D1*
X27538Y5564D1*
X27566D1*
X27609Y5578D1*
X27638Y5621D1*
X27653Y5693D1*
Y5736D1*
X27638Y5808D1*
X27609Y5851D1*
X27566Y5865D1*
X27538D1*
X27638Y5808D2*
X27466Y5621D1*
X27745Y5808D2*
X27774Y5822D1*
X27817Y5865D1*
Y5564D1*
X383Y8439D2*
X397Y8410D1*
X426Y8382D1*
X455Y8367D1*
X498Y8353D1*
X570D1*
X613Y8367D1*
X641Y8382D1*
X670Y8410D1*
X685Y8439D1*
Y8496D1*
X670Y8525D1*
X641Y8554D1*
X613Y8568D1*
X570Y8583D1*
X498D1*
X455Y8568D1*
X426Y8554D1*
X397Y8525D1*
X383Y8496D1*
Y8439D1*
X627Y8482D2*
X713Y8568D1*
X384Y8847D2*
Y8704D1*
X513Y8690D1*
X499Y8704D1*
X484Y8747D1*
Y8790D1*
X499Y8833D1*
X527Y8862D1*
X570Y8876D1*
X599D1*
X642Y8862D1*
X671Y8833D1*
X685Y8790D1*
Y8747D1*
X671Y8704D1*
X656Y8690D1*
X628Y8675D1*
X384Y9055D2*
X398Y9012D1*
X441Y8983D1*
X513Y8969D1*
X556D1*
X628Y8983D1*
X671Y9012D1*
X685Y9055D1*
Y9083D1*
X671Y9127D1*
X628Y9155D1*
X556Y9170D1*
X513D1*
X441Y9155D1*
X398Y9127D1*
X384Y9083D1*
Y9055D1*
X441Y9155D2*
X628Y8983D1*
X441Y9262D2*
X427Y9291D1*
X384Y9334D1*
X685D1*
X5196Y8437D2*
X5210Y8408D1*
X5239Y8380D1*
X5268Y8365D1*
X5311Y8351D1*
X5382D1*
X5425Y8365D1*
X5454Y8380D1*
X5483Y8408D1*
X5497Y8437D1*
Y8494D1*
X5483Y8523D1*
X5454Y8552D1*
X5425Y8566D1*
X5382Y8581D1*
X5311D1*
X5268Y8566D1*
X5239Y8552D1*
X5210Y8523D1*
X5196Y8494D1*
Y8437D1*
X5440Y8480D2*
X5526Y8566D1*
X5196Y8845D2*
Y8702D1*
X5325Y8688D1*
X5311Y8702D1*
X5296Y8745D1*
Y8788D1*
X5311Y8831D1*
X5340Y8860D1*
X5383Y8874D1*
X5411D1*
X5454Y8860D1*
X5483Y8831D1*
X5497Y8788D1*
Y8745D1*
X5483Y8702D1*
X5469Y8688D1*
X5440Y8673D1*
X5196Y9053D2*
X5211Y9010D1*
X5254Y8981D1*
X5325Y8967D1*
X5368D1*
X5440Y8981D1*
X5483Y9010D1*
X5497Y9053D1*
Y9081D1*
X5483Y9125D1*
X5440Y9153D1*
X5368Y9168D1*
X5325D1*
X5254Y9153D1*
X5211Y9125D1*
X5196Y9081D1*
Y9053D1*
X5254Y9153D2*
X5440Y8981D1*
X5268Y9275D2*
X5254D1*
X5225Y9289D1*
X5211Y9303D1*
X5196Y9332D1*
Y9390D1*
X5211Y9418D1*
X5225Y9432D1*
X5254Y9447D1*
X5282D1*
X5311Y9432D1*
X5354Y9404D1*
X5497Y9260D1*
Y9461D1*
X14173Y5993D2*
X14302D1*
X14345Y6007D1*
X14359Y6021D1*
X14374Y6050D1*
Y6079D1*
X14359Y6107D1*
X14345Y6122D1*
X14302Y6136D1*
X14173D1*
Y5835D1*
X14273Y5993D2*
X14374Y5835D1*
X14466Y6078D2*
X14495Y6093D1*
X14538Y6136D1*
Y5835D1*
X14717Y6136D2*
X14674Y6122D1*
X14645Y6078D1*
X14631Y6007D1*
Y5964D1*
X14645Y5892D1*
X14674Y5849D1*
X14717Y5835D1*
X14746D1*
X14789Y5849D1*
X14817Y5892D1*
X14832Y5964D1*
Y6007D1*
X14817Y6078D1*
X14789Y6122D1*
X14746Y6136D1*
X14717D1*
X14817Y6078D2*
X14645Y5892D1*
X14924Y6078D2*
X14953Y6093D1*
X14996Y6136D1*
Y5835D1*
X19002Y5493D2*
X19131D1*
X19174Y5507D1*
X19188Y5521D1*
X19202Y5550D1*
Y5579D1*
X19188Y5607D1*
X19174Y5622D1*
X19131Y5636D1*
X19002D1*
Y5335D1*
X19102Y5493D2*
X19202Y5335D1*
X19295Y5578D2*
X19324Y5593D1*
X19367Y5636D1*
Y5335D1*
X19546Y5636D2*
X19503Y5622D1*
X19474Y5578D1*
X19460Y5507D1*
Y5464D1*
X19474Y5392D1*
X19503Y5349D1*
X19546Y5335D1*
X19574D1*
X19618Y5349D1*
X19646Y5392D1*
X19661Y5464D1*
Y5507D1*
X19646Y5578D1*
X19618Y5622D1*
X19574Y5636D1*
X19546D1*
X19646Y5578D2*
X19474Y5392D1*
X19768Y5564D2*
Y5578D1*
X19782Y5607D1*
X19796Y5622D1*
X19825Y5636D1*
X19883D1*
X19911Y5622D1*
X19925Y5607D1*
X19940Y5578D1*
Y5550D1*
X19925Y5521D1*
X19897Y5478D1*
X19753Y5335D1*
X19954D1*
X11189Y5868D2*
X11318D1*
X11361Y5882D1*
X11375Y5896D1*
X11389Y5925D1*
Y5954D1*
X11375Y5982D1*
X11361Y5997D1*
X11318Y6011D1*
X11189D1*
Y5710D1*
X11289Y5868D2*
X11389Y5710D1*
X11482Y5953D2*
X11511Y5968D1*
X11554Y6011D1*
Y5710D1*
X11733Y6011D2*
X11690Y5997D1*
X11661Y5953D1*
X11647Y5882D1*
Y5839D1*
X11661Y5767D1*
X11690Y5724D1*
X11733Y5710D1*
X11761D1*
X11805Y5724D1*
X11833Y5767D1*
X11848Y5839D1*
Y5882D1*
X11833Y5953D1*
X11805Y5997D1*
X11761Y6011D1*
X11733D1*
X11833Y5953D2*
X11661Y5767D1*
X11969Y6011D2*
X12127D1*
X12041Y5896D1*
X12084D1*
X12112Y5882D1*
X12127Y5868D1*
X12141Y5824D1*
Y5796D1*
X12127Y5753D1*
X12098Y5724D1*
X12055Y5710D1*
X12012D1*
X11969Y5724D1*
X11955Y5739D1*
X11940Y5767D1*
X19039Y6993D2*
X19168D1*
X19211Y7007D1*
X19225Y7021D1*
X19240Y7050D1*
Y7079D1*
X19225Y7107D1*
X19211Y7122D1*
X19168Y7136D1*
X19039D1*
Y6835D1*
X19139Y6993D2*
X19240Y6835D1*
X19332Y7078D2*
X19361Y7093D1*
X19404Y7136D1*
Y6835D1*
X19583Y7136D2*
X19540Y7122D1*
X19511Y7078D1*
X19497Y7007D1*
Y6964D1*
X19511Y6892D1*
X19540Y6849D1*
X19583Y6835D1*
X19612D1*
X19655Y6849D1*
X19683Y6892D1*
X19698Y6964D1*
Y7007D1*
X19683Y7078D1*
X19655Y7122D1*
X19612Y7136D1*
X19583D1*
X19683Y7078D2*
X19511Y6892D1*
X19934Y6835D2*
Y7136D1*
X19790Y6935D1*
X20006D1*
X11189Y6430D2*
X11318D1*
X11361Y6445D1*
X11375Y6459D1*
X11389Y6487D1*
Y6516D1*
X11375Y6545D1*
X11361Y6559D1*
X11318Y6574D1*
X11189D1*
Y6272D1*
X11289Y6430D2*
X11389Y6272D1*
X11482Y6516D2*
X11511Y6531D1*
X11554Y6573D1*
Y6272D1*
X11733Y6573D2*
X11690Y6559D1*
X11661Y6516D1*
X11647Y6444D1*
Y6401D1*
X11661Y6330D1*
X11690Y6286D1*
X11733Y6272D1*
X11761D1*
X11805Y6286D1*
X11833Y6330D1*
X11848Y6401D1*
Y6444D1*
X11833Y6516D1*
X11805Y6559D1*
X11761Y6573D1*
X11733D1*
X11833Y6516D2*
X11661Y6330D1*
X12112Y6573D2*
X11969D1*
X11955Y6444D1*
X11969Y6459D1*
X12012Y6473D1*
X12055D1*
X12098Y6459D1*
X12127Y6430D1*
X12141Y6387D1*
Y6358D1*
X12127Y6315D1*
X12098Y6286D1*
X12055Y6272D1*
X12012D1*
X11969Y6286D1*
X11955Y6301D1*
X11940Y6330D1*
X11196Y6993D2*
X11325D1*
X11368Y7007D1*
X11383Y7021D1*
X11397Y7050D1*
Y7079D1*
X11383Y7107D1*
X11368Y7122D1*
X11325Y7136D1*
X11196D1*
Y6835D1*
X11296Y6993D2*
X11397Y6835D1*
X11489Y7078D2*
X11518Y7093D1*
X11561Y7136D1*
Y6835D1*
X11740Y7136D2*
X11697Y7122D1*
X11668Y7078D1*
X11654Y7007D1*
Y6964D1*
X11668Y6892D1*
X11697Y6849D1*
X11740Y6835D1*
X11769D1*
X11812Y6849D1*
X11840Y6892D1*
X11855Y6964D1*
Y7007D1*
X11840Y7078D1*
X11812Y7122D1*
X11769Y7136D1*
X11740D1*
X11840Y7078D2*
X11668Y6892D1*
X12120Y7093D2*
X12105Y7122D1*
X12062Y7136D1*
X12034D1*
X11991Y7122D1*
X11962Y7078D1*
X11948Y7007D1*
Y6935D1*
X11962Y6878D1*
X11991Y6849D1*
X12034Y6835D1*
X12048D1*
X12091Y6849D1*
X12120Y6878D1*
X12134Y6921D1*
Y6935D1*
X12120Y6978D1*
X12091Y7007D1*
X12048Y7021D1*
X12034D1*
X11991Y7007D1*
X11962Y6978D1*
X11948Y6935D1*
X16132Y3483D2*
Y3612D1*
X16118Y3655D1*
X16103Y3670D1*
X16075Y3684D1*
X16046D1*
X16018Y3670D1*
X16003Y3655D1*
X15989Y3612D1*
Y3483D1*
X16290D1*
X16132Y3584D2*
X16290Y3684D1*
X16046Y3777D2*
X16032Y3806D1*
X15989Y3849D1*
X16290D1*
X15989Y4028D2*
X16003Y3985D1*
X16046Y3956D1*
X16118Y3941D1*
X16161D1*
X16233Y3956D1*
X16276Y3985D1*
X16290Y4028D1*
Y4056D1*
X16276Y4099D1*
X16233Y4128D1*
X16161Y4142D1*
X16118D1*
X16046Y4128D1*
X16003Y4099D1*
X15989Y4056D1*
Y4028D1*
X16046Y4128D2*
X16233Y3956D1*
X15989Y4307D2*
X16003Y4264D1*
X16032Y4249D1*
X16061D1*
X16089Y4264D1*
X16104Y4292D1*
X16118Y4350D1*
X16132Y4393D1*
X16161Y4421D1*
X16190Y4436D1*
X16233D1*
X16261Y4421D1*
X16276Y4407D1*
X16290Y4364D1*
Y4307D1*
X16276Y4264D1*
X16261Y4249D1*
X16233Y4235D1*
X16190D1*
X16161Y4249D1*
X16132Y4278D1*
X16118Y4321D1*
X16104Y4378D1*
X16089Y4407D1*
X16061Y4421D1*
X16032D1*
X16003Y4407D1*
X15989Y4364D1*
Y4307D1*
X7235Y11156D2*
Y11285D1*
X7221Y11328D1*
X7206Y11342D1*
X7178Y11357D1*
X7149D1*
X7121Y11342D1*
X7106Y11328D1*
X7092Y11285D1*
Y11156D1*
X7393D1*
X7235Y11256D2*
X7393Y11357D1*
X7149Y11449D2*
X7135Y11478D1*
X7092Y11521D1*
X7393D1*
X7092Y11700D2*
X7106Y11657D1*
X7149Y11628D1*
X7221Y11614D1*
X7264D1*
X7336Y11628D1*
X7379Y11657D1*
X7393Y11700D1*
Y11729D1*
X7379Y11772D1*
X7336Y11800D1*
X7264Y11815D1*
X7221D1*
X7149Y11800D1*
X7106Y11772D1*
X7092Y11729D1*
Y11700D1*
X7149Y11800D2*
X7336Y11628D1*
X7192Y12094D2*
X7235Y12080D1*
X7264Y12051D1*
X7278Y12008D1*
Y11994D1*
X7264Y11951D1*
X7235Y11922D1*
X7192Y11908D1*
X7178D1*
X7135Y11922D1*
X7106Y11951D1*
X7092Y11994D1*
Y12008D1*
X7106Y12051D1*
X7135Y12080D1*
X7192Y12094D1*
X7264D1*
X7336Y12080D1*
X7379Y12051D1*
X7393Y12008D1*
Y11980D1*
X7379Y11936D1*
X7350Y11922D1*
X9280Y11088D2*
Y11217D1*
X9265Y11260D1*
X9251Y11275D1*
X9222Y11289D1*
X9193D1*
X9165Y11275D1*
X9150Y11260D1*
X9136Y11217D1*
Y11088D1*
X9437D1*
X9280Y11189D2*
X9437Y11289D1*
X9194Y11382D2*
X9179Y11411D1*
X9136Y11454D1*
X9437D1*
X9194Y11546D2*
X9179Y11575D1*
X9136Y11618D1*
X9437D1*
X9136Y11797D2*
X9151Y11754D1*
X9194Y11725D1*
X9265Y11711D1*
X9308D1*
X9380Y11725D1*
X9423Y11754D1*
X9437Y11797D1*
Y11826D1*
X9423Y11869D1*
X9380Y11897D1*
X9308Y11912D1*
X9265D1*
X9194Y11897D1*
X9151Y11869D1*
X9136Y11826D1*
Y11797D1*
X9194Y11897D2*
X9380Y11725D1*
X8590Y17198D2*
X8719D1*
X8762Y17213D1*
X8777Y17227D1*
X8791Y17256D1*
Y17285D1*
X8777Y17313D1*
X8762Y17328D1*
X8719Y17342D1*
X8590D1*
Y17040D1*
X8691Y17198D2*
X8791Y17040D1*
X8884Y17284D2*
X8913Y17299D1*
X8956Y17342D1*
Y17040D1*
X9048Y17284D2*
X9077Y17299D1*
X9120Y17342D1*
Y17040D1*
X9213Y17284D2*
X9242Y17299D1*
X9285Y17342D1*
Y17040D1*
X50001Y1493D2*
X50130D1*
X50174Y1507D1*
X50188Y1521D1*
X50202Y1550D1*
Y1579D1*
X50188Y1607D1*
X50174Y1622D1*
X50130Y1636D1*
X50001D1*
Y1335D1*
X50102Y1493D2*
X50202Y1335D1*
X50310Y1564D2*
Y1578D1*
X50324Y1607D1*
X50338Y1622D1*
X50367Y1636D1*
X50424D1*
X50453Y1622D1*
X50467Y1607D1*
X50482Y1578D1*
Y1550D1*
X50467Y1521D1*
X50439Y1478D1*
X50295Y1335D1*
X50496D1*
X50675Y1636D2*
X50632Y1622D1*
X50603Y1578D1*
X50589Y1507D1*
Y1464D1*
X50603Y1392D1*
X50632Y1349D1*
X50675Y1335D1*
X50703D1*
X50747Y1349D1*
X50775Y1392D1*
X50790Y1464D1*
Y1507D1*
X50775Y1578D1*
X50747Y1622D1*
X50703Y1636D1*
X50675D1*
X50775Y1578D2*
X50603Y1392D1*
X50882Y1578D2*
X50911Y1593D1*
X50954Y1636D1*
Y1335D1*
X47507Y7231D2*
Y7360D1*
X47493Y7403D1*
X47479Y7418D1*
X47450Y7432D1*
X47421D1*
X47393Y7418D1*
X47378Y7403D1*
X47364Y7360D1*
Y7231D1*
X47665D1*
X47507Y7332D2*
X47665Y7432D1*
X47436Y7539D2*
X47422D1*
X47393Y7554D1*
X47378Y7568D1*
X47364Y7597D1*
Y7654D1*
X47378Y7683D1*
X47393Y7697D1*
X47422Y7712D1*
X47450D1*
X47479Y7697D1*
X47522Y7668D1*
X47665Y7525D1*
Y7726D1*
X47364Y7905D2*
X47378Y7862D1*
X47422Y7833D1*
X47493Y7818D1*
X47536D1*
X47608Y7833D1*
X47651Y7862D1*
X47665Y7905D1*
Y7933D1*
X47651Y7976D1*
X47608Y8005D1*
X47536Y8019D1*
X47493D1*
X47422Y8005D1*
X47378Y7976D1*
X47364Y7933D1*
Y7905D1*
X47422Y8005D2*
X47608Y7833D1*
X47436Y8127D2*
X47422D1*
X47393Y8141D1*
X47378Y8155D1*
X47364Y8184D1*
Y8241D1*
X47378Y8270D1*
X47393Y8284D1*
X47422Y8299D1*
X47450D1*
X47479Y8284D1*
X47522Y8256D1*
X47665Y8112D1*
Y8313D1*
X46007Y7249D2*
Y7378D1*
X45993Y7422D1*
X45979Y7436D1*
X45950Y7450D1*
X45921D1*
X45893Y7436D1*
X45878Y7422D1*
X45864Y7378D1*
Y7249D1*
X46165D1*
X46007Y7350D2*
X46165Y7450D1*
X45936Y7558D2*
X45922D1*
X45893Y7572D1*
X45878Y7586D1*
X45864Y7615D1*
Y7672D1*
X45878Y7701D1*
X45893Y7715D1*
X45922Y7730D1*
X45950D1*
X45979Y7715D1*
X46022Y7687D1*
X46165Y7543D1*
Y7744D1*
X45864Y7923D2*
X45878Y7880D1*
X45922Y7851D1*
X45993Y7837D1*
X46036D1*
X46108Y7851D1*
X46151Y7880D1*
X46165Y7923D1*
Y7951D1*
X46151Y7995D1*
X46108Y8023D1*
X46036Y8038D1*
X45993D1*
X45922Y8023D1*
X45878Y7995D1*
X45864Y7951D1*
Y7923D1*
X45922Y8023D2*
X46108Y7851D1*
X45864Y8159D2*
Y8317D1*
X45979Y8231D1*
Y8274D1*
X45993Y8302D1*
X46007Y8317D1*
X46051Y8331D1*
X46079D1*
X46122Y8317D1*
X46151Y8288D1*
X46165Y8245D1*
Y8202D1*
X46151Y8159D1*
X46136Y8145D1*
X46108Y8130D1*
X46757Y14787D2*
Y14916D1*
X46743Y14959D1*
X46729Y14973D1*
X46700Y14988D1*
X46671D1*
X46643Y14973D1*
X46628Y14959D1*
X46614Y14916D1*
Y14787D1*
X46915D1*
X46757Y14887D2*
X46915Y14988D1*
X46686Y15095D2*
X46672D1*
X46643Y15109D1*
X46628Y15123D1*
X46614Y15152D1*
Y15210D1*
X46628Y15238D1*
X46643Y15252D1*
X46672Y15267D1*
X46700D1*
X46729Y15252D1*
X46772Y15224D1*
X46915Y15080D1*
Y15281D1*
X46614Y15460D2*
X46628Y15417D1*
X46672Y15388D1*
X46743Y15374D1*
X46786D1*
X46858Y15388D1*
X46901Y15417D1*
X46915Y15460D1*
Y15489D1*
X46901Y15532D1*
X46858Y15560D1*
X46786Y15575D1*
X46743D1*
X46672Y15560D1*
X46628Y15532D1*
X46614Y15489D1*
Y15460D1*
X46672Y15560D2*
X46858Y15388D1*
X46915Y15811D2*
X46614D1*
X46815Y15667D1*
Y15883D1*
X48195Y7231D2*
Y7360D1*
X48180Y7403D1*
X48166Y7418D1*
X48138Y7432D1*
X48109D1*
X48080Y7418D1*
X48066Y7403D1*
X48051Y7360D1*
Y7231D1*
X48353D1*
X48195Y7332D2*
X48353Y7432D1*
X48123Y7539D2*
X48109D1*
X48080Y7554D1*
X48066Y7568D1*
X48052Y7597D1*
Y7654D1*
X48066Y7683D1*
X48080Y7697D1*
X48109Y7712D1*
X48138D1*
X48166Y7697D1*
X48209Y7668D1*
X48353Y7525D1*
Y7726D1*
X48052Y7905D2*
X48066Y7862D1*
X48109Y7833D1*
X48181Y7818D1*
X48224D1*
X48295Y7833D1*
X48338Y7862D1*
X48353Y7905D1*
Y7933D1*
X48338Y7976D1*
X48295Y8005D1*
X48224Y8019D1*
X48181D1*
X48109Y8005D1*
X48066Y7976D1*
X48052Y7933D1*
Y7905D1*
X48109Y8005D2*
X48295Y7833D1*
X48052Y8284D2*
Y8141D1*
X48181Y8127D1*
X48166Y8141D1*
X48152Y8184D1*
Y8227D1*
X48166Y8270D1*
X48195Y8299D1*
X48238Y8313D1*
X48267D1*
X48310Y8299D1*
X48338Y8270D1*
X48353Y8227D1*
Y8184D1*
X48338Y8141D1*
X48324Y8127D1*
X48295Y8112D1*
X48257Y14882D2*
Y15011D1*
X48243Y15054D1*
X48229Y15068D1*
X48200Y15083D1*
X48171D1*
X48143Y15068D1*
X48128Y15054D1*
X48114Y15011D1*
Y14882D1*
X48415D1*
X48257Y14982D2*
X48415Y15083D1*
X48186Y15190D2*
X48172D1*
X48143Y15204D1*
X48128Y15218D1*
X48114Y15247D1*
Y15305D1*
X48128Y15333D1*
X48143Y15347D1*
X48172Y15362D1*
X48200D1*
X48229Y15347D1*
X48272Y15319D1*
X48415Y15175D1*
Y15376D1*
X48114Y15555D2*
X48128Y15512D1*
X48172Y15483D1*
X48243Y15469D1*
X48286D1*
X48358Y15483D1*
X48401Y15512D1*
X48415Y15555D1*
Y15584D1*
X48401Y15627D1*
X48358Y15655D1*
X48286Y15670D1*
X48243D1*
X48172Y15655D1*
X48128Y15627D1*
X48114Y15584D1*
Y15555D1*
X48172Y15655D2*
X48358Y15483D1*
X48157Y15935D2*
X48128Y15920D1*
X48114Y15877D1*
Y15849D1*
X48128Y15806D1*
X48172Y15777D1*
X48243Y15763D1*
X48315D1*
X48372Y15777D1*
X48401Y15806D1*
X48415Y15849D1*
Y15863D1*
X48401Y15906D1*
X48372Y15935D1*
X48329Y15949D1*
X48315D1*
X48272Y15935D1*
X48243Y15906D1*
X48229Y15863D1*
Y15849D1*
X48243Y15806D1*
X48272Y15777D1*
X48315Y15763D1*
X51007Y7231D2*
Y7360D1*
X50993Y7403D1*
X50979Y7418D1*
X50950Y7432D1*
X50921D1*
X50893Y7418D1*
X50878Y7403D1*
X50864Y7360D1*
Y7231D1*
X51165D1*
X51007Y7332D2*
X51165Y7432D1*
X50936Y7539D2*
X50922D1*
X50893Y7554D1*
X50878Y7568D1*
X50864Y7597D1*
Y7654D1*
X50878Y7683D1*
X50893Y7697D1*
X50922Y7712D1*
X50950D1*
X50979Y7697D1*
X51022Y7668D1*
X51165Y7525D1*
Y7726D1*
X50864Y7905D2*
X50878Y7862D1*
X50922Y7833D1*
X50993Y7818D1*
X51036D1*
X51108Y7833D1*
X51151Y7862D1*
X51165Y7905D1*
Y7933D1*
X51151Y7976D1*
X51108Y8005D1*
X51036Y8019D1*
X50993D1*
X50922Y8005D1*
X50878Y7976D1*
X50864Y7933D1*
Y7905D1*
X50922Y8005D2*
X51108Y7833D1*
X51165Y8169D2*
X50864Y8313D1*
Y8112D1*
X52507Y7248D2*
Y7377D1*
X52493Y7420D1*
X52479Y7434D1*
X52450Y7449D1*
X52421D1*
X52393Y7434D1*
X52378Y7420D1*
X52364Y7377D1*
Y7248D1*
X52665D1*
X52507Y7348D2*
X52665Y7449D1*
X52436Y7556D2*
X52422D1*
X52393Y7570D1*
X52378Y7584D1*
X52364Y7613D1*
Y7671D1*
X52378Y7699D1*
X52393Y7713D1*
X52422Y7728D1*
X52450D1*
X52479Y7713D1*
X52522Y7685D1*
X52665Y7541D1*
Y7742D1*
X52364Y7921D2*
X52378Y7878D1*
X52422Y7849D1*
X52493Y7835D1*
X52536D1*
X52608Y7849D1*
X52651Y7878D1*
X52665Y7921D1*
Y7950D1*
X52651Y7993D1*
X52608Y8021D1*
X52536Y8036D1*
X52493D1*
X52422Y8021D1*
X52378Y7993D1*
X52364Y7950D1*
Y7921D1*
X52422Y8021D2*
X52608Y7849D1*
X52364Y8200D2*
X52378Y8157D1*
X52407Y8143D1*
X52436D1*
X52464Y8157D1*
X52479Y8186D1*
X52493Y8243D1*
X52507Y8286D1*
X52536Y8315D1*
X52565Y8329D1*
X52608D1*
X52636Y8315D1*
X52651Y8301D1*
X52665Y8257D1*
Y8200D1*
X52651Y8157D1*
X52636Y8143D1*
X52608Y8128D1*
X52565D1*
X52536Y8143D1*
X52507Y8172D1*
X52493Y8214D1*
X52479Y8272D1*
X52464Y8301D1*
X52436Y8315D1*
X52407D1*
X52378Y8301D1*
X52364Y8257D1*
Y8200D1*
X51757Y14863D2*
Y14992D1*
X51743Y15036D1*
X51729Y15050D1*
X51700Y15064D1*
X51671D1*
X51643Y15050D1*
X51628Y15036D1*
X51614Y14992D1*
Y14863D1*
X51915D1*
X51757Y14964D2*
X51915Y15064D1*
X51686Y15172D2*
X51672D1*
X51643Y15186D1*
X51628Y15200D1*
X51614Y15229D1*
Y15286D1*
X51628Y15315D1*
X51643Y15329D1*
X51672Y15344D1*
X51700D1*
X51729Y15329D1*
X51772Y15301D1*
X51915Y15157D1*
Y15358D1*
X51614Y15537D2*
X51628Y15494D1*
X51672Y15465D1*
X51743Y15451D1*
X51786D1*
X51858Y15465D1*
X51901Y15494D1*
X51915Y15537D1*
Y15565D1*
X51901Y15608D1*
X51858Y15637D1*
X51786Y15652D1*
X51743D1*
X51672Y15637D1*
X51628Y15608D1*
X51614Y15565D1*
Y15537D1*
X51672Y15637D2*
X51858Y15465D1*
X51714Y15931D2*
X51757Y15916D1*
X51786Y15888D1*
X51801Y15845D1*
Y15830D1*
X51786Y15787D1*
X51757Y15759D1*
X51714Y15744D1*
X51700D1*
X51657Y15759D1*
X51628Y15787D1*
X51614Y15830D1*
Y15845D1*
X51628Y15888D1*
X51657Y15916D1*
X51714Y15931D1*
X51786D1*
X51858Y15916D1*
X51901Y15888D1*
X51915Y15845D1*
Y15816D1*
X51901Y15773D1*
X51872Y15759D1*
X50257Y7296D2*
Y7425D1*
X50243Y7468D1*
X50229Y7482D1*
X50200Y7497D1*
X50171D1*
X50143Y7482D1*
X50128Y7468D1*
X50114Y7425D1*
Y7296D1*
X50415D1*
X50257Y7396D2*
X50415Y7497D1*
X50186Y7604D2*
X50172D1*
X50143Y7618D1*
X50128Y7632D1*
X50114Y7661D1*
Y7719D1*
X50128Y7747D1*
X50143Y7761D1*
X50172Y7776D1*
X50200D1*
X50229Y7761D1*
X50272Y7733D1*
X50415Y7589D1*
Y7790D1*
X50172Y7883D2*
X50157Y7912D1*
X50114Y7955D1*
X50415D1*
X50114Y8134D2*
X50128Y8091D1*
X50172Y8062D1*
X50243Y8048D1*
X50286D1*
X50358Y8062D1*
X50401Y8091D1*
X50415Y8134D1*
Y8162D1*
X50401Y8205D1*
X50358Y8234D1*
X50286Y8249D1*
X50243D1*
X50172Y8234D1*
X50128Y8205D1*
X50114Y8162D1*
Y8134D1*
X50172Y8234D2*
X50358Y8062D1*
X50195Y14941D2*
Y15070D1*
X50180Y15113D1*
X50166Y15128D1*
X50138Y15142D1*
X50109D1*
X50080Y15128D1*
X50066Y15113D1*
X50051Y15070D1*
Y14941D1*
X50353D1*
X50195Y15041D2*
X50353Y15142D1*
X50123Y15249D2*
X50109D1*
X50080Y15263D1*
X50066Y15278D1*
X50052Y15307D1*
Y15364D1*
X50066Y15392D1*
X50080Y15407D1*
X50109Y15421D1*
X50138D1*
X50166Y15407D1*
X50209Y15378D1*
X50353Y15235D1*
Y15436D1*
X50109Y15528D2*
X50094Y15557D1*
X50052Y15600D1*
X50353D1*
X50109Y15693D2*
X50094Y15722D1*
X50052Y15765D1*
X50353D1*
X46001Y12618D2*
X46130D1*
X46174Y12632D1*
X46188Y12646D1*
X46202Y12675D1*
Y12704D1*
X46188Y12732D1*
X46174Y12747D1*
X46130Y12761D1*
X46001D1*
Y12460D1*
X46102Y12618D2*
X46202Y12460D1*
X46310Y12689D2*
Y12703D1*
X46324Y12732D1*
X46338Y12747D1*
X46367Y12761D1*
X46424D1*
X46453Y12747D1*
X46467Y12732D1*
X46482Y12703D1*
Y12675D1*
X46467Y12646D1*
X46439Y12603D1*
X46295Y12460D1*
X46496D1*
X46589Y12703D2*
X46618Y12718D1*
X46661Y12761D1*
Y12460D1*
X46768Y12689D2*
Y12703D1*
X46782Y12732D1*
X46796Y12747D1*
X46825Y12761D1*
X46883D1*
X46911Y12747D1*
X46925Y12732D1*
X46940Y12703D1*
Y12675D1*
X46925Y12646D1*
X46897Y12603D1*
X46753Y12460D1*
X46954D1*
X46046Y10618D2*
X46175D1*
X46218Y10632D1*
X46232Y10646D1*
X46247Y10675D1*
Y10704D1*
X46232Y10732D1*
X46218Y10747D1*
X46175Y10761D1*
X46046D1*
Y10460D1*
X46146Y10618D2*
X46247Y10460D1*
X46354Y10689D2*
Y10703D1*
X46368Y10732D1*
X46382Y10747D1*
X46411Y10761D1*
X46469D1*
X46497Y10747D1*
X46511Y10732D1*
X46526Y10703D1*
Y10675D1*
X46511Y10646D1*
X46483Y10603D1*
X46339Y10460D1*
X46540D1*
X46633Y10703D2*
X46662Y10718D1*
X46705Y10761D1*
Y10460D1*
X46826Y10761D2*
X46984D1*
X46898Y10646D1*
X46941D1*
X46970Y10632D1*
X46984Y10618D1*
X46999Y10574D1*
Y10546D1*
X46984Y10503D1*
X46955Y10474D1*
X46912Y10460D1*
X46869D1*
X46826Y10474D1*
X46812Y10489D1*
X46798Y10517D1*
X30673Y16961D2*
Y17090D1*
X30658Y17133D1*
X30644Y17148D1*
X30615Y17162D1*
X30587D1*
X30558Y17148D1*
X30543Y17133D1*
X30529Y17090D1*
Y16961D1*
X30831D1*
X30673Y17062D2*
X30831Y17162D1*
X30529Y17284D2*
Y17441D1*
X30644Y17355D1*
Y17398D1*
X30658Y17427D1*
X30673Y17441D1*
X30716Y17456D1*
X30744D1*
X30787Y17441D1*
X30816Y17413D1*
X30831Y17369D1*
Y17326D1*
X30816Y17284D1*
X30802Y17269D1*
X30773Y17255D1*
X30529Y17635D2*
X30544Y17591D1*
X30587Y17563D1*
X30658Y17548D1*
X30702D1*
X30773Y17563D1*
X30816Y17591D1*
X30831Y17635D1*
Y17663D1*
X30816Y17706D1*
X30773Y17735D1*
X30702Y17749D1*
X30658D1*
X30587Y17735D1*
X30544Y17706D1*
X30529Y17663D1*
Y17635D1*
X30587Y17735D2*
X30773Y17563D1*
X30587Y17842D2*
X30572Y17871D1*
X30529Y17914D1*
X30831D1*
X29624Y12243D2*
X29753D1*
X29797Y12257D1*
X29811Y12271D1*
X29825Y12300D1*
Y12329D1*
X29811Y12357D1*
X29797Y12372D1*
X29753Y12386D1*
X29624D1*
Y12085D1*
X29725Y12243D2*
X29825Y12085D1*
X29947Y12386D2*
X30104D1*
X30019Y12271D1*
X30062D1*
X30090Y12257D1*
X30104Y12243D1*
X30119Y12199D1*
Y12171D1*
X30104Y12128D1*
X30076Y12099D1*
X30033Y12085D1*
X29990D1*
X29947Y12099D1*
X29933Y12114D1*
X29918Y12142D1*
X30298Y12386D2*
X30255Y12372D1*
X30226Y12328D1*
X30212Y12257D1*
Y12214D1*
X30226Y12142D1*
X30255Y12099D1*
X30298Y12085D1*
X30326D1*
X30370Y12099D1*
X30398Y12142D1*
X30413Y12214D1*
Y12257D1*
X30398Y12328D1*
X30370Y12372D1*
X30326Y12386D1*
X30298D1*
X30398Y12328D2*
X30226Y12142D1*
X30520Y12314D2*
Y12328D1*
X30534Y12357D1*
X30548Y12372D1*
X30577Y12386D1*
X30635D1*
X30663Y12372D1*
X30677Y12357D1*
X30692Y12328D1*
Y12300D1*
X30677Y12271D1*
X30649Y12228D1*
X30505Y12085D1*
X30706D1*
X29624Y13243D2*
X29753D1*
X29797Y13257D1*
X29811Y13271D1*
X29825Y13300D1*
Y13329D1*
X29811Y13357D1*
X29797Y13372D1*
X29753Y13386D1*
X29624D1*
Y13085D1*
X29725Y13243D2*
X29825Y13085D1*
X29947Y13386D2*
X30104D1*
X30019Y13271D1*
X30062D1*
X30090Y13257D1*
X30104Y13243D1*
X30119Y13199D1*
Y13171D1*
X30104Y13128D1*
X30076Y13099D1*
X30033Y13085D1*
X29990D1*
X29947Y13099D1*
X29933Y13114D1*
X29918Y13142D1*
X30298Y13386D2*
X30255Y13372D1*
X30226Y13328D1*
X30212Y13257D1*
Y13214D1*
X30226Y13142D1*
X30255Y13099D1*
X30298Y13085D1*
X30326D1*
X30370Y13099D1*
X30398Y13142D1*
X30413Y13214D1*
Y13257D1*
X30398Y13328D1*
X30370Y13372D1*
X30326Y13386D1*
X30298D1*
X30398Y13328D2*
X30226Y13142D1*
X30534Y13386D2*
X30692D1*
X30606Y13271D1*
X30649D1*
X30677Y13257D1*
X30692Y13243D1*
X30706Y13199D1*
Y13171D1*
X30692Y13128D1*
X30663Y13099D1*
X30620Y13085D1*
X30577D1*
X30534Y13099D1*
X30520Y13114D1*
X30505Y13142D1*
X29617Y14243D2*
X29746D1*
X29789Y14257D1*
X29804Y14271D1*
X29818Y14300D1*
Y14329D1*
X29804Y14357D1*
X29789Y14372D1*
X29746Y14386D1*
X29617D1*
Y14085D1*
X29718Y14243D2*
X29818Y14085D1*
X29940Y14386D2*
X30097D1*
X30011Y14271D1*
X30055D1*
X30083Y14257D1*
X30097Y14243D1*
X30112Y14199D1*
Y14171D1*
X30097Y14128D1*
X30069Y14099D1*
X30026Y14085D1*
X29983D1*
X29940Y14099D1*
X29926Y14114D1*
X29911Y14142D1*
X30291Y14386D2*
X30248Y14372D1*
X30219Y14328D1*
X30205Y14257D1*
Y14214D1*
X30219Y14142D1*
X30248Y14099D1*
X30291Y14085D1*
X30319D1*
X30362Y14099D1*
X30391Y14142D1*
X30406Y14214D1*
Y14257D1*
X30391Y14328D1*
X30362Y14372D1*
X30319Y14386D1*
X30291D1*
X30391Y14328D2*
X30219Y14142D1*
X30642Y14085D2*
Y14386D1*
X30498Y14185D1*
X30713D1*
X31044Y12243D2*
X31173D1*
X31216Y12257D1*
X31230Y12271D1*
X31245Y12300D1*
Y12329D1*
X31230Y12357D1*
X31216Y12372D1*
X31173Y12386D1*
X31044D1*
Y12085D1*
X31144Y12243D2*
X31245Y12085D1*
X31366Y12386D2*
X31524D1*
X31438Y12271D1*
X31481D1*
X31509Y12257D1*
X31524Y12243D1*
X31538Y12199D1*
Y12171D1*
X31524Y12128D1*
X31495Y12099D1*
X31452Y12085D1*
X31409D1*
X31366Y12099D1*
X31352Y12114D1*
X31337Y12142D1*
X31717Y12386D2*
X31674Y12372D1*
X31645Y12328D1*
X31631Y12257D1*
Y12214D1*
X31645Y12142D1*
X31674Y12099D1*
X31717Y12085D1*
X31746D1*
X31789Y12099D1*
X31817Y12142D1*
X31832Y12214D1*
Y12257D1*
X31817Y12328D1*
X31789Y12372D1*
X31746Y12386D1*
X31717D1*
X31817Y12328D2*
X31645Y12142D1*
X32097Y12386D2*
X31953D1*
X31939Y12257D1*
X31953Y12271D1*
X31997Y12286D1*
X32039D1*
X32082Y12271D1*
X32111Y12243D1*
X32126Y12199D1*
Y12171D1*
X32111Y12128D1*
X32082Y12099D1*
X32039Y12085D1*
X31997D1*
X31953Y12099D1*
X31939Y12114D1*
X31925Y12142D1*
X31051Y13243D2*
X31180D1*
X31223Y13257D1*
X31238Y13271D1*
X31252Y13300D1*
Y13329D1*
X31238Y13357D1*
X31223Y13372D1*
X31180Y13386D1*
X31051D1*
Y13085D1*
X31152Y13243D2*
X31252Y13085D1*
X31374Y13386D2*
X31531D1*
X31445Y13271D1*
X31488D1*
X31517Y13257D1*
X31531Y13243D1*
X31546Y13199D1*
Y13171D1*
X31531Y13128D1*
X31503Y13099D1*
X31459Y13085D1*
X31416D1*
X31374Y13099D1*
X31359Y13114D1*
X31345Y13142D1*
X31724Y13386D2*
X31681Y13372D1*
X31653Y13328D1*
X31638Y13257D1*
Y13214D1*
X31653Y13142D1*
X31681Y13099D1*
X31724Y13085D1*
X31753D1*
X31796Y13099D1*
X31825Y13142D1*
X31839Y13214D1*
Y13257D1*
X31825Y13328D1*
X31796Y13372D1*
X31753Y13386D1*
X31724D1*
X31825Y13328D2*
X31653Y13142D1*
X32104Y13343D2*
X32090Y13372D1*
X32047Y13386D1*
X32018D1*
X31975Y13372D1*
X31946Y13328D1*
X31932Y13257D1*
Y13185D1*
X31946Y13128D1*
X31975Y13099D1*
X32018Y13085D1*
X32032D1*
X32075Y13099D1*
X32104Y13128D1*
X32118Y13171D1*
Y13185D1*
X32104Y13228D1*
X32075Y13257D1*
X32032Y13271D1*
X32018D1*
X31975Y13257D1*
X31946Y13228D1*
X31932Y13185D1*
X31044Y14243D2*
X31173D1*
X31216Y14257D1*
X31230Y14271D1*
X31245Y14300D1*
Y14329D1*
X31230Y14357D1*
X31216Y14372D1*
X31173Y14386D1*
X31044D1*
Y14085D1*
X31144Y14243D2*
X31245Y14085D1*
X31366Y14386D2*
X31524D1*
X31438Y14271D1*
X31481D1*
X31509Y14257D1*
X31524Y14243D1*
X31538Y14199D1*
Y14171D1*
X31524Y14128D1*
X31495Y14099D1*
X31452Y14085D1*
X31409D1*
X31366Y14099D1*
X31352Y14114D1*
X31337Y14142D1*
X31717Y14386D2*
X31674Y14372D1*
X31645Y14328D1*
X31631Y14257D1*
Y14214D1*
X31645Y14142D1*
X31674Y14099D1*
X31717Y14085D1*
X31746D1*
X31789Y14099D1*
X31817Y14142D1*
X31832Y14214D1*
Y14257D1*
X31817Y14328D1*
X31789Y14372D1*
X31746Y14386D1*
X31717D1*
X31817Y14328D2*
X31645Y14142D1*
X31982Y14085D2*
X32126Y14386D1*
X31925D1*
X26329Y8390D2*
X26458D1*
X26501Y8404D1*
X26516Y8419D1*
X26530Y8447D1*
Y8476D1*
X26516Y8504D1*
X26501Y8519D1*
X26458Y8533D1*
X26329D1*
Y8232D1*
X26429Y8390D2*
X26530Y8232D1*
X26766D2*
Y8533D1*
X26623Y8332D1*
X26838D1*
X27017Y8533D2*
X26974Y8519D1*
X26945Y8476D1*
X26930Y8404D1*
Y8361D1*
X26945Y8289D1*
X26974Y8246D1*
X27017Y8232D1*
X27045D1*
X27088Y8246D1*
X27117Y8289D1*
X27131Y8361D1*
Y8404D1*
X27117Y8476D1*
X27088Y8519D1*
X27045Y8533D1*
X27017D1*
X27117Y8476D2*
X26945Y8289D1*
X27224Y8476D2*
X27253Y8490D1*
X27296Y8533D1*
Y8232D1*
X28342Y7452D2*
Y7581D1*
X28327Y7624D1*
X28313Y7639D1*
X28285Y7653D1*
X28256D1*
X28227Y7639D1*
X28213Y7624D1*
X28198Y7581D1*
Y7452D1*
X28500D1*
X28342Y7552D2*
X28500Y7653D1*
Y7889D2*
X28199D1*
X28399Y7746D1*
Y7961D1*
X28199Y8140D2*
X28213Y8097D1*
X28256Y8068D1*
X28328Y8053D1*
X28371D1*
X28443Y8068D1*
X28486Y8097D1*
X28500Y8140D1*
Y8168D1*
X28486Y8211D1*
X28443Y8240D1*
X28371Y8254D1*
X28328D1*
X28256Y8240D1*
X28213Y8211D1*
X28199Y8168D1*
Y8140D1*
X28256Y8240D2*
X28443Y8068D1*
X28270Y8362D2*
X28256D1*
X28227Y8376D1*
X28213Y8390D1*
X28199Y8419D1*
Y8476D1*
X28213Y8505D1*
X28227Y8519D1*
X28256Y8534D1*
X28285D1*
X28314Y8519D1*
X28356Y8491D1*
X28500Y8347D1*
Y8548D1*
X24945Y6117D2*
Y6246D1*
X24930Y6289D1*
X24916Y6304D1*
X24888Y6318D1*
X24859D1*
X24830Y6304D1*
X24816Y6289D1*
X24801Y6246D1*
Y6117D1*
X25103D1*
X24945Y6218D2*
X25103Y6318D1*
Y6555D2*
X24802D1*
X25002Y6411D1*
Y6626D1*
X24802Y6805D2*
X24816Y6762D1*
X24859Y6733D1*
X24931Y6719D1*
X24974D1*
X25045Y6733D1*
X25088Y6762D1*
X25103Y6805D1*
Y6834D1*
X25088Y6877D1*
X25045Y6905D1*
X24974Y6920D1*
X24931D1*
X24859Y6905D1*
X24816Y6877D1*
X24802Y6834D1*
Y6805D1*
X24859Y6905D2*
X25045Y6733D1*
X24802Y7041D2*
Y7199D1*
X24916Y7113D1*
Y7156D1*
X24931Y7185D1*
X24945Y7199D1*
X24988Y7213D1*
X25017D1*
X25060Y7199D1*
X25088Y7170D1*
X25103Y7127D1*
Y7084D1*
X25088Y7041D1*
X25074Y7027D1*
X25045Y7012D1*
X639Y4630D2*
X768D1*
X811Y4645D1*
X826Y4659D1*
X840Y4688D1*
Y4717D1*
X826Y4745D1*
X811Y4760D1*
X768Y4774D1*
X639D1*
Y4473D1*
X740Y4630D2*
X840Y4473D1*
X1105Y4774D2*
X962D1*
X947Y4645D1*
X962Y4659D1*
X1005Y4674D1*
X1048D1*
X1091Y4659D1*
X1120Y4630D1*
X1134Y4587D1*
Y4559D1*
X1120Y4516D1*
X1091Y4487D1*
X1048Y4473D1*
X1005D1*
X962Y4487D1*
X947Y4501D1*
X933Y4530D1*
X1313Y4774D2*
X1270Y4759D1*
X1241Y4716D1*
X1226Y4645D1*
Y4602D1*
X1241Y4530D1*
X1270Y4487D1*
X1313Y4473D1*
X1341D1*
X1384Y4487D1*
X1413Y4530D1*
X1427Y4602D1*
Y4645D1*
X1413Y4716D1*
X1384Y4759D1*
X1341Y4774D1*
X1313D1*
X1413Y4716D2*
X1241Y4530D1*
X1520Y4716D2*
X1549Y4731D1*
X1592Y4774D1*
Y4473D1*
X4512Y4630D2*
X4641D1*
X4684Y4645D1*
X4699Y4659D1*
X4713Y4688D1*
Y4717D1*
X4699Y4745D1*
X4684Y4760D1*
X4641Y4774D1*
X4512D1*
Y4473D1*
X4613Y4630D2*
X4713Y4473D1*
X4978Y4774D2*
X4835D1*
X4820Y4645D1*
X4835Y4659D1*
X4878Y4674D1*
X4921D1*
X4964Y4659D1*
X4993Y4630D1*
X5007Y4587D1*
Y4559D1*
X4993Y4516D1*
X4964Y4487D1*
X4921Y4473D1*
X4878D1*
X4835Y4487D1*
X4820Y4501D1*
X4806Y4530D1*
X5186Y4774D2*
X5143Y4759D1*
X5114Y4716D1*
X5099Y4645D1*
Y4602D1*
X5114Y4530D1*
X5143Y4487D1*
X5186Y4473D1*
X5214D1*
X5257Y4487D1*
X5286Y4530D1*
X5300Y4602D1*
Y4645D1*
X5286Y4716D1*
X5257Y4759D1*
X5214Y4774D1*
X5186D1*
X5286Y4716D2*
X5114Y4530D1*
X5408Y4702D2*
Y4716D1*
X5422Y4745D1*
X5436Y4759D1*
X5465Y4774D1*
X5522D1*
X5551Y4759D1*
X5565Y4745D1*
X5580Y4716D1*
Y4688D1*
X5565Y4659D1*
X5537Y4616D1*
X5393Y4473D1*
X5594D1*
X32794Y7868D2*
X32923D1*
X32966Y7882D1*
X32980Y7896D1*
X32995Y7925D1*
Y7954D1*
X32980Y7982D1*
X32966Y7997D1*
X32923Y8011D1*
X32794D1*
Y7710D1*
X32894Y7868D2*
X32995Y7710D1*
X33259Y8011D2*
X33116D1*
X33102Y7882D1*
X33116Y7896D1*
X33159Y7911D1*
X33202D1*
X33245Y7896D1*
X33274Y7868D1*
X33288Y7824D1*
Y7796D1*
X33274Y7753D1*
X33245Y7724D1*
X33202Y7710D1*
X33159D1*
X33116Y7724D1*
X33102Y7739D1*
X33087Y7767D1*
X33467Y8011D2*
X33424Y7997D1*
X33395Y7953D1*
X33381Y7882D1*
Y7839D1*
X33395Y7767D1*
X33424Y7724D1*
X33467Y7710D1*
X33496D1*
X33539Y7724D1*
X33567Y7767D1*
X33582Y7839D1*
Y7882D1*
X33567Y7953D1*
X33539Y7997D1*
X33496Y8011D1*
X33467D1*
X33567Y7953D2*
X33395Y7767D1*
X33703Y8011D2*
X33861D1*
X33775Y7896D1*
X33818D1*
X33847Y7882D1*
X33861Y7868D1*
X33876Y7824D1*
Y7796D1*
X33861Y7753D1*
X33832Y7724D1*
X33789Y7710D1*
X33746D1*
X33703Y7724D1*
X33689Y7739D1*
X33675Y7767D1*
X1880Y4630D2*
X2009D1*
X2052Y4645D1*
X2067Y4659D1*
X2081Y4688D1*
Y4717D1*
X2067Y4745D1*
X2052Y4760D1*
X2009Y4774D1*
X1880D1*
Y4473D1*
X1981Y4630D2*
X2081Y4473D1*
X2346Y4774D2*
X2203D1*
X2188Y4645D1*
X2203Y4659D1*
X2246Y4674D1*
X2288D1*
X2332Y4659D1*
X2360Y4630D1*
X2375Y4587D1*
Y4559D1*
X2360Y4516D1*
X2332Y4487D1*
X2288Y4473D1*
X2246D1*
X2203Y4487D1*
X2188Y4501D1*
X2174Y4530D1*
X2554Y4774D2*
X2510Y4759D1*
X2482Y4716D1*
X2467Y4645D1*
Y4602D1*
X2482Y4530D1*
X2510Y4487D1*
X2554Y4473D1*
X2582D1*
X2625Y4487D1*
X2654Y4530D1*
X2668Y4602D1*
Y4645D1*
X2654Y4716D1*
X2625Y4759D1*
X2582Y4774D1*
X2554D1*
X2654Y4716D2*
X2482Y4530D1*
X2905Y4473D2*
Y4774D1*
X2761Y4573D1*
X2976D1*
X3200Y4630D2*
X3329D1*
X3372Y4645D1*
X3386Y4659D1*
X3401Y4688D1*
Y4717D1*
X3386Y4745D1*
X3372Y4760D1*
X3329Y4774D1*
X3200D1*
Y4473D1*
X3300Y4630D2*
X3401Y4473D1*
X3665Y4774D2*
X3522D1*
X3508Y4645D1*
X3522Y4659D1*
X3565Y4674D1*
X3608D1*
X3651Y4659D1*
X3680Y4630D1*
X3694Y4587D1*
Y4559D1*
X3680Y4516D1*
X3651Y4487D1*
X3608Y4473D1*
X3565D1*
X3522Y4487D1*
X3508Y4501D1*
X3493Y4530D1*
X3873Y4774D2*
X3830Y4759D1*
X3801Y4716D1*
X3787Y4645D1*
Y4602D1*
X3801Y4530D1*
X3830Y4487D1*
X3873Y4473D1*
X3902D1*
X3945Y4487D1*
X3973Y4530D1*
X3988Y4602D1*
Y4645D1*
X3973Y4716D1*
X3945Y4759D1*
X3902Y4774D1*
X3873D1*
X3973Y4716D2*
X3801Y4530D1*
X4253Y4774D2*
X4109D1*
X4095Y4645D1*
X4109Y4659D1*
X4153Y4674D1*
X4195D1*
X4238Y4659D1*
X4267Y4630D1*
X4282Y4587D1*
Y4559D1*
X4267Y4516D1*
X4238Y4487D1*
X4195Y4473D1*
X4153D1*
X4109Y4487D1*
X4095Y4501D1*
X4081Y4530D1*
X15533Y6103D2*
Y5887D1*
X15547Y5844D1*
X15576Y5816D1*
X15619Y5801D1*
X15648D1*
X15691Y5816D1*
X15720Y5844D1*
X15734Y5887D1*
Y6103D1*
X15827Y6045D2*
X15856Y6060D1*
X15899Y6102D1*
Y5801D1*
X16078Y6102D2*
X16034Y6088D1*
X16006Y6045D1*
X15991Y5973D1*
Y5930D1*
X16006Y5859D1*
X16034Y5816D1*
X16078Y5801D1*
X16106D1*
X16149Y5816D1*
X16178Y5859D1*
X16192Y5930D1*
Y5973D1*
X16178Y6045D1*
X16149Y6088D1*
X16106Y6102D1*
X16078D1*
X16178Y6045D2*
X16006Y5859D1*
X16285Y6045D2*
X16314Y6060D1*
X16357Y6102D1*
Y5801D1*
X49830Y4841D2*
Y4626D1*
X49844Y4583D1*
X49873Y4555D1*
X49916Y4540D1*
X49944D1*
X49987Y4555D1*
X50016Y4583D1*
X50031Y4626D1*
Y4841D1*
X50138Y4769D2*
Y4784D1*
X50152Y4813D1*
X50166Y4827D1*
X50195Y4841D1*
X50253D1*
X50281Y4827D1*
X50295Y4813D1*
X50310Y4784D1*
Y4755D1*
X50295Y4726D1*
X50267Y4684D1*
X50123Y4540D1*
X50324D1*
X50503Y4841D2*
X50460Y4827D1*
X50431Y4784D1*
X50417Y4712D1*
Y4669D1*
X50431Y4597D1*
X50460Y4554D1*
X50503Y4540D1*
X50532D1*
X50575Y4554D1*
X50603Y4597D1*
X50618Y4669D1*
Y4712D1*
X50603Y4784D1*
X50575Y4827D1*
X50532Y4841D1*
X50503D1*
X50603Y4784D2*
X50431Y4597D1*
X50710Y4784D2*
X50739Y4798D1*
X50782Y4841D1*
Y4540D1*
X51272Y11709D2*
Y11494D1*
X51286Y11451D1*
X51315Y11422D1*
X51358Y11408D1*
X51386D1*
X51429Y11422D1*
X51458Y11451D1*
X51473Y11494D1*
Y11709D1*
X51580Y11637D2*
Y11651D1*
X51594Y11680D1*
X51608Y11694D1*
X51637Y11709D1*
X51695D1*
X51723Y11694D1*
X51737Y11680D1*
X51752Y11651D1*
Y11623D1*
X51737Y11594D1*
X51709Y11551D1*
X51565Y11408D1*
X51766D1*
X51945Y11709D2*
X51902Y11694D1*
X51873Y11651D1*
X51859Y11580D1*
Y11537D1*
X51873Y11465D1*
X51902Y11422D1*
X51945Y11408D1*
X51974D1*
X52017Y11422D1*
X52045Y11465D1*
X52060Y11537D1*
Y11580D1*
X52045Y11651D1*
X52017Y11694D1*
X51974Y11709D1*
X51945D1*
X52045Y11651D2*
X51873Y11465D1*
X52167Y11637D2*
Y11651D1*
X52181Y11680D1*
X52196Y11694D1*
X52224Y11709D1*
X52282D1*
X52310Y11694D1*
X52325Y11680D1*
X52339Y11651D1*
Y11623D1*
X52325Y11594D1*
X52296Y11551D1*
X52152Y11408D1*
X52353D1*
X47291Y1450D2*
X47507D1*
X47550Y1465D1*
X47578Y1493D1*
X47593Y1536D1*
Y1565D1*
X47578Y1608D1*
X47550Y1637D1*
X47507Y1651D1*
X47291D1*
X47363Y1758D2*
X47349D1*
X47320Y1773D1*
X47306Y1787D1*
X47292Y1816D1*
Y1873D1*
X47306Y1902D1*
X47320Y1916D1*
X47349Y1931D1*
X47378D1*
X47406Y1916D1*
X47449Y1887D1*
X47593Y1744D1*
Y1945D1*
X47292Y2124D2*
X47306Y2081D1*
X47349Y2052D1*
X47421Y2037D1*
X47464D1*
X47535Y2052D1*
X47579Y2081D1*
X47593Y2124D1*
Y2152D1*
X47579Y2195D1*
X47535Y2224D1*
X47464Y2238D1*
X47421D1*
X47349Y2224D1*
X47306Y2195D1*
X47292Y2152D1*
Y2124D1*
X47349Y2224D2*
X47535Y2052D1*
X47292Y2360D2*
Y2517D1*
X47406Y2432D1*
Y2475D1*
X47421Y2503D1*
X47435Y2517D1*
X47478Y2532D1*
X47507D1*
X47550Y2517D1*
X47579Y2489D1*
X47593Y2446D1*
Y2403D1*
X47579Y2360D1*
X47564Y2346D1*
X47535Y2331D1*
X5632Y36225D2*
D112*
Y35421D1*
X6168Y36225D2*
Y35421D1*
X5632Y35842D2*
X6168D1*
X6606Y35957D2*
X6530Y35919D1*
X6453Y35842D1*
X6415Y35727D1*
Y35651D1*
X6453Y35536D1*
X6530Y35460D1*
X6606Y35421D1*
X6721D1*
X6798Y35460D1*
X6874Y35536D1*
X6913Y35651D1*
Y35727D1*
X6874Y35842D1*
X6798Y35919D1*
X6721Y35957D1*
X6606D1*
X7160Y36225D2*
Y35421D1*
X7407Y35727D2*
X7866D1*
Y35804D1*
X7828Y35881D1*
X7790Y35919D1*
X7713Y35957D1*
X7598D1*
X7522Y35919D1*
X7445Y35842D1*
X7407Y35727D1*
Y35651D1*
X7445Y35536D1*
X7522Y35460D1*
X7598Y35421D1*
X7713D1*
X7790Y35460D1*
X7866Y35536D1*
X643Y34268D2*
X987D1*
X1102Y34306D1*
X1141Y34344D1*
X1179Y34420D1*
Y34497D1*
X1141Y34573D1*
X1102Y34612D1*
X987Y34650D1*
X643D1*
Y33847D1*
X911Y34268D2*
X1179Y33847D1*
X1617Y34382D2*
X1541Y34344D1*
X1464Y34268D1*
X1426Y34153D1*
Y34076D1*
X1464Y33962D1*
X1541Y33885D1*
X1617Y33847D1*
X1732D1*
X1809Y33885D1*
X1885Y33962D1*
X1924Y34076D1*
Y34153D1*
X1885Y34268D1*
X1809Y34344D1*
X1732Y34382D1*
X1617D1*
X2171D2*
Y34000D1*
X2209Y33885D1*
X2286Y33847D1*
X2401D1*
X2477Y33885D1*
X2592Y34000D1*
Y34382D2*
Y33847D1*
X2839Y34382D2*
Y33847D1*
Y34229D2*
X2954Y34344D1*
X3031Y34382D1*
X3145D1*
X3222Y34344D1*
X3260Y34229D1*
Y33847D1*
X3966Y34650D2*
Y33847D1*
Y34268D2*
X3890Y34344D1*
X3813Y34382D1*
X3698D1*
X3622Y34344D1*
X3545Y34268D1*
X3507Y34153D1*
Y34076D1*
X3545Y33962D1*
X3622Y33885D1*
X3698Y33847D1*
X3813D1*
X3890Y33885D1*
X3966Y33962D1*
X4990Y34497D2*
X5067Y34535D1*
X5182Y34650D1*
Y33847D1*
X5468Y34459D2*
Y34497D1*
X5506Y34573D1*
X5544Y34612D1*
X5621Y34650D1*
X5774D1*
X5850Y34612D1*
X5888Y34573D1*
X5927Y34497D1*
Y34420D1*
X5888Y34344D1*
X5812Y34229D1*
X5429Y33847D1*
X5965D1*
X6990Y34382D2*
Y33847D1*
Y34229D2*
X7105Y34344D1*
X7182Y34382D1*
X7296D1*
X7373Y34344D1*
X7411Y34229D1*
Y33847D1*
Y34229D2*
X7526Y34344D1*
X7603Y34382D1*
X7717D1*
X7794Y34344D1*
X7833Y34229D1*
Y33847D1*
X8080Y34650D2*
X8118Y34612D1*
X8156Y34650D1*
X8118Y34689D1*
X8080Y34650D1*
X8118Y34382D2*
Y33847D1*
X8403Y34650D2*
Y33847D1*
X643Y32693D2*
X987D1*
X1102Y32732D1*
X1141Y32770D1*
X1179Y32846D1*
Y32923D1*
X1141Y32999D1*
X1102Y33038D1*
X987Y33076D1*
X643D1*
Y32272D1*
X911Y32693D2*
X1179Y32272D1*
X1617Y32808D2*
X1541Y32770D1*
X1464Y32693D1*
X1426Y32578D1*
Y32502D1*
X1464Y32387D1*
X1541Y32311D1*
X1617Y32272D1*
X1732D1*
X1809Y32311D1*
X1885Y32387D1*
X1924Y32502D1*
Y32578D1*
X1885Y32693D1*
X1809Y32770D1*
X1732Y32808D1*
X1617D1*
X2171D2*
Y32425D1*
X2209Y32311D1*
X2286Y32272D1*
X2401D1*
X2477Y32311D1*
X2592Y32425D1*
Y32808D2*
Y32272D1*
X2839Y32808D2*
Y32272D1*
Y32655D2*
X2954Y32770D1*
X3031Y32808D1*
X3145D1*
X3222Y32770D1*
X3260Y32655D1*
Y32272D1*
X3966Y33076D2*
Y32272D1*
Y32693D2*
X3890Y32770D1*
X3813Y32808D1*
X3698D1*
X3622Y32770D1*
X3545Y32693D1*
X3507Y32578D1*
Y32502D1*
X3545Y32387D1*
X3622Y32311D1*
X3698Y32272D1*
X3813D1*
X3890Y32311D1*
X3966Y32387D1*
X5067Y33075D2*
X5487D1*
X5258Y32769D1*
X5373D1*
X5449Y32731D1*
X5487Y32693D1*
X5526Y32578D1*
Y32502D1*
X5487Y32387D1*
X5411Y32310D1*
X5296Y32272D1*
X5181D1*
X5067Y32310D1*
X5029Y32349D1*
X4990Y32425D1*
X6271Y32808D2*
X6232Y32693D1*
X6156Y32616D1*
X6041Y32578D1*
X6003D1*
X5888Y32616D1*
X5812Y32693D1*
X5773Y32808D1*
Y32846D1*
X5812Y32961D1*
X5888Y33037D1*
X6003Y33075D1*
X6041D1*
X6156Y33037D1*
X6232Y32961D1*
X6271Y32808D1*
Y32616D1*
X6232Y32425D1*
X6156Y32310D1*
X6041Y32272D1*
X5965D1*
X5850Y32310D1*
X5812Y32387D1*
X6556Y32349D2*
X6518Y32310D1*
X6556Y32272D1*
X6595Y32310D1*
X6556Y32349D1*
X7225Y32272D2*
Y33075D1*
X6842Y32540D1*
X7416D1*
X8441Y32808D2*
Y32272D1*
Y32655D2*
X8556Y32770D1*
X8633Y32808D1*
X8747D1*
X8824Y32770D1*
X8862Y32655D1*
Y32272D1*
Y32655D2*
X8977Y32770D1*
X9053Y32808D1*
X9168D1*
X9244Y32770D1*
X9283Y32655D1*
Y32272D1*
X9530Y33076D2*
X9568Y33038D1*
X9607Y33076D1*
X9568Y33115D1*
X9530Y33076D1*
X9568Y32808D2*
Y32272D1*
X9854Y33076D2*
Y32272D1*
X643Y31118D2*
X987D1*
X1102Y31157D1*
X1141Y31195D1*
X1179Y31271D1*
Y31348D1*
X1141Y31424D1*
X1102Y31463D1*
X987Y31501D1*
X643D1*
Y30697D1*
X911Y31118D2*
X1179Y30697D1*
X1617Y31233D2*
X1541Y31195D1*
X1464Y31118D1*
X1426Y31003D1*
Y30927D1*
X1464Y30812D1*
X1541Y30736D1*
X1617Y30697D1*
X1732D1*
X1809Y30736D1*
X1885Y30812D1*
X1924Y30927D1*
Y31003D1*
X1885Y31118D1*
X1809Y31195D1*
X1732Y31233D1*
X1617D1*
X2171D2*
Y30850D1*
X2209Y30736D1*
X2286Y30697D1*
X2401D1*
X2477Y30736D1*
X2592Y30850D1*
Y31233D2*
Y30697D1*
X2839Y31233D2*
Y30697D1*
Y31080D2*
X2954Y31195D1*
X3031Y31233D1*
X3145D1*
X3222Y31195D1*
X3260Y31080D1*
Y30697D1*
X3966Y31501D2*
Y30697D1*
Y31118D2*
X3890Y31195D1*
X3813Y31233D1*
X3698D1*
X3622Y31195D1*
X3545Y31118D1*
X3507Y31003D1*
Y30927D1*
X3545Y30812D1*
X3622Y30736D1*
X3698Y30697D1*
X3813D1*
X3890Y30736D1*
X3966Y30812D1*
X5373Y30697D2*
Y31500D1*
X4990Y30965D1*
X5564D1*
X5888Y31500D2*
X6308D1*
X6079Y31194D1*
X6194D1*
X6270Y31156D1*
X6308Y31118D1*
X6347Y31003D1*
Y30927D1*
X6308Y30812D1*
X6232Y30735D1*
X6117Y30697D1*
X6002D1*
X5888Y30735D1*
X5850Y30774D1*
X5811Y30850D1*
X6632Y30774D2*
X6594Y30735D1*
X6632Y30697D1*
X6671Y30735D1*
X6632Y30774D1*
X6995Y31500D2*
X7415D1*
X7186Y31194D1*
X7301D1*
X7377Y31156D1*
X7415Y31118D1*
X7454Y31003D1*
Y30927D1*
X7415Y30812D1*
X7339Y30735D1*
X7224Y30697D1*
X7109D1*
X6995Y30735D1*
X6957Y30774D1*
X6918Y30850D1*
X8479Y31233D2*
Y30697D1*
Y31080D2*
X8594Y31195D1*
X8671Y31233D1*
X8785D1*
X8862Y31195D1*
X8900Y31080D1*
Y30697D1*
Y31080D2*
X9015Y31195D1*
X9091Y31233D1*
X9206D1*
X9283Y31195D1*
X9321Y31080D1*
Y30697D1*
X9568Y31501D2*
X9606Y31463D1*
X9645Y31501D1*
X9606Y31540D1*
X9568Y31501D1*
X9606Y31233D2*
Y30697D1*
X9892Y31501D2*
Y30697D1*
X643Y29543D2*
X987D1*
X1102Y29582D1*
X1141Y29620D1*
X1179Y29696D1*
Y29773D1*
X1141Y29849D1*
X1102Y29888D1*
X987Y29926D1*
X643D1*
Y29122D1*
X911Y29543D2*
X1179Y29122D1*
X1617Y29658D2*
X1541Y29620D1*
X1464Y29543D1*
X1426Y29428D1*
Y29352D1*
X1464Y29237D1*
X1541Y29161D1*
X1617Y29122D1*
X1732D1*
X1809Y29161D1*
X1885Y29237D1*
X1924Y29352D1*
Y29428D1*
X1885Y29543D1*
X1809Y29620D1*
X1732Y29658D1*
X1617D1*
X2171D2*
Y29275D1*
X2209Y29161D1*
X2286Y29122D1*
X2401D1*
X2477Y29161D1*
X2592Y29275D1*
Y29658D2*
Y29122D1*
X2839Y29658D2*
Y29122D1*
Y29505D2*
X2954Y29620D1*
X3031Y29658D1*
X3145D1*
X3222Y29620D1*
X3260Y29505D1*
Y29122D1*
X3966Y29926D2*
Y29122D1*
Y29543D2*
X3890Y29620D1*
X3813Y29658D1*
X3698D1*
X3622Y29620D1*
X3545Y29543D1*
X3507Y29428D1*
Y29352D1*
X3545Y29237D1*
X3622Y29161D1*
X3698Y29122D1*
X3813D1*
X3890Y29161D1*
X3966Y29237D1*
X5373Y29122D2*
Y29925D1*
X4990Y29390D1*
X5564D1*
X6309Y29658D2*
X6270Y29543D1*
X6194Y29466D1*
X6079Y29428D1*
X6041D1*
X5926Y29466D1*
X5850Y29543D1*
X5811Y29658D1*
Y29696D1*
X5850Y29811D1*
X5926Y29887D1*
X6041Y29925D1*
X6079D1*
X6194Y29887D1*
X6270Y29811D1*
X6309Y29658D1*
Y29466D1*
X6270Y29275D1*
X6194Y29160D1*
X6079Y29122D1*
X6003D1*
X5888Y29160D1*
X5850Y29237D1*
X6594Y29199D2*
X6556Y29160D1*
X6594Y29122D1*
X6633Y29160D1*
X6594Y29199D1*
X6919Y29734D2*
Y29772D1*
X6957Y29849D1*
X6995Y29887D1*
X7072Y29925D1*
X7225D1*
X7301Y29887D1*
X7339Y29849D1*
X7378Y29772D1*
Y29696D1*
X7339Y29619D1*
X7263Y29505D1*
X6880Y29122D1*
X7416D1*
X8441Y29658D2*
Y29122D1*
Y29505D2*
X8556Y29620D1*
X8633Y29658D1*
X8747D1*
X8824Y29620D1*
X8862Y29505D1*
Y29122D1*
Y29505D2*
X8977Y29620D1*
X9053Y29658D1*
X9168D1*
X9244Y29620D1*
X9283Y29505D1*
Y29122D1*
X9530Y29926D2*
X9568Y29888D1*
X9607Y29926D1*
X9568Y29965D1*
X9530Y29926D1*
X9568Y29658D2*
Y29122D1*
X9854Y29926D2*
Y29122D1*
X643Y27968D2*
X987D1*
X1102Y28007D1*
X1141Y28045D1*
X1179Y28121D1*
Y28198D1*
X1141Y28274D1*
X1102Y28313D1*
X987Y28351D1*
X643D1*
Y27547D1*
X911Y27968D2*
X1179Y27547D1*
X1617Y28083D2*
X1541Y28045D1*
X1464Y27968D1*
X1426Y27853D1*
Y27777D1*
X1464Y27662D1*
X1541Y27586D1*
X1617Y27547D1*
X1732D1*
X1809Y27586D1*
X1885Y27662D1*
X1924Y27777D1*
Y27853D1*
X1885Y27968D1*
X1809Y28045D1*
X1732Y28083D1*
X1617D1*
X2171D2*
Y27700D1*
X2209Y27586D1*
X2286Y27547D1*
X2401D1*
X2477Y27586D1*
X2592Y27700D1*
Y28083D2*
Y27547D1*
X2839Y28083D2*
Y27547D1*
Y27930D2*
X2954Y28045D1*
X3031Y28083D1*
X3145D1*
X3222Y28045D1*
X3260Y27930D1*
Y27547D1*
X3966Y28351D2*
Y27547D1*
Y27968D2*
X3890Y28045D1*
X3813Y28083D1*
X3698D1*
X3622Y28045D1*
X3545Y27968D1*
X3507Y27853D1*
Y27777D1*
X3545Y27662D1*
X3622Y27586D1*
X3698Y27547D1*
X3813D1*
X3890Y27586D1*
X3966Y27662D1*
X5449Y28350D2*
X5067D1*
X5029Y28006D1*
X5067Y28044D1*
X5182Y28083D1*
X5296D1*
X5411Y28044D1*
X5488Y27968D1*
X5526Y27853D1*
Y27777D1*
X5488Y27662D1*
X5411Y27585D1*
X5296Y27547D1*
X5182D1*
X5067Y27585D1*
X5029Y27624D1*
X4990Y27700D1*
X5773Y28197D2*
X5850Y28236D1*
X5965Y28350D1*
Y27547D1*
X6250Y27624D2*
X6212Y27585D1*
X6250Y27547D1*
X6289Y27585D1*
X6250Y27624D1*
X6575Y28159D2*
Y28197D1*
X6613Y28274D1*
X6651Y28312D1*
X6728Y28350D1*
X6881D1*
X6957Y28312D1*
X6995Y28274D1*
X7034Y28197D1*
Y28121D1*
X6995Y28044D1*
X6919Y27930D1*
X6536Y27547D1*
X7072D1*
X8097Y28083D2*
Y27547D1*
Y27930D2*
X8212Y28045D1*
X8289Y28083D1*
X8403D1*
X8480Y28045D1*
X8518Y27930D1*
Y27547D1*
Y27930D2*
X8633Y28045D1*
X8709Y28083D1*
X8824D1*
X8900Y28045D1*
X8939Y27930D1*
Y27547D1*
X9186Y28351D2*
X9224Y28313D1*
X9263Y28351D1*
X9224Y28390D1*
X9186Y28351D1*
X9224Y28083D2*
Y27547D1*
X9510Y28351D2*
Y27547D1*
X15562Y36034D2*
X15524Y36110D1*
X15447Y36187D1*
X15371Y36225D1*
X15218D1*
X15141Y36187D1*
X15065Y36110D1*
X15026Y36034D1*
X14988Y35919D1*
Y35727D1*
X15026Y35613D1*
X15065Y35536D1*
X15141Y35460D1*
X15218Y35421D1*
X15371D1*
X15447Y35460D1*
X15524Y35536D1*
X15562Y35613D1*
X16000Y35957D2*
X15924Y35919D1*
X15847Y35842D1*
X15809Y35727D1*
Y35651D1*
X15847Y35536D1*
X15924Y35460D1*
X16000Y35421D1*
X16115D1*
X16192Y35460D1*
X16268Y35536D1*
X16307Y35651D1*
Y35727D1*
X16268Y35842D1*
X16192Y35919D1*
X16115Y35957D1*
X16000D1*
X16554D2*
Y35574D1*
X16592Y35460D1*
X16669Y35421D1*
X16784D1*
X16860Y35460D1*
X16975Y35574D1*
Y35957D2*
Y35421D1*
X17222Y35957D2*
Y35421D1*
Y35804D2*
X17337Y35919D1*
X17414Y35957D1*
X17528D1*
X17605Y35919D1*
X17643Y35804D1*
Y35421D1*
X18005Y36225D2*
Y35574D1*
X18043Y35460D1*
X18120Y35421D1*
X18196D1*
X17890Y35957D2*
X18158D1*
X14225Y34650D2*
X13843D1*
X13805Y34306D1*
X13843Y34344D1*
X13958Y34382D1*
X14072D1*
X14187Y34344D1*
X14264Y34268D1*
X14302Y34153D1*
Y34076D1*
X14264Y33962D1*
X14187Y33885D1*
X14072Y33847D1*
X13958D1*
X13843Y33885D1*
X13805Y33924D1*
X13766Y34000D1*
X14740Y34650D2*
X14626Y34612D1*
X14587Y34535D1*
Y34459D1*
X14626Y34382D1*
X14702Y34344D1*
X14855Y34306D1*
X14970Y34268D1*
X15046Y34191D1*
X15084Y34115D1*
Y34000D1*
X15046Y33924D1*
X15008Y33885D1*
X14893Y33847D1*
X14740D1*
X14626Y33885D1*
X14587Y33924D1*
X14549Y34000D1*
Y34115D1*
X14587Y34191D1*
X14664Y34268D1*
X14778Y34306D1*
X14931Y34344D1*
X15008Y34382D1*
X15046Y34459D1*
Y34535D1*
X15008Y34612D1*
X14893Y34650D1*
X14740D1*
X15484Y33847D2*
X15867Y34650D1*
X15331D1*
X13766Y32922D2*
X13843Y32961D1*
X13958Y33075D1*
Y32272D1*
X14435Y33075D2*
X14320Y33037D1*
X14243Y32922D1*
X14205Y32731D1*
Y32616D1*
X14243Y32425D1*
X14320Y32310D1*
X14435Y32272D1*
X14511D1*
X14626Y32310D1*
X14702Y32425D1*
X14741Y32616D1*
Y32731D1*
X14702Y32922D1*
X14626Y33037D1*
X14511Y33075D1*
X14435D1*
X14702Y32922D2*
X14243Y32425D1*
X13766Y31347D2*
X13843Y31386D1*
X13958Y31500D1*
Y30697D1*
X14664Y31500D2*
X14282D1*
X14244Y31156D1*
X14282Y31194D1*
X14397Y31233D1*
X14511D1*
X14626Y31194D1*
X14703Y31118D1*
X14741Y31003D1*
Y30927D1*
X14703Y30812D1*
X14626Y30735D1*
X14511Y30697D1*
X14397D1*
X14282Y30735D1*
X14244Y30774D1*
X14205Y30850D1*
X15027Y31309D2*
Y31347D1*
X15065Y31424D1*
X15103Y31462D1*
X15180Y31500D1*
X15333D1*
X15409Y31462D1*
X15447Y31424D1*
X15486Y31347D1*
Y31271D1*
X15447Y31194D1*
X15371Y31080D1*
X14988Y30697D1*
X15524D1*
X13843Y29925D2*
X14263D1*
X14034Y29619D1*
X14149D1*
X14225Y29581D1*
X14263Y29543D1*
X14302Y29428D1*
Y29352D1*
X14263Y29237D1*
X14187Y29160D1*
X14072Y29122D1*
X13957D1*
X13843Y29160D1*
X13805Y29199D1*
X13766Y29275D1*
X14149Y27547D2*
Y28350D1*
X13766Y27815D1*
X14340D1*
X1247Y-11262D2*
D47*
X625D1*
Y-12267D1*
Y-11741D2*
X1007D1*
X2130Y-11597D2*
Y-12267D1*
Y-11741D2*
X2035Y-11644D1*
X1939Y-11597D1*
X1796D1*
X1700Y-11644D1*
X1605Y-11741D1*
X1556Y-11884D1*
Y-11979D1*
X1605Y-12123D1*
X1700Y-12218D1*
X1796Y-12267D1*
X1939D1*
X2035Y-12218D1*
X2130Y-12123D1*
X2439Y-11262D2*
Y-12267D1*
Y-11741D2*
X2535Y-11644D1*
X2630Y-11597D1*
X2774D1*
X2869Y-11644D1*
X2965Y-11741D1*
X3012Y-11884D1*
Y-11979D1*
X2965Y-12123D1*
X2869Y-12218D1*
X2774Y-12267D1*
X2630D1*
X2535Y-12218D1*
X2439Y-12123D1*
X4963Y-11262D2*
Y-12267D1*
X4293Y-11262D1*
Y-12267D1*
X5511Y-11597D2*
X5415Y-11644D1*
X5319Y-11741D1*
X5272Y-11884D1*
Y-11979D1*
X5319Y-12123D1*
X5415Y-12218D1*
X5511Y-12267D1*
X5654D1*
X5750Y-12218D1*
X5845Y-12123D1*
X5894Y-11979D1*
Y-11884D1*
X5845Y-11741D1*
X5750Y-11644D1*
X5654Y-11597D1*
X5511D1*
X6347Y-11262D2*
Y-12076D1*
X6394Y-12218D1*
X6490Y-12267D1*
X6585D1*
X6203Y-11597D2*
X6538D1*
X6894Y-11884D2*
X7468D1*
Y-11788D1*
X7420Y-11692D1*
X7373Y-11644D1*
X7277Y-11597D1*
X7133D1*
X7038Y-11644D1*
X6942Y-11741D1*
X6894Y-11884D1*
Y-11979D1*
X6942Y-12123D1*
X7038Y-12218D1*
X7133Y-12267D1*
X7277D1*
X7373Y-12218D1*
X7468Y-12123D1*
X8303Y-11741D2*
X8255Y-11644D1*
X8112Y-11597D1*
X7968D1*
X7824Y-11644D1*
X7777Y-11741D1*
X7824Y-11836D1*
X7920Y-11884D1*
X8159Y-11932D1*
X8255Y-11979D1*
X8303Y-12076D1*
Y-12123D1*
X8255Y-12218D1*
X8112Y-12267D1*
X7968D1*
X7824Y-12218D1*
X7777Y-12123D1*
X8660Y-11597D2*
X8612Y-11646D1*
X8660Y-11693D1*
X8708Y-11646D1*
X8660Y-11597D1*
Y-12171D2*
X8612Y-12219D1*
X8660Y-12267D1*
X8708Y-12219D1*
X8660Y-12171D1*
X43568Y3506D2*
D12*
X43769D1*
Y3592D1*
X43759Y3621D1*
X43750Y3630D1*
X43731Y3640D1*
X43702D1*
X43683Y3630D1*
X43673Y3621D1*
X43664Y3592D1*
X43654Y3621D1*
X43644Y3630D1*
X43625Y3640D1*
X43606D1*
X43587Y3630D1*
X43577Y3621D1*
X43568Y3592D1*
Y3506D1*
X43664D2*
Y3592D1*
X43568Y3759D2*
X43577Y3740D1*
X43597Y3721D1*
X43616Y3711D1*
X43644Y3702D1*
X43692D1*
X43721Y3711D1*
X43740Y3721D1*
X43759Y3740D1*
X43769Y3759D1*
Y3797D1*
X43759Y3816D1*
X43740Y3835D1*
X43721Y3845D1*
X43692Y3854D1*
X43644D1*
X43616Y3845D1*
X43597Y3835D1*
X43577Y3816D1*
X43568Y3797D1*
Y3759D1*
X43769Y4069D2*
X43568Y3993D1*
X43769Y3916D1*
X43702Y3945D2*
Y4041D1*
X43664Y4131D2*
Y4217D1*
X43654Y4246D1*
X43644Y4256D1*
X43625Y4265D1*
X43606D1*
X43587Y4256D1*
X43577Y4246D1*
X43568Y4217D1*
Y4131D1*
X43769D1*
X43664Y4198D2*
X43769Y4265D1*
X43568Y4327D2*
X43769D1*
Y4394D1*
X43759Y4423D1*
X43740Y4442D1*
X43721Y4451D1*
X43692Y4461D1*
X43644D1*
X43616Y4451D1*
X43597Y4442D1*
X43577Y4423D1*
X43568Y4394D1*
Y4327D1*
Y4841D2*
Y4717D1*
X43769D1*
Y4841D1*
X43664Y4717D2*
Y4794D1*
X43568Y4903D2*
X43769D1*
Y4970D1*
X43759Y4999D1*
X43740Y5018D1*
X43721Y5028D1*
X43692Y5037D1*
X43644D1*
X43616Y5028D1*
X43597Y5018D1*
X43577Y4999D1*
X43568Y4970D1*
Y4903D1*
X43616Y5242D2*
X43597Y5233D1*
X43577Y5214D1*
X43568Y5195D1*
Y5156D1*
X43577Y5137D1*
X43597Y5118D1*
X43616Y5108D1*
X43644Y5099D1*
X43692D1*
X43721Y5108D1*
X43740Y5118D1*
X43759Y5137D1*
X43769Y5156D1*
Y5195D1*
X43759Y5214D1*
X43740Y5233D1*
X43721Y5242D1*
X43692D1*
Y5195D1*
X43568Y5428D2*
Y5304D1*
X43769D1*
Y5428D1*
X43664Y5304D2*
Y5381D1*
X40068Y17506D2*
X40269D1*
Y17592D1*
X40259Y17621D1*
X40250Y17630D1*
X40231Y17640D1*
X40202D1*
X40183Y17630D1*
X40173Y17621D1*
X40164Y17592D1*
X40154Y17621D1*
X40144Y17630D1*
X40125Y17640D1*
X40106D1*
X40087Y17630D1*
X40077Y17621D1*
X40068Y17592D1*
Y17506D1*
X40164D2*
Y17592D1*
X40068Y17759D2*
X40077Y17740D1*
X40097Y17721D1*
X40116Y17711D1*
X40144Y17702D1*
X40192D1*
X40221Y17711D1*
X40240Y17721D1*
X40259Y17740D1*
X40269Y17759D1*
Y17797D1*
X40259Y17816D1*
X40240Y17835D1*
X40221Y17845D1*
X40192Y17854D1*
X40144D1*
X40116Y17845D1*
X40097Y17835D1*
X40077Y17816D1*
X40068Y17797D1*
Y17759D1*
X40269Y18069D2*
X40068Y17993D1*
X40269Y17916D1*
X40202Y17945D2*
Y18041D1*
X40164Y18131D2*
Y18217D1*
X40154Y18246D1*
X40144Y18256D1*
X40125Y18265D1*
X40106D1*
X40087Y18256D1*
X40077Y18246D1*
X40068Y18217D1*
Y18131D1*
X40269D1*
X40164Y18198D2*
X40269Y18265D1*
X40068Y18327D2*
X40269D1*
Y18394D1*
X40259Y18423D1*
X40240Y18442D1*
X40221Y18451D1*
X40192Y18461D1*
X40144D1*
X40116Y18451D1*
X40097Y18442D1*
X40077Y18423D1*
X40068Y18394D1*
Y18327D1*
Y18841D2*
Y18717D1*
X40269D1*
Y18841D1*
X40164Y18717D2*
Y18794D1*
X40068Y18903D2*
X40269D1*
Y18970D1*
X40259Y18999D1*
X40240Y19018D1*
X40221Y19028D1*
X40192Y19037D1*
X40144D1*
X40116Y19028D1*
X40097Y19018D1*
X40077Y18999D1*
X40068Y18970D1*
Y18903D1*
X40116Y19242D2*
X40097Y19233D1*
X40077Y19214D1*
X40068Y19195D1*
Y19156D1*
X40077Y19137D1*
X40097Y19118D1*
X40116Y19108D1*
X40144Y19099D1*
X40192D1*
X40221Y19108D1*
X40240Y19118D1*
X40259Y19137D1*
X40269Y19156D1*
Y19195D1*
X40259Y19214D1*
X40240Y19233D1*
X40221Y19242D1*
X40192D1*
Y19195D1*
X40068Y19428D2*
Y19304D1*
X40269D1*
Y19428D1*
X40164Y19304D2*
Y19381D1*
X41068Y17506D2*
X41269D1*
Y17592D1*
X41259Y17621D1*
X41250Y17630D1*
X41231Y17640D1*
X41202D1*
X41183Y17630D1*
X41173Y17621D1*
X41164Y17592D1*
X41154Y17621D1*
X41144Y17630D1*
X41125Y17640D1*
X41106D1*
X41087Y17630D1*
X41077Y17621D1*
X41068Y17592D1*
Y17506D1*
X41164D2*
Y17592D1*
X41068Y17759D2*
X41077Y17740D1*
X41097Y17721D1*
X41116Y17711D1*
X41144Y17702D1*
X41192D1*
X41221Y17711D1*
X41240Y17721D1*
X41259Y17740D1*
X41269Y17759D1*
Y17797D1*
X41259Y17816D1*
X41240Y17835D1*
X41221Y17845D1*
X41192Y17854D1*
X41144D1*
X41116Y17845D1*
X41097Y17835D1*
X41077Y17816D1*
X41068Y17797D1*
Y17759D1*
X41269Y18069D2*
X41068Y17993D1*
X41269Y17916D1*
X41202Y17945D2*
Y18041D1*
X41164Y18131D2*
Y18217D1*
X41154Y18246D1*
X41144Y18256D1*
X41125Y18265D1*
X41106D1*
X41087Y18256D1*
X41077Y18246D1*
X41068Y18217D1*
Y18131D1*
X41269D1*
X41164Y18198D2*
X41269Y18265D1*
X41068Y18327D2*
X41269D1*
Y18394D1*
X41259Y18423D1*
X41240Y18442D1*
X41221Y18451D1*
X41192Y18461D1*
X41144D1*
X41116Y18451D1*
X41097Y18442D1*
X41077Y18423D1*
X41068Y18394D1*
Y18327D1*
Y18841D2*
Y18717D1*
X41269D1*
Y18841D1*
X41164Y18717D2*
Y18794D1*
X41068Y18903D2*
X41269D1*
Y18970D1*
X41259Y18999D1*
X41240Y19018D1*
X41221Y19028D1*
X41192Y19037D1*
X41144D1*
X41116Y19028D1*
X41097Y19018D1*
X41077Y18999D1*
X41068Y18970D1*
Y18903D1*
X41116Y19242D2*
X41097Y19233D1*
X41077Y19214D1*
X41068Y19195D1*
Y19156D1*
X41077Y19137D1*
X41097Y19118D1*
X41116Y19108D1*
X41144Y19099D1*
X41192D1*
X41221Y19108D1*
X41240Y19118D1*
X41259Y19137D1*
X41269Y19156D1*
Y19195D1*
X41259Y19214D1*
X41240Y19233D1*
X41221Y19242D1*
X41192D1*
Y19195D1*
X41068Y19428D2*
Y19304D1*
X41269D1*
Y19428D1*
X41164Y19304D2*
Y19381D1*
X42068Y17506D2*
X42269D1*
Y17592D1*
X42259Y17621D1*
X42250Y17630D1*
X42231Y17640D1*
X42202D1*
X42183Y17630D1*
X42173Y17621D1*
X42164Y17592D1*
X42154Y17621D1*
X42144Y17630D1*
X42125Y17640D1*
X42106D1*
X42087Y17630D1*
X42077Y17621D1*
X42068Y17592D1*
Y17506D1*
X42164D2*
Y17592D1*
X42068Y17759D2*
X42077Y17740D1*
X42097Y17721D1*
X42116Y17711D1*
X42144Y17702D1*
X42192D1*
X42221Y17711D1*
X42240Y17721D1*
X42259Y17740D1*
X42269Y17759D1*
Y17797D1*
X42259Y17816D1*
X42240Y17835D1*
X42221Y17845D1*
X42192Y17854D1*
X42144D1*
X42116Y17845D1*
X42097Y17835D1*
X42077Y17816D1*
X42068Y17797D1*
Y17759D1*
X42269Y18069D2*
X42068Y17993D1*
X42269Y17916D1*
X42202Y17945D2*
Y18041D1*
X42164Y18131D2*
Y18217D1*
X42154Y18246D1*
X42144Y18256D1*
X42125Y18265D1*
X42106D1*
X42087Y18256D1*
X42077Y18246D1*
X42068Y18217D1*
Y18131D1*
X42269D1*
X42164Y18198D2*
X42269Y18265D1*
X42068Y18327D2*
X42269D1*
Y18394D1*
X42259Y18423D1*
X42240Y18442D1*
X42221Y18451D1*
X42192Y18461D1*
X42144D1*
X42116Y18451D1*
X42097Y18442D1*
X42077Y18423D1*
X42068Y18394D1*
Y18327D1*
Y18841D2*
Y18717D1*
X42269D1*
Y18841D1*
X42164Y18717D2*
Y18794D1*
X42068Y18903D2*
X42269D1*
Y18970D1*
X42259Y18999D1*
X42240Y19018D1*
X42221Y19028D1*
X42192Y19037D1*
X42144D1*
X42116Y19028D1*
X42097Y19018D1*
X42077Y18999D1*
X42068Y18970D1*
Y18903D1*
X42116Y19242D2*
X42097Y19233D1*
X42077Y19214D1*
X42068Y19195D1*
Y19156D1*
X42077Y19137D1*
X42097Y19118D1*
X42116Y19108D1*
X42144Y19099D1*
X42192D1*
X42221Y19108D1*
X42240Y19118D1*
X42259Y19137D1*
X42269Y19156D1*
Y19195D1*
X42259Y19214D1*
X42240Y19233D1*
X42221Y19242D1*
X42192D1*
Y19195D1*
X42068Y19428D2*
Y19304D1*
X42269D1*
Y19428D1*
X42164Y19304D2*
Y19381D1*
X48256Y7432D2*
Y7231D1*
X48342D1*
X48371Y7241D1*
X48380Y7250D1*
X48390Y7269D1*
Y7298D1*
X48380Y7317D1*
X48371Y7327D1*
X48342Y7336D1*
X48371Y7346D1*
X48380Y7356D1*
X48390Y7375D1*
Y7394D1*
X48380Y7413D1*
X48371Y7423D1*
X48342Y7432D1*
X48256D1*
Y7336D2*
X48342D1*
X48509Y7432D2*
X48490Y7423D1*
X48471Y7403D1*
X48461Y7384D1*
X48452Y7356D1*
Y7308D1*
X48461Y7279D1*
X48471Y7260D1*
X48490Y7241D1*
X48509Y7231D1*
X48547D1*
X48566Y7241D1*
X48585Y7260D1*
X48595Y7279D1*
X48604Y7308D1*
Y7356D1*
X48595Y7384D1*
X48585Y7403D1*
X48566Y7423D1*
X48547Y7432D1*
X48509D1*
X48819Y7231D2*
X48743Y7432D1*
X48666Y7231D1*
X48695Y7298D2*
X48791D1*
X48881Y7336D2*
X48967D1*
X48996Y7346D1*
X49006Y7356D1*
X49015Y7375D1*
Y7394D1*
X49006Y7413D1*
X48996Y7423D1*
X48967Y7432D1*
X48881D1*
Y7231D1*
X48948Y7336D2*
X49015Y7231D1*
X49077Y7432D2*
Y7231D1*
X49144D1*
X49173Y7241D1*
X49192Y7260D1*
X49201Y7279D1*
X49211Y7308D1*
Y7356D1*
X49201Y7384D1*
X49192Y7403D1*
X49173Y7423D1*
X49144Y7432D1*
X49077D1*
X49591D2*
X49467D1*
Y7231D1*
X49591D1*
X49467Y7336D2*
X49544D1*
X49653Y7432D2*
Y7231D1*
X49720D1*
X49749Y7241D1*
X49768Y7260D1*
X49778Y7279D1*
X49787Y7308D1*
Y7356D1*
X49778Y7384D1*
X49768Y7403D1*
X49749Y7423D1*
X49720Y7432D1*
X49653D1*
X49992Y7384D2*
X49983Y7403D1*
X49964Y7423D1*
X49945Y7432D1*
X49906D1*
X49887Y7423D1*
X49868Y7403D1*
X49858Y7384D1*
X49849Y7356D1*
Y7308D1*
X49858Y7279D1*
X49868Y7260D1*
X49887Y7241D1*
X49906Y7231D1*
X49945D1*
X49964Y7241D1*
X49983Y7260D1*
X49992Y7279D1*
Y7308D1*
X49945D1*
X50178Y7432D2*
X50054D1*
Y7231D1*
X50178D1*
X50054Y7336D2*
X50131D1*
X25568Y12006D2*
X25769D1*
Y12092D1*
X25759Y12121D1*
X25750Y12130D1*
X25731Y12140D1*
X25702D1*
X25683Y12130D1*
X25673Y12121D1*
X25664Y12092D1*
X25654Y12121D1*
X25644Y12130D1*
X25625Y12140D1*
X25606D1*
X25587Y12130D1*
X25577Y12121D1*
X25568Y12092D1*
Y12006D1*
X25664D2*
Y12092D1*
X25568Y12259D2*
X25577Y12240D1*
X25597Y12221D1*
X25616Y12211D1*
X25644Y12202D1*
X25692D1*
X25721Y12211D1*
X25740Y12221D1*
X25759Y12240D1*
X25769Y12259D1*
Y12297D1*
X25759Y12316D1*
X25740Y12335D1*
X25721Y12345D1*
X25692Y12354D1*
X25644D1*
X25616Y12345D1*
X25597Y12335D1*
X25577Y12316D1*
X25568Y12297D1*
Y12259D1*
X25769Y12569D2*
X25568Y12493D1*
X25769Y12416D1*
X25702Y12445D2*
Y12541D1*
X25664Y12631D2*
Y12717D1*
X25654Y12746D1*
X25644Y12756D1*
X25625Y12765D1*
X25606D1*
X25587Y12756D1*
X25577Y12746D1*
X25568Y12717D1*
Y12631D1*
X25769D1*
X25664Y12698D2*
X25769Y12765D1*
X25568Y12827D2*
X25769D1*
Y12894D1*
X25759Y12923D1*
X25740Y12942D1*
X25721Y12951D1*
X25692Y12961D1*
X25644D1*
X25616Y12951D1*
X25597Y12942D1*
X25577Y12923D1*
X25568Y12894D1*
Y12827D1*
Y13341D2*
Y13217D1*
X25769D1*
Y13341D1*
X25664Y13217D2*
Y13294D1*
X25568Y13403D2*
X25769D1*
Y13470D1*
X25759Y13499D1*
X25740Y13518D1*
X25721Y13528D1*
X25692Y13537D1*
X25644D1*
X25616Y13528D1*
X25597Y13518D1*
X25577Y13499D1*
X25568Y13470D1*
Y13403D1*
X25616Y13742D2*
X25597Y13733D1*
X25577Y13714D1*
X25568Y13695D1*
Y13656D1*
X25577Y13637D1*
X25597Y13618D1*
X25616Y13608D1*
X25644Y13599D1*
X25692D1*
X25721Y13608D1*
X25740Y13618D1*
X25759Y13637D1*
X25769Y13656D1*
Y13695D1*
X25759Y13714D1*
X25740Y13733D1*
X25721Y13742D1*
X25692D1*
Y13695D1*
X25568Y13928D2*
Y13804D1*
X25769D1*
Y13928D1*
X25664Y13804D2*
Y13881D1*
X32519Y12006D2*
X32720D1*
Y12092D1*
X32710Y12121D1*
X32700Y12130D1*
X32681Y12140D1*
X32653D1*
X32633Y12130D1*
X32624Y12121D1*
X32614Y12092D1*
X32605Y12121D1*
X32595Y12130D1*
X32576Y12140D1*
X32557D1*
X32538Y12130D1*
X32528Y12121D1*
X32519Y12092D1*
Y12006D1*
X32614D2*
Y12092D1*
X32519Y12259D2*
X32528Y12240D1*
X32547Y12221D1*
X32566Y12211D1*
X32595Y12202D1*
X32643D1*
X32672Y12211D1*
X32691Y12221D1*
X32710Y12240D1*
X32720Y12259D1*
Y12297D1*
X32710Y12316D1*
X32691Y12336D1*
X32672Y12345D1*
X32643Y12355D1*
X32595D1*
X32566Y12345D1*
X32547Y12336D1*
X32528Y12316D1*
X32519Y12297D1*
Y12259D1*
X32720Y12570D2*
X32519Y12493D1*
X32720Y12416D1*
X32653Y12445D2*
Y12541D1*
X32614Y12631D2*
Y12717D1*
X32605Y12746D1*
X32595Y12756D1*
X32576Y12765D1*
X32557D1*
X32538Y12756D1*
X32528Y12746D1*
X32519Y12717D1*
Y12631D1*
X32720D1*
X32614Y12698D2*
X32720Y12765D1*
X32519Y12827D2*
X32720D1*
Y12894D1*
X32710Y12923D1*
X32691Y12942D1*
X32672Y12952D1*
X32643Y12961D1*
X32595D1*
X32566Y12952D1*
X32547Y12942D1*
X32528Y12923D1*
X32519Y12894D1*
Y12827D1*
Y13341D2*
Y13217D1*
X32720D1*
Y13341D1*
X32614Y13217D2*
Y13294D1*
X32519Y13403D2*
X32720D1*
Y13470D1*
X32710Y13499D1*
X32691Y13518D1*
X32672Y13528D1*
X32643Y13537D1*
X32595D1*
X32566Y13528D1*
X32547Y13518D1*
X32528Y13499D1*
X32519Y13470D1*
Y13403D1*
X32566Y13742D2*
X32547Y13733D1*
X32528Y13714D1*
X32519Y13695D1*
Y13656D1*
X32528Y13637D1*
X32547Y13618D1*
X32566Y13608D1*
X32595Y13599D1*
X32643D1*
X32672Y13608D1*
X32691Y13618D1*
X32710Y13637D1*
X32720Y13656D1*
Y13695D1*
X32710Y13714D1*
X32691Y13733D1*
X32672Y13742D1*
X32643D1*
Y13695D1*
X32519Y13928D2*
Y13804D1*
X32720D1*
Y13928D1*
X32614Y13804D2*
Y13881D1*
X27519Y12006D2*
X27720D1*
Y12092D1*
X27710Y12121D1*
X27700Y12130D1*
X27681Y12140D1*
X27653D1*
X27633Y12130D1*
X27624Y12121D1*
X27614Y12092D1*
X27605Y12121D1*
X27595Y12130D1*
X27576Y12140D1*
X27557D1*
X27538Y12130D1*
X27528Y12121D1*
X27519Y12092D1*
Y12006D1*
X27614D2*
Y12092D1*
X27519Y12259D2*
X27528Y12240D1*
X27547Y12221D1*
X27566Y12211D1*
X27595Y12202D1*
X27643D1*
X27672Y12211D1*
X27691Y12221D1*
X27710Y12240D1*
X27720Y12259D1*
Y12297D1*
X27710Y12316D1*
X27691Y12336D1*
X27672Y12345D1*
X27643Y12355D1*
X27595D1*
X27566Y12345D1*
X27547Y12336D1*
X27528Y12316D1*
X27519Y12297D1*
Y12259D1*
X27720Y12570D2*
X27519Y12493D1*
X27720Y12416D1*
X27653Y12445D2*
Y12541D1*
X27614Y12631D2*
Y12717D1*
X27605Y12746D1*
X27595Y12756D1*
X27576Y12765D1*
X27557D1*
X27538Y12756D1*
X27528Y12746D1*
X27519Y12717D1*
Y12631D1*
X27720D1*
X27614Y12698D2*
X27720Y12765D1*
X27519Y12827D2*
X27720D1*
Y12894D1*
X27710Y12923D1*
X27691Y12942D1*
X27672Y12952D1*
X27643Y12961D1*
X27595D1*
X27566Y12952D1*
X27547Y12942D1*
X27528Y12923D1*
X27519Y12894D1*
Y12827D1*
Y13341D2*
Y13217D1*
X27720D1*
Y13341D1*
X27614Y13217D2*
Y13294D1*
X27519Y13403D2*
X27720D1*
Y13470D1*
X27710Y13499D1*
X27691Y13518D1*
X27672Y13528D1*
X27643Y13537D1*
X27595D1*
X27566Y13528D1*
X27547Y13518D1*
X27528Y13499D1*
X27519Y13470D1*
Y13403D1*
X27566Y13742D2*
X27547Y13733D1*
X27528Y13714D1*
X27519Y13695D1*
Y13656D1*
X27528Y13637D1*
X27547Y13618D1*
X27566Y13608D1*
X27595Y13599D1*
X27643D1*
X27672Y13608D1*
X27691Y13618D1*
X27710Y13637D1*
X27720Y13656D1*
Y13695D1*
X27710Y13714D1*
X27691Y13733D1*
X27672Y13742D1*
X27643D1*
Y13695D1*
X27519Y13928D2*
Y13804D1*
X27720D1*
Y13928D1*
X27614Y13804D2*
Y13881D1*
X32265Y5432D2*
Y5231D1*
X32352D1*
X32380Y5241D1*
X32390Y5250D1*
X32399Y5269D1*
Y5298D1*
X32390Y5317D1*
X32380Y5327D1*
X32352Y5336D1*
X32380Y5346D1*
X32390Y5356D1*
X32399Y5375D1*
Y5394D1*
X32390Y5413D1*
X32380Y5423D1*
X32352Y5432D1*
X32265D1*
Y5336D2*
X32352D1*
X32519Y5432D2*
X32499Y5423D1*
X32480Y5403D1*
X32471Y5384D1*
X32461Y5356D1*
Y5308D1*
X32471Y5279D1*
X32480Y5260D1*
X32499Y5241D1*
X32519Y5231D1*
X32557D1*
X32576Y5241D1*
X32595Y5260D1*
X32605Y5279D1*
X32614Y5308D1*
Y5356D1*
X32605Y5384D1*
X32595Y5403D1*
X32576Y5423D1*
X32557Y5432D1*
X32519D1*
X32829Y5231D2*
X32752Y5432D1*
X32676Y5231D1*
X32705Y5298D2*
X32800D1*
X32891Y5336D2*
X32977D1*
X33005Y5346D1*
X33015Y5356D1*
X33025Y5375D1*
Y5394D1*
X33015Y5413D1*
X33005Y5423D1*
X32977Y5432D1*
X32891D1*
Y5231D1*
X32958Y5336D2*
X33025Y5231D1*
X33086Y5432D2*
Y5231D1*
X33153D1*
X33182Y5241D1*
X33201Y5260D1*
X33211Y5279D1*
X33220Y5308D1*
Y5356D1*
X33211Y5384D1*
X33201Y5403D1*
X33182Y5423D1*
X33153Y5432D1*
X33086D1*
X33601D2*
X33477D1*
Y5231D1*
X33601D1*
X33477Y5336D2*
X33553D1*
X33663Y5432D2*
Y5231D1*
X33730D1*
X33758Y5241D1*
X33778Y5260D1*
X33787Y5279D1*
X33797Y5308D1*
Y5356D1*
X33787Y5384D1*
X33778Y5403D1*
X33758Y5423D1*
X33730Y5432D1*
X33663D1*
X34002Y5384D2*
X33992Y5403D1*
X33973Y5423D1*
X33954Y5432D1*
X33916D1*
X33897Y5423D1*
X33878Y5403D1*
X33868Y5384D1*
X33858Y5356D1*
Y5308D1*
X33868Y5279D1*
X33878Y5260D1*
X33897Y5241D1*
X33916Y5231D1*
X33954D1*
X33973Y5241D1*
X33992Y5260D1*
X34002Y5279D1*
Y5308D1*
X33954D1*
X34188Y5432D2*
X34064D1*
Y5231D1*
X34188D1*
X34064Y5336D2*
X34140D1*
M02*
