G04 DipTrace 2.4.0.2*
%INTopMask.gbr*%
%MOIN*%
%ADD36C,0.1*%
%ADD40R,0.0709X0.0709*%
%ADD41C,0.0709*%
%ADD49R,0.0748X0.0748*%
%ADD50C,0.0748*%
%ADD63R,0.0237X0.0631*%
%ADD65R,0.0316X0.0867*%
%ADD67R,0.0493X0.0336*%
%ADD69R,0.071X0.0198*%
%ADD72R,0.0789X0.134*%
%ADD74C,0.0828*%
%ADD75R,0.0828X0.0828*%
%ADD76R,0.0336X0.0493*%
%ADD78R,0.1033X0.2182*%
%ADD80O,0.0828X0.1064*%
%ADD82R,0.0828X0.1064*%
%ADD86C,0.0789*%
%ADD87R,0.0789X0.0789*%
%ADD89C,0.058*%
%ADD91R,0.0631X0.071*%
%ADD93R,0.071X0.0631*%
%ADD95R,0.0907X0.0631*%
%ADD97R,0.0631X0.0907*%
%ADD99R,0.1143X0.071*%
%ADD101R,0.0671X0.0592*%
%ADD103R,0.0474X0.0513*%
%ADD105R,0.071X0.1143*%
%ADD107R,0.0592X0.0671*%
%ADD109R,0.0513X0.0474*%
%FSLAX44Y44*%
G04*
G70*
G90*
G75*
G01*
%LNTopMask*%
%LPD*%
D109*
X17812Y6063D3*
X18482D3*
X18500Y4937D3*
X17831D3*
D107*
X14171Y4812D3*
X14919D3*
D105*
X22250Y7500D3*
X21148D3*
X22250Y12437D3*
X21148D3*
D107*
X17812Y7625D3*
X18561D3*
D103*
X16686Y4749D3*
Y5419D3*
D101*
X13125Y13438D3*
Y14186D3*
D99*
X14500Y11250D3*
Y10148D3*
X15821Y11239D3*
Y10136D3*
X16000Y15438D3*
Y16540D3*
X17500Y15438D3*
Y16540D3*
D101*
X17187Y13437D3*
Y12689D3*
D103*
X46750Y8750D3*
Y9419D3*
D101*
X51500Y3250D3*
Y3998D3*
D103*
X47500Y14500D3*
Y13831D3*
X51750Y8750D3*
Y9419D3*
X51000Y14500D3*
Y13831D3*
D101*
X46500Y3752D3*
Y4500D3*
X49000Y3250D3*
Y3998D3*
X49250Y14500D3*
Y13752D3*
Y9250D3*
Y8502D3*
X29750Y15750D3*
Y16498D3*
D99*
X31500Y9500D3*
Y10602D3*
X30000Y9500D3*
Y10602D3*
X3000Y12500D3*
Y11398D3*
D107*
X33002Y6250D3*
X33750D3*
D97*
X14375Y8625D3*
X16107D3*
D95*
X14437Y12562D3*
Y14295D3*
D97*
X12946Y15509D3*
X14679D3*
D93*
X7972Y10403D3*
Y9222D3*
X9937Y9187D3*
Y10369D3*
D95*
X17187Y9812D3*
Y11545D3*
X15937Y12563D3*
Y14295D3*
D91*
X29319Y6500D3*
X30500D3*
D95*
X1750Y12750D3*
Y11018D3*
X4312Y12750D3*
Y11018D3*
D103*
X22272Y5790D3*
Y6460D3*
D109*
X49169Y2250D3*
X48500D3*
X26331Y9500D3*
X27000D3*
D36*
X35500Y20000D3*
D89*
D3*
D36*
X8500Y1000D3*
D89*
D3*
D49*
X11000D3*
D50*
X12000D3*
X13000D3*
X14000D3*
X15000D3*
X16000D3*
X17000D3*
X18000D3*
D49*
X9400Y20000D3*
D50*
X10400D3*
X11400D3*
X12400D3*
X13400D3*
X14400D3*
X15400D3*
X16400D3*
D49*
X38000D3*
D50*
X37000D3*
X38000Y19000D3*
X37000D3*
X38000Y18000D3*
X37000D3*
X38000Y17000D3*
X37000D3*
X38000Y16000D3*
X37000D3*
X38000Y15000D3*
X37000D3*
X38000Y14000D3*
X37000D3*
X38000Y13000D3*
X37000D3*
X38000Y12000D3*
X37000D3*
X38000Y11000D3*
X37000D3*
X38000Y10000D3*
X37000D3*
X38000Y9000D3*
X37000D3*
X38000Y8000D3*
X37000D3*
X38000Y7000D3*
X37000D3*
X38000Y6000D3*
X37000D3*
X38000Y5000D3*
X37000D3*
X38000Y4000D3*
X37000D3*
X38000Y3000D3*
X37000D3*
D49*
X20000Y1000D3*
D50*
X21000D3*
X22000D3*
X23000D3*
X24000D3*
X25000D3*
X26000D3*
X27000D3*
D49*
X18000Y20000D3*
D50*
X19000D3*
X20000D3*
X21000D3*
X22000D3*
X23000D3*
X24000D3*
X25000D3*
D49*
X42000Y10000D3*
D50*
X41000D3*
X42000Y11000D3*
X41000D3*
X42000Y12000D3*
X41000D3*
X42000Y13000D3*
X41000D3*
X42000Y14000D3*
X41000D3*
D49*
X29000Y1000D3*
D50*
X30000D3*
X31000D3*
X32000D3*
X33000D3*
X34000D3*
X35000D3*
X36000D3*
D49*
X27000Y20000D3*
D50*
X28000D3*
X29000D3*
X30000D3*
X31000D3*
X32000D3*
X33000D3*
X34000D3*
D49*
X42000Y3000D3*
D50*
X41000D3*
X42000Y4000D3*
X41000D3*
X42000Y5000D3*
X41000D3*
X42000Y6000D3*
X41000D3*
X42000Y7000D3*
X41000D3*
D49*
X44500Y3000D3*
D50*
Y4000D3*
Y5000D3*
Y6000D3*
D49*
X41000Y17000D3*
D50*
Y18000D3*
Y19000D3*
Y20000D3*
D49*
X42000Y17000D3*
D50*
Y18000D3*
Y19000D3*
Y20000D3*
D49*
X43000Y17000D3*
D50*
Y18000D3*
Y19000D3*
Y20000D3*
D87*
X7937Y13875D3*
D86*
X8937D3*
X9937D3*
D40*
X46000Y17000D3*
D41*
Y17984D3*
Y18969D3*
D40*
X50500Y17000D3*
D41*
Y17984D3*
Y18969D3*
D49*
X47750Y6500D3*
D50*
X48750D3*
X49750D3*
X50750D3*
D49*
X26500Y11500D3*
D50*
Y12500D3*
Y13500D3*
Y14500D3*
D49*
X33500Y9500D3*
D50*
Y10500D3*
Y11500D3*
Y12500D3*
Y13500D3*
Y14500D3*
Y15500D3*
Y16500D3*
D49*
X28500Y9500D3*
D50*
Y10500D3*
Y11500D3*
Y12500D3*
Y13500D3*
Y14500D3*
Y15500D3*
Y16500D3*
D40*
X27000Y4500D3*
D41*
X26016D3*
D40*
X30500D3*
D41*
X29516D3*
D82*
X4500Y18250D3*
D80*
X3500D3*
X2500D3*
X1500D3*
D49*
X32750Y4500D3*
D50*
X33750D3*
D78*
X22437Y10000D3*
X19587D3*
D76*
X27171Y7077D3*
X26423D3*
X26797Y6171D3*
D75*
X2000Y7500D3*
D74*
Y8500D3*
Y9500D3*
D75*
X4250Y7500D3*
D74*
Y8500D3*
Y9500D3*
D109*
X14250Y5562D3*
X14919D3*
X18500Y5500D3*
X17831D3*
X13187Y5937D3*
X12518D3*
X17812Y7000D3*
X18482D3*
X13187Y6437D3*
X12518D3*
X13187Y6937D3*
X12518D3*
D103*
X16125Y4750D3*
Y5419D3*
X7978Y11960D3*
Y11290D3*
X9960Y11960D3*
Y11290D3*
D72*
X10040Y16273D3*
X7835D3*
D109*
X50750Y2250D3*
X50081D3*
D103*
X47500Y8750D3*
Y9419D3*
X46000Y9500D3*
Y8831D3*
X46750Y13750D3*
Y14419D3*
X48250Y8750D3*
Y9419D3*
Y14500D3*
Y13831D3*
X51000Y8750D3*
Y9419D3*
X52500Y9498D3*
Y8829D3*
X51750Y13750D3*
Y14419D3*
X50250Y8750D3*
Y9419D3*
Y14500D3*
Y13831D3*
D109*
X46750Y12000D3*
X46081D3*
X46250Y11250D3*
X46919D3*
D103*
X30665Y16335D3*
Y15665D3*
D109*
X30500Y11750D3*
X29831D3*
X30500Y12750D3*
X29831D3*
X30500Y13750D3*
X29831D3*
X31250Y11750D3*
X31919D3*
X31250Y12750D3*
X31919D3*
X31250Y13750D3*
X31919D3*
X26415Y7835D3*
X27085D3*
D103*
X28335Y7085D3*
Y6415D3*
X25500Y7000D3*
Y6331D3*
X2000Y5250D3*
Y5919D3*
X4250Y5250D3*
Y5919D3*
D109*
X33000Y7250D3*
X33669D3*
D103*
X2750Y5250D3*
Y5919D3*
X3500Y5250D3*
Y5919D3*
D69*
X16124Y6374D3*
Y6571D3*
Y6768D3*
Y6965D3*
Y7162D3*
Y7359D3*
Y7556D3*
Y7752D3*
X14391D3*
Y7556D3*
Y7359D3*
Y7162D3*
Y6965D3*
Y6768D3*
Y6571D3*
Y6374D3*
D105*
X15258Y7063D3*
D67*
X50750Y3250D3*
Y3998D3*
X49844Y3624D3*
D65*
X47750Y10500D3*
X48250D3*
X48750D3*
X49250D3*
X49750D3*
X50250D3*
X50750D3*
Y12626D3*
X50250D3*
X49750D3*
X49250D3*
X48750D3*
X48250D3*
X47750D3*
D63*
X47250Y3250D3*
X47506D3*
X47762D3*
X48018D3*
Y4982D3*
X47762D3*
X47506D3*
X47250D3*
M02*
