G04 DipTrace 2.4.0.2*
%INTopPaste.gbr*%
%MOIN*%
%ADD64R,0.0077X0.0471*%
%ADD66R,0.0156X0.0707*%
%ADD68R,0.0333X0.0176*%
%ADD70R,0.055X0.0038*%
%ADD73R,0.0629X0.118*%
%ADD77R,0.0176X0.0333*%
%ADD79R,0.0873X0.2022*%
%ADD92R,0.0471X0.055*%
%ADD94R,0.055X0.0471*%
%ADD96R,0.0747X0.0471*%
%ADD98R,0.0471X0.0747*%
%ADD100R,0.0983X0.055*%
%ADD102R,0.0511X0.0432*%
%ADD104R,0.0314X0.0353*%
%ADD106R,0.055X0.0983*%
%ADD108R,0.0432X0.0511*%
%ADD110R,0.0353X0.0314*%
%FSLAX44Y44*%
G04*
G70*
G90*
G75*
G01*
%LNTopPaste*%
%LPD*%
D110*
X17812Y6063D3*
X18482D3*
X18500Y4937D3*
X17831D3*
D108*
X14171Y4812D3*
X14919D3*
D106*
X22250Y7500D3*
X21148D3*
X22250Y12437D3*
X21148D3*
D108*
X17812Y7625D3*
X18561D3*
D104*
X16686Y4749D3*
Y5419D3*
D102*
X13125Y13438D3*
Y14186D3*
D100*
X14500Y11250D3*
Y10148D3*
X15821Y11239D3*
Y10136D3*
X16000Y15438D3*
Y16540D3*
X17500Y15438D3*
Y16540D3*
D102*
X17187Y13437D3*
Y12689D3*
D104*
X46750Y8750D3*
Y9419D3*
D102*
X51500Y3250D3*
Y3998D3*
D104*
X47500Y14500D3*
Y13831D3*
X51750Y8750D3*
Y9419D3*
X51000Y14500D3*
Y13831D3*
D102*
X46500Y3752D3*
Y4500D3*
X49000Y3250D3*
Y3998D3*
X49250Y14500D3*
Y13752D3*
Y9250D3*
Y8502D3*
X29750Y15750D3*
Y16498D3*
D100*
X31500Y9500D3*
Y10602D3*
X30000Y9500D3*
Y10602D3*
X3000Y12500D3*
Y11398D3*
D108*
X33002Y6250D3*
X33750D3*
D98*
X14375Y8625D3*
X16107D3*
D96*
X14437Y12562D3*
Y14295D3*
D98*
X12946Y15509D3*
X14679D3*
D94*
X7972Y10403D3*
Y9222D3*
X9937Y9187D3*
Y10369D3*
D96*
X17187Y9812D3*
Y11545D3*
X15937Y12563D3*
Y14295D3*
D92*
X29319Y6500D3*
X30500D3*
D96*
X1750Y12750D3*
Y11018D3*
X4312Y12750D3*
Y11018D3*
D104*
X22272Y5790D3*
Y6460D3*
D110*
X49169Y2250D3*
X48500D3*
X26331Y9500D3*
X27000D3*
D79*
X22437Y10000D3*
X19587D3*
D77*
X27171Y7077D3*
X26423D3*
X26797Y6171D3*
D110*
X14250Y5562D3*
X14919D3*
X18500Y5500D3*
X17831D3*
X13187Y5937D3*
X12518D3*
X17812Y7000D3*
X18482D3*
X13187Y6437D3*
X12518D3*
X13187Y6937D3*
X12518D3*
D104*
X16125Y4750D3*
Y5419D3*
X7978Y11960D3*
Y11290D3*
X9960Y11960D3*
Y11290D3*
D73*
X10040Y16273D3*
X7835D3*
D110*
X50750Y2250D3*
X50081D3*
D104*
X47500Y8750D3*
Y9419D3*
X46000Y9500D3*
Y8831D3*
X46750Y13750D3*
Y14419D3*
X48250Y8750D3*
Y9419D3*
Y14500D3*
Y13831D3*
X51000Y8750D3*
Y9419D3*
X52500Y9498D3*
Y8829D3*
X51750Y13750D3*
Y14419D3*
X50250Y8750D3*
Y9419D3*
Y14500D3*
Y13831D3*
D110*
X46750Y12000D3*
X46081D3*
X46250Y11250D3*
X46919D3*
D104*
X30665Y16335D3*
Y15665D3*
D110*
X30500Y11750D3*
X29831D3*
X30500Y12750D3*
X29831D3*
X30500Y13750D3*
X29831D3*
X31250Y11750D3*
X31919D3*
X31250Y12750D3*
X31919D3*
X31250Y13750D3*
X31919D3*
X26415Y7835D3*
X27085D3*
D104*
X28335Y7085D3*
Y6415D3*
X25500Y7000D3*
Y6331D3*
X2000Y5250D3*
Y5919D3*
X4250Y5250D3*
Y5919D3*
D110*
X33000Y7250D3*
X33669D3*
D104*
X2750Y5250D3*
Y5919D3*
X3500Y5250D3*
Y5919D3*
D70*
X16124Y6374D3*
Y6571D3*
Y6768D3*
Y6965D3*
Y7162D3*
Y7359D3*
Y7556D3*
Y7752D3*
X14391D3*
Y7556D3*
Y7359D3*
Y7162D3*
Y6965D3*
Y6768D3*
Y6571D3*
Y6374D3*
D106*
X15258Y7063D3*
D68*
X50750Y3250D3*
Y3998D3*
X49844Y3624D3*
D66*
X47750Y10500D3*
X48250D3*
X48750D3*
X49250D3*
X49750D3*
X50250D3*
X50750D3*
Y12626D3*
X50250D3*
X49750D3*
X49250D3*
X48750D3*
X48250D3*
X47750D3*
D64*
X47250Y3250D3*
X47506D3*
X47762D3*
X48018D3*
Y4982D3*
X47762D3*
X47506D3*
X47250D3*
M02*
