G04 DipTrace 2.4.0.2*
%INTopSilk.gbr*%
%MOIN*%
%ADD10C,0.0098*%
%ADD12C,0.003*%
%ADD24C,0.0013*%
%ADD31C,0.0236*%
%ADD47C,0.0154*%
%ADD111C,0.0046*%
%FSLAX44Y44*%
G04*
G70*
G90*
G75*
G01*
%LNTopSilk*%
%LPD*%
X13757Y4557D2*
D10*
Y5068D1*
X21742Y7992D2*
Y7008D1*
X21817Y7992D2*
Y7008D1*
Y7992D2*
X21581D1*
X21817Y7008D2*
X21581D1*
X21742Y12930D2*
Y11945D1*
X21817Y12930D2*
Y11945D1*
Y12930D2*
X21581D1*
X21817Y11945D2*
X21581D1*
X17399Y7369D2*
Y7881D1*
X13381Y13024D2*
X12869D1*
X14008Y10742D2*
X14992D1*
X14008Y10817D2*
X14992D1*
X14008D2*
Y10581D1*
X14992Y10817D2*
Y10581D1*
X15329Y10731D2*
X16313D1*
X15329Y10805D2*
X16313D1*
X15329D2*
Y10570D1*
X16313Y10805D2*
Y10570D1*
X16492Y15945D2*
X15508D1*
X16492Y15871D2*
X15508D1*
X16492D2*
Y16106D1*
X15508Y15871D2*
Y16106D1*
X17992Y15945D2*
X17008D1*
X17992Y15871D2*
X17008D1*
X17992D2*
Y16106D1*
X17008Y15871D2*
Y16106D1*
X16932Y13851D2*
X17443D1*
X51756Y2836D2*
X51244D1*
X46756Y3338D2*
X46244D1*
X49256Y2836D2*
X48744D1*
X48994Y14914D2*
X49506D1*
X48994Y9664D2*
X49506D1*
X30006Y15336D2*
X29494D1*
X31992Y10008D2*
X31008D1*
X31992Y9933D2*
X31008D1*
X31992D2*
Y10169D1*
X31008Y9933D2*
Y10169D1*
X30492Y10008D2*
X29508D1*
X30492Y9933D2*
X29508D1*
X30492D2*
Y10169D1*
X29508Y9933D2*
Y10169D1*
X2508Y11992D2*
X3492D1*
X2508Y12067D2*
X3492D1*
X2508D2*
Y11831D1*
X3492Y12067D2*
Y11831D1*
X32588Y5994D2*
Y6506D1*
D31*
X13804Y8625D3*
X14769Y9137D2*
D10*
X15713D1*
X14769Y8113D2*
X15713D1*
D31*
X14437Y11992D3*
X13926Y12956D2*
D10*
Y13901D1*
X14949Y12956D2*
Y13901D1*
D31*
X12375Y15509D3*
X13340Y16021D2*
D10*
X14285D1*
X13340Y14997D2*
X14285D1*
X7696Y8769D2*
X8248D1*
X7677Y9714D2*
Y9911D1*
X8267Y9714D2*
Y9911D1*
X10213Y10821D2*
X9662D1*
X10233Y9877D2*
Y9680D1*
X9642Y9877D2*
Y9680D1*
D31*
X17187Y9242D3*
X16676Y10206D2*
D10*
Y11151D1*
X17699Y10206D2*
Y11151D1*
D31*
X15937Y11992D3*
X15426Y12956D2*
D10*
Y13901D1*
X16449Y12956D2*
Y13901D1*
X30953Y6224D2*
Y6776D1*
X30008Y6205D2*
X29811D1*
X30008Y6795D2*
X29811D1*
D31*
X1750Y13321D3*
X2262Y12356D2*
D10*
Y11412D1*
X1238Y12356D2*
Y11412D1*
D31*
X4312Y13321D3*
X4824Y12356D2*
D10*
Y11412D1*
X3801Y12356D2*
Y11412D1*
X40500Y9500D2*
X42500D1*
Y14500D1*
X40500D1*
Y9500D1*
Y2500D2*
X42500D1*
Y7500D1*
X40500D1*
Y2500D1*
X44000D2*
X45000D1*
Y6500D1*
X44000D1*
Y2500D1*
X40500Y16500D2*
X41500D1*
Y20500D1*
X40500D1*
Y16500D1*
X41500D2*
X42500D1*
Y20500D1*
X41500D1*
Y16500D1*
X42500D2*
X43500D1*
Y20500D1*
X42500D1*
Y16500D1*
X7437Y15009D2*
X10437D1*
X7437Y12725D2*
X10437D1*
X7437D2*
Y15009D1*
X10437Y12725D2*
Y15009D1*
X7437Y14615D2*
X10437D1*
X46925Y16016D2*
Y19953D1*
X44661Y16016D2*
X46000D1*
X44661Y19953D2*
X46000D1*
Y16016D2*
X46925D1*
X44661D2*
Y19953D1*
X46925D2*
X46000D1*
X51425Y16016D2*
Y19953D1*
X49161Y16016D2*
X50500D1*
X49161Y19953D2*
X50500D1*
Y16016D2*
X51425D1*
X49161D2*
Y19953D1*
X51425D2*
X50500D1*
X47250Y7000D2*
X51250D1*
Y6000D1*
X47250D1*
Y7000D1*
X26000Y11000D2*
X27000D1*
Y15000D1*
X26000D1*
Y11000D1*
X33000Y9000D2*
X34000D1*
Y17000D1*
X33000D1*
Y9000D1*
X28000D2*
X29000D1*
Y17000D1*
X28000D1*
Y9000D1*
X27846Y5425D2*
X25169D1*
X27846Y3043D2*
Y4500D1*
X25169Y3043D2*
Y4500D1*
X27846D2*
Y5425D1*
Y3043D2*
X25169D1*
Y5425D2*
Y4500D1*
X31346Y5425D2*
X28669D1*
X31346Y3043D2*
Y4500D1*
X28669Y3043D2*
Y4500D1*
X31346D2*
Y5425D1*
Y3043D2*
X28669D1*
Y5425D2*
Y4500D1*
X5091Y19510D2*
X909D1*
Y16951D1*
X5091D1*
Y19510D1*
G36*
X4657Y19225D2*
X4343D1*
Y19540D1*
X4657D1*
Y19225D1*
G37*
G36*
X3658D2*
X3343D1*
Y19540D1*
X3658D1*
Y19225D1*
G37*
G36*
X2657D2*
X2342D1*
Y19540D1*
X2657D1*
Y19225D1*
G37*
G36*
X1657D2*
X1342D1*
Y19540D1*
X1657D1*
Y19225D1*
G37*
X32250Y5000D2*
D10*
X34250D1*
Y4000D1*
X32250D1*
Y5000D1*
X19402Y11610D2*
Y11221D1*
X22623Y11610D2*
X19402D1*
Y8390D2*
Y8779D1*
X22623Y8390D2*
X19402D1*
X22623Y11610D2*
Y11221D1*
Y8390D2*
Y8779D1*
D47*
X27480Y7224D3*
X27388Y6722D2*
D10*
X26207D1*
Y6526D1*
X27388D1*
Y6722D1*
X937Y6531D2*
X2709D1*
Y10469D1*
X937D1*
Y6531D1*
X1291D2*
Y10469D1*
X3187Y6531D2*
X4959D1*
Y10469D1*
X3187D1*
Y6531D1*
X3541D2*
Y10469D1*
X9567Y15682D2*
X8308D1*
X9567Y16864D2*
X8308D1*
X15691Y6276D2*
Y7851D1*
X14825D2*
Y6276D1*
X15691Y7851D2*
X14825D1*
X15691Y6276D2*
X15415D1*
X15100D2*
X14825D1*
X15415D2*
G03X15100Y6276I-158J0D01*
G01*
D47*
X50897Y2942D3*
X50396Y3034D2*
D10*
Y4215D1*
X50199D1*
Y3034D1*
X50396D1*
X47557Y11051D2*
X50943D1*
X47557Y12075D2*
X50943D1*
Y11051D2*
Y12075D1*
X47557Y11051D2*
Y11366D1*
Y11760D2*
Y12075D1*
Y11366D2*
G03X47557Y11760I0J197D01*
G01*
X47043Y3683D2*
X48224D1*
X47043Y4549D2*
X48224D1*
Y3683D2*
Y4549D1*
X47043Y3683D2*
Y3959D1*
Y4274D2*
Y4549D1*
Y3959D2*
G03X47043Y4274I0J158D01*
G01*
X8000Y18500D2*
D24*
X35500D1*
Y2500D1*
X9500D2*
X35500D1*
X8000Y20500D2*
Y18500D1*
X9500Y2500D2*
Y500D1*
X39500Y20500D2*
Y500D1*
G36*
X5500Y1750D2*
X7500D1*
Y500D1*
X5500D1*
Y1750D1*
G37*
G36*
X4250Y4000D2*
X7500D1*
Y2000D1*
X4250D1*
Y4000D1*
G37*
X3653Y957D2*
D12*
X3873D1*
X4873D2*
X5063D1*
X1123Y947D2*
X1133D1*
X1393D2*
X1443D1*
X1723D2*
X1773D1*
X2253D2*
X2303D1*
X2583D2*
X2633D1*
X2913D2*
X2963D1*
X3303D2*
X3313D1*
X3653D2*
X3897D1*
X4873D2*
X5082D1*
X1113Y937D2*
X1133D1*
X1374D2*
X1459D1*
X1704D2*
X1789D1*
X2234D2*
X2319D1*
X2564D2*
X2649D1*
X2894D2*
X2979D1*
X3293D2*
X3313D1*
X3653D2*
X3915D1*
X4873D2*
X5098D1*
X1103Y927D2*
X1133D1*
X1358D2*
X1473D1*
X1688D2*
X1803D1*
X2218D2*
X2333D1*
X2548D2*
X2663D1*
X2878D2*
X2993D1*
X3283D2*
X3313D1*
X3653D2*
X3683D1*
X3879D2*
X3929D1*
X4873D2*
X4903D1*
X5080D2*
X5110D1*
X1093Y917D2*
X1133D1*
X1345D2*
X1375D1*
X1451D2*
X1484D1*
X1675D2*
X1705D1*
X1781D2*
X1814D1*
X2205D2*
X2235D1*
X2311D2*
X2344D1*
X2535D2*
X2565D1*
X2641D2*
X2674D1*
X2865D2*
X2895D1*
X2971D2*
X3004D1*
X3273D2*
X3313D1*
X3653D2*
X3683D1*
X3900D2*
X3940D1*
X4873D2*
X4903D1*
X5095D2*
X5120D1*
X1083Y907D2*
X1133D1*
X1334D2*
X1359D1*
X1466D2*
X1494D1*
X1664D2*
X1689D1*
X1796D2*
X1824D1*
X2194D2*
X2219D1*
X2326D2*
X2354D1*
X2524D2*
X2549D1*
X2656D2*
X2684D1*
X2854D2*
X2879D1*
X2986D2*
X3014D1*
X3263D2*
X3313D1*
X3653D2*
X3683D1*
X3917D2*
X3948D1*
X4873D2*
X4903D1*
X5106D2*
X5128D1*
X1072Y897D2*
X1133D1*
X1325D2*
X1347D1*
X1478D2*
X1502D1*
X1655D2*
X1677D1*
X1808D2*
X1832D1*
X2185D2*
X2207D1*
X2338D2*
X2362D1*
X2515D2*
X2537D1*
X2668D2*
X2692D1*
X2845D2*
X2867D1*
X2998D2*
X3022D1*
X3252D2*
X3313D1*
X3653D2*
X3683D1*
X3926D2*
X3954D1*
X4873D2*
X4903D1*
X5113D2*
X5134D1*
X1061Y887D2*
X1133D1*
X1317D2*
X1338D1*
X1487D2*
X1509D1*
X1647D2*
X1668D1*
X1817D2*
X1839D1*
X2177D2*
X2198D1*
X2347D2*
X2369D1*
X2507D2*
X2528D1*
X2677D2*
X2699D1*
X2837D2*
X2858D1*
X3007D2*
X3029D1*
X3241D2*
X3313D1*
X3653D2*
X3683D1*
X3930D2*
X3958D1*
X4873D2*
X4903D1*
X5118D2*
X5138D1*
X1047Y877D2*
X1133D1*
X1312D2*
X1332D1*
X1494D2*
X1514D1*
X1642D2*
X1662D1*
X1824D2*
X1844D1*
X2172D2*
X2192D1*
X2354D2*
X2374D1*
X2502D2*
X2522D1*
X2684D2*
X2704D1*
X2832D2*
X2852D1*
X3014D2*
X3034D1*
X3227D2*
X3313D1*
X3653D2*
X3683D1*
X3931D2*
X3961D1*
X4873D2*
X4903D1*
X5121D2*
X5141D1*
X1032Y867D2*
X1053D1*
X1103D2*
X1133D1*
X1307D2*
X1327D1*
X1498D2*
X1519D1*
X1637D2*
X1657D1*
X1828D2*
X1849D1*
X2167D2*
X2187D1*
X2358D2*
X2379D1*
X2497D2*
X2517D1*
X2688D2*
X2709D1*
X2827D2*
X2847D1*
X3018D2*
X3039D1*
X3213D2*
X3233D1*
X3283D2*
X3313D1*
X3653D2*
X3683D1*
X3932D2*
X3962D1*
X4873D2*
X4903D1*
X5122D2*
X5142D1*
X1017Y857D2*
X1038D1*
X1103D2*
X1133D1*
X1304D2*
X1325D1*
X1501D2*
X1522D1*
X1634D2*
X1655D1*
X1831D2*
X1852D1*
X2164D2*
X2185D1*
X2361D2*
X2382D1*
X2494D2*
X2515D1*
X2691D2*
X2712D1*
X2824D2*
X2845D1*
X3021D2*
X3042D1*
X3200D2*
X3217D1*
X3283D2*
X3313D1*
X3653D2*
X3683D1*
X3933D2*
X3962D1*
X4163D2*
X4213D1*
X4873D2*
X4903D1*
X5122D2*
X5142D1*
X1003Y847D2*
X1023D1*
X1103D2*
X1133D1*
X1302D2*
X1323D1*
X1504D2*
X1526D1*
X1632D2*
X1653D1*
X1834D2*
X1856D1*
X2162D2*
X2183D1*
X2364D2*
X2386D1*
X2492D2*
X2513D1*
X2694D2*
X2716D1*
X2822D2*
X2843D1*
X3024D2*
X3046D1*
X3190D2*
X3201D1*
X3283D2*
X3313D1*
X3653D2*
X3683D1*
X3932D2*
X3962D1*
X4140D2*
X4231D1*
X4393D2*
X4413D1*
X4603D2*
X4623D1*
X4873D2*
X4903D1*
X5122D2*
X5141D1*
X1103Y837D2*
X1133D1*
X1299D2*
X1321D1*
X1507D2*
X1529D1*
X1629D2*
X1651D1*
X1837D2*
X1859D1*
X2159D2*
X2181D1*
X2367D2*
X2389D1*
X2489D2*
X2511D1*
X2697D2*
X2719D1*
X2819D2*
X2841D1*
X3027D2*
X3049D1*
X3183D2*
D3*
X3283D2*
X3313D1*
X3653D2*
X3683D1*
X3931D2*
X3961D1*
X4121D2*
X4247D1*
X4394D2*
X4414D1*
X4601D2*
X4619D1*
X4873D2*
X4903D1*
X5121D2*
X5138D1*
X1103Y827D2*
X1133D1*
X1296D2*
X1319D1*
X1509D2*
X1531D1*
X1626D2*
X1649D1*
X1839D2*
X1861D1*
X2156D2*
X2179D1*
X2369D2*
X2391D1*
X2486D2*
X2509D1*
X2699D2*
X2721D1*
X2816D2*
X2839D1*
X3029D2*
X3051D1*
X3283D2*
X3313D1*
X3653D2*
X3683D1*
X3928D2*
X3957D1*
X4107D2*
X4143D1*
X4231D2*
X4260D1*
X4397D2*
X4417D1*
X4599D2*
X4616D1*
X4873D2*
X4903D1*
X5118D2*
X5134D1*
X1103Y817D2*
X1133D1*
X1294D2*
X1316D1*
X1511D2*
X1532D1*
X1624D2*
X1646D1*
X1841D2*
X1862D1*
X2154D2*
X2176D1*
X2371D2*
X2392D1*
X2484D2*
X2506D1*
X2701D2*
X2722D1*
X2814D2*
X2836D1*
X3031D2*
X3052D1*
X3283D2*
X3313D1*
X3653D2*
X3683D1*
X3923D2*
X3952D1*
X4096D2*
X4125D1*
X4246D2*
X4271D1*
X4401D2*
X4420D1*
X4596D2*
X4613D1*
X4873D2*
X4903D1*
X5114D2*
X5128D1*
X1103Y807D2*
X1133D1*
X1294D2*
X1314D1*
X1512D2*
X1533D1*
X1624D2*
X1644D1*
X1842D2*
X1863D1*
X2154D2*
X2174D1*
X2372D2*
X2393D1*
X2484D2*
X2504D1*
X2702D2*
X2723D1*
X2814D2*
X2834D1*
X3032D2*
X3053D1*
X3283D2*
X3313D1*
X3653D2*
X3683D1*
X3912D2*
X3946D1*
X4088D2*
X4111D1*
X4258D2*
X4281D1*
X4405D2*
X4423D1*
X4593D2*
X4609D1*
X4873D2*
X4903D1*
X5109D2*
X5119D1*
X1103Y797D2*
X1133D1*
X1293D2*
X1314D1*
X1513D2*
X1533D1*
X1623D2*
X1644D1*
X1843D2*
X1863D1*
X2153D2*
X2174D1*
X2373D2*
X2393D1*
X2483D2*
X2504D1*
X2703D2*
X2723D1*
X2813D2*
X2834D1*
X3033D2*
X3053D1*
X3283D2*
X3313D1*
X3653D2*
X3683D1*
X3898D2*
X3939D1*
X4081D2*
X4100D1*
X4267D2*
X4288D1*
X4409D2*
X4426D1*
X4589D2*
X4605D1*
X4873D2*
X4903D1*
X5103D2*
X5110D1*
X1103Y787D2*
X1133D1*
X1293D2*
X1313D1*
X1513D2*
X1533D1*
X1623D2*
X1643D1*
X1843D2*
X1863D1*
X2153D2*
X2173D1*
X2373D2*
X2393D1*
X2483D2*
X2503D1*
X2703D2*
X2723D1*
X2813D2*
X2833D1*
X3033D2*
X3053D1*
X3283D2*
X3313D1*
X3653D2*
X3683D1*
X3881D2*
X3929D1*
X4076D2*
X4093D1*
X4274D2*
X4294D1*
X4413D2*
X4430D1*
X4585D2*
X4600D1*
X4873D2*
X4903D1*
X5073D2*
X5101D1*
X1103Y777D2*
X1133D1*
X1293D2*
X1313D1*
X1513D2*
X1533D1*
X1623D2*
X1643D1*
X1843D2*
X1863D1*
X2153D2*
X2173D1*
X2373D2*
X2393D1*
X2483D2*
X2503D1*
X2703D2*
X2723D1*
X2813D2*
X2833D1*
X3033D2*
X3053D1*
X3283D2*
X3313D1*
X3653D2*
X3914D1*
X4071D2*
X4088D1*
X4278D2*
X4298D1*
X4416D2*
X4433D1*
X4580D2*
X4597D1*
X4873D2*
X5098D1*
X1103Y767D2*
X1133D1*
X1293D2*
X1313D1*
X1513D2*
X1533D1*
X1623D2*
X1643D1*
X1843D2*
X1863D1*
X2153D2*
X2173D1*
X2373D2*
X2393D1*
X2483D2*
X2503D1*
X2703D2*
X2723D1*
X2813D2*
X2833D1*
X3033D2*
X3053D1*
X3283D2*
X3313D1*
X3653D2*
X3897D1*
X4067D2*
X4085D1*
X4281D2*
X4301D1*
X4420D2*
X4436D1*
X4577D2*
X4593D1*
X4873D2*
X5100D1*
X1103Y757D2*
X1133D1*
X1293D2*
X1313D1*
X1513D2*
X1533D1*
X1623D2*
X1643D1*
X1843D2*
X1863D1*
X2153D2*
X2173D1*
X2373D2*
X2393D1*
X2483D2*
X2503D1*
X2703D2*
X2723D1*
X2813D2*
X2833D1*
X3033D2*
X3053D1*
X3283D2*
X3313D1*
X3653D2*
X3879D1*
X4064D2*
X4084D1*
X4282D2*
X4304D1*
X4423D2*
X4440D1*
X4573D2*
X4590D1*
X4873D2*
X5110D1*
X1103Y747D2*
X1133D1*
X1293D2*
X1313D1*
X1513D2*
X1533D1*
X1623D2*
X1643D1*
X1843D2*
X1863D1*
X2153D2*
X2173D1*
X2373D2*
X2393D1*
X2483D2*
X2503D1*
X2703D2*
X2723D1*
X2813D2*
X2833D1*
X3033D2*
X3053D1*
X3283D2*
X3313D1*
X3653D2*
X3683D1*
X3811D2*
X3865D1*
X4062D2*
X4083D1*
X4282D2*
X4307D1*
X4427D2*
X4443D1*
X4570D2*
X4586D1*
X4873D2*
X4903D1*
X5079D2*
X5121D1*
X1103Y737D2*
X1133D1*
X1293D2*
X1313D1*
X1513D2*
X1533D1*
X1623D2*
X1643D1*
X1843D2*
X1863D1*
X2153D2*
X2173D1*
X2373D2*
X2393D1*
X2483D2*
X2503D1*
X2703D2*
X2723D1*
X2813D2*
X2833D1*
X3033D2*
X3053D1*
X3283D2*
X3313D1*
X3653D2*
X3683D1*
X3827D2*
X3857D1*
X4059D2*
X4083D1*
X4283D2*
X4309D1*
X4431D2*
X4447D1*
X4566D2*
X4583D1*
X4873D2*
X4903D1*
X5100D2*
X5132D1*
X1103Y727D2*
X1133D1*
X1293D2*
X1313D1*
X1513D2*
X1533D1*
X1623D2*
X1643D1*
X1843D2*
X1863D1*
X2153D2*
X2173D1*
X2373D2*
X2393D1*
X2483D2*
X2503D1*
X2703D2*
X2723D1*
X2813D2*
X2833D1*
X3033D2*
X3053D1*
X3283D2*
X3313D1*
X3653D2*
X3683D1*
X3840D2*
X3864D1*
X4056D2*
X4311D1*
X4435D2*
X4451D1*
X4563D2*
X4579D1*
X4873D2*
X4903D1*
X5117D2*
X5142D1*
X1103Y717D2*
X1133D1*
X1293D2*
X1313D1*
X1513D2*
X1533D1*
X1623D2*
X1643D1*
X1843D2*
X1863D1*
X1943D2*
X2083D1*
X2153D2*
X2173D1*
X2373D2*
X2393D1*
X2483D2*
X2503D1*
X2703D2*
X2723D1*
X2813D2*
X2833D1*
X3033D2*
X3053D1*
X3283D2*
X3313D1*
X3653D2*
X3683D1*
X3850D2*
X3873D1*
X4055D2*
X4312D1*
X4439D2*
X4455D1*
X4559D2*
X4575D1*
X4873D2*
X4903D1*
X5126D2*
X5150D1*
X1103Y707D2*
X1133D1*
X1293D2*
X1313D1*
X1512D2*
X1533D1*
X1623D2*
X1643D1*
X1842D2*
X1863D1*
X1943D2*
X2083D1*
X2153D2*
X2173D1*
X2372D2*
X2393D1*
X2483D2*
X2503D1*
X2702D2*
X2723D1*
X2813D2*
X2833D1*
X3032D2*
X3053D1*
X3283D2*
X3313D1*
X3653D2*
X3683D1*
X3858D2*
X3883D1*
X4054D2*
X4313D1*
X4443D2*
X4459D1*
X4556D2*
X4570D1*
X4873D2*
X4903D1*
X5130D2*
X5157D1*
X1103Y697D2*
X1133D1*
X1294D2*
X1314D1*
X1511D2*
X1532D1*
X1624D2*
X1644D1*
X1841D2*
X1862D1*
X1943D2*
X2083D1*
X2154D2*
X2174D1*
X2371D2*
X2392D1*
X2484D2*
X2504D1*
X2701D2*
X2722D1*
X2814D2*
X2834D1*
X3031D2*
X3052D1*
X3283D2*
X3313D1*
X3653D2*
X3683D1*
X3866D2*
X3893D1*
X4055D2*
X4083D1*
X4446D2*
X4463D1*
X4553D2*
X4567D1*
X4873D2*
X4903D1*
X5131D2*
X5160D1*
X1103Y687D2*
X1133D1*
X1297D2*
X1317D1*
X1509D2*
X1531D1*
X1627D2*
X1647D1*
X1839D2*
X1861D1*
X2157D2*
X2177D1*
X2369D2*
X2391D1*
X2487D2*
X2507D1*
X2699D2*
X2721D1*
X2817D2*
X2837D1*
X3029D2*
X3051D1*
X3283D2*
X3313D1*
X3653D2*
X3683D1*
X3874D2*
X3902D1*
X4057D2*
X4083D1*
X4450D2*
X4466D1*
X4549D2*
X4563D1*
X4873D2*
X4903D1*
X5132D2*
X5162D1*
X1103Y677D2*
X1133D1*
X1299D2*
X1319D1*
X1506D2*
X1529D1*
X1629D2*
X1649D1*
X1836D2*
X1859D1*
X2159D2*
X2179D1*
X2366D2*
X2389D1*
X2489D2*
X2509D1*
X2696D2*
X2719D1*
X2819D2*
X2839D1*
X3026D2*
X3049D1*
X3283D2*
X3313D1*
X3653D2*
X3683D1*
X3882D2*
X3911D1*
X4060D2*
X4083D1*
X4453D2*
X4470D1*
X4545D2*
X4560D1*
X4873D2*
X4903D1*
X5133D2*
X5162D1*
X1103Y667D2*
X1133D1*
X1302D2*
X1322D1*
X1504D2*
X1526D1*
X1632D2*
X1652D1*
X1834D2*
X1856D1*
X2162D2*
X2182D1*
X2364D2*
X2386D1*
X2492D2*
X2512D1*
X2694D2*
X2716D1*
X2822D2*
X2842D1*
X3024D2*
X3046D1*
X3283D2*
X3313D1*
X3653D2*
X3683D1*
X3889D2*
X3918D1*
X4062D2*
X4083D1*
X4457D2*
X4473D1*
X4540D2*
X4556D1*
X4873D2*
X4903D1*
X5133D2*
X5163D1*
X1103Y657D2*
X1133D1*
X1304D2*
X1324D1*
X1502D2*
X1523D1*
X1634D2*
X1654D1*
X1832D2*
X1853D1*
X2164D2*
X2184D1*
X2362D2*
X2383D1*
X2494D2*
X2514D1*
X2692D2*
X2713D1*
X2824D2*
X2844D1*
X3022D2*
X3043D1*
X3283D2*
X3313D1*
X3653D2*
X3683D1*
X3896D2*
X3925D1*
X4064D2*
X4085D1*
X4461D2*
X4476D1*
X4536D2*
X4553D1*
X4873D2*
X4903D1*
X5133D2*
X5162D1*
X1103Y647D2*
X1133D1*
X1307D2*
X1327D1*
X1499D2*
X1519D1*
X1637D2*
X1657D1*
X1829D2*
X1849D1*
X2167D2*
X2187D1*
X2359D2*
X2379D1*
X2497D2*
X2517D1*
X2689D2*
X2709D1*
X2827D2*
X2847D1*
X3019D2*
X3039D1*
X3283D2*
X3313D1*
X3653D2*
X3683D1*
X3903D2*
X3930D1*
X4067D2*
X4087D1*
X4465D2*
X4480D1*
X4532D2*
X4549D1*
X4873D2*
X4903D1*
X5132D2*
X5161D1*
X1103Y637D2*
X1133D1*
X1311D2*
X1331D1*
X1494D2*
X1514D1*
X1641D2*
X1661D1*
X1824D2*
X1844D1*
X2171D2*
X2191D1*
X2354D2*
X2374D1*
X2501D2*
X2521D1*
X2684D2*
X2704D1*
X2831D2*
X2851D1*
X3014D2*
X3034D1*
X3283D2*
X3313D1*
X3653D2*
X3683D1*
X3909D2*
X3936D1*
X4071D2*
X4092D1*
X4469D2*
X4485D1*
X4524D2*
X4545D1*
X4873D2*
X4903D1*
X5131D2*
X5158D1*
X1103Y627D2*
X1133D1*
X1317D2*
X1338D1*
X1488D2*
X1509D1*
X1647D2*
X1668D1*
X1818D2*
X1839D1*
X2177D2*
X2198D1*
X2348D2*
X2369D1*
X2507D2*
X2528D1*
X2678D2*
X2699D1*
X2837D2*
X2858D1*
X3008D2*
X3029D1*
X3283D2*
X3313D1*
X3653D2*
X3683D1*
X3916D2*
X3943D1*
X4076D2*
X4097D1*
X4473D2*
X4498D1*
X4505D2*
X4540D1*
X4873D2*
X4903D1*
X5127D2*
X5154D1*
X1103Y617D2*
X1133D1*
X1324D2*
X1347D1*
X1479D2*
X1502D1*
X1654D2*
X1677D1*
X1809D2*
X1832D1*
X2184D2*
X2207D1*
X2339D2*
X2362D1*
X2514D2*
X2537D1*
X2669D2*
X2692D1*
X2844D2*
X2867D1*
X2999D2*
X3022D1*
X3283D2*
X3313D1*
X3653D2*
X3683D1*
X3923D2*
X3950D1*
X4081D2*
X4106D1*
X4273D2*
X4303D1*
X4476D2*
X4537D1*
X4873D2*
X4903D1*
X5118D2*
X5148D1*
X1103Y607D2*
X1133D1*
X1331D2*
X1373D1*
X1453D2*
X1494D1*
X1661D2*
X1703D1*
X1783D2*
X1824D1*
X2191D2*
X2233D1*
X2313D2*
X2354D1*
X2521D2*
X2563D1*
X2643D2*
X2684D1*
X2851D2*
X2893D1*
X2973D2*
X3014D1*
X3283D2*
X3313D1*
X3653D2*
X3683D1*
X3929D2*
X3956D1*
X4087D2*
X4116D1*
X4262D2*
X4293D1*
X4480D2*
X4533D1*
X4873D2*
X4903D1*
X5106D2*
X5140D1*
X1103Y597D2*
X1133D1*
X1341D2*
X1413D1*
X1412D2*
X1485D1*
X1671D2*
X1743D1*
X1742D2*
X1815D1*
X2201D2*
X2273D1*
X2272D2*
X2345D1*
X2531D2*
X2603D1*
X2602D2*
X2675D1*
X2861D2*
X2933D1*
X2932D2*
X3005D1*
X3283D2*
X3313D1*
X3653D2*
X3683D1*
X3935D2*
X3963D1*
X4095D2*
X4144D1*
X4233D2*
X4283D1*
X4483D2*
X4530D1*
X4873D2*
X4903D1*
X5090D2*
X5129D1*
X1103Y587D2*
X1133D1*
X1355D2*
X1472D1*
X1685D2*
X1802D1*
X2215D2*
X2332D1*
X2545D2*
X2662D1*
X2875D2*
X2992D1*
X3283D2*
X3313D1*
X3653D2*
X3683D1*
X3940D2*
X3969D1*
X4106D2*
X4188D1*
X4272D1*
X4486D2*
X4526D1*
X4873D2*
X5114D1*
X1103Y577D2*
X1133D1*
X1373D2*
X1458D1*
X1703D2*
X1788D1*
X2233D2*
X2318D1*
X2563D2*
X2648D1*
X2893D2*
X2978D1*
X3283D2*
X3313D1*
X3653D2*
X3683D1*
X3946D2*
X3976D1*
X4121D2*
X4259D1*
X4490D2*
X4524D1*
X4873D2*
X5095D1*
X1103Y567D2*
X1133D1*
X1393D2*
X1443D1*
X1723D2*
X1773D1*
X2253D2*
X2303D1*
X2583D2*
X2633D1*
X2913D2*
X2963D1*
X3283D2*
X3313D1*
X3653D2*
X3683D1*
X3953D2*
X3983D1*
X4141D2*
X4242D1*
X4493D2*
X4523D1*
X4873D2*
X5073D1*
X4163Y557D2*
X4223D1*
X3653Y1707D2*
X3873D1*
X1123Y1697D2*
X1133D1*
X1393D2*
X1443D1*
X1783D2*
X1793D1*
X2253D2*
X2303D1*
X2583D2*
X2633D1*
X2913D2*
X2963D1*
X3303D2*
X3313D1*
X3653D2*
X3897D1*
X1113Y1687D2*
X1133D1*
X1374D2*
X1459D1*
X1773D2*
X1793D1*
X2234D2*
X2319D1*
X2564D2*
X2649D1*
X2894D2*
X2979D1*
X3293D2*
X3313D1*
X3653D2*
X3915D1*
X1103Y1677D2*
X1133D1*
X1358D2*
X1473D1*
X1763D2*
X1793D1*
X2218D2*
X2333D1*
X2548D2*
X2663D1*
X2878D2*
X2993D1*
X3283D2*
X3313D1*
X3653D2*
X3683D1*
X3879D2*
X3929D1*
X1093Y1667D2*
X1133D1*
X1345D2*
X1375D1*
X1451D2*
X1484D1*
X1753D2*
X1793D1*
X2205D2*
X2235D1*
X2311D2*
X2344D1*
X2535D2*
X2565D1*
X2641D2*
X2674D1*
X2865D2*
X2895D1*
X2971D2*
X3004D1*
X3273D2*
X3313D1*
X3653D2*
X3683D1*
X3900D2*
X3940D1*
X1083Y1657D2*
X1133D1*
X1334D2*
X1359D1*
X1466D2*
X1494D1*
X1743D2*
X1793D1*
X2194D2*
X2219D1*
X2326D2*
X2354D1*
X2524D2*
X2549D1*
X2656D2*
X2684D1*
X2854D2*
X2879D1*
X2986D2*
X3014D1*
X3263D2*
X3313D1*
X3653D2*
X3683D1*
X3917D2*
X3948D1*
X1072Y1647D2*
X1133D1*
X1325D2*
X1347D1*
X1478D2*
X1502D1*
X1732D2*
X1793D1*
X2185D2*
X2207D1*
X2338D2*
X2362D1*
X2515D2*
X2537D1*
X2668D2*
X2692D1*
X2845D2*
X2867D1*
X2998D2*
X3022D1*
X3252D2*
X3313D1*
X3653D2*
X3683D1*
X3926D2*
X3954D1*
X1061Y1637D2*
X1133D1*
X1317D2*
X1338D1*
X1487D2*
X1509D1*
X1721D2*
X1793D1*
X2177D2*
X2198D1*
X2347D2*
X2369D1*
X2507D2*
X2528D1*
X2677D2*
X2699D1*
X2837D2*
X2858D1*
X3007D2*
X3029D1*
X3241D2*
X3313D1*
X3653D2*
X3683D1*
X3930D2*
X3958D1*
X1047Y1627D2*
X1133D1*
X1312D2*
X1332D1*
X1494D2*
X1514D1*
X1707D2*
X1793D1*
X2172D2*
X2192D1*
X2354D2*
X2374D1*
X2502D2*
X2522D1*
X2684D2*
X2704D1*
X2832D2*
X2852D1*
X3014D2*
X3034D1*
X3227D2*
X3313D1*
X3653D2*
X3683D1*
X3931D2*
X3961D1*
X1032Y1617D2*
X1053D1*
X1103D2*
X1133D1*
X1307D2*
X1327D1*
X1498D2*
X1519D1*
X1693D2*
X1713D1*
X1763D2*
X1793D1*
X2167D2*
X2187D1*
X2358D2*
X2379D1*
X2497D2*
X2517D1*
X2688D2*
X2709D1*
X2827D2*
X2847D1*
X3018D2*
X3039D1*
X3213D2*
X3233D1*
X3283D2*
X3313D1*
X3653D2*
X3683D1*
X3932D2*
X3962D1*
X1017Y1607D2*
X1038D1*
X1103D2*
X1133D1*
X1304D2*
X1325D1*
X1501D2*
X1522D1*
X1680D2*
X1697D1*
X1763D2*
X1793D1*
X2164D2*
X2185D1*
X2361D2*
X2382D1*
X2494D2*
X2515D1*
X2691D2*
X2712D1*
X2824D2*
X2845D1*
X3021D2*
X3042D1*
X3200D2*
X3217D1*
X3283D2*
X3313D1*
X3653D2*
X3683D1*
X3933D2*
X3962D1*
X4163D2*
X4213D1*
X1003Y1597D2*
X1023D1*
X1103D2*
X1133D1*
X1302D2*
X1323D1*
X1504D2*
X1526D1*
X1670D2*
X1681D1*
X1763D2*
X1793D1*
X2162D2*
X2183D1*
X2364D2*
X2386D1*
X2492D2*
X2513D1*
X2694D2*
X2716D1*
X2822D2*
X2843D1*
X3024D2*
X3046D1*
X3190D2*
X3201D1*
X3283D2*
X3313D1*
X3653D2*
X3683D1*
X3932D2*
X3962D1*
X4140D2*
X4231D1*
X4393D2*
X4413D1*
X4603D2*
X4623D1*
X1103Y1587D2*
X1133D1*
X1299D2*
X1321D1*
X1507D2*
X1529D1*
X1663D2*
D3*
X1763D2*
X1793D1*
X2159D2*
X2181D1*
X2367D2*
X2389D1*
X2489D2*
X2511D1*
X2697D2*
X2719D1*
X2819D2*
X2841D1*
X3027D2*
X3049D1*
X3183D2*
D3*
X3283D2*
X3313D1*
X3653D2*
X3683D1*
X3931D2*
X3961D1*
X4121D2*
X4247D1*
X4394D2*
X4414D1*
X4601D2*
X4619D1*
X1103Y1577D2*
X1133D1*
X1296D2*
X1319D1*
X1509D2*
X1531D1*
X1763D2*
X1793D1*
X2156D2*
X2179D1*
X2369D2*
X2391D1*
X2486D2*
X2509D1*
X2699D2*
X2721D1*
X2816D2*
X2839D1*
X3029D2*
X3051D1*
X3283D2*
X3313D1*
X3653D2*
X3683D1*
X3928D2*
X3957D1*
X4107D2*
X4143D1*
X4231D2*
X4260D1*
X4397D2*
X4417D1*
X4599D2*
X4616D1*
X1103Y1567D2*
X1133D1*
X1294D2*
X1316D1*
X1511D2*
X1532D1*
X1763D2*
X1793D1*
X2154D2*
X2176D1*
X2371D2*
X2392D1*
X2484D2*
X2506D1*
X2701D2*
X2722D1*
X2814D2*
X2836D1*
X3031D2*
X3052D1*
X3283D2*
X3313D1*
X3653D2*
X3683D1*
X3923D2*
X3952D1*
X4096D2*
X4125D1*
X4246D2*
X4271D1*
X4401D2*
X4420D1*
X4596D2*
X4613D1*
X1103Y1557D2*
X1133D1*
X1294D2*
X1314D1*
X1512D2*
X1533D1*
X1763D2*
X1793D1*
X2154D2*
X2174D1*
X2372D2*
X2393D1*
X2484D2*
X2504D1*
X2702D2*
X2723D1*
X2814D2*
X2834D1*
X3032D2*
X3053D1*
X3283D2*
X3313D1*
X3653D2*
X3683D1*
X3912D2*
X3946D1*
X4088D2*
X4111D1*
X4258D2*
X4281D1*
X4405D2*
X4423D1*
X4593D2*
X4609D1*
X1103Y1547D2*
X1133D1*
X1293D2*
X1314D1*
X1513D2*
X1533D1*
X1763D2*
X1793D1*
X2153D2*
X2174D1*
X2373D2*
X2393D1*
X2483D2*
X2504D1*
X2703D2*
X2723D1*
X2813D2*
X2834D1*
X3033D2*
X3053D1*
X3283D2*
X3313D1*
X3653D2*
X3683D1*
X3898D2*
X3939D1*
X4081D2*
X4100D1*
X4267D2*
X4288D1*
X4409D2*
X4426D1*
X4589D2*
X4605D1*
X1103Y1537D2*
X1133D1*
X1293D2*
X1313D1*
X1513D2*
X1533D1*
X1763D2*
X1793D1*
X2153D2*
X2173D1*
X2373D2*
X2393D1*
X2483D2*
X2503D1*
X2703D2*
X2723D1*
X2813D2*
X2833D1*
X3033D2*
X3053D1*
X3283D2*
X3313D1*
X3653D2*
X3683D1*
X3881D2*
X3929D1*
X4076D2*
X4093D1*
X4274D2*
X4294D1*
X4413D2*
X4430D1*
X4585D2*
X4600D1*
X1103Y1527D2*
X1133D1*
X1293D2*
X1313D1*
X1513D2*
X1533D1*
X1763D2*
X1793D1*
X2153D2*
X2173D1*
X2373D2*
X2393D1*
X2483D2*
X2503D1*
X2703D2*
X2723D1*
X2813D2*
X2833D1*
X3033D2*
X3053D1*
X3283D2*
X3313D1*
X3653D2*
X3914D1*
X4071D2*
X4088D1*
X4278D2*
X4298D1*
X4416D2*
X4433D1*
X4580D2*
X4597D1*
X1103Y1517D2*
X1133D1*
X1293D2*
X1313D1*
X1513D2*
X1533D1*
X1763D2*
X1793D1*
X2153D2*
X2173D1*
X2373D2*
X2393D1*
X2483D2*
X2503D1*
X2703D2*
X2723D1*
X2813D2*
X2833D1*
X3033D2*
X3053D1*
X3283D2*
X3313D1*
X3653D2*
X3897D1*
X4067D2*
X4085D1*
X4281D2*
X4301D1*
X4420D2*
X4436D1*
X4577D2*
X4593D1*
X1103Y1507D2*
X1133D1*
X1293D2*
X1313D1*
X1513D2*
X1533D1*
X1763D2*
X1793D1*
X2153D2*
X2173D1*
X2373D2*
X2393D1*
X2483D2*
X2503D1*
X2703D2*
X2723D1*
X2813D2*
X2833D1*
X3033D2*
X3053D1*
X3283D2*
X3313D1*
X3653D2*
X3879D1*
X4064D2*
X4084D1*
X4282D2*
X4304D1*
X4423D2*
X4440D1*
X4573D2*
X4590D1*
X1103Y1497D2*
X1133D1*
X1293D2*
X1313D1*
X1513D2*
X1533D1*
X1763D2*
X1793D1*
X2153D2*
X2173D1*
X2373D2*
X2393D1*
X2483D2*
X2503D1*
X2703D2*
X2723D1*
X2813D2*
X2833D1*
X3033D2*
X3053D1*
X3283D2*
X3313D1*
X3653D2*
X3683D1*
X3811D2*
X3865D1*
X4062D2*
X4083D1*
X4282D2*
X4307D1*
X4427D2*
X4443D1*
X4570D2*
X4586D1*
X1103Y1487D2*
X1133D1*
X1293D2*
X1313D1*
X1513D2*
X1533D1*
X1763D2*
X1793D1*
X2153D2*
X2173D1*
X2373D2*
X2393D1*
X2483D2*
X2503D1*
X2703D2*
X2723D1*
X2813D2*
X2833D1*
X3033D2*
X3053D1*
X3283D2*
X3313D1*
X3653D2*
X3683D1*
X3827D2*
X3857D1*
X4059D2*
X4083D1*
X4283D2*
X4309D1*
X4431D2*
X4447D1*
X4566D2*
X4583D1*
X1103Y1477D2*
X1133D1*
X1293D2*
X1313D1*
X1513D2*
X1533D1*
X1763D2*
X1793D1*
X2153D2*
X2173D1*
X2373D2*
X2393D1*
X2483D2*
X2503D1*
X2703D2*
X2723D1*
X2813D2*
X2833D1*
X3033D2*
X3053D1*
X3283D2*
X3313D1*
X3653D2*
X3683D1*
X3840D2*
X3864D1*
X4056D2*
X4311D1*
X4435D2*
X4451D1*
X4563D2*
X4579D1*
X1103Y1467D2*
X1133D1*
X1293D2*
X1313D1*
X1513D2*
X1533D1*
X1763D2*
X1793D1*
X1943D2*
X2083D1*
X2153D2*
X2173D1*
X2373D2*
X2393D1*
X2483D2*
X2503D1*
X2703D2*
X2723D1*
X2813D2*
X2833D1*
X3033D2*
X3053D1*
X3283D2*
X3313D1*
X3653D2*
X3683D1*
X3850D2*
X3873D1*
X4055D2*
X4312D1*
X4439D2*
X4455D1*
X4559D2*
X4575D1*
X1103Y1457D2*
X1133D1*
X1293D2*
X1313D1*
X1512D2*
X1533D1*
X1763D2*
X1793D1*
X1943D2*
X2083D1*
X2153D2*
X2173D1*
X2372D2*
X2393D1*
X2483D2*
X2503D1*
X2702D2*
X2723D1*
X2813D2*
X2833D1*
X3032D2*
X3053D1*
X3283D2*
X3313D1*
X3653D2*
X3683D1*
X3858D2*
X3883D1*
X4054D2*
X4313D1*
X4443D2*
X4459D1*
X4556D2*
X4570D1*
X1103Y1447D2*
X1133D1*
X1294D2*
X1314D1*
X1511D2*
X1532D1*
X1763D2*
X1793D1*
X1943D2*
X2083D1*
X2154D2*
X2174D1*
X2371D2*
X2392D1*
X2484D2*
X2504D1*
X2701D2*
X2722D1*
X2814D2*
X2834D1*
X3031D2*
X3052D1*
X3283D2*
X3313D1*
X3653D2*
X3683D1*
X3866D2*
X3893D1*
X4055D2*
X4083D1*
X4446D2*
X4463D1*
X4553D2*
X4567D1*
X1103Y1437D2*
X1133D1*
X1297D2*
X1317D1*
X1509D2*
X1531D1*
X1763D2*
X1793D1*
X2157D2*
X2177D1*
X2369D2*
X2391D1*
X2487D2*
X2507D1*
X2699D2*
X2721D1*
X2817D2*
X2837D1*
X3029D2*
X3051D1*
X3283D2*
X3313D1*
X3653D2*
X3683D1*
X3874D2*
X3902D1*
X4057D2*
X4083D1*
X4450D2*
X4466D1*
X4549D2*
X4563D1*
X1103Y1427D2*
X1133D1*
X1299D2*
X1319D1*
X1506D2*
X1529D1*
X1763D2*
X1793D1*
X2159D2*
X2179D1*
X2366D2*
X2389D1*
X2489D2*
X2509D1*
X2696D2*
X2719D1*
X2819D2*
X2839D1*
X3026D2*
X3049D1*
X3283D2*
X3313D1*
X3653D2*
X3683D1*
X3882D2*
X3911D1*
X4060D2*
X4083D1*
X4453D2*
X4470D1*
X4545D2*
X4560D1*
X1103Y1417D2*
X1133D1*
X1302D2*
X1322D1*
X1504D2*
X1526D1*
X1763D2*
X1793D1*
X2162D2*
X2182D1*
X2364D2*
X2386D1*
X2492D2*
X2512D1*
X2694D2*
X2716D1*
X2822D2*
X2842D1*
X3024D2*
X3046D1*
X3283D2*
X3313D1*
X3653D2*
X3683D1*
X3889D2*
X3918D1*
X4062D2*
X4083D1*
X4457D2*
X4473D1*
X4540D2*
X4556D1*
X1103Y1407D2*
X1133D1*
X1304D2*
X1324D1*
X1502D2*
X1523D1*
X1763D2*
X1793D1*
X2164D2*
X2184D1*
X2362D2*
X2383D1*
X2494D2*
X2514D1*
X2692D2*
X2713D1*
X2824D2*
X2844D1*
X3022D2*
X3043D1*
X3283D2*
X3313D1*
X3653D2*
X3683D1*
X3896D2*
X3925D1*
X4064D2*
X4085D1*
X4461D2*
X4476D1*
X4536D2*
X4553D1*
X1103Y1397D2*
X1133D1*
X1307D2*
X1327D1*
X1499D2*
X1519D1*
X1763D2*
X1793D1*
X2167D2*
X2187D1*
X2359D2*
X2379D1*
X2497D2*
X2517D1*
X2689D2*
X2709D1*
X2827D2*
X2847D1*
X3019D2*
X3039D1*
X3283D2*
X3313D1*
X3653D2*
X3683D1*
X3903D2*
X3930D1*
X4067D2*
X4087D1*
X4465D2*
X4480D1*
X4532D2*
X4549D1*
X1103Y1387D2*
X1133D1*
X1311D2*
X1331D1*
X1494D2*
X1514D1*
X1763D2*
X1793D1*
X2171D2*
X2191D1*
X2354D2*
X2374D1*
X2501D2*
X2521D1*
X2684D2*
X2704D1*
X2831D2*
X2851D1*
X3014D2*
X3034D1*
X3283D2*
X3313D1*
X3653D2*
X3683D1*
X3909D2*
X3936D1*
X4071D2*
X4092D1*
X4469D2*
X4485D1*
X4524D2*
X4545D1*
X1103Y1377D2*
X1133D1*
X1317D2*
X1338D1*
X1488D2*
X1509D1*
X1763D2*
X1793D1*
X2177D2*
X2198D1*
X2348D2*
X2369D1*
X2507D2*
X2528D1*
X2678D2*
X2699D1*
X2837D2*
X2858D1*
X3008D2*
X3029D1*
X3283D2*
X3313D1*
X3653D2*
X3683D1*
X3916D2*
X3943D1*
X4076D2*
X4097D1*
X4473D2*
X4498D1*
X4505D2*
X4540D1*
X1103Y1367D2*
X1133D1*
X1324D2*
X1347D1*
X1479D2*
X1502D1*
X1763D2*
X1793D1*
X2184D2*
X2207D1*
X2339D2*
X2362D1*
X2514D2*
X2537D1*
X2669D2*
X2692D1*
X2844D2*
X2867D1*
X2999D2*
X3022D1*
X3283D2*
X3313D1*
X3653D2*
X3683D1*
X3923D2*
X3950D1*
X4081D2*
X4106D1*
X4273D2*
X4303D1*
X4476D2*
X4537D1*
X1103Y1357D2*
X1133D1*
X1331D2*
X1373D1*
X1453D2*
X1494D1*
X1763D2*
X1793D1*
X2191D2*
X2233D1*
X2313D2*
X2354D1*
X2521D2*
X2563D1*
X2643D2*
X2684D1*
X2851D2*
X2893D1*
X2973D2*
X3014D1*
X3283D2*
X3313D1*
X3653D2*
X3683D1*
X3929D2*
X3956D1*
X4087D2*
X4116D1*
X4262D2*
X4293D1*
X4480D2*
X4533D1*
X1103Y1347D2*
X1133D1*
X1341D2*
X1413D1*
X1412D2*
X1485D1*
X1763D2*
X1793D1*
X2201D2*
X2273D1*
X2272D2*
X2345D1*
X2531D2*
X2603D1*
X2602D2*
X2675D1*
X2861D2*
X2933D1*
X2932D2*
X3005D1*
X3283D2*
X3313D1*
X3653D2*
X3683D1*
X3935D2*
X3963D1*
X4095D2*
X4144D1*
X4233D2*
X4283D1*
X4483D2*
X4530D1*
X1103Y1337D2*
X1133D1*
X1355D2*
X1472D1*
X1763D2*
X1793D1*
X2215D2*
X2332D1*
X2545D2*
X2662D1*
X2875D2*
X2992D1*
X3283D2*
X3313D1*
X3653D2*
X3683D1*
X3940D2*
X3969D1*
X4106D2*
X4188D1*
X4272D1*
X4486D2*
X4526D1*
X1103Y1327D2*
X1133D1*
X1373D2*
X1458D1*
X1763D2*
X1793D1*
X2233D2*
X2318D1*
X2563D2*
X2648D1*
X2893D2*
X2978D1*
X3283D2*
X3313D1*
X3653D2*
X3683D1*
X3946D2*
X3976D1*
X4121D2*
X4259D1*
X4490D2*
X4524D1*
X1103Y1317D2*
X1133D1*
X1393D2*
X1443D1*
X1763D2*
X1793D1*
X2253D2*
X2303D1*
X2583D2*
X2633D1*
X2913D2*
X2963D1*
X3283D2*
X3313D1*
X3653D2*
X3683D1*
X3953D2*
X3983D1*
X4141D2*
X4242D1*
X4493D2*
X4523D1*
X4163Y1307D2*
X4223D1*
X3333Y3217D2*
X3393D1*
X3307Y3207D2*
X3418D1*
X3623D2*
X3653D1*
X3903D2*
X3933D1*
X3286Y3197D2*
X3439D1*
X3623D2*
X3659D1*
X3903D2*
X3933D1*
X3270Y3187D2*
X3305D1*
X3421D2*
X3456D1*
X3623D2*
X3666D1*
X3903D2*
X3933D1*
X3257Y3177D2*
X3289D1*
X3437D2*
X3468D1*
X3623D2*
X3673D1*
X3903D2*
X3933D1*
X3248Y3167D2*
X3276D1*
X3450D2*
X3477D1*
X3623D2*
X3679D1*
X3903D2*
X3933D1*
X3242Y3157D2*
X3266D1*
X3460D2*
X3484D1*
X3623D2*
X3686D1*
X3903D2*
X3933D1*
X3237Y3147D2*
X3258D1*
X3467D2*
X3490D1*
X3623D2*
X3694D1*
X3903D2*
X3933D1*
X3235Y3137D2*
X3255D1*
X3470D2*
X3495D1*
X3623D2*
X3702D1*
X3903D2*
X3933D1*
X3234Y3127D2*
X3254D1*
X3472D2*
X3499D1*
X3623D2*
X3643D1*
X3682D2*
X3709D1*
X3903D2*
X3933D1*
X3233Y3117D2*
X3253D1*
X3473D2*
X3503D1*
X3623D2*
X3643D1*
X3691D2*
X3716D1*
X3903D2*
X3933D1*
X3233Y3107D2*
X3253D1*
X3623D2*
X3643D1*
X3699D2*
X3723D1*
X3903D2*
X3933D1*
X3235Y3097D2*
X3255D1*
X3623D2*
X3643D1*
X3706D2*
X3729D1*
X3903D2*
X3933D1*
X3237Y3087D2*
X3258D1*
X3623D2*
X3643D1*
X3713D2*
X3736D1*
X3903D2*
X3933D1*
X3242Y3077D2*
X3268D1*
X3623D2*
X3643D1*
X3719D2*
X3743D1*
X3903D2*
X3933D1*
X3248Y3067D2*
X3283D1*
X3623D2*
X3643D1*
X3726D2*
X3749D1*
X3903D2*
X3933D1*
X3257Y3057D2*
X3304D1*
X3623D2*
X3643D1*
X3733D2*
X3756D1*
X3903D2*
X3933D1*
X3269Y3047D2*
X3333D1*
X3623D2*
X3643D1*
X3739D2*
X3763D1*
X3903D2*
X3933D1*
X3284Y3037D2*
X3365D1*
X3623D2*
X3643D1*
X3746D2*
X3769D1*
X3903D2*
X3933D1*
X3306Y3027D2*
X3396D1*
X3623D2*
X3643D1*
X3753D2*
X3776D1*
X3903D2*
X3933D1*
X3333Y3017D2*
X3424D1*
X3623D2*
X3643D1*
X3759D2*
X3783D1*
X3903D2*
X3933D1*
X3365Y3007D2*
X3447D1*
X3623D2*
X3643D1*
X3766D2*
X3789D1*
X3903D2*
X3933D1*
X3398Y2997D2*
X3465D1*
X3623D2*
X3643D1*
X3773D2*
X3796D1*
X3903D2*
X3933D1*
X3427Y2987D2*
X3479D1*
X3623D2*
X3643D1*
X3779D2*
X3803D1*
X3903D2*
X3933D1*
X3449Y2977D2*
X3490D1*
X3623D2*
X3643D1*
X3786D2*
X3809D1*
X3903D2*
X3933D1*
X3465Y2967D2*
X3498D1*
X3623D2*
X3643D1*
X3793D2*
X3816D1*
X3903D2*
X3933D1*
X3476Y2957D2*
X3504D1*
X3623D2*
X3643D1*
X3799D2*
X3824D1*
X3903D2*
X3933D1*
X3483Y2947D2*
X3508D1*
X3623D2*
X3643D1*
X3806D2*
X3832D1*
X3903D2*
X3933D1*
X3488Y2937D2*
X3511D1*
X3623D2*
X3643D1*
X3814D2*
X3839D1*
X3903D2*
X3933D1*
X3223Y2927D2*
X3233D1*
X3491D2*
X3512D1*
X3623D2*
X3643D1*
X3822D2*
X3846D1*
X3903D2*
X3933D1*
X3213Y2917D2*
X3238D1*
X3492D2*
X3512D1*
X3623D2*
X3643D1*
X3829D2*
X3854D1*
X3902D2*
X3933D1*
X3218Y2907D2*
X3242D1*
X3492D2*
X3512D1*
X3623D2*
X3643D1*
X3836D2*
X3863D1*
X3899D2*
X3933D1*
X3222Y2897D2*
X3246D1*
X3491D2*
X3511D1*
X3623D2*
X3643D1*
X3843D2*
X3877D1*
X3887D2*
X3933D1*
X3226Y2887D2*
X3251D1*
X3488D2*
X3508D1*
X3623D2*
X3643D1*
X3849D2*
X3933D1*
X3231Y2877D2*
X3258D1*
X3484D2*
X3504D1*
X3623D2*
X3643D1*
X3856D2*
X3933D1*
X3237Y2867D2*
X3267D1*
X3478D2*
X3498D1*
X3623D2*
X3643D1*
X3863D2*
X3933D1*
X3245Y2857D2*
X3280D1*
X3460D2*
X3491D1*
X3623D2*
X3643D1*
X3869D2*
X3933D1*
X3256Y2847D2*
X3316D1*
X3428D2*
X3481D1*
X3623D2*
X3643D1*
X3876D2*
X3933D1*
X3270Y2837D2*
X3373D1*
X3372D2*
X3470D1*
X3623D2*
X3643D1*
X3883D2*
X3933D1*
X3288Y2827D2*
X3455D1*
X3623D2*
X3643D1*
X3888D2*
X3933D1*
X3309Y2817D2*
X3435D1*
X3623D2*
X3643D1*
X3893D2*
X3933D1*
X3333Y2807D2*
X3413D1*
X1857Y3888D2*
D3*
X1844Y3858D2*
X1887D1*
X1835Y3828D2*
X1887D1*
X1831Y3798D2*
X1887D1*
X1829Y3768D2*
X1887D1*
X1828Y3738D2*
X1887D1*
X1617Y3708D2*
X1647D1*
X1828D2*
X1887D1*
X2097D2*
D3*
X1604Y3678D2*
X1647D1*
X1828D2*
X1887D1*
X2084D2*
X2127D1*
X1595Y3648D2*
X1647D1*
X1828D2*
X1887D1*
X2076D2*
X2127D1*
X1591Y3618D2*
X1647D1*
X1828D2*
X1887D1*
X2076D2*
X2127D1*
X1589Y3588D2*
X1647D1*
X1828D2*
X1887D1*
X2081D2*
X2128D1*
X1588Y3558D2*
X1646D1*
X1828D2*
X1887D1*
X2088D2*
X2129D1*
X1586Y3528D2*
X1643D1*
X1828D2*
X1887D1*
X2093D2*
X2132D1*
X1583Y3498D2*
X1635D1*
X1828D2*
X1887D1*
X2096D2*
X2140D1*
X1575Y3468D2*
X1628D1*
X1828D2*
X1887D1*
X2098D2*
X2147D1*
X1568Y3438D2*
X1621D1*
X1828D2*
X1887D1*
X2102D2*
X2154D1*
X1561Y3408D2*
X1615D1*
X1828D2*
X1887D1*
X2110D2*
X2160D1*
X1555Y3378D2*
X1606D1*
X1828D2*
X1887D1*
X2117D2*
X2169D1*
X1545Y3348D2*
X1597D1*
X1828D2*
X1887D1*
X2124D2*
X2178D1*
X1533Y3318D2*
X1588D1*
X1828D2*
X1887D1*
X2130D2*
X2188D1*
X1520Y3288D2*
X1577D1*
X1828D2*
X1887D1*
X2140D2*
X2199D1*
X1509Y3258D2*
X1567D1*
X1828D2*
X1887D1*
X2152D2*
X2212D1*
X1498Y3228D2*
X1558D1*
X1828D2*
X1887D1*
X2166D2*
X2226D1*
X1487Y3198D2*
X1546D1*
X1828D2*
X1887D1*
X2180D2*
X2240D1*
X1473Y3168D2*
X1533D1*
X1828D2*
X1887D1*
X2194D2*
X2255D1*
X1459Y3138D2*
X1519D1*
X1828D2*
X1887D1*
X2206D2*
X2270D1*
X1445Y3108D2*
X1505D1*
X1828D2*
X1887D1*
X2217D2*
X2285D1*
X1430Y3078D2*
X1490D1*
X1827D2*
X1887D1*
X2229D2*
X2300D1*
X1414Y3048D2*
X1475D1*
X1827D2*
X1887D1*
X2243D2*
X2315D1*
X1396Y3018D2*
X1460D1*
X1827D2*
X1887D1*
X2260D2*
X2330D1*
X1377Y2988D2*
X1445D1*
X1827D2*
X1887D1*
X2278D2*
X2345D1*
X1358Y2958D2*
X1430D1*
X1827D2*
X1887D1*
X2297D2*
X2360D1*
X1342Y2928D2*
X1414D1*
X1827D2*
X1887D1*
X2314D2*
X2375D1*
X1326Y2898D2*
X1396D1*
X1827D2*
X1888D1*
X2329D2*
X2391D1*
X1310Y2868D2*
X1377D1*
X1617D2*
X1647D1*
X1825D2*
X1890D1*
X2097D2*
D3*
X2345D2*
X2409D1*
X1294Y2838D2*
X1358D1*
X1625D2*
X1705D1*
X1820D2*
X1895D1*
X2026D2*
X2127D1*
X2361D2*
X2428D1*
X1276Y2808D2*
X1341D1*
X1652D2*
X1776D1*
X1796D2*
X1919D1*
X1945D2*
X2083D1*
X2379D2*
X2447D1*
X1257Y2778D2*
X1325D1*
X1686D2*
X2037D1*
X2398D2*
X2464D1*
X1238Y2748D2*
X1306D1*
X1720D2*
X1999D1*
X2417D2*
X2480D1*
X1221Y2718D2*
X1287D1*
X1746D2*
X1970D1*
X2433D2*
X2499D1*
X1205Y2688D2*
X1268D1*
X1767D2*
X1947D1*
X2449D2*
X2518D1*
X1186Y2658D2*
X1252D1*
X1718D2*
X1997D1*
X2465D2*
X2537D1*
X1167Y2628D2*
X1236D1*
X1667D2*
X2048D1*
X2481D2*
X2553D1*
X1148Y2598D2*
X1220D1*
X1614D2*
X1739D1*
X1827D2*
X1887D1*
X1976D2*
X2101D1*
X2499D2*
X2569D1*
X1132Y2568D2*
X1204D1*
X1560D2*
X1682D1*
X1827D2*
X1887D1*
X2033D2*
X2155D1*
X2518D2*
X2585D1*
X1116Y2538D2*
X1186D1*
X1510D2*
X1630D1*
X1828D2*
X1887D1*
X2085D2*
X2205D1*
X2536D2*
X2600D1*
X1103Y2508D2*
X1169D1*
X1465D2*
X1579D1*
X1829D2*
X1887D1*
X2138D2*
X2250D1*
X2551D2*
X2614D1*
X1092Y2478D2*
X1155D1*
X1427D2*
X1529D1*
X1833D2*
X1887D1*
X2192D2*
X2288D1*
X2562D2*
X2624D1*
X1096Y2448D2*
X1157D1*
X1399D2*
X1482D1*
X1844D2*
X1887D1*
X2249D2*
X2316D1*
X2559D2*
X2629D1*
X1105Y2418D2*
X1165D1*
X1377D2*
X1437D1*
X1857D2*
X1887D1*
X2307D2*
X2337D1*
X2550D2*
X2622D1*
X1117Y2388D2*
X1177D1*
X2538D2*
X2611D1*
X1131Y2358D2*
X1192D1*
X2524D2*
X2595D1*
X1145Y2328D2*
X1209D1*
X2510D2*
X2576D1*
X1161Y2298D2*
X1227D1*
X2494D2*
X2558D1*
X1179Y2268D2*
X1242D1*
X2475D2*
X2541D1*
X1198Y2238D2*
X1251D1*
X2452D2*
X2524D1*
X1218Y2208D2*
X2505D1*
X1237Y2178D2*
X2482D1*
X1257Y2148D2*
X2457D1*
X3653Y957D2*
Y947D1*
Y937D1*
Y927D1*
Y917D1*
Y907D1*
Y897D1*
Y887D1*
Y877D1*
Y867D1*
Y857D1*
Y847D1*
Y837D1*
Y827D1*
Y817D1*
Y807D1*
Y797D1*
Y787D1*
Y777D1*
Y767D1*
Y757D1*
Y747D1*
Y737D1*
Y727D1*
Y717D1*
Y707D1*
Y697D1*
Y687D1*
Y677D1*
Y667D1*
Y657D1*
Y647D1*
Y637D1*
Y627D1*
Y617D1*
Y607D1*
Y597D1*
Y587D1*
Y577D1*
Y567D1*
X3873Y957D2*
X3897Y947D1*
X3915Y937D1*
X3929Y927D1*
X3940Y917D1*
X3948Y907D1*
X3954Y897D1*
X3958Y887D1*
X3961Y877D1*
X3962Y867D1*
Y857D1*
Y847D1*
X3961Y837D1*
X3957Y827D1*
X3952Y817D1*
X3946Y807D1*
X3939Y797D1*
X3929Y787D1*
X3914Y777D1*
X3897Y767D1*
X3879Y757D1*
X3865Y747D1*
X3857Y737D1*
X3864Y727D1*
X3873Y717D1*
X3883Y707D1*
X3893Y697D1*
X3902Y687D1*
X3911Y677D1*
X3918Y667D1*
X3925Y657D1*
X3930Y647D1*
X3936Y637D1*
X3943Y627D1*
X3950Y617D1*
X3956Y607D1*
X3963Y597D1*
X3969Y587D1*
X3976Y577D1*
X3983Y567D1*
X4873Y957D2*
Y947D1*
Y937D1*
Y927D1*
Y917D1*
Y907D1*
Y897D1*
Y887D1*
Y877D1*
Y867D1*
Y857D1*
Y847D1*
Y837D1*
Y827D1*
Y817D1*
Y807D1*
Y797D1*
Y787D1*
Y777D1*
Y767D1*
Y757D1*
Y747D1*
Y737D1*
Y727D1*
Y717D1*
Y707D1*
Y697D1*
Y687D1*
Y677D1*
Y667D1*
Y657D1*
Y647D1*
Y637D1*
Y627D1*
Y617D1*
Y607D1*
Y597D1*
Y587D1*
Y577D1*
Y567D1*
X5063Y957D2*
X5082Y947D1*
X5098Y937D1*
X5110Y927D1*
X5120Y917D1*
X5128Y907D1*
X5134Y897D1*
X5138Y887D1*
X5141Y877D1*
X5142Y867D1*
Y857D1*
X5141Y847D1*
X5138Y837D1*
X5134Y827D1*
X5128Y817D1*
X5119Y807D1*
X5110Y797D1*
X5101Y787D1*
X5098Y777D1*
X5100Y767D1*
X5110Y757D1*
X5121Y747D1*
X5132Y737D1*
X5142Y727D1*
X5150Y717D1*
X5157Y707D1*
X5160Y697D1*
X5162Y687D1*
Y677D1*
X5163Y667D1*
X5162Y657D1*
X5161Y647D1*
X5158Y637D1*
X5154Y627D1*
X5148Y617D1*
X5140Y607D1*
X5129Y597D1*
X5114Y587D1*
X5095Y577D1*
X5073Y567D1*
X1123Y947D2*
X1113Y937D1*
X1103Y927D1*
X1093Y917D1*
X1083Y907D1*
X1072Y897D1*
X1061Y887D1*
X1047Y877D1*
X1032Y867D1*
X1017Y857D1*
X1003Y847D1*
X1133Y947D2*
Y937D1*
Y927D1*
Y917D1*
Y907D1*
Y897D1*
Y887D1*
Y877D1*
Y867D1*
Y857D1*
Y847D1*
Y837D1*
Y827D1*
Y817D1*
Y807D1*
Y797D1*
Y787D1*
Y777D1*
Y767D1*
Y757D1*
Y747D1*
Y737D1*
Y727D1*
Y717D1*
Y707D1*
Y697D1*
Y687D1*
Y677D1*
Y667D1*
Y657D1*
Y647D1*
Y637D1*
Y627D1*
Y617D1*
Y607D1*
Y597D1*
Y587D1*
Y577D1*
Y567D1*
X1393Y947D2*
X1374Y937D1*
X1358Y927D1*
X1345Y917D1*
X1334Y907D1*
X1325Y897D1*
X1317Y887D1*
X1312Y877D1*
X1307Y867D1*
X1304Y857D1*
X1302Y847D1*
X1299Y837D1*
X1296Y827D1*
X1294Y817D1*
Y807D1*
X1293Y797D1*
Y787D1*
Y777D1*
Y767D1*
Y757D1*
Y747D1*
Y737D1*
Y727D1*
Y717D1*
Y707D1*
X1294Y697D1*
X1297Y687D1*
X1299Y677D1*
X1302Y667D1*
X1304Y657D1*
X1307Y647D1*
X1311Y637D1*
X1317Y627D1*
X1324Y617D1*
X1331Y607D1*
X1341Y597D1*
X1355Y587D1*
X1373Y577D1*
X1393Y567D1*
X1443Y947D2*
X1459Y937D1*
X1473Y927D1*
X1484Y917D1*
X1494Y907D1*
X1502Y897D1*
X1509Y887D1*
X1514Y877D1*
X1519Y867D1*
X1522Y857D1*
X1526Y847D1*
X1529Y837D1*
X1531Y827D1*
X1532Y817D1*
X1533Y807D1*
Y797D1*
Y787D1*
Y777D1*
Y767D1*
Y757D1*
Y747D1*
Y737D1*
Y727D1*
Y717D1*
Y707D1*
X1532Y697D1*
X1531Y687D1*
X1529Y677D1*
X1526Y667D1*
X1523Y657D1*
X1519Y647D1*
X1514Y637D1*
X1509Y627D1*
X1502Y617D1*
X1494Y607D1*
X1485Y597D1*
X1472Y587D1*
X1458Y577D1*
X1443Y567D1*
X1723Y947D2*
X1704Y937D1*
X1688Y927D1*
X1675Y917D1*
X1664Y907D1*
X1655Y897D1*
X1647Y887D1*
X1642Y877D1*
X1637Y867D1*
X1634Y857D1*
X1632Y847D1*
X1629Y837D1*
X1626Y827D1*
X1624Y817D1*
Y807D1*
X1623Y797D1*
Y787D1*
Y777D1*
Y767D1*
Y757D1*
Y747D1*
Y737D1*
Y727D1*
Y717D1*
Y707D1*
X1624Y697D1*
X1627Y687D1*
X1629Y677D1*
X1632Y667D1*
X1634Y657D1*
X1637Y647D1*
X1641Y637D1*
X1647Y627D1*
X1654Y617D1*
X1661Y607D1*
X1671Y597D1*
X1685Y587D1*
X1703Y577D1*
X1723Y567D1*
X1773Y947D2*
X1789Y937D1*
X1803Y927D1*
X1814Y917D1*
X1824Y907D1*
X1832Y897D1*
X1839Y887D1*
X1844Y877D1*
X1849Y867D1*
X1852Y857D1*
X1856Y847D1*
X1859Y837D1*
X1861Y827D1*
X1862Y817D1*
X1863Y807D1*
Y797D1*
Y787D1*
Y777D1*
Y767D1*
Y757D1*
Y747D1*
Y737D1*
Y727D1*
Y717D1*
Y707D1*
X1862Y697D1*
X1861Y687D1*
X1859Y677D1*
X1856Y667D1*
X1853Y657D1*
X1849Y647D1*
X1844Y637D1*
X1839Y627D1*
X1832Y617D1*
X1824Y607D1*
X1815Y597D1*
X1802Y587D1*
X1788Y577D1*
X1773Y567D1*
X2253Y947D2*
X2234Y937D1*
X2218Y927D1*
X2205Y917D1*
X2194Y907D1*
X2185Y897D1*
X2177Y887D1*
X2172Y877D1*
X2167Y867D1*
X2164Y857D1*
X2162Y847D1*
X2159Y837D1*
X2156Y827D1*
X2154Y817D1*
Y807D1*
X2153Y797D1*
Y787D1*
Y777D1*
Y767D1*
Y757D1*
Y747D1*
Y737D1*
Y727D1*
Y717D1*
Y707D1*
X2154Y697D1*
X2157Y687D1*
X2159Y677D1*
X2162Y667D1*
X2164Y657D1*
X2167Y647D1*
X2171Y637D1*
X2177Y627D1*
X2184Y617D1*
X2191Y607D1*
X2201Y597D1*
X2215Y587D1*
X2233Y577D1*
X2253Y567D1*
X2303Y947D2*
X2319Y937D1*
X2333Y927D1*
X2344Y917D1*
X2354Y907D1*
X2362Y897D1*
X2369Y887D1*
X2374Y877D1*
X2379Y867D1*
X2382Y857D1*
X2386Y847D1*
X2389Y837D1*
X2391Y827D1*
X2392Y817D1*
X2393Y807D1*
Y797D1*
Y787D1*
Y777D1*
Y767D1*
Y757D1*
Y747D1*
Y737D1*
Y727D1*
Y717D1*
Y707D1*
X2392Y697D1*
X2391Y687D1*
X2389Y677D1*
X2386Y667D1*
X2383Y657D1*
X2379Y647D1*
X2374Y637D1*
X2369Y627D1*
X2362Y617D1*
X2354Y607D1*
X2345Y597D1*
X2332Y587D1*
X2318Y577D1*
X2303Y567D1*
X2583Y947D2*
X2564Y937D1*
X2548Y927D1*
X2535Y917D1*
X2524Y907D1*
X2515Y897D1*
X2507Y887D1*
X2502Y877D1*
X2497Y867D1*
X2494Y857D1*
X2492Y847D1*
X2489Y837D1*
X2486Y827D1*
X2484Y817D1*
Y807D1*
X2483Y797D1*
Y787D1*
Y777D1*
Y767D1*
Y757D1*
Y747D1*
Y737D1*
Y727D1*
Y717D1*
Y707D1*
X2484Y697D1*
X2487Y687D1*
X2489Y677D1*
X2492Y667D1*
X2494Y657D1*
X2497Y647D1*
X2501Y637D1*
X2507Y627D1*
X2514Y617D1*
X2521Y607D1*
X2531Y597D1*
X2545Y587D1*
X2563Y577D1*
X2583Y567D1*
X2633Y947D2*
X2649Y937D1*
X2663Y927D1*
X2674Y917D1*
X2684Y907D1*
X2692Y897D1*
X2699Y887D1*
X2704Y877D1*
X2709Y867D1*
X2712Y857D1*
X2716Y847D1*
X2719Y837D1*
X2721Y827D1*
X2722Y817D1*
X2723Y807D1*
Y797D1*
Y787D1*
Y777D1*
Y767D1*
Y757D1*
Y747D1*
Y737D1*
Y727D1*
Y717D1*
Y707D1*
X2722Y697D1*
X2721Y687D1*
X2719Y677D1*
X2716Y667D1*
X2713Y657D1*
X2709Y647D1*
X2704Y637D1*
X2699Y627D1*
X2692Y617D1*
X2684Y607D1*
X2675Y597D1*
X2662Y587D1*
X2648Y577D1*
X2633Y567D1*
X2913Y947D2*
X2894Y937D1*
X2878Y927D1*
X2865Y917D1*
X2854Y907D1*
X2845Y897D1*
X2837Y887D1*
X2832Y877D1*
X2827Y867D1*
X2824Y857D1*
X2822Y847D1*
X2819Y837D1*
X2816Y827D1*
X2814Y817D1*
Y807D1*
X2813Y797D1*
Y787D1*
Y777D1*
Y767D1*
Y757D1*
Y747D1*
Y737D1*
Y727D1*
Y717D1*
Y707D1*
X2814Y697D1*
X2817Y687D1*
X2819Y677D1*
X2822Y667D1*
X2824Y657D1*
X2827Y647D1*
X2831Y637D1*
X2837Y627D1*
X2844Y617D1*
X2851Y607D1*
X2861Y597D1*
X2875Y587D1*
X2893Y577D1*
X2913Y567D1*
X2963Y947D2*
X2979Y937D1*
X2993Y927D1*
X3004Y917D1*
X3014Y907D1*
X3022Y897D1*
X3029Y887D1*
X3034Y877D1*
X3039Y867D1*
X3042Y857D1*
X3046Y847D1*
X3049Y837D1*
X3051Y827D1*
X3052Y817D1*
X3053Y807D1*
Y797D1*
Y787D1*
Y777D1*
Y767D1*
Y757D1*
Y747D1*
Y737D1*
Y727D1*
Y717D1*
Y707D1*
X3052Y697D1*
X3051Y687D1*
X3049Y677D1*
X3046Y667D1*
X3043Y657D1*
X3039Y647D1*
X3034Y637D1*
X3029Y627D1*
X3022Y617D1*
X3014Y607D1*
X3005Y597D1*
X2992Y587D1*
X2978Y577D1*
X2963Y567D1*
X3303Y947D2*
X3293Y937D1*
X3283Y927D1*
X3273Y917D1*
X3263Y907D1*
X3252Y897D1*
X3241Y887D1*
X3227Y877D1*
X3213Y867D1*
X3200Y857D1*
X3190Y847D1*
X3183Y837D1*
X3313Y947D2*
Y937D1*
Y927D1*
Y917D1*
Y907D1*
Y897D1*
Y887D1*
Y877D1*
Y867D1*
Y857D1*
Y847D1*
Y837D1*
Y827D1*
Y817D1*
Y807D1*
Y797D1*
Y787D1*
Y777D1*
Y767D1*
Y757D1*
Y747D1*
Y737D1*
Y727D1*
Y717D1*
Y707D1*
Y697D1*
Y687D1*
Y677D1*
Y667D1*
Y657D1*
Y647D1*
Y637D1*
Y627D1*
Y617D1*
Y607D1*
Y597D1*
Y587D1*
Y577D1*
Y567D1*
X3683Y937D2*
Y927D1*
Y917D1*
Y907D1*
Y897D1*
Y887D1*
Y877D1*
Y867D1*
Y857D1*
Y847D1*
Y837D1*
Y827D1*
Y817D1*
Y807D1*
Y797D1*
Y787D1*
Y777D1*
X3853Y937D2*
X3879Y927D1*
X3900Y917D1*
X3917Y907D1*
X3926Y897D1*
X3930Y887D1*
X3931Y877D1*
X3932Y867D1*
X3933Y857D1*
X3932Y847D1*
X3931Y837D1*
X3928Y827D1*
X3923Y817D1*
X3912Y807D1*
X3898Y797D1*
X3881Y787D1*
X3863Y777D1*
X4903Y937D2*
Y927D1*
Y917D1*
Y907D1*
Y897D1*
Y887D1*
Y877D1*
Y867D1*
Y857D1*
Y847D1*
Y837D1*
Y827D1*
Y817D1*
Y807D1*
Y797D1*
Y787D1*
Y777D1*
X5063Y937D2*
X5080Y927D1*
X5095Y917D1*
X5106Y907D1*
X5113Y897D1*
X5118Y887D1*
X5121Y877D1*
X5122Y867D1*
Y857D1*
Y847D1*
X5121Y837D1*
X5118Y827D1*
X5114Y817D1*
X5109Y807D1*
X5103Y797D1*
X1393Y927D2*
X1375Y917D1*
X1359Y907D1*
X1347Y897D1*
X1338Y887D1*
X1332Y877D1*
X1327Y867D1*
X1325Y857D1*
X1323Y847D1*
X1321Y837D1*
X1319Y827D1*
X1316Y817D1*
X1314Y807D1*
Y797D1*
X1313Y787D1*
Y777D1*
Y767D1*
Y757D1*
Y747D1*
Y737D1*
Y727D1*
Y717D1*
Y707D1*
X1314Y697D1*
X1317Y687D1*
X1319Y677D1*
X1322Y667D1*
X1324Y657D1*
X1327Y647D1*
X1331Y637D1*
X1338Y627D1*
X1347Y617D1*
X1373Y607D1*
X1413Y597D1*
X1463Y587D1*
X1433Y927D2*
X1451Y917D1*
X1466Y907D1*
X1478Y897D1*
X1487Y887D1*
X1494Y877D1*
X1498Y867D1*
X1501Y857D1*
X1504Y847D1*
X1507Y837D1*
X1509Y827D1*
X1511Y817D1*
X1512Y807D1*
X1513Y797D1*
Y787D1*
Y777D1*
Y767D1*
Y757D1*
Y747D1*
Y737D1*
Y727D1*
Y717D1*
X1512Y707D1*
X1511Y697D1*
X1509Y687D1*
X1506Y677D1*
X1504Y667D1*
X1502Y657D1*
X1499Y647D1*
X1494Y637D1*
X1488Y627D1*
X1479Y617D1*
X1453Y607D1*
X1412Y597D1*
X1363Y587D1*
X1723Y927D2*
X1705Y917D1*
X1689Y907D1*
X1677Y897D1*
X1668Y887D1*
X1662Y877D1*
X1657Y867D1*
X1655Y857D1*
X1653Y847D1*
X1651Y837D1*
X1649Y827D1*
X1646Y817D1*
X1644Y807D1*
Y797D1*
X1643Y787D1*
Y777D1*
Y767D1*
Y757D1*
Y747D1*
Y737D1*
Y727D1*
Y717D1*
Y707D1*
X1644Y697D1*
X1647Y687D1*
X1649Y677D1*
X1652Y667D1*
X1654Y657D1*
X1657Y647D1*
X1661Y637D1*
X1668Y627D1*
X1677Y617D1*
X1703Y607D1*
X1743Y597D1*
X1793Y587D1*
X1763Y927D2*
X1781Y917D1*
X1796Y907D1*
X1808Y897D1*
X1817Y887D1*
X1824Y877D1*
X1828Y867D1*
X1831Y857D1*
X1834Y847D1*
X1837Y837D1*
X1839Y827D1*
X1841Y817D1*
X1842Y807D1*
X1843Y797D1*
Y787D1*
Y777D1*
Y767D1*
Y757D1*
Y747D1*
Y737D1*
Y727D1*
Y717D1*
X1842Y707D1*
X1841Y697D1*
X1839Y687D1*
X1836Y677D1*
X1834Y667D1*
X1832Y657D1*
X1829Y647D1*
X1824Y637D1*
X1818Y627D1*
X1809Y617D1*
X1783Y607D1*
X1742Y597D1*
X1693Y587D1*
X2253Y927D2*
X2235Y917D1*
X2219Y907D1*
X2207Y897D1*
X2198Y887D1*
X2192Y877D1*
X2187Y867D1*
X2185Y857D1*
X2183Y847D1*
X2181Y837D1*
X2179Y827D1*
X2176Y817D1*
X2174Y807D1*
Y797D1*
X2173Y787D1*
Y777D1*
Y767D1*
Y757D1*
Y747D1*
Y737D1*
Y727D1*
Y717D1*
Y707D1*
X2174Y697D1*
X2177Y687D1*
X2179Y677D1*
X2182Y667D1*
X2184Y657D1*
X2187Y647D1*
X2191Y637D1*
X2198Y627D1*
X2207Y617D1*
X2233Y607D1*
X2273Y597D1*
X2323Y587D1*
X2293Y927D2*
X2311Y917D1*
X2326Y907D1*
X2338Y897D1*
X2347Y887D1*
X2354Y877D1*
X2358Y867D1*
X2361Y857D1*
X2364Y847D1*
X2367Y837D1*
X2369Y827D1*
X2371Y817D1*
X2372Y807D1*
X2373Y797D1*
Y787D1*
Y777D1*
Y767D1*
Y757D1*
Y747D1*
Y737D1*
Y727D1*
Y717D1*
X2372Y707D1*
X2371Y697D1*
X2369Y687D1*
X2366Y677D1*
X2364Y667D1*
X2362Y657D1*
X2359Y647D1*
X2354Y637D1*
X2348Y627D1*
X2339Y617D1*
X2313Y607D1*
X2272Y597D1*
X2223Y587D1*
X2583Y927D2*
X2565Y917D1*
X2549Y907D1*
X2537Y897D1*
X2528Y887D1*
X2522Y877D1*
X2517Y867D1*
X2515Y857D1*
X2513Y847D1*
X2511Y837D1*
X2509Y827D1*
X2506Y817D1*
X2504Y807D1*
Y797D1*
X2503Y787D1*
Y777D1*
Y767D1*
Y757D1*
Y747D1*
Y737D1*
Y727D1*
Y717D1*
Y707D1*
X2504Y697D1*
X2507Y687D1*
X2509Y677D1*
X2512Y667D1*
X2514Y657D1*
X2517Y647D1*
X2521Y637D1*
X2528Y627D1*
X2537Y617D1*
X2563Y607D1*
X2603Y597D1*
X2653Y587D1*
X2623Y927D2*
X2641Y917D1*
X2656Y907D1*
X2668Y897D1*
X2677Y887D1*
X2684Y877D1*
X2688Y867D1*
X2691Y857D1*
X2694Y847D1*
X2697Y837D1*
X2699Y827D1*
X2701Y817D1*
X2702Y807D1*
X2703Y797D1*
Y787D1*
Y777D1*
Y767D1*
Y757D1*
Y747D1*
Y737D1*
Y727D1*
Y717D1*
X2702Y707D1*
X2701Y697D1*
X2699Y687D1*
X2696Y677D1*
X2694Y667D1*
X2692Y657D1*
X2689Y647D1*
X2684Y637D1*
X2678Y627D1*
X2669Y617D1*
X2643Y607D1*
X2602Y597D1*
X2553Y587D1*
X2913Y927D2*
X2895Y917D1*
X2879Y907D1*
X2867Y897D1*
X2858Y887D1*
X2852Y877D1*
X2847Y867D1*
X2845Y857D1*
X2843Y847D1*
X2841Y837D1*
X2839Y827D1*
X2836Y817D1*
X2834Y807D1*
Y797D1*
X2833Y787D1*
Y777D1*
Y767D1*
Y757D1*
Y747D1*
Y737D1*
Y727D1*
Y717D1*
Y707D1*
X2834Y697D1*
X2837Y687D1*
X2839Y677D1*
X2842Y667D1*
X2844Y657D1*
X2847Y647D1*
X2851Y637D1*
X2858Y627D1*
X2867Y617D1*
X2893Y607D1*
X2933Y597D1*
X2983Y587D1*
X2953Y927D2*
X2971Y917D1*
X2986Y907D1*
X2998Y897D1*
X3007Y887D1*
X3014Y877D1*
X3018Y867D1*
X3021Y857D1*
X3024Y847D1*
X3027Y837D1*
X3029Y827D1*
X3031Y817D1*
X3032Y807D1*
X3033Y797D1*
Y787D1*
Y777D1*
Y767D1*
Y757D1*
Y747D1*
Y737D1*
Y727D1*
Y717D1*
X3032Y707D1*
X3031Y697D1*
X3029Y687D1*
X3026Y677D1*
X3024Y667D1*
X3022Y657D1*
X3019Y647D1*
X3014Y637D1*
X3008Y627D1*
X2999Y617D1*
X2973Y607D1*
X2932Y597D1*
X2883Y587D1*
X1053Y867D2*
X1038Y857D1*
X1023Y847D1*
X1103Y877D2*
Y867D1*
Y857D1*
Y847D1*
Y837D1*
Y827D1*
Y817D1*
Y807D1*
Y797D1*
Y787D1*
Y777D1*
Y767D1*
Y757D1*
Y747D1*
Y737D1*
Y727D1*
Y717D1*
Y707D1*
Y697D1*
Y687D1*
Y677D1*
Y667D1*
Y657D1*
Y647D1*
Y637D1*
Y627D1*
Y617D1*
Y607D1*
Y597D1*
Y587D1*
Y577D1*
Y567D1*
X3233Y867D2*
X3217Y857D1*
X3201Y847D1*
X3183Y837D1*
X3283Y877D2*
Y867D1*
Y857D1*
Y847D1*
Y837D1*
Y827D1*
Y817D1*
Y807D1*
Y797D1*
Y787D1*
Y777D1*
Y767D1*
Y757D1*
Y747D1*
Y737D1*
Y727D1*
Y717D1*
Y707D1*
Y697D1*
Y687D1*
Y677D1*
Y667D1*
Y657D1*
Y647D1*
Y637D1*
Y627D1*
Y617D1*
Y607D1*
Y597D1*
Y587D1*
Y577D1*
Y567D1*
X4163Y857D2*
X4140Y847D1*
X4121Y837D1*
X4107Y827D1*
X4096Y817D1*
X4088Y807D1*
X4081Y797D1*
X4076Y787D1*
X4071Y777D1*
X4067Y767D1*
X4064Y757D1*
X4062Y747D1*
X4059Y737D1*
X4056Y727D1*
X4055Y717D1*
X4054Y707D1*
X4055Y697D1*
X4057Y687D1*
X4060Y677D1*
X4062Y667D1*
X4064Y657D1*
X4067Y647D1*
X4071Y637D1*
X4076Y627D1*
X4081Y617D1*
X4087Y607D1*
X4095Y597D1*
X4106Y587D1*
X4121Y577D1*
X4141Y567D1*
X4163Y557D1*
X4213Y857D2*
X4231Y847D1*
X4247Y837D1*
X4260Y827D1*
X4271Y817D1*
X4281Y807D1*
X4288Y797D1*
X4294Y787D1*
X4298Y777D1*
X4301Y767D1*
X4304Y757D1*
X4307Y747D1*
X4309Y737D1*
X4311Y727D1*
X4312Y717D1*
X4313Y707D1*
X4393Y847D2*
X4394Y837D1*
X4397Y827D1*
X4401Y817D1*
X4405Y807D1*
X4409Y797D1*
X4413Y787D1*
X4416Y777D1*
X4420Y767D1*
X4423Y757D1*
X4427Y747D1*
X4431Y737D1*
X4435Y727D1*
X4439Y717D1*
X4443Y707D1*
X4446Y697D1*
X4450Y687D1*
X4453Y677D1*
X4457Y667D1*
X4461Y657D1*
X4465Y647D1*
X4469Y637D1*
X4473Y627D1*
X4476Y617D1*
X4480Y607D1*
X4483Y597D1*
X4486Y587D1*
X4490Y577D1*
X4493Y567D1*
X4413Y847D2*
X4414Y837D1*
X4417Y827D1*
X4420Y817D1*
X4423Y807D1*
X4426Y797D1*
X4430Y787D1*
X4433Y777D1*
X4436Y767D1*
X4440Y757D1*
X4443Y747D1*
X4447Y737D1*
X4451Y727D1*
X4455Y717D1*
X4459Y707D1*
X4463Y697D1*
X4466Y687D1*
X4470Y677D1*
X4473Y667D1*
X4476Y657D1*
X4480Y647D1*
X4485Y637D1*
X4498Y627D1*
X4513Y617D1*
X4603Y847D2*
X4601Y837D1*
X4599Y827D1*
X4596Y817D1*
X4593Y807D1*
X4589Y797D1*
X4585Y787D1*
X4580Y777D1*
X4577Y767D1*
X4573Y757D1*
X4570Y747D1*
X4566Y737D1*
X4563Y727D1*
X4559Y717D1*
X4556Y707D1*
X4553Y697D1*
X4549Y687D1*
X4545Y677D1*
X4540Y667D1*
X4536Y657D1*
X4532Y647D1*
X4524Y637D1*
X4505Y627D1*
X4483Y617D1*
X4623Y847D2*
X4619Y837D1*
X4616Y827D1*
X4613Y817D1*
X4609Y807D1*
X4605Y797D1*
X4600Y787D1*
X4597Y777D1*
X4593Y767D1*
X4590Y757D1*
X4586Y747D1*
X4583Y737D1*
X4579Y727D1*
X4575Y717D1*
X4570Y707D1*
X4567Y697D1*
X4563Y687D1*
X4560Y677D1*
X4556Y667D1*
X4553Y657D1*
X4549Y647D1*
X4545Y637D1*
X4540Y627D1*
X4537Y617D1*
X4533Y607D1*
X4530Y597D1*
X4526Y587D1*
X4524Y577D1*
X4523Y567D1*
X4163Y837D2*
X4143Y827D1*
X4125Y817D1*
X4111Y807D1*
X4100Y797D1*
X4093Y787D1*
X4088Y777D1*
X4085Y767D1*
X4084Y757D1*
X4083Y747D1*
Y737D1*
Y727D1*
X4213Y837D2*
X4231Y827D1*
X4246Y817D1*
X4258Y807D1*
X4267Y797D1*
X4274Y787D1*
X4278Y777D1*
X4281Y767D1*
X4282Y757D1*
Y747D1*
X4283Y737D1*
Y727D1*
X5073Y787D2*
Y777D1*
X3683Y757D2*
Y747D1*
Y737D1*
Y727D1*
Y717D1*
Y707D1*
Y697D1*
Y687D1*
Y677D1*
Y667D1*
Y657D1*
Y647D1*
Y637D1*
Y627D1*
Y617D1*
Y607D1*
Y597D1*
Y587D1*
Y577D1*
Y567D1*
X3793Y757D2*
X3811Y747D1*
X3827Y737D1*
X3840Y727D1*
X3850Y717D1*
X3858Y707D1*
X3866Y697D1*
X3874Y687D1*
X3882Y677D1*
X3889Y667D1*
X3896Y657D1*
X3903Y647D1*
X3909Y637D1*
X3916Y627D1*
X3923Y617D1*
X3929Y607D1*
X3935Y597D1*
X3940Y587D1*
X3946Y577D1*
X3953Y567D1*
X4903Y757D2*
Y747D1*
Y737D1*
Y727D1*
Y717D1*
Y707D1*
Y697D1*
Y687D1*
Y677D1*
Y667D1*
Y657D1*
Y647D1*
Y637D1*
Y627D1*
Y617D1*
Y607D1*
Y597D1*
Y587D1*
X5053Y757D2*
X5079Y747D1*
X5100Y737D1*
X5117Y727D1*
X5126Y717D1*
X5130Y707D1*
X5131Y697D1*
X5132Y687D1*
X5133Y677D1*
Y667D1*
Y657D1*
X5132Y647D1*
X5131Y637D1*
X5127Y627D1*
X5118Y617D1*
X5106Y607D1*
X5090Y597D1*
X5073Y587D1*
X1943Y717D2*
Y707D1*
Y697D1*
X2083Y717D2*
Y707D1*
Y697D1*
X4083Y707D2*
Y697D1*
Y687D1*
Y677D1*
Y667D1*
X4085Y657D1*
X4087Y647D1*
X4092Y637D1*
X4097Y627D1*
X4106Y617D1*
X4116Y607D1*
X4144Y597D1*
X4188Y587D1*
X4243Y577D1*
X4273Y617D2*
X4262Y607D1*
X4233Y597D1*
X4188Y587D1*
X4133Y577D1*
X4303Y617D2*
X4293Y607D1*
X4283Y597D1*
X4272Y587D1*
X4259Y577D1*
X4242Y567D1*
X4223Y557D1*
X3653Y1707D2*
Y1697D1*
Y1687D1*
Y1677D1*
Y1667D1*
Y1657D1*
Y1647D1*
Y1637D1*
Y1627D1*
Y1617D1*
Y1607D1*
Y1597D1*
Y1587D1*
Y1577D1*
Y1567D1*
Y1557D1*
Y1547D1*
Y1537D1*
Y1527D1*
Y1517D1*
Y1507D1*
Y1497D1*
Y1487D1*
Y1477D1*
Y1467D1*
Y1457D1*
Y1447D1*
Y1437D1*
Y1427D1*
Y1417D1*
Y1407D1*
Y1397D1*
Y1387D1*
Y1377D1*
Y1367D1*
Y1357D1*
Y1347D1*
Y1337D1*
Y1327D1*
Y1317D1*
X3873Y1707D2*
X3897Y1697D1*
X3915Y1687D1*
X3929Y1677D1*
X3940Y1667D1*
X3948Y1657D1*
X3954Y1647D1*
X3958Y1637D1*
X3961Y1627D1*
X3962Y1617D1*
Y1607D1*
Y1597D1*
X3961Y1587D1*
X3957Y1577D1*
X3952Y1567D1*
X3946Y1557D1*
X3939Y1547D1*
X3929Y1537D1*
X3914Y1527D1*
X3897Y1517D1*
X3879Y1507D1*
X3865Y1497D1*
X3857Y1487D1*
X3864Y1477D1*
X3873Y1467D1*
X3883Y1457D1*
X3893Y1447D1*
X3902Y1437D1*
X3911Y1427D1*
X3918Y1417D1*
X3925Y1407D1*
X3930Y1397D1*
X3936Y1387D1*
X3943Y1377D1*
X3950Y1367D1*
X3956Y1357D1*
X3963Y1347D1*
X3969Y1337D1*
X3976Y1327D1*
X3983Y1317D1*
X1123Y1697D2*
X1113Y1687D1*
X1103Y1677D1*
X1093Y1667D1*
X1083Y1657D1*
X1072Y1647D1*
X1061Y1637D1*
X1047Y1627D1*
X1032Y1617D1*
X1017Y1607D1*
X1003Y1597D1*
X1133Y1697D2*
Y1687D1*
Y1677D1*
Y1667D1*
Y1657D1*
Y1647D1*
Y1637D1*
Y1627D1*
Y1617D1*
Y1607D1*
Y1597D1*
Y1587D1*
Y1577D1*
Y1567D1*
Y1557D1*
Y1547D1*
Y1537D1*
Y1527D1*
Y1517D1*
Y1507D1*
Y1497D1*
Y1487D1*
Y1477D1*
Y1467D1*
Y1457D1*
Y1447D1*
Y1437D1*
Y1427D1*
Y1417D1*
Y1407D1*
Y1397D1*
Y1387D1*
Y1377D1*
Y1367D1*
Y1357D1*
Y1347D1*
Y1337D1*
Y1327D1*
Y1317D1*
X1393Y1697D2*
X1374Y1687D1*
X1358Y1677D1*
X1345Y1667D1*
X1334Y1657D1*
X1325Y1647D1*
X1317Y1637D1*
X1312Y1627D1*
X1307Y1617D1*
X1304Y1607D1*
X1302Y1597D1*
X1299Y1587D1*
X1296Y1577D1*
X1294Y1567D1*
Y1557D1*
X1293Y1547D1*
Y1537D1*
Y1527D1*
Y1517D1*
Y1507D1*
Y1497D1*
Y1487D1*
Y1477D1*
Y1467D1*
Y1457D1*
X1294Y1447D1*
X1297Y1437D1*
X1299Y1427D1*
X1302Y1417D1*
X1304Y1407D1*
X1307Y1397D1*
X1311Y1387D1*
X1317Y1377D1*
X1324Y1367D1*
X1331Y1357D1*
X1341Y1347D1*
X1355Y1337D1*
X1373Y1327D1*
X1393Y1317D1*
X1443Y1697D2*
X1459Y1687D1*
X1473Y1677D1*
X1484Y1667D1*
X1494Y1657D1*
X1502Y1647D1*
X1509Y1637D1*
X1514Y1627D1*
X1519Y1617D1*
X1522Y1607D1*
X1526Y1597D1*
X1529Y1587D1*
X1531Y1577D1*
X1532Y1567D1*
X1533Y1557D1*
Y1547D1*
Y1537D1*
Y1527D1*
Y1517D1*
Y1507D1*
Y1497D1*
Y1487D1*
Y1477D1*
Y1467D1*
Y1457D1*
X1532Y1447D1*
X1531Y1437D1*
X1529Y1427D1*
X1526Y1417D1*
X1523Y1407D1*
X1519Y1397D1*
X1514Y1387D1*
X1509Y1377D1*
X1502Y1367D1*
X1494Y1357D1*
X1485Y1347D1*
X1472Y1337D1*
X1458Y1327D1*
X1443Y1317D1*
X1783Y1697D2*
X1773Y1687D1*
X1763Y1677D1*
X1753Y1667D1*
X1743Y1657D1*
X1732Y1647D1*
X1721Y1637D1*
X1707Y1627D1*
X1693Y1617D1*
X1680Y1607D1*
X1670Y1597D1*
X1663Y1587D1*
X1793Y1697D2*
Y1687D1*
Y1677D1*
Y1667D1*
Y1657D1*
Y1647D1*
Y1637D1*
Y1627D1*
Y1617D1*
Y1607D1*
Y1597D1*
Y1587D1*
Y1577D1*
Y1567D1*
Y1557D1*
Y1547D1*
Y1537D1*
Y1527D1*
Y1517D1*
Y1507D1*
Y1497D1*
Y1487D1*
Y1477D1*
Y1467D1*
Y1457D1*
Y1447D1*
Y1437D1*
Y1427D1*
Y1417D1*
Y1407D1*
Y1397D1*
Y1387D1*
Y1377D1*
Y1367D1*
Y1357D1*
Y1347D1*
Y1337D1*
Y1327D1*
Y1317D1*
X2253Y1697D2*
X2234Y1687D1*
X2218Y1677D1*
X2205Y1667D1*
X2194Y1657D1*
X2185Y1647D1*
X2177Y1637D1*
X2172Y1627D1*
X2167Y1617D1*
X2164Y1607D1*
X2162Y1597D1*
X2159Y1587D1*
X2156Y1577D1*
X2154Y1567D1*
Y1557D1*
X2153Y1547D1*
Y1537D1*
Y1527D1*
Y1517D1*
Y1507D1*
Y1497D1*
Y1487D1*
Y1477D1*
Y1467D1*
Y1457D1*
X2154Y1447D1*
X2157Y1437D1*
X2159Y1427D1*
X2162Y1417D1*
X2164Y1407D1*
X2167Y1397D1*
X2171Y1387D1*
X2177Y1377D1*
X2184Y1367D1*
X2191Y1357D1*
X2201Y1347D1*
X2215Y1337D1*
X2233Y1327D1*
X2253Y1317D1*
X2303Y1697D2*
X2319Y1687D1*
X2333Y1677D1*
X2344Y1667D1*
X2354Y1657D1*
X2362Y1647D1*
X2369Y1637D1*
X2374Y1627D1*
X2379Y1617D1*
X2382Y1607D1*
X2386Y1597D1*
X2389Y1587D1*
X2391Y1577D1*
X2392Y1567D1*
X2393Y1557D1*
Y1547D1*
Y1537D1*
Y1527D1*
Y1517D1*
Y1507D1*
Y1497D1*
Y1487D1*
Y1477D1*
Y1467D1*
Y1457D1*
X2392Y1447D1*
X2391Y1437D1*
X2389Y1427D1*
X2386Y1417D1*
X2383Y1407D1*
X2379Y1397D1*
X2374Y1387D1*
X2369Y1377D1*
X2362Y1367D1*
X2354Y1357D1*
X2345Y1347D1*
X2332Y1337D1*
X2318Y1327D1*
X2303Y1317D1*
X2583Y1697D2*
X2564Y1687D1*
X2548Y1677D1*
X2535Y1667D1*
X2524Y1657D1*
X2515Y1647D1*
X2507Y1637D1*
X2502Y1627D1*
X2497Y1617D1*
X2494Y1607D1*
X2492Y1597D1*
X2489Y1587D1*
X2486Y1577D1*
X2484Y1567D1*
Y1557D1*
X2483Y1547D1*
Y1537D1*
Y1527D1*
Y1517D1*
Y1507D1*
Y1497D1*
Y1487D1*
Y1477D1*
Y1467D1*
Y1457D1*
X2484Y1447D1*
X2487Y1437D1*
X2489Y1427D1*
X2492Y1417D1*
X2494Y1407D1*
X2497Y1397D1*
X2501Y1387D1*
X2507Y1377D1*
X2514Y1367D1*
X2521Y1357D1*
X2531Y1347D1*
X2545Y1337D1*
X2563Y1327D1*
X2583Y1317D1*
X2633Y1697D2*
X2649Y1687D1*
X2663Y1677D1*
X2674Y1667D1*
X2684Y1657D1*
X2692Y1647D1*
X2699Y1637D1*
X2704Y1627D1*
X2709Y1617D1*
X2712Y1607D1*
X2716Y1597D1*
X2719Y1587D1*
X2721Y1577D1*
X2722Y1567D1*
X2723Y1557D1*
Y1547D1*
Y1537D1*
Y1527D1*
Y1517D1*
Y1507D1*
Y1497D1*
Y1487D1*
Y1477D1*
Y1467D1*
Y1457D1*
X2722Y1447D1*
X2721Y1437D1*
X2719Y1427D1*
X2716Y1417D1*
X2713Y1407D1*
X2709Y1397D1*
X2704Y1387D1*
X2699Y1377D1*
X2692Y1367D1*
X2684Y1357D1*
X2675Y1347D1*
X2662Y1337D1*
X2648Y1327D1*
X2633Y1317D1*
X2913Y1697D2*
X2894Y1687D1*
X2878Y1677D1*
X2865Y1667D1*
X2854Y1657D1*
X2845Y1647D1*
X2837Y1637D1*
X2832Y1627D1*
X2827Y1617D1*
X2824Y1607D1*
X2822Y1597D1*
X2819Y1587D1*
X2816Y1577D1*
X2814Y1567D1*
Y1557D1*
X2813Y1547D1*
Y1537D1*
Y1527D1*
Y1517D1*
Y1507D1*
Y1497D1*
Y1487D1*
Y1477D1*
Y1467D1*
Y1457D1*
X2814Y1447D1*
X2817Y1437D1*
X2819Y1427D1*
X2822Y1417D1*
X2824Y1407D1*
X2827Y1397D1*
X2831Y1387D1*
X2837Y1377D1*
X2844Y1367D1*
X2851Y1357D1*
X2861Y1347D1*
X2875Y1337D1*
X2893Y1327D1*
X2913Y1317D1*
X2963Y1697D2*
X2979Y1687D1*
X2993Y1677D1*
X3004Y1667D1*
X3014Y1657D1*
X3022Y1647D1*
X3029Y1637D1*
X3034Y1627D1*
X3039Y1617D1*
X3042Y1607D1*
X3046Y1597D1*
X3049Y1587D1*
X3051Y1577D1*
X3052Y1567D1*
X3053Y1557D1*
Y1547D1*
Y1537D1*
Y1527D1*
Y1517D1*
Y1507D1*
Y1497D1*
Y1487D1*
Y1477D1*
Y1467D1*
Y1457D1*
X3052Y1447D1*
X3051Y1437D1*
X3049Y1427D1*
X3046Y1417D1*
X3043Y1407D1*
X3039Y1397D1*
X3034Y1387D1*
X3029Y1377D1*
X3022Y1367D1*
X3014Y1357D1*
X3005Y1347D1*
X2992Y1337D1*
X2978Y1327D1*
X2963Y1317D1*
X3303Y1697D2*
X3293Y1687D1*
X3283Y1677D1*
X3273Y1667D1*
X3263Y1657D1*
X3252Y1647D1*
X3241Y1637D1*
X3227Y1627D1*
X3213Y1617D1*
X3200Y1607D1*
X3190Y1597D1*
X3183Y1587D1*
X3313Y1697D2*
Y1687D1*
Y1677D1*
Y1667D1*
Y1657D1*
Y1647D1*
Y1637D1*
Y1627D1*
Y1617D1*
Y1607D1*
Y1597D1*
Y1587D1*
Y1577D1*
Y1567D1*
Y1557D1*
Y1547D1*
Y1537D1*
Y1527D1*
Y1517D1*
Y1507D1*
Y1497D1*
Y1487D1*
Y1477D1*
Y1467D1*
Y1457D1*
Y1447D1*
Y1437D1*
Y1427D1*
Y1417D1*
Y1407D1*
Y1397D1*
Y1387D1*
Y1377D1*
Y1367D1*
Y1357D1*
Y1347D1*
Y1337D1*
Y1327D1*
Y1317D1*
X3683Y1687D2*
Y1677D1*
Y1667D1*
Y1657D1*
Y1647D1*
Y1637D1*
Y1627D1*
Y1617D1*
Y1607D1*
Y1597D1*
Y1587D1*
Y1577D1*
Y1567D1*
Y1557D1*
Y1547D1*
Y1537D1*
Y1527D1*
X3853Y1687D2*
X3879Y1677D1*
X3900Y1667D1*
X3917Y1657D1*
X3926Y1647D1*
X3930Y1637D1*
X3931Y1627D1*
X3932Y1617D1*
X3933Y1607D1*
X3932Y1597D1*
X3931Y1587D1*
X3928Y1577D1*
X3923Y1567D1*
X3912Y1557D1*
X3898Y1547D1*
X3881Y1537D1*
X3863Y1527D1*
X1393Y1677D2*
X1375Y1667D1*
X1359Y1657D1*
X1347Y1647D1*
X1338Y1637D1*
X1332Y1627D1*
X1327Y1617D1*
X1325Y1607D1*
X1323Y1597D1*
X1321Y1587D1*
X1319Y1577D1*
X1316Y1567D1*
X1314Y1557D1*
Y1547D1*
X1313Y1537D1*
Y1527D1*
Y1517D1*
Y1507D1*
Y1497D1*
Y1487D1*
Y1477D1*
Y1467D1*
Y1457D1*
X1314Y1447D1*
X1317Y1437D1*
X1319Y1427D1*
X1322Y1417D1*
X1324Y1407D1*
X1327Y1397D1*
X1331Y1387D1*
X1338Y1377D1*
X1347Y1367D1*
X1373Y1357D1*
X1413Y1347D1*
X1463Y1337D1*
X1433Y1677D2*
X1451Y1667D1*
X1466Y1657D1*
X1478Y1647D1*
X1487Y1637D1*
X1494Y1627D1*
X1498Y1617D1*
X1501Y1607D1*
X1504Y1597D1*
X1507Y1587D1*
X1509Y1577D1*
X1511Y1567D1*
X1512Y1557D1*
X1513Y1547D1*
Y1537D1*
Y1527D1*
Y1517D1*
Y1507D1*
Y1497D1*
Y1487D1*
Y1477D1*
Y1467D1*
X1512Y1457D1*
X1511Y1447D1*
X1509Y1437D1*
X1506Y1427D1*
X1504Y1417D1*
X1502Y1407D1*
X1499Y1397D1*
X1494Y1387D1*
X1488Y1377D1*
X1479Y1367D1*
X1453Y1357D1*
X1412Y1347D1*
X1363Y1337D1*
X2253Y1677D2*
X2235Y1667D1*
X2219Y1657D1*
X2207Y1647D1*
X2198Y1637D1*
X2192Y1627D1*
X2187Y1617D1*
X2185Y1607D1*
X2183Y1597D1*
X2181Y1587D1*
X2179Y1577D1*
X2176Y1567D1*
X2174Y1557D1*
Y1547D1*
X2173Y1537D1*
Y1527D1*
Y1517D1*
Y1507D1*
Y1497D1*
Y1487D1*
Y1477D1*
Y1467D1*
Y1457D1*
X2174Y1447D1*
X2177Y1437D1*
X2179Y1427D1*
X2182Y1417D1*
X2184Y1407D1*
X2187Y1397D1*
X2191Y1387D1*
X2198Y1377D1*
X2207Y1367D1*
X2233Y1357D1*
X2273Y1347D1*
X2323Y1337D1*
X2293Y1677D2*
X2311Y1667D1*
X2326Y1657D1*
X2338Y1647D1*
X2347Y1637D1*
X2354Y1627D1*
X2358Y1617D1*
X2361Y1607D1*
X2364Y1597D1*
X2367Y1587D1*
X2369Y1577D1*
X2371Y1567D1*
X2372Y1557D1*
X2373Y1547D1*
Y1537D1*
Y1527D1*
Y1517D1*
Y1507D1*
Y1497D1*
Y1487D1*
Y1477D1*
Y1467D1*
X2372Y1457D1*
X2371Y1447D1*
X2369Y1437D1*
X2366Y1427D1*
X2364Y1417D1*
X2362Y1407D1*
X2359Y1397D1*
X2354Y1387D1*
X2348Y1377D1*
X2339Y1367D1*
X2313Y1357D1*
X2272Y1347D1*
X2223Y1337D1*
X2583Y1677D2*
X2565Y1667D1*
X2549Y1657D1*
X2537Y1647D1*
X2528Y1637D1*
X2522Y1627D1*
X2517Y1617D1*
X2515Y1607D1*
X2513Y1597D1*
X2511Y1587D1*
X2509Y1577D1*
X2506Y1567D1*
X2504Y1557D1*
Y1547D1*
X2503Y1537D1*
Y1527D1*
Y1517D1*
Y1507D1*
Y1497D1*
Y1487D1*
Y1477D1*
Y1467D1*
Y1457D1*
X2504Y1447D1*
X2507Y1437D1*
X2509Y1427D1*
X2512Y1417D1*
X2514Y1407D1*
X2517Y1397D1*
X2521Y1387D1*
X2528Y1377D1*
X2537Y1367D1*
X2563Y1357D1*
X2603Y1347D1*
X2653Y1337D1*
X2623Y1677D2*
X2641Y1667D1*
X2656Y1657D1*
X2668Y1647D1*
X2677Y1637D1*
X2684Y1627D1*
X2688Y1617D1*
X2691Y1607D1*
X2694Y1597D1*
X2697Y1587D1*
X2699Y1577D1*
X2701Y1567D1*
X2702Y1557D1*
X2703Y1547D1*
Y1537D1*
Y1527D1*
Y1517D1*
Y1507D1*
Y1497D1*
Y1487D1*
Y1477D1*
Y1467D1*
X2702Y1457D1*
X2701Y1447D1*
X2699Y1437D1*
X2696Y1427D1*
X2694Y1417D1*
X2692Y1407D1*
X2689Y1397D1*
X2684Y1387D1*
X2678Y1377D1*
X2669Y1367D1*
X2643Y1357D1*
X2602Y1347D1*
X2553Y1337D1*
X2913Y1677D2*
X2895Y1667D1*
X2879Y1657D1*
X2867Y1647D1*
X2858Y1637D1*
X2852Y1627D1*
X2847Y1617D1*
X2845Y1607D1*
X2843Y1597D1*
X2841Y1587D1*
X2839Y1577D1*
X2836Y1567D1*
X2834Y1557D1*
Y1547D1*
X2833Y1537D1*
Y1527D1*
Y1517D1*
Y1507D1*
Y1497D1*
Y1487D1*
Y1477D1*
Y1467D1*
Y1457D1*
X2834Y1447D1*
X2837Y1437D1*
X2839Y1427D1*
X2842Y1417D1*
X2844Y1407D1*
X2847Y1397D1*
X2851Y1387D1*
X2858Y1377D1*
X2867Y1367D1*
X2893Y1357D1*
X2933Y1347D1*
X2983Y1337D1*
X2953Y1677D2*
X2971Y1667D1*
X2986Y1657D1*
X2998Y1647D1*
X3007Y1637D1*
X3014Y1627D1*
X3018Y1617D1*
X3021Y1607D1*
X3024Y1597D1*
X3027Y1587D1*
X3029Y1577D1*
X3031Y1567D1*
X3032Y1557D1*
X3033Y1547D1*
Y1537D1*
Y1527D1*
Y1517D1*
Y1507D1*
Y1497D1*
Y1487D1*
Y1477D1*
Y1467D1*
X3032Y1457D1*
X3031Y1447D1*
X3029Y1437D1*
X3026Y1427D1*
X3024Y1417D1*
X3022Y1407D1*
X3019Y1397D1*
X3014Y1387D1*
X3008Y1377D1*
X2999Y1367D1*
X2973Y1357D1*
X2932Y1347D1*
X2883Y1337D1*
X1053Y1617D2*
X1038Y1607D1*
X1023Y1597D1*
X1103Y1627D2*
Y1617D1*
Y1607D1*
Y1597D1*
Y1587D1*
Y1577D1*
Y1567D1*
Y1557D1*
Y1547D1*
Y1537D1*
Y1527D1*
Y1517D1*
Y1507D1*
Y1497D1*
Y1487D1*
Y1477D1*
Y1467D1*
Y1457D1*
Y1447D1*
Y1437D1*
Y1427D1*
Y1417D1*
Y1407D1*
Y1397D1*
Y1387D1*
Y1377D1*
Y1367D1*
Y1357D1*
Y1347D1*
Y1337D1*
Y1327D1*
Y1317D1*
X1713Y1617D2*
X1697Y1607D1*
X1681Y1597D1*
X1663Y1587D1*
X1763Y1627D2*
Y1617D1*
Y1607D1*
Y1597D1*
Y1587D1*
Y1577D1*
Y1567D1*
Y1557D1*
Y1547D1*
Y1537D1*
Y1527D1*
Y1517D1*
Y1507D1*
Y1497D1*
Y1487D1*
Y1477D1*
Y1467D1*
Y1457D1*
Y1447D1*
Y1437D1*
Y1427D1*
Y1417D1*
Y1407D1*
Y1397D1*
Y1387D1*
Y1377D1*
Y1367D1*
Y1357D1*
Y1347D1*
Y1337D1*
Y1327D1*
Y1317D1*
X3233Y1617D2*
X3217Y1607D1*
X3201Y1597D1*
X3183Y1587D1*
X3283Y1627D2*
Y1617D1*
Y1607D1*
Y1597D1*
Y1587D1*
Y1577D1*
Y1567D1*
Y1557D1*
Y1547D1*
Y1537D1*
Y1527D1*
Y1517D1*
Y1507D1*
Y1497D1*
Y1487D1*
Y1477D1*
Y1467D1*
Y1457D1*
Y1447D1*
Y1437D1*
Y1427D1*
Y1417D1*
Y1407D1*
Y1397D1*
Y1387D1*
Y1377D1*
Y1367D1*
Y1357D1*
Y1347D1*
Y1337D1*
Y1327D1*
Y1317D1*
X4163Y1607D2*
X4140Y1597D1*
X4121Y1587D1*
X4107Y1577D1*
X4096Y1567D1*
X4088Y1557D1*
X4081Y1547D1*
X4076Y1537D1*
X4071Y1527D1*
X4067Y1517D1*
X4064Y1507D1*
X4062Y1497D1*
X4059Y1487D1*
X4056Y1477D1*
X4055Y1467D1*
X4054Y1457D1*
X4055Y1447D1*
X4057Y1437D1*
X4060Y1427D1*
X4062Y1417D1*
X4064Y1407D1*
X4067Y1397D1*
X4071Y1387D1*
X4076Y1377D1*
X4081Y1367D1*
X4087Y1357D1*
X4095Y1347D1*
X4106Y1337D1*
X4121Y1327D1*
X4141Y1317D1*
X4163Y1307D1*
X4213Y1607D2*
X4231Y1597D1*
X4247Y1587D1*
X4260Y1577D1*
X4271Y1567D1*
X4281Y1557D1*
X4288Y1547D1*
X4294Y1537D1*
X4298Y1527D1*
X4301Y1517D1*
X4304Y1507D1*
X4307Y1497D1*
X4309Y1487D1*
X4311Y1477D1*
X4312Y1467D1*
X4313Y1457D1*
X4393Y1597D2*
X4394Y1587D1*
X4397Y1577D1*
X4401Y1567D1*
X4405Y1557D1*
X4409Y1547D1*
X4413Y1537D1*
X4416Y1527D1*
X4420Y1517D1*
X4423Y1507D1*
X4427Y1497D1*
X4431Y1487D1*
X4435Y1477D1*
X4439Y1467D1*
X4443Y1457D1*
X4446Y1447D1*
X4450Y1437D1*
X4453Y1427D1*
X4457Y1417D1*
X4461Y1407D1*
X4465Y1397D1*
X4469Y1387D1*
X4473Y1377D1*
X4476Y1367D1*
X4480Y1357D1*
X4483Y1347D1*
X4486Y1337D1*
X4490Y1327D1*
X4493Y1317D1*
X4413Y1597D2*
X4414Y1587D1*
X4417Y1577D1*
X4420Y1567D1*
X4423Y1557D1*
X4426Y1547D1*
X4430Y1537D1*
X4433Y1527D1*
X4436Y1517D1*
X4440Y1507D1*
X4443Y1497D1*
X4447Y1487D1*
X4451Y1477D1*
X4455Y1467D1*
X4459Y1457D1*
X4463Y1447D1*
X4466Y1437D1*
X4470Y1427D1*
X4473Y1417D1*
X4476Y1407D1*
X4480Y1397D1*
X4485Y1387D1*
X4498Y1377D1*
X4513Y1367D1*
X4603Y1597D2*
X4601Y1587D1*
X4599Y1577D1*
X4596Y1567D1*
X4593Y1557D1*
X4589Y1547D1*
X4585Y1537D1*
X4580Y1527D1*
X4577Y1517D1*
X4573Y1507D1*
X4570Y1497D1*
X4566Y1487D1*
X4563Y1477D1*
X4559Y1467D1*
X4556Y1457D1*
X4553Y1447D1*
X4549Y1437D1*
X4545Y1427D1*
X4540Y1417D1*
X4536Y1407D1*
X4532Y1397D1*
X4524Y1387D1*
X4505Y1377D1*
X4483Y1367D1*
X4623Y1597D2*
X4619Y1587D1*
X4616Y1577D1*
X4613Y1567D1*
X4609Y1557D1*
X4605Y1547D1*
X4600Y1537D1*
X4597Y1527D1*
X4593Y1517D1*
X4590Y1507D1*
X4586Y1497D1*
X4583Y1487D1*
X4579Y1477D1*
X4575Y1467D1*
X4570Y1457D1*
X4567Y1447D1*
X4563Y1437D1*
X4560Y1427D1*
X4556Y1417D1*
X4553Y1407D1*
X4549Y1397D1*
X4545Y1387D1*
X4540Y1377D1*
X4537Y1367D1*
X4533Y1357D1*
X4530Y1347D1*
X4526Y1337D1*
X4524Y1327D1*
X4523Y1317D1*
X4163Y1587D2*
X4143Y1577D1*
X4125Y1567D1*
X4111Y1557D1*
X4100Y1547D1*
X4093Y1537D1*
X4088Y1527D1*
X4085Y1517D1*
X4084Y1507D1*
X4083Y1497D1*
Y1487D1*
Y1477D1*
X4213Y1587D2*
X4231Y1577D1*
X4246Y1567D1*
X4258Y1557D1*
X4267Y1547D1*
X4274Y1537D1*
X4278Y1527D1*
X4281Y1517D1*
X4282Y1507D1*
Y1497D1*
X4283Y1487D1*
Y1477D1*
X3683Y1507D2*
Y1497D1*
Y1487D1*
Y1477D1*
Y1467D1*
Y1457D1*
Y1447D1*
Y1437D1*
Y1427D1*
Y1417D1*
Y1407D1*
Y1397D1*
Y1387D1*
Y1377D1*
Y1367D1*
Y1357D1*
Y1347D1*
Y1337D1*
Y1327D1*
Y1317D1*
X3793Y1507D2*
X3811Y1497D1*
X3827Y1487D1*
X3840Y1477D1*
X3850Y1467D1*
X3858Y1457D1*
X3866Y1447D1*
X3874Y1437D1*
X3882Y1427D1*
X3889Y1417D1*
X3896Y1407D1*
X3903Y1397D1*
X3909Y1387D1*
X3916Y1377D1*
X3923Y1367D1*
X3929Y1357D1*
X3935Y1347D1*
X3940Y1337D1*
X3946Y1327D1*
X3953Y1317D1*
X1943Y1467D2*
Y1457D1*
Y1447D1*
X2083Y1467D2*
Y1457D1*
Y1447D1*
X4083Y1457D2*
Y1447D1*
Y1437D1*
Y1427D1*
Y1417D1*
X4085Y1407D1*
X4087Y1397D1*
X4092Y1387D1*
X4097Y1377D1*
X4106Y1367D1*
X4116Y1357D1*
X4144Y1347D1*
X4188Y1337D1*
X4243Y1327D1*
X4273Y1367D2*
X4262Y1357D1*
X4233Y1347D1*
X4188Y1337D1*
X4133Y1327D1*
X4303Y1367D2*
X4293Y1357D1*
X4283Y1347D1*
X4272Y1337D1*
X4259Y1327D1*
X4242Y1317D1*
X4223Y1307D1*
X3333Y3217D2*
X3307Y3207D1*
X3286Y3197D1*
X3270Y3187D1*
X3257Y3177D1*
X3248Y3167D1*
X3242Y3157D1*
X3237Y3147D1*
X3235Y3137D1*
X3234Y3127D1*
X3233Y3117D1*
Y3107D1*
X3235Y3097D1*
X3237Y3087D1*
X3242Y3077D1*
X3248Y3067D1*
X3257Y3057D1*
X3269Y3047D1*
X3284Y3037D1*
X3306Y3027D1*
X3333Y3017D1*
X3365Y3007D1*
X3398Y2997D1*
X3427Y2987D1*
X3449Y2977D1*
X3465Y2967D1*
X3476Y2957D1*
X3483Y2947D1*
X3488Y2937D1*
X3491Y2927D1*
X3492Y2917D1*
Y2907D1*
X3491Y2897D1*
X3488Y2887D1*
X3484Y2877D1*
X3478Y2867D1*
X3460Y2857D1*
X3428Y2847D1*
X3372Y2837D1*
X3303Y2827D1*
X3393Y3217D2*
X3418Y3207D1*
X3439Y3197D1*
X3456Y3187D1*
X3468Y3177D1*
X3477Y3167D1*
X3484Y3157D1*
X3490Y3147D1*
X3495Y3137D1*
X3499Y3127D1*
X3503Y3117D1*
X3623Y3207D2*
Y3197D1*
Y3187D1*
Y3177D1*
Y3167D1*
Y3157D1*
Y3147D1*
Y3137D1*
Y3127D1*
Y3117D1*
Y3107D1*
Y3097D1*
Y3087D1*
Y3077D1*
Y3067D1*
Y3057D1*
Y3047D1*
Y3037D1*
Y3027D1*
Y3017D1*
Y3007D1*
Y2997D1*
Y2987D1*
Y2977D1*
Y2967D1*
Y2957D1*
Y2947D1*
Y2937D1*
Y2927D1*
Y2917D1*
Y2907D1*
Y2897D1*
Y2887D1*
Y2877D1*
Y2867D1*
Y2857D1*
Y2847D1*
Y2837D1*
Y2827D1*
Y2817D1*
X3653Y3207D2*
X3659Y3197D1*
X3666Y3187D1*
X3673Y3177D1*
X3679Y3167D1*
X3686Y3157D1*
X3694Y3147D1*
X3702Y3137D1*
X3709Y3127D1*
X3716Y3117D1*
X3723Y3107D1*
X3729Y3097D1*
X3736Y3087D1*
X3743Y3077D1*
X3749Y3067D1*
X3756Y3057D1*
X3763Y3047D1*
X3769Y3037D1*
X3776Y3027D1*
X3783Y3017D1*
X3789Y3007D1*
X3796Y2997D1*
X3803Y2987D1*
X3809Y2977D1*
X3816Y2967D1*
X3824Y2957D1*
X3832Y2947D1*
X3839Y2937D1*
X3846Y2927D1*
X3854Y2917D1*
X3863Y2907D1*
X3877Y2897D1*
X3893Y2887D1*
X3903Y3207D2*
Y3197D1*
Y3187D1*
Y3177D1*
Y3167D1*
Y3157D1*
Y3147D1*
Y3137D1*
Y3127D1*
Y3117D1*
Y3107D1*
Y3097D1*
Y3087D1*
Y3077D1*
Y3067D1*
Y3057D1*
Y3047D1*
Y3037D1*
Y3027D1*
Y3017D1*
Y3007D1*
Y2997D1*
Y2987D1*
Y2977D1*
Y2967D1*
Y2957D1*
Y2947D1*
Y2937D1*
Y2927D1*
X3902Y2917D1*
X3899Y2907D1*
X3887Y2897D1*
X3873Y2887D1*
X3933Y3207D2*
Y3197D1*
Y3187D1*
Y3177D1*
Y3167D1*
Y3157D1*
Y3147D1*
Y3137D1*
Y3127D1*
Y3117D1*
Y3107D1*
Y3097D1*
Y3087D1*
Y3077D1*
Y3067D1*
Y3057D1*
Y3047D1*
Y3037D1*
Y3027D1*
Y3017D1*
Y3007D1*
Y2997D1*
Y2987D1*
Y2977D1*
Y2967D1*
Y2957D1*
Y2947D1*
Y2937D1*
Y2927D1*
Y2917D1*
Y2907D1*
Y2897D1*
Y2887D1*
Y2877D1*
Y2867D1*
Y2857D1*
Y2847D1*
Y2837D1*
Y2827D1*
Y2817D1*
X3323Y3197D2*
X3305Y3187D1*
X3289Y3177D1*
X3276Y3167D1*
X3266Y3157D1*
X3258Y3147D1*
X3255Y3137D1*
X3254Y3127D1*
X3253Y3117D1*
Y3107D1*
X3255Y3097D1*
X3258Y3087D1*
X3268Y3077D1*
X3283Y3067D1*
X3304Y3057D1*
X3333Y3047D1*
X3365Y3037D1*
X3396Y3027D1*
X3424Y3017D1*
X3447Y3007D1*
X3465Y2997D1*
X3479Y2987D1*
X3490Y2977D1*
X3498Y2967D1*
X3504Y2957D1*
X3508Y2947D1*
X3511Y2937D1*
X3512Y2927D1*
Y2917D1*
Y2907D1*
X3511Y2897D1*
X3508Y2887D1*
X3504Y2877D1*
X3498Y2867D1*
X3491Y2857D1*
X3481Y2847D1*
X3470Y2837D1*
X3455Y2827D1*
X3435Y2817D1*
X3413Y2807D1*
X3403Y3197D2*
X3421Y3187D1*
X3437Y3177D1*
X3450Y3167D1*
X3460Y3157D1*
X3467Y3147D1*
X3470Y3137D1*
X3472Y3127D1*
X3473Y3117D1*
X3643Y3137D2*
Y3127D1*
Y3117D1*
Y3107D1*
Y3097D1*
Y3087D1*
Y3077D1*
Y3067D1*
Y3057D1*
Y3047D1*
Y3037D1*
Y3027D1*
Y3017D1*
Y3007D1*
Y2997D1*
Y2987D1*
Y2977D1*
Y2967D1*
Y2957D1*
Y2947D1*
Y2937D1*
Y2927D1*
Y2917D1*
Y2907D1*
Y2897D1*
Y2887D1*
Y2877D1*
Y2867D1*
Y2857D1*
Y2847D1*
Y2837D1*
Y2827D1*
Y2817D1*
X3673Y3137D2*
X3682Y3127D1*
X3691Y3117D1*
X3699Y3107D1*
X3706Y3097D1*
X3713Y3087D1*
X3719Y3077D1*
X3726Y3067D1*
X3733Y3057D1*
X3739Y3047D1*
X3746Y3037D1*
X3753Y3027D1*
X3759Y3017D1*
X3766Y3007D1*
X3773Y2997D1*
X3779Y2987D1*
X3786Y2977D1*
X3793Y2967D1*
X3799Y2957D1*
X3806Y2947D1*
X3814Y2937D1*
X3822Y2927D1*
X3829Y2917D1*
X3836Y2907D1*
X3843Y2897D1*
X3849Y2887D1*
X3856Y2877D1*
X3863Y2867D1*
X3869Y2857D1*
X3876Y2847D1*
X3883Y2837D1*
X3888Y2827D1*
X3893Y2817D1*
X3223Y2927D2*
X3213Y2917D1*
X3218Y2907D1*
X3222Y2897D1*
X3226Y2887D1*
X3231Y2877D1*
X3237Y2867D1*
X3245Y2857D1*
X3256Y2847D1*
X3270Y2837D1*
X3288Y2827D1*
X3309Y2817D1*
X3333Y2807D1*
X3233Y2927D2*
X3238Y2917D1*
X3242Y2907D1*
X3246Y2897D1*
X3251Y2887D1*
X3258Y2877D1*
X3267Y2867D1*
X3280Y2857D1*
X3316Y2847D1*
X3373Y2837D1*
X3443Y2827D1*
X1857Y3888D2*
X1844Y3858D1*
X1835Y3828D1*
X1831Y3798D1*
X1829Y3768D1*
X1828Y3738D1*
Y3708D1*
Y3678D1*
Y3648D1*
Y3618D1*
Y3588D1*
Y3558D1*
Y3528D1*
Y3498D1*
Y3468D1*
Y3438D1*
Y3408D1*
Y3378D1*
Y3348D1*
Y3318D1*
Y3288D1*
Y3258D1*
Y3228D1*
Y3198D1*
Y3168D1*
Y3138D1*
Y3108D1*
X1827Y3078D1*
Y3048D1*
Y3018D1*
Y2988D1*
Y2958D1*
Y2928D1*
Y2898D1*
X1825Y2868D1*
X1820Y2838D1*
X1796Y2808D1*
X1767Y2778D1*
X1887Y3858D2*
Y3828D1*
Y3798D1*
Y3768D1*
Y3738D1*
Y3708D1*
Y3678D1*
Y3648D1*
Y3618D1*
Y3588D1*
Y3558D1*
Y3528D1*
Y3498D1*
Y3468D1*
Y3438D1*
Y3408D1*
Y3378D1*
Y3348D1*
Y3318D1*
Y3288D1*
Y3258D1*
Y3228D1*
Y3198D1*
Y3168D1*
Y3138D1*
Y3108D1*
Y3078D1*
Y3048D1*
Y3018D1*
Y2988D1*
Y2958D1*
Y2928D1*
X1888Y2898D1*
X1890Y2868D1*
X1895Y2838D1*
X1919Y2808D1*
X1947Y2778D1*
X1617Y3708D2*
X1604Y3678D1*
X1595Y3648D1*
X1591Y3618D1*
X1589Y3588D1*
X1588Y3558D1*
X1586Y3528D1*
X1583Y3498D1*
X1575Y3468D1*
X1568Y3438D1*
X1561Y3408D1*
X1555Y3378D1*
X1545Y3348D1*
X1533Y3318D1*
X1520Y3288D1*
X1509Y3258D1*
X1498Y3228D1*
X1487Y3198D1*
X1473Y3168D1*
X1459Y3138D1*
X1445Y3108D1*
X1430Y3078D1*
X1414Y3048D1*
X1396Y3018D1*
X1377Y2988D1*
X1358Y2958D1*
X1342Y2928D1*
X1326Y2898D1*
X1310Y2868D1*
X1294Y2838D1*
X1276Y2808D1*
X1257Y2778D1*
X1238Y2748D1*
X1221Y2718D1*
X1205Y2688D1*
X1186Y2658D1*
X1167Y2628D1*
X1148Y2598D1*
X1132Y2568D1*
X1116Y2538D1*
X1103Y2508D1*
X1092Y2478D1*
X1096Y2448D1*
X1105Y2418D1*
X1117Y2388D1*
X1131Y2358D1*
X1145Y2328D1*
X1161Y2298D1*
X1179Y2268D1*
X1198Y2238D1*
X1218Y2208D1*
X1237Y2178D1*
X1257Y2148D1*
X1647Y3708D2*
Y3678D1*
Y3648D1*
Y3618D1*
Y3588D1*
X1646Y3558D1*
X1643Y3528D1*
X1635Y3498D1*
X1628Y3468D1*
X1621Y3438D1*
X1615Y3408D1*
X1606Y3378D1*
X1597Y3348D1*
X1588Y3318D1*
X1577Y3288D1*
X1567Y3258D1*
X1558Y3228D1*
X1546Y3198D1*
X1533Y3168D1*
X1519Y3138D1*
X1505Y3108D1*
X1490Y3078D1*
X1475Y3048D1*
X1460Y3018D1*
X1445Y2988D1*
X1430Y2958D1*
X1414Y2928D1*
X1396Y2898D1*
X1377Y2868D1*
X1358Y2838D1*
X1341Y2808D1*
X1325Y2778D1*
X1306Y2748D1*
X1287Y2718D1*
X1268Y2688D1*
X1252Y2658D1*
X1236Y2628D1*
X1220Y2598D1*
X1204Y2568D1*
X1186Y2538D1*
X1169Y2508D1*
X1155Y2478D1*
X1157Y2448D1*
X1165Y2418D1*
X1177Y2388D1*
X1192Y2358D1*
X1209Y2328D1*
X1227Y2298D1*
X1242Y2268D1*
X1251Y2238D1*
X1257Y2208D1*
X2097Y3708D2*
X2084Y3678D1*
X2076Y3648D1*
Y3618D1*
X2081Y3588D1*
X2088Y3558D1*
X2093Y3528D1*
X2096Y3498D1*
X2098Y3468D1*
X2102Y3438D1*
X2110Y3408D1*
X2117Y3378D1*
X2124Y3348D1*
X2130Y3318D1*
X2140Y3288D1*
X2152Y3258D1*
X2166Y3228D1*
X2180Y3198D1*
X2194Y3168D1*
X2206Y3138D1*
X2217Y3108D1*
X2229Y3078D1*
X2243Y3048D1*
X2260Y3018D1*
X2278Y2988D1*
X2297Y2958D1*
X2314Y2928D1*
X2329Y2898D1*
X2345Y2868D1*
X2361Y2838D1*
X2379Y2808D1*
X2398Y2778D1*
X2417Y2748D1*
X2433Y2718D1*
X2449Y2688D1*
X2465Y2658D1*
X2481Y2628D1*
X2499Y2598D1*
X2518Y2568D1*
X2536Y2538D1*
X2551Y2508D1*
X2562Y2478D1*
X2559Y2448D1*
X2550Y2418D1*
X2538Y2388D1*
X2524Y2358D1*
X2510Y2328D1*
X2494Y2298D1*
X2475Y2268D1*
X2452Y2238D1*
X2427Y2208D1*
X2127Y3678D2*
Y3648D1*
Y3618D1*
X2128Y3588D1*
X2129Y3558D1*
X2132Y3528D1*
X2140Y3498D1*
X2147Y3468D1*
X2154Y3438D1*
X2160Y3408D1*
X2169Y3378D1*
X2178Y3348D1*
X2188Y3318D1*
X2199Y3288D1*
X2212Y3258D1*
X2226Y3228D1*
X2240Y3198D1*
X2255Y3168D1*
X2270Y3138D1*
X2285Y3108D1*
X2300Y3078D1*
X2315Y3048D1*
X2330Y3018D1*
X2345Y2988D1*
X2360Y2958D1*
X2375Y2928D1*
X2391Y2898D1*
X2409Y2868D1*
X2428Y2838D1*
X2447Y2808D1*
X2464Y2778D1*
X2480Y2748D1*
X2499Y2718D1*
X2518Y2688D1*
X2537Y2658D1*
X2553Y2628D1*
X2569Y2598D1*
X2585Y2568D1*
X2600Y2538D1*
X2614Y2508D1*
X2624Y2478D1*
X2629Y2448D1*
X2622Y2418D1*
X2611Y2388D1*
X2595Y2358D1*
X2576Y2328D1*
X2558Y2298D1*
X2541Y2268D1*
X2524Y2238D1*
X2505Y2208D1*
X2482Y2178D1*
X2457Y2148D1*
X1617Y2868D2*
X1625Y2838D1*
X1652Y2808D1*
X1686Y2778D1*
X1720Y2748D1*
X1746Y2718D1*
X1767Y2688D1*
X1718Y2658D1*
X1667Y2628D1*
X1614Y2598D1*
X1560Y2568D1*
X1510Y2538D1*
X1465Y2508D1*
X1427Y2478D1*
X1399Y2448D1*
X1377Y2418D1*
X1647Y2868D2*
X1705Y2838D1*
X1776Y2808D1*
X1857Y2778D1*
X2097Y2868D2*
X2026Y2838D1*
X1945Y2808D1*
X1857Y2778D1*
X2127Y2838D2*
X2083Y2808D1*
X2037Y2778D1*
X1999Y2748D1*
X1970Y2718D1*
X1947Y2688D1*
X1997Y2658D1*
X2048Y2628D1*
X2101Y2598D1*
X2155Y2568D1*
X2205Y2538D1*
X2250Y2508D1*
X2288Y2478D1*
X2316Y2448D1*
X2337Y2418D1*
X1797Y2628D2*
X1739Y2598D1*
X1682Y2568D1*
X1630Y2538D1*
X1579Y2508D1*
X1529Y2478D1*
X1482Y2448D1*
X1437Y2418D1*
X1827Y2628D2*
Y2598D1*
Y2568D1*
X1828Y2538D1*
X1829Y2508D1*
X1833Y2478D1*
X1844Y2448D1*
X1857Y2418D1*
X1887Y2628D2*
Y2598D1*
Y2568D1*
Y2538D1*
Y2508D1*
Y2478D1*
Y2448D1*
Y2418D1*
X1917Y2628D2*
X1976Y2598D1*
X2033Y2568D1*
X2085Y2538D1*
X2138Y2508D1*
X2192Y2478D1*
X2249Y2448D1*
X2307Y2418D1*
X19193Y6127D2*
D111*
X19179Y6156D1*
X19150Y6184D1*
X19122Y6199D1*
X19064D1*
X19035Y6184D1*
X19007Y6156D1*
X18992Y6127D1*
X18978Y6084D1*
Y6012D1*
X18992Y5969D1*
X19007Y5940D1*
X19035Y5912D1*
X19064Y5897D1*
X19122D1*
X19150Y5912D1*
X19179Y5940D1*
X19193Y5969D1*
X19286Y6141D2*
X19315Y6156D1*
X19358Y6198D1*
Y5897D1*
X19537Y6198D2*
X19494Y6184D1*
X19465Y6141D1*
X19451Y6069D1*
Y6026D1*
X19465Y5955D1*
X19494Y5911D1*
X19537Y5897D1*
X19565D1*
X19608Y5911D1*
X19637Y5955D1*
X19652Y6026D1*
Y6069D1*
X19637Y6141D1*
X19608Y6184D1*
X19565Y6198D1*
X19537D1*
X19637Y6141D2*
X19465Y5955D1*
X19744Y6141D2*
X19773Y6156D1*
X19816Y6198D1*
Y5897D1*
X19210Y5002D2*
X19195Y5031D1*
X19167Y5059D1*
X19138Y5074D1*
X19081D1*
X19052Y5059D1*
X19023Y5031D1*
X19009Y5002D1*
X18995Y4959D1*
Y4887D1*
X19009Y4844D1*
X19023Y4815D1*
X19052Y4787D1*
X19081Y4772D1*
X19138D1*
X19167Y4787D1*
X19195Y4815D1*
X19210Y4844D1*
X19302Y5016D2*
X19331Y5031D1*
X19374Y5073D1*
Y4772D1*
X19553Y5073D2*
X19510Y5059D1*
X19481Y5016D1*
X19467Y4944D1*
Y4901D1*
X19481Y4830D1*
X19510Y4786D1*
X19553Y4772D1*
X19582D1*
X19625Y4786D1*
X19653Y4830D1*
X19668Y4901D1*
Y4944D1*
X19653Y5016D1*
X19625Y5059D1*
X19582Y5073D1*
X19553D1*
X19653Y5016D2*
X19481Y4830D1*
X19775Y5002D2*
Y5016D1*
X19789Y5045D1*
X19804Y5059D1*
X19833Y5073D1*
X19890D1*
X19918Y5059D1*
X19933Y5045D1*
X19947Y5016D1*
Y4987D1*
X19933Y4959D1*
X19904Y4916D1*
X19761Y4772D1*
X19962D1*
X14323Y4225D2*
X14309Y4254D1*
X14280Y4283D1*
X14251Y4297D1*
X14194D1*
X14165Y4283D1*
X14136Y4254D1*
X14122Y4225D1*
X14108Y4182D1*
Y4110D1*
X14122Y4068D1*
X14136Y4039D1*
X14165Y4010D1*
X14194Y3996D1*
X14251D1*
X14280Y4010D1*
X14309Y4039D1*
X14323Y4068D1*
X14415Y4239D2*
X14444Y4254D1*
X14487Y4297D1*
Y3996D1*
X14666Y4297D2*
X14623Y4282D1*
X14594Y4239D1*
X14580Y4168D1*
Y4125D1*
X14594Y4053D1*
X14623Y4010D1*
X14666Y3996D1*
X14695D1*
X14738Y4010D1*
X14766Y4053D1*
X14781Y4125D1*
Y4168D1*
X14766Y4239D1*
X14738Y4282D1*
X14695Y4297D1*
X14666D1*
X14766Y4239D2*
X14594Y4053D1*
X14903Y4297D2*
X15060D1*
X14974Y4182D1*
X15017D1*
X15046Y4168D1*
X15060Y4153D1*
X15075Y4110D1*
Y4082D1*
X15060Y4039D1*
X15032Y4010D1*
X14988Y3996D1*
X14945D1*
X14903Y4010D1*
X14888Y4024D1*
X14874Y4053D1*
X22831Y7256D2*
X22803Y7242D1*
X22774Y7213D1*
X22759Y7184D1*
Y7127D1*
X22774Y7098D1*
X22803Y7070D1*
X22831Y7055D1*
X22874Y7041D1*
X22946D1*
X22989Y7055D1*
X23018Y7070D1*
X23046Y7098D1*
X23061Y7127D1*
Y7184D1*
X23046Y7213D1*
X23018Y7242D1*
X22989Y7256D1*
X22817Y7349D2*
X22803Y7378D1*
X22760Y7421D1*
X23061D1*
X22760Y7600D2*
X22774Y7556D1*
X22817Y7528D1*
X22889Y7513D1*
X22932D1*
X23004Y7528D1*
X23047Y7556D1*
X23061Y7600D1*
Y7628D1*
X23047Y7671D1*
X23004Y7700D1*
X22932Y7714D1*
X22889D1*
X22817Y7700D1*
X22774Y7671D1*
X22760Y7628D1*
Y7600D1*
X22817Y7700D2*
X23004Y7528D1*
X23061Y7951D2*
X22760D1*
X22960Y7807D1*
Y8022D1*
X22894Y12138D2*
X22865Y12124D1*
X22836Y12095D1*
X22822Y12067D1*
Y12009D1*
X22836Y11980D1*
X22865Y11952D1*
X22894Y11937D1*
X22937Y11923D1*
X23009D1*
X23051Y11937D1*
X23080Y11952D1*
X23109Y11980D1*
X23123Y12009D1*
Y12067D1*
X23109Y12095D1*
X23080Y12124D1*
X23051Y12138D1*
X22880Y12231D2*
X22865Y12260D1*
X22822Y12303D1*
X23123D1*
X22822Y12482D2*
X22837Y12439D1*
X22880Y12410D1*
X22951Y12395D1*
X22994D1*
X23066Y12410D1*
X23109Y12439D1*
X23123Y12482D1*
Y12510D1*
X23109Y12553D1*
X23066Y12582D1*
X22994Y12596D1*
X22951D1*
X22880Y12582D1*
X22837Y12553D1*
X22822Y12510D1*
Y12482D1*
X22880Y12582D2*
X23066Y12410D1*
X22822Y12861D2*
Y12718D1*
X22951Y12704D1*
X22937Y12718D1*
X22922Y12761D1*
Y12804D1*
X22937Y12847D1*
X22966Y12876D1*
X23009Y12890D1*
X23037D1*
X23080Y12876D1*
X23109Y12847D1*
X23123Y12804D1*
Y12761D1*
X23109Y12718D1*
X23095Y12704D1*
X23066Y12689D1*
X19222Y7725D2*
X19208Y7754D1*
X19179Y7783D1*
X19150Y7797D1*
X19093D1*
X19064Y7783D1*
X19035Y7754D1*
X19021Y7725D1*
X19007Y7682D1*
Y7610D1*
X19021Y7568D1*
X19035Y7539D1*
X19064Y7510D1*
X19093Y7496D1*
X19150D1*
X19179Y7510D1*
X19208Y7539D1*
X19222Y7568D1*
X19314Y7739D2*
X19343Y7754D1*
X19386Y7797D1*
Y7496D1*
X19565Y7797D2*
X19522Y7782D1*
X19493Y7739D1*
X19479Y7668D1*
Y7625D1*
X19493Y7553D1*
X19522Y7510D1*
X19565Y7496D1*
X19594D1*
X19637Y7510D1*
X19665Y7553D1*
X19680Y7625D1*
Y7668D1*
X19665Y7739D1*
X19637Y7782D1*
X19594Y7797D1*
X19565D1*
X19665Y7739D2*
X19493Y7553D1*
X19945Y7754D2*
X19930Y7782D1*
X19887Y7797D1*
X19859D1*
X19816Y7782D1*
X19787Y7739D1*
X19773Y7668D1*
Y7596D1*
X19787Y7539D1*
X19816Y7510D1*
X19859Y7496D1*
X19873D1*
X19916Y7510D1*
X19945Y7539D1*
X19959Y7582D1*
Y7596D1*
X19945Y7639D1*
X19916Y7668D1*
X19873Y7682D1*
X19859D1*
X19816Y7668D1*
X19787Y7639D1*
X19773Y7596D1*
X16622Y3691D2*
X16593Y3677D1*
X16564Y3648D1*
X16550Y3619D1*
Y3562D1*
X16564Y3533D1*
X16593Y3504D1*
X16622Y3490D1*
X16665Y3476D1*
X16737D1*
X16779Y3490D1*
X16808Y3504D1*
X16837Y3533D1*
X16851Y3562D1*
Y3619D1*
X16837Y3648D1*
X16808Y3677D1*
X16779Y3691D1*
X16608Y3783D2*
X16593Y3812D1*
X16550Y3855D1*
X16851D1*
X16550Y4034D2*
X16565Y3991D1*
X16608Y3962D1*
X16679Y3948D1*
X16722D1*
X16794Y3962D1*
X16837Y3991D1*
X16851Y4034D1*
Y4063D1*
X16837Y4106D1*
X16794Y4134D1*
X16722Y4149D1*
X16679D1*
X16608Y4134D1*
X16565Y4106D1*
X16550Y4063D1*
Y4034D1*
X16608Y4134D2*
X16794Y3962D1*
X16851Y4299D2*
X16550Y4443D1*
Y4242D1*
X12337Y13465D2*
X12308Y13450D1*
X12280Y13421D1*
X12265Y13393D1*
Y13336D1*
X12280Y13307D1*
X12308Y13278D1*
X12337Y13264D1*
X12380Y13249D1*
X12452D1*
X12495Y13264D1*
X12524Y13278D1*
X12552Y13307D1*
X12567Y13336D1*
Y13393D1*
X12552Y13421D1*
X12524Y13450D1*
X12495Y13465D1*
X12323Y13557D2*
X12308Y13586D1*
X12266Y13629D1*
X12567D1*
X12266Y13808D2*
X12280Y13765D1*
X12323Y13736D1*
X12395Y13722D1*
X12438D1*
X12509Y13736D1*
X12553Y13765D1*
X12567Y13808D1*
Y13837D1*
X12553Y13880D1*
X12509Y13908D1*
X12438Y13923D1*
X12395D1*
X12323Y13908D1*
X12280Y13880D1*
X12266Y13837D1*
Y13808D1*
X12323Y13908D2*
X12509Y13736D1*
X12266Y14087D2*
X12280Y14044D1*
X12308Y14030D1*
X12337D1*
X12366Y14044D1*
X12380Y14073D1*
X12395Y14130D1*
X12409Y14173D1*
X12438Y14202D1*
X12466Y14216D1*
X12509D1*
X12538Y14202D1*
X12553Y14187D1*
X12567Y14144D1*
Y14087D1*
X12553Y14044D1*
X12538Y14030D1*
X12509Y14015D1*
X12466D1*
X12438Y14030D1*
X12409Y14058D1*
X12395Y14101D1*
X12380Y14159D1*
X12366Y14187D1*
X12337Y14202D1*
X12308D1*
X12280Y14187D1*
X12266Y14144D1*
Y14087D1*
X13707Y9504D2*
X13693Y9533D1*
X13664Y9561D1*
X13635Y9576D1*
X13578D1*
X13549Y9561D1*
X13521Y9533D1*
X13506Y9504D1*
X13492Y9461D1*
Y9389D1*
X13506Y9346D1*
X13521Y9317D1*
X13549Y9289D1*
X13578Y9274D1*
X13635D1*
X13664Y9289D1*
X13693Y9317D1*
X13707Y9346D1*
X13800Y9518D2*
X13829Y9533D1*
X13872Y9575D1*
Y9274D1*
X14051Y9575D2*
X14007Y9561D1*
X13979Y9518D1*
X13964Y9446D1*
Y9403D1*
X13979Y9332D1*
X14007Y9288D1*
X14051Y9274D1*
X14079D1*
X14122Y9288D1*
X14151Y9332D1*
X14165Y9403D1*
Y9446D1*
X14151Y9518D1*
X14122Y9561D1*
X14079Y9575D1*
X14051D1*
X14151Y9518D2*
X13979Y9332D1*
X14445Y9475D2*
X14430Y9432D1*
X14402Y9403D1*
X14358Y9389D1*
X14344D1*
X14301Y9403D1*
X14273Y9432D1*
X14258Y9475D1*
Y9489D1*
X14273Y9533D1*
X14301Y9561D1*
X14344Y9575D1*
X14358D1*
X14402Y9561D1*
X14430Y9533D1*
X14445Y9475D1*
Y9403D1*
X14430Y9332D1*
X14402Y9288D1*
X14358Y9274D1*
X14330D1*
X14287Y9288D1*
X14273Y9317D1*
X16085Y9493D2*
X16071Y9521D1*
X16042Y9550D1*
X16014Y9564D1*
X15956D1*
X15928Y9550D1*
X15899Y9521D1*
X15884Y9493D1*
X15870Y9450D1*
Y9378D1*
X15884Y9335D1*
X15899Y9306D1*
X15928Y9277D1*
X15956Y9263D1*
X16014D1*
X16042Y9277D1*
X16071Y9306D1*
X16085Y9335D1*
X16178Y9507D2*
X16207Y9521D1*
X16250Y9564D1*
Y9263D1*
X16343Y9507D2*
X16371Y9521D1*
X16415Y9564D1*
Y9263D1*
X16593Y9564D2*
X16550Y9550D1*
X16521Y9507D1*
X16507Y9435D1*
Y9392D1*
X16521Y9320D1*
X16550Y9277D1*
X16593Y9263D1*
X16622D1*
X16665Y9277D1*
X16694Y9320D1*
X16708Y9392D1*
Y9435D1*
X16694Y9507D1*
X16665Y9550D1*
X16622Y9564D1*
X16593D1*
X16694Y9507D2*
X16521Y9320D1*
X15758Y17325D2*
X15744Y17354D1*
X15715Y17383D1*
X15686Y17397D1*
X15629D1*
X15600Y17383D1*
X15571Y17354D1*
X15557Y17325D1*
X15543Y17282D1*
Y17210D1*
X15557Y17167D1*
X15571Y17139D1*
X15600Y17110D1*
X15629Y17095D1*
X15686D1*
X15715Y17110D1*
X15744Y17139D1*
X15758Y17167D1*
X15850Y17339D2*
X15879Y17354D1*
X15922Y17397D1*
Y17095D1*
X16015Y17339D2*
X16044Y17354D1*
X16087Y17397D1*
Y17095D1*
X16180Y17339D2*
X16209Y17354D1*
X16252Y17397D1*
Y17095D1*
X17381Y17325D2*
X17367Y17354D1*
X17338Y17383D1*
X17309Y17397D1*
X17252D1*
X17223Y17383D1*
X17194Y17354D1*
X17180Y17325D1*
X17166Y17282D1*
Y17210D1*
X17180Y17167D1*
X17194Y17138D1*
X17223Y17110D1*
X17252Y17095D1*
X17309D1*
X17338Y17110D1*
X17367Y17138D1*
X17381Y17167D1*
X17473Y17339D2*
X17502Y17354D1*
X17545Y17396D1*
Y17095D1*
X17638Y17339D2*
X17667Y17354D1*
X17710Y17396D1*
Y17095D1*
X17817Y17325D2*
Y17339D1*
X17832Y17368D1*
X17846Y17382D1*
X17875Y17396D1*
X17932D1*
X17961Y17382D1*
X17975Y17368D1*
X17989Y17339D1*
Y17311D1*
X17975Y17282D1*
X17946Y17239D1*
X17803Y17095D1*
X18004D1*
X17837Y12939D2*
X17808Y12924D1*
X17780Y12895D1*
X17765Y12867D1*
Y12810D1*
X17780Y12781D1*
X17808Y12752D1*
X17837Y12738D1*
X17880Y12723D1*
X17952D1*
X17995Y12738D1*
X18024Y12752D1*
X18052Y12781D1*
X18067Y12810D1*
Y12867D1*
X18052Y12895D1*
X18024Y12924D1*
X17995Y12939D1*
X17823Y13031D2*
X17808Y13060D1*
X17766Y13103D1*
X18067D1*
X17823Y13196D2*
X17808Y13225D1*
X17766Y13268D1*
X18067D1*
X17766Y13389D2*
Y13547D1*
X17880Y13461D1*
Y13504D1*
X17895Y13532D1*
X17909Y13547D1*
X17952Y13561D1*
X17981D1*
X18024Y13547D1*
X18053Y13518D1*
X18067Y13475D1*
Y13432D1*
X18053Y13389D1*
X18038Y13375D1*
X18009Y13360D1*
X46685Y7441D2*
X46657Y7427D1*
X46628Y7398D1*
X46614Y7370D1*
Y7312D1*
X46628Y7284D1*
X46657Y7255D1*
X46685Y7240D1*
X46729Y7226D1*
X46801D1*
X46843Y7240D1*
X46872Y7255D1*
X46901Y7284D1*
X46915Y7312D1*
Y7370D1*
X46901Y7398D1*
X46872Y7427D1*
X46843Y7441D1*
X46686Y7549D2*
X46672D1*
X46643Y7563D1*
X46628Y7577D1*
X46614Y7606D1*
Y7663D1*
X46628Y7692D1*
X46643Y7706D1*
X46672Y7721D1*
X46700D1*
X46729Y7706D1*
X46772Y7678D1*
X46915Y7534D1*
Y7735D1*
X46614Y7914D2*
X46628Y7871D1*
X46672Y7842D1*
X46743Y7828D1*
X46786D1*
X46858Y7842D1*
X46901Y7871D1*
X46915Y7914D1*
Y7942D1*
X46901Y7985D1*
X46858Y8014D1*
X46786Y8029D1*
X46743D1*
X46672Y8014D1*
X46628Y7985D1*
X46614Y7942D1*
Y7914D1*
X46672Y8014D2*
X46858Y7842D1*
X46672Y8121D2*
X46657Y8150D1*
X46614Y8193D1*
X46915D1*
X52025Y3212D2*
X51996Y3198D1*
X51967Y3169D1*
X51953Y3141D1*
Y3083D1*
X51967Y3055D1*
X51996Y3026D1*
X52025Y3011D1*
X52068Y2997D1*
X52140D1*
X52182Y3011D1*
X52211Y3026D1*
X52240Y3055D1*
X52254Y3083D1*
Y3141D1*
X52240Y3169D1*
X52211Y3198D1*
X52182Y3212D1*
X52025Y3320D2*
X52011D1*
X51982Y3334D1*
X51967Y3348D1*
X51953Y3377D1*
Y3434D1*
X51967Y3463D1*
X51982Y3477D1*
X52011Y3492D1*
X52039D1*
X52068Y3477D1*
X52111Y3449D1*
X52254Y3305D1*
Y3506D1*
X51953Y3685D2*
X51967Y3642D1*
X52011Y3613D1*
X52082Y3599D1*
X52125D1*
X52197Y3613D1*
X52240Y3642D1*
X52254Y3685D1*
Y3713D1*
X52240Y3756D1*
X52197Y3785D1*
X52125Y3800D1*
X52082D1*
X52011Y3785D1*
X51967Y3756D1*
X51953Y3713D1*
Y3685D1*
X52011Y3785D2*
X52197Y3613D1*
X52025Y3907D2*
X52011D1*
X51982Y3921D1*
X51967Y3935D1*
X51953Y3964D1*
Y4022D1*
X51967Y4050D1*
X51982Y4064D1*
X52011Y4079D1*
X52039D1*
X52068Y4064D1*
X52111Y4036D1*
X52254Y3892D1*
Y4093D1*
X47373Y15020D2*
X47344Y15006D1*
X47316Y14977D1*
X47301Y14948D1*
Y14891D1*
X47316Y14862D1*
X47344Y14834D1*
X47373Y14819D1*
X47416Y14805D1*
X47488D1*
X47531Y14819D1*
X47560Y14834D1*
X47588Y14862D1*
X47603Y14891D1*
Y14948D1*
X47588Y14977D1*
X47560Y15006D1*
X47531Y15020D1*
X47373Y15127D2*
X47359D1*
X47330Y15142D1*
X47316Y15156D1*
X47302Y15185D1*
Y15242D1*
X47316Y15271D1*
X47330Y15285D1*
X47359Y15299D1*
X47388D1*
X47416Y15285D1*
X47459Y15256D1*
X47603Y15113D1*
Y15314D1*
X47302Y15493D2*
X47316Y15449D1*
X47359Y15421D1*
X47431Y15406D1*
X47474D1*
X47545Y15421D1*
X47588Y15449D1*
X47603Y15493D1*
Y15521D1*
X47588Y15564D1*
X47545Y15593D1*
X47474Y15607D1*
X47431D1*
X47359Y15593D1*
X47316Y15564D1*
X47302Y15521D1*
Y15493D1*
X47359Y15593D2*
X47545Y15421D1*
X47302Y15729D2*
Y15886D1*
X47416Y15800D1*
Y15843D1*
X47431Y15872D1*
X47445Y15886D1*
X47488Y15901D1*
X47517D1*
X47560Y15886D1*
X47588Y15858D1*
X47603Y15815D1*
Y15772D1*
X47588Y15729D1*
X47574Y15714D1*
X47545Y15700D1*
X51685Y7432D2*
X51657Y7418D1*
X51628Y7389D1*
X51614Y7361D1*
Y7303D1*
X51628Y7274D1*
X51657Y7246D1*
X51685Y7231D1*
X51729Y7217D1*
X51801D1*
X51843Y7231D1*
X51872Y7246D1*
X51901Y7274D1*
X51915Y7303D1*
Y7361D1*
X51901Y7389D1*
X51872Y7418D1*
X51843Y7432D1*
X51686Y7539D2*
X51672D1*
X51643Y7554D1*
X51628Y7568D1*
X51614Y7597D1*
Y7654D1*
X51628Y7683D1*
X51643Y7697D1*
X51672Y7712D1*
X51700D1*
X51729Y7697D1*
X51772Y7668D1*
X51915Y7525D1*
Y7726D1*
X51614Y7905D2*
X51628Y7862D1*
X51672Y7833D1*
X51743Y7818D1*
X51786D1*
X51858Y7833D1*
X51901Y7862D1*
X51915Y7905D1*
Y7933D1*
X51901Y7976D1*
X51858Y8005D1*
X51786Y8019D1*
X51743D1*
X51672Y8005D1*
X51628Y7976D1*
X51614Y7933D1*
Y7905D1*
X51672Y8005D2*
X51858Y7833D1*
X51915Y8256D2*
X51614D1*
X51815Y8112D1*
Y8327D1*
X50935Y15020D2*
X50907Y15006D1*
X50878Y14977D1*
X50864Y14948D1*
Y14891D1*
X50878Y14862D1*
X50907Y14834D1*
X50935Y14819D1*
X50979Y14805D1*
X51051D1*
X51093Y14819D1*
X51122Y14834D1*
X51151Y14862D1*
X51165Y14891D1*
Y14948D1*
X51151Y14977D1*
X51122Y15006D1*
X51093Y15020D1*
X50936Y15127D2*
X50922D1*
X50893Y15142D1*
X50878Y15156D1*
X50864Y15185D1*
Y15242D1*
X50878Y15271D1*
X50893Y15285D1*
X50922Y15299D1*
X50950D1*
X50979Y15285D1*
X51022Y15256D1*
X51165Y15113D1*
Y15314D1*
X50864Y15493D2*
X50878Y15449D1*
X50922Y15421D1*
X50993Y15406D1*
X51036D1*
X51108Y15421D1*
X51151Y15449D1*
X51165Y15493D1*
Y15521D1*
X51151Y15564D1*
X51108Y15593D1*
X51036Y15607D1*
X50993D1*
X50922Y15593D1*
X50878Y15564D1*
X50864Y15521D1*
Y15493D1*
X50922Y15593D2*
X51108Y15421D1*
X50864Y15872D2*
Y15729D1*
X50993Y15714D1*
X50979Y15729D1*
X50964Y15772D1*
Y15815D1*
X50979Y15858D1*
X51007Y15887D1*
X51051Y15901D1*
X51079D1*
X51122Y15887D1*
X51151Y15858D1*
X51165Y15815D1*
Y15772D1*
X51151Y15729D1*
X51136Y15714D1*
X51108Y15700D1*
X45837Y3722D2*
X45808Y3707D1*
X45780Y3679D1*
X45765Y3650D1*
Y3593D1*
X45780Y3564D1*
X45808Y3535D1*
X45837Y3521D1*
X45880Y3506D1*
X45952D1*
X45995Y3521D1*
X46024Y3535D1*
X46052Y3564D1*
X46067Y3593D1*
Y3650D1*
X46052Y3679D1*
X46024Y3707D1*
X45995Y3722D1*
X45837Y3829D2*
X45823D1*
X45794Y3843D1*
X45780Y3857D1*
X45766Y3886D1*
Y3944D1*
X45780Y3972D1*
X45794Y3986D1*
X45823Y4001D1*
X45852D1*
X45880Y3986D1*
X45923Y3958D1*
X46067Y3814D1*
Y4015D1*
X45766Y4194D2*
X45780Y4151D1*
X45823Y4122D1*
X45895Y4108D1*
X45938D1*
X46009Y4122D1*
X46053Y4151D1*
X46067Y4194D1*
Y4223D1*
X46053Y4266D1*
X46009Y4294D1*
X45938Y4309D1*
X45895D1*
X45823Y4294D1*
X45780Y4266D1*
X45766Y4223D1*
Y4194D1*
X45823Y4294D2*
X46009Y4122D1*
X45808Y4574D2*
X45780Y4559D1*
X45766Y4516D1*
Y4488D1*
X45780Y4445D1*
X45823Y4416D1*
X45895Y4401D1*
X45966D1*
X46024Y4416D1*
X46053Y4445D1*
X46067Y4488D1*
Y4502D1*
X46053Y4545D1*
X46024Y4574D1*
X45981Y4588D1*
X45966D1*
X45923Y4574D1*
X45895Y4545D1*
X45880Y4502D1*
Y4488D1*
X45895Y4445D1*
X45923Y4416D1*
X45966Y4401D1*
X48650Y4775D2*
X48621Y4761D1*
X48592Y4732D1*
X48578Y4703D1*
Y4646D1*
X48592Y4617D1*
X48621Y4589D1*
X48650Y4574D1*
X48693Y4560D1*
X48765D1*
X48807Y4574D1*
X48836Y4589D1*
X48865Y4617D1*
X48879Y4646D1*
Y4703D1*
X48865Y4732D1*
X48836Y4761D1*
X48807Y4775D1*
X48650Y4882D2*
X48636D1*
X48607Y4896D1*
X48592Y4911D1*
X48578Y4939D1*
Y4997D1*
X48592Y5025D1*
X48607Y5040D1*
X48636Y5054D1*
X48664D1*
X48693Y5040D1*
X48736Y5011D1*
X48879Y4868D1*
Y5068D1*
X48578Y5247D2*
X48592Y5204D1*
X48636Y5175D1*
X48707Y5161D1*
X48750D1*
X48822Y5175D1*
X48865Y5204D1*
X48879Y5247D1*
Y5276D1*
X48865Y5319D1*
X48822Y5347D1*
X48750Y5362D1*
X48707D1*
X48636Y5347D1*
X48592Y5319D1*
X48578Y5276D1*
Y5247D1*
X48636Y5347D2*
X48822Y5175D1*
X48879Y5512D2*
X48578Y5656D1*
Y5455D1*
X48935Y15510D2*
X48920Y15539D1*
X48892Y15567D1*
X48863Y15582D1*
X48806D1*
X48777Y15567D1*
X48748Y15539D1*
X48734Y15510D1*
X48719Y15467D1*
Y15395D1*
X48734Y15352D1*
X48748Y15323D1*
X48777Y15295D1*
X48806Y15280D1*
X48863D1*
X48892Y15295D1*
X48920Y15323D1*
X48935Y15352D1*
X49042Y15510D2*
Y15524D1*
X49056Y15553D1*
X49070Y15567D1*
X49099Y15581D1*
X49157D1*
X49185Y15567D1*
X49199Y15553D1*
X49214Y15524D1*
Y15495D1*
X49199Y15467D1*
X49171Y15424D1*
X49027Y15280D1*
X49228D1*
X49407Y15581D2*
X49364Y15567D1*
X49335Y15524D1*
X49321Y15452D1*
Y15409D1*
X49335Y15338D1*
X49364Y15294D1*
X49407Y15280D1*
X49436D1*
X49479Y15294D1*
X49507Y15338D1*
X49522Y15409D1*
Y15452D1*
X49507Y15524D1*
X49479Y15567D1*
X49436Y15581D1*
X49407D1*
X49507Y15524D2*
X49335Y15338D1*
X49686Y15581D2*
X49643Y15567D1*
X49629Y15539D1*
Y15510D1*
X49643Y15481D1*
X49672Y15467D1*
X49729Y15452D1*
X49772Y15438D1*
X49801Y15409D1*
X49815Y15381D1*
Y15338D1*
X49801Y15309D1*
X49787Y15294D1*
X49743Y15280D1*
X49686D1*
X49643Y15294D1*
X49629Y15309D1*
X49614Y15338D1*
Y15381D1*
X49629Y15409D1*
X49658Y15438D1*
X49700Y15452D1*
X49758Y15467D1*
X49787Y15481D1*
X49801Y15510D1*
Y15539D1*
X49787Y15567D1*
X49743Y15581D1*
X49686D1*
X48817Y7760D2*
X48802Y7789D1*
X48773Y7817D1*
X48745Y7832D1*
X48688D1*
X48659Y7817D1*
X48630Y7789D1*
X48616Y7760D1*
X48601Y7717D1*
Y7645D1*
X48616Y7602D1*
X48630Y7573D1*
X48659Y7545D1*
X48688Y7530D1*
X48745D1*
X48773Y7545D1*
X48802Y7573D1*
X48817Y7602D1*
X48924Y7760D2*
Y7774D1*
X48938Y7803D1*
X48952Y7817D1*
X48981Y7831D1*
X49039D1*
X49067Y7817D1*
X49081Y7803D1*
X49096Y7774D1*
Y7745D1*
X49081Y7717D1*
X49053Y7674D1*
X48909Y7530D1*
X49110D1*
X49289Y7831D2*
X49246Y7817D1*
X49217Y7774D1*
X49203Y7702D1*
Y7659D1*
X49217Y7588D1*
X49246Y7544D1*
X49289Y7530D1*
X49318D1*
X49361Y7544D1*
X49389Y7588D1*
X49404Y7659D1*
Y7702D1*
X49389Y7774D1*
X49361Y7817D1*
X49318Y7831D1*
X49289D1*
X49389Y7774D2*
X49217Y7588D1*
X49683Y7731D2*
X49668Y7688D1*
X49640Y7659D1*
X49597Y7645D1*
X49583D1*
X49540Y7659D1*
X49511Y7688D1*
X49496Y7731D1*
Y7745D1*
X49511Y7789D1*
X49540Y7817D1*
X49583Y7831D1*
X49597D1*
X49640Y7817D1*
X49668Y7789D1*
X49683Y7731D1*
Y7659D1*
X49668Y7588D1*
X49640Y7544D1*
X49597Y7530D1*
X49568D1*
X49525Y7544D1*
X49511Y7573D1*
X29650Y17152D2*
X29621Y17138D1*
X29592Y17109D1*
X29578Y17080D1*
Y17023D1*
X29592Y16994D1*
X29621Y16966D1*
X29650Y16951D1*
X29693Y16937D1*
X29765D1*
X29807Y16951D1*
X29836Y16966D1*
X29865Y16994D1*
X29879Y17023D1*
Y17080D1*
X29865Y17109D1*
X29836Y17138D1*
X29807Y17152D1*
X29578Y17273D2*
Y17431D1*
X29693Y17345D1*
Y17388D1*
X29707Y17417D1*
X29721Y17431D1*
X29765Y17445D1*
X29793D1*
X29836Y17431D1*
X29865Y17402D1*
X29879Y17359D1*
Y17316D1*
X29865Y17273D1*
X29850Y17259D1*
X29822Y17245D1*
X29578Y17624D2*
X29592Y17581D1*
X29636Y17552D1*
X29707Y17538D1*
X29750D1*
X29822Y17552D1*
X29865Y17581D1*
X29879Y17624D1*
Y17653D1*
X29865Y17696D1*
X29822Y17724D1*
X29750Y17739D1*
X29707D1*
X29636Y17724D1*
X29592Y17696D1*
X29578Y17653D1*
Y17624D1*
X29636Y17724D2*
X29822Y17552D1*
X29636Y17832D2*
X29621Y17861D1*
X29578Y17904D1*
X29879D1*
X31198Y8856D2*
X31184Y8885D1*
X31155Y8914D1*
X31127Y8928D1*
X31069D1*
X31040Y8914D1*
X31012Y8885D1*
X30997Y8856D1*
X30983Y8813D1*
Y8741D1*
X30997Y8699D1*
X31012Y8670D1*
X31040Y8641D1*
X31069Y8627D1*
X31127D1*
X31155Y8641D1*
X31184Y8670D1*
X31198Y8699D1*
X31320Y8928D2*
X31477D1*
X31391Y8813D1*
X31434D1*
X31463Y8799D1*
X31477Y8784D1*
X31492Y8741D1*
Y8713D1*
X31477Y8670D1*
X31449Y8641D1*
X31406Y8627D1*
X31362D1*
X31320Y8641D1*
X31305Y8655D1*
X31291Y8684D1*
X31671Y8928D2*
X31628Y8913D1*
X31599Y8870D1*
X31584Y8799D1*
Y8756D1*
X31599Y8684D1*
X31628Y8641D1*
X31671Y8627D1*
X31699D1*
X31742Y8641D1*
X31771Y8684D1*
X31785Y8756D1*
Y8799D1*
X31771Y8870D1*
X31742Y8913D1*
X31699Y8928D1*
X31671D1*
X31771Y8870D2*
X31599Y8684D1*
X31893Y8856D2*
Y8870D1*
X31907Y8899D1*
X31921Y8913D1*
X31950Y8928D1*
X32007D1*
X32036Y8913D1*
X32050Y8899D1*
X32065Y8870D1*
Y8842D1*
X32050Y8813D1*
X32022Y8770D1*
X31878Y8627D1*
X32079D1*
X29636Y8856D2*
X29621Y8885D1*
X29593Y8914D1*
X29564Y8928D1*
X29507D1*
X29478Y8914D1*
X29449Y8885D1*
X29435Y8856D1*
X29421Y8813D1*
Y8741D1*
X29435Y8699D1*
X29449Y8670D1*
X29478Y8641D1*
X29507Y8627D1*
X29564D1*
X29593Y8641D1*
X29621Y8670D1*
X29636Y8699D1*
X29757Y8928D2*
X29915D1*
X29829Y8813D1*
X29872D1*
X29900Y8799D1*
X29915Y8784D1*
X29929Y8741D1*
Y8713D1*
X29915Y8670D1*
X29886Y8641D1*
X29843Y8627D1*
X29800D1*
X29757Y8641D1*
X29743Y8655D1*
X29728Y8684D1*
X30108Y8928D2*
X30065Y8913D1*
X30036Y8870D1*
X30022Y8799D1*
Y8756D1*
X30036Y8684D1*
X30065Y8641D1*
X30108Y8627D1*
X30137D1*
X30180Y8641D1*
X30208Y8684D1*
X30223Y8756D1*
Y8799D1*
X30208Y8870D1*
X30180Y8913D1*
X30137Y8928D1*
X30108D1*
X30208Y8870D2*
X30036Y8684D1*
X30344Y8928D2*
X30502D1*
X30416Y8813D1*
X30459D1*
X30488Y8799D1*
X30502Y8784D1*
X30517Y8741D1*
Y8713D1*
X30502Y8670D1*
X30473Y8641D1*
X30430Y8627D1*
X30387D1*
X30344Y8641D1*
X30330Y8655D1*
X30316Y8684D1*
X2763Y13442D2*
X2748Y13470D1*
X2720Y13499D1*
X2691Y13513D1*
X2634D1*
X2605Y13499D1*
X2576Y13470D1*
X2562Y13442D1*
X2547Y13398D1*
Y13326D1*
X2562Y13284D1*
X2576Y13255D1*
X2605Y13226D1*
X2634Y13212D1*
X2691D1*
X2720Y13226D1*
X2748Y13255D1*
X2763Y13284D1*
X3027Y13513D2*
X2884D1*
X2870Y13384D1*
X2884Y13398D1*
X2927Y13413D1*
X2970D1*
X3013Y13398D1*
X3042Y13370D1*
X3056Y13326D1*
Y13298D1*
X3042Y13255D1*
X3013Y13226D1*
X2970Y13212D1*
X2927D1*
X2884Y13226D1*
X2870Y13241D1*
X2855Y13269D1*
X3235Y13513D2*
X3192Y13499D1*
X3163Y13455D1*
X3149Y13384D1*
Y13341D1*
X3163Y13269D1*
X3192Y13226D1*
X3235Y13212D1*
X3264D1*
X3307Y13226D1*
X3335Y13269D1*
X3350Y13341D1*
Y13384D1*
X3335Y13455D1*
X3307Y13499D1*
X3264Y13513D1*
X3235D1*
X3335Y13455D2*
X3163Y13269D1*
X3443Y13455D2*
X3471Y13470D1*
X3515Y13513D1*
Y13212D1*
X34402Y6163D2*
X34388Y6192D1*
X34359Y6220D1*
X34330Y6235D1*
X34273D1*
X34244Y6220D1*
X34215Y6192D1*
X34201Y6163D1*
X34187Y6120D1*
Y6048D1*
X34201Y6005D1*
X34215Y5976D1*
X34244Y5948D1*
X34273Y5933D1*
X34330D1*
X34359Y5948D1*
X34388Y5976D1*
X34402Y6005D1*
X34667Y6234D2*
X34523D1*
X34509Y6105D1*
X34523Y6120D1*
X34566Y6134D1*
X34609D1*
X34652Y6120D1*
X34681Y6091D1*
X34695Y6048D1*
Y6019D1*
X34681Y5976D1*
X34652Y5947D1*
X34609Y5933D1*
X34566D1*
X34523Y5947D1*
X34509Y5962D1*
X34494Y5991D1*
X34874Y6234D2*
X34831Y6220D1*
X34802Y6177D1*
X34788Y6105D1*
Y6062D1*
X34802Y5991D1*
X34831Y5947D1*
X34874Y5933D1*
X34903D1*
X34946Y5947D1*
X34974Y5991D1*
X34989Y6062D1*
Y6105D1*
X34974Y6177D1*
X34946Y6220D1*
X34903Y6234D1*
X34874D1*
X34974Y6177D2*
X34802Y5991D1*
X35096Y6163D2*
Y6177D1*
X35111Y6206D1*
X35125Y6220D1*
X35154Y6234D1*
X35211D1*
X35240Y6220D1*
X35254Y6206D1*
X35268Y6177D1*
Y6148D1*
X35254Y6120D1*
X35225Y6077D1*
X35082Y5933D1*
X35283D1*
X14748Y9576D2*
Y9275D1*
X14848D1*
X14891Y9289D1*
X14920Y9318D1*
X14934Y9347D1*
X14948Y9389D1*
Y9461D1*
X14934Y9505D1*
X14920Y9533D1*
X14891Y9562D1*
X14848Y9576D1*
X14748D1*
X15041Y9518D2*
X15070Y9533D1*
X15113Y9576D1*
Y9275D1*
X15292Y9576D2*
X15249Y9562D1*
X15220Y9518D1*
X15206Y9447D1*
Y9404D1*
X15220Y9332D1*
X15249Y9289D1*
X15292Y9275D1*
X15320D1*
X15364Y9289D1*
X15392Y9332D1*
X15407Y9404D1*
Y9447D1*
X15392Y9518D1*
X15364Y9562D1*
X15320Y9576D1*
X15292D1*
X15392Y9518D2*
X15220Y9332D1*
X15499Y9518D2*
X15528Y9533D1*
X15571Y9576D1*
Y9275D1*
X12762Y12661D2*
Y12360D1*
X12862D1*
X12905Y12374D1*
X12934Y12403D1*
X12949Y12432D1*
X12963Y12475D1*
Y12546D1*
X12949Y12590D1*
X12934Y12618D1*
X12905Y12647D1*
X12862Y12661D1*
X12762D1*
X13055Y12604D2*
X13084Y12618D1*
X13127Y12661D1*
Y12360D1*
X13306Y12661D2*
X13263Y12647D1*
X13234Y12604D1*
X13220Y12532D1*
Y12489D1*
X13234Y12417D1*
X13263Y12374D1*
X13306Y12360D1*
X13335D1*
X13378Y12374D1*
X13406Y12417D1*
X13421Y12489D1*
Y12532D1*
X13406Y12604D1*
X13378Y12647D1*
X13335Y12661D1*
X13306D1*
X13406Y12604D2*
X13234Y12417D1*
X13528Y12589D2*
Y12604D1*
X13542Y12632D1*
X13557Y12647D1*
X13586Y12661D1*
X13643D1*
X13671Y12647D1*
X13686Y12632D1*
X13700Y12604D1*
Y12575D1*
X13686Y12546D1*
X13657Y12503D1*
X13514Y12360D1*
X13715D1*
X13317Y16585D2*
Y16284D1*
X13417D1*
X13460Y16298D1*
X13489Y16327D1*
X13504Y16356D1*
X13518Y16398D1*
Y16470D1*
X13504Y16513D1*
X13489Y16542D1*
X13460Y16571D1*
X13417Y16585D1*
X13317D1*
X13610Y16527D2*
X13639Y16542D1*
X13682Y16585D1*
Y16284D1*
X13861Y16585D2*
X13818Y16570D1*
X13789Y16527D1*
X13775Y16456D1*
Y16413D1*
X13789Y16341D1*
X13818Y16298D1*
X13861Y16284D1*
X13890D1*
X13933Y16298D1*
X13961Y16341D1*
X13976Y16413D1*
Y16456D1*
X13961Y16527D1*
X13933Y16570D1*
X13890Y16585D1*
X13861D1*
X13961Y16527D2*
X13789Y16341D1*
X14098Y16585D2*
X14255D1*
X14169Y16470D1*
X14212D1*
X14241Y16456D1*
X14255Y16441D1*
X14270Y16398D1*
Y16370D1*
X14255Y16327D1*
X14227Y16298D1*
X14183Y16284D1*
X14140D1*
X14098Y16298D1*
X14083Y16312D1*
X14069Y16341D1*
X7093Y9303D2*
X7394D1*
Y9403D1*
X7379Y9447D1*
X7351Y9475D1*
X7322Y9490D1*
X7279Y9504D1*
X7207D1*
X7164Y9490D1*
X7136Y9475D1*
X7107Y9447D1*
X7093Y9403D1*
Y9303D1*
X7150Y9597D2*
X7136Y9625D1*
X7093Y9668D1*
X7394D1*
X7093Y9847D2*
X7107Y9804D1*
X7150Y9775D1*
X7222Y9761D1*
X7265D1*
X7337Y9775D1*
X7380Y9804D1*
X7394Y9847D1*
Y9876D1*
X7380Y9919D1*
X7337Y9947D1*
X7265Y9962D1*
X7222D1*
X7150Y9947D1*
X7107Y9919D1*
X7093Y9876D1*
Y9847D1*
X7150Y9947D2*
X7337Y9775D1*
X7394Y10198D2*
X7093D1*
X7294Y10055D1*
Y10270D1*
X9121Y9453D2*
X9422D1*
Y9553D1*
X9408Y9596D1*
X9379Y9625D1*
X9350Y9639D1*
X9307Y9654D1*
X9235D1*
X9192Y9639D1*
X9164Y9625D1*
X9135Y9596D1*
X9121Y9553D1*
Y9453D1*
X9178Y9746D2*
X9164Y9775D1*
X9121Y9818D1*
X9422D1*
X9121Y9997D2*
X9135Y9954D1*
X9178Y9925D1*
X9250Y9911D1*
X9293D1*
X9365Y9925D1*
X9408Y9954D1*
X9422Y9997D1*
Y10026D1*
X9408Y10069D1*
X9365Y10097D1*
X9293Y10112D1*
X9250D1*
X9178Y10097D1*
X9135Y10069D1*
X9121Y10026D1*
Y9997D1*
X9178Y10097D2*
X9365Y9925D1*
X9121Y10377D2*
Y10233D1*
X9250Y10219D1*
X9236Y10233D1*
X9221Y10276D1*
Y10319D1*
X9236Y10362D1*
X9264Y10391D1*
X9307Y10405D1*
X9336D1*
X9379Y10391D1*
X9408Y10362D1*
X9422Y10319D1*
Y10276D1*
X9408Y10233D1*
X9393Y10219D1*
X9365Y10205D1*
X17986Y10190D2*
X18288D1*
Y10291D1*
X18273Y10334D1*
X18245Y10363D1*
X18216Y10377D1*
X18173Y10391D1*
X18101D1*
X18058Y10377D1*
X18029Y10363D1*
X18001Y10334D1*
X17986Y10291D1*
Y10190D1*
X18044Y10484D2*
X18029Y10513D1*
X17987Y10556D1*
X18288D1*
X17987Y10735D2*
X18001Y10692D1*
X18044Y10663D1*
X18116Y10648D1*
X18159D1*
X18230Y10663D1*
X18274Y10692D1*
X18288Y10735D1*
Y10763D1*
X18274Y10806D1*
X18230Y10835D1*
X18159Y10849D1*
X18116D1*
X18044Y10835D1*
X18001Y10806D1*
X17987Y10763D1*
Y10735D1*
X18044Y10835D2*
X18230Y10663D1*
X18029Y11114D2*
X18001Y11100D1*
X17987Y11057D1*
Y11028D1*
X18001Y10985D1*
X18044Y10956D1*
X18116Y10942D1*
X18187D1*
X18245Y10956D1*
X18274Y10985D1*
X18288Y11028D1*
Y11043D1*
X18274Y11085D1*
X18245Y11114D1*
X18202Y11128D1*
X18187D1*
X18144Y11114D1*
X18116Y11085D1*
X18101Y11043D1*
Y11028D1*
X18116Y10985D1*
X18144Y10956D1*
X18187Y10942D1*
X16574Y14536D2*
Y14235D1*
X16675D1*
X16718Y14249D1*
X16747Y14278D1*
X16761Y14307D1*
X16775Y14350D1*
Y14422D1*
X16761Y14465D1*
X16747Y14493D1*
X16718Y14522D1*
X16675Y14536D1*
X16574D1*
X16868Y14479D2*
X16897Y14493D1*
X16940Y14536D1*
Y14235D1*
X17119Y14536D2*
X17076Y14522D1*
X17047Y14479D1*
X17033Y14407D1*
Y14364D1*
X17047Y14292D1*
X17076Y14249D1*
X17119Y14235D1*
X17147D1*
X17190Y14249D1*
X17219Y14292D1*
X17233Y14364D1*
Y14407D1*
X17219Y14479D1*
X17190Y14522D1*
X17147Y14536D1*
X17119D1*
X17219Y14479D2*
X17047Y14292D1*
X17383Y14235D2*
X17527Y14536D1*
X17326D1*
X29452Y7379D2*
Y7078D1*
X29553D1*
X29596Y7092D1*
X29624Y7121D1*
X29639Y7150D1*
X29653Y7193D1*
Y7265D1*
X29639Y7308D1*
X29624Y7336D1*
X29596Y7365D1*
X29553Y7379D1*
X29452D1*
X29889Y7078D2*
Y7379D1*
X29746Y7178D1*
X29961D1*
X30140Y7379D2*
X30097Y7365D1*
X30068Y7322D1*
X30053Y7250D1*
Y7207D1*
X30068Y7135D1*
X30097Y7092D1*
X30140Y7078D1*
X30168D1*
X30211Y7092D1*
X30240Y7135D1*
X30254Y7207D1*
Y7250D1*
X30240Y7322D1*
X30211Y7365D1*
X30168Y7379D1*
X30140D1*
X30240Y7322D2*
X30068Y7135D1*
X30347Y7322D2*
X30376Y7336D1*
X30419Y7379D1*
Y7078D1*
X799Y11614D2*
X1100D1*
Y11715D1*
X1086Y11758D1*
X1057Y11787D1*
X1028Y11801D1*
X986Y11815D1*
X914D1*
X870Y11801D1*
X842Y11787D1*
X813Y11758D1*
X799Y11715D1*
Y11614D1*
Y12080D2*
Y11937D1*
X928Y11922D1*
X914Y11937D1*
X899Y11980D1*
Y12023D1*
X914Y12066D1*
X942Y12095D1*
X986Y12109D1*
X1014D1*
X1057Y12095D1*
X1086Y12066D1*
X1100Y12023D1*
Y11980D1*
X1086Y11937D1*
X1071Y11922D1*
X1043Y11908D1*
X799Y12288D2*
X813Y12245D1*
X857Y12216D1*
X928Y12201D1*
X971D1*
X1043Y12216D1*
X1086Y12245D1*
X1100Y12288D1*
Y12316D1*
X1086Y12359D1*
X1043Y12388D1*
X971Y12402D1*
X928D1*
X857Y12388D1*
X813Y12359D1*
X799Y12316D1*
Y12288D1*
X857Y12388D2*
X1043Y12216D1*
X857Y12495D2*
X842Y12524D1*
X799Y12567D1*
X1100D1*
X5111Y11362D2*
X5413D1*
Y11463D1*
X5398Y11506D1*
X5370Y11535D1*
X5341Y11549D1*
X5298Y11563D1*
X5226D1*
X5183Y11549D1*
X5154Y11535D1*
X5126Y11506D1*
X5111Y11463D1*
Y11362D1*
X5112Y11828D2*
Y11685D1*
X5241Y11670D1*
X5226Y11685D1*
X5212Y11728D1*
Y11771D1*
X5226Y11814D1*
X5255Y11843D1*
X5298Y11857D1*
X5327D1*
X5370Y11843D1*
X5399Y11814D1*
X5413Y11771D1*
Y11728D1*
X5399Y11685D1*
X5384Y11670D1*
X5355Y11656D1*
X5112Y12036D2*
X5126Y11993D1*
X5169Y11964D1*
X5241Y11949D1*
X5284D1*
X5355Y11964D1*
X5399Y11993D1*
X5413Y12036D1*
Y12064D1*
X5399Y12107D1*
X5355Y12136D1*
X5284Y12150D1*
X5241D1*
X5169Y12136D1*
X5126Y12107D1*
X5112Y12064D1*
Y12036D1*
X5169Y12136D2*
X5355Y11964D1*
X5183Y12258D2*
X5169D1*
X5140Y12272D1*
X5126Y12286D1*
X5112Y12315D1*
Y12372D1*
X5126Y12401D1*
X5140Y12415D1*
X5169Y12430D1*
X5198D1*
X5226Y12415D1*
X5269Y12387D1*
X5413Y12243D1*
Y12444D1*
X22698Y5698D2*
Y5511D1*
X23000D1*
X22842D2*
Y5626D1*
X22698Y5790D2*
X23000D1*
Y5920D1*
X22985Y5963D1*
X22971Y5977D1*
X22942Y5991D1*
X22899D1*
X22871Y5977D1*
X22856Y5963D1*
X22842Y5920D1*
X22827Y5963D1*
X22813Y5977D1*
X22785Y5991D1*
X22756D1*
X22727Y5977D1*
X22713Y5963D1*
X22698Y5920D1*
Y5790D1*
X22842D2*
Y5920D1*
X22756Y6084D2*
X22742Y6113D1*
X22699Y6156D1*
X23000D1*
X22699Y6335D2*
X22713Y6292D1*
X22756Y6263D1*
X22828Y6249D1*
X22871D1*
X22942Y6263D1*
X22986Y6292D1*
X23000Y6335D1*
Y6363D1*
X22986Y6406D1*
X22942Y6435D1*
X22871Y6450D1*
X22828D1*
X22756Y6435D1*
X22713Y6406D1*
X22699Y6363D1*
Y6335D1*
X22756Y6435D2*
X22942Y6263D1*
X22756Y6542D2*
X22742Y6571D1*
X22699Y6614D1*
X23000D1*
X48405Y1699D2*
X48219D1*
Y1397D1*
Y1555D2*
X48333D1*
X48498Y1699D2*
Y1397D1*
X48627D1*
X48670Y1412D1*
X48685Y1426D1*
X48699Y1455D1*
Y1498D1*
X48685Y1527D1*
X48670Y1541D1*
X48627Y1555D1*
X48670Y1570D1*
X48685Y1584D1*
X48699Y1612D1*
Y1641D1*
X48685Y1670D1*
X48670Y1684D1*
X48627Y1699D1*
X48498D1*
Y1555D2*
X48627D1*
X48806Y1627D2*
Y1641D1*
X48820Y1670D1*
X48835Y1684D1*
X48863Y1698D1*
X48921D1*
X48949Y1684D1*
X48964Y1670D1*
X48978Y1641D1*
Y1612D1*
X48964Y1584D1*
X48935Y1541D1*
X48792Y1397D1*
X48992D1*
X49171Y1698D2*
X49128Y1684D1*
X49099Y1641D1*
X49085Y1569D1*
Y1526D1*
X49099Y1455D1*
X49128Y1412D1*
X49171Y1397D1*
X49200D1*
X49243Y1412D1*
X49271Y1455D1*
X49286Y1526D1*
Y1569D1*
X49271Y1641D1*
X49243Y1684D1*
X49200Y1698D1*
X49171D1*
X49271Y1641D2*
X49099Y1455D1*
X49379Y1641D2*
X49408Y1656D1*
X49451Y1698D1*
Y1397D1*
X26236Y10324D2*
X26049D1*
Y10022D1*
Y10180D2*
X26164D1*
X26329Y10324D2*
Y10022D1*
X26458D1*
X26501Y10037D1*
X26515Y10051D1*
X26530Y10080D1*
Y10123D1*
X26515Y10152D1*
X26501Y10166D1*
X26458Y10180D1*
X26501Y10195D1*
X26515Y10209D1*
X26530Y10237D1*
Y10266D1*
X26515Y10295D1*
X26501Y10309D1*
X26458Y10324D1*
X26329D1*
Y10180D2*
X26458D1*
X26651Y10323D2*
X26809D1*
X26723Y10209D1*
X26766D1*
X26794Y10194D1*
X26809Y10180D1*
X26823Y10137D1*
Y10108D1*
X26809Y10065D1*
X26780Y10037D1*
X26737Y10022D1*
X26694D1*
X26651Y10037D1*
X26637Y10051D1*
X26622Y10080D1*
X27002Y10323D2*
X26959Y10309D1*
X26930Y10266D1*
X26916Y10194D1*
Y10151D1*
X26930Y10080D1*
X26959Y10037D1*
X27002Y10022D1*
X27031D1*
X27074Y10037D1*
X27102Y10080D1*
X27117Y10151D1*
Y10194D1*
X27102Y10266D1*
X27074Y10309D1*
X27031Y10323D1*
X27002D1*
X27102Y10266D2*
X26930Y10080D1*
X27209Y10266D2*
X27238Y10281D1*
X27281Y10323D1*
Y10022D1*
X35364Y20939D2*
X35178D1*
Y20638D1*
Y20796D2*
X35292D1*
X35457Y20939D2*
Y20638D1*
X35557D1*
X35600Y20652D1*
X35629Y20681D1*
X35644Y20710D1*
X35658Y20753D1*
Y20825D1*
X35644Y20868D1*
X35629Y20896D1*
X35600Y20925D1*
X35557Y20939D1*
X35457D1*
X35750Y20882D2*
X35779Y20896D1*
X35822Y20939D1*
Y20638D1*
X8300Y1939D2*
X8113D1*
Y1638D1*
Y1796D2*
X8228D1*
X8392Y1939D2*
Y1638D1*
X8493D1*
X8536Y1652D1*
X8565Y1681D1*
X8579Y1710D1*
X8593Y1753D1*
Y1825D1*
X8579Y1868D1*
X8565Y1896D1*
X8536Y1925D1*
X8493Y1939D1*
X8392D1*
X8701Y1867D2*
Y1882D1*
X8715Y1910D1*
X8729Y1925D1*
X8758Y1939D1*
X8815D1*
X8844Y1925D1*
X8858Y1910D1*
X8873Y1882D1*
Y1853D1*
X8858Y1824D1*
X8830Y1781D1*
X8686Y1638D1*
X8887D1*
X41432Y14939D2*
Y14710D1*
X41418Y14667D1*
X41403Y14652D1*
X41375Y14638D1*
X41346D1*
X41318Y14652D1*
X41303Y14667D1*
X41289Y14710D1*
Y14738D1*
X41697Y14896D2*
X41683Y14925D1*
X41640Y14939D1*
X41611D1*
X41568Y14925D1*
X41539Y14882D1*
X41525Y14810D1*
Y14738D1*
X41539Y14681D1*
X41568Y14652D1*
X41611Y14638D1*
X41625D1*
X41668Y14652D1*
X41697Y14681D1*
X41711Y14724D1*
Y14738D1*
X41697Y14781D1*
X41668Y14810D1*
X41625Y14824D1*
X41611D1*
X41568Y14810D1*
X41539Y14781D1*
X41525Y14738D1*
X41432Y7939D2*
Y7710D1*
X41418Y7667D1*
X41403Y7652D1*
X41375Y7638D1*
X41346D1*
X41317Y7652D1*
X41303Y7667D1*
X41289Y7710D1*
Y7738D1*
X41711Y7839D2*
X41697Y7796D1*
X41668Y7767D1*
X41625Y7753D1*
X41611D1*
X41568Y7767D1*
X41539Y7796D1*
X41525Y7839D1*
Y7853D1*
X41539Y7896D1*
X41568Y7925D1*
X41611Y7939D1*
X41625D1*
X41668Y7925D1*
X41697Y7896D1*
X41711Y7839D1*
Y7767D1*
X41697Y7695D1*
X41668Y7652D1*
X41625Y7638D1*
X41597D1*
X41554Y7652D1*
X41539Y7681D1*
X44093Y7333D2*
Y7104D1*
X44078Y7060D1*
X44064Y7046D1*
X44035Y7032D1*
X44006D1*
X43978Y7046D1*
X43964Y7060D1*
X43949Y7104D1*
Y7132D1*
X44185Y7275D2*
X44214Y7290D1*
X44257Y7333D1*
Y7032D1*
X44436Y7333D2*
X44393Y7318D1*
X44364Y7275D1*
X44350Y7204D1*
Y7161D1*
X44364Y7089D1*
X44393Y7046D1*
X44436Y7032D1*
X44465D1*
X44508Y7046D1*
X44536Y7089D1*
X44551Y7161D1*
Y7204D1*
X44536Y7275D1*
X44508Y7318D1*
X44465Y7333D1*
X44436D1*
X44536Y7275D2*
X44364Y7089D1*
X40595Y21083D2*
Y20854D1*
X40580Y20810D1*
X40566Y20796D1*
X40537Y20782D1*
X40508D1*
X40480Y20796D1*
X40466Y20810D1*
X40451Y20854D1*
Y20882D1*
X40687Y21025D2*
X40716Y21040D1*
X40759Y21083D1*
Y20782D1*
X40852Y21025D2*
X40881Y21040D1*
X40924Y21083D1*
Y20782D1*
X41530Y21083D2*
Y20854D1*
X41516Y20810D1*
X41501Y20796D1*
X41473Y20782D1*
X41444D1*
X41415Y20796D1*
X41401Y20810D1*
X41387Y20854D1*
Y20882D1*
X41623Y21025D2*
X41652Y21040D1*
X41695Y21083D1*
Y20782D1*
X41802Y21011D2*
Y21025D1*
X41816Y21054D1*
X41831Y21068D1*
X41859Y21083D1*
X41917D1*
X41945Y21068D1*
X41960Y21054D1*
X41974Y21025D1*
Y20997D1*
X41960Y20968D1*
X41931Y20925D1*
X41787Y20782D1*
X41988D1*
X42530Y21083D2*
Y20854D1*
X42516Y20810D1*
X42501Y20796D1*
X42473Y20782D1*
X42444D1*
X42415Y20796D1*
X42401Y20810D1*
X42387Y20854D1*
Y20882D1*
X42623Y21025D2*
X42652Y21040D1*
X42695Y21083D1*
Y20782D1*
X42816Y21083D2*
X42974D1*
X42888Y20968D1*
X42931D1*
X42960Y20954D1*
X42974Y20939D1*
X42988Y20896D1*
Y20868D1*
X42974Y20825D1*
X42945Y20796D1*
X42902Y20782D1*
X42859D1*
X42816Y20796D1*
X42802Y20810D1*
X42787Y20839D1*
X8760Y15511D2*
Y15281D1*
X8746Y15238D1*
X8732Y15224D1*
X8703Y15209D1*
X8674D1*
X8646Y15224D1*
X8631Y15238D1*
X8617Y15281D1*
Y15310D1*
X8853Y15453D2*
X8882Y15468D1*
X8925Y15510D1*
Y15209D1*
X9104Y15510D2*
X9061Y15496D1*
X9032Y15453D1*
X9018Y15381D1*
Y15338D1*
X9032Y15267D1*
X9061Y15224D1*
X9104Y15209D1*
X9132D1*
X9175Y15224D1*
X9204Y15267D1*
X9219Y15338D1*
Y15381D1*
X9204Y15453D1*
X9175Y15496D1*
X9132Y15510D1*
X9104D1*
X9204Y15453D2*
X9032Y15267D1*
X9311Y15453D2*
X9340Y15468D1*
X9383Y15510D1*
Y15209D1*
X45489Y20392D2*
Y20163D1*
X45475Y20120D1*
X45460Y20105D1*
X45432Y20091D1*
X45403D1*
X45374Y20105D1*
X45360Y20120D1*
X45346Y20163D1*
Y20191D1*
X45596Y20320D2*
Y20334D1*
X45611Y20363D1*
X45625Y20378D1*
X45654Y20392D1*
X45711D1*
X45740Y20378D1*
X45754Y20363D1*
X45769Y20334D1*
Y20306D1*
X45754Y20277D1*
X45725Y20234D1*
X45582Y20091D1*
X45783D1*
X45962Y20392D2*
X45919Y20378D1*
X45890Y20334D1*
X45875Y20263D1*
Y20220D1*
X45890Y20148D1*
X45919Y20105D1*
X45962Y20091D1*
X45990D1*
X46033Y20105D1*
X46062Y20148D1*
X46076Y20220D1*
Y20263D1*
X46062Y20334D1*
X46033Y20378D1*
X45990Y20392D1*
X45962D1*
X46062Y20334D2*
X45890Y20148D1*
X46169Y20334D2*
X46198Y20349D1*
X46241Y20392D1*
Y20091D1*
X49925Y20392D2*
Y20163D1*
X49910Y20120D1*
X49896Y20105D1*
X49867Y20091D1*
X49838D1*
X49810Y20105D1*
X49796Y20120D1*
X49781Y20163D1*
Y20191D1*
X50032Y20320D2*
Y20334D1*
X50046Y20363D1*
X50060Y20378D1*
X50089Y20392D1*
X50147D1*
X50175Y20378D1*
X50189Y20363D1*
X50204Y20334D1*
Y20306D1*
X50189Y20277D1*
X50161Y20234D1*
X50017Y20091D1*
X50218D1*
X50397Y20392D2*
X50354Y20378D1*
X50325Y20334D1*
X50311Y20263D1*
Y20220D1*
X50325Y20148D1*
X50354Y20105D1*
X50397Y20091D1*
X50426D1*
X50469Y20105D1*
X50497Y20148D1*
X50512Y20220D1*
Y20263D1*
X50497Y20334D1*
X50469Y20378D1*
X50426Y20392D1*
X50397D1*
X50497Y20334D2*
X50325Y20148D1*
X50619Y20320D2*
Y20334D1*
X50633Y20363D1*
X50648Y20378D1*
X50676Y20392D1*
X50734D1*
X50762Y20378D1*
X50777Y20363D1*
X50791Y20334D1*
Y20306D1*
X50777Y20277D1*
X50748Y20234D1*
X50605Y20091D1*
X50805D1*
X46131Y6564D2*
Y6335D1*
X46117Y6292D1*
X46103Y6277D1*
X46074Y6263D1*
X46045D1*
X46017Y6277D1*
X46002Y6292D1*
X45988Y6335D1*
Y6363D1*
X46239Y6492D2*
Y6507D1*
X46253Y6535D1*
X46267Y6550D1*
X46296Y6564D1*
X46353D1*
X46382Y6550D1*
X46396Y6535D1*
X46411Y6507D1*
Y6478D1*
X46396Y6449D1*
X46368Y6406D1*
X46224Y6263D1*
X46425D1*
X46604Y6564D2*
X46561Y6550D1*
X46532Y6507D1*
X46518Y6435D1*
Y6392D1*
X46532Y6320D1*
X46561Y6277D1*
X46604Y6263D1*
X46632D1*
X46675Y6277D1*
X46704Y6320D1*
X46719Y6392D1*
Y6435D1*
X46704Y6507D1*
X46675Y6550D1*
X46632Y6564D1*
X46604D1*
X46704Y6507D2*
X46532Y6320D1*
X46840Y6564D2*
X46998D1*
X46912Y6449D1*
X46955D1*
X46983Y6435D1*
X46998Y6421D1*
X47012Y6378D1*
Y6349D1*
X46998Y6306D1*
X46969Y6277D1*
X46926Y6263D1*
X46883D1*
X46840Y6277D1*
X46826Y6292D1*
X46811Y6320D1*
X25946Y15833D2*
Y15604D1*
X25932Y15560D1*
X25917Y15546D1*
X25889Y15532D1*
X25860D1*
X25831Y15546D1*
X25817Y15560D1*
X25802Y15604D1*
Y15632D1*
X26067Y15833D2*
X26225D1*
X26139Y15718D1*
X26182D1*
X26211Y15704D1*
X26225Y15689D1*
X26239Y15646D1*
Y15618D1*
X26225Y15575D1*
X26196Y15546D1*
X26153Y15532D1*
X26110D1*
X26067Y15546D1*
X26053Y15560D1*
X26039Y15589D1*
X26418Y15833D2*
X26375Y15818D1*
X26346Y15775D1*
X26332Y15704D1*
Y15661D1*
X26346Y15589D1*
X26375Y15546D1*
X26418Y15532D1*
X26447D1*
X26490Y15546D1*
X26519Y15589D1*
X26533Y15661D1*
Y15704D1*
X26519Y15775D1*
X26490Y15818D1*
X26447Y15833D1*
X26418D1*
X26519Y15775D2*
X26346Y15589D1*
X26626Y15775D2*
X26655Y15790D1*
X26698Y15833D1*
Y15532D1*
X32857Y17628D2*
Y17399D1*
X32843Y17356D1*
X32828Y17341D1*
X32799Y17327D1*
X32771D1*
X32742Y17341D1*
X32728Y17356D1*
X32713Y17399D1*
Y17427D1*
X32978Y17628D2*
X33136D1*
X33050Y17513D1*
X33093D1*
X33122Y17499D1*
X33136Y17485D1*
X33150Y17442D1*
Y17413D1*
X33136Y17370D1*
X33107Y17341D1*
X33064Y17327D1*
X33021D1*
X32978Y17341D1*
X32964Y17356D1*
X32949Y17384D1*
X33329Y17628D2*
X33286Y17614D1*
X33257Y17571D1*
X33243Y17499D1*
Y17456D1*
X33257Y17384D1*
X33286Y17341D1*
X33329Y17327D1*
X33358D1*
X33401Y17341D1*
X33429Y17384D1*
X33444Y17456D1*
Y17499D1*
X33429Y17571D1*
X33401Y17614D1*
X33358Y17628D1*
X33329D1*
X33429Y17571D2*
X33257Y17384D1*
X33551Y17556D2*
Y17571D1*
X33565Y17599D1*
X33580Y17614D1*
X33609Y17628D1*
X33666D1*
X33694Y17614D1*
X33709Y17599D1*
X33723Y17571D1*
Y17542D1*
X33709Y17513D1*
X33680Y17470D1*
X33537Y17327D1*
X33738D1*
X27857Y17628D2*
Y17399D1*
X27843Y17356D1*
X27828Y17341D1*
X27799Y17327D1*
X27771D1*
X27742Y17341D1*
X27728Y17356D1*
X27713Y17399D1*
Y17427D1*
X27978Y17628D2*
X28136D1*
X28050Y17513D1*
X28093D1*
X28122Y17499D1*
X28136Y17485D1*
X28150Y17442D1*
Y17413D1*
X28136Y17370D1*
X28107Y17341D1*
X28064Y17327D1*
X28021D1*
X27978Y17341D1*
X27964Y17356D1*
X27949Y17384D1*
X28329Y17628D2*
X28286Y17614D1*
X28257Y17571D1*
X28243Y17499D1*
Y17456D1*
X28257Y17384D1*
X28286Y17341D1*
X28329Y17327D1*
X28358D1*
X28401Y17341D1*
X28429Y17384D1*
X28444Y17456D1*
Y17499D1*
X28429Y17571D1*
X28401Y17614D1*
X28358Y17628D1*
X28329D1*
X28429Y17571D2*
X28257Y17384D1*
X28565Y17628D2*
X28723D1*
X28637Y17513D1*
X28680D1*
X28709Y17499D1*
X28723Y17485D1*
X28738Y17442D1*
Y17413D1*
X28723Y17370D1*
X28694Y17341D1*
X28651Y17327D1*
X28608D1*
X28565Y17341D1*
X28551Y17356D1*
X28537Y17384D1*
X25572Y5865D2*
Y5635D1*
X25557Y5592D1*
X25543Y5578D1*
X25514Y5563D1*
X25485D1*
X25457Y5578D1*
X25443Y5592D1*
X25428Y5635D1*
Y5664D1*
X25808Y5563D2*
Y5864D1*
X25664Y5664D1*
X25880D1*
X26058Y5864D2*
X26015Y5850D1*
X25986Y5807D1*
X25972Y5735D1*
Y5692D1*
X25986Y5620D1*
X26015Y5577D1*
X26058Y5563D1*
X26087D1*
X26130Y5577D1*
X26159Y5620D1*
X26173Y5692D1*
Y5735D1*
X26159Y5807D1*
X26130Y5850D1*
X26087Y5864D1*
X26058D1*
X26159Y5807D2*
X25986Y5620D1*
X26266Y5807D2*
X26295Y5821D1*
X26338Y5864D1*
Y5563D1*
X29632Y5865D2*
Y5635D1*
X29618Y5592D1*
X29603Y5578D1*
X29575Y5563D1*
X29546D1*
X29517Y5578D1*
X29503Y5592D1*
X29489Y5635D1*
Y5664D1*
X29868Y5563D2*
Y5864D1*
X29725Y5664D1*
X29940D1*
X30119Y5864D2*
X30076Y5850D1*
X30047Y5807D1*
X30033Y5735D1*
Y5692D1*
X30047Y5620D1*
X30076Y5577D1*
X30119Y5563D1*
X30147D1*
X30190Y5577D1*
X30219Y5620D1*
X30234Y5692D1*
Y5735D1*
X30219Y5807D1*
X30190Y5850D1*
X30147Y5864D1*
X30119D1*
X30219Y5807D2*
X30047Y5620D1*
X30341Y5793D2*
Y5807D1*
X30355Y5836D1*
X30369Y5850D1*
X30398Y5864D1*
X30456D1*
X30484Y5850D1*
X30498Y5836D1*
X30513Y5807D1*
Y5778D1*
X30498Y5749D1*
X30470Y5707D1*
X30326Y5563D1*
X30527D1*
X2696Y19979D2*
Y19750D1*
X2682Y19707D1*
X2667Y19692D1*
X2639Y19678D1*
X2610D1*
X2581Y19692D1*
X2567Y19707D1*
X2552Y19750D1*
Y19778D1*
X2961Y19979D2*
X2817D1*
X2803Y19850D1*
X2817Y19864D1*
X2860Y19879D1*
X2903D1*
X2946Y19864D1*
X2975Y19836D1*
X2989Y19793D1*
Y19764D1*
X2975Y19721D1*
X2946Y19692D1*
X2903Y19678D1*
X2860D1*
X2817Y19692D1*
X2803Y19707D1*
X2789Y19735D1*
X3168Y19979D2*
X3125Y19965D1*
X3096Y19922D1*
X3082Y19850D1*
Y19807D1*
X3096Y19735D1*
X3125Y19692D1*
X3168Y19678D1*
X3197D1*
X3240Y19692D1*
X3269Y19735D1*
X3283Y19807D1*
Y19850D1*
X3269Y19922D1*
X3240Y19965D1*
X3197Y19979D1*
X3168D1*
X3269Y19922D2*
X3096Y19735D1*
X3376Y19922D2*
X3405Y19936D1*
X3448Y19979D1*
Y19678D1*
X32819Y3752D2*
Y3522D1*
X32805Y3479D1*
X32790Y3465D1*
X32762Y3450D1*
X32733D1*
X32704Y3465D1*
X32690Y3479D1*
X32675Y3522D1*
Y3551D1*
X33084Y3752D2*
X32940D1*
X32926Y3623D1*
X32940Y3637D1*
X32984Y3651D1*
X33026D1*
X33069Y3637D1*
X33098Y3608D1*
X33113Y3565D1*
Y3537D1*
X33098Y3494D1*
X33069Y3465D1*
X33026Y3450D1*
X32984D1*
X32940Y3465D1*
X32926Y3479D1*
X32912Y3508D1*
X33291Y3752D2*
X33248Y3737D1*
X33219Y3694D1*
X33205Y3623D1*
Y3579D1*
X33219Y3508D1*
X33248Y3465D1*
X33291Y3450D1*
X33320D1*
X33363Y3465D1*
X33392Y3508D1*
X33406Y3579D1*
Y3623D1*
X33392Y3694D1*
X33363Y3737D1*
X33320Y3752D1*
X33291D1*
X33392Y3694D2*
X33219Y3508D1*
X33513Y3680D2*
Y3694D1*
X33528Y3723D1*
X33542Y3737D1*
X33571Y3752D1*
X33628D1*
X33657Y3737D1*
X33671Y3723D1*
X33685Y3694D1*
Y3666D1*
X33671Y3637D1*
X33642Y3594D1*
X33499Y3450D1*
X33700D1*
X23073Y9588D2*
X23374D1*
Y9760D1*
X23131Y9853D2*
X23116Y9881D1*
X23073Y9924D1*
X23374D1*
X23073Y10103D2*
X23088Y10060D1*
X23131Y10031D1*
X23202Y10017D1*
X23245D1*
X23317Y10031D1*
X23360Y10060D1*
X23374Y10103D1*
Y10132D1*
X23360Y10175D1*
X23317Y10203D1*
X23245Y10218D1*
X23202D1*
X23131Y10203D1*
X23088Y10175D1*
X23073Y10132D1*
Y10103D1*
X23131Y10203D2*
X23317Y10031D1*
X23131Y10311D2*
X23116Y10340D1*
X23073Y10383D1*
X23374D1*
X26908Y5865D2*
X26879Y5851D1*
X26850Y5823D1*
X26836Y5794D1*
X26821Y5751D1*
Y5679D1*
X26836Y5636D1*
X26850Y5607D1*
X26879Y5578D1*
X26908Y5564D1*
X26965D1*
X26994Y5578D1*
X27022Y5607D1*
X27037Y5636D1*
X27051Y5679D1*
Y5751D1*
X27037Y5794D1*
X27022Y5823D1*
X26994Y5851D1*
X26965Y5865D1*
X26908D1*
X26951Y5622D2*
X27037Y5535D1*
X27287Y5564D2*
Y5865D1*
X27144Y5664D1*
X27359D1*
X27538Y5865D2*
X27495Y5851D1*
X27466Y5808D1*
X27452Y5736D1*
Y5693D1*
X27466Y5621D1*
X27495Y5578D1*
X27538Y5564D1*
X27566D1*
X27609Y5578D1*
X27638Y5621D1*
X27653Y5693D1*
Y5736D1*
X27638Y5808D1*
X27609Y5851D1*
X27566Y5865D1*
X27538D1*
X27638Y5808D2*
X27466Y5621D1*
X27745Y5808D2*
X27774Y5822D1*
X27817Y5865D1*
Y5564D1*
X383Y8439D2*
X397Y8410D1*
X426Y8382D1*
X455Y8367D1*
X498Y8353D1*
X570D1*
X613Y8367D1*
X641Y8382D1*
X670Y8410D1*
X685Y8439D1*
Y8496D1*
X670Y8525D1*
X641Y8554D1*
X613Y8568D1*
X570Y8583D1*
X498D1*
X455Y8568D1*
X426Y8554D1*
X397Y8525D1*
X383Y8496D1*
Y8439D1*
X627Y8482D2*
X713Y8568D1*
X384Y8847D2*
Y8704D1*
X513Y8690D1*
X499Y8704D1*
X484Y8747D1*
Y8790D1*
X499Y8833D1*
X527Y8862D1*
X570Y8876D1*
X599D1*
X642Y8862D1*
X671Y8833D1*
X685Y8790D1*
Y8747D1*
X671Y8704D1*
X656Y8690D1*
X628Y8675D1*
X384Y9055D2*
X398Y9012D1*
X441Y8983D1*
X513Y8969D1*
X556D1*
X628Y8983D1*
X671Y9012D1*
X685Y9055D1*
Y9083D1*
X671Y9127D1*
X628Y9155D1*
X556Y9170D1*
X513D1*
X441Y9155D1*
X398Y9127D1*
X384Y9083D1*
Y9055D1*
X441Y9155D2*
X628Y8983D1*
X441Y9262D2*
X427Y9291D1*
X384Y9334D1*
X685D1*
X5196Y8437D2*
X5210Y8408D1*
X5239Y8380D1*
X5268Y8365D1*
X5311Y8351D1*
X5382D1*
X5425Y8365D1*
X5454Y8380D1*
X5483Y8408D1*
X5497Y8437D1*
Y8494D1*
X5483Y8523D1*
X5454Y8552D1*
X5425Y8566D1*
X5382Y8581D1*
X5311D1*
X5268Y8566D1*
X5239Y8552D1*
X5210Y8523D1*
X5196Y8494D1*
Y8437D1*
X5440Y8480D2*
X5526Y8566D1*
X5196Y8845D2*
Y8702D1*
X5325Y8688D1*
X5311Y8702D1*
X5296Y8745D1*
Y8788D1*
X5311Y8831D1*
X5340Y8860D1*
X5383Y8874D1*
X5411D1*
X5454Y8860D1*
X5483Y8831D1*
X5497Y8788D1*
Y8745D1*
X5483Y8702D1*
X5469Y8688D1*
X5440Y8673D1*
X5196Y9053D2*
X5211Y9010D1*
X5254Y8981D1*
X5325Y8967D1*
X5368D1*
X5440Y8981D1*
X5483Y9010D1*
X5497Y9053D1*
Y9081D1*
X5483Y9125D1*
X5440Y9153D1*
X5368Y9168D1*
X5325D1*
X5254Y9153D1*
X5211Y9125D1*
X5196Y9081D1*
Y9053D1*
X5254Y9153D2*
X5440Y8981D1*
X5268Y9275D2*
X5254D1*
X5225Y9289D1*
X5211Y9303D1*
X5196Y9332D1*
Y9390D1*
X5211Y9418D1*
X5225Y9432D1*
X5254Y9447D1*
X5282D1*
X5311Y9432D1*
X5354Y9404D1*
X5497Y9260D1*
Y9461D1*
X14173Y5993D2*
X14302D1*
X14345Y6007D1*
X14359Y6021D1*
X14374Y6050D1*
Y6079D1*
X14359Y6107D1*
X14345Y6122D1*
X14302Y6136D1*
X14173D1*
Y5835D1*
X14273Y5993D2*
X14374Y5835D1*
X14466Y6078D2*
X14495Y6093D1*
X14538Y6136D1*
Y5835D1*
X14717Y6136D2*
X14674Y6122D1*
X14645Y6078D1*
X14631Y6007D1*
Y5964D1*
X14645Y5892D1*
X14674Y5849D1*
X14717Y5835D1*
X14746D1*
X14789Y5849D1*
X14817Y5892D1*
X14832Y5964D1*
Y6007D1*
X14817Y6078D1*
X14789Y6122D1*
X14746Y6136D1*
X14717D1*
X14817Y6078D2*
X14645Y5892D1*
X14924Y6078D2*
X14953Y6093D1*
X14996Y6136D1*
Y5835D1*
X19002Y5493D2*
X19131D1*
X19174Y5507D1*
X19188Y5521D1*
X19202Y5550D1*
Y5579D1*
X19188Y5607D1*
X19174Y5622D1*
X19131Y5636D1*
X19002D1*
Y5335D1*
X19102Y5493D2*
X19202Y5335D1*
X19295Y5578D2*
X19324Y5593D1*
X19367Y5636D1*
Y5335D1*
X19546Y5636D2*
X19503Y5622D1*
X19474Y5578D1*
X19460Y5507D1*
Y5464D1*
X19474Y5392D1*
X19503Y5349D1*
X19546Y5335D1*
X19574D1*
X19618Y5349D1*
X19646Y5392D1*
X19661Y5464D1*
Y5507D1*
X19646Y5578D1*
X19618Y5622D1*
X19574Y5636D1*
X19546D1*
X19646Y5578D2*
X19474Y5392D1*
X19768Y5564D2*
Y5578D1*
X19782Y5607D1*
X19796Y5622D1*
X19825Y5636D1*
X19883D1*
X19911Y5622D1*
X19925Y5607D1*
X19940Y5578D1*
Y5550D1*
X19925Y5521D1*
X19897Y5478D1*
X19753Y5335D1*
X19954D1*
X11189Y5868D2*
X11318D1*
X11361Y5882D1*
X11375Y5896D1*
X11389Y5925D1*
Y5954D1*
X11375Y5982D1*
X11361Y5997D1*
X11318Y6011D1*
X11189D1*
Y5710D1*
X11289Y5868D2*
X11389Y5710D1*
X11482Y5953D2*
X11511Y5968D1*
X11554Y6011D1*
Y5710D1*
X11733Y6011D2*
X11690Y5997D1*
X11661Y5953D1*
X11647Y5882D1*
Y5839D1*
X11661Y5767D1*
X11690Y5724D1*
X11733Y5710D1*
X11761D1*
X11805Y5724D1*
X11833Y5767D1*
X11848Y5839D1*
Y5882D1*
X11833Y5953D1*
X11805Y5997D1*
X11761Y6011D1*
X11733D1*
X11833Y5953D2*
X11661Y5767D1*
X11969Y6011D2*
X12127D1*
X12041Y5896D1*
X12084D1*
X12112Y5882D1*
X12127Y5868D1*
X12141Y5824D1*
Y5796D1*
X12127Y5753D1*
X12098Y5724D1*
X12055Y5710D1*
X12012D1*
X11969Y5724D1*
X11955Y5739D1*
X11940Y5767D1*
X19039Y6993D2*
X19168D1*
X19211Y7007D1*
X19225Y7021D1*
X19240Y7050D1*
Y7079D1*
X19225Y7107D1*
X19211Y7122D1*
X19168Y7136D1*
X19039D1*
Y6835D1*
X19139Y6993D2*
X19240Y6835D1*
X19332Y7078D2*
X19361Y7093D1*
X19404Y7136D1*
Y6835D1*
X19583Y7136D2*
X19540Y7122D1*
X19511Y7078D1*
X19497Y7007D1*
Y6964D1*
X19511Y6892D1*
X19540Y6849D1*
X19583Y6835D1*
X19612D1*
X19655Y6849D1*
X19683Y6892D1*
X19698Y6964D1*
Y7007D1*
X19683Y7078D1*
X19655Y7122D1*
X19612Y7136D1*
X19583D1*
X19683Y7078D2*
X19511Y6892D1*
X19934Y6835D2*
Y7136D1*
X19790Y6935D1*
X20006D1*
X11189Y6430D2*
X11318D1*
X11361Y6445D1*
X11375Y6459D1*
X11389Y6487D1*
Y6516D1*
X11375Y6545D1*
X11361Y6559D1*
X11318Y6574D1*
X11189D1*
Y6272D1*
X11289Y6430D2*
X11389Y6272D1*
X11482Y6516D2*
X11511Y6531D1*
X11554Y6573D1*
Y6272D1*
X11733Y6573D2*
X11690Y6559D1*
X11661Y6516D1*
X11647Y6444D1*
Y6401D1*
X11661Y6330D1*
X11690Y6286D1*
X11733Y6272D1*
X11761D1*
X11805Y6286D1*
X11833Y6330D1*
X11848Y6401D1*
Y6444D1*
X11833Y6516D1*
X11805Y6559D1*
X11761Y6573D1*
X11733D1*
X11833Y6516D2*
X11661Y6330D1*
X12112Y6573D2*
X11969D1*
X11955Y6444D1*
X11969Y6459D1*
X12012Y6473D1*
X12055D1*
X12098Y6459D1*
X12127Y6430D1*
X12141Y6387D1*
Y6358D1*
X12127Y6315D1*
X12098Y6286D1*
X12055Y6272D1*
X12012D1*
X11969Y6286D1*
X11955Y6301D1*
X11940Y6330D1*
X11196Y6993D2*
X11325D1*
X11368Y7007D1*
X11383Y7021D1*
X11397Y7050D1*
Y7079D1*
X11383Y7107D1*
X11368Y7122D1*
X11325Y7136D1*
X11196D1*
Y6835D1*
X11296Y6993D2*
X11397Y6835D1*
X11489Y7078D2*
X11518Y7093D1*
X11561Y7136D1*
Y6835D1*
X11740Y7136D2*
X11697Y7122D1*
X11668Y7078D1*
X11654Y7007D1*
Y6964D1*
X11668Y6892D1*
X11697Y6849D1*
X11740Y6835D1*
X11769D1*
X11812Y6849D1*
X11840Y6892D1*
X11855Y6964D1*
Y7007D1*
X11840Y7078D1*
X11812Y7122D1*
X11769Y7136D1*
X11740D1*
X11840Y7078D2*
X11668Y6892D1*
X12120Y7093D2*
X12105Y7122D1*
X12062Y7136D1*
X12034D1*
X11991Y7122D1*
X11962Y7078D1*
X11948Y7007D1*
Y6935D1*
X11962Y6878D1*
X11991Y6849D1*
X12034Y6835D1*
X12048D1*
X12091Y6849D1*
X12120Y6878D1*
X12134Y6921D1*
Y6935D1*
X12120Y6978D1*
X12091Y7007D1*
X12048Y7021D1*
X12034D1*
X11991Y7007D1*
X11962Y6978D1*
X11948Y6935D1*
X16132Y3483D2*
Y3612D1*
X16118Y3655D1*
X16103Y3670D1*
X16075Y3684D1*
X16046D1*
X16018Y3670D1*
X16003Y3655D1*
X15989Y3612D1*
Y3483D1*
X16290D1*
X16132Y3584D2*
X16290Y3684D1*
X16046Y3777D2*
X16032Y3806D1*
X15989Y3849D1*
X16290D1*
X15989Y4028D2*
X16003Y3985D1*
X16046Y3956D1*
X16118Y3941D1*
X16161D1*
X16233Y3956D1*
X16276Y3985D1*
X16290Y4028D1*
Y4056D1*
X16276Y4099D1*
X16233Y4128D1*
X16161Y4142D1*
X16118D1*
X16046Y4128D1*
X16003Y4099D1*
X15989Y4056D1*
Y4028D1*
X16046Y4128D2*
X16233Y3956D1*
X15989Y4307D2*
X16003Y4264D1*
X16032Y4249D1*
X16061D1*
X16089Y4264D1*
X16104Y4292D1*
X16118Y4350D1*
X16132Y4393D1*
X16161Y4421D1*
X16190Y4436D1*
X16233D1*
X16261Y4421D1*
X16276Y4407D1*
X16290Y4364D1*
Y4307D1*
X16276Y4264D1*
X16261Y4249D1*
X16233Y4235D1*
X16190D1*
X16161Y4249D1*
X16132Y4278D1*
X16118Y4321D1*
X16104Y4378D1*
X16089Y4407D1*
X16061Y4421D1*
X16032D1*
X16003Y4407D1*
X15989Y4364D1*
Y4307D1*
X7235Y11156D2*
Y11285D1*
X7221Y11328D1*
X7206Y11342D1*
X7178Y11357D1*
X7149D1*
X7121Y11342D1*
X7106Y11328D1*
X7092Y11285D1*
Y11156D1*
X7393D1*
X7235Y11256D2*
X7393Y11357D1*
X7149Y11449D2*
X7135Y11478D1*
X7092Y11521D1*
X7393D1*
X7092Y11700D2*
X7106Y11657D1*
X7149Y11628D1*
X7221Y11614D1*
X7264D1*
X7336Y11628D1*
X7379Y11657D1*
X7393Y11700D1*
Y11729D1*
X7379Y11772D1*
X7336Y11800D1*
X7264Y11815D1*
X7221D1*
X7149Y11800D1*
X7106Y11772D1*
X7092Y11729D1*
Y11700D1*
X7149Y11800D2*
X7336Y11628D1*
X7192Y12094D2*
X7235Y12080D1*
X7264Y12051D1*
X7278Y12008D1*
Y11994D1*
X7264Y11951D1*
X7235Y11922D1*
X7192Y11908D1*
X7178D1*
X7135Y11922D1*
X7106Y11951D1*
X7092Y11994D1*
Y12008D1*
X7106Y12051D1*
X7135Y12080D1*
X7192Y12094D1*
X7264D1*
X7336Y12080D1*
X7379Y12051D1*
X7393Y12008D1*
Y11980D1*
X7379Y11936D1*
X7350Y11922D1*
X9280Y11088D2*
Y11217D1*
X9265Y11260D1*
X9251Y11275D1*
X9222Y11289D1*
X9193D1*
X9165Y11275D1*
X9150Y11260D1*
X9136Y11217D1*
Y11088D1*
X9437D1*
X9280Y11189D2*
X9437Y11289D1*
X9194Y11382D2*
X9179Y11411D1*
X9136Y11454D1*
X9437D1*
X9194Y11546D2*
X9179Y11575D1*
X9136Y11618D1*
X9437D1*
X9136Y11797D2*
X9151Y11754D1*
X9194Y11725D1*
X9265Y11711D1*
X9308D1*
X9380Y11725D1*
X9423Y11754D1*
X9437Y11797D1*
Y11826D1*
X9423Y11869D1*
X9380Y11897D1*
X9308Y11912D1*
X9265D1*
X9194Y11897D1*
X9151Y11869D1*
X9136Y11826D1*
Y11797D1*
X9194Y11897D2*
X9380Y11725D1*
X8590Y17198D2*
X8719D1*
X8762Y17213D1*
X8777Y17227D1*
X8791Y17256D1*
Y17285D1*
X8777Y17313D1*
X8762Y17328D1*
X8719Y17342D1*
X8590D1*
Y17040D1*
X8691Y17198D2*
X8791Y17040D1*
X8884Y17284D2*
X8913Y17299D1*
X8956Y17342D1*
Y17040D1*
X9048Y17284D2*
X9077Y17299D1*
X9120Y17342D1*
Y17040D1*
X9213Y17284D2*
X9242Y17299D1*
X9285Y17342D1*
Y17040D1*
X50001Y1493D2*
X50130D1*
X50174Y1507D1*
X50188Y1521D1*
X50202Y1550D1*
Y1579D1*
X50188Y1607D1*
X50174Y1622D1*
X50130Y1636D1*
X50001D1*
Y1335D1*
X50102Y1493D2*
X50202Y1335D1*
X50310Y1564D2*
Y1578D1*
X50324Y1607D1*
X50338Y1622D1*
X50367Y1636D1*
X50424D1*
X50453Y1622D1*
X50467Y1607D1*
X50482Y1578D1*
Y1550D1*
X50467Y1521D1*
X50439Y1478D1*
X50295Y1335D1*
X50496D1*
X50675Y1636D2*
X50632Y1622D1*
X50603Y1578D1*
X50589Y1507D1*
Y1464D1*
X50603Y1392D1*
X50632Y1349D1*
X50675Y1335D1*
X50703D1*
X50747Y1349D1*
X50775Y1392D1*
X50790Y1464D1*
Y1507D1*
X50775Y1578D1*
X50747Y1622D1*
X50703Y1636D1*
X50675D1*
X50775Y1578D2*
X50603Y1392D1*
X50882Y1578D2*
X50911Y1593D1*
X50954Y1636D1*
Y1335D1*
X47507Y7231D2*
Y7360D1*
X47493Y7403D1*
X47479Y7418D1*
X47450Y7432D1*
X47421D1*
X47393Y7418D1*
X47378Y7403D1*
X47364Y7360D1*
Y7231D1*
X47665D1*
X47507Y7332D2*
X47665Y7432D1*
X47436Y7539D2*
X47422D1*
X47393Y7554D1*
X47378Y7568D1*
X47364Y7597D1*
Y7654D1*
X47378Y7683D1*
X47393Y7697D1*
X47422Y7712D1*
X47450D1*
X47479Y7697D1*
X47522Y7668D1*
X47665Y7525D1*
Y7726D1*
X47364Y7905D2*
X47378Y7862D1*
X47422Y7833D1*
X47493Y7818D1*
X47536D1*
X47608Y7833D1*
X47651Y7862D1*
X47665Y7905D1*
Y7933D1*
X47651Y7976D1*
X47608Y8005D1*
X47536Y8019D1*
X47493D1*
X47422Y8005D1*
X47378Y7976D1*
X47364Y7933D1*
Y7905D1*
X47422Y8005D2*
X47608Y7833D1*
X47436Y8127D2*
X47422D1*
X47393Y8141D1*
X47378Y8155D1*
X47364Y8184D1*
Y8241D1*
X47378Y8270D1*
X47393Y8284D1*
X47422Y8299D1*
X47450D1*
X47479Y8284D1*
X47522Y8256D1*
X47665Y8112D1*
Y8313D1*
X46007Y7249D2*
Y7378D1*
X45993Y7422D1*
X45979Y7436D1*
X45950Y7450D1*
X45921D1*
X45893Y7436D1*
X45878Y7422D1*
X45864Y7378D1*
Y7249D1*
X46165D1*
X46007Y7350D2*
X46165Y7450D1*
X45936Y7558D2*
X45922D1*
X45893Y7572D1*
X45878Y7586D1*
X45864Y7615D1*
Y7672D1*
X45878Y7701D1*
X45893Y7715D1*
X45922Y7730D1*
X45950D1*
X45979Y7715D1*
X46022Y7687D1*
X46165Y7543D1*
Y7744D1*
X45864Y7923D2*
X45878Y7880D1*
X45922Y7851D1*
X45993Y7837D1*
X46036D1*
X46108Y7851D1*
X46151Y7880D1*
X46165Y7923D1*
Y7951D1*
X46151Y7995D1*
X46108Y8023D1*
X46036Y8038D1*
X45993D1*
X45922Y8023D1*
X45878Y7995D1*
X45864Y7951D1*
Y7923D1*
X45922Y8023D2*
X46108Y7851D1*
X45864Y8159D2*
Y8317D1*
X45979Y8231D1*
Y8274D1*
X45993Y8302D1*
X46007Y8317D1*
X46051Y8331D1*
X46079D1*
X46122Y8317D1*
X46151Y8288D1*
X46165Y8245D1*
Y8202D1*
X46151Y8159D1*
X46136Y8145D1*
X46108Y8130D1*
X46757Y14787D2*
Y14916D1*
X46743Y14959D1*
X46729Y14973D1*
X46700Y14988D1*
X46671D1*
X46643Y14973D1*
X46628Y14959D1*
X46614Y14916D1*
Y14787D1*
X46915D1*
X46757Y14887D2*
X46915Y14988D1*
X46686Y15095D2*
X46672D1*
X46643Y15109D1*
X46628Y15123D1*
X46614Y15152D1*
Y15210D1*
X46628Y15238D1*
X46643Y15252D1*
X46672Y15267D1*
X46700D1*
X46729Y15252D1*
X46772Y15224D1*
X46915Y15080D1*
Y15281D1*
X46614Y15460D2*
X46628Y15417D1*
X46672Y15388D1*
X46743Y15374D1*
X46786D1*
X46858Y15388D1*
X46901Y15417D1*
X46915Y15460D1*
Y15489D1*
X46901Y15532D1*
X46858Y15560D1*
X46786Y15575D1*
X46743D1*
X46672Y15560D1*
X46628Y15532D1*
X46614Y15489D1*
Y15460D1*
X46672Y15560D2*
X46858Y15388D1*
X46915Y15811D2*
X46614D1*
X46815Y15667D1*
Y15883D1*
X48195Y7231D2*
Y7360D1*
X48180Y7403D1*
X48166Y7418D1*
X48138Y7432D1*
X48109D1*
X48080Y7418D1*
X48066Y7403D1*
X48051Y7360D1*
Y7231D1*
X48353D1*
X48195Y7332D2*
X48353Y7432D1*
X48123Y7539D2*
X48109D1*
X48080Y7554D1*
X48066Y7568D1*
X48052Y7597D1*
Y7654D1*
X48066Y7683D1*
X48080Y7697D1*
X48109Y7712D1*
X48138D1*
X48166Y7697D1*
X48209Y7668D1*
X48353Y7525D1*
Y7726D1*
X48052Y7905D2*
X48066Y7862D1*
X48109Y7833D1*
X48181Y7818D1*
X48224D1*
X48295Y7833D1*
X48338Y7862D1*
X48353Y7905D1*
Y7933D1*
X48338Y7976D1*
X48295Y8005D1*
X48224Y8019D1*
X48181D1*
X48109Y8005D1*
X48066Y7976D1*
X48052Y7933D1*
Y7905D1*
X48109Y8005D2*
X48295Y7833D1*
X48052Y8284D2*
Y8141D1*
X48181Y8127D1*
X48166Y8141D1*
X48152Y8184D1*
Y8227D1*
X48166Y8270D1*
X48195Y8299D1*
X48238Y8313D1*
X48267D1*
X48310Y8299D1*
X48338Y8270D1*
X48353Y8227D1*
Y8184D1*
X48338Y8141D1*
X48324Y8127D1*
X48295Y8112D1*
X48257Y14882D2*
Y15011D1*
X48243Y15054D1*
X48229Y15068D1*
X48200Y15083D1*
X48171D1*
X48143Y15068D1*
X48128Y15054D1*
X48114Y15011D1*
Y14882D1*
X48415D1*
X48257Y14982D2*
X48415Y15083D1*
X48186Y15190D2*
X48172D1*
X48143Y15204D1*
X48128Y15218D1*
X48114Y15247D1*
Y15305D1*
X48128Y15333D1*
X48143Y15347D1*
X48172Y15362D1*
X48200D1*
X48229Y15347D1*
X48272Y15319D1*
X48415Y15175D1*
Y15376D1*
X48114Y15555D2*
X48128Y15512D1*
X48172Y15483D1*
X48243Y15469D1*
X48286D1*
X48358Y15483D1*
X48401Y15512D1*
X48415Y15555D1*
Y15584D1*
X48401Y15627D1*
X48358Y15655D1*
X48286Y15670D1*
X48243D1*
X48172Y15655D1*
X48128Y15627D1*
X48114Y15584D1*
Y15555D1*
X48172Y15655D2*
X48358Y15483D1*
X48157Y15935D2*
X48128Y15920D1*
X48114Y15877D1*
Y15849D1*
X48128Y15806D1*
X48172Y15777D1*
X48243Y15763D1*
X48315D1*
X48372Y15777D1*
X48401Y15806D1*
X48415Y15849D1*
Y15863D1*
X48401Y15906D1*
X48372Y15935D1*
X48329Y15949D1*
X48315D1*
X48272Y15935D1*
X48243Y15906D1*
X48229Y15863D1*
Y15849D1*
X48243Y15806D1*
X48272Y15777D1*
X48315Y15763D1*
X51007Y7231D2*
Y7360D1*
X50993Y7403D1*
X50979Y7418D1*
X50950Y7432D1*
X50921D1*
X50893Y7418D1*
X50878Y7403D1*
X50864Y7360D1*
Y7231D1*
X51165D1*
X51007Y7332D2*
X51165Y7432D1*
X50936Y7539D2*
X50922D1*
X50893Y7554D1*
X50878Y7568D1*
X50864Y7597D1*
Y7654D1*
X50878Y7683D1*
X50893Y7697D1*
X50922Y7712D1*
X50950D1*
X50979Y7697D1*
X51022Y7668D1*
X51165Y7525D1*
Y7726D1*
X50864Y7905D2*
X50878Y7862D1*
X50922Y7833D1*
X50993Y7818D1*
X51036D1*
X51108Y7833D1*
X51151Y7862D1*
X51165Y7905D1*
Y7933D1*
X51151Y7976D1*
X51108Y8005D1*
X51036Y8019D1*
X50993D1*
X50922Y8005D1*
X50878Y7976D1*
X50864Y7933D1*
Y7905D1*
X50922Y8005D2*
X51108Y7833D1*
X51165Y8169D2*
X50864Y8313D1*
Y8112D1*
X52507Y7248D2*
Y7377D1*
X52493Y7420D1*
X52479Y7434D1*
X52450Y7449D1*
X52421D1*
X52393Y7434D1*
X52378Y7420D1*
X52364Y7377D1*
Y7248D1*
X52665D1*
X52507Y7348D2*
X52665Y7449D1*
X52436Y7556D2*
X52422D1*
X52393Y7570D1*
X52378Y7584D1*
X52364Y7613D1*
Y7671D1*
X52378Y7699D1*
X52393Y7713D1*
X52422Y7728D1*
X52450D1*
X52479Y7713D1*
X52522Y7685D1*
X52665Y7541D1*
Y7742D1*
X52364Y7921D2*
X52378Y7878D1*
X52422Y7849D1*
X52493Y7835D1*
X52536D1*
X52608Y7849D1*
X52651Y7878D1*
X52665Y7921D1*
Y7950D1*
X52651Y7993D1*
X52608Y8021D1*
X52536Y8036D1*
X52493D1*
X52422Y8021D1*
X52378Y7993D1*
X52364Y7950D1*
Y7921D1*
X52422Y8021D2*
X52608Y7849D1*
X52364Y8200D2*
X52378Y8157D1*
X52407Y8143D1*
X52436D1*
X52464Y8157D1*
X52479Y8186D1*
X52493Y8243D1*
X52507Y8286D1*
X52536Y8315D1*
X52565Y8329D1*
X52608D1*
X52636Y8315D1*
X52651Y8301D1*
X52665Y8257D1*
Y8200D1*
X52651Y8157D1*
X52636Y8143D1*
X52608Y8128D1*
X52565D1*
X52536Y8143D1*
X52507Y8172D1*
X52493Y8214D1*
X52479Y8272D1*
X52464Y8301D1*
X52436Y8315D1*
X52407D1*
X52378Y8301D1*
X52364Y8257D1*
Y8200D1*
X51757Y14863D2*
Y14992D1*
X51743Y15036D1*
X51729Y15050D1*
X51700Y15064D1*
X51671D1*
X51643Y15050D1*
X51628Y15036D1*
X51614Y14992D1*
Y14863D1*
X51915D1*
X51757Y14964D2*
X51915Y15064D1*
X51686Y15172D2*
X51672D1*
X51643Y15186D1*
X51628Y15200D1*
X51614Y15229D1*
Y15286D1*
X51628Y15315D1*
X51643Y15329D1*
X51672Y15344D1*
X51700D1*
X51729Y15329D1*
X51772Y15301D1*
X51915Y15157D1*
Y15358D1*
X51614Y15537D2*
X51628Y15494D1*
X51672Y15465D1*
X51743Y15451D1*
X51786D1*
X51858Y15465D1*
X51901Y15494D1*
X51915Y15537D1*
Y15565D1*
X51901Y15608D1*
X51858Y15637D1*
X51786Y15652D1*
X51743D1*
X51672Y15637D1*
X51628Y15608D1*
X51614Y15565D1*
Y15537D1*
X51672Y15637D2*
X51858Y15465D1*
X51714Y15931D2*
X51757Y15916D1*
X51786Y15888D1*
X51801Y15845D1*
Y15830D1*
X51786Y15787D1*
X51757Y15759D1*
X51714Y15744D1*
X51700D1*
X51657Y15759D1*
X51628Y15787D1*
X51614Y15830D1*
Y15845D1*
X51628Y15888D1*
X51657Y15916D1*
X51714Y15931D1*
X51786D1*
X51858Y15916D1*
X51901Y15888D1*
X51915Y15845D1*
Y15816D1*
X51901Y15773D1*
X51872Y15759D1*
X50257Y7296D2*
Y7425D1*
X50243Y7468D1*
X50229Y7482D1*
X50200Y7497D1*
X50171D1*
X50143Y7482D1*
X50128Y7468D1*
X50114Y7425D1*
Y7296D1*
X50415D1*
X50257Y7396D2*
X50415Y7497D1*
X50186Y7604D2*
X50172D1*
X50143Y7618D1*
X50128Y7632D1*
X50114Y7661D1*
Y7719D1*
X50128Y7747D1*
X50143Y7761D1*
X50172Y7776D1*
X50200D1*
X50229Y7761D1*
X50272Y7733D1*
X50415Y7589D1*
Y7790D1*
X50172Y7883D2*
X50157Y7912D1*
X50114Y7955D1*
X50415D1*
X50114Y8134D2*
X50128Y8091D1*
X50172Y8062D1*
X50243Y8048D1*
X50286D1*
X50358Y8062D1*
X50401Y8091D1*
X50415Y8134D1*
Y8162D1*
X50401Y8205D1*
X50358Y8234D1*
X50286Y8249D1*
X50243D1*
X50172Y8234D1*
X50128Y8205D1*
X50114Y8162D1*
Y8134D1*
X50172Y8234D2*
X50358Y8062D1*
X50195Y14941D2*
Y15070D1*
X50180Y15113D1*
X50166Y15128D1*
X50138Y15142D1*
X50109D1*
X50080Y15128D1*
X50066Y15113D1*
X50051Y15070D1*
Y14941D1*
X50353D1*
X50195Y15041D2*
X50353Y15142D1*
X50123Y15249D2*
X50109D1*
X50080Y15263D1*
X50066Y15278D1*
X50052Y15307D1*
Y15364D1*
X50066Y15392D1*
X50080Y15407D1*
X50109Y15421D1*
X50138D1*
X50166Y15407D1*
X50209Y15378D1*
X50353Y15235D1*
Y15436D1*
X50109Y15528D2*
X50094Y15557D1*
X50052Y15600D1*
X50353D1*
X50109Y15693D2*
X50094Y15722D1*
X50052Y15765D1*
X50353D1*
X46001Y12618D2*
X46130D1*
X46174Y12632D1*
X46188Y12646D1*
X46202Y12675D1*
Y12704D1*
X46188Y12732D1*
X46174Y12747D1*
X46130Y12761D1*
X46001D1*
Y12460D1*
X46102Y12618D2*
X46202Y12460D1*
X46310Y12689D2*
Y12703D1*
X46324Y12732D1*
X46338Y12747D1*
X46367Y12761D1*
X46424D1*
X46453Y12747D1*
X46467Y12732D1*
X46482Y12703D1*
Y12675D1*
X46467Y12646D1*
X46439Y12603D1*
X46295Y12460D1*
X46496D1*
X46589Y12703D2*
X46618Y12718D1*
X46661Y12761D1*
Y12460D1*
X46768Y12689D2*
Y12703D1*
X46782Y12732D1*
X46796Y12747D1*
X46825Y12761D1*
X46883D1*
X46911Y12747D1*
X46925Y12732D1*
X46940Y12703D1*
Y12675D1*
X46925Y12646D1*
X46897Y12603D1*
X46753Y12460D1*
X46954D1*
X46046Y10618D2*
X46175D1*
X46218Y10632D1*
X46232Y10646D1*
X46247Y10675D1*
Y10704D1*
X46232Y10732D1*
X46218Y10747D1*
X46175Y10761D1*
X46046D1*
Y10460D1*
X46146Y10618D2*
X46247Y10460D1*
X46354Y10689D2*
Y10703D1*
X46368Y10732D1*
X46382Y10747D1*
X46411Y10761D1*
X46469D1*
X46497Y10747D1*
X46511Y10732D1*
X46526Y10703D1*
Y10675D1*
X46511Y10646D1*
X46483Y10603D1*
X46339Y10460D1*
X46540D1*
X46633Y10703D2*
X46662Y10718D1*
X46705Y10761D1*
Y10460D1*
X46826Y10761D2*
X46984D1*
X46898Y10646D1*
X46941D1*
X46970Y10632D1*
X46984Y10618D1*
X46999Y10574D1*
Y10546D1*
X46984Y10503D1*
X46955Y10474D1*
X46912Y10460D1*
X46869D1*
X46826Y10474D1*
X46812Y10489D1*
X46798Y10517D1*
X30673Y16961D2*
Y17090D1*
X30658Y17133D1*
X30644Y17148D1*
X30615Y17162D1*
X30587D1*
X30558Y17148D1*
X30543Y17133D1*
X30529Y17090D1*
Y16961D1*
X30831D1*
X30673Y17062D2*
X30831Y17162D1*
X30529Y17284D2*
Y17441D1*
X30644Y17355D1*
Y17398D1*
X30658Y17427D1*
X30673Y17441D1*
X30716Y17456D1*
X30744D1*
X30787Y17441D1*
X30816Y17413D1*
X30831Y17369D1*
Y17326D1*
X30816Y17284D1*
X30802Y17269D1*
X30773Y17255D1*
X30529Y17635D2*
X30544Y17591D1*
X30587Y17563D1*
X30658Y17548D1*
X30702D1*
X30773Y17563D1*
X30816Y17591D1*
X30831Y17635D1*
Y17663D1*
X30816Y17706D1*
X30773Y17735D1*
X30702Y17749D1*
X30658D1*
X30587Y17735D1*
X30544Y17706D1*
X30529Y17663D1*
Y17635D1*
X30587Y17735D2*
X30773Y17563D1*
X30587Y17842D2*
X30572Y17871D1*
X30529Y17914D1*
X30831D1*
X29624Y12243D2*
X29753D1*
X29797Y12257D1*
X29811Y12271D1*
X29825Y12300D1*
Y12329D1*
X29811Y12357D1*
X29797Y12372D1*
X29753Y12386D1*
X29624D1*
Y12085D1*
X29725Y12243D2*
X29825Y12085D1*
X29947Y12386D2*
X30104D1*
X30019Y12271D1*
X30062D1*
X30090Y12257D1*
X30104Y12243D1*
X30119Y12199D1*
Y12171D1*
X30104Y12128D1*
X30076Y12099D1*
X30033Y12085D1*
X29990D1*
X29947Y12099D1*
X29933Y12114D1*
X29918Y12142D1*
X30298Y12386D2*
X30255Y12372D1*
X30226Y12328D1*
X30212Y12257D1*
Y12214D1*
X30226Y12142D1*
X30255Y12099D1*
X30298Y12085D1*
X30326D1*
X30370Y12099D1*
X30398Y12142D1*
X30413Y12214D1*
Y12257D1*
X30398Y12328D1*
X30370Y12372D1*
X30326Y12386D1*
X30298D1*
X30398Y12328D2*
X30226Y12142D1*
X30520Y12314D2*
Y12328D1*
X30534Y12357D1*
X30548Y12372D1*
X30577Y12386D1*
X30635D1*
X30663Y12372D1*
X30677Y12357D1*
X30692Y12328D1*
Y12300D1*
X30677Y12271D1*
X30649Y12228D1*
X30505Y12085D1*
X30706D1*
X29624Y13243D2*
X29753D1*
X29797Y13257D1*
X29811Y13271D1*
X29825Y13300D1*
Y13329D1*
X29811Y13357D1*
X29797Y13372D1*
X29753Y13386D1*
X29624D1*
Y13085D1*
X29725Y13243D2*
X29825Y13085D1*
X29947Y13386D2*
X30104D1*
X30019Y13271D1*
X30062D1*
X30090Y13257D1*
X30104Y13243D1*
X30119Y13199D1*
Y13171D1*
X30104Y13128D1*
X30076Y13099D1*
X30033Y13085D1*
X29990D1*
X29947Y13099D1*
X29933Y13114D1*
X29918Y13142D1*
X30298Y13386D2*
X30255Y13372D1*
X30226Y13328D1*
X30212Y13257D1*
Y13214D1*
X30226Y13142D1*
X30255Y13099D1*
X30298Y13085D1*
X30326D1*
X30370Y13099D1*
X30398Y13142D1*
X30413Y13214D1*
Y13257D1*
X30398Y13328D1*
X30370Y13372D1*
X30326Y13386D1*
X30298D1*
X30398Y13328D2*
X30226Y13142D1*
X30534Y13386D2*
X30692D1*
X30606Y13271D1*
X30649D1*
X30677Y13257D1*
X30692Y13243D1*
X30706Y13199D1*
Y13171D1*
X30692Y13128D1*
X30663Y13099D1*
X30620Y13085D1*
X30577D1*
X30534Y13099D1*
X30520Y13114D1*
X30505Y13142D1*
X29617Y14243D2*
X29746D1*
X29789Y14257D1*
X29804Y14271D1*
X29818Y14300D1*
Y14329D1*
X29804Y14357D1*
X29789Y14372D1*
X29746Y14386D1*
X29617D1*
Y14085D1*
X29718Y14243D2*
X29818Y14085D1*
X29940Y14386D2*
X30097D1*
X30011Y14271D1*
X30055D1*
X30083Y14257D1*
X30097Y14243D1*
X30112Y14199D1*
Y14171D1*
X30097Y14128D1*
X30069Y14099D1*
X30026Y14085D1*
X29983D1*
X29940Y14099D1*
X29926Y14114D1*
X29911Y14142D1*
X30291Y14386D2*
X30248Y14372D1*
X30219Y14328D1*
X30205Y14257D1*
Y14214D1*
X30219Y14142D1*
X30248Y14099D1*
X30291Y14085D1*
X30319D1*
X30362Y14099D1*
X30391Y14142D1*
X30406Y14214D1*
Y14257D1*
X30391Y14328D1*
X30362Y14372D1*
X30319Y14386D1*
X30291D1*
X30391Y14328D2*
X30219Y14142D1*
X30642Y14085D2*
Y14386D1*
X30498Y14185D1*
X30713D1*
X31044Y12243D2*
X31173D1*
X31216Y12257D1*
X31230Y12271D1*
X31245Y12300D1*
Y12329D1*
X31230Y12357D1*
X31216Y12372D1*
X31173Y12386D1*
X31044D1*
Y12085D1*
X31144Y12243D2*
X31245Y12085D1*
X31366Y12386D2*
X31524D1*
X31438Y12271D1*
X31481D1*
X31509Y12257D1*
X31524Y12243D1*
X31538Y12199D1*
Y12171D1*
X31524Y12128D1*
X31495Y12099D1*
X31452Y12085D1*
X31409D1*
X31366Y12099D1*
X31352Y12114D1*
X31337Y12142D1*
X31717Y12386D2*
X31674Y12372D1*
X31645Y12328D1*
X31631Y12257D1*
Y12214D1*
X31645Y12142D1*
X31674Y12099D1*
X31717Y12085D1*
X31746D1*
X31789Y12099D1*
X31817Y12142D1*
X31832Y12214D1*
Y12257D1*
X31817Y12328D1*
X31789Y12372D1*
X31746Y12386D1*
X31717D1*
X31817Y12328D2*
X31645Y12142D1*
X32097Y12386D2*
X31953D1*
X31939Y12257D1*
X31953Y12271D1*
X31997Y12286D1*
X32039D1*
X32082Y12271D1*
X32111Y12243D1*
X32126Y12199D1*
Y12171D1*
X32111Y12128D1*
X32082Y12099D1*
X32039Y12085D1*
X31997D1*
X31953Y12099D1*
X31939Y12114D1*
X31925Y12142D1*
X31051Y13243D2*
X31180D1*
X31223Y13257D1*
X31238Y13271D1*
X31252Y13300D1*
Y13329D1*
X31238Y13357D1*
X31223Y13372D1*
X31180Y13386D1*
X31051D1*
Y13085D1*
X31152Y13243D2*
X31252Y13085D1*
X31374Y13386D2*
X31531D1*
X31445Y13271D1*
X31488D1*
X31517Y13257D1*
X31531Y13243D1*
X31546Y13199D1*
Y13171D1*
X31531Y13128D1*
X31503Y13099D1*
X31459Y13085D1*
X31416D1*
X31374Y13099D1*
X31359Y13114D1*
X31345Y13142D1*
X31724Y13386D2*
X31681Y13372D1*
X31653Y13328D1*
X31638Y13257D1*
Y13214D1*
X31653Y13142D1*
X31681Y13099D1*
X31724Y13085D1*
X31753D1*
X31796Y13099D1*
X31825Y13142D1*
X31839Y13214D1*
Y13257D1*
X31825Y13328D1*
X31796Y13372D1*
X31753Y13386D1*
X31724D1*
X31825Y13328D2*
X31653Y13142D1*
X32104Y13343D2*
X32090Y13372D1*
X32047Y13386D1*
X32018D1*
X31975Y13372D1*
X31946Y13328D1*
X31932Y13257D1*
Y13185D1*
X31946Y13128D1*
X31975Y13099D1*
X32018Y13085D1*
X32032D1*
X32075Y13099D1*
X32104Y13128D1*
X32118Y13171D1*
Y13185D1*
X32104Y13228D1*
X32075Y13257D1*
X32032Y13271D1*
X32018D1*
X31975Y13257D1*
X31946Y13228D1*
X31932Y13185D1*
X31044Y14243D2*
X31173D1*
X31216Y14257D1*
X31230Y14271D1*
X31245Y14300D1*
Y14329D1*
X31230Y14357D1*
X31216Y14372D1*
X31173Y14386D1*
X31044D1*
Y14085D1*
X31144Y14243D2*
X31245Y14085D1*
X31366Y14386D2*
X31524D1*
X31438Y14271D1*
X31481D1*
X31509Y14257D1*
X31524Y14243D1*
X31538Y14199D1*
Y14171D1*
X31524Y14128D1*
X31495Y14099D1*
X31452Y14085D1*
X31409D1*
X31366Y14099D1*
X31352Y14114D1*
X31337Y14142D1*
X31717Y14386D2*
X31674Y14372D1*
X31645Y14328D1*
X31631Y14257D1*
Y14214D1*
X31645Y14142D1*
X31674Y14099D1*
X31717Y14085D1*
X31746D1*
X31789Y14099D1*
X31817Y14142D1*
X31832Y14214D1*
Y14257D1*
X31817Y14328D1*
X31789Y14372D1*
X31746Y14386D1*
X31717D1*
X31817Y14328D2*
X31645Y14142D1*
X31982Y14085D2*
X32126Y14386D1*
X31925D1*
X26329Y8390D2*
X26458D1*
X26501Y8404D1*
X26516Y8419D1*
X26530Y8447D1*
Y8476D1*
X26516Y8504D1*
X26501Y8519D1*
X26458Y8533D1*
X26329D1*
Y8232D1*
X26429Y8390D2*
X26530Y8232D1*
X26766D2*
Y8533D1*
X26623Y8332D1*
X26838D1*
X27017Y8533D2*
X26974Y8519D1*
X26945Y8476D1*
X26930Y8404D1*
Y8361D1*
X26945Y8289D1*
X26974Y8246D1*
X27017Y8232D1*
X27045D1*
X27088Y8246D1*
X27117Y8289D1*
X27131Y8361D1*
Y8404D1*
X27117Y8476D1*
X27088Y8519D1*
X27045Y8533D1*
X27017D1*
X27117Y8476D2*
X26945Y8289D1*
X27224Y8476D2*
X27253Y8490D1*
X27296Y8533D1*
Y8232D1*
X28342Y7452D2*
Y7581D1*
X28327Y7624D1*
X28313Y7639D1*
X28285Y7653D1*
X28256D1*
X28227Y7639D1*
X28213Y7624D1*
X28198Y7581D1*
Y7452D1*
X28500D1*
X28342Y7552D2*
X28500Y7653D1*
Y7889D2*
X28199D1*
X28399Y7746D1*
Y7961D1*
X28199Y8140D2*
X28213Y8097D1*
X28256Y8068D1*
X28328Y8053D1*
X28371D1*
X28443Y8068D1*
X28486Y8097D1*
X28500Y8140D1*
Y8168D1*
X28486Y8211D1*
X28443Y8240D1*
X28371Y8254D1*
X28328D1*
X28256Y8240D1*
X28213Y8211D1*
X28199Y8168D1*
Y8140D1*
X28256Y8240D2*
X28443Y8068D1*
X28270Y8362D2*
X28256D1*
X28227Y8376D1*
X28213Y8390D1*
X28199Y8419D1*
Y8476D1*
X28213Y8505D1*
X28227Y8519D1*
X28256Y8534D1*
X28285D1*
X28314Y8519D1*
X28356Y8491D1*
X28500Y8347D1*
Y8548D1*
X24945Y6117D2*
Y6246D1*
X24930Y6289D1*
X24916Y6304D1*
X24888Y6318D1*
X24859D1*
X24830Y6304D1*
X24816Y6289D1*
X24801Y6246D1*
Y6117D1*
X25103D1*
X24945Y6218D2*
X25103Y6318D1*
Y6555D2*
X24802D1*
X25002Y6411D1*
Y6626D1*
X24802Y6805D2*
X24816Y6762D1*
X24859Y6733D1*
X24931Y6719D1*
X24974D1*
X25045Y6733D1*
X25088Y6762D1*
X25103Y6805D1*
Y6834D1*
X25088Y6877D1*
X25045Y6905D1*
X24974Y6920D1*
X24931D1*
X24859Y6905D1*
X24816Y6877D1*
X24802Y6834D1*
Y6805D1*
X24859Y6905D2*
X25045Y6733D1*
X24802Y7041D2*
Y7199D1*
X24916Y7113D1*
Y7156D1*
X24931Y7185D1*
X24945Y7199D1*
X24988Y7213D1*
X25017D1*
X25060Y7199D1*
X25088Y7170D1*
X25103Y7127D1*
Y7084D1*
X25088Y7041D1*
X25074Y7027D1*
X25045Y7012D1*
X639Y4630D2*
X768D1*
X811Y4645D1*
X826Y4659D1*
X840Y4688D1*
Y4717D1*
X826Y4745D1*
X811Y4760D1*
X768Y4774D1*
X639D1*
Y4473D1*
X740Y4630D2*
X840Y4473D1*
X1105Y4774D2*
X962D1*
X947Y4645D1*
X962Y4659D1*
X1005Y4674D1*
X1048D1*
X1091Y4659D1*
X1120Y4630D1*
X1134Y4587D1*
Y4559D1*
X1120Y4516D1*
X1091Y4487D1*
X1048Y4473D1*
X1005D1*
X962Y4487D1*
X947Y4501D1*
X933Y4530D1*
X1313Y4774D2*
X1270Y4759D1*
X1241Y4716D1*
X1226Y4645D1*
Y4602D1*
X1241Y4530D1*
X1270Y4487D1*
X1313Y4473D1*
X1341D1*
X1384Y4487D1*
X1413Y4530D1*
X1427Y4602D1*
Y4645D1*
X1413Y4716D1*
X1384Y4759D1*
X1341Y4774D1*
X1313D1*
X1413Y4716D2*
X1241Y4530D1*
X1520Y4716D2*
X1549Y4731D1*
X1592Y4774D1*
Y4473D1*
X4512Y4630D2*
X4641D1*
X4684Y4645D1*
X4699Y4659D1*
X4713Y4688D1*
Y4717D1*
X4699Y4745D1*
X4684Y4760D1*
X4641Y4774D1*
X4512D1*
Y4473D1*
X4613Y4630D2*
X4713Y4473D1*
X4978Y4774D2*
X4835D1*
X4820Y4645D1*
X4835Y4659D1*
X4878Y4674D1*
X4921D1*
X4964Y4659D1*
X4993Y4630D1*
X5007Y4587D1*
Y4559D1*
X4993Y4516D1*
X4964Y4487D1*
X4921Y4473D1*
X4878D1*
X4835Y4487D1*
X4820Y4501D1*
X4806Y4530D1*
X5186Y4774D2*
X5143Y4759D1*
X5114Y4716D1*
X5099Y4645D1*
Y4602D1*
X5114Y4530D1*
X5143Y4487D1*
X5186Y4473D1*
X5214D1*
X5257Y4487D1*
X5286Y4530D1*
X5300Y4602D1*
Y4645D1*
X5286Y4716D1*
X5257Y4759D1*
X5214Y4774D1*
X5186D1*
X5286Y4716D2*
X5114Y4530D1*
X5408Y4702D2*
Y4716D1*
X5422Y4745D1*
X5436Y4759D1*
X5465Y4774D1*
X5522D1*
X5551Y4759D1*
X5565Y4745D1*
X5580Y4716D1*
Y4688D1*
X5565Y4659D1*
X5537Y4616D1*
X5393Y4473D1*
X5594D1*
X32794Y7868D2*
X32923D1*
X32966Y7882D1*
X32980Y7896D1*
X32995Y7925D1*
Y7954D1*
X32980Y7982D1*
X32966Y7997D1*
X32923Y8011D1*
X32794D1*
Y7710D1*
X32894Y7868D2*
X32995Y7710D1*
X33259Y8011D2*
X33116D1*
X33102Y7882D1*
X33116Y7896D1*
X33159Y7911D1*
X33202D1*
X33245Y7896D1*
X33274Y7868D1*
X33288Y7824D1*
Y7796D1*
X33274Y7753D1*
X33245Y7724D1*
X33202Y7710D1*
X33159D1*
X33116Y7724D1*
X33102Y7739D1*
X33087Y7767D1*
X33467Y8011D2*
X33424Y7997D1*
X33395Y7953D1*
X33381Y7882D1*
Y7839D1*
X33395Y7767D1*
X33424Y7724D1*
X33467Y7710D1*
X33496D1*
X33539Y7724D1*
X33567Y7767D1*
X33582Y7839D1*
Y7882D1*
X33567Y7953D1*
X33539Y7997D1*
X33496Y8011D1*
X33467D1*
X33567Y7953D2*
X33395Y7767D1*
X33703Y8011D2*
X33861D1*
X33775Y7896D1*
X33818D1*
X33847Y7882D1*
X33861Y7868D1*
X33876Y7824D1*
Y7796D1*
X33861Y7753D1*
X33832Y7724D1*
X33789Y7710D1*
X33746D1*
X33703Y7724D1*
X33689Y7739D1*
X33675Y7767D1*
X1880Y4630D2*
X2009D1*
X2052Y4645D1*
X2067Y4659D1*
X2081Y4688D1*
Y4717D1*
X2067Y4745D1*
X2052Y4760D1*
X2009Y4774D1*
X1880D1*
Y4473D1*
X1981Y4630D2*
X2081Y4473D1*
X2346Y4774D2*
X2203D1*
X2188Y4645D1*
X2203Y4659D1*
X2246Y4674D1*
X2288D1*
X2332Y4659D1*
X2360Y4630D1*
X2375Y4587D1*
Y4559D1*
X2360Y4516D1*
X2332Y4487D1*
X2288Y4473D1*
X2246D1*
X2203Y4487D1*
X2188Y4501D1*
X2174Y4530D1*
X2554Y4774D2*
X2510Y4759D1*
X2482Y4716D1*
X2467Y4645D1*
Y4602D1*
X2482Y4530D1*
X2510Y4487D1*
X2554Y4473D1*
X2582D1*
X2625Y4487D1*
X2654Y4530D1*
X2668Y4602D1*
Y4645D1*
X2654Y4716D1*
X2625Y4759D1*
X2582Y4774D1*
X2554D1*
X2654Y4716D2*
X2482Y4530D1*
X2905Y4473D2*
Y4774D1*
X2761Y4573D1*
X2976D1*
X3200Y4630D2*
X3329D1*
X3372Y4645D1*
X3386Y4659D1*
X3401Y4688D1*
Y4717D1*
X3386Y4745D1*
X3372Y4760D1*
X3329Y4774D1*
X3200D1*
Y4473D1*
X3300Y4630D2*
X3401Y4473D1*
X3665Y4774D2*
X3522D1*
X3508Y4645D1*
X3522Y4659D1*
X3565Y4674D1*
X3608D1*
X3651Y4659D1*
X3680Y4630D1*
X3694Y4587D1*
Y4559D1*
X3680Y4516D1*
X3651Y4487D1*
X3608Y4473D1*
X3565D1*
X3522Y4487D1*
X3508Y4501D1*
X3493Y4530D1*
X3873Y4774D2*
X3830Y4759D1*
X3801Y4716D1*
X3787Y4645D1*
Y4602D1*
X3801Y4530D1*
X3830Y4487D1*
X3873Y4473D1*
X3902D1*
X3945Y4487D1*
X3973Y4530D1*
X3988Y4602D1*
Y4645D1*
X3973Y4716D1*
X3945Y4759D1*
X3902Y4774D1*
X3873D1*
X3973Y4716D2*
X3801Y4530D1*
X4253Y4774D2*
X4109D1*
X4095Y4645D1*
X4109Y4659D1*
X4153Y4674D1*
X4195D1*
X4238Y4659D1*
X4267Y4630D1*
X4282Y4587D1*
Y4559D1*
X4267Y4516D1*
X4238Y4487D1*
X4195Y4473D1*
X4153D1*
X4109Y4487D1*
X4095Y4501D1*
X4081Y4530D1*
X15533Y6103D2*
Y5887D1*
X15547Y5844D1*
X15576Y5816D1*
X15619Y5801D1*
X15648D1*
X15691Y5816D1*
X15720Y5844D1*
X15734Y5887D1*
Y6103D1*
X15827Y6045D2*
X15856Y6060D1*
X15899Y6102D1*
Y5801D1*
X16078Y6102D2*
X16034Y6088D1*
X16006Y6045D1*
X15991Y5973D1*
Y5930D1*
X16006Y5859D1*
X16034Y5816D1*
X16078Y5801D1*
X16106D1*
X16149Y5816D1*
X16178Y5859D1*
X16192Y5930D1*
Y5973D1*
X16178Y6045D1*
X16149Y6088D1*
X16106Y6102D1*
X16078D1*
X16178Y6045D2*
X16006Y5859D1*
X16285Y6045D2*
X16314Y6060D1*
X16357Y6102D1*
Y5801D1*
X49830Y4841D2*
Y4626D1*
X49844Y4583D1*
X49873Y4555D1*
X49916Y4540D1*
X49944D1*
X49987Y4555D1*
X50016Y4583D1*
X50031Y4626D1*
Y4841D1*
X50138Y4769D2*
Y4784D1*
X50152Y4813D1*
X50166Y4827D1*
X50195Y4841D1*
X50253D1*
X50281Y4827D1*
X50295Y4813D1*
X50310Y4784D1*
Y4755D1*
X50295Y4726D1*
X50267Y4684D1*
X50123Y4540D1*
X50324D1*
X50503Y4841D2*
X50460Y4827D1*
X50431Y4784D1*
X50417Y4712D1*
Y4669D1*
X50431Y4597D1*
X50460Y4554D1*
X50503Y4540D1*
X50532D1*
X50575Y4554D1*
X50603Y4597D1*
X50618Y4669D1*
Y4712D1*
X50603Y4784D1*
X50575Y4827D1*
X50532Y4841D1*
X50503D1*
X50603Y4784D2*
X50431Y4597D1*
X50710Y4784D2*
X50739Y4798D1*
X50782Y4841D1*
Y4540D1*
X51272Y11709D2*
Y11494D1*
X51286Y11451D1*
X51315Y11422D1*
X51358Y11408D1*
X51386D1*
X51429Y11422D1*
X51458Y11451D1*
X51473Y11494D1*
Y11709D1*
X51580Y11637D2*
Y11651D1*
X51594Y11680D1*
X51608Y11694D1*
X51637Y11709D1*
X51695D1*
X51723Y11694D1*
X51737Y11680D1*
X51752Y11651D1*
Y11623D1*
X51737Y11594D1*
X51709Y11551D1*
X51565Y11408D1*
X51766D1*
X51945Y11709D2*
X51902Y11694D1*
X51873Y11651D1*
X51859Y11580D1*
Y11537D1*
X51873Y11465D1*
X51902Y11422D1*
X51945Y11408D1*
X51974D1*
X52017Y11422D1*
X52045Y11465D1*
X52060Y11537D1*
Y11580D1*
X52045Y11651D1*
X52017Y11694D1*
X51974Y11709D1*
X51945D1*
X52045Y11651D2*
X51873Y11465D1*
X52167Y11637D2*
Y11651D1*
X52181Y11680D1*
X52196Y11694D1*
X52224Y11709D1*
X52282D1*
X52310Y11694D1*
X52325Y11680D1*
X52339Y11651D1*
Y11623D1*
X52325Y11594D1*
X52296Y11551D1*
X52152Y11408D1*
X52353D1*
X47291Y1450D2*
X47507D1*
X47550Y1465D1*
X47578Y1493D1*
X47593Y1536D1*
Y1565D1*
X47578Y1608D1*
X47550Y1637D1*
X47507Y1651D1*
X47291D1*
X47363Y1758D2*
X47349D1*
X47320Y1773D1*
X47306Y1787D1*
X47292Y1816D1*
Y1873D1*
X47306Y1902D1*
X47320Y1916D1*
X47349Y1931D1*
X47378D1*
X47406Y1916D1*
X47449Y1887D1*
X47593Y1744D1*
Y1945D1*
X47292Y2124D2*
X47306Y2081D1*
X47349Y2052D1*
X47421Y2037D1*
X47464D1*
X47535Y2052D1*
X47579Y2081D1*
X47593Y2124D1*
Y2152D1*
X47579Y2195D1*
X47535Y2224D1*
X47464Y2238D1*
X47421D1*
X47349Y2224D1*
X47306Y2195D1*
X47292Y2152D1*
Y2124D1*
X47349Y2224D2*
X47535Y2052D1*
X47292Y2360D2*
Y2517D1*
X47406Y2432D1*
Y2475D1*
X47421Y2503D1*
X47435Y2517D1*
X47478Y2532D1*
X47507D1*
X47550Y2517D1*
X47579Y2489D1*
X47593Y2446D1*
Y2403D1*
X47579Y2360D1*
X47564Y2346D1*
X47535Y2331D1*
M02*
