G04 DipTrace 2.4.0.2*
%INBottomMask.gbr*%
%MOIN*%
%ADD64C,0.0749*%
%ADD66R,0.0749X0.0749*%
%FSLAX44Y44*%
G04*
G70*
G90*
G75*
G01*
%LNBotMask*%
%LPD*%
D66*
X36940Y17940D3*
D64*
X35940D3*
X36940Y16940D3*
X35940D3*
X36940Y15940D3*
X35940D3*
X36940Y14940D3*
X35940D3*
X36940Y13940D3*
X35940D3*
X36940Y12940D3*
X35940D3*
X36940Y11940D3*
X35940D3*
X36940Y10940D3*
X35940D3*
X36940Y9940D3*
X35940D3*
X36940Y8940D3*
X35940D3*
X36940Y7940D3*
X35940D3*
X36940Y6940D3*
X35940D3*
D66*
X21440Y5940D3*
D64*
X22440D3*
D66*
X38940Y6940D3*
D64*
X37940D3*
X38940Y7940D3*
X37940D3*
X38940Y8940D3*
X37940D3*
X38940Y9940D3*
X37940D3*
X38940Y10940D3*
X37940D3*
D66*
X38940Y12940D3*
D64*
X37940D3*
X38940Y13940D3*
X37940D3*
X38940Y14940D3*
X37940D3*
X38940Y15940D3*
X37940D3*
X38940Y16940D3*
X37940D3*
D66*
X8940Y17940D3*
D64*
X9940D3*
X10940D3*
D66*
X17504Y12878D3*
D64*
Y13878D3*
Y14878D3*
D66*
X26192Y12879D3*
D64*
Y13879D3*
Y14879D3*
D66*
X34940Y16940D3*
D64*
Y17940D3*
D66*
X28565Y16940D3*
D64*
Y17940D3*
D66*
X28318Y8941D3*
D64*
Y9941D3*
Y10941D3*
Y11941D3*
D66*
X34940Y6940D3*
D64*
Y7940D3*
Y8940D3*
Y9940D3*
Y10940D3*
Y11940D3*
Y12940D3*
Y13940D3*
D66*
X29940Y6940D3*
D64*
Y7940D3*
Y8940D3*
Y9940D3*
Y10940D3*
Y11940D3*
Y12940D3*
Y13940D3*
D66*
X18940Y5940D3*
D64*
X19940D3*
D66*
X23940D3*
D64*
X24940D3*
X25940D3*
X26940D3*
D66*
X11940Y4940D3*
D64*
X12940D3*
X13940D3*
X14940D3*
X15940D3*
X16940D3*
X17940D3*
X18940D3*
X19940D3*
X20940D3*
X21940D3*
X22940D3*
X23940D3*
X24940D3*
X25940D3*
D66*
X73940Y17940D3*
D64*
X72940D3*
X73940Y16940D3*
X72940D3*
X73940Y15940D3*
X72940D3*
X73940Y14940D3*
X72940D3*
X73940Y13940D3*
X72940D3*
X73940Y12940D3*
X72940D3*
X73940Y11940D3*
X72940D3*
X73940Y10940D3*
X72940D3*
X73940Y9940D3*
X72940D3*
X73940Y8940D3*
X72940D3*
X73940Y7940D3*
X72940D3*
X73940Y6940D3*
X72940D3*
D66*
X58440Y5940D3*
D64*
X59440D3*
D66*
X75940Y6940D3*
D64*
X74940D3*
X75940Y7940D3*
X74940D3*
X75940Y8940D3*
X74940D3*
X75940Y9940D3*
X74940D3*
X75940Y10940D3*
X74940D3*
D66*
X75940Y12940D3*
D64*
X74940D3*
X75940Y13940D3*
X74940D3*
X75940Y14940D3*
X74940D3*
X75940Y15940D3*
X74940D3*
X75940Y16940D3*
X74940D3*
D66*
X45940Y17940D3*
D64*
X46940D3*
X47940D3*
D66*
X54504Y12878D3*
D64*
Y13878D3*
Y14878D3*
D66*
X63192Y12879D3*
D64*
Y13879D3*
Y14879D3*
D66*
X71940Y16940D3*
D64*
Y17940D3*
D66*
X65565Y16940D3*
D64*
Y17940D3*
D66*
X65318Y8941D3*
D64*
Y9941D3*
Y10941D3*
Y11941D3*
D66*
X71940Y6940D3*
D64*
Y7940D3*
Y8940D3*
Y9940D3*
Y10940D3*
Y11940D3*
Y12940D3*
Y13940D3*
D66*
X66940Y6940D3*
D64*
Y7940D3*
Y8940D3*
Y9940D3*
Y10940D3*
Y11940D3*
Y12940D3*
Y13940D3*
D66*
X55940Y5940D3*
D64*
X56940D3*
D66*
X60940D3*
D64*
X61940D3*
X62940D3*
X63940D3*
D66*
X48940Y4940D3*
D64*
X49940D3*
X50940D3*
X51940D3*
X52940D3*
X53940D3*
X54940D3*
X55940D3*
X56940D3*
X57940D3*
X58940D3*
X59940D3*
X60940D3*
X61940D3*
X62940D3*
D66*
X36940Y33940D3*
D64*
X35940D3*
X36940Y32940D3*
X35940D3*
X36940Y31940D3*
X35940D3*
X36940Y30940D3*
X35940D3*
X36940Y29940D3*
X35940D3*
X36940Y28940D3*
X35940D3*
X36940Y27940D3*
X35940D3*
X36940Y26940D3*
X35940D3*
X36940Y25940D3*
X35940D3*
X36940Y24940D3*
X35940D3*
X36940Y23940D3*
X35940D3*
X36940Y22940D3*
X35940D3*
D66*
X21440Y21940D3*
D64*
X22440D3*
D66*
X38940Y22940D3*
D64*
X37940D3*
X38940Y23940D3*
X37940D3*
X38940Y24940D3*
X37940D3*
X38940Y25940D3*
X37940D3*
X38940Y26940D3*
X37940D3*
D66*
X38940Y28940D3*
D64*
X37940D3*
X38940Y29940D3*
X37940D3*
X38940Y30940D3*
X37940D3*
X38940Y31940D3*
X37940D3*
X38940Y32940D3*
X37940D3*
D66*
X8940Y33940D3*
D64*
X9940D3*
X10940D3*
D66*
X17504Y28878D3*
D64*
Y29878D3*
Y30878D3*
D66*
X26192Y28879D3*
D64*
Y29879D3*
Y30879D3*
D66*
X34940Y32940D3*
D64*
Y33940D3*
D66*
X28565Y32940D3*
D64*
Y33940D3*
D66*
X28318Y24941D3*
D64*
Y25941D3*
Y26941D3*
Y27941D3*
D66*
X34940Y22940D3*
D64*
Y23940D3*
Y24940D3*
Y25940D3*
Y26940D3*
Y27940D3*
Y28940D3*
Y29940D3*
D66*
X29940Y22940D3*
D64*
Y23940D3*
Y24940D3*
Y25940D3*
Y26940D3*
Y27940D3*
Y28940D3*
Y29940D3*
D66*
X18940Y21940D3*
D64*
X19940D3*
D66*
X23940D3*
D64*
X24940D3*
X25940D3*
X26940D3*
D66*
X11940Y20940D3*
D64*
X12940D3*
X13940D3*
X14940D3*
X15940D3*
X16940D3*
X17940D3*
X18940D3*
X19940D3*
X20940D3*
X21940D3*
X22940D3*
X23940D3*
X24940D3*
X25940D3*
D66*
X73940Y33940D3*
D64*
X72940D3*
X73940Y32940D3*
X72940D3*
X73940Y31940D3*
X72940D3*
X73940Y30940D3*
X72940D3*
X73940Y29940D3*
X72940D3*
X73940Y28940D3*
X72940D3*
X73940Y27940D3*
X72940D3*
X73940Y26940D3*
X72940D3*
X73940Y25940D3*
X72940D3*
X73940Y24940D3*
X72940D3*
X73940Y23940D3*
X72940D3*
X73940Y22940D3*
X72940D3*
D66*
X58440Y21940D3*
D64*
X59440D3*
D66*
X75940Y22940D3*
D64*
X74940D3*
X75940Y23940D3*
X74940D3*
X75940Y24940D3*
X74940D3*
X75940Y25940D3*
X74940D3*
X75940Y26940D3*
X74940D3*
D66*
X75940Y28940D3*
D64*
X74940D3*
X75940Y29940D3*
X74940D3*
X75940Y30940D3*
X74940D3*
X75940Y31940D3*
X74940D3*
X75940Y32940D3*
X74940D3*
D66*
X45940Y33940D3*
D64*
X46940D3*
X47940D3*
D66*
X54504Y28878D3*
D64*
Y29878D3*
Y30878D3*
D66*
X63192Y28879D3*
D64*
Y29879D3*
Y30879D3*
D66*
X71940Y32940D3*
D64*
Y33940D3*
D66*
X65565Y32940D3*
D64*
Y33940D3*
D66*
X65318Y24941D3*
D64*
Y25941D3*
Y26941D3*
Y27941D3*
D66*
X71940Y22940D3*
D64*
Y23940D3*
Y24940D3*
Y25940D3*
Y26940D3*
Y27940D3*
Y28940D3*
Y29940D3*
D66*
X66940Y22940D3*
D64*
Y23940D3*
Y24940D3*
Y25940D3*
Y26940D3*
Y27940D3*
Y28940D3*
Y29940D3*
D66*
X55940Y21940D3*
D64*
X56940D3*
D66*
X60940D3*
D64*
X61940D3*
X62940D3*
X63940D3*
D66*
X48940Y20940D3*
D64*
X49940D3*
X50940D3*
X51940D3*
X52940D3*
X53940D3*
X54940D3*
X55940D3*
X56940D3*
X57940D3*
X58940D3*
X59940D3*
X60940D3*
X61940D3*
X62940D3*
D66*
X36940Y49940D3*
D64*
X35940D3*
X36940Y48940D3*
X35940D3*
X36940Y47940D3*
X35940D3*
X36940Y46940D3*
X35940D3*
X36940Y45940D3*
X35940D3*
X36940Y44940D3*
X35940D3*
X36940Y43940D3*
X35940D3*
X36940Y42940D3*
X35940D3*
X36940Y41940D3*
X35940D3*
X36940Y40940D3*
X35940D3*
X36940Y39940D3*
X35940D3*
X36940Y38940D3*
X35940D3*
D66*
X21440Y37940D3*
D64*
X22440D3*
D66*
X38940Y38940D3*
D64*
X37940D3*
X38940Y39940D3*
X37940D3*
X38940Y40940D3*
X37940D3*
X38940Y41940D3*
X37940D3*
X38940Y42940D3*
X37940D3*
D66*
X38940Y44940D3*
D64*
X37940D3*
X38940Y45940D3*
X37940D3*
X38940Y46940D3*
X37940D3*
X38940Y47940D3*
X37940D3*
X38940Y48940D3*
X37940D3*
D66*
X8940Y49940D3*
D64*
X9940D3*
X10940D3*
D66*
X17504Y44878D3*
D64*
Y45878D3*
Y46878D3*
D66*
X26192Y44879D3*
D64*
Y45879D3*
Y46879D3*
D66*
X34940Y48940D3*
D64*
Y49940D3*
D66*
X28565Y48940D3*
D64*
Y49940D3*
D66*
X28318Y40941D3*
D64*
Y41941D3*
Y42941D3*
Y43941D3*
D66*
X34940Y38940D3*
D64*
Y39940D3*
Y40940D3*
Y41940D3*
Y42940D3*
Y43940D3*
Y44940D3*
Y45940D3*
D66*
X29940Y38940D3*
D64*
Y39940D3*
Y40940D3*
Y41940D3*
Y42940D3*
Y43940D3*
Y44940D3*
Y45940D3*
D66*
X18940Y37940D3*
D64*
X19940D3*
D66*
X23940D3*
D64*
X24940D3*
X25940D3*
X26940D3*
D66*
X11940Y36940D3*
D64*
X12940D3*
X13940D3*
X14940D3*
X15940D3*
X16940D3*
X17940D3*
X18940D3*
X19940D3*
X20940D3*
X21940D3*
X22940D3*
X23940D3*
X24940D3*
X25940D3*
D66*
X73940Y49940D3*
D64*
X72940D3*
X73940Y48940D3*
X72940D3*
X73940Y47940D3*
X72940D3*
X73940Y46940D3*
X72940D3*
X73940Y45940D3*
X72940D3*
X73940Y44940D3*
X72940D3*
X73940Y43940D3*
X72940D3*
X73940Y42940D3*
X72940D3*
X73940Y41940D3*
X72940D3*
X73940Y40940D3*
X72940D3*
X73940Y39940D3*
X72940D3*
X73940Y38940D3*
X72940D3*
D66*
X58440Y37940D3*
D64*
X59440D3*
D66*
X75940Y38940D3*
D64*
X74940D3*
X75940Y39940D3*
X74940D3*
X75940Y40940D3*
X74940D3*
X75940Y41940D3*
X74940D3*
X75940Y42940D3*
X74940D3*
D66*
X75940Y44940D3*
D64*
X74940D3*
X75940Y45940D3*
X74940D3*
X75940Y46940D3*
X74940D3*
X75940Y47940D3*
X74940D3*
X75940Y48940D3*
X74940D3*
D66*
X45940Y49940D3*
D64*
X46940D3*
X47940D3*
D66*
X54504Y44878D3*
D64*
Y45878D3*
Y46878D3*
D66*
X63192Y44879D3*
D64*
Y45879D3*
Y46879D3*
D66*
X71940Y48940D3*
D64*
Y49940D3*
D66*
X65565Y48940D3*
D64*
Y49940D3*
D66*
X65318Y40941D3*
D64*
Y41941D3*
Y42941D3*
Y43941D3*
D66*
X71940Y38940D3*
D64*
Y39940D3*
Y40940D3*
Y41940D3*
Y42940D3*
Y43940D3*
Y44940D3*
Y45940D3*
D66*
X66940Y38940D3*
D64*
Y39940D3*
Y40940D3*
Y41940D3*
Y42940D3*
Y43940D3*
Y44940D3*
Y45940D3*
D66*
X55940Y37940D3*
D64*
X56940D3*
D66*
X60940D3*
D64*
X61940D3*
X62940D3*
X63940D3*
D66*
X48940Y36940D3*
D64*
X49940D3*
X50940D3*
X51940D3*
X52940D3*
X53940D3*
X54940D3*
X55940D3*
X56940D3*
X57940D3*
X58940D3*
X59940D3*
X60940D3*
X61940D3*
X62940D3*
D66*
X36940Y65940D3*
D64*
X35940D3*
X36940Y64940D3*
X35940D3*
X36940Y63940D3*
X35940D3*
X36940Y62940D3*
X35940D3*
X36940Y61940D3*
X35940D3*
X36940Y60940D3*
X35940D3*
X36940Y59940D3*
X35940D3*
X36940Y58940D3*
X35940D3*
X36940Y57940D3*
X35940D3*
X36940Y56940D3*
X35940D3*
X36940Y55940D3*
X35940D3*
X36940Y54940D3*
X35940D3*
D66*
X21440Y53940D3*
D64*
X22440D3*
D66*
X38940Y54940D3*
D64*
X37940D3*
X38940Y55940D3*
X37940D3*
X38940Y56940D3*
X37940D3*
X38940Y57940D3*
X37940D3*
X38940Y58940D3*
X37940D3*
D66*
X38940Y60940D3*
D64*
X37940D3*
X38940Y61940D3*
X37940D3*
X38940Y62940D3*
X37940D3*
X38940Y63940D3*
X37940D3*
X38940Y64940D3*
X37940D3*
D66*
X8940Y65940D3*
D64*
X9940D3*
X10940D3*
D66*
X17504Y60878D3*
D64*
Y61878D3*
Y62878D3*
D66*
X26192Y60879D3*
D64*
Y61879D3*
Y62879D3*
D66*
X34940Y64940D3*
D64*
Y65940D3*
D66*
X28565Y64940D3*
D64*
Y65940D3*
D66*
X28318Y56941D3*
D64*
Y57941D3*
Y58941D3*
Y59941D3*
D66*
X34940Y54940D3*
D64*
Y55940D3*
Y56940D3*
Y57940D3*
Y58940D3*
Y59940D3*
Y60940D3*
Y61940D3*
D66*
X29940Y54940D3*
D64*
Y55940D3*
Y56940D3*
Y57940D3*
Y58940D3*
Y59940D3*
Y60940D3*
Y61940D3*
D66*
X18940Y53940D3*
D64*
X19940D3*
D66*
X23940D3*
D64*
X24940D3*
X25940D3*
X26940D3*
D66*
X11940Y52940D3*
D64*
X12940D3*
X13940D3*
X14940D3*
X15940D3*
X16940D3*
X17940D3*
X18940D3*
X19940D3*
X20940D3*
X21940D3*
X22940D3*
X23940D3*
X24940D3*
X25940D3*
D66*
X73940Y65940D3*
D64*
X72940D3*
X73940Y64940D3*
X72940D3*
X73940Y63940D3*
X72940D3*
X73940Y62940D3*
X72940D3*
X73940Y61940D3*
X72940D3*
X73940Y60940D3*
X72940D3*
X73940Y59940D3*
X72940D3*
X73940Y58940D3*
X72940D3*
X73940Y57940D3*
X72940D3*
X73940Y56940D3*
X72940D3*
X73940Y55940D3*
X72940D3*
X73940Y54940D3*
X72940D3*
D66*
X58440Y53940D3*
D64*
X59440D3*
D66*
X75940Y54940D3*
D64*
X74940D3*
X75940Y55940D3*
X74940D3*
X75940Y56940D3*
X74940D3*
X75940Y57940D3*
X74940D3*
X75940Y58940D3*
X74940D3*
D66*
X75940Y60940D3*
D64*
X74940D3*
X75940Y61940D3*
X74940D3*
X75940Y62940D3*
X74940D3*
X75940Y63940D3*
X74940D3*
X75940Y64940D3*
X74940D3*
D66*
X45940Y65940D3*
D64*
X46940D3*
X47940D3*
D66*
X54504Y60878D3*
D64*
Y61878D3*
Y62878D3*
D66*
X63192Y60879D3*
D64*
Y61879D3*
Y62879D3*
D66*
X71940Y64940D3*
D64*
Y65940D3*
D66*
X65565Y64940D3*
D64*
Y65940D3*
D66*
X65318Y56941D3*
D64*
Y57941D3*
Y58941D3*
Y59941D3*
D66*
X71940Y54940D3*
D64*
Y55940D3*
Y56940D3*
Y57940D3*
Y58940D3*
Y59940D3*
Y60940D3*
Y61940D3*
D66*
X66940Y54940D3*
D64*
Y55940D3*
Y56940D3*
Y57940D3*
Y58940D3*
Y59940D3*
Y60940D3*
Y61940D3*
D66*
X55940Y53940D3*
D64*
X56940D3*
D66*
X60940D3*
D64*
X61940D3*
X62940D3*
X63940D3*
D66*
X48940Y52940D3*
D64*
X49940D3*
X50940D3*
X51940D3*
X52940D3*
X53940D3*
X54940D3*
X55940D3*
X56940D3*
X57940D3*
X58940D3*
X59940D3*
X60940D3*
X61940D3*
X62940D3*
M02*
