G04 DipTrace 2.4.0.2*
%INBottomSilk.gbr*%
%MOIN*%
%ADD10C,0.0098*%
%ADD84C,0.0046*%
%FSLAX44Y44*%
G04*
G70*
G90*
G75*
G01*
%LNBotSilk*%
%LPD*%
X35440Y18440D2*
D10*
X37440D1*
Y6440D1*
X35440D1*
Y18440D1*
X36451Y18879D2*
D84*
Y18650D1*
X36465Y18607D1*
X36479Y18592D1*
X36508Y18578D1*
X36537D1*
X36565Y18592D1*
X36580Y18607D1*
X36594Y18650D1*
Y18678D1*
X36358Y18822D2*
X36329Y18836D1*
X36286Y18879D1*
Y18578D1*
X72440Y18440D2*
D10*
X74440D1*
Y6440D1*
X72440D1*
Y18440D1*
X73451Y18879D2*
D84*
Y18650D1*
X73465Y18607D1*
X73479Y18592D1*
X73508Y18578D1*
X73537D1*
X73565Y18592D1*
X73580Y18607D1*
X73594Y18650D1*
Y18678D1*
X73358Y18822D2*
X73329Y18836D1*
X73286Y18879D1*
Y18578D1*
X35440Y34440D2*
D10*
X37440D1*
Y22440D1*
X35440D1*
Y34440D1*
X36451Y34879D2*
D84*
Y34650D1*
X36465Y34607D1*
X36479Y34592D1*
X36508Y34578D1*
X36537D1*
X36565Y34592D1*
X36580Y34607D1*
X36594Y34650D1*
Y34678D1*
X36358Y34822D2*
X36329Y34836D1*
X36286Y34879D1*
Y34578D1*
X72440Y34440D2*
D10*
X74440D1*
Y22440D1*
X72440D1*
Y34440D1*
X73451Y34879D2*
D84*
Y34650D1*
X73465Y34607D1*
X73479Y34592D1*
X73508Y34578D1*
X73537D1*
X73565Y34592D1*
X73580Y34607D1*
X73594Y34650D1*
Y34678D1*
X73358Y34822D2*
X73329Y34836D1*
X73286Y34879D1*
Y34578D1*
X35440Y50440D2*
D10*
X37440D1*
Y38440D1*
X35440D1*
Y50440D1*
X36451Y50879D2*
D84*
Y50650D1*
X36465Y50607D1*
X36479Y50592D1*
X36508Y50578D1*
X36537D1*
X36565Y50592D1*
X36580Y50607D1*
X36594Y50650D1*
Y50678D1*
X36358Y50822D2*
X36329Y50836D1*
X36286Y50879D1*
Y50578D1*
X72440Y50440D2*
D10*
X74440D1*
Y38440D1*
X72440D1*
Y50440D1*
X73451Y50879D2*
D84*
Y50650D1*
X73465Y50607D1*
X73479Y50592D1*
X73508Y50578D1*
X73537D1*
X73565Y50592D1*
X73580Y50607D1*
X73594Y50650D1*
Y50678D1*
X73358Y50822D2*
X73329Y50836D1*
X73286Y50879D1*
Y50578D1*
X35440Y66440D2*
D10*
X37440D1*
Y54440D1*
X35440D1*
Y66440D1*
X36451Y66879D2*
D84*
Y66650D1*
X36465Y66607D1*
X36479Y66592D1*
X36508Y66578D1*
X36537D1*
X36565Y66592D1*
X36580Y66607D1*
X36594Y66650D1*
Y66678D1*
X36358Y66822D2*
X36329Y66836D1*
X36286Y66879D1*
Y66578D1*
X72440Y66440D2*
D10*
X74440D1*
Y54440D1*
X72440D1*
Y66440D1*
X73451Y66879D2*
D84*
Y66650D1*
X73465Y66607D1*
X73479Y66592D1*
X73508Y66578D1*
X73537D1*
X73565Y66592D1*
X73580Y66607D1*
X73594Y66650D1*
Y66678D1*
X73358Y66822D2*
X73329Y66836D1*
X73286Y66879D1*
Y66578D1*
M02*
