M48
INCH
T01C0.0191
T02C0.0394
T03C0.0433
T04C0.0492
%
T01
X+008750Y+005846
X+008750Y+005346
X+008750Y+004846
X+008750Y+004346
X+009250Y+004346
X+009250Y+004846
X+009250Y+005346
X+009250Y+005846
X+011203Y+006321
X+012732Y+005616
X+013250Y+005596
X+013250Y+006096
X+013250Y+006596
X+013250Y+007096
X+012479Y+004061
X+011250Y+004173
X+010752Y+001709
X+010252Y+001709
X+009752Y+001709
X+009252Y+001709
X+008752Y+001709
X+008252Y+001709
X+007752Y+001709
X+007252Y+001709
X+006752Y+001709
X+006252Y+001709
X+005752Y+001709
X+005252Y+001709
X+004752Y+001709
X+004232Y+002547
X+001000Y+002500
X+001000Y+002000
X+001000Y+001500
X+001000Y+001000
X+001000Y+003000
X+001000Y+003500
X+001000Y+004000
X+001000Y+004500
X+001000Y+005000
X+001000Y+005500
X+001000Y+006000
X+001000Y+006500
X+001000Y+007000
X+001000Y+007500
X+001000Y+008000
X+001000Y+008500
X+001000Y+009000
X+001000Y+009500
X+001000Y+010000
X+001000Y+010500
X+001000Y+011000
X+001406Y+011118
X+001906Y+011118
X+002406Y+011118
X+002906Y+011118
X+003406Y+011118
X+004232Y+009409
X+004232Y+007299
X+004953Y+006261
X+008295Y+007953
X+008295Y+008453
X+008795Y+008453
X+009295Y+008453
X+009295Y+007953
X+008795Y+007953
X+011203Y+010110
X+009906Y+013283
X+009406Y+013283
X+008906Y+013283
X+008406Y+013283
X+007906Y+013283
X+007406Y+013283
X+006906Y+013283
X+006406Y+013283
X+011425Y+014370
X+014583Y+011496
X+015083Y+011496
X+015583Y+011496
X+016382Y+010362
X+017000Y+010500
X+017000Y+010000
X+017000Y+009500
X+017000Y+009000
X+017000Y+008500
X+017000Y+008000
X+017000Y+007500
X+017000Y+007000
X+017000Y+006500
X+017500Y+006500
X+018000Y+006500
X+018500Y+006500
X+018500Y+007000
X+018500Y+007500
X+019000Y+007500
X+019000Y+007000
X+019500Y+007000
X+019500Y+007500
X+020000Y+007500
X+020000Y+007000
X+020000Y+006500
X+020500Y+006500
X+021000Y+006500
X+021440Y+006313
X+021000Y+007000
X+021000Y+007500
X+020500Y+007500
X+020500Y+007000
X+019500Y+006500
X+019000Y+006500
X+018000Y+007000
X+018000Y+007500
X+017500Y+007500
X+017500Y+007000
X+017000Y+006000
X+016382Y+005154
X+016382Y+003760
X+017520Y+001575
X+019031Y+003496
X+022565Y+006313
X+022063Y+007501
X+023500Y+007501
X+025052Y+009752
X+025778Y+009331
X+028500Y+010000
X+028500Y+010500
X+028500Y+011000
X+028500Y+011500
X+028500Y+012000
X+028500Y+012500
X+028500Y+013000
X+028500Y+013500
X+028500Y+014000
X+025778Y+012939
X+023000Y+013000
X+023000Y+013500
X+022500Y+013500
X+022500Y+013000
X+020496Y+012031
X+019190Y+012876
X+019173Y+013504
X+019173Y+014094
X+017000Y+013000
X+017000Y+012500
X+017000Y+012000
X+017000Y+011500
X+017000Y+011000
X+016358Y+013996
X+020295Y+009528
X+025062Y+004500
X+025429Y+004004
X+028317Y+003553
X+029000Y+001500
X+029500Y+001500
X+030000Y+001500
X+030500Y+001500
X+031000Y+001500
X+031500Y+001500
X+032000Y+001500
X+032500Y+001500
X+033000Y+001500
X+033500Y+001500
X+034000Y+001500
X+034500Y+001500
X+035000Y+001500
X+035500Y+001500
X+036000Y+001500
X+036500Y+001500
X+037000Y+001500
X+037500Y+001500
X+038000Y+001500
X+038500Y+001500
X+039000Y+001500
X+039500Y+001500
X+040000Y+001500
X+044500Y+001500
X+044500Y+002000
X+044500Y+002500
X+044500Y+003000
X+044500Y+003500
X+044500Y+004000
X+044500Y+004500
X+044500Y+005000
X+044500Y+005500
X+044500Y+006000
X+044500Y+006500
X+044500Y+007000
X+044500Y+007500
X+044500Y+008000
X+044500Y+008500
X+044500Y+009000
X+044500Y+009500
X+044500Y+010000
X+044500Y+010500
X+044500Y+011000
X+044906Y+011118
X+045406Y+011118
X+045906Y+011118
X+046406Y+011118
X+046906Y+011118
X+047732Y+009409
X+047732Y+007299
X+048453Y+006261
X+051795Y+007953
X+051795Y+008453
X+052295Y+008453
X+052295Y+007953
X+052795Y+007953
X+052795Y+008453
X+054703Y+010110
X+053406Y+013283
X+052906Y+013283
X+052406Y+013283
X+051906Y+013283
X+051406Y+013283
X+050906Y+013283
X+050406Y+013283
X+049906Y+013283
X+054925Y+014370
X+058083Y+011496
X+058583Y+011496
X+059083Y+011496
X+059882Y+010362
X+060500Y+010500
X+060500Y+010000
X+060500Y+009500
X+060500Y+009000
X+060500Y+008500
X+060500Y+008000
X+060500Y+007500
X+060500Y+007000
X+060500Y+006500
X+060500Y+006000
X+061000Y+006500
X+061500Y+006500
X+061500Y+007000
X+061000Y+007000
X+061000Y+007500
X+061500Y+007500
X+062000Y+007500
X+062500Y+007500
X+062500Y+007000
X+062000Y+007000
X+062000Y+006500
X+062500Y+006500
X+063000Y+006500
X+063500Y+006500
X+063500Y+007000
X+063000Y+007000
X+063000Y+007500
X+063500Y+007500
X+064000Y+007500
X+064500Y+007500
X+064500Y+007000
X+064000Y+007000
X+064000Y+006500
X+064500Y+006500
X+064940Y+006313
X+066065Y+006313
X+065563Y+007501
X+067000Y+007501
X+068552Y+009752
X+069278Y+009331
X+072000Y+010000
X+072000Y+010500
X+072000Y+011000
X+072000Y+011500
X+072000Y+012000
X+072000Y+012500
X+072000Y+013000
X+072000Y+013500
X+072000Y+014000
X+069278Y+012939
X+066500Y+013000
X+066000Y+013000
X+066000Y+013500
X+066500Y+013500
X+063996Y+012031
X+062690Y+012876
X+062673Y+013504
X+062673Y+014094
X+060500Y+013000
X+060500Y+012500
X+060500Y+012000
X+060500Y+011500
X+060500Y+011000
X+059858Y+013996
X+063795Y+009528
X+059882Y+005154
X+059882Y+003760
X+061020Y+001575
X+062531Y+003496
X+056752Y+001709
X+056252Y+001709
X+055752Y+001709
X+055252Y+001709
X+054252Y+001709
X+053752Y+001709
X+053252Y+001709
X+052752Y+001709
X+052252Y+001709
X+051752Y+001709
X+051252Y+001709
X+050752Y+001709
X+050252Y+001709
X+049752Y+001709
X+049252Y+001709
X+048752Y+001709
X+048252Y+001709
X+047732Y+002547
X+050969Y+002732
X+052250Y+004346
X+052250Y+004846
X+052750Y+004846
X+052750Y+005346
X+052750Y+005846
X+052250Y+005846
X+052250Y+005346
X+052750Y+004346
X+054750Y+004173
X+055979Y+004061
X+056232Y+005616
X+056750Y+005596
X+056750Y+006096
X+056750Y+006596
X+056750Y+007096
X+054703Y+006321
X+044500Y+001000
X+033879Y+007924
X+033879Y+008424
X+033879Y+008924
X+033879Y+009424
X+033879Y+009924
X+033316Y+009924
X+033316Y+009424
X+033316Y+008924
X+033316Y+008424
X+033316Y+007924
X+032441Y+008674
X+032441Y+009174
X+030357Y+011014
X+029688Y+010375
X+028440Y+007876
X+028440Y+006813
X+029000Y+020000
X+029500Y+020000
X+030000Y+020000
X+030500Y+020000
X+031000Y+020000
X+031500Y+020000
X+032000Y+020000
X+032500Y+020000
X+033000Y+020000
X+033500Y+020000
X+034000Y+020000
X+034500Y+020000
X+035000Y+020000
X+035500Y+020000
X+036000Y+020000
X+036500Y+020000
X+037000Y+020000
X+037500Y+020000
X+038000Y+020000
X+038500Y+020000
X+039000Y+020000
X+039500Y+020000
X+040000Y+020000
X+044500Y+020000
X+044500Y+020500
X+044500Y+021000
X+044500Y+021500
X+044500Y+022000
X+044500Y+022500
X+044500Y+023000
X+044500Y+023500
X+044500Y+024000
X+044500Y+024500
X+044500Y+025000
X+044500Y+025500
X+044500Y+026000
X+044500Y+026500
X+044500Y+027000
X+044500Y+027500
X+044500Y+028000
X+044500Y+028500
X+044500Y+029000
X+044500Y+029500
X+044906Y+029618
X+045406Y+029618
X+045906Y+029618
X+046406Y+029618
X+046906Y+029618
X+047732Y+027909
X+047732Y+025799
X+048453Y+024761
X+051795Y+026453
X+051795Y+026953
X+052295Y+026953
X+052795Y+026953
X+052795Y+026453
X+052295Y+026453
X+052250Y+024346
X+052250Y+023846
X+052250Y+023346
X+052250Y+022846
X+052750Y+022846
X+052750Y+023346
X+052750Y+023846
X+052750Y+024346
X+054703Y+024821
X+056232Y+024116
X+056750Y+024096
X+056750Y+024596
X+056750Y+025096
X+056750Y+025596
X+055979Y+022561
X+054750Y+022673
X+054252Y+020209
X+053752Y+020209
X+053252Y+020209
X+052752Y+020209
X+052252Y+020209
X+051752Y+020209
X+051252Y+020209
X+050752Y+020209
X+050252Y+020209
X+049752Y+020209
X+049252Y+020209
X+048752Y+020209
X+048252Y+020209
X+047732Y+021047
X+050969Y+021232
X+055252Y+020209
X+055752Y+020209
X+056252Y+020209
X+056752Y+020209
X+059882Y+022260
X+059882Y+023654
X+060500Y+024500
X+060500Y+025000
X+060500Y+025500
X+060500Y+026000
X+060500Y+026500
X+060500Y+027000
X+060500Y+027500
X+060500Y+028000
X+060500Y+028500
X+060500Y+029000
X+060500Y+029500
X+060500Y+030000
X+060500Y+030500
X+060500Y+031000
X+060500Y+031500
X+059858Y+032496
X+059083Y+029996
X+058583Y+029996
X+058083Y+029996
X+059882Y+028862
X+061000Y+026000
X+061500Y+026000
X+061500Y+025500
X+061000Y+025500
X+061000Y+025000
X+061500Y+025000
X+062000Y+025000
X+062500Y+025000
X+062500Y+025500
X+062000Y+025500
X+062000Y+026000
X+062500Y+026000
X+063000Y+026000
X+063500Y+026000
X+063500Y+025500
X+063000Y+025500
X+063000Y+025000
X+063500Y+025000
X+064000Y+025000
X+064500Y+025000
X+064940Y+024813
X+064500Y+025500
X+064000Y+025500
X+064000Y+026000
X+064500Y+026000
X+065563Y+026001
X+066065Y+024813
X+067000Y+026001
X+068552Y+028252
X+069278Y+027831
X+072000Y+028500
X+072000Y+029000
X+072000Y+029500
X+072000Y+030000
X+072000Y+030500
X+072000Y+031000
X+072000Y+031500
X+072000Y+032000
X+072000Y+032500
X+069278Y+031439
X+066500Y+031500
X+066000Y+031500
X+066000Y+032000
X+066500Y+032000
X+063996Y+030531
X+062690Y+031376
X+062673Y+032004
X+062673Y+032594
X+063795Y+028028
X+062531Y+021996
X+061020Y+020075
X+068562Y+023000
X+068929Y+022504
X+071817Y+022053
X+072500Y+020000
X+073000Y+020000
X+073500Y+020000
X+074000Y+020000
X+074500Y+020000
X+075000Y+020000
X+075500Y+020000
X+076000Y+020000
X+076500Y+020000
X+077000Y+020000
X+077500Y+020000
X+078000Y+020000
X+078500Y+020000
X+079000Y+020000
X+079500Y+020000
X+080000Y+020000
X+080500Y+020000
X+081000Y+020000
X+081500Y+020000
X+082000Y+020000
X+082500Y+020000
X+083000Y+020000
X+083500Y+020000
X+077379Y+026424
X+077379Y+026924
X+077379Y+027424
X+077379Y+027924
X+077379Y+028424
X+076816Y+028424
X+076816Y+027924
X+076816Y+027424
X+076816Y+026924
X+076816Y+026424
X+075941Y+027174
X+075941Y+027674
X+073857Y+029514
X+073188Y+028875
X+071940Y+026376
X+071940Y+025313
X+072500Y+038500
X+073000Y+038500
X+073500Y+038500
X+074000Y+038500
X+074500Y+038500
X+075000Y+038500
X+075500Y+038500
X+076000Y+038500
X+076500Y+038500
X+077000Y+038500
X+077500Y+038500
X+078000Y+038500
X+078500Y+038500
X+079000Y+038500
X+079500Y+038500
X+080000Y+038500
X+080500Y+038500
X+081000Y+038500
X+081500Y+038500
X+082000Y+038500
X+082500Y+038500
X+083000Y+038500
X+083500Y+038500
X+077379Y+044924
X+077379Y+045424
X+077379Y+045924
X+077379Y+046424
X+077379Y+046924
X+076816Y+046924
X+076816Y+046424
X+076816Y+045924
X+076816Y+045424
X+076816Y+044924
X+075941Y+045674
X+075941Y+046174
X+073857Y+048014
X+073188Y+047375
X+072000Y+047500
X+072000Y+048000
X+072000Y+048500
X+072000Y+049000
X+072000Y+049500
X+072000Y+050000
X+072000Y+050500
X+072000Y+051000
X+069278Y+049939
X+066500Y+050000
X+066000Y+050000
X+066000Y+050500
X+066500Y+050500
X+063996Y+049031
X+062690Y+049876
X+062673Y+050504
X+062673Y+051094
X+060500Y+050000
X+060500Y+049500
X+060500Y+049000
X+060500Y+048500
X+060500Y+048000
X+060500Y+047500
X+060500Y+047000
X+060500Y+046500
X+060500Y+046000
X+060500Y+045500
X+060500Y+045000
X+060500Y+044500
X+060500Y+044000
X+060500Y+043500
X+060500Y+043000
X+061000Y+043500
X+061000Y+044000
X+061500Y+044000
X+061500Y+043500
X+062000Y+043500
X+062000Y+044000
X+062500Y+044000
X+062500Y+043500
X+063000Y+043500
X+063000Y+044000
X+063500Y+044000
X+063500Y+043500
X+064000Y+043500
X+064000Y+044000
X+064500Y+044000
X+064500Y+043500
X+064940Y+043313
X+066065Y+043313
X+065563Y+044501
X+064500Y+044500
X+064000Y+044500
X+063500Y+044500
X+063000Y+044500
X+062500Y+044500
X+062000Y+044500
X+061500Y+044500
X+061000Y+044500
X+059882Y+042154
X+059882Y+040760
X+061020Y+038575
X+062531Y+040496
X+067000Y+044501
X+068552Y+046752
X+069278Y+046331
X+072000Y+047000
X+071940Y+044876
X+071940Y+043813
X+071817Y+040553
X+068929Y+041004
X+068562Y+041500
X+063795Y+046528
X+059882Y+047362
X+059083Y+048496
X+058583Y+048496
X+058083Y+048496
X+059858Y+050996
X+054925Y+051370
X+053406Y+050283
X+052906Y+050283
X+052406Y+050283
X+051906Y+050283
X+051406Y+050283
X+050906Y+050283
X+050406Y+050283
X+049906Y+050283
X+046906Y+048118
X+046406Y+048118
X+045906Y+048118
X+045406Y+048118
X+044906Y+048118
X+044500Y+048000
X+044500Y+047500
X+044500Y+047000
X+044500Y+046500
X+044500Y+046000
X+044500Y+045500
X+044500Y+045000
X+044500Y+044500
X+044500Y+044000
X+044500Y+043500
X+044500Y+043000
X+044500Y+042500
X+044500Y+042000
X+044500Y+041500
X+044500Y+041000
X+044500Y+040500
X+044500Y+040000
X+044500Y+039500
X+044500Y+039000
X+044500Y+038500
X+044500Y+038000
X+047732Y+039547
X+048252Y+038709
X+048752Y+038709
X+049252Y+038709
X+049752Y+038709
X+050252Y+038709
X+050752Y+038709
X+051252Y+038709
X+051752Y+038709
X+052252Y+038709
X+052752Y+038709
X+053252Y+038709
X+053752Y+038709
X+054252Y+038709
X+055252Y+038709
X+055752Y+038709
X+056252Y+038709
X+056752Y+038709
X+055979Y+041061
X+054750Y+041173
X+052750Y+041346
X+052250Y+041346
X+052250Y+041846
X+052250Y+042346
X+052250Y+042846
X+052750Y+042846
X+052750Y+042346
X+052750Y+041846
X+054703Y+043321
X+056232Y+042616
X+056750Y+042596
X+056750Y+043096
X+056750Y+043596
X+056750Y+044096
X+054703Y+047110
X+052795Y+045453
X+052295Y+045453
X+051795Y+045453
X+051795Y+044953
X+052295Y+044953
X+052795Y+044953
X+048453Y+043261
X+047732Y+044299
X+047732Y+046409
X+050969Y+039732
X+054925Y+032870
X+053406Y+031783
X+052906Y+031783
X+052406Y+031783
X+051906Y+031783
X+051406Y+031783
X+050906Y+031783
X+050406Y+031783
X+049906Y+031783
X+054703Y+028610
X+044500Y+019500
X+033879Y+026424
X+033879Y+026924
X+033879Y+027424
X+033879Y+027924
X+033879Y+028424
X+033316Y+028424
X+033316Y+027924
X+033316Y+027424
X+033316Y+026924
X+033316Y+026424
X+032441Y+027174
X+032441Y+027674
X+030357Y+029514
X+029688Y+028875
X+028500Y+029000
X+028500Y+028500
X+028500Y+029500
X+028500Y+030000
X+028500Y+030500
X+028500Y+031000
X+028500Y+031500
X+028500Y+032000
X+028500Y+032500
X+025778Y+031439
X+023000Y+031500
X+023000Y+032000
X+022500Y+032000
X+022500Y+031500
X+020496Y+030531
X+019190Y+031376
X+019173Y+032004
X+019173Y+032594
X+017000Y+031500
X+017000Y+031000
X+017000Y+030500
X+017000Y+030000
X+017000Y+029500
X+017000Y+029000
X+017000Y+028500
X+017000Y+028000
X+017000Y+027500
X+017000Y+027000
X+017000Y+026500
X+017000Y+026000
X+017000Y+025500
X+017000Y+025000
X+017000Y+024500
X+017500Y+025000
X+018000Y+025000
X+018000Y+025500
X+018000Y+026000
X+018500Y+026000
X+018500Y+025500
X+019000Y+025500
X+019000Y+025000
X+018500Y+025000
X+019500Y+025000
X+020000Y+025000
X+020000Y+025500
X+020000Y+026000
X+020500Y+026000
X+021000Y+026000
X+021000Y+025500
X+021000Y+025000
X+021440Y+024813
X+020500Y+025000
X+020500Y+025500
X+019500Y+025500
X+019500Y+026000
X+019000Y+026000
X+017500Y+026000
X+017500Y+025500
X+016382Y+023654
X+016382Y+022260
X+017520Y+020075
X+019031Y+021996
X+022565Y+024813
X+022063Y+026001
X+023500Y+026001
X+025052Y+028252
X+025778Y+027831
X+028440Y+026376
X+028440Y+025313
X+028317Y+022053
X+025429Y+022504
X+025062Y+023000
X+020295Y+028028
X+016382Y+028862
X+015583Y+029996
X+015083Y+029996
X+014583Y+029996
X+016358Y+032496
X+011425Y+032870
X+009906Y+031783
X+009406Y+031783
X+008906Y+031783
X+008406Y+031783
X+007906Y+031783
X+007406Y+031783
X+006906Y+031783
X+006406Y+031783
X+003406Y+029618
X+002906Y+029618
X+002406Y+029618
X+001906Y+029618
X+001406Y+029618
X+001000Y+029500
X+001000Y+029000
X+001000Y+028500
X+001000Y+028000
X+001000Y+027500
X+001000Y+027000
X+001000Y+026500
X+001000Y+026000
X+001000Y+025500
X+001000Y+025000
X+001000Y+024500
X+001000Y+024000
X+001000Y+023500
X+001000Y+023000
X+001000Y+022500
X+001000Y+022000
X+001000Y+021500
X+001000Y+021000
X+001000Y+020500
X+001000Y+020000
X+001000Y+019500
X+004232Y+021047
X+004752Y+020209
X+005252Y+020209
X+005752Y+020209
X+006252Y+020209
X+006752Y+020209
X+007252Y+020209
X+007752Y+020209
X+008252Y+020209
X+008752Y+020209
X+009252Y+020209
X+009752Y+020209
X+010252Y+020209
X+010752Y+020209
X+011752Y+020209
X+012252Y+020209
X+012752Y+020209
X+013252Y+020209
X+012479Y+022561
X+011250Y+022673
X+009250Y+022846
X+009250Y+023346
X+009250Y+023846
X+009250Y+024346
X+008750Y+024346
X+008750Y+023846
X+008750Y+023346
X+008750Y+022846
X+007469Y+021232
X+004953Y+024761
X+004232Y+025799
X+004232Y+027909
X+008295Y+026953
X+008295Y+026453
X+008795Y+026453
X+009295Y+026453
X+009295Y+026953
X+008795Y+026953
X+011203Y+028610
X+013250Y+025596
X+013250Y+025096
X+013250Y+024596
X+013250Y+024096
X+012732Y+024116
X+011203Y+024821
X+010752Y+038709
X+010252Y+038709
X+009752Y+038709
X+009252Y+038709
X+008752Y+038709
X+008252Y+038709
X+007752Y+038709
X+007252Y+038709
X+006752Y+038709
X+006252Y+038709
X+005752Y+038709
X+005252Y+038709
X+004752Y+038709
X+004232Y+039547
X+001000Y+039500
X+001000Y+039000
X+001000Y+038500
X+001000Y+038000
X+001000Y+040000
X+001000Y+040500
X+001000Y+041000
X+001000Y+041500
X+001000Y+042000
X+001000Y+042500
X+001000Y+043000
X+001000Y+043500
X+001000Y+044000
X+001000Y+044500
X+001000Y+045000
X+001000Y+045500
X+001000Y+046000
X+001000Y+046500
X+001000Y+047000
X+001000Y+047500
X+001000Y+048000
X+001406Y+048118
X+001906Y+048118
X+002406Y+048118
X+002906Y+048118
X+003406Y+048118
X+004232Y+046409
X+004232Y+044299
X+004953Y+043261
X+008295Y+044953
X+008295Y+045453
X+008795Y+045453
X+009295Y+045453
X+009295Y+044953
X+008795Y+044953
X+008750Y+042846
X+009250Y+042846
X+009250Y+042346
X+009250Y+041846
X+008750Y+041846
X+008750Y+041346
X+009250Y+041346
X+008750Y+042346
X+011203Y+043321
X+012732Y+042616
X+013250Y+042596
X+013250Y+043096
X+013250Y+043596
X+013250Y+044096
X+012479Y+041061
X+011250Y+041173
X+011752Y+038709
X+012252Y+038709
X+012752Y+038709
X+013252Y+038709
X+016382Y+040760
X+016382Y+042154
X+017000Y+043000
X+017000Y+043500
X+017000Y+044000
X+017500Y+044000
X+017500Y+043500
X+018000Y+043500
X+018000Y+044000
X+018000Y+044500
X+018500Y+044500
X+019000Y+044500
X+019500Y+044500
X+019500Y+044000
X+019500Y+043500
X+020000Y+043500
X+020000Y+044000
X+020500Y+044000
X+020500Y+043500
X+021000Y+043500
X+021440Y+043313
X+021000Y+044000
X+021000Y+044500
X+020500Y+044500
X+020000Y+044500
X+019000Y+044000
X+019000Y+043500
X+018500Y+043500
X+018500Y+044000
X+017500Y+044500
X+017000Y+044500
X+017000Y+045000
X+017000Y+045500
X+017000Y+046000
X+017000Y+046500
X+017000Y+047000
X+017000Y+047500
X+017000Y+048000
X+017000Y+048500
X+017000Y+049000
X+017000Y+049500
X+017000Y+050000
X+016358Y+050996
X+015583Y+048496
X+015083Y+048496
X+014583Y+048496
X+016382Y+047362
X+019190Y+049876
X+019173Y+050504
X+019173Y+051094
X+020496Y+049031
X+022500Y+050000
X+022500Y+050500
X+023000Y+050500
X+023000Y+050000
X+025778Y+049939
X+028500Y+050000
X+028500Y+049500
X+028500Y+049000
X+028500Y+048500
X+028500Y+048000
X+028500Y+047500
X+028500Y+047000
X+029688Y+047375
X+030357Y+048014
X+032441Y+046174
X+032441Y+045674
X+033316Y+045924
X+033316Y+045424
X+033316Y+044924
X+033879Y+044924
X+033879Y+045424
X+033879Y+045924
X+033879Y+046424
X+033879Y+046924
X+033316Y+046924
X+033316Y+046424
X+028440Y+044876
X+028440Y+043813
X+028317Y+040553
X+029000Y+038500
X+029500Y+038500
X+030000Y+038500
X+030500Y+038500
X+031000Y+038500
X+031500Y+038500
X+032000Y+038500
X+032500Y+038500
X+033000Y+038500
X+033500Y+038500
X+034000Y+038500
X+034500Y+038500
X+035000Y+038500
X+035500Y+038500
X+036000Y+038500
X+036500Y+038500
X+037000Y+038500
X+037500Y+038500
X+038000Y+038500
X+038500Y+038500
X+039000Y+038500
X+039500Y+038500
X+040000Y+038500
X+025429Y+041004
X+025062Y+041500
X+022565Y+043313
X+022063Y+044501
X+023500Y+044501
X+025052Y+046752
X+025778Y+046331
X+028500Y+050500
X+028500Y+051000
X+020295Y+046528
X+019031Y+040496
X+017520Y+038575
X+007469Y+039732
X+011203Y+047110
X+009906Y+050283
X+009406Y+050283
X+008906Y+050283
X+008406Y+050283
X+007906Y+050283
X+007406Y+050283
X+006906Y+050283
X+006406Y+050283
X+011425Y+051370
X+007469Y+002732
X+011752Y+001709
X+012252Y+001709
X+012752Y+001709
X+013252Y+001709
X+068562Y+004500
X+068929Y+004004
X+071817Y+003553
X+072500Y+001500
X+073000Y+001500
X+073500Y+001500
X+074000Y+001500
X+074500Y+001500
X+075000Y+001500
X+075500Y+001500
X+076000Y+001500
X+076500Y+001500
X+077000Y+001500
X+077500Y+001500
X+078000Y+001500
X+078500Y+001500
X+079000Y+001500
X+079500Y+001500
X+080000Y+001500
X+080500Y+001500
X+081000Y+001500
X+081500Y+001500
X+082000Y+001500
X+082500Y+001500
X+083000Y+001500
X+083500Y+001500
X+077379Y+007924
X+077379Y+008424
X+077379Y+008924
X+077379Y+009424
X+077379Y+009924
X+076816Y+009924
X+076816Y+009424
X+076816Y+008924
X+076816Y+008424
X+076816Y+007924
X+075941Y+008674
X+075941Y+009174
X+073857Y+011014
X+073188Y+010375
X+071940Y+007876
X+071940Y+006813
T02
X+018549Y+009116
X+018549Y+010100
X+018549Y+011084
X+027284Y+011080
X+027284Y+010096
X+027284Y+009112
X+034500Y+013008
X+034500Y+013992
X+027284Y+027612
X+027284Y+028596
X+027284Y+029580
X+034500Y+031508
X+034500Y+032492
X+027284Y+046112
X+027284Y+047096
X+027284Y+048080
X+034500Y+050008
X+034500Y+050992
X+018549Y+048084
X+018549Y+047100
X+018549Y+046116
X+018549Y+029584
X+018549Y+028600
X+018549Y+027616
X+062049Y+027616
X+062049Y+028600
X+062049Y+029584
X+070784Y+029580
X+070784Y+028596
X+070784Y+027612
X+078000Y+031508
X+078000Y+032492
X+070784Y+046112
X+070784Y+047096
X+070784Y+048080
X+078000Y+050008
X+078000Y+050992
X+062049Y+048084
X+062049Y+047100
X+062049Y+046116
X+062049Y+011084
X+062049Y+010100
X+062049Y+009116
X+070784Y+009112
X+070784Y+010096
X+070784Y+011080
X+078000Y+013008
X+078000Y+013992
T03
X+038000Y+014000
X+037000Y+014000
X+037000Y+013000
X+037000Y+012000
X+038000Y+012000
X+038000Y+013000
X+039000Y+013000
X+039000Y+012000
X+039000Y+011000
X+039000Y+010000
X+039000Y+009000
X+040000Y+009000
X+040000Y+010000
X+040000Y+011000
X+040000Y+012000
X+040000Y+013000
X+038000Y+011000
X+038000Y+010000
X+038000Y+009000
X+037000Y+009000
X+036000Y+009000
X+036000Y+008000
X+037000Y+008000
X+037000Y+007000
X+036000Y+007000
X+036000Y+006000
X+037000Y+006000
X+037000Y+005000
X+036000Y+005000
X+036000Y+004000
X+037000Y+004000
X+037000Y+003000
X+036000Y+003000
X+038000Y+003000
X+038000Y+004000
X+038000Y+005000
X+039000Y+005000
X+039000Y+004000
X+040000Y+004000
X+040000Y+005000
X+040000Y+006000
X+039000Y+006000
X+039000Y+007000
X+040000Y+007000
X+038000Y+007000
X+038000Y+008000
X+038000Y+006000
X+039000Y+003000
X+040000Y+003000
X+037000Y+010000
X+036000Y+010000
X+037000Y+011000
X+031000Y+010000
X+031000Y+009000
X+031000Y+008000
X+031000Y+007000
X+031000Y+006000
X+031000Y+005000
X+031000Y+004000
X+031000Y+003000
X+029378Y+005001
X+029378Y+006001
X+029378Y+007001
X+029378Y+008001
X+029366Y+011945
X+029366Y+012945
X+029366Y+013945
X+027000Y+019500
X+027000Y+020500
X+028000Y+020500
X+026000Y+020500
X+025000Y+020500
X+024000Y+020500
X+023000Y+020500
X+022000Y+020500
X+021000Y+020500
X+020000Y+020500
X+019000Y+020500
X+019000Y+019500
X+018000Y+019500
X+017000Y+019500
X+016000Y+019500
X+015000Y+019500
X+014000Y+019500
X+013000Y+019500
X+020000Y+019500
X+021000Y+019500
X+022000Y+019500
X+023000Y+019500
X+024000Y+019500
X+025000Y+019500
X+026000Y+019500
X+029378Y+023501
X+029378Y+024501
X+029378Y+025501
X+029378Y+026501
X+031000Y+026500
X+031000Y+025500
X+031000Y+024500
X+031000Y+023500
X+031000Y+022500
X+031000Y+021500
X+036000Y+021500
X+037000Y+021500
X+037000Y+022500
X+036000Y+022500
X+036000Y+023500
X+037000Y+023500
X+037000Y+024500
X+036000Y+024500
X+036000Y+025500
X+037000Y+025500
X+037000Y+026500
X+036000Y+026500
X+036000Y+027500
X+037000Y+027500
X+037000Y+028500
X+036000Y+028500
X+037000Y+029500
X+037000Y+030500
X+037000Y+031500
X+037000Y+032500
X+038000Y+032500
X+038000Y+031500
X+038000Y+030500
X+038000Y+029500
X+038000Y+028500
X+038000Y+027500
X+038000Y+026500
X+038000Y+025500
X+038000Y+024500
X+038000Y+023500
X+038000Y+022500
X+038000Y+021500
X+039000Y+021500
X+040000Y+021500
X+040000Y+022500
X+039000Y+022500
X+039000Y+023500
X+040000Y+023500
X+040000Y+024500
X+039000Y+024500
X+039000Y+025500
X+040000Y+025500
X+040000Y+027500
X+039000Y+027500
X+039000Y+028500
X+040000Y+028500
X+040000Y+029500
X+039000Y+029500
X+039000Y+030500
X+040000Y+030500
X+040000Y+031500
X+039000Y+031500
X+039000Y+040000
X+038000Y+040000
X+038000Y+041000
X+038000Y+042000
X+038000Y+043000
X+038000Y+044000
X+038000Y+045000
X+038000Y+046000
X+038000Y+047000
X+038000Y+048000
X+038000Y+049000
X+038000Y+050000
X+038000Y+051000
X+037000Y+051000
X+037000Y+050000
X+037000Y+049000
X+037000Y+048000
X+037000Y+047000
X+036000Y+047000
X+036000Y+046000
X+037000Y+046000
X+037000Y+045000
X+037000Y+044000
X+036000Y+044000
X+036000Y+043000
X+037000Y+043000
X+037000Y+042000
X+036000Y+042000
X+036000Y+041000
X+037000Y+041000
X+037000Y+040000
X+036000Y+040000
X+039000Y+041000
X+040000Y+041000
X+040000Y+040000
X+040000Y+042000
X+040000Y+043000
X+039000Y+043000
X+039000Y+042000
X+039000Y+044000
X+040000Y+044000
X+040000Y+046000
X+039000Y+046000
X+039000Y+047000
X+040000Y+047000
X+040000Y+048000
X+039000Y+048000
X+039000Y+049000
X+040000Y+049000
X+040000Y+050000
X+039000Y+050000
X+036000Y+045000
X+031000Y+045000
X+031000Y+044000
X+031000Y+043000
X+031000Y+042000
X+031000Y+041000
X+031000Y+040000
X+029378Y+042001
X+029378Y+043001
X+029378Y+044001
X+029378Y+045001
X+031000Y+046000
X+031000Y+047000
X+029366Y+048945
X+029366Y+049945
X+029366Y+050945
X+028000Y+039000
X+027000Y+039000
X+026000Y+039000
X+025000Y+039000
X+024000Y+039000
X+023000Y+039000
X+022000Y+039000
X+021000Y+039000
X+020000Y+039000
X+019000Y+039000
X+019000Y+038000
X+018000Y+038000
X+017000Y+038000
X+016000Y+038000
X+015000Y+038000
X+014000Y+038000
X+013000Y+038000
X+020000Y+038000
X+021000Y+038000
X+022000Y+038000
X+023000Y+038000
X+024000Y+038000
X+025000Y+038000
X+026000Y+038000
X+027000Y+038000
X+029366Y+032445
X+029366Y+031445
X+029366Y+030445
X+031000Y+028500
X+031000Y+027500
X+028000Y+002000
X+027000Y+002000
X+027000Y+001000
X+026000Y+001000
X+026000Y+002000
X+025000Y+002000
X+025000Y+001000
X+024000Y+001000
X+024000Y+002000
X+023000Y+002000
X+023000Y+001000
X+022000Y+001000
X+022000Y+002000
X+021000Y+002000
X+021000Y+001000
X+020000Y+001000
X+020000Y+002000
X+019000Y+002000
X+019000Y+001000
X+018000Y+001000
X+017000Y+001000
X+016000Y+001000
X+015000Y+001000
X+014000Y+001000
X+013000Y+001000
X+056500Y+001000
X+057500Y+001000
X+058500Y+001000
X+059500Y+001000
X+060500Y+001000
X+061500Y+001000
X+062500Y+001000
X+062500Y+002000
X+063500Y+002000
X+063500Y+001000
X+064500Y+001000
X+064500Y+002000
X+065500Y+002000
X+065500Y+001000
X+066500Y+001000
X+066500Y+002000
X+067500Y+002000
X+067500Y+001000
X+068500Y+001000
X+068500Y+002000
X+069500Y+002000
X+069500Y+001000
X+070500Y+001000
X+070500Y+002000
X+071500Y+002000
X+074500Y+003000
X+074500Y+004000
X+074500Y+005000
X+074500Y+006000
X+074500Y+007000
X+074500Y+008000
X+074500Y+009000
X+074500Y+010000
X+072866Y+011945
X+072866Y+012945
X+072866Y+013945
X+072878Y+008001
X+072878Y+007001
X+072878Y+006001
X+072878Y+005001
X+079500Y+005000
X+079500Y+006000
X+079500Y+007000
X+079500Y+008000
X+079500Y+009000
X+079500Y+010000
X+080500Y+010000
X+081500Y+010000
X+081500Y+011000
X+080500Y+011000
X+080500Y+012000
X+081500Y+012000
X+081500Y+013000
X+080500Y+013000
X+080500Y+014000
X+081500Y+014000
X+082500Y+013000
X+083500Y+013000
X+083500Y+012000
X+082500Y+012000
X+082500Y+011000
X+083500Y+011000
X+083500Y+010000
X+082500Y+010000
X+082500Y+009000
X+083500Y+009000
X+083500Y+007000
X+082500Y+007000
X+082500Y+006000
X+083500Y+006000
X+083500Y+005000
X+082500Y+005000
X+082500Y+004000
X+083500Y+004000
X+083500Y+003000
X+082500Y+003000
X+081500Y+003000
X+080500Y+003000
X+080500Y+004000
X+081500Y+004000
X+081500Y+005000
X+080500Y+005000
X+080500Y+006000
X+081500Y+006000
X+081500Y+007000
X+080500Y+007000
X+080500Y+008000
X+081500Y+008000
X+081500Y+009000
X+080500Y+009000
X+079500Y+004000
X+079500Y+003000
X+079500Y+021500
X+079500Y+022500
X+079500Y+023500
X+080500Y+023500
X+081500Y+023500
X+081500Y+022500
X+080500Y+022500
X+080500Y+021500
X+081500Y+021500
X+082500Y+021500
X+083500Y+021500
X+083500Y+022500
X+082500Y+022500
X+082500Y+023500
X+083500Y+023500
X+083500Y+024500
X+082500Y+024500
X+082500Y+025500
X+083500Y+025500
X+083500Y+027500
X+082500Y+027500
X+082500Y+028500
X+083500Y+028500
X+083500Y+029500
X+082500Y+029500
X+082500Y+030500
X+083500Y+030500
X+083500Y+031500
X+082500Y+031500
X+081500Y+031500
X+080500Y+031500
X+080500Y+030500
X+081500Y+030500
X+081500Y+029500
X+080500Y+029500
X+080500Y+028500
X+081500Y+028500
X+081500Y+027500
X+080500Y+027500
X+079500Y+027500
X+079500Y+026500
X+079500Y+025500
X+080500Y+025500
X+081500Y+025500
X+081500Y+026500
X+080500Y+026500
X+080500Y+024500
X+081500Y+024500
X+079500Y+024500
X+079500Y+028500
X+080500Y+032500
X+081500Y+032500
X+081500Y+040000
X+080500Y+040000
X+080500Y+041000
X+081500Y+041000
X+081500Y+042000
X+080500Y+042000
X+080500Y+043000
X+081500Y+043000
X+081500Y+044000
X+080500Y+044000
X+080500Y+045000
X+081500Y+045000
X+081500Y+046000
X+080500Y+046000
X+080500Y+047000
X+081500Y+047000
X+081500Y+048000
X+080500Y+048000
X+080500Y+049000
X+081500Y+049000
X+081500Y+050000
X+080500Y+050000
X+080500Y+051000
X+081500Y+051000
X+082500Y+050000
X+083500Y+050000
X+083500Y+049000
X+082500Y+049000
X+082500Y+048000
X+083500Y+048000
X+083500Y+047000
X+082500Y+047000
X+082500Y+046000
X+083500Y+046000
X+083500Y+044000
X+082500Y+044000
X+082500Y+043000
X+083500Y+043000
X+083500Y+042000
X+082500Y+042000
X+082500Y+041000
X+083500Y+041000
X+083500Y+040000
X+082500Y+040000
X+079500Y+040000
X+079500Y+041000
X+079500Y+042000
X+079500Y+043000
X+079500Y+044000
X+079500Y+045000
X+079500Y+046000
X+079500Y+047000
X+074500Y+047000
X+074500Y+046000
X+074500Y+045000
X+074500Y+044000
X+074500Y+043000
X+074500Y+042000
X+074500Y+041000
X+074500Y+040000
X+072878Y+042001
X+072878Y+043001
X+072878Y+044001
X+072878Y+045001
X+072866Y+048945
X+072866Y+049945
X+072866Y+050945
X+071500Y+039000
X+070500Y+039000
X+069500Y+039000
X+068500Y+039000
X+067500Y+039000
X+066500Y+039000
X+065500Y+039000
X+064500Y+039000
X+063500Y+039000
X+062500Y+039000
X+062500Y+038000
X+061500Y+038000
X+060500Y+038000
X+059500Y+038000
X+058500Y+038000
X+057500Y+038000
X+056500Y+038000
X+063500Y+038000
X+064500Y+038000
X+065500Y+038000
X+066500Y+038000
X+067500Y+038000
X+068500Y+038000
X+069500Y+038000
X+070500Y+038000
X+072866Y+032445
X+072866Y+031445
X+072866Y+030445
X+074500Y+028500
X+074500Y+027500
X+074500Y+026500
X+074500Y+025500
X+074500Y+024500
X+074500Y+023500
X+074500Y+022500
X+074500Y+021500
X+072878Y+023501
X+072878Y+024501
X+072878Y+025501
X+072878Y+026501
X+071500Y+020500
X+070500Y+020500
X+070500Y+019500
X+069500Y+019500
X+068500Y+019500
X+068500Y+020500
X+067500Y+020500
X+066500Y+020500
X+065500Y+020500
X+064500Y+020500
X+063500Y+020500
X+063500Y+019500
X+062500Y+019500
X+061500Y+019500
X+060500Y+019500
X+059500Y+019500
X+058500Y+019500
X+057500Y+019500
X+056500Y+019500
X+062500Y+020500
X+064500Y+019500
X+065500Y+019500
X+066500Y+019500
X+067500Y+019500
X+069500Y+020500
T04
X+007681Y+014374
X+008681Y+014374
X+009681Y+014374
X+009681Y+032874
X+008681Y+032874
X+007681Y+032874
X+007681Y+051374
X+008681Y+051374
X+009681Y+051374
X+051181Y+051374
X+052181Y+051374
X+053181Y+051374
X+053181Y+032874
X+052181Y+032874
X+051181Y+032874
X+051181Y+014374
X+052181Y+014374
X+053181Y+014374
T00
M30
