M48
INCH
T01C0.0191
T02C0.0433
%
T01
X+009190Y+010440
X+009190Y+009940
X+009190Y+009440
X+009190Y+008940
X+009690Y+008940
X+009690Y+009440
X+009690Y+009940
X+009690Y+010440
X+011623Y+010729
X+013172Y+010210
X+013690Y+010190
X+013690Y+010690
X+013690Y+011190
X+013690Y+011690
X+014924Y+010690
X+015940Y+010440
X+015940Y+009940
X+015940Y+010940
X+015940Y+011440
X+015940Y+011940
X+015940Y+012440
X+015940Y+012940
X+015940Y+013440
X+015940Y+013940
X+015940Y+014440
X+015940Y+014940
X+015940Y+015440
X+015940Y+015940
X+015940Y+016440
X+015940Y+016940
X+016253Y+018025
X+018113Y+018035
X+018113Y+017444
X+018130Y+016817
X+019436Y+015972
X+019235Y+013468
X+021003Y+011441
X+021505Y+010253
X+020380Y+010253
X+022440Y+011443
X+023993Y+013692
X+024718Y+013271
X+027381Y+011816
X+027381Y+010753
X+027257Y+007493
X+024815Y+007940
X+024003Y+008440
X+018960Y+007296
X+016460Y+005722
X+014690Y+006190
X+014190Y+006190
X+013690Y+006190
X+013190Y+006190
X+012690Y+006190
X+012190Y+006190
X+011190Y+006190
X+010690Y+006190
X+010190Y+006190
X+009690Y+006190
X+009190Y+006190
X+008690Y+006190
X+008190Y+006190
X+007690Y+006190
X+007190Y+006190
X+006690Y+006190
X+006190Y+006190
X+005690Y+006190
X+005190Y+006190
X+005190Y+007190
X+007690Y+007190
X+011690Y+008767
X+012919Y+008655
X+014895Y+008192
X+010690Y+012690
X+010190Y+012690
X+009690Y+012690
X+009690Y+013190
X+010190Y+013190
X+010690Y+013190
X+011623Y+013881
X+012940Y+015440
X+013440Y+015440
X+013940Y+015440
X+014440Y+015440
X+011440Y+016940
X+010940Y+016940
X+010440Y+016940
X+009940Y+016940
X+009440Y+016940
X+008940Y+016940
X+008440Y+016940
X+007940Y+016940
X+007440Y+015440
X+006940Y+015440
X+006440Y+015440
X+005940Y+015440
X+005440Y+015440
X+008674Y+013881
X+006135Y+011430
X+006190Y+022190
X+005690Y+022190
X+005190Y+022190
X+005190Y+023190
X+006690Y+022190
X+007190Y+022190
X+007690Y+022190
X+008190Y+022190
X+008690Y+022190
X+009190Y+022190
X+009690Y+022190
X+010190Y+022190
X+010690Y+022190
X+011190Y+022190
X+012190Y+022190
X+012690Y+022190
X+013190Y+022190
X+013690Y+022190
X+014190Y+022190
X+014690Y+022190
X+016460Y+021722
X+014895Y+024192
X+012919Y+024655
X+011690Y+024767
X+011623Y+026729
X+013172Y+026210
X+013690Y+026190
X+013690Y+026690
X+013690Y+027190
X+013690Y+027690
X+014924Y+026690
X+015940Y+026940
X+015940Y+027440
X+015940Y+027940
X+015940Y+028440
X+015940Y+028940
X+015940Y+029440
X+015940Y+029940
X+015940Y+030440
X+015940Y+030940
X+015940Y+031440
X+015940Y+031940
X+015940Y+032440
X+015940Y+032940
X+016253Y+034025
X+018113Y+034035
X+018113Y+033444
X+018130Y+032817
X+019436Y+031972
X+019235Y+029468
X+021003Y+027441
X+021505Y+026253
X+020380Y+026253
X+022440Y+027443
X+023993Y+029692
X+024718Y+029271
X+027381Y+027816
X+027381Y+026753
X+027257Y+023493
X+024815Y+023940
X+024003Y+024440
X+018960Y+023296
X+015940Y+025940
X+015940Y+026440
X+014440Y+031440
X+013940Y+031440
X+013440Y+031440
X+012940Y+031440
X+011623Y+029881
X+010690Y+029190
X+010190Y+029190
X+009690Y+029190
X+009690Y+028690
X+010190Y+028690
X+010690Y+028690
X+008674Y+029881
X+007440Y+031440
X+006940Y+031440
X+006440Y+031440
X+005940Y+031440
X+005440Y+031440
X+007940Y+032940
X+008440Y+032940
X+008940Y+032940
X+009440Y+032940
X+009940Y+032940
X+010440Y+032940
X+010940Y+032940
X+011440Y+032940
X+011190Y+038190
X+010690Y+038190
X+010190Y+038190
X+009690Y+038190
X+009190Y+038190
X+008690Y+038190
X+008190Y+038190
X+007690Y+038190
X+007190Y+038190
X+006690Y+038190
X+006190Y+038190
X+005690Y+038190
X+005190Y+038190
X+005190Y+039190
X+007690Y+039190
X+009190Y+040940
X+009190Y+041440
X+009190Y+041940
X+009690Y+041940
X+009690Y+041440
X+009690Y+040940
X+009690Y+042440
X+009190Y+042440
X+009690Y+044690
X+009690Y+045190
X+010190Y+045190
X+010690Y+045190
X+010690Y+044690
X+010190Y+044690
X+011623Y+045881
X+012940Y+047440
X+013440Y+047440
X+013940Y+047440
X+014440Y+047440
X+015940Y+047440
X+015940Y+047940
X+015940Y+048440
X+015940Y+048940
X+016253Y+050025
X+018113Y+050035
X+018113Y+049444
X+018130Y+048817
X+019436Y+047972
X+019235Y+045468
X+021003Y+043441
X+021505Y+042253
X+020380Y+042253
X+022440Y+043443
X+023993Y+045692
X+024718Y+045271
X+027381Y+043816
X+027381Y+042753
X+027257Y+039493
X+024815Y+039940
X+024003Y+040440
X+018960Y+039296
X+016460Y+037722
X+014690Y+038190
X+014190Y+038190
X+013690Y+038190
X+013190Y+038190
X+012690Y+038190
X+012190Y+038190
X+012919Y+040655
X+011690Y+040767
X+011623Y+042729
X+013172Y+042210
X+013690Y+042190
X+013690Y+042690
X+013690Y+043190
X+013690Y+043690
X+014924Y+042690
X+015940Y+042940
X+015940Y+042440
X+015940Y+041940
X+015940Y+043440
X+015940Y+043940
X+015940Y+044440
X+015940Y+044940
X+015940Y+045440
X+015940Y+045940
X+015940Y+046440
X+015940Y+046940
X+011440Y+048940
X+010940Y+048940
X+010440Y+048940
X+009940Y+048940
X+009440Y+048940
X+008940Y+048940
X+008440Y+048940
X+007940Y+048940
X+007440Y+047440
X+006940Y+047440
X+006440Y+047440
X+005940Y+047440
X+005440Y+047440
X+008674Y+045881
X+006135Y+043430
X+014895Y+040192
X+024718Y+032879
X+028628Y+030315
X+029297Y+030954
X+031381Y+029114
X+031381Y+028614
X+032256Y+028864
X+032256Y+028364
X+032256Y+027864
X+032819Y+027864
X+032819Y+028364
X+032819Y+028864
X+032819Y+029364
X+032819Y+029864
X+032256Y+029864
X+032256Y+029364
X+042440Y+031440
X+042940Y+031440
X+043440Y+031440
X+043940Y+031440
X+044440Y+031440
X+044940Y+032940
X+045440Y+032940
X+045940Y+032940
X+046440Y+032940
X+046940Y+032940
X+047440Y+032940
X+047940Y+032940
X+048440Y+032940
X+049940Y+031440
X+050440Y+031440
X+050940Y+031440
X+051440Y+031440
X+052940Y+031440
X+052940Y+031940
X+052940Y+032440
X+052940Y+032940
X+053253Y+034025
X+055113Y+034035
X+055113Y+033444
X+055130Y+032817
X+056436Y+031972
X+056235Y+029468
X+058003Y+027441
X+058505Y+026253
X+057380Y+026253
X+059440Y+027443
X+060993Y+029692
X+061718Y+029271
X+064381Y+027816
X+064381Y+026753
X+064257Y+023493
X+061815Y+023940
X+061003Y+024440
X+055960Y+023296
X+053460Y+021722
X+051690Y+022190
X+051190Y+022190
X+050690Y+022190
X+050190Y+022190
X+049690Y+022190
X+049190Y+022190
X+048190Y+022190
X+047690Y+022190
X+047190Y+022190
X+046690Y+022190
X+046190Y+022190
X+045690Y+022190
X+045190Y+022190
X+044690Y+022190
X+044190Y+022190
X+043690Y+022190
X+043190Y+022190
X+042690Y+022190
X+042190Y+022190
X+042190Y+023190
X+044690Y+023190
X+046190Y+024940
X+046190Y+025440
X+046190Y+025940
X+046190Y+026440
X+046690Y+026440
X+046690Y+025940
X+046690Y+025440
X+046690Y+024940
X+048690Y+024767
X+049919Y+024655
X+050172Y+026210
X+050690Y+026190
X+050690Y+026690
X+050690Y+027190
X+050690Y+027690
X+051924Y+026690
X+052940Y+026440
X+052940Y+025940
X+052940Y+026940
X+052940Y+027440
X+052940Y+027940
X+052940Y+028440
X+052940Y+028940
X+052940Y+029440
X+052940Y+029940
X+052940Y+030440
X+052940Y+030940
X+048623Y+029881
X+047690Y+029190
X+047690Y+028690
X+047190Y+028690
X+046690Y+028690
X+046690Y+029190
X+047190Y+029190
X+045674Y+029881
X+043135Y+027430
X+048623Y+026729
X+051895Y+024192
X+053253Y+018025
X+052940Y+016940
X+052940Y+016440
X+052940Y+015940
X+052940Y+015440
X+052940Y+014940
X+052940Y+014440
X+052940Y+013940
X+052940Y+013440
X+052940Y+012940
X+052940Y+012440
X+052940Y+011940
X+052940Y+011440
X+052940Y+010940
X+052940Y+010440
X+052940Y+009940
X+051924Y+010690
X+050690Y+010690
X+050690Y+011190
X+050690Y+011690
X+050690Y+010190
X+050172Y+010210
X+049919Y+008655
X+048690Y+008767
X+048623Y+010729
X+046690Y+010440
X+046690Y+009940
X+046690Y+009440
X+046690Y+008940
X+046190Y+008940
X+046190Y+009440
X+046190Y+009940
X+046190Y+010440
X+046690Y+012690
X+047190Y+012690
X+047190Y+013190
X+046690Y+013190
X+047690Y+013190
X+047690Y+012690
X+048623Y+013881
X+049940Y+015440
X+050440Y+015440
X+050940Y+015440
X+051440Y+015440
X+048440Y+016940
X+047940Y+016940
X+047440Y+016940
X+046940Y+016940
X+046440Y+016940
X+045940Y+016940
X+045440Y+016940
X+044940Y+016940
X+044440Y+015440
X+043940Y+015440
X+043440Y+015440
X+042940Y+015440
X+042440Y+015440
X+045674Y+013881
X+043135Y+011430
X+042190Y+007190
X+042190Y+006190
X+042690Y+006190
X+043190Y+006190
X+043690Y+006190
X+044190Y+006190
X+044690Y+006190
X+045190Y+006190
X+045690Y+006190
X+046190Y+006190
X+046690Y+006190
X+047190Y+006190
X+047690Y+006190
X+048190Y+006190
X+049190Y+006190
X+049690Y+006190
X+050190Y+006190
X+050690Y+006190
X+051190Y+006190
X+051690Y+006190
X+053460Y+005722
X+051895Y+008192
X+055960Y+007296
X+057380Y+010253
X+058505Y+010253
X+058003Y+011441
X+059440Y+011443
X+060993Y+013692
X+061718Y+013271
X+064381Y+011816
X+064381Y+010753
X+064257Y+007493
X+061815Y+007940
X+061003Y+008440
X+056235Y+013468
X+056436Y+015972
X+055130Y+016817
X+055113Y+017444
X+055113Y+018035
X+061718Y+016879
X+065628Y+014315
X+066297Y+014954
X+068381Y+013114
X+068381Y+012614
X+069256Y+012864
X+069256Y+012364
X+069256Y+011864
X+069819Y+011864
X+069819Y+012364
X+069819Y+012864
X+069819Y+013364
X+069819Y+013864
X+069256Y+013864
X+069256Y+013364
X+069256Y+027864
X+069256Y+028364
X+069256Y+028864
X+069256Y+029364
X+069256Y+029864
X+069819Y+029864
X+069819Y+029364
X+069819Y+028864
X+069819Y+028364
X+069819Y+027864
X+068381Y+028614
X+068381Y+029114
X+066297Y+030954
X+065628Y+030315
X+061718Y+032879
X+061815Y+039940
X+061003Y+040440
X+058505Y+042253
X+057380Y+042253
X+058003Y+043441
X+059440Y+043443
X+060993Y+045692
X+061718Y+045271
X+064381Y+043816
X+064381Y+042753
X+064257Y+039493
X+068381Y+044614
X+068381Y+045114
X+069256Y+045364
X+069256Y+045864
X+069819Y+045864
X+069819Y+045364
X+069819Y+044864
X+069819Y+044364
X+069819Y+043864
X+069256Y+043864
X+069256Y+044364
X+069256Y+044864
X+066297Y+046954
X+065628Y+046315
X+061718Y+048879
X+056436Y+047972
X+055130Y+048817
X+055113Y+049444
X+055113Y+050035
X+053253Y+050025
X+052940Y+048940
X+052940Y+048440
X+052940Y+047940
X+052940Y+047440
X+052940Y+046940
X+052940Y+046440
X+052940Y+045940
X+052940Y+045440
X+052940Y+044940
X+052940Y+044440
X+052940Y+043940
X+052940Y+043440
X+052940Y+042940
X+052940Y+042440
X+052940Y+041940
X+051924Y+042690
X+050690Y+042690
X+050690Y+043190
X+050690Y+043690
X+050690Y+042190
X+050172Y+042210
X+049919Y+040655
X+048690Y+040767
X+048623Y+042729
X+046690Y+042440
X+046690Y+041940
X+046690Y+041440
X+046690Y+040940
X+046190Y+040940
X+046190Y+041440
X+046190Y+041940
X+046190Y+042440
X+046690Y+044690
X+047190Y+044690
X+047190Y+045190
X+046690Y+045190
X+047690Y+045190
X+047690Y+044690
X+048623Y+045881
X+049940Y+047440
X+050440Y+047440
X+050940Y+047440
X+051440Y+047440
X+048440Y+048940
X+047940Y+048940
X+047440Y+048940
X+046940Y+048940
X+046440Y+048940
X+045940Y+048940
X+045440Y+048940
X+044940Y+048940
X+044440Y+047440
X+043940Y+047440
X+043440Y+047440
X+042940Y+047440
X+042440Y+047440
X+045674Y+045881
X+043135Y+043430
X+042190Y+039190
X+042190Y+038190
X+042690Y+038190
X+043190Y+038190
X+043690Y+038190
X+044190Y+038190
X+044690Y+038190
X+045190Y+038190
X+045690Y+038190
X+046190Y+038190
X+046690Y+038190
X+047190Y+038190
X+047690Y+038190
X+048190Y+038190
X+049190Y+038190
X+049690Y+038190
X+050190Y+038190
X+050690Y+038190
X+051190Y+038190
X+051690Y+038190
X+053460Y+037722
X+051895Y+040192
X+055960Y+039296
X+056235Y+045468
X+053460Y+053722
X+051690Y+054190
X+051190Y+054190
X+050690Y+054190
X+050190Y+054190
X+049690Y+054190
X+049190Y+054190
X+048190Y+054190
X+047690Y+054190
X+047190Y+054190
X+046690Y+054190
X+046190Y+054190
X+045690Y+054190
X+045190Y+054190
X+044690Y+054190
X+044190Y+054190
X+043690Y+054190
X+043190Y+054190
X+042690Y+054190
X+042190Y+054190
X+042190Y+055190
X+044690Y+055190
X+046190Y+056940
X+046190Y+057440
X+046190Y+057940
X+046190Y+058440
X+046690Y+058440
X+046690Y+057940
X+046690Y+057440
X+046690Y+056940
X+048690Y+056767
X+049919Y+056655
X+050172Y+058210
X+050690Y+058190
X+050690Y+058690
X+050690Y+059190
X+050690Y+059690
X+051924Y+058690
X+052940Y+058940
X+052940Y+059440
X+052940Y+059940
X+052940Y+060440
X+052940Y+060940
X+052940Y+061440
X+052940Y+061940
X+052940Y+062440
X+052940Y+062940
X+052940Y+063440
X+052940Y+063940
X+052940Y+064440
X+052940Y+064940
X+053253Y+066025
X+055113Y+066035
X+055113Y+065444
X+055130Y+064817
X+056436Y+063972
X+056235Y+061468
X+058003Y+059441
X+058505Y+058253
X+057380Y+058253
X+059440Y+059443
X+060993Y+061692
X+061718Y+061271
X+064381Y+059816
X+064381Y+058753
X+064257Y+055493
X+061815Y+055940
X+061003Y+056440
X+055960Y+055296
X+052940Y+057940
X+052940Y+058440
X+051895Y+056192
X+048623Y+058729
X+047690Y+060690
X+047690Y+061190
X+047190Y+061190
X+046690Y+061190
X+046690Y+060690
X+047190Y+060690
X+048623Y+061881
X+049940Y+063440
X+050440Y+063440
X+050940Y+063440
X+051440Y+063440
X+048440Y+064940
X+047940Y+064940
X+047440Y+064940
X+046940Y+064940
X+046440Y+064940
X+045940Y+064940
X+045440Y+064940
X+044940Y+064940
X+044440Y+063440
X+043940Y+063440
X+043440Y+063440
X+042940Y+063440
X+042440Y+063440
X+045674Y+061881
X+043135Y+059430
X+032819Y+059864
X+032819Y+060364
X+032819Y+060864
X+032819Y+061364
X+032819Y+061864
X+032256Y+061864
X+032256Y+061364
X+032256Y+060864
X+032256Y+060364
X+032256Y+059864
X+031381Y+060614
X+031381Y+061114
X+029297Y+062954
X+028628Y+062315
X+027381Y+059816
X+027381Y+058753
X+027257Y+055493
X+024815Y+055940
X+024003Y+056440
X+021505Y+058253
X+020380Y+058253
X+021003Y+059441
X+022440Y+059443
X+023993Y+061692
X+024718Y+061271
X+024718Y+064879
X+019436Y+063972
X+018130Y+064817
X+018113Y+065444
X+018113Y+066035
X+016253Y+066025
X+015940Y+064940
X+015940Y+064440
X+015940Y+063940
X+015940Y+063440
X+015940Y+062940
X+015940Y+062440
X+015940Y+061940
X+015940Y+061440
X+015940Y+060940
X+015940Y+060440
X+015940Y+059940
X+015940Y+059440
X+015940Y+058940
X+015940Y+058440
X+015940Y+057940
X+014924Y+058690
X+013690Y+058690
X+013690Y+059190
X+013690Y+059690
X+013690Y+058190
X+013172Y+058210
X+012919Y+056655
X+011690Y+056767
X+011623Y+058729
X+009690Y+058440
X+009690Y+057940
X+009190Y+057940
X+009190Y+058440
X+009190Y+057440
X+009190Y+056940
X+009690Y+056940
X+009690Y+057440
X+007690Y+055190
X+007690Y+054190
X+007190Y+054190
X+006690Y+054190
X+006190Y+054190
X+005690Y+054190
X+005190Y+054190
X+005190Y+055190
X+008190Y+054190
X+008690Y+054190
X+009190Y+054190
X+009690Y+054190
X+010190Y+054190
X+010690Y+054190
X+011190Y+054190
X+012190Y+054190
X+012690Y+054190
X+013190Y+054190
X+013690Y+054190
X+014190Y+054190
X+014690Y+054190
X+016460Y+053722
X+014895Y+056192
X+018960Y+055296
X+019235Y+061468
X+014440Y+063440
X+013940Y+063440
X+013440Y+063440
X+012940Y+063440
X+011623Y+061881
X+010690Y+061190
X+010190Y+061190
X+010190Y+060690
X+009690Y+060690
X+009690Y+061190
X+010690Y+060690
X+008674Y+061881
X+007440Y+063440
X+006940Y+063440
X+006440Y+063440
X+005940Y+063440
X+005440Y+063440
X+007940Y+064940
X+008440Y+064940
X+008940Y+064940
X+009440Y+064940
X+009940Y+064940
X+010440Y+064940
X+010940Y+064940
X+011440Y+064940
X+006135Y+059430
X+024718Y+048879
X+028628Y+046315
X+029297Y+046954
X+031381Y+045114
X+031381Y+044614
X+032256Y+044864
X+032256Y+045364
X+032256Y+045864
X+032819Y+045864
X+032819Y+045364
X+032819Y+044864
X+032819Y+044364
X+032819Y+043864
X+032256Y+043864
X+032256Y+044364
X+044690Y+039190
X+032819Y+013864
X+032819Y+013364
X+032819Y+012864
X+032819Y+012364
X+032819Y+011864
X+032256Y+011864
X+032256Y+012364
X+032256Y+012864
X+032256Y+013364
X+032256Y+013864
X+031381Y+013114
X+031381Y+012614
X+029297Y+014954
X+028628Y+014315
X+024718Y+016879
X+009690Y+024940
X+009690Y+025440
X+009690Y+025940
X+009190Y+025940
X+009190Y+026440
X+009690Y+026440
X+009190Y+025440
X+009190Y+024940
X+007690Y+023190
X+006135Y+027430
X+044690Y+007190
X+069256Y+059864
X+069256Y+060364
X+069256Y+060864
X+069256Y+061364
X+069256Y+061864
X+069819Y+061864
X+069819Y+061364
X+069819Y+060864
X+069819Y+060364
X+069819Y+059864
X+068381Y+060614
X+068381Y+061114
X+066297Y+062954
X+065628Y+062315
X+061718Y+064879
T02
X+036940Y+017940
X+035940Y+017940
X+035940Y+016940
X+035940Y+015940
X+036940Y+015940
X+036940Y+016940
X+037940Y+016940
X+037940Y+015940
X+037940Y+014940
X+037940Y+013940
X+037940Y+012940
X+038940Y+012940
X+038940Y+013940
X+038940Y+014940
X+038940Y+015940
X+038940Y+016940
X+036940Y+014940
X+036940Y+013940
X+036940Y+012940
X+035940Y+012940
X+034940Y+012940
X+034940Y+011940
X+035940Y+011940
X+035940Y+010940
X+034940Y+010940
X+034940Y+009940
X+035940Y+009940
X+035940Y+008940
X+034940Y+008940
X+034940Y+007940
X+035940Y+007940
X+035940Y+006940
X+034940Y+006940
X+036940Y+006940
X+036940Y+007940
X+036940Y+008940
X+037940Y+008940
X+037940Y+009940
X+037940Y+010940
X+036940Y+010940
X+036940Y+011940
X+036940Y+009940
X+038940Y+009940
X+038940Y+008940
X+038940Y+007940
X+038940Y+006940
X+037940Y+006940
X+037940Y+007940
X+038940Y+010940
X+035940Y+013940
X+034940Y+013940
X+035940Y+014940
X+033440Y+016940
X+033440Y+017940
X+028565Y+017940
X+028565Y+016940
X+026224Y+015036
X+026224Y+014036
X+026224Y+013036
X+028318Y+011941
X+028318Y+010941
X+028318Y+009941
X+028318Y+008941
X+029940Y+008940
X+029940Y+007940
X+029940Y+006940
X+029940Y+009940
X+029940Y+010940
X+029940Y+011940
X+029940Y+012940
X+029940Y+013940
X+025940Y+020940
X+025940Y+021940
X+024940Y+021940
X+023940Y+021940
X+023940Y+020940
X+022940Y+020940
X+021940Y+020940
X+020940Y+020940
X+019940Y+020940
X+019940Y+021940
X+018940Y+021940
X+018940Y+020940
X+017940Y+020940
X+016940Y+020940
X+015940Y+020940
X+014940Y+020940
X+013940Y+020940
X+012940Y+020940
X+011940Y+020940
X+010940Y+017940
X+009940Y+017940
X+008940Y+017940
X+017489Y+015040
X+017489Y+014040
X+017489Y+013040
X+018940Y+005940
X+018940Y+004940
X+017940Y+004940
X+016940Y+004940
X+015940Y+004940
X+014940Y+004940
X+013940Y+004940
X+012940Y+004940
X+011940Y+004940
X+019940Y+004940
X+019940Y+005940
X+020940Y+004940
X+021940Y+004940
X+022940Y+004940
X+023940Y+004940
X+023940Y+005940
X+024940Y+005940
X+024940Y+004940
X+025940Y+004940
X+025940Y+005940
X+026940Y+005940
X+022440Y+005940
X+021440Y+005940
X+024940Y+020940
X+026940Y+021940
X+029940Y+022940
X+029940Y+023940
X+029940Y+024940
X+029940Y+025940
X+029940Y+026940
X+029940Y+027940
X+029940Y+028940
X+029940Y+029940
X+028318Y+027941
X+028318Y+026941
X+028318Y+025941
X+028318Y+024941
X+026224Y+029036
X+026224Y+030036
X+026224Y+031036
X+028565Y+032940
X+028565Y+033940
X+025940Y+036940
X+025940Y+037940
X+024940Y+037940
X+023940Y+037940
X+023940Y+036940
X+022940Y+036940
X+021940Y+036940
X+020940Y+036940
X+019940Y+036940
X+019940Y+037940
X+018940Y+037940
X+018940Y+036940
X+017940Y+036940
X+016940Y+036940
X+015940Y+036940
X+014940Y+036940
X+013940Y+036940
X+012940Y+036940
X+011940Y+036940
X+010940Y+033940
X+009940Y+033940
X+008940Y+033940
X+017489Y+031040
X+017489Y+030040
X+017489Y+029040
X+021440Y+021940
X+022440Y+021940
X+034940Y+022940
X+035940Y+022940
X+035940Y+023940
X+034940Y+023940
X+034940Y+024940
X+035940Y+024940
X+035940Y+025940
X+034940Y+025940
X+034940Y+026940
X+035940Y+026940
X+035940Y+027940
X+034940Y+027940
X+034940Y+028940
X+035940Y+028940
X+035940Y+029940
X+034940Y+029940
X+035940Y+030940
X+035940Y+031940
X+035940Y+032940
X+035940Y+033940
X+036940Y+033940
X+036940Y+032940
X+036940Y+031940
X+036940Y+030940
X+036940Y+029940
X+036940Y+028940
X+036940Y+027940
X+036940Y+026940
X+036940Y+025940
X+036940Y+024940
X+036940Y+023940
X+036940Y+022940
X+037940Y+022940
X+038940Y+022940
X+038940Y+023940
X+037940Y+023940
X+037940Y+024940
X+038940Y+024940
X+038940Y+025940
X+037940Y+025940
X+037940Y+026940
X+038940Y+026940
X+038940Y+028940
X+037940Y+028940
X+037940Y+029940
X+038940Y+029940
X+038940Y+030940
X+037940Y+030940
X+037940Y+031940
X+038940Y+031940
X+038940Y+032940
X+037940Y+032940
X+033440Y+032940
X+033440Y+033940
X+034940Y+038940
X+035940Y+038940
X+035940Y+039940
X+034940Y+039940
X+034940Y+040940
X+035940Y+040940
X+035940Y+041940
X+034940Y+041940
X+034940Y+042940
X+035940Y+042940
X+035940Y+043940
X+034940Y+043940
X+034940Y+044940
X+035940Y+044940
X+035940Y+045940
X+034940Y+045940
X+035940Y+046940
X+035940Y+047940
X+035940Y+048940
X+035940Y+049940
X+036940Y+049940
X+036940Y+048940
X+036940Y+047940
X+036940Y+046940
X+036940Y+045940
X+036940Y+044940
X+036940Y+043940
X+036940Y+042940
X+036940Y+041940
X+036940Y+040940
X+036940Y+039940
X+036940Y+038940
X+037940Y+038940
X+038940Y+038940
X+038940Y+039940
X+037940Y+039940
X+037940Y+040940
X+037940Y+041940
X+038940Y+041940
X+038940Y+040940
X+038940Y+042940
X+037940Y+042940
X+037940Y+044940
X+038940Y+044940
X+038940Y+045940
X+037940Y+045940
X+037940Y+046940
X+038940Y+046940
X+038940Y+047940
X+037940Y+047940
X+037940Y+048940
X+038940Y+048940
X+033440Y+048940
X+033440Y+049940
X+028565Y+049940
X+028565Y+048940
X+026224Y+047036
X+026224Y+046036
X+026224Y+045036
X+028318Y+043941
X+028318Y+042941
X+028318Y+041941
X+028318Y+040941
X+029940Y+040940
X+029940Y+041940
X+029940Y+042940
X+029940Y+043940
X+029940Y+044940
X+029940Y+045940
X+029940Y+039940
X+029940Y+038940
X+026940Y+037940
X+024940Y+036940
X+022440Y+037940
X+021440Y+037940
X+017489Y+045040
X+017489Y+046040
X+017489Y+047040
X+017940Y+052940
X+016940Y+052940
X+015940Y+052940
X+014940Y+052940
X+013940Y+052940
X+012940Y+052940
X+011940Y+052940
X+010940Y+049940
X+009940Y+049940
X+008940Y+049940
X+018940Y+052940
X+018940Y+053940
X+019940Y+053940
X+019940Y+052940
X+020940Y+052940
X+021940Y+052940
X+022940Y+052940
X+023940Y+052940
X+023940Y+053940
X+024940Y+053940
X+025940Y+053940
X+026940Y+053940
X+025940Y+052940
X+024940Y+052940
X+022440Y+053940
X+021440Y+053940
X+028318Y+056941
X+028318Y+057941
X+028318Y+058941
X+028318Y+059941
X+029940Y+059940
X+029940Y+058940
X+029940Y+057940
X+029940Y+056940
X+029940Y+055940
X+029940Y+054940
X+034940Y+054940
X+035940Y+054940
X+035940Y+055940
X+034940Y+055940
X+034940Y+056940
X+035940Y+056940
X+035940Y+057940
X+034940Y+057940
X+034940Y+058940
X+035940Y+058940
X+035940Y+059940
X+034940Y+059940
X+034940Y+060940
X+035940Y+060940
X+035940Y+061940
X+035940Y+062940
X+035940Y+063940
X+035940Y+064940
X+035940Y+065940
X+036940Y+065940
X+036940Y+064940
X+036940Y+063940
X+036940Y+062940
X+036940Y+061940
X+036940Y+060940
X+036940Y+059940
X+036940Y+058940
X+036940Y+057940
X+036940Y+056940
X+036940Y+055940
X+036940Y+054940
X+037940Y+054940
X+038940Y+054940
X+038940Y+055940
X+037940Y+055940
X+037940Y+056940
X+038940Y+056940
X+038940Y+057940
X+037940Y+057940
X+037940Y+058940
X+038940Y+058940
X+038940Y+060940
X+037940Y+060940
X+037940Y+061940
X+038940Y+061940
X+038940Y+062940
X+037940Y+062940
X+037940Y+063940
X+038940Y+063940
X+038940Y+064940
X+037940Y+064940
X+034940Y+061940
X+033440Y+064940
X+033440Y+065940
X+028565Y+065940
X+028565Y+064940
X+026224Y+063036
X+026224Y+062036
X+026224Y+061036
X+029940Y+060940
X+029940Y+061940
X+017489Y+062040
X+017489Y+061040
X+017489Y+063040
X+010940Y+065940
X+009940Y+065940
X+008940Y+065940
X+045940Y+065940
X+046940Y+065940
X+047940Y+065940
X+054489Y+063040
X+054489Y+062040
X+054489Y+061040
X+055940Y+053940
X+056940Y+053940
X+056940Y+052940
X+055940Y+052940
X+054940Y+052940
X+053940Y+052940
X+052940Y+052940
X+051940Y+052940
X+050940Y+052940
X+049940Y+052940
X+048940Y+052940
X+047940Y+049940
X+046940Y+049940
X+045940Y+049940
X+054489Y+047040
X+054489Y+046040
X+054489Y+045040
X+055940Y+037940
X+056940Y+037940
X+056940Y+036940
X+055940Y+036940
X+054940Y+036940
X+053940Y+036940
X+052940Y+036940
X+051940Y+036940
X+050940Y+036940
X+049940Y+036940
X+048940Y+036940
X+047940Y+033940
X+046940Y+033940
X+045940Y+033940
X+054489Y+031040
X+054489Y+030040
X+054489Y+029040
X+055940Y+021940
X+056940Y+021940
X+056940Y+020940
X+057940Y+020940
X+058940Y+020940
X+059940Y+020940
X+060940Y+020940
X+060940Y+021940
X+061940Y+021940
X+062940Y+021940
X+062940Y+020940
X+061940Y+020940
X+063940Y+021940
X+066940Y+022940
X+066940Y+023940
X+066940Y+024940
X+066940Y+025940
X+066940Y+026940
X+066940Y+027940
X+066940Y+028940
X+066940Y+029940
X+065318Y+027941
X+065318Y+026941
X+065318Y+025941
X+065318Y+024941
X+063224Y+029036
X+063224Y+030036
X+063224Y+031036
X+065565Y+032940
X+065565Y+033940
X+062940Y+036940
X+062940Y+037940
X+061940Y+037940
X+060940Y+037940
X+060940Y+036940
X+059940Y+036940
X+058940Y+036940
X+057940Y+036940
X+058440Y+037940
X+059440Y+037940
X+061940Y+036940
X+063940Y+037940
X+066940Y+038940
X+066940Y+039940
X+066940Y+040940
X+066940Y+041940
X+066940Y+042940
X+066940Y+043940
X+066940Y+044940
X+066940Y+045940
X+065318Y+043941
X+065318Y+042941
X+065318Y+041941
X+065318Y+040941
X+063224Y+045036
X+063224Y+046036
X+063224Y+047036
X+065565Y+048940
X+065565Y+049940
X+062940Y+052940
X+062940Y+053940
X+061940Y+053940
X+060940Y+053940
X+060940Y+052940
X+059940Y+052940
X+058940Y+052940
X+057940Y+052940
X+058440Y+053940
X+059440Y+053940
X+061940Y+052940
X+063940Y+053940
X+066940Y+054940
X+066940Y+055940
X+066940Y+056940
X+066940Y+057940
X+066940Y+058940
X+066940Y+059940
X+066940Y+060940
X+066940Y+061940
X+065318Y+059941
X+065318Y+058941
X+065318Y+057941
X+065318Y+056941
X+063224Y+061036
X+063224Y+062036
X+063224Y+063036
X+065565Y+064940
X+065565Y+065940
X+070440Y+065940
X+070440Y+064940
X+072940Y+064940
X+072940Y+065940
X+073940Y+065940
X+073940Y+064940
X+073940Y+063940
X+072940Y+063940
X+072940Y+062940
X+072940Y+061940
X+073940Y+061940
X+073940Y+062940
X+074940Y+062940
X+074940Y+061940
X+074940Y+060940
X+073940Y+060940
X+072940Y+060940
X+072940Y+059940
X+073940Y+059940
X+073940Y+058940
X+072940Y+058940
X+072940Y+057940
X+073940Y+057940
X+073940Y+056940
X+072940Y+056940
X+072940Y+055940
X+073940Y+055940
X+073940Y+054940
X+072940Y+054940
X+071940Y+054940
X+071940Y+055940
X+071940Y+056940
X+071940Y+057940
X+071940Y+058940
X+071940Y+059940
X+071940Y+060940
X+071940Y+061940
X+074940Y+063940
X+075940Y+063940
X+075940Y+062940
X+075940Y+061940
X+075940Y+060940
X+075940Y+058940
X+075940Y+057940
X+075940Y+056940
X+075940Y+055940
X+075940Y+054940
X+074940Y+054940
X+074940Y+055940
X+074940Y+056940
X+074940Y+057940
X+074940Y+058940
X+074940Y+064940
X+075940Y+064940
X+073940Y+049940
X+073940Y+048940
X+074940Y+048940
X+074940Y+047940
X+075940Y+047940
X+075940Y+048940
X+075940Y+046940
X+075940Y+045940
X+074940Y+045940
X+074940Y+044940
X+075940Y+044940
X+075940Y+042940
X+075940Y+041940
X+075940Y+040940
X+074940Y+040940
X+074940Y+041940
X+074940Y+042940
X+073940Y+042940
X+073940Y+043940
X+072940Y+043940
X+072940Y+042940
X+071940Y+042940
X+071940Y+043940
X+071940Y+044940
X+071940Y+045940
X+072940Y+045940
X+072940Y+046940
X+073940Y+046940
X+073940Y+045940
X+073940Y+044940
X+072940Y+044940
X+074940Y+046940
X+073940Y+047940
X+072940Y+047940
X+072940Y+048940
X+072940Y+049940
X+070440Y+049940
X+070440Y+048940
X+071940Y+041940
X+071940Y+040940
X+072940Y+040940
X+072940Y+039940
X+072940Y+038940
X+073940Y+038940
X+074940Y+038940
X+074940Y+039940
X+075940Y+039940
X+075940Y+038940
X+073940Y+039940
X+073940Y+040940
X+073940Y+041940
X+072940Y+041940
X+071940Y+039940
X+071940Y+038940
X+072940Y+033940
X+072940Y+032940
X+072940Y+031940
X+073940Y+031940
X+073940Y+032940
X+074940Y+032940
X+075940Y+032940
X+075940Y+031940
X+075940Y+030940
X+074940Y+030940
X+073940Y+030940
X+073940Y+029940
X+072940Y+029940
X+072940Y+030940
X+071940Y+029940
X+071940Y+028940
X+072940Y+028940
X+073940Y+028940
X+074940Y+028940
X+075940Y+028940
X+075940Y+029940
X+074940Y+029940
X+074940Y+031940
X+073940Y+033940
X+070440Y+033940
X+070440Y+032940
X+071940Y+027940
X+072940Y+027940
X+072940Y+026940
X+072940Y+025940
X+073940Y+025940
X+073940Y+024940
X+073940Y+023940
X+074940Y+023940
X+074940Y+024940
X+075940Y+024940
X+075940Y+025940
X+074940Y+025940
X+074940Y+026940
X+073940Y+026940
X+073940Y+027940
X+071940Y+026940
X+071940Y+025940
X+071940Y+024940
X+072940Y+024940
X+072940Y+023940
X+072940Y+022940
X+073940Y+022940
X+074940Y+022940
X+075940Y+022940
X+075940Y+023940
X+075940Y+026940
X+071940Y+023940
X+071940Y+022940
X+072940Y+017940
X+073940Y+017940
X+073940Y+016940
X+073940Y+015940
X+073940Y+014940
X+073940Y+013940
X+074940Y+013940
X+074940Y+014940
X+074940Y+015940
X+074940Y+016940
X+075940Y+016940
X+075940Y+015940
X+075940Y+014940
X+075940Y+013940
X+075940Y+012940
X+074940Y+012940
X+073940Y+012940
X+073940Y+011940
X+073940Y+010940
X+073940Y+009940
X+072940Y+009940
X+072940Y+010940
X+072940Y+011940
X+071940Y+011940
X+071940Y+010940
X+071940Y+009940
X+071940Y+008940
X+071940Y+007940
X+071940Y+006940
X+072940Y+006940
X+072940Y+007940
X+072940Y+008940
X+073940Y+008940
X+073940Y+007940
X+073940Y+006940
X+074940Y+006940
X+075940Y+006940
X+075940Y+007940
X+075940Y+008940
X+075940Y+009940
X+074940Y+009940
X+074940Y+008940
X+074940Y+007940
X+074940Y+010940
X+075940Y+010940
X+072940Y+012940
X+072940Y+013940
X+072940Y+014940
X+072940Y+015940
X+072940Y+016940
X+070440Y+016940
X+070440Y+017940
X+071940Y+013940
X+071940Y+012940
X+066940Y+012940
X+066940Y+011940
X+066940Y+010940
X+066940Y+009940
X+066940Y+008940
X+066940Y+007940
X+066940Y+006940
X+065318Y+008941
X+065318Y+009941
X+065318Y+010941
X+065318Y+011941
X+063224Y+013036
X+063224Y+014036
X+063224Y+015036
X+065565Y+016940
X+065565Y+017940
X+066940Y+013940
X+063940Y+005940
X+062940Y+005940
X+062940Y+004940
X+061940Y+004940
X+061940Y+005940
X+060940Y+005940
X+060940Y+004940
X+059940Y+004940
X+058940Y+004940
X+057940Y+004940
X+056940Y+004940
X+056940Y+005940
X+055940Y+005940
X+055940Y+004940
X+054940Y+004940
X+053940Y+004940
X+052940Y+004940
X+051940Y+004940
X+050940Y+004940
X+049940Y+004940
X+048940Y+004940
X+058440Y+005940
X+059440Y+005940
X+054489Y+013040
X+054489Y+014040
X+054489Y+015040
X+054940Y+020940
X+053940Y+020940
X+052940Y+020940
X+051940Y+020940
X+050940Y+020940
X+049940Y+020940
X+048940Y+020940
X+047940Y+017940
X+046940Y+017940
X+045940Y+017940
X+055940Y+020940
X+058440Y+021940
X+059440Y+021940
T00
M30
