G04 DipTrace 2.4.0.2*
%INTopMask.gbr*%
%MOIN*%
%ADD43R,0.0316X0.0867*%
%ADD45R,0.0926X0.136*%
%ADD47R,0.0926X0.0454*%
%ADD49R,0.0946X0.0671*%
%ADD51R,0.0237X0.0631*%
%ADD53R,0.0493X0.0336*%
%ADD55R,0.1458X0.1241*%
%ADD57R,0.1241X0.1458*%
%ADD59C,0.0749*%
%ADD61R,0.0749X0.0749*%
%ADD63R,0.1025X0.1025*%
%ADD65R,0.1143X0.071*%
%ADD67R,0.0592X0.0671*%
%ADD69R,0.0513X0.0474*%
%ADD71R,0.071X0.1143*%
%ADD73R,0.0474X0.0513*%
%ADD75R,0.0671X0.0592*%
%FSLAX44Y44*%
G04*
G70*
G90*
G75*
G01*
%LNTopMask*%
%LPD*%
D75*
X5441Y10066D3*
Y9318D3*
D73*
X6878Y10378D3*
Y9709D3*
D71*
X7441Y14879D3*
X8543D3*
X7441Y16066D3*
X8543D3*
D69*
X8566Y6878D3*
X7897D3*
D73*
X6191Y8110D3*
Y8779D3*
X6878Y8128D3*
Y8797D3*
D75*
X12691Y8503D3*
Y7755D3*
D73*
X11879Y13003D3*
Y13673D3*
D75*
X15504Y11441D3*
Y12189D3*
D71*
X11379Y14879D3*
X12481D3*
X11379Y16066D3*
X12481D3*
D73*
X11066Y10316D3*
Y10985D3*
D69*
Y7878D3*
X11736D3*
X11754Y9191D3*
X11085D3*
D67*
X33752Y15377D3*
X33003D3*
D75*
X31377Y14690D3*
Y15438D3*
D73*
X32127Y11672D3*
Y11002D3*
X19567Y12129D3*
Y12798D3*
D75*
X24443Y9065D3*
Y9814D3*
X23380Y9253D3*
Y10001D3*
D73*
X23817Y12129D3*
Y12798D3*
X19380Y16816D3*
Y17486D3*
X23943Y16897D3*
Y17566D3*
D75*
X19317Y14566D3*
Y15314D3*
X24067Y14566D3*
Y15314D3*
X28940Y13190D3*
Y13938D3*
D65*
X28753Y6878D3*
Y7980D3*
X31190Y6940D3*
Y8042D3*
D63*
X5941Y16504D3*
Y14772D3*
X14129Y10941D3*
Y12673D3*
D61*
X36940Y17940D3*
D59*
X35940D3*
X36940Y16940D3*
X35940D3*
X36940Y15940D3*
X35940D3*
X36940Y14940D3*
X35940D3*
X36940Y13940D3*
X35940D3*
X36940Y12940D3*
X35940D3*
X36940Y11940D3*
X35940D3*
X36940Y10940D3*
X35940D3*
X36940Y9940D3*
X35940D3*
X36940Y8940D3*
X35940D3*
X36940Y7940D3*
X35940D3*
X36940Y6940D3*
X35940D3*
D61*
X33690Y7940D3*
D59*
X32690D3*
X33690Y8940D3*
X32690D3*
X33690Y9940D3*
X32690D3*
D61*
X38940Y6940D3*
D59*
X37940D3*
X38940Y7940D3*
X37940D3*
X38940Y8940D3*
X37940D3*
X38940Y9940D3*
X37940D3*
X38940Y10940D3*
X37940D3*
D61*
X38940Y12940D3*
D59*
X37940D3*
X38940Y13940D3*
X37940D3*
X38940Y14940D3*
X37940D3*
X38940Y15940D3*
X37940D3*
X38940Y16940D3*
X37940D3*
D61*
X8940Y17940D3*
D59*
X9940D3*
X10940D3*
D61*
X17504Y12878D3*
D59*
Y13878D3*
Y14878D3*
D61*
X26192Y12879D3*
D59*
Y13879D3*
Y14879D3*
D61*
X34940Y16940D3*
D59*
Y17940D3*
D61*
X28940Y16940D3*
D59*
Y17940D3*
D61*
X28318Y8941D3*
D59*
Y9941D3*
Y10941D3*
Y11941D3*
D57*
X6003Y12628D3*
X8149D3*
D55*
X14504Y7253D3*
Y9399D3*
Y14191D3*
Y16336D3*
D53*
X31440Y17940D3*
Y17192D3*
X32346Y17566D3*
X20255Y5940D3*
Y6688D3*
X19349Y6314D3*
D69*
X8566Y7503D3*
X7897D3*
X6191Y6860D3*
X6860D3*
X6878Y7485D3*
X6209D3*
D73*
X6191Y9690D3*
Y10360D3*
X12504Y13691D3*
Y13022D3*
X11066Y11628D3*
Y12298D3*
D69*
Y8503D3*
X11736D3*
D73*
X31377Y11628D3*
Y12297D3*
X33002Y11021D3*
Y11690D3*
X30440Y17940D3*
Y17271D3*
D69*
X32378Y16690D3*
X33047D3*
D73*
X34940Y15127D3*
Y15797D3*
X22755Y8503D3*
Y7834D3*
X23443Y8503D3*
Y7834D3*
X26693Y10066D3*
Y10735D3*
Y8690D3*
Y9360D3*
X21005Y12129D3*
Y12798D3*
X20255Y12129D3*
Y12798D3*
X18817Y12816D3*
Y12147D3*
X22442Y12129D3*
Y12798D3*
X23067Y12129D3*
Y12798D3*
X24505Y12816D3*
Y12147D3*
X20130Y17504D3*
Y16835D3*
X18692Y16816D3*
Y17486D3*
X23255Y17548D3*
Y16879D3*
X24630D3*
Y17548D3*
D69*
X18692Y5878D3*
X18023D3*
X32940Y6940D3*
X33609D3*
D51*
X7566Y8440D3*
X7822D3*
X8078D3*
X8334D3*
Y10173D3*
X8078D3*
X7822D3*
X7566D3*
D49*
X7950Y9307D3*
D51*
X11816Y10316D3*
X12072D3*
X12328D3*
X12584D3*
Y12048D3*
X12328D3*
X12072D3*
X11816D3*
D49*
X12200Y11182D3*
D47*
X33690Y12565D3*
Y13471D3*
Y14376D3*
D45*
X31407Y13471D3*
D51*
X25193Y8628D3*
X25449D3*
X25705D3*
X25960D3*
Y10360D3*
X25705D3*
X25449D3*
X25193D3*
D53*
X22505Y9253D3*
Y10001D3*
X21599Y9627D3*
D43*
X20192Y13879D3*
X20692D3*
X21192D3*
X21692D3*
X22192D3*
X22692D3*
X23192D3*
Y16005D3*
X22692D3*
X22192D3*
X21692D3*
X21192D3*
X20692D3*
X20192D3*
D61*
X9940Y4940D3*
D59*
X10940D3*
X11940D3*
X12940D3*
X13940D3*
X14940D3*
X15940D3*
X16940D3*
X17940D3*
X18940D3*
X19940D3*
X20940D3*
X21940D3*
X22940D3*
X23940D3*
X24940D3*
X25940D3*
D61*
X34940Y6940D3*
D59*
Y7940D3*
Y8940D3*
Y9940D3*
Y10940D3*
Y11940D3*
Y12940D3*
Y13940D3*
X29940Y6940D3*
Y7940D3*
Y8940D3*
Y9940D3*
Y10940D3*
Y11940D3*
Y12940D3*
Y13940D3*
M02*
