M48
INCH
T01C0.0191
T02C0.0433
%
T01
X+012690Y+009787
X+012690Y+009287
X+012690Y+008787
X+012690Y+008287
X+013190Y+008287
X+013190Y+008787
X+013190Y+009287
X+013190Y+009787
X+015143Y+010261
X+016672Y+009556
X+017190Y+009537
X+017190Y+010037
X+017190Y+010537
X+017190Y+011037
X+016419Y+008001
X+015190Y+008113
X+014692Y+005649
X+014192Y+005649
X+013692Y+005649
X+013192Y+005649
X+012692Y+005649
X+012192Y+005649
X+011692Y+005649
X+011192Y+005649
X+010692Y+005649
X+010192Y+005649
X+009692Y+005649
X+009192Y+005649
X+008692Y+005649
X+008172Y+006487
X+011409Y+006672
X+008893Y+010201
X+008172Y+011239
X+008172Y+013350
X+007346Y+015058
X+006846Y+015058
X+006346Y+015058
X+005846Y+015058
X+005346Y+015058
X+010346Y+017224
X+010846Y+017224
X+011346Y+017224
X+011846Y+017224
X+012346Y+017224
X+012846Y+017224
X+013346Y+017224
X+013846Y+017224
X+015365Y+018310
X+015143Y+014050
X+013235Y+012393
X+012735Y+012393
X+012735Y+011893
X+013235Y+011893
X+012235Y+011893
X+012235Y+012393
X+018523Y+015436
X+019023Y+015436
X+019523Y+015436
X+020322Y+014302
X+020940Y+014440
X+020940Y+013940
X+020940Y+013440
X+020940Y+012940
X+020940Y+012440
X+020940Y+011940
X+020940Y+011440
X+020940Y+010940
X+020940Y+010440
X+020940Y+009940
X+020322Y+009094
X+020322Y+007700
X+021460Y+005515
X+023960Y+007296
X+025380Y+010253
X+026505Y+010253
X+026003Y+011441
X+027440Y+011443
X+028993Y+013692
X+029718Y+013271
X+032381Y+011816
X+032381Y+010753
X+032257Y+007493
X+029815Y+007940
X+029003Y+008440
X+024235Y+013468
X+024436Y+015972
X+023130Y+016817
X+023113Y+017444
X+023113Y+018035
X+020940Y+016940
X+020940Y+016440
X+020940Y+015940
X+020940Y+015440
X+020940Y+014940
X+020298Y+017936
X+029718Y+016879
X+033628Y+014315
X+034297Y+014954
X+036381Y+013114
X+036381Y+012614
X+037256Y+012864
X+037256Y+013364
X+037256Y+013864
X+037819Y+013864
X+037819Y+013364
X+037819Y+012864
X+037819Y+012364
X+037819Y+011864
X+037256Y+011864
X+037256Y+012364
X+017192Y+005649
X+016692Y+005649
X+016192Y+005649
X+015692Y+005649
T02
X+041940Y+017940
X+040940Y+017940
X+040940Y+016940
X+040940Y+015940
X+041940Y+015940
X+041940Y+016940
X+042940Y+016940
X+042940Y+015940
X+042940Y+014940
X+042940Y+013940
X+042940Y+012940
X+043940Y+012940
X+043940Y+013940
X+043940Y+014940
X+043940Y+015940
X+043940Y+016940
X+041940Y+014940
X+041940Y+013940
X+041940Y+012940
X+040940Y+012940
X+039940Y+012940
X+039940Y+011940
X+040940Y+011940
X+040940Y+010940
X+039940Y+010940
X+039940Y+009940
X+040940Y+009940
X+040940Y+008940
X+039940Y+008940
X+039940Y+007940
X+040940Y+007940
X+040940Y+006940
X+039940Y+006940
X+041940Y+006940
X+041940Y+007940
X+041940Y+008940
X+042940Y+008940
X+042940Y+007940
X+043940Y+007940
X+043940Y+008940
X+043940Y+009940
X+042940Y+009940
X+042940Y+010940
X+043940Y+010940
X+041940Y+010940
X+041940Y+011940
X+041940Y+009940
X+042940Y+006940
X+043940Y+006940
X+040940Y+013940
X+039940Y+013940
X+040940Y+014940
X+038440Y+016940
X+038440Y+017940
X+033440Y+017940
X+033440Y+016940
X+033440Y+015940
X+031224Y+015036
X+031224Y+014036
X+031224Y+013036
X+033318Y+011941
X+033318Y+010941
X+033318Y+009941
X+033318Y+008941
X+034940Y+008940
X+034940Y+007940
X+034940Y+006940
X+034940Y+009940
X+034940Y+010940
X+034940Y+011940
X+034940Y+012940
X+034940Y+013940
X+031940Y+005940
X+030940Y+005940
X+030940Y+004940
X+029940Y+004940
X+029940Y+005940
X+028940Y+005940
X+028940Y+004940
X+027940Y+004940
X+027940Y+005940
X+026940Y+005940
X+026940Y+004940
X+025940Y+004940
X+025940Y+005940
X+024940Y+005940
X+024940Y+004940
X+023940Y+004940
X+023940Y+005940
X+022940Y+005940
X+022940Y+004940
X+021940Y+004940
X+020940Y+004940
X+019940Y+004940
X+018940Y+004940
X+017940Y+004940
X+016940Y+004940
X+022489Y+013040
X+022489Y+014040
X+022489Y+015040
X+013621Y+018314
X+012621Y+018314
X+011621Y+018314
T00
M30
