G04 DipTrace 2.4.0.2*
%INTopMask.gbr*%
%MOIN*%
%ADD46R,0.0317X0.0868*%
%ADD48R,0.0238X0.0631*%
%ADD50R,0.0927X0.136*%
%ADD52R,0.0927X0.0454*%
%ADD54R,0.1065X0.1734*%
%ADD56R,0.0789X0.0238*%
%ADD58R,0.0927X0.1852*%
%ADD60R,0.0494X0.0336*%
%ADD62C,0.075*%
%ADD64R,0.075X0.075*%
%ADD66R,0.0395X0.0395*%
%ADD68R,0.0317X0.0317*%
%ADD70R,0.1025X0.1025*%
%ADD72R,0.0474X0.0513*%
%ADD74R,0.0671X0.0592*%
%ADD76R,0.0592X0.0671*%
%ADD78R,0.1143X0.071*%
%ADD80R,0.0513X0.0474*%
%FSLAX44Y44*%
G04*
G70*
G90*
G75*
G01*
%LNTopMask*%
%LPD*%
D80*
X13303Y6579D3*
X13972D3*
D78*
X21690Y8491D3*
Y9594D3*
X22861Y8491D3*
Y9594D3*
X24019Y8497D3*
Y9600D3*
X25170Y8497D3*
Y9600D3*
D80*
X15132Y6621D3*
X15802D3*
D76*
X10348Y7250D3*
X9600D3*
D80*
X15114Y7263D3*
X15783D3*
D76*
X15147Y9566D3*
X15895D3*
D74*
X29330Y9235D3*
Y9983D3*
X28432Y9251D3*
Y9999D3*
D78*
X18725Y16240D3*
Y17342D3*
X19943Y16222D3*
Y17324D3*
D76*
X9704Y10999D3*
X10452D3*
X15058Y11007D3*
X15806D3*
D72*
X24538Y12129D3*
Y12798D3*
X24380Y16817D3*
Y17486D3*
D78*
X6794Y16873D3*
Y15771D3*
X5575Y16877D3*
Y15775D3*
D72*
X28809Y12129D3*
Y12798D3*
X28943Y16897D3*
Y17567D3*
D76*
X38507Y14767D3*
X37759D3*
D78*
X36378Y13942D3*
Y15044D3*
D72*
X37128Y11042D3*
Y10373D3*
D74*
X24447Y14566D3*
Y15314D3*
X28993Y14566D3*
Y15314D3*
D78*
X33753Y6878D3*
Y7980D3*
X36128Y6878D3*
Y7980D3*
D74*
X33940Y13190D3*
Y13938D3*
D70*
X6527Y13972D3*
Y12239D3*
X18953Y14507D3*
Y12775D3*
D68*
X10355Y9090D3*
X9488D3*
D66*
X40180Y17690D3*
Y17100D3*
D64*
X41940Y17940D3*
D62*
X40940D3*
X41940Y16940D3*
X40940D3*
X41940Y15940D3*
X40940D3*
X41940Y14940D3*
X40940D3*
X41940Y13940D3*
X40940D3*
X41940Y12940D3*
X40940D3*
X41940Y11940D3*
X40940D3*
X41940Y10940D3*
X40940D3*
X41940Y9940D3*
X40940D3*
X41940Y8940D3*
X40940D3*
X41940Y7940D3*
X40940D3*
X41940Y6940D3*
X40940D3*
D64*
X22940Y5940D3*
D62*
X23940D3*
X24940D3*
X25940D3*
X26940D3*
X27940D3*
X28940D3*
X29940D3*
X30940D3*
X31940D3*
D64*
X43940Y6940D3*
D62*
X42940D3*
X43940Y7940D3*
X42940D3*
X43940Y8940D3*
X42940D3*
X43940Y9940D3*
X42940D3*
X43940Y10940D3*
X42940D3*
D64*
X43940Y12940D3*
D62*
X42940D3*
X43940Y13940D3*
X42940D3*
X43940Y14940D3*
X42940D3*
X43940Y15940D3*
X42940D3*
X43940Y16940D3*
X42940D3*
D64*
X11621Y18314D3*
D62*
X12621D3*
X13621D3*
D64*
X22489Y13040D3*
D62*
Y14040D3*
Y15040D3*
D64*
X31224Y13036D3*
D62*
Y14036D3*
Y15036D3*
D64*
X38440Y16940D3*
D62*
Y17940D3*
D64*
X33440Y15940D3*
D62*
Y16940D3*
Y17940D3*
D64*
X33318Y8941D3*
D62*
Y9941D3*
Y10941D3*
Y11941D3*
D64*
X39940Y6940D3*
D62*
Y7940D3*
Y8940D3*
Y9940D3*
Y10940D3*
Y11940D3*
Y12940D3*
Y13940D3*
D64*
X34940Y6940D3*
D62*
Y7940D3*
Y8940D3*
Y9940D3*
Y10940D3*
Y11940D3*
Y12940D3*
Y13940D3*
D64*
X16940Y4940D3*
D62*
X17940D3*
X18940D3*
X19940D3*
X20940D3*
X21940D3*
X22940D3*
X23940D3*
X24940D3*
X25940D3*
X26940D3*
X27940D3*
X28940D3*
X29940D3*
X30940D3*
D60*
X35141Y18035D3*
Y17287D3*
X36046Y17661D3*
D80*
X12749Y7143D3*
X12080D3*
X12745Y6580D3*
X12076D3*
X13973Y7149D3*
X13303D3*
D72*
X17896Y7297D3*
Y6627D3*
D80*
X17152Y7246D3*
X16482D3*
X17150Y6630D3*
X16480D3*
X9639Y7849D3*
X10308D3*
X15190Y8537D3*
X15859D3*
X9651Y8434D3*
X10320D3*
X17697Y8490D3*
X17028D3*
X9645Y9614D3*
X10314D3*
X9659Y10201D3*
X10328D3*
X27690Y8503D3*
X28359D3*
X27065D3*
X26396D3*
D72*
X31693Y10066D3*
Y10735D3*
Y8691D3*
Y9360D3*
X25101Y12129D3*
Y12798D3*
X26200Y12129D3*
Y12798D3*
X23976Y12804D3*
Y12135D3*
X25130Y17504D3*
Y16835D3*
X25636Y12129D3*
Y12798D3*
X23692Y16817D3*
Y17486D3*
X28278Y12129D3*
Y12798D3*
X27192Y12129D3*
Y12798D3*
X29348Y12808D3*
Y12139D3*
X28255Y17548D3*
Y16879D3*
X27736Y12129D3*
Y12798D3*
X29630Y16879D3*
Y17548D3*
X34999Y15064D3*
Y15733D3*
D80*
X34462Y16312D3*
X35131D3*
X39531Y14846D3*
X40200D3*
D72*
X38003Y10391D3*
Y11060D3*
X36378Y10998D3*
Y11667D3*
X34481Y18035D3*
Y17365D3*
D80*
X22562Y17444D3*
X21893D3*
Y18035D3*
X22562D3*
X37940Y6940D3*
X38609D3*
X38503Y8003D3*
X37833D3*
D72*
X21342Y6273D3*
Y6942D3*
D80*
X38507Y8714D3*
X37838D3*
X38507Y9472D3*
X37838D3*
D72*
X36165Y16273D3*
Y16942D3*
X40190Y15781D3*
Y16450D3*
D58*
X9385Y12381D3*
X10735D3*
Y15728D3*
X9385D3*
X14692Y12381D3*
X16043D3*
Y15728D3*
X14692D3*
D56*
X14046Y7972D3*
Y8227D3*
Y8483D3*
Y8739D3*
Y8995D3*
Y9251D3*
Y9507D3*
Y9763D3*
Y10019D3*
Y10275D3*
X11762D3*
Y10019D3*
Y9763D3*
Y9507D3*
Y9251D3*
Y8995D3*
Y8739D3*
Y8483D3*
Y8227D3*
Y7972D3*
D54*
X12904Y9123D3*
D52*
X38690Y11935D3*
Y12841D3*
Y13746D3*
D50*
X36407Y12841D3*
D48*
X30193Y8628D3*
X30449D3*
X30705D3*
X30961D3*
Y10360D3*
X30705D3*
X30449D3*
X30193D3*
D60*
X27505Y9253D3*
Y10001D3*
X26600Y9627D3*
D46*
X25192Y13879D3*
X25692D3*
X26192D3*
X26692D3*
X27192D3*
X27692D3*
X28192D3*
Y16005D3*
X27692D3*
X27192D3*
X26692D3*
X26192D3*
X25692D3*
X25192D3*
M02*
