G04 DipTrace 2.4.0.2*
%INBottomSilk.gbr*%
%MOIN*%
%ADD10C,0.0098*%
%ADD80C,0.0046*%
%FSLAX44Y44*%
G04*
G70*
G90*
G75*
G01*
%LNBotSilk*%
%LPD*%
X36500Y14500D2*
D10*
X38500D1*
Y2500D1*
X36500D1*
Y14500D1*
X12501Y500D2*
X27499D1*
Y1500D1*
X12501D1*
Y500D1*
X37511Y14939D2*
D80*
Y14710D1*
X37525Y14667D1*
X37539Y14652D1*
X37568Y14638D1*
X37597D1*
X37625Y14652D1*
X37640Y14667D1*
X37654Y14710D1*
Y14738D1*
X37418Y14882D2*
X37389Y14896D1*
X37346Y14939D1*
Y14638D1*
X12095Y1182D2*
Y952D1*
X12109Y909D1*
X12124Y895D1*
X12152Y881D1*
X12181D1*
X12210Y895D1*
X12224Y909D1*
X12238Y952D1*
Y981D1*
X12002Y1124D2*
X11973Y1139D1*
X11930Y1182D1*
Y881D1*
X11665Y1182D2*
X11809D1*
X11823Y1053D1*
X11809Y1067D1*
X11766Y1081D1*
X11723D1*
X11680Y1067D1*
X11651Y1038D1*
X11637Y995D1*
Y967D1*
X11651Y924D1*
X11680Y895D1*
X11723Y881D1*
X11766D1*
X11809Y895D1*
X11823Y909D1*
X11838Y938D1*
X80000Y14500D2*
D10*
X82000D1*
Y2500D1*
X80000D1*
Y14500D1*
X56001Y500D2*
X70999D1*
Y1500D1*
X56001D1*
Y500D1*
X81011Y14939D2*
D80*
Y14710D1*
X81025Y14667D1*
X81039Y14652D1*
X81068Y14638D1*
X81097D1*
X81125Y14652D1*
X81140Y14667D1*
X81154Y14710D1*
Y14738D1*
X80918Y14882D2*
X80889Y14896D1*
X80846Y14939D1*
Y14638D1*
X55595Y1182D2*
Y952D1*
X55609Y909D1*
X55624Y895D1*
X55652Y881D1*
X55681D1*
X55710Y895D1*
X55724Y909D1*
X55738Y952D1*
Y981D1*
X55502Y1124D2*
X55473Y1139D1*
X55430Y1182D1*
Y881D1*
X55165Y1182D2*
X55309D1*
X55323Y1053D1*
X55309Y1067D1*
X55266Y1081D1*
X55223D1*
X55180Y1067D1*
X55151Y1038D1*
X55137Y995D1*
Y967D1*
X55151Y924D1*
X55180Y895D1*
X55223Y881D1*
X55266D1*
X55309Y895D1*
X55323Y909D1*
X55338Y938D1*
X36500Y32000D2*
D10*
X38500D1*
Y20000D1*
X36500D1*
Y32000D1*
X12501Y18000D2*
X27499D1*
Y19000D1*
X12501D1*
Y18000D1*
X37511Y32439D2*
D80*
Y32210D1*
X37525Y32167D1*
X37539Y32152D1*
X37568Y32138D1*
X37597D1*
X37625Y32152D1*
X37640Y32167D1*
X37654Y32210D1*
Y32238D1*
X37418Y32382D2*
X37389Y32396D1*
X37346Y32439D1*
Y32138D1*
X12095Y18682D2*
Y18452D1*
X12109Y18409D1*
X12124Y18395D1*
X12152Y18381D1*
X12181D1*
X12210Y18395D1*
X12224Y18409D1*
X12238Y18452D1*
Y18481D1*
X12002Y18624D2*
X11973Y18639D1*
X11930Y18682D1*
Y18381D1*
X11665Y18682D2*
X11809D1*
X11823Y18553D1*
X11809Y18567D1*
X11766Y18581D1*
X11723D1*
X11680Y18567D1*
X11651Y18538D1*
X11637Y18495D1*
Y18467D1*
X11651Y18424D1*
X11680Y18395D1*
X11723Y18381D1*
X11766D1*
X11809Y18395D1*
X11823Y18409D1*
X11838Y18438D1*
X80000Y32000D2*
D10*
X82000D1*
Y20000D1*
X80000D1*
Y32000D1*
X56001Y18000D2*
X70999D1*
Y19000D1*
X56001D1*
Y18000D1*
X81011Y32439D2*
D80*
Y32210D1*
X81025Y32167D1*
X81039Y32152D1*
X81068Y32138D1*
X81097D1*
X81125Y32152D1*
X81140Y32167D1*
X81154Y32210D1*
Y32238D1*
X80918Y32382D2*
X80889Y32396D1*
X80846Y32439D1*
Y32138D1*
X55595Y18682D2*
Y18452D1*
X55609Y18409D1*
X55624Y18395D1*
X55652Y18381D1*
X55681D1*
X55710Y18395D1*
X55724Y18409D1*
X55738Y18452D1*
Y18481D1*
X55502Y18624D2*
X55473Y18639D1*
X55430Y18682D1*
Y18381D1*
X55165Y18682D2*
X55309D1*
X55323Y18553D1*
X55309Y18567D1*
X55266Y18581D1*
X55223D1*
X55180Y18567D1*
X55151Y18538D1*
X55137Y18495D1*
Y18467D1*
X55151Y18424D1*
X55180Y18395D1*
X55223Y18381D1*
X55266D1*
X55309Y18395D1*
X55323Y18409D1*
X55338Y18438D1*
X36500Y49500D2*
D10*
X38500D1*
Y37500D1*
X36500D1*
Y49500D1*
X12501Y35500D2*
X27499D1*
Y36500D1*
X12501D1*
Y35500D1*
X37511Y49939D2*
D80*
Y49710D1*
X37525Y49667D1*
X37539Y49652D1*
X37568Y49638D1*
X37597D1*
X37625Y49652D1*
X37640Y49667D1*
X37654Y49710D1*
Y49738D1*
X37418Y49882D2*
X37389Y49896D1*
X37346Y49939D1*
Y49638D1*
X12095Y36182D2*
Y35952D1*
X12109Y35909D1*
X12124Y35895D1*
X12152Y35881D1*
X12181D1*
X12210Y35895D1*
X12224Y35909D1*
X12238Y35952D1*
Y35981D1*
X12002Y36124D2*
X11973Y36139D1*
X11930Y36182D1*
Y35881D1*
X11665Y36182D2*
X11809D1*
X11823Y36053D1*
X11809Y36067D1*
X11766Y36081D1*
X11723D1*
X11680Y36067D1*
X11651Y36038D1*
X11637Y35995D1*
Y35967D1*
X11651Y35924D1*
X11680Y35895D1*
X11723Y35881D1*
X11766D1*
X11809Y35895D1*
X11823Y35909D1*
X11838Y35938D1*
X80000Y49500D2*
D10*
X82000D1*
Y37500D1*
X80000D1*
Y49500D1*
X56001Y35500D2*
X70999D1*
Y36500D1*
X56001D1*
Y35500D1*
X81011Y49939D2*
D80*
Y49710D1*
X81025Y49667D1*
X81039Y49652D1*
X81068Y49638D1*
X81097D1*
X81125Y49652D1*
X81140Y49667D1*
X81154Y49710D1*
Y49738D1*
X80918Y49882D2*
X80889Y49896D1*
X80846Y49939D1*
Y49638D1*
X55595Y36182D2*
Y35952D1*
X55609Y35909D1*
X55624Y35895D1*
X55652Y35881D1*
X55681D1*
X55710Y35895D1*
X55724Y35909D1*
X55738Y35952D1*
Y35981D1*
X55502Y36124D2*
X55473Y36139D1*
X55430Y36182D1*
Y35881D1*
X55165Y36182D2*
X55309D1*
X55323Y36053D1*
X55309Y36067D1*
X55266Y36081D1*
X55223D1*
X55180Y36067D1*
X55151Y36038D1*
X55137Y35995D1*
Y35967D1*
X55151Y35924D1*
X55180Y35895D1*
X55223Y35881D1*
X55266D1*
X55309Y35895D1*
X55323Y35909D1*
X55338Y35938D1*
M02*
