G04 DipTrace 2.4.0.2*
%INBottomMask.gbr*%
%MOIN*%
%ADD62C,0.0749*%
%ADD64R,0.0749X0.0749*%
%FSLAX44Y44*%
G04*
G70*
G90*
G75*
G01*
%LNBotMask*%
%LPD*%
D64*
X38000Y14000D3*
D62*
X37000D3*
X38000Y13000D3*
X37000D3*
X38000Y12000D3*
X37000D3*
X38000Y11000D3*
X37000D3*
X38000Y10000D3*
X37000D3*
X38000Y9000D3*
X37000D3*
X38000Y8000D3*
X37000D3*
X38000Y7000D3*
X37000D3*
X38000Y6000D3*
X37000D3*
X38000Y5000D3*
X37000D3*
X38000Y4000D3*
X37000D3*
X38000Y3000D3*
X37000D3*
D64*
X19000Y2000D3*
D62*
X20000D3*
X21000D3*
X22000D3*
X23000D3*
X24000D3*
X25000D3*
X26000D3*
X27000D3*
X28000D3*
D64*
X40000Y3000D3*
D62*
X39000D3*
X40000Y4000D3*
X39000D3*
X40000Y5000D3*
X39000D3*
X40000Y6000D3*
X39000D3*
X40000Y7000D3*
X39000D3*
D64*
X40000Y9000D3*
D62*
X39000D3*
X40000Y10000D3*
X39000D3*
X40000Y11000D3*
X39000D3*
X40000Y12000D3*
X39000D3*
X40000Y13000D3*
X39000D3*
D64*
X7681Y14374D3*
D62*
X8681D3*
X9681D3*
D64*
X18549Y9100D3*
D62*
Y10100D3*
Y11100D3*
D64*
X27284Y9096D3*
D62*
Y10096D3*
Y11096D3*
D64*
X34500Y13000D3*
D62*
Y14000D3*
D64*
X29366Y11945D3*
D62*
Y12945D3*
Y13945D3*
D64*
X29378Y5001D3*
D62*
Y6001D3*
Y7001D3*
Y8001D3*
D64*
X36000Y3000D3*
D62*
Y4000D3*
Y5000D3*
Y6000D3*
Y7000D3*
Y8000D3*
Y9000D3*
Y10000D3*
D64*
X31000Y3000D3*
D62*
Y4000D3*
Y5000D3*
Y6000D3*
Y7000D3*
Y8000D3*
Y9000D3*
Y10000D3*
D64*
X13000Y1000D3*
D62*
X14000D3*
X15000D3*
X16000D3*
X17000D3*
X18000D3*
X19000D3*
X20000D3*
X21000D3*
X22000D3*
X23000D3*
X24000D3*
X25000D3*
X26000D3*
X27000D3*
D64*
X81500Y14000D3*
D62*
X80500D3*
X81500Y13000D3*
X80500D3*
X81500Y12000D3*
X80500D3*
X81500Y11000D3*
X80500D3*
X81500Y10000D3*
X80500D3*
X81500Y9000D3*
X80500D3*
X81500Y8000D3*
X80500D3*
X81500Y7000D3*
X80500D3*
X81500Y6000D3*
X80500D3*
X81500Y5000D3*
X80500D3*
X81500Y4000D3*
X80500D3*
X81500Y3000D3*
X80500D3*
D64*
X62500Y2000D3*
D62*
X63500D3*
X64500D3*
X65500D3*
X66500D3*
X67500D3*
X68500D3*
X69500D3*
X70500D3*
X71500D3*
D64*
X83500Y3000D3*
D62*
X82500D3*
X83500Y4000D3*
X82500D3*
X83500Y5000D3*
X82500D3*
X83500Y6000D3*
X82500D3*
X83500Y7000D3*
X82500D3*
D64*
X83500Y9000D3*
D62*
X82500D3*
X83500Y10000D3*
X82500D3*
X83500Y11000D3*
X82500D3*
X83500Y12000D3*
X82500D3*
X83500Y13000D3*
X82500D3*
D64*
X51181Y14374D3*
D62*
X52181D3*
X53181D3*
D64*
X62049Y9100D3*
D62*
Y10100D3*
Y11100D3*
D64*
X70784Y9096D3*
D62*
Y10096D3*
Y11096D3*
D64*
X78000Y13000D3*
D62*
Y14000D3*
D64*
X72866Y11945D3*
D62*
Y12945D3*
Y13945D3*
D64*
X72878Y5001D3*
D62*
Y6001D3*
Y7001D3*
Y8001D3*
D64*
X79500Y3000D3*
D62*
Y4000D3*
Y5000D3*
Y6000D3*
Y7000D3*
Y8000D3*
Y9000D3*
Y10000D3*
D64*
X74500Y3000D3*
D62*
Y4000D3*
Y5000D3*
Y6000D3*
Y7000D3*
Y8000D3*
Y9000D3*
Y10000D3*
D64*
X56500Y1000D3*
D62*
X57500D3*
X58500D3*
X59500D3*
X60500D3*
X61500D3*
X62500D3*
X63500D3*
X64500D3*
X65500D3*
X66500D3*
X67500D3*
X68500D3*
X69500D3*
X70500D3*
D64*
X38000Y31500D3*
D62*
X37000D3*
X38000Y30500D3*
X37000D3*
X38000Y29500D3*
X37000D3*
X38000Y28500D3*
X37000D3*
X38000Y27500D3*
X37000D3*
X38000Y26500D3*
X37000D3*
X38000Y25500D3*
X37000D3*
X38000Y24500D3*
X37000D3*
X38000Y23500D3*
X37000D3*
X38000Y22500D3*
X37000D3*
X38000Y21500D3*
X37000D3*
X38000Y20500D3*
X37000D3*
D64*
X19000Y19500D3*
D62*
X20000D3*
X21000D3*
X22000D3*
X23000D3*
X24000D3*
X25000D3*
X26000D3*
X27000D3*
X28000D3*
D64*
X40000Y20500D3*
D62*
X39000D3*
X40000Y21500D3*
X39000D3*
X40000Y22500D3*
X39000D3*
X40000Y23500D3*
X39000D3*
X40000Y24500D3*
X39000D3*
D64*
X40000Y26500D3*
D62*
X39000D3*
X40000Y27500D3*
X39000D3*
X40000Y28500D3*
X39000D3*
X40000Y29500D3*
X39000D3*
X40000Y30500D3*
X39000D3*
D64*
X7681Y31874D3*
D62*
X8681D3*
X9681D3*
D64*
X18549Y26600D3*
D62*
Y27600D3*
Y28600D3*
D64*
X27284Y26596D3*
D62*
Y27596D3*
Y28596D3*
D64*
X34500Y30500D3*
D62*
Y31500D3*
D64*
X29366Y29445D3*
D62*
Y30445D3*
Y31445D3*
D64*
X29378Y22501D3*
D62*
Y23501D3*
Y24501D3*
Y25501D3*
D64*
X36000Y20500D3*
D62*
Y21500D3*
Y22500D3*
Y23500D3*
Y24500D3*
Y25500D3*
Y26500D3*
Y27500D3*
D64*
X31000Y20500D3*
D62*
Y21500D3*
Y22500D3*
Y23500D3*
Y24500D3*
Y25500D3*
Y26500D3*
Y27500D3*
D64*
X13000Y18500D3*
D62*
X14000D3*
X15000D3*
X16000D3*
X17000D3*
X18000D3*
X19000D3*
X20000D3*
X21000D3*
X22000D3*
X23000D3*
X24000D3*
X25000D3*
X26000D3*
X27000D3*
D64*
X81500Y31500D3*
D62*
X80500D3*
X81500Y30500D3*
X80500D3*
X81500Y29500D3*
X80500D3*
X81500Y28500D3*
X80500D3*
X81500Y27500D3*
X80500D3*
X81500Y26500D3*
X80500D3*
X81500Y25500D3*
X80500D3*
X81500Y24500D3*
X80500D3*
X81500Y23500D3*
X80500D3*
X81500Y22500D3*
X80500D3*
X81500Y21500D3*
X80500D3*
X81500Y20500D3*
X80500D3*
D64*
X62500Y19500D3*
D62*
X63500D3*
X64500D3*
X65500D3*
X66500D3*
X67500D3*
X68500D3*
X69500D3*
X70500D3*
X71500D3*
D64*
X83500Y20500D3*
D62*
X82500D3*
X83500Y21500D3*
X82500D3*
X83500Y22500D3*
X82500D3*
X83500Y23500D3*
X82500D3*
X83500Y24500D3*
X82500D3*
D64*
X83500Y26500D3*
D62*
X82500D3*
X83500Y27500D3*
X82500D3*
X83500Y28500D3*
X82500D3*
X83500Y29500D3*
X82500D3*
X83500Y30500D3*
X82500D3*
D64*
X51181Y31874D3*
D62*
X52181D3*
X53181D3*
D64*
X62049Y26600D3*
D62*
Y27600D3*
Y28600D3*
D64*
X70784Y26596D3*
D62*
Y27596D3*
Y28596D3*
D64*
X78000Y30500D3*
D62*
Y31500D3*
D64*
X72866Y29445D3*
D62*
Y30445D3*
Y31445D3*
D64*
X72878Y22501D3*
D62*
Y23501D3*
Y24501D3*
Y25501D3*
D64*
X79500Y20500D3*
D62*
Y21500D3*
Y22500D3*
Y23500D3*
Y24500D3*
Y25500D3*
Y26500D3*
Y27500D3*
D64*
X74500Y20500D3*
D62*
Y21500D3*
Y22500D3*
Y23500D3*
Y24500D3*
Y25500D3*
Y26500D3*
Y27500D3*
D64*
X56500Y18500D3*
D62*
X57500D3*
X58500D3*
X59500D3*
X60500D3*
X61500D3*
X62500D3*
X63500D3*
X64500D3*
X65500D3*
X66500D3*
X67500D3*
X68500D3*
X69500D3*
X70500D3*
D64*
X38000Y49000D3*
D62*
X37000D3*
X38000Y48000D3*
X37000D3*
X38000Y47000D3*
X37000D3*
X38000Y46000D3*
X37000D3*
X38000Y45000D3*
X37000D3*
X38000Y44000D3*
X37000D3*
X38000Y43000D3*
X37000D3*
X38000Y42000D3*
X37000D3*
X38000Y41000D3*
X37000D3*
X38000Y40000D3*
X37000D3*
X38000Y39000D3*
X37000D3*
X38000Y38000D3*
X37000D3*
D64*
X19000Y37000D3*
D62*
X20000D3*
X21000D3*
X22000D3*
X23000D3*
X24000D3*
X25000D3*
X26000D3*
X27000D3*
X28000D3*
D64*
X40000Y38000D3*
D62*
X39000D3*
X40000Y39000D3*
X39000D3*
X40000Y40000D3*
X39000D3*
X40000Y41000D3*
X39000D3*
X40000Y42000D3*
X39000D3*
D64*
X40000Y44000D3*
D62*
X39000D3*
X40000Y45000D3*
X39000D3*
X40000Y46000D3*
X39000D3*
X40000Y47000D3*
X39000D3*
X40000Y48000D3*
X39000D3*
D64*
X7681Y49374D3*
D62*
X8681D3*
X9681D3*
D64*
X18549Y44100D3*
D62*
Y45100D3*
Y46100D3*
D64*
X27284Y44096D3*
D62*
Y45096D3*
Y46096D3*
D64*
X34500Y48000D3*
D62*
Y49000D3*
D64*
X29366Y46945D3*
D62*
Y47945D3*
Y48945D3*
D64*
X29378Y40001D3*
D62*
Y41001D3*
Y42001D3*
Y43001D3*
D64*
X36000Y38000D3*
D62*
Y39000D3*
Y40000D3*
Y41000D3*
Y42000D3*
Y43000D3*
Y44000D3*
Y45000D3*
D64*
X31000Y38000D3*
D62*
Y39000D3*
Y40000D3*
Y41000D3*
Y42000D3*
Y43000D3*
Y44000D3*
Y45000D3*
D64*
X13000Y36000D3*
D62*
X14000D3*
X15000D3*
X16000D3*
X17000D3*
X18000D3*
X19000D3*
X20000D3*
X21000D3*
X22000D3*
X23000D3*
X24000D3*
X25000D3*
X26000D3*
X27000D3*
D64*
X81500Y49000D3*
D62*
X80500D3*
X81500Y48000D3*
X80500D3*
X81500Y47000D3*
X80500D3*
X81500Y46000D3*
X80500D3*
X81500Y45000D3*
X80500D3*
X81500Y44000D3*
X80500D3*
X81500Y43000D3*
X80500D3*
X81500Y42000D3*
X80500D3*
X81500Y41000D3*
X80500D3*
X81500Y40000D3*
X80500D3*
X81500Y39000D3*
X80500D3*
X81500Y38000D3*
X80500D3*
D64*
X62500Y37000D3*
D62*
X63500D3*
X64500D3*
X65500D3*
X66500D3*
X67500D3*
X68500D3*
X69500D3*
X70500D3*
X71500D3*
D64*
X83500Y38000D3*
D62*
X82500D3*
X83500Y39000D3*
X82500D3*
X83500Y40000D3*
X82500D3*
X83500Y41000D3*
X82500D3*
X83500Y42000D3*
X82500D3*
D64*
X83500Y44000D3*
D62*
X82500D3*
X83500Y45000D3*
X82500D3*
X83500Y46000D3*
X82500D3*
X83500Y47000D3*
X82500D3*
X83500Y48000D3*
X82500D3*
D64*
X51181Y49374D3*
D62*
X52181D3*
X53181D3*
D64*
X62049Y44100D3*
D62*
Y45100D3*
Y46100D3*
D64*
X70784Y44096D3*
D62*
Y45096D3*
Y46096D3*
D64*
X78000Y48000D3*
D62*
Y49000D3*
D64*
X72866Y46945D3*
D62*
Y47945D3*
Y48945D3*
D64*
X72878Y40001D3*
D62*
Y41001D3*
Y42001D3*
Y43001D3*
D64*
X79500Y38000D3*
D62*
Y39000D3*
Y40000D3*
Y41000D3*
Y42000D3*
Y43000D3*
Y44000D3*
Y45000D3*
D64*
X74500Y38000D3*
D62*
Y39000D3*
Y40000D3*
Y41000D3*
Y42000D3*
Y43000D3*
Y44000D3*
Y45000D3*
D64*
X56500Y36000D3*
D62*
X57500D3*
X58500D3*
X59500D3*
X60500D3*
X61500D3*
X62500D3*
X63500D3*
X64500D3*
X65500D3*
X66500D3*
X67500D3*
X68500D3*
X69500D3*
X70500D3*
M02*
