G04 DipTrace 2.4.0.2*
%INBottomAssy.gbr*%
%MOIN*%
%ADD10C,0.0098*%
%ADD12C,0.003*%
%ADD80C,0.0046*%
%FSLAX44Y44*%
G04*
G70*
G90*
G75*
G01*
%LNBotAssy*%
%LPD*%
X12220Y402D2*
D10*
X27780D1*
X37511Y14939D2*
D80*
Y14710D1*
X37525Y14667D1*
X37539Y14652D1*
X37568Y14638D1*
X37597D1*
X37625Y14652D1*
X37640Y14667D1*
X37654Y14710D1*
Y14738D1*
X37418Y14882D2*
X37389Y14896D1*
X37346Y14939D1*
Y14638D1*
X12095Y1182D2*
Y952D1*
X12109Y909D1*
X12124Y895D1*
X12152Y881D1*
X12181D1*
X12210Y895D1*
X12224Y909D1*
X12238Y952D1*
Y981D1*
X12002Y1124D2*
X11973Y1139D1*
X11930Y1182D1*
Y881D1*
X11665Y1182D2*
X11809D1*
X11823Y1053D1*
X11809Y1067D1*
X11766Y1081D1*
X11723D1*
X11680Y1067D1*
X11651Y1038D1*
X11637Y995D1*
Y967D1*
X11651Y924D1*
X11680Y895D1*
X11723Y881D1*
X11766D1*
X11809Y895D1*
X11823Y909D1*
X11838Y938D1*
X19005Y19D2*
D12*
Y220D1*
X19091D1*
X19120Y210D1*
X19129Y200D1*
X19139Y181D1*
Y153D1*
X19129Y133D1*
X19120Y124D1*
X19091Y114D1*
X19120Y105D1*
X19129Y95D1*
X19139Y76D1*
Y57D1*
X19129Y38D1*
X19120Y28D1*
X19091Y19D1*
X19005D1*
Y114D2*
X19091D1*
X19258Y19D2*
X19239Y28D1*
X19220Y47D1*
X19210Y66D1*
X19201Y95D1*
Y143D1*
X19210Y172D1*
X19220Y191D1*
X19239Y210D1*
X19258Y220D1*
X19296D1*
X19315Y210D1*
X19335Y191D1*
X19344Y172D1*
X19354Y143D1*
Y95D1*
X19344Y66D1*
X19335Y47D1*
X19315Y28D1*
X19296Y19D1*
X19258D1*
X19569Y220D2*
X19492Y19D1*
X19415Y220D1*
X19444Y153D2*
X19540D1*
X19630Y114D2*
X19716D1*
X19745Y105D1*
X19755Y95D1*
X19764Y76D1*
Y57D1*
X19755Y38D1*
X19745Y28D1*
X19716Y19D1*
X19630D1*
Y220D1*
X19697Y114D2*
X19764Y220D1*
X19826Y19D2*
Y220D1*
X19893D1*
X19922Y210D1*
X19941Y191D1*
X19951Y172D1*
X19960Y143D1*
Y95D1*
X19951Y66D1*
X19941Y47D1*
X19922Y28D1*
X19893Y19D1*
X19826D1*
X20340D2*
X20216D1*
Y220D1*
X20340D1*
X20216Y114D2*
X20293D1*
X20402Y19D2*
Y220D1*
X20469D1*
X20498Y210D1*
X20517Y191D1*
X20527Y172D1*
X20536Y143D1*
Y95D1*
X20527Y66D1*
X20517Y47D1*
X20498Y28D1*
X20469Y19D1*
X20402D1*
X20741Y66D2*
X20732Y47D1*
X20713Y28D1*
X20694Y19D1*
X20655D1*
X20636Y28D1*
X20617Y47D1*
X20607Y66D1*
X20598Y95D1*
Y143D1*
X20607Y172D1*
X20617Y191D1*
X20636Y210D1*
X20655Y220D1*
X20694D1*
X20713Y210D1*
X20732Y191D1*
X20741Y172D1*
Y143D1*
X20694D1*
X20927Y19D2*
X20803D1*
Y220D1*
X20927D1*
X20803Y114D2*
X20880D1*
X55720Y402D2*
D10*
X71280D1*
X81011Y14939D2*
D80*
Y14710D1*
X81025Y14667D1*
X81039Y14652D1*
X81068Y14638D1*
X81097D1*
X81125Y14652D1*
X81140Y14667D1*
X81154Y14710D1*
Y14738D1*
X80918Y14882D2*
X80889Y14896D1*
X80846Y14939D1*
Y14638D1*
X55595Y1182D2*
Y952D1*
X55609Y909D1*
X55624Y895D1*
X55652Y881D1*
X55681D1*
X55710Y895D1*
X55724Y909D1*
X55738Y952D1*
Y981D1*
X55502Y1124D2*
X55473Y1139D1*
X55430Y1182D1*
Y881D1*
X55165Y1182D2*
X55309D1*
X55323Y1053D1*
X55309Y1067D1*
X55266Y1081D1*
X55223D1*
X55180Y1067D1*
X55151Y1038D1*
X55137Y995D1*
Y967D1*
X55151Y924D1*
X55180Y895D1*
X55223Y881D1*
X55266D1*
X55309Y895D1*
X55323Y909D1*
X55338Y938D1*
X62505Y19D2*
D12*
Y220D1*
X62591D1*
X62620Y210D1*
X62629Y200D1*
X62639Y181D1*
Y153D1*
X62629Y133D1*
X62620Y124D1*
X62591Y114D1*
X62620Y105D1*
X62629Y95D1*
X62639Y76D1*
Y57D1*
X62629Y38D1*
X62620Y28D1*
X62591Y19D1*
X62505D1*
Y114D2*
X62591D1*
X62758Y19D2*
X62739Y28D1*
X62720Y47D1*
X62710Y66D1*
X62701Y95D1*
Y143D1*
X62710Y172D1*
X62720Y191D1*
X62739Y210D1*
X62758Y220D1*
X62796D1*
X62815Y210D1*
X62835Y191D1*
X62844Y172D1*
X62854Y143D1*
Y95D1*
X62844Y66D1*
X62835Y47D1*
X62815Y28D1*
X62796Y19D1*
X62758D1*
X63069Y220D2*
X62992Y19D1*
X62915Y220D1*
X62944Y153D2*
X63040D1*
X63130Y114D2*
X63216D1*
X63245Y105D1*
X63255Y95D1*
X63264Y76D1*
Y57D1*
X63255Y38D1*
X63245Y28D1*
X63216Y19D1*
X63130D1*
Y220D1*
X63197Y114D2*
X63264Y220D1*
X63326Y19D2*
Y220D1*
X63393D1*
X63422Y210D1*
X63441Y191D1*
X63451Y172D1*
X63460Y143D1*
Y95D1*
X63451Y66D1*
X63441Y47D1*
X63422Y28D1*
X63393Y19D1*
X63326D1*
X63840D2*
X63716D1*
Y220D1*
X63840D1*
X63716Y114D2*
X63793D1*
X63902Y19D2*
Y220D1*
X63969D1*
X63998Y210D1*
X64017Y191D1*
X64027Y172D1*
X64036Y143D1*
Y95D1*
X64027Y66D1*
X64017Y47D1*
X63998Y28D1*
X63969Y19D1*
X63902D1*
X64241Y66D2*
X64232Y47D1*
X64213Y28D1*
X64194Y19D1*
X64155D1*
X64136Y28D1*
X64117Y47D1*
X64107Y66D1*
X64098Y95D1*
Y143D1*
X64107Y172D1*
X64117Y191D1*
X64136Y210D1*
X64155Y220D1*
X64194D1*
X64213Y210D1*
X64232Y191D1*
X64241Y172D1*
Y143D1*
X64194D1*
X64427Y19D2*
X64303D1*
Y220D1*
X64427D1*
X64303Y114D2*
X64380D1*
X12220Y17902D2*
D10*
X27780D1*
X37511Y32439D2*
D80*
Y32210D1*
X37525Y32167D1*
X37539Y32152D1*
X37568Y32138D1*
X37597D1*
X37625Y32152D1*
X37640Y32167D1*
X37654Y32210D1*
Y32238D1*
X37418Y32382D2*
X37389Y32396D1*
X37346Y32439D1*
Y32138D1*
X12095Y18682D2*
Y18452D1*
X12109Y18409D1*
X12124Y18395D1*
X12152Y18381D1*
X12181D1*
X12210Y18395D1*
X12224Y18409D1*
X12238Y18452D1*
Y18481D1*
X12002Y18624D2*
X11973Y18639D1*
X11930Y18682D1*
Y18381D1*
X11665Y18682D2*
X11809D1*
X11823Y18553D1*
X11809Y18567D1*
X11766Y18581D1*
X11723D1*
X11680Y18567D1*
X11651Y18538D1*
X11637Y18495D1*
Y18467D1*
X11651Y18424D1*
X11680Y18395D1*
X11723Y18381D1*
X11766D1*
X11809Y18395D1*
X11823Y18409D1*
X11838Y18438D1*
X19005Y17519D2*
D12*
Y17720D1*
X19091D1*
X19120Y17710D1*
X19129Y17700D1*
X19139Y17681D1*
Y17653D1*
X19129Y17633D1*
X19120Y17624D1*
X19091Y17614D1*
X19120Y17605D1*
X19129Y17595D1*
X19139Y17576D1*
Y17557D1*
X19129Y17538D1*
X19120Y17528D1*
X19091Y17519D1*
X19005D1*
Y17614D2*
X19091D1*
X19258Y17519D2*
X19239Y17528D1*
X19220Y17547D1*
X19210Y17566D1*
X19201Y17595D1*
Y17643D1*
X19210Y17672D1*
X19220Y17691D1*
X19239Y17710D1*
X19258Y17720D1*
X19296D1*
X19315Y17710D1*
X19335Y17691D1*
X19344Y17672D1*
X19354Y17643D1*
Y17595D1*
X19344Y17566D1*
X19335Y17547D1*
X19315Y17528D1*
X19296Y17519D1*
X19258D1*
X19569Y17720D2*
X19492Y17519D1*
X19415Y17720D1*
X19444Y17653D2*
X19540D1*
X19630Y17614D2*
X19716D1*
X19745Y17605D1*
X19755Y17595D1*
X19764Y17576D1*
Y17557D1*
X19755Y17538D1*
X19745Y17528D1*
X19716Y17519D1*
X19630D1*
Y17720D1*
X19697Y17614D2*
X19764Y17720D1*
X19826Y17519D2*
Y17720D1*
X19893D1*
X19922Y17710D1*
X19941Y17691D1*
X19951Y17672D1*
X19960Y17643D1*
Y17595D1*
X19951Y17566D1*
X19941Y17547D1*
X19922Y17528D1*
X19893Y17519D1*
X19826D1*
X20340D2*
X20216D1*
Y17720D1*
X20340D1*
X20216Y17614D2*
X20293D1*
X20402Y17519D2*
Y17720D1*
X20469D1*
X20498Y17710D1*
X20517Y17691D1*
X20527Y17672D1*
X20536Y17643D1*
Y17595D1*
X20527Y17566D1*
X20517Y17547D1*
X20498Y17528D1*
X20469Y17519D1*
X20402D1*
X20741Y17566D2*
X20732Y17547D1*
X20713Y17528D1*
X20694Y17519D1*
X20655D1*
X20636Y17528D1*
X20617Y17547D1*
X20607Y17566D1*
X20598Y17595D1*
Y17643D1*
X20607Y17672D1*
X20617Y17691D1*
X20636Y17710D1*
X20655Y17720D1*
X20694D1*
X20713Y17710D1*
X20732Y17691D1*
X20741Y17672D1*
Y17643D1*
X20694D1*
X20927Y17519D2*
X20803D1*
Y17720D1*
X20927D1*
X20803Y17614D2*
X20880D1*
X55720Y17902D2*
D10*
X71280D1*
X81011Y32439D2*
D80*
Y32210D1*
X81025Y32167D1*
X81039Y32152D1*
X81068Y32138D1*
X81097D1*
X81125Y32152D1*
X81140Y32167D1*
X81154Y32210D1*
Y32238D1*
X80918Y32382D2*
X80889Y32396D1*
X80846Y32439D1*
Y32138D1*
X55595Y18682D2*
Y18452D1*
X55609Y18409D1*
X55624Y18395D1*
X55652Y18381D1*
X55681D1*
X55710Y18395D1*
X55724Y18409D1*
X55738Y18452D1*
Y18481D1*
X55502Y18624D2*
X55473Y18639D1*
X55430Y18682D1*
Y18381D1*
X55165Y18682D2*
X55309D1*
X55323Y18553D1*
X55309Y18567D1*
X55266Y18581D1*
X55223D1*
X55180Y18567D1*
X55151Y18538D1*
X55137Y18495D1*
Y18467D1*
X55151Y18424D1*
X55180Y18395D1*
X55223Y18381D1*
X55266D1*
X55309Y18395D1*
X55323Y18409D1*
X55338Y18438D1*
X62505Y17519D2*
D12*
Y17720D1*
X62591D1*
X62620Y17710D1*
X62629Y17700D1*
X62639Y17681D1*
Y17653D1*
X62629Y17633D1*
X62620Y17624D1*
X62591Y17614D1*
X62620Y17605D1*
X62629Y17595D1*
X62639Y17576D1*
Y17557D1*
X62629Y17538D1*
X62620Y17528D1*
X62591Y17519D1*
X62505D1*
Y17614D2*
X62591D1*
X62758Y17519D2*
X62739Y17528D1*
X62720Y17547D1*
X62710Y17566D1*
X62701Y17595D1*
Y17643D1*
X62710Y17672D1*
X62720Y17691D1*
X62739Y17710D1*
X62758Y17720D1*
X62796D1*
X62815Y17710D1*
X62835Y17691D1*
X62844Y17672D1*
X62854Y17643D1*
Y17595D1*
X62844Y17566D1*
X62835Y17547D1*
X62815Y17528D1*
X62796Y17519D1*
X62758D1*
X63069Y17720D2*
X62992Y17519D1*
X62915Y17720D1*
X62944Y17653D2*
X63040D1*
X63130Y17614D2*
X63216D1*
X63245Y17605D1*
X63255Y17595D1*
X63264Y17576D1*
Y17557D1*
X63255Y17538D1*
X63245Y17528D1*
X63216Y17519D1*
X63130D1*
Y17720D1*
X63197Y17614D2*
X63264Y17720D1*
X63326Y17519D2*
Y17720D1*
X63393D1*
X63422Y17710D1*
X63441Y17691D1*
X63451Y17672D1*
X63460Y17643D1*
Y17595D1*
X63451Y17566D1*
X63441Y17547D1*
X63422Y17528D1*
X63393Y17519D1*
X63326D1*
X63840D2*
X63716D1*
Y17720D1*
X63840D1*
X63716Y17614D2*
X63793D1*
X63902Y17519D2*
Y17720D1*
X63969D1*
X63998Y17710D1*
X64017Y17691D1*
X64027Y17672D1*
X64036Y17643D1*
Y17595D1*
X64027Y17566D1*
X64017Y17547D1*
X63998Y17528D1*
X63969Y17519D1*
X63902D1*
X64241Y17566D2*
X64232Y17547D1*
X64213Y17528D1*
X64194Y17519D1*
X64155D1*
X64136Y17528D1*
X64117Y17547D1*
X64107Y17566D1*
X64098Y17595D1*
Y17643D1*
X64107Y17672D1*
X64117Y17691D1*
X64136Y17710D1*
X64155Y17720D1*
X64194D1*
X64213Y17710D1*
X64232Y17691D1*
X64241Y17672D1*
Y17643D1*
X64194D1*
X64427Y17519D2*
X64303D1*
Y17720D1*
X64427D1*
X64303Y17614D2*
X64380D1*
X12220Y35402D2*
D10*
X27780D1*
X37511Y49939D2*
D80*
Y49710D1*
X37525Y49667D1*
X37539Y49652D1*
X37568Y49638D1*
X37597D1*
X37625Y49652D1*
X37640Y49667D1*
X37654Y49710D1*
Y49738D1*
X37418Y49882D2*
X37389Y49896D1*
X37346Y49939D1*
Y49638D1*
X12095Y36182D2*
Y35952D1*
X12109Y35909D1*
X12124Y35895D1*
X12152Y35881D1*
X12181D1*
X12210Y35895D1*
X12224Y35909D1*
X12238Y35952D1*
Y35981D1*
X12002Y36124D2*
X11973Y36139D1*
X11930Y36182D1*
Y35881D1*
X11665Y36182D2*
X11809D1*
X11823Y36053D1*
X11809Y36067D1*
X11766Y36081D1*
X11723D1*
X11680Y36067D1*
X11651Y36038D1*
X11637Y35995D1*
Y35967D1*
X11651Y35924D1*
X11680Y35895D1*
X11723Y35881D1*
X11766D1*
X11809Y35895D1*
X11823Y35909D1*
X11838Y35938D1*
X19005Y35019D2*
D12*
Y35220D1*
X19091D1*
X19120Y35210D1*
X19129Y35200D1*
X19139Y35181D1*
Y35153D1*
X19129Y35133D1*
X19120Y35124D1*
X19091Y35114D1*
X19120Y35105D1*
X19129Y35095D1*
X19139Y35076D1*
Y35057D1*
X19129Y35038D1*
X19120Y35028D1*
X19091Y35019D1*
X19005D1*
Y35114D2*
X19091D1*
X19258Y35019D2*
X19239Y35028D1*
X19220Y35047D1*
X19210Y35066D1*
X19201Y35095D1*
Y35143D1*
X19210Y35172D1*
X19220Y35191D1*
X19239Y35210D1*
X19258Y35220D1*
X19296D1*
X19315Y35210D1*
X19335Y35191D1*
X19344Y35172D1*
X19354Y35143D1*
Y35095D1*
X19344Y35066D1*
X19335Y35047D1*
X19315Y35028D1*
X19296Y35019D1*
X19258D1*
X19569Y35220D2*
X19492Y35019D1*
X19415Y35220D1*
X19444Y35153D2*
X19540D1*
X19630Y35114D2*
X19716D1*
X19745Y35105D1*
X19755Y35095D1*
X19764Y35076D1*
Y35057D1*
X19755Y35038D1*
X19745Y35028D1*
X19716Y35019D1*
X19630D1*
Y35220D1*
X19697Y35114D2*
X19764Y35220D1*
X19826Y35019D2*
Y35220D1*
X19893D1*
X19922Y35210D1*
X19941Y35191D1*
X19951Y35172D1*
X19960Y35143D1*
Y35095D1*
X19951Y35066D1*
X19941Y35047D1*
X19922Y35028D1*
X19893Y35019D1*
X19826D1*
X20340D2*
X20216D1*
Y35220D1*
X20340D1*
X20216Y35114D2*
X20293D1*
X20402Y35019D2*
Y35220D1*
X20469D1*
X20498Y35210D1*
X20517Y35191D1*
X20527Y35172D1*
X20536Y35143D1*
Y35095D1*
X20527Y35066D1*
X20517Y35047D1*
X20498Y35028D1*
X20469Y35019D1*
X20402D1*
X20741Y35066D2*
X20732Y35047D1*
X20713Y35028D1*
X20694Y35019D1*
X20655D1*
X20636Y35028D1*
X20617Y35047D1*
X20607Y35066D1*
X20598Y35095D1*
Y35143D1*
X20607Y35172D1*
X20617Y35191D1*
X20636Y35210D1*
X20655Y35220D1*
X20694D1*
X20713Y35210D1*
X20732Y35191D1*
X20741Y35172D1*
Y35143D1*
X20694D1*
X20927Y35019D2*
X20803D1*
Y35220D1*
X20927D1*
X20803Y35114D2*
X20880D1*
X55720Y35402D2*
D10*
X71280D1*
X81011Y49939D2*
D80*
Y49710D1*
X81025Y49667D1*
X81039Y49652D1*
X81068Y49638D1*
X81097D1*
X81125Y49652D1*
X81140Y49667D1*
X81154Y49710D1*
Y49738D1*
X80918Y49882D2*
X80889Y49896D1*
X80846Y49939D1*
Y49638D1*
X55595Y36182D2*
Y35952D1*
X55609Y35909D1*
X55624Y35895D1*
X55652Y35881D1*
X55681D1*
X55710Y35895D1*
X55724Y35909D1*
X55738Y35952D1*
Y35981D1*
X55502Y36124D2*
X55473Y36139D1*
X55430Y36182D1*
Y35881D1*
X55165Y36182D2*
X55309D1*
X55323Y36053D1*
X55309Y36067D1*
X55266Y36081D1*
X55223D1*
X55180Y36067D1*
X55151Y36038D1*
X55137Y35995D1*
Y35967D1*
X55151Y35924D1*
X55180Y35895D1*
X55223Y35881D1*
X55266D1*
X55309Y35895D1*
X55323Y35909D1*
X55338Y35938D1*
X62505Y35019D2*
D12*
Y35220D1*
X62591D1*
X62620Y35210D1*
X62629Y35200D1*
X62639Y35181D1*
Y35153D1*
X62629Y35133D1*
X62620Y35124D1*
X62591Y35114D1*
X62620Y35105D1*
X62629Y35095D1*
X62639Y35076D1*
Y35057D1*
X62629Y35038D1*
X62620Y35028D1*
X62591Y35019D1*
X62505D1*
Y35114D2*
X62591D1*
X62758Y35019D2*
X62739Y35028D1*
X62720Y35047D1*
X62710Y35066D1*
X62701Y35095D1*
Y35143D1*
X62710Y35172D1*
X62720Y35191D1*
X62739Y35210D1*
X62758Y35220D1*
X62796D1*
X62815Y35210D1*
X62835Y35191D1*
X62844Y35172D1*
X62854Y35143D1*
Y35095D1*
X62844Y35066D1*
X62835Y35047D1*
X62815Y35028D1*
X62796Y35019D1*
X62758D1*
X63069Y35220D2*
X62992Y35019D1*
X62915Y35220D1*
X62944Y35153D2*
X63040D1*
X63130Y35114D2*
X63216D1*
X63245Y35105D1*
X63255Y35095D1*
X63264Y35076D1*
Y35057D1*
X63255Y35038D1*
X63245Y35028D1*
X63216Y35019D1*
X63130D1*
Y35220D1*
X63197Y35114D2*
X63264Y35220D1*
X63326Y35019D2*
Y35220D1*
X63393D1*
X63422Y35210D1*
X63441Y35191D1*
X63451Y35172D1*
X63460Y35143D1*
Y35095D1*
X63451Y35066D1*
X63441Y35047D1*
X63422Y35028D1*
X63393Y35019D1*
X63326D1*
X63840D2*
X63716D1*
Y35220D1*
X63840D1*
X63716Y35114D2*
X63793D1*
X63902Y35019D2*
Y35220D1*
X63969D1*
X63998Y35210D1*
X64017Y35191D1*
X64027Y35172D1*
X64036Y35143D1*
Y35095D1*
X64027Y35066D1*
X64017Y35047D1*
X63998Y35028D1*
X63969Y35019D1*
X63902D1*
X64241Y35066D2*
X64232Y35047D1*
X64213Y35028D1*
X64194Y35019D1*
X64155D1*
X64136Y35028D1*
X64117Y35047D1*
X64107Y35066D1*
X64098Y35095D1*
Y35143D1*
X64107Y35172D1*
X64117Y35191D1*
X64136Y35210D1*
X64155Y35220D1*
X64194D1*
X64213Y35210D1*
X64232Y35191D1*
X64241Y35172D1*
Y35143D1*
X64194D1*
X64427Y35019D2*
X64303D1*
Y35220D1*
X64427D1*
X64303Y35114D2*
X64380D1*
M02*
