G04 DipTrace 2.4.0.2*
%INTopPaste.gbr*%
%MOIN*%
%ADD27R,0.0236X0.0236*%
%ADD47R,0.0156X0.0707*%
%ADD49R,0.0077X0.0471*%
%ADD51R,0.0766X0.12*%
%ADD53R,0.0766X0.0294*%
%ADD55R,0.0904X0.1574*%
%ADD57R,0.0629X0.0077*%
%ADD59R,0.0766X0.1692*%
%ADD61R,0.0333X0.0176*%
%ADD67R,0.0156X0.0156*%
%ADD69R,0.0865X0.0865*%
%ADD71R,0.0314X0.0353*%
%ADD73R,0.0511X0.0432*%
%ADD75R,0.0432X0.0511*%
%ADD77R,0.0983X0.055*%
%ADD79R,0.0353X0.0314*%
%FSLAX44Y44*%
G04*
G70*
G90*
G75*
G01*
%LNTopPaste*%
%LPD*%
D79*
X9363Y2639D3*
X10032D3*
D77*
X17750Y4551D3*
Y5654D3*
X18921Y4551D3*
Y5654D3*
X20079Y4557D3*
Y5659D3*
X21230Y4557D3*
Y5659D3*
D79*
X11192Y2681D3*
X11861D3*
D75*
X6408Y3310D3*
X5660D3*
D79*
X11174Y3323D3*
X11843D3*
D75*
X11207Y5626D3*
X11955D3*
D73*
X26957Y5957D3*
Y5209D3*
X24492Y5311D3*
Y6059D3*
D77*
X14785Y12300D3*
Y13402D3*
X16003Y12282D3*
Y13384D3*
D75*
X5764Y7059D3*
X6512D3*
X11118Y7067D3*
X11866D3*
D71*
X20598Y8189D3*
Y8858D3*
X20440Y12876D3*
Y13546D3*
D77*
X2854Y12933D3*
Y11831D3*
X1635Y12937D3*
Y11835D3*
D71*
X24869Y8189D3*
Y8858D3*
X25003Y12957D3*
Y13626D3*
D75*
X34567Y10827D3*
X33819D3*
D77*
X32437Y10002D3*
Y11104D3*
D71*
X33187Y7102D3*
Y6433D3*
D73*
X20507Y10626D3*
Y11374D3*
X25052Y10626D3*
Y11374D3*
D77*
X29813Y2938D3*
Y4040D3*
X32188Y2938D3*
Y4040D3*
D73*
X30000Y9250D3*
Y9998D3*
D69*
X2587Y10031D3*
Y8299D3*
X15013Y10567D3*
Y8835D3*
D67*
X6414Y5150D3*
X5548D3*
D27*
X36240Y13750D3*
Y13159D3*
D61*
X31201Y14094D3*
Y13346D3*
X32106Y13720D3*
D79*
X8809Y3203D3*
X8140D3*
X8805Y2639D3*
X8136D3*
X10032Y3209D3*
X9363D3*
D71*
X13956Y3357D3*
Y2687D3*
D79*
X13212Y3306D3*
X12542D3*
X13210Y2690D3*
X12540D3*
X5699Y3908D3*
X6368D3*
X11250Y4596D3*
X11919D3*
X5711Y4494D3*
X6380D3*
X13757Y4550D3*
X13087D3*
X5705Y5674D3*
X6374D3*
X5719Y6261D3*
X6388D3*
X23750Y4562D3*
X24419D3*
X23125D3*
X22456D3*
D71*
X27753Y6126D3*
Y6795D3*
Y4750D3*
Y5420D3*
X21161Y8189D3*
Y8858D3*
X22260Y8189D3*
Y8858D3*
X20036Y8864D3*
Y8195D3*
X21190Y13564D3*
Y12895D3*
X21696Y8189D3*
Y8858D3*
X19752Y12876D3*
Y13546D3*
X24338Y8189D3*
Y8858D3*
X23252Y8189D3*
Y8858D3*
X25408Y8868D3*
Y8199D3*
X24315Y13608D3*
Y12939D3*
X23796Y8189D3*
Y8858D3*
X25690Y12939D3*
Y13608D3*
X31059Y11124D3*
Y11793D3*
D79*
X30522Y12372D3*
X31191D3*
X35591Y10906D3*
X36260D3*
D71*
X34062Y6451D3*
Y7120D3*
X32437Y7058D3*
Y7727D3*
X30541Y14094D3*
Y13425D3*
D79*
X18622Y13504D3*
X17953D3*
Y14094D3*
X18622D3*
X34000Y3000D3*
X34669D3*
X34563Y4063D3*
X33893D3*
D71*
X17756Y2815D3*
Y3484D3*
D79*
X34567Y4774D3*
X33898D3*
X34567Y5531D3*
X33898D3*
D71*
X32224Y12333D3*
Y13002D3*
X36250Y11841D3*
Y12510D3*
X7047Y6220D3*
Y5551D3*
D79*
X6398Y2224D3*
X5728D3*
D59*
X5445Y8441D3*
X6795D3*
Y11787D3*
X5445D3*
X10752Y8441D3*
X12102D3*
Y11787D3*
X10752D3*
D57*
X10105Y4031D3*
Y4287D3*
Y4543D3*
Y4799D3*
Y5055D3*
Y5311D3*
Y5567D3*
Y5823D3*
Y6079D3*
Y6335D3*
X7822D3*
Y6079D3*
Y5823D3*
Y5567D3*
Y5311D3*
Y5055D3*
Y4799D3*
Y4543D3*
Y4287D3*
Y4031D3*
D55*
X8964Y5183D3*
D53*
X34750Y7995D3*
Y8901D3*
Y9806D3*
D51*
X32467Y8901D3*
D49*
X25449Y4768D3*
X25705D3*
X25961D3*
X26217D3*
Y6500D3*
X25961D3*
X25705D3*
X25449D3*
D61*
X23565Y5313D3*
Y6061D3*
X22659Y5687D3*
D47*
X21252Y9939D3*
X21752D3*
X22252D3*
X22752D3*
X23252D3*
X23752D3*
X24252D3*
Y12065D3*
X23752D3*
X23252D3*
X22752D3*
X22252D3*
X21752D3*
X21252D3*
D79*
X52863Y2639D3*
X53532D3*
D77*
X61250Y4551D3*
Y5654D3*
X62421Y4551D3*
Y5654D3*
X63579Y4557D3*
Y5659D3*
X64730Y4557D3*
Y5659D3*
D79*
X54692Y2681D3*
X55361D3*
D75*
X49908Y3310D3*
X49160D3*
D79*
X54674Y3323D3*
X55343D3*
D75*
X54707Y5626D3*
X55455D3*
D73*
X70457Y5957D3*
Y5209D3*
X67992Y5311D3*
Y6059D3*
D77*
X58285Y12300D3*
Y13402D3*
X59503Y12282D3*
Y13384D3*
D75*
X49264Y7059D3*
X50012D3*
X54618Y7067D3*
X55366D3*
D71*
X64098Y8189D3*
Y8858D3*
X63940Y12876D3*
Y13546D3*
D77*
X46354Y12933D3*
Y11831D3*
X45135Y12937D3*
Y11835D3*
D71*
X68369Y8189D3*
Y8858D3*
X68503Y12957D3*
Y13626D3*
D75*
X78067Y10827D3*
X77319D3*
D77*
X75937Y10002D3*
Y11104D3*
D71*
X76687Y7102D3*
Y6433D3*
D73*
X64007Y10626D3*
Y11374D3*
X68552Y10626D3*
Y11374D3*
D77*
X73313Y2938D3*
Y4040D3*
X75688Y2938D3*
Y4040D3*
D73*
X73500Y9250D3*
Y9998D3*
D69*
X46087Y10031D3*
Y8299D3*
X58513Y10567D3*
Y8835D3*
D67*
X49914Y5150D3*
X49048D3*
D27*
X79740Y13750D3*
Y13159D3*
D61*
X74701Y14094D3*
Y13346D3*
X75606Y13720D3*
D79*
X52309Y3203D3*
X51640D3*
X52305Y2639D3*
X51636D3*
X53532Y3209D3*
X52863D3*
D71*
X57456Y3357D3*
Y2687D3*
D79*
X56712Y3306D3*
X56042D3*
X56710Y2690D3*
X56040D3*
X49199Y3908D3*
X49868D3*
X54750Y4596D3*
X55419D3*
X49211Y4494D3*
X49880D3*
X57257Y4550D3*
X56587D3*
X49205Y5674D3*
X49874D3*
X49219Y6261D3*
X49888D3*
X67250Y4562D3*
X67919D3*
X66625D3*
X65956D3*
D71*
X71253Y6126D3*
Y6795D3*
Y4750D3*
Y5420D3*
X64661Y8189D3*
Y8858D3*
X65760Y8189D3*
Y8858D3*
X63536Y8864D3*
Y8195D3*
X64690Y13564D3*
Y12895D3*
X65196Y8189D3*
Y8858D3*
X63252Y12876D3*
Y13546D3*
X67838Y8189D3*
Y8858D3*
X66752Y8189D3*
Y8858D3*
X68908Y8868D3*
Y8199D3*
X67815Y13608D3*
Y12939D3*
X67296Y8189D3*
Y8858D3*
X69190Y12939D3*
Y13608D3*
X74559Y11124D3*
Y11793D3*
D79*
X74022Y12372D3*
X74691D3*
X79091Y10906D3*
X79760D3*
D71*
X77562Y6451D3*
Y7120D3*
X75937Y7058D3*
Y7727D3*
X74041Y14094D3*
Y13425D3*
D79*
X62122Y13504D3*
X61453D3*
Y14094D3*
X62122D3*
X77500Y3000D3*
X78169D3*
X78063Y4063D3*
X77393D3*
D71*
X61256Y2815D3*
Y3484D3*
D79*
X78067Y4774D3*
X77398D3*
X78067Y5531D3*
X77398D3*
D71*
X75724Y12333D3*
Y13002D3*
X79750Y11841D3*
Y12510D3*
X50547Y6220D3*
Y5551D3*
D79*
X49898Y2224D3*
X49228D3*
D59*
X48945Y8441D3*
X50295D3*
Y11787D3*
X48945D3*
X54252Y8441D3*
X55602D3*
Y11787D3*
X54252D3*
D57*
X53605Y4031D3*
Y4287D3*
Y4543D3*
Y4799D3*
Y5055D3*
Y5311D3*
Y5567D3*
Y5823D3*
Y6079D3*
Y6335D3*
X51322D3*
Y6079D3*
Y5823D3*
Y5567D3*
Y5311D3*
Y5055D3*
Y4799D3*
Y4543D3*
Y4287D3*
Y4031D3*
D55*
X52464Y5183D3*
D53*
X78250Y7995D3*
Y8901D3*
Y9806D3*
D51*
X75967Y8901D3*
D49*
X68949Y4768D3*
X69205D3*
X69461D3*
X69717D3*
Y6500D3*
X69461D3*
X69205D3*
X68949D3*
D61*
X67065Y5313D3*
Y6061D3*
X66159Y5687D3*
D47*
X64752Y9939D3*
X65252D3*
X65752D3*
X66252D3*
X66752D3*
X67252D3*
X67752D3*
Y12065D3*
X67252D3*
X66752D3*
X66252D3*
X65752D3*
X65252D3*
X64752D3*
D79*
X9363Y20139D3*
X10032D3*
D77*
X17750Y22051D3*
Y23154D3*
X18921Y22051D3*
Y23154D3*
X20079Y22057D3*
Y23159D3*
X21230Y22057D3*
Y23159D3*
D79*
X11192Y20181D3*
X11861D3*
D75*
X6408Y20810D3*
X5660D3*
D79*
X11174Y20823D3*
X11843D3*
D75*
X11207Y23126D3*
X11955D3*
D73*
X26957Y23457D3*
Y22709D3*
X24492Y22811D3*
Y23559D3*
D77*
X14785Y29800D3*
Y30902D3*
X16003Y29782D3*
Y30884D3*
D75*
X5764Y24559D3*
X6512D3*
X11118Y24567D3*
X11866D3*
D71*
X20598Y25689D3*
Y26358D3*
X20440Y30376D3*
Y31046D3*
D77*
X2854Y30433D3*
Y29331D3*
X1635Y30437D3*
Y29335D3*
D71*
X24869Y25689D3*
Y26358D3*
X25003Y30457D3*
Y31126D3*
D75*
X34567Y28327D3*
X33819D3*
D77*
X32437Y27502D3*
Y28604D3*
D71*
X33187Y24602D3*
Y23933D3*
D73*
X20507Y28126D3*
Y28874D3*
X25052Y28126D3*
Y28874D3*
D77*
X29813Y20438D3*
Y21540D3*
X32188Y20438D3*
Y21540D3*
D73*
X30000Y26750D3*
Y27498D3*
D69*
X2587Y27531D3*
Y25799D3*
X15013Y28067D3*
Y26335D3*
D67*
X6414Y22650D3*
X5548D3*
D27*
X36240Y31250D3*
Y30659D3*
D61*
X31201Y31594D3*
Y30846D3*
X32106Y31220D3*
D79*
X8809Y20703D3*
X8140D3*
X8805Y20139D3*
X8136D3*
X10032Y20709D3*
X9363D3*
D71*
X13956Y20857D3*
Y20187D3*
D79*
X13212Y20806D3*
X12542D3*
X13210Y20190D3*
X12540D3*
X5699Y21408D3*
X6368D3*
X11250Y22096D3*
X11919D3*
X5711Y21994D3*
X6380D3*
X13757Y22050D3*
X13087D3*
X5705Y23174D3*
X6374D3*
X5719Y23761D3*
X6388D3*
X23750Y22062D3*
X24419D3*
X23125D3*
X22456D3*
D71*
X27753Y23626D3*
Y24295D3*
Y22250D3*
Y22920D3*
X21161Y25689D3*
Y26358D3*
X22260Y25689D3*
Y26358D3*
X20036Y26364D3*
Y25695D3*
X21190Y31064D3*
Y30395D3*
X21696Y25689D3*
Y26358D3*
X19752Y30376D3*
Y31046D3*
X24338Y25689D3*
Y26358D3*
X23252Y25689D3*
Y26358D3*
X25408Y26368D3*
Y25699D3*
X24315Y31108D3*
Y30439D3*
X23796Y25689D3*
Y26358D3*
X25690Y30439D3*
Y31108D3*
X31059Y28624D3*
Y29293D3*
D79*
X30522Y29872D3*
X31191D3*
X35591Y28406D3*
X36260D3*
D71*
X34062Y23951D3*
Y24620D3*
X32437Y24558D3*
Y25227D3*
X30541Y31594D3*
Y30925D3*
D79*
X18622Y31004D3*
X17953D3*
Y31594D3*
X18622D3*
X34000Y20500D3*
X34669D3*
X34563Y21563D3*
X33893D3*
D71*
X17756Y20315D3*
Y20984D3*
D79*
X34567Y22274D3*
X33898D3*
X34567Y23031D3*
X33898D3*
D71*
X32224Y29833D3*
Y30502D3*
X36250Y29341D3*
Y30010D3*
X7047Y23720D3*
Y23051D3*
D79*
X6398Y19724D3*
X5728D3*
D59*
X5445Y25941D3*
X6795D3*
Y29287D3*
X5445D3*
X10752Y25941D3*
X12102D3*
Y29287D3*
X10752D3*
D57*
X10105Y21531D3*
Y21787D3*
Y22043D3*
Y22299D3*
Y22555D3*
Y22811D3*
Y23067D3*
Y23323D3*
Y23579D3*
Y23835D3*
X7822D3*
Y23579D3*
Y23323D3*
Y23067D3*
Y22811D3*
Y22555D3*
Y22299D3*
Y22043D3*
Y21787D3*
Y21531D3*
D55*
X8964Y22683D3*
D53*
X34750Y25495D3*
Y26401D3*
Y27306D3*
D51*
X32467Y26401D3*
D49*
X25449Y22268D3*
X25705D3*
X25961D3*
X26217D3*
Y24000D3*
X25961D3*
X25705D3*
X25449D3*
D61*
X23565Y22813D3*
Y23561D3*
X22659Y23187D3*
D47*
X21252Y27439D3*
X21752D3*
X22252D3*
X22752D3*
X23252D3*
X23752D3*
X24252D3*
Y29565D3*
X23752D3*
X23252D3*
X22752D3*
X22252D3*
X21752D3*
X21252D3*
D79*
X52863Y20139D3*
X53532D3*
D77*
X61250Y22051D3*
Y23154D3*
X62421Y22051D3*
Y23154D3*
X63579Y22057D3*
Y23159D3*
X64730Y22057D3*
Y23159D3*
D79*
X54692Y20181D3*
X55361D3*
D75*
X49908Y20810D3*
X49160D3*
D79*
X54674Y20823D3*
X55343D3*
D75*
X54707Y23126D3*
X55455D3*
D73*
X70457Y23457D3*
Y22709D3*
X67992Y22811D3*
Y23559D3*
D77*
X58285Y29800D3*
Y30902D3*
X59503Y29782D3*
Y30884D3*
D75*
X49264Y24559D3*
X50012D3*
X54618Y24567D3*
X55366D3*
D71*
X64098Y25689D3*
Y26358D3*
X63940Y30376D3*
Y31046D3*
D77*
X46354Y30433D3*
Y29331D3*
X45135Y30437D3*
Y29335D3*
D71*
X68369Y25689D3*
Y26358D3*
X68503Y30457D3*
Y31126D3*
D75*
X78067Y28327D3*
X77319D3*
D77*
X75937Y27502D3*
Y28604D3*
D71*
X76687Y24602D3*
Y23933D3*
D73*
X64007Y28126D3*
Y28874D3*
X68552Y28126D3*
Y28874D3*
D77*
X73313Y20438D3*
Y21540D3*
X75688Y20438D3*
Y21540D3*
D73*
X73500Y26750D3*
Y27498D3*
D69*
X46087Y27531D3*
Y25799D3*
X58513Y28067D3*
Y26335D3*
D67*
X49914Y22650D3*
X49048D3*
D27*
X79740Y31250D3*
Y30659D3*
D61*
X74701Y31594D3*
Y30846D3*
X75606Y31220D3*
D79*
X52309Y20703D3*
X51640D3*
X52305Y20139D3*
X51636D3*
X53532Y20709D3*
X52863D3*
D71*
X57456Y20857D3*
Y20187D3*
D79*
X56712Y20806D3*
X56042D3*
X56710Y20190D3*
X56040D3*
X49199Y21408D3*
X49868D3*
X54750Y22096D3*
X55419D3*
X49211Y21994D3*
X49880D3*
X57257Y22050D3*
X56587D3*
X49205Y23174D3*
X49874D3*
X49219Y23761D3*
X49888D3*
X67250Y22062D3*
X67919D3*
X66625D3*
X65956D3*
D71*
X71253Y23626D3*
Y24295D3*
Y22250D3*
Y22920D3*
X64661Y25689D3*
Y26358D3*
X65760Y25689D3*
Y26358D3*
X63536Y26364D3*
Y25695D3*
X64690Y31064D3*
Y30395D3*
X65196Y25689D3*
Y26358D3*
X63252Y30376D3*
Y31046D3*
X67838Y25689D3*
Y26358D3*
X66752Y25689D3*
Y26358D3*
X68908Y26368D3*
Y25699D3*
X67815Y31108D3*
Y30439D3*
X67296Y25689D3*
Y26358D3*
X69190Y30439D3*
Y31108D3*
X74559Y28624D3*
Y29293D3*
D79*
X74022Y29872D3*
X74691D3*
X79091Y28406D3*
X79760D3*
D71*
X77562Y23951D3*
Y24620D3*
X75937Y24558D3*
Y25227D3*
X74041Y31594D3*
Y30925D3*
D79*
X62122Y31004D3*
X61453D3*
Y31594D3*
X62122D3*
X77500Y20500D3*
X78169D3*
X78063Y21563D3*
X77393D3*
D71*
X61256Y20315D3*
Y20984D3*
D79*
X78067Y22274D3*
X77398D3*
X78067Y23031D3*
X77398D3*
D71*
X75724Y29833D3*
Y30502D3*
X79750Y29341D3*
Y30010D3*
X50547Y23720D3*
Y23051D3*
D79*
X49898Y19724D3*
X49228D3*
D59*
X48945Y25941D3*
X50295D3*
Y29287D3*
X48945D3*
X54252Y25941D3*
X55602D3*
Y29287D3*
X54252D3*
D57*
X53605Y21531D3*
Y21787D3*
Y22043D3*
Y22299D3*
Y22555D3*
Y22811D3*
Y23067D3*
Y23323D3*
Y23579D3*
Y23835D3*
X51322D3*
Y23579D3*
Y23323D3*
Y23067D3*
Y22811D3*
Y22555D3*
Y22299D3*
Y22043D3*
Y21787D3*
Y21531D3*
D55*
X52464Y22683D3*
D53*
X78250Y25495D3*
Y26401D3*
Y27306D3*
D51*
X75967Y26401D3*
D49*
X68949Y22268D3*
X69205D3*
X69461D3*
X69717D3*
Y24000D3*
X69461D3*
X69205D3*
X68949D3*
D61*
X67065Y22813D3*
Y23561D3*
X66159Y23187D3*
D47*
X64752Y27439D3*
X65252D3*
X65752D3*
X66252D3*
X66752D3*
X67252D3*
X67752D3*
Y29565D3*
X67252D3*
X66752D3*
X66252D3*
X65752D3*
X65252D3*
X64752D3*
D79*
X9363Y37639D3*
X10032D3*
D77*
X17750Y39551D3*
Y40654D3*
X18921Y39551D3*
Y40654D3*
X20079Y39557D3*
Y40659D3*
X21230Y39557D3*
Y40659D3*
D79*
X11192Y37681D3*
X11861D3*
D75*
X6408Y38310D3*
X5660D3*
D79*
X11174Y38323D3*
X11843D3*
D75*
X11207Y40626D3*
X11955D3*
D73*
X26957Y40957D3*
Y40209D3*
X24492Y40311D3*
Y41059D3*
D77*
X14785Y47300D3*
Y48402D3*
X16003Y47282D3*
Y48384D3*
D75*
X5764Y42059D3*
X6512D3*
X11118Y42067D3*
X11866D3*
D71*
X20598Y43189D3*
Y43858D3*
X20440Y47876D3*
Y48546D3*
D77*
X2854Y47933D3*
Y46831D3*
X1635Y47937D3*
Y46835D3*
D71*
X24869Y43189D3*
Y43858D3*
X25003Y47957D3*
Y48626D3*
D75*
X34567Y45827D3*
X33819D3*
D77*
X32437Y45002D3*
Y46104D3*
D71*
X33187Y42102D3*
Y41433D3*
D73*
X20507Y45626D3*
Y46374D3*
X25052Y45626D3*
Y46374D3*
D77*
X29813Y37938D3*
Y39040D3*
X32188Y37938D3*
Y39040D3*
D73*
X30000Y44250D3*
Y44998D3*
D69*
X2587Y45031D3*
Y43299D3*
X15013Y45567D3*
Y43835D3*
D67*
X6414Y40150D3*
X5548D3*
D27*
X36240Y48750D3*
Y48159D3*
D61*
X31201Y49094D3*
Y48346D3*
X32106Y48720D3*
D79*
X8809Y38203D3*
X8140D3*
X8805Y37639D3*
X8136D3*
X10032Y38209D3*
X9363D3*
D71*
X13956Y38357D3*
Y37687D3*
D79*
X13212Y38306D3*
X12542D3*
X13210Y37690D3*
X12540D3*
X5699Y38908D3*
X6368D3*
X11250Y39596D3*
X11919D3*
X5711Y39494D3*
X6380D3*
X13757Y39550D3*
X13087D3*
X5705Y40674D3*
X6374D3*
X5719Y41261D3*
X6388D3*
X23750Y39562D3*
X24419D3*
X23125D3*
X22456D3*
D71*
X27753Y41126D3*
Y41795D3*
Y39750D3*
Y40420D3*
X21161Y43189D3*
Y43858D3*
X22260Y43189D3*
Y43858D3*
X20036Y43864D3*
Y43195D3*
X21190Y48564D3*
Y47895D3*
X21696Y43189D3*
Y43858D3*
X19752Y47876D3*
Y48546D3*
X24338Y43189D3*
Y43858D3*
X23252Y43189D3*
Y43858D3*
X25408Y43868D3*
Y43199D3*
X24315Y48608D3*
Y47939D3*
X23796Y43189D3*
Y43858D3*
X25690Y47939D3*
Y48608D3*
X31059Y46124D3*
Y46793D3*
D79*
X30522Y47372D3*
X31191D3*
X35591Y45906D3*
X36260D3*
D71*
X34062Y41451D3*
Y42120D3*
X32437Y42058D3*
Y42727D3*
X30541Y49094D3*
Y48425D3*
D79*
X18622Y48504D3*
X17953D3*
Y49094D3*
X18622D3*
X34000Y38000D3*
X34669D3*
X34563Y39063D3*
X33893D3*
D71*
X17756Y37815D3*
Y38484D3*
D79*
X34567Y39774D3*
X33898D3*
X34567Y40531D3*
X33898D3*
D71*
X32224Y47333D3*
Y48002D3*
X36250Y46841D3*
Y47510D3*
X7047Y41220D3*
Y40551D3*
D79*
X6398Y37224D3*
X5728D3*
D59*
X5445Y43441D3*
X6795D3*
Y46787D3*
X5445D3*
X10752Y43441D3*
X12102D3*
Y46787D3*
X10752D3*
D57*
X10105Y39031D3*
Y39287D3*
Y39543D3*
Y39799D3*
Y40055D3*
Y40311D3*
Y40567D3*
Y40823D3*
Y41079D3*
Y41335D3*
X7822D3*
Y41079D3*
Y40823D3*
Y40567D3*
Y40311D3*
Y40055D3*
Y39799D3*
Y39543D3*
Y39287D3*
Y39031D3*
D55*
X8964Y40183D3*
D53*
X34750Y42995D3*
Y43901D3*
Y44806D3*
D51*
X32467Y43901D3*
D49*
X25449Y39768D3*
X25705D3*
X25961D3*
X26217D3*
Y41500D3*
X25961D3*
X25705D3*
X25449D3*
D61*
X23565Y40313D3*
Y41061D3*
X22659Y40687D3*
D47*
X21252Y44939D3*
X21752D3*
X22252D3*
X22752D3*
X23252D3*
X23752D3*
X24252D3*
Y47065D3*
X23752D3*
X23252D3*
X22752D3*
X22252D3*
X21752D3*
X21252D3*
D79*
X52863Y37639D3*
X53532D3*
D77*
X61250Y39551D3*
Y40654D3*
X62421Y39551D3*
Y40654D3*
X63579Y39557D3*
Y40659D3*
X64730Y39557D3*
Y40659D3*
D79*
X54692Y37681D3*
X55361D3*
D75*
X49908Y38310D3*
X49160D3*
D79*
X54674Y38323D3*
X55343D3*
D75*
X54707Y40626D3*
X55455D3*
D73*
X70457Y40957D3*
Y40209D3*
X67992Y40311D3*
Y41059D3*
D77*
X58285Y47300D3*
Y48402D3*
X59503Y47282D3*
Y48384D3*
D75*
X49264Y42059D3*
X50012D3*
X54618Y42067D3*
X55366D3*
D71*
X64098Y43189D3*
Y43858D3*
X63940Y47876D3*
Y48546D3*
D77*
X46354Y47933D3*
Y46831D3*
X45135Y47937D3*
Y46835D3*
D71*
X68369Y43189D3*
Y43858D3*
X68503Y47957D3*
Y48626D3*
D75*
X78067Y45827D3*
X77319D3*
D77*
X75937Y45002D3*
Y46104D3*
D71*
X76687Y42102D3*
Y41433D3*
D73*
X64007Y45626D3*
Y46374D3*
X68552Y45626D3*
Y46374D3*
D77*
X73313Y37938D3*
Y39040D3*
X75688Y37938D3*
Y39040D3*
D73*
X73500Y44250D3*
Y44998D3*
D69*
X46087Y45031D3*
Y43299D3*
X58513Y45567D3*
Y43835D3*
D67*
X49914Y40150D3*
X49048D3*
D27*
X79740Y48750D3*
Y48159D3*
D61*
X74701Y49094D3*
Y48346D3*
X75606Y48720D3*
D79*
X52309Y38203D3*
X51640D3*
X52305Y37639D3*
X51636D3*
X53532Y38209D3*
X52863D3*
D71*
X57456Y38357D3*
Y37687D3*
D79*
X56712Y38306D3*
X56042D3*
X56710Y37690D3*
X56040D3*
X49199Y38908D3*
X49868D3*
X54750Y39596D3*
X55419D3*
X49211Y39494D3*
X49880D3*
X57257Y39550D3*
X56587D3*
X49205Y40674D3*
X49874D3*
X49219Y41261D3*
X49888D3*
X67250Y39562D3*
X67919D3*
X66625D3*
X65956D3*
D71*
X71253Y41126D3*
Y41795D3*
Y39750D3*
Y40420D3*
X64661Y43189D3*
Y43858D3*
X65760Y43189D3*
Y43858D3*
X63536Y43864D3*
Y43195D3*
X64690Y48564D3*
Y47895D3*
X65196Y43189D3*
Y43858D3*
X63252Y47876D3*
Y48546D3*
X67838Y43189D3*
Y43858D3*
X66752Y43189D3*
Y43858D3*
X68908Y43868D3*
Y43199D3*
X67815Y48608D3*
Y47939D3*
X67296Y43189D3*
Y43858D3*
X69190Y47939D3*
Y48608D3*
X74559Y46124D3*
Y46793D3*
D79*
X74022Y47372D3*
X74691D3*
X79091Y45906D3*
X79760D3*
D71*
X77562Y41451D3*
Y42120D3*
X75937Y42058D3*
Y42727D3*
X74041Y49094D3*
Y48425D3*
D79*
X62122Y48504D3*
X61453D3*
Y49094D3*
X62122D3*
X77500Y38000D3*
X78169D3*
X78063Y39063D3*
X77393D3*
D71*
X61256Y37815D3*
Y38484D3*
D79*
X78067Y39774D3*
X77398D3*
X78067Y40531D3*
X77398D3*
D71*
X75724Y47333D3*
Y48002D3*
X79750Y46841D3*
Y47510D3*
X50547Y41220D3*
Y40551D3*
D79*
X49898Y37224D3*
X49228D3*
D59*
X48945Y43441D3*
X50295D3*
Y46787D3*
X48945D3*
X54252Y43441D3*
X55602D3*
Y46787D3*
X54252D3*
D57*
X53605Y39031D3*
Y39287D3*
Y39543D3*
Y39799D3*
Y40055D3*
Y40311D3*
Y40567D3*
Y40823D3*
Y41079D3*
Y41335D3*
X51322D3*
Y41079D3*
Y40823D3*
Y40567D3*
Y40311D3*
Y40055D3*
Y39799D3*
Y39543D3*
Y39287D3*
Y39031D3*
D55*
X52464Y40183D3*
D53*
X78250Y42995D3*
Y43901D3*
Y44806D3*
D51*
X75967Y43901D3*
D49*
X68949Y39768D3*
X69205D3*
X69461D3*
X69717D3*
Y41500D3*
X69461D3*
X69205D3*
X68949D3*
D61*
X67065Y40313D3*
Y41061D3*
X66159Y40687D3*
D47*
X64752Y44939D3*
X65252D3*
X65752D3*
X66252D3*
X66752D3*
X67252D3*
X67752D3*
Y47065D3*
X67252D3*
X66752D3*
X66252D3*
X65752D3*
X65252D3*
X64752D3*
M02*
