G04 DipTrace 2.4.0.2*
%INBottom.gbr*%
%MOIN*%
%ADD14C,0.013*%
%ADD15C,0.03*%
%ADD18C,0.04*%
%ADD29R,0.0669X0.0669*%
%ADD30C,0.0669*%
%FSLAX44Y44*%
G04*
G70*
G90*
G75*
G01*
%LNBottom*%
%LPD*%
X8854Y8090D2*
D14*
Y6007D1*
X8838Y5991D1*
X26224Y15036D2*
X28174D1*
X28565Y15428D1*
Y16940D1*
X8629Y16942D2*
X9941D1*
Y17065D1*
Y17939D1*
X9940Y17940D1*
X11315Y17065D2*
X9941D1*
X7950Y9307D2*
X8920D1*
X9941Y10328D1*
X10804Y11191D1*
X12191D1*
X9941Y16942D2*
Y16331D1*
Y10328D1*
X17489Y15040D2*
Y15645D1*
X16803Y16331D1*
X9941D1*
X10566Y9691D2*
X11566D1*
X11942Y10066D1*
Y10941D1*
X12191Y11191D1*
X38940Y10940D2*
X38945D1*
X39444Y10441D1*
Y6440D1*
X39382Y6378D1*
X37007D1*
X36944Y6440D1*
Y6936D1*
X36940Y6940D1*
X35940D2*
Y6444D1*
X36007Y6378D1*
X37007D1*
X12589Y6690D2*
X9941D1*
Y10328D1*
X21505Y10253D2*
X20380D1*
X28628Y14315D2*
Y14753D1*
X28344Y15036D1*
X28174D1*
X8940Y17940D2*
Y18448D1*
X12913D1*
Y17889D1*
X15779Y12639D2*
X15899D1*
Y15441D1*
X21003Y11441D2*
X22440Y11443D1*
X24003Y8440D2*
Y7503D1*
X24065Y7440D1*
X25065D1*
Y6503D1*
X26440D1*
Y4940D1*
X25940D1*
X35940Y7940D2*
X36440Y7440D1*
X37440D1*
X37940Y6940D1*
X27381Y11816D2*
Y10753D1*
X26190Y7440D2*
Y7878D1*
X27190D1*
Y8940D1*
X18130Y16817D2*
Y14588D1*
X18442D1*
Y13879D1*
X25130Y16879D2*
Y13267D1*
X35940Y15940D2*
X36440Y16440D1*
X38440D1*
X38940Y15940D1*
X35940Y14940D2*
X36440Y15440D1*
X38440D1*
X38940Y14940D1*
X36940Y12940D2*
X37440Y13440D1*
X38440D1*
X38940Y13940D1*
X36940Y11940D2*
X37378Y12378D1*
X38378D1*
X38940Y12940D1*
X36940Y9940D2*
X37440Y9440D1*
X38440D1*
Y8628D1*
X38940Y8128D1*
Y7940D1*
X35940Y8940D2*
X36440Y8440D1*
X38253D1*
X38440Y8253D1*
Y7440D1*
X38940Y6940D1*
X36940Y17940D2*
X36378Y18503D1*
X29128D1*
X28565Y17940D1*
X11098Y12690D2*
X12579D1*
X12865Y12405D1*
X24940Y4940D2*
X25940Y5940D1*
X22940Y4940D2*
X23940Y5940D1*
Y4940D2*
X24940Y5940D1*
X29940Y6940D2*
D15*
X29297D1*
X25628D1*
Y7940D1*
X24815D1*
X29297Y14954D2*
D14*
Y6940D1*
X12815Y9440D2*
Y10503D1*
X13315Y11003D1*
Y13836D1*
X11423D1*
X14735Y17905D2*
X23940D1*
X23987Y17857D1*
Y13692D1*
X19436Y15972D2*
Y17259D1*
X14731D1*
D18*
X8854Y8090D3*
X8838Y5991D3*
X8629Y16942D3*
X11315Y17065D3*
X7950Y9307D3*
X12191Y11191D3*
X10566Y9691D3*
X12589Y6690D3*
X21505Y10253D3*
X20380D3*
X28628Y14315D3*
X12913Y17889D3*
X15779Y12639D3*
X15899Y15441D3*
X21003Y11441D3*
X22440Y11443D3*
X24003Y8440D3*
X27381Y11816D3*
Y10753D3*
X26190Y7440D3*
X27190Y8940D3*
X27381Y10753D3*
X18130Y16817D3*
X18442Y13879D3*
X25130Y16879D3*
Y13267D3*
X11098Y12690D3*
X12865Y12405D3*
X24815Y7940D3*
X29297Y14954D3*
X12815Y9440D3*
X11423Y13836D3*
X14735Y17905D3*
X23987Y13692D3*
X19436Y15972D3*
X14731Y17259D3*
X9940Y15940D3*
Y15440D3*
Y14940D3*
Y14440D3*
Y13940D3*
Y13440D3*
Y12940D3*
Y12440D3*
Y11940D3*
Y11440D3*
Y10940D3*
Y10440D3*
Y9940D3*
Y9440D3*
Y8940D3*
X16440Y15940D3*
Y15440D3*
Y14940D3*
Y14440D3*
Y13940D3*
Y13440D3*
Y12940D3*
Y12440D3*
Y11940D3*
Y11440D3*
Y10940D3*
Y10440D3*
Y9940D3*
Y9440D3*
Y8940D3*
X32256Y14504D3*
Y14004D3*
Y13504D3*
Y13004D3*
X32819Y14504D3*
Y14004D3*
Y13504D3*
Y13004D3*
X32256Y12504D3*
X32819D3*
X31381Y13754D3*
Y13254D3*
X8315Y9315D3*
X7628D3*
X11815Y11190D3*
X12565D3*
X4620Y17991D2*
D15*
X8212D1*
X11664D2*
X12330D1*
X13497D2*
X14150D1*
X24422D2*
X27840D1*
X29290D2*
X30616D1*
X37668D2*
X39261D1*
X4620Y17693D2*
X8212D1*
X11623D2*
X12354D1*
X13468D2*
X14183D1*
X24443D2*
X27885D1*
X29245D2*
X30616D1*
X37668D2*
X39261D1*
X4620Y17394D2*
X8212D1*
X11401D2*
X12617D1*
X13210D2*
X14155D1*
X19870D2*
X23530D1*
X24443D2*
X24875D1*
X25386D2*
X27840D1*
X29290D2*
X30616D1*
X4620Y17095D2*
X14163D1*
X19895D2*
X23530D1*
X25677D2*
X27840D1*
X29290D2*
X30616D1*
X4620Y16797D2*
X14384D1*
X15080D2*
X17538D1*
X18722D2*
X18977D1*
X19895D2*
X23530D1*
X25718D2*
X27840D1*
X29290D2*
X30616D1*
X4620Y16498D2*
X17636D1*
X18623D2*
X18977D1*
X19895D2*
X23530D1*
X24443D2*
X24674D1*
X25587D2*
X27840D1*
X29290D2*
X30616D1*
X4620Y16199D2*
X17673D1*
X18586D2*
X18891D1*
X19981D2*
X23530D1*
X24443D2*
X24674D1*
X25587D2*
X30616D1*
X4620Y15901D2*
X15545D1*
X16253D2*
X17673D1*
X18586D2*
X18850D1*
X20022D2*
X23530D1*
X24443D2*
X24674D1*
X25587D2*
X30616D1*
X4620Y15602D2*
X15332D1*
X16466D2*
X17046D1*
X18586D2*
X18981D1*
X19890D2*
X23530D1*
X24443D2*
X24674D1*
X25587D2*
X25789D1*
X26661D2*
X30616D1*
X4620Y15303D2*
X15323D1*
X16474D2*
X16812D1*
X18586D2*
X23530D1*
X24443D2*
X24674D1*
X26899D2*
X28828D1*
X29766D2*
X30616D1*
X4620Y15005D2*
X15442D1*
X16355D2*
X16763D1*
X18586D2*
X23530D1*
X24443D2*
X24674D1*
X26948D2*
X28709D1*
X29889D2*
X30616D1*
X4620Y14706D2*
X15442D1*
X16355D2*
X16849D1*
X18882D2*
X23530D1*
X24443D2*
X24674D1*
X26866D2*
X28763D1*
X29831D2*
X30616D1*
X4620Y14407D2*
X15442D1*
X16355D2*
X16865D1*
X18898D2*
X23530D1*
X24443D2*
X24674D1*
X26842D2*
X28840D1*
X4620Y14109D2*
X10902D1*
X13673D2*
X15442D1*
X16355D2*
X16767D1*
X18984D2*
X23530D1*
X24443D2*
X24674D1*
X26948D2*
X28840D1*
X4620Y13810D2*
X10833D1*
X13772D2*
X15442D1*
X16355D2*
X16800D1*
X19029D2*
X23407D1*
X26911D2*
X28840D1*
X4620Y13511D2*
X10935D1*
X13772D2*
X15442D1*
X16355D2*
X16763D1*
X18898D2*
X23427D1*
X26952D2*
X28840D1*
X4620Y13212D2*
X10861D1*
X11336D2*
X12859D1*
X13772D2*
X15442D1*
X16355D2*
X16763D1*
X18217D2*
X23665D1*
X24311D2*
X24543D1*
X26952D2*
X28840D1*
X4620Y12914D2*
X10554D1*
X13772D2*
X15258D1*
X16355D2*
X16763D1*
X18217D2*
X24661D1*
X26952D2*
X28840D1*
X4620Y12615D2*
X10513D1*
X13772D2*
X15188D1*
X16372D2*
X16763D1*
X18217D2*
X25498D1*
X26952D2*
X28115D1*
X28523D2*
X28840D1*
X4620Y12316D2*
X10648D1*
X13772D2*
X15291D1*
X16269D2*
X27093D1*
X4620Y12018D2*
X12428D1*
X13772D2*
X26827D1*
X38636D2*
X39261D1*
X4620Y11719D2*
X12859D1*
X13772D2*
X20482D1*
X22958D2*
X26798D1*
X37632D2*
X39261D1*
X4620Y11420D2*
X12859D1*
X13772D2*
X20413D1*
X23032D2*
X26925D1*
X4620Y11122D2*
X12801D1*
X13772D2*
X20511D1*
X22929D2*
X26925D1*
X4620Y10823D2*
X12502D1*
X13731D2*
X26794D1*
X4620Y10524D2*
X12358D1*
X13472D2*
X26839D1*
X4620Y10226D2*
X12358D1*
X13271D2*
X27159D1*
X4620Y9927D2*
X12358D1*
X13271D2*
X27594D1*
X4620Y9628D2*
X12256D1*
X13374D2*
X27594D1*
X4620Y9330D2*
X12235D1*
X13394D2*
X26757D1*
X4620Y9031D2*
X12399D1*
X13230D2*
X26605D1*
X4620Y8732D2*
X23493D1*
X24512D2*
X26638D1*
X4620Y8433D2*
X8380D1*
X9326D2*
X23411D1*
X25796D2*
X26732D1*
X30463D2*
X30616D1*
X4620Y8135D2*
X8265D1*
X9445D2*
X23501D1*
X4620Y7836D2*
X8323D1*
X9384D2*
X23546D1*
X4620Y7537D2*
X8397D1*
X9310D2*
X23546D1*
X4620Y7239D2*
X8397D1*
X9310D2*
X23636D1*
X4620Y6940D2*
X8397D1*
X9310D2*
X24608D1*
X4620Y6641D2*
X8397D1*
X9310D2*
X24608D1*
X4620Y6343D2*
X8368D1*
X9310D2*
X18215D1*
X20538D2*
X20712D1*
X23040D2*
X23214D1*
X27539D2*
X29214D1*
X36327D2*
X36550D1*
X37328D2*
X37551D1*
X4620Y6044D2*
X8249D1*
X9429D2*
X18215D1*
X27658D2*
X39261D1*
X4620Y5745D2*
X8302D1*
X9371D2*
X18215D1*
X27637D2*
X39261D1*
X4620Y5447D2*
X8671D1*
X9006D2*
X11214D1*
X27461D2*
X39261D1*
X4620Y5148D2*
X11214D1*
X26895D2*
X39261D1*
X4620Y4849D2*
X11214D1*
X26887D2*
X39261D1*
X37637Y18288D2*
Y17566D1*
X37808Y17624D1*
X37938Y17637D1*
X38069Y17625D1*
X38195Y17589D1*
X38312Y17530D1*
X38440Y17422D1*
X38502Y17481D1*
X38611Y17554D1*
X38731Y17605D1*
X38860Y17632D1*
X38991Y17635D1*
X39120Y17613D1*
X39243Y17568D1*
X39290Y17543D1*
Y18289D1*
X37640Y18290D1*
X37624Y11810D2*
X37588Y11684D1*
X37528Y11567D1*
X37421Y11439D1*
X37462Y11447D1*
X37565Y11527D1*
X37682Y11587D1*
X37808Y11624D1*
X37938Y11637D1*
X38069Y11625D1*
X38195Y11589D1*
X38312Y11530D1*
X38440Y11422D1*
X38502Y11481D1*
X38611Y11554D1*
X38731Y11605D1*
X38860Y11632D1*
X38991Y11635D1*
X39120Y11613D1*
X39243Y11568D1*
X39290Y11543D1*
Y12244D1*
X38845D1*
X38680Y12076D1*
X38574Y11999D1*
X38446Y11957D1*
X38246Y11951D1*
X37635D1*
X37624Y11810D1*
X37440Y6455D2*
X37328Y6362D1*
X37213Y6299D1*
X37088Y6259D1*
X36958Y6244D1*
X36828Y6253D1*
X36701Y6286D1*
X36583Y6342D1*
X36477Y6420D1*
X36440Y6456D1*
X36350Y6377D1*
X36237Y6310D1*
X36114Y6266D1*
X35985Y6245D1*
X35854Y6249D1*
X35761Y6267D1*
X35742Y6235D1*
X35650Y6142D1*
X35531Y6089D1*
X35313Y6078D1*
X31006D1*
X30878Y6102D1*
X30766Y6169D1*
X30685Y6272D1*
X30647Y6401D1*
X30644Y7359D1*
X30645Y18071D1*
X30341Y18076D1*
X29303D1*
X29260Y17987D1*
X29249Y17810D1*
X29213Y17684D1*
X29189Y17636D1*
X29262Y17637D1*
Y16244D1*
X27869D1*
Y17637D1*
X27938D1*
X27903Y17724D1*
X27874Y17852D1*
X27870Y17983D1*
X27890Y18112D1*
X27934Y18235D1*
X27965Y18288D1*
X24123Y18290D1*
X24205Y18240D1*
X24319Y18126D1*
X24368Y18052D1*
X24400Y17969D1*
X24414Y17857D1*
Y14056D1*
X24495Y13934D1*
X24537Y13810D1*
X24549Y13692D1*
X24534Y13562D1*
X24489Y13439D1*
X24417Y13330D1*
X24322Y13240D1*
X24208Y13175D1*
X24082Y13138D1*
X23952Y13131D1*
X23823Y13155D1*
X23703Y13207D1*
X23598Y13286D1*
X23515Y13387D1*
X23457Y13505D1*
X23429Y13633D1*
X23430Y13764D1*
X23462Y13891D1*
X23522Y14007D1*
X23562Y14053D1*
X23560Y17477D1*
X19802Y17478D1*
X19833Y17416D1*
X19863Y17259D1*
Y16336D1*
X19943Y16214D1*
X19986Y16090D1*
X19998Y15972D1*
X19983Y15842D1*
X19938Y15719D1*
X19866Y15609D1*
X19770Y15520D1*
X19657Y15455D1*
X19531Y15418D1*
X19400Y15411D1*
X19272Y15434D1*
X19152Y15487D1*
X19047Y15566D1*
X18964Y15667D1*
X18906Y15785D1*
X18877Y15912D1*
X18879Y16043D1*
X18910Y16170D1*
X18971Y16286D1*
X19011Y16333D1*
X19009Y16829D1*
X18694Y16832D1*
X18676Y16686D1*
X18631Y16563D1*
X18556Y16451D1*
X18557Y14999D1*
X18676Y14945D1*
X18773Y14858D1*
X18839Y14745D1*
X18869Y14588D1*
Y14248D1*
X18949Y14121D1*
X18992Y13997D1*
X19004Y13879D1*
X18989Y13749D1*
X18944Y13626D1*
X18872Y13516D1*
X18776Y13427D1*
X18663Y13362D1*
X18537Y13325D1*
X18406Y13318D1*
X18278Y13341D1*
X18184Y13383D1*
X18186Y12343D1*
X16792D1*
Y13737D1*
X16862D1*
X16827Y13824D1*
X16798Y13951D1*
X16794Y14082D1*
X16814Y14212D1*
X16858Y14335D1*
X16924Y14448D1*
X17003Y14537D1*
X16906Y14658D1*
X16845Y14774D1*
X16807Y14900D1*
X16792Y15030D1*
X16803Y15161D1*
X16837Y15287D1*
X16895Y15405D1*
X16974Y15509D1*
X17071Y15597D1*
X17183Y15666D1*
X17305Y15712D1*
X17434Y15735D1*
X17565Y15732D1*
X17702Y15703D1*
X17703Y16454D1*
X17657Y16512D1*
X17600Y16629D1*
X17571Y16757D1*
X17572Y16835D1*
X15762Y16832D1*
X15093D1*
X14952Y16742D1*
X14826Y16705D1*
X14696Y16698D1*
X14567Y16722D1*
X14447Y16774D1*
X14343Y16853D1*
X14259Y16954D1*
X14202Y17072D1*
X14173Y17200D1*
X14174Y17331D1*
X14206Y17458D1*
X14274Y17583D1*
X14206Y17718D1*
X14177Y17845D1*
X14178Y17976D1*
X14210Y18103D1*
X14270Y18220D1*
X14331Y18291D1*
X13337Y18290D1*
X13350Y18242D1*
X13420Y18131D1*
X13462Y18007D1*
X13475Y17889D1*
X13459Y17759D1*
X13414Y17636D1*
X13342Y17527D1*
X13247Y17437D1*
X13133Y17372D1*
X13008Y17335D1*
X12877Y17328D1*
X12748Y17352D1*
X12628Y17404D1*
X12524Y17483D1*
X12440Y17584D1*
X12383Y17702D1*
X12354Y17830D1*
X12355Y17960D1*
X12370Y18020D1*
X11629Y18021D1*
X11637Y17940D1*
X11624Y17810D1*
X11588Y17684D1*
X11528Y17567D1*
X11448Y17464D1*
X11350Y17377D1*
X11237Y17310D1*
X11114Y17266D1*
X10985Y17245D1*
X10854Y17249D1*
X10726Y17277D1*
X10605Y17329D1*
X10497Y17403D1*
X10442Y17458D1*
X10350Y17377D1*
X10237Y17310D1*
X10114Y17266D1*
X9985Y17245D1*
X9854Y17249D1*
X9726Y17277D1*
X9637Y17313D1*
Y17244D1*
X8244D1*
Y18289D1*
X4594Y18290D1*
X4590Y17128D1*
Y4591D1*
X11244Y4590D1*
Y5637D1*
X12637D1*
Y5567D1*
X12808Y5624D1*
X12938Y5637D1*
X13069Y5625D1*
X13195Y5589D1*
X13312Y5530D1*
X13440Y5422D1*
X13565Y5527D1*
X13682Y5587D1*
X13808Y5624D1*
X13938Y5637D1*
X14069Y5625D1*
X14195Y5589D1*
X14312Y5530D1*
X14440Y5422D1*
X14502Y5481D1*
X14611Y5554D1*
X14731Y5605D1*
X14860Y5632D1*
X14991Y5635D1*
X15120Y5613D1*
X15243Y5568D1*
X15355Y5500D1*
X15440Y5425D1*
X15544Y5513D1*
X15658Y5577D1*
X15782Y5619D1*
X15912Y5636D1*
X16043Y5629D1*
X16170Y5598D1*
X16289Y5543D1*
X16396Y5467D1*
X16440Y5425D1*
X16565Y5527D1*
X16682Y5587D1*
X16808Y5624D1*
X16938Y5637D1*
X17069Y5625D1*
X17195Y5589D1*
X17312Y5530D1*
X17440Y5422D1*
X17565Y5527D1*
X17682Y5587D1*
X17808Y5624D1*
X17938Y5637D1*
X18069Y5625D1*
X18195Y5589D1*
X18242Y5565D1*
X18244Y6637D1*
X19637D1*
Y6567D1*
X19808Y6624D1*
X19938Y6637D1*
X20069Y6625D1*
X20195Y6589D1*
X20312Y6530D1*
X20415Y6450D1*
X20502Y6352D1*
X20569Y6239D1*
X20614Y6116D1*
X20637Y5940D1*
X20624Y5810D1*
X20588Y5684D1*
X20528Y5567D1*
X20421Y5439D1*
X20462Y5447D1*
X20565Y5527D1*
X20682Y5587D1*
X20741Y5604D1*
X20744Y6637D1*
X22137D1*
Y6567D1*
X22257Y6612D1*
X22386Y6635D1*
X22517Y6633D1*
X22645Y6606D1*
X22766Y6556D1*
X22876Y6484D1*
X22970Y6393D1*
X23045Y6286D1*
X23099Y6166D1*
X23130Y6039D1*
X23136Y5914D1*
X23119Y5784D1*
X23093Y5697D1*
X23244Y5848D1*
Y6637D1*
X24637D1*
Y6567D1*
X24638Y7015D1*
X24065Y7013D1*
X23936Y7033D1*
X23797Y7108D1*
X23662Y7245D1*
X23605Y7348D1*
X23577Y7474D1*
X23576Y8073D1*
X23530Y8135D1*
X23473Y8253D1*
X23444Y8381D1*
X23445Y8512D1*
X23477Y8639D1*
X23537Y8755D1*
X23623Y8854D1*
X23729Y8931D1*
X23850Y8981D1*
X23979Y9002D1*
X24110Y8992D1*
X24234Y8952D1*
X24347Y8885D1*
X24440Y8793D1*
X24510Y8682D1*
X24552Y8558D1*
X24564Y8444D1*
X24662Y8481D1*
X24791Y8502D1*
X24922Y8492D1*
X25050Y8450D1*
X25628Y8452D1*
X25757Y8435D1*
X25879Y8386D1*
X26034Y8275D1*
X26190Y8305D1*
X26760D1*
X26763Y8571D1*
X26718Y8635D1*
X26660Y8753D1*
X26631Y8881D1*
X26633Y9012D1*
X26664Y9139D1*
X26725Y9255D1*
X26810Y9354D1*
X26916Y9431D1*
X27037Y9481D1*
X27166Y9502D1*
X27297Y9492D1*
X27422Y9452D1*
X27534Y9385D1*
X27625Y9296D1*
X27622Y9637D1*
X27691D1*
X27656Y9724D1*
X27627Y9852D1*
X27623Y9983D1*
X27643Y10113D1*
X27687Y10236D1*
X27735Y10317D1*
X27601Y10236D1*
X27476Y10199D1*
X27345Y10193D1*
X27216Y10216D1*
X27096Y10269D1*
X26992Y10348D1*
X26908Y10449D1*
X26851Y10566D1*
X26822Y10694D1*
X26823Y10825D1*
X26855Y10952D1*
X26915Y11068D1*
X26955Y11115D1*
X26954Y11455D1*
X26908Y11511D1*
X26851Y11629D1*
X26822Y11757D1*
X26823Y11887D1*
X26855Y12015D1*
X26915Y12131D1*
X27001Y12230D1*
X27107Y12307D1*
X27228Y12357D1*
X27357Y12377D1*
X27488Y12368D1*
X27612Y12328D1*
X27707Y12271D1*
X27754Y12349D1*
X27840Y12447D1*
X27943Y12528D1*
X28060Y12588D1*
X28186Y12625D1*
X28316Y12637D1*
X28447Y12625D1*
X28573Y12589D1*
X28690Y12530D1*
X28793Y12450D1*
X28872Y12361D1*
X28870Y14589D1*
X28825Y14649D1*
X28767Y14767D1*
X28738Y14894D1*
X28740Y15025D1*
X28771Y15152D1*
X28832Y15269D1*
X28917Y15368D1*
X29023Y15445D1*
X29144Y15495D1*
X29274Y15515D1*
X29404Y15506D1*
X29529Y15466D1*
X29641Y15398D1*
X29735Y15307D1*
X29804Y15196D1*
X29847Y15072D1*
X29859Y14954D1*
X29844Y14824D1*
X29799Y14701D1*
X29738Y14609D1*
X29886Y14635D1*
X30017Y14633D1*
X30145Y14606D1*
X30266Y14556D1*
X30376Y14484D1*
X30470Y14393D1*
X30545Y14286D1*
X30599Y14166D1*
X30630Y14039D1*
X30636Y13914D1*
X30619Y13784D1*
X30578Y13660D1*
X30514Y13545D1*
X30425Y13440D1*
X30502Y13352D1*
X30569Y13239D1*
X30614Y13116D1*
X30637Y12940D1*
X30624Y12810D1*
X30588Y12684D1*
X30528Y12567D1*
X30421Y12439D1*
X30502Y12352D1*
X30569Y12239D1*
X30614Y12116D1*
X30637Y11940D1*
X30624Y11810D1*
X30588Y11684D1*
X30528Y11567D1*
X30421Y11439D1*
X30502Y11352D1*
X30569Y11239D1*
X30614Y11116D1*
X30637Y10940D1*
X30624Y10810D1*
X30588Y10684D1*
X30528Y10567D1*
X30421Y10439D1*
X30502Y10352D1*
X30569Y10239D1*
X30614Y10116D1*
X30637Y9940D1*
X30624Y9810D1*
X30588Y9684D1*
X30528Y9567D1*
X30421Y9439D1*
X30502Y9352D1*
X30569Y9239D1*
X30614Y9116D1*
X30637Y8940D1*
X30624Y8810D1*
X30588Y8684D1*
X30528Y8567D1*
X30421Y8439D1*
X30470Y8393D1*
X30545Y8286D1*
X30599Y8166D1*
X30630Y8039D1*
X30636Y7914D1*
X30619Y7784D1*
X30578Y7660D1*
X30567Y7637D1*
X30637D1*
Y6244D1*
X29244D1*
Y6428D1*
X27439D1*
X27532Y6308D1*
X27590Y6191D1*
X27626Y6065D1*
X27637Y5940D1*
X27624Y5810D1*
X27588Y5684D1*
X27528Y5567D1*
X27448Y5464D1*
X27350Y5377D1*
X27237Y5310D1*
X27114Y5266D1*
X26985Y5245D1*
X26867Y5247D1*
Y4940D1*
X26847Y4811D1*
X26789Y4694D1*
X26706Y4607D1*
X26750Y4590D1*
X39287D1*
X39290Y5752D1*
Y6241D1*
X38324Y6244D1*
X38244D1*
Y6313D1*
X38114Y6266D1*
X37985Y6245D1*
X37854Y6249D1*
X37726Y6277D1*
X37605Y6329D1*
X37497Y6403D1*
X37442Y6458D1*
X26852Y13733D2*
X26921D1*
Y12340D1*
X25527D1*
Y12869D1*
X25465Y12815D1*
X25351Y12750D1*
X25225Y12713D1*
X25095Y12706D1*
X24966Y12730D1*
X24846Y12782D1*
X24741Y12861D1*
X24658Y12962D1*
X24600Y13080D1*
X24572Y13208D1*
X24573Y13338D1*
X24605Y13465D1*
X24665Y13582D1*
X24705Y13628D1*
X24703Y16511D1*
X24658Y16574D1*
X24600Y16692D1*
X24572Y16820D1*
X24573Y16951D1*
X24605Y17078D1*
X24665Y17194D1*
X24750Y17293D1*
X24856Y17370D1*
X24977Y17420D1*
X25107Y17441D1*
X25237Y17431D1*
X25362Y17391D1*
X25474Y17324D1*
X25568Y17232D1*
X25638Y17121D1*
X25680Y16997D1*
X25692Y16879D1*
X25677Y16749D1*
X25632Y16626D1*
X25557Y16514D1*
Y15234D1*
X25604Y15355D1*
X25675Y15465D1*
X25765Y15560D1*
X25871Y15637D1*
X25990Y15692D1*
X26117Y15725D1*
X26248Y15732D1*
X26378Y15716D1*
X26503Y15675D1*
X26617Y15611D1*
X26718Y15527D1*
X26801Y15426D1*
X26864Y15311D1*
X26904Y15186D1*
X26920Y15056D1*
X26913Y14932D1*
X26881Y14804D1*
X26826Y14686D1*
X26750Y14579D1*
X26708Y14536D1*
X26786Y14448D1*
X26853Y14335D1*
X26898Y14212D1*
X26921Y14036D1*
X26908Y13906D1*
X26872Y13780D1*
X26848Y13732D1*
X9281Y7725D2*
Y6339D1*
X9345Y6233D1*
X9387Y6110D1*
X9400Y5991D1*
X9385Y5861D1*
X9340Y5738D1*
X9267Y5629D1*
X9172Y5539D1*
X9058Y5474D1*
X8933Y5437D1*
X8802Y5430D1*
X8673Y5454D1*
X8553Y5507D1*
X8449Y5586D1*
X8366Y5687D1*
X8308Y5804D1*
X8279Y5932D1*
X8280Y6063D1*
X8312Y6190D1*
X8372Y6306D1*
X8428Y6371D1*
X8427Y7725D1*
X8381Y7785D1*
X8324Y7903D1*
X8295Y8030D1*
X8296Y8161D1*
X8328Y8288D1*
X8388Y8405D1*
X8473Y8504D1*
X8580Y8580D1*
X8701Y8631D1*
X8830Y8651D1*
X8960Y8642D1*
X9085Y8602D1*
X9197Y8534D1*
X9291Y8443D1*
X9361Y8332D1*
X9403Y8208D1*
X9416Y8090D1*
X9400Y7960D1*
X9355Y7837D1*
X9280Y7725D1*
X15472Y13111D2*
Y15071D1*
X15426Y15136D1*
X15369Y15254D1*
X15340Y15381D1*
X15341Y15512D1*
X15373Y15639D1*
X15433Y15755D1*
X15519Y15855D1*
X15625Y15931D1*
X15746Y15981D1*
X15875Y16002D1*
X16005Y15992D1*
X16130Y15953D1*
X16242Y15885D1*
X16336Y15794D1*
X16406Y15683D1*
X16448Y15559D1*
X16461Y15441D1*
X16445Y15311D1*
X16400Y15188D1*
X16325Y15076D1*
X16329Y12758D1*
X16341Y12639D1*
X16326Y12509D1*
X16281Y12386D1*
X16209Y12277D1*
X16113Y12188D1*
X16000Y12123D1*
X15874Y12086D1*
X15743Y12079D1*
X15615Y12102D1*
X15495Y12155D1*
X15390Y12234D1*
X15307Y12335D1*
X15249Y12452D1*
X15220Y12580D1*
X15222Y12711D1*
X15253Y12838D1*
X15314Y12954D1*
X15399Y13053D1*
X15469Y13104D1*
X21367Y11869D2*
X22072Y11870D1*
X22166Y11934D1*
X22287Y11984D1*
X22416Y12005D1*
X22547Y11995D1*
X22672Y11955D1*
X22784Y11888D1*
X22878Y11796D1*
X22947Y11686D1*
X22990Y11562D1*
X23002Y11443D1*
X22987Y11313D1*
X22942Y11190D1*
X22870Y11081D1*
X22774Y10992D1*
X22661Y10926D1*
X22535Y10889D1*
X22404Y10883D1*
X22276Y10906D1*
X22156Y10959D1*
X22081Y11016D1*
X21371Y11015D1*
X21223Y10924D1*
X21098Y10887D1*
X20967Y10880D1*
X20838Y10904D1*
X20718Y10956D1*
X20614Y11035D1*
X20530Y11136D1*
X20473Y11254D1*
X20444Y11382D1*
X20445Y11512D1*
X20477Y11639D1*
X20537Y11756D1*
X20623Y11855D1*
X20729Y11932D1*
X20850Y11982D1*
X20979Y12002D1*
X21110Y11993D1*
X21234Y11953D1*
X21361Y11871D1*
X27736Y10321D2*
X27601Y10236D1*
X27476Y10199D1*
X27345Y10193D1*
X27216Y10216D1*
X27096Y10269D1*
X26992Y10348D1*
X26908Y10449D1*
X26851Y10566D1*
X26822Y10694D1*
X26823Y10825D1*
X26855Y10952D1*
X26915Y11068D1*
X26955Y11115D1*
X11463Y13117D2*
X12579D1*
X12709Y13097D1*
X12829Y13036D1*
X12890Y12983D1*
X12888Y13410D1*
X11785Y13409D1*
X11643Y13319D1*
X11518Y13282D1*
X11387Y13275D1*
X11258Y13299D1*
X11138Y13351D1*
X11034Y13430D1*
X10950Y13531D1*
X10893Y13649D1*
X10864Y13777D1*
X10865Y13908D1*
X10897Y14035D1*
X10957Y14151D1*
X11043Y14250D1*
X11149Y14327D1*
X11270Y14377D1*
X11399Y14398D1*
X11530Y14388D1*
X11654Y14348D1*
X11787Y14261D1*
X13129Y14263D1*
X13315D1*
X13444Y14243D1*
X13561Y14185D1*
X13655Y14094D1*
X13717Y13979D1*
X13742Y13836D1*
Y11003D1*
X13722Y10873D1*
X13661Y10753D1*
X13524Y10608D1*
X13243Y10327D1*
X13242Y9801D1*
X13322Y9682D1*
X13365Y9558D1*
X13377Y9440D1*
X13362Y9310D1*
X13317Y9187D1*
X13245Y9078D1*
X13149Y8988D1*
X13036Y8923D1*
X12910Y8886D1*
X12779Y8879D1*
X12651Y8903D1*
X12531Y8955D1*
X12426Y9034D1*
X12343Y9135D1*
X12285Y9253D1*
X12256Y9381D1*
X12258Y9512D1*
X12289Y9639D1*
X12350Y9755D1*
X12390Y9801D1*
X12388Y10503D1*
X12408Y10632D1*
X12469Y10752D1*
X12606Y10897D1*
X12887Y11179D1*
X12888Y11843D1*
X12829Y11844D1*
X12700Y11868D1*
X12580Y11920D1*
X12476Y11999D1*
X12392Y12100D1*
X12335Y12218D1*
X12325Y12262D1*
X11460Y12263D1*
X11318Y12173D1*
X11193Y12136D1*
X11062Y12129D1*
X10933Y12153D1*
X10813Y12205D1*
X10709Y12284D1*
X10626Y12385D1*
X10568Y12503D1*
X10539Y12631D1*
X10541Y12762D1*
X10572Y12889D1*
X10632Y13005D1*
X10718Y13104D1*
X10824Y13181D1*
X10945Y13231D1*
X11074Y13252D1*
X11205Y13242D1*
X11330Y13202D1*
X11462Y13115D1*
X36940Y6940D2*
D18*
Y6244D1*
X35940Y6940D2*
Y6244D1*
X22440Y6636D2*
Y5940D1*
X23136D1*
X38940Y11636D2*
Y10940D1*
Y17636D2*
Y16940D1*
X9940Y17940D2*
Y17244D1*
X17489Y15736D2*
Y15040D1*
X16793D2*
X17489D1*
X26224Y15732D2*
Y15036D1*
X26920D1*
X28565Y16940D2*
Y16244D1*
X27869Y16940D2*
X29261D1*
X29940Y7940D2*
X30636D1*
X29940Y14636D2*
Y13940D1*
X30636D1*
X26940Y5940D2*
Y5244D1*
Y5940D2*
X27636D1*
X14940Y5636D2*
Y4940D1*
X15940Y5636D2*
Y4940D1*
X31186Y17618D2*
D15*
X33216D1*
X34666D2*
X35266D1*
X31186Y17319D2*
X33216D1*
X34666D2*
X35266D1*
X31186Y17021D2*
X33216D1*
X34666D2*
X35217D1*
X31186Y16722D2*
X33216D1*
X34666D2*
X35250D1*
X31186Y16423D2*
X33216D1*
X34666D2*
X35266D1*
X31186Y16125D2*
X35237D1*
X31186Y15826D2*
X35225D1*
X31186Y15527D2*
X35266D1*
X31186Y15228D2*
X35266D1*
X31186Y14930D2*
X35213D1*
X31186Y14631D2*
X34823D1*
X35059D2*
X35266D1*
X31186Y14332D2*
X34335D1*
X31186Y14034D2*
X34220D1*
X31186Y13735D2*
X34245D1*
X31186Y13436D2*
X34421D1*
X31186Y13138D2*
X34241D1*
X31186Y12839D2*
X34220D1*
X31186Y12540D2*
X34339D1*
X31186Y12242D2*
X34282D1*
X31186Y11943D2*
X34212D1*
X31186Y11644D2*
X34278D1*
X31186Y11346D2*
X34343D1*
X31186Y11047D2*
X34220D1*
X31186Y10748D2*
X34241D1*
X31186Y10449D2*
X34417D1*
X31186Y10151D2*
X34245D1*
X31186Y9852D2*
X34220D1*
X31186Y9553D2*
X34331D1*
X31186Y9255D2*
X34290D1*
X31186Y8956D2*
X34212D1*
X31186Y8657D2*
X34274D1*
X31186Y8359D2*
X34351D1*
X31186Y8060D2*
X34224D1*
X31186Y7761D2*
X34237D1*
X31186Y7463D2*
X34212D1*
X31186Y7164D2*
X34212D1*
X31186Y6865D2*
X34212D1*
X35293Y17690D2*
X35249Y17852D1*
X35247Y17913D1*
X34636Y17917D1*
X34624Y17810D1*
X34588Y17684D1*
X34564Y17636D1*
X34637Y17637D1*
Y16244D1*
X33244D1*
Y17637D1*
X33313D1*
X33278Y17724D1*
X33249Y17852D1*
X33247Y17913D1*
X32688Y17917D1*
X31158D1*
X31156Y15180D1*
Y6588D1*
X33237Y6590D1*
X34242D1*
X34244Y7637D1*
X34313D1*
X34278Y7724D1*
X34249Y7852D1*
X34245Y7983D1*
X34265Y8112D1*
X34309Y8235D1*
X34376Y8348D1*
X34454Y8438D1*
X34330Y8604D1*
X34278Y8724D1*
X34249Y8852D1*
X34245Y8983D1*
X34265Y9112D1*
X34309Y9235D1*
X34376Y9348D1*
X34454Y9438D1*
X34330Y9604D1*
X34278Y9724D1*
X34249Y9852D1*
X34245Y9983D1*
X34265Y10112D1*
X34309Y10235D1*
X34376Y10348D1*
X34454Y10438D1*
X34330Y10604D1*
X34278Y10724D1*
X34249Y10852D1*
X34245Y10983D1*
X34265Y11112D1*
X34309Y11235D1*
X34376Y11348D1*
X34454Y11438D1*
X34330Y11604D1*
X34278Y11724D1*
X34249Y11852D1*
X34245Y11983D1*
X34265Y12112D1*
X34309Y12235D1*
X34376Y12348D1*
X34454Y12438D1*
X34330Y12604D1*
X34278Y12724D1*
X34249Y12852D1*
X34245Y12983D1*
X34265Y13112D1*
X34309Y13235D1*
X34376Y13348D1*
X34454Y13438D1*
X34330Y13604D1*
X34278Y13724D1*
X34249Y13852D1*
X34245Y13983D1*
X34265Y14112D1*
X34309Y14235D1*
X34376Y14348D1*
X34462Y14447D1*
X34565Y14527D1*
X34682Y14587D1*
X34808Y14624D1*
X34938Y14637D1*
X35069Y14625D1*
X35195Y14589D1*
X35293Y14539D1*
X35294Y14679D1*
X35249Y14852D1*
X35245Y14983D1*
X35265Y15112D1*
X35294Y15193D1*
Y15680D1*
X35249Y15852D1*
X35245Y15983D1*
X35265Y16112D1*
X35294Y16193D1*
Y16681D1*
X35249Y16852D1*
X35245Y16983D1*
X35265Y17112D1*
X35294Y17202D1*
Y17681D1*
D29*
X36940Y17940D3*
D30*
X35940D3*
X36940Y16940D3*
X35940D3*
X36940Y15940D3*
X35940D3*
X36940Y14940D3*
X35940D3*
X36940Y13940D3*
X35940D3*
X36940Y12940D3*
X35940D3*
X36940Y11940D3*
X35940D3*
X36940Y10940D3*
X35940D3*
X36940Y9940D3*
X35940D3*
X36940Y8940D3*
X35940D3*
X36940Y7940D3*
X35940D3*
X36940Y6940D3*
X35940D3*
D29*
X21440Y5940D3*
D30*
X22440D3*
D29*
X38940Y6940D3*
D30*
X37940D3*
X38940Y7940D3*
X37940D3*
X38940Y8940D3*
X37940D3*
X38940Y9940D3*
X37940D3*
X38940Y10940D3*
X37940D3*
D29*
X38940Y12940D3*
D30*
X37940D3*
X38940Y13940D3*
X37940D3*
X38940Y14940D3*
X37940D3*
X38940Y15940D3*
X37940D3*
X38940Y16940D3*
X37940D3*
D29*
X8940Y17940D3*
D30*
X9940D3*
X10940D3*
D29*
X17489Y13040D3*
D30*
Y14040D3*
Y15040D3*
D29*
X26224Y13036D3*
D30*
Y14036D3*
Y15036D3*
D29*
X33940Y16940D3*
D30*
Y17940D3*
D29*
X28565Y16940D3*
D30*
Y17940D3*
D29*
X28318Y8941D3*
D30*
Y9941D3*
Y10941D3*
Y11941D3*
D29*
X34940Y6940D3*
D30*
Y7940D3*
Y8940D3*
Y9940D3*
Y10940D3*
Y11940D3*
Y12940D3*
Y13940D3*
D29*
X29940Y6940D3*
D30*
Y7940D3*
Y8940D3*
Y9940D3*
Y10940D3*
Y11940D3*
Y12940D3*
Y13940D3*
D29*
X18940Y5940D3*
D30*
X19940D3*
D29*
X23940D3*
D30*
X24940D3*
X25940D3*
X26940D3*
D29*
X11940Y4940D3*
D30*
X12940D3*
X13940D3*
X14940D3*
X15940D3*
X16940D3*
X17940D3*
X18940D3*
X19940D3*
X20940D3*
X21940D3*
X22940D3*
X23940D3*
X24940D3*
X25940D3*
X45854Y8090D2*
D14*
Y6007D1*
X45838Y5991D1*
X63224Y15036D2*
X65174D1*
X65565Y15428D1*
Y16940D1*
X45629Y16942D2*
X46941D1*
Y17065D1*
Y17939D1*
X46940Y17940D1*
X48315Y17065D2*
X46941D1*
X44950Y9307D2*
X45920D1*
X46941Y10328D1*
X47804Y11191D1*
X49191D1*
X46941Y16942D2*
Y16331D1*
Y10328D1*
X54489Y15040D2*
Y15645D1*
X53803Y16331D1*
X46941D1*
X47566Y9691D2*
X48566D1*
X48942Y10066D1*
Y10941D1*
X49191Y11191D1*
X75940Y10940D2*
X75945D1*
X76444Y10441D1*
Y6440D1*
X76382Y6378D1*
X74007D1*
X73944Y6440D1*
Y6936D1*
X73940Y6940D1*
X72940D2*
Y6444D1*
X73007Y6378D1*
X74007D1*
X49589Y6690D2*
X46941D1*
Y10328D1*
X58505Y10253D2*
X57380D1*
X65628Y14315D2*
Y14753D1*
X65344Y15036D1*
X65174D1*
X45940Y17940D2*
Y18448D1*
X49913D1*
Y17889D1*
X52779Y12639D2*
X52899D1*
Y15441D1*
X58003Y11441D2*
X59440Y11443D1*
X61003Y8440D2*
Y7503D1*
X61065Y7440D1*
X62065D1*
Y6503D1*
X63440D1*
Y4940D1*
X62940D1*
X72940Y7940D2*
X73440Y7440D1*
X74440D1*
X74940Y6940D1*
X64381Y11816D2*
Y10753D1*
X63190Y7440D2*
Y7878D1*
X64190D1*
Y8940D1*
X55130Y16817D2*
Y14588D1*
X55442D1*
Y13879D1*
X62130Y16879D2*
Y13267D1*
X72940Y15940D2*
X73440Y16440D1*
X75440D1*
X75940Y15940D1*
X72940Y14940D2*
X73440Y15440D1*
X75440D1*
X75940Y14940D1*
X73940Y12940D2*
X74440Y13440D1*
X75440D1*
X75940Y13940D1*
X73940Y11940D2*
X74378Y12378D1*
X75378D1*
X75940Y12940D1*
X73940Y9940D2*
X74440Y9440D1*
X75440D1*
Y8628D1*
X75940Y8128D1*
Y7940D1*
X72940Y8940D2*
X73440Y8440D1*
X75253D1*
X75440Y8253D1*
Y7440D1*
X75940Y6940D1*
X73940Y17940D2*
X73378Y18503D1*
X66128D1*
X65565Y17940D1*
X48098Y12690D2*
X49579D1*
X49865Y12405D1*
X61940Y4940D2*
X62940Y5940D1*
X59940Y4940D2*
X60940Y5940D1*
Y4940D2*
X61940Y5940D1*
X66940Y6940D2*
D15*
X66297D1*
X62628D1*
Y7940D1*
X61815D1*
X66297Y14954D2*
D14*
Y6940D1*
X49815Y9440D2*
Y10503D1*
X50315Y11003D1*
Y13836D1*
X48423D1*
X51735Y17905D2*
X60940D1*
X60987Y17857D1*
Y13692D1*
X56436Y15972D2*
Y17259D1*
X51731D1*
D18*
X45854Y8090D3*
X45838Y5991D3*
X45629Y16942D3*
X48315Y17065D3*
X44950Y9307D3*
X49191Y11191D3*
X47566Y9691D3*
X49589Y6690D3*
X58505Y10253D3*
X57380D3*
X65628Y14315D3*
X49913Y17889D3*
X52779Y12639D3*
X52899Y15441D3*
X58003Y11441D3*
X59440Y11443D3*
X61003Y8440D3*
X64381Y11816D3*
Y10753D3*
X63190Y7440D3*
X64190Y8940D3*
X64381Y10753D3*
X55130Y16817D3*
X55442Y13879D3*
X62130Y16879D3*
Y13267D3*
X48098Y12690D3*
X49865Y12405D3*
X61815Y7940D3*
X66297Y14954D3*
X49815Y9440D3*
X48423Y13836D3*
X51735Y17905D3*
X60987Y13692D3*
X56436Y15972D3*
X51731Y17259D3*
X46940Y15940D3*
Y15440D3*
Y14940D3*
Y14440D3*
Y13940D3*
Y13440D3*
Y12940D3*
Y12440D3*
Y11940D3*
Y11440D3*
Y10940D3*
Y10440D3*
Y9940D3*
Y9440D3*
Y8940D3*
X53440Y15940D3*
Y15440D3*
Y14940D3*
Y14440D3*
Y13940D3*
Y13440D3*
Y12940D3*
Y12440D3*
Y11940D3*
Y11440D3*
Y10940D3*
Y10440D3*
Y9940D3*
Y9440D3*
Y8940D3*
X69256Y14504D3*
Y14004D3*
Y13504D3*
Y13004D3*
X69819Y14504D3*
Y14004D3*
Y13504D3*
Y13004D3*
X69256Y12504D3*
X69819D3*
X68381Y13754D3*
Y13254D3*
X45315Y9315D3*
X44628D3*
X48815Y11190D3*
X49565D3*
X41620Y17991D2*
D15*
X45212D1*
X48664D2*
X49330D1*
X50497D2*
X51150D1*
X61422D2*
X64840D1*
X66290D2*
X67616D1*
X74668D2*
X76261D1*
X41620Y17693D2*
X45212D1*
X48623D2*
X49354D1*
X50468D2*
X51183D1*
X61443D2*
X64885D1*
X66245D2*
X67616D1*
X74668D2*
X76261D1*
X41620Y17394D2*
X45212D1*
X48401D2*
X49617D1*
X50210D2*
X51155D1*
X56870D2*
X60530D1*
X61443D2*
X61875D1*
X62386D2*
X64840D1*
X66290D2*
X67616D1*
X41620Y17095D2*
X51163D1*
X56895D2*
X60530D1*
X62677D2*
X64840D1*
X66290D2*
X67616D1*
X41620Y16797D2*
X51384D1*
X52080D2*
X54538D1*
X55722D2*
X55977D1*
X56895D2*
X60530D1*
X62718D2*
X64840D1*
X66290D2*
X67616D1*
X41620Y16498D2*
X54636D1*
X55623D2*
X55977D1*
X56895D2*
X60530D1*
X61443D2*
X61674D1*
X62587D2*
X64840D1*
X66290D2*
X67616D1*
X41620Y16199D2*
X54673D1*
X55586D2*
X55891D1*
X56981D2*
X60530D1*
X61443D2*
X61674D1*
X62587D2*
X67616D1*
X41620Y15901D2*
X52545D1*
X53253D2*
X54673D1*
X55586D2*
X55850D1*
X57022D2*
X60530D1*
X61443D2*
X61674D1*
X62587D2*
X67616D1*
X41620Y15602D2*
X52332D1*
X53466D2*
X54046D1*
X55586D2*
X55981D1*
X56890D2*
X60530D1*
X61443D2*
X61674D1*
X62587D2*
X62789D1*
X63661D2*
X67616D1*
X41620Y15303D2*
X52323D1*
X53474D2*
X53812D1*
X55586D2*
X60530D1*
X61443D2*
X61674D1*
X63899D2*
X65828D1*
X66766D2*
X67616D1*
X41620Y15005D2*
X52442D1*
X53355D2*
X53763D1*
X55586D2*
X60530D1*
X61443D2*
X61674D1*
X63948D2*
X65709D1*
X66889D2*
X67616D1*
X41620Y14706D2*
X52442D1*
X53355D2*
X53849D1*
X55882D2*
X60530D1*
X61443D2*
X61674D1*
X63866D2*
X65763D1*
X66831D2*
X67616D1*
X41620Y14407D2*
X52442D1*
X53355D2*
X53865D1*
X55898D2*
X60530D1*
X61443D2*
X61674D1*
X63842D2*
X65840D1*
X41620Y14109D2*
X47902D1*
X50673D2*
X52442D1*
X53355D2*
X53767D1*
X55984D2*
X60530D1*
X61443D2*
X61674D1*
X63948D2*
X65840D1*
X41620Y13810D2*
X47833D1*
X50772D2*
X52442D1*
X53355D2*
X53800D1*
X56029D2*
X60407D1*
X63911D2*
X65840D1*
X41620Y13511D2*
X47935D1*
X50772D2*
X52442D1*
X53355D2*
X53763D1*
X55898D2*
X60427D1*
X63952D2*
X65840D1*
X41620Y13212D2*
X47861D1*
X48336D2*
X49859D1*
X50772D2*
X52442D1*
X53355D2*
X53763D1*
X55217D2*
X60665D1*
X61311D2*
X61543D1*
X63952D2*
X65840D1*
X41620Y12914D2*
X47554D1*
X50772D2*
X52258D1*
X53355D2*
X53763D1*
X55217D2*
X61661D1*
X63952D2*
X65840D1*
X41620Y12615D2*
X47513D1*
X50772D2*
X52188D1*
X53372D2*
X53763D1*
X55217D2*
X62498D1*
X63952D2*
X65115D1*
X65523D2*
X65840D1*
X41620Y12316D2*
X47648D1*
X50772D2*
X52291D1*
X53269D2*
X64093D1*
X41620Y12018D2*
X49428D1*
X50772D2*
X63827D1*
X75636D2*
X76261D1*
X41620Y11719D2*
X49859D1*
X50772D2*
X57482D1*
X59958D2*
X63798D1*
X74632D2*
X76261D1*
X41620Y11420D2*
X49859D1*
X50772D2*
X57413D1*
X60032D2*
X63925D1*
X41620Y11122D2*
X49801D1*
X50772D2*
X57511D1*
X59929D2*
X63925D1*
X41620Y10823D2*
X49502D1*
X50731D2*
X63794D1*
X41620Y10524D2*
X49358D1*
X50472D2*
X63839D1*
X41620Y10226D2*
X49358D1*
X50271D2*
X64159D1*
X41620Y9927D2*
X49358D1*
X50271D2*
X64594D1*
X41620Y9628D2*
X49256D1*
X50374D2*
X64594D1*
X41620Y9330D2*
X49235D1*
X50394D2*
X63757D1*
X41620Y9031D2*
X49399D1*
X50230D2*
X63605D1*
X41620Y8732D2*
X60493D1*
X61512D2*
X63638D1*
X41620Y8433D2*
X45380D1*
X46326D2*
X60411D1*
X62796D2*
X63732D1*
X67463D2*
X67616D1*
X41620Y8135D2*
X45265D1*
X46445D2*
X60501D1*
X41620Y7836D2*
X45323D1*
X46384D2*
X60546D1*
X41620Y7537D2*
X45397D1*
X46310D2*
X60546D1*
X41620Y7239D2*
X45397D1*
X46310D2*
X60636D1*
X41620Y6940D2*
X45397D1*
X46310D2*
X61608D1*
X41620Y6641D2*
X45397D1*
X46310D2*
X61608D1*
X41620Y6343D2*
X45368D1*
X46310D2*
X55215D1*
X57538D2*
X57712D1*
X60040D2*
X60214D1*
X64539D2*
X66214D1*
X73327D2*
X73550D1*
X74328D2*
X74551D1*
X41620Y6044D2*
X45249D1*
X46429D2*
X55215D1*
X64658D2*
X76261D1*
X41620Y5745D2*
X45302D1*
X46371D2*
X55215D1*
X64637D2*
X76261D1*
X41620Y5447D2*
X45671D1*
X46006D2*
X48214D1*
X64461D2*
X76261D1*
X41620Y5148D2*
X48214D1*
X63895D2*
X76261D1*
X41620Y4849D2*
X48214D1*
X63887D2*
X76261D1*
X74637Y18288D2*
Y17566D1*
X74808Y17624D1*
X74938Y17637D1*
X75069Y17625D1*
X75195Y17589D1*
X75312Y17530D1*
X75440Y17422D1*
X75502Y17481D1*
X75611Y17554D1*
X75731Y17605D1*
X75860Y17632D1*
X75991Y17635D1*
X76120Y17613D1*
X76243Y17568D1*
X76290Y17543D1*
Y18289D1*
X74640Y18290D1*
X74624Y11810D2*
X74588Y11684D1*
X74528Y11567D1*
X74421Y11439D1*
X74462Y11447D1*
X74565Y11527D1*
X74682Y11587D1*
X74808Y11624D1*
X74938Y11637D1*
X75069Y11625D1*
X75195Y11589D1*
X75312Y11530D1*
X75440Y11422D1*
X75502Y11481D1*
X75611Y11554D1*
X75731Y11605D1*
X75860Y11632D1*
X75991Y11635D1*
X76120Y11613D1*
X76243Y11568D1*
X76290Y11543D1*
Y12244D1*
X75845D1*
X75680Y12076D1*
X75574Y11999D1*
X75446Y11957D1*
X75246Y11951D1*
X74635D1*
X74624Y11810D1*
X74440Y6455D2*
X74328Y6362D1*
X74213Y6299D1*
X74088Y6259D1*
X73958Y6244D1*
X73828Y6253D1*
X73701Y6286D1*
X73583Y6342D1*
X73477Y6420D1*
X73440Y6456D1*
X73350Y6377D1*
X73237Y6310D1*
X73114Y6266D1*
X72985Y6245D1*
X72854Y6249D1*
X72761Y6267D1*
X72742Y6235D1*
X72650Y6142D1*
X72531Y6089D1*
X72313Y6078D1*
X68006D1*
X67878Y6102D1*
X67766Y6169D1*
X67685Y6272D1*
X67647Y6401D1*
X67644Y7359D1*
X67645Y18071D1*
X67341Y18076D1*
X66303D1*
X66260Y17987D1*
X66249Y17810D1*
X66213Y17684D1*
X66189Y17636D1*
X66262Y17637D1*
Y16244D1*
X64869D1*
Y17637D1*
X64938D1*
X64903Y17724D1*
X64874Y17852D1*
X64870Y17983D1*
X64890Y18112D1*
X64934Y18235D1*
X64965Y18288D1*
X61123Y18290D1*
X61205Y18240D1*
X61319Y18126D1*
X61368Y18052D1*
X61400Y17969D1*
X61414Y17857D1*
Y14056D1*
X61495Y13934D1*
X61537Y13810D1*
X61549Y13692D1*
X61534Y13562D1*
X61489Y13439D1*
X61417Y13330D1*
X61322Y13240D1*
X61208Y13175D1*
X61082Y13138D1*
X60952Y13131D1*
X60823Y13155D1*
X60703Y13207D1*
X60598Y13286D1*
X60515Y13387D1*
X60457Y13505D1*
X60429Y13633D1*
X60430Y13764D1*
X60462Y13891D1*
X60522Y14007D1*
X60562Y14053D1*
X60560Y17477D1*
X56802Y17478D1*
X56833Y17416D1*
X56863Y17259D1*
Y16336D1*
X56943Y16214D1*
X56986Y16090D1*
X56998Y15972D1*
X56983Y15842D1*
X56938Y15719D1*
X56866Y15609D1*
X56770Y15520D1*
X56657Y15455D1*
X56531Y15418D1*
X56400Y15411D1*
X56272Y15434D1*
X56152Y15487D1*
X56047Y15566D1*
X55964Y15667D1*
X55906Y15785D1*
X55877Y15912D1*
X55879Y16043D1*
X55910Y16170D1*
X55971Y16286D1*
X56011Y16333D1*
X56009Y16829D1*
X55694Y16832D1*
X55676Y16686D1*
X55631Y16563D1*
X55556Y16451D1*
X55557Y14999D1*
X55676Y14945D1*
X55773Y14858D1*
X55839Y14745D1*
X55869Y14588D1*
Y14248D1*
X55949Y14121D1*
X55992Y13997D1*
X56004Y13879D1*
X55989Y13749D1*
X55944Y13626D1*
X55872Y13516D1*
X55776Y13427D1*
X55663Y13362D1*
X55537Y13325D1*
X55406Y13318D1*
X55278Y13341D1*
X55184Y13383D1*
X55186Y12343D1*
X53792D1*
Y13737D1*
X53862D1*
X53827Y13824D1*
X53798Y13951D1*
X53794Y14082D1*
X53814Y14212D1*
X53858Y14335D1*
X53924Y14448D1*
X54003Y14537D1*
X53906Y14658D1*
X53845Y14774D1*
X53807Y14900D1*
X53792Y15030D1*
X53803Y15161D1*
X53837Y15287D1*
X53895Y15405D1*
X53974Y15509D1*
X54071Y15597D1*
X54183Y15666D1*
X54305Y15712D1*
X54434Y15735D1*
X54565Y15732D1*
X54702Y15703D1*
X54703Y16454D1*
X54657Y16512D1*
X54600Y16629D1*
X54571Y16757D1*
X54572Y16835D1*
X52762Y16832D1*
X52093D1*
X51952Y16742D1*
X51826Y16705D1*
X51696Y16698D1*
X51567Y16722D1*
X51447Y16774D1*
X51343Y16853D1*
X51259Y16954D1*
X51202Y17072D1*
X51173Y17200D1*
X51174Y17331D1*
X51206Y17458D1*
X51274Y17583D1*
X51206Y17718D1*
X51177Y17845D1*
X51178Y17976D1*
X51210Y18103D1*
X51270Y18220D1*
X51331Y18291D1*
X50337Y18290D1*
X50350Y18242D1*
X50420Y18131D1*
X50462Y18007D1*
X50475Y17889D1*
X50459Y17759D1*
X50414Y17636D1*
X50342Y17527D1*
X50247Y17437D1*
X50133Y17372D1*
X50008Y17335D1*
X49877Y17328D1*
X49748Y17352D1*
X49628Y17404D1*
X49524Y17483D1*
X49440Y17584D1*
X49383Y17702D1*
X49354Y17830D1*
X49355Y17960D1*
X49370Y18020D1*
X48629Y18021D1*
X48637Y17940D1*
X48624Y17810D1*
X48588Y17684D1*
X48528Y17567D1*
X48448Y17464D1*
X48350Y17377D1*
X48237Y17310D1*
X48114Y17266D1*
X47985Y17245D1*
X47854Y17249D1*
X47726Y17277D1*
X47605Y17329D1*
X47497Y17403D1*
X47442Y17458D1*
X47350Y17377D1*
X47237Y17310D1*
X47114Y17266D1*
X46985Y17245D1*
X46854Y17249D1*
X46726Y17277D1*
X46637Y17313D1*
Y17244D1*
X45244D1*
Y18289D1*
X41594Y18290D1*
X41590Y17128D1*
Y4591D1*
X48244Y4590D1*
Y5637D1*
X49637D1*
Y5567D1*
X49808Y5624D1*
X49938Y5637D1*
X50069Y5625D1*
X50195Y5589D1*
X50312Y5530D1*
X50440Y5422D1*
X50565Y5527D1*
X50682Y5587D1*
X50808Y5624D1*
X50938Y5637D1*
X51069Y5625D1*
X51195Y5589D1*
X51312Y5530D1*
X51440Y5422D1*
X51502Y5481D1*
X51611Y5554D1*
X51731Y5605D1*
X51860Y5632D1*
X51991Y5635D1*
X52120Y5613D1*
X52243Y5568D1*
X52355Y5500D1*
X52440Y5425D1*
X52544Y5513D1*
X52658Y5577D1*
X52782Y5619D1*
X52912Y5636D1*
X53043Y5629D1*
X53170Y5598D1*
X53289Y5543D1*
X53396Y5467D1*
X53440Y5425D1*
X53565Y5527D1*
X53682Y5587D1*
X53808Y5624D1*
X53938Y5637D1*
X54069Y5625D1*
X54195Y5589D1*
X54312Y5530D1*
X54440Y5422D1*
X54565Y5527D1*
X54682Y5587D1*
X54808Y5624D1*
X54938Y5637D1*
X55069Y5625D1*
X55195Y5589D1*
X55242Y5565D1*
X55244Y6637D1*
X56637D1*
Y6567D1*
X56808Y6624D1*
X56938Y6637D1*
X57069Y6625D1*
X57195Y6589D1*
X57312Y6530D1*
X57415Y6450D1*
X57502Y6352D1*
X57569Y6239D1*
X57614Y6116D1*
X57637Y5940D1*
X57624Y5810D1*
X57588Y5684D1*
X57528Y5567D1*
X57421Y5439D1*
X57462Y5447D1*
X57565Y5527D1*
X57682Y5587D1*
X57741Y5604D1*
X57744Y6637D1*
X59137D1*
Y6567D1*
X59257Y6612D1*
X59386Y6635D1*
X59517Y6633D1*
X59645Y6606D1*
X59766Y6556D1*
X59876Y6484D1*
X59970Y6393D1*
X60045Y6286D1*
X60099Y6166D1*
X60130Y6039D1*
X60136Y5914D1*
X60119Y5784D1*
X60093Y5697D1*
X60244Y5848D1*
Y6637D1*
X61637D1*
Y6567D1*
X61638Y7015D1*
X61065Y7013D1*
X60936Y7033D1*
X60797Y7108D1*
X60662Y7245D1*
X60605Y7348D1*
X60577Y7474D1*
X60576Y8073D1*
X60530Y8135D1*
X60473Y8253D1*
X60444Y8381D1*
X60445Y8512D1*
X60477Y8639D1*
X60537Y8755D1*
X60623Y8854D1*
X60729Y8931D1*
X60850Y8981D1*
X60979Y9002D1*
X61110Y8992D1*
X61234Y8952D1*
X61347Y8885D1*
X61440Y8793D1*
X61510Y8682D1*
X61552Y8558D1*
X61564Y8444D1*
X61662Y8481D1*
X61791Y8502D1*
X61922Y8492D1*
X62050Y8450D1*
X62628Y8452D1*
X62757Y8435D1*
X62879Y8386D1*
X63034Y8275D1*
X63190Y8305D1*
X63760D1*
X63763Y8571D1*
X63718Y8635D1*
X63660Y8753D1*
X63631Y8881D1*
X63633Y9012D1*
X63664Y9139D1*
X63725Y9255D1*
X63810Y9354D1*
X63916Y9431D1*
X64037Y9481D1*
X64166Y9502D1*
X64297Y9492D1*
X64422Y9452D1*
X64534Y9385D1*
X64625Y9296D1*
X64622Y9637D1*
X64691D1*
X64656Y9724D1*
X64627Y9852D1*
X64623Y9983D1*
X64643Y10113D1*
X64687Y10236D1*
X64735Y10317D1*
X64601Y10236D1*
X64476Y10199D1*
X64345Y10193D1*
X64216Y10216D1*
X64096Y10269D1*
X63992Y10348D1*
X63908Y10449D1*
X63851Y10566D1*
X63822Y10694D1*
X63823Y10825D1*
X63855Y10952D1*
X63915Y11068D1*
X63955Y11115D1*
X63954Y11455D1*
X63908Y11511D1*
X63851Y11629D1*
X63822Y11757D1*
X63823Y11887D1*
X63855Y12015D1*
X63915Y12131D1*
X64001Y12230D1*
X64107Y12307D1*
X64228Y12357D1*
X64357Y12377D1*
X64488Y12368D1*
X64612Y12328D1*
X64707Y12271D1*
X64754Y12349D1*
X64840Y12447D1*
X64943Y12528D1*
X65060Y12588D1*
X65186Y12625D1*
X65316Y12637D1*
X65447Y12625D1*
X65573Y12589D1*
X65690Y12530D1*
X65793Y12450D1*
X65872Y12361D1*
X65870Y14589D1*
X65825Y14649D1*
X65767Y14767D1*
X65738Y14894D1*
X65740Y15025D1*
X65771Y15152D1*
X65832Y15269D1*
X65917Y15368D1*
X66023Y15445D1*
X66144Y15495D1*
X66274Y15515D1*
X66404Y15506D1*
X66529Y15466D1*
X66641Y15398D1*
X66735Y15307D1*
X66804Y15196D1*
X66847Y15072D1*
X66859Y14954D1*
X66844Y14824D1*
X66799Y14701D1*
X66738Y14609D1*
X66886Y14635D1*
X67017Y14633D1*
X67145Y14606D1*
X67266Y14556D1*
X67376Y14484D1*
X67470Y14393D1*
X67545Y14286D1*
X67599Y14166D1*
X67630Y14039D1*
X67636Y13914D1*
X67619Y13784D1*
X67578Y13660D1*
X67514Y13545D1*
X67425Y13440D1*
X67502Y13352D1*
X67569Y13239D1*
X67614Y13116D1*
X67637Y12940D1*
X67624Y12810D1*
X67588Y12684D1*
X67528Y12567D1*
X67421Y12439D1*
X67502Y12352D1*
X67569Y12239D1*
X67614Y12116D1*
X67637Y11940D1*
X67624Y11810D1*
X67588Y11684D1*
X67528Y11567D1*
X67421Y11439D1*
X67502Y11352D1*
X67569Y11239D1*
X67614Y11116D1*
X67637Y10940D1*
X67624Y10810D1*
X67588Y10684D1*
X67528Y10567D1*
X67421Y10439D1*
X67502Y10352D1*
X67569Y10239D1*
X67614Y10116D1*
X67637Y9940D1*
X67624Y9810D1*
X67588Y9684D1*
X67528Y9567D1*
X67421Y9439D1*
X67502Y9352D1*
X67569Y9239D1*
X67614Y9116D1*
X67637Y8940D1*
X67624Y8810D1*
X67588Y8684D1*
X67528Y8567D1*
X67421Y8439D1*
X67470Y8393D1*
X67545Y8286D1*
X67599Y8166D1*
X67630Y8039D1*
X67636Y7914D1*
X67619Y7784D1*
X67578Y7660D1*
X67567Y7637D1*
X67637D1*
Y6244D1*
X66244D1*
Y6428D1*
X64439D1*
X64532Y6308D1*
X64590Y6191D1*
X64626Y6065D1*
X64637Y5940D1*
X64624Y5810D1*
X64588Y5684D1*
X64528Y5567D1*
X64448Y5464D1*
X64350Y5377D1*
X64237Y5310D1*
X64114Y5266D1*
X63985Y5245D1*
X63867Y5247D1*
Y4940D1*
X63847Y4811D1*
X63789Y4694D1*
X63706Y4607D1*
X63750Y4590D1*
X76287D1*
X76290Y5752D1*
Y6241D1*
X75324Y6244D1*
X75244D1*
Y6313D1*
X75114Y6266D1*
X74985Y6245D1*
X74854Y6249D1*
X74726Y6277D1*
X74605Y6329D1*
X74497Y6403D1*
X74442Y6458D1*
X63852Y13733D2*
X63921D1*
Y12340D1*
X62527D1*
Y12869D1*
X62465Y12815D1*
X62351Y12750D1*
X62225Y12713D1*
X62095Y12706D1*
X61966Y12730D1*
X61846Y12782D1*
X61741Y12861D1*
X61658Y12962D1*
X61600Y13080D1*
X61572Y13208D1*
X61573Y13338D1*
X61605Y13465D1*
X61665Y13582D1*
X61705Y13628D1*
X61703Y16511D1*
X61658Y16574D1*
X61600Y16692D1*
X61572Y16820D1*
X61573Y16951D1*
X61605Y17078D1*
X61665Y17194D1*
X61750Y17293D1*
X61856Y17370D1*
X61977Y17420D1*
X62107Y17441D1*
X62237Y17431D1*
X62362Y17391D1*
X62474Y17324D1*
X62568Y17232D1*
X62638Y17121D1*
X62680Y16997D1*
X62692Y16879D1*
X62677Y16749D1*
X62632Y16626D1*
X62557Y16514D1*
Y15234D1*
X62604Y15355D1*
X62675Y15465D1*
X62765Y15560D1*
X62871Y15637D1*
X62990Y15692D1*
X63117Y15725D1*
X63248Y15732D1*
X63378Y15716D1*
X63503Y15675D1*
X63617Y15611D1*
X63718Y15527D1*
X63801Y15426D1*
X63864Y15311D1*
X63904Y15186D1*
X63920Y15056D1*
X63913Y14932D1*
X63881Y14804D1*
X63826Y14686D1*
X63750Y14579D1*
X63708Y14536D1*
X63786Y14448D1*
X63853Y14335D1*
X63898Y14212D1*
X63921Y14036D1*
X63908Y13906D1*
X63872Y13780D1*
X63848Y13732D1*
X46281Y7725D2*
Y6339D1*
X46345Y6233D1*
X46387Y6110D1*
X46400Y5991D1*
X46385Y5861D1*
X46340Y5738D1*
X46267Y5629D1*
X46172Y5539D1*
X46058Y5474D1*
X45933Y5437D1*
X45802Y5430D1*
X45673Y5454D1*
X45553Y5507D1*
X45449Y5586D1*
X45366Y5687D1*
X45308Y5804D1*
X45279Y5932D1*
X45280Y6063D1*
X45312Y6190D1*
X45372Y6306D1*
X45428Y6371D1*
X45427Y7725D1*
X45381Y7785D1*
X45324Y7903D1*
X45295Y8030D1*
X45296Y8161D1*
X45328Y8288D1*
X45388Y8405D1*
X45473Y8504D1*
X45580Y8580D1*
X45701Y8631D1*
X45830Y8651D1*
X45960Y8642D1*
X46085Y8602D1*
X46197Y8534D1*
X46291Y8443D1*
X46361Y8332D1*
X46403Y8208D1*
X46416Y8090D1*
X46400Y7960D1*
X46355Y7837D1*
X46280Y7725D1*
X52472Y13111D2*
Y15071D1*
X52426Y15136D1*
X52369Y15254D1*
X52340Y15381D1*
X52341Y15512D1*
X52373Y15639D1*
X52433Y15755D1*
X52519Y15855D1*
X52625Y15931D1*
X52746Y15981D1*
X52875Y16002D1*
X53005Y15992D1*
X53130Y15953D1*
X53242Y15885D1*
X53336Y15794D1*
X53406Y15683D1*
X53448Y15559D1*
X53461Y15441D1*
X53445Y15311D1*
X53400Y15188D1*
X53325Y15076D1*
X53329Y12758D1*
X53341Y12639D1*
X53326Y12509D1*
X53281Y12386D1*
X53209Y12277D1*
X53113Y12188D1*
X53000Y12123D1*
X52874Y12086D1*
X52743Y12079D1*
X52615Y12102D1*
X52495Y12155D1*
X52390Y12234D1*
X52307Y12335D1*
X52249Y12452D1*
X52220Y12580D1*
X52222Y12711D1*
X52253Y12838D1*
X52314Y12954D1*
X52399Y13053D1*
X52469Y13104D1*
X58367Y11869D2*
X59072Y11870D1*
X59166Y11934D1*
X59287Y11984D1*
X59416Y12005D1*
X59547Y11995D1*
X59672Y11955D1*
X59784Y11888D1*
X59878Y11796D1*
X59947Y11686D1*
X59990Y11562D1*
X60002Y11443D1*
X59987Y11313D1*
X59942Y11190D1*
X59870Y11081D1*
X59774Y10992D1*
X59661Y10926D1*
X59535Y10889D1*
X59404Y10883D1*
X59276Y10906D1*
X59156Y10959D1*
X59081Y11016D1*
X58371Y11015D1*
X58223Y10924D1*
X58098Y10887D1*
X57967Y10880D1*
X57838Y10904D1*
X57718Y10956D1*
X57614Y11035D1*
X57530Y11136D1*
X57473Y11254D1*
X57444Y11382D1*
X57445Y11512D1*
X57477Y11639D1*
X57537Y11756D1*
X57623Y11855D1*
X57729Y11932D1*
X57850Y11982D1*
X57979Y12002D1*
X58110Y11993D1*
X58234Y11953D1*
X58361Y11871D1*
X64736Y10321D2*
X64601Y10236D1*
X64476Y10199D1*
X64345Y10193D1*
X64216Y10216D1*
X64096Y10269D1*
X63992Y10348D1*
X63908Y10449D1*
X63851Y10566D1*
X63822Y10694D1*
X63823Y10825D1*
X63855Y10952D1*
X63915Y11068D1*
X63955Y11115D1*
X48463Y13117D2*
X49579D1*
X49709Y13097D1*
X49829Y13036D1*
X49890Y12983D1*
X49888Y13410D1*
X48785Y13409D1*
X48643Y13319D1*
X48518Y13282D1*
X48387Y13275D1*
X48258Y13299D1*
X48138Y13351D1*
X48034Y13430D1*
X47950Y13531D1*
X47893Y13649D1*
X47864Y13777D1*
X47865Y13908D1*
X47897Y14035D1*
X47957Y14151D1*
X48043Y14250D1*
X48149Y14327D1*
X48270Y14377D1*
X48399Y14398D1*
X48530Y14388D1*
X48654Y14348D1*
X48787Y14261D1*
X50129Y14263D1*
X50315D1*
X50444Y14243D1*
X50561Y14185D1*
X50655Y14094D1*
X50717Y13979D1*
X50742Y13836D1*
Y11003D1*
X50722Y10873D1*
X50661Y10753D1*
X50524Y10608D1*
X50243Y10327D1*
X50242Y9801D1*
X50322Y9682D1*
X50365Y9558D1*
X50377Y9440D1*
X50362Y9310D1*
X50317Y9187D1*
X50245Y9078D1*
X50149Y8988D1*
X50036Y8923D1*
X49910Y8886D1*
X49779Y8879D1*
X49651Y8903D1*
X49531Y8955D1*
X49426Y9034D1*
X49343Y9135D1*
X49285Y9253D1*
X49256Y9381D1*
X49258Y9512D1*
X49289Y9639D1*
X49350Y9755D1*
X49390Y9801D1*
X49388Y10503D1*
X49408Y10632D1*
X49469Y10752D1*
X49606Y10897D1*
X49887Y11179D1*
X49888Y11843D1*
X49829Y11844D1*
X49700Y11868D1*
X49580Y11920D1*
X49476Y11999D1*
X49392Y12100D1*
X49335Y12218D1*
X49325Y12262D1*
X48460Y12263D1*
X48318Y12173D1*
X48193Y12136D1*
X48062Y12129D1*
X47933Y12153D1*
X47813Y12205D1*
X47709Y12284D1*
X47626Y12385D1*
X47568Y12503D1*
X47539Y12631D1*
X47541Y12762D1*
X47572Y12889D1*
X47632Y13005D1*
X47718Y13104D1*
X47824Y13181D1*
X47945Y13231D1*
X48074Y13252D1*
X48205Y13242D1*
X48330Y13202D1*
X48462Y13115D1*
X73940Y6940D2*
D18*
Y6244D1*
X72940Y6940D2*
Y6244D1*
X59440Y6636D2*
Y5940D1*
X60136D1*
X75940Y11636D2*
Y10940D1*
Y17636D2*
Y16940D1*
X46940Y17940D2*
Y17244D1*
X54489Y15736D2*
Y15040D1*
X53793D2*
X54489D1*
X63224Y15732D2*
Y15036D1*
X63920D1*
X65565Y16940D2*
Y16244D1*
X64869Y16940D2*
X66261D1*
X66940Y7940D2*
X67636D1*
X66940Y14636D2*
Y13940D1*
X67636D1*
X63940Y5940D2*
Y5244D1*
Y5940D2*
X64636D1*
X51940Y5636D2*
Y4940D1*
X52940Y5636D2*
Y4940D1*
X68186Y17618D2*
D15*
X70216D1*
X71666D2*
X72266D1*
X68186Y17319D2*
X70216D1*
X71666D2*
X72266D1*
X68186Y17021D2*
X70216D1*
X71666D2*
X72217D1*
X68186Y16722D2*
X70216D1*
X71666D2*
X72250D1*
X68186Y16423D2*
X70216D1*
X71666D2*
X72266D1*
X68186Y16125D2*
X72237D1*
X68186Y15826D2*
X72225D1*
X68186Y15527D2*
X72266D1*
X68186Y15228D2*
X72266D1*
X68186Y14930D2*
X72213D1*
X68186Y14631D2*
X71823D1*
X72059D2*
X72266D1*
X68186Y14332D2*
X71335D1*
X68186Y14034D2*
X71220D1*
X68186Y13735D2*
X71245D1*
X68186Y13436D2*
X71421D1*
X68186Y13138D2*
X71241D1*
X68186Y12839D2*
X71220D1*
X68186Y12540D2*
X71339D1*
X68186Y12242D2*
X71282D1*
X68186Y11943D2*
X71212D1*
X68186Y11644D2*
X71278D1*
X68186Y11346D2*
X71343D1*
X68186Y11047D2*
X71220D1*
X68186Y10748D2*
X71241D1*
X68186Y10449D2*
X71417D1*
X68186Y10151D2*
X71245D1*
X68186Y9852D2*
X71220D1*
X68186Y9553D2*
X71331D1*
X68186Y9255D2*
X71290D1*
X68186Y8956D2*
X71212D1*
X68186Y8657D2*
X71274D1*
X68186Y8359D2*
X71351D1*
X68186Y8060D2*
X71224D1*
X68186Y7761D2*
X71237D1*
X68186Y7463D2*
X71212D1*
X68186Y7164D2*
X71212D1*
X68186Y6865D2*
X71212D1*
X72293Y17690D2*
X72249Y17852D1*
X72247Y17913D1*
X71636Y17917D1*
X71624Y17810D1*
X71588Y17684D1*
X71564Y17636D1*
X71637Y17637D1*
Y16244D1*
X70244D1*
Y17637D1*
X70313D1*
X70278Y17724D1*
X70249Y17852D1*
X70247Y17913D1*
X69688Y17917D1*
X68158D1*
X68156Y15180D1*
Y6588D1*
X70237Y6590D1*
X71242D1*
X71244Y7637D1*
X71313D1*
X71278Y7724D1*
X71249Y7852D1*
X71245Y7983D1*
X71265Y8112D1*
X71309Y8235D1*
X71376Y8348D1*
X71454Y8438D1*
X71330Y8604D1*
X71278Y8724D1*
X71249Y8852D1*
X71245Y8983D1*
X71265Y9112D1*
X71309Y9235D1*
X71376Y9348D1*
X71454Y9438D1*
X71330Y9604D1*
X71278Y9724D1*
X71249Y9852D1*
X71245Y9983D1*
X71265Y10112D1*
X71309Y10235D1*
X71376Y10348D1*
X71454Y10438D1*
X71330Y10604D1*
X71278Y10724D1*
X71249Y10852D1*
X71245Y10983D1*
X71265Y11112D1*
X71309Y11235D1*
X71376Y11348D1*
X71454Y11438D1*
X71330Y11604D1*
X71278Y11724D1*
X71249Y11852D1*
X71245Y11983D1*
X71265Y12112D1*
X71309Y12235D1*
X71376Y12348D1*
X71454Y12438D1*
X71330Y12604D1*
X71278Y12724D1*
X71249Y12852D1*
X71245Y12983D1*
X71265Y13112D1*
X71309Y13235D1*
X71376Y13348D1*
X71454Y13438D1*
X71330Y13604D1*
X71278Y13724D1*
X71249Y13852D1*
X71245Y13983D1*
X71265Y14112D1*
X71309Y14235D1*
X71376Y14348D1*
X71462Y14447D1*
X71565Y14527D1*
X71682Y14587D1*
X71808Y14624D1*
X71938Y14637D1*
X72069Y14625D1*
X72195Y14589D1*
X72293Y14539D1*
X72294Y14679D1*
X72249Y14852D1*
X72245Y14983D1*
X72265Y15112D1*
X72294Y15193D1*
Y15680D1*
X72249Y15852D1*
X72245Y15983D1*
X72265Y16112D1*
X72294Y16193D1*
Y16681D1*
X72249Y16852D1*
X72245Y16983D1*
X72265Y17112D1*
X72294Y17202D1*
Y17681D1*
D29*
X73940Y17940D3*
D30*
X72940D3*
X73940Y16940D3*
X72940D3*
X73940Y15940D3*
X72940D3*
X73940Y14940D3*
X72940D3*
X73940Y13940D3*
X72940D3*
X73940Y12940D3*
X72940D3*
X73940Y11940D3*
X72940D3*
X73940Y10940D3*
X72940D3*
X73940Y9940D3*
X72940D3*
X73940Y8940D3*
X72940D3*
X73940Y7940D3*
X72940D3*
X73940Y6940D3*
X72940D3*
D29*
X58440Y5940D3*
D30*
X59440D3*
D29*
X75940Y6940D3*
D30*
X74940D3*
X75940Y7940D3*
X74940D3*
X75940Y8940D3*
X74940D3*
X75940Y9940D3*
X74940D3*
X75940Y10940D3*
X74940D3*
D29*
X75940Y12940D3*
D30*
X74940D3*
X75940Y13940D3*
X74940D3*
X75940Y14940D3*
X74940D3*
X75940Y15940D3*
X74940D3*
X75940Y16940D3*
X74940D3*
D29*
X45940Y17940D3*
D30*
X46940D3*
X47940D3*
D29*
X54489Y13040D3*
D30*
Y14040D3*
Y15040D3*
D29*
X63224Y13036D3*
D30*
Y14036D3*
Y15036D3*
D29*
X70940Y16940D3*
D30*
Y17940D3*
D29*
X65565Y16940D3*
D30*
Y17940D3*
D29*
X65318Y8941D3*
D30*
Y9941D3*
Y10941D3*
Y11941D3*
D29*
X71940Y6940D3*
D30*
Y7940D3*
Y8940D3*
Y9940D3*
Y10940D3*
Y11940D3*
Y12940D3*
Y13940D3*
D29*
X66940Y6940D3*
D30*
Y7940D3*
Y8940D3*
Y9940D3*
Y10940D3*
Y11940D3*
Y12940D3*
Y13940D3*
D29*
X55940Y5940D3*
D30*
X56940D3*
D29*
X60940D3*
D30*
X61940D3*
X62940D3*
X63940D3*
D29*
X48940Y4940D3*
D30*
X49940D3*
X50940D3*
X51940D3*
X52940D3*
X53940D3*
X54940D3*
X55940D3*
X56940D3*
X57940D3*
X58940D3*
X59940D3*
X60940D3*
X61940D3*
X62940D3*
X8854Y24090D2*
D14*
Y22007D1*
X8838Y21991D1*
X26224Y31036D2*
X28174D1*
X28565Y31428D1*
Y32940D1*
X8629Y32942D2*
X9941D1*
Y33065D1*
Y33939D1*
X9940Y33940D1*
X11315Y33065D2*
X9941D1*
X7950Y25307D2*
X8920D1*
X9941Y26328D1*
X10804Y27191D1*
X12191D1*
X9941Y32942D2*
Y32331D1*
Y26328D1*
X17489Y31040D2*
Y31645D1*
X16803Y32331D1*
X9941D1*
X10566Y25691D2*
X11566D1*
X11942Y26066D1*
Y26941D1*
X12191Y27191D1*
X38940Y26940D2*
X38945D1*
X39444Y26441D1*
Y22440D1*
X39382Y22378D1*
X37007D1*
X36944Y22440D1*
Y22936D1*
X36940Y22940D1*
X35940D2*
Y22444D1*
X36007Y22378D1*
X37007D1*
X12589Y22690D2*
X9941D1*
Y26328D1*
X21505Y26253D2*
X20380D1*
X28628Y30315D2*
Y30753D1*
X28344Y31036D1*
X28174D1*
X8940Y33940D2*
Y34448D1*
X12913D1*
Y33889D1*
X15779Y28639D2*
X15899D1*
Y31441D1*
X21003Y27441D2*
X22440Y27443D1*
X24003Y24440D2*
Y23503D1*
X24065Y23440D1*
X25065D1*
Y22503D1*
X26440D1*
Y20940D1*
X25940D1*
X35940Y23940D2*
X36440Y23440D1*
X37440D1*
X37940Y22940D1*
X27381Y27816D2*
Y26753D1*
X26190Y23440D2*
Y23878D1*
X27190D1*
Y24940D1*
X18130Y32817D2*
Y30588D1*
X18442D1*
Y29879D1*
X25130Y32879D2*
Y29267D1*
X35940Y31940D2*
X36440Y32440D1*
X38440D1*
X38940Y31940D1*
X35940Y30940D2*
X36440Y31440D1*
X38440D1*
X38940Y30940D1*
X36940Y28940D2*
X37440Y29440D1*
X38440D1*
X38940Y29940D1*
X36940Y27940D2*
X37378Y28378D1*
X38378D1*
X38940Y28940D1*
X36940Y25940D2*
X37440Y25440D1*
X38440D1*
Y24628D1*
X38940Y24128D1*
Y23940D1*
X35940Y24940D2*
X36440Y24440D1*
X38253D1*
X38440Y24253D1*
Y23440D1*
X38940Y22940D1*
X36940Y33940D2*
X36378Y34503D1*
X29128D1*
X28565Y33940D1*
X11098Y28690D2*
X12579D1*
X12865Y28405D1*
X24940Y20940D2*
X25940Y21940D1*
X22940Y20940D2*
X23940Y21940D1*
Y20940D2*
X24940Y21940D1*
X29940Y22940D2*
D15*
X29297D1*
X25628D1*
Y23940D1*
X24815D1*
X29297Y30954D2*
D14*
Y22940D1*
X12815Y25440D2*
Y26503D1*
X13315Y27003D1*
Y29836D1*
X11423D1*
X14735Y33905D2*
X23940D1*
X23987Y33857D1*
Y29692D1*
X19436Y31972D2*
Y33259D1*
X14731D1*
D18*
X8854Y24090D3*
X8838Y21991D3*
X8629Y32942D3*
X11315Y33065D3*
X7950Y25307D3*
X12191Y27191D3*
X10566Y25691D3*
X12589Y22690D3*
X21505Y26253D3*
X20380D3*
X28628Y30315D3*
X12913Y33889D3*
X15779Y28639D3*
X15899Y31441D3*
X21003Y27441D3*
X22440Y27443D3*
X24003Y24440D3*
X27381Y27816D3*
Y26753D3*
X26190Y23440D3*
X27190Y24940D3*
X27381Y26753D3*
X18130Y32817D3*
X18442Y29879D3*
X25130Y32879D3*
Y29267D3*
X11098Y28690D3*
X12865Y28405D3*
X24815Y23940D3*
X29297Y30954D3*
X12815Y25440D3*
X11423Y29836D3*
X14735Y33905D3*
X23987Y29692D3*
X19436Y31972D3*
X14731Y33259D3*
X9940Y31940D3*
Y31440D3*
Y30940D3*
Y30440D3*
Y29940D3*
Y29440D3*
Y28940D3*
Y28440D3*
Y27940D3*
Y27440D3*
Y26940D3*
Y26440D3*
Y25940D3*
Y25440D3*
Y24940D3*
X16440Y31940D3*
Y31440D3*
Y30940D3*
Y30440D3*
Y29940D3*
Y29440D3*
Y28940D3*
Y28440D3*
Y27940D3*
Y27440D3*
Y26940D3*
Y26440D3*
Y25940D3*
Y25440D3*
Y24940D3*
X32256Y30504D3*
Y30004D3*
Y29504D3*
Y29004D3*
X32819Y30504D3*
Y30004D3*
Y29504D3*
Y29004D3*
X32256Y28504D3*
X32819D3*
X31381Y29754D3*
Y29254D3*
X8315Y25315D3*
X7628D3*
X11815Y27190D3*
X12565D3*
X4620Y33991D2*
D15*
X8212D1*
X11664D2*
X12330D1*
X13497D2*
X14150D1*
X24422D2*
X27840D1*
X29290D2*
X30616D1*
X37668D2*
X39261D1*
X4620Y33693D2*
X8212D1*
X11623D2*
X12354D1*
X13468D2*
X14183D1*
X24443D2*
X27885D1*
X29245D2*
X30616D1*
X37668D2*
X39261D1*
X4620Y33394D2*
X8212D1*
X11401D2*
X12617D1*
X13210D2*
X14155D1*
X19870D2*
X23530D1*
X24443D2*
X24875D1*
X25386D2*
X27840D1*
X29290D2*
X30616D1*
X4620Y33095D2*
X14163D1*
X19895D2*
X23530D1*
X25677D2*
X27840D1*
X29290D2*
X30616D1*
X4620Y32797D2*
X14384D1*
X15080D2*
X17538D1*
X18722D2*
X18977D1*
X19895D2*
X23530D1*
X25718D2*
X27840D1*
X29290D2*
X30616D1*
X4620Y32498D2*
X17636D1*
X18623D2*
X18977D1*
X19895D2*
X23530D1*
X24443D2*
X24674D1*
X25587D2*
X27840D1*
X29290D2*
X30616D1*
X4620Y32199D2*
X17673D1*
X18586D2*
X18891D1*
X19981D2*
X23530D1*
X24443D2*
X24674D1*
X25587D2*
X30616D1*
X4620Y31901D2*
X15545D1*
X16253D2*
X17673D1*
X18586D2*
X18850D1*
X20022D2*
X23530D1*
X24443D2*
X24674D1*
X25587D2*
X30616D1*
X4620Y31602D2*
X15332D1*
X16466D2*
X17046D1*
X18586D2*
X18981D1*
X19890D2*
X23530D1*
X24443D2*
X24674D1*
X25587D2*
X25789D1*
X26661D2*
X30616D1*
X4620Y31303D2*
X15323D1*
X16474D2*
X16812D1*
X18586D2*
X23530D1*
X24443D2*
X24674D1*
X26899D2*
X28828D1*
X29766D2*
X30616D1*
X4620Y31005D2*
X15442D1*
X16355D2*
X16763D1*
X18586D2*
X23530D1*
X24443D2*
X24674D1*
X26948D2*
X28709D1*
X29889D2*
X30616D1*
X4620Y30706D2*
X15442D1*
X16355D2*
X16849D1*
X18882D2*
X23530D1*
X24443D2*
X24674D1*
X26866D2*
X28763D1*
X29831D2*
X30616D1*
X4620Y30407D2*
X15442D1*
X16355D2*
X16865D1*
X18898D2*
X23530D1*
X24443D2*
X24674D1*
X26842D2*
X28840D1*
X4620Y30109D2*
X10902D1*
X13673D2*
X15442D1*
X16355D2*
X16767D1*
X18984D2*
X23530D1*
X24443D2*
X24674D1*
X26948D2*
X28840D1*
X4620Y29810D2*
X10833D1*
X13772D2*
X15442D1*
X16355D2*
X16800D1*
X19029D2*
X23407D1*
X26911D2*
X28840D1*
X4620Y29511D2*
X10935D1*
X13772D2*
X15442D1*
X16355D2*
X16763D1*
X18898D2*
X23427D1*
X26952D2*
X28840D1*
X4620Y29212D2*
X10861D1*
X11336D2*
X12859D1*
X13772D2*
X15442D1*
X16355D2*
X16763D1*
X18217D2*
X23665D1*
X24311D2*
X24543D1*
X26952D2*
X28840D1*
X4620Y28914D2*
X10554D1*
X13772D2*
X15258D1*
X16355D2*
X16763D1*
X18217D2*
X24661D1*
X26952D2*
X28840D1*
X4620Y28615D2*
X10513D1*
X13772D2*
X15188D1*
X16372D2*
X16763D1*
X18217D2*
X25498D1*
X26952D2*
X28115D1*
X28523D2*
X28840D1*
X4620Y28316D2*
X10648D1*
X13772D2*
X15291D1*
X16269D2*
X27093D1*
X4620Y28018D2*
X12428D1*
X13772D2*
X26827D1*
X38636D2*
X39261D1*
X4620Y27719D2*
X12859D1*
X13772D2*
X20482D1*
X22958D2*
X26798D1*
X37632D2*
X39261D1*
X4620Y27420D2*
X12859D1*
X13772D2*
X20413D1*
X23032D2*
X26925D1*
X4620Y27122D2*
X12801D1*
X13772D2*
X20511D1*
X22929D2*
X26925D1*
X4620Y26823D2*
X12502D1*
X13731D2*
X26794D1*
X4620Y26524D2*
X12358D1*
X13472D2*
X26839D1*
X4620Y26226D2*
X12358D1*
X13271D2*
X27159D1*
X4620Y25927D2*
X12358D1*
X13271D2*
X27594D1*
X4620Y25628D2*
X12256D1*
X13374D2*
X27594D1*
X4620Y25330D2*
X12235D1*
X13394D2*
X26757D1*
X4620Y25031D2*
X12399D1*
X13230D2*
X26605D1*
X4620Y24732D2*
X23493D1*
X24512D2*
X26638D1*
X4620Y24433D2*
X8380D1*
X9326D2*
X23411D1*
X25796D2*
X26732D1*
X30463D2*
X30616D1*
X4620Y24135D2*
X8265D1*
X9445D2*
X23501D1*
X4620Y23836D2*
X8323D1*
X9384D2*
X23546D1*
X4620Y23537D2*
X8397D1*
X9310D2*
X23546D1*
X4620Y23239D2*
X8397D1*
X9310D2*
X23636D1*
X4620Y22940D2*
X8397D1*
X9310D2*
X24608D1*
X4620Y22641D2*
X8397D1*
X9310D2*
X24608D1*
X4620Y22343D2*
X8368D1*
X9310D2*
X18215D1*
X20538D2*
X20712D1*
X23040D2*
X23214D1*
X27539D2*
X29214D1*
X36327D2*
X36550D1*
X37328D2*
X37551D1*
X4620Y22044D2*
X8249D1*
X9429D2*
X18215D1*
X27658D2*
X39261D1*
X4620Y21745D2*
X8302D1*
X9371D2*
X18215D1*
X27637D2*
X39261D1*
X4620Y21447D2*
X8671D1*
X9006D2*
X11214D1*
X27461D2*
X39261D1*
X4620Y21148D2*
X11214D1*
X26895D2*
X39261D1*
X4620Y20849D2*
X11214D1*
X26887D2*
X39261D1*
X37637Y34288D2*
Y33566D1*
X37808Y33624D1*
X37938Y33637D1*
X38069Y33625D1*
X38195Y33589D1*
X38312Y33530D1*
X38440Y33422D1*
X38502Y33481D1*
X38611Y33554D1*
X38731Y33605D1*
X38860Y33632D1*
X38991Y33635D1*
X39120Y33613D1*
X39243Y33568D1*
X39290Y33543D1*
Y34289D1*
X37640Y34290D1*
X37624Y27810D2*
X37588Y27684D1*
X37528Y27567D1*
X37421Y27439D1*
X37462Y27447D1*
X37565Y27527D1*
X37682Y27587D1*
X37808Y27624D1*
X37938Y27637D1*
X38069Y27625D1*
X38195Y27589D1*
X38312Y27530D1*
X38440Y27422D1*
X38502Y27481D1*
X38611Y27554D1*
X38731Y27605D1*
X38860Y27632D1*
X38991Y27635D1*
X39120Y27613D1*
X39243Y27568D1*
X39290Y27543D1*
Y28244D1*
X38845D1*
X38680Y28076D1*
X38574Y27999D1*
X38446Y27957D1*
X38246Y27951D1*
X37635D1*
X37624Y27810D1*
X37440Y22455D2*
X37328Y22362D1*
X37213Y22299D1*
X37088Y22259D1*
X36958Y22244D1*
X36828Y22253D1*
X36701Y22286D1*
X36583Y22342D1*
X36477Y22420D1*
X36440Y22456D1*
X36350Y22377D1*
X36237Y22310D1*
X36114Y22266D1*
X35985Y22245D1*
X35854Y22249D1*
X35761Y22267D1*
X35742Y22235D1*
X35650Y22142D1*
X35531Y22089D1*
X35313Y22078D1*
X31006D1*
X30878Y22102D1*
X30766Y22169D1*
X30685Y22272D1*
X30647Y22401D1*
X30644Y23359D1*
X30645Y34071D1*
X30341Y34076D1*
X29303D1*
X29260Y33987D1*
X29249Y33810D1*
X29213Y33684D1*
X29189Y33636D1*
X29262Y33637D1*
Y32244D1*
X27869D1*
Y33637D1*
X27938D1*
X27903Y33724D1*
X27874Y33852D1*
X27870Y33983D1*
X27890Y34112D1*
X27934Y34235D1*
X27965Y34288D1*
X24123Y34290D1*
X24205Y34240D1*
X24319Y34126D1*
X24368Y34052D1*
X24400Y33969D1*
X24414Y33857D1*
Y30056D1*
X24495Y29934D1*
X24537Y29810D1*
X24549Y29692D1*
X24534Y29562D1*
X24489Y29439D1*
X24417Y29330D1*
X24322Y29240D1*
X24208Y29175D1*
X24082Y29138D1*
X23952Y29131D1*
X23823Y29155D1*
X23703Y29207D1*
X23598Y29286D1*
X23515Y29387D1*
X23457Y29505D1*
X23429Y29633D1*
X23430Y29764D1*
X23462Y29891D1*
X23522Y30007D1*
X23562Y30053D1*
X23560Y33477D1*
X19802Y33478D1*
X19833Y33416D1*
X19863Y33259D1*
Y32336D1*
X19943Y32214D1*
X19986Y32090D1*
X19998Y31972D1*
X19983Y31842D1*
X19938Y31719D1*
X19866Y31609D1*
X19770Y31520D1*
X19657Y31455D1*
X19531Y31418D1*
X19400Y31411D1*
X19272Y31434D1*
X19152Y31487D1*
X19047Y31566D1*
X18964Y31667D1*
X18906Y31785D1*
X18877Y31912D1*
X18879Y32043D1*
X18910Y32170D1*
X18971Y32286D1*
X19011Y32333D1*
X19009Y32829D1*
X18694Y32832D1*
X18676Y32686D1*
X18631Y32563D1*
X18556Y32451D1*
X18557Y30999D1*
X18676Y30945D1*
X18773Y30858D1*
X18839Y30745D1*
X18869Y30588D1*
Y30248D1*
X18949Y30121D1*
X18992Y29997D1*
X19004Y29879D1*
X18989Y29749D1*
X18944Y29626D1*
X18872Y29516D1*
X18776Y29427D1*
X18663Y29362D1*
X18537Y29325D1*
X18406Y29318D1*
X18278Y29341D1*
X18184Y29383D1*
X18186Y28343D1*
X16792D1*
Y29737D1*
X16862D1*
X16827Y29824D1*
X16798Y29951D1*
X16794Y30082D1*
X16814Y30212D1*
X16858Y30335D1*
X16924Y30448D1*
X17003Y30537D1*
X16906Y30658D1*
X16845Y30774D1*
X16807Y30900D1*
X16792Y31030D1*
X16803Y31161D1*
X16837Y31287D1*
X16895Y31405D1*
X16974Y31509D1*
X17071Y31597D1*
X17183Y31666D1*
X17305Y31712D1*
X17434Y31735D1*
X17565Y31732D1*
X17702Y31703D1*
X17703Y32454D1*
X17657Y32512D1*
X17600Y32629D1*
X17571Y32757D1*
X17572Y32835D1*
X15762Y32832D1*
X15093D1*
X14952Y32742D1*
X14826Y32705D1*
X14696Y32698D1*
X14567Y32722D1*
X14447Y32774D1*
X14343Y32853D1*
X14259Y32954D1*
X14202Y33072D1*
X14173Y33200D1*
X14174Y33331D1*
X14206Y33458D1*
X14274Y33583D1*
X14206Y33718D1*
X14177Y33845D1*
X14178Y33976D1*
X14210Y34103D1*
X14270Y34220D1*
X14331Y34291D1*
X13337Y34290D1*
X13350Y34242D1*
X13420Y34131D1*
X13462Y34007D1*
X13475Y33889D1*
X13459Y33759D1*
X13414Y33636D1*
X13342Y33527D1*
X13247Y33437D1*
X13133Y33372D1*
X13008Y33335D1*
X12877Y33328D1*
X12748Y33352D1*
X12628Y33404D1*
X12524Y33483D1*
X12440Y33584D1*
X12383Y33702D1*
X12354Y33830D1*
X12355Y33960D1*
X12370Y34020D1*
X11629Y34021D1*
X11637Y33940D1*
X11624Y33810D1*
X11588Y33684D1*
X11528Y33567D1*
X11448Y33464D1*
X11350Y33377D1*
X11237Y33310D1*
X11114Y33266D1*
X10985Y33245D1*
X10854Y33249D1*
X10726Y33277D1*
X10605Y33329D1*
X10497Y33403D1*
X10442Y33458D1*
X10350Y33377D1*
X10237Y33310D1*
X10114Y33266D1*
X9985Y33245D1*
X9854Y33249D1*
X9726Y33277D1*
X9637Y33313D1*
Y33244D1*
X8244D1*
Y34289D1*
X4594Y34290D1*
X4590Y33128D1*
Y20591D1*
X11244Y20590D1*
Y21637D1*
X12637D1*
Y21567D1*
X12808Y21624D1*
X12938Y21637D1*
X13069Y21625D1*
X13195Y21589D1*
X13312Y21530D1*
X13440Y21422D1*
X13565Y21527D1*
X13682Y21587D1*
X13808Y21624D1*
X13938Y21637D1*
X14069Y21625D1*
X14195Y21589D1*
X14312Y21530D1*
X14440Y21422D1*
X14502Y21481D1*
X14611Y21554D1*
X14731Y21605D1*
X14860Y21632D1*
X14991Y21635D1*
X15120Y21613D1*
X15243Y21568D1*
X15355Y21500D1*
X15440Y21425D1*
X15544Y21513D1*
X15658Y21577D1*
X15782Y21619D1*
X15912Y21636D1*
X16043Y21629D1*
X16170Y21598D1*
X16289Y21543D1*
X16396Y21467D1*
X16440Y21425D1*
X16565Y21527D1*
X16682Y21587D1*
X16808Y21624D1*
X16938Y21637D1*
X17069Y21625D1*
X17195Y21589D1*
X17312Y21530D1*
X17440Y21422D1*
X17565Y21527D1*
X17682Y21587D1*
X17808Y21624D1*
X17938Y21637D1*
X18069Y21625D1*
X18195Y21589D1*
X18242Y21565D1*
X18244Y22637D1*
X19637D1*
Y22567D1*
X19808Y22624D1*
X19938Y22637D1*
X20069Y22625D1*
X20195Y22589D1*
X20312Y22530D1*
X20415Y22450D1*
X20502Y22352D1*
X20569Y22239D1*
X20614Y22116D1*
X20637Y21940D1*
X20624Y21810D1*
X20588Y21684D1*
X20528Y21567D1*
X20421Y21439D1*
X20462Y21447D1*
X20565Y21527D1*
X20682Y21587D1*
X20741Y21604D1*
X20744Y22637D1*
X22137D1*
Y22567D1*
X22257Y22612D1*
X22386Y22635D1*
X22517Y22633D1*
X22645Y22606D1*
X22766Y22556D1*
X22876Y22484D1*
X22970Y22393D1*
X23045Y22286D1*
X23099Y22166D1*
X23130Y22039D1*
X23136Y21914D1*
X23119Y21784D1*
X23093Y21697D1*
X23244Y21848D1*
Y22637D1*
X24637D1*
Y22567D1*
X24638Y23015D1*
X24065Y23013D1*
X23936Y23033D1*
X23797Y23108D1*
X23662Y23245D1*
X23605Y23348D1*
X23577Y23474D1*
X23576Y24073D1*
X23530Y24135D1*
X23473Y24253D1*
X23444Y24381D1*
X23445Y24512D1*
X23477Y24639D1*
X23537Y24755D1*
X23623Y24854D1*
X23729Y24931D1*
X23850Y24981D1*
X23979Y25002D1*
X24110Y24992D1*
X24234Y24952D1*
X24347Y24885D1*
X24440Y24793D1*
X24510Y24682D1*
X24552Y24558D1*
X24564Y24444D1*
X24662Y24481D1*
X24791Y24502D1*
X24922Y24492D1*
X25050Y24450D1*
X25628Y24452D1*
X25757Y24435D1*
X25879Y24386D1*
X26034Y24275D1*
X26190Y24305D1*
X26760D1*
X26763Y24571D1*
X26718Y24635D1*
X26660Y24753D1*
X26631Y24881D1*
X26633Y25012D1*
X26664Y25139D1*
X26725Y25255D1*
X26810Y25354D1*
X26916Y25431D1*
X27037Y25481D1*
X27166Y25502D1*
X27297Y25492D1*
X27422Y25452D1*
X27534Y25385D1*
X27625Y25296D1*
X27622Y25637D1*
X27691D1*
X27656Y25724D1*
X27627Y25852D1*
X27623Y25983D1*
X27643Y26113D1*
X27687Y26236D1*
X27735Y26317D1*
X27601Y26236D1*
X27476Y26199D1*
X27345Y26193D1*
X27216Y26216D1*
X27096Y26269D1*
X26992Y26348D1*
X26908Y26449D1*
X26851Y26566D1*
X26822Y26694D1*
X26823Y26825D1*
X26855Y26952D1*
X26915Y27068D1*
X26955Y27115D1*
X26954Y27455D1*
X26908Y27511D1*
X26851Y27629D1*
X26822Y27757D1*
X26823Y27887D1*
X26855Y28015D1*
X26915Y28131D1*
X27001Y28230D1*
X27107Y28307D1*
X27228Y28357D1*
X27357Y28377D1*
X27488Y28368D1*
X27612Y28328D1*
X27707Y28271D1*
X27754Y28349D1*
X27840Y28447D1*
X27943Y28528D1*
X28060Y28588D1*
X28186Y28625D1*
X28316Y28637D1*
X28447Y28625D1*
X28573Y28589D1*
X28690Y28530D1*
X28793Y28450D1*
X28872Y28361D1*
X28870Y30589D1*
X28825Y30649D1*
X28767Y30767D1*
X28738Y30894D1*
X28740Y31025D1*
X28771Y31152D1*
X28832Y31269D1*
X28917Y31368D1*
X29023Y31445D1*
X29144Y31495D1*
X29274Y31515D1*
X29404Y31506D1*
X29529Y31466D1*
X29641Y31398D1*
X29735Y31307D1*
X29804Y31196D1*
X29847Y31072D1*
X29859Y30954D1*
X29844Y30824D1*
X29799Y30701D1*
X29738Y30609D1*
X29886Y30635D1*
X30017Y30633D1*
X30145Y30606D1*
X30266Y30556D1*
X30376Y30484D1*
X30470Y30393D1*
X30545Y30286D1*
X30599Y30166D1*
X30630Y30039D1*
X30636Y29914D1*
X30619Y29784D1*
X30578Y29660D1*
X30514Y29545D1*
X30425Y29440D1*
X30502Y29352D1*
X30569Y29239D1*
X30614Y29116D1*
X30637Y28940D1*
X30624Y28810D1*
X30588Y28684D1*
X30528Y28567D1*
X30421Y28439D1*
X30502Y28352D1*
X30569Y28239D1*
X30614Y28116D1*
X30637Y27940D1*
X30624Y27810D1*
X30588Y27684D1*
X30528Y27567D1*
X30421Y27439D1*
X30502Y27352D1*
X30569Y27239D1*
X30614Y27116D1*
X30637Y26940D1*
X30624Y26810D1*
X30588Y26684D1*
X30528Y26567D1*
X30421Y26439D1*
X30502Y26352D1*
X30569Y26239D1*
X30614Y26116D1*
X30637Y25940D1*
X30624Y25810D1*
X30588Y25684D1*
X30528Y25567D1*
X30421Y25439D1*
X30502Y25352D1*
X30569Y25239D1*
X30614Y25116D1*
X30637Y24940D1*
X30624Y24810D1*
X30588Y24684D1*
X30528Y24567D1*
X30421Y24439D1*
X30470Y24393D1*
X30545Y24286D1*
X30599Y24166D1*
X30630Y24039D1*
X30636Y23914D1*
X30619Y23784D1*
X30578Y23660D1*
X30567Y23637D1*
X30637D1*
Y22244D1*
X29244D1*
Y22428D1*
X27439D1*
X27532Y22308D1*
X27590Y22191D1*
X27626Y22065D1*
X27637Y21940D1*
X27624Y21810D1*
X27588Y21684D1*
X27528Y21567D1*
X27448Y21464D1*
X27350Y21377D1*
X27237Y21310D1*
X27114Y21266D1*
X26985Y21245D1*
X26867Y21247D1*
Y20940D1*
X26847Y20811D1*
X26789Y20694D1*
X26706Y20607D1*
X26750Y20590D1*
X39287D1*
X39290Y21752D1*
Y22241D1*
X38324Y22244D1*
X38244D1*
Y22313D1*
X38114Y22266D1*
X37985Y22245D1*
X37854Y22249D1*
X37726Y22277D1*
X37605Y22329D1*
X37497Y22403D1*
X37442Y22458D1*
X26852Y29733D2*
X26921D1*
Y28340D1*
X25527D1*
Y28869D1*
X25465Y28815D1*
X25351Y28750D1*
X25225Y28713D1*
X25095Y28706D1*
X24966Y28730D1*
X24846Y28782D1*
X24741Y28861D1*
X24658Y28962D1*
X24600Y29080D1*
X24572Y29208D1*
X24573Y29338D1*
X24605Y29465D1*
X24665Y29582D1*
X24705Y29628D1*
X24703Y32511D1*
X24658Y32574D1*
X24600Y32692D1*
X24572Y32820D1*
X24573Y32951D1*
X24605Y33078D1*
X24665Y33194D1*
X24750Y33293D1*
X24856Y33370D1*
X24977Y33420D1*
X25107Y33441D1*
X25237Y33431D1*
X25362Y33391D1*
X25474Y33324D1*
X25568Y33232D1*
X25638Y33121D1*
X25680Y32997D1*
X25692Y32879D1*
X25677Y32749D1*
X25632Y32626D1*
X25557Y32514D1*
Y31234D1*
X25604Y31355D1*
X25675Y31465D1*
X25765Y31560D1*
X25871Y31637D1*
X25990Y31692D1*
X26117Y31725D1*
X26248Y31732D1*
X26378Y31716D1*
X26503Y31675D1*
X26617Y31611D1*
X26718Y31527D1*
X26801Y31426D1*
X26864Y31311D1*
X26904Y31186D1*
X26920Y31056D1*
X26913Y30932D1*
X26881Y30804D1*
X26826Y30686D1*
X26750Y30579D1*
X26708Y30536D1*
X26786Y30448D1*
X26853Y30335D1*
X26898Y30212D1*
X26921Y30036D1*
X26908Y29906D1*
X26872Y29780D1*
X26848Y29732D1*
X9281Y23725D2*
Y22339D1*
X9345Y22233D1*
X9387Y22110D1*
X9400Y21991D1*
X9385Y21861D1*
X9340Y21738D1*
X9267Y21629D1*
X9172Y21539D1*
X9058Y21474D1*
X8933Y21437D1*
X8802Y21430D1*
X8673Y21454D1*
X8553Y21507D1*
X8449Y21586D1*
X8366Y21687D1*
X8308Y21804D1*
X8279Y21932D1*
X8280Y22063D1*
X8312Y22190D1*
X8372Y22306D1*
X8428Y22371D1*
X8427Y23725D1*
X8381Y23785D1*
X8324Y23903D1*
X8295Y24030D1*
X8296Y24161D1*
X8328Y24288D1*
X8388Y24405D1*
X8473Y24504D1*
X8580Y24580D1*
X8701Y24631D1*
X8830Y24651D1*
X8960Y24642D1*
X9085Y24602D1*
X9197Y24534D1*
X9291Y24443D1*
X9361Y24332D1*
X9403Y24208D1*
X9416Y24090D1*
X9400Y23960D1*
X9355Y23837D1*
X9280Y23725D1*
X15472Y29111D2*
Y31071D1*
X15426Y31136D1*
X15369Y31254D1*
X15340Y31381D1*
X15341Y31512D1*
X15373Y31639D1*
X15433Y31755D1*
X15519Y31855D1*
X15625Y31931D1*
X15746Y31981D1*
X15875Y32002D1*
X16005Y31992D1*
X16130Y31953D1*
X16242Y31885D1*
X16336Y31794D1*
X16406Y31683D1*
X16448Y31559D1*
X16461Y31441D1*
X16445Y31311D1*
X16400Y31188D1*
X16325Y31076D1*
X16329Y28758D1*
X16341Y28639D1*
X16326Y28509D1*
X16281Y28386D1*
X16209Y28277D1*
X16113Y28188D1*
X16000Y28123D1*
X15874Y28086D1*
X15743Y28079D1*
X15615Y28102D1*
X15495Y28155D1*
X15390Y28234D1*
X15307Y28335D1*
X15249Y28452D1*
X15220Y28580D1*
X15222Y28711D1*
X15253Y28838D1*
X15314Y28954D1*
X15399Y29053D1*
X15469Y29104D1*
X21367Y27869D2*
X22072Y27870D1*
X22166Y27934D1*
X22287Y27984D1*
X22416Y28005D1*
X22547Y27995D1*
X22672Y27955D1*
X22784Y27888D1*
X22878Y27796D1*
X22947Y27686D1*
X22990Y27562D1*
X23002Y27443D1*
X22987Y27313D1*
X22942Y27190D1*
X22870Y27081D1*
X22774Y26992D1*
X22661Y26926D1*
X22535Y26889D1*
X22404Y26883D1*
X22276Y26906D1*
X22156Y26959D1*
X22081Y27016D1*
X21371Y27015D1*
X21223Y26924D1*
X21098Y26887D1*
X20967Y26880D1*
X20838Y26904D1*
X20718Y26956D1*
X20614Y27035D1*
X20530Y27136D1*
X20473Y27254D1*
X20444Y27382D1*
X20445Y27512D1*
X20477Y27639D1*
X20537Y27756D1*
X20623Y27855D1*
X20729Y27932D1*
X20850Y27982D1*
X20979Y28002D1*
X21110Y27993D1*
X21234Y27953D1*
X21361Y27871D1*
X27736Y26321D2*
X27601Y26236D1*
X27476Y26199D1*
X27345Y26193D1*
X27216Y26216D1*
X27096Y26269D1*
X26992Y26348D1*
X26908Y26449D1*
X26851Y26566D1*
X26822Y26694D1*
X26823Y26825D1*
X26855Y26952D1*
X26915Y27068D1*
X26955Y27115D1*
X11463Y29117D2*
X12579D1*
X12709Y29097D1*
X12829Y29036D1*
X12890Y28983D1*
X12888Y29410D1*
X11785Y29409D1*
X11643Y29319D1*
X11518Y29282D1*
X11387Y29275D1*
X11258Y29299D1*
X11138Y29351D1*
X11034Y29430D1*
X10950Y29531D1*
X10893Y29649D1*
X10864Y29777D1*
X10865Y29908D1*
X10897Y30035D1*
X10957Y30151D1*
X11043Y30250D1*
X11149Y30327D1*
X11270Y30377D1*
X11399Y30398D1*
X11530Y30388D1*
X11654Y30348D1*
X11787Y30261D1*
X13129Y30263D1*
X13315D1*
X13444Y30243D1*
X13561Y30185D1*
X13655Y30094D1*
X13717Y29979D1*
X13742Y29836D1*
Y27003D1*
X13722Y26873D1*
X13661Y26753D1*
X13524Y26608D1*
X13243Y26327D1*
X13242Y25801D1*
X13322Y25682D1*
X13365Y25558D1*
X13377Y25440D1*
X13362Y25310D1*
X13317Y25187D1*
X13245Y25078D1*
X13149Y24988D1*
X13036Y24923D1*
X12910Y24886D1*
X12779Y24879D1*
X12651Y24903D1*
X12531Y24955D1*
X12426Y25034D1*
X12343Y25135D1*
X12285Y25253D1*
X12256Y25381D1*
X12258Y25512D1*
X12289Y25639D1*
X12350Y25755D1*
X12390Y25801D1*
X12388Y26503D1*
X12408Y26632D1*
X12469Y26752D1*
X12606Y26897D1*
X12887Y27179D1*
X12888Y27843D1*
X12829Y27844D1*
X12700Y27868D1*
X12580Y27920D1*
X12476Y27999D1*
X12392Y28100D1*
X12335Y28218D1*
X12325Y28262D1*
X11460Y28263D1*
X11318Y28173D1*
X11193Y28136D1*
X11062Y28129D1*
X10933Y28153D1*
X10813Y28205D1*
X10709Y28284D1*
X10626Y28385D1*
X10568Y28503D1*
X10539Y28631D1*
X10541Y28762D1*
X10572Y28889D1*
X10632Y29005D1*
X10718Y29104D1*
X10824Y29181D1*
X10945Y29231D1*
X11074Y29252D1*
X11205Y29242D1*
X11330Y29202D1*
X11462Y29115D1*
X36940Y22940D2*
D18*
Y22244D1*
X35940Y22940D2*
Y22244D1*
X22440Y22636D2*
Y21940D1*
X23136D1*
X38940Y27636D2*
Y26940D1*
Y33636D2*
Y32940D1*
X9940Y33940D2*
Y33244D1*
X17489Y31736D2*
Y31040D1*
X16793D2*
X17489D1*
X26224Y31732D2*
Y31036D1*
X26920D1*
X28565Y32940D2*
Y32244D1*
X27869Y32940D2*
X29261D1*
X29940Y23940D2*
X30636D1*
X29940Y30636D2*
Y29940D1*
X30636D1*
X26940Y21940D2*
Y21244D1*
Y21940D2*
X27636D1*
X14940Y21636D2*
Y20940D1*
X15940Y21636D2*
Y20940D1*
X31186Y33618D2*
D15*
X33216D1*
X34666D2*
X35266D1*
X31186Y33319D2*
X33216D1*
X34666D2*
X35266D1*
X31186Y33021D2*
X33216D1*
X34666D2*
X35217D1*
X31186Y32722D2*
X33216D1*
X34666D2*
X35250D1*
X31186Y32423D2*
X33216D1*
X34666D2*
X35266D1*
X31186Y32125D2*
X35237D1*
X31186Y31826D2*
X35225D1*
X31186Y31527D2*
X35266D1*
X31186Y31228D2*
X35266D1*
X31186Y30930D2*
X35213D1*
X31186Y30631D2*
X34823D1*
X35059D2*
X35266D1*
X31186Y30332D2*
X34335D1*
X31186Y30034D2*
X34220D1*
X31186Y29735D2*
X34245D1*
X31186Y29436D2*
X34421D1*
X31186Y29138D2*
X34241D1*
X31186Y28839D2*
X34220D1*
X31186Y28540D2*
X34339D1*
X31186Y28242D2*
X34282D1*
X31186Y27943D2*
X34212D1*
X31186Y27644D2*
X34278D1*
X31186Y27346D2*
X34343D1*
X31186Y27047D2*
X34220D1*
X31186Y26748D2*
X34241D1*
X31186Y26449D2*
X34417D1*
X31186Y26151D2*
X34245D1*
X31186Y25852D2*
X34220D1*
X31186Y25553D2*
X34331D1*
X31186Y25255D2*
X34290D1*
X31186Y24956D2*
X34212D1*
X31186Y24657D2*
X34274D1*
X31186Y24359D2*
X34351D1*
X31186Y24060D2*
X34224D1*
X31186Y23761D2*
X34237D1*
X31186Y23463D2*
X34212D1*
X31186Y23164D2*
X34212D1*
X31186Y22865D2*
X34212D1*
X35293Y33690D2*
X35249Y33852D1*
X35247Y33913D1*
X34636Y33917D1*
X34624Y33810D1*
X34588Y33684D1*
X34564Y33636D1*
X34637Y33637D1*
Y32244D1*
X33244D1*
Y33637D1*
X33313D1*
X33278Y33724D1*
X33249Y33852D1*
X33247Y33913D1*
X32688Y33917D1*
X31158D1*
X31156Y31180D1*
Y22588D1*
X33237Y22590D1*
X34242D1*
X34244Y23637D1*
X34313D1*
X34278Y23724D1*
X34249Y23852D1*
X34245Y23983D1*
X34265Y24112D1*
X34309Y24235D1*
X34376Y24348D1*
X34454Y24438D1*
X34330Y24604D1*
X34278Y24724D1*
X34249Y24852D1*
X34245Y24983D1*
X34265Y25112D1*
X34309Y25235D1*
X34376Y25348D1*
X34454Y25438D1*
X34330Y25604D1*
X34278Y25724D1*
X34249Y25852D1*
X34245Y25983D1*
X34265Y26112D1*
X34309Y26235D1*
X34376Y26348D1*
X34454Y26438D1*
X34330Y26604D1*
X34278Y26724D1*
X34249Y26852D1*
X34245Y26983D1*
X34265Y27112D1*
X34309Y27235D1*
X34376Y27348D1*
X34454Y27438D1*
X34330Y27604D1*
X34278Y27724D1*
X34249Y27852D1*
X34245Y27983D1*
X34265Y28112D1*
X34309Y28235D1*
X34376Y28348D1*
X34454Y28438D1*
X34330Y28604D1*
X34278Y28724D1*
X34249Y28852D1*
X34245Y28983D1*
X34265Y29112D1*
X34309Y29235D1*
X34376Y29348D1*
X34454Y29438D1*
X34330Y29604D1*
X34278Y29724D1*
X34249Y29852D1*
X34245Y29983D1*
X34265Y30112D1*
X34309Y30235D1*
X34376Y30348D1*
X34462Y30447D1*
X34565Y30527D1*
X34682Y30587D1*
X34808Y30624D1*
X34938Y30637D1*
X35069Y30625D1*
X35195Y30589D1*
X35293Y30539D1*
X35294Y30679D1*
X35249Y30852D1*
X35245Y30983D1*
X35265Y31112D1*
X35294Y31193D1*
Y31680D1*
X35249Y31852D1*
X35245Y31983D1*
X35265Y32112D1*
X35294Y32193D1*
Y32681D1*
X35249Y32852D1*
X35245Y32983D1*
X35265Y33112D1*
X35294Y33202D1*
Y33681D1*
D29*
X36940Y33940D3*
D30*
X35940D3*
X36940Y32940D3*
X35940D3*
X36940Y31940D3*
X35940D3*
X36940Y30940D3*
X35940D3*
X36940Y29940D3*
X35940D3*
X36940Y28940D3*
X35940D3*
X36940Y27940D3*
X35940D3*
X36940Y26940D3*
X35940D3*
X36940Y25940D3*
X35940D3*
X36940Y24940D3*
X35940D3*
X36940Y23940D3*
X35940D3*
X36940Y22940D3*
X35940D3*
D29*
X21440Y21940D3*
D30*
X22440D3*
D29*
X38940Y22940D3*
D30*
X37940D3*
X38940Y23940D3*
X37940D3*
X38940Y24940D3*
X37940D3*
X38940Y25940D3*
X37940D3*
X38940Y26940D3*
X37940D3*
D29*
X38940Y28940D3*
D30*
X37940D3*
X38940Y29940D3*
X37940D3*
X38940Y30940D3*
X37940D3*
X38940Y31940D3*
X37940D3*
X38940Y32940D3*
X37940D3*
D29*
X8940Y33940D3*
D30*
X9940D3*
X10940D3*
D29*
X17489Y29040D3*
D30*
Y30040D3*
Y31040D3*
D29*
X26224Y29036D3*
D30*
Y30036D3*
Y31036D3*
D29*
X33940Y32940D3*
D30*
Y33940D3*
D29*
X28565Y32940D3*
D30*
Y33940D3*
D29*
X28318Y24941D3*
D30*
Y25941D3*
Y26941D3*
Y27941D3*
D29*
X34940Y22940D3*
D30*
Y23940D3*
Y24940D3*
Y25940D3*
Y26940D3*
Y27940D3*
Y28940D3*
Y29940D3*
D29*
X29940Y22940D3*
D30*
Y23940D3*
Y24940D3*
Y25940D3*
Y26940D3*
Y27940D3*
Y28940D3*
Y29940D3*
D29*
X18940Y21940D3*
D30*
X19940D3*
D29*
X23940D3*
D30*
X24940D3*
X25940D3*
X26940D3*
D29*
X11940Y20940D3*
D30*
X12940D3*
X13940D3*
X14940D3*
X15940D3*
X16940D3*
X17940D3*
X18940D3*
X19940D3*
X20940D3*
X21940D3*
X22940D3*
X23940D3*
X24940D3*
X25940D3*
X45854Y24090D2*
D14*
Y22007D1*
X45838Y21991D1*
X63224Y31036D2*
X65174D1*
X65565Y31428D1*
Y32940D1*
X45629Y32942D2*
X46941D1*
Y33065D1*
Y33939D1*
X46940Y33940D1*
X48315Y33065D2*
X46941D1*
X44950Y25307D2*
X45920D1*
X46941Y26328D1*
X47804Y27191D1*
X49191D1*
X46941Y32942D2*
Y32331D1*
Y26328D1*
X54489Y31040D2*
Y31645D1*
X53803Y32331D1*
X46941D1*
X47566Y25691D2*
X48566D1*
X48942Y26066D1*
Y26941D1*
X49191Y27191D1*
X75940Y26940D2*
X75945D1*
X76444Y26441D1*
Y22440D1*
X76382Y22378D1*
X74007D1*
X73944Y22440D1*
Y22936D1*
X73940Y22940D1*
X72940D2*
Y22444D1*
X73007Y22378D1*
X74007D1*
X49589Y22690D2*
X46941D1*
Y26328D1*
X58505Y26253D2*
X57380D1*
X65628Y30315D2*
Y30753D1*
X65344Y31036D1*
X65174D1*
X45940Y33940D2*
Y34448D1*
X49913D1*
Y33889D1*
X52779Y28639D2*
X52899D1*
Y31441D1*
X58003Y27441D2*
X59440Y27443D1*
X61003Y24440D2*
Y23503D1*
X61065Y23440D1*
X62065D1*
Y22503D1*
X63440D1*
Y20940D1*
X62940D1*
X72940Y23940D2*
X73440Y23440D1*
X74440D1*
X74940Y22940D1*
X64381Y27816D2*
Y26753D1*
X63190Y23440D2*
Y23878D1*
X64190D1*
Y24940D1*
X55130Y32817D2*
Y30588D1*
X55442D1*
Y29879D1*
X62130Y32879D2*
Y29267D1*
X72940Y31940D2*
X73440Y32440D1*
X75440D1*
X75940Y31940D1*
X72940Y30940D2*
X73440Y31440D1*
X75440D1*
X75940Y30940D1*
X73940Y28940D2*
X74440Y29440D1*
X75440D1*
X75940Y29940D1*
X73940Y27940D2*
X74378Y28378D1*
X75378D1*
X75940Y28940D1*
X73940Y25940D2*
X74440Y25440D1*
X75440D1*
Y24628D1*
X75940Y24128D1*
Y23940D1*
X72940Y24940D2*
X73440Y24440D1*
X75253D1*
X75440Y24253D1*
Y23440D1*
X75940Y22940D1*
X73940Y33940D2*
X73378Y34503D1*
X66128D1*
X65565Y33940D1*
X48098Y28690D2*
X49579D1*
X49865Y28405D1*
X61940Y20940D2*
X62940Y21940D1*
X59940Y20940D2*
X60940Y21940D1*
Y20940D2*
X61940Y21940D1*
X66940Y22940D2*
D15*
X66297D1*
X62628D1*
Y23940D1*
X61815D1*
X66297Y30954D2*
D14*
Y22940D1*
X49815Y25440D2*
Y26503D1*
X50315Y27003D1*
Y29836D1*
X48423D1*
X51735Y33905D2*
X60940D1*
X60987Y33857D1*
Y29692D1*
X56436Y31972D2*
Y33259D1*
X51731D1*
D18*
X45854Y24090D3*
X45838Y21991D3*
X45629Y32942D3*
X48315Y33065D3*
X44950Y25307D3*
X49191Y27191D3*
X47566Y25691D3*
X49589Y22690D3*
X58505Y26253D3*
X57380D3*
X65628Y30315D3*
X49913Y33889D3*
X52779Y28639D3*
X52899Y31441D3*
X58003Y27441D3*
X59440Y27443D3*
X61003Y24440D3*
X64381Y27816D3*
Y26753D3*
X63190Y23440D3*
X64190Y24940D3*
X64381Y26753D3*
X55130Y32817D3*
X55442Y29879D3*
X62130Y32879D3*
Y29267D3*
X48098Y28690D3*
X49865Y28405D3*
X61815Y23940D3*
X66297Y30954D3*
X49815Y25440D3*
X48423Y29836D3*
X51735Y33905D3*
X60987Y29692D3*
X56436Y31972D3*
X51731Y33259D3*
X46940Y31940D3*
Y31440D3*
Y30940D3*
Y30440D3*
Y29940D3*
Y29440D3*
Y28940D3*
Y28440D3*
Y27940D3*
Y27440D3*
Y26940D3*
Y26440D3*
Y25940D3*
Y25440D3*
Y24940D3*
X53440Y31940D3*
Y31440D3*
Y30940D3*
Y30440D3*
Y29940D3*
Y29440D3*
Y28940D3*
Y28440D3*
Y27940D3*
Y27440D3*
Y26940D3*
Y26440D3*
Y25940D3*
Y25440D3*
Y24940D3*
X69256Y30504D3*
Y30004D3*
Y29504D3*
Y29004D3*
X69819Y30504D3*
Y30004D3*
Y29504D3*
Y29004D3*
X69256Y28504D3*
X69819D3*
X68381Y29754D3*
Y29254D3*
X45315Y25315D3*
X44628D3*
X48815Y27190D3*
X49565D3*
X41620Y33991D2*
D15*
X45212D1*
X48664D2*
X49330D1*
X50497D2*
X51150D1*
X61422D2*
X64840D1*
X66290D2*
X67616D1*
X74668D2*
X76261D1*
X41620Y33693D2*
X45212D1*
X48623D2*
X49354D1*
X50468D2*
X51183D1*
X61443D2*
X64885D1*
X66245D2*
X67616D1*
X74668D2*
X76261D1*
X41620Y33394D2*
X45212D1*
X48401D2*
X49617D1*
X50210D2*
X51155D1*
X56870D2*
X60530D1*
X61443D2*
X61875D1*
X62386D2*
X64840D1*
X66290D2*
X67616D1*
X41620Y33095D2*
X51163D1*
X56895D2*
X60530D1*
X62677D2*
X64840D1*
X66290D2*
X67616D1*
X41620Y32797D2*
X51384D1*
X52080D2*
X54538D1*
X55722D2*
X55977D1*
X56895D2*
X60530D1*
X62718D2*
X64840D1*
X66290D2*
X67616D1*
X41620Y32498D2*
X54636D1*
X55623D2*
X55977D1*
X56895D2*
X60530D1*
X61443D2*
X61674D1*
X62587D2*
X64840D1*
X66290D2*
X67616D1*
X41620Y32199D2*
X54673D1*
X55586D2*
X55891D1*
X56981D2*
X60530D1*
X61443D2*
X61674D1*
X62587D2*
X67616D1*
X41620Y31901D2*
X52545D1*
X53253D2*
X54673D1*
X55586D2*
X55850D1*
X57022D2*
X60530D1*
X61443D2*
X61674D1*
X62587D2*
X67616D1*
X41620Y31602D2*
X52332D1*
X53466D2*
X54046D1*
X55586D2*
X55981D1*
X56890D2*
X60530D1*
X61443D2*
X61674D1*
X62587D2*
X62789D1*
X63661D2*
X67616D1*
X41620Y31303D2*
X52323D1*
X53474D2*
X53812D1*
X55586D2*
X60530D1*
X61443D2*
X61674D1*
X63899D2*
X65828D1*
X66766D2*
X67616D1*
X41620Y31005D2*
X52442D1*
X53355D2*
X53763D1*
X55586D2*
X60530D1*
X61443D2*
X61674D1*
X63948D2*
X65709D1*
X66889D2*
X67616D1*
X41620Y30706D2*
X52442D1*
X53355D2*
X53849D1*
X55882D2*
X60530D1*
X61443D2*
X61674D1*
X63866D2*
X65763D1*
X66831D2*
X67616D1*
X41620Y30407D2*
X52442D1*
X53355D2*
X53865D1*
X55898D2*
X60530D1*
X61443D2*
X61674D1*
X63842D2*
X65840D1*
X41620Y30109D2*
X47902D1*
X50673D2*
X52442D1*
X53355D2*
X53767D1*
X55984D2*
X60530D1*
X61443D2*
X61674D1*
X63948D2*
X65840D1*
X41620Y29810D2*
X47833D1*
X50772D2*
X52442D1*
X53355D2*
X53800D1*
X56029D2*
X60407D1*
X63911D2*
X65840D1*
X41620Y29511D2*
X47935D1*
X50772D2*
X52442D1*
X53355D2*
X53763D1*
X55898D2*
X60427D1*
X63952D2*
X65840D1*
X41620Y29212D2*
X47861D1*
X48336D2*
X49859D1*
X50772D2*
X52442D1*
X53355D2*
X53763D1*
X55217D2*
X60665D1*
X61311D2*
X61543D1*
X63952D2*
X65840D1*
X41620Y28914D2*
X47554D1*
X50772D2*
X52258D1*
X53355D2*
X53763D1*
X55217D2*
X61661D1*
X63952D2*
X65840D1*
X41620Y28615D2*
X47513D1*
X50772D2*
X52188D1*
X53372D2*
X53763D1*
X55217D2*
X62498D1*
X63952D2*
X65115D1*
X65523D2*
X65840D1*
X41620Y28316D2*
X47648D1*
X50772D2*
X52291D1*
X53269D2*
X64093D1*
X41620Y28018D2*
X49428D1*
X50772D2*
X63827D1*
X75636D2*
X76261D1*
X41620Y27719D2*
X49859D1*
X50772D2*
X57482D1*
X59958D2*
X63798D1*
X74632D2*
X76261D1*
X41620Y27420D2*
X49859D1*
X50772D2*
X57413D1*
X60032D2*
X63925D1*
X41620Y27122D2*
X49801D1*
X50772D2*
X57511D1*
X59929D2*
X63925D1*
X41620Y26823D2*
X49502D1*
X50731D2*
X63794D1*
X41620Y26524D2*
X49358D1*
X50472D2*
X63839D1*
X41620Y26226D2*
X49358D1*
X50271D2*
X64159D1*
X41620Y25927D2*
X49358D1*
X50271D2*
X64594D1*
X41620Y25628D2*
X49256D1*
X50374D2*
X64594D1*
X41620Y25330D2*
X49235D1*
X50394D2*
X63757D1*
X41620Y25031D2*
X49399D1*
X50230D2*
X63605D1*
X41620Y24732D2*
X60493D1*
X61512D2*
X63638D1*
X41620Y24433D2*
X45380D1*
X46326D2*
X60411D1*
X62796D2*
X63732D1*
X67463D2*
X67616D1*
X41620Y24135D2*
X45265D1*
X46445D2*
X60501D1*
X41620Y23836D2*
X45323D1*
X46384D2*
X60546D1*
X41620Y23537D2*
X45397D1*
X46310D2*
X60546D1*
X41620Y23239D2*
X45397D1*
X46310D2*
X60636D1*
X41620Y22940D2*
X45397D1*
X46310D2*
X61608D1*
X41620Y22641D2*
X45397D1*
X46310D2*
X61608D1*
X41620Y22343D2*
X45368D1*
X46310D2*
X55215D1*
X57538D2*
X57712D1*
X60040D2*
X60214D1*
X64539D2*
X66214D1*
X73327D2*
X73550D1*
X74328D2*
X74551D1*
X41620Y22044D2*
X45249D1*
X46429D2*
X55215D1*
X64658D2*
X76261D1*
X41620Y21745D2*
X45302D1*
X46371D2*
X55215D1*
X64637D2*
X76261D1*
X41620Y21447D2*
X45671D1*
X46006D2*
X48214D1*
X64461D2*
X76261D1*
X41620Y21148D2*
X48214D1*
X63895D2*
X76261D1*
X41620Y20849D2*
X48214D1*
X63887D2*
X76261D1*
X74637Y34288D2*
Y33566D1*
X74808Y33624D1*
X74938Y33637D1*
X75069Y33625D1*
X75195Y33589D1*
X75312Y33530D1*
X75440Y33422D1*
X75502Y33481D1*
X75611Y33554D1*
X75731Y33605D1*
X75860Y33632D1*
X75991Y33635D1*
X76120Y33613D1*
X76243Y33568D1*
X76290Y33543D1*
Y34289D1*
X74640Y34290D1*
X74624Y27810D2*
X74588Y27684D1*
X74528Y27567D1*
X74421Y27439D1*
X74462Y27447D1*
X74565Y27527D1*
X74682Y27587D1*
X74808Y27624D1*
X74938Y27637D1*
X75069Y27625D1*
X75195Y27589D1*
X75312Y27530D1*
X75440Y27422D1*
X75502Y27481D1*
X75611Y27554D1*
X75731Y27605D1*
X75860Y27632D1*
X75991Y27635D1*
X76120Y27613D1*
X76243Y27568D1*
X76290Y27543D1*
Y28244D1*
X75845D1*
X75680Y28076D1*
X75574Y27999D1*
X75446Y27957D1*
X75246Y27951D1*
X74635D1*
X74624Y27810D1*
X74440Y22455D2*
X74328Y22362D1*
X74213Y22299D1*
X74088Y22259D1*
X73958Y22244D1*
X73828Y22253D1*
X73701Y22286D1*
X73583Y22342D1*
X73477Y22420D1*
X73440Y22456D1*
X73350Y22377D1*
X73237Y22310D1*
X73114Y22266D1*
X72985Y22245D1*
X72854Y22249D1*
X72761Y22267D1*
X72742Y22235D1*
X72650Y22142D1*
X72531Y22089D1*
X72313Y22078D1*
X68006D1*
X67878Y22102D1*
X67766Y22169D1*
X67685Y22272D1*
X67647Y22401D1*
X67644Y23359D1*
X67645Y34071D1*
X67341Y34076D1*
X66303D1*
X66260Y33987D1*
X66249Y33810D1*
X66213Y33684D1*
X66189Y33636D1*
X66262Y33637D1*
Y32244D1*
X64869D1*
Y33637D1*
X64938D1*
X64903Y33724D1*
X64874Y33852D1*
X64870Y33983D1*
X64890Y34112D1*
X64934Y34235D1*
X64965Y34288D1*
X61123Y34290D1*
X61205Y34240D1*
X61319Y34126D1*
X61368Y34052D1*
X61400Y33969D1*
X61414Y33857D1*
Y30056D1*
X61495Y29934D1*
X61537Y29810D1*
X61549Y29692D1*
X61534Y29562D1*
X61489Y29439D1*
X61417Y29330D1*
X61322Y29240D1*
X61208Y29175D1*
X61082Y29138D1*
X60952Y29131D1*
X60823Y29155D1*
X60703Y29207D1*
X60598Y29286D1*
X60515Y29387D1*
X60457Y29505D1*
X60429Y29633D1*
X60430Y29764D1*
X60462Y29891D1*
X60522Y30007D1*
X60562Y30053D1*
X60560Y33477D1*
X56802Y33478D1*
X56833Y33416D1*
X56863Y33259D1*
Y32336D1*
X56943Y32214D1*
X56986Y32090D1*
X56998Y31972D1*
X56983Y31842D1*
X56938Y31719D1*
X56866Y31609D1*
X56770Y31520D1*
X56657Y31455D1*
X56531Y31418D1*
X56400Y31411D1*
X56272Y31434D1*
X56152Y31487D1*
X56047Y31566D1*
X55964Y31667D1*
X55906Y31785D1*
X55877Y31912D1*
X55879Y32043D1*
X55910Y32170D1*
X55971Y32286D1*
X56011Y32333D1*
X56009Y32829D1*
X55694Y32832D1*
X55676Y32686D1*
X55631Y32563D1*
X55556Y32451D1*
X55557Y30999D1*
X55676Y30945D1*
X55773Y30858D1*
X55839Y30745D1*
X55869Y30588D1*
Y30248D1*
X55949Y30121D1*
X55992Y29997D1*
X56004Y29879D1*
X55989Y29749D1*
X55944Y29626D1*
X55872Y29516D1*
X55776Y29427D1*
X55663Y29362D1*
X55537Y29325D1*
X55406Y29318D1*
X55278Y29341D1*
X55184Y29383D1*
X55186Y28343D1*
X53792D1*
Y29737D1*
X53862D1*
X53827Y29824D1*
X53798Y29951D1*
X53794Y30082D1*
X53814Y30212D1*
X53858Y30335D1*
X53924Y30448D1*
X54003Y30537D1*
X53906Y30658D1*
X53845Y30774D1*
X53807Y30900D1*
X53792Y31030D1*
X53803Y31161D1*
X53837Y31287D1*
X53895Y31405D1*
X53974Y31509D1*
X54071Y31597D1*
X54183Y31666D1*
X54305Y31712D1*
X54434Y31735D1*
X54565Y31732D1*
X54702Y31703D1*
X54703Y32454D1*
X54657Y32512D1*
X54600Y32629D1*
X54571Y32757D1*
X54572Y32835D1*
X52762Y32832D1*
X52093D1*
X51952Y32742D1*
X51826Y32705D1*
X51696Y32698D1*
X51567Y32722D1*
X51447Y32774D1*
X51343Y32853D1*
X51259Y32954D1*
X51202Y33072D1*
X51173Y33200D1*
X51174Y33331D1*
X51206Y33458D1*
X51274Y33583D1*
X51206Y33718D1*
X51177Y33845D1*
X51178Y33976D1*
X51210Y34103D1*
X51270Y34220D1*
X51331Y34291D1*
X50337Y34290D1*
X50350Y34242D1*
X50420Y34131D1*
X50462Y34007D1*
X50475Y33889D1*
X50459Y33759D1*
X50414Y33636D1*
X50342Y33527D1*
X50247Y33437D1*
X50133Y33372D1*
X50008Y33335D1*
X49877Y33328D1*
X49748Y33352D1*
X49628Y33404D1*
X49524Y33483D1*
X49440Y33584D1*
X49383Y33702D1*
X49354Y33830D1*
X49355Y33960D1*
X49370Y34020D1*
X48629Y34021D1*
X48637Y33940D1*
X48624Y33810D1*
X48588Y33684D1*
X48528Y33567D1*
X48448Y33464D1*
X48350Y33377D1*
X48237Y33310D1*
X48114Y33266D1*
X47985Y33245D1*
X47854Y33249D1*
X47726Y33277D1*
X47605Y33329D1*
X47497Y33403D1*
X47442Y33458D1*
X47350Y33377D1*
X47237Y33310D1*
X47114Y33266D1*
X46985Y33245D1*
X46854Y33249D1*
X46726Y33277D1*
X46637Y33313D1*
Y33244D1*
X45244D1*
Y34289D1*
X41594Y34290D1*
X41590Y33128D1*
Y20591D1*
X48244Y20590D1*
Y21637D1*
X49637D1*
Y21567D1*
X49808Y21624D1*
X49938Y21637D1*
X50069Y21625D1*
X50195Y21589D1*
X50312Y21530D1*
X50440Y21422D1*
X50565Y21527D1*
X50682Y21587D1*
X50808Y21624D1*
X50938Y21637D1*
X51069Y21625D1*
X51195Y21589D1*
X51312Y21530D1*
X51440Y21422D1*
X51502Y21481D1*
X51611Y21554D1*
X51731Y21605D1*
X51860Y21632D1*
X51991Y21635D1*
X52120Y21613D1*
X52243Y21568D1*
X52355Y21500D1*
X52440Y21425D1*
X52544Y21513D1*
X52658Y21577D1*
X52782Y21619D1*
X52912Y21636D1*
X53043Y21629D1*
X53170Y21598D1*
X53289Y21543D1*
X53396Y21467D1*
X53440Y21425D1*
X53565Y21527D1*
X53682Y21587D1*
X53808Y21624D1*
X53938Y21637D1*
X54069Y21625D1*
X54195Y21589D1*
X54312Y21530D1*
X54440Y21422D1*
X54565Y21527D1*
X54682Y21587D1*
X54808Y21624D1*
X54938Y21637D1*
X55069Y21625D1*
X55195Y21589D1*
X55242Y21565D1*
X55244Y22637D1*
X56637D1*
Y22567D1*
X56808Y22624D1*
X56938Y22637D1*
X57069Y22625D1*
X57195Y22589D1*
X57312Y22530D1*
X57415Y22450D1*
X57502Y22352D1*
X57569Y22239D1*
X57614Y22116D1*
X57637Y21940D1*
X57624Y21810D1*
X57588Y21684D1*
X57528Y21567D1*
X57421Y21439D1*
X57462Y21447D1*
X57565Y21527D1*
X57682Y21587D1*
X57741Y21604D1*
X57744Y22637D1*
X59137D1*
Y22567D1*
X59257Y22612D1*
X59386Y22635D1*
X59517Y22633D1*
X59645Y22606D1*
X59766Y22556D1*
X59876Y22484D1*
X59970Y22393D1*
X60045Y22286D1*
X60099Y22166D1*
X60130Y22039D1*
X60136Y21914D1*
X60119Y21784D1*
X60093Y21697D1*
X60244Y21848D1*
Y22637D1*
X61637D1*
Y22567D1*
X61638Y23015D1*
X61065Y23013D1*
X60936Y23033D1*
X60797Y23108D1*
X60662Y23245D1*
X60605Y23348D1*
X60577Y23474D1*
X60576Y24073D1*
X60530Y24135D1*
X60473Y24253D1*
X60444Y24381D1*
X60445Y24512D1*
X60477Y24639D1*
X60537Y24755D1*
X60623Y24854D1*
X60729Y24931D1*
X60850Y24981D1*
X60979Y25002D1*
X61110Y24992D1*
X61234Y24952D1*
X61347Y24885D1*
X61440Y24793D1*
X61510Y24682D1*
X61552Y24558D1*
X61564Y24444D1*
X61662Y24481D1*
X61791Y24502D1*
X61922Y24492D1*
X62050Y24450D1*
X62628Y24452D1*
X62757Y24435D1*
X62879Y24386D1*
X63034Y24275D1*
X63190Y24305D1*
X63760D1*
X63763Y24571D1*
X63718Y24635D1*
X63660Y24753D1*
X63631Y24881D1*
X63633Y25012D1*
X63664Y25139D1*
X63725Y25255D1*
X63810Y25354D1*
X63916Y25431D1*
X64037Y25481D1*
X64166Y25502D1*
X64297Y25492D1*
X64422Y25452D1*
X64534Y25385D1*
X64625Y25296D1*
X64622Y25637D1*
X64691D1*
X64656Y25724D1*
X64627Y25852D1*
X64623Y25983D1*
X64643Y26113D1*
X64687Y26236D1*
X64735Y26317D1*
X64601Y26236D1*
X64476Y26199D1*
X64345Y26193D1*
X64216Y26216D1*
X64096Y26269D1*
X63992Y26348D1*
X63908Y26449D1*
X63851Y26566D1*
X63822Y26694D1*
X63823Y26825D1*
X63855Y26952D1*
X63915Y27068D1*
X63955Y27115D1*
X63954Y27455D1*
X63908Y27511D1*
X63851Y27629D1*
X63822Y27757D1*
X63823Y27887D1*
X63855Y28015D1*
X63915Y28131D1*
X64001Y28230D1*
X64107Y28307D1*
X64228Y28357D1*
X64357Y28377D1*
X64488Y28368D1*
X64612Y28328D1*
X64707Y28271D1*
X64754Y28349D1*
X64840Y28447D1*
X64943Y28528D1*
X65060Y28588D1*
X65186Y28625D1*
X65316Y28637D1*
X65447Y28625D1*
X65573Y28589D1*
X65690Y28530D1*
X65793Y28450D1*
X65872Y28361D1*
X65870Y30589D1*
X65825Y30649D1*
X65767Y30767D1*
X65738Y30894D1*
X65740Y31025D1*
X65771Y31152D1*
X65832Y31269D1*
X65917Y31368D1*
X66023Y31445D1*
X66144Y31495D1*
X66274Y31515D1*
X66404Y31506D1*
X66529Y31466D1*
X66641Y31398D1*
X66735Y31307D1*
X66804Y31196D1*
X66847Y31072D1*
X66859Y30954D1*
X66844Y30824D1*
X66799Y30701D1*
X66738Y30609D1*
X66886Y30635D1*
X67017Y30633D1*
X67145Y30606D1*
X67266Y30556D1*
X67376Y30484D1*
X67470Y30393D1*
X67545Y30286D1*
X67599Y30166D1*
X67630Y30039D1*
X67636Y29914D1*
X67619Y29784D1*
X67578Y29660D1*
X67514Y29545D1*
X67425Y29440D1*
X67502Y29352D1*
X67569Y29239D1*
X67614Y29116D1*
X67637Y28940D1*
X67624Y28810D1*
X67588Y28684D1*
X67528Y28567D1*
X67421Y28439D1*
X67502Y28352D1*
X67569Y28239D1*
X67614Y28116D1*
X67637Y27940D1*
X67624Y27810D1*
X67588Y27684D1*
X67528Y27567D1*
X67421Y27439D1*
X67502Y27352D1*
X67569Y27239D1*
X67614Y27116D1*
X67637Y26940D1*
X67624Y26810D1*
X67588Y26684D1*
X67528Y26567D1*
X67421Y26439D1*
X67502Y26352D1*
X67569Y26239D1*
X67614Y26116D1*
X67637Y25940D1*
X67624Y25810D1*
X67588Y25684D1*
X67528Y25567D1*
X67421Y25439D1*
X67502Y25352D1*
X67569Y25239D1*
X67614Y25116D1*
X67637Y24940D1*
X67624Y24810D1*
X67588Y24684D1*
X67528Y24567D1*
X67421Y24439D1*
X67470Y24393D1*
X67545Y24286D1*
X67599Y24166D1*
X67630Y24039D1*
X67636Y23914D1*
X67619Y23784D1*
X67578Y23660D1*
X67567Y23637D1*
X67637D1*
Y22244D1*
X66244D1*
Y22428D1*
X64439D1*
X64532Y22308D1*
X64590Y22191D1*
X64626Y22065D1*
X64637Y21940D1*
X64624Y21810D1*
X64588Y21684D1*
X64528Y21567D1*
X64448Y21464D1*
X64350Y21377D1*
X64237Y21310D1*
X64114Y21266D1*
X63985Y21245D1*
X63867Y21247D1*
Y20940D1*
X63847Y20811D1*
X63789Y20694D1*
X63706Y20607D1*
X63750Y20590D1*
X76287D1*
X76290Y21752D1*
Y22241D1*
X75324Y22244D1*
X75244D1*
Y22313D1*
X75114Y22266D1*
X74985Y22245D1*
X74854Y22249D1*
X74726Y22277D1*
X74605Y22329D1*
X74497Y22403D1*
X74442Y22458D1*
X63852Y29733D2*
X63921D1*
Y28340D1*
X62527D1*
Y28869D1*
X62465Y28815D1*
X62351Y28750D1*
X62225Y28713D1*
X62095Y28706D1*
X61966Y28730D1*
X61846Y28782D1*
X61741Y28861D1*
X61658Y28962D1*
X61600Y29080D1*
X61572Y29208D1*
X61573Y29338D1*
X61605Y29465D1*
X61665Y29582D1*
X61705Y29628D1*
X61703Y32511D1*
X61658Y32574D1*
X61600Y32692D1*
X61572Y32820D1*
X61573Y32951D1*
X61605Y33078D1*
X61665Y33194D1*
X61750Y33293D1*
X61856Y33370D1*
X61977Y33420D1*
X62107Y33441D1*
X62237Y33431D1*
X62362Y33391D1*
X62474Y33324D1*
X62568Y33232D1*
X62638Y33121D1*
X62680Y32997D1*
X62692Y32879D1*
X62677Y32749D1*
X62632Y32626D1*
X62557Y32514D1*
Y31234D1*
X62604Y31355D1*
X62675Y31465D1*
X62765Y31560D1*
X62871Y31637D1*
X62990Y31692D1*
X63117Y31725D1*
X63248Y31732D1*
X63378Y31716D1*
X63503Y31675D1*
X63617Y31611D1*
X63718Y31527D1*
X63801Y31426D1*
X63864Y31311D1*
X63904Y31186D1*
X63920Y31056D1*
X63913Y30932D1*
X63881Y30804D1*
X63826Y30686D1*
X63750Y30579D1*
X63708Y30536D1*
X63786Y30448D1*
X63853Y30335D1*
X63898Y30212D1*
X63921Y30036D1*
X63908Y29906D1*
X63872Y29780D1*
X63848Y29732D1*
X46281Y23725D2*
Y22339D1*
X46345Y22233D1*
X46387Y22110D1*
X46400Y21991D1*
X46385Y21861D1*
X46340Y21738D1*
X46267Y21629D1*
X46172Y21539D1*
X46058Y21474D1*
X45933Y21437D1*
X45802Y21430D1*
X45673Y21454D1*
X45553Y21507D1*
X45449Y21586D1*
X45366Y21687D1*
X45308Y21804D1*
X45279Y21932D1*
X45280Y22063D1*
X45312Y22190D1*
X45372Y22306D1*
X45428Y22371D1*
X45427Y23725D1*
X45381Y23785D1*
X45324Y23903D1*
X45295Y24030D1*
X45296Y24161D1*
X45328Y24288D1*
X45388Y24405D1*
X45473Y24504D1*
X45580Y24580D1*
X45701Y24631D1*
X45830Y24651D1*
X45960Y24642D1*
X46085Y24602D1*
X46197Y24534D1*
X46291Y24443D1*
X46361Y24332D1*
X46403Y24208D1*
X46416Y24090D1*
X46400Y23960D1*
X46355Y23837D1*
X46280Y23725D1*
X52472Y29111D2*
Y31071D1*
X52426Y31136D1*
X52369Y31254D1*
X52340Y31381D1*
X52341Y31512D1*
X52373Y31639D1*
X52433Y31755D1*
X52519Y31855D1*
X52625Y31931D1*
X52746Y31981D1*
X52875Y32002D1*
X53005Y31992D1*
X53130Y31953D1*
X53242Y31885D1*
X53336Y31794D1*
X53406Y31683D1*
X53448Y31559D1*
X53461Y31441D1*
X53445Y31311D1*
X53400Y31188D1*
X53325Y31076D1*
X53329Y28758D1*
X53341Y28639D1*
X53326Y28509D1*
X53281Y28386D1*
X53209Y28277D1*
X53113Y28188D1*
X53000Y28123D1*
X52874Y28086D1*
X52743Y28079D1*
X52615Y28102D1*
X52495Y28155D1*
X52390Y28234D1*
X52307Y28335D1*
X52249Y28452D1*
X52220Y28580D1*
X52222Y28711D1*
X52253Y28838D1*
X52314Y28954D1*
X52399Y29053D1*
X52469Y29104D1*
X58367Y27869D2*
X59072Y27870D1*
X59166Y27934D1*
X59287Y27984D1*
X59416Y28005D1*
X59547Y27995D1*
X59672Y27955D1*
X59784Y27888D1*
X59878Y27796D1*
X59947Y27686D1*
X59990Y27562D1*
X60002Y27443D1*
X59987Y27313D1*
X59942Y27190D1*
X59870Y27081D1*
X59774Y26992D1*
X59661Y26926D1*
X59535Y26889D1*
X59404Y26883D1*
X59276Y26906D1*
X59156Y26959D1*
X59081Y27016D1*
X58371Y27015D1*
X58223Y26924D1*
X58098Y26887D1*
X57967Y26880D1*
X57838Y26904D1*
X57718Y26956D1*
X57614Y27035D1*
X57530Y27136D1*
X57473Y27254D1*
X57444Y27382D1*
X57445Y27512D1*
X57477Y27639D1*
X57537Y27756D1*
X57623Y27855D1*
X57729Y27932D1*
X57850Y27982D1*
X57979Y28002D1*
X58110Y27993D1*
X58234Y27953D1*
X58361Y27871D1*
X64736Y26321D2*
X64601Y26236D1*
X64476Y26199D1*
X64345Y26193D1*
X64216Y26216D1*
X64096Y26269D1*
X63992Y26348D1*
X63908Y26449D1*
X63851Y26566D1*
X63822Y26694D1*
X63823Y26825D1*
X63855Y26952D1*
X63915Y27068D1*
X63955Y27115D1*
X48463Y29117D2*
X49579D1*
X49709Y29097D1*
X49829Y29036D1*
X49890Y28983D1*
X49888Y29410D1*
X48785Y29409D1*
X48643Y29319D1*
X48518Y29282D1*
X48387Y29275D1*
X48258Y29299D1*
X48138Y29351D1*
X48034Y29430D1*
X47950Y29531D1*
X47893Y29649D1*
X47864Y29777D1*
X47865Y29908D1*
X47897Y30035D1*
X47957Y30151D1*
X48043Y30250D1*
X48149Y30327D1*
X48270Y30377D1*
X48399Y30398D1*
X48530Y30388D1*
X48654Y30348D1*
X48787Y30261D1*
X50129Y30263D1*
X50315D1*
X50444Y30243D1*
X50561Y30185D1*
X50655Y30094D1*
X50717Y29979D1*
X50742Y29836D1*
Y27003D1*
X50722Y26873D1*
X50661Y26753D1*
X50524Y26608D1*
X50243Y26327D1*
X50242Y25801D1*
X50322Y25682D1*
X50365Y25558D1*
X50377Y25440D1*
X50362Y25310D1*
X50317Y25187D1*
X50245Y25078D1*
X50149Y24988D1*
X50036Y24923D1*
X49910Y24886D1*
X49779Y24879D1*
X49651Y24903D1*
X49531Y24955D1*
X49426Y25034D1*
X49343Y25135D1*
X49285Y25253D1*
X49256Y25381D1*
X49258Y25512D1*
X49289Y25639D1*
X49350Y25755D1*
X49390Y25801D1*
X49388Y26503D1*
X49408Y26632D1*
X49469Y26752D1*
X49606Y26897D1*
X49887Y27179D1*
X49888Y27843D1*
X49829Y27844D1*
X49700Y27868D1*
X49580Y27920D1*
X49476Y27999D1*
X49392Y28100D1*
X49335Y28218D1*
X49325Y28262D1*
X48460Y28263D1*
X48318Y28173D1*
X48193Y28136D1*
X48062Y28129D1*
X47933Y28153D1*
X47813Y28205D1*
X47709Y28284D1*
X47626Y28385D1*
X47568Y28503D1*
X47539Y28631D1*
X47541Y28762D1*
X47572Y28889D1*
X47632Y29005D1*
X47718Y29104D1*
X47824Y29181D1*
X47945Y29231D1*
X48074Y29252D1*
X48205Y29242D1*
X48330Y29202D1*
X48462Y29115D1*
X73940Y22940D2*
D18*
Y22244D1*
X72940Y22940D2*
Y22244D1*
X59440Y22636D2*
Y21940D1*
X60136D1*
X75940Y27636D2*
Y26940D1*
Y33636D2*
Y32940D1*
X46940Y33940D2*
Y33244D1*
X54489Y31736D2*
Y31040D1*
X53793D2*
X54489D1*
X63224Y31732D2*
Y31036D1*
X63920D1*
X65565Y32940D2*
Y32244D1*
X64869Y32940D2*
X66261D1*
X66940Y23940D2*
X67636D1*
X66940Y30636D2*
Y29940D1*
X67636D1*
X63940Y21940D2*
Y21244D1*
Y21940D2*
X64636D1*
X51940Y21636D2*
Y20940D1*
X52940Y21636D2*
Y20940D1*
X68186Y33618D2*
D15*
X70216D1*
X71666D2*
X72266D1*
X68186Y33319D2*
X70216D1*
X71666D2*
X72266D1*
X68186Y33021D2*
X70216D1*
X71666D2*
X72217D1*
X68186Y32722D2*
X70216D1*
X71666D2*
X72250D1*
X68186Y32423D2*
X70216D1*
X71666D2*
X72266D1*
X68186Y32125D2*
X72237D1*
X68186Y31826D2*
X72225D1*
X68186Y31527D2*
X72266D1*
X68186Y31228D2*
X72266D1*
X68186Y30930D2*
X72213D1*
X68186Y30631D2*
X71823D1*
X72059D2*
X72266D1*
X68186Y30332D2*
X71335D1*
X68186Y30034D2*
X71220D1*
X68186Y29735D2*
X71245D1*
X68186Y29436D2*
X71421D1*
X68186Y29138D2*
X71241D1*
X68186Y28839D2*
X71220D1*
X68186Y28540D2*
X71339D1*
X68186Y28242D2*
X71282D1*
X68186Y27943D2*
X71212D1*
X68186Y27644D2*
X71278D1*
X68186Y27346D2*
X71343D1*
X68186Y27047D2*
X71220D1*
X68186Y26748D2*
X71241D1*
X68186Y26449D2*
X71417D1*
X68186Y26151D2*
X71245D1*
X68186Y25852D2*
X71220D1*
X68186Y25553D2*
X71331D1*
X68186Y25255D2*
X71290D1*
X68186Y24956D2*
X71212D1*
X68186Y24657D2*
X71274D1*
X68186Y24359D2*
X71351D1*
X68186Y24060D2*
X71224D1*
X68186Y23761D2*
X71237D1*
X68186Y23463D2*
X71212D1*
X68186Y23164D2*
X71212D1*
X68186Y22865D2*
X71212D1*
X72293Y33690D2*
X72249Y33852D1*
X72247Y33913D1*
X71636Y33917D1*
X71624Y33810D1*
X71588Y33684D1*
X71564Y33636D1*
X71637Y33637D1*
Y32244D1*
X70244D1*
Y33637D1*
X70313D1*
X70278Y33724D1*
X70249Y33852D1*
X70247Y33913D1*
X69688Y33917D1*
X68158D1*
X68156Y31180D1*
Y22588D1*
X70237Y22590D1*
X71242D1*
X71244Y23637D1*
X71313D1*
X71278Y23724D1*
X71249Y23852D1*
X71245Y23983D1*
X71265Y24112D1*
X71309Y24235D1*
X71376Y24348D1*
X71454Y24438D1*
X71330Y24604D1*
X71278Y24724D1*
X71249Y24852D1*
X71245Y24983D1*
X71265Y25112D1*
X71309Y25235D1*
X71376Y25348D1*
X71454Y25438D1*
X71330Y25604D1*
X71278Y25724D1*
X71249Y25852D1*
X71245Y25983D1*
X71265Y26112D1*
X71309Y26235D1*
X71376Y26348D1*
X71454Y26438D1*
X71330Y26604D1*
X71278Y26724D1*
X71249Y26852D1*
X71245Y26983D1*
X71265Y27112D1*
X71309Y27235D1*
X71376Y27348D1*
X71454Y27438D1*
X71330Y27604D1*
X71278Y27724D1*
X71249Y27852D1*
X71245Y27983D1*
X71265Y28112D1*
X71309Y28235D1*
X71376Y28348D1*
X71454Y28438D1*
X71330Y28604D1*
X71278Y28724D1*
X71249Y28852D1*
X71245Y28983D1*
X71265Y29112D1*
X71309Y29235D1*
X71376Y29348D1*
X71454Y29438D1*
X71330Y29604D1*
X71278Y29724D1*
X71249Y29852D1*
X71245Y29983D1*
X71265Y30112D1*
X71309Y30235D1*
X71376Y30348D1*
X71462Y30447D1*
X71565Y30527D1*
X71682Y30587D1*
X71808Y30624D1*
X71938Y30637D1*
X72069Y30625D1*
X72195Y30589D1*
X72293Y30539D1*
X72294Y30679D1*
X72249Y30852D1*
X72245Y30983D1*
X72265Y31112D1*
X72294Y31193D1*
Y31680D1*
X72249Y31852D1*
X72245Y31983D1*
X72265Y32112D1*
X72294Y32193D1*
Y32681D1*
X72249Y32852D1*
X72245Y32983D1*
X72265Y33112D1*
X72294Y33202D1*
Y33681D1*
D29*
X73940Y33940D3*
D30*
X72940D3*
X73940Y32940D3*
X72940D3*
X73940Y31940D3*
X72940D3*
X73940Y30940D3*
X72940D3*
X73940Y29940D3*
X72940D3*
X73940Y28940D3*
X72940D3*
X73940Y27940D3*
X72940D3*
X73940Y26940D3*
X72940D3*
X73940Y25940D3*
X72940D3*
X73940Y24940D3*
X72940D3*
X73940Y23940D3*
X72940D3*
X73940Y22940D3*
X72940D3*
D29*
X58440Y21940D3*
D30*
X59440D3*
D29*
X75940Y22940D3*
D30*
X74940D3*
X75940Y23940D3*
X74940D3*
X75940Y24940D3*
X74940D3*
X75940Y25940D3*
X74940D3*
X75940Y26940D3*
X74940D3*
D29*
X75940Y28940D3*
D30*
X74940D3*
X75940Y29940D3*
X74940D3*
X75940Y30940D3*
X74940D3*
X75940Y31940D3*
X74940D3*
X75940Y32940D3*
X74940D3*
D29*
X45940Y33940D3*
D30*
X46940D3*
X47940D3*
D29*
X54489Y29040D3*
D30*
Y30040D3*
Y31040D3*
D29*
X63224Y29036D3*
D30*
Y30036D3*
Y31036D3*
D29*
X70940Y32940D3*
D30*
Y33940D3*
D29*
X65565Y32940D3*
D30*
Y33940D3*
D29*
X65318Y24941D3*
D30*
Y25941D3*
Y26941D3*
Y27941D3*
D29*
X71940Y22940D3*
D30*
Y23940D3*
Y24940D3*
Y25940D3*
Y26940D3*
Y27940D3*
Y28940D3*
Y29940D3*
D29*
X66940Y22940D3*
D30*
Y23940D3*
Y24940D3*
Y25940D3*
Y26940D3*
Y27940D3*
Y28940D3*
Y29940D3*
D29*
X55940Y21940D3*
D30*
X56940D3*
D29*
X60940D3*
D30*
X61940D3*
X62940D3*
X63940D3*
D29*
X48940Y20940D3*
D30*
X49940D3*
X50940D3*
X51940D3*
X52940D3*
X53940D3*
X54940D3*
X55940D3*
X56940D3*
X57940D3*
X58940D3*
X59940D3*
X60940D3*
X61940D3*
X62940D3*
X8854Y40090D2*
D14*
Y38007D1*
X8838Y37991D1*
X26224Y47036D2*
X28174D1*
X28565Y47428D1*
Y48940D1*
X8629Y48942D2*
X9941D1*
Y49065D1*
Y49939D1*
X9940Y49940D1*
X11315Y49065D2*
X9941D1*
X7950Y41307D2*
X8920D1*
X9941Y42328D1*
X10804Y43191D1*
X12191D1*
X9941Y48942D2*
Y48331D1*
Y42328D1*
X17489Y47040D2*
Y47645D1*
X16803Y48331D1*
X9941D1*
X10566Y41691D2*
X11566D1*
X11942Y42066D1*
Y42941D1*
X12191Y43191D1*
X38940Y42940D2*
X38945D1*
X39444Y42441D1*
Y38440D1*
X39382Y38378D1*
X37007D1*
X36944Y38440D1*
Y38936D1*
X36940Y38940D1*
X35940D2*
Y38444D1*
X36007Y38378D1*
X37007D1*
X12589Y38690D2*
X9941D1*
Y42328D1*
X21505Y42253D2*
X20380D1*
X28628Y46315D2*
Y46753D1*
X28344Y47036D1*
X28174D1*
X8940Y49940D2*
Y50448D1*
X12913D1*
Y49889D1*
X15779Y44639D2*
X15899D1*
Y47441D1*
X21003Y43441D2*
X22440Y43443D1*
X24003Y40440D2*
Y39503D1*
X24065Y39440D1*
X25065D1*
Y38503D1*
X26440D1*
Y36940D1*
X25940D1*
X35940Y39940D2*
X36440Y39440D1*
X37440D1*
X37940Y38940D1*
X27381Y43816D2*
Y42753D1*
X26190Y39440D2*
Y39878D1*
X27190D1*
Y40940D1*
X18130Y48817D2*
Y46588D1*
X18442D1*
Y45879D1*
X25130Y48879D2*
Y45267D1*
X35940Y47940D2*
X36440Y48440D1*
X38440D1*
X38940Y47940D1*
X35940Y46940D2*
X36440Y47440D1*
X38440D1*
X38940Y46940D1*
X36940Y44940D2*
X37440Y45440D1*
X38440D1*
X38940Y45940D1*
X36940Y43940D2*
X37378Y44378D1*
X38378D1*
X38940Y44940D1*
X36940Y41940D2*
X37440Y41440D1*
X38440D1*
Y40628D1*
X38940Y40128D1*
Y39940D1*
X35940Y40940D2*
X36440Y40440D1*
X38253D1*
X38440Y40253D1*
Y39440D1*
X38940Y38940D1*
X36940Y49940D2*
X36378Y50503D1*
X29128D1*
X28565Y49940D1*
X11098Y44690D2*
X12579D1*
X12865Y44405D1*
X24940Y36940D2*
X25940Y37940D1*
X22940Y36940D2*
X23940Y37940D1*
Y36940D2*
X24940Y37940D1*
X29940Y38940D2*
D15*
X29297D1*
X25628D1*
Y39940D1*
X24815D1*
X29297Y46954D2*
D14*
Y38940D1*
X12815Y41440D2*
Y42503D1*
X13315Y43003D1*
Y45836D1*
X11423D1*
X14735Y49905D2*
X23940D1*
X23987Y49857D1*
Y45692D1*
X19436Y47972D2*
Y49259D1*
X14731D1*
D18*
X8854Y40090D3*
X8838Y37991D3*
X8629Y48942D3*
X11315Y49065D3*
X7950Y41307D3*
X12191Y43191D3*
X10566Y41691D3*
X12589Y38690D3*
X21505Y42253D3*
X20380D3*
X28628Y46315D3*
X12913Y49889D3*
X15779Y44639D3*
X15899Y47441D3*
X21003Y43441D3*
X22440Y43443D3*
X24003Y40440D3*
X27381Y43816D3*
Y42753D3*
X26190Y39440D3*
X27190Y40940D3*
X27381Y42753D3*
X18130Y48817D3*
X18442Y45879D3*
X25130Y48879D3*
Y45267D3*
X11098Y44690D3*
X12865Y44405D3*
X24815Y39940D3*
X29297Y46954D3*
X12815Y41440D3*
X11423Y45836D3*
X14735Y49905D3*
X23987Y45692D3*
X19436Y47972D3*
X14731Y49259D3*
X9940Y47940D3*
Y47440D3*
Y46940D3*
Y46440D3*
Y45940D3*
Y45440D3*
Y44940D3*
Y44440D3*
Y43940D3*
Y43440D3*
Y42940D3*
Y42440D3*
Y41940D3*
Y41440D3*
Y40940D3*
X16440Y47940D3*
Y47440D3*
Y46940D3*
Y46440D3*
Y45940D3*
Y45440D3*
Y44940D3*
Y44440D3*
Y43940D3*
Y43440D3*
Y42940D3*
Y42440D3*
Y41940D3*
Y41440D3*
Y40940D3*
X32256Y46504D3*
Y46004D3*
Y45504D3*
Y45004D3*
X32819Y46504D3*
Y46004D3*
Y45504D3*
Y45004D3*
X32256Y44504D3*
X32819D3*
X31381Y45754D3*
Y45254D3*
X8315Y41315D3*
X7628D3*
X11815Y43190D3*
X12565D3*
X4620Y49991D2*
D15*
X8212D1*
X11664D2*
X12330D1*
X13497D2*
X14150D1*
X24422D2*
X27840D1*
X29290D2*
X30616D1*
X37668D2*
X39261D1*
X4620Y49693D2*
X8212D1*
X11623D2*
X12354D1*
X13468D2*
X14183D1*
X24443D2*
X27885D1*
X29245D2*
X30616D1*
X37668D2*
X39261D1*
X4620Y49394D2*
X8212D1*
X11401D2*
X12617D1*
X13210D2*
X14155D1*
X19870D2*
X23530D1*
X24443D2*
X24875D1*
X25386D2*
X27840D1*
X29290D2*
X30616D1*
X4620Y49095D2*
X14163D1*
X19895D2*
X23530D1*
X25677D2*
X27840D1*
X29290D2*
X30616D1*
X4620Y48797D2*
X14384D1*
X15080D2*
X17538D1*
X18722D2*
X18977D1*
X19895D2*
X23530D1*
X25718D2*
X27840D1*
X29290D2*
X30616D1*
X4620Y48498D2*
X17636D1*
X18623D2*
X18977D1*
X19895D2*
X23530D1*
X24443D2*
X24674D1*
X25587D2*
X27840D1*
X29290D2*
X30616D1*
X4620Y48199D2*
X17673D1*
X18586D2*
X18891D1*
X19981D2*
X23530D1*
X24443D2*
X24674D1*
X25587D2*
X30616D1*
X4620Y47901D2*
X15545D1*
X16253D2*
X17673D1*
X18586D2*
X18850D1*
X20022D2*
X23530D1*
X24443D2*
X24674D1*
X25587D2*
X30616D1*
X4620Y47602D2*
X15332D1*
X16466D2*
X17046D1*
X18586D2*
X18981D1*
X19890D2*
X23530D1*
X24443D2*
X24674D1*
X25587D2*
X25789D1*
X26661D2*
X30616D1*
X4620Y47303D2*
X15323D1*
X16474D2*
X16812D1*
X18586D2*
X23530D1*
X24443D2*
X24674D1*
X26899D2*
X28828D1*
X29766D2*
X30616D1*
X4620Y47005D2*
X15442D1*
X16355D2*
X16763D1*
X18586D2*
X23530D1*
X24443D2*
X24674D1*
X26948D2*
X28709D1*
X29889D2*
X30616D1*
X4620Y46706D2*
X15442D1*
X16355D2*
X16849D1*
X18882D2*
X23530D1*
X24443D2*
X24674D1*
X26866D2*
X28763D1*
X29831D2*
X30616D1*
X4620Y46407D2*
X15442D1*
X16355D2*
X16865D1*
X18898D2*
X23530D1*
X24443D2*
X24674D1*
X26842D2*
X28840D1*
X4620Y46109D2*
X10902D1*
X13673D2*
X15442D1*
X16355D2*
X16767D1*
X18984D2*
X23530D1*
X24443D2*
X24674D1*
X26948D2*
X28840D1*
X4620Y45810D2*
X10833D1*
X13772D2*
X15442D1*
X16355D2*
X16800D1*
X19029D2*
X23407D1*
X26911D2*
X28840D1*
X4620Y45511D2*
X10935D1*
X13772D2*
X15442D1*
X16355D2*
X16763D1*
X18898D2*
X23427D1*
X26952D2*
X28840D1*
X4620Y45212D2*
X10861D1*
X11336D2*
X12859D1*
X13772D2*
X15442D1*
X16355D2*
X16763D1*
X18217D2*
X23665D1*
X24311D2*
X24543D1*
X26952D2*
X28840D1*
X4620Y44914D2*
X10554D1*
X13772D2*
X15258D1*
X16355D2*
X16763D1*
X18217D2*
X24661D1*
X26952D2*
X28840D1*
X4620Y44615D2*
X10513D1*
X13772D2*
X15188D1*
X16372D2*
X16763D1*
X18217D2*
X25498D1*
X26952D2*
X28115D1*
X28523D2*
X28840D1*
X4620Y44316D2*
X10648D1*
X13772D2*
X15291D1*
X16269D2*
X27093D1*
X4620Y44018D2*
X12428D1*
X13772D2*
X26827D1*
X38636D2*
X39261D1*
X4620Y43719D2*
X12859D1*
X13772D2*
X20482D1*
X22958D2*
X26798D1*
X37632D2*
X39261D1*
X4620Y43420D2*
X12859D1*
X13772D2*
X20413D1*
X23032D2*
X26925D1*
X4620Y43122D2*
X12801D1*
X13772D2*
X20511D1*
X22929D2*
X26925D1*
X4620Y42823D2*
X12502D1*
X13731D2*
X26794D1*
X4620Y42524D2*
X12358D1*
X13472D2*
X26839D1*
X4620Y42226D2*
X12358D1*
X13271D2*
X27159D1*
X4620Y41927D2*
X12358D1*
X13271D2*
X27594D1*
X4620Y41628D2*
X12256D1*
X13374D2*
X27594D1*
X4620Y41330D2*
X12235D1*
X13394D2*
X26757D1*
X4620Y41031D2*
X12399D1*
X13230D2*
X26605D1*
X4620Y40732D2*
X23493D1*
X24512D2*
X26638D1*
X4620Y40433D2*
X8380D1*
X9326D2*
X23411D1*
X25796D2*
X26732D1*
X30463D2*
X30616D1*
X4620Y40135D2*
X8265D1*
X9445D2*
X23501D1*
X4620Y39836D2*
X8323D1*
X9384D2*
X23546D1*
X4620Y39537D2*
X8397D1*
X9310D2*
X23546D1*
X4620Y39239D2*
X8397D1*
X9310D2*
X23636D1*
X4620Y38940D2*
X8397D1*
X9310D2*
X24608D1*
X4620Y38641D2*
X8397D1*
X9310D2*
X24608D1*
X4620Y38343D2*
X8368D1*
X9310D2*
X18215D1*
X20538D2*
X20712D1*
X23040D2*
X23214D1*
X27539D2*
X29214D1*
X36327D2*
X36550D1*
X37328D2*
X37551D1*
X4620Y38044D2*
X8249D1*
X9429D2*
X18215D1*
X27658D2*
X39261D1*
X4620Y37745D2*
X8302D1*
X9371D2*
X18215D1*
X27637D2*
X39261D1*
X4620Y37447D2*
X8671D1*
X9006D2*
X11214D1*
X27461D2*
X39261D1*
X4620Y37148D2*
X11214D1*
X26895D2*
X39261D1*
X4620Y36849D2*
X11214D1*
X26887D2*
X39261D1*
X37637Y50288D2*
Y49566D1*
X37808Y49624D1*
X37938Y49637D1*
X38069Y49625D1*
X38195Y49589D1*
X38312Y49530D1*
X38440Y49422D1*
X38502Y49481D1*
X38611Y49554D1*
X38731Y49605D1*
X38860Y49632D1*
X38991Y49635D1*
X39120Y49613D1*
X39243Y49568D1*
X39290Y49543D1*
Y50289D1*
X37640Y50290D1*
X37624Y43810D2*
X37588Y43684D1*
X37528Y43567D1*
X37421Y43439D1*
X37462Y43447D1*
X37565Y43527D1*
X37682Y43587D1*
X37808Y43624D1*
X37938Y43637D1*
X38069Y43625D1*
X38195Y43589D1*
X38312Y43530D1*
X38440Y43422D1*
X38502Y43481D1*
X38611Y43554D1*
X38731Y43605D1*
X38860Y43632D1*
X38991Y43635D1*
X39120Y43613D1*
X39243Y43568D1*
X39290Y43543D1*
Y44244D1*
X38845D1*
X38680Y44076D1*
X38574Y43999D1*
X38446Y43957D1*
X38246Y43951D1*
X37635D1*
X37624Y43810D1*
X37440Y38455D2*
X37328Y38362D1*
X37213Y38299D1*
X37088Y38259D1*
X36958Y38244D1*
X36828Y38253D1*
X36701Y38286D1*
X36583Y38342D1*
X36477Y38420D1*
X36440Y38456D1*
X36350Y38377D1*
X36237Y38310D1*
X36114Y38266D1*
X35985Y38245D1*
X35854Y38249D1*
X35761Y38267D1*
X35742Y38235D1*
X35650Y38142D1*
X35531Y38089D1*
X35313Y38078D1*
X31006D1*
X30878Y38102D1*
X30766Y38169D1*
X30685Y38272D1*
X30647Y38401D1*
X30644Y39359D1*
X30645Y50071D1*
X30341Y50076D1*
X29303D1*
X29260Y49987D1*
X29249Y49810D1*
X29213Y49684D1*
X29189Y49636D1*
X29262Y49637D1*
Y48244D1*
X27869D1*
Y49637D1*
X27938D1*
X27903Y49724D1*
X27874Y49852D1*
X27870Y49983D1*
X27890Y50112D1*
X27934Y50235D1*
X27965Y50288D1*
X24123Y50290D1*
X24205Y50240D1*
X24319Y50126D1*
X24368Y50052D1*
X24400Y49969D1*
X24414Y49857D1*
Y46056D1*
X24495Y45934D1*
X24537Y45810D1*
X24549Y45692D1*
X24534Y45562D1*
X24489Y45439D1*
X24417Y45330D1*
X24322Y45240D1*
X24208Y45175D1*
X24082Y45138D1*
X23952Y45131D1*
X23823Y45155D1*
X23703Y45207D1*
X23598Y45286D1*
X23515Y45387D1*
X23457Y45505D1*
X23429Y45633D1*
X23430Y45764D1*
X23462Y45891D1*
X23522Y46007D1*
X23562Y46053D1*
X23560Y49477D1*
X19802Y49478D1*
X19833Y49416D1*
X19863Y49259D1*
Y48336D1*
X19943Y48214D1*
X19986Y48090D1*
X19998Y47972D1*
X19983Y47842D1*
X19938Y47719D1*
X19866Y47609D1*
X19770Y47520D1*
X19657Y47455D1*
X19531Y47418D1*
X19400Y47411D1*
X19272Y47434D1*
X19152Y47487D1*
X19047Y47566D1*
X18964Y47667D1*
X18906Y47785D1*
X18877Y47912D1*
X18879Y48043D1*
X18910Y48170D1*
X18971Y48286D1*
X19011Y48333D1*
X19009Y48829D1*
X18694Y48832D1*
X18676Y48686D1*
X18631Y48563D1*
X18556Y48451D1*
X18557Y46999D1*
X18676Y46945D1*
X18773Y46858D1*
X18839Y46745D1*
X18869Y46588D1*
Y46248D1*
X18949Y46121D1*
X18992Y45997D1*
X19004Y45879D1*
X18989Y45749D1*
X18944Y45626D1*
X18872Y45516D1*
X18776Y45427D1*
X18663Y45362D1*
X18537Y45325D1*
X18406Y45318D1*
X18278Y45341D1*
X18184Y45383D1*
X18186Y44343D1*
X16792D1*
Y45737D1*
X16862D1*
X16827Y45824D1*
X16798Y45951D1*
X16794Y46082D1*
X16814Y46212D1*
X16858Y46335D1*
X16924Y46448D1*
X17003Y46537D1*
X16906Y46658D1*
X16845Y46774D1*
X16807Y46900D1*
X16792Y47030D1*
X16803Y47161D1*
X16837Y47287D1*
X16895Y47405D1*
X16974Y47509D1*
X17071Y47597D1*
X17183Y47666D1*
X17305Y47712D1*
X17434Y47735D1*
X17565Y47732D1*
X17702Y47703D1*
X17703Y48454D1*
X17657Y48512D1*
X17600Y48629D1*
X17571Y48757D1*
X17572Y48835D1*
X15762Y48832D1*
X15093D1*
X14952Y48742D1*
X14826Y48705D1*
X14696Y48698D1*
X14567Y48722D1*
X14447Y48774D1*
X14343Y48853D1*
X14259Y48954D1*
X14202Y49072D1*
X14173Y49200D1*
X14174Y49331D1*
X14206Y49458D1*
X14274Y49583D1*
X14206Y49718D1*
X14177Y49845D1*
X14178Y49976D1*
X14210Y50103D1*
X14270Y50220D1*
X14331Y50291D1*
X13337Y50290D1*
X13350Y50242D1*
X13420Y50131D1*
X13462Y50007D1*
X13475Y49889D1*
X13459Y49759D1*
X13414Y49636D1*
X13342Y49527D1*
X13247Y49437D1*
X13133Y49372D1*
X13008Y49335D1*
X12877Y49328D1*
X12748Y49352D1*
X12628Y49404D1*
X12524Y49483D1*
X12440Y49584D1*
X12383Y49702D1*
X12354Y49830D1*
X12355Y49960D1*
X12370Y50020D1*
X11629Y50021D1*
X11637Y49940D1*
X11624Y49810D1*
X11588Y49684D1*
X11528Y49567D1*
X11448Y49464D1*
X11350Y49377D1*
X11237Y49310D1*
X11114Y49266D1*
X10985Y49245D1*
X10854Y49249D1*
X10726Y49277D1*
X10605Y49329D1*
X10497Y49403D1*
X10442Y49458D1*
X10350Y49377D1*
X10237Y49310D1*
X10114Y49266D1*
X9985Y49245D1*
X9854Y49249D1*
X9726Y49277D1*
X9637Y49313D1*
Y49244D1*
X8244D1*
Y50289D1*
X4594Y50290D1*
X4590Y49128D1*
Y36591D1*
X11244Y36590D1*
Y37637D1*
X12637D1*
Y37567D1*
X12808Y37624D1*
X12938Y37637D1*
X13069Y37625D1*
X13195Y37589D1*
X13312Y37530D1*
X13440Y37422D1*
X13565Y37527D1*
X13682Y37587D1*
X13808Y37624D1*
X13938Y37637D1*
X14069Y37625D1*
X14195Y37589D1*
X14312Y37530D1*
X14440Y37422D1*
X14502Y37481D1*
X14611Y37554D1*
X14731Y37605D1*
X14860Y37632D1*
X14991Y37635D1*
X15120Y37613D1*
X15243Y37568D1*
X15355Y37500D1*
X15440Y37425D1*
X15544Y37513D1*
X15658Y37577D1*
X15782Y37619D1*
X15912Y37636D1*
X16043Y37629D1*
X16170Y37598D1*
X16289Y37543D1*
X16396Y37467D1*
X16440Y37425D1*
X16565Y37527D1*
X16682Y37587D1*
X16808Y37624D1*
X16938Y37637D1*
X17069Y37625D1*
X17195Y37589D1*
X17312Y37530D1*
X17440Y37422D1*
X17565Y37527D1*
X17682Y37587D1*
X17808Y37624D1*
X17938Y37637D1*
X18069Y37625D1*
X18195Y37589D1*
X18242Y37565D1*
X18244Y38637D1*
X19637D1*
Y38567D1*
X19808Y38624D1*
X19938Y38637D1*
X20069Y38625D1*
X20195Y38589D1*
X20312Y38530D1*
X20415Y38450D1*
X20502Y38352D1*
X20569Y38239D1*
X20614Y38116D1*
X20637Y37940D1*
X20624Y37810D1*
X20588Y37684D1*
X20528Y37567D1*
X20421Y37439D1*
X20462Y37447D1*
X20565Y37527D1*
X20682Y37587D1*
X20741Y37604D1*
X20744Y38637D1*
X22137D1*
Y38567D1*
X22257Y38612D1*
X22386Y38635D1*
X22517Y38633D1*
X22645Y38606D1*
X22766Y38556D1*
X22876Y38484D1*
X22970Y38393D1*
X23045Y38286D1*
X23099Y38166D1*
X23130Y38039D1*
X23136Y37914D1*
X23119Y37784D1*
X23093Y37697D1*
X23244Y37848D1*
Y38637D1*
X24637D1*
Y38567D1*
X24638Y39015D1*
X24065Y39013D1*
X23936Y39033D1*
X23797Y39108D1*
X23662Y39245D1*
X23605Y39348D1*
X23577Y39474D1*
X23576Y40073D1*
X23530Y40135D1*
X23473Y40253D1*
X23444Y40381D1*
X23445Y40512D1*
X23477Y40639D1*
X23537Y40755D1*
X23623Y40854D1*
X23729Y40931D1*
X23850Y40981D1*
X23979Y41002D1*
X24110Y40992D1*
X24234Y40952D1*
X24347Y40885D1*
X24440Y40793D1*
X24510Y40682D1*
X24552Y40558D1*
X24564Y40444D1*
X24662Y40481D1*
X24791Y40502D1*
X24922Y40492D1*
X25050Y40450D1*
X25628Y40452D1*
X25757Y40435D1*
X25879Y40386D1*
X26034Y40275D1*
X26190Y40305D1*
X26760D1*
X26763Y40571D1*
X26718Y40635D1*
X26660Y40753D1*
X26631Y40881D1*
X26633Y41012D1*
X26664Y41139D1*
X26725Y41255D1*
X26810Y41354D1*
X26916Y41431D1*
X27037Y41481D1*
X27166Y41502D1*
X27297Y41492D1*
X27422Y41452D1*
X27534Y41385D1*
X27625Y41296D1*
X27622Y41637D1*
X27691D1*
X27656Y41724D1*
X27627Y41852D1*
X27623Y41983D1*
X27643Y42113D1*
X27687Y42236D1*
X27735Y42317D1*
X27601Y42236D1*
X27476Y42199D1*
X27345Y42193D1*
X27216Y42216D1*
X27096Y42269D1*
X26992Y42348D1*
X26908Y42449D1*
X26851Y42566D1*
X26822Y42694D1*
X26823Y42825D1*
X26855Y42952D1*
X26915Y43068D1*
X26955Y43115D1*
X26954Y43455D1*
X26908Y43511D1*
X26851Y43629D1*
X26822Y43757D1*
X26823Y43887D1*
X26855Y44015D1*
X26915Y44131D1*
X27001Y44230D1*
X27107Y44307D1*
X27228Y44357D1*
X27357Y44377D1*
X27488Y44368D1*
X27612Y44328D1*
X27707Y44271D1*
X27754Y44349D1*
X27840Y44447D1*
X27943Y44528D1*
X28060Y44588D1*
X28186Y44625D1*
X28316Y44637D1*
X28447Y44625D1*
X28573Y44589D1*
X28690Y44530D1*
X28793Y44450D1*
X28872Y44361D1*
X28870Y46589D1*
X28825Y46649D1*
X28767Y46767D1*
X28738Y46894D1*
X28740Y47025D1*
X28771Y47152D1*
X28832Y47269D1*
X28917Y47368D1*
X29023Y47445D1*
X29144Y47495D1*
X29274Y47515D1*
X29404Y47506D1*
X29529Y47466D1*
X29641Y47398D1*
X29735Y47307D1*
X29804Y47196D1*
X29847Y47072D1*
X29859Y46954D1*
X29844Y46824D1*
X29799Y46701D1*
X29738Y46609D1*
X29886Y46635D1*
X30017Y46633D1*
X30145Y46606D1*
X30266Y46556D1*
X30376Y46484D1*
X30470Y46393D1*
X30545Y46286D1*
X30599Y46166D1*
X30630Y46039D1*
X30636Y45914D1*
X30619Y45784D1*
X30578Y45660D1*
X30514Y45545D1*
X30425Y45440D1*
X30502Y45352D1*
X30569Y45239D1*
X30614Y45116D1*
X30637Y44940D1*
X30624Y44810D1*
X30588Y44684D1*
X30528Y44567D1*
X30421Y44439D1*
X30502Y44352D1*
X30569Y44239D1*
X30614Y44116D1*
X30637Y43940D1*
X30624Y43810D1*
X30588Y43684D1*
X30528Y43567D1*
X30421Y43439D1*
X30502Y43352D1*
X30569Y43239D1*
X30614Y43116D1*
X30637Y42940D1*
X30624Y42810D1*
X30588Y42684D1*
X30528Y42567D1*
X30421Y42439D1*
X30502Y42352D1*
X30569Y42239D1*
X30614Y42116D1*
X30637Y41940D1*
X30624Y41810D1*
X30588Y41684D1*
X30528Y41567D1*
X30421Y41439D1*
X30502Y41352D1*
X30569Y41239D1*
X30614Y41116D1*
X30637Y40940D1*
X30624Y40810D1*
X30588Y40684D1*
X30528Y40567D1*
X30421Y40439D1*
X30470Y40393D1*
X30545Y40286D1*
X30599Y40166D1*
X30630Y40039D1*
X30636Y39914D1*
X30619Y39784D1*
X30578Y39660D1*
X30567Y39637D1*
X30637D1*
Y38244D1*
X29244D1*
Y38428D1*
X27439D1*
X27532Y38308D1*
X27590Y38191D1*
X27626Y38065D1*
X27637Y37940D1*
X27624Y37810D1*
X27588Y37684D1*
X27528Y37567D1*
X27448Y37464D1*
X27350Y37377D1*
X27237Y37310D1*
X27114Y37266D1*
X26985Y37245D1*
X26867Y37247D1*
Y36940D1*
X26847Y36811D1*
X26789Y36694D1*
X26706Y36607D1*
X26750Y36590D1*
X39287D1*
X39290Y37752D1*
Y38241D1*
X38324Y38244D1*
X38244D1*
Y38313D1*
X38114Y38266D1*
X37985Y38245D1*
X37854Y38249D1*
X37726Y38277D1*
X37605Y38329D1*
X37497Y38403D1*
X37442Y38458D1*
X26852Y45733D2*
X26921D1*
Y44340D1*
X25527D1*
Y44869D1*
X25465Y44815D1*
X25351Y44750D1*
X25225Y44713D1*
X25095Y44706D1*
X24966Y44730D1*
X24846Y44782D1*
X24741Y44861D1*
X24658Y44962D1*
X24600Y45080D1*
X24572Y45208D1*
X24573Y45338D1*
X24605Y45465D1*
X24665Y45582D1*
X24705Y45628D1*
X24703Y48511D1*
X24658Y48574D1*
X24600Y48692D1*
X24572Y48820D1*
X24573Y48951D1*
X24605Y49078D1*
X24665Y49194D1*
X24750Y49293D1*
X24856Y49370D1*
X24977Y49420D1*
X25107Y49441D1*
X25237Y49431D1*
X25362Y49391D1*
X25474Y49324D1*
X25568Y49232D1*
X25638Y49121D1*
X25680Y48997D1*
X25692Y48879D1*
X25677Y48749D1*
X25632Y48626D1*
X25557Y48514D1*
Y47234D1*
X25604Y47355D1*
X25675Y47465D1*
X25765Y47560D1*
X25871Y47637D1*
X25990Y47692D1*
X26117Y47725D1*
X26248Y47732D1*
X26378Y47716D1*
X26503Y47675D1*
X26617Y47611D1*
X26718Y47527D1*
X26801Y47426D1*
X26864Y47311D1*
X26904Y47186D1*
X26920Y47056D1*
X26913Y46932D1*
X26881Y46804D1*
X26826Y46686D1*
X26750Y46579D1*
X26708Y46536D1*
X26786Y46448D1*
X26853Y46335D1*
X26898Y46212D1*
X26921Y46036D1*
X26908Y45906D1*
X26872Y45780D1*
X26848Y45732D1*
X9281Y39725D2*
Y38339D1*
X9345Y38233D1*
X9387Y38110D1*
X9400Y37991D1*
X9385Y37861D1*
X9340Y37738D1*
X9267Y37629D1*
X9172Y37539D1*
X9058Y37474D1*
X8933Y37437D1*
X8802Y37430D1*
X8673Y37454D1*
X8553Y37507D1*
X8449Y37586D1*
X8366Y37687D1*
X8308Y37804D1*
X8279Y37932D1*
X8280Y38063D1*
X8312Y38190D1*
X8372Y38306D1*
X8428Y38371D1*
X8427Y39725D1*
X8381Y39785D1*
X8324Y39903D1*
X8295Y40030D1*
X8296Y40161D1*
X8328Y40288D1*
X8388Y40405D1*
X8473Y40504D1*
X8580Y40580D1*
X8701Y40631D1*
X8830Y40651D1*
X8960Y40642D1*
X9085Y40602D1*
X9197Y40534D1*
X9291Y40443D1*
X9361Y40332D1*
X9403Y40208D1*
X9416Y40090D1*
X9400Y39960D1*
X9355Y39837D1*
X9280Y39725D1*
X15472Y45111D2*
Y47071D1*
X15426Y47136D1*
X15369Y47254D1*
X15340Y47381D1*
X15341Y47512D1*
X15373Y47639D1*
X15433Y47755D1*
X15519Y47855D1*
X15625Y47931D1*
X15746Y47981D1*
X15875Y48002D1*
X16005Y47992D1*
X16130Y47953D1*
X16242Y47885D1*
X16336Y47794D1*
X16406Y47683D1*
X16448Y47559D1*
X16461Y47441D1*
X16445Y47311D1*
X16400Y47188D1*
X16325Y47076D1*
X16329Y44758D1*
X16341Y44639D1*
X16326Y44509D1*
X16281Y44386D1*
X16209Y44277D1*
X16113Y44188D1*
X16000Y44123D1*
X15874Y44086D1*
X15743Y44079D1*
X15615Y44102D1*
X15495Y44155D1*
X15390Y44234D1*
X15307Y44335D1*
X15249Y44452D1*
X15220Y44580D1*
X15222Y44711D1*
X15253Y44838D1*
X15314Y44954D1*
X15399Y45053D1*
X15469Y45104D1*
X21367Y43869D2*
X22072Y43870D1*
X22166Y43934D1*
X22287Y43984D1*
X22416Y44005D1*
X22547Y43995D1*
X22672Y43955D1*
X22784Y43888D1*
X22878Y43796D1*
X22947Y43686D1*
X22990Y43562D1*
X23002Y43443D1*
X22987Y43313D1*
X22942Y43190D1*
X22870Y43081D1*
X22774Y42992D1*
X22661Y42926D1*
X22535Y42889D1*
X22404Y42883D1*
X22276Y42906D1*
X22156Y42959D1*
X22081Y43016D1*
X21371Y43015D1*
X21223Y42924D1*
X21098Y42887D1*
X20967Y42880D1*
X20838Y42904D1*
X20718Y42956D1*
X20614Y43035D1*
X20530Y43136D1*
X20473Y43254D1*
X20444Y43382D1*
X20445Y43512D1*
X20477Y43639D1*
X20537Y43756D1*
X20623Y43855D1*
X20729Y43932D1*
X20850Y43982D1*
X20979Y44002D1*
X21110Y43993D1*
X21234Y43953D1*
X21361Y43871D1*
X27736Y42321D2*
X27601Y42236D1*
X27476Y42199D1*
X27345Y42193D1*
X27216Y42216D1*
X27096Y42269D1*
X26992Y42348D1*
X26908Y42449D1*
X26851Y42566D1*
X26822Y42694D1*
X26823Y42825D1*
X26855Y42952D1*
X26915Y43068D1*
X26955Y43115D1*
X11463Y45117D2*
X12579D1*
X12709Y45097D1*
X12829Y45036D1*
X12890Y44983D1*
X12888Y45410D1*
X11785Y45409D1*
X11643Y45319D1*
X11518Y45282D1*
X11387Y45275D1*
X11258Y45299D1*
X11138Y45351D1*
X11034Y45430D1*
X10950Y45531D1*
X10893Y45649D1*
X10864Y45777D1*
X10865Y45908D1*
X10897Y46035D1*
X10957Y46151D1*
X11043Y46250D1*
X11149Y46327D1*
X11270Y46377D1*
X11399Y46398D1*
X11530Y46388D1*
X11654Y46348D1*
X11787Y46261D1*
X13129Y46263D1*
X13315D1*
X13444Y46243D1*
X13561Y46185D1*
X13655Y46094D1*
X13717Y45979D1*
X13742Y45836D1*
Y43003D1*
X13722Y42873D1*
X13661Y42753D1*
X13524Y42608D1*
X13243Y42327D1*
X13242Y41801D1*
X13322Y41682D1*
X13365Y41558D1*
X13377Y41440D1*
X13362Y41310D1*
X13317Y41187D1*
X13245Y41078D1*
X13149Y40988D1*
X13036Y40923D1*
X12910Y40886D1*
X12779Y40879D1*
X12651Y40903D1*
X12531Y40955D1*
X12426Y41034D1*
X12343Y41135D1*
X12285Y41253D1*
X12256Y41381D1*
X12258Y41512D1*
X12289Y41639D1*
X12350Y41755D1*
X12390Y41801D1*
X12388Y42503D1*
X12408Y42632D1*
X12469Y42752D1*
X12606Y42897D1*
X12887Y43179D1*
X12888Y43843D1*
X12829Y43844D1*
X12700Y43868D1*
X12580Y43920D1*
X12476Y43999D1*
X12392Y44100D1*
X12335Y44218D1*
X12325Y44262D1*
X11460Y44263D1*
X11318Y44173D1*
X11193Y44136D1*
X11062Y44129D1*
X10933Y44153D1*
X10813Y44205D1*
X10709Y44284D1*
X10626Y44385D1*
X10568Y44503D1*
X10539Y44631D1*
X10541Y44762D1*
X10572Y44889D1*
X10632Y45005D1*
X10718Y45104D1*
X10824Y45181D1*
X10945Y45231D1*
X11074Y45252D1*
X11205Y45242D1*
X11330Y45202D1*
X11462Y45115D1*
X36940Y38940D2*
D18*
Y38244D1*
X35940Y38940D2*
Y38244D1*
X22440Y38636D2*
Y37940D1*
X23136D1*
X38940Y43636D2*
Y42940D1*
Y49636D2*
Y48940D1*
X9940Y49940D2*
Y49244D1*
X17489Y47736D2*
Y47040D1*
X16793D2*
X17489D1*
X26224Y47732D2*
Y47036D1*
X26920D1*
X28565Y48940D2*
Y48244D1*
X27869Y48940D2*
X29261D1*
X29940Y39940D2*
X30636D1*
X29940Y46636D2*
Y45940D1*
X30636D1*
X26940Y37940D2*
Y37244D1*
Y37940D2*
X27636D1*
X14940Y37636D2*
Y36940D1*
X15940Y37636D2*
Y36940D1*
X31186Y49618D2*
D15*
X33216D1*
X34666D2*
X35266D1*
X31186Y49319D2*
X33216D1*
X34666D2*
X35266D1*
X31186Y49021D2*
X33216D1*
X34666D2*
X35217D1*
X31186Y48722D2*
X33216D1*
X34666D2*
X35250D1*
X31186Y48423D2*
X33216D1*
X34666D2*
X35266D1*
X31186Y48125D2*
X35237D1*
X31186Y47826D2*
X35225D1*
X31186Y47527D2*
X35266D1*
X31186Y47228D2*
X35266D1*
X31186Y46930D2*
X35213D1*
X31186Y46631D2*
X34823D1*
X35059D2*
X35266D1*
X31186Y46332D2*
X34335D1*
X31186Y46034D2*
X34220D1*
X31186Y45735D2*
X34245D1*
X31186Y45436D2*
X34421D1*
X31186Y45138D2*
X34241D1*
X31186Y44839D2*
X34220D1*
X31186Y44540D2*
X34339D1*
X31186Y44242D2*
X34282D1*
X31186Y43943D2*
X34212D1*
X31186Y43644D2*
X34278D1*
X31186Y43346D2*
X34343D1*
X31186Y43047D2*
X34220D1*
X31186Y42748D2*
X34241D1*
X31186Y42449D2*
X34417D1*
X31186Y42151D2*
X34245D1*
X31186Y41852D2*
X34220D1*
X31186Y41553D2*
X34331D1*
X31186Y41255D2*
X34290D1*
X31186Y40956D2*
X34212D1*
X31186Y40657D2*
X34274D1*
X31186Y40359D2*
X34351D1*
X31186Y40060D2*
X34224D1*
X31186Y39761D2*
X34237D1*
X31186Y39463D2*
X34212D1*
X31186Y39164D2*
X34212D1*
X31186Y38865D2*
X34212D1*
X35293Y49690D2*
X35249Y49852D1*
X35247Y49913D1*
X34636Y49917D1*
X34624Y49810D1*
X34588Y49684D1*
X34564Y49636D1*
X34637Y49637D1*
Y48244D1*
X33244D1*
Y49637D1*
X33313D1*
X33278Y49724D1*
X33249Y49852D1*
X33247Y49913D1*
X32688Y49917D1*
X31158D1*
X31156Y47180D1*
Y38588D1*
X33237Y38590D1*
X34242D1*
X34244Y39637D1*
X34313D1*
X34278Y39724D1*
X34249Y39852D1*
X34245Y39983D1*
X34265Y40112D1*
X34309Y40235D1*
X34376Y40348D1*
X34454Y40438D1*
X34330Y40604D1*
X34278Y40724D1*
X34249Y40852D1*
X34245Y40983D1*
X34265Y41112D1*
X34309Y41235D1*
X34376Y41348D1*
X34454Y41438D1*
X34330Y41604D1*
X34278Y41724D1*
X34249Y41852D1*
X34245Y41983D1*
X34265Y42112D1*
X34309Y42235D1*
X34376Y42348D1*
X34454Y42438D1*
X34330Y42604D1*
X34278Y42724D1*
X34249Y42852D1*
X34245Y42983D1*
X34265Y43112D1*
X34309Y43235D1*
X34376Y43348D1*
X34454Y43438D1*
X34330Y43604D1*
X34278Y43724D1*
X34249Y43852D1*
X34245Y43983D1*
X34265Y44112D1*
X34309Y44235D1*
X34376Y44348D1*
X34454Y44438D1*
X34330Y44604D1*
X34278Y44724D1*
X34249Y44852D1*
X34245Y44983D1*
X34265Y45112D1*
X34309Y45235D1*
X34376Y45348D1*
X34454Y45438D1*
X34330Y45604D1*
X34278Y45724D1*
X34249Y45852D1*
X34245Y45983D1*
X34265Y46112D1*
X34309Y46235D1*
X34376Y46348D1*
X34462Y46447D1*
X34565Y46527D1*
X34682Y46587D1*
X34808Y46624D1*
X34938Y46637D1*
X35069Y46625D1*
X35195Y46589D1*
X35293Y46539D1*
X35294Y46679D1*
X35249Y46852D1*
X35245Y46983D1*
X35265Y47112D1*
X35294Y47193D1*
Y47680D1*
X35249Y47852D1*
X35245Y47983D1*
X35265Y48112D1*
X35294Y48193D1*
Y48681D1*
X35249Y48852D1*
X35245Y48983D1*
X35265Y49112D1*
X35294Y49202D1*
Y49681D1*
D29*
X36940Y49940D3*
D30*
X35940D3*
X36940Y48940D3*
X35940D3*
X36940Y47940D3*
X35940D3*
X36940Y46940D3*
X35940D3*
X36940Y45940D3*
X35940D3*
X36940Y44940D3*
X35940D3*
X36940Y43940D3*
X35940D3*
X36940Y42940D3*
X35940D3*
X36940Y41940D3*
X35940D3*
X36940Y40940D3*
X35940D3*
X36940Y39940D3*
X35940D3*
X36940Y38940D3*
X35940D3*
D29*
X21440Y37940D3*
D30*
X22440D3*
D29*
X38940Y38940D3*
D30*
X37940D3*
X38940Y39940D3*
X37940D3*
X38940Y40940D3*
X37940D3*
X38940Y41940D3*
X37940D3*
X38940Y42940D3*
X37940D3*
D29*
X38940Y44940D3*
D30*
X37940D3*
X38940Y45940D3*
X37940D3*
X38940Y46940D3*
X37940D3*
X38940Y47940D3*
X37940D3*
X38940Y48940D3*
X37940D3*
D29*
X8940Y49940D3*
D30*
X9940D3*
X10940D3*
D29*
X17489Y45040D3*
D30*
Y46040D3*
Y47040D3*
D29*
X26224Y45036D3*
D30*
Y46036D3*
Y47036D3*
D29*
X33940Y48940D3*
D30*
Y49940D3*
D29*
X28565Y48940D3*
D30*
Y49940D3*
D29*
X28318Y40941D3*
D30*
Y41941D3*
Y42941D3*
Y43941D3*
D29*
X34940Y38940D3*
D30*
Y39940D3*
Y40940D3*
Y41940D3*
Y42940D3*
Y43940D3*
Y44940D3*
Y45940D3*
D29*
X29940Y38940D3*
D30*
Y39940D3*
Y40940D3*
Y41940D3*
Y42940D3*
Y43940D3*
Y44940D3*
Y45940D3*
D29*
X18940Y37940D3*
D30*
X19940D3*
D29*
X23940D3*
D30*
X24940D3*
X25940D3*
X26940D3*
D29*
X11940Y36940D3*
D30*
X12940D3*
X13940D3*
X14940D3*
X15940D3*
X16940D3*
X17940D3*
X18940D3*
X19940D3*
X20940D3*
X21940D3*
X22940D3*
X23940D3*
X24940D3*
X25940D3*
X45854Y40090D2*
D14*
Y38007D1*
X45838Y37991D1*
X63224Y47036D2*
X65174D1*
X65565Y47428D1*
Y48940D1*
X45629Y48942D2*
X46941D1*
Y49065D1*
Y49939D1*
X46940Y49940D1*
X48315Y49065D2*
X46941D1*
X44950Y41307D2*
X45920D1*
X46941Y42328D1*
X47804Y43191D1*
X49191D1*
X46941Y48942D2*
Y48331D1*
Y42328D1*
X54489Y47040D2*
Y47645D1*
X53803Y48331D1*
X46941D1*
X47566Y41691D2*
X48566D1*
X48942Y42066D1*
Y42941D1*
X49191Y43191D1*
X75940Y42940D2*
X75945D1*
X76444Y42441D1*
Y38440D1*
X76382Y38378D1*
X74007D1*
X73944Y38440D1*
Y38936D1*
X73940Y38940D1*
X72940D2*
Y38444D1*
X73007Y38378D1*
X74007D1*
X49589Y38690D2*
X46941D1*
Y42328D1*
X58505Y42253D2*
X57380D1*
X65628Y46315D2*
Y46753D1*
X65344Y47036D1*
X65174D1*
X45940Y49940D2*
Y50448D1*
X49913D1*
Y49889D1*
X52779Y44639D2*
X52899D1*
Y47441D1*
X58003Y43441D2*
X59440Y43443D1*
X61003Y40440D2*
Y39503D1*
X61065Y39440D1*
X62065D1*
Y38503D1*
X63440D1*
Y36940D1*
X62940D1*
X72940Y39940D2*
X73440Y39440D1*
X74440D1*
X74940Y38940D1*
X64381Y43816D2*
Y42753D1*
X63190Y39440D2*
Y39878D1*
X64190D1*
Y40940D1*
X55130Y48817D2*
Y46588D1*
X55442D1*
Y45879D1*
X62130Y48879D2*
Y45267D1*
X72940Y47940D2*
X73440Y48440D1*
X75440D1*
X75940Y47940D1*
X72940Y46940D2*
X73440Y47440D1*
X75440D1*
X75940Y46940D1*
X73940Y44940D2*
X74440Y45440D1*
X75440D1*
X75940Y45940D1*
X73940Y43940D2*
X74378Y44378D1*
X75378D1*
X75940Y44940D1*
X73940Y41940D2*
X74440Y41440D1*
X75440D1*
Y40628D1*
X75940Y40128D1*
Y39940D1*
X72940Y40940D2*
X73440Y40440D1*
X75253D1*
X75440Y40253D1*
Y39440D1*
X75940Y38940D1*
X73940Y49940D2*
X73378Y50503D1*
X66128D1*
X65565Y49940D1*
X48098Y44690D2*
X49579D1*
X49865Y44405D1*
X61940Y36940D2*
X62940Y37940D1*
X59940Y36940D2*
X60940Y37940D1*
Y36940D2*
X61940Y37940D1*
X66940Y38940D2*
D15*
X66297D1*
X62628D1*
Y39940D1*
X61815D1*
X66297Y46954D2*
D14*
Y38940D1*
X49815Y41440D2*
Y42503D1*
X50315Y43003D1*
Y45836D1*
X48423D1*
X51735Y49905D2*
X60940D1*
X60987Y49857D1*
Y45692D1*
X56436Y47972D2*
Y49259D1*
X51731D1*
D18*
X45854Y40090D3*
X45838Y37991D3*
X45629Y48942D3*
X48315Y49065D3*
X44950Y41307D3*
X49191Y43191D3*
X47566Y41691D3*
X49589Y38690D3*
X58505Y42253D3*
X57380D3*
X65628Y46315D3*
X49913Y49889D3*
X52779Y44639D3*
X52899Y47441D3*
X58003Y43441D3*
X59440Y43443D3*
X61003Y40440D3*
X64381Y43816D3*
Y42753D3*
X63190Y39440D3*
X64190Y40940D3*
X64381Y42753D3*
X55130Y48817D3*
X55442Y45879D3*
X62130Y48879D3*
Y45267D3*
X48098Y44690D3*
X49865Y44405D3*
X61815Y39940D3*
X66297Y46954D3*
X49815Y41440D3*
X48423Y45836D3*
X51735Y49905D3*
X60987Y45692D3*
X56436Y47972D3*
X51731Y49259D3*
X46940Y47940D3*
Y47440D3*
Y46940D3*
Y46440D3*
Y45940D3*
Y45440D3*
Y44940D3*
Y44440D3*
Y43940D3*
Y43440D3*
Y42940D3*
Y42440D3*
Y41940D3*
Y41440D3*
Y40940D3*
X53440Y47940D3*
Y47440D3*
Y46940D3*
Y46440D3*
Y45940D3*
Y45440D3*
Y44940D3*
Y44440D3*
Y43940D3*
Y43440D3*
Y42940D3*
Y42440D3*
Y41940D3*
Y41440D3*
Y40940D3*
X69256Y46504D3*
Y46004D3*
Y45504D3*
Y45004D3*
X69819Y46504D3*
Y46004D3*
Y45504D3*
Y45004D3*
X69256Y44504D3*
X69819D3*
X68381Y45754D3*
Y45254D3*
X45315Y41315D3*
X44628D3*
X48815Y43190D3*
X49565D3*
X41620Y49991D2*
D15*
X45212D1*
X48664D2*
X49330D1*
X50497D2*
X51150D1*
X61422D2*
X64840D1*
X66290D2*
X67616D1*
X74668D2*
X76261D1*
X41620Y49693D2*
X45212D1*
X48623D2*
X49354D1*
X50468D2*
X51183D1*
X61443D2*
X64885D1*
X66245D2*
X67616D1*
X74668D2*
X76261D1*
X41620Y49394D2*
X45212D1*
X48401D2*
X49617D1*
X50210D2*
X51155D1*
X56870D2*
X60530D1*
X61443D2*
X61875D1*
X62386D2*
X64840D1*
X66290D2*
X67616D1*
X41620Y49095D2*
X51163D1*
X56895D2*
X60530D1*
X62677D2*
X64840D1*
X66290D2*
X67616D1*
X41620Y48797D2*
X51384D1*
X52080D2*
X54538D1*
X55722D2*
X55977D1*
X56895D2*
X60530D1*
X62718D2*
X64840D1*
X66290D2*
X67616D1*
X41620Y48498D2*
X54636D1*
X55623D2*
X55977D1*
X56895D2*
X60530D1*
X61443D2*
X61674D1*
X62587D2*
X64840D1*
X66290D2*
X67616D1*
X41620Y48199D2*
X54673D1*
X55586D2*
X55891D1*
X56981D2*
X60530D1*
X61443D2*
X61674D1*
X62587D2*
X67616D1*
X41620Y47901D2*
X52545D1*
X53253D2*
X54673D1*
X55586D2*
X55850D1*
X57022D2*
X60530D1*
X61443D2*
X61674D1*
X62587D2*
X67616D1*
X41620Y47602D2*
X52332D1*
X53466D2*
X54046D1*
X55586D2*
X55981D1*
X56890D2*
X60530D1*
X61443D2*
X61674D1*
X62587D2*
X62789D1*
X63661D2*
X67616D1*
X41620Y47303D2*
X52323D1*
X53474D2*
X53812D1*
X55586D2*
X60530D1*
X61443D2*
X61674D1*
X63899D2*
X65828D1*
X66766D2*
X67616D1*
X41620Y47005D2*
X52442D1*
X53355D2*
X53763D1*
X55586D2*
X60530D1*
X61443D2*
X61674D1*
X63948D2*
X65709D1*
X66889D2*
X67616D1*
X41620Y46706D2*
X52442D1*
X53355D2*
X53849D1*
X55882D2*
X60530D1*
X61443D2*
X61674D1*
X63866D2*
X65763D1*
X66831D2*
X67616D1*
X41620Y46407D2*
X52442D1*
X53355D2*
X53865D1*
X55898D2*
X60530D1*
X61443D2*
X61674D1*
X63842D2*
X65840D1*
X41620Y46109D2*
X47902D1*
X50673D2*
X52442D1*
X53355D2*
X53767D1*
X55984D2*
X60530D1*
X61443D2*
X61674D1*
X63948D2*
X65840D1*
X41620Y45810D2*
X47833D1*
X50772D2*
X52442D1*
X53355D2*
X53800D1*
X56029D2*
X60407D1*
X63911D2*
X65840D1*
X41620Y45511D2*
X47935D1*
X50772D2*
X52442D1*
X53355D2*
X53763D1*
X55898D2*
X60427D1*
X63952D2*
X65840D1*
X41620Y45212D2*
X47861D1*
X48336D2*
X49859D1*
X50772D2*
X52442D1*
X53355D2*
X53763D1*
X55217D2*
X60665D1*
X61311D2*
X61543D1*
X63952D2*
X65840D1*
X41620Y44914D2*
X47554D1*
X50772D2*
X52258D1*
X53355D2*
X53763D1*
X55217D2*
X61661D1*
X63952D2*
X65840D1*
X41620Y44615D2*
X47513D1*
X50772D2*
X52188D1*
X53372D2*
X53763D1*
X55217D2*
X62498D1*
X63952D2*
X65115D1*
X65523D2*
X65840D1*
X41620Y44316D2*
X47648D1*
X50772D2*
X52291D1*
X53269D2*
X64093D1*
X41620Y44018D2*
X49428D1*
X50772D2*
X63827D1*
X75636D2*
X76261D1*
X41620Y43719D2*
X49859D1*
X50772D2*
X57482D1*
X59958D2*
X63798D1*
X74632D2*
X76261D1*
X41620Y43420D2*
X49859D1*
X50772D2*
X57413D1*
X60032D2*
X63925D1*
X41620Y43122D2*
X49801D1*
X50772D2*
X57511D1*
X59929D2*
X63925D1*
X41620Y42823D2*
X49502D1*
X50731D2*
X63794D1*
X41620Y42524D2*
X49358D1*
X50472D2*
X63839D1*
X41620Y42226D2*
X49358D1*
X50271D2*
X64159D1*
X41620Y41927D2*
X49358D1*
X50271D2*
X64594D1*
X41620Y41628D2*
X49256D1*
X50374D2*
X64594D1*
X41620Y41330D2*
X49235D1*
X50394D2*
X63757D1*
X41620Y41031D2*
X49399D1*
X50230D2*
X63605D1*
X41620Y40732D2*
X60493D1*
X61512D2*
X63638D1*
X41620Y40433D2*
X45380D1*
X46326D2*
X60411D1*
X62796D2*
X63732D1*
X67463D2*
X67616D1*
X41620Y40135D2*
X45265D1*
X46445D2*
X60501D1*
X41620Y39836D2*
X45323D1*
X46384D2*
X60546D1*
X41620Y39537D2*
X45397D1*
X46310D2*
X60546D1*
X41620Y39239D2*
X45397D1*
X46310D2*
X60636D1*
X41620Y38940D2*
X45397D1*
X46310D2*
X61608D1*
X41620Y38641D2*
X45397D1*
X46310D2*
X61608D1*
X41620Y38343D2*
X45368D1*
X46310D2*
X55215D1*
X57538D2*
X57712D1*
X60040D2*
X60214D1*
X64539D2*
X66214D1*
X73327D2*
X73550D1*
X74328D2*
X74551D1*
X41620Y38044D2*
X45249D1*
X46429D2*
X55215D1*
X64658D2*
X76261D1*
X41620Y37745D2*
X45302D1*
X46371D2*
X55215D1*
X64637D2*
X76261D1*
X41620Y37447D2*
X45671D1*
X46006D2*
X48214D1*
X64461D2*
X76261D1*
X41620Y37148D2*
X48214D1*
X63895D2*
X76261D1*
X41620Y36849D2*
X48214D1*
X63887D2*
X76261D1*
X74637Y50288D2*
Y49566D1*
X74808Y49624D1*
X74938Y49637D1*
X75069Y49625D1*
X75195Y49589D1*
X75312Y49530D1*
X75440Y49422D1*
X75502Y49481D1*
X75611Y49554D1*
X75731Y49605D1*
X75860Y49632D1*
X75991Y49635D1*
X76120Y49613D1*
X76243Y49568D1*
X76290Y49543D1*
Y50289D1*
X74640Y50290D1*
X74624Y43810D2*
X74588Y43684D1*
X74528Y43567D1*
X74421Y43439D1*
X74462Y43447D1*
X74565Y43527D1*
X74682Y43587D1*
X74808Y43624D1*
X74938Y43637D1*
X75069Y43625D1*
X75195Y43589D1*
X75312Y43530D1*
X75440Y43422D1*
X75502Y43481D1*
X75611Y43554D1*
X75731Y43605D1*
X75860Y43632D1*
X75991Y43635D1*
X76120Y43613D1*
X76243Y43568D1*
X76290Y43543D1*
Y44244D1*
X75845D1*
X75680Y44076D1*
X75574Y43999D1*
X75446Y43957D1*
X75246Y43951D1*
X74635D1*
X74624Y43810D1*
X74440Y38455D2*
X74328Y38362D1*
X74213Y38299D1*
X74088Y38259D1*
X73958Y38244D1*
X73828Y38253D1*
X73701Y38286D1*
X73583Y38342D1*
X73477Y38420D1*
X73440Y38456D1*
X73350Y38377D1*
X73237Y38310D1*
X73114Y38266D1*
X72985Y38245D1*
X72854Y38249D1*
X72761Y38267D1*
X72742Y38235D1*
X72650Y38142D1*
X72531Y38089D1*
X72313Y38078D1*
X68006D1*
X67878Y38102D1*
X67766Y38169D1*
X67685Y38272D1*
X67647Y38401D1*
X67644Y39359D1*
X67645Y50071D1*
X67341Y50076D1*
X66303D1*
X66260Y49987D1*
X66249Y49810D1*
X66213Y49684D1*
X66189Y49636D1*
X66262Y49637D1*
Y48244D1*
X64869D1*
Y49637D1*
X64938D1*
X64903Y49724D1*
X64874Y49852D1*
X64870Y49983D1*
X64890Y50112D1*
X64934Y50235D1*
X64965Y50288D1*
X61123Y50290D1*
X61205Y50240D1*
X61319Y50126D1*
X61368Y50052D1*
X61400Y49969D1*
X61414Y49857D1*
Y46056D1*
X61495Y45934D1*
X61537Y45810D1*
X61549Y45692D1*
X61534Y45562D1*
X61489Y45439D1*
X61417Y45330D1*
X61322Y45240D1*
X61208Y45175D1*
X61082Y45138D1*
X60952Y45131D1*
X60823Y45155D1*
X60703Y45207D1*
X60598Y45286D1*
X60515Y45387D1*
X60457Y45505D1*
X60429Y45633D1*
X60430Y45764D1*
X60462Y45891D1*
X60522Y46007D1*
X60562Y46053D1*
X60560Y49477D1*
X56802Y49478D1*
X56833Y49416D1*
X56863Y49259D1*
Y48336D1*
X56943Y48214D1*
X56986Y48090D1*
X56998Y47972D1*
X56983Y47842D1*
X56938Y47719D1*
X56866Y47609D1*
X56770Y47520D1*
X56657Y47455D1*
X56531Y47418D1*
X56400Y47411D1*
X56272Y47434D1*
X56152Y47487D1*
X56047Y47566D1*
X55964Y47667D1*
X55906Y47785D1*
X55877Y47912D1*
X55879Y48043D1*
X55910Y48170D1*
X55971Y48286D1*
X56011Y48333D1*
X56009Y48829D1*
X55694Y48832D1*
X55676Y48686D1*
X55631Y48563D1*
X55556Y48451D1*
X55557Y46999D1*
X55676Y46945D1*
X55773Y46858D1*
X55839Y46745D1*
X55869Y46588D1*
Y46248D1*
X55949Y46121D1*
X55992Y45997D1*
X56004Y45879D1*
X55989Y45749D1*
X55944Y45626D1*
X55872Y45516D1*
X55776Y45427D1*
X55663Y45362D1*
X55537Y45325D1*
X55406Y45318D1*
X55278Y45341D1*
X55184Y45383D1*
X55186Y44343D1*
X53792D1*
Y45737D1*
X53862D1*
X53827Y45824D1*
X53798Y45951D1*
X53794Y46082D1*
X53814Y46212D1*
X53858Y46335D1*
X53924Y46448D1*
X54003Y46537D1*
X53906Y46658D1*
X53845Y46774D1*
X53807Y46900D1*
X53792Y47030D1*
X53803Y47161D1*
X53837Y47287D1*
X53895Y47405D1*
X53974Y47509D1*
X54071Y47597D1*
X54183Y47666D1*
X54305Y47712D1*
X54434Y47735D1*
X54565Y47732D1*
X54702Y47703D1*
X54703Y48454D1*
X54657Y48512D1*
X54600Y48629D1*
X54571Y48757D1*
X54572Y48835D1*
X52762Y48832D1*
X52093D1*
X51952Y48742D1*
X51826Y48705D1*
X51696Y48698D1*
X51567Y48722D1*
X51447Y48774D1*
X51343Y48853D1*
X51259Y48954D1*
X51202Y49072D1*
X51173Y49200D1*
X51174Y49331D1*
X51206Y49458D1*
X51274Y49583D1*
X51206Y49718D1*
X51177Y49845D1*
X51178Y49976D1*
X51210Y50103D1*
X51270Y50220D1*
X51331Y50291D1*
X50337Y50290D1*
X50350Y50242D1*
X50420Y50131D1*
X50462Y50007D1*
X50475Y49889D1*
X50459Y49759D1*
X50414Y49636D1*
X50342Y49527D1*
X50247Y49437D1*
X50133Y49372D1*
X50008Y49335D1*
X49877Y49328D1*
X49748Y49352D1*
X49628Y49404D1*
X49524Y49483D1*
X49440Y49584D1*
X49383Y49702D1*
X49354Y49830D1*
X49355Y49960D1*
X49370Y50020D1*
X48629Y50021D1*
X48637Y49940D1*
X48624Y49810D1*
X48588Y49684D1*
X48528Y49567D1*
X48448Y49464D1*
X48350Y49377D1*
X48237Y49310D1*
X48114Y49266D1*
X47985Y49245D1*
X47854Y49249D1*
X47726Y49277D1*
X47605Y49329D1*
X47497Y49403D1*
X47442Y49458D1*
X47350Y49377D1*
X47237Y49310D1*
X47114Y49266D1*
X46985Y49245D1*
X46854Y49249D1*
X46726Y49277D1*
X46637Y49313D1*
Y49244D1*
X45244D1*
Y50289D1*
X41594Y50290D1*
X41590Y49128D1*
Y36591D1*
X48244Y36590D1*
Y37637D1*
X49637D1*
Y37567D1*
X49808Y37624D1*
X49938Y37637D1*
X50069Y37625D1*
X50195Y37589D1*
X50312Y37530D1*
X50440Y37422D1*
X50565Y37527D1*
X50682Y37587D1*
X50808Y37624D1*
X50938Y37637D1*
X51069Y37625D1*
X51195Y37589D1*
X51312Y37530D1*
X51440Y37422D1*
X51502Y37481D1*
X51611Y37554D1*
X51731Y37605D1*
X51860Y37632D1*
X51991Y37635D1*
X52120Y37613D1*
X52243Y37568D1*
X52355Y37500D1*
X52440Y37425D1*
X52544Y37513D1*
X52658Y37577D1*
X52782Y37619D1*
X52912Y37636D1*
X53043Y37629D1*
X53170Y37598D1*
X53289Y37543D1*
X53396Y37467D1*
X53440Y37425D1*
X53565Y37527D1*
X53682Y37587D1*
X53808Y37624D1*
X53938Y37637D1*
X54069Y37625D1*
X54195Y37589D1*
X54312Y37530D1*
X54440Y37422D1*
X54565Y37527D1*
X54682Y37587D1*
X54808Y37624D1*
X54938Y37637D1*
X55069Y37625D1*
X55195Y37589D1*
X55242Y37565D1*
X55244Y38637D1*
X56637D1*
Y38567D1*
X56808Y38624D1*
X56938Y38637D1*
X57069Y38625D1*
X57195Y38589D1*
X57312Y38530D1*
X57415Y38450D1*
X57502Y38352D1*
X57569Y38239D1*
X57614Y38116D1*
X57637Y37940D1*
X57624Y37810D1*
X57588Y37684D1*
X57528Y37567D1*
X57421Y37439D1*
X57462Y37447D1*
X57565Y37527D1*
X57682Y37587D1*
X57741Y37604D1*
X57744Y38637D1*
X59137D1*
Y38567D1*
X59257Y38612D1*
X59386Y38635D1*
X59517Y38633D1*
X59645Y38606D1*
X59766Y38556D1*
X59876Y38484D1*
X59970Y38393D1*
X60045Y38286D1*
X60099Y38166D1*
X60130Y38039D1*
X60136Y37914D1*
X60119Y37784D1*
X60093Y37697D1*
X60244Y37848D1*
Y38637D1*
X61637D1*
Y38567D1*
X61638Y39015D1*
X61065Y39013D1*
X60936Y39033D1*
X60797Y39108D1*
X60662Y39245D1*
X60605Y39348D1*
X60577Y39474D1*
X60576Y40073D1*
X60530Y40135D1*
X60473Y40253D1*
X60444Y40381D1*
X60445Y40512D1*
X60477Y40639D1*
X60537Y40755D1*
X60623Y40854D1*
X60729Y40931D1*
X60850Y40981D1*
X60979Y41002D1*
X61110Y40992D1*
X61234Y40952D1*
X61347Y40885D1*
X61440Y40793D1*
X61510Y40682D1*
X61552Y40558D1*
X61564Y40444D1*
X61662Y40481D1*
X61791Y40502D1*
X61922Y40492D1*
X62050Y40450D1*
X62628Y40452D1*
X62757Y40435D1*
X62879Y40386D1*
X63034Y40275D1*
X63190Y40305D1*
X63760D1*
X63763Y40571D1*
X63718Y40635D1*
X63660Y40753D1*
X63631Y40881D1*
X63633Y41012D1*
X63664Y41139D1*
X63725Y41255D1*
X63810Y41354D1*
X63916Y41431D1*
X64037Y41481D1*
X64166Y41502D1*
X64297Y41492D1*
X64422Y41452D1*
X64534Y41385D1*
X64625Y41296D1*
X64622Y41637D1*
X64691D1*
X64656Y41724D1*
X64627Y41852D1*
X64623Y41983D1*
X64643Y42113D1*
X64687Y42236D1*
X64735Y42317D1*
X64601Y42236D1*
X64476Y42199D1*
X64345Y42193D1*
X64216Y42216D1*
X64096Y42269D1*
X63992Y42348D1*
X63908Y42449D1*
X63851Y42566D1*
X63822Y42694D1*
X63823Y42825D1*
X63855Y42952D1*
X63915Y43068D1*
X63955Y43115D1*
X63954Y43455D1*
X63908Y43511D1*
X63851Y43629D1*
X63822Y43757D1*
X63823Y43887D1*
X63855Y44015D1*
X63915Y44131D1*
X64001Y44230D1*
X64107Y44307D1*
X64228Y44357D1*
X64357Y44377D1*
X64488Y44368D1*
X64612Y44328D1*
X64707Y44271D1*
X64754Y44349D1*
X64840Y44447D1*
X64943Y44528D1*
X65060Y44588D1*
X65186Y44625D1*
X65316Y44637D1*
X65447Y44625D1*
X65573Y44589D1*
X65690Y44530D1*
X65793Y44450D1*
X65872Y44361D1*
X65870Y46589D1*
X65825Y46649D1*
X65767Y46767D1*
X65738Y46894D1*
X65740Y47025D1*
X65771Y47152D1*
X65832Y47269D1*
X65917Y47368D1*
X66023Y47445D1*
X66144Y47495D1*
X66274Y47515D1*
X66404Y47506D1*
X66529Y47466D1*
X66641Y47398D1*
X66735Y47307D1*
X66804Y47196D1*
X66847Y47072D1*
X66859Y46954D1*
X66844Y46824D1*
X66799Y46701D1*
X66738Y46609D1*
X66886Y46635D1*
X67017Y46633D1*
X67145Y46606D1*
X67266Y46556D1*
X67376Y46484D1*
X67470Y46393D1*
X67545Y46286D1*
X67599Y46166D1*
X67630Y46039D1*
X67636Y45914D1*
X67619Y45784D1*
X67578Y45660D1*
X67514Y45545D1*
X67425Y45440D1*
X67502Y45352D1*
X67569Y45239D1*
X67614Y45116D1*
X67637Y44940D1*
X67624Y44810D1*
X67588Y44684D1*
X67528Y44567D1*
X67421Y44439D1*
X67502Y44352D1*
X67569Y44239D1*
X67614Y44116D1*
X67637Y43940D1*
X67624Y43810D1*
X67588Y43684D1*
X67528Y43567D1*
X67421Y43439D1*
X67502Y43352D1*
X67569Y43239D1*
X67614Y43116D1*
X67637Y42940D1*
X67624Y42810D1*
X67588Y42684D1*
X67528Y42567D1*
X67421Y42439D1*
X67502Y42352D1*
X67569Y42239D1*
X67614Y42116D1*
X67637Y41940D1*
X67624Y41810D1*
X67588Y41684D1*
X67528Y41567D1*
X67421Y41439D1*
X67502Y41352D1*
X67569Y41239D1*
X67614Y41116D1*
X67637Y40940D1*
X67624Y40810D1*
X67588Y40684D1*
X67528Y40567D1*
X67421Y40439D1*
X67470Y40393D1*
X67545Y40286D1*
X67599Y40166D1*
X67630Y40039D1*
X67636Y39914D1*
X67619Y39784D1*
X67578Y39660D1*
X67567Y39637D1*
X67637D1*
Y38244D1*
X66244D1*
Y38428D1*
X64439D1*
X64532Y38308D1*
X64590Y38191D1*
X64626Y38065D1*
X64637Y37940D1*
X64624Y37810D1*
X64588Y37684D1*
X64528Y37567D1*
X64448Y37464D1*
X64350Y37377D1*
X64237Y37310D1*
X64114Y37266D1*
X63985Y37245D1*
X63867Y37247D1*
Y36940D1*
X63847Y36811D1*
X63789Y36694D1*
X63706Y36607D1*
X63750Y36590D1*
X76287D1*
X76290Y37752D1*
Y38241D1*
X75324Y38244D1*
X75244D1*
Y38313D1*
X75114Y38266D1*
X74985Y38245D1*
X74854Y38249D1*
X74726Y38277D1*
X74605Y38329D1*
X74497Y38403D1*
X74442Y38458D1*
X63852Y45733D2*
X63921D1*
Y44340D1*
X62527D1*
Y44869D1*
X62465Y44815D1*
X62351Y44750D1*
X62225Y44713D1*
X62095Y44706D1*
X61966Y44730D1*
X61846Y44782D1*
X61741Y44861D1*
X61658Y44962D1*
X61600Y45080D1*
X61572Y45208D1*
X61573Y45338D1*
X61605Y45465D1*
X61665Y45582D1*
X61705Y45628D1*
X61703Y48511D1*
X61658Y48574D1*
X61600Y48692D1*
X61572Y48820D1*
X61573Y48951D1*
X61605Y49078D1*
X61665Y49194D1*
X61750Y49293D1*
X61856Y49370D1*
X61977Y49420D1*
X62107Y49441D1*
X62237Y49431D1*
X62362Y49391D1*
X62474Y49324D1*
X62568Y49232D1*
X62638Y49121D1*
X62680Y48997D1*
X62692Y48879D1*
X62677Y48749D1*
X62632Y48626D1*
X62557Y48514D1*
Y47234D1*
X62604Y47355D1*
X62675Y47465D1*
X62765Y47560D1*
X62871Y47637D1*
X62990Y47692D1*
X63117Y47725D1*
X63248Y47732D1*
X63378Y47716D1*
X63503Y47675D1*
X63617Y47611D1*
X63718Y47527D1*
X63801Y47426D1*
X63864Y47311D1*
X63904Y47186D1*
X63920Y47056D1*
X63913Y46932D1*
X63881Y46804D1*
X63826Y46686D1*
X63750Y46579D1*
X63708Y46536D1*
X63786Y46448D1*
X63853Y46335D1*
X63898Y46212D1*
X63921Y46036D1*
X63908Y45906D1*
X63872Y45780D1*
X63848Y45732D1*
X46281Y39725D2*
Y38339D1*
X46345Y38233D1*
X46387Y38110D1*
X46400Y37991D1*
X46385Y37861D1*
X46340Y37738D1*
X46267Y37629D1*
X46172Y37539D1*
X46058Y37474D1*
X45933Y37437D1*
X45802Y37430D1*
X45673Y37454D1*
X45553Y37507D1*
X45449Y37586D1*
X45366Y37687D1*
X45308Y37804D1*
X45279Y37932D1*
X45280Y38063D1*
X45312Y38190D1*
X45372Y38306D1*
X45428Y38371D1*
X45427Y39725D1*
X45381Y39785D1*
X45324Y39903D1*
X45295Y40030D1*
X45296Y40161D1*
X45328Y40288D1*
X45388Y40405D1*
X45473Y40504D1*
X45580Y40580D1*
X45701Y40631D1*
X45830Y40651D1*
X45960Y40642D1*
X46085Y40602D1*
X46197Y40534D1*
X46291Y40443D1*
X46361Y40332D1*
X46403Y40208D1*
X46416Y40090D1*
X46400Y39960D1*
X46355Y39837D1*
X46280Y39725D1*
X52472Y45111D2*
Y47071D1*
X52426Y47136D1*
X52369Y47254D1*
X52340Y47381D1*
X52341Y47512D1*
X52373Y47639D1*
X52433Y47755D1*
X52519Y47855D1*
X52625Y47931D1*
X52746Y47981D1*
X52875Y48002D1*
X53005Y47992D1*
X53130Y47953D1*
X53242Y47885D1*
X53336Y47794D1*
X53406Y47683D1*
X53448Y47559D1*
X53461Y47441D1*
X53445Y47311D1*
X53400Y47188D1*
X53325Y47076D1*
X53329Y44758D1*
X53341Y44639D1*
X53326Y44509D1*
X53281Y44386D1*
X53209Y44277D1*
X53113Y44188D1*
X53000Y44123D1*
X52874Y44086D1*
X52743Y44079D1*
X52615Y44102D1*
X52495Y44155D1*
X52390Y44234D1*
X52307Y44335D1*
X52249Y44452D1*
X52220Y44580D1*
X52222Y44711D1*
X52253Y44838D1*
X52314Y44954D1*
X52399Y45053D1*
X52469Y45104D1*
X58367Y43869D2*
X59072Y43870D1*
X59166Y43934D1*
X59287Y43984D1*
X59416Y44005D1*
X59547Y43995D1*
X59672Y43955D1*
X59784Y43888D1*
X59878Y43796D1*
X59947Y43686D1*
X59990Y43562D1*
X60002Y43443D1*
X59987Y43313D1*
X59942Y43190D1*
X59870Y43081D1*
X59774Y42992D1*
X59661Y42926D1*
X59535Y42889D1*
X59404Y42883D1*
X59276Y42906D1*
X59156Y42959D1*
X59081Y43016D1*
X58371Y43015D1*
X58223Y42924D1*
X58098Y42887D1*
X57967Y42880D1*
X57838Y42904D1*
X57718Y42956D1*
X57614Y43035D1*
X57530Y43136D1*
X57473Y43254D1*
X57444Y43382D1*
X57445Y43512D1*
X57477Y43639D1*
X57537Y43756D1*
X57623Y43855D1*
X57729Y43932D1*
X57850Y43982D1*
X57979Y44002D1*
X58110Y43993D1*
X58234Y43953D1*
X58361Y43871D1*
X64736Y42321D2*
X64601Y42236D1*
X64476Y42199D1*
X64345Y42193D1*
X64216Y42216D1*
X64096Y42269D1*
X63992Y42348D1*
X63908Y42449D1*
X63851Y42566D1*
X63822Y42694D1*
X63823Y42825D1*
X63855Y42952D1*
X63915Y43068D1*
X63955Y43115D1*
X48463Y45117D2*
X49579D1*
X49709Y45097D1*
X49829Y45036D1*
X49890Y44983D1*
X49888Y45410D1*
X48785Y45409D1*
X48643Y45319D1*
X48518Y45282D1*
X48387Y45275D1*
X48258Y45299D1*
X48138Y45351D1*
X48034Y45430D1*
X47950Y45531D1*
X47893Y45649D1*
X47864Y45777D1*
X47865Y45908D1*
X47897Y46035D1*
X47957Y46151D1*
X48043Y46250D1*
X48149Y46327D1*
X48270Y46377D1*
X48399Y46398D1*
X48530Y46388D1*
X48654Y46348D1*
X48787Y46261D1*
X50129Y46263D1*
X50315D1*
X50444Y46243D1*
X50561Y46185D1*
X50655Y46094D1*
X50717Y45979D1*
X50742Y45836D1*
Y43003D1*
X50722Y42873D1*
X50661Y42753D1*
X50524Y42608D1*
X50243Y42327D1*
X50242Y41801D1*
X50322Y41682D1*
X50365Y41558D1*
X50377Y41440D1*
X50362Y41310D1*
X50317Y41187D1*
X50245Y41078D1*
X50149Y40988D1*
X50036Y40923D1*
X49910Y40886D1*
X49779Y40879D1*
X49651Y40903D1*
X49531Y40955D1*
X49426Y41034D1*
X49343Y41135D1*
X49285Y41253D1*
X49256Y41381D1*
X49258Y41512D1*
X49289Y41639D1*
X49350Y41755D1*
X49390Y41801D1*
X49388Y42503D1*
X49408Y42632D1*
X49469Y42752D1*
X49606Y42897D1*
X49887Y43179D1*
X49888Y43843D1*
X49829Y43844D1*
X49700Y43868D1*
X49580Y43920D1*
X49476Y43999D1*
X49392Y44100D1*
X49335Y44218D1*
X49325Y44262D1*
X48460Y44263D1*
X48318Y44173D1*
X48193Y44136D1*
X48062Y44129D1*
X47933Y44153D1*
X47813Y44205D1*
X47709Y44284D1*
X47626Y44385D1*
X47568Y44503D1*
X47539Y44631D1*
X47541Y44762D1*
X47572Y44889D1*
X47632Y45005D1*
X47718Y45104D1*
X47824Y45181D1*
X47945Y45231D1*
X48074Y45252D1*
X48205Y45242D1*
X48330Y45202D1*
X48462Y45115D1*
X73940Y38940D2*
D18*
Y38244D1*
X72940Y38940D2*
Y38244D1*
X59440Y38636D2*
Y37940D1*
X60136D1*
X75940Y43636D2*
Y42940D1*
Y49636D2*
Y48940D1*
X46940Y49940D2*
Y49244D1*
X54489Y47736D2*
Y47040D1*
X53793D2*
X54489D1*
X63224Y47732D2*
Y47036D1*
X63920D1*
X65565Y48940D2*
Y48244D1*
X64869Y48940D2*
X66261D1*
X66940Y39940D2*
X67636D1*
X66940Y46636D2*
Y45940D1*
X67636D1*
X63940Y37940D2*
Y37244D1*
Y37940D2*
X64636D1*
X51940Y37636D2*
Y36940D1*
X52940Y37636D2*
Y36940D1*
X68186Y49618D2*
D15*
X70216D1*
X71666D2*
X72266D1*
X68186Y49319D2*
X70216D1*
X71666D2*
X72266D1*
X68186Y49021D2*
X70216D1*
X71666D2*
X72217D1*
X68186Y48722D2*
X70216D1*
X71666D2*
X72250D1*
X68186Y48423D2*
X70216D1*
X71666D2*
X72266D1*
X68186Y48125D2*
X72237D1*
X68186Y47826D2*
X72225D1*
X68186Y47527D2*
X72266D1*
X68186Y47228D2*
X72266D1*
X68186Y46930D2*
X72213D1*
X68186Y46631D2*
X71823D1*
X72059D2*
X72266D1*
X68186Y46332D2*
X71335D1*
X68186Y46034D2*
X71220D1*
X68186Y45735D2*
X71245D1*
X68186Y45436D2*
X71421D1*
X68186Y45138D2*
X71241D1*
X68186Y44839D2*
X71220D1*
X68186Y44540D2*
X71339D1*
X68186Y44242D2*
X71282D1*
X68186Y43943D2*
X71212D1*
X68186Y43644D2*
X71278D1*
X68186Y43346D2*
X71343D1*
X68186Y43047D2*
X71220D1*
X68186Y42748D2*
X71241D1*
X68186Y42449D2*
X71417D1*
X68186Y42151D2*
X71245D1*
X68186Y41852D2*
X71220D1*
X68186Y41553D2*
X71331D1*
X68186Y41255D2*
X71290D1*
X68186Y40956D2*
X71212D1*
X68186Y40657D2*
X71274D1*
X68186Y40359D2*
X71351D1*
X68186Y40060D2*
X71224D1*
X68186Y39761D2*
X71237D1*
X68186Y39463D2*
X71212D1*
X68186Y39164D2*
X71212D1*
X68186Y38865D2*
X71212D1*
X72293Y49690D2*
X72249Y49852D1*
X72247Y49913D1*
X71636Y49917D1*
X71624Y49810D1*
X71588Y49684D1*
X71564Y49636D1*
X71637Y49637D1*
Y48244D1*
X70244D1*
Y49637D1*
X70313D1*
X70278Y49724D1*
X70249Y49852D1*
X70247Y49913D1*
X69688Y49917D1*
X68158D1*
X68156Y47180D1*
Y38588D1*
X70237Y38590D1*
X71242D1*
X71244Y39637D1*
X71313D1*
X71278Y39724D1*
X71249Y39852D1*
X71245Y39983D1*
X71265Y40112D1*
X71309Y40235D1*
X71376Y40348D1*
X71454Y40438D1*
X71330Y40604D1*
X71278Y40724D1*
X71249Y40852D1*
X71245Y40983D1*
X71265Y41112D1*
X71309Y41235D1*
X71376Y41348D1*
X71454Y41438D1*
X71330Y41604D1*
X71278Y41724D1*
X71249Y41852D1*
X71245Y41983D1*
X71265Y42112D1*
X71309Y42235D1*
X71376Y42348D1*
X71454Y42438D1*
X71330Y42604D1*
X71278Y42724D1*
X71249Y42852D1*
X71245Y42983D1*
X71265Y43112D1*
X71309Y43235D1*
X71376Y43348D1*
X71454Y43438D1*
X71330Y43604D1*
X71278Y43724D1*
X71249Y43852D1*
X71245Y43983D1*
X71265Y44112D1*
X71309Y44235D1*
X71376Y44348D1*
X71454Y44438D1*
X71330Y44604D1*
X71278Y44724D1*
X71249Y44852D1*
X71245Y44983D1*
X71265Y45112D1*
X71309Y45235D1*
X71376Y45348D1*
X71454Y45438D1*
X71330Y45604D1*
X71278Y45724D1*
X71249Y45852D1*
X71245Y45983D1*
X71265Y46112D1*
X71309Y46235D1*
X71376Y46348D1*
X71462Y46447D1*
X71565Y46527D1*
X71682Y46587D1*
X71808Y46624D1*
X71938Y46637D1*
X72069Y46625D1*
X72195Y46589D1*
X72293Y46539D1*
X72294Y46679D1*
X72249Y46852D1*
X72245Y46983D1*
X72265Y47112D1*
X72294Y47193D1*
Y47680D1*
X72249Y47852D1*
X72245Y47983D1*
X72265Y48112D1*
X72294Y48193D1*
Y48681D1*
X72249Y48852D1*
X72245Y48983D1*
X72265Y49112D1*
X72294Y49202D1*
Y49681D1*
D29*
X73940Y49940D3*
D30*
X72940D3*
X73940Y48940D3*
X72940D3*
X73940Y47940D3*
X72940D3*
X73940Y46940D3*
X72940D3*
X73940Y45940D3*
X72940D3*
X73940Y44940D3*
X72940D3*
X73940Y43940D3*
X72940D3*
X73940Y42940D3*
X72940D3*
X73940Y41940D3*
X72940D3*
X73940Y40940D3*
X72940D3*
X73940Y39940D3*
X72940D3*
X73940Y38940D3*
X72940D3*
D29*
X58440Y37940D3*
D30*
X59440D3*
D29*
X75940Y38940D3*
D30*
X74940D3*
X75940Y39940D3*
X74940D3*
X75940Y40940D3*
X74940D3*
X75940Y41940D3*
X74940D3*
X75940Y42940D3*
X74940D3*
D29*
X75940Y44940D3*
D30*
X74940D3*
X75940Y45940D3*
X74940D3*
X75940Y46940D3*
X74940D3*
X75940Y47940D3*
X74940D3*
X75940Y48940D3*
X74940D3*
D29*
X45940Y49940D3*
D30*
X46940D3*
X47940D3*
D29*
X54489Y45040D3*
D30*
Y46040D3*
Y47040D3*
D29*
X63224Y45036D3*
D30*
Y46036D3*
Y47036D3*
D29*
X70940Y48940D3*
D30*
Y49940D3*
D29*
X65565Y48940D3*
D30*
Y49940D3*
D29*
X65318Y40941D3*
D30*
Y41941D3*
Y42941D3*
Y43941D3*
D29*
X71940Y38940D3*
D30*
Y39940D3*
Y40940D3*
Y41940D3*
Y42940D3*
Y43940D3*
Y44940D3*
Y45940D3*
D29*
X66940Y38940D3*
D30*
Y39940D3*
Y40940D3*
Y41940D3*
Y42940D3*
Y43940D3*
Y44940D3*
Y45940D3*
D29*
X55940Y37940D3*
D30*
X56940D3*
D29*
X60940D3*
D30*
X61940D3*
X62940D3*
X63940D3*
D29*
X48940Y36940D3*
D30*
X49940D3*
X50940D3*
X51940D3*
X52940D3*
X53940D3*
X54940D3*
X55940D3*
X56940D3*
X57940D3*
X58940D3*
X59940D3*
X60940D3*
X61940D3*
X62940D3*
X8854Y56090D2*
D14*
Y54007D1*
X8838Y53991D1*
X26224Y63036D2*
X28174D1*
X28565Y63428D1*
Y64940D1*
X8629Y64942D2*
X9941D1*
Y65065D1*
Y65939D1*
X9940Y65940D1*
X11315Y65065D2*
X9941D1*
X7950Y57307D2*
X8920D1*
X9941Y58328D1*
X10804Y59191D1*
X12191D1*
X9941Y64942D2*
Y64331D1*
Y58328D1*
X17489Y63040D2*
Y63645D1*
X16803Y64331D1*
X9941D1*
X10566Y57691D2*
X11566D1*
X11942Y58066D1*
Y58941D1*
X12191Y59191D1*
X38940Y58940D2*
X38945D1*
X39444Y58441D1*
Y54440D1*
X39382Y54378D1*
X37007D1*
X36944Y54440D1*
Y54936D1*
X36940Y54940D1*
X35940D2*
Y54444D1*
X36007Y54378D1*
X37007D1*
X12589Y54690D2*
X9941D1*
Y58328D1*
X21505Y58253D2*
X20380D1*
X28628Y62315D2*
Y62753D1*
X28344Y63036D1*
X28174D1*
X8940Y65940D2*
Y66448D1*
X12913D1*
Y65889D1*
X15779Y60639D2*
X15899D1*
Y63441D1*
X21003Y59441D2*
X22440Y59443D1*
X24003Y56440D2*
Y55503D1*
X24065Y55440D1*
X25065D1*
Y54503D1*
X26440D1*
Y52940D1*
X25940D1*
X35940Y55940D2*
X36440Y55440D1*
X37440D1*
X37940Y54940D1*
X27381Y59816D2*
Y58753D1*
X26190Y55440D2*
Y55878D1*
X27190D1*
Y56940D1*
X18130Y64817D2*
Y62588D1*
X18442D1*
Y61879D1*
X25130Y64879D2*
Y61267D1*
X35940Y63940D2*
X36440Y64440D1*
X38440D1*
X38940Y63940D1*
X35940Y62940D2*
X36440Y63440D1*
X38440D1*
X38940Y62940D1*
X36940Y60940D2*
X37440Y61440D1*
X38440D1*
X38940Y61940D1*
X36940Y59940D2*
X37378Y60378D1*
X38378D1*
X38940Y60940D1*
X36940Y57940D2*
X37440Y57440D1*
X38440D1*
Y56628D1*
X38940Y56128D1*
Y55940D1*
X35940Y56940D2*
X36440Y56440D1*
X38253D1*
X38440Y56253D1*
Y55440D1*
X38940Y54940D1*
X36940Y65940D2*
X36378Y66503D1*
X29128D1*
X28565Y65940D1*
X11098Y60690D2*
X12579D1*
X12865Y60405D1*
X24940Y52940D2*
X25940Y53940D1*
X22940Y52940D2*
X23940Y53940D1*
Y52940D2*
X24940Y53940D1*
X29940Y54940D2*
D15*
X29297D1*
X25628D1*
Y55940D1*
X24815D1*
X29297Y62954D2*
D14*
Y54940D1*
X12815Y57440D2*
Y58503D1*
X13315Y59003D1*
Y61836D1*
X11423D1*
X14735Y65905D2*
X23940D1*
X23987Y65857D1*
Y61692D1*
X19436Y63972D2*
Y65259D1*
X14731D1*
D18*
X8854Y56090D3*
X8838Y53991D3*
X8629Y64942D3*
X11315Y65065D3*
X7950Y57307D3*
X12191Y59191D3*
X10566Y57691D3*
X12589Y54690D3*
X21505Y58253D3*
X20380D3*
X28628Y62315D3*
X12913Y65889D3*
X15779Y60639D3*
X15899Y63441D3*
X21003Y59441D3*
X22440Y59443D3*
X24003Y56440D3*
X27381Y59816D3*
Y58753D3*
X26190Y55440D3*
X27190Y56940D3*
X27381Y58753D3*
X18130Y64817D3*
X18442Y61879D3*
X25130Y64879D3*
Y61267D3*
X11098Y60690D3*
X12865Y60405D3*
X24815Y55940D3*
X29297Y62954D3*
X12815Y57440D3*
X11423Y61836D3*
X14735Y65905D3*
X23987Y61692D3*
X19436Y63972D3*
X14731Y65259D3*
X9940Y63940D3*
Y63440D3*
Y62940D3*
Y62440D3*
Y61940D3*
Y61440D3*
Y60940D3*
Y60440D3*
Y59940D3*
Y59440D3*
Y58940D3*
Y58440D3*
Y57940D3*
Y57440D3*
Y56940D3*
X16440Y63940D3*
Y63440D3*
Y62940D3*
Y62440D3*
Y61940D3*
Y61440D3*
Y60940D3*
Y60440D3*
Y59940D3*
Y59440D3*
Y58940D3*
Y58440D3*
Y57940D3*
Y57440D3*
Y56940D3*
X32256Y62504D3*
Y62004D3*
Y61504D3*
Y61004D3*
X32819Y62504D3*
Y62004D3*
Y61504D3*
Y61004D3*
X32256Y60504D3*
X32819D3*
X31381Y61754D3*
Y61254D3*
X8315Y57315D3*
X7628D3*
X11815Y59190D3*
X12565D3*
X4620Y65991D2*
D15*
X8212D1*
X11664D2*
X12330D1*
X13497D2*
X14150D1*
X24422D2*
X27840D1*
X29290D2*
X30616D1*
X37668D2*
X39261D1*
X4620Y65693D2*
X8212D1*
X11623D2*
X12354D1*
X13468D2*
X14183D1*
X24443D2*
X27885D1*
X29245D2*
X30616D1*
X37668D2*
X39261D1*
X4620Y65394D2*
X8212D1*
X11401D2*
X12617D1*
X13210D2*
X14155D1*
X19870D2*
X23530D1*
X24443D2*
X24875D1*
X25386D2*
X27840D1*
X29290D2*
X30616D1*
X4620Y65095D2*
X14163D1*
X19895D2*
X23530D1*
X25677D2*
X27840D1*
X29290D2*
X30616D1*
X4620Y64797D2*
X14384D1*
X15080D2*
X17538D1*
X18722D2*
X18977D1*
X19895D2*
X23530D1*
X25718D2*
X27840D1*
X29290D2*
X30616D1*
X4620Y64498D2*
X17636D1*
X18623D2*
X18977D1*
X19895D2*
X23530D1*
X24443D2*
X24674D1*
X25587D2*
X27840D1*
X29290D2*
X30616D1*
X4620Y64199D2*
X17673D1*
X18586D2*
X18891D1*
X19981D2*
X23530D1*
X24443D2*
X24674D1*
X25587D2*
X30616D1*
X4620Y63901D2*
X15545D1*
X16253D2*
X17673D1*
X18586D2*
X18850D1*
X20022D2*
X23530D1*
X24443D2*
X24674D1*
X25587D2*
X30616D1*
X4620Y63602D2*
X15332D1*
X16466D2*
X17046D1*
X18586D2*
X18981D1*
X19890D2*
X23530D1*
X24443D2*
X24674D1*
X25587D2*
X25789D1*
X26661D2*
X30616D1*
X4620Y63303D2*
X15323D1*
X16474D2*
X16812D1*
X18586D2*
X23530D1*
X24443D2*
X24674D1*
X26899D2*
X28828D1*
X29766D2*
X30616D1*
X4620Y63005D2*
X15442D1*
X16355D2*
X16763D1*
X18586D2*
X23530D1*
X24443D2*
X24674D1*
X26948D2*
X28709D1*
X29889D2*
X30616D1*
X4620Y62706D2*
X15442D1*
X16355D2*
X16849D1*
X18882D2*
X23530D1*
X24443D2*
X24674D1*
X26866D2*
X28763D1*
X29831D2*
X30616D1*
X4620Y62407D2*
X15442D1*
X16355D2*
X16865D1*
X18898D2*
X23530D1*
X24443D2*
X24674D1*
X26842D2*
X28840D1*
X4620Y62109D2*
X10902D1*
X13673D2*
X15442D1*
X16355D2*
X16767D1*
X18984D2*
X23530D1*
X24443D2*
X24674D1*
X26948D2*
X28840D1*
X4620Y61810D2*
X10833D1*
X13772D2*
X15442D1*
X16355D2*
X16800D1*
X19029D2*
X23407D1*
X26911D2*
X28840D1*
X4620Y61511D2*
X10935D1*
X13772D2*
X15442D1*
X16355D2*
X16763D1*
X18898D2*
X23427D1*
X26952D2*
X28840D1*
X4620Y61212D2*
X10861D1*
X11336D2*
X12859D1*
X13772D2*
X15442D1*
X16355D2*
X16763D1*
X18217D2*
X23665D1*
X24311D2*
X24543D1*
X26952D2*
X28840D1*
X4620Y60914D2*
X10554D1*
X13772D2*
X15258D1*
X16355D2*
X16763D1*
X18217D2*
X24661D1*
X26952D2*
X28840D1*
X4620Y60615D2*
X10513D1*
X13772D2*
X15188D1*
X16372D2*
X16763D1*
X18217D2*
X25498D1*
X26952D2*
X28115D1*
X28523D2*
X28840D1*
X4620Y60316D2*
X10648D1*
X13772D2*
X15291D1*
X16269D2*
X27093D1*
X4620Y60018D2*
X12428D1*
X13772D2*
X26827D1*
X38636D2*
X39261D1*
X4620Y59719D2*
X12859D1*
X13772D2*
X20482D1*
X22958D2*
X26798D1*
X37632D2*
X39261D1*
X4620Y59420D2*
X12859D1*
X13772D2*
X20413D1*
X23032D2*
X26925D1*
X4620Y59122D2*
X12801D1*
X13772D2*
X20511D1*
X22929D2*
X26925D1*
X4620Y58823D2*
X12502D1*
X13731D2*
X26794D1*
X4620Y58524D2*
X12358D1*
X13472D2*
X26839D1*
X4620Y58226D2*
X12358D1*
X13271D2*
X27159D1*
X4620Y57927D2*
X12358D1*
X13271D2*
X27594D1*
X4620Y57628D2*
X12256D1*
X13374D2*
X27594D1*
X4620Y57330D2*
X12235D1*
X13394D2*
X26757D1*
X4620Y57031D2*
X12399D1*
X13230D2*
X26605D1*
X4620Y56732D2*
X23493D1*
X24512D2*
X26638D1*
X4620Y56433D2*
X8380D1*
X9326D2*
X23411D1*
X25796D2*
X26732D1*
X30463D2*
X30616D1*
X4620Y56135D2*
X8265D1*
X9445D2*
X23501D1*
X4620Y55836D2*
X8323D1*
X9384D2*
X23546D1*
X4620Y55537D2*
X8397D1*
X9310D2*
X23546D1*
X4620Y55239D2*
X8397D1*
X9310D2*
X23636D1*
X4620Y54940D2*
X8397D1*
X9310D2*
X24608D1*
X4620Y54641D2*
X8397D1*
X9310D2*
X24608D1*
X4620Y54343D2*
X8368D1*
X9310D2*
X18215D1*
X20538D2*
X20712D1*
X23040D2*
X23214D1*
X27539D2*
X29214D1*
X36327D2*
X36550D1*
X37328D2*
X37551D1*
X4620Y54044D2*
X8249D1*
X9429D2*
X18215D1*
X27658D2*
X39261D1*
X4620Y53745D2*
X8302D1*
X9371D2*
X18215D1*
X27637D2*
X39261D1*
X4620Y53447D2*
X8671D1*
X9006D2*
X11214D1*
X27461D2*
X39261D1*
X4620Y53148D2*
X11214D1*
X26895D2*
X39261D1*
X4620Y52849D2*
X11214D1*
X26887D2*
X39261D1*
X37637Y66288D2*
Y65566D1*
X37808Y65624D1*
X37938Y65637D1*
X38069Y65625D1*
X38195Y65589D1*
X38312Y65530D1*
X38440Y65422D1*
X38502Y65481D1*
X38611Y65554D1*
X38731Y65605D1*
X38860Y65632D1*
X38991Y65635D1*
X39120Y65613D1*
X39243Y65568D1*
X39290Y65543D1*
Y66289D1*
X37640Y66290D1*
X37624Y59810D2*
X37588Y59684D1*
X37528Y59567D1*
X37421Y59439D1*
X37462Y59447D1*
X37565Y59527D1*
X37682Y59587D1*
X37808Y59624D1*
X37938Y59637D1*
X38069Y59625D1*
X38195Y59589D1*
X38312Y59530D1*
X38440Y59422D1*
X38502Y59481D1*
X38611Y59554D1*
X38731Y59605D1*
X38860Y59632D1*
X38991Y59635D1*
X39120Y59613D1*
X39243Y59568D1*
X39290Y59543D1*
Y60244D1*
X38845D1*
X38680Y60076D1*
X38574Y59999D1*
X38446Y59957D1*
X38246Y59951D1*
X37635D1*
X37624Y59810D1*
X37440Y54455D2*
X37328Y54362D1*
X37213Y54299D1*
X37088Y54259D1*
X36958Y54244D1*
X36828Y54253D1*
X36701Y54286D1*
X36583Y54342D1*
X36477Y54420D1*
X36440Y54456D1*
X36350Y54377D1*
X36237Y54310D1*
X36114Y54266D1*
X35985Y54245D1*
X35854Y54249D1*
X35761Y54267D1*
X35742Y54235D1*
X35650Y54142D1*
X35531Y54089D1*
X35313Y54078D1*
X31006D1*
X30878Y54102D1*
X30766Y54169D1*
X30685Y54272D1*
X30647Y54401D1*
X30644Y55359D1*
X30645Y66071D1*
X30341Y66076D1*
X29303D1*
X29260Y65987D1*
X29249Y65810D1*
X29213Y65684D1*
X29189Y65636D1*
X29262Y65637D1*
Y64244D1*
X27869D1*
Y65637D1*
X27938D1*
X27903Y65724D1*
X27874Y65852D1*
X27870Y65983D1*
X27890Y66112D1*
X27934Y66235D1*
X27965Y66288D1*
X24123Y66290D1*
X24205Y66240D1*
X24319Y66126D1*
X24368Y66052D1*
X24400Y65969D1*
X24414Y65857D1*
Y62056D1*
X24495Y61934D1*
X24537Y61810D1*
X24549Y61692D1*
X24534Y61562D1*
X24489Y61439D1*
X24417Y61330D1*
X24322Y61240D1*
X24208Y61175D1*
X24082Y61138D1*
X23952Y61131D1*
X23823Y61155D1*
X23703Y61207D1*
X23598Y61286D1*
X23515Y61387D1*
X23457Y61505D1*
X23429Y61633D1*
X23430Y61764D1*
X23462Y61891D1*
X23522Y62007D1*
X23562Y62053D1*
X23560Y65477D1*
X19802Y65478D1*
X19833Y65416D1*
X19863Y65259D1*
Y64336D1*
X19943Y64214D1*
X19986Y64090D1*
X19998Y63972D1*
X19983Y63842D1*
X19938Y63719D1*
X19866Y63609D1*
X19770Y63520D1*
X19657Y63455D1*
X19531Y63418D1*
X19400Y63411D1*
X19272Y63434D1*
X19152Y63487D1*
X19047Y63566D1*
X18964Y63667D1*
X18906Y63785D1*
X18877Y63912D1*
X18879Y64043D1*
X18910Y64170D1*
X18971Y64286D1*
X19011Y64333D1*
X19009Y64829D1*
X18694Y64832D1*
X18676Y64686D1*
X18631Y64563D1*
X18556Y64451D1*
X18557Y62999D1*
X18676Y62945D1*
X18773Y62858D1*
X18839Y62745D1*
X18869Y62588D1*
Y62248D1*
X18949Y62121D1*
X18992Y61997D1*
X19004Y61879D1*
X18989Y61749D1*
X18944Y61626D1*
X18872Y61516D1*
X18776Y61427D1*
X18663Y61362D1*
X18537Y61325D1*
X18406Y61318D1*
X18278Y61341D1*
X18184Y61383D1*
X18186Y60343D1*
X16792D1*
Y61737D1*
X16862D1*
X16827Y61824D1*
X16798Y61951D1*
X16794Y62082D1*
X16814Y62212D1*
X16858Y62335D1*
X16924Y62448D1*
X17003Y62537D1*
X16906Y62658D1*
X16845Y62774D1*
X16807Y62900D1*
X16792Y63030D1*
X16803Y63161D1*
X16837Y63287D1*
X16895Y63405D1*
X16974Y63509D1*
X17071Y63597D1*
X17183Y63666D1*
X17305Y63712D1*
X17434Y63735D1*
X17565Y63732D1*
X17702Y63703D1*
X17703Y64454D1*
X17657Y64512D1*
X17600Y64629D1*
X17571Y64757D1*
X17572Y64835D1*
X15762Y64832D1*
X15093D1*
X14952Y64742D1*
X14826Y64705D1*
X14696Y64698D1*
X14567Y64722D1*
X14447Y64774D1*
X14343Y64853D1*
X14259Y64954D1*
X14202Y65072D1*
X14173Y65200D1*
X14174Y65331D1*
X14206Y65458D1*
X14274Y65583D1*
X14206Y65718D1*
X14177Y65845D1*
X14178Y65976D1*
X14210Y66103D1*
X14270Y66220D1*
X14331Y66291D1*
X13337Y66290D1*
X13350Y66242D1*
X13420Y66131D1*
X13462Y66007D1*
X13475Y65889D1*
X13459Y65759D1*
X13414Y65636D1*
X13342Y65527D1*
X13247Y65437D1*
X13133Y65372D1*
X13008Y65335D1*
X12877Y65328D1*
X12748Y65352D1*
X12628Y65404D1*
X12524Y65483D1*
X12440Y65584D1*
X12383Y65702D1*
X12354Y65830D1*
X12355Y65960D1*
X12370Y66020D1*
X11629Y66021D1*
X11637Y65940D1*
X11624Y65810D1*
X11588Y65684D1*
X11528Y65567D1*
X11448Y65464D1*
X11350Y65377D1*
X11237Y65310D1*
X11114Y65266D1*
X10985Y65245D1*
X10854Y65249D1*
X10726Y65277D1*
X10605Y65329D1*
X10497Y65403D1*
X10442Y65458D1*
X10350Y65377D1*
X10237Y65310D1*
X10114Y65266D1*
X9985Y65245D1*
X9854Y65249D1*
X9726Y65277D1*
X9637Y65313D1*
Y65244D1*
X8244D1*
Y66289D1*
X4594Y66290D1*
X4590Y65128D1*
Y52591D1*
X11244Y52590D1*
Y53637D1*
X12637D1*
Y53567D1*
X12808Y53624D1*
X12938Y53637D1*
X13069Y53625D1*
X13195Y53589D1*
X13312Y53530D1*
X13440Y53422D1*
X13565Y53527D1*
X13682Y53587D1*
X13808Y53624D1*
X13938Y53637D1*
X14069Y53625D1*
X14195Y53589D1*
X14312Y53530D1*
X14440Y53422D1*
X14502Y53481D1*
X14611Y53554D1*
X14731Y53605D1*
X14860Y53632D1*
X14991Y53635D1*
X15120Y53613D1*
X15243Y53568D1*
X15355Y53500D1*
X15440Y53425D1*
X15544Y53513D1*
X15658Y53577D1*
X15782Y53619D1*
X15912Y53636D1*
X16043Y53629D1*
X16170Y53598D1*
X16289Y53543D1*
X16396Y53467D1*
X16440Y53425D1*
X16565Y53527D1*
X16682Y53587D1*
X16808Y53624D1*
X16938Y53637D1*
X17069Y53625D1*
X17195Y53589D1*
X17312Y53530D1*
X17440Y53422D1*
X17565Y53527D1*
X17682Y53587D1*
X17808Y53624D1*
X17938Y53637D1*
X18069Y53625D1*
X18195Y53589D1*
X18242Y53565D1*
X18244Y54637D1*
X19637D1*
Y54567D1*
X19808Y54624D1*
X19938Y54637D1*
X20069Y54625D1*
X20195Y54589D1*
X20312Y54530D1*
X20415Y54450D1*
X20502Y54352D1*
X20569Y54239D1*
X20614Y54116D1*
X20637Y53940D1*
X20624Y53810D1*
X20588Y53684D1*
X20528Y53567D1*
X20421Y53439D1*
X20462Y53447D1*
X20565Y53527D1*
X20682Y53587D1*
X20741Y53604D1*
X20744Y54637D1*
X22137D1*
Y54567D1*
X22257Y54612D1*
X22386Y54635D1*
X22517Y54633D1*
X22645Y54606D1*
X22766Y54556D1*
X22876Y54484D1*
X22970Y54393D1*
X23045Y54286D1*
X23099Y54166D1*
X23130Y54039D1*
X23136Y53914D1*
X23119Y53784D1*
X23093Y53697D1*
X23244Y53848D1*
Y54637D1*
X24637D1*
Y54567D1*
X24638Y55015D1*
X24065Y55013D1*
X23936Y55033D1*
X23797Y55108D1*
X23662Y55245D1*
X23605Y55348D1*
X23577Y55474D1*
X23576Y56073D1*
X23530Y56135D1*
X23473Y56253D1*
X23444Y56381D1*
X23445Y56512D1*
X23477Y56639D1*
X23537Y56755D1*
X23623Y56854D1*
X23729Y56931D1*
X23850Y56981D1*
X23979Y57002D1*
X24110Y56992D1*
X24234Y56952D1*
X24347Y56885D1*
X24440Y56793D1*
X24510Y56682D1*
X24552Y56558D1*
X24564Y56444D1*
X24662Y56481D1*
X24791Y56502D1*
X24922Y56492D1*
X25050Y56450D1*
X25628Y56452D1*
X25757Y56435D1*
X25879Y56386D1*
X26034Y56275D1*
X26190Y56305D1*
X26760D1*
X26763Y56571D1*
X26718Y56635D1*
X26660Y56753D1*
X26631Y56881D1*
X26633Y57012D1*
X26664Y57139D1*
X26725Y57255D1*
X26810Y57354D1*
X26916Y57431D1*
X27037Y57481D1*
X27166Y57502D1*
X27297Y57492D1*
X27422Y57452D1*
X27534Y57385D1*
X27625Y57296D1*
X27622Y57637D1*
X27691D1*
X27656Y57724D1*
X27627Y57852D1*
X27623Y57983D1*
X27643Y58113D1*
X27687Y58236D1*
X27735Y58317D1*
X27601Y58236D1*
X27476Y58199D1*
X27345Y58193D1*
X27216Y58216D1*
X27096Y58269D1*
X26992Y58348D1*
X26908Y58449D1*
X26851Y58566D1*
X26822Y58694D1*
X26823Y58825D1*
X26855Y58952D1*
X26915Y59068D1*
X26955Y59115D1*
X26954Y59455D1*
X26908Y59511D1*
X26851Y59629D1*
X26822Y59757D1*
X26823Y59887D1*
X26855Y60015D1*
X26915Y60131D1*
X27001Y60230D1*
X27107Y60307D1*
X27228Y60357D1*
X27357Y60377D1*
X27488Y60368D1*
X27612Y60328D1*
X27707Y60271D1*
X27754Y60349D1*
X27840Y60447D1*
X27943Y60528D1*
X28060Y60588D1*
X28186Y60625D1*
X28316Y60637D1*
X28447Y60625D1*
X28573Y60589D1*
X28690Y60530D1*
X28793Y60450D1*
X28872Y60361D1*
X28870Y62589D1*
X28825Y62649D1*
X28767Y62767D1*
X28738Y62894D1*
X28740Y63025D1*
X28771Y63152D1*
X28832Y63269D1*
X28917Y63368D1*
X29023Y63445D1*
X29144Y63495D1*
X29274Y63515D1*
X29404Y63506D1*
X29529Y63466D1*
X29641Y63398D1*
X29735Y63307D1*
X29804Y63196D1*
X29847Y63072D1*
X29859Y62954D1*
X29844Y62824D1*
X29799Y62701D1*
X29738Y62609D1*
X29886Y62635D1*
X30017Y62633D1*
X30145Y62606D1*
X30266Y62556D1*
X30376Y62484D1*
X30470Y62393D1*
X30545Y62286D1*
X30599Y62166D1*
X30630Y62039D1*
X30636Y61914D1*
X30619Y61784D1*
X30578Y61660D1*
X30514Y61545D1*
X30425Y61440D1*
X30502Y61352D1*
X30569Y61239D1*
X30614Y61116D1*
X30637Y60940D1*
X30624Y60810D1*
X30588Y60684D1*
X30528Y60567D1*
X30421Y60439D1*
X30502Y60352D1*
X30569Y60239D1*
X30614Y60116D1*
X30637Y59940D1*
X30624Y59810D1*
X30588Y59684D1*
X30528Y59567D1*
X30421Y59439D1*
X30502Y59352D1*
X30569Y59239D1*
X30614Y59116D1*
X30637Y58940D1*
X30624Y58810D1*
X30588Y58684D1*
X30528Y58567D1*
X30421Y58439D1*
X30502Y58352D1*
X30569Y58239D1*
X30614Y58116D1*
X30637Y57940D1*
X30624Y57810D1*
X30588Y57684D1*
X30528Y57567D1*
X30421Y57439D1*
X30502Y57352D1*
X30569Y57239D1*
X30614Y57116D1*
X30637Y56940D1*
X30624Y56810D1*
X30588Y56684D1*
X30528Y56567D1*
X30421Y56439D1*
X30470Y56393D1*
X30545Y56286D1*
X30599Y56166D1*
X30630Y56039D1*
X30636Y55914D1*
X30619Y55784D1*
X30578Y55660D1*
X30567Y55637D1*
X30637D1*
Y54244D1*
X29244D1*
Y54428D1*
X27439D1*
X27532Y54308D1*
X27590Y54191D1*
X27626Y54065D1*
X27637Y53940D1*
X27624Y53810D1*
X27588Y53684D1*
X27528Y53567D1*
X27448Y53464D1*
X27350Y53377D1*
X27237Y53310D1*
X27114Y53266D1*
X26985Y53245D1*
X26867Y53247D1*
Y52940D1*
X26847Y52811D1*
X26789Y52694D1*
X26706Y52607D1*
X26750Y52590D1*
X39287D1*
X39290Y53752D1*
Y54241D1*
X38324Y54244D1*
X38244D1*
Y54313D1*
X38114Y54266D1*
X37985Y54245D1*
X37854Y54249D1*
X37726Y54277D1*
X37605Y54329D1*
X37497Y54403D1*
X37442Y54458D1*
X26852Y61733D2*
X26921D1*
Y60340D1*
X25527D1*
Y60869D1*
X25465Y60815D1*
X25351Y60750D1*
X25225Y60713D1*
X25095Y60706D1*
X24966Y60730D1*
X24846Y60782D1*
X24741Y60861D1*
X24658Y60962D1*
X24600Y61080D1*
X24572Y61208D1*
X24573Y61338D1*
X24605Y61465D1*
X24665Y61582D1*
X24705Y61628D1*
X24703Y64511D1*
X24658Y64574D1*
X24600Y64692D1*
X24572Y64820D1*
X24573Y64951D1*
X24605Y65078D1*
X24665Y65194D1*
X24750Y65293D1*
X24856Y65370D1*
X24977Y65420D1*
X25107Y65441D1*
X25237Y65431D1*
X25362Y65391D1*
X25474Y65324D1*
X25568Y65232D1*
X25638Y65121D1*
X25680Y64997D1*
X25692Y64879D1*
X25677Y64749D1*
X25632Y64626D1*
X25557Y64514D1*
Y63234D1*
X25604Y63355D1*
X25675Y63465D1*
X25765Y63560D1*
X25871Y63637D1*
X25990Y63692D1*
X26117Y63725D1*
X26248Y63732D1*
X26378Y63716D1*
X26503Y63675D1*
X26617Y63611D1*
X26718Y63527D1*
X26801Y63426D1*
X26864Y63311D1*
X26904Y63186D1*
X26920Y63056D1*
X26913Y62932D1*
X26881Y62804D1*
X26826Y62686D1*
X26750Y62579D1*
X26708Y62536D1*
X26786Y62448D1*
X26853Y62335D1*
X26898Y62212D1*
X26921Y62036D1*
X26908Y61906D1*
X26872Y61780D1*
X26848Y61732D1*
X9281Y55725D2*
Y54339D1*
X9345Y54233D1*
X9387Y54110D1*
X9400Y53991D1*
X9385Y53861D1*
X9340Y53738D1*
X9267Y53629D1*
X9172Y53539D1*
X9058Y53474D1*
X8933Y53437D1*
X8802Y53430D1*
X8673Y53454D1*
X8553Y53507D1*
X8449Y53586D1*
X8366Y53687D1*
X8308Y53804D1*
X8279Y53932D1*
X8280Y54063D1*
X8312Y54190D1*
X8372Y54306D1*
X8428Y54371D1*
X8427Y55725D1*
X8381Y55785D1*
X8324Y55903D1*
X8295Y56030D1*
X8296Y56161D1*
X8328Y56288D1*
X8388Y56405D1*
X8473Y56504D1*
X8580Y56580D1*
X8701Y56631D1*
X8830Y56651D1*
X8960Y56642D1*
X9085Y56602D1*
X9197Y56534D1*
X9291Y56443D1*
X9361Y56332D1*
X9403Y56208D1*
X9416Y56090D1*
X9400Y55960D1*
X9355Y55837D1*
X9280Y55725D1*
X15472Y61111D2*
Y63071D1*
X15426Y63136D1*
X15369Y63254D1*
X15340Y63381D1*
X15341Y63512D1*
X15373Y63639D1*
X15433Y63755D1*
X15519Y63855D1*
X15625Y63931D1*
X15746Y63981D1*
X15875Y64002D1*
X16005Y63992D1*
X16130Y63953D1*
X16242Y63885D1*
X16336Y63794D1*
X16406Y63683D1*
X16448Y63559D1*
X16461Y63441D1*
X16445Y63311D1*
X16400Y63188D1*
X16325Y63076D1*
X16329Y60758D1*
X16341Y60639D1*
X16326Y60509D1*
X16281Y60386D1*
X16209Y60277D1*
X16113Y60188D1*
X16000Y60123D1*
X15874Y60086D1*
X15743Y60079D1*
X15615Y60102D1*
X15495Y60155D1*
X15390Y60234D1*
X15307Y60335D1*
X15249Y60452D1*
X15220Y60580D1*
X15222Y60711D1*
X15253Y60838D1*
X15314Y60954D1*
X15399Y61053D1*
X15469Y61104D1*
X21367Y59869D2*
X22072Y59870D1*
X22166Y59934D1*
X22287Y59984D1*
X22416Y60005D1*
X22547Y59995D1*
X22672Y59955D1*
X22784Y59888D1*
X22878Y59796D1*
X22947Y59686D1*
X22990Y59562D1*
X23002Y59443D1*
X22987Y59313D1*
X22942Y59190D1*
X22870Y59081D1*
X22774Y58992D1*
X22661Y58926D1*
X22535Y58889D1*
X22404Y58883D1*
X22276Y58906D1*
X22156Y58959D1*
X22081Y59016D1*
X21371Y59015D1*
X21223Y58924D1*
X21098Y58887D1*
X20967Y58880D1*
X20838Y58904D1*
X20718Y58956D1*
X20614Y59035D1*
X20530Y59136D1*
X20473Y59254D1*
X20444Y59382D1*
X20445Y59512D1*
X20477Y59639D1*
X20537Y59756D1*
X20623Y59855D1*
X20729Y59932D1*
X20850Y59982D1*
X20979Y60002D1*
X21110Y59993D1*
X21234Y59953D1*
X21361Y59871D1*
X27736Y58321D2*
X27601Y58236D1*
X27476Y58199D1*
X27345Y58193D1*
X27216Y58216D1*
X27096Y58269D1*
X26992Y58348D1*
X26908Y58449D1*
X26851Y58566D1*
X26822Y58694D1*
X26823Y58825D1*
X26855Y58952D1*
X26915Y59068D1*
X26955Y59115D1*
X11463Y61117D2*
X12579D1*
X12709Y61097D1*
X12829Y61036D1*
X12890Y60983D1*
X12888Y61410D1*
X11785Y61409D1*
X11643Y61319D1*
X11518Y61282D1*
X11387Y61275D1*
X11258Y61299D1*
X11138Y61351D1*
X11034Y61430D1*
X10950Y61531D1*
X10893Y61649D1*
X10864Y61777D1*
X10865Y61908D1*
X10897Y62035D1*
X10957Y62151D1*
X11043Y62250D1*
X11149Y62327D1*
X11270Y62377D1*
X11399Y62398D1*
X11530Y62388D1*
X11654Y62348D1*
X11787Y62261D1*
X13129Y62263D1*
X13315D1*
X13444Y62243D1*
X13561Y62185D1*
X13655Y62094D1*
X13717Y61979D1*
X13742Y61836D1*
Y59003D1*
X13722Y58873D1*
X13661Y58753D1*
X13524Y58608D1*
X13243Y58327D1*
X13242Y57801D1*
X13322Y57682D1*
X13365Y57558D1*
X13377Y57440D1*
X13362Y57310D1*
X13317Y57187D1*
X13245Y57078D1*
X13149Y56988D1*
X13036Y56923D1*
X12910Y56886D1*
X12779Y56879D1*
X12651Y56903D1*
X12531Y56955D1*
X12426Y57034D1*
X12343Y57135D1*
X12285Y57253D1*
X12256Y57381D1*
X12258Y57512D1*
X12289Y57639D1*
X12350Y57755D1*
X12390Y57801D1*
X12388Y58503D1*
X12408Y58632D1*
X12469Y58752D1*
X12606Y58897D1*
X12887Y59179D1*
X12888Y59843D1*
X12829Y59844D1*
X12700Y59868D1*
X12580Y59920D1*
X12476Y59999D1*
X12392Y60100D1*
X12335Y60218D1*
X12325Y60262D1*
X11460Y60263D1*
X11318Y60173D1*
X11193Y60136D1*
X11062Y60129D1*
X10933Y60153D1*
X10813Y60205D1*
X10709Y60284D1*
X10626Y60385D1*
X10568Y60503D1*
X10539Y60631D1*
X10541Y60762D1*
X10572Y60889D1*
X10632Y61005D1*
X10718Y61104D1*
X10824Y61181D1*
X10945Y61231D1*
X11074Y61252D1*
X11205Y61242D1*
X11330Y61202D1*
X11462Y61115D1*
X36940Y54940D2*
D18*
Y54244D1*
X35940Y54940D2*
Y54244D1*
X22440Y54636D2*
Y53940D1*
X23136D1*
X38940Y59636D2*
Y58940D1*
Y65636D2*
Y64940D1*
X9940Y65940D2*
Y65244D1*
X17489Y63736D2*
Y63040D1*
X16793D2*
X17489D1*
X26224Y63732D2*
Y63036D1*
X26920D1*
X28565Y64940D2*
Y64244D1*
X27869Y64940D2*
X29261D1*
X29940Y55940D2*
X30636D1*
X29940Y62636D2*
Y61940D1*
X30636D1*
X26940Y53940D2*
Y53244D1*
Y53940D2*
X27636D1*
X14940Y53636D2*
Y52940D1*
X15940Y53636D2*
Y52940D1*
X31186Y65618D2*
D15*
X33216D1*
X34666D2*
X35266D1*
X31186Y65319D2*
X33216D1*
X34666D2*
X35266D1*
X31186Y65021D2*
X33216D1*
X34666D2*
X35217D1*
X31186Y64722D2*
X33216D1*
X34666D2*
X35250D1*
X31186Y64423D2*
X33216D1*
X34666D2*
X35266D1*
X31186Y64125D2*
X35237D1*
X31186Y63826D2*
X35225D1*
X31186Y63527D2*
X35266D1*
X31186Y63228D2*
X35266D1*
X31186Y62930D2*
X35213D1*
X31186Y62631D2*
X34823D1*
X35059D2*
X35266D1*
X31186Y62332D2*
X34335D1*
X31186Y62034D2*
X34220D1*
X31186Y61735D2*
X34245D1*
X31186Y61436D2*
X34421D1*
X31186Y61138D2*
X34241D1*
X31186Y60839D2*
X34220D1*
X31186Y60540D2*
X34339D1*
X31186Y60242D2*
X34282D1*
X31186Y59943D2*
X34212D1*
X31186Y59644D2*
X34278D1*
X31186Y59346D2*
X34343D1*
X31186Y59047D2*
X34220D1*
X31186Y58748D2*
X34241D1*
X31186Y58449D2*
X34417D1*
X31186Y58151D2*
X34245D1*
X31186Y57852D2*
X34220D1*
X31186Y57553D2*
X34331D1*
X31186Y57255D2*
X34290D1*
X31186Y56956D2*
X34212D1*
X31186Y56657D2*
X34274D1*
X31186Y56359D2*
X34351D1*
X31186Y56060D2*
X34224D1*
X31186Y55761D2*
X34237D1*
X31186Y55463D2*
X34212D1*
X31186Y55164D2*
X34212D1*
X31186Y54865D2*
X34212D1*
X35293Y65690D2*
X35249Y65852D1*
X35247Y65913D1*
X34636Y65917D1*
X34624Y65810D1*
X34588Y65684D1*
X34564Y65636D1*
X34637Y65637D1*
Y64244D1*
X33244D1*
Y65637D1*
X33313D1*
X33278Y65724D1*
X33249Y65852D1*
X33247Y65913D1*
X32688Y65917D1*
X31158D1*
X31156Y63180D1*
Y54588D1*
X33237Y54590D1*
X34242D1*
X34244Y55637D1*
X34313D1*
X34278Y55724D1*
X34249Y55852D1*
X34245Y55983D1*
X34265Y56112D1*
X34309Y56235D1*
X34376Y56348D1*
X34454Y56438D1*
X34330Y56604D1*
X34278Y56724D1*
X34249Y56852D1*
X34245Y56983D1*
X34265Y57112D1*
X34309Y57235D1*
X34376Y57348D1*
X34454Y57438D1*
X34330Y57604D1*
X34278Y57724D1*
X34249Y57852D1*
X34245Y57983D1*
X34265Y58112D1*
X34309Y58235D1*
X34376Y58348D1*
X34454Y58438D1*
X34330Y58604D1*
X34278Y58724D1*
X34249Y58852D1*
X34245Y58983D1*
X34265Y59112D1*
X34309Y59235D1*
X34376Y59348D1*
X34454Y59438D1*
X34330Y59604D1*
X34278Y59724D1*
X34249Y59852D1*
X34245Y59983D1*
X34265Y60112D1*
X34309Y60235D1*
X34376Y60348D1*
X34454Y60438D1*
X34330Y60604D1*
X34278Y60724D1*
X34249Y60852D1*
X34245Y60983D1*
X34265Y61112D1*
X34309Y61235D1*
X34376Y61348D1*
X34454Y61438D1*
X34330Y61604D1*
X34278Y61724D1*
X34249Y61852D1*
X34245Y61983D1*
X34265Y62112D1*
X34309Y62235D1*
X34376Y62348D1*
X34462Y62447D1*
X34565Y62527D1*
X34682Y62587D1*
X34808Y62624D1*
X34938Y62637D1*
X35069Y62625D1*
X35195Y62589D1*
X35293Y62539D1*
X35294Y62679D1*
X35249Y62852D1*
X35245Y62983D1*
X35265Y63112D1*
X35294Y63193D1*
Y63680D1*
X35249Y63852D1*
X35245Y63983D1*
X35265Y64112D1*
X35294Y64193D1*
Y64681D1*
X35249Y64852D1*
X35245Y64983D1*
X35265Y65112D1*
X35294Y65202D1*
Y65681D1*
D29*
X36940Y65940D3*
D30*
X35940D3*
X36940Y64940D3*
X35940D3*
X36940Y63940D3*
X35940D3*
X36940Y62940D3*
X35940D3*
X36940Y61940D3*
X35940D3*
X36940Y60940D3*
X35940D3*
X36940Y59940D3*
X35940D3*
X36940Y58940D3*
X35940D3*
X36940Y57940D3*
X35940D3*
X36940Y56940D3*
X35940D3*
X36940Y55940D3*
X35940D3*
X36940Y54940D3*
X35940D3*
D29*
X21440Y53940D3*
D30*
X22440D3*
D29*
X38940Y54940D3*
D30*
X37940D3*
X38940Y55940D3*
X37940D3*
X38940Y56940D3*
X37940D3*
X38940Y57940D3*
X37940D3*
X38940Y58940D3*
X37940D3*
D29*
X38940Y60940D3*
D30*
X37940D3*
X38940Y61940D3*
X37940D3*
X38940Y62940D3*
X37940D3*
X38940Y63940D3*
X37940D3*
X38940Y64940D3*
X37940D3*
D29*
X8940Y65940D3*
D30*
X9940D3*
X10940D3*
D29*
X17489Y61040D3*
D30*
Y62040D3*
Y63040D3*
D29*
X26224Y61036D3*
D30*
Y62036D3*
Y63036D3*
D29*
X33940Y64940D3*
D30*
Y65940D3*
D29*
X28565Y64940D3*
D30*
Y65940D3*
D29*
X28318Y56941D3*
D30*
Y57941D3*
Y58941D3*
Y59941D3*
D29*
X34940Y54940D3*
D30*
Y55940D3*
Y56940D3*
Y57940D3*
Y58940D3*
Y59940D3*
Y60940D3*
Y61940D3*
D29*
X29940Y54940D3*
D30*
Y55940D3*
Y56940D3*
Y57940D3*
Y58940D3*
Y59940D3*
Y60940D3*
Y61940D3*
D29*
X18940Y53940D3*
D30*
X19940D3*
D29*
X23940D3*
D30*
X24940D3*
X25940D3*
X26940D3*
D29*
X11940Y52940D3*
D30*
X12940D3*
X13940D3*
X14940D3*
X15940D3*
X16940D3*
X17940D3*
X18940D3*
X19940D3*
X20940D3*
X21940D3*
X22940D3*
X23940D3*
X24940D3*
X25940D3*
X45854Y56090D2*
D14*
Y54007D1*
X45838Y53991D1*
X63224Y63036D2*
X65174D1*
X65565Y63428D1*
Y64940D1*
X45629Y64942D2*
X46941D1*
Y65065D1*
Y65939D1*
X46940Y65940D1*
X48315Y65065D2*
X46941D1*
X44950Y57307D2*
X45920D1*
X46941Y58328D1*
X47804Y59191D1*
X49191D1*
X46941Y64942D2*
Y64331D1*
Y58328D1*
X54489Y63040D2*
Y63645D1*
X53803Y64331D1*
X46941D1*
X47566Y57691D2*
X48566D1*
X48942Y58066D1*
Y58941D1*
X49191Y59191D1*
X75940Y58940D2*
X75945D1*
X76444Y58441D1*
Y54440D1*
X76382Y54378D1*
X74007D1*
X73944Y54440D1*
Y54936D1*
X73940Y54940D1*
X72940D2*
Y54444D1*
X73007Y54378D1*
X74007D1*
X49589Y54690D2*
X46941D1*
Y58328D1*
X58505Y58253D2*
X57380D1*
X65628Y62315D2*
Y62753D1*
X65344Y63036D1*
X65174D1*
X45940Y65940D2*
Y66448D1*
X49913D1*
Y65889D1*
X52779Y60639D2*
X52899D1*
Y63441D1*
X58003Y59441D2*
X59440Y59443D1*
X61003Y56440D2*
Y55503D1*
X61065Y55440D1*
X62065D1*
Y54503D1*
X63440D1*
Y52940D1*
X62940D1*
X72940Y55940D2*
X73440Y55440D1*
X74440D1*
X74940Y54940D1*
X64381Y59816D2*
Y58753D1*
X63190Y55440D2*
Y55878D1*
X64190D1*
Y56940D1*
X55130Y64817D2*
Y62588D1*
X55442D1*
Y61879D1*
X62130Y64879D2*
Y61267D1*
X72940Y63940D2*
X73440Y64440D1*
X75440D1*
X75940Y63940D1*
X72940Y62940D2*
X73440Y63440D1*
X75440D1*
X75940Y62940D1*
X73940Y60940D2*
X74440Y61440D1*
X75440D1*
X75940Y61940D1*
X73940Y59940D2*
X74378Y60378D1*
X75378D1*
X75940Y60940D1*
X73940Y57940D2*
X74440Y57440D1*
X75440D1*
Y56628D1*
X75940Y56128D1*
Y55940D1*
X72940Y56940D2*
X73440Y56440D1*
X75253D1*
X75440Y56253D1*
Y55440D1*
X75940Y54940D1*
X73940Y65940D2*
X73378Y66503D1*
X66128D1*
X65565Y65940D1*
X48098Y60690D2*
X49579D1*
X49865Y60405D1*
X61940Y52940D2*
X62940Y53940D1*
X59940Y52940D2*
X60940Y53940D1*
Y52940D2*
X61940Y53940D1*
X66940Y54940D2*
D15*
X66297D1*
X62628D1*
Y55940D1*
X61815D1*
X66297Y62954D2*
D14*
Y54940D1*
X49815Y57440D2*
Y58503D1*
X50315Y59003D1*
Y61836D1*
X48423D1*
X51735Y65905D2*
X60940D1*
X60987Y65857D1*
Y61692D1*
X56436Y63972D2*
Y65259D1*
X51731D1*
D18*
X45854Y56090D3*
X45838Y53991D3*
X45629Y64942D3*
X48315Y65065D3*
X44950Y57307D3*
X49191Y59191D3*
X47566Y57691D3*
X49589Y54690D3*
X58505Y58253D3*
X57380D3*
X65628Y62315D3*
X49913Y65889D3*
X52779Y60639D3*
X52899Y63441D3*
X58003Y59441D3*
X59440Y59443D3*
X61003Y56440D3*
X64381Y59816D3*
Y58753D3*
X63190Y55440D3*
X64190Y56940D3*
X64381Y58753D3*
X55130Y64817D3*
X55442Y61879D3*
X62130Y64879D3*
Y61267D3*
X48098Y60690D3*
X49865Y60405D3*
X61815Y55940D3*
X66297Y62954D3*
X49815Y57440D3*
X48423Y61836D3*
X51735Y65905D3*
X60987Y61692D3*
X56436Y63972D3*
X51731Y65259D3*
X46940Y63940D3*
Y63440D3*
Y62940D3*
Y62440D3*
Y61940D3*
Y61440D3*
Y60940D3*
Y60440D3*
Y59940D3*
Y59440D3*
Y58940D3*
Y58440D3*
Y57940D3*
Y57440D3*
Y56940D3*
X53440Y63940D3*
Y63440D3*
Y62940D3*
Y62440D3*
Y61940D3*
Y61440D3*
Y60940D3*
Y60440D3*
Y59940D3*
Y59440D3*
Y58940D3*
Y58440D3*
Y57940D3*
Y57440D3*
Y56940D3*
X69256Y62504D3*
Y62004D3*
Y61504D3*
Y61004D3*
X69819Y62504D3*
Y62004D3*
Y61504D3*
Y61004D3*
X69256Y60504D3*
X69819D3*
X68381Y61754D3*
Y61254D3*
X45315Y57315D3*
X44628D3*
X48815Y59190D3*
X49565D3*
X41620Y65991D2*
D15*
X45212D1*
X48664D2*
X49330D1*
X50497D2*
X51150D1*
X61422D2*
X64840D1*
X66290D2*
X67616D1*
X74668D2*
X76261D1*
X41620Y65693D2*
X45212D1*
X48623D2*
X49354D1*
X50468D2*
X51183D1*
X61443D2*
X64885D1*
X66245D2*
X67616D1*
X74668D2*
X76261D1*
X41620Y65394D2*
X45212D1*
X48401D2*
X49617D1*
X50210D2*
X51155D1*
X56870D2*
X60530D1*
X61443D2*
X61875D1*
X62386D2*
X64840D1*
X66290D2*
X67616D1*
X41620Y65095D2*
X51163D1*
X56895D2*
X60530D1*
X62677D2*
X64840D1*
X66290D2*
X67616D1*
X41620Y64797D2*
X51384D1*
X52080D2*
X54538D1*
X55722D2*
X55977D1*
X56895D2*
X60530D1*
X62718D2*
X64840D1*
X66290D2*
X67616D1*
X41620Y64498D2*
X54636D1*
X55623D2*
X55977D1*
X56895D2*
X60530D1*
X61443D2*
X61674D1*
X62587D2*
X64840D1*
X66290D2*
X67616D1*
X41620Y64199D2*
X54673D1*
X55586D2*
X55891D1*
X56981D2*
X60530D1*
X61443D2*
X61674D1*
X62587D2*
X67616D1*
X41620Y63901D2*
X52545D1*
X53253D2*
X54673D1*
X55586D2*
X55850D1*
X57022D2*
X60530D1*
X61443D2*
X61674D1*
X62587D2*
X67616D1*
X41620Y63602D2*
X52332D1*
X53466D2*
X54046D1*
X55586D2*
X55981D1*
X56890D2*
X60530D1*
X61443D2*
X61674D1*
X62587D2*
X62789D1*
X63661D2*
X67616D1*
X41620Y63303D2*
X52323D1*
X53474D2*
X53812D1*
X55586D2*
X60530D1*
X61443D2*
X61674D1*
X63899D2*
X65828D1*
X66766D2*
X67616D1*
X41620Y63005D2*
X52442D1*
X53355D2*
X53763D1*
X55586D2*
X60530D1*
X61443D2*
X61674D1*
X63948D2*
X65709D1*
X66889D2*
X67616D1*
X41620Y62706D2*
X52442D1*
X53355D2*
X53849D1*
X55882D2*
X60530D1*
X61443D2*
X61674D1*
X63866D2*
X65763D1*
X66831D2*
X67616D1*
X41620Y62407D2*
X52442D1*
X53355D2*
X53865D1*
X55898D2*
X60530D1*
X61443D2*
X61674D1*
X63842D2*
X65840D1*
X41620Y62109D2*
X47902D1*
X50673D2*
X52442D1*
X53355D2*
X53767D1*
X55984D2*
X60530D1*
X61443D2*
X61674D1*
X63948D2*
X65840D1*
X41620Y61810D2*
X47833D1*
X50772D2*
X52442D1*
X53355D2*
X53800D1*
X56029D2*
X60407D1*
X63911D2*
X65840D1*
X41620Y61511D2*
X47935D1*
X50772D2*
X52442D1*
X53355D2*
X53763D1*
X55898D2*
X60427D1*
X63952D2*
X65840D1*
X41620Y61212D2*
X47861D1*
X48336D2*
X49859D1*
X50772D2*
X52442D1*
X53355D2*
X53763D1*
X55217D2*
X60665D1*
X61311D2*
X61543D1*
X63952D2*
X65840D1*
X41620Y60914D2*
X47554D1*
X50772D2*
X52258D1*
X53355D2*
X53763D1*
X55217D2*
X61661D1*
X63952D2*
X65840D1*
X41620Y60615D2*
X47513D1*
X50772D2*
X52188D1*
X53372D2*
X53763D1*
X55217D2*
X62498D1*
X63952D2*
X65115D1*
X65523D2*
X65840D1*
X41620Y60316D2*
X47648D1*
X50772D2*
X52291D1*
X53269D2*
X64093D1*
X41620Y60018D2*
X49428D1*
X50772D2*
X63827D1*
X75636D2*
X76261D1*
X41620Y59719D2*
X49859D1*
X50772D2*
X57482D1*
X59958D2*
X63798D1*
X74632D2*
X76261D1*
X41620Y59420D2*
X49859D1*
X50772D2*
X57413D1*
X60032D2*
X63925D1*
X41620Y59122D2*
X49801D1*
X50772D2*
X57511D1*
X59929D2*
X63925D1*
X41620Y58823D2*
X49502D1*
X50731D2*
X63794D1*
X41620Y58524D2*
X49358D1*
X50472D2*
X63839D1*
X41620Y58226D2*
X49358D1*
X50271D2*
X64159D1*
X41620Y57927D2*
X49358D1*
X50271D2*
X64594D1*
X41620Y57628D2*
X49256D1*
X50374D2*
X64594D1*
X41620Y57330D2*
X49235D1*
X50394D2*
X63757D1*
X41620Y57031D2*
X49399D1*
X50230D2*
X63605D1*
X41620Y56732D2*
X60493D1*
X61512D2*
X63638D1*
X41620Y56433D2*
X45380D1*
X46326D2*
X60411D1*
X62796D2*
X63732D1*
X67463D2*
X67616D1*
X41620Y56135D2*
X45265D1*
X46445D2*
X60501D1*
X41620Y55836D2*
X45323D1*
X46384D2*
X60546D1*
X41620Y55537D2*
X45397D1*
X46310D2*
X60546D1*
X41620Y55239D2*
X45397D1*
X46310D2*
X60636D1*
X41620Y54940D2*
X45397D1*
X46310D2*
X61608D1*
X41620Y54641D2*
X45397D1*
X46310D2*
X61608D1*
X41620Y54343D2*
X45368D1*
X46310D2*
X55215D1*
X57538D2*
X57712D1*
X60040D2*
X60214D1*
X64539D2*
X66214D1*
X73327D2*
X73550D1*
X74328D2*
X74551D1*
X41620Y54044D2*
X45249D1*
X46429D2*
X55215D1*
X64658D2*
X76261D1*
X41620Y53745D2*
X45302D1*
X46371D2*
X55215D1*
X64637D2*
X76261D1*
X41620Y53447D2*
X45671D1*
X46006D2*
X48214D1*
X64461D2*
X76261D1*
X41620Y53148D2*
X48214D1*
X63895D2*
X76261D1*
X41620Y52849D2*
X48214D1*
X63887D2*
X76261D1*
X74637Y66288D2*
Y65566D1*
X74808Y65624D1*
X74938Y65637D1*
X75069Y65625D1*
X75195Y65589D1*
X75312Y65530D1*
X75440Y65422D1*
X75502Y65481D1*
X75611Y65554D1*
X75731Y65605D1*
X75860Y65632D1*
X75991Y65635D1*
X76120Y65613D1*
X76243Y65568D1*
X76290Y65543D1*
Y66289D1*
X74640Y66290D1*
X74624Y59810D2*
X74588Y59684D1*
X74528Y59567D1*
X74421Y59439D1*
X74462Y59447D1*
X74565Y59527D1*
X74682Y59587D1*
X74808Y59624D1*
X74938Y59637D1*
X75069Y59625D1*
X75195Y59589D1*
X75312Y59530D1*
X75440Y59422D1*
X75502Y59481D1*
X75611Y59554D1*
X75731Y59605D1*
X75860Y59632D1*
X75991Y59635D1*
X76120Y59613D1*
X76243Y59568D1*
X76290Y59543D1*
Y60244D1*
X75845D1*
X75680Y60076D1*
X75574Y59999D1*
X75446Y59957D1*
X75246Y59951D1*
X74635D1*
X74624Y59810D1*
X74440Y54455D2*
X74328Y54362D1*
X74213Y54299D1*
X74088Y54259D1*
X73958Y54244D1*
X73828Y54253D1*
X73701Y54286D1*
X73583Y54342D1*
X73477Y54420D1*
X73440Y54456D1*
X73350Y54377D1*
X73237Y54310D1*
X73114Y54266D1*
X72985Y54245D1*
X72854Y54249D1*
X72761Y54267D1*
X72742Y54235D1*
X72650Y54142D1*
X72531Y54089D1*
X72313Y54078D1*
X68006D1*
X67878Y54102D1*
X67766Y54169D1*
X67685Y54272D1*
X67647Y54401D1*
X67644Y55359D1*
X67645Y66071D1*
X67341Y66076D1*
X66303D1*
X66260Y65987D1*
X66249Y65810D1*
X66213Y65684D1*
X66189Y65636D1*
X66262Y65637D1*
Y64244D1*
X64869D1*
Y65637D1*
X64938D1*
X64903Y65724D1*
X64874Y65852D1*
X64870Y65983D1*
X64890Y66112D1*
X64934Y66235D1*
X64965Y66288D1*
X61123Y66290D1*
X61205Y66240D1*
X61319Y66126D1*
X61368Y66052D1*
X61400Y65969D1*
X61414Y65857D1*
Y62056D1*
X61495Y61934D1*
X61537Y61810D1*
X61549Y61692D1*
X61534Y61562D1*
X61489Y61439D1*
X61417Y61330D1*
X61322Y61240D1*
X61208Y61175D1*
X61082Y61138D1*
X60952Y61131D1*
X60823Y61155D1*
X60703Y61207D1*
X60598Y61286D1*
X60515Y61387D1*
X60457Y61505D1*
X60429Y61633D1*
X60430Y61764D1*
X60462Y61891D1*
X60522Y62007D1*
X60562Y62053D1*
X60560Y65477D1*
X56802Y65478D1*
X56833Y65416D1*
X56863Y65259D1*
Y64336D1*
X56943Y64214D1*
X56986Y64090D1*
X56998Y63972D1*
X56983Y63842D1*
X56938Y63719D1*
X56866Y63609D1*
X56770Y63520D1*
X56657Y63455D1*
X56531Y63418D1*
X56400Y63411D1*
X56272Y63434D1*
X56152Y63487D1*
X56047Y63566D1*
X55964Y63667D1*
X55906Y63785D1*
X55877Y63912D1*
X55879Y64043D1*
X55910Y64170D1*
X55971Y64286D1*
X56011Y64333D1*
X56009Y64829D1*
X55694Y64832D1*
X55676Y64686D1*
X55631Y64563D1*
X55556Y64451D1*
X55557Y62999D1*
X55676Y62945D1*
X55773Y62858D1*
X55839Y62745D1*
X55869Y62588D1*
Y62248D1*
X55949Y62121D1*
X55992Y61997D1*
X56004Y61879D1*
X55989Y61749D1*
X55944Y61626D1*
X55872Y61516D1*
X55776Y61427D1*
X55663Y61362D1*
X55537Y61325D1*
X55406Y61318D1*
X55278Y61341D1*
X55184Y61383D1*
X55186Y60343D1*
X53792D1*
Y61737D1*
X53862D1*
X53827Y61824D1*
X53798Y61951D1*
X53794Y62082D1*
X53814Y62212D1*
X53858Y62335D1*
X53924Y62448D1*
X54003Y62537D1*
X53906Y62658D1*
X53845Y62774D1*
X53807Y62900D1*
X53792Y63030D1*
X53803Y63161D1*
X53837Y63287D1*
X53895Y63405D1*
X53974Y63509D1*
X54071Y63597D1*
X54183Y63666D1*
X54305Y63712D1*
X54434Y63735D1*
X54565Y63732D1*
X54702Y63703D1*
X54703Y64454D1*
X54657Y64512D1*
X54600Y64629D1*
X54571Y64757D1*
X54572Y64835D1*
X52762Y64832D1*
X52093D1*
X51952Y64742D1*
X51826Y64705D1*
X51696Y64698D1*
X51567Y64722D1*
X51447Y64774D1*
X51343Y64853D1*
X51259Y64954D1*
X51202Y65072D1*
X51173Y65200D1*
X51174Y65331D1*
X51206Y65458D1*
X51274Y65583D1*
X51206Y65718D1*
X51177Y65845D1*
X51178Y65976D1*
X51210Y66103D1*
X51270Y66220D1*
X51331Y66291D1*
X50337Y66290D1*
X50350Y66242D1*
X50420Y66131D1*
X50462Y66007D1*
X50475Y65889D1*
X50459Y65759D1*
X50414Y65636D1*
X50342Y65527D1*
X50247Y65437D1*
X50133Y65372D1*
X50008Y65335D1*
X49877Y65328D1*
X49748Y65352D1*
X49628Y65404D1*
X49524Y65483D1*
X49440Y65584D1*
X49383Y65702D1*
X49354Y65830D1*
X49355Y65960D1*
X49370Y66020D1*
X48629Y66021D1*
X48637Y65940D1*
X48624Y65810D1*
X48588Y65684D1*
X48528Y65567D1*
X48448Y65464D1*
X48350Y65377D1*
X48237Y65310D1*
X48114Y65266D1*
X47985Y65245D1*
X47854Y65249D1*
X47726Y65277D1*
X47605Y65329D1*
X47497Y65403D1*
X47442Y65458D1*
X47350Y65377D1*
X47237Y65310D1*
X47114Y65266D1*
X46985Y65245D1*
X46854Y65249D1*
X46726Y65277D1*
X46637Y65313D1*
Y65244D1*
X45244D1*
Y66289D1*
X41594Y66290D1*
X41590Y65128D1*
Y52591D1*
X48244Y52590D1*
Y53637D1*
X49637D1*
Y53567D1*
X49808Y53624D1*
X49938Y53637D1*
X50069Y53625D1*
X50195Y53589D1*
X50312Y53530D1*
X50440Y53422D1*
X50565Y53527D1*
X50682Y53587D1*
X50808Y53624D1*
X50938Y53637D1*
X51069Y53625D1*
X51195Y53589D1*
X51312Y53530D1*
X51440Y53422D1*
X51502Y53481D1*
X51611Y53554D1*
X51731Y53605D1*
X51860Y53632D1*
X51991Y53635D1*
X52120Y53613D1*
X52243Y53568D1*
X52355Y53500D1*
X52440Y53425D1*
X52544Y53513D1*
X52658Y53577D1*
X52782Y53619D1*
X52912Y53636D1*
X53043Y53629D1*
X53170Y53598D1*
X53289Y53543D1*
X53396Y53467D1*
X53440Y53425D1*
X53565Y53527D1*
X53682Y53587D1*
X53808Y53624D1*
X53938Y53637D1*
X54069Y53625D1*
X54195Y53589D1*
X54312Y53530D1*
X54440Y53422D1*
X54565Y53527D1*
X54682Y53587D1*
X54808Y53624D1*
X54938Y53637D1*
X55069Y53625D1*
X55195Y53589D1*
X55242Y53565D1*
X55244Y54637D1*
X56637D1*
Y54567D1*
X56808Y54624D1*
X56938Y54637D1*
X57069Y54625D1*
X57195Y54589D1*
X57312Y54530D1*
X57415Y54450D1*
X57502Y54352D1*
X57569Y54239D1*
X57614Y54116D1*
X57637Y53940D1*
X57624Y53810D1*
X57588Y53684D1*
X57528Y53567D1*
X57421Y53439D1*
X57462Y53447D1*
X57565Y53527D1*
X57682Y53587D1*
X57741Y53604D1*
X57744Y54637D1*
X59137D1*
Y54567D1*
X59257Y54612D1*
X59386Y54635D1*
X59517Y54633D1*
X59645Y54606D1*
X59766Y54556D1*
X59876Y54484D1*
X59970Y54393D1*
X60045Y54286D1*
X60099Y54166D1*
X60130Y54039D1*
X60136Y53914D1*
X60119Y53784D1*
X60093Y53697D1*
X60244Y53848D1*
Y54637D1*
X61637D1*
Y54567D1*
X61638Y55015D1*
X61065Y55013D1*
X60936Y55033D1*
X60797Y55108D1*
X60662Y55245D1*
X60605Y55348D1*
X60577Y55474D1*
X60576Y56073D1*
X60530Y56135D1*
X60473Y56253D1*
X60444Y56381D1*
X60445Y56512D1*
X60477Y56639D1*
X60537Y56755D1*
X60623Y56854D1*
X60729Y56931D1*
X60850Y56981D1*
X60979Y57002D1*
X61110Y56992D1*
X61234Y56952D1*
X61347Y56885D1*
X61440Y56793D1*
X61510Y56682D1*
X61552Y56558D1*
X61564Y56444D1*
X61662Y56481D1*
X61791Y56502D1*
X61922Y56492D1*
X62050Y56450D1*
X62628Y56452D1*
X62757Y56435D1*
X62879Y56386D1*
X63034Y56275D1*
X63190Y56305D1*
X63760D1*
X63763Y56571D1*
X63718Y56635D1*
X63660Y56753D1*
X63631Y56881D1*
X63633Y57012D1*
X63664Y57139D1*
X63725Y57255D1*
X63810Y57354D1*
X63916Y57431D1*
X64037Y57481D1*
X64166Y57502D1*
X64297Y57492D1*
X64422Y57452D1*
X64534Y57385D1*
X64625Y57296D1*
X64622Y57637D1*
X64691D1*
X64656Y57724D1*
X64627Y57852D1*
X64623Y57983D1*
X64643Y58113D1*
X64687Y58236D1*
X64735Y58317D1*
X64601Y58236D1*
X64476Y58199D1*
X64345Y58193D1*
X64216Y58216D1*
X64096Y58269D1*
X63992Y58348D1*
X63908Y58449D1*
X63851Y58566D1*
X63822Y58694D1*
X63823Y58825D1*
X63855Y58952D1*
X63915Y59068D1*
X63955Y59115D1*
X63954Y59455D1*
X63908Y59511D1*
X63851Y59629D1*
X63822Y59757D1*
X63823Y59887D1*
X63855Y60015D1*
X63915Y60131D1*
X64001Y60230D1*
X64107Y60307D1*
X64228Y60357D1*
X64357Y60377D1*
X64488Y60368D1*
X64612Y60328D1*
X64707Y60271D1*
X64754Y60349D1*
X64840Y60447D1*
X64943Y60528D1*
X65060Y60588D1*
X65186Y60625D1*
X65316Y60637D1*
X65447Y60625D1*
X65573Y60589D1*
X65690Y60530D1*
X65793Y60450D1*
X65872Y60361D1*
X65870Y62589D1*
X65825Y62649D1*
X65767Y62767D1*
X65738Y62894D1*
X65740Y63025D1*
X65771Y63152D1*
X65832Y63269D1*
X65917Y63368D1*
X66023Y63445D1*
X66144Y63495D1*
X66274Y63515D1*
X66404Y63506D1*
X66529Y63466D1*
X66641Y63398D1*
X66735Y63307D1*
X66804Y63196D1*
X66847Y63072D1*
X66859Y62954D1*
X66844Y62824D1*
X66799Y62701D1*
X66738Y62609D1*
X66886Y62635D1*
X67017Y62633D1*
X67145Y62606D1*
X67266Y62556D1*
X67376Y62484D1*
X67470Y62393D1*
X67545Y62286D1*
X67599Y62166D1*
X67630Y62039D1*
X67636Y61914D1*
X67619Y61784D1*
X67578Y61660D1*
X67514Y61545D1*
X67425Y61440D1*
X67502Y61352D1*
X67569Y61239D1*
X67614Y61116D1*
X67637Y60940D1*
X67624Y60810D1*
X67588Y60684D1*
X67528Y60567D1*
X67421Y60439D1*
X67502Y60352D1*
X67569Y60239D1*
X67614Y60116D1*
X67637Y59940D1*
X67624Y59810D1*
X67588Y59684D1*
X67528Y59567D1*
X67421Y59439D1*
X67502Y59352D1*
X67569Y59239D1*
X67614Y59116D1*
X67637Y58940D1*
X67624Y58810D1*
X67588Y58684D1*
X67528Y58567D1*
X67421Y58439D1*
X67502Y58352D1*
X67569Y58239D1*
X67614Y58116D1*
X67637Y57940D1*
X67624Y57810D1*
X67588Y57684D1*
X67528Y57567D1*
X67421Y57439D1*
X67502Y57352D1*
X67569Y57239D1*
X67614Y57116D1*
X67637Y56940D1*
X67624Y56810D1*
X67588Y56684D1*
X67528Y56567D1*
X67421Y56439D1*
X67470Y56393D1*
X67545Y56286D1*
X67599Y56166D1*
X67630Y56039D1*
X67636Y55914D1*
X67619Y55784D1*
X67578Y55660D1*
X67567Y55637D1*
X67637D1*
Y54244D1*
X66244D1*
Y54428D1*
X64439D1*
X64532Y54308D1*
X64590Y54191D1*
X64626Y54065D1*
X64637Y53940D1*
X64624Y53810D1*
X64588Y53684D1*
X64528Y53567D1*
X64448Y53464D1*
X64350Y53377D1*
X64237Y53310D1*
X64114Y53266D1*
X63985Y53245D1*
X63867Y53247D1*
Y52940D1*
X63847Y52811D1*
X63789Y52694D1*
X63706Y52607D1*
X63750Y52590D1*
X76287D1*
X76290Y53752D1*
Y54241D1*
X75324Y54244D1*
X75244D1*
Y54313D1*
X75114Y54266D1*
X74985Y54245D1*
X74854Y54249D1*
X74726Y54277D1*
X74605Y54329D1*
X74497Y54403D1*
X74442Y54458D1*
X63852Y61733D2*
X63921D1*
Y60340D1*
X62527D1*
Y60869D1*
X62465Y60815D1*
X62351Y60750D1*
X62225Y60713D1*
X62095Y60706D1*
X61966Y60730D1*
X61846Y60782D1*
X61741Y60861D1*
X61658Y60962D1*
X61600Y61080D1*
X61572Y61208D1*
X61573Y61338D1*
X61605Y61465D1*
X61665Y61582D1*
X61705Y61628D1*
X61703Y64511D1*
X61658Y64574D1*
X61600Y64692D1*
X61572Y64820D1*
X61573Y64951D1*
X61605Y65078D1*
X61665Y65194D1*
X61750Y65293D1*
X61856Y65370D1*
X61977Y65420D1*
X62107Y65441D1*
X62237Y65431D1*
X62362Y65391D1*
X62474Y65324D1*
X62568Y65232D1*
X62638Y65121D1*
X62680Y64997D1*
X62692Y64879D1*
X62677Y64749D1*
X62632Y64626D1*
X62557Y64514D1*
Y63234D1*
X62604Y63355D1*
X62675Y63465D1*
X62765Y63560D1*
X62871Y63637D1*
X62990Y63692D1*
X63117Y63725D1*
X63248Y63732D1*
X63378Y63716D1*
X63503Y63675D1*
X63617Y63611D1*
X63718Y63527D1*
X63801Y63426D1*
X63864Y63311D1*
X63904Y63186D1*
X63920Y63056D1*
X63913Y62932D1*
X63881Y62804D1*
X63826Y62686D1*
X63750Y62579D1*
X63708Y62536D1*
X63786Y62448D1*
X63853Y62335D1*
X63898Y62212D1*
X63921Y62036D1*
X63908Y61906D1*
X63872Y61780D1*
X63848Y61732D1*
X46281Y55725D2*
Y54339D1*
X46345Y54233D1*
X46387Y54110D1*
X46400Y53991D1*
X46385Y53861D1*
X46340Y53738D1*
X46267Y53629D1*
X46172Y53539D1*
X46058Y53474D1*
X45933Y53437D1*
X45802Y53430D1*
X45673Y53454D1*
X45553Y53507D1*
X45449Y53586D1*
X45366Y53687D1*
X45308Y53804D1*
X45279Y53932D1*
X45280Y54063D1*
X45312Y54190D1*
X45372Y54306D1*
X45428Y54371D1*
X45427Y55725D1*
X45381Y55785D1*
X45324Y55903D1*
X45295Y56030D1*
X45296Y56161D1*
X45328Y56288D1*
X45388Y56405D1*
X45473Y56504D1*
X45580Y56580D1*
X45701Y56631D1*
X45830Y56651D1*
X45960Y56642D1*
X46085Y56602D1*
X46197Y56534D1*
X46291Y56443D1*
X46361Y56332D1*
X46403Y56208D1*
X46416Y56090D1*
X46400Y55960D1*
X46355Y55837D1*
X46280Y55725D1*
X52472Y61111D2*
Y63071D1*
X52426Y63136D1*
X52369Y63254D1*
X52340Y63381D1*
X52341Y63512D1*
X52373Y63639D1*
X52433Y63755D1*
X52519Y63855D1*
X52625Y63931D1*
X52746Y63981D1*
X52875Y64002D1*
X53005Y63992D1*
X53130Y63953D1*
X53242Y63885D1*
X53336Y63794D1*
X53406Y63683D1*
X53448Y63559D1*
X53461Y63441D1*
X53445Y63311D1*
X53400Y63188D1*
X53325Y63076D1*
X53329Y60758D1*
X53341Y60639D1*
X53326Y60509D1*
X53281Y60386D1*
X53209Y60277D1*
X53113Y60188D1*
X53000Y60123D1*
X52874Y60086D1*
X52743Y60079D1*
X52615Y60102D1*
X52495Y60155D1*
X52390Y60234D1*
X52307Y60335D1*
X52249Y60452D1*
X52220Y60580D1*
X52222Y60711D1*
X52253Y60838D1*
X52314Y60954D1*
X52399Y61053D1*
X52469Y61104D1*
X58367Y59869D2*
X59072Y59870D1*
X59166Y59934D1*
X59287Y59984D1*
X59416Y60005D1*
X59547Y59995D1*
X59672Y59955D1*
X59784Y59888D1*
X59878Y59796D1*
X59947Y59686D1*
X59990Y59562D1*
X60002Y59443D1*
X59987Y59313D1*
X59942Y59190D1*
X59870Y59081D1*
X59774Y58992D1*
X59661Y58926D1*
X59535Y58889D1*
X59404Y58883D1*
X59276Y58906D1*
X59156Y58959D1*
X59081Y59016D1*
X58371Y59015D1*
X58223Y58924D1*
X58098Y58887D1*
X57967Y58880D1*
X57838Y58904D1*
X57718Y58956D1*
X57614Y59035D1*
X57530Y59136D1*
X57473Y59254D1*
X57444Y59382D1*
X57445Y59512D1*
X57477Y59639D1*
X57537Y59756D1*
X57623Y59855D1*
X57729Y59932D1*
X57850Y59982D1*
X57979Y60002D1*
X58110Y59993D1*
X58234Y59953D1*
X58361Y59871D1*
X64736Y58321D2*
X64601Y58236D1*
X64476Y58199D1*
X64345Y58193D1*
X64216Y58216D1*
X64096Y58269D1*
X63992Y58348D1*
X63908Y58449D1*
X63851Y58566D1*
X63822Y58694D1*
X63823Y58825D1*
X63855Y58952D1*
X63915Y59068D1*
X63955Y59115D1*
X48463Y61117D2*
X49579D1*
X49709Y61097D1*
X49829Y61036D1*
X49890Y60983D1*
X49888Y61410D1*
X48785Y61409D1*
X48643Y61319D1*
X48518Y61282D1*
X48387Y61275D1*
X48258Y61299D1*
X48138Y61351D1*
X48034Y61430D1*
X47950Y61531D1*
X47893Y61649D1*
X47864Y61777D1*
X47865Y61908D1*
X47897Y62035D1*
X47957Y62151D1*
X48043Y62250D1*
X48149Y62327D1*
X48270Y62377D1*
X48399Y62398D1*
X48530Y62388D1*
X48654Y62348D1*
X48787Y62261D1*
X50129Y62263D1*
X50315D1*
X50444Y62243D1*
X50561Y62185D1*
X50655Y62094D1*
X50717Y61979D1*
X50742Y61836D1*
Y59003D1*
X50722Y58873D1*
X50661Y58753D1*
X50524Y58608D1*
X50243Y58327D1*
X50242Y57801D1*
X50322Y57682D1*
X50365Y57558D1*
X50377Y57440D1*
X50362Y57310D1*
X50317Y57187D1*
X50245Y57078D1*
X50149Y56988D1*
X50036Y56923D1*
X49910Y56886D1*
X49779Y56879D1*
X49651Y56903D1*
X49531Y56955D1*
X49426Y57034D1*
X49343Y57135D1*
X49285Y57253D1*
X49256Y57381D1*
X49258Y57512D1*
X49289Y57639D1*
X49350Y57755D1*
X49390Y57801D1*
X49388Y58503D1*
X49408Y58632D1*
X49469Y58752D1*
X49606Y58897D1*
X49887Y59179D1*
X49888Y59843D1*
X49829Y59844D1*
X49700Y59868D1*
X49580Y59920D1*
X49476Y59999D1*
X49392Y60100D1*
X49335Y60218D1*
X49325Y60262D1*
X48460Y60263D1*
X48318Y60173D1*
X48193Y60136D1*
X48062Y60129D1*
X47933Y60153D1*
X47813Y60205D1*
X47709Y60284D1*
X47626Y60385D1*
X47568Y60503D1*
X47539Y60631D1*
X47541Y60762D1*
X47572Y60889D1*
X47632Y61005D1*
X47718Y61104D1*
X47824Y61181D1*
X47945Y61231D1*
X48074Y61252D1*
X48205Y61242D1*
X48330Y61202D1*
X48462Y61115D1*
X73940Y54940D2*
D18*
Y54244D1*
X72940Y54940D2*
Y54244D1*
X59440Y54636D2*
Y53940D1*
X60136D1*
X75940Y59636D2*
Y58940D1*
Y65636D2*
Y64940D1*
X46940Y65940D2*
Y65244D1*
X54489Y63736D2*
Y63040D1*
X53793D2*
X54489D1*
X63224Y63732D2*
Y63036D1*
X63920D1*
X65565Y64940D2*
Y64244D1*
X64869Y64940D2*
X66261D1*
X66940Y55940D2*
X67636D1*
X66940Y62636D2*
Y61940D1*
X67636D1*
X63940Y53940D2*
Y53244D1*
Y53940D2*
X64636D1*
X51940Y53636D2*
Y52940D1*
X52940Y53636D2*
Y52940D1*
X68186Y65618D2*
D15*
X70216D1*
X71666D2*
X72266D1*
X68186Y65319D2*
X70216D1*
X71666D2*
X72266D1*
X68186Y65021D2*
X70216D1*
X71666D2*
X72217D1*
X68186Y64722D2*
X70216D1*
X71666D2*
X72250D1*
X68186Y64423D2*
X70216D1*
X71666D2*
X72266D1*
X68186Y64125D2*
X72237D1*
X68186Y63826D2*
X72225D1*
X68186Y63527D2*
X72266D1*
X68186Y63228D2*
X72266D1*
X68186Y62930D2*
X72213D1*
X68186Y62631D2*
X71823D1*
X72059D2*
X72266D1*
X68186Y62332D2*
X71335D1*
X68186Y62034D2*
X71220D1*
X68186Y61735D2*
X71245D1*
X68186Y61436D2*
X71421D1*
X68186Y61138D2*
X71241D1*
X68186Y60839D2*
X71220D1*
X68186Y60540D2*
X71339D1*
X68186Y60242D2*
X71282D1*
X68186Y59943D2*
X71212D1*
X68186Y59644D2*
X71278D1*
X68186Y59346D2*
X71343D1*
X68186Y59047D2*
X71220D1*
X68186Y58748D2*
X71241D1*
X68186Y58449D2*
X71417D1*
X68186Y58151D2*
X71245D1*
X68186Y57852D2*
X71220D1*
X68186Y57553D2*
X71331D1*
X68186Y57255D2*
X71290D1*
X68186Y56956D2*
X71212D1*
X68186Y56657D2*
X71274D1*
X68186Y56359D2*
X71351D1*
X68186Y56060D2*
X71224D1*
X68186Y55761D2*
X71237D1*
X68186Y55463D2*
X71212D1*
X68186Y55164D2*
X71212D1*
X68186Y54865D2*
X71212D1*
X72293Y65690D2*
X72249Y65852D1*
X72247Y65913D1*
X71636Y65917D1*
X71624Y65810D1*
X71588Y65684D1*
X71564Y65636D1*
X71637Y65637D1*
Y64244D1*
X70244D1*
Y65637D1*
X70313D1*
X70278Y65724D1*
X70249Y65852D1*
X70247Y65913D1*
X69688Y65917D1*
X68158D1*
X68156Y63180D1*
Y54588D1*
X70237Y54590D1*
X71242D1*
X71244Y55637D1*
X71313D1*
X71278Y55724D1*
X71249Y55852D1*
X71245Y55983D1*
X71265Y56112D1*
X71309Y56235D1*
X71376Y56348D1*
X71454Y56438D1*
X71330Y56604D1*
X71278Y56724D1*
X71249Y56852D1*
X71245Y56983D1*
X71265Y57112D1*
X71309Y57235D1*
X71376Y57348D1*
X71454Y57438D1*
X71330Y57604D1*
X71278Y57724D1*
X71249Y57852D1*
X71245Y57983D1*
X71265Y58112D1*
X71309Y58235D1*
X71376Y58348D1*
X71454Y58438D1*
X71330Y58604D1*
X71278Y58724D1*
X71249Y58852D1*
X71245Y58983D1*
X71265Y59112D1*
X71309Y59235D1*
X71376Y59348D1*
X71454Y59438D1*
X71330Y59604D1*
X71278Y59724D1*
X71249Y59852D1*
X71245Y59983D1*
X71265Y60112D1*
X71309Y60235D1*
X71376Y60348D1*
X71454Y60438D1*
X71330Y60604D1*
X71278Y60724D1*
X71249Y60852D1*
X71245Y60983D1*
X71265Y61112D1*
X71309Y61235D1*
X71376Y61348D1*
X71454Y61438D1*
X71330Y61604D1*
X71278Y61724D1*
X71249Y61852D1*
X71245Y61983D1*
X71265Y62112D1*
X71309Y62235D1*
X71376Y62348D1*
X71462Y62447D1*
X71565Y62527D1*
X71682Y62587D1*
X71808Y62624D1*
X71938Y62637D1*
X72069Y62625D1*
X72195Y62589D1*
X72293Y62539D1*
X72294Y62679D1*
X72249Y62852D1*
X72245Y62983D1*
X72265Y63112D1*
X72294Y63193D1*
Y63680D1*
X72249Y63852D1*
X72245Y63983D1*
X72265Y64112D1*
X72294Y64193D1*
Y64681D1*
X72249Y64852D1*
X72245Y64983D1*
X72265Y65112D1*
X72294Y65202D1*
Y65681D1*
D29*
X73940Y65940D3*
D30*
X72940D3*
X73940Y64940D3*
X72940D3*
X73940Y63940D3*
X72940D3*
X73940Y62940D3*
X72940D3*
X73940Y61940D3*
X72940D3*
X73940Y60940D3*
X72940D3*
X73940Y59940D3*
X72940D3*
X73940Y58940D3*
X72940D3*
X73940Y57940D3*
X72940D3*
X73940Y56940D3*
X72940D3*
X73940Y55940D3*
X72940D3*
X73940Y54940D3*
X72940D3*
D29*
X58440Y53940D3*
D30*
X59440D3*
D29*
X75940Y54940D3*
D30*
X74940D3*
X75940Y55940D3*
X74940D3*
X75940Y56940D3*
X74940D3*
X75940Y57940D3*
X74940D3*
X75940Y58940D3*
X74940D3*
D29*
X75940Y60940D3*
D30*
X74940D3*
X75940Y61940D3*
X74940D3*
X75940Y62940D3*
X74940D3*
X75940Y63940D3*
X74940D3*
X75940Y64940D3*
X74940D3*
D29*
X45940Y65940D3*
D30*
X46940D3*
X47940D3*
D29*
X54489Y61040D3*
D30*
Y62040D3*
Y63040D3*
D29*
X63224Y61036D3*
D30*
Y62036D3*
Y63036D3*
D29*
X70940Y64940D3*
D30*
Y65940D3*
D29*
X65565Y64940D3*
D30*
Y65940D3*
D29*
X65318Y56941D3*
D30*
Y57941D3*
Y58941D3*
Y59941D3*
D29*
X71940Y54940D3*
D30*
Y55940D3*
Y56940D3*
Y57940D3*
Y58940D3*
Y59940D3*
Y60940D3*
Y61940D3*
D29*
X66940Y54940D3*
D30*
Y55940D3*
Y56940D3*
Y57940D3*
Y58940D3*
Y59940D3*
Y60940D3*
Y61940D3*
D29*
X55940Y53940D3*
D30*
X56940D3*
D29*
X60940D3*
D30*
X61940D3*
X62940D3*
X63940D3*
D29*
X48940Y52940D3*
D30*
X49940D3*
X50940D3*
X51940D3*
X52940D3*
X53940D3*
X54940D3*
X55940D3*
X56940D3*
X57940D3*
X58940D3*
X59940D3*
X60940D3*
X61940D3*
X62940D3*
M02*
