M48
INCH
T01C0.0191
T02C0.0433
%
T01
X+009940Y+015940
X+009940Y+015440
X+009940Y+014940
X+009940Y+014440
X+009940Y+013940
X+009940Y+013440
X+009940Y+012940
X+009940Y+012440
X+009940Y+011940
X+009940Y+011440
X+009940Y+010940
X+009940Y+010440
X+009940Y+009940
X+009940Y+009440
X+009940Y+008940
X+010566Y+009691
X+011815Y+011190
X+012191Y+011191
X+012565Y+011190
X+012865Y+012405
X+011098Y+012690
X+011423Y+013836
X+011315Y+017065
X+012913Y+017889
X+014735Y+017905
X+014731Y+017259
X+016440Y+015940
X+016440Y+015440
X+016440Y+014940
X+016440Y+014440
X+016440Y+013940
X+016440Y+013440
X+016440Y+012940
X+016440Y+012440
X+016440Y+011940
X+016440Y+011440
X+016440Y+010940
X+016440Y+010440
X+016440Y+009940
X+016440Y+009440
X+016440Y+008940
X+012815Y+009440
X+012589Y+006690
X+008838Y+005991
X+008854Y+008090
X+008315Y+009315
X+007950Y+009307
X+007628Y+009315
X+008629Y+016942
X+008838Y+021991
X+008854Y+024090
X+008315Y+025315
X+007950Y+025307
X+007628Y+025315
X+009940Y+025440
X+009940Y+025940
X+009940Y+026440
X+009940Y+026940
X+009940Y+027440
X+009940Y+027940
X+009940Y+028440
X+009940Y+028940
X+009940Y+029440
X+009940Y+029940
X+009940Y+030440
X+009940Y+030940
X+009940Y+031440
X+009940Y+031940
X+008629Y+032942
X+011315Y+033065
X+012913Y+033889
X+014735Y+033905
X+014731Y+033259
X+016440Y+031940
X+016440Y+031440
X+016440Y+030940
X+016440Y+030440
X+016440Y+029940
X+016440Y+029440
X+016440Y+028940
X+016440Y+028440
X+016440Y+027940
X+016440Y+027440
X+016440Y+026940
X+016440Y+026440
X+016440Y+025940
X+016440Y+025440
X+016440Y+024940
X+012815Y+025440
X+012565Y+027190
X+012191Y+027191
X+011815Y+027190
X+012865Y+028405
X+011098Y+028690
X+011423Y+029836
X+010566Y+025691
X+009940Y+024940
X+012589Y+022690
X+015779Y+028639
X+015899Y+031441
X+018130Y+032817
X+019436Y+031972
X+018442Y+029879
X+021003Y+027441
X+021505Y+026253
X+020380Y+026253
X+022440Y+027443
X+023987Y+029692
X+025130Y+029267
X+027381Y+027816
X+027381Y+026753
X+027190Y+024940
X+026190Y+023440
X+024815Y+023940
X+024003Y+024440
X+028628Y+030315
X+029297Y+030954
X+031381Y+029754
X+031381Y+029254
X+032256Y+029504
X+032256Y+030004
X+032256Y+030504
X+032819Y+030504
X+032819Y+030004
X+032819Y+029504
X+032819Y+029004
X+032819Y+028504
X+032256Y+028504
X+032256Y+029004
X+025130Y+032879
X+026190Y+039440
X+024815Y+039940
X+024003Y+040440
X+021505Y+042253
X+020380Y+042253
X+021003Y+043441
X+022440Y+043443
X+023987Y+045692
X+025130Y+045267
X+027381Y+043816
X+027381Y+042753
X+027190Y+040940
X+028628Y+046315
X+029297Y+046954
X+031381Y+045754
X+031381Y+045254
X+032256Y+045504
X+032256Y+046004
X+032256Y+046504
X+032819Y+046504
X+032819Y+046004
X+032819Y+045504
X+032819Y+045004
X+032819Y+044504
X+032256Y+044504
X+032256Y+045004
X+025130Y+048879
X+019436Y+047972
X+018130Y+048817
X+016440Y+047940
X+016440Y+047440
X+016440Y+046940
X+016440Y+046440
X+016440Y+045940
X+016440Y+045440
X+016440Y+044940
X+016440Y+044440
X+016440Y+043940
X+016440Y+043440
X+016440Y+042940
X+016440Y+042440
X+016440Y+041940
X+016440Y+041440
X+016440Y+040940
X+012815Y+041440
X+012565Y+043190
X+012191Y+043191
X+011815Y+043190
X+012865Y+044405
X+011098Y+044690
X+009940Y+044940
X+009940Y+044440
X+009940Y+043940
X+009940Y+043440
X+009940Y+042940
X+009940Y+042440
X+009940Y+041940
X+009940Y+041440
X+009940Y+040940
X+010566Y+041691
X+008315Y+041315
X+007950Y+041307
X+007628Y+041315
X+008854Y+040090
X+008838Y+037991
X+012589Y+038690
X+015779Y+044639
X+015899Y+047441
X+014731Y+049259
X+014735Y+049905
X+012913Y+049889
X+011315Y+049065
X+009940Y+047940
X+009940Y+047440
X+009940Y+046940
X+009940Y+046440
X+009940Y+045940
X+009940Y+045440
X+011423Y+045836
X+008629Y+048942
X+008838Y+053991
X+008854Y+056090
X+008315Y+057315
X+007950Y+057307
X+007628Y+057315
X+009940Y+057440
X+009940Y+056940
X+010566Y+057691
X+009940Y+057940
X+009940Y+058440
X+009940Y+058940
X+009940Y+059440
X+009940Y+059940
X+009940Y+060440
X+009940Y+060940
X+009940Y+061440
X+009940Y+061940
X+009940Y+062440
X+009940Y+062940
X+009940Y+063440
X+009940Y+063940
X+008629Y+064942
X+011315Y+065065
X+012913Y+065889
X+014735Y+065905
X+014731Y+065259
X+016440Y+063940
X+016440Y+063440
X+016440Y+062940
X+016440Y+062440
X+016440Y+061940
X+016440Y+061440
X+016440Y+060940
X+016440Y+060440
X+016440Y+059940
X+016440Y+059440
X+016440Y+058940
X+016440Y+058440
X+016440Y+057940
X+016440Y+057440
X+016440Y+056940
X+012815Y+057440
X+012565Y+059190
X+012191Y+059191
X+011815Y+059190
X+012865Y+060405
X+011098Y+060690
X+011423Y+061836
X+015779Y+060639
X+015899Y+063441
X+018130Y+064817
X+019436Y+063972
X+018442Y+061879
X+021003Y+059441
X+021505Y+058253
X+020380Y+058253
X+022440Y+059443
X+023987Y+061692
X+025130Y+061267
X+027381Y+059816
X+027381Y+058753
X+027190Y+056940
X+026190Y+055440
X+024815Y+055940
X+024003Y+056440
X+028628Y+062315
X+029297Y+062954
X+031381Y+061754
X+031381Y+061254
X+032256Y+061504
X+032256Y+062004
X+032256Y+062504
X+032819Y+062504
X+032819Y+062004
X+032819Y+061504
X+032819Y+061004
X+032819Y+060504
X+032256Y+060504
X+032256Y+061004
X+025130Y+064879
X+012589Y+054690
X+018442Y+045879
X+044628Y+041315
X+044950Y+041307
X+045315Y+041315
X+045854Y+040090
X+046940Y+040940
X+046940Y+041440
X+046940Y+041940
X+046940Y+042440
X+046940Y+042940
X+046940Y+043440
X+046940Y+043940
X+046940Y+044440
X+046940Y+044940
X+046940Y+045440
X+046940Y+045940
X+046940Y+046440
X+046940Y+046940
X+046940Y+047440
X+046940Y+047940
X+045629Y+048942
X+048315Y+049065
X+049913Y+049889
X+051735Y+049905
X+051731Y+049259
X+053440Y+047940
X+053440Y+047440
X+053440Y+046940
X+053440Y+046440
X+053440Y+045940
X+053440Y+045440
X+053440Y+044940
X+053440Y+044440
X+053440Y+043940
X+053440Y+043440
X+053440Y+042940
X+053440Y+042440
X+053440Y+041940
X+053440Y+041440
X+053440Y+040940
X+049815Y+041440
X+049565Y+043190
X+049191Y+043191
X+048815Y+043190
X+049865Y+044405
X+048098Y+044690
X+048423Y+045836
X+047566Y+041691
X+049589Y+038690
X+045838Y+037991
X+045629Y+032942
X+046940Y+031940
X+046940Y+031440
X+046940Y+030940
X+046940Y+030440
X+046940Y+029940
X+046940Y+029440
X+046940Y+028940
X+046940Y+028440
X+046940Y+027940
X+046940Y+027440
X+046940Y+026940
X+046940Y+026440
X+046940Y+025940
X+046940Y+025440
X+046940Y+024940
X+047566Y+025691
X+048815Y+027190
X+049191Y+027191
X+049565Y+027190
X+049865Y+028405
X+048098Y+028690
X+048423Y+029836
X+048315Y+033065
X+049913Y+033889
X+051735Y+033905
X+051731Y+033259
X+053440Y+031940
X+053440Y+031440
X+053440Y+030940
X+053440Y+030440
X+053440Y+029940
X+053440Y+029440
X+053440Y+028940
X+053440Y+028440
X+053440Y+027940
X+053440Y+027440
X+053440Y+026940
X+053440Y+026440
X+053440Y+025940
X+053440Y+025440
X+053440Y+024940
X+049815Y+025440
X+049589Y+022690
X+045838Y+021991
X+045854Y+024090
X+045315Y+025315
X+044950Y+025307
X+044628Y+025315
X+045629Y+016942
X+046940Y+015940
X+046940Y+015440
X+046940Y+014940
X+046940Y+014440
X+046940Y+013940
X+046940Y+013440
X+046940Y+012940
X+046940Y+012440
X+046940Y+011940
X+046940Y+011440
X+046940Y+010940
X+046940Y+010440
X+046940Y+009940
X+046940Y+009440
X+046940Y+008940
X+047566Y+009691
X+048815Y+011190
X+049191Y+011191
X+049565Y+011190
X+049865Y+012405
X+048098Y+012690
X+048423Y+013836
X+048315Y+017065
X+049913Y+017889
X+051735Y+017905
X+051731Y+017259
X+053440Y+015940
X+053440Y+015440
X+053440Y+014940
X+053440Y+014440
X+053440Y+013940
X+053440Y+013440
X+053440Y+012940
X+053440Y+012440
X+053440Y+011940
X+053440Y+011440
X+053440Y+010940
X+053440Y+010440
X+053440Y+009940
X+053440Y+009440
X+053440Y+008940
X+049815Y+009440
X+049589Y+006690
X+045838Y+005991
X+045854Y+008090
X+045315Y+009315
X+044950Y+009307
X+044628Y+009315
X+052779Y+012639
X+052899Y+015441
X+055130Y+016817
X+056436Y+015972
X+055442Y+013879
X+058003Y+011441
X+058505Y+010253
X+057380Y+010253
X+059440Y+011443
X+060987Y+013692
X+062130Y+013267
X+064381Y+011816
X+064381Y+010753
X+064190Y+008940
X+063190Y+007440
X+061815Y+007940
X+061003Y+008440
X+065628Y+014315
X+066297Y+014954
X+068381Y+013754
X+068381Y+013254
X+069256Y+013504
X+069256Y+014004
X+069256Y+014504
X+069819Y+014504
X+069819Y+014004
X+069819Y+013504
X+069819Y+013004
X+069819Y+012504
X+069256Y+012504
X+069256Y+013004
X+062130Y+016879
X+063190Y+023440
X+061815Y+023940
X+061003Y+024440
X+058505Y+026253
X+057380Y+026253
X+058003Y+027441
X+059440Y+027443
X+060987Y+029692
X+062130Y+029267
X+064381Y+027816
X+064381Y+026753
X+064190Y+024940
X+065628Y+030315
X+066297Y+030954
X+068381Y+029754
X+068381Y+029254
X+069256Y+029504
X+069256Y+030004
X+069256Y+030504
X+069819Y+030504
X+069819Y+030004
X+069819Y+029504
X+069819Y+029004
X+069819Y+028504
X+069256Y+028504
X+069256Y+029004
X+062130Y+032879
X+056436Y+031972
X+055130Y+032817
X+052899Y+031441
X+052779Y+028639
X+055442Y+029879
X+061815Y+039940
X+061003Y+040440
X+063190Y+039440
X+064190Y+040940
X+064381Y+042753
X+064381Y+043816
X+062130Y+045267
X+060987Y+045692
X+059440Y+043443
X+058003Y+043441
X+058505Y+042253
X+057380Y+042253
X+055442Y+045879
X+056436Y+047972
X+055130Y+048817
X+052899Y+047441
X+052779Y+044639
X+062130Y+048879
X+065628Y+046315
X+066297Y+046954
X+068381Y+045754
X+068381Y+045254
X+069256Y+045504
X+069256Y+045004
X+069256Y+044504
X+069819Y+044504
X+069819Y+045004
X+069819Y+045504
X+069819Y+046004
X+069819Y+046504
X+069256Y+046504
X+069256Y+046004
X+063190Y+055440
X+061815Y+055940
X+061003Y+056440
X+058505Y+058253
X+057380Y+058253
X+058003Y+059441
X+059440Y+059443
X+060987Y+061692
X+062130Y+061267
X+064381Y+059816
X+064381Y+058753
X+064190Y+056940
X+065628Y+062315
X+066297Y+062954
X+068381Y+061754
X+068381Y+061254
X+069256Y+061504
X+069256Y+062004
X+069256Y+062504
X+069819Y+062504
X+069819Y+062004
X+069819Y+061504
X+069819Y+061004
X+069819Y+060504
X+069256Y+060504
X+069256Y+061004
X+062130Y+064879
X+056436Y+063972
X+055130Y+064817
X+053440Y+063940
X+053440Y+063440
X+053440Y+062940
X+053440Y+062440
X+053440Y+061940
X+053440Y+061440
X+053440Y+060940
X+053440Y+060440
X+053440Y+059940
X+053440Y+059440
X+053440Y+058940
X+053440Y+058440
X+053440Y+057940
X+053440Y+057440
X+053440Y+056940
X+049815Y+057440
X+049565Y+059190
X+049191Y+059191
X+048815Y+059190
X+049865Y+060405
X+048098Y+060690
X+046940Y+060940
X+046940Y+061440
X+046940Y+061940
X+046940Y+062440
X+046940Y+062940
X+046940Y+063440
X+046940Y+063940
X+045629Y+064942
X+048315Y+065065
X+049913Y+065889
X+051735Y+065905
X+051731Y+065259
X+052899Y+063441
X+052779Y+060639
X+055442Y+061879
X+048423Y+061836
X+046940Y+060440
X+046940Y+059940
X+046940Y+059440
X+046940Y+058940
X+046940Y+058440
X+046940Y+057940
X+046940Y+057440
X+046940Y+056940
X+047566Y+057691
X+045315Y+057315
X+044950Y+057307
X+044628Y+057315
X+045854Y+056090
X+045838Y+053991
X+049589Y+054690
X+032819Y+014504
X+032819Y+014004
X+032819Y+013504
X+032819Y+013004
X+032819Y+012504
X+032256Y+012504
X+032256Y+013004
X+032256Y+013504
X+032256Y+014004
X+032256Y+014504
X+031381Y+013754
X+031381Y+013254
X+029297Y+014954
X+028628Y+014315
X+027381Y+011816
X+027381Y+010753
X+027190Y+008940
X+026190Y+007440
X+024815Y+007940
X+024003Y+008440
X+021505Y+010253
X+020380Y+010253
X+021003Y+011441
X+022440Y+011443
X+023987Y+013692
X+025130Y+013267
X+025130Y+016879
X+019436Y+015972
X+018130Y+016817
X+015899Y+015441
X+015779Y+012639
X+018442Y+013879
T02
X+036940Y+017940
X+035940Y+017940
X+035940Y+016940
X+035940Y+015940
X+036940Y+015940
X+036940Y+016940
X+037940Y+016940
X+037940Y+015940
X+037940Y+014940
X+037940Y+013940
X+037940Y+012940
X+038940Y+012940
X+038940Y+013940
X+038940Y+014940
X+038940Y+015940
X+038940Y+016940
X+036940Y+014940
X+036940Y+013940
X+036940Y+012940
X+035940Y+012940
X+034940Y+012940
X+034940Y+011940
X+035940Y+011940
X+035940Y+010940
X+034940Y+010940
X+034940Y+009940
X+035940Y+009940
X+035940Y+008940
X+034940Y+008940
X+034940Y+007940
X+035940Y+007940
X+035940Y+006940
X+034940Y+006940
X+036940Y+006940
X+036940Y+007940
X+036940Y+008940
X+037940Y+008940
X+037940Y+009940
X+037940Y+010940
X+036940Y+010940
X+036940Y+011940
X+036940Y+009940
X+038940Y+009940
X+038940Y+008940
X+038940Y+007940
X+038940Y+006940
X+037940Y+006940
X+037940Y+007940
X+038940Y+010940
X+035940Y+013940
X+034940Y+013940
X+035940Y+014940
X+033940Y+016940
X+033940Y+017940
X+034940Y+022940
X+035940Y+022940
X+035940Y+023940
X+034940Y+023940
X+034940Y+024940
X+035940Y+024940
X+035940Y+025940
X+034940Y+025940
X+034940Y+026940
X+035940Y+026940
X+035940Y+027940
X+034940Y+027940
X+034940Y+028940
X+035940Y+028940
X+035940Y+029940
X+034940Y+029940
X+035940Y+030940
X+035940Y+031940
X+035940Y+032940
X+035940Y+033940
X+036940Y+033940
X+036940Y+032940
X+036940Y+031940
X+036940Y+030940
X+036940Y+029940
X+036940Y+028940
X+036940Y+027940
X+036940Y+026940
X+036940Y+025940
X+036940Y+024940
X+036940Y+023940
X+036940Y+022940
X+037940Y+022940
X+038940Y+022940
X+038940Y+023940
X+037940Y+023940
X+037940Y+024940
X+038940Y+024940
X+038940Y+025940
X+037940Y+025940
X+037940Y+026940
X+038940Y+026940
X+038940Y+028940
X+037940Y+028940
X+037940Y+029940
X+038940Y+029940
X+038940Y+030940
X+037940Y+030940
X+037940Y+031940
X+038940Y+031940
X+038940Y+032940
X+037940Y+032940
X+033940Y+032940
X+033940Y+033940
X+034940Y+038940
X+035940Y+038940
X+035940Y+039940
X+034940Y+039940
X+034940Y+040940
X+035940Y+040940
X+035940Y+041940
X+034940Y+041940
X+034940Y+042940
X+035940Y+042940
X+035940Y+043940
X+034940Y+043940
X+034940Y+044940
X+035940Y+044940
X+035940Y+045940
X+034940Y+045940
X+035940Y+046940
X+035940Y+047940
X+035940Y+048940
X+035940Y+049940
X+036940Y+049940
X+036940Y+048940
X+036940Y+047940
X+036940Y+046940
X+036940Y+045940
X+036940Y+044940
X+036940Y+043940
X+036940Y+042940
X+036940Y+041940
X+036940Y+040940
X+036940Y+039940
X+036940Y+038940
X+037940Y+038940
X+038940Y+038940
X+038940Y+039940
X+037940Y+039940
X+037940Y+040940
X+037940Y+041940
X+038940Y+041940
X+038940Y+040940
X+038940Y+042940
X+037940Y+042940
X+037940Y+044940
X+038940Y+044940
X+038940Y+045940
X+037940Y+045940
X+037940Y+046940
X+038940Y+046940
X+038940Y+047940
X+037940Y+047940
X+037940Y+048940
X+038940Y+048940
X+033940Y+048940
X+033940Y+049940
X+034940Y+054940
X+035940Y+054940
X+035940Y+055940
X+034940Y+055940
X+034940Y+056940
X+035940Y+056940
X+035940Y+057940
X+034940Y+057940
X+034940Y+058940
X+035940Y+058940
X+035940Y+059940
X+034940Y+059940
X+034940Y+060940
X+035940Y+060940
X+035940Y+061940
X+035940Y+062940
X+035940Y+063940
X+035940Y+064940
X+035940Y+065940
X+036940Y+065940
X+036940Y+064940
X+036940Y+063940
X+036940Y+062940
X+036940Y+061940
X+036940Y+060940
X+036940Y+059940
X+036940Y+058940
X+036940Y+057940
X+036940Y+056940
X+036940Y+055940
X+036940Y+054940
X+037940Y+054940
X+038940Y+054940
X+038940Y+055940
X+037940Y+055940
X+037940Y+056940
X+038940Y+056940
X+038940Y+057940
X+037940Y+057940
X+037940Y+058940
X+038940Y+058940
X+038940Y+060940
X+037940Y+060940
X+037940Y+061940
X+038940Y+061940
X+038940Y+062940
X+037940Y+062940
X+037940Y+063940
X+038940Y+063940
X+038940Y+064940
X+037940Y+064940
X+033940Y+064940
X+033940Y+065940
X+034940Y+061940
X+029940Y+061940
X+029940Y+060940
X+029940Y+059940
X+029940Y+058940
X+029940Y+057940
X+029940Y+056940
X+029940Y+055940
X+029940Y+054940
X+028318Y+056941
X+028318Y+057941
X+028318Y+058941
X+028318Y+059941
X+026224Y+061036
X+026224Y+062036
X+026224Y+063036
X+028565Y+064940
X+028565Y+065940
X+017489Y+063040
X+017489Y+062040
X+017489Y+061040
X+018940Y+053940
X+019940Y+053940
X+019940Y+052940
X+018940Y+052940
X+017940Y+052940
X+016940Y+052940
X+015940Y+052940
X+014940Y+052940
X+013940Y+052940
X+012940Y+052940
X+011940Y+052940
X+010940Y+049940
X+009940Y+049940
X+008940Y+049940
X+017489Y+047040
X+017489Y+046040
X+017489Y+045040
X+018940Y+037940
X+019940Y+037940
X+019940Y+036940
X+018940Y+036940
X+017940Y+036940
X+016940Y+036940
X+015940Y+036940
X+014940Y+036940
X+013940Y+036940
X+012940Y+036940
X+011940Y+036940
X+010940Y+033940
X+009940Y+033940
X+008940Y+033940
X+017489Y+031040
X+017489Y+030040
X+017489Y+029040
X+018940Y+021940
X+019940Y+021940
X+019940Y+020940
X+018940Y+020940
X+017940Y+020940
X+016940Y+020940
X+015940Y+020940
X+014940Y+020940
X+013940Y+020940
X+012940Y+020940
X+011940Y+020940
X+010940Y+017940
X+009940Y+017940
X+008940Y+017940
X+017489Y+015040
X+017489Y+014040
X+017489Y+013040
X+018940Y+005940
X+018940Y+004940
X+019940Y+004940
X+019940Y+005940
X+020940Y+004940
X+021940Y+004940
X+022940Y+004940
X+023940Y+004940
X+023940Y+005940
X+024940Y+005940
X+024940Y+004940
X+025940Y+004940
X+025940Y+005940
X+026940Y+005940
X+029940Y+006940
X+029940Y+007940
X+029940Y+008940
X+029940Y+009940
X+029940Y+010940
X+029940Y+011940
X+029940Y+012940
X+029940Y+013940
X+028318Y+011941
X+028318Y+010941
X+028318Y+009941
X+028318Y+008941
X+026224Y+013036
X+026224Y+014036
X+026224Y+015036
X+028565Y+016940
X+028565Y+017940
X+025940Y+020940
X+025940Y+021940
X+026940Y+021940
X+024940Y+021940
X+023940Y+021940
X+023940Y+020940
X+022940Y+020940
X+021940Y+020940
X+020940Y+020940
X+021440Y+021940
X+022440Y+021940
X+024940Y+020940
X+028318Y+024941
X+028318Y+025941
X+028318Y+026941
X+028318Y+027941
X+029940Y+027940
X+029940Y+026940
X+029940Y+025940
X+029940Y+024940
X+029940Y+023940
X+029940Y+022940
X+029940Y+028940
X+029940Y+029940
X+028565Y+032940
X+028565Y+033940
X+026224Y+031036
X+026224Y+030036
X+026224Y+029036
X+025940Y+036940
X+025940Y+037940
X+024940Y+037940
X+023940Y+037940
X+023940Y+036940
X+022940Y+036940
X+021940Y+036940
X+020940Y+036940
X+021440Y+037940
X+022440Y+037940
X+024940Y+036940
X+026940Y+037940
X+029940Y+038940
X+029940Y+039940
X+029940Y+040940
X+029940Y+041940
X+029940Y+042940
X+029940Y+043940
X+029940Y+044940
X+029940Y+045940
X+028318Y+043941
X+028318Y+042941
X+028318Y+041941
X+028318Y+040941
X+026224Y+045036
X+026224Y+046036
X+026224Y+047036
X+028565Y+048940
X+028565Y+049940
X+025940Y+052940
X+025940Y+053940
X+024940Y+053940
X+023940Y+053940
X+023940Y+052940
X+022940Y+052940
X+021940Y+052940
X+020940Y+052940
X+021440Y+053940
X+022440Y+053940
X+024940Y+052940
X+026940Y+053940
X+045940Y+049940
X+046940Y+049940
X+047940Y+049940
X+048940Y+052940
X+049940Y+052940
X+050940Y+052940
X+051940Y+052940
X+052940Y+052940
X+053940Y+052940
X+054940Y+052940
X+055940Y+052940
X+055940Y+053940
X+056940Y+053940
X+056940Y+052940
X+057940Y+052940
X+058940Y+052940
X+059940Y+052940
X+060940Y+052940
X+060940Y+053940
X+061940Y+053940
X+062940Y+053940
X+063940Y+053940
X+062940Y+052940
X+061940Y+052940
X+059440Y+053940
X+058440Y+053940
X+065318Y+056941
X+065318Y+057941
X+065318Y+058941
X+065318Y+059941
X+066940Y+059940
X+066940Y+058940
X+066940Y+057940
X+066940Y+056940
X+066940Y+055940
X+066940Y+054940
X+071940Y+054940
X+072940Y+054940
X+072940Y+055940
X+072940Y+056940
X+072940Y+057940
X+072940Y+058940
X+072940Y+059940
X+072940Y+060940
X+072940Y+061940
X+072940Y+062940
X+072940Y+063940
X+072940Y+064940
X+072940Y+065940
X+073940Y+065940
X+073940Y+064940
X+073940Y+063940
X+073940Y+062940
X+073940Y+061940
X+073940Y+060940
X+073940Y+059940
X+073940Y+058940
X+073940Y+057940
X+073940Y+056940
X+073940Y+055940
X+073940Y+054940
X+074940Y+054940
X+075940Y+054940
X+075940Y+055940
X+074940Y+055940
X+074940Y+056940
X+075940Y+056940
X+075940Y+057940
X+074940Y+057940
X+074940Y+058940
X+075940Y+058940
X+075940Y+060940
X+074940Y+060940
X+074940Y+061940
X+075940Y+061940
X+075940Y+062940
X+074940Y+062940
X+074940Y+063940
X+075940Y+063940
X+075940Y+064940
X+074940Y+064940
X+070940Y+064940
X+070940Y+065940
X+071940Y+061940
X+071940Y+060940
X+071940Y+059940
X+071940Y+058940
X+071940Y+057940
X+071940Y+056940
X+071940Y+055940
X+070940Y+049940
X+070940Y+048940
X+072940Y+048940
X+072940Y+049940
X+073940Y+049940
X+073940Y+048940
X+073940Y+047940
X+072940Y+047940
X+072940Y+046940
X+073940Y+046940
X+073940Y+045940
X+072940Y+045940
X+072940Y+044940
X+073940Y+044940
X+073940Y+043940
X+073940Y+042940
X+072940Y+042940
X+072940Y+043940
X+071940Y+043940
X+071940Y+042940
X+071940Y+041940
X+071940Y+040940
X+072940Y+040940
X+072940Y+041940
X+073940Y+041940
X+073940Y+040940
X+073940Y+039940
X+072940Y+039940
X+072940Y+038940
X+073940Y+038940
X+074940Y+038940
X+075940Y+038940
X+075940Y+039940
X+074940Y+039940
X+074940Y+040940
X+074940Y+041940
X+075940Y+041940
X+075940Y+040940
X+075940Y+042940
X+074940Y+042940
X+074940Y+044940
X+075940Y+044940
X+075940Y+045940
X+074940Y+045940
X+074940Y+046940
X+075940Y+046940
X+075940Y+047940
X+074940Y+047940
X+074940Y+048940
X+075940Y+048940
X+071940Y+045940
X+071940Y+044940
X+071940Y+039940
X+071940Y+038940
X+066940Y+038940
X+066940Y+039940
X+066940Y+040940
X+066940Y+041940
X+066940Y+042940
X+066940Y+043940
X+066940Y+044940
X+066940Y+045940
X+065318Y+043941
X+065318Y+042941
X+065318Y+041941
X+065318Y+040941
X+063940Y+037940
X+062940Y+037940
X+061940Y+037940
X+060940Y+037940
X+060940Y+036940
X+059940Y+036940
X+058940Y+036940
X+057940Y+036940
X+056940Y+036940
X+056940Y+037940
X+055940Y+037940
X+055940Y+036940
X+054940Y+036940
X+053940Y+036940
X+052940Y+036940
X+051940Y+036940
X+050940Y+036940
X+049940Y+036940
X+048940Y+036940
X+047940Y+033940
X+046940Y+033940
X+045940Y+033940
X+054489Y+031040
X+054489Y+030040
X+054489Y+029040
X+055940Y+021940
X+056940Y+021940
X+056940Y+020940
X+055940Y+020940
X+054940Y+020940
X+053940Y+020940
X+052940Y+020940
X+051940Y+020940
X+050940Y+020940
X+049940Y+020940
X+048940Y+020940
X+047940Y+017940
X+046940Y+017940
X+045940Y+017940
X+054489Y+015040
X+054489Y+014040
X+054489Y+013040
X+055940Y+005940
X+055940Y+004940
X+054940Y+004940
X+053940Y+004940
X+052940Y+004940
X+051940Y+004940
X+050940Y+004940
X+049940Y+004940
X+048940Y+004940
X+056940Y+004940
X+056940Y+005940
X+057940Y+004940
X+058940Y+004940
X+059940Y+004940
X+060940Y+004940
X+060940Y+005940
X+061940Y+005940
X+061940Y+004940
X+062940Y+004940
X+062940Y+005940
X+063940Y+005940
X+066940Y+006940
X+066940Y+007940
X+066940Y+008940
X+066940Y+009940
X+066940Y+010940
X+066940Y+011940
X+066940Y+012940
X+066940Y+013940
X+065318Y+011941
X+065318Y+010941
X+065318Y+009941
X+065318Y+008941
X+063224Y+013036
X+063224Y+014036
X+063224Y+015036
X+065565Y+016940
X+065565Y+017940
X+062940Y+020940
X+062940Y+021940
X+061940Y+021940
X+060940Y+021940
X+060940Y+020940
X+059940Y+020940
X+058940Y+020940
X+057940Y+020940
X+058440Y+021940
X+059440Y+021940
X+061940Y+020940
X+063940Y+021940
X+066940Y+022940
X+066940Y+023940
X+066940Y+024940
X+066940Y+025940
X+066940Y+026940
X+066940Y+027940
X+066940Y+028940
X+066940Y+029940
X+065318Y+027941
X+065318Y+026941
X+065318Y+025941
X+065318Y+024941
X+063224Y+029036
X+063224Y+030036
X+063224Y+031036
X+065565Y+032940
X+065565Y+033940
X+062940Y+036940
X+061940Y+036940
X+059440Y+037940
X+058440Y+037940
X+054489Y+045040
X+054489Y+046040
X+054489Y+047040
X+063224Y+047036
X+063224Y+046036
X+063224Y+045036
X+065565Y+048940
X+065565Y+049940
X+066940Y+060940
X+066940Y+061940
X+065565Y+064940
X+065565Y+065940
X+063224Y+063036
X+063224Y+062036
X+063224Y+061036
X+054489Y+061040
X+054489Y+062040
X+054489Y+063040
X+047940Y+065940
X+046940Y+065940
X+045940Y+065940
X+010940Y+065940
X+009940Y+065940
X+008940Y+065940
X+011940Y+004940
X+012940Y+004940
X+013940Y+004940
X+014940Y+004940
X+015940Y+004940
X+016940Y+004940
X+017940Y+004940
X+021440Y+005940
X+022440Y+005940
X+058440Y+005940
X+059440Y+005940
X+071940Y+006940
X+071940Y+007940
X+071940Y+008940
X+071940Y+009940
X+071940Y+010940
X+071940Y+011940
X+071940Y+012940
X+072940Y+012940
X+072940Y+013940
X+072940Y+014940
X+073940Y+014940
X+073940Y+013940
X+074940Y+013940
X+074940Y+014940
X+074940Y+015940
X+074940Y+016940
X+075940Y+016940
X+075940Y+015940
X+075940Y+014940
X+075940Y+013940
X+075940Y+012940
X+074940Y+012940
X+073940Y+012940
X+073940Y+011940
X+073940Y+010940
X+073940Y+009940
X+073940Y+008940
X+073940Y+007940
X+073940Y+006940
X+072940Y+006940
X+072940Y+007940
X+072940Y+008940
X+072940Y+009940
X+072940Y+010940
X+072940Y+011940
X+071940Y+013940
X+072940Y+015940
X+072940Y+016940
X+073940Y+016940
X+073940Y+015940
X+073940Y+017940
X+072940Y+017940
X+070940Y+017940
X+070940Y+016940
X+071940Y+022940
X+072940Y+022940
X+073940Y+022940
X+073940Y+023940
X+073940Y+024940
X+074940Y+024940
X+074940Y+023940
X+075940Y+023940
X+075940Y+022940
X+074940Y+022940
X+075940Y+024940
X+075940Y+025940
X+075940Y+026940
X+074940Y+026940
X+073940Y+026940
X+073940Y+027940
X+072940Y+027940
X+071940Y+027940
X+071940Y+026940
X+071940Y+025940
X+071940Y+024940
X+071940Y+023940
X+072940Y+023940
X+072940Y+024940
X+072940Y+025940
X+072940Y+026940
X+073940Y+025940
X+074940Y+025940
X+074940Y+028940
X+074940Y+029940
X+075940Y+029940
X+075940Y+028940
X+075940Y+030940
X+074940Y+030940
X+074940Y+031940
X+074940Y+032940
X+075940Y+032940
X+075940Y+031940
X+073940Y+031940
X+073940Y+032940
X+073940Y+033940
X+072940Y+033940
X+072940Y+032940
X+072940Y+031940
X+072940Y+030940
X+073940Y+030940
X+073940Y+029940
X+073940Y+028940
X+072940Y+028940
X+071940Y+028940
X+071940Y+029940
X+072940Y+029940
X+070940Y+032940
X+070940Y+033940
X+074940Y+010940
X+075940Y+010940
X+075940Y+009940
X+075940Y+008940
X+075940Y+007940
X+075940Y+006940
X+074940Y+006940
X+074940Y+007940
X+074940Y+008940
X+074940Y+009940
T00
M30
