G04 DipTrace 2.4.0.2*
%INTopMask.gbr*%
%MOIN*%
%ADD49R,0.0317X0.0868*%
%ADD51R,0.0927X0.136*%
%ADD53R,0.0927X0.0454*%
%ADD55R,0.0946X0.0671*%
%ADD57R,0.0238X0.0631*%
%ADD59R,0.0631X0.1261*%
%ADD61R,0.1261X0.0631*%
%ADD63R,0.0336X0.0494*%
%ADD65R,0.0494X0.0336*%
%ADD67C,0.075*%
%ADD69R,0.075X0.075*%
%ADD71R,0.0317X0.0317*%
%ADD73R,0.1025X0.1025*%
%ADD75R,0.1143X0.071*%
%ADD77R,0.0592X0.0671*%
%ADD79R,0.0513X0.0474*%
%ADD81R,0.071X0.1143*%
%ADD83R,0.0474X0.0513*%
%ADD85R,0.0671X0.0592*%
%FSLAX44Y44*%
G04*
G70*
G90*
G75*
G01*
%LNTopMask*%
%LPD*%
D85*
X5441Y10066D3*
Y9318D3*
D83*
X6879Y10378D3*
Y9709D3*
D81*
X7441Y14879D3*
X8543D3*
X7441Y16129D3*
X8543D3*
D79*
X8566Y6878D3*
X7897D3*
D83*
X6191Y8110D3*
Y8779D3*
X6878Y8128D3*
Y8797D3*
D85*
X12589Y8714D3*
Y7966D3*
D83*
X11940Y12878D3*
Y13547D3*
D77*
X15015Y10987D3*
X14267D3*
D81*
X11379Y15004D3*
X12481D3*
X11379Y16191D3*
X12481D3*
D85*
X15108Y11783D3*
Y12531D3*
D79*
X11065Y7378D3*
X11734D3*
X11754Y9191D3*
X11085D3*
D77*
X33752Y15378D3*
X33004D3*
D75*
X31378Y14513D3*
Y15615D3*
D83*
X32128Y11672D3*
Y11003D3*
X19538Y12129D3*
Y12798D3*
D85*
X24330Y9235D3*
Y9983D3*
X23432Y9251D3*
Y9999D3*
D83*
X23809Y12129D3*
Y12798D3*
X19380Y16817D3*
Y17486D3*
X23943Y16897D3*
Y17567D3*
D85*
X19447Y14566D3*
Y15314D3*
X23993Y14566D3*
Y15314D3*
X28940Y13190D3*
Y13938D3*
D75*
X28753Y6878D3*
Y7980D3*
X31128Y6878D3*
Y7980D3*
D73*
X5941Y16504D3*
Y14772D3*
X14515Y15338D3*
Y13606D3*
D71*
X10976Y12511D3*
Y11645D3*
D69*
X36940Y17940D3*
D67*
X35940D3*
X36940Y16940D3*
X35940D3*
X36940Y15940D3*
X35940D3*
X36940Y14940D3*
X35940D3*
X36940Y13940D3*
X35940D3*
X36940Y12940D3*
X35940D3*
X36940Y11940D3*
X35940D3*
X36940Y10940D3*
X35940D3*
X36940Y9940D3*
X35940D3*
X36940Y8940D3*
X35940D3*
X36940Y7940D3*
X35940D3*
X36940Y6940D3*
X35940D3*
D69*
X21440Y5940D3*
D67*
X22440D3*
D69*
X38940Y6940D3*
D67*
X37940D3*
X38940Y7940D3*
X37940D3*
X38940Y8940D3*
X37940D3*
X38940Y9940D3*
X37940D3*
X38940Y10940D3*
X37940D3*
D69*
X38940Y12940D3*
D67*
X37940D3*
X38940Y13940D3*
X37940D3*
X38940Y14940D3*
X37940D3*
X38940Y15940D3*
X37940D3*
X38940Y16940D3*
X37940D3*
D69*
X8940Y17940D3*
D67*
X9940D3*
X10940D3*
D69*
X17489Y13040D3*
D67*
Y14040D3*
Y15040D3*
D69*
X26224Y13036D3*
D67*
Y14036D3*
Y15036D3*
D69*
X33940Y16940D3*
D67*
Y17940D3*
D69*
X28565Y16940D3*
D67*
Y17940D3*
D69*
X28318Y8941D3*
D67*
Y9941D3*
Y10941D3*
Y11941D3*
D69*
X34940Y6940D3*
D67*
Y7940D3*
Y8940D3*
Y9940D3*
Y10940D3*
Y11940D3*
Y12940D3*
Y13940D3*
D69*
X29940Y6940D3*
D67*
Y7940D3*
Y8940D3*
Y9940D3*
Y10940D3*
Y11940D3*
Y12940D3*
Y13940D3*
D69*
X18940Y5940D3*
D67*
X19940D3*
D69*
X23940D3*
D67*
X24940D3*
X25940D3*
X26940D3*
D69*
X11940Y4940D3*
D67*
X12940D3*
X13940D3*
X14940D3*
X15940D3*
X16940D3*
X17940D3*
X18940D3*
X19940D3*
X20940D3*
X21940D3*
X22940D3*
X23940D3*
X24940D3*
X25940D3*
D65*
X30279Y18035D3*
Y17287D3*
X31184Y17661D3*
D63*
X15940Y5940D3*
X16688D3*
X16314Y6846D3*
D79*
X8566Y7503D3*
X7897D3*
X6191Y6860D3*
X6860D3*
X6879Y7485D3*
X6209D3*
D83*
X6191Y9691D3*
Y10360D3*
X12449Y13547D3*
Y12878D3*
X10980Y11058D3*
Y10389D3*
D79*
X11065Y8628D3*
X11734D3*
D83*
X31378Y11628D3*
Y12297D3*
X33003Y11021D3*
Y11690D3*
X29609Y18035D3*
Y17365D3*
D79*
Y16578D3*
X30279D3*
D83*
X34940Y15128D3*
Y15797D3*
D79*
X22065Y8503D3*
X21396D3*
X22690D3*
X23359D3*
D83*
X26693Y10066D3*
Y10735D3*
Y8691D3*
Y9360D3*
X20636Y12129D3*
Y12798D3*
X20101Y12129D3*
Y12798D3*
X18976Y12804D3*
Y12135D3*
X22736Y12129D3*
Y12798D3*
X23278Y12129D3*
Y12798D3*
X24348Y12808D3*
Y12139D3*
X20130Y17504D3*
Y16835D3*
X18692Y16817D3*
Y17486D3*
X23255Y17548D3*
Y16879D3*
X24630D3*
Y17548D3*
D79*
X17503Y7128D3*
X16833D3*
X32940Y6940D3*
X33609D3*
D83*
X21200Y12129D3*
Y12798D3*
X22192Y12129D3*
Y12798D3*
X11003Y13065D3*
Y13734D3*
X5503Y7503D3*
Y8172D3*
D79*
X11065Y8003D3*
X11734D3*
X33503D3*
X32833D3*
X33503Y8940D3*
X32833D3*
X33503Y9940D3*
X32833D3*
X10078Y6007D3*
X9409D3*
X14964Y6818D3*
X14294D3*
X14153Y17243D3*
X13483D3*
X13487Y17889D3*
X14157D3*
D83*
X29999Y15064D3*
Y15733D3*
X14431Y11794D3*
Y12463D3*
D61*
X8007Y12263D3*
Y12972D3*
X6078D3*
Y12263D3*
D59*
X15003Y9846D3*
X14294D3*
Y7917D3*
X15003D3*
D57*
X7566Y8441D3*
X7822D3*
X8078D3*
X8334D3*
Y10173D3*
X8078D3*
X7822D3*
X7566D3*
D55*
X7950Y9307D3*
D57*
X11817Y10316D3*
X12072D3*
X12328D3*
X12584D3*
Y12048D3*
X12328D3*
X12072D3*
X11817D3*
D55*
X12200Y11182D3*
D53*
X33690Y12565D3*
Y13471D3*
Y14376D3*
D51*
X31407Y13471D3*
D57*
X25193Y8628D3*
X25449D3*
X25705D3*
X25961D3*
Y10360D3*
X25705D3*
X25449D3*
X25193D3*
D65*
X22505Y9253D3*
Y10001D3*
X21600Y9627D3*
D49*
X20192Y13879D3*
X20692D3*
X21192D3*
X21692D3*
X22192D3*
X22692D3*
X23192D3*
Y16005D3*
X22692D3*
X22192D3*
X21692D3*
X21192D3*
X20692D3*
X20192D3*
D85*
X42441Y10066D3*
Y9318D3*
D83*
X43879Y10378D3*
Y9709D3*
D81*
X44441Y14879D3*
X45543D3*
X44441Y16129D3*
X45543D3*
D79*
X45566Y6878D3*
X44897D3*
D83*
X43191Y8110D3*
Y8779D3*
X43878Y8128D3*
Y8797D3*
D85*
X49589Y8714D3*
Y7966D3*
D83*
X48940Y12878D3*
Y13547D3*
D77*
X52015Y10987D3*
X51267D3*
D81*
X48379Y15004D3*
X49481D3*
X48379Y16191D3*
X49481D3*
D85*
X52108Y11783D3*
Y12531D3*
D79*
X48065Y7378D3*
X48734D3*
X48754Y9191D3*
X48085D3*
D77*
X70752Y15378D3*
X70004D3*
D75*
X68378Y14513D3*
Y15615D3*
D83*
X69128Y11672D3*
Y11003D3*
X56538Y12129D3*
Y12798D3*
D85*
X61330Y9235D3*
Y9983D3*
X60432Y9251D3*
Y9999D3*
D83*
X60809Y12129D3*
Y12798D3*
X56380Y16817D3*
Y17486D3*
X60943Y16897D3*
Y17567D3*
D85*
X56447Y14566D3*
Y15314D3*
X60993Y14566D3*
Y15314D3*
X65940Y13190D3*
Y13938D3*
D75*
X65753Y6878D3*
Y7980D3*
X68128Y6878D3*
Y7980D3*
D73*
X42941Y16504D3*
Y14772D3*
X51515Y15338D3*
Y13606D3*
D71*
X47976Y12511D3*
Y11645D3*
D69*
X73940Y17940D3*
D67*
X72940D3*
X73940Y16940D3*
X72940D3*
X73940Y15940D3*
X72940D3*
X73940Y14940D3*
X72940D3*
X73940Y13940D3*
X72940D3*
X73940Y12940D3*
X72940D3*
X73940Y11940D3*
X72940D3*
X73940Y10940D3*
X72940D3*
X73940Y9940D3*
X72940D3*
X73940Y8940D3*
X72940D3*
X73940Y7940D3*
X72940D3*
X73940Y6940D3*
X72940D3*
D69*
X58440Y5940D3*
D67*
X59440D3*
D69*
X75940Y6940D3*
D67*
X74940D3*
X75940Y7940D3*
X74940D3*
X75940Y8940D3*
X74940D3*
X75940Y9940D3*
X74940D3*
X75940Y10940D3*
X74940D3*
D69*
X75940Y12940D3*
D67*
X74940D3*
X75940Y13940D3*
X74940D3*
X75940Y14940D3*
X74940D3*
X75940Y15940D3*
X74940D3*
X75940Y16940D3*
X74940D3*
D69*
X45940Y17940D3*
D67*
X46940D3*
X47940D3*
D69*
X54489Y13040D3*
D67*
Y14040D3*
Y15040D3*
D69*
X63224Y13036D3*
D67*
Y14036D3*
Y15036D3*
D69*
X70940Y16940D3*
D67*
Y17940D3*
D69*
X65565Y16940D3*
D67*
Y17940D3*
D69*
X65318Y8941D3*
D67*
Y9941D3*
Y10941D3*
Y11941D3*
D69*
X71940Y6940D3*
D67*
Y7940D3*
Y8940D3*
Y9940D3*
Y10940D3*
Y11940D3*
Y12940D3*
Y13940D3*
D69*
X66940Y6940D3*
D67*
Y7940D3*
Y8940D3*
Y9940D3*
Y10940D3*
Y11940D3*
Y12940D3*
Y13940D3*
D69*
X55940Y5940D3*
D67*
X56940D3*
D69*
X60940D3*
D67*
X61940D3*
X62940D3*
X63940D3*
D69*
X48940Y4940D3*
D67*
X49940D3*
X50940D3*
X51940D3*
X52940D3*
X53940D3*
X54940D3*
X55940D3*
X56940D3*
X57940D3*
X58940D3*
X59940D3*
X60940D3*
X61940D3*
X62940D3*
D65*
X67279Y18035D3*
Y17287D3*
X68184Y17661D3*
D63*
X52940Y5940D3*
X53688D3*
X53314Y6846D3*
D79*
X45566Y7503D3*
X44897D3*
X43191Y6860D3*
X43860D3*
X43879Y7485D3*
X43209D3*
D83*
X43191Y9691D3*
Y10360D3*
X49449Y13547D3*
Y12878D3*
X47980Y11058D3*
Y10389D3*
D79*
X48065Y8628D3*
X48734D3*
D83*
X68378Y11628D3*
Y12297D3*
X70003Y11021D3*
Y11690D3*
X66609Y18035D3*
Y17365D3*
D79*
Y16578D3*
X67279D3*
D83*
X71940Y15128D3*
Y15797D3*
D79*
X59065Y8503D3*
X58396D3*
X59690D3*
X60359D3*
D83*
X63693Y10066D3*
Y10735D3*
Y8691D3*
Y9360D3*
X57636Y12129D3*
Y12798D3*
X57101Y12129D3*
Y12798D3*
X55976Y12804D3*
Y12135D3*
X59736Y12129D3*
Y12798D3*
X60278Y12129D3*
Y12798D3*
X61348Y12808D3*
Y12139D3*
X57130Y17504D3*
Y16835D3*
X55692Y16817D3*
Y17486D3*
X60255Y17548D3*
Y16879D3*
X61630D3*
Y17548D3*
D79*
X54503Y7128D3*
X53833D3*
X69940Y6940D3*
X70609D3*
D83*
X58200Y12129D3*
Y12798D3*
X59192Y12129D3*
Y12798D3*
X48003Y13065D3*
Y13734D3*
X42503Y7503D3*
Y8172D3*
D79*
X48065Y8003D3*
X48734D3*
X70503D3*
X69833D3*
X70503Y8940D3*
X69833D3*
X70503Y9940D3*
X69833D3*
X47078Y6007D3*
X46409D3*
X51964Y6818D3*
X51294D3*
X51153Y17243D3*
X50483D3*
X50487Y17889D3*
X51157D3*
D83*
X66999Y15064D3*
Y15733D3*
X51431Y11794D3*
Y12463D3*
D61*
X45007Y12263D3*
Y12972D3*
X43078D3*
Y12263D3*
D59*
X52003Y9846D3*
X51294D3*
Y7917D3*
X52003D3*
D57*
X44566Y8441D3*
X44822D3*
X45078D3*
X45334D3*
Y10173D3*
X45078D3*
X44822D3*
X44566D3*
D55*
X44950Y9307D3*
D57*
X48817Y10316D3*
X49072D3*
X49328D3*
X49584D3*
Y12048D3*
X49328D3*
X49072D3*
X48817D3*
D55*
X49200Y11182D3*
D53*
X70690Y12565D3*
Y13471D3*
Y14376D3*
D51*
X68407Y13471D3*
D57*
X62193Y8628D3*
X62449D3*
X62705D3*
X62961D3*
Y10360D3*
X62705D3*
X62449D3*
X62193D3*
D65*
X59505Y9253D3*
Y10001D3*
X58600Y9627D3*
D49*
X57192Y13879D3*
X57692D3*
X58192D3*
X58692D3*
X59192D3*
X59692D3*
X60192D3*
Y16005D3*
X59692D3*
X59192D3*
X58692D3*
X58192D3*
X57692D3*
X57192D3*
D85*
X5441Y26066D3*
Y25318D3*
D83*
X6879Y26378D3*
Y25709D3*
D81*
X7441Y30879D3*
X8543D3*
X7441Y32129D3*
X8543D3*
D79*
X8566Y22878D3*
X7897D3*
D83*
X6191Y24110D3*
Y24779D3*
X6878Y24128D3*
Y24797D3*
D85*
X12589Y24714D3*
Y23966D3*
D83*
X11940Y28878D3*
Y29547D3*
D77*
X15015Y26987D3*
X14267D3*
D81*
X11379Y31004D3*
X12481D3*
X11379Y32191D3*
X12481D3*
D85*
X15108Y27783D3*
Y28531D3*
D79*
X11065Y23378D3*
X11734D3*
X11754Y25191D3*
X11085D3*
D77*
X33752Y31378D3*
X33004D3*
D75*
X31378Y30513D3*
Y31615D3*
D83*
X32128Y27672D3*
Y27003D3*
X19538Y28129D3*
Y28798D3*
D85*
X24330Y25235D3*
Y25983D3*
X23432Y25251D3*
Y25999D3*
D83*
X23809Y28129D3*
Y28798D3*
X19380Y32817D3*
Y33486D3*
X23943Y32897D3*
Y33567D3*
D85*
X19447Y30566D3*
Y31314D3*
X23993Y30566D3*
Y31314D3*
X28940Y29190D3*
Y29938D3*
D75*
X28753Y22878D3*
Y23980D3*
X31128Y22878D3*
Y23980D3*
D73*
X5941Y32504D3*
Y30772D3*
X14515Y31338D3*
Y29606D3*
D71*
X10976Y28511D3*
Y27645D3*
D69*
X36940Y33940D3*
D67*
X35940D3*
X36940Y32940D3*
X35940D3*
X36940Y31940D3*
X35940D3*
X36940Y30940D3*
X35940D3*
X36940Y29940D3*
X35940D3*
X36940Y28940D3*
X35940D3*
X36940Y27940D3*
X35940D3*
X36940Y26940D3*
X35940D3*
X36940Y25940D3*
X35940D3*
X36940Y24940D3*
X35940D3*
X36940Y23940D3*
X35940D3*
X36940Y22940D3*
X35940D3*
D69*
X21440Y21940D3*
D67*
X22440D3*
D69*
X38940Y22940D3*
D67*
X37940D3*
X38940Y23940D3*
X37940D3*
X38940Y24940D3*
X37940D3*
X38940Y25940D3*
X37940D3*
X38940Y26940D3*
X37940D3*
D69*
X38940Y28940D3*
D67*
X37940D3*
X38940Y29940D3*
X37940D3*
X38940Y30940D3*
X37940D3*
X38940Y31940D3*
X37940D3*
X38940Y32940D3*
X37940D3*
D69*
X8940Y33940D3*
D67*
X9940D3*
X10940D3*
D69*
X17489Y29040D3*
D67*
Y30040D3*
Y31040D3*
D69*
X26224Y29036D3*
D67*
Y30036D3*
Y31036D3*
D69*
X33940Y32940D3*
D67*
Y33940D3*
D69*
X28565Y32940D3*
D67*
Y33940D3*
D69*
X28318Y24941D3*
D67*
Y25941D3*
Y26941D3*
Y27941D3*
D69*
X34940Y22940D3*
D67*
Y23940D3*
Y24940D3*
Y25940D3*
Y26940D3*
Y27940D3*
Y28940D3*
Y29940D3*
D69*
X29940Y22940D3*
D67*
Y23940D3*
Y24940D3*
Y25940D3*
Y26940D3*
Y27940D3*
Y28940D3*
Y29940D3*
D69*
X18940Y21940D3*
D67*
X19940D3*
D69*
X23940D3*
D67*
X24940D3*
X25940D3*
X26940D3*
D69*
X11940Y20940D3*
D67*
X12940D3*
X13940D3*
X14940D3*
X15940D3*
X16940D3*
X17940D3*
X18940D3*
X19940D3*
X20940D3*
X21940D3*
X22940D3*
X23940D3*
X24940D3*
X25940D3*
D65*
X30279Y34035D3*
Y33287D3*
X31184Y33661D3*
D63*
X15940Y21940D3*
X16688D3*
X16314Y22846D3*
D79*
X8566Y23503D3*
X7897D3*
X6191Y22860D3*
X6860D3*
X6879Y23485D3*
X6209D3*
D83*
X6191Y25691D3*
Y26360D3*
X12449Y29547D3*
Y28878D3*
X10980Y27058D3*
Y26389D3*
D79*
X11065Y24628D3*
X11734D3*
D83*
X31378Y27628D3*
Y28297D3*
X33003Y27021D3*
Y27690D3*
X29609Y34035D3*
Y33365D3*
D79*
Y32578D3*
X30279D3*
D83*
X34940Y31128D3*
Y31797D3*
D79*
X22065Y24503D3*
X21396D3*
X22690D3*
X23359D3*
D83*
X26693Y26066D3*
Y26735D3*
Y24691D3*
Y25360D3*
X20636Y28129D3*
Y28798D3*
X20101Y28129D3*
Y28798D3*
X18976Y28804D3*
Y28135D3*
X22736Y28129D3*
Y28798D3*
X23278Y28129D3*
Y28798D3*
X24348Y28808D3*
Y28139D3*
X20130Y33504D3*
Y32835D3*
X18692Y32817D3*
Y33486D3*
X23255Y33548D3*
Y32879D3*
X24630D3*
Y33548D3*
D79*
X17503Y23128D3*
X16833D3*
X32940Y22940D3*
X33609D3*
D83*
X21200Y28129D3*
Y28798D3*
X22192Y28129D3*
Y28798D3*
X11003Y29065D3*
Y29734D3*
X5503Y23503D3*
Y24172D3*
D79*
X11065Y24003D3*
X11734D3*
X33503D3*
X32833D3*
X33503Y24940D3*
X32833D3*
X33503Y25940D3*
X32833D3*
X10078Y22007D3*
X9409D3*
X14964Y22818D3*
X14294D3*
X14153Y33243D3*
X13483D3*
X13487Y33889D3*
X14157D3*
D83*
X29999Y31064D3*
Y31733D3*
X14431Y27794D3*
Y28463D3*
D61*
X8007Y28263D3*
Y28972D3*
X6078D3*
Y28263D3*
D59*
X15003Y25846D3*
X14294D3*
Y23917D3*
X15003D3*
D57*
X7566Y24441D3*
X7822D3*
X8078D3*
X8334D3*
Y26173D3*
X8078D3*
X7822D3*
X7566D3*
D55*
X7950Y25307D3*
D57*
X11817Y26316D3*
X12072D3*
X12328D3*
X12584D3*
Y28048D3*
X12328D3*
X12072D3*
X11817D3*
D55*
X12200Y27182D3*
D53*
X33690Y28565D3*
Y29471D3*
Y30376D3*
D51*
X31407Y29471D3*
D57*
X25193Y24628D3*
X25449D3*
X25705D3*
X25961D3*
Y26360D3*
X25705D3*
X25449D3*
X25193D3*
D65*
X22505Y25253D3*
Y26001D3*
X21600Y25627D3*
D49*
X20192Y29879D3*
X20692D3*
X21192D3*
X21692D3*
X22192D3*
X22692D3*
X23192D3*
Y32005D3*
X22692D3*
X22192D3*
X21692D3*
X21192D3*
X20692D3*
X20192D3*
D85*
X42441Y26066D3*
Y25318D3*
D83*
X43879Y26378D3*
Y25709D3*
D81*
X44441Y30879D3*
X45543D3*
X44441Y32129D3*
X45543D3*
D79*
X45566Y22878D3*
X44897D3*
D83*
X43191Y24110D3*
Y24779D3*
X43878Y24128D3*
Y24797D3*
D85*
X49589Y24714D3*
Y23966D3*
D83*
X48940Y28878D3*
Y29547D3*
D77*
X52015Y26987D3*
X51267D3*
D81*
X48379Y31004D3*
X49481D3*
X48379Y32191D3*
X49481D3*
D85*
X52108Y27783D3*
Y28531D3*
D79*
X48065Y23378D3*
X48734D3*
X48754Y25191D3*
X48085D3*
D77*
X70752Y31378D3*
X70004D3*
D75*
X68378Y30513D3*
Y31615D3*
D83*
X69128Y27672D3*
Y27003D3*
X56538Y28129D3*
Y28798D3*
D85*
X61330Y25235D3*
Y25983D3*
X60432Y25251D3*
Y25999D3*
D83*
X60809Y28129D3*
Y28798D3*
X56380Y32817D3*
Y33486D3*
X60943Y32897D3*
Y33567D3*
D85*
X56447Y30566D3*
Y31314D3*
X60993Y30566D3*
Y31314D3*
X65940Y29190D3*
Y29938D3*
D75*
X65753Y22878D3*
Y23980D3*
X68128Y22878D3*
Y23980D3*
D73*
X42941Y32504D3*
Y30772D3*
X51515Y31338D3*
Y29606D3*
D71*
X47976Y28511D3*
Y27645D3*
D69*
X73940Y33940D3*
D67*
X72940D3*
X73940Y32940D3*
X72940D3*
X73940Y31940D3*
X72940D3*
X73940Y30940D3*
X72940D3*
X73940Y29940D3*
X72940D3*
X73940Y28940D3*
X72940D3*
X73940Y27940D3*
X72940D3*
X73940Y26940D3*
X72940D3*
X73940Y25940D3*
X72940D3*
X73940Y24940D3*
X72940D3*
X73940Y23940D3*
X72940D3*
X73940Y22940D3*
X72940D3*
D69*
X58440Y21940D3*
D67*
X59440D3*
D69*
X75940Y22940D3*
D67*
X74940D3*
X75940Y23940D3*
X74940D3*
X75940Y24940D3*
X74940D3*
X75940Y25940D3*
X74940D3*
X75940Y26940D3*
X74940D3*
D69*
X75940Y28940D3*
D67*
X74940D3*
X75940Y29940D3*
X74940D3*
X75940Y30940D3*
X74940D3*
X75940Y31940D3*
X74940D3*
X75940Y32940D3*
X74940D3*
D69*
X45940Y33940D3*
D67*
X46940D3*
X47940D3*
D69*
X54489Y29040D3*
D67*
Y30040D3*
Y31040D3*
D69*
X63224Y29036D3*
D67*
Y30036D3*
Y31036D3*
D69*
X70940Y32940D3*
D67*
Y33940D3*
D69*
X65565Y32940D3*
D67*
Y33940D3*
D69*
X65318Y24941D3*
D67*
Y25941D3*
Y26941D3*
Y27941D3*
D69*
X71940Y22940D3*
D67*
Y23940D3*
Y24940D3*
Y25940D3*
Y26940D3*
Y27940D3*
Y28940D3*
Y29940D3*
D69*
X66940Y22940D3*
D67*
Y23940D3*
Y24940D3*
Y25940D3*
Y26940D3*
Y27940D3*
Y28940D3*
Y29940D3*
D69*
X55940Y21940D3*
D67*
X56940D3*
D69*
X60940D3*
D67*
X61940D3*
X62940D3*
X63940D3*
D69*
X48940Y20940D3*
D67*
X49940D3*
X50940D3*
X51940D3*
X52940D3*
X53940D3*
X54940D3*
X55940D3*
X56940D3*
X57940D3*
X58940D3*
X59940D3*
X60940D3*
X61940D3*
X62940D3*
D65*
X67279Y34035D3*
Y33287D3*
X68184Y33661D3*
D63*
X52940Y21940D3*
X53688D3*
X53314Y22846D3*
D79*
X45566Y23503D3*
X44897D3*
X43191Y22860D3*
X43860D3*
X43879Y23485D3*
X43209D3*
D83*
X43191Y25691D3*
Y26360D3*
X49449Y29547D3*
Y28878D3*
X47980Y27058D3*
Y26389D3*
D79*
X48065Y24628D3*
X48734D3*
D83*
X68378Y27628D3*
Y28297D3*
X70003Y27021D3*
Y27690D3*
X66609Y34035D3*
Y33365D3*
D79*
Y32578D3*
X67279D3*
D83*
X71940Y31128D3*
Y31797D3*
D79*
X59065Y24503D3*
X58396D3*
X59690D3*
X60359D3*
D83*
X63693Y26066D3*
Y26735D3*
Y24691D3*
Y25360D3*
X57636Y28129D3*
Y28798D3*
X57101Y28129D3*
Y28798D3*
X55976Y28804D3*
Y28135D3*
X59736Y28129D3*
Y28798D3*
X60278Y28129D3*
Y28798D3*
X61348Y28808D3*
Y28139D3*
X57130Y33504D3*
Y32835D3*
X55692Y32817D3*
Y33486D3*
X60255Y33548D3*
Y32879D3*
X61630D3*
Y33548D3*
D79*
X54503Y23128D3*
X53833D3*
X69940Y22940D3*
X70609D3*
D83*
X58200Y28129D3*
Y28798D3*
X59192Y28129D3*
Y28798D3*
X48003Y29065D3*
Y29734D3*
X42503Y23503D3*
Y24172D3*
D79*
X48065Y24003D3*
X48734D3*
X70503D3*
X69833D3*
X70503Y24940D3*
X69833D3*
X70503Y25940D3*
X69833D3*
X47078Y22007D3*
X46409D3*
X51964Y22818D3*
X51294D3*
X51153Y33243D3*
X50483D3*
X50487Y33889D3*
X51157D3*
D83*
X66999Y31064D3*
Y31733D3*
X51431Y27794D3*
Y28463D3*
D61*
X45007Y28263D3*
Y28972D3*
X43078D3*
Y28263D3*
D59*
X52003Y25846D3*
X51294D3*
Y23917D3*
X52003D3*
D57*
X44566Y24441D3*
X44822D3*
X45078D3*
X45334D3*
Y26173D3*
X45078D3*
X44822D3*
X44566D3*
D55*
X44950Y25307D3*
D57*
X48817Y26316D3*
X49072D3*
X49328D3*
X49584D3*
Y28048D3*
X49328D3*
X49072D3*
X48817D3*
D55*
X49200Y27182D3*
D53*
X70690Y28565D3*
Y29471D3*
Y30376D3*
D51*
X68407Y29471D3*
D57*
X62193Y24628D3*
X62449D3*
X62705D3*
X62961D3*
Y26360D3*
X62705D3*
X62449D3*
X62193D3*
D65*
X59505Y25253D3*
Y26001D3*
X58600Y25627D3*
D49*
X57192Y29879D3*
X57692D3*
X58192D3*
X58692D3*
X59192D3*
X59692D3*
X60192D3*
Y32005D3*
X59692D3*
X59192D3*
X58692D3*
X58192D3*
X57692D3*
X57192D3*
D85*
X5441Y42066D3*
Y41318D3*
D83*
X6879Y42378D3*
Y41709D3*
D81*
X7441Y46879D3*
X8543D3*
X7441Y48129D3*
X8543D3*
D79*
X8566Y38878D3*
X7897D3*
D83*
X6191Y40110D3*
Y40779D3*
X6878Y40128D3*
Y40797D3*
D85*
X12589Y40714D3*
Y39966D3*
D83*
X11940Y44878D3*
Y45547D3*
D77*
X15015Y42987D3*
X14267D3*
D81*
X11379Y47004D3*
X12481D3*
X11379Y48191D3*
X12481D3*
D85*
X15108Y43783D3*
Y44531D3*
D79*
X11065Y39378D3*
X11734D3*
X11754Y41191D3*
X11085D3*
D77*
X33752Y47378D3*
X33004D3*
D75*
X31378Y46513D3*
Y47615D3*
D83*
X32128Y43672D3*
Y43003D3*
X19538Y44129D3*
Y44798D3*
D85*
X24330Y41235D3*
Y41983D3*
X23432Y41251D3*
Y41999D3*
D83*
X23809Y44129D3*
Y44798D3*
X19380Y48817D3*
Y49486D3*
X23943Y48897D3*
Y49567D3*
D85*
X19447Y46566D3*
Y47314D3*
X23993Y46566D3*
Y47314D3*
X28940Y45190D3*
Y45938D3*
D75*
X28753Y38878D3*
Y39980D3*
X31128Y38878D3*
Y39980D3*
D73*
X5941Y48504D3*
Y46772D3*
X14515Y47338D3*
Y45606D3*
D71*
X10976Y44511D3*
Y43645D3*
D69*
X36940Y49940D3*
D67*
X35940D3*
X36940Y48940D3*
X35940D3*
X36940Y47940D3*
X35940D3*
X36940Y46940D3*
X35940D3*
X36940Y45940D3*
X35940D3*
X36940Y44940D3*
X35940D3*
X36940Y43940D3*
X35940D3*
X36940Y42940D3*
X35940D3*
X36940Y41940D3*
X35940D3*
X36940Y40940D3*
X35940D3*
X36940Y39940D3*
X35940D3*
X36940Y38940D3*
X35940D3*
D69*
X21440Y37940D3*
D67*
X22440D3*
D69*
X38940Y38940D3*
D67*
X37940D3*
X38940Y39940D3*
X37940D3*
X38940Y40940D3*
X37940D3*
X38940Y41940D3*
X37940D3*
X38940Y42940D3*
X37940D3*
D69*
X38940Y44940D3*
D67*
X37940D3*
X38940Y45940D3*
X37940D3*
X38940Y46940D3*
X37940D3*
X38940Y47940D3*
X37940D3*
X38940Y48940D3*
X37940D3*
D69*
X8940Y49940D3*
D67*
X9940D3*
X10940D3*
D69*
X17489Y45040D3*
D67*
Y46040D3*
Y47040D3*
D69*
X26224Y45036D3*
D67*
Y46036D3*
Y47036D3*
D69*
X33940Y48940D3*
D67*
Y49940D3*
D69*
X28565Y48940D3*
D67*
Y49940D3*
D69*
X28318Y40941D3*
D67*
Y41941D3*
Y42941D3*
Y43941D3*
D69*
X34940Y38940D3*
D67*
Y39940D3*
Y40940D3*
Y41940D3*
Y42940D3*
Y43940D3*
Y44940D3*
Y45940D3*
D69*
X29940Y38940D3*
D67*
Y39940D3*
Y40940D3*
Y41940D3*
Y42940D3*
Y43940D3*
Y44940D3*
Y45940D3*
D69*
X18940Y37940D3*
D67*
X19940D3*
D69*
X23940D3*
D67*
X24940D3*
X25940D3*
X26940D3*
D69*
X11940Y36940D3*
D67*
X12940D3*
X13940D3*
X14940D3*
X15940D3*
X16940D3*
X17940D3*
X18940D3*
X19940D3*
X20940D3*
X21940D3*
X22940D3*
X23940D3*
X24940D3*
X25940D3*
D65*
X30279Y50035D3*
Y49287D3*
X31184Y49661D3*
D63*
X15940Y37940D3*
X16688D3*
X16314Y38846D3*
D79*
X8566Y39503D3*
X7897D3*
X6191Y38860D3*
X6860D3*
X6879Y39485D3*
X6209D3*
D83*
X6191Y41691D3*
Y42360D3*
X12449Y45547D3*
Y44878D3*
X10980Y43058D3*
Y42389D3*
D79*
X11065Y40628D3*
X11734D3*
D83*
X31378Y43628D3*
Y44297D3*
X33003Y43021D3*
Y43690D3*
X29609Y50035D3*
Y49365D3*
D79*
Y48578D3*
X30279D3*
D83*
X34940Y47128D3*
Y47797D3*
D79*
X22065Y40503D3*
X21396D3*
X22690D3*
X23359D3*
D83*
X26693Y42066D3*
Y42735D3*
Y40691D3*
Y41360D3*
X20636Y44129D3*
Y44798D3*
X20101Y44129D3*
Y44798D3*
X18976Y44804D3*
Y44135D3*
X22736Y44129D3*
Y44798D3*
X23278Y44129D3*
Y44798D3*
X24348Y44808D3*
Y44139D3*
X20130Y49504D3*
Y48835D3*
X18692Y48817D3*
Y49486D3*
X23255Y49548D3*
Y48879D3*
X24630D3*
Y49548D3*
D79*
X17503Y39128D3*
X16833D3*
X32940Y38940D3*
X33609D3*
D83*
X21200Y44129D3*
Y44798D3*
X22192Y44129D3*
Y44798D3*
X11003Y45065D3*
Y45734D3*
X5503Y39503D3*
Y40172D3*
D79*
X11065Y40003D3*
X11734D3*
X33503D3*
X32833D3*
X33503Y40940D3*
X32833D3*
X33503Y41940D3*
X32833D3*
X10078Y38007D3*
X9409D3*
X14964Y38818D3*
X14294D3*
X14153Y49243D3*
X13483D3*
X13487Y49889D3*
X14157D3*
D83*
X29999Y47064D3*
Y47733D3*
X14431Y43794D3*
Y44463D3*
D61*
X8007Y44263D3*
Y44972D3*
X6078D3*
Y44263D3*
D59*
X15003Y41846D3*
X14294D3*
Y39917D3*
X15003D3*
D57*
X7566Y40441D3*
X7822D3*
X8078D3*
X8334D3*
Y42173D3*
X8078D3*
X7822D3*
X7566D3*
D55*
X7950Y41307D3*
D57*
X11817Y42316D3*
X12072D3*
X12328D3*
X12584D3*
Y44048D3*
X12328D3*
X12072D3*
X11817D3*
D55*
X12200Y43182D3*
D53*
X33690Y44565D3*
Y45471D3*
Y46376D3*
D51*
X31407Y45471D3*
D57*
X25193Y40628D3*
X25449D3*
X25705D3*
X25961D3*
Y42360D3*
X25705D3*
X25449D3*
X25193D3*
D65*
X22505Y41253D3*
Y42001D3*
X21600Y41627D3*
D49*
X20192Y45879D3*
X20692D3*
X21192D3*
X21692D3*
X22192D3*
X22692D3*
X23192D3*
Y48005D3*
X22692D3*
X22192D3*
X21692D3*
X21192D3*
X20692D3*
X20192D3*
D85*
X42441Y42066D3*
Y41318D3*
D83*
X43879Y42378D3*
Y41709D3*
D81*
X44441Y46879D3*
X45543D3*
X44441Y48129D3*
X45543D3*
D79*
X45566Y38878D3*
X44897D3*
D83*
X43191Y40110D3*
Y40779D3*
X43878Y40128D3*
Y40797D3*
D85*
X49589Y40714D3*
Y39966D3*
D83*
X48940Y44878D3*
Y45547D3*
D77*
X52015Y42987D3*
X51267D3*
D81*
X48379Y47004D3*
X49481D3*
X48379Y48191D3*
X49481D3*
D85*
X52108Y43783D3*
Y44531D3*
D79*
X48065Y39378D3*
X48734D3*
X48754Y41191D3*
X48085D3*
D77*
X70752Y47378D3*
X70004D3*
D75*
X68378Y46513D3*
Y47615D3*
D83*
X69128Y43672D3*
Y43003D3*
X56538Y44129D3*
Y44798D3*
D85*
X61330Y41235D3*
Y41983D3*
X60432Y41251D3*
Y41999D3*
D83*
X60809Y44129D3*
Y44798D3*
X56380Y48817D3*
Y49486D3*
X60943Y48897D3*
Y49567D3*
D85*
X56447Y46566D3*
Y47314D3*
X60993Y46566D3*
Y47314D3*
X65940Y45190D3*
Y45938D3*
D75*
X65753Y38878D3*
Y39980D3*
X68128Y38878D3*
Y39980D3*
D73*
X42941Y48504D3*
Y46772D3*
X51515Y47338D3*
Y45606D3*
D71*
X47976Y44511D3*
Y43645D3*
D69*
X73940Y49940D3*
D67*
X72940D3*
X73940Y48940D3*
X72940D3*
X73940Y47940D3*
X72940D3*
X73940Y46940D3*
X72940D3*
X73940Y45940D3*
X72940D3*
X73940Y44940D3*
X72940D3*
X73940Y43940D3*
X72940D3*
X73940Y42940D3*
X72940D3*
X73940Y41940D3*
X72940D3*
X73940Y40940D3*
X72940D3*
X73940Y39940D3*
X72940D3*
X73940Y38940D3*
X72940D3*
D69*
X58440Y37940D3*
D67*
X59440D3*
D69*
X75940Y38940D3*
D67*
X74940D3*
X75940Y39940D3*
X74940D3*
X75940Y40940D3*
X74940D3*
X75940Y41940D3*
X74940D3*
X75940Y42940D3*
X74940D3*
D69*
X75940Y44940D3*
D67*
X74940D3*
X75940Y45940D3*
X74940D3*
X75940Y46940D3*
X74940D3*
X75940Y47940D3*
X74940D3*
X75940Y48940D3*
X74940D3*
D69*
X45940Y49940D3*
D67*
X46940D3*
X47940D3*
D69*
X54489Y45040D3*
D67*
Y46040D3*
Y47040D3*
D69*
X63224Y45036D3*
D67*
Y46036D3*
Y47036D3*
D69*
X70940Y48940D3*
D67*
Y49940D3*
D69*
X65565Y48940D3*
D67*
Y49940D3*
D69*
X65318Y40941D3*
D67*
Y41941D3*
Y42941D3*
Y43941D3*
D69*
X71940Y38940D3*
D67*
Y39940D3*
Y40940D3*
Y41940D3*
Y42940D3*
Y43940D3*
Y44940D3*
Y45940D3*
D69*
X66940Y38940D3*
D67*
Y39940D3*
Y40940D3*
Y41940D3*
Y42940D3*
Y43940D3*
Y44940D3*
Y45940D3*
D69*
X55940Y37940D3*
D67*
X56940D3*
D69*
X60940D3*
D67*
X61940D3*
X62940D3*
X63940D3*
D69*
X48940Y36940D3*
D67*
X49940D3*
X50940D3*
X51940D3*
X52940D3*
X53940D3*
X54940D3*
X55940D3*
X56940D3*
X57940D3*
X58940D3*
X59940D3*
X60940D3*
X61940D3*
X62940D3*
D65*
X67279Y50035D3*
Y49287D3*
X68184Y49661D3*
D63*
X52940Y37940D3*
X53688D3*
X53314Y38846D3*
D79*
X45566Y39503D3*
X44897D3*
X43191Y38860D3*
X43860D3*
X43879Y39485D3*
X43209D3*
D83*
X43191Y41691D3*
Y42360D3*
X49449Y45547D3*
Y44878D3*
X47980Y43058D3*
Y42389D3*
D79*
X48065Y40628D3*
X48734D3*
D83*
X68378Y43628D3*
Y44297D3*
X70003Y43021D3*
Y43690D3*
X66609Y50035D3*
Y49365D3*
D79*
Y48578D3*
X67279D3*
D83*
X71940Y47128D3*
Y47797D3*
D79*
X59065Y40503D3*
X58396D3*
X59690D3*
X60359D3*
D83*
X63693Y42066D3*
Y42735D3*
Y40691D3*
Y41360D3*
X57636Y44129D3*
Y44798D3*
X57101Y44129D3*
Y44798D3*
X55976Y44804D3*
Y44135D3*
X59736Y44129D3*
Y44798D3*
X60278Y44129D3*
Y44798D3*
X61348Y44808D3*
Y44139D3*
X57130Y49504D3*
Y48835D3*
X55692Y48817D3*
Y49486D3*
X60255Y49548D3*
Y48879D3*
X61630D3*
Y49548D3*
D79*
X54503Y39128D3*
X53833D3*
X69940Y38940D3*
X70609D3*
D83*
X58200Y44129D3*
Y44798D3*
X59192Y44129D3*
Y44798D3*
X48003Y45065D3*
Y45734D3*
X42503Y39503D3*
Y40172D3*
D79*
X48065Y40003D3*
X48734D3*
X70503D3*
X69833D3*
X70503Y40940D3*
X69833D3*
X70503Y41940D3*
X69833D3*
X47078Y38007D3*
X46409D3*
X51964Y38818D3*
X51294D3*
X51153Y49243D3*
X50483D3*
X50487Y49889D3*
X51157D3*
D83*
X66999Y47064D3*
Y47733D3*
X51431Y43794D3*
Y44463D3*
D61*
X45007Y44263D3*
Y44972D3*
X43078D3*
Y44263D3*
D59*
X52003Y41846D3*
X51294D3*
Y39917D3*
X52003D3*
D57*
X44566Y40441D3*
X44822D3*
X45078D3*
X45334D3*
Y42173D3*
X45078D3*
X44822D3*
X44566D3*
D55*
X44950Y41307D3*
D57*
X48817Y42316D3*
X49072D3*
X49328D3*
X49584D3*
Y44048D3*
X49328D3*
X49072D3*
X48817D3*
D55*
X49200Y43182D3*
D53*
X70690Y44565D3*
Y45471D3*
Y46376D3*
D51*
X68407Y45471D3*
D57*
X62193Y40628D3*
X62449D3*
X62705D3*
X62961D3*
Y42360D3*
X62705D3*
X62449D3*
X62193D3*
D65*
X59505Y41253D3*
Y42001D3*
X58600Y41627D3*
D49*
X57192Y45879D3*
X57692D3*
X58192D3*
X58692D3*
X59192D3*
X59692D3*
X60192D3*
Y48005D3*
X59692D3*
X59192D3*
X58692D3*
X58192D3*
X57692D3*
X57192D3*
D85*
X5441Y58066D3*
Y57318D3*
D83*
X6879Y58378D3*
Y57709D3*
D81*
X7441Y62879D3*
X8543D3*
X7441Y64129D3*
X8543D3*
D79*
X8566Y54878D3*
X7897D3*
D83*
X6191Y56110D3*
Y56779D3*
X6878Y56128D3*
Y56797D3*
D85*
X12589Y56714D3*
Y55966D3*
D83*
X11940Y60878D3*
Y61547D3*
D77*
X15015Y58987D3*
X14267D3*
D81*
X11379Y63004D3*
X12481D3*
X11379Y64191D3*
X12481D3*
D85*
X15108Y59783D3*
Y60531D3*
D79*
X11065Y55378D3*
X11734D3*
X11754Y57191D3*
X11085D3*
D77*
X33752Y63378D3*
X33004D3*
D75*
X31378Y62513D3*
Y63615D3*
D83*
X32128Y59672D3*
Y59003D3*
X19538Y60129D3*
Y60798D3*
D85*
X24330Y57235D3*
Y57983D3*
X23432Y57251D3*
Y57999D3*
D83*
X23809Y60129D3*
Y60798D3*
X19380Y64817D3*
Y65486D3*
X23943Y64897D3*
Y65567D3*
D85*
X19447Y62566D3*
Y63314D3*
X23993Y62566D3*
Y63314D3*
X28940Y61190D3*
Y61938D3*
D75*
X28753Y54878D3*
Y55980D3*
X31128Y54878D3*
Y55980D3*
D73*
X5941Y64504D3*
Y62772D3*
X14515Y63338D3*
Y61606D3*
D71*
X10976Y60511D3*
Y59645D3*
D69*
X36940Y65940D3*
D67*
X35940D3*
X36940Y64940D3*
X35940D3*
X36940Y63940D3*
X35940D3*
X36940Y62940D3*
X35940D3*
X36940Y61940D3*
X35940D3*
X36940Y60940D3*
X35940D3*
X36940Y59940D3*
X35940D3*
X36940Y58940D3*
X35940D3*
X36940Y57940D3*
X35940D3*
X36940Y56940D3*
X35940D3*
X36940Y55940D3*
X35940D3*
X36940Y54940D3*
X35940D3*
D69*
X21440Y53940D3*
D67*
X22440D3*
D69*
X38940Y54940D3*
D67*
X37940D3*
X38940Y55940D3*
X37940D3*
X38940Y56940D3*
X37940D3*
X38940Y57940D3*
X37940D3*
X38940Y58940D3*
X37940D3*
D69*
X38940Y60940D3*
D67*
X37940D3*
X38940Y61940D3*
X37940D3*
X38940Y62940D3*
X37940D3*
X38940Y63940D3*
X37940D3*
X38940Y64940D3*
X37940D3*
D69*
X8940Y65940D3*
D67*
X9940D3*
X10940D3*
D69*
X17489Y61040D3*
D67*
Y62040D3*
Y63040D3*
D69*
X26224Y61036D3*
D67*
Y62036D3*
Y63036D3*
D69*
X33940Y64940D3*
D67*
Y65940D3*
D69*
X28565Y64940D3*
D67*
Y65940D3*
D69*
X28318Y56941D3*
D67*
Y57941D3*
Y58941D3*
Y59941D3*
D69*
X34940Y54940D3*
D67*
Y55940D3*
Y56940D3*
Y57940D3*
Y58940D3*
Y59940D3*
Y60940D3*
Y61940D3*
D69*
X29940Y54940D3*
D67*
Y55940D3*
Y56940D3*
Y57940D3*
Y58940D3*
Y59940D3*
Y60940D3*
Y61940D3*
D69*
X18940Y53940D3*
D67*
X19940D3*
D69*
X23940D3*
D67*
X24940D3*
X25940D3*
X26940D3*
D69*
X11940Y52940D3*
D67*
X12940D3*
X13940D3*
X14940D3*
X15940D3*
X16940D3*
X17940D3*
X18940D3*
X19940D3*
X20940D3*
X21940D3*
X22940D3*
X23940D3*
X24940D3*
X25940D3*
D65*
X30279Y66035D3*
Y65287D3*
X31184Y65661D3*
D63*
X15940Y53940D3*
X16688D3*
X16314Y54846D3*
D79*
X8566Y55503D3*
X7897D3*
X6191Y54860D3*
X6860D3*
X6879Y55485D3*
X6209D3*
D83*
X6191Y57691D3*
Y58360D3*
X12449Y61547D3*
Y60878D3*
X10980Y59058D3*
Y58389D3*
D79*
X11065Y56628D3*
X11734D3*
D83*
X31378Y59628D3*
Y60297D3*
X33003Y59021D3*
Y59690D3*
X29609Y66035D3*
Y65365D3*
D79*
Y64578D3*
X30279D3*
D83*
X34940Y63128D3*
Y63797D3*
D79*
X22065Y56503D3*
X21396D3*
X22690D3*
X23359D3*
D83*
X26693Y58066D3*
Y58735D3*
Y56691D3*
Y57360D3*
X20636Y60129D3*
Y60798D3*
X20101Y60129D3*
Y60798D3*
X18976Y60804D3*
Y60135D3*
X22736Y60129D3*
Y60798D3*
X23278Y60129D3*
Y60798D3*
X24348Y60808D3*
Y60139D3*
X20130Y65504D3*
Y64835D3*
X18692Y64817D3*
Y65486D3*
X23255Y65548D3*
Y64879D3*
X24630D3*
Y65548D3*
D79*
X17503Y55128D3*
X16833D3*
X32940Y54940D3*
X33609D3*
D83*
X21200Y60129D3*
Y60798D3*
X22192Y60129D3*
Y60798D3*
X11003Y61065D3*
Y61734D3*
X5503Y55503D3*
Y56172D3*
D79*
X11065Y56003D3*
X11734D3*
X33503D3*
X32833D3*
X33503Y56940D3*
X32833D3*
X33503Y57940D3*
X32833D3*
X10078Y54007D3*
X9409D3*
X14964Y54818D3*
X14294D3*
X14153Y65243D3*
X13483D3*
X13487Y65889D3*
X14157D3*
D83*
X29999Y63064D3*
Y63733D3*
X14431Y59794D3*
Y60463D3*
D61*
X8007Y60263D3*
Y60972D3*
X6078D3*
Y60263D3*
D59*
X15003Y57846D3*
X14294D3*
Y55917D3*
X15003D3*
D57*
X7566Y56441D3*
X7822D3*
X8078D3*
X8334D3*
Y58173D3*
X8078D3*
X7822D3*
X7566D3*
D55*
X7950Y57307D3*
D57*
X11817Y58316D3*
X12072D3*
X12328D3*
X12584D3*
Y60048D3*
X12328D3*
X12072D3*
X11817D3*
D55*
X12200Y59182D3*
D53*
X33690Y60565D3*
Y61471D3*
Y62376D3*
D51*
X31407Y61471D3*
D57*
X25193Y56628D3*
X25449D3*
X25705D3*
X25961D3*
Y58360D3*
X25705D3*
X25449D3*
X25193D3*
D65*
X22505Y57253D3*
Y58001D3*
X21600Y57627D3*
D49*
X20192Y61879D3*
X20692D3*
X21192D3*
X21692D3*
X22192D3*
X22692D3*
X23192D3*
Y64005D3*
X22692D3*
X22192D3*
X21692D3*
X21192D3*
X20692D3*
X20192D3*
D85*
X42441Y58066D3*
Y57318D3*
D83*
X43879Y58378D3*
Y57709D3*
D81*
X44441Y62879D3*
X45543D3*
X44441Y64129D3*
X45543D3*
D79*
X45566Y54878D3*
X44897D3*
D83*
X43191Y56110D3*
Y56779D3*
X43878Y56128D3*
Y56797D3*
D85*
X49589Y56714D3*
Y55966D3*
D83*
X48940Y60878D3*
Y61547D3*
D77*
X52015Y58987D3*
X51267D3*
D81*
X48379Y63004D3*
X49481D3*
X48379Y64191D3*
X49481D3*
D85*
X52108Y59783D3*
Y60531D3*
D79*
X48065Y55378D3*
X48734D3*
X48754Y57191D3*
X48085D3*
D77*
X70752Y63378D3*
X70004D3*
D75*
X68378Y62513D3*
Y63615D3*
D83*
X69128Y59672D3*
Y59003D3*
X56538Y60129D3*
Y60798D3*
D85*
X61330Y57235D3*
Y57983D3*
X60432Y57251D3*
Y57999D3*
D83*
X60809Y60129D3*
Y60798D3*
X56380Y64817D3*
Y65486D3*
X60943Y64897D3*
Y65567D3*
D85*
X56447Y62566D3*
Y63314D3*
X60993Y62566D3*
Y63314D3*
X65940Y61190D3*
Y61938D3*
D75*
X65753Y54878D3*
Y55980D3*
X68128Y54878D3*
Y55980D3*
D73*
X42941Y64504D3*
Y62772D3*
X51515Y63338D3*
Y61606D3*
D71*
X47976Y60511D3*
Y59645D3*
D69*
X73940Y65940D3*
D67*
X72940D3*
X73940Y64940D3*
X72940D3*
X73940Y63940D3*
X72940D3*
X73940Y62940D3*
X72940D3*
X73940Y61940D3*
X72940D3*
X73940Y60940D3*
X72940D3*
X73940Y59940D3*
X72940D3*
X73940Y58940D3*
X72940D3*
X73940Y57940D3*
X72940D3*
X73940Y56940D3*
X72940D3*
X73940Y55940D3*
X72940D3*
X73940Y54940D3*
X72940D3*
D69*
X58440Y53940D3*
D67*
X59440D3*
D69*
X75940Y54940D3*
D67*
X74940D3*
X75940Y55940D3*
X74940D3*
X75940Y56940D3*
X74940D3*
X75940Y57940D3*
X74940D3*
X75940Y58940D3*
X74940D3*
D69*
X75940Y60940D3*
D67*
X74940D3*
X75940Y61940D3*
X74940D3*
X75940Y62940D3*
X74940D3*
X75940Y63940D3*
X74940D3*
X75940Y64940D3*
X74940D3*
D69*
X45940Y65940D3*
D67*
X46940D3*
X47940D3*
D69*
X54489Y61040D3*
D67*
Y62040D3*
Y63040D3*
D69*
X63224Y61036D3*
D67*
Y62036D3*
Y63036D3*
D69*
X70940Y64940D3*
D67*
Y65940D3*
D69*
X65565Y64940D3*
D67*
Y65940D3*
D69*
X65318Y56941D3*
D67*
Y57941D3*
Y58941D3*
Y59941D3*
D69*
X71940Y54940D3*
D67*
Y55940D3*
Y56940D3*
Y57940D3*
Y58940D3*
Y59940D3*
Y60940D3*
Y61940D3*
D69*
X66940Y54940D3*
D67*
Y55940D3*
Y56940D3*
Y57940D3*
Y58940D3*
Y59940D3*
Y60940D3*
Y61940D3*
D69*
X55940Y53940D3*
D67*
X56940D3*
D69*
X60940D3*
D67*
X61940D3*
X62940D3*
X63940D3*
D69*
X48940Y52940D3*
D67*
X49940D3*
X50940D3*
X51940D3*
X52940D3*
X53940D3*
X54940D3*
X55940D3*
X56940D3*
X57940D3*
X58940D3*
X59940D3*
X60940D3*
X61940D3*
X62940D3*
D65*
X67279Y66035D3*
Y65287D3*
X68184Y65661D3*
D63*
X52940Y53940D3*
X53688D3*
X53314Y54846D3*
D79*
X45566Y55503D3*
X44897D3*
X43191Y54860D3*
X43860D3*
X43879Y55485D3*
X43209D3*
D83*
X43191Y57691D3*
Y58360D3*
X49449Y61547D3*
Y60878D3*
X47980Y59058D3*
Y58389D3*
D79*
X48065Y56628D3*
X48734D3*
D83*
X68378Y59628D3*
Y60297D3*
X70003Y59021D3*
Y59690D3*
X66609Y66035D3*
Y65365D3*
D79*
Y64578D3*
X67279D3*
D83*
X71940Y63128D3*
Y63797D3*
D79*
X59065Y56503D3*
X58396D3*
X59690D3*
X60359D3*
D83*
X63693Y58066D3*
Y58735D3*
Y56691D3*
Y57360D3*
X57636Y60129D3*
Y60798D3*
X57101Y60129D3*
Y60798D3*
X55976Y60804D3*
Y60135D3*
X59736Y60129D3*
Y60798D3*
X60278Y60129D3*
Y60798D3*
X61348Y60808D3*
Y60139D3*
X57130Y65504D3*
Y64835D3*
X55692Y64817D3*
Y65486D3*
X60255Y65548D3*
Y64879D3*
X61630D3*
Y65548D3*
D79*
X54503Y55128D3*
X53833D3*
X69940Y54940D3*
X70609D3*
D83*
X58200Y60129D3*
Y60798D3*
X59192Y60129D3*
Y60798D3*
X48003Y61065D3*
Y61734D3*
X42503Y55503D3*
Y56172D3*
D79*
X48065Y56003D3*
X48734D3*
X70503D3*
X69833D3*
X70503Y56940D3*
X69833D3*
X70503Y57940D3*
X69833D3*
X47078Y54007D3*
X46409D3*
X51964Y54818D3*
X51294D3*
X51153Y65243D3*
X50483D3*
X50487Y65889D3*
X51157D3*
D83*
X66999Y63064D3*
Y63733D3*
X51431Y59794D3*
Y60463D3*
D61*
X45007Y60263D3*
Y60972D3*
X43078D3*
Y60263D3*
D59*
X52003Y57846D3*
X51294D3*
Y55917D3*
X52003D3*
D57*
X44566Y56441D3*
X44822D3*
X45078D3*
X45334D3*
Y58173D3*
X45078D3*
X44822D3*
X44566D3*
D55*
X44950Y57307D3*
D57*
X48817Y58316D3*
X49072D3*
X49328D3*
X49584D3*
Y60048D3*
X49328D3*
X49072D3*
X48817D3*
D55*
X49200Y59182D3*
D53*
X70690Y60565D3*
Y61471D3*
Y62376D3*
D51*
X68407Y61471D3*
D57*
X62193Y56628D3*
X62449D3*
X62705D3*
X62961D3*
Y58360D3*
X62705D3*
X62449D3*
X62193D3*
D65*
X59505Y57253D3*
Y58001D3*
X58600Y57627D3*
D49*
X57192Y61879D3*
X57692D3*
X58192D3*
X58692D3*
X59192D3*
X59692D3*
X60192D3*
Y64005D3*
X59692D3*
X59192D3*
X58692D3*
X58192D3*
X57692D3*
X57192D3*
M02*
