G04 DipTrace 2.4.0.2*
%INTopPaste.gbr*%
%MOIN*%
%ADD44R,0.0156X0.0707*%
%ADD46R,0.0766X0.12*%
%ADD48R,0.0766X0.0294*%
%ADD50R,0.0786X0.0511*%
%ADD52R,0.0077X0.0471*%
%ADD54R,0.0333X0.0176*%
%ADD56R,0.1298X0.1081*%
%ADD58R,0.1081X0.1298*%
%ADD64R,0.0865X0.0865*%
%ADD66R,0.0983X0.055*%
%ADD68R,0.0432X0.0511*%
%ADD70R,0.0353X0.0314*%
%ADD72R,0.055X0.0983*%
%ADD74R,0.0314X0.0353*%
%ADD76R,0.0511X0.0432*%
%FSLAX44Y44*%
G04*
G70*
G90*
G75*
G01*
%LNTopPaste*%
%LPD*%
D76*
X5441Y10066D3*
Y9318D3*
D74*
X6878Y10378D3*
Y9709D3*
D72*
X7441Y14879D3*
X8543D3*
X7441Y16066D3*
X8543D3*
D70*
X8566Y6878D3*
X7897D3*
D74*
X6191Y8110D3*
Y8779D3*
X6878Y8128D3*
Y8797D3*
D76*
X12691Y8503D3*
Y7755D3*
D74*
X11879Y13003D3*
Y13673D3*
D76*
X15504Y11441D3*
Y12189D3*
D72*
X11379Y14879D3*
X12481D3*
X11379Y16066D3*
X12481D3*
D74*
X11066Y10316D3*
Y10985D3*
D70*
Y7878D3*
X11736D3*
X11754Y9191D3*
X11085D3*
D68*
X33752Y15377D3*
X33003D3*
D76*
X31377Y14690D3*
Y15438D3*
D74*
X32127Y11672D3*
Y11002D3*
X19567Y12129D3*
Y12798D3*
D76*
X24443Y9065D3*
Y9814D3*
X23380Y9253D3*
Y10001D3*
D74*
X23817Y12129D3*
Y12798D3*
X19380Y16816D3*
Y17486D3*
X23943Y16897D3*
Y17566D3*
D76*
X19317Y14566D3*
Y15314D3*
X24067Y14566D3*
Y15314D3*
X28940Y13190D3*
Y13938D3*
D66*
X28753Y6878D3*
Y7980D3*
X31190Y6940D3*
Y8042D3*
D64*
X5941Y16504D3*
Y14772D3*
X14129Y10941D3*
Y12673D3*
D58*
X6003Y12628D3*
X8149D3*
D56*
X14504Y7253D3*
Y9399D3*
Y14191D3*
Y16336D3*
D54*
X31440Y17940D3*
Y17192D3*
X32346Y17566D3*
X20255Y5940D3*
Y6688D3*
X19349Y6314D3*
D70*
X8566Y7503D3*
X7897D3*
X6191Y6860D3*
X6860D3*
X6878Y7485D3*
X6209D3*
D74*
X6191Y9690D3*
Y10360D3*
X12504Y13691D3*
Y13022D3*
X11066Y11628D3*
Y12298D3*
D70*
Y8503D3*
X11736D3*
D74*
X31377Y11628D3*
Y12297D3*
X33002Y11021D3*
Y11690D3*
X30440Y17940D3*
Y17271D3*
D70*
X32378Y16690D3*
X33047D3*
D74*
X34940Y15127D3*
Y15797D3*
X22755Y8503D3*
Y7834D3*
X23443Y8503D3*
Y7834D3*
X26693Y10066D3*
Y10735D3*
Y8690D3*
Y9360D3*
X21005Y12129D3*
Y12798D3*
X20255Y12129D3*
Y12798D3*
X18817Y12816D3*
Y12147D3*
X22442Y12129D3*
Y12798D3*
X23067Y12129D3*
Y12798D3*
X24505Y12816D3*
Y12147D3*
X20130Y17504D3*
Y16835D3*
X18692Y16816D3*
Y17486D3*
X23255Y17548D3*
Y16879D3*
X24630D3*
Y17548D3*
D70*
X18692Y5878D3*
X18023D3*
X32940Y6940D3*
X33609D3*
D52*
X7566Y8440D3*
X7822D3*
X8078D3*
X8334D3*
Y10173D3*
X8078D3*
X7822D3*
X7566D3*
D50*
X7950Y9307D3*
D52*
X11816Y10316D3*
X12072D3*
X12328D3*
X12584D3*
Y12048D3*
X12328D3*
X12072D3*
X11816D3*
D50*
X12200Y11182D3*
D48*
X33690Y12565D3*
Y13471D3*
Y14376D3*
D46*
X31407Y13471D3*
D52*
X25193Y8628D3*
X25449D3*
X25705D3*
X25960D3*
Y10360D3*
X25705D3*
X25449D3*
X25193D3*
D54*
X22505Y9253D3*
Y10001D3*
X21599Y9627D3*
D44*
X20192Y13879D3*
X20692D3*
X21192D3*
X21692D3*
X22192D3*
X22692D3*
X23192D3*
Y16005D3*
X22692D3*
X22192D3*
X21692D3*
X21192D3*
X20692D3*
X20192D3*
M02*
