G04 DipTrace 2.4.0.2*
%INBottom.gbr*%
%MOIN*%
%ADD13C,0.013*%
%ADD14C,0.03*%
%ADD15C,0.0394*%
%ADD18C,0.04*%
%ADD29R,0.0669X0.0669*%
%ADD30C,0.0669*%
%FSLAX44Y44*%
G04*
G70*
G90*
G75*
G01*
%LNBottom*%
%LPD*%
X31000Y3000D2*
D14*
X30357D1*
X26688D1*
Y4004D1*
X25429D1*
X30357Y11014D2*
D13*
Y3000D1*
X4232Y9409D2*
Y7299D1*
Y2547D2*
X7283D1*
X7469Y2732D1*
X11425Y14370D2*
X10858Y13803D1*
X8252D1*
X7681Y14374D1*
X28440Y7876D2*
Y6813D1*
X17520Y1575D2*
Y1539D1*
X18425D1*
Y2531D1*
X19031D1*
Y3496D1*
X28317Y3553D2*
Y6690D1*
X28440Y6813D1*
X16358Y13996D2*
Y10386D1*
X16382Y10362D1*
Y5154D2*
Y3760D1*
X37000Y12000D2*
X37500Y12500D1*
X39500D1*
X40000Y12000D1*
X37000Y11000D2*
X37500Y11500D1*
X39500D1*
X40000Y11000D1*
X38000Y9000D2*
X38500Y9500D1*
X39500D1*
X40000Y10000D1*
X38000Y8000D2*
X38438Y8438D1*
X39438D1*
X40000Y9000D1*
X38000Y6000D2*
X38500Y5500D1*
X39323D1*
X39500Y5323D1*
Y4687D1*
X40000Y4187D1*
Y4000D1*
X25062Y4500D2*
Y3563D1*
X25125Y3500D1*
X26125D1*
Y2563D1*
X27500D1*
Y1000D1*
X27000D1*
X11250Y4173D2*
Y469D1*
X22469D1*
X23000Y1000D1*
X27284Y11096D2*
X29233D1*
X29366Y11229D1*
Y11945D1*
X40000Y7000D2*
X40005D1*
X40504Y6501D1*
Y2500D1*
X40442Y2438D1*
X38066D1*
X38004Y2500D1*
Y2996D1*
X38000Y3000D1*
X37000D2*
Y2504D1*
X37066Y2438D1*
X38066D1*
X22565Y6313D2*
X21440D1*
X29688Y10375D2*
Y10812D1*
X29404Y11096D1*
X29233D1*
X12479Y4061D2*
Y5616D1*
X12732D1*
X37000Y5000D2*
X37500Y4500D1*
X39313D1*
X39500Y4313D1*
Y3500D1*
X40000Y3000D1*
X19173Y14094D2*
X24870D1*
X25052Y13912D1*
Y9752D1*
X20496Y12031D2*
Y12856D1*
X19848Y13504D1*
X19173D1*
X11203Y6321D2*
D15*
Y9039D1*
Y10110D1*
X4953Y6261D2*
D13*
Y6583D1*
X7409Y9039D1*
X11203D1*
X22063Y7501D2*
X23500D1*
X37000Y4000D2*
X37500Y3500D1*
X38500D1*
X39000Y3000D1*
X19190Y12876D2*
Y12224D1*
X19459D1*
X20295Y11388D1*
Y9528D1*
X25778Y12939D2*
Y9331D1*
X38000Y14000D2*
X37437Y14563D1*
X30984D1*
X29366Y12945D1*
D18*
X25429Y4004D3*
X30357Y11014D3*
X4232Y9409D3*
Y7299D3*
Y2547D3*
X7469Y2732D3*
X11425Y14370D3*
X28440Y7876D3*
Y6813D3*
X17520Y1575D3*
X19031Y3496D3*
X28317Y3553D3*
X16358Y13996D3*
X16382Y10362D3*
Y5154D3*
Y3760D3*
X25062Y4500D3*
X11250Y4173D3*
X22565Y6313D3*
X21440D3*
X29688Y10375D3*
X12732Y5616D3*
X12479Y4061D3*
X19173Y14094D3*
X25052Y9752D3*
X20496Y12031D3*
X19173Y13504D3*
X11203Y6321D3*
Y10110D3*
X4953Y6261D3*
X23500Y7501D3*
X22063D3*
X19190Y12876D3*
X20295Y9528D3*
X25778Y12939D3*
Y9331D3*
X8750Y5846D3*
Y5346D3*
X17000Y13000D3*
Y12500D3*
Y12000D3*
Y11500D3*
Y11000D3*
Y10500D3*
Y10000D3*
Y9500D3*
Y9000D3*
Y8500D3*
Y8000D3*
Y7500D3*
Y7000D3*
Y6500D3*
Y6000D3*
X8295Y8453D3*
X4752Y1709D3*
X5252D3*
X8750Y4846D3*
Y4346D3*
X9250Y5846D3*
Y5346D3*
Y4846D3*
Y4346D3*
X6406Y13283D3*
X6906D3*
X7406D3*
X7906D3*
X33316Y9924D3*
Y9424D3*
Y8924D3*
Y8424D3*
X33879Y9924D3*
Y9424D3*
Y8924D3*
Y8424D3*
X33316Y7924D3*
X33879D3*
X32441Y9174D3*
Y8674D3*
X8406Y13283D3*
X8906D3*
X9406D3*
X9906D3*
X8795Y8453D3*
X9295D3*
X5752Y1709D3*
X6252D3*
X6752D3*
X7252D3*
X7752D3*
X8252D3*
X8752D3*
X9252D3*
X9752D3*
X10252D3*
X10752D3*
X8295Y7953D3*
X11752Y1709D3*
X12252D3*
X12752D3*
X13252D3*
X17500Y7500D3*
Y7000D3*
X8795Y7953D3*
X9295D3*
X1406Y11118D3*
X1906D3*
X2406D3*
X2906D3*
X3406D3*
X14583Y11496D3*
X15083D3*
X15583D3*
X17500Y6500D3*
X13250Y7096D3*
Y6596D3*
Y6096D3*
Y5596D3*
X18000Y7500D3*
Y7000D3*
Y6500D3*
X18500Y7500D3*
Y7000D3*
Y6500D3*
X19000Y7500D3*
Y7000D3*
Y6500D3*
X19500Y7500D3*
Y7000D3*
Y6500D3*
X20000Y7500D3*
Y7000D3*
Y6500D3*
X20500Y7500D3*
Y7000D3*
Y6500D3*
X21000Y7500D3*
Y7000D3*
Y6500D3*
X22500Y13500D3*
Y13000D3*
X23000Y13500D3*
Y13000D3*
X28500Y14000D3*
Y13500D3*
Y13000D3*
Y12500D3*
Y12000D3*
Y11500D3*
Y11000D3*
Y10500D3*
Y10000D3*
X29000Y1500D3*
X29500D3*
X30000D3*
X30500D3*
X31000D3*
X31500D3*
X32000D3*
X32500D3*
X33000D3*
X33500D3*
X34000D3*
X34500D3*
X35000D3*
X35500D3*
X36000D3*
X36500D3*
X37000D3*
X37500D3*
X38000D3*
X38500D3*
X39000D3*
X39500D3*
X40000D3*
X1000Y11000D3*
Y10500D3*
Y10000D3*
Y9500D3*
Y9000D3*
Y8500D3*
Y8000D3*
Y7500D3*
Y7000D3*
Y6500D3*
Y6000D3*
Y5500D3*
Y5000D3*
Y4500D3*
Y4000D3*
Y3500D3*
Y3000D3*
Y2500D3*
Y2000D3*
Y1500D3*
Y1000D3*
X680Y14051D2*
D14*
X6954D1*
X11919D2*
X15767D1*
X16947D2*
X18585D1*
X25485D2*
X28649D1*
X31108D2*
X31675D1*
X38727D2*
X40320D1*
X680Y13753D2*
X6954D1*
X11443D2*
X15821D1*
X16894D2*
X18638D1*
X25510D2*
X28665D1*
X30808D2*
X31675D1*
X38727D2*
X40320D1*
X680Y13454D2*
X7975D1*
X11136D2*
X15903D1*
X16816D2*
X18585D1*
X20531D2*
X24597D1*
X26031D2*
X28841D1*
X30509D2*
X31675D1*
X680Y13155D2*
X15903D1*
X16816D2*
X18671D1*
X20831D2*
X24597D1*
X26326D2*
X28673D1*
X30210D2*
X31675D1*
X680Y12857D2*
X15903D1*
X16816D2*
X18597D1*
X20954D2*
X24597D1*
X26363D2*
X28645D1*
X30087D2*
X31675D1*
X680Y12558D2*
X15903D1*
X16816D2*
X18695D1*
X20954D2*
X24597D1*
X26236D2*
X28640D1*
X30091D2*
X31675D1*
X680Y12259D2*
X15903D1*
X16816D2*
X18732D1*
X21040D2*
X24597D1*
X26236D2*
X28640D1*
X30091D2*
X31675D1*
X680Y11960D2*
X15903D1*
X16816D2*
X18823D1*
X21085D2*
X24597D1*
X26236D2*
X28640D1*
X30091D2*
X31675D1*
X680Y11662D2*
X15903D1*
X16816D2*
X18109D1*
X18989D2*
X19388D1*
X20949D2*
X24597D1*
X26236D2*
X26848D1*
X27720D2*
X28640D1*
X30091D2*
X31675D1*
X680Y11363D2*
X15903D1*
X16816D2*
X17875D1*
X19223D2*
X19688D1*
X20753D2*
X24597D1*
X26236D2*
X26610D1*
X27958D2*
X28640D1*
X30829D2*
X31675D1*
X680Y11064D2*
X15903D1*
X16816D2*
X17822D1*
X19276D2*
X19840D1*
X20753D2*
X24597D1*
X26236D2*
X26557D1*
X28011D2*
X29768D1*
X30948D2*
X31675D1*
X680Y10766D2*
X15903D1*
X16816D2*
X17908D1*
X19190D2*
X19840D1*
X20753D2*
X24597D1*
X26236D2*
X26639D1*
X27925D2*
X29822D1*
X30890D2*
X31675D1*
X680Y10467D2*
X10739D1*
X11669D2*
X15800D1*
X16963D2*
X17928D1*
X19170D2*
X19840D1*
X20753D2*
X24597D1*
X26236D2*
X26664D1*
X27905D2*
X29899D1*
X680Y10168D2*
X10612D1*
X11792D2*
X15825D1*
X16939D2*
X17826D1*
X19272D2*
X19840D1*
X20753D2*
X24597D1*
X26236D2*
X26561D1*
X28007D2*
X29899D1*
X680Y9870D2*
X3878D1*
X4586D2*
X10616D1*
X11792D2*
X16083D1*
X16684D2*
X17863D1*
X19235D2*
X19819D1*
X20769D2*
X24474D1*
X26236D2*
X26594D1*
X27970D2*
X29899D1*
X680Y9571D2*
X3665D1*
X4800D2*
X10616D1*
X11792D2*
X17822D1*
X19276D2*
X19704D1*
X20884D2*
X24490D1*
X26314D2*
X26557D1*
X28011D2*
X29899D1*
X680Y9272D2*
X3657D1*
X4808D2*
X7007D1*
X11792D2*
X17822D1*
X19276D2*
X19766D1*
X20826D2*
X24728D1*
X26367D2*
X26557D1*
X28011D2*
X29899D1*
X680Y8974D2*
X3776D1*
X4689D2*
X6712D1*
X11792D2*
X17822D1*
X19276D2*
X20172D1*
X20420D2*
X25314D1*
X26240D2*
X26557D1*
X28011D2*
X29899D1*
X680Y8675D2*
X3776D1*
X4689D2*
X6413D1*
X11792D2*
X17822D1*
X19276D2*
X26557D1*
X28011D2*
X29174D1*
X29582D2*
X29899D1*
X680Y8376D2*
X3776D1*
X4689D2*
X6113D1*
X7379D2*
X10616D1*
X11792D2*
X28156D1*
X680Y8078D2*
X3776D1*
X4689D2*
X5814D1*
X7080D2*
X10616D1*
X11792D2*
X27886D1*
X39695D2*
X40320D1*
X680Y7779D2*
X3776D1*
X4689D2*
X5515D1*
X6784D2*
X10616D1*
X11792D2*
X21546D1*
X24017D2*
X27857D1*
X38691D2*
X40320D1*
X680Y7480D2*
X3669D1*
X4795D2*
X5215D1*
X6485D2*
X10616D1*
X11792D2*
X21472D1*
X24091D2*
X27984D1*
X680Y7181D2*
X3653D1*
X6186D2*
X10616D1*
X11792D2*
X21570D1*
X23992D2*
X27984D1*
X680Y6883D2*
X3825D1*
X5886D2*
X10616D1*
X11792D2*
X27853D1*
X680Y6584D2*
X4465D1*
X5587D2*
X10616D1*
X11792D2*
X27861D1*
X680Y6285D2*
X4362D1*
X5546D2*
X10612D1*
X11792D2*
X27861D1*
X680Y5987D2*
X4432D1*
X5472D2*
X10723D1*
X11685D2*
X27861D1*
X680Y5688D2*
X16177D1*
X16586D2*
X27861D1*
X680Y5389D2*
X15841D1*
X16922D2*
X27861D1*
X680Y5091D2*
X15792D1*
X16971D2*
X27861D1*
X680Y4792D2*
X15923D1*
X16840D2*
X24552D1*
X25571D2*
X27861D1*
X680Y4493D2*
X10760D1*
X11743D2*
X15923D1*
X16840D2*
X24470D1*
X26867D2*
X27861D1*
X31522D2*
X31678D1*
X680Y4195D2*
X10657D1*
X11841D2*
X15923D1*
X16840D2*
X24560D1*
X27191D2*
X27861D1*
X680Y3896D2*
X10731D1*
X11767D2*
X15808D1*
X16955D2*
X18605D1*
X19457D2*
X24605D1*
X27228D2*
X27841D1*
X680Y3597D2*
X10793D1*
X11706D2*
X15812D1*
X16951D2*
X18449D1*
X19612D2*
X24605D1*
X27228D2*
X27726D1*
X680Y3299D2*
X10793D1*
X11706D2*
X16030D1*
X16734D2*
X18474D1*
X19588D2*
X24695D1*
X680Y3000D2*
X3870D1*
X4594D2*
X6946D1*
X7994D2*
X10793D1*
X11706D2*
X18576D1*
X19489D2*
X25667D1*
X680Y2701D2*
X3661D1*
X8060D2*
X10793D1*
X11706D2*
X18002D1*
X19489D2*
X25667D1*
X680Y2402D2*
X3661D1*
X7953D2*
X10793D1*
X11706D2*
X17969D1*
X28598D2*
X30273D1*
X37386D2*
X37614D1*
X38387D2*
X38610D1*
X680Y2104D2*
X3858D1*
X4607D2*
X10793D1*
X11706D2*
X17301D1*
X17738D2*
X17969D1*
X28717D2*
X40320D1*
X680Y1805D2*
X10793D1*
X11706D2*
X16977D1*
X28700D2*
X40320D1*
X680Y1506D2*
X10793D1*
X11706D2*
X12273D1*
X28520D2*
X40320D1*
X680Y1208D2*
X10793D1*
X11706D2*
X12273D1*
X27958D2*
X40320D1*
X680Y909D2*
X10793D1*
X11706D2*
X12273D1*
X27946D2*
X40320D1*
X38697Y14348D2*
Y13626D1*
X38868Y13684D1*
X38998Y13697D1*
X39128Y13685D1*
X39254Y13649D1*
X39371Y13589D1*
X39500Y13482D1*
X39561Y13541D1*
X39670Y13614D1*
X39791Y13665D1*
X39919Y13692D1*
X40050Y13695D1*
X40180Y13673D1*
X40303Y13628D1*
X40350Y13603D1*
Y14349D1*
X38700Y14350D1*
X38684Y7870D2*
X38648Y7744D1*
X38588Y7627D1*
X38480Y7499D1*
X38522Y7507D1*
X38625Y7587D1*
X38742Y7647D1*
X38868Y7684D1*
X38998Y7697D1*
X39128Y7685D1*
X39254Y7649D1*
X39371Y7589D1*
X39500Y7482D1*
X39561Y7541D1*
X39670Y7614D1*
X39791Y7665D1*
X39919Y7692D1*
X40050Y7695D1*
X40180Y7673D1*
X40303Y7628D1*
X40350Y7603D1*
Y8304D1*
X39905Y8303D1*
X39739Y8136D1*
X39634Y8058D1*
X39506Y8017D1*
X39306Y8011D1*
X38695D1*
X38684Y7870D1*
X38499Y2515D2*
X38388Y2422D1*
X38273Y2359D1*
X38148Y2319D1*
X38018Y2304D1*
X37887Y2313D1*
X37761Y2346D1*
X37642Y2402D1*
X37537Y2480D1*
X37499Y2515D1*
X37410Y2437D1*
X37297Y2370D1*
X37174Y2325D1*
X37044Y2305D1*
X36913Y2309D1*
X36821Y2327D1*
X36802Y2295D1*
X36709Y2202D1*
X36590Y2149D1*
X36373Y2138D1*
X32066D1*
X31937Y2162D1*
X31826Y2229D1*
X31745Y2332D1*
X31707Y2461D1*
X31704Y3419D1*
X31705Y14130D1*
X31401Y14136D1*
X31159D1*
X30059Y13034D1*
X30063Y12945D1*
X30050Y12814D1*
X30014Y12689D1*
X29990Y12641D1*
X30063Y12642D1*
Y11492D1*
X30204Y11555D1*
X30333Y11575D1*
X30464Y11565D1*
X30589Y11526D1*
X30701Y11458D1*
X30794Y11367D1*
X30864Y11256D1*
X30907Y11132D1*
X30919Y11014D1*
X30904Y10884D1*
X30859Y10761D1*
X30798Y10669D1*
X30946Y10695D1*
X31077Y10692D1*
X31205Y10666D1*
X31326Y10616D1*
X31435Y10544D1*
X31530Y10453D1*
X31605Y10345D1*
X31659Y10226D1*
X31690Y10099D1*
X31696Y9974D1*
X31679Y9844D1*
X31638Y9719D1*
X31574Y9605D1*
X31484Y9499D1*
X31562Y9411D1*
X31629Y9299D1*
X31674Y9176D1*
X31697Y9000D1*
X31684Y8870D1*
X31648Y8744D1*
X31588Y8627D1*
X31480Y8499D1*
X31562Y8411D1*
X31629Y8299D1*
X31674Y8176D1*
X31697Y8000D1*
X31684Y7870D1*
X31648Y7744D1*
X31588Y7627D1*
X31480Y7499D1*
X31562Y7411D1*
X31629Y7299D1*
X31674Y7176D1*
X31697Y7000D1*
X31684Y6870D1*
X31648Y6744D1*
X31588Y6627D1*
X31480Y6499D1*
X31562Y6411D1*
X31629Y6299D1*
X31674Y6176D1*
X31697Y6000D1*
X31684Y5870D1*
X31648Y5744D1*
X31588Y5627D1*
X31480Y5499D1*
X31562Y5411D1*
X31629Y5299D1*
X31674Y5176D1*
X31697Y5000D1*
X31684Y4870D1*
X31648Y4744D1*
X31588Y4627D1*
X31480Y4499D1*
X31530Y4453D1*
X31605Y4345D1*
X31659Y4226D1*
X31690Y4099D1*
X31696Y3974D1*
X31679Y3844D1*
X31638Y3719D1*
X31627Y3696D1*
X31697Y3697D1*
Y2303D1*
X30303D1*
Y2488D1*
X28499D1*
X28592Y2368D1*
X28650Y2251D1*
X28685Y2125D1*
X28697Y2000D1*
X28684Y1870D1*
X28648Y1744D1*
X28588Y1627D1*
X28508Y1523D1*
X28410Y1437D1*
X28297Y1370D1*
X28174Y1325D1*
X28044Y1305D1*
X27927Y1307D1*
Y1000D1*
X27907Y871D1*
X27849Y754D1*
X27766Y667D1*
X27797Y650D1*
X40350D1*
Y2300D1*
X39384Y2303D1*
X39303D1*
Y2373D1*
X39174Y2325D1*
X39044Y2305D1*
X38913Y2309D1*
X38785Y2337D1*
X38665Y2389D1*
X38557Y2463D1*
X38502Y2518D1*
X19456Y2697D2*
X19697D1*
Y2627D1*
X19868Y2684D1*
X19998Y2697D1*
X20128Y2685D1*
X20254Y2649D1*
X20371Y2589D1*
X20500Y2482D1*
X20625Y2587D1*
X20742Y2647D1*
X20868Y2684D1*
X20998Y2697D1*
X21128Y2685D1*
X21254Y2649D1*
X21371Y2589D1*
X21500Y2482D1*
X21625Y2587D1*
X21742Y2647D1*
X21868Y2684D1*
X21998Y2697D1*
X22128Y2685D1*
X22254Y2649D1*
X22371Y2589D1*
X22500Y2482D1*
X22561Y2541D1*
X22670Y2614D1*
X22791Y2665D1*
X22919Y2692D1*
X23050Y2695D1*
X23180Y2673D1*
X23303Y2628D1*
X23415Y2560D1*
X23500Y2485D1*
X23625Y2587D1*
X23742Y2647D1*
X23868Y2684D1*
X23998Y2697D1*
X24128Y2685D1*
X24254Y2649D1*
X24371Y2589D1*
X24500Y2482D1*
X24625Y2587D1*
X24742Y2647D1*
X24868Y2684D1*
X24998Y2697D1*
X25128Y2685D1*
X25254Y2649D1*
X25371Y2589D1*
X25500Y2482D1*
X25625Y2587D1*
X25702Y2626D1*
X25698Y3075D1*
X25125Y3073D1*
X24996Y3093D1*
X24856Y3168D1*
X24722Y3305D1*
X24665Y3408D1*
X24637Y3534D1*
X24636Y4133D1*
X24590Y4195D1*
X24533Y4313D1*
X24504Y4441D1*
X24505Y4571D1*
X24537Y4699D1*
X24597Y4815D1*
X24682Y4914D1*
X24789Y4991D1*
X24910Y5041D1*
X25039Y5061D1*
X25169Y5052D1*
X25294Y5012D1*
X25406Y4945D1*
X25500Y4853D1*
X25570Y4742D1*
X25612Y4618D1*
X25621Y4533D1*
X25664Y4514D1*
X26688Y4516D1*
X26817Y4499D1*
X26939Y4450D1*
X27044Y4372D1*
X27125Y4270D1*
X27178Y4150D1*
X27200Y4004D1*
Y3516D1*
X27475Y3512D1*
X27758D1*
X27760Y3625D1*
X27791Y3752D1*
X27851Y3868D1*
X27891Y3914D1*
Y6694D1*
X27882Y6754D1*
X27883Y6885D1*
X27915Y7012D1*
X27975Y7128D1*
X28015Y7175D1*
X28014Y7514D1*
X27968Y7571D1*
X27911Y7689D1*
X27882Y7816D1*
X27883Y7947D1*
X27915Y8074D1*
X27975Y8191D1*
X28060Y8290D1*
X28167Y8367D1*
X28288Y8417D1*
X28417Y8437D1*
X28547Y8428D1*
X28672Y8388D1*
X28767Y8331D1*
X28814Y8409D1*
X28900Y8507D1*
X29003Y8588D1*
X29120Y8648D1*
X29246Y8684D1*
X29376Y8697D1*
X29507Y8685D1*
X29633Y8649D1*
X29749Y8590D1*
X29853Y8510D1*
X29932Y8421D1*
X29930Y10648D1*
X29885Y10709D1*
X29827Y10827D1*
X29798Y10954D1*
X29800Y11085D1*
X29831Y11212D1*
X29848Y11245D1*
X29617Y11248D1*
X28670D1*
Y12642D1*
X28739D1*
X28704Y12728D1*
X28675Y12856D1*
X28671Y12987D1*
X28691Y13117D1*
X28735Y13240D1*
X28802Y13353D1*
X28880Y13442D1*
X28756Y13608D1*
X28704Y13728D1*
X28675Y13856D1*
X28671Y13987D1*
X28691Y14117D1*
X28735Y14240D1*
X28800Y14350D1*
X25215D1*
X25354Y14214D1*
X25432Y14109D1*
X25473Y13981D1*
X25479Y13781D1*
Y13416D1*
X25625Y13480D1*
X25754Y13500D1*
X25884Y13491D1*
X26009Y13451D1*
X26121Y13383D1*
X26215Y13292D1*
X26285Y13181D1*
X26327Y13057D1*
X26340Y12939D1*
X26324Y12809D1*
X26279Y12686D1*
X26204Y12574D1*
X26205Y9695D1*
X26285Y9573D1*
X26327Y9449D1*
X26340Y9331D1*
X26324Y9201D1*
X26279Y9078D1*
X26207Y8968D1*
X26112Y8879D1*
X25998Y8814D1*
X25872Y8777D1*
X25742Y8770D1*
X25613Y8793D1*
X25493Y8846D1*
X25389Y8925D1*
X25305Y9026D1*
X25248Y9144D1*
X25230Y9219D1*
X25147Y9198D1*
X25017Y9191D1*
X24888Y9215D1*
X24768Y9267D1*
X24664Y9346D1*
X24580Y9447D1*
X24522Y9565D1*
X24494Y9693D1*
X24495Y9823D1*
X24527Y9951D1*
X24587Y10067D1*
X24627Y10113D1*
X24625Y13668D1*
X20289D1*
X20798Y13158D1*
X20875Y13052D1*
X20917Y12924D1*
X20923Y12725D1*
Y12401D1*
X21003Y12274D1*
X21045Y12150D1*
X21058Y12031D1*
X21043Y11901D1*
X20998Y11778D1*
X20926Y11669D1*
X20830Y11580D1*
X20705Y11511D1*
X20722Y11388D1*
Y9891D1*
X20802Y9770D1*
X20845Y9646D1*
X20857Y9528D1*
X20842Y9398D1*
X20797Y9275D1*
X20725Y9165D1*
X20629Y9076D1*
X20516Y9011D1*
X20390Y8974D1*
X20259Y8967D1*
X20131Y8990D1*
X20011Y9043D1*
X19906Y9122D1*
X19823Y9223D1*
X19765Y9340D1*
X19736Y9468D1*
X19738Y9599D1*
X19770Y9726D1*
X19830Y9842D1*
X19870Y9889D1*
X19868Y11213D1*
X19283Y11796D1*
X19190Y11797D1*
X19060Y11817D1*
X18943Y11876D1*
X18849Y11966D1*
X18787Y12081D1*
X18763Y12224D1*
Y12507D1*
X18717Y12572D1*
X18660Y12689D1*
X18631Y12817D1*
X18632Y12948D1*
X18664Y13075D1*
X18718Y13180D1*
X18643Y13317D1*
X18614Y13445D1*
X18616Y13575D1*
X18647Y13702D1*
X18698Y13801D1*
X18643Y13907D1*
X18614Y14035D1*
X18616Y14166D1*
X18647Y14293D1*
X18676Y14348D1*
X16792Y14350D1*
X16865Y14238D1*
X16908Y14114D1*
X16920Y13996D1*
X16905Y13866D1*
X16860Y13743D1*
X16785Y13631D1*
Y10752D1*
X16819Y10715D1*
X16889Y10604D1*
X16931Y10480D1*
X16944Y10362D1*
X16929Y10232D1*
X16884Y10109D1*
X16812Y10000D1*
X16716Y9910D1*
X16602Y9845D1*
X16477Y9808D1*
X16346Y9801D1*
X16217Y9825D1*
X16097Y9878D1*
X15993Y9957D1*
X15910Y10058D1*
X15852Y10175D1*
X15823Y10303D1*
X15824Y10434D1*
X15856Y10561D1*
X15930Y10693D1*
X15931Y13630D1*
X15886Y13691D1*
X15828Y13809D1*
X15799Y13937D1*
X15801Y14068D1*
X15833Y14195D1*
X15893Y14311D1*
X15927Y14351D1*
X11985Y14350D1*
X11972Y14240D1*
X11927Y14117D1*
X11855Y14008D1*
X11759Y13918D1*
X11646Y13853D1*
X11520Y13816D1*
X11475Y13814D1*
X11160Y13501D1*
X11055Y13424D1*
X10927Y13382D1*
X10727Y13376D1*
X8252D1*
X8123Y13396D1*
X8003Y13457D1*
X7857Y13594D1*
X7773Y13678D1*
X6984Y13677D1*
Y14354D1*
X6379Y14350D1*
X650D1*
Y651D1*
X10822Y650D1*
X10823Y3811D1*
X10778Y3869D1*
X10720Y3986D1*
X10691Y4114D1*
X10693Y4245D1*
X10724Y4372D1*
X10784Y4488D1*
X10870Y4587D1*
X10976Y4664D1*
X11097Y4714D1*
X11226Y4735D1*
X11357Y4725D1*
X11482Y4685D1*
X11594Y4618D1*
X11687Y4526D1*
X11757Y4415D1*
X11799Y4291D1*
X11812Y4173D1*
X11797Y4043D1*
X11752Y3920D1*
X11677Y3808D1*
Y896D1*
X12304Y895D1*
X12303Y1697D1*
X13697D1*
Y1627D1*
X13868Y1684D1*
X13998Y1697D1*
X14128Y1685D1*
X14254Y1649D1*
X14371Y1589D1*
X14500Y1482D1*
X14625Y1587D1*
X14742Y1647D1*
X14868Y1684D1*
X14998Y1697D1*
X15128Y1685D1*
X15254Y1649D1*
X15371Y1589D1*
X15500Y1482D1*
X15561Y1541D1*
X15670Y1614D1*
X15791Y1665D1*
X15919Y1692D1*
X16050Y1695D1*
X16180Y1673D1*
X16303Y1628D1*
X16415Y1560D1*
X16500Y1485D1*
X16603Y1573D1*
X16718Y1637D1*
X16842Y1678D1*
X16971Y1696D1*
X16994Y1773D1*
X17054Y1890D1*
X17140Y1989D1*
X17246Y2066D1*
X17367Y2116D1*
X17496Y2136D1*
X17627Y2127D1*
X17751Y2087D1*
X17864Y2019D1*
X17919Y1965D1*
X17998Y2064D1*
Y2531D1*
X18018Y2661D1*
X18076Y2778D1*
X18167Y2872D1*
X18282Y2934D1*
X18425Y2958D1*
X18602D1*
X18605Y3134D1*
X18559Y3191D1*
X18502Y3309D1*
X18473Y3437D1*
X18474Y3568D1*
X18506Y3695D1*
X18566Y3811D1*
X18651Y3910D1*
X18758Y3987D1*
X18879Y4037D1*
X19008Y4058D1*
X19138Y4048D1*
X19263Y4008D1*
X19375Y3941D1*
X19469Y3849D1*
X19539Y3738D1*
X19581Y3614D1*
X19593Y3496D1*
X19578Y3366D1*
X19533Y3243D1*
X19458Y3131D1*
Y2696D1*
X19177Y9796D2*
X19245D1*
Y8403D1*
X17852D1*
Y9796D1*
X17922D1*
X17887Y9883D1*
X17858Y10011D1*
X17853Y10142D1*
X17874Y10272D1*
X17918Y10395D1*
X17984Y10508D1*
X18062Y10597D1*
X17966Y10718D1*
X17905Y10834D1*
X17866Y10959D1*
X17852Y11090D1*
X17863Y11220D1*
X17897Y11347D1*
X17955Y11464D1*
X18034Y11569D1*
X18131Y11657D1*
X18243Y11726D1*
X18365Y11772D1*
X18494Y11794D1*
X18625Y11792D1*
X18754Y11766D1*
X18875Y11716D1*
X18984Y11644D1*
X19078Y11552D1*
X19154Y11445D1*
X19208Y11326D1*
X19238Y11198D1*
X19245Y11074D1*
X19228Y10944D1*
X19186Y10819D1*
X19123Y10705D1*
X19033Y10599D1*
X19111Y10511D1*
X19178Y10399D1*
X19223Y10276D1*
X19245Y10100D1*
X19233Y9969D1*
X19196Y9844D1*
X19172Y9796D1*
X27912Y9793D2*
X27980D1*
Y8399D1*
X26587D1*
Y9793D1*
X26657D1*
X26622Y9880D1*
X26593Y10007D1*
X26588Y10138D1*
X26609Y10268D1*
X26653Y10391D1*
X26719Y10504D1*
X26797Y10593D1*
X26701Y10714D1*
X26640Y10830D1*
X26601Y10956D1*
X26587Y11086D1*
X26598Y11217D1*
X26632Y11343D1*
X26690Y11461D1*
X26769Y11565D1*
X26866Y11653D1*
X26978Y11722D1*
X27100Y11768D1*
X27229Y11791D1*
X27360Y11788D1*
X27489Y11762D1*
X27610Y11712D1*
X27719Y11640D1*
X27813Y11549D1*
X27889Y11441D1*
X27943Y11322D1*
X27973Y11195D1*
X27980Y11070D1*
X27963Y10940D1*
X27921Y10815D1*
X27858Y10701D1*
X27768Y10595D1*
X27846Y10507D1*
X27913Y10395D1*
X27958Y10272D1*
X27980Y10096D1*
X27968Y9966D1*
X27932Y9840D1*
X27907Y9792D1*
X4659Y9044D2*
Y7667D1*
X4739Y7541D1*
X4782Y7417D1*
X4794Y7299D1*
X4779Y7169D1*
X4734Y7046D1*
X4662Y6937D1*
X4566Y6847D1*
X4453Y6782D1*
X4327Y6745D1*
X4196Y6738D1*
X4068Y6762D1*
X3948Y6815D1*
X3843Y6894D1*
X3760Y6995D1*
X3702Y7112D1*
X3673Y7240D1*
X3675Y7371D1*
X3707Y7498D1*
X3767Y7614D1*
X3807Y7661D1*
X3805Y9042D1*
X3760Y9105D1*
X3702Y9222D1*
X3673Y9350D1*
X3675Y9481D1*
X3707Y9608D1*
X3767Y9724D1*
X3852Y9823D1*
X3958Y9900D1*
X4079Y9950D1*
X4209Y9971D1*
X4339Y9961D1*
X4464Y9921D1*
X4576Y9854D1*
X4670Y9762D1*
X4739Y9652D1*
X4782Y9528D1*
X4794Y9409D1*
X4779Y9279D1*
X4734Y9156D1*
X4659Y9044D1*
X4597Y2974D2*
X6959D1*
X7003Y3047D1*
X7088Y3146D1*
X7195Y3223D1*
X7316Y3273D1*
X7445Y3294D1*
X7575Y3284D1*
X7700Y3244D1*
X7812Y3177D1*
X7906Y3085D1*
X7976Y2974D1*
X8018Y2850D1*
X8030Y2732D1*
X8015Y2602D1*
X7970Y2479D1*
X7898Y2370D1*
X7803Y2280D1*
X7689Y2215D1*
X7563Y2178D1*
X7480Y2168D1*
X7352Y2126D1*
X7152Y2120D1*
X4597D1*
X4453Y2030D1*
X4327Y1993D1*
X4196Y1986D1*
X4068Y2010D1*
X3948Y2063D1*
X3843Y2142D1*
X3760Y2243D1*
X3702Y2360D1*
X3673Y2488D1*
X3675Y2619D1*
X3707Y2746D1*
X3767Y2862D1*
X3852Y2961D1*
X3958Y3038D1*
X4079Y3088D1*
X4209Y3109D1*
X4339Y3099D1*
X4464Y3059D1*
X4597Y2972D1*
X16809Y4789D2*
Y4124D1*
X16889Y4002D1*
X16931Y3878D1*
X16944Y3760D1*
X16929Y3630D1*
X16884Y3507D1*
X16812Y3398D1*
X16716Y3308D1*
X16602Y3243D1*
X16477Y3206D1*
X16346Y3199D1*
X16217Y3222D1*
X16097Y3275D1*
X15993Y3354D1*
X15910Y3455D1*
X15852Y3573D1*
X15823Y3700D1*
X15824Y3831D1*
X15856Y3958D1*
X15916Y4075D1*
X15956Y4121D1*
X15955Y4789D1*
X15910Y4849D1*
X15852Y4966D1*
X15823Y5094D1*
X15824Y5225D1*
X15856Y5352D1*
X15916Y5468D1*
X16002Y5568D1*
X16108Y5644D1*
X16229Y5694D1*
X16358Y5715D1*
X16489Y5705D1*
X16614Y5666D1*
X16726Y5598D1*
X16819Y5506D1*
X16889Y5396D1*
X16931Y5272D1*
X16944Y5154D1*
X16929Y5024D1*
X16884Y4901D1*
X16809Y4788D1*
X10644Y6382D2*
Y8613D1*
X7590Y8612D1*
X6319Y7346D1*
X5464Y6490D1*
X5502Y6379D1*
X5515Y6261D1*
X5500Y6131D1*
X5455Y6008D1*
X5382Y5898D1*
X5287Y5809D1*
X5173Y5744D1*
X5048Y5707D1*
X4917Y5700D1*
X4788Y5723D1*
X4668Y5776D1*
X4564Y5855D1*
X4481Y5956D1*
X4423Y6074D1*
X4394Y6201D1*
X4395Y6332D1*
X4427Y6459D1*
X4487Y6576D1*
X4527Y6622D1*
X4546Y6712D1*
X4607Y6832D1*
X4744Y6977D1*
X7108Y9341D1*
X7213Y9418D1*
X7341Y9460D1*
X7541Y9466D1*
X10645D1*
X10646Y10182D1*
X10677Y10309D1*
X10737Y10425D1*
X10823Y10524D1*
X10929Y10601D1*
X11050Y10651D1*
X11179Y10672D1*
X11310Y10662D1*
X11435Y10622D1*
X11547Y10555D1*
X11640Y10463D1*
X11710Y10352D1*
X11752Y10228D1*
X11762Y10082D1*
X11765Y6321D1*
X11750Y6191D1*
X11705Y6068D1*
X11633Y5959D1*
X11537Y5869D1*
X11424Y5804D1*
X11298Y5767D1*
X11167Y5760D1*
X11038Y5784D1*
X10919Y5836D1*
X10814Y5915D1*
X10731Y6016D1*
X10673Y6134D1*
X10644Y6261D1*
X10645Y6298D1*
X22427Y7928D2*
X23133D1*
X23226Y7991D1*
X23347Y8042D1*
X23476Y8062D1*
X23607Y8053D1*
X23732Y8013D1*
X23844Y7945D1*
X23937Y7854D1*
X24007Y7743D1*
X24049Y7619D1*
X24062Y7501D1*
X24047Y7371D1*
X24002Y7248D1*
X23930Y7139D1*
X23834Y7049D1*
X23721Y6984D1*
X23595Y6947D1*
X23464Y6940D1*
X23335Y6963D1*
X23215Y7016D1*
X23140Y7073D1*
X22430Y7074D1*
X22283Y6984D1*
X22157Y6947D1*
X22027Y6940D1*
X21898Y6963D1*
X21778Y7016D1*
X21674Y7095D1*
X21590Y7196D1*
X21533Y7314D1*
X21504Y7441D1*
X21505Y7572D1*
X21537Y7699D1*
X21597Y7816D1*
X21682Y7915D1*
X21789Y7991D1*
X21910Y8042D1*
X22039Y8062D1*
X22169Y8053D1*
X22294Y8013D1*
X22427Y7925D1*
X38000Y3000D2*
D18*
Y2304D1*
X37000Y3000D2*
Y2304D1*
X23000Y2696D2*
Y2000D1*
X28000D2*
Y1304D1*
Y2000D2*
X28696D1*
X40000Y7696D2*
Y7000D1*
Y13696D2*
Y13000D1*
X18549Y11796D2*
Y11100D1*
X17853D2*
X19245D1*
X27284Y11792D2*
Y11096D1*
X26588D2*
X27980D1*
X29366Y11945D2*
Y11249D1*
X28670Y11945D2*
X30062D1*
X31000Y4000D2*
X31696D1*
X31000Y10696D2*
Y10000D1*
X31696D1*
X16000Y1696D2*
Y1000D1*
X17000Y1696D2*
Y1000D1*
X32246Y13678D2*
D14*
X33775D1*
X35225D2*
X36326D1*
X32246Y13379D2*
X33775D1*
X35225D2*
X36326D1*
X32246Y13080D2*
X33775D1*
X35225D2*
X36277D1*
X32246Y12782D2*
X33775D1*
X35225D2*
X36309D1*
X32246Y12483D2*
X33775D1*
X35225D2*
X36326D1*
X32246Y12184D2*
X36297D1*
X32246Y11886D2*
X36285D1*
X32246Y11587D2*
X36326D1*
X32246Y11288D2*
X36326D1*
X32246Y10990D2*
X36273D1*
X32246Y10691D2*
X35883D1*
X36119D2*
X36326D1*
X32246Y10392D2*
X35395D1*
X32246Y10094D2*
X35280D1*
X32246Y9795D2*
X35305D1*
X32246Y9496D2*
X35481D1*
X32246Y9197D2*
X35301D1*
X32246Y8899D2*
X35280D1*
X32246Y8600D2*
X35399D1*
X32246Y8301D2*
X35342D1*
X32246Y8003D2*
X35272D1*
X32246Y7704D2*
X35338D1*
X32246Y7405D2*
X35403D1*
X32246Y7107D2*
X35280D1*
X32246Y6808D2*
X35301D1*
X32246Y6509D2*
X35477D1*
X32246Y6211D2*
X35305D1*
X32246Y5912D2*
X35280D1*
X32246Y5613D2*
X35391D1*
X32246Y5315D2*
X35350D1*
X32246Y5016D2*
X35272D1*
X32246Y4717D2*
X35333D1*
X32246Y4418D2*
X35411D1*
X32246Y4120D2*
X35284D1*
X32246Y3821D2*
X35297D1*
X32246Y3522D2*
X35272D1*
X32246Y3224D2*
X35272D1*
X32246Y2925D2*
X35272D1*
X36353Y13750D2*
X36309Y13911D1*
X36307Y13973D1*
X35585Y13976D1*
X35196D1*
X35184Y13870D1*
X35148Y13744D1*
X35124Y13696D1*
X35197Y13697D1*
Y12303D1*
X33803D1*
Y13697D1*
X33873D1*
X33838Y13784D1*
X33809Y13911D1*
X33807Y13973D1*
X33223Y13976D1*
X32218D1*
X32216Y11239D1*
Y2648D1*
X34297Y2650D1*
X35302D1*
X35303Y3697D1*
X35373D1*
X35338Y3784D1*
X35309Y3911D1*
X35305Y4042D1*
X35325Y4172D1*
X35369Y4295D1*
X35435Y4408D1*
X35514Y4497D1*
X35390Y4663D1*
X35338Y4784D1*
X35309Y4911D1*
X35305Y5042D1*
X35325Y5172D1*
X35369Y5295D1*
X35435Y5408D1*
X35514Y5497D1*
X35390Y5663D1*
X35338Y5784D1*
X35309Y5911D1*
X35305Y6042D1*
X35325Y6172D1*
X35369Y6295D1*
X35435Y6408D1*
X35514Y6497D1*
X35390Y6663D1*
X35338Y6784D1*
X35309Y6911D1*
X35305Y7042D1*
X35325Y7172D1*
X35369Y7295D1*
X35435Y7408D1*
X35514Y7497D1*
X35390Y7663D1*
X35338Y7784D1*
X35309Y7911D1*
X35305Y8042D1*
X35325Y8172D1*
X35369Y8295D1*
X35435Y8408D1*
X35514Y8497D1*
X35390Y8663D1*
X35338Y8784D1*
X35309Y8911D1*
X35305Y9042D1*
X35325Y9172D1*
X35369Y9295D1*
X35435Y9408D1*
X35514Y9497D1*
X35390Y9663D1*
X35338Y9784D1*
X35309Y9911D1*
X35305Y10042D1*
X35325Y10172D1*
X35369Y10295D1*
X35435Y10408D1*
X35522Y10507D1*
X35625Y10587D1*
X35742Y10647D1*
X35868Y10684D1*
X35998Y10697D1*
X36128Y10685D1*
X36254Y10649D1*
X36353Y10599D1*
X36354Y10739D1*
X36309Y10911D1*
X36305Y11042D1*
X36325Y11172D1*
X36354Y11253D1*
Y11740D1*
X36309Y11911D1*
X36305Y12042D1*
X36325Y12172D1*
X36354Y12253D1*
Y12741D1*
X36309Y12911D1*
X36305Y13042D1*
X36325Y13172D1*
X36354Y13261D1*
Y13741D1*
D29*
X38000Y14000D3*
D30*
X37000D3*
X38000Y13000D3*
X37000D3*
X38000Y12000D3*
X37000D3*
X38000Y11000D3*
X37000D3*
X38000Y10000D3*
X37000D3*
X38000Y9000D3*
X37000D3*
X38000Y8000D3*
X37000D3*
X38000Y7000D3*
X37000D3*
X38000Y6000D3*
X37000D3*
X38000Y5000D3*
X37000D3*
X38000Y4000D3*
X37000D3*
X38000Y3000D3*
X37000D3*
D29*
X19000Y2000D3*
D30*
X20000D3*
X21000D3*
X22000D3*
X23000D3*
X24000D3*
X25000D3*
X26000D3*
X27000D3*
X28000D3*
D29*
X40000Y3000D3*
D30*
X39000D3*
X40000Y4000D3*
X39000D3*
X40000Y5000D3*
X39000D3*
X40000Y6000D3*
X39000D3*
X40000Y7000D3*
X39000D3*
D29*
X40000Y9000D3*
D30*
X39000D3*
X40000Y10000D3*
X39000D3*
X40000Y11000D3*
X39000D3*
X40000Y12000D3*
X39000D3*
X40000Y13000D3*
X39000D3*
D29*
X7681Y14374D3*
D30*
X8681D3*
X9681D3*
D29*
X18549Y9100D3*
D30*
Y10100D3*
Y11100D3*
D29*
X27284Y9096D3*
D30*
Y10096D3*
Y11096D3*
D29*
X34500Y13000D3*
D30*
Y14000D3*
D29*
X29366Y11945D3*
D30*
Y12945D3*
Y13945D3*
D29*
X29378Y5001D3*
D30*
Y6001D3*
Y7001D3*
Y8001D3*
D29*
X36000Y3000D3*
D30*
Y4000D3*
Y5000D3*
Y6000D3*
Y7000D3*
Y8000D3*
Y9000D3*
Y10000D3*
D29*
X31000Y3000D3*
D30*
Y4000D3*
Y5000D3*
Y6000D3*
Y7000D3*
Y8000D3*
Y9000D3*
Y10000D3*
D29*
X13000Y1000D3*
D30*
X14000D3*
X15000D3*
X16000D3*
X17000D3*
X18000D3*
X19000D3*
X20000D3*
X21000D3*
X22000D3*
X23000D3*
X24000D3*
X25000D3*
X26000D3*
X27000D3*
X74500Y3000D2*
D14*
X73857D1*
X70188D1*
Y4004D1*
X68929D1*
X73857Y11014D2*
D13*
Y3000D1*
X47732Y9409D2*
Y7299D1*
Y2547D2*
X50783D1*
X50969Y2732D1*
X54925Y14370D2*
X54358Y13803D1*
X51752D1*
X51181Y14374D1*
X71940Y7876D2*
Y6813D1*
X61020Y1575D2*
Y1539D1*
X61925D1*
Y2531D1*
X62531D1*
Y3496D1*
X71817Y3553D2*
Y6690D1*
X71940Y6813D1*
X59858Y13996D2*
Y10386D1*
X59882Y10362D1*
Y5154D2*
Y3760D1*
X80500Y12000D2*
X81000Y12500D1*
X83000D1*
X83500Y12000D1*
X80500Y11000D2*
X81000Y11500D1*
X83000D1*
X83500Y11000D1*
X81500Y9000D2*
X82000Y9500D1*
X83000D1*
X83500Y10000D1*
X81500Y8000D2*
X81938Y8438D1*
X82938D1*
X83500Y9000D1*
X81500Y6000D2*
X82000Y5500D1*
X82823D1*
X83000Y5323D1*
Y4687D1*
X83500Y4187D1*
Y4000D1*
X68562Y4500D2*
Y3563D1*
X68625Y3500D1*
X69625D1*
Y2563D1*
X71000D1*
Y1000D1*
X70500D1*
X54750Y4173D2*
Y469D1*
X65969D1*
X66500Y1000D1*
X70784Y11096D2*
X72733D1*
X72866Y11229D1*
Y11945D1*
X83500Y7000D2*
X83505D1*
X84004Y6501D1*
Y2500D1*
X83942Y2438D1*
X81566D1*
X81504Y2500D1*
Y2996D1*
X81500Y3000D1*
X80500D2*
Y2504D1*
X80566Y2438D1*
X81566D1*
X66065Y6313D2*
X64940D1*
X73188Y10375D2*
Y10812D1*
X72904Y11096D1*
X72733D1*
X55979Y4061D2*
Y5616D1*
X56232D1*
X80500Y5000D2*
X81000Y4500D1*
X82813D1*
X83000Y4313D1*
Y3500D1*
X83500Y3000D1*
X62673Y14094D2*
X68370D1*
X68552Y13912D1*
Y9752D1*
X63996Y12031D2*
Y12856D1*
X63348Y13504D1*
X62673D1*
X54703Y6321D2*
D15*
Y9039D1*
Y10110D1*
X48453Y6261D2*
D13*
Y6583D1*
X50909Y9039D1*
X54703D1*
X65563Y7501D2*
X67000D1*
X80500Y4000D2*
X81000Y3500D1*
X82000D1*
X82500Y3000D1*
X62690Y12876D2*
Y12224D1*
X62959D1*
X63795Y11388D1*
Y9528D1*
X69278Y12939D2*
Y9331D1*
X81500Y14000D2*
X80937Y14563D1*
X74484D1*
X72866Y12945D1*
D18*
X68929Y4004D3*
X73857Y11014D3*
X47732Y9409D3*
Y7299D3*
Y2547D3*
X50969Y2732D3*
X54925Y14370D3*
X71940Y7876D3*
Y6813D3*
X61020Y1575D3*
X62531Y3496D3*
X71817Y3553D3*
X59858Y13996D3*
X59882Y10362D3*
Y5154D3*
Y3760D3*
X68562Y4500D3*
X54750Y4173D3*
X66065Y6313D3*
X64940D3*
X73188Y10375D3*
X56232Y5616D3*
X55979Y4061D3*
X62673Y14094D3*
X68552Y9752D3*
X63996Y12031D3*
X62673Y13504D3*
X54703Y6321D3*
Y10110D3*
X48453Y6261D3*
X67000Y7501D3*
X65563D3*
X62690Y12876D3*
X63795Y9528D3*
X69278Y12939D3*
Y9331D3*
X52250Y5846D3*
Y5346D3*
X60500Y13000D3*
Y12500D3*
Y12000D3*
Y11500D3*
Y11000D3*
Y10500D3*
Y10000D3*
Y9500D3*
Y9000D3*
Y8500D3*
Y8000D3*
Y7500D3*
Y7000D3*
Y6500D3*
Y6000D3*
X51795Y8453D3*
X48252Y1709D3*
X48752D3*
X52250Y4846D3*
Y4346D3*
X52750Y5846D3*
Y5346D3*
Y4846D3*
Y4346D3*
X49906Y13283D3*
X50406D3*
X50906D3*
X51406D3*
X76816Y9924D3*
Y9424D3*
Y8924D3*
Y8424D3*
X77379Y9924D3*
Y9424D3*
Y8924D3*
Y8424D3*
X76816Y7924D3*
X77379D3*
X75941Y9174D3*
Y8674D3*
X51906Y13283D3*
X52406D3*
X52906D3*
X53406D3*
X52295Y8453D3*
X52795D3*
X49252Y1709D3*
X49752D3*
X50252D3*
X50752D3*
X51252D3*
X51752D3*
X52252D3*
X52752D3*
X53252D3*
X53752D3*
X54252D3*
X51795Y7953D3*
X55252Y1709D3*
X55752D3*
X56252D3*
X56752D3*
X61000Y7500D3*
Y7000D3*
X52295Y7953D3*
X52795D3*
X44906Y11118D3*
X45406D3*
X45906D3*
X46406D3*
X46906D3*
X58083Y11496D3*
X58583D3*
X59083D3*
X61000Y6500D3*
X56750Y7096D3*
Y6596D3*
Y6096D3*
Y5596D3*
X61500Y7500D3*
Y7000D3*
Y6500D3*
X62000Y7500D3*
Y7000D3*
Y6500D3*
X62500Y7500D3*
Y7000D3*
Y6500D3*
X63000Y7500D3*
Y7000D3*
Y6500D3*
X63500Y7500D3*
Y7000D3*
Y6500D3*
X64000Y7500D3*
Y7000D3*
Y6500D3*
X64500Y7500D3*
Y7000D3*
Y6500D3*
X66000Y13500D3*
Y13000D3*
X66500Y13500D3*
Y13000D3*
X72000Y14000D3*
Y13500D3*
Y13000D3*
Y12500D3*
Y12000D3*
Y11500D3*
Y11000D3*
Y10500D3*
Y10000D3*
X72500Y1500D3*
X73000D3*
X73500D3*
X74000D3*
X74500D3*
X75000D3*
X75500D3*
X76000D3*
X76500D3*
X77000D3*
X77500D3*
X78000D3*
X78500D3*
X79000D3*
X79500D3*
X80000D3*
X80500D3*
X81000D3*
X81500D3*
X82000D3*
X82500D3*
X83000D3*
X83500D3*
X44500Y11000D3*
Y10500D3*
Y10000D3*
Y9500D3*
Y9000D3*
Y8500D3*
Y8000D3*
Y7500D3*
Y7000D3*
Y6500D3*
Y6000D3*
Y5500D3*
Y5000D3*
Y4500D3*
Y4000D3*
Y3500D3*
Y3000D3*
Y2500D3*
Y2000D3*
Y1500D3*
Y1000D3*
X44180Y14051D2*
D14*
X50454D1*
X55419D2*
X59267D1*
X60447D2*
X62085D1*
X68985D2*
X72149D1*
X74608D2*
X75175D1*
X82227D2*
X83820D1*
X44180Y13753D2*
X50454D1*
X54943D2*
X59321D1*
X60394D2*
X62138D1*
X69010D2*
X72165D1*
X74308D2*
X75175D1*
X82227D2*
X83820D1*
X44180Y13454D2*
X51475D1*
X54636D2*
X59403D1*
X60316D2*
X62085D1*
X64031D2*
X68097D1*
X69531D2*
X72341D1*
X74009D2*
X75175D1*
X44180Y13155D2*
X59403D1*
X60316D2*
X62171D1*
X64331D2*
X68097D1*
X69826D2*
X72173D1*
X73710D2*
X75175D1*
X44180Y12857D2*
X59403D1*
X60316D2*
X62097D1*
X64454D2*
X68097D1*
X69863D2*
X72145D1*
X73587D2*
X75175D1*
X44180Y12558D2*
X59403D1*
X60316D2*
X62195D1*
X64454D2*
X68097D1*
X69736D2*
X72140D1*
X73591D2*
X75175D1*
X44180Y12259D2*
X59403D1*
X60316D2*
X62232D1*
X64540D2*
X68097D1*
X69736D2*
X72140D1*
X73591D2*
X75175D1*
X44180Y11960D2*
X59403D1*
X60316D2*
X62323D1*
X64585D2*
X68097D1*
X69736D2*
X72140D1*
X73591D2*
X75175D1*
X44180Y11662D2*
X59403D1*
X60316D2*
X61609D1*
X62489D2*
X62888D1*
X64449D2*
X68097D1*
X69736D2*
X70348D1*
X71220D2*
X72140D1*
X73591D2*
X75175D1*
X44180Y11363D2*
X59403D1*
X60316D2*
X61375D1*
X62723D2*
X63188D1*
X64253D2*
X68097D1*
X69736D2*
X70110D1*
X71458D2*
X72140D1*
X74329D2*
X75175D1*
X44180Y11064D2*
X59403D1*
X60316D2*
X61322D1*
X62776D2*
X63340D1*
X64253D2*
X68097D1*
X69736D2*
X70057D1*
X71511D2*
X73268D1*
X74448D2*
X75175D1*
X44180Y10766D2*
X59403D1*
X60316D2*
X61408D1*
X62690D2*
X63340D1*
X64253D2*
X68097D1*
X69736D2*
X70139D1*
X71425D2*
X73322D1*
X74390D2*
X75175D1*
X44180Y10467D2*
X54239D1*
X55169D2*
X59300D1*
X60463D2*
X61428D1*
X62670D2*
X63340D1*
X64253D2*
X68097D1*
X69736D2*
X70164D1*
X71405D2*
X73399D1*
X44180Y10168D2*
X54112D1*
X55292D2*
X59325D1*
X60439D2*
X61326D1*
X62772D2*
X63340D1*
X64253D2*
X68097D1*
X69736D2*
X70061D1*
X71507D2*
X73399D1*
X44180Y9870D2*
X47378D1*
X48086D2*
X54116D1*
X55292D2*
X59583D1*
X60184D2*
X61363D1*
X62735D2*
X63319D1*
X64269D2*
X67974D1*
X69736D2*
X70094D1*
X71470D2*
X73399D1*
X44180Y9571D2*
X47165D1*
X48300D2*
X54116D1*
X55292D2*
X61322D1*
X62776D2*
X63204D1*
X64384D2*
X67990D1*
X69814D2*
X70057D1*
X71511D2*
X73399D1*
X44180Y9272D2*
X47157D1*
X48308D2*
X50507D1*
X55292D2*
X61322D1*
X62776D2*
X63266D1*
X64326D2*
X68228D1*
X69867D2*
X70057D1*
X71511D2*
X73399D1*
X44180Y8974D2*
X47276D1*
X48189D2*
X50212D1*
X55292D2*
X61322D1*
X62776D2*
X63672D1*
X63920D2*
X68814D1*
X69740D2*
X70057D1*
X71511D2*
X73399D1*
X44180Y8675D2*
X47276D1*
X48189D2*
X49913D1*
X55292D2*
X61322D1*
X62776D2*
X70057D1*
X71511D2*
X72674D1*
X73082D2*
X73399D1*
X44180Y8376D2*
X47276D1*
X48189D2*
X49613D1*
X50879D2*
X54116D1*
X55292D2*
X71656D1*
X44180Y8078D2*
X47276D1*
X48189D2*
X49314D1*
X50580D2*
X54116D1*
X55292D2*
X71386D1*
X83195D2*
X83820D1*
X44180Y7779D2*
X47276D1*
X48189D2*
X49015D1*
X50284D2*
X54116D1*
X55292D2*
X65046D1*
X67517D2*
X71357D1*
X82191D2*
X83820D1*
X44180Y7480D2*
X47169D1*
X48295D2*
X48715D1*
X49985D2*
X54116D1*
X55292D2*
X64972D1*
X67591D2*
X71484D1*
X44180Y7181D2*
X47153D1*
X49686D2*
X54116D1*
X55292D2*
X65070D1*
X67492D2*
X71484D1*
X44180Y6883D2*
X47325D1*
X49386D2*
X54116D1*
X55292D2*
X71353D1*
X44180Y6584D2*
X47965D1*
X49087D2*
X54116D1*
X55292D2*
X71361D1*
X44180Y6285D2*
X47862D1*
X49046D2*
X54112D1*
X55292D2*
X71361D1*
X44180Y5987D2*
X47932D1*
X48972D2*
X54223D1*
X55185D2*
X71361D1*
X44180Y5688D2*
X59677D1*
X60086D2*
X71361D1*
X44180Y5389D2*
X59341D1*
X60422D2*
X71361D1*
X44180Y5091D2*
X59292D1*
X60471D2*
X71361D1*
X44180Y4792D2*
X59423D1*
X60340D2*
X68052D1*
X69071D2*
X71361D1*
X44180Y4493D2*
X54260D1*
X55243D2*
X59423D1*
X60340D2*
X67970D1*
X70367D2*
X71361D1*
X75022D2*
X75178D1*
X44180Y4195D2*
X54157D1*
X55341D2*
X59423D1*
X60340D2*
X68060D1*
X70691D2*
X71361D1*
X44180Y3896D2*
X54231D1*
X55267D2*
X59308D1*
X60455D2*
X62105D1*
X62957D2*
X68105D1*
X70728D2*
X71341D1*
X44180Y3597D2*
X54293D1*
X55206D2*
X59312D1*
X60451D2*
X61949D1*
X63112D2*
X68105D1*
X70728D2*
X71226D1*
X44180Y3299D2*
X54293D1*
X55206D2*
X59530D1*
X60234D2*
X61974D1*
X63088D2*
X68195D1*
X44180Y3000D2*
X47370D1*
X48094D2*
X50446D1*
X51494D2*
X54293D1*
X55206D2*
X62076D1*
X62989D2*
X69167D1*
X44180Y2701D2*
X47161D1*
X51560D2*
X54293D1*
X55206D2*
X61502D1*
X62989D2*
X69167D1*
X44180Y2402D2*
X47161D1*
X51453D2*
X54293D1*
X55206D2*
X61469D1*
X72098D2*
X73773D1*
X80886D2*
X81114D1*
X81887D2*
X82110D1*
X44180Y2104D2*
X47358D1*
X48107D2*
X54293D1*
X55206D2*
X60801D1*
X61238D2*
X61469D1*
X72217D2*
X83820D1*
X44180Y1805D2*
X54293D1*
X55206D2*
X60477D1*
X72200D2*
X83820D1*
X44180Y1506D2*
X54293D1*
X55206D2*
X55773D1*
X72020D2*
X83820D1*
X44180Y1208D2*
X54293D1*
X55206D2*
X55773D1*
X71458D2*
X83820D1*
X44180Y909D2*
X54293D1*
X55206D2*
X55773D1*
X71446D2*
X83820D1*
X82197Y14348D2*
Y13626D1*
X82368Y13684D1*
X82498Y13697D1*
X82628Y13685D1*
X82754Y13649D1*
X82871Y13589D1*
X83000Y13482D1*
X83061Y13541D1*
X83170Y13614D1*
X83291Y13665D1*
X83419Y13692D1*
X83550Y13695D1*
X83680Y13673D1*
X83803Y13628D1*
X83850Y13603D1*
Y14349D1*
X82200Y14350D1*
X82184Y7870D2*
X82148Y7744D1*
X82088Y7627D1*
X81980Y7499D1*
X82022Y7507D1*
X82125Y7587D1*
X82242Y7647D1*
X82368Y7684D1*
X82498Y7697D1*
X82628Y7685D1*
X82754Y7649D1*
X82871Y7589D1*
X83000Y7482D1*
X83061Y7541D1*
X83170Y7614D1*
X83291Y7665D1*
X83419Y7692D1*
X83550Y7695D1*
X83680Y7673D1*
X83803Y7628D1*
X83850Y7603D1*
Y8304D1*
X83405Y8303D1*
X83239Y8136D1*
X83134Y8058D1*
X83006Y8017D1*
X82806Y8011D1*
X82195D1*
X82184Y7870D1*
X81999Y2515D2*
X81888Y2422D1*
X81773Y2359D1*
X81648Y2319D1*
X81518Y2304D1*
X81387Y2313D1*
X81261Y2346D1*
X81142Y2402D1*
X81037Y2480D1*
X80999Y2515D1*
X80910Y2437D1*
X80797Y2370D1*
X80674Y2325D1*
X80544Y2305D1*
X80413Y2309D1*
X80321Y2327D1*
X80302Y2295D1*
X80209Y2202D1*
X80090Y2149D1*
X79873Y2138D1*
X75566D1*
X75437Y2162D1*
X75326Y2229D1*
X75245Y2332D1*
X75207Y2461D1*
X75204Y3419D1*
X75205Y14130D1*
X74901Y14136D1*
X74659D1*
X73559Y13034D1*
X73563Y12945D1*
X73550Y12814D1*
X73514Y12689D1*
X73490Y12641D1*
X73563Y12642D1*
Y11492D1*
X73704Y11555D1*
X73833Y11575D1*
X73964Y11565D1*
X74089Y11526D1*
X74201Y11458D1*
X74294Y11367D1*
X74364Y11256D1*
X74407Y11132D1*
X74419Y11014D1*
X74404Y10884D1*
X74359Y10761D1*
X74298Y10669D1*
X74446Y10695D1*
X74577Y10692D1*
X74705Y10666D1*
X74826Y10616D1*
X74935Y10544D1*
X75030Y10453D1*
X75105Y10345D1*
X75159Y10226D1*
X75190Y10099D1*
X75196Y9974D1*
X75179Y9844D1*
X75138Y9719D1*
X75074Y9605D1*
X74984Y9499D1*
X75062Y9411D1*
X75129Y9299D1*
X75174Y9176D1*
X75197Y9000D1*
X75184Y8870D1*
X75148Y8744D1*
X75088Y8627D1*
X74980Y8499D1*
X75062Y8411D1*
X75129Y8299D1*
X75174Y8176D1*
X75197Y8000D1*
X75184Y7870D1*
X75148Y7744D1*
X75088Y7627D1*
X74980Y7499D1*
X75062Y7411D1*
X75129Y7299D1*
X75174Y7176D1*
X75197Y7000D1*
X75184Y6870D1*
X75148Y6744D1*
X75088Y6627D1*
X74980Y6499D1*
X75062Y6411D1*
X75129Y6299D1*
X75174Y6176D1*
X75197Y6000D1*
X75184Y5870D1*
X75148Y5744D1*
X75088Y5627D1*
X74980Y5499D1*
X75062Y5411D1*
X75129Y5299D1*
X75174Y5176D1*
X75197Y5000D1*
X75184Y4870D1*
X75148Y4744D1*
X75088Y4627D1*
X74980Y4499D1*
X75030Y4453D1*
X75105Y4345D1*
X75159Y4226D1*
X75190Y4099D1*
X75196Y3974D1*
X75179Y3844D1*
X75138Y3719D1*
X75127Y3696D1*
X75197Y3697D1*
Y2303D1*
X73803D1*
Y2488D1*
X71999D1*
X72092Y2368D1*
X72150Y2251D1*
X72185Y2125D1*
X72197Y2000D1*
X72184Y1870D1*
X72148Y1744D1*
X72088Y1627D1*
X72008Y1523D1*
X71910Y1437D1*
X71797Y1370D1*
X71674Y1325D1*
X71544Y1305D1*
X71427Y1307D1*
Y1000D1*
X71407Y871D1*
X71349Y754D1*
X71266Y667D1*
X71297Y650D1*
X83850D1*
Y2300D1*
X82884Y2303D1*
X82803D1*
Y2373D1*
X82674Y2325D1*
X82544Y2305D1*
X82413Y2309D1*
X82285Y2337D1*
X82165Y2389D1*
X82057Y2463D1*
X82002Y2518D1*
X62956Y2697D2*
X63197D1*
Y2627D1*
X63368Y2684D1*
X63498Y2697D1*
X63628Y2685D1*
X63754Y2649D1*
X63871Y2589D1*
X64000Y2482D1*
X64125Y2587D1*
X64242Y2647D1*
X64368Y2684D1*
X64498Y2697D1*
X64628Y2685D1*
X64754Y2649D1*
X64871Y2589D1*
X65000Y2482D1*
X65125Y2587D1*
X65242Y2647D1*
X65368Y2684D1*
X65498Y2697D1*
X65628Y2685D1*
X65754Y2649D1*
X65871Y2589D1*
X66000Y2482D1*
X66061Y2541D1*
X66170Y2614D1*
X66291Y2665D1*
X66419Y2692D1*
X66550Y2695D1*
X66680Y2673D1*
X66803Y2628D1*
X66915Y2560D1*
X67000Y2485D1*
X67125Y2587D1*
X67242Y2647D1*
X67368Y2684D1*
X67498Y2697D1*
X67628Y2685D1*
X67754Y2649D1*
X67871Y2589D1*
X68000Y2482D1*
X68125Y2587D1*
X68242Y2647D1*
X68368Y2684D1*
X68498Y2697D1*
X68628Y2685D1*
X68754Y2649D1*
X68871Y2589D1*
X69000Y2482D1*
X69125Y2587D1*
X69202Y2626D1*
X69198Y3075D1*
X68625Y3073D1*
X68496Y3093D1*
X68356Y3168D1*
X68222Y3305D1*
X68165Y3408D1*
X68137Y3534D1*
X68136Y4133D1*
X68090Y4195D1*
X68033Y4313D1*
X68004Y4441D1*
X68005Y4571D1*
X68037Y4699D1*
X68097Y4815D1*
X68182Y4914D1*
X68289Y4991D1*
X68410Y5041D1*
X68539Y5061D1*
X68669Y5052D1*
X68794Y5012D1*
X68906Y4945D1*
X69000Y4853D1*
X69070Y4742D1*
X69112Y4618D1*
X69121Y4533D1*
X69164Y4514D1*
X70188Y4516D1*
X70317Y4499D1*
X70439Y4450D1*
X70544Y4372D1*
X70625Y4270D1*
X70678Y4150D1*
X70700Y4004D1*
Y3516D1*
X70975Y3512D1*
X71258D1*
X71260Y3625D1*
X71291Y3752D1*
X71351Y3868D1*
X71391Y3914D1*
Y6694D1*
X71382Y6754D1*
X71383Y6885D1*
X71415Y7012D1*
X71475Y7128D1*
X71515Y7175D1*
X71514Y7514D1*
X71468Y7571D1*
X71411Y7689D1*
X71382Y7816D1*
X71383Y7947D1*
X71415Y8074D1*
X71475Y8191D1*
X71560Y8290D1*
X71667Y8367D1*
X71788Y8417D1*
X71917Y8437D1*
X72047Y8428D1*
X72172Y8388D1*
X72267Y8331D1*
X72314Y8409D1*
X72400Y8507D1*
X72503Y8588D1*
X72620Y8648D1*
X72746Y8684D1*
X72876Y8697D1*
X73007Y8685D1*
X73133Y8649D1*
X73249Y8590D1*
X73353Y8510D1*
X73432Y8421D1*
X73430Y10648D1*
X73385Y10709D1*
X73327Y10827D1*
X73298Y10954D1*
X73300Y11085D1*
X73331Y11212D1*
X73348Y11245D1*
X73117Y11248D1*
X72170D1*
Y12642D1*
X72239D1*
X72204Y12728D1*
X72175Y12856D1*
X72171Y12987D1*
X72191Y13117D1*
X72235Y13240D1*
X72302Y13353D1*
X72380Y13442D1*
X72256Y13608D1*
X72204Y13728D1*
X72175Y13856D1*
X72171Y13987D1*
X72191Y14117D1*
X72235Y14240D1*
X72300Y14350D1*
X68715D1*
X68854Y14214D1*
X68932Y14109D1*
X68973Y13981D1*
X68979Y13781D1*
Y13416D1*
X69125Y13480D1*
X69254Y13500D1*
X69384Y13491D1*
X69509Y13451D1*
X69621Y13383D1*
X69715Y13292D1*
X69785Y13181D1*
X69827Y13057D1*
X69840Y12939D1*
X69824Y12809D1*
X69779Y12686D1*
X69704Y12574D1*
X69705Y9695D1*
X69785Y9573D1*
X69827Y9449D1*
X69840Y9331D1*
X69824Y9201D1*
X69779Y9078D1*
X69707Y8968D1*
X69612Y8879D1*
X69498Y8814D1*
X69372Y8777D1*
X69242Y8770D1*
X69113Y8793D1*
X68993Y8846D1*
X68889Y8925D1*
X68805Y9026D1*
X68748Y9144D1*
X68730Y9219D1*
X68647Y9198D1*
X68517Y9191D1*
X68388Y9215D1*
X68268Y9267D1*
X68164Y9346D1*
X68080Y9447D1*
X68022Y9565D1*
X67994Y9693D1*
X67995Y9823D1*
X68027Y9951D1*
X68087Y10067D1*
X68127Y10113D1*
X68125Y13668D1*
X63789D1*
X64298Y13158D1*
X64375Y13052D1*
X64417Y12924D1*
X64423Y12725D1*
Y12401D1*
X64503Y12274D1*
X64545Y12150D1*
X64558Y12031D1*
X64543Y11901D1*
X64498Y11778D1*
X64426Y11669D1*
X64330Y11580D1*
X64205Y11511D1*
X64222Y11388D1*
Y9891D1*
X64302Y9770D1*
X64345Y9646D1*
X64357Y9528D1*
X64342Y9398D1*
X64297Y9275D1*
X64225Y9165D1*
X64129Y9076D1*
X64016Y9011D1*
X63890Y8974D1*
X63759Y8967D1*
X63631Y8990D1*
X63511Y9043D1*
X63406Y9122D1*
X63323Y9223D1*
X63265Y9340D1*
X63236Y9468D1*
X63238Y9599D1*
X63270Y9726D1*
X63330Y9842D1*
X63370Y9889D1*
X63368Y11213D1*
X62783Y11796D1*
X62690Y11797D1*
X62560Y11817D1*
X62443Y11876D1*
X62349Y11966D1*
X62287Y12081D1*
X62263Y12224D1*
Y12507D1*
X62217Y12572D1*
X62160Y12689D1*
X62131Y12817D1*
X62132Y12948D1*
X62164Y13075D1*
X62218Y13180D1*
X62143Y13317D1*
X62114Y13445D1*
X62116Y13575D1*
X62147Y13702D1*
X62198Y13801D1*
X62143Y13907D1*
X62114Y14035D1*
X62116Y14166D1*
X62147Y14293D1*
X62176Y14348D1*
X60292Y14350D1*
X60365Y14238D1*
X60408Y14114D1*
X60420Y13996D1*
X60405Y13866D1*
X60360Y13743D1*
X60285Y13631D1*
Y10752D1*
X60319Y10715D1*
X60389Y10604D1*
X60431Y10480D1*
X60444Y10362D1*
X60429Y10232D1*
X60384Y10109D1*
X60312Y10000D1*
X60216Y9910D1*
X60102Y9845D1*
X59977Y9808D1*
X59846Y9801D1*
X59717Y9825D1*
X59597Y9878D1*
X59493Y9957D1*
X59410Y10058D1*
X59352Y10175D1*
X59323Y10303D1*
X59324Y10434D1*
X59356Y10561D1*
X59430Y10693D1*
X59431Y13630D1*
X59386Y13691D1*
X59328Y13809D1*
X59299Y13937D1*
X59301Y14068D1*
X59333Y14195D1*
X59393Y14311D1*
X59427Y14351D1*
X55485Y14350D1*
X55472Y14240D1*
X55427Y14117D1*
X55355Y14008D1*
X55259Y13918D1*
X55146Y13853D1*
X55020Y13816D1*
X54975Y13814D1*
X54660Y13501D1*
X54555Y13424D1*
X54427Y13382D1*
X54227Y13376D1*
X51752D1*
X51623Y13396D1*
X51503Y13457D1*
X51357Y13594D1*
X51273Y13678D1*
X50484Y13677D1*
Y14354D1*
X49879Y14350D1*
X44150D1*
Y651D1*
X54322Y650D1*
X54323Y3811D1*
X54278Y3869D1*
X54220Y3986D1*
X54191Y4114D1*
X54193Y4245D1*
X54224Y4372D1*
X54284Y4488D1*
X54370Y4587D1*
X54476Y4664D1*
X54597Y4714D1*
X54726Y4735D1*
X54857Y4725D1*
X54982Y4685D1*
X55094Y4618D1*
X55187Y4526D1*
X55257Y4415D1*
X55299Y4291D1*
X55312Y4173D1*
X55297Y4043D1*
X55252Y3920D1*
X55177Y3808D1*
Y896D1*
X55804Y895D1*
X55803Y1697D1*
X57197D1*
Y1627D1*
X57368Y1684D1*
X57498Y1697D1*
X57628Y1685D1*
X57754Y1649D1*
X57871Y1589D1*
X58000Y1482D1*
X58125Y1587D1*
X58242Y1647D1*
X58368Y1684D1*
X58498Y1697D1*
X58628Y1685D1*
X58754Y1649D1*
X58871Y1589D1*
X59000Y1482D1*
X59061Y1541D1*
X59170Y1614D1*
X59291Y1665D1*
X59419Y1692D1*
X59550Y1695D1*
X59680Y1673D1*
X59803Y1628D1*
X59915Y1560D1*
X60000Y1485D1*
X60103Y1573D1*
X60218Y1637D1*
X60342Y1678D1*
X60471Y1696D1*
X60494Y1773D1*
X60554Y1890D1*
X60640Y1989D1*
X60746Y2066D1*
X60867Y2116D1*
X60996Y2136D1*
X61127Y2127D1*
X61251Y2087D1*
X61364Y2019D1*
X61419Y1965D1*
X61498Y2064D1*
Y2531D1*
X61518Y2661D1*
X61576Y2778D1*
X61667Y2872D1*
X61782Y2934D1*
X61925Y2958D1*
X62102D1*
X62105Y3134D1*
X62059Y3191D1*
X62002Y3309D1*
X61973Y3437D1*
X61974Y3568D1*
X62006Y3695D1*
X62066Y3811D1*
X62151Y3910D1*
X62258Y3987D1*
X62379Y4037D1*
X62508Y4058D1*
X62638Y4048D1*
X62763Y4008D1*
X62875Y3941D1*
X62969Y3849D1*
X63039Y3738D1*
X63081Y3614D1*
X63093Y3496D1*
X63078Y3366D1*
X63033Y3243D1*
X62958Y3131D1*
Y2696D1*
X62677Y9796D2*
X62745D1*
Y8403D1*
X61352D1*
Y9796D1*
X61422D1*
X61387Y9883D1*
X61358Y10011D1*
X61353Y10142D1*
X61374Y10272D1*
X61418Y10395D1*
X61484Y10508D1*
X61562Y10597D1*
X61466Y10718D1*
X61405Y10834D1*
X61366Y10959D1*
X61352Y11090D1*
X61363Y11220D1*
X61397Y11347D1*
X61455Y11464D1*
X61534Y11569D1*
X61631Y11657D1*
X61743Y11726D1*
X61865Y11772D1*
X61994Y11794D1*
X62125Y11792D1*
X62254Y11766D1*
X62375Y11716D1*
X62484Y11644D1*
X62578Y11552D1*
X62654Y11445D1*
X62708Y11326D1*
X62738Y11198D1*
X62745Y11074D1*
X62728Y10944D1*
X62686Y10819D1*
X62623Y10705D1*
X62533Y10599D1*
X62611Y10511D1*
X62678Y10399D1*
X62723Y10276D1*
X62745Y10100D1*
X62733Y9969D1*
X62696Y9844D1*
X62672Y9796D1*
X71412Y9793D2*
X71480D1*
Y8399D1*
X70087D1*
Y9793D1*
X70157D1*
X70122Y9880D1*
X70093Y10007D1*
X70088Y10138D1*
X70109Y10268D1*
X70153Y10391D1*
X70219Y10504D1*
X70297Y10593D1*
X70201Y10714D1*
X70140Y10830D1*
X70101Y10956D1*
X70087Y11086D1*
X70098Y11217D1*
X70132Y11343D1*
X70190Y11461D1*
X70269Y11565D1*
X70366Y11653D1*
X70478Y11722D1*
X70600Y11768D1*
X70729Y11791D1*
X70860Y11788D1*
X70989Y11762D1*
X71110Y11712D1*
X71219Y11640D1*
X71313Y11549D1*
X71389Y11441D1*
X71443Y11322D1*
X71473Y11195D1*
X71480Y11070D1*
X71463Y10940D1*
X71421Y10815D1*
X71358Y10701D1*
X71268Y10595D1*
X71346Y10507D1*
X71413Y10395D1*
X71458Y10272D1*
X71480Y10096D1*
X71468Y9966D1*
X71432Y9840D1*
X71407Y9792D1*
X48159Y9044D2*
Y7667D1*
X48239Y7541D1*
X48282Y7417D1*
X48294Y7299D1*
X48279Y7169D1*
X48234Y7046D1*
X48162Y6937D1*
X48066Y6847D1*
X47953Y6782D1*
X47827Y6745D1*
X47696Y6738D1*
X47568Y6762D1*
X47448Y6815D1*
X47343Y6894D1*
X47260Y6995D1*
X47202Y7112D1*
X47173Y7240D1*
X47175Y7371D1*
X47207Y7498D1*
X47267Y7614D1*
X47307Y7661D1*
X47305Y9042D1*
X47260Y9105D1*
X47202Y9222D1*
X47173Y9350D1*
X47175Y9481D1*
X47207Y9608D1*
X47267Y9724D1*
X47352Y9823D1*
X47458Y9900D1*
X47579Y9950D1*
X47709Y9971D1*
X47839Y9961D1*
X47964Y9921D1*
X48076Y9854D1*
X48170Y9762D1*
X48239Y9652D1*
X48282Y9528D1*
X48294Y9409D1*
X48279Y9279D1*
X48234Y9156D1*
X48159Y9044D1*
X48097Y2974D2*
X50459D1*
X50503Y3047D1*
X50588Y3146D1*
X50695Y3223D1*
X50816Y3273D1*
X50945Y3294D1*
X51075Y3284D1*
X51200Y3244D1*
X51312Y3177D1*
X51406Y3085D1*
X51476Y2974D1*
X51518Y2850D1*
X51530Y2732D1*
X51515Y2602D1*
X51470Y2479D1*
X51398Y2370D1*
X51303Y2280D1*
X51189Y2215D1*
X51063Y2178D1*
X50980Y2168D1*
X50852Y2126D1*
X50652Y2120D1*
X48097D1*
X47953Y2030D1*
X47827Y1993D1*
X47696Y1986D1*
X47568Y2010D1*
X47448Y2063D1*
X47343Y2142D1*
X47260Y2243D1*
X47202Y2360D1*
X47173Y2488D1*
X47175Y2619D1*
X47207Y2746D1*
X47267Y2862D1*
X47352Y2961D1*
X47458Y3038D1*
X47579Y3088D1*
X47709Y3109D1*
X47839Y3099D1*
X47964Y3059D1*
X48097Y2972D1*
X60309Y4789D2*
Y4124D1*
X60389Y4002D1*
X60431Y3878D1*
X60444Y3760D1*
X60429Y3630D1*
X60384Y3507D1*
X60312Y3398D1*
X60216Y3308D1*
X60102Y3243D1*
X59977Y3206D1*
X59846Y3199D1*
X59717Y3222D1*
X59597Y3275D1*
X59493Y3354D1*
X59410Y3455D1*
X59352Y3573D1*
X59323Y3700D1*
X59324Y3831D1*
X59356Y3958D1*
X59416Y4075D1*
X59456Y4121D1*
X59455Y4789D1*
X59410Y4849D1*
X59352Y4966D1*
X59323Y5094D1*
X59324Y5225D1*
X59356Y5352D1*
X59416Y5468D1*
X59502Y5568D1*
X59608Y5644D1*
X59729Y5694D1*
X59858Y5715D1*
X59989Y5705D1*
X60114Y5666D1*
X60226Y5598D1*
X60319Y5506D1*
X60389Y5396D1*
X60431Y5272D1*
X60444Y5154D1*
X60429Y5024D1*
X60384Y4901D1*
X60309Y4788D1*
X54144Y6382D2*
Y8613D1*
X51090Y8612D1*
X49819Y7346D1*
X48964Y6490D1*
X49002Y6379D1*
X49015Y6261D1*
X49000Y6131D1*
X48955Y6008D1*
X48882Y5898D1*
X48787Y5809D1*
X48673Y5744D1*
X48548Y5707D1*
X48417Y5700D1*
X48288Y5723D1*
X48168Y5776D1*
X48064Y5855D1*
X47981Y5956D1*
X47923Y6074D1*
X47894Y6201D1*
X47895Y6332D1*
X47927Y6459D1*
X47987Y6576D1*
X48027Y6622D1*
X48046Y6712D1*
X48107Y6832D1*
X48244Y6977D1*
X50608Y9341D1*
X50713Y9418D1*
X50841Y9460D1*
X51041Y9466D1*
X54145D1*
X54146Y10182D1*
X54177Y10309D1*
X54237Y10425D1*
X54323Y10524D1*
X54429Y10601D1*
X54550Y10651D1*
X54679Y10672D1*
X54810Y10662D1*
X54935Y10622D1*
X55047Y10555D1*
X55140Y10463D1*
X55210Y10352D1*
X55252Y10228D1*
X55262Y10082D1*
X55265Y6321D1*
X55250Y6191D1*
X55205Y6068D1*
X55133Y5959D1*
X55037Y5869D1*
X54924Y5804D1*
X54798Y5767D1*
X54667Y5760D1*
X54538Y5784D1*
X54419Y5836D1*
X54314Y5915D1*
X54231Y6016D1*
X54173Y6134D1*
X54144Y6261D1*
X54145Y6298D1*
X65927Y7928D2*
X66633D1*
X66726Y7991D1*
X66847Y8042D1*
X66976Y8062D1*
X67107Y8053D1*
X67232Y8013D1*
X67344Y7945D1*
X67437Y7854D1*
X67507Y7743D1*
X67549Y7619D1*
X67562Y7501D1*
X67547Y7371D1*
X67502Y7248D1*
X67430Y7139D1*
X67334Y7049D1*
X67221Y6984D1*
X67095Y6947D1*
X66964Y6940D1*
X66835Y6963D1*
X66715Y7016D1*
X66640Y7073D1*
X65930Y7074D1*
X65783Y6984D1*
X65657Y6947D1*
X65527Y6940D1*
X65398Y6963D1*
X65278Y7016D1*
X65174Y7095D1*
X65090Y7196D1*
X65033Y7314D1*
X65004Y7441D1*
X65005Y7572D1*
X65037Y7699D1*
X65097Y7816D1*
X65182Y7915D1*
X65289Y7991D1*
X65410Y8042D1*
X65539Y8062D1*
X65669Y8053D1*
X65794Y8013D1*
X65927Y7925D1*
X81500Y3000D2*
D18*
Y2304D1*
X80500Y3000D2*
Y2304D1*
X66500Y2696D2*
Y2000D1*
X71500D2*
Y1304D1*
Y2000D2*
X72196D1*
X83500Y7696D2*
Y7000D1*
Y13696D2*
Y13000D1*
X62049Y11796D2*
Y11100D1*
X61353D2*
X62745D1*
X70784Y11792D2*
Y11096D1*
X70088D2*
X71480D1*
X72866Y11945D2*
Y11249D1*
X72170Y11945D2*
X73562D1*
X74500Y4000D2*
X75196D1*
X74500Y10696D2*
Y10000D1*
X75196D1*
X59500Y1696D2*
Y1000D1*
X60500Y1696D2*
Y1000D1*
X75746Y13678D2*
D14*
X77275D1*
X78725D2*
X79826D1*
X75746Y13379D2*
X77275D1*
X78725D2*
X79826D1*
X75746Y13080D2*
X77275D1*
X78725D2*
X79777D1*
X75746Y12782D2*
X77275D1*
X78725D2*
X79809D1*
X75746Y12483D2*
X77275D1*
X78725D2*
X79826D1*
X75746Y12184D2*
X79797D1*
X75746Y11886D2*
X79785D1*
X75746Y11587D2*
X79826D1*
X75746Y11288D2*
X79826D1*
X75746Y10990D2*
X79773D1*
X75746Y10691D2*
X79383D1*
X79619D2*
X79826D1*
X75746Y10392D2*
X78895D1*
X75746Y10094D2*
X78780D1*
X75746Y9795D2*
X78805D1*
X75746Y9496D2*
X78981D1*
X75746Y9197D2*
X78801D1*
X75746Y8899D2*
X78780D1*
X75746Y8600D2*
X78899D1*
X75746Y8301D2*
X78842D1*
X75746Y8003D2*
X78772D1*
X75746Y7704D2*
X78838D1*
X75746Y7405D2*
X78903D1*
X75746Y7107D2*
X78780D1*
X75746Y6808D2*
X78801D1*
X75746Y6509D2*
X78977D1*
X75746Y6211D2*
X78805D1*
X75746Y5912D2*
X78780D1*
X75746Y5613D2*
X78891D1*
X75746Y5315D2*
X78850D1*
X75746Y5016D2*
X78772D1*
X75746Y4717D2*
X78833D1*
X75746Y4418D2*
X78911D1*
X75746Y4120D2*
X78784D1*
X75746Y3821D2*
X78797D1*
X75746Y3522D2*
X78772D1*
X75746Y3224D2*
X78772D1*
X75746Y2925D2*
X78772D1*
X79853Y13750D2*
X79809Y13911D1*
X79807Y13973D1*
X79085Y13976D1*
X78696D1*
X78684Y13870D1*
X78648Y13744D1*
X78624Y13696D1*
X78697Y13697D1*
Y12303D1*
X77303D1*
Y13697D1*
X77373D1*
X77338Y13784D1*
X77309Y13911D1*
X77307Y13973D1*
X76723Y13976D1*
X75718D1*
X75716Y11239D1*
Y2648D1*
X77797Y2650D1*
X78802D1*
X78803Y3697D1*
X78873D1*
X78838Y3784D1*
X78809Y3911D1*
X78805Y4042D1*
X78825Y4172D1*
X78869Y4295D1*
X78935Y4408D1*
X79014Y4497D1*
X78890Y4663D1*
X78838Y4784D1*
X78809Y4911D1*
X78805Y5042D1*
X78825Y5172D1*
X78869Y5295D1*
X78935Y5408D1*
X79014Y5497D1*
X78890Y5663D1*
X78838Y5784D1*
X78809Y5911D1*
X78805Y6042D1*
X78825Y6172D1*
X78869Y6295D1*
X78935Y6408D1*
X79014Y6497D1*
X78890Y6663D1*
X78838Y6784D1*
X78809Y6911D1*
X78805Y7042D1*
X78825Y7172D1*
X78869Y7295D1*
X78935Y7408D1*
X79014Y7497D1*
X78890Y7663D1*
X78838Y7784D1*
X78809Y7911D1*
X78805Y8042D1*
X78825Y8172D1*
X78869Y8295D1*
X78935Y8408D1*
X79014Y8497D1*
X78890Y8663D1*
X78838Y8784D1*
X78809Y8911D1*
X78805Y9042D1*
X78825Y9172D1*
X78869Y9295D1*
X78935Y9408D1*
X79014Y9497D1*
X78890Y9663D1*
X78838Y9784D1*
X78809Y9911D1*
X78805Y10042D1*
X78825Y10172D1*
X78869Y10295D1*
X78935Y10408D1*
X79022Y10507D1*
X79125Y10587D1*
X79242Y10647D1*
X79368Y10684D1*
X79498Y10697D1*
X79628Y10685D1*
X79754Y10649D1*
X79853Y10599D1*
X79854Y10739D1*
X79809Y10911D1*
X79805Y11042D1*
X79825Y11172D1*
X79854Y11253D1*
Y11740D1*
X79809Y11911D1*
X79805Y12042D1*
X79825Y12172D1*
X79854Y12253D1*
Y12741D1*
X79809Y12911D1*
X79805Y13042D1*
X79825Y13172D1*
X79854Y13261D1*
Y13741D1*
D29*
X81500Y14000D3*
D30*
X80500D3*
X81500Y13000D3*
X80500D3*
X81500Y12000D3*
X80500D3*
X81500Y11000D3*
X80500D3*
X81500Y10000D3*
X80500D3*
X81500Y9000D3*
X80500D3*
X81500Y8000D3*
X80500D3*
X81500Y7000D3*
X80500D3*
X81500Y6000D3*
X80500D3*
X81500Y5000D3*
X80500D3*
X81500Y4000D3*
X80500D3*
X81500Y3000D3*
X80500D3*
D29*
X62500Y2000D3*
D30*
X63500D3*
X64500D3*
X65500D3*
X66500D3*
X67500D3*
X68500D3*
X69500D3*
X70500D3*
X71500D3*
D29*
X83500Y3000D3*
D30*
X82500D3*
X83500Y4000D3*
X82500D3*
X83500Y5000D3*
X82500D3*
X83500Y6000D3*
X82500D3*
X83500Y7000D3*
X82500D3*
D29*
X83500Y9000D3*
D30*
X82500D3*
X83500Y10000D3*
X82500D3*
X83500Y11000D3*
X82500D3*
X83500Y12000D3*
X82500D3*
X83500Y13000D3*
X82500D3*
D29*
X51181Y14374D3*
D30*
X52181D3*
X53181D3*
D29*
X62049Y9100D3*
D30*
Y10100D3*
Y11100D3*
D29*
X70784Y9096D3*
D30*
Y10096D3*
Y11096D3*
D29*
X78000Y13000D3*
D30*
Y14000D3*
D29*
X72866Y11945D3*
D30*
Y12945D3*
Y13945D3*
D29*
X72878Y5001D3*
D30*
Y6001D3*
Y7001D3*
Y8001D3*
D29*
X79500Y3000D3*
D30*
Y4000D3*
Y5000D3*
Y6000D3*
Y7000D3*
Y8000D3*
Y9000D3*
Y10000D3*
D29*
X74500Y3000D3*
D30*
Y4000D3*
Y5000D3*
Y6000D3*
Y7000D3*
Y8000D3*
Y9000D3*
Y10000D3*
D29*
X56500Y1000D3*
D30*
X57500D3*
X58500D3*
X59500D3*
X60500D3*
X61500D3*
X62500D3*
X63500D3*
X64500D3*
X65500D3*
X66500D3*
X67500D3*
X68500D3*
X69500D3*
X70500D3*
X31000Y20500D2*
D14*
X30357D1*
X26688D1*
Y21504D1*
X25429D1*
X30357Y28514D2*
D13*
Y20500D1*
X4232Y26909D2*
Y24799D1*
Y20047D2*
X7283D1*
X7469Y20232D1*
X11425Y31870D2*
X10858Y31303D1*
X8252D1*
X7681Y31874D1*
X28440Y25376D2*
Y24313D1*
X17520Y19075D2*
Y19039D1*
X18425D1*
Y20031D1*
X19031D1*
Y20996D1*
X28317Y21053D2*
Y24190D1*
X28440Y24313D1*
X16358Y31496D2*
Y27886D1*
X16382Y27862D1*
Y22654D2*
Y21260D1*
X37000Y29500D2*
X37500Y30000D1*
X39500D1*
X40000Y29500D1*
X37000Y28500D2*
X37500Y29000D1*
X39500D1*
X40000Y28500D1*
X38000Y26500D2*
X38500Y27000D1*
X39500D1*
X40000Y27500D1*
X38000Y25500D2*
X38438Y25938D1*
X39438D1*
X40000Y26500D1*
X38000Y23500D2*
X38500Y23000D1*
X39323D1*
X39500Y22823D1*
Y22187D1*
X40000Y21687D1*
Y21500D1*
X25062Y22000D2*
Y21063D1*
X25125Y21000D1*
X26125D1*
Y20063D1*
X27500D1*
Y18500D1*
X27000D1*
X11250Y21673D2*
Y17969D1*
X22469D1*
X23000Y18500D1*
X27284Y28596D2*
X29233D1*
X29366Y28729D1*
Y29445D1*
X40000Y24500D2*
X40005D1*
X40504Y24001D1*
Y20000D1*
X40442Y19938D1*
X38066D1*
X38004Y20000D1*
Y20496D1*
X38000Y20500D1*
X37000D2*
Y20004D1*
X37066Y19938D1*
X38066D1*
X22565Y23813D2*
X21440D1*
X29688Y27875D2*
Y28312D1*
X29404Y28596D1*
X29233D1*
X12479Y21561D2*
Y23116D1*
X12732D1*
X37000Y22500D2*
X37500Y22000D1*
X39313D1*
X39500Y21813D1*
Y21000D1*
X40000Y20500D1*
X19173Y31594D2*
X24870D1*
X25052Y31412D1*
Y27252D1*
X20496Y29531D2*
Y30356D1*
X19848Y31004D1*
X19173D1*
X11203Y23821D2*
D15*
Y26539D1*
Y27610D1*
X4953Y23761D2*
D13*
Y24083D1*
X7409Y26539D1*
X11203D1*
X22063Y25001D2*
X23500D1*
X37000Y21500D2*
X37500Y21000D1*
X38500D1*
X39000Y20500D1*
X19190Y30376D2*
Y29724D1*
X19459D1*
X20295Y28888D1*
Y27028D1*
X25778Y30439D2*
Y26831D1*
X38000Y31500D2*
X37437Y32063D1*
X30984D1*
X29366Y30445D1*
D18*
X25429Y21504D3*
X30357Y28514D3*
X4232Y26909D3*
Y24799D3*
Y20047D3*
X7469Y20232D3*
X11425Y31870D3*
X28440Y25376D3*
Y24313D3*
X17520Y19075D3*
X19031Y20996D3*
X28317Y21053D3*
X16358Y31496D3*
X16382Y27862D3*
Y22654D3*
Y21260D3*
X25062Y22000D3*
X11250Y21673D3*
X22565Y23813D3*
X21440D3*
X29688Y27875D3*
X12732Y23116D3*
X12479Y21561D3*
X19173Y31594D3*
X25052Y27252D3*
X20496Y29531D3*
X19173Y31004D3*
X11203Y23821D3*
Y27610D3*
X4953Y23761D3*
X23500Y25001D3*
X22063D3*
X19190Y30376D3*
X20295Y27028D3*
X25778Y30439D3*
Y26831D3*
X8750Y23346D3*
Y22846D3*
X17000Y30500D3*
Y30000D3*
Y29500D3*
Y29000D3*
Y28500D3*
Y28000D3*
Y27500D3*
Y27000D3*
Y26500D3*
Y26000D3*
Y25500D3*
Y25000D3*
Y24500D3*
Y24000D3*
Y23500D3*
X8295Y25953D3*
X4752Y19209D3*
X5252D3*
X8750Y22346D3*
Y21846D3*
X9250Y23346D3*
Y22846D3*
Y22346D3*
Y21846D3*
X6406Y30783D3*
X6906D3*
X7406D3*
X7906D3*
X33316Y27424D3*
Y26924D3*
Y26424D3*
Y25924D3*
X33879Y27424D3*
Y26924D3*
Y26424D3*
Y25924D3*
X33316Y25424D3*
X33879D3*
X32441Y26674D3*
Y26174D3*
X8406Y30783D3*
X8906D3*
X9406D3*
X9906D3*
X8795Y25953D3*
X9295D3*
X5752Y19209D3*
X6252D3*
X6752D3*
X7252D3*
X7752D3*
X8252D3*
X8752D3*
X9252D3*
X9752D3*
X10252D3*
X10752D3*
X8295Y25453D3*
X11752Y19209D3*
X12252D3*
X12752D3*
X13252D3*
X17500Y25000D3*
Y24500D3*
X8795Y25453D3*
X9295D3*
X1406Y28618D3*
X1906D3*
X2406D3*
X2906D3*
X3406D3*
X14583Y28996D3*
X15083D3*
X15583D3*
X17500Y24000D3*
X13250Y24596D3*
Y24096D3*
Y23596D3*
Y23096D3*
X18000Y25000D3*
Y24500D3*
Y24000D3*
X18500Y25000D3*
Y24500D3*
Y24000D3*
X19000Y25000D3*
Y24500D3*
Y24000D3*
X19500Y25000D3*
Y24500D3*
Y24000D3*
X20000Y25000D3*
Y24500D3*
Y24000D3*
X20500Y25000D3*
Y24500D3*
Y24000D3*
X21000Y25000D3*
Y24500D3*
Y24000D3*
X22500Y31000D3*
Y30500D3*
X23000Y31000D3*
Y30500D3*
X28500Y31500D3*
Y31000D3*
Y30500D3*
Y30000D3*
Y29500D3*
Y29000D3*
Y28500D3*
Y28000D3*
Y27500D3*
X29000Y19000D3*
X29500D3*
X30000D3*
X30500D3*
X31000D3*
X31500D3*
X32000D3*
X32500D3*
X33000D3*
X33500D3*
X34000D3*
X34500D3*
X35000D3*
X35500D3*
X36000D3*
X36500D3*
X37000D3*
X37500D3*
X38000D3*
X38500D3*
X39000D3*
X39500D3*
X40000D3*
X1000Y28500D3*
Y28000D3*
Y27500D3*
Y27000D3*
Y26500D3*
Y26000D3*
Y25500D3*
Y25000D3*
Y24500D3*
Y24000D3*
Y23500D3*
Y23000D3*
Y22500D3*
Y22000D3*
Y21500D3*
Y21000D3*
Y20500D3*
Y20000D3*
Y19500D3*
Y19000D3*
Y18500D3*
X680Y31551D2*
D14*
X6954D1*
X11919D2*
X15767D1*
X16947D2*
X18585D1*
X25485D2*
X28649D1*
X31108D2*
X31675D1*
X38727D2*
X40320D1*
X680Y31253D2*
X6954D1*
X11443D2*
X15821D1*
X16894D2*
X18638D1*
X25510D2*
X28665D1*
X30808D2*
X31675D1*
X38727D2*
X40320D1*
X680Y30954D2*
X7975D1*
X11136D2*
X15903D1*
X16816D2*
X18585D1*
X20531D2*
X24597D1*
X26031D2*
X28841D1*
X30509D2*
X31675D1*
X680Y30655D2*
X15903D1*
X16816D2*
X18671D1*
X20831D2*
X24597D1*
X26326D2*
X28673D1*
X30210D2*
X31675D1*
X680Y30357D2*
X15903D1*
X16816D2*
X18597D1*
X20954D2*
X24597D1*
X26363D2*
X28645D1*
X30087D2*
X31675D1*
X680Y30058D2*
X15903D1*
X16816D2*
X18695D1*
X20954D2*
X24597D1*
X26236D2*
X28640D1*
X30091D2*
X31675D1*
X680Y29759D2*
X15903D1*
X16816D2*
X18732D1*
X21040D2*
X24597D1*
X26236D2*
X28640D1*
X30091D2*
X31675D1*
X680Y29460D2*
X15903D1*
X16816D2*
X18823D1*
X21085D2*
X24597D1*
X26236D2*
X28640D1*
X30091D2*
X31675D1*
X680Y29162D2*
X15903D1*
X16816D2*
X18109D1*
X18989D2*
X19388D1*
X20949D2*
X24597D1*
X26236D2*
X26848D1*
X27720D2*
X28640D1*
X30091D2*
X31675D1*
X680Y28863D2*
X15903D1*
X16816D2*
X17875D1*
X19223D2*
X19688D1*
X20753D2*
X24597D1*
X26236D2*
X26610D1*
X27958D2*
X28640D1*
X30829D2*
X31675D1*
X680Y28564D2*
X15903D1*
X16816D2*
X17822D1*
X19276D2*
X19840D1*
X20753D2*
X24597D1*
X26236D2*
X26557D1*
X28011D2*
X29768D1*
X30948D2*
X31675D1*
X680Y28266D2*
X15903D1*
X16816D2*
X17908D1*
X19190D2*
X19840D1*
X20753D2*
X24597D1*
X26236D2*
X26639D1*
X27925D2*
X29822D1*
X30890D2*
X31675D1*
X680Y27967D2*
X10739D1*
X11669D2*
X15800D1*
X16963D2*
X17928D1*
X19170D2*
X19840D1*
X20753D2*
X24597D1*
X26236D2*
X26664D1*
X27905D2*
X29899D1*
X680Y27668D2*
X10612D1*
X11792D2*
X15825D1*
X16939D2*
X17826D1*
X19272D2*
X19840D1*
X20753D2*
X24597D1*
X26236D2*
X26561D1*
X28007D2*
X29899D1*
X680Y27370D2*
X3878D1*
X4586D2*
X10616D1*
X11792D2*
X16083D1*
X16684D2*
X17863D1*
X19235D2*
X19819D1*
X20769D2*
X24474D1*
X26236D2*
X26594D1*
X27970D2*
X29899D1*
X680Y27071D2*
X3665D1*
X4800D2*
X10616D1*
X11792D2*
X17822D1*
X19276D2*
X19704D1*
X20884D2*
X24490D1*
X26314D2*
X26557D1*
X28011D2*
X29899D1*
X680Y26772D2*
X3657D1*
X4808D2*
X7007D1*
X11792D2*
X17822D1*
X19276D2*
X19766D1*
X20826D2*
X24728D1*
X26367D2*
X26557D1*
X28011D2*
X29899D1*
X680Y26474D2*
X3776D1*
X4689D2*
X6712D1*
X11792D2*
X17822D1*
X19276D2*
X20172D1*
X20420D2*
X25314D1*
X26240D2*
X26557D1*
X28011D2*
X29899D1*
X680Y26175D2*
X3776D1*
X4689D2*
X6413D1*
X11792D2*
X17822D1*
X19276D2*
X26557D1*
X28011D2*
X29174D1*
X29582D2*
X29899D1*
X680Y25876D2*
X3776D1*
X4689D2*
X6113D1*
X7379D2*
X10616D1*
X11792D2*
X28156D1*
X680Y25578D2*
X3776D1*
X4689D2*
X5814D1*
X7080D2*
X10616D1*
X11792D2*
X27886D1*
X39695D2*
X40320D1*
X680Y25279D2*
X3776D1*
X4689D2*
X5515D1*
X6784D2*
X10616D1*
X11792D2*
X21546D1*
X24017D2*
X27857D1*
X38691D2*
X40320D1*
X680Y24980D2*
X3669D1*
X4795D2*
X5215D1*
X6485D2*
X10616D1*
X11792D2*
X21472D1*
X24091D2*
X27984D1*
X680Y24681D2*
X3653D1*
X6186D2*
X10616D1*
X11792D2*
X21570D1*
X23992D2*
X27984D1*
X680Y24383D2*
X3825D1*
X5886D2*
X10616D1*
X11792D2*
X27853D1*
X680Y24084D2*
X4465D1*
X5587D2*
X10616D1*
X11792D2*
X27861D1*
X680Y23785D2*
X4362D1*
X5546D2*
X10612D1*
X11792D2*
X27861D1*
X680Y23487D2*
X4432D1*
X5472D2*
X10723D1*
X11685D2*
X27861D1*
X680Y23188D2*
X16177D1*
X16586D2*
X27861D1*
X680Y22889D2*
X15841D1*
X16922D2*
X27861D1*
X680Y22591D2*
X15792D1*
X16971D2*
X27861D1*
X680Y22292D2*
X15923D1*
X16840D2*
X24552D1*
X25571D2*
X27861D1*
X680Y21993D2*
X10760D1*
X11743D2*
X15923D1*
X16840D2*
X24470D1*
X26867D2*
X27861D1*
X31522D2*
X31678D1*
X680Y21695D2*
X10657D1*
X11841D2*
X15923D1*
X16840D2*
X24560D1*
X27191D2*
X27861D1*
X680Y21396D2*
X10731D1*
X11767D2*
X15808D1*
X16955D2*
X18605D1*
X19457D2*
X24605D1*
X27228D2*
X27841D1*
X680Y21097D2*
X10793D1*
X11706D2*
X15812D1*
X16951D2*
X18449D1*
X19612D2*
X24605D1*
X27228D2*
X27726D1*
X680Y20799D2*
X10793D1*
X11706D2*
X16030D1*
X16734D2*
X18474D1*
X19588D2*
X24695D1*
X680Y20500D2*
X3870D1*
X4594D2*
X6946D1*
X7994D2*
X10793D1*
X11706D2*
X18576D1*
X19489D2*
X25667D1*
X680Y20201D2*
X3661D1*
X8060D2*
X10793D1*
X11706D2*
X18002D1*
X19489D2*
X25667D1*
X680Y19902D2*
X3661D1*
X7953D2*
X10793D1*
X11706D2*
X17969D1*
X28598D2*
X30273D1*
X37386D2*
X37614D1*
X38387D2*
X38610D1*
X680Y19604D2*
X3858D1*
X4607D2*
X10793D1*
X11706D2*
X17301D1*
X17738D2*
X17969D1*
X28717D2*
X40320D1*
X680Y19305D2*
X10793D1*
X11706D2*
X16977D1*
X28700D2*
X40320D1*
X680Y19006D2*
X10793D1*
X11706D2*
X12273D1*
X28520D2*
X40320D1*
X680Y18708D2*
X10793D1*
X11706D2*
X12273D1*
X27958D2*
X40320D1*
X680Y18409D2*
X10793D1*
X11706D2*
X12273D1*
X27946D2*
X40320D1*
X38697Y31848D2*
Y31126D1*
X38868Y31184D1*
X38998Y31197D1*
X39128Y31185D1*
X39254Y31149D1*
X39371Y31089D1*
X39500Y30982D1*
X39561Y31041D1*
X39670Y31114D1*
X39791Y31165D1*
X39919Y31192D1*
X40050Y31195D1*
X40180Y31173D1*
X40303Y31128D1*
X40350Y31103D1*
Y31849D1*
X38700Y31850D1*
X38684Y25370D2*
X38648Y25244D1*
X38588Y25127D1*
X38480Y24999D1*
X38522Y25007D1*
X38625Y25087D1*
X38742Y25147D1*
X38868Y25184D1*
X38998Y25197D1*
X39128Y25185D1*
X39254Y25149D1*
X39371Y25089D1*
X39500Y24982D1*
X39561Y25041D1*
X39670Y25114D1*
X39791Y25165D1*
X39919Y25192D1*
X40050Y25195D1*
X40180Y25173D1*
X40303Y25128D1*
X40350Y25103D1*
Y25804D1*
X39905Y25803D1*
X39739Y25636D1*
X39634Y25558D1*
X39506Y25517D1*
X39306Y25511D1*
X38695D1*
X38684Y25370D1*
X38499Y20015D2*
X38388Y19922D1*
X38273Y19859D1*
X38148Y19819D1*
X38018Y19804D1*
X37887Y19813D1*
X37761Y19846D1*
X37642Y19902D1*
X37537Y19980D1*
X37499Y20015D1*
X37410Y19937D1*
X37297Y19870D1*
X37174Y19825D1*
X37044Y19805D1*
X36913Y19809D1*
X36821Y19827D1*
X36802Y19795D1*
X36709Y19702D1*
X36590Y19649D1*
X36373Y19638D1*
X32066D1*
X31937Y19662D1*
X31826Y19729D1*
X31745Y19832D1*
X31707Y19961D1*
X31704Y20919D1*
X31705Y31630D1*
X31401Y31636D1*
X31159D1*
X30059Y30534D1*
X30063Y30445D1*
X30050Y30314D1*
X30014Y30189D1*
X29990Y30141D1*
X30063Y30142D1*
Y28992D1*
X30204Y29055D1*
X30333Y29075D1*
X30464Y29065D1*
X30589Y29026D1*
X30701Y28958D1*
X30794Y28867D1*
X30864Y28756D1*
X30907Y28632D1*
X30919Y28514D1*
X30904Y28384D1*
X30859Y28261D1*
X30798Y28169D1*
X30946Y28195D1*
X31077Y28192D1*
X31205Y28166D1*
X31326Y28116D1*
X31435Y28044D1*
X31530Y27953D1*
X31605Y27845D1*
X31659Y27726D1*
X31690Y27599D1*
X31696Y27474D1*
X31679Y27344D1*
X31638Y27219D1*
X31574Y27105D1*
X31484Y26999D1*
X31562Y26911D1*
X31629Y26799D1*
X31674Y26676D1*
X31697Y26500D1*
X31684Y26370D1*
X31648Y26244D1*
X31588Y26127D1*
X31480Y25999D1*
X31562Y25911D1*
X31629Y25799D1*
X31674Y25676D1*
X31697Y25500D1*
X31684Y25370D1*
X31648Y25244D1*
X31588Y25127D1*
X31480Y24999D1*
X31562Y24911D1*
X31629Y24799D1*
X31674Y24676D1*
X31697Y24500D1*
X31684Y24370D1*
X31648Y24244D1*
X31588Y24127D1*
X31480Y23999D1*
X31562Y23911D1*
X31629Y23799D1*
X31674Y23676D1*
X31697Y23500D1*
X31684Y23370D1*
X31648Y23244D1*
X31588Y23127D1*
X31480Y22999D1*
X31562Y22911D1*
X31629Y22799D1*
X31674Y22676D1*
X31697Y22500D1*
X31684Y22370D1*
X31648Y22244D1*
X31588Y22127D1*
X31480Y21999D1*
X31530Y21953D1*
X31605Y21845D1*
X31659Y21726D1*
X31690Y21599D1*
X31696Y21474D1*
X31679Y21344D1*
X31638Y21219D1*
X31627Y21196D1*
X31697Y21197D1*
Y19803D1*
X30303D1*
Y19988D1*
X28499D1*
X28592Y19868D1*
X28650Y19751D1*
X28685Y19625D1*
X28697Y19500D1*
X28684Y19370D1*
X28648Y19244D1*
X28588Y19127D1*
X28508Y19023D1*
X28410Y18937D1*
X28297Y18870D1*
X28174Y18825D1*
X28044Y18805D1*
X27927Y18807D1*
Y18500D1*
X27907Y18371D1*
X27849Y18254D1*
X27766Y18167D1*
X27797Y18150D1*
X40350D1*
Y19800D1*
X39384Y19803D1*
X39303D1*
Y19873D1*
X39174Y19825D1*
X39044Y19805D1*
X38913Y19809D1*
X38785Y19837D1*
X38665Y19889D1*
X38557Y19963D1*
X38502Y20018D1*
X19456Y20197D2*
X19697D1*
Y20127D1*
X19868Y20184D1*
X19998Y20197D1*
X20128Y20185D1*
X20254Y20149D1*
X20371Y20089D1*
X20500Y19982D1*
X20625Y20087D1*
X20742Y20147D1*
X20868Y20184D1*
X20998Y20197D1*
X21128Y20185D1*
X21254Y20149D1*
X21371Y20089D1*
X21500Y19982D1*
X21625Y20087D1*
X21742Y20147D1*
X21868Y20184D1*
X21998Y20197D1*
X22128Y20185D1*
X22254Y20149D1*
X22371Y20089D1*
X22500Y19982D1*
X22561Y20041D1*
X22670Y20114D1*
X22791Y20165D1*
X22919Y20192D1*
X23050Y20195D1*
X23180Y20173D1*
X23303Y20128D1*
X23415Y20060D1*
X23500Y19985D1*
X23625Y20087D1*
X23742Y20147D1*
X23868Y20184D1*
X23998Y20197D1*
X24128Y20185D1*
X24254Y20149D1*
X24371Y20089D1*
X24500Y19982D1*
X24625Y20087D1*
X24742Y20147D1*
X24868Y20184D1*
X24998Y20197D1*
X25128Y20185D1*
X25254Y20149D1*
X25371Y20089D1*
X25500Y19982D1*
X25625Y20087D1*
X25702Y20126D1*
X25698Y20575D1*
X25125Y20573D1*
X24996Y20593D1*
X24856Y20668D1*
X24722Y20805D1*
X24665Y20908D1*
X24637Y21034D1*
X24636Y21633D1*
X24590Y21695D1*
X24533Y21813D1*
X24504Y21941D1*
X24505Y22071D1*
X24537Y22199D1*
X24597Y22315D1*
X24682Y22414D1*
X24789Y22491D1*
X24910Y22541D1*
X25039Y22561D1*
X25169Y22552D1*
X25294Y22512D1*
X25406Y22445D1*
X25500Y22353D1*
X25570Y22242D1*
X25612Y22118D1*
X25621Y22033D1*
X25664Y22014D1*
X26688Y22016D1*
X26817Y21999D1*
X26939Y21950D1*
X27044Y21872D1*
X27125Y21770D1*
X27178Y21650D1*
X27200Y21504D1*
Y21016D1*
X27475Y21012D1*
X27758D1*
X27760Y21125D1*
X27791Y21252D1*
X27851Y21368D1*
X27891Y21414D1*
Y24194D1*
X27882Y24254D1*
X27883Y24385D1*
X27915Y24512D1*
X27975Y24628D1*
X28015Y24675D1*
X28014Y25014D1*
X27968Y25071D1*
X27911Y25189D1*
X27882Y25316D1*
X27883Y25447D1*
X27915Y25574D1*
X27975Y25691D1*
X28060Y25790D1*
X28167Y25867D1*
X28288Y25917D1*
X28417Y25937D1*
X28547Y25928D1*
X28672Y25888D1*
X28767Y25831D1*
X28814Y25909D1*
X28900Y26007D1*
X29003Y26088D1*
X29120Y26148D1*
X29246Y26184D1*
X29376Y26197D1*
X29507Y26185D1*
X29633Y26149D1*
X29749Y26090D1*
X29853Y26010D1*
X29932Y25921D1*
X29930Y28148D1*
X29885Y28209D1*
X29827Y28327D1*
X29798Y28454D1*
X29800Y28585D1*
X29831Y28712D1*
X29848Y28745D1*
X29617Y28748D1*
X28670D1*
Y30142D1*
X28739D1*
X28704Y30228D1*
X28675Y30356D1*
X28671Y30487D1*
X28691Y30617D1*
X28735Y30740D1*
X28802Y30853D1*
X28880Y30942D1*
X28756Y31108D1*
X28704Y31228D1*
X28675Y31356D1*
X28671Y31487D1*
X28691Y31617D1*
X28735Y31740D1*
X28800Y31850D1*
X25215D1*
X25354Y31714D1*
X25432Y31609D1*
X25473Y31481D1*
X25479Y31281D1*
Y30916D1*
X25625Y30980D1*
X25754Y31000D1*
X25884Y30991D1*
X26009Y30951D1*
X26121Y30883D1*
X26215Y30792D1*
X26285Y30681D1*
X26327Y30557D1*
X26340Y30439D1*
X26324Y30309D1*
X26279Y30186D1*
X26204Y30074D1*
X26205Y27195D1*
X26285Y27073D1*
X26327Y26949D1*
X26340Y26831D1*
X26324Y26701D1*
X26279Y26578D1*
X26207Y26468D1*
X26112Y26379D1*
X25998Y26314D1*
X25872Y26277D1*
X25742Y26270D1*
X25613Y26293D1*
X25493Y26346D1*
X25389Y26425D1*
X25305Y26526D1*
X25248Y26644D1*
X25230Y26719D1*
X25147Y26698D1*
X25017Y26691D1*
X24888Y26715D1*
X24768Y26767D1*
X24664Y26846D1*
X24580Y26947D1*
X24522Y27065D1*
X24494Y27193D1*
X24495Y27323D1*
X24527Y27451D1*
X24587Y27567D1*
X24627Y27613D1*
X24625Y31168D1*
X20289D1*
X20798Y30658D1*
X20875Y30552D1*
X20917Y30424D1*
X20923Y30225D1*
Y29901D1*
X21003Y29774D1*
X21045Y29650D1*
X21058Y29531D1*
X21043Y29401D1*
X20998Y29278D1*
X20926Y29169D1*
X20830Y29080D1*
X20705Y29011D1*
X20722Y28888D1*
Y27391D1*
X20802Y27270D1*
X20845Y27146D1*
X20857Y27028D1*
X20842Y26898D1*
X20797Y26775D1*
X20725Y26665D1*
X20629Y26576D1*
X20516Y26511D1*
X20390Y26474D1*
X20259Y26467D1*
X20131Y26490D1*
X20011Y26543D1*
X19906Y26622D1*
X19823Y26723D1*
X19765Y26840D1*
X19736Y26968D1*
X19738Y27099D1*
X19770Y27226D1*
X19830Y27342D1*
X19870Y27389D1*
X19868Y28713D1*
X19283Y29296D1*
X19190Y29297D1*
X19060Y29317D1*
X18943Y29376D1*
X18849Y29466D1*
X18787Y29581D1*
X18763Y29724D1*
Y30007D1*
X18717Y30072D1*
X18660Y30189D1*
X18631Y30317D1*
X18632Y30448D1*
X18664Y30575D1*
X18718Y30680D1*
X18643Y30817D1*
X18614Y30945D1*
X18616Y31075D1*
X18647Y31202D1*
X18698Y31301D1*
X18643Y31407D1*
X18614Y31535D1*
X18616Y31666D1*
X18647Y31793D1*
X18676Y31848D1*
X16792Y31850D1*
X16865Y31738D1*
X16908Y31614D1*
X16920Y31496D1*
X16905Y31366D1*
X16860Y31243D1*
X16785Y31131D1*
Y28252D1*
X16819Y28215D1*
X16889Y28104D1*
X16931Y27980D1*
X16944Y27862D1*
X16929Y27732D1*
X16884Y27609D1*
X16812Y27500D1*
X16716Y27410D1*
X16602Y27345D1*
X16477Y27308D1*
X16346Y27301D1*
X16217Y27325D1*
X16097Y27378D1*
X15993Y27457D1*
X15910Y27558D1*
X15852Y27675D1*
X15823Y27803D1*
X15824Y27934D1*
X15856Y28061D1*
X15930Y28193D1*
X15931Y31130D1*
X15886Y31191D1*
X15828Y31309D1*
X15799Y31437D1*
X15801Y31568D1*
X15833Y31695D1*
X15893Y31811D1*
X15927Y31851D1*
X11985Y31850D1*
X11972Y31740D1*
X11927Y31617D1*
X11855Y31508D1*
X11759Y31418D1*
X11646Y31353D1*
X11520Y31316D1*
X11475Y31314D1*
X11160Y31001D1*
X11055Y30924D1*
X10927Y30882D1*
X10727Y30876D1*
X8252D1*
X8123Y30896D1*
X8003Y30957D1*
X7857Y31094D1*
X7773Y31178D1*
X6984Y31177D1*
Y31854D1*
X6379Y31850D1*
X650D1*
Y18151D1*
X10822Y18150D1*
X10823Y21311D1*
X10778Y21369D1*
X10720Y21486D1*
X10691Y21614D1*
X10693Y21745D1*
X10724Y21872D1*
X10784Y21988D1*
X10870Y22087D1*
X10976Y22164D1*
X11097Y22214D1*
X11226Y22235D1*
X11357Y22225D1*
X11482Y22185D1*
X11594Y22118D1*
X11687Y22026D1*
X11757Y21915D1*
X11799Y21791D1*
X11812Y21673D1*
X11797Y21543D1*
X11752Y21420D1*
X11677Y21308D1*
Y18396D1*
X12304Y18395D1*
X12303Y19197D1*
X13697D1*
Y19127D1*
X13868Y19184D1*
X13998Y19197D1*
X14128Y19185D1*
X14254Y19149D1*
X14371Y19089D1*
X14500Y18982D1*
X14625Y19087D1*
X14742Y19147D1*
X14868Y19184D1*
X14998Y19197D1*
X15128Y19185D1*
X15254Y19149D1*
X15371Y19089D1*
X15500Y18982D1*
X15561Y19041D1*
X15670Y19114D1*
X15791Y19165D1*
X15919Y19192D1*
X16050Y19195D1*
X16180Y19173D1*
X16303Y19128D1*
X16415Y19060D1*
X16500Y18985D1*
X16603Y19073D1*
X16718Y19137D1*
X16842Y19178D1*
X16971Y19196D1*
X16994Y19273D1*
X17054Y19390D1*
X17140Y19489D1*
X17246Y19566D1*
X17367Y19616D1*
X17496Y19636D1*
X17627Y19627D1*
X17751Y19587D1*
X17864Y19519D1*
X17919Y19465D1*
X17998Y19564D1*
Y20031D1*
X18018Y20161D1*
X18076Y20278D1*
X18167Y20372D1*
X18282Y20434D1*
X18425Y20458D1*
X18602D1*
X18605Y20634D1*
X18559Y20691D1*
X18502Y20809D1*
X18473Y20937D1*
X18474Y21068D1*
X18506Y21195D1*
X18566Y21311D1*
X18651Y21410D1*
X18758Y21487D1*
X18879Y21537D1*
X19008Y21558D1*
X19138Y21548D1*
X19263Y21508D1*
X19375Y21441D1*
X19469Y21349D1*
X19539Y21238D1*
X19581Y21114D1*
X19593Y20996D1*
X19578Y20866D1*
X19533Y20743D1*
X19458Y20631D1*
Y20196D1*
X19177Y27296D2*
X19245D1*
Y25903D1*
X17852D1*
Y27296D1*
X17922D1*
X17887Y27383D1*
X17858Y27511D1*
X17853Y27642D1*
X17874Y27772D1*
X17918Y27895D1*
X17984Y28008D1*
X18062Y28097D1*
X17966Y28218D1*
X17905Y28334D1*
X17866Y28459D1*
X17852Y28590D1*
X17863Y28720D1*
X17897Y28847D1*
X17955Y28964D1*
X18034Y29069D1*
X18131Y29157D1*
X18243Y29226D1*
X18365Y29272D1*
X18494Y29294D1*
X18625Y29292D1*
X18754Y29266D1*
X18875Y29216D1*
X18984Y29144D1*
X19078Y29052D1*
X19154Y28945D1*
X19208Y28826D1*
X19238Y28698D1*
X19245Y28574D1*
X19228Y28444D1*
X19186Y28319D1*
X19123Y28205D1*
X19033Y28099D1*
X19111Y28011D1*
X19178Y27899D1*
X19223Y27776D1*
X19245Y27600D1*
X19233Y27469D1*
X19196Y27344D1*
X19172Y27296D1*
X27912Y27293D2*
X27980D1*
Y25899D1*
X26587D1*
Y27293D1*
X26657D1*
X26622Y27380D1*
X26593Y27507D1*
X26588Y27638D1*
X26609Y27768D1*
X26653Y27891D1*
X26719Y28004D1*
X26797Y28093D1*
X26701Y28214D1*
X26640Y28330D1*
X26601Y28456D1*
X26587Y28586D1*
X26598Y28717D1*
X26632Y28843D1*
X26690Y28961D1*
X26769Y29065D1*
X26866Y29153D1*
X26978Y29222D1*
X27100Y29268D1*
X27229Y29291D1*
X27360Y29288D1*
X27489Y29262D1*
X27610Y29212D1*
X27719Y29140D1*
X27813Y29049D1*
X27889Y28941D1*
X27943Y28822D1*
X27973Y28695D1*
X27980Y28570D1*
X27963Y28440D1*
X27921Y28315D1*
X27858Y28201D1*
X27768Y28095D1*
X27846Y28007D1*
X27913Y27895D1*
X27958Y27772D1*
X27980Y27596D1*
X27968Y27466D1*
X27932Y27340D1*
X27907Y27292D1*
X4659Y26544D2*
Y25167D1*
X4739Y25041D1*
X4782Y24917D1*
X4794Y24799D1*
X4779Y24669D1*
X4734Y24546D1*
X4662Y24437D1*
X4566Y24347D1*
X4453Y24282D1*
X4327Y24245D1*
X4196Y24238D1*
X4068Y24262D1*
X3948Y24315D1*
X3843Y24394D1*
X3760Y24495D1*
X3702Y24612D1*
X3673Y24740D1*
X3675Y24871D1*
X3707Y24998D1*
X3767Y25114D1*
X3807Y25161D1*
X3805Y26542D1*
X3760Y26605D1*
X3702Y26722D1*
X3673Y26850D1*
X3675Y26981D1*
X3707Y27108D1*
X3767Y27224D1*
X3852Y27323D1*
X3958Y27400D1*
X4079Y27450D1*
X4209Y27471D1*
X4339Y27461D1*
X4464Y27421D1*
X4576Y27354D1*
X4670Y27262D1*
X4739Y27152D1*
X4782Y27028D1*
X4794Y26909D1*
X4779Y26779D1*
X4734Y26656D1*
X4659Y26544D1*
X4597Y20474D2*
X6959D1*
X7003Y20547D1*
X7088Y20646D1*
X7195Y20723D1*
X7316Y20773D1*
X7445Y20794D1*
X7575Y20784D1*
X7700Y20744D1*
X7812Y20677D1*
X7906Y20585D1*
X7976Y20474D1*
X8018Y20350D1*
X8030Y20232D1*
X8015Y20102D1*
X7970Y19979D1*
X7898Y19870D1*
X7803Y19780D1*
X7689Y19715D1*
X7563Y19678D1*
X7480Y19668D1*
X7352Y19626D1*
X7152Y19620D1*
X4597D1*
X4453Y19530D1*
X4327Y19493D1*
X4196Y19486D1*
X4068Y19510D1*
X3948Y19563D1*
X3843Y19642D1*
X3760Y19743D1*
X3702Y19860D1*
X3673Y19988D1*
X3675Y20119D1*
X3707Y20246D1*
X3767Y20362D1*
X3852Y20461D1*
X3958Y20538D1*
X4079Y20588D1*
X4209Y20609D1*
X4339Y20599D1*
X4464Y20559D1*
X4597Y20472D1*
X16809Y22289D2*
Y21624D1*
X16889Y21502D1*
X16931Y21378D1*
X16944Y21260D1*
X16929Y21130D1*
X16884Y21007D1*
X16812Y20898D1*
X16716Y20808D1*
X16602Y20743D1*
X16477Y20706D1*
X16346Y20699D1*
X16217Y20722D1*
X16097Y20775D1*
X15993Y20854D1*
X15910Y20955D1*
X15852Y21073D1*
X15823Y21200D1*
X15824Y21331D1*
X15856Y21458D1*
X15916Y21575D1*
X15956Y21621D1*
X15955Y22289D1*
X15910Y22349D1*
X15852Y22466D1*
X15823Y22594D1*
X15824Y22725D1*
X15856Y22852D1*
X15916Y22968D1*
X16002Y23068D1*
X16108Y23144D1*
X16229Y23194D1*
X16358Y23215D1*
X16489Y23205D1*
X16614Y23166D1*
X16726Y23098D1*
X16819Y23006D1*
X16889Y22896D1*
X16931Y22772D1*
X16944Y22654D1*
X16929Y22524D1*
X16884Y22401D1*
X16809Y22288D1*
X10644Y23882D2*
Y26113D1*
X7590Y26112D1*
X6319Y24846D1*
X5464Y23990D1*
X5502Y23879D1*
X5515Y23761D1*
X5500Y23631D1*
X5455Y23508D1*
X5382Y23398D1*
X5287Y23309D1*
X5173Y23244D1*
X5048Y23207D1*
X4917Y23200D1*
X4788Y23223D1*
X4668Y23276D1*
X4564Y23355D1*
X4481Y23456D1*
X4423Y23574D1*
X4394Y23701D1*
X4395Y23832D1*
X4427Y23959D1*
X4487Y24076D1*
X4527Y24122D1*
X4546Y24212D1*
X4607Y24332D1*
X4744Y24477D1*
X7108Y26841D1*
X7213Y26918D1*
X7341Y26960D1*
X7541Y26966D1*
X10645D1*
X10646Y27682D1*
X10677Y27809D1*
X10737Y27925D1*
X10823Y28024D1*
X10929Y28101D1*
X11050Y28151D1*
X11179Y28172D1*
X11310Y28162D1*
X11435Y28122D1*
X11547Y28055D1*
X11640Y27963D1*
X11710Y27852D1*
X11752Y27728D1*
X11762Y27582D1*
X11765Y23821D1*
X11750Y23691D1*
X11705Y23568D1*
X11633Y23459D1*
X11537Y23369D1*
X11424Y23304D1*
X11298Y23267D1*
X11167Y23260D1*
X11038Y23284D1*
X10919Y23336D1*
X10814Y23415D1*
X10731Y23516D1*
X10673Y23634D1*
X10644Y23761D1*
X10645Y23798D1*
X22427Y25428D2*
X23133D1*
X23226Y25491D1*
X23347Y25542D1*
X23476Y25562D1*
X23607Y25553D1*
X23732Y25513D1*
X23844Y25445D1*
X23937Y25354D1*
X24007Y25243D1*
X24049Y25119D1*
X24062Y25001D1*
X24047Y24871D1*
X24002Y24748D1*
X23930Y24639D1*
X23834Y24549D1*
X23721Y24484D1*
X23595Y24447D1*
X23464Y24440D1*
X23335Y24463D1*
X23215Y24516D1*
X23140Y24573D1*
X22430Y24574D1*
X22283Y24484D1*
X22157Y24447D1*
X22027Y24440D1*
X21898Y24463D1*
X21778Y24516D1*
X21674Y24595D1*
X21590Y24696D1*
X21533Y24814D1*
X21504Y24941D1*
X21505Y25072D1*
X21537Y25199D1*
X21597Y25316D1*
X21682Y25415D1*
X21789Y25491D1*
X21910Y25542D1*
X22039Y25562D1*
X22169Y25553D1*
X22294Y25513D1*
X22427Y25425D1*
X38000Y20500D2*
D18*
Y19804D1*
X37000Y20500D2*
Y19804D1*
X23000Y20196D2*
Y19500D1*
X28000D2*
Y18804D1*
Y19500D2*
X28696D1*
X40000Y25196D2*
Y24500D1*
Y31196D2*
Y30500D1*
X18549Y29296D2*
Y28600D1*
X17853D2*
X19245D1*
X27284Y29292D2*
Y28596D1*
X26588D2*
X27980D1*
X29366Y29445D2*
Y28749D1*
X28670Y29445D2*
X30062D1*
X31000Y21500D2*
X31696D1*
X31000Y28196D2*
Y27500D1*
X31696D1*
X16000Y19196D2*
Y18500D1*
X17000Y19196D2*
Y18500D1*
X32246Y31178D2*
D14*
X33775D1*
X35225D2*
X36326D1*
X32246Y30879D2*
X33775D1*
X35225D2*
X36326D1*
X32246Y30580D2*
X33775D1*
X35225D2*
X36277D1*
X32246Y30282D2*
X33775D1*
X35225D2*
X36309D1*
X32246Y29983D2*
X33775D1*
X35225D2*
X36326D1*
X32246Y29684D2*
X36297D1*
X32246Y29386D2*
X36285D1*
X32246Y29087D2*
X36326D1*
X32246Y28788D2*
X36326D1*
X32246Y28490D2*
X36273D1*
X32246Y28191D2*
X35883D1*
X36119D2*
X36326D1*
X32246Y27892D2*
X35395D1*
X32246Y27594D2*
X35280D1*
X32246Y27295D2*
X35305D1*
X32246Y26996D2*
X35481D1*
X32246Y26697D2*
X35301D1*
X32246Y26399D2*
X35280D1*
X32246Y26100D2*
X35399D1*
X32246Y25801D2*
X35342D1*
X32246Y25503D2*
X35272D1*
X32246Y25204D2*
X35338D1*
X32246Y24905D2*
X35403D1*
X32246Y24607D2*
X35280D1*
X32246Y24308D2*
X35301D1*
X32246Y24009D2*
X35477D1*
X32246Y23711D2*
X35305D1*
X32246Y23412D2*
X35280D1*
X32246Y23113D2*
X35391D1*
X32246Y22815D2*
X35350D1*
X32246Y22516D2*
X35272D1*
X32246Y22217D2*
X35333D1*
X32246Y21918D2*
X35411D1*
X32246Y21620D2*
X35284D1*
X32246Y21321D2*
X35297D1*
X32246Y21022D2*
X35272D1*
X32246Y20724D2*
X35272D1*
X32246Y20425D2*
X35272D1*
X36353Y31250D2*
X36309Y31411D1*
X36307Y31473D1*
X35585Y31476D1*
X35196D1*
X35184Y31370D1*
X35148Y31244D1*
X35124Y31196D1*
X35197Y31197D1*
Y29803D1*
X33803D1*
Y31197D1*
X33873D1*
X33838Y31284D1*
X33809Y31411D1*
X33807Y31473D1*
X33223Y31476D1*
X32218D1*
X32216Y28739D1*
Y20148D1*
X34297Y20150D1*
X35302D1*
X35303Y21197D1*
X35373D1*
X35338Y21284D1*
X35309Y21411D1*
X35305Y21542D1*
X35325Y21672D1*
X35369Y21795D1*
X35435Y21908D1*
X35514Y21997D1*
X35390Y22163D1*
X35338Y22284D1*
X35309Y22411D1*
X35305Y22542D1*
X35325Y22672D1*
X35369Y22795D1*
X35435Y22908D1*
X35514Y22997D1*
X35390Y23163D1*
X35338Y23284D1*
X35309Y23411D1*
X35305Y23542D1*
X35325Y23672D1*
X35369Y23795D1*
X35435Y23908D1*
X35514Y23997D1*
X35390Y24163D1*
X35338Y24284D1*
X35309Y24411D1*
X35305Y24542D1*
X35325Y24672D1*
X35369Y24795D1*
X35435Y24908D1*
X35514Y24997D1*
X35390Y25163D1*
X35338Y25284D1*
X35309Y25411D1*
X35305Y25542D1*
X35325Y25672D1*
X35369Y25795D1*
X35435Y25908D1*
X35514Y25997D1*
X35390Y26163D1*
X35338Y26284D1*
X35309Y26411D1*
X35305Y26542D1*
X35325Y26672D1*
X35369Y26795D1*
X35435Y26908D1*
X35514Y26997D1*
X35390Y27163D1*
X35338Y27284D1*
X35309Y27411D1*
X35305Y27542D1*
X35325Y27672D1*
X35369Y27795D1*
X35435Y27908D1*
X35522Y28007D1*
X35625Y28087D1*
X35742Y28147D1*
X35868Y28184D1*
X35998Y28197D1*
X36128Y28185D1*
X36254Y28149D1*
X36353Y28099D1*
X36354Y28239D1*
X36309Y28411D1*
X36305Y28542D1*
X36325Y28672D1*
X36354Y28753D1*
Y29240D1*
X36309Y29411D1*
X36305Y29542D1*
X36325Y29672D1*
X36354Y29753D1*
Y30241D1*
X36309Y30411D1*
X36305Y30542D1*
X36325Y30672D1*
X36354Y30761D1*
Y31241D1*
D29*
X38000Y31500D3*
D30*
X37000D3*
X38000Y30500D3*
X37000D3*
X38000Y29500D3*
X37000D3*
X38000Y28500D3*
X37000D3*
X38000Y27500D3*
X37000D3*
X38000Y26500D3*
X37000D3*
X38000Y25500D3*
X37000D3*
X38000Y24500D3*
X37000D3*
X38000Y23500D3*
X37000D3*
X38000Y22500D3*
X37000D3*
X38000Y21500D3*
X37000D3*
X38000Y20500D3*
X37000D3*
D29*
X19000Y19500D3*
D30*
X20000D3*
X21000D3*
X22000D3*
X23000D3*
X24000D3*
X25000D3*
X26000D3*
X27000D3*
X28000D3*
D29*
X40000Y20500D3*
D30*
X39000D3*
X40000Y21500D3*
X39000D3*
X40000Y22500D3*
X39000D3*
X40000Y23500D3*
X39000D3*
X40000Y24500D3*
X39000D3*
D29*
X40000Y26500D3*
D30*
X39000D3*
X40000Y27500D3*
X39000D3*
X40000Y28500D3*
X39000D3*
X40000Y29500D3*
X39000D3*
X40000Y30500D3*
X39000D3*
D29*
X7681Y31874D3*
D30*
X8681D3*
X9681D3*
D29*
X18549Y26600D3*
D30*
Y27600D3*
Y28600D3*
D29*
X27284Y26596D3*
D30*
Y27596D3*
Y28596D3*
D29*
X34500Y30500D3*
D30*
Y31500D3*
D29*
X29366Y29445D3*
D30*
Y30445D3*
Y31445D3*
D29*
X29378Y22501D3*
D30*
Y23501D3*
Y24501D3*
Y25501D3*
D29*
X36000Y20500D3*
D30*
Y21500D3*
Y22500D3*
Y23500D3*
Y24500D3*
Y25500D3*
Y26500D3*
Y27500D3*
D29*
X31000Y20500D3*
D30*
Y21500D3*
Y22500D3*
Y23500D3*
Y24500D3*
Y25500D3*
Y26500D3*
Y27500D3*
D29*
X13000Y18500D3*
D30*
X14000D3*
X15000D3*
X16000D3*
X17000D3*
X18000D3*
X19000D3*
X20000D3*
X21000D3*
X22000D3*
X23000D3*
X24000D3*
X25000D3*
X26000D3*
X27000D3*
X74500Y20500D2*
D14*
X73857D1*
X70188D1*
Y21504D1*
X68929D1*
X73857Y28514D2*
D13*
Y20500D1*
X47732Y26909D2*
Y24799D1*
Y20047D2*
X50783D1*
X50969Y20232D1*
X54925Y31870D2*
X54358Y31303D1*
X51752D1*
X51181Y31874D1*
X71940Y25376D2*
Y24313D1*
X61020Y19075D2*
Y19039D1*
X61925D1*
Y20031D1*
X62531D1*
Y20996D1*
X71817Y21053D2*
Y24190D1*
X71940Y24313D1*
X59858Y31496D2*
Y27886D1*
X59882Y27862D1*
Y22654D2*
Y21260D1*
X80500Y29500D2*
X81000Y30000D1*
X83000D1*
X83500Y29500D1*
X80500Y28500D2*
X81000Y29000D1*
X83000D1*
X83500Y28500D1*
X81500Y26500D2*
X82000Y27000D1*
X83000D1*
X83500Y27500D1*
X81500Y25500D2*
X81938Y25938D1*
X82938D1*
X83500Y26500D1*
X81500Y23500D2*
X82000Y23000D1*
X82823D1*
X83000Y22823D1*
Y22187D1*
X83500Y21687D1*
Y21500D1*
X68562Y22000D2*
Y21063D1*
X68625Y21000D1*
X69625D1*
Y20063D1*
X71000D1*
Y18500D1*
X70500D1*
X54750Y21673D2*
Y17969D1*
X65969D1*
X66500Y18500D1*
X70784Y28596D2*
X72733D1*
X72866Y28729D1*
Y29445D1*
X83500Y24500D2*
X83505D1*
X84004Y24001D1*
Y20000D1*
X83942Y19938D1*
X81566D1*
X81504Y20000D1*
Y20496D1*
X81500Y20500D1*
X80500D2*
Y20004D1*
X80566Y19938D1*
X81566D1*
X66065Y23813D2*
X64940D1*
X73188Y27875D2*
Y28312D1*
X72904Y28596D1*
X72733D1*
X55979Y21561D2*
Y23116D1*
X56232D1*
X80500Y22500D2*
X81000Y22000D1*
X82813D1*
X83000Y21813D1*
Y21000D1*
X83500Y20500D1*
X62673Y31594D2*
X68370D1*
X68552Y31412D1*
Y27252D1*
X63996Y29531D2*
Y30356D1*
X63348Y31004D1*
X62673D1*
X54703Y23821D2*
D15*
Y26539D1*
Y27610D1*
X48453Y23761D2*
D13*
Y24083D1*
X50909Y26539D1*
X54703D1*
X65563Y25001D2*
X67000D1*
X80500Y21500D2*
X81000Y21000D1*
X82000D1*
X82500Y20500D1*
X62690Y30376D2*
Y29724D1*
X62959D1*
X63795Y28888D1*
Y27028D1*
X69278Y30439D2*
Y26831D1*
X81500Y31500D2*
X80937Y32063D1*
X74484D1*
X72866Y30445D1*
D18*
X68929Y21504D3*
X73857Y28514D3*
X47732Y26909D3*
Y24799D3*
Y20047D3*
X50969Y20232D3*
X54925Y31870D3*
X71940Y25376D3*
Y24313D3*
X61020Y19075D3*
X62531Y20996D3*
X71817Y21053D3*
X59858Y31496D3*
X59882Y27862D3*
Y22654D3*
Y21260D3*
X68562Y22000D3*
X54750Y21673D3*
X66065Y23813D3*
X64940D3*
X73188Y27875D3*
X56232Y23116D3*
X55979Y21561D3*
X62673Y31594D3*
X68552Y27252D3*
X63996Y29531D3*
X62673Y31004D3*
X54703Y23821D3*
Y27610D3*
X48453Y23761D3*
X67000Y25001D3*
X65563D3*
X62690Y30376D3*
X63795Y27028D3*
X69278Y30439D3*
Y26831D3*
X52250Y23346D3*
Y22846D3*
X60500Y30500D3*
Y30000D3*
Y29500D3*
Y29000D3*
Y28500D3*
Y28000D3*
Y27500D3*
Y27000D3*
Y26500D3*
Y26000D3*
Y25500D3*
Y25000D3*
Y24500D3*
Y24000D3*
Y23500D3*
X51795Y25953D3*
X48252Y19209D3*
X48752D3*
X52250Y22346D3*
Y21846D3*
X52750Y23346D3*
Y22846D3*
Y22346D3*
Y21846D3*
X49906Y30783D3*
X50406D3*
X50906D3*
X51406D3*
X76816Y27424D3*
Y26924D3*
Y26424D3*
Y25924D3*
X77379Y27424D3*
Y26924D3*
Y26424D3*
Y25924D3*
X76816Y25424D3*
X77379D3*
X75941Y26674D3*
Y26174D3*
X51906Y30783D3*
X52406D3*
X52906D3*
X53406D3*
X52295Y25953D3*
X52795D3*
X49252Y19209D3*
X49752D3*
X50252D3*
X50752D3*
X51252D3*
X51752D3*
X52252D3*
X52752D3*
X53252D3*
X53752D3*
X54252D3*
X51795Y25453D3*
X55252Y19209D3*
X55752D3*
X56252D3*
X56752D3*
X61000Y25000D3*
Y24500D3*
X52295Y25453D3*
X52795D3*
X44906Y28618D3*
X45406D3*
X45906D3*
X46406D3*
X46906D3*
X58083Y28996D3*
X58583D3*
X59083D3*
X61000Y24000D3*
X56750Y24596D3*
Y24096D3*
Y23596D3*
Y23096D3*
X61500Y25000D3*
Y24500D3*
Y24000D3*
X62000Y25000D3*
Y24500D3*
Y24000D3*
X62500Y25000D3*
Y24500D3*
Y24000D3*
X63000Y25000D3*
Y24500D3*
Y24000D3*
X63500Y25000D3*
Y24500D3*
Y24000D3*
X64000Y25000D3*
Y24500D3*
Y24000D3*
X64500Y25000D3*
Y24500D3*
Y24000D3*
X66000Y31000D3*
Y30500D3*
X66500Y31000D3*
Y30500D3*
X72000Y31500D3*
Y31000D3*
Y30500D3*
Y30000D3*
Y29500D3*
Y29000D3*
Y28500D3*
Y28000D3*
Y27500D3*
X72500Y19000D3*
X73000D3*
X73500D3*
X74000D3*
X74500D3*
X75000D3*
X75500D3*
X76000D3*
X76500D3*
X77000D3*
X77500D3*
X78000D3*
X78500D3*
X79000D3*
X79500D3*
X80000D3*
X80500D3*
X81000D3*
X81500D3*
X82000D3*
X82500D3*
X83000D3*
X83500D3*
X44500Y28500D3*
Y28000D3*
Y27500D3*
Y27000D3*
Y26500D3*
Y26000D3*
Y25500D3*
Y25000D3*
Y24500D3*
Y24000D3*
Y23500D3*
Y23000D3*
Y22500D3*
Y22000D3*
Y21500D3*
Y21000D3*
Y20500D3*
Y20000D3*
Y19500D3*
Y19000D3*
Y18500D3*
X44180Y31551D2*
D14*
X50454D1*
X55419D2*
X59267D1*
X60447D2*
X62085D1*
X68985D2*
X72149D1*
X74608D2*
X75175D1*
X82227D2*
X83820D1*
X44180Y31253D2*
X50454D1*
X54943D2*
X59321D1*
X60394D2*
X62138D1*
X69010D2*
X72165D1*
X74308D2*
X75175D1*
X82227D2*
X83820D1*
X44180Y30954D2*
X51475D1*
X54636D2*
X59403D1*
X60316D2*
X62085D1*
X64031D2*
X68097D1*
X69531D2*
X72341D1*
X74009D2*
X75175D1*
X44180Y30655D2*
X59403D1*
X60316D2*
X62171D1*
X64331D2*
X68097D1*
X69826D2*
X72173D1*
X73710D2*
X75175D1*
X44180Y30357D2*
X59403D1*
X60316D2*
X62097D1*
X64454D2*
X68097D1*
X69863D2*
X72145D1*
X73587D2*
X75175D1*
X44180Y30058D2*
X59403D1*
X60316D2*
X62195D1*
X64454D2*
X68097D1*
X69736D2*
X72140D1*
X73591D2*
X75175D1*
X44180Y29759D2*
X59403D1*
X60316D2*
X62232D1*
X64540D2*
X68097D1*
X69736D2*
X72140D1*
X73591D2*
X75175D1*
X44180Y29460D2*
X59403D1*
X60316D2*
X62323D1*
X64585D2*
X68097D1*
X69736D2*
X72140D1*
X73591D2*
X75175D1*
X44180Y29162D2*
X59403D1*
X60316D2*
X61609D1*
X62489D2*
X62888D1*
X64449D2*
X68097D1*
X69736D2*
X70348D1*
X71220D2*
X72140D1*
X73591D2*
X75175D1*
X44180Y28863D2*
X59403D1*
X60316D2*
X61375D1*
X62723D2*
X63188D1*
X64253D2*
X68097D1*
X69736D2*
X70110D1*
X71458D2*
X72140D1*
X74329D2*
X75175D1*
X44180Y28564D2*
X59403D1*
X60316D2*
X61322D1*
X62776D2*
X63340D1*
X64253D2*
X68097D1*
X69736D2*
X70057D1*
X71511D2*
X73268D1*
X74448D2*
X75175D1*
X44180Y28266D2*
X59403D1*
X60316D2*
X61408D1*
X62690D2*
X63340D1*
X64253D2*
X68097D1*
X69736D2*
X70139D1*
X71425D2*
X73322D1*
X74390D2*
X75175D1*
X44180Y27967D2*
X54239D1*
X55169D2*
X59300D1*
X60463D2*
X61428D1*
X62670D2*
X63340D1*
X64253D2*
X68097D1*
X69736D2*
X70164D1*
X71405D2*
X73399D1*
X44180Y27668D2*
X54112D1*
X55292D2*
X59325D1*
X60439D2*
X61326D1*
X62772D2*
X63340D1*
X64253D2*
X68097D1*
X69736D2*
X70061D1*
X71507D2*
X73399D1*
X44180Y27370D2*
X47378D1*
X48086D2*
X54116D1*
X55292D2*
X59583D1*
X60184D2*
X61363D1*
X62735D2*
X63319D1*
X64269D2*
X67974D1*
X69736D2*
X70094D1*
X71470D2*
X73399D1*
X44180Y27071D2*
X47165D1*
X48300D2*
X54116D1*
X55292D2*
X61322D1*
X62776D2*
X63204D1*
X64384D2*
X67990D1*
X69814D2*
X70057D1*
X71511D2*
X73399D1*
X44180Y26772D2*
X47157D1*
X48308D2*
X50507D1*
X55292D2*
X61322D1*
X62776D2*
X63266D1*
X64326D2*
X68228D1*
X69867D2*
X70057D1*
X71511D2*
X73399D1*
X44180Y26474D2*
X47276D1*
X48189D2*
X50212D1*
X55292D2*
X61322D1*
X62776D2*
X63672D1*
X63920D2*
X68814D1*
X69740D2*
X70057D1*
X71511D2*
X73399D1*
X44180Y26175D2*
X47276D1*
X48189D2*
X49913D1*
X55292D2*
X61322D1*
X62776D2*
X70057D1*
X71511D2*
X72674D1*
X73082D2*
X73399D1*
X44180Y25876D2*
X47276D1*
X48189D2*
X49613D1*
X50879D2*
X54116D1*
X55292D2*
X71656D1*
X44180Y25578D2*
X47276D1*
X48189D2*
X49314D1*
X50580D2*
X54116D1*
X55292D2*
X71386D1*
X83195D2*
X83820D1*
X44180Y25279D2*
X47276D1*
X48189D2*
X49015D1*
X50284D2*
X54116D1*
X55292D2*
X65046D1*
X67517D2*
X71357D1*
X82191D2*
X83820D1*
X44180Y24980D2*
X47169D1*
X48295D2*
X48715D1*
X49985D2*
X54116D1*
X55292D2*
X64972D1*
X67591D2*
X71484D1*
X44180Y24681D2*
X47153D1*
X49686D2*
X54116D1*
X55292D2*
X65070D1*
X67492D2*
X71484D1*
X44180Y24383D2*
X47325D1*
X49386D2*
X54116D1*
X55292D2*
X71353D1*
X44180Y24084D2*
X47965D1*
X49087D2*
X54116D1*
X55292D2*
X71361D1*
X44180Y23785D2*
X47862D1*
X49046D2*
X54112D1*
X55292D2*
X71361D1*
X44180Y23487D2*
X47932D1*
X48972D2*
X54223D1*
X55185D2*
X71361D1*
X44180Y23188D2*
X59677D1*
X60086D2*
X71361D1*
X44180Y22889D2*
X59341D1*
X60422D2*
X71361D1*
X44180Y22591D2*
X59292D1*
X60471D2*
X71361D1*
X44180Y22292D2*
X59423D1*
X60340D2*
X68052D1*
X69071D2*
X71361D1*
X44180Y21993D2*
X54260D1*
X55243D2*
X59423D1*
X60340D2*
X67970D1*
X70367D2*
X71361D1*
X75022D2*
X75178D1*
X44180Y21695D2*
X54157D1*
X55341D2*
X59423D1*
X60340D2*
X68060D1*
X70691D2*
X71361D1*
X44180Y21396D2*
X54231D1*
X55267D2*
X59308D1*
X60455D2*
X62105D1*
X62957D2*
X68105D1*
X70728D2*
X71341D1*
X44180Y21097D2*
X54293D1*
X55206D2*
X59312D1*
X60451D2*
X61949D1*
X63112D2*
X68105D1*
X70728D2*
X71226D1*
X44180Y20799D2*
X54293D1*
X55206D2*
X59530D1*
X60234D2*
X61974D1*
X63088D2*
X68195D1*
X44180Y20500D2*
X47370D1*
X48094D2*
X50446D1*
X51494D2*
X54293D1*
X55206D2*
X62076D1*
X62989D2*
X69167D1*
X44180Y20201D2*
X47161D1*
X51560D2*
X54293D1*
X55206D2*
X61502D1*
X62989D2*
X69167D1*
X44180Y19902D2*
X47161D1*
X51453D2*
X54293D1*
X55206D2*
X61469D1*
X72098D2*
X73773D1*
X80886D2*
X81114D1*
X81887D2*
X82110D1*
X44180Y19604D2*
X47358D1*
X48107D2*
X54293D1*
X55206D2*
X60801D1*
X61238D2*
X61469D1*
X72217D2*
X83820D1*
X44180Y19305D2*
X54293D1*
X55206D2*
X60477D1*
X72200D2*
X83820D1*
X44180Y19006D2*
X54293D1*
X55206D2*
X55773D1*
X72020D2*
X83820D1*
X44180Y18708D2*
X54293D1*
X55206D2*
X55773D1*
X71458D2*
X83820D1*
X44180Y18409D2*
X54293D1*
X55206D2*
X55773D1*
X71446D2*
X83820D1*
X82197Y31848D2*
Y31126D1*
X82368Y31184D1*
X82498Y31197D1*
X82628Y31185D1*
X82754Y31149D1*
X82871Y31089D1*
X83000Y30982D1*
X83061Y31041D1*
X83170Y31114D1*
X83291Y31165D1*
X83419Y31192D1*
X83550Y31195D1*
X83680Y31173D1*
X83803Y31128D1*
X83850Y31103D1*
Y31849D1*
X82200Y31850D1*
X82184Y25370D2*
X82148Y25244D1*
X82088Y25127D1*
X81980Y24999D1*
X82022Y25007D1*
X82125Y25087D1*
X82242Y25147D1*
X82368Y25184D1*
X82498Y25197D1*
X82628Y25185D1*
X82754Y25149D1*
X82871Y25089D1*
X83000Y24982D1*
X83061Y25041D1*
X83170Y25114D1*
X83291Y25165D1*
X83419Y25192D1*
X83550Y25195D1*
X83680Y25173D1*
X83803Y25128D1*
X83850Y25103D1*
Y25804D1*
X83405Y25803D1*
X83239Y25636D1*
X83134Y25558D1*
X83006Y25517D1*
X82806Y25511D1*
X82195D1*
X82184Y25370D1*
X81999Y20015D2*
X81888Y19922D1*
X81773Y19859D1*
X81648Y19819D1*
X81518Y19804D1*
X81387Y19813D1*
X81261Y19846D1*
X81142Y19902D1*
X81037Y19980D1*
X80999Y20015D1*
X80910Y19937D1*
X80797Y19870D1*
X80674Y19825D1*
X80544Y19805D1*
X80413Y19809D1*
X80321Y19827D1*
X80302Y19795D1*
X80209Y19702D1*
X80090Y19649D1*
X79873Y19638D1*
X75566D1*
X75437Y19662D1*
X75326Y19729D1*
X75245Y19832D1*
X75207Y19961D1*
X75204Y20919D1*
X75205Y31630D1*
X74901Y31636D1*
X74659D1*
X73559Y30534D1*
X73563Y30445D1*
X73550Y30314D1*
X73514Y30189D1*
X73490Y30141D1*
X73563Y30142D1*
Y28992D1*
X73704Y29055D1*
X73833Y29075D1*
X73964Y29065D1*
X74089Y29026D1*
X74201Y28958D1*
X74294Y28867D1*
X74364Y28756D1*
X74407Y28632D1*
X74419Y28514D1*
X74404Y28384D1*
X74359Y28261D1*
X74298Y28169D1*
X74446Y28195D1*
X74577Y28192D1*
X74705Y28166D1*
X74826Y28116D1*
X74935Y28044D1*
X75030Y27953D1*
X75105Y27845D1*
X75159Y27726D1*
X75190Y27599D1*
X75196Y27474D1*
X75179Y27344D1*
X75138Y27219D1*
X75074Y27105D1*
X74984Y26999D1*
X75062Y26911D1*
X75129Y26799D1*
X75174Y26676D1*
X75197Y26500D1*
X75184Y26370D1*
X75148Y26244D1*
X75088Y26127D1*
X74980Y25999D1*
X75062Y25911D1*
X75129Y25799D1*
X75174Y25676D1*
X75197Y25500D1*
X75184Y25370D1*
X75148Y25244D1*
X75088Y25127D1*
X74980Y24999D1*
X75062Y24911D1*
X75129Y24799D1*
X75174Y24676D1*
X75197Y24500D1*
X75184Y24370D1*
X75148Y24244D1*
X75088Y24127D1*
X74980Y23999D1*
X75062Y23911D1*
X75129Y23799D1*
X75174Y23676D1*
X75197Y23500D1*
X75184Y23370D1*
X75148Y23244D1*
X75088Y23127D1*
X74980Y22999D1*
X75062Y22911D1*
X75129Y22799D1*
X75174Y22676D1*
X75197Y22500D1*
X75184Y22370D1*
X75148Y22244D1*
X75088Y22127D1*
X74980Y21999D1*
X75030Y21953D1*
X75105Y21845D1*
X75159Y21726D1*
X75190Y21599D1*
X75196Y21474D1*
X75179Y21344D1*
X75138Y21219D1*
X75127Y21196D1*
X75197Y21197D1*
Y19803D1*
X73803D1*
Y19988D1*
X71999D1*
X72092Y19868D1*
X72150Y19751D1*
X72185Y19625D1*
X72197Y19500D1*
X72184Y19370D1*
X72148Y19244D1*
X72088Y19127D1*
X72008Y19023D1*
X71910Y18937D1*
X71797Y18870D1*
X71674Y18825D1*
X71544Y18805D1*
X71427Y18807D1*
Y18500D1*
X71407Y18371D1*
X71349Y18254D1*
X71266Y18167D1*
X71297Y18150D1*
X83850D1*
Y19800D1*
X82884Y19803D1*
X82803D1*
Y19873D1*
X82674Y19825D1*
X82544Y19805D1*
X82413Y19809D1*
X82285Y19837D1*
X82165Y19889D1*
X82057Y19963D1*
X82002Y20018D1*
X62956Y20197D2*
X63197D1*
Y20127D1*
X63368Y20184D1*
X63498Y20197D1*
X63628Y20185D1*
X63754Y20149D1*
X63871Y20089D1*
X64000Y19982D1*
X64125Y20087D1*
X64242Y20147D1*
X64368Y20184D1*
X64498Y20197D1*
X64628Y20185D1*
X64754Y20149D1*
X64871Y20089D1*
X65000Y19982D1*
X65125Y20087D1*
X65242Y20147D1*
X65368Y20184D1*
X65498Y20197D1*
X65628Y20185D1*
X65754Y20149D1*
X65871Y20089D1*
X66000Y19982D1*
X66061Y20041D1*
X66170Y20114D1*
X66291Y20165D1*
X66419Y20192D1*
X66550Y20195D1*
X66680Y20173D1*
X66803Y20128D1*
X66915Y20060D1*
X67000Y19985D1*
X67125Y20087D1*
X67242Y20147D1*
X67368Y20184D1*
X67498Y20197D1*
X67628Y20185D1*
X67754Y20149D1*
X67871Y20089D1*
X68000Y19982D1*
X68125Y20087D1*
X68242Y20147D1*
X68368Y20184D1*
X68498Y20197D1*
X68628Y20185D1*
X68754Y20149D1*
X68871Y20089D1*
X69000Y19982D1*
X69125Y20087D1*
X69202Y20126D1*
X69198Y20575D1*
X68625Y20573D1*
X68496Y20593D1*
X68356Y20668D1*
X68222Y20805D1*
X68165Y20908D1*
X68137Y21034D1*
X68136Y21633D1*
X68090Y21695D1*
X68033Y21813D1*
X68004Y21941D1*
X68005Y22071D1*
X68037Y22199D1*
X68097Y22315D1*
X68182Y22414D1*
X68289Y22491D1*
X68410Y22541D1*
X68539Y22561D1*
X68669Y22552D1*
X68794Y22512D1*
X68906Y22445D1*
X69000Y22353D1*
X69070Y22242D1*
X69112Y22118D1*
X69121Y22033D1*
X69164Y22014D1*
X70188Y22016D1*
X70317Y21999D1*
X70439Y21950D1*
X70544Y21872D1*
X70625Y21770D1*
X70678Y21650D1*
X70700Y21504D1*
Y21016D1*
X70975Y21012D1*
X71258D1*
X71260Y21125D1*
X71291Y21252D1*
X71351Y21368D1*
X71391Y21414D1*
Y24194D1*
X71382Y24254D1*
X71383Y24385D1*
X71415Y24512D1*
X71475Y24628D1*
X71515Y24675D1*
X71514Y25014D1*
X71468Y25071D1*
X71411Y25189D1*
X71382Y25316D1*
X71383Y25447D1*
X71415Y25574D1*
X71475Y25691D1*
X71560Y25790D1*
X71667Y25867D1*
X71788Y25917D1*
X71917Y25937D1*
X72047Y25928D1*
X72172Y25888D1*
X72267Y25831D1*
X72314Y25909D1*
X72400Y26007D1*
X72503Y26088D1*
X72620Y26148D1*
X72746Y26184D1*
X72876Y26197D1*
X73007Y26185D1*
X73133Y26149D1*
X73249Y26090D1*
X73353Y26010D1*
X73432Y25921D1*
X73430Y28148D1*
X73385Y28209D1*
X73327Y28327D1*
X73298Y28454D1*
X73300Y28585D1*
X73331Y28712D1*
X73348Y28745D1*
X73117Y28748D1*
X72170D1*
Y30142D1*
X72239D1*
X72204Y30228D1*
X72175Y30356D1*
X72171Y30487D1*
X72191Y30617D1*
X72235Y30740D1*
X72302Y30853D1*
X72380Y30942D1*
X72256Y31108D1*
X72204Y31228D1*
X72175Y31356D1*
X72171Y31487D1*
X72191Y31617D1*
X72235Y31740D1*
X72300Y31850D1*
X68715D1*
X68854Y31714D1*
X68932Y31609D1*
X68973Y31481D1*
X68979Y31281D1*
Y30916D1*
X69125Y30980D1*
X69254Y31000D1*
X69384Y30991D1*
X69509Y30951D1*
X69621Y30883D1*
X69715Y30792D1*
X69785Y30681D1*
X69827Y30557D1*
X69840Y30439D1*
X69824Y30309D1*
X69779Y30186D1*
X69704Y30074D1*
X69705Y27195D1*
X69785Y27073D1*
X69827Y26949D1*
X69840Y26831D1*
X69824Y26701D1*
X69779Y26578D1*
X69707Y26468D1*
X69612Y26379D1*
X69498Y26314D1*
X69372Y26277D1*
X69242Y26270D1*
X69113Y26293D1*
X68993Y26346D1*
X68889Y26425D1*
X68805Y26526D1*
X68748Y26644D1*
X68730Y26719D1*
X68647Y26698D1*
X68517Y26691D1*
X68388Y26715D1*
X68268Y26767D1*
X68164Y26846D1*
X68080Y26947D1*
X68022Y27065D1*
X67994Y27193D1*
X67995Y27323D1*
X68027Y27451D1*
X68087Y27567D1*
X68127Y27613D1*
X68125Y31168D1*
X63789D1*
X64298Y30658D1*
X64375Y30552D1*
X64417Y30424D1*
X64423Y30225D1*
Y29901D1*
X64503Y29774D1*
X64545Y29650D1*
X64558Y29531D1*
X64543Y29401D1*
X64498Y29278D1*
X64426Y29169D1*
X64330Y29080D1*
X64205Y29011D1*
X64222Y28888D1*
Y27391D1*
X64302Y27270D1*
X64345Y27146D1*
X64357Y27028D1*
X64342Y26898D1*
X64297Y26775D1*
X64225Y26665D1*
X64129Y26576D1*
X64016Y26511D1*
X63890Y26474D1*
X63759Y26467D1*
X63631Y26490D1*
X63511Y26543D1*
X63406Y26622D1*
X63323Y26723D1*
X63265Y26840D1*
X63236Y26968D1*
X63238Y27099D1*
X63270Y27226D1*
X63330Y27342D1*
X63370Y27389D1*
X63368Y28713D1*
X62783Y29296D1*
X62690Y29297D1*
X62560Y29317D1*
X62443Y29376D1*
X62349Y29466D1*
X62287Y29581D1*
X62263Y29724D1*
Y30007D1*
X62217Y30072D1*
X62160Y30189D1*
X62131Y30317D1*
X62132Y30448D1*
X62164Y30575D1*
X62218Y30680D1*
X62143Y30817D1*
X62114Y30945D1*
X62116Y31075D1*
X62147Y31202D1*
X62198Y31301D1*
X62143Y31407D1*
X62114Y31535D1*
X62116Y31666D1*
X62147Y31793D1*
X62176Y31848D1*
X60292Y31850D1*
X60365Y31738D1*
X60408Y31614D1*
X60420Y31496D1*
X60405Y31366D1*
X60360Y31243D1*
X60285Y31131D1*
Y28252D1*
X60319Y28215D1*
X60389Y28104D1*
X60431Y27980D1*
X60444Y27862D1*
X60429Y27732D1*
X60384Y27609D1*
X60312Y27500D1*
X60216Y27410D1*
X60102Y27345D1*
X59977Y27308D1*
X59846Y27301D1*
X59717Y27325D1*
X59597Y27378D1*
X59493Y27457D1*
X59410Y27558D1*
X59352Y27675D1*
X59323Y27803D1*
X59324Y27934D1*
X59356Y28061D1*
X59430Y28193D1*
X59431Y31130D1*
X59386Y31191D1*
X59328Y31309D1*
X59299Y31437D1*
X59301Y31568D1*
X59333Y31695D1*
X59393Y31811D1*
X59427Y31851D1*
X55485Y31850D1*
X55472Y31740D1*
X55427Y31617D1*
X55355Y31508D1*
X55259Y31418D1*
X55146Y31353D1*
X55020Y31316D1*
X54975Y31314D1*
X54660Y31001D1*
X54555Y30924D1*
X54427Y30882D1*
X54227Y30876D1*
X51752D1*
X51623Y30896D1*
X51503Y30957D1*
X51357Y31094D1*
X51273Y31178D1*
X50484Y31177D1*
Y31854D1*
X49879Y31850D1*
X44150D1*
Y18151D1*
X54322Y18150D1*
X54323Y21311D1*
X54278Y21369D1*
X54220Y21486D1*
X54191Y21614D1*
X54193Y21745D1*
X54224Y21872D1*
X54284Y21988D1*
X54370Y22087D1*
X54476Y22164D1*
X54597Y22214D1*
X54726Y22235D1*
X54857Y22225D1*
X54982Y22185D1*
X55094Y22118D1*
X55187Y22026D1*
X55257Y21915D1*
X55299Y21791D1*
X55312Y21673D1*
X55297Y21543D1*
X55252Y21420D1*
X55177Y21308D1*
Y18396D1*
X55804Y18395D1*
X55803Y19197D1*
X57197D1*
Y19127D1*
X57368Y19184D1*
X57498Y19197D1*
X57628Y19185D1*
X57754Y19149D1*
X57871Y19089D1*
X58000Y18982D1*
X58125Y19087D1*
X58242Y19147D1*
X58368Y19184D1*
X58498Y19197D1*
X58628Y19185D1*
X58754Y19149D1*
X58871Y19089D1*
X59000Y18982D1*
X59061Y19041D1*
X59170Y19114D1*
X59291Y19165D1*
X59419Y19192D1*
X59550Y19195D1*
X59680Y19173D1*
X59803Y19128D1*
X59915Y19060D1*
X60000Y18985D1*
X60103Y19073D1*
X60218Y19137D1*
X60342Y19178D1*
X60471Y19196D1*
X60494Y19273D1*
X60554Y19390D1*
X60640Y19489D1*
X60746Y19566D1*
X60867Y19616D1*
X60996Y19636D1*
X61127Y19627D1*
X61251Y19587D1*
X61364Y19519D1*
X61419Y19465D1*
X61498Y19564D1*
Y20031D1*
X61518Y20161D1*
X61576Y20278D1*
X61667Y20372D1*
X61782Y20434D1*
X61925Y20458D1*
X62102D1*
X62105Y20634D1*
X62059Y20691D1*
X62002Y20809D1*
X61973Y20937D1*
X61974Y21068D1*
X62006Y21195D1*
X62066Y21311D1*
X62151Y21410D1*
X62258Y21487D1*
X62379Y21537D1*
X62508Y21558D1*
X62638Y21548D1*
X62763Y21508D1*
X62875Y21441D1*
X62969Y21349D1*
X63039Y21238D1*
X63081Y21114D1*
X63093Y20996D1*
X63078Y20866D1*
X63033Y20743D1*
X62958Y20631D1*
Y20196D1*
X62677Y27296D2*
X62745D1*
Y25903D1*
X61352D1*
Y27296D1*
X61422D1*
X61387Y27383D1*
X61358Y27511D1*
X61353Y27642D1*
X61374Y27772D1*
X61418Y27895D1*
X61484Y28008D1*
X61562Y28097D1*
X61466Y28218D1*
X61405Y28334D1*
X61366Y28459D1*
X61352Y28590D1*
X61363Y28720D1*
X61397Y28847D1*
X61455Y28964D1*
X61534Y29069D1*
X61631Y29157D1*
X61743Y29226D1*
X61865Y29272D1*
X61994Y29294D1*
X62125Y29292D1*
X62254Y29266D1*
X62375Y29216D1*
X62484Y29144D1*
X62578Y29052D1*
X62654Y28945D1*
X62708Y28826D1*
X62738Y28698D1*
X62745Y28574D1*
X62728Y28444D1*
X62686Y28319D1*
X62623Y28205D1*
X62533Y28099D1*
X62611Y28011D1*
X62678Y27899D1*
X62723Y27776D1*
X62745Y27600D1*
X62733Y27469D1*
X62696Y27344D1*
X62672Y27296D1*
X71412Y27293D2*
X71480D1*
Y25899D1*
X70087D1*
Y27293D1*
X70157D1*
X70122Y27380D1*
X70093Y27507D1*
X70088Y27638D1*
X70109Y27768D1*
X70153Y27891D1*
X70219Y28004D1*
X70297Y28093D1*
X70201Y28214D1*
X70140Y28330D1*
X70101Y28456D1*
X70087Y28586D1*
X70098Y28717D1*
X70132Y28843D1*
X70190Y28961D1*
X70269Y29065D1*
X70366Y29153D1*
X70478Y29222D1*
X70600Y29268D1*
X70729Y29291D1*
X70860Y29288D1*
X70989Y29262D1*
X71110Y29212D1*
X71219Y29140D1*
X71313Y29049D1*
X71389Y28941D1*
X71443Y28822D1*
X71473Y28695D1*
X71480Y28570D1*
X71463Y28440D1*
X71421Y28315D1*
X71358Y28201D1*
X71268Y28095D1*
X71346Y28007D1*
X71413Y27895D1*
X71458Y27772D1*
X71480Y27596D1*
X71468Y27466D1*
X71432Y27340D1*
X71407Y27292D1*
X48159Y26544D2*
Y25167D1*
X48239Y25041D1*
X48282Y24917D1*
X48294Y24799D1*
X48279Y24669D1*
X48234Y24546D1*
X48162Y24437D1*
X48066Y24347D1*
X47953Y24282D1*
X47827Y24245D1*
X47696Y24238D1*
X47568Y24262D1*
X47448Y24315D1*
X47343Y24394D1*
X47260Y24495D1*
X47202Y24612D1*
X47173Y24740D1*
X47175Y24871D1*
X47207Y24998D1*
X47267Y25114D1*
X47307Y25161D1*
X47305Y26542D1*
X47260Y26605D1*
X47202Y26722D1*
X47173Y26850D1*
X47175Y26981D1*
X47207Y27108D1*
X47267Y27224D1*
X47352Y27323D1*
X47458Y27400D1*
X47579Y27450D1*
X47709Y27471D1*
X47839Y27461D1*
X47964Y27421D1*
X48076Y27354D1*
X48170Y27262D1*
X48239Y27152D1*
X48282Y27028D1*
X48294Y26909D1*
X48279Y26779D1*
X48234Y26656D1*
X48159Y26544D1*
X48097Y20474D2*
X50459D1*
X50503Y20547D1*
X50588Y20646D1*
X50695Y20723D1*
X50816Y20773D1*
X50945Y20794D1*
X51075Y20784D1*
X51200Y20744D1*
X51312Y20677D1*
X51406Y20585D1*
X51476Y20474D1*
X51518Y20350D1*
X51530Y20232D1*
X51515Y20102D1*
X51470Y19979D1*
X51398Y19870D1*
X51303Y19780D1*
X51189Y19715D1*
X51063Y19678D1*
X50980Y19668D1*
X50852Y19626D1*
X50652Y19620D1*
X48097D1*
X47953Y19530D1*
X47827Y19493D1*
X47696Y19486D1*
X47568Y19510D1*
X47448Y19563D1*
X47343Y19642D1*
X47260Y19743D1*
X47202Y19860D1*
X47173Y19988D1*
X47175Y20119D1*
X47207Y20246D1*
X47267Y20362D1*
X47352Y20461D1*
X47458Y20538D1*
X47579Y20588D1*
X47709Y20609D1*
X47839Y20599D1*
X47964Y20559D1*
X48097Y20472D1*
X60309Y22289D2*
Y21624D1*
X60389Y21502D1*
X60431Y21378D1*
X60444Y21260D1*
X60429Y21130D1*
X60384Y21007D1*
X60312Y20898D1*
X60216Y20808D1*
X60102Y20743D1*
X59977Y20706D1*
X59846Y20699D1*
X59717Y20722D1*
X59597Y20775D1*
X59493Y20854D1*
X59410Y20955D1*
X59352Y21073D1*
X59323Y21200D1*
X59324Y21331D1*
X59356Y21458D1*
X59416Y21575D1*
X59456Y21621D1*
X59455Y22289D1*
X59410Y22349D1*
X59352Y22466D1*
X59323Y22594D1*
X59324Y22725D1*
X59356Y22852D1*
X59416Y22968D1*
X59502Y23068D1*
X59608Y23144D1*
X59729Y23194D1*
X59858Y23215D1*
X59989Y23205D1*
X60114Y23166D1*
X60226Y23098D1*
X60319Y23006D1*
X60389Y22896D1*
X60431Y22772D1*
X60444Y22654D1*
X60429Y22524D1*
X60384Y22401D1*
X60309Y22288D1*
X54144Y23882D2*
Y26113D1*
X51090Y26112D1*
X49819Y24846D1*
X48964Y23990D1*
X49002Y23879D1*
X49015Y23761D1*
X49000Y23631D1*
X48955Y23508D1*
X48882Y23398D1*
X48787Y23309D1*
X48673Y23244D1*
X48548Y23207D1*
X48417Y23200D1*
X48288Y23223D1*
X48168Y23276D1*
X48064Y23355D1*
X47981Y23456D1*
X47923Y23574D1*
X47894Y23701D1*
X47895Y23832D1*
X47927Y23959D1*
X47987Y24076D1*
X48027Y24122D1*
X48046Y24212D1*
X48107Y24332D1*
X48244Y24477D1*
X50608Y26841D1*
X50713Y26918D1*
X50841Y26960D1*
X51041Y26966D1*
X54145D1*
X54146Y27682D1*
X54177Y27809D1*
X54237Y27925D1*
X54323Y28024D1*
X54429Y28101D1*
X54550Y28151D1*
X54679Y28172D1*
X54810Y28162D1*
X54935Y28122D1*
X55047Y28055D1*
X55140Y27963D1*
X55210Y27852D1*
X55252Y27728D1*
X55262Y27582D1*
X55265Y23821D1*
X55250Y23691D1*
X55205Y23568D1*
X55133Y23459D1*
X55037Y23369D1*
X54924Y23304D1*
X54798Y23267D1*
X54667Y23260D1*
X54538Y23284D1*
X54419Y23336D1*
X54314Y23415D1*
X54231Y23516D1*
X54173Y23634D1*
X54144Y23761D1*
X54145Y23798D1*
X65927Y25428D2*
X66633D1*
X66726Y25491D1*
X66847Y25542D1*
X66976Y25562D1*
X67107Y25553D1*
X67232Y25513D1*
X67344Y25445D1*
X67437Y25354D1*
X67507Y25243D1*
X67549Y25119D1*
X67562Y25001D1*
X67547Y24871D1*
X67502Y24748D1*
X67430Y24639D1*
X67334Y24549D1*
X67221Y24484D1*
X67095Y24447D1*
X66964Y24440D1*
X66835Y24463D1*
X66715Y24516D1*
X66640Y24573D1*
X65930Y24574D1*
X65783Y24484D1*
X65657Y24447D1*
X65527Y24440D1*
X65398Y24463D1*
X65278Y24516D1*
X65174Y24595D1*
X65090Y24696D1*
X65033Y24814D1*
X65004Y24941D1*
X65005Y25072D1*
X65037Y25199D1*
X65097Y25316D1*
X65182Y25415D1*
X65289Y25491D1*
X65410Y25542D1*
X65539Y25562D1*
X65669Y25553D1*
X65794Y25513D1*
X65927Y25425D1*
X81500Y20500D2*
D18*
Y19804D1*
X80500Y20500D2*
Y19804D1*
X66500Y20196D2*
Y19500D1*
X71500D2*
Y18804D1*
Y19500D2*
X72196D1*
X83500Y25196D2*
Y24500D1*
Y31196D2*
Y30500D1*
X62049Y29296D2*
Y28600D1*
X61353D2*
X62745D1*
X70784Y29292D2*
Y28596D1*
X70088D2*
X71480D1*
X72866Y29445D2*
Y28749D1*
X72170Y29445D2*
X73562D1*
X74500Y21500D2*
X75196D1*
X74500Y28196D2*
Y27500D1*
X75196D1*
X59500Y19196D2*
Y18500D1*
X60500Y19196D2*
Y18500D1*
X75746Y31178D2*
D14*
X77275D1*
X78725D2*
X79826D1*
X75746Y30879D2*
X77275D1*
X78725D2*
X79826D1*
X75746Y30580D2*
X77275D1*
X78725D2*
X79777D1*
X75746Y30282D2*
X77275D1*
X78725D2*
X79809D1*
X75746Y29983D2*
X77275D1*
X78725D2*
X79826D1*
X75746Y29684D2*
X79797D1*
X75746Y29386D2*
X79785D1*
X75746Y29087D2*
X79826D1*
X75746Y28788D2*
X79826D1*
X75746Y28490D2*
X79773D1*
X75746Y28191D2*
X79383D1*
X79619D2*
X79826D1*
X75746Y27892D2*
X78895D1*
X75746Y27594D2*
X78780D1*
X75746Y27295D2*
X78805D1*
X75746Y26996D2*
X78981D1*
X75746Y26697D2*
X78801D1*
X75746Y26399D2*
X78780D1*
X75746Y26100D2*
X78899D1*
X75746Y25801D2*
X78842D1*
X75746Y25503D2*
X78772D1*
X75746Y25204D2*
X78838D1*
X75746Y24905D2*
X78903D1*
X75746Y24607D2*
X78780D1*
X75746Y24308D2*
X78801D1*
X75746Y24009D2*
X78977D1*
X75746Y23711D2*
X78805D1*
X75746Y23412D2*
X78780D1*
X75746Y23113D2*
X78891D1*
X75746Y22815D2*
X78850D1*
X75746Y22516D2*
X78772D1*
X75746Y22217D2*
X78833D1*
X75746Y21918D2*
X78911D1*
X75746Y21620D2*
X78784D1*
X75746Y21321D2*
X78797D1*
X75746Y21022D2*
X78772D1*
X75746Y20724D2*
X78772D1*
X75746Y20425D2*
X78772D1*
X79853Y31250D2*
X79809Y31411D1*
X79807Y31473D1*
X79085Y31476D1*
X78696D1*
X78684Y31370D1*
X78648Y31244D1*
X78624Y31196D1*
X78697Y31197D1*
Y29803D1*
X77303D1*
Y31197D1*
X77373D1*
X77338Y31284D1*
X77309Y31411D1*
X77307Y31473D1*
X76723Y31476D1*
X75718D1*
X75716Y28739D1*
Y20148D1*
X77797Y20150D1*
X78802D1*
X78803Y21197D1*
X78873D1*
X78838Y21284D1*
X78809Y21411D1*
X78805Y21542D1*
X78825Y21672D1*
X78869Y21795D1*
X78935Y21908D1*
X79014Y21997D1*
X78890Y22163D1*
X78838Y22284D1*
X78809Y22411D1*
X78805Y22542D1*
X78825Y22672D1*
X78869Y22795D1*
X78935Y22908D1*
X79014Y22997D1*
X78890Y23163D1*
X78838Y23284D1*
X78809Y23411D1*
X78805Y23542D1*
X78825Y23672D1*
X78869Y23795D1*
X78935Y23908D1*
X79014Y23997D1*
X78890Y24163D1*
X78838Y24284D1*
X78809Y24411D1*
X78805Y24542D1*
X78825Y24672D1*
X78869Y24795D1*
X78935Y24908D1*
X79014Y24997D1*
X78890Y25163D1*
X78838Y25284D1*
X78809Y25411D1*
X78805Y25542D1*
X78825Y25672D1*
X78869Y25795D1*
X78935Y25908D1*
X79014Y25997D1*
X78890Y26163D1*
X78838Y26284D1*
X78809Y26411D1*
X78805Y26542D1*
X78825Y26672D1*
X78869Y26795D1*
X78935Y26908D1*
X79014Y26997D1*
X78890Y27163D1*
X78838Y27284D1*
X78809Y27411D1*
X78805Y27542D1*
X78825Y27672D1*
X78869Y27795D1*
X78935Y27908D1*
X79022Y28007D1*
X79125Y28087D1*
X79242Y28147D1*
X79368Y28184D1*
X79498Y28197D1*
X79628Y28185D1*
X79754Y28149D1*
X79853Y28099D1*
X79854Y28239D1*
X79809Y28411D1*
X79805Y28542D1*
X79825Y28672D1*
X79854Y28753D1*
Y29240D1*
X79809Y29411D1*
X79805Y29542D1*
X79825Y29672D1*
X79854Y29753D1*
Y30241D1*
X79809Y30411D1*
X79805Y30542D1*
X79825Y30672D1*
X79854Y30761D1*
Y31241D1*
D29*
X81500Y31500D3*
D30*
X80500D3*
X81500Y30500D3*
X80500D3*
X81500Y29500D3*
X80500D3*
X81500Y28500D3*
X80500D3*
X81500Y27500D3*
X80500D3*
X81500Y26500D3*
X80500D3*
X81500Y25500D3*
X80500D3*
X81500Y24500D3*
X80500D3*
X81500Y23500D3*
X80500D3*
X81500Y22500D3*
X80500D3*
X81500Y21500D3*
X80500D3*
X81500Y20500D3*
X80500D3*
D29*
X62500Y19500D3*
D30*
X63500D3*
X64500D3*
X65500D3*
X66500D3*
X67500D3*
X68500D3*
X69500D3*
X70500D3*
X71500D3*
D29*
X83500Y20500D3*
D30*
X82500D3*
X83500Y21500D3*
X82500D3*
X83500Y22500D3*
X82500D3*
X83500Y23500D3*
X82500D3*
X83500Y24500D3*
X82500D3*
D29*
X83500Y26500D3*
D30*
X82500D3*
X83500Y27500D3*
X82500D3*
X83500Y28500D3*
X82500D3*
X83500Y29500D3*
X82500D3*
X83500Y30500D3*
X82500D3*
D29*
X51181Y31874D3*
D30*
X52181D3*
X53181D3*
D29*
X62049Y26600D3*
D30*
Y27600D3*
Y28600D3*
D29*
X70784Y26596D3*
D30*
Y27596D3*
Y28596D3*
D29*
X78000Y30500D3*
D30*
Y31500D3*
D29*
X72866Y29445D3*
D30*
Y30445D3*
Y31445D3*
D29*
X72878Y22501D3*
D30*
Y23501D3*
Y24501D3*
Y25501D3*
D29*
X79500Y20500D3*
D30*
Y21500D3*
Y22500D3*
Y23500D3*
Y24500D3*
Y25500D3*
Y26500D3*
Y27500D3*
D29*
X74500Y20500D3*
D30*
Y21500D3*
Y22500D3*
Y23500D3*
Y24500D3*
Y25500D3*
Y26500D3*
Y27500D3*
D29*
X56500Y18500D3*
D30*
X57500D3*
X58500D3*
X59500D3*
X60500D3*
X61500D3*
X62500D3*
X63500D3*
X64500D3*
X65500D3*
X66500D3*
X67500D3*
X68500D3*
X69500D3*
X70500D3*
X31000Y38000D2*
D14*
X30357D1*
X26688D1*
Y39004D1*
X25429D1*
X30357Y46014D2*
D13*
Y38000D1*
X4232Y44409D2*
Y42299D1*
Y37547D2*
X7283D1*
X7469Y37732D1*
X11425Y49370D2*
X10858Y48803D1*
X8252D1*
X7681Y49374D1*
X28440Y42876D2*
Y41813D1*
X17520Y36575D2*
Y36539D1*
X18425D1*
Y37531D1*
X19031D1*
Y38496D1*
X28317Y38553D2*
Y41690D1*
X28440Y41813D1*
X16358Y48996D2*
Y45386D1*
X16382Y45362D1*
Y40154D2*
Y38760D1*
X37000Y47000D2*
X37500Y47500D1*
X39500D1*
X40000Y47000D1*
X37000Y46000D2*
X37500Y46500D1*
X39500D1*
X40000Y46000D1*
X38000Y44000D2*
X38500Y44500D1*
X39500D1*
X40000Y45000D1*
X38000Y43000D2*
X38438Y43438D1*
X39438D1*
X40000Y44000D1*
X38000Y41000D2*
X38500Y40500D1*
X39323D1*
X39500Y40323D1*
Y39687D1*
X40000Y39187D1*
Y39000D1*
X25062Y39500D2*
Y38563D1*
X25125Y38500D1*
X26125D1*
Y37563D1*
X27500D1*
Y36000D1*
X27000D1*
X11250Y39173D2*
Y35469D1*
X22469D1*
X23000Y36000D1*
X27284Y46096D2*
X29233D1*
X29366Y46229D1*
Y46945D1*
X40000Y42000D2*
X40005D1*
X40504Y41501D1*
Y37500D1*
X40442Y37438D1*
X38066D1*
X38004Y37500D1*
Y37996D1*
X38000Y38000D1*
X37000D2*
Y37504D1*
X37066Y37438D1*
X38066D1*
X22565Y41313D2*
X21440D1*
X29688Y45375D2*
Y45812D1*
X29404Y46096D1*
X29233D1*
X12479Y39061D2*
Y40616D1*
X12732D1*
X37000Y40000D2*
X37500Y39500D1*
X39313D1*
X39500Y39313D1*
Y38500D1*
X40000Y38000D1*
X19173Y49094D2*
X24870D1*
X25052Y48912D1*
Y44752D1*
X20496Y47031D2*
Y47856D1*
X19848Y48504D1*
X19173D1*
X11203Y41321D2*
D15*
Y44039D1*
Y45110D1*
X4953Y41261D2*
D13*
Y41583D1*
X7409Y44039D1*
X11203D1*
X22063Y42501D2*
X23500D1*
X37000Y39000D2*
X37500Y38500D1*
X38500D1*
X39000Y38000D1*
X19190Y47876D2*
Y47224D1*
X19459D1*
X20295Y46388D1*
Y44528D1*
X25778Y47939D2*
Y44331D1*
X38000Y49000D2*
X37437Y49563D1*
X30984D1*
X29366Y47945D1*
D18*
X25429Y39004D3*
X30357Y46014D3*
X4232Y44409D3*
Y42299D3*
Y37547D3*
X7469Y37732D3*
X11425Y49370D3*
X28440Y42876D3*
Y41813D3*
X17520Y36575D3*
X19031Y38496D3*
X28317Y38553D3*
X16358Y48996D3*
X16382Y45362D3*
Y40154D3*
Y38760D3*
X25062Y39500D3*
X11250Y39173D3*
X22565Y41313D3*
X21440D3*
X29688Y45375D3*
X12732Y40616D3*
X12479Y39061D3*
X19173Y49094D3*
X25052Y44752D3*
X20496Y47031D3*
X19173Y48504D3*
X11203Y41321D3*
Y45110D3*
X4953Y41261D3*
X23500Y42501D3*
X22063D3*
X19190Y47876D3*
X20295Y44528D3*
X25778Y47939D3*
Y44331D3*
X8750Y40846D3*
Y40346D3*
X17000Y48000D3*
Y47500D3*
Y47000D3*
Y46500D3*
Y46000D3*
Y45500D3*
Y45000D3*
Y44500D3*
Y44000D3*
Y43500D3*
Y43000D3*
Y42500D3*
Y42000D3*
Y41500D3*
Y41000D3*
X8295Y43453D3*
X4752Y36709D3*
X5252D3*
X8750Y39846D3*
Y39346D3*
X9250Y40846D3*
Y40346D3*
Y39846D3*
Y39346D3*
X6406Y48283D3*
X6906D3*
X7406D3*
X7906D3*
X33316Y44924D3*
Y44424D3*
Y43924D3*
Y43424D3*
X33879Y44924D3*
Y44424D3*
Y43924D3*
Y43424D3*
X33316Y42924D3*
X33879D3*
X32441Y44174D3*
Y43674D3*
X8406Y48283D3*
X8906D3*
X9406D3*
X9906D3*
X8795Y43453D3*
X9295D3*
X5752Y36709D3*
X6252D3*
X6752D3*
X7252D3*
X7752D3*
X8252D3*
X8752D3*
X9252D3*
X9752D3*
X10252D3*
X10752D3*
X8295Y42953D3*
X11752Y36709D3*
X12252D3*
X12752D3*
X13252D3*
X17500Y42500D3*
Y42000D3*
X8795Y42953D3*
X9295D3*
X1406Y46118D3*
X1906D3*
X2406D3*
X2906D3*
X3406D3*
X14583Y46496D3*
X15083D3*
X15583D3*
X17500Y41500D3*
X13250Y42096D3*
Y41596D3*
Y41096D3*
Y40596D3*
X18000Y42500D3*
Y42000D3*
Y41500D3*
X18500Y42500D3*
Y42000D3*
Y41500D3*
X19000Y42500D3*
Y42000D3*
Y41500D3*
X19500Y42500D3*
Y42000D3*
Y41500D3*
X20000Y42500D3*
Y42000D3*
Y41500D3*
X20500Y42500D3*
Y42000D3*
Y41500D3*
X21000Y42500D3*
Y42000D3*
Y41500D3*
X22500Y48500D3*
Y48000D3*
X23000Y48500D3*
Y48000D3*
X28500Y49000D3*
Y48500D3*
Y48000D3*
Y47500D3*
Y47000D3*
Y46500D3*
Y46000D3*
Y45500D3*
Y45000D3*
X29000Y36500D3*
X29500D3*
X30000D3*
X30500D3*
X31000D3*
X31500D3*
X32000D3*
X32500D3*
X33000D3*
X33500D3*
X34000D3*
X34500D3*
X35000D3*
X35500D3*
X36000D3*
X36500D3*
X37000D3*
X37500D3*
X38000D3*
X38500D3*
X39000D3*
X39500D3*
X40000D3*
X1000Y46000D3*
Y45500D3*
Y45000D3*
Y44500D3*
Y44000D3*
Y43500D3*
Y43000D3*
Y42500D3*
Y42000D3*
Y41500D3*
Y41000D3*
Y40500D3*
Y40000D3*
Y39500D3*
Y39000D3*
Y38500D3*
Y38000D3*
Y37500D3*
Y37000D3*
Y36500D3*
Y36000D3*
X680Y49051D2*
D14*
X6954D1*
X11919D2*
X15767D1*
X16947D2*
X18585D1*
X25485D2*
X28649D1*
X31108D2*
X31675D1*
X38727D2*
X40320D1*
X680Y48753D2*
X6954D1*
X11443D2*
X15821D1*
X16894D2*
X18638D1*
X25510D2*
X28665D1*
X30808D2*
X31675D1*
X38727D2*
X40320D1*
X680Y48454D2*
X7975D1*
X11136D2*
X15903D1*
X16816D2*
X18585D1*
X20531D2*
X24597D1*
X26031D2*
X28841D1*
X30509D2*
X31675D1*
X680Y48155D2*
X15903D1*
X16816D2*
X18671D1*
X20831D2*
X24597D1*
X26326D2*
X28673D1*
X30210D2*
X31675D1*
X680Y47857D2*
X15903D1*
X16816D2*
X18597D1*
X20954D2*
X24597D1*
X26363D2*
X28645D1*
X30087D2*
X31675D1*
X680Y47558D2*
X15903D1*
X16816D2*
X18695D1*
X20954D2*
X24597D1*
X26236D2*
X28640D1*
X30091D2*
X31675D1*
X680Y47259D2*
X15903D1*
X16816D2*
X18732D1*
X21040D2*
X24597D1*
X26236D2*
X28640D1*
X30091D2*
X31675D1*
X680Y46960D2*
X15903D1*
X16816D2*
X18823D1*
X21085D2*
X24597D1*
X26236D2*
X28640D1*
X30091D2*
X31675D1*
X680Y46662D2*
X15903D1*
X16816D2*
X18109D1*
X18989D2*
X19388D1*
X20949D2*
X24597D1*
X26236D2*
X26848D1*
X27720D2*
X28640D1*
X30091D2*
X31675D1*
X680Y46363D2*
X15903D1*
X16816D2*
X17875D1*
X19223D2*
X19688D1*
X20753D2*
X24597D1*
X26236D2*
X26610D1*
X27958D2*
X28640D1*
X30829D2*
X31675D1*
X680Y46064D2*
X15903D1*
X16816D2*
X17822D1*
X19276D2*
X19840D1*
X20753D2*
X24597D1*
X26236D2*
X26557D1*
X28011D2*
X29768D1*
X30948D2*
X31675D1*
X680Y45766D2*
X15903D1*
X16816D2*
X17908D1*
X19190D2*
X19840D1*
X20753D2*
X24597D1*
X26236D2*
X26639D1*
X27925D2*
X29822D1*
X30890D2*
X31675D1*
X680Y45467D2*
X10739D1*
X11669D2*
X15800D1*
X16963D2*
X17928D1*
X19170D2*
X19840D1*
X20753D2*
X24597D1*
X26236D2*
X26664D1*
X27905D2*
X29899D1*
X680Y45168D2*
X10612D1*
X11792D2*
X15825D1*
X16939D2*
X17826D1*
X19272D2*
X19840D1*
X20753D2*
X24597D1*
X26236D2*
X26561D1*
X28007D2*
X29899D1*
X680Y44870D2*
X3878D1*
X4586D2*
X10616D1*
X11792D2*
X16083D1*
X16684D2*
X17863D1*
X19235D2*
X19819D1*
X20769D2*
X24474D1*
X26236D2*
X26594D1*
X27970D2*
X29899D1*
X680Y44571D2*
X3665D1*
X4800D2*
X10616D1*
X11792D2*
X17822D1*
X19276D2*
X19704D1*
X20884D2*
X24490D1*
X26314D2*
X26557D1*
X28011D2*
X29899D1*
X680Y44272D2*
X3657D1*
X4808D2*
X7007D1*
X11792D2*
X17822D1*
X19276D2*
X19766D1*
X20826D2*
X24728D1*
X26367D2*
X26557D1*
X28011D2*
X29899D1*
X680Y43974D2*
X3776D1*
X4689D2*
X6712D1*
X11792D2*
X17822D1*
X19276D2*
X20172D1*
X20420D2*
X25314D1*
X26240D2*
X26557D1*
X28011D2*
X29899D1*
X680Y43675D2*
X3776D1*
X4689D2*
X6413D1*
X11792D2*
X17822D1*
X19276D2*
X26557D1*
X28011D2*
X29174D1*
X29582D2*
X29899D1*
X680Y43376D2*
X3776D1*
X4689D2*
X6113D1*
X7379D2*
X10616D1*
X11792D2*
X28156D1*
X680Y43078D2*
X3776D1*
X4689D2*
X5814D1*
X7080D2*
X10616D1*
X11792D2*
X27886D1*
X39695D2*
X40320D1*
X680Y42779D2*
X3776D1*
X4689D2*
X5515D1*
X6784D2*
X10616D1*
X11792D2*
X21546D1*
X24017D2*
X27857D1*
X38691D2*
X40320D1*
X680Y42480D2*
X3669D1*
X4795D2*
X5215D1*
X6485D2*
X10616D1*
X11792D2*
X21472D1*
X24091D2*
X27984D1*
X680Y42181D2*
X3653D1*
X6186D2*
X10616D1*
X11792D2*
X21570D1*
X23992D2*
X27984D1*
X680Y41883D2*
X3825D1*
X5886D2*
X10616D1*
X11792D2*
X27853D1*
X680Y41584D2*
X4465D1*
X5587D2*
X10616D1*
X11792D2*
X27861D1*
X680Y41285D2*
X4362D1*
X5546D2*
X10612D1*
X11792D2*
X27861D1*
X680Y40987D2*
X4432D1*
X5472D2*
X10723D1*
X11685D2*
X27861D1*
X680Y40688D2*
X16177D1*
X16586D2*
X27861D1*
X680Y40389D2*
X15841D1*
X16922D2*
X27861D1*
X680Y40091D2*
X15792D1*
X16971D2*
X27861D1*
X680Y39792D2*
X15923D1*
X16840D2*
X24552D1*
X25571D2*
X27861D1*
X680Y39493D2*
X10760D1*
X11743D2*
X15923D1*
X16840D2*
X24470D1*
X26867D2*
X27861D1*
X31522D2*
X31678D1*
X680Y39195D2*
X10657D1*
X11841D2*
X15923D1*
X16840D2*
X24560D1*
X27191D2*
X27861D1*
X680Y38896D2*
X10731D1*
X11767D2*
X15808D1*
X16955D2*
X18605D1*
X19457D2*
X24605D1*
X27228D2*
X27841D1*
X680Y38597D2*
X10793D1*
X11706D2*
X15812D1*
X16951D2*
X18449D1*
X19612D2*
X24605D1*
X27228D2*
X27726D1*
X680Y38299D2*
X10793D1*
X11706D2*
X16030D1*
X16734D2*
X18474D1*
X19588D2*
X24695D1*
X680Y38000D2*
X3870D1*
X4594D2*
X6946D1*
X7994D2*
X10793D1*
X11706D2*
X18576D1*
X19489D2*
X25667D1*
X680Y37701D2*
X3661D1*
X8060D2*
X10793D1*
X11706D2*
X18002D1*
X19489D2*
X25667D1*
X680Y37402D2*
X3661D1*
X7953D2*
X10793D1*
X11706D2*
X17969D1*
X28598D2*
X30273D1*
X37386D2*
X37614D1*
X38387D2*
X38610D1*
X680Y37104D2*
X3858D1*
X4607D2*
X10793D1*
X11706D2*
X17301D1*
X17738D2*
X17969D1*
X28717D2*
X40320D1*
X680Y36805D2*
X10793D1*
X11706D2*
X16977D1*
X28700D2*
X40320D1*
X680Y36506D2*
X10793D1*
X11706D2*
X12273D1*
X28520D2*
X40320D1*
X680Y36208D2*
X10793D1*
X11706D2*
X12273D1*
X27958D2*
X40320D1*
X680Y35909D2*
X10793D1*
X11706D2*
X12273D1*
X27946D2*
X40320D1*
X38697Y49348D2*
Y48626D1*
X38868Y48684D1*
X38998Y48697D1*
X39128Y48685D1*
X39254Y48649D1*
X39371Y48589D1*
X39500Y48482D1*
X39561Y48541D1*
X39670Y48614D1*
X39791Y48665D1*
X39919Y48692D1*
X40050Y48695D1*
X40180Y48673D1*
X40303Y48628D1*
X40350Y48603D1*
Y49349D1*
X38700Y49350D1*
X38684Y42870D2*
X38648Y42744D1*
X38588Y42627D1*
X38480Y42499D1*
X38522Y42507D1*
X38625Y42587D1*
X38742Y42647D1*
X38868Y42684D1*
X38998Y42697D1*
X39128Y42685D1*
X39254Y42649D1*
X39371Y42589D1*
X39500Y42482D1*
X39561Y42541D1*
X39670Y42614D1*
X39791Y42665D1*
X39919Y42692D1*
X40050Y42695D1*
X40180Y42673D1*
X40303Y42628D1*
X40350Y42603D1*
Y43304D1*
X39905Y43303D1*
X39739Y43136D1*
X39634Y43058D1*
X39506Y43017D1*
X39306Y43011D1*
X38695D1*
X38684Y42870D1*
X38499Y37515D2*
X38388Y37422D1*
X38273Y37359D1*
X38148Y37319D1*
X38018Y37304D1*
X37887Y37313D1*
X37761Y37346D1*
X37642Y37402D1*
X37537Y37480D1*
X37499Y37515D1*
X37410Y37437D1*
X37297Y37370D1*
X37174Y37325D1*
X37044Y37305D1*
X36913Y37309D1*
X36821Y37327D1*
X36802Y37295D1*
X36709Y37202D1*
X36590Y37149D1*
X36373Y37138D1*
X32066D1*
X31937Y37162D1*
X31826Y37229D1*
X31745Y37332D1*
X31707Y37461D1*
X31704Y38419D1*
X31705Y49130D1*
X31401Y49136D1*
X31159D1*
X30059Y48034D1*
X30063Y47945D1*
X30050Y47814D1*
X30014Y47689D1*
X29990Y47641D1*
X30063Y47642D1*
Y46492D1*
X30204Y46555D1*
X30333Y46575D1*
X30464Y46565D1*
X30589Y46526D1*
X30701Y46458D1*
X30794Y46367D1*
X30864Y46256D1*
X30907Y46132D1*
X30919Y46014D1*
X30904Y45884D1*
X30859Y45761D1*
X30798Y45669D1*
X30946Y45695D1*
X31077Y45692D1*
X31205Y45666D1*
X31326Y45616D1*
X31435Y45544D1*
X31530Y45453D1*
X31605Y45345D1*
X31659Y45226D1*
X31690Y45099D1*
X31696Y44974D1*
X31679Y44844D1*
X31638Y44719D1*
X31574Y44605D1*
X31484Y44499D1*
X31562Y44411D1*
X31629Y44299D1*
X31674Y44176D1*
X31697Y44000D1*
X31684Y43870D1*
X31648Y43744D1*
X31588Y43627D1*
X31480Y43499D1*
X31562Y43411D1*
X31629Y43299D1*
X31674Y43176D1*
X31697Y43000D1*
X31684Y42870D1*
X31648Y42744D1*
X31588Y42627D1*
X31480Y42499D1*
X31562Y42411D1*
X31629Y42299D1*
X31674Y42176D1*
X31697Y42000D1*
X31684Y41870D1*
X31648Y41744D1*
X31588Y41627D1*
X31480Y41499D1*
X31562Y41411D1*
X31629Y41299D1*
X31674Y41176D1*
X31697Y41000D1*
X31684Y40870D1*
X31648Y40744D1*
X31588Y40627D1*
X31480Y40499D1*
X31562Y40411D1*
X31629Y40299D1*
X31674Y40176D1*
X31697Y40000D1*
X31684Y39870D1*
X31648Y39744D1*
X31588Y39627D1*
X31480Y39499D1*
X31530Y39453D1*
X31605Y39345D1*
X31659Y39226D1*
X31690Y39099D1*
X31696Y38974D1*
X31679Y38844D1*
X31638Y38719D1*
X31627Y38696D1*
X31697Y38697D1*
Y37303D1*
X30303D1*
Y37488D1*
X28499D1*
X28592Y37368D1*
X28650Y37251D1*
X28685Y37125D1*
X28697Y37000D1*
X28684Y36870D1*
X28648Y36744D1*
X28588Y36627D1*
X28508Y36523D1*
X28410Y36437D1*
X28297Y36370D1*
X28174Y36325D1*
X28044Y36305D1*
X27927Y36307D1*
Y36000D1*
X27907Y35871D1*
X27849Y35754D1*
X27766Y35667D1*
X27797Y35650D1*
X40350D1*
Y37300D1*
X39384Y37303D1*
X39303D1*
Y37373D1*
X39174Y37325D1*
X39044Y37305D1*
X38913Y37309D1*
X38785Y37337D1*
X38665Y37389D1*
X38557Y37463D1*
X38502Y37518D1*
X19456Y37697D2*
X19697D1*
Y37627D1*
X19868Y37684D1*
X19998Y37697D1*
X20128Y37685D1*
X20254Y37649D1*
X20371Y37589D1*
X20500Y37482D1*
X20625Y37587D1*
X20742Y37647D1*
X20868Y37684D1*
X20998Y37697D1*
X21128Y37685D1*
X21254Y37649D1*
X21371Y37589D1*
X21500Y37482D1*
X21625Y37587D1*
X21742Y37647D1*
X21868Y37684D1*
X21998Y37697D1*
X22128Y37685D1*
X22254Y37649D1*
X22371Y37589D1*
X22500Y37482D1*
X22561Y37541D1*
X22670Y37614D1*
X22791Y37665D1*
X22919Y37692D1*
X23050Y37695D1*
X23180Y37673D1*
X23303Y37628D1*
X23415Y37560D1*
X23500Y37485D1*
X23625Y37587D1*
X23742Y37647D1*
X23868Y37684D1*
X23998Y37697D1*
X24128Y37685D1*
X24254Y37649D1*
X24371Y37589D1*
X24500Y37482D1*
X24625Y37587D1*
X24742Y37647D1*
X24868Y37684D1*
X24998Y37697D1*
X25128Y37685D1*
X25254Y37649D1*
X25371Y37589D1*
X25500Y37482D1*
X25625Y37587D1*
X25702Y37626D1*
X25698Y38075D1*
X25125Y38073D1*
X24996Y38093D1*
X24856Y38168D1*
X24722Y38305D1*
X24665Y38408D1*
X24637Y38534D1*
X24636Y39133D1*
X24590Y39195D1*
X24533Y39313D1*
X24504Y39441D1*
X24505Y39571D1*
X24537Y39699D1*
X24597Y39815D1*
X24682Y39914D1*
X24789Y39991D1*
X24910Y40041D1*
X25039Y40061D1*
X25169Y40052D1*
X25294Y40012D1*
X25406Y39945D1*
X25500Y39853D1*
X25570Y39742D1*
X25612Y39618D1*
X25621Y39533D1*
X25664Y39514D1*
X26688Y39516D1*
X26817Y39499D1*
X26939Y39450D1*
X27044Y39372D1*
X27125Y39270D1*
X27178Y39150D1*
X27200Y39004D1*
Y38516D1*
X27475Y38512D1*
X27758D1*
X27760Y38625D1*
X27791Y38752D1*
X27851Y38868D1*
X27891Y38914D1*
Y41694D1*
X27882Y41754D1*
X27883Y41885D1*
X27915Y42012D1*
X27975Y42128D1*
X28015Y42175D1*
X28014Y42514D1*
X27968Y42571D1*
X27911Y42689D1*
X27882Y42816D1*
X27883Y42947D1*
X27915Y43074D1*
X27975Y43191D1*
X28060Y43290D1*
X28167Y43367D1*
X28288Y43417D1*
X28417Y43437D1*
X28547Y43428D1*
X28672Y43388D1*
X28767Y43331D1*
X28814Y43409D1*
X28900Y43507D1*
X29003Y43588D1*
X29120Y43648D1*
X29246Y43684D1*
X29376Y43697D1*
X29507Y43685D1*
X29633Y43649D1*
X29749Y43590D1*
X29853Y43510D1*
X29932Y43421D1*
X29930Y45648D1*
X29885Y45709D1*
X29827Y45827D1*
X29798Y45954D1*
X29800Y46085D1*
X29831Y46212D1*
X29848Y46245D1*
X29617Y46248D1*
X28670D1*
Y47642D1*
X28739D1*
X28704Y47728D1*
X28675Y47856D1*
X28671Y47987D1*
X28691Y48117D1*
X28735Y48240D1*
X28802Y48353D1*
X28880Y48442D1*
X28756Y48608D1*
X28704Y48728D1*
X28675Y48856D1*
X28671Y48987D1*
X28691Y49117D1*
X28735Y49240D1*
X28800Y49350D1*
X25215D1*
X25354Y49214D1*
X25432Y49109D1*
X25473Y48981D1*
X25479Y48781D1*
Y48416D1*
X25625Y48480D1*
X25754Y48500D1*
X25884Y48491D1*
X26009Y48451D1*
X26121Y48383D1*
X26215Y48292D1*
X26285Y48181D1*
X26327Y48057D1*
X26340Y47939D1*
X26324Y47809D1*
X26279Y47686D1*
X26204Y47574D1*
X26205Y44695D1*
X26285Y44573D1*
X26327Y44449D1*
X26340Y44331D1*
X26324Y44201D1*
X26279Y44078D1*
X26207Y43968D1*
X26112Y43879D1*
X25998Y43814D1*
X25872Y43777D1*
X25742Y43770D1*
X25613Y43793D1*
X25493Y43846D1*
X25389Y43925D1*
X25305Y44026D1*
X25248Y44144D1*
X25230Y44219D1*
X25147Y44198D1*
X25017Y44191D1*
X24888Y44215D1*
X24768Y44267D1*
X24664Y44346D1*
X24580Y44447D1*
X24522Y44565D1*
X24494Y44693D1*
X24495Y44823D1*
X24527Y44951D1*
X24587Y45067D1*
X24627Y45113D1*
X24625Y48668D1*
X20289D1*
X20798Y48158D1*
X20875Y48052D1*
X20917Y47924D1*
X20923Y47725D1*
Y47401D1*
X21003Y47274D1*
X21045Y47150D1*
X21058Y47031D1*
X21043Y46901D1*
X20998Y46778D1*
X20926Y46669D1*
X20830Y46580D1*
X20705Y46511D1*
X20722Y46388D1*
Y44891D1*
X20802Y44770D1*
X20845Y44646D1*
X20857Y44528D1*
X20842Y44398D1*
X20797Y44275D1*
X20725Y44165D1*
X20629Y44076D1*
X20516Y44011D1*
X20390Y43974D1*
X20259Y43967D1*
X20131Y43990D1*
X20011Y44043D1*
X19906Y44122D1*
X19823Y44223D1*
X19765Y44340D1*
X19736Y44468D1*
X19738Y44599D1*
X19770Y44726D1*
X19830Y44842D1*
X19870Y44889D1*
X19868Y46213D1*
X19283Y46796D1*
X19190Y46797D1*
X19060Y46817D1*
X18943Y46876D1*
X18849Y46966D1*
X18787Y47081D1*
X18763Y47224D1*
Y47507D1*
X18717Y47572D1*
X18660Y47689D1*
X18631Y47817D1*
X18632Y47948D1*
X18664Y48075D1*
X18718Y48180D1*
X18643Y48317D1*
X18614Y48445D1*
X18616Y48575D1*
X18647Y48702D1*
X18698Y48801D1*
X18643Y48907D1*
X18614Y49035D1*
X18616Y49166D1*
X18647Y49293D1*
X18676Y49348D1*
X16792Y49350D1*
X16865Y49238D1*
X16908Y49114D1*
X16920Y48996D1*
X16905Y48866D1*
X16860Y48743D1*
X16785Y48631D1*
Y45752D1*
X16819Y45715D1*
X16889Y45604D1*
X16931Y45480D1*
X16944Y45362D1*
X16929Y45232D1*
X16884Y45109D1*
X16812Y45000D1*
X16716Y44910D1*
X16602Y44845D1*
X16477Y44808D1*
X16346Y44801D1*
X16217Y44825D1*
X16097Y44878D1*
X15993Y44957D1*
X15910Y45058D1*
X15852Y45175D1*
X15823Y45303D1*
X15824Y45434D1*
X15856Y45561D1*
X15930Y45693D1*
X15931Y48630D1*
X15886Y48691D1*
X15828Y48809D1*
X15799Y48937D1*
X15801Y49068D1*
X15833Y49195D1*
X15893Y49311D1*
X15927Y49351D1*
X11985Y49350D1*
X11972Y49240D1*
X11927Y49117D1*
X11855Y49008D1*
X11759Y48918D1*
X11646Y48853D1*
X11520Y48816D1*
X11475Y48814D1*
X11160Y48501D1*
X11055Y48424D1*
X10927Y48382D1*
X10727Y48376D1*
X8252D1*
X8123Y48396D1*
X8003Y48457D1*
X7857Y48594D1*
X7773Y48678D1*
X6984Y48677D1*
Y49354D1*
X6379Y49350D1*
X650D1*
Y35651D1*
X10822Y35650D1*
X10823Y38811D1*
X10778Y38869D1*
X10720Y38986D1*
X10691Y39114D1*
X10693Y39245D1*
X10724Y39372D1*
X10784Y39488D1*
X10870Y39587D1*
X10976Y39664D1*
X11097Y39714D1*
X11226Y39735D1*
X11357Y39725D1*
X11482Y39685D1*
X11594Y39618D1*
X11687Y39526D1*
X11757Y39415D1*
X11799Y39291D1*
X11812Y39173D1*
X11797Y39043D1*
X11752Y38920D1*
X11677Y38808D1*
Y35896D1*
X12304Y35895D1*
X12303Y36697D1*
X13697D1*
Y36627D1*
X13868Y36684D1*
X13998Y36697D1*
X14128Y36685D1*
X14254Y36649D1*
X14371Y36589D1*
X14500Y36482D1*
X14625Y36587D1*
X14742Y36647D1*
X14868Y36684D1*
X14998Y36697D1*
X15128Y36685D1*
X15254Y36649D1*
X15371Y36589D1*
X15500Y36482D1*
X15561Y36541D1*
X15670Y36614D1*
X15791Y36665D1*
X15919Y36692D1*
X16050Y36695D1*
X16180Y36673D1*
X16303Y36628D1*
X16415Y36560D1*
X16500Y36485D1*
X16603Y36573D1*
X16718Y36637D1*
X16842Y36678D1*
X16971Y36696D1*
X16994Y36773D1*
X17054Y36890D1*
X17140Y36989D1*
X17246Y37066D1*
X17367Y37116D1*
X17496Y37136D1*
X17627Y37127D1*
X17751Y37087D1*
X17864Y37019D1*
X17919Y36965D1*
X17998Y37064D1*
Y37531D1*
X18018Y37661D1*
X18076Y37778D1*
X18167Y37872D1*
X18282Y37934D1*
X18425Y37958D1*
X18602D1*
X18605Y38134D1*
X18559Y38191D1*
X18502Y38309D1*
X18473Y38437D1*
X18474Y38568D1*
X18506Y38695D1*
X18566Y38811D1*
X18651Y38910D1*
X18758Y38987D1*
X18879Y39037D1*
X19008Y39058D1*
X19138Y39048D1*
X19263Y39008D1*
X19375Y38941D1*
X19469Y38849D1*
X19539Y38738D1*
X19581Y38614D1*
X19593Y38496D1*
X19578Y38366D1*
X19533Y38243D1*
X19458Y38131D1*
Y37696D1*
X19177Y44796D2*
X19245D1*
Y43403D1*
X17852D1*
Y44796D1*
X17922D1*
X17887Y44883D1*
X17858Y45011D1*
X17853Y45142D1*
X17874Y45272D1*
X17918Y45395D1*
X17984Y45508D1*
X18062Y45597D1*
X17966Y45718D1*
X17905Y45834D1*
X17866Y45959D1*
X17852Y46090D1*
X17863Y46220D1*
X17897Y46347D1*
X17955Y46464D1*
X18034Y46569D1*
X18131Y46657D1*
X18243Y46726D1*
X18365Y46772D1*
X18494Y46794D1*
X18625Y46792D1*
X18754Y46766D1*
X18875Y46716D1*
X18984Y46644D1*
X19078Y46552D1*
X19154Y46445D1*
X19208Y46326D1*
X19238Y46198D1*
X19245Y46074D1*
X19228Y45944D1*
X19186Y45819D1*
X19123Y45705D1*
X19033Y45599D1*
X19111Y45511D1*
X19178Y45399D1*
X19223Y45276D1*
X19245Y45100D1*
X19233Y44969D1*
X19196Y44844D1*
X19172Y44796D1*
X27912Y44793D2*
X27980D1*
Y43399D1*
X26587D1*
Y44793D1*
X26657D1*
X26622Y44880D1*
X26593Y45007D1*
X26588Y45138D1*
X26609Y45268D1*
X26653Y45391D1*
X26719Y45504D1*
X26797Y45593D1*
X26701Y45714D1*
X26640Y45830D1*
X26601Y45956D1*
X26587Y46086D1*
X26598Y46217D1*
X26632Y46343D1*
X26690Y46461D1*
X26769Y46565D1*
X26866Y46653D1*
X26978Y46722D1*
X27100Y46768D1*
X27229Y46791D1*
X27360Y46788D1*
X27489Y46762D1*
X27610Y46712D1*
X27719Y46640D1*
X27813Y46549D1*
X27889Y46441D1*
X27943Y46322D1*
X27973Y46195D1*
X27980Y46070D1*
X27963Y45940D1*
X27921Y45815D1*
X27858Y45701D1*
X27768Y45595D1*
X27846Y45507D1*
X27913Y45395D1*
X27958Y45272D1*
X27980Y45096D1*
X27968Y44966D1*
X27932Y44840D1*
X27907Y44792D1*
X4659Y44044D2*
Y42667D1*
X4739Y42541D1*
X4782Y42417D1*
X4794Y42299D1*
X4779Y42169D1*
X4734Y42046D1*
X4662Y41937D1*
X4566Y41847D1*
X4453Y41782D1*
X4327Y41745D1*
X4196Y41738D1*
X4068Y41762D1*
X3948Y41815D1*
X3843Y41894D1*
X3760Y41995D1*
X3702Y42112D1*
X3673Y42240D1*
X3675Y42371D1*
X3707Y42498D1*
X3767Y42614D1*
X3807Y42661D1*
X3805Y44042D1*
X3760Y44105D1*
X3702Y44222D1*
X3673Y44350D1*
X3675Y44481D1*
X3707Y44608D1*
X3767Y44724D1*
X3852Y44823D1*
X3958Y44900D1*
X4079Y44950D1*
X4209Y44971D1*
X4339Y44961D1*
X4464Y44921D1*
X4576Y44854D1*
X4670Y44762D1*
X4739Y44652D1*
X4782Y44528D1*
X4794Y44409D1*
X4779Y44279D1*
X4734Y44156D1*
X4659Y44044D1*
X4597Y37974D2*
X6959D1*
X7003Y38047D1*
X7088Y38146D1*
X7195Y38223D1*
X7316Y38273D1*
X7445Y38294D1*
X7575Y38284D1*
X7700Y38244D1*
X7812Y38177D1*
X7906Y38085D1*
X7976Y37974D1*
X8018Y37850D1*
X8030Y37732D1*
X8015Y37602D1*
X7970Y37479D1*
X7898Y37370D1*
X7803Y37280D1*
X7689Y37215D1*
X7563Y37178D1*
X7480Y37168D1*
X7352Y37126D1*
X7152Y37120D1*
X4597D1*
X4453Y37030D1*
X4327Y36993D1*
X4196Y36986D1*
X4068Y37010D1*
X3948Y37063D1*
X3843Y37142D1*
X3760Y37243D1*
X3702Y37360D1*
X3673Y37488D1*
X3675Y37619D1*
X3707Y37746D1*
X3767Y37862D1*
X3852Y37961D1*
X3958Y38038D1*
X4079Y38088D1*
X4209Y38109D1*
X4339Y38099D1*
X4464Y38059D1*
X4597Y37972D1*
X16809Y39789D2*
Y39124D1*
X16889Y39002D1*
X16931Y38878D1*
X16944Y38760D1*
X16929Y38630D1*
X16884Y38507D1*
X16812Y38398D1*
X16716Y38308D1*
X16602Y38243D1*
X16477Y38206D1*
X16346Y38199D1*
X16217Y38222D1*
X16097Y38275D1*
X15993Y38354D1*
X15910Y38455D1*
X15852Y38573D1*
X15823Y38700D1*
X15824Y38831D1*
X15856Y38958D1*
X15916Y39075D1*
X15956Y39121D1*
X15955Y39789D1*
X15910Y39849D1*
X15852Y39966D1*
X15823Y40094D1*
X15824Y40225D1*
X15856Y40352D1*
X15916Y40468D1*
X16002Y40568D1*
X16108Y40644D1*
X16229Y40694D1*
X16358Y40715D1*
X16489Y40705D1*
X16614Y40666D1*
X16726Y40598D1*
X16819Y40506D1*
X16889Y40396D1*
X16931Y40272D1*
X16944Y40154D1*
X16929Y40024D1*
X16884Y39901D1*
X16809Y39788D1*
X10644Y41382D2*
Y43613D1*
X7590Y43612D1*
X6319Y42346D1*
X5464Y41490D1*
X5502Y41379D1*
X5515Y41261D1*
X5500Y41131D1*
X5455Y41008D1*
X5382Y40898D1*
X5287Y40809D1*
X5173Y40744D1*
X5048Y40707D1*
X4917Y40700D1*
X4788Y40723D1*
X4668Y40776D1*
X4564Y40855D1*
X4481Y40956D1*
X4423Y41074D1*
X4394Y41201D1*
X4395Y41332D1*
X4427Y41459D1*
X4487Y41576D1*
X4527Y41622D1*
X4546Y41712D1*
X4607Y41832D1*
X4744Y41977D1*
X7108Y44341D1*
X7213Y44418D1*
X7341Y44460D1*
X7541Y44466D1*
X10645D1*
X10646Y45182D1*
X10677Y45309D1*
X10737Y45425D1*
X10823Y45524D1*
X10929Y45601D1*
X11050Y45651D1*
X11179Y45672D1*
X11310Y45662D1*
X11435Y45622D1*
X11547Y45555D1*
X11640Y45463D1*
X11710Y45352D1*
X11752Y45228D1*
X11762Y45082D1*
X11765Y41321D1*
X11750Y41191D1*
X11705Y41068D1*
X11633Y40959D1*
X11537Y40869D1*
X11424Y40804D1*
X11298Y40767D1*
X11167Y40760D1*
X11038Y40784D1*
X10919Y40836D1*
X10814Y40915D1*
X10731Y41016D1*
X10673Y41134D1*
X10644Y41261D1*
X10645Y41298D1*
X22427Y42928D2*
X23133D1*
X23226Y42991D1*
X23347Y43042D1*
X23476Y43062D1*
X23607Y43053D1*
X23732Y43013D1*
X23844Y42945D1*
X23937Y42854D1*
X24007Y42743D1*
X24049Y42619D1*
X24062Y42501D1*
X24047Y42371D1*
X24002Y42248D1*
X23930Y42139D1*
X23834Y42049D1*
X23721Y41984D1*
X23595Y41947D1*
X23464Y41940D1*
X23335Y41963D1*
X23215Y42016D1*
X23140Y42073D1*
X22430Y42074D1*
X22283Y41984D1*
X22157Y41947D1*
X22027Y41940D1*
X21898Y41963D1*
X21778Y42016D1*
X21674Y42095D1*
X21590Y42196D1*
X21533Y42314D1*
X21504Y42441D1*
X21505Y42572D1*
X21537Y42699D1*
X21597Y42816D1*
X21682Y42915D1*
X21789Y42991D1*
X21910Y43042D1*
X22039Y43062D1*
X22169Y43053D1*
X22294Y43013D1*
X22427Y42925D1*
X38000Y38000D2*
D18*
Y37304D1*
X37000Y38000D2*
Y37304D1*
X23000Y37696D2*
Y37000D1*
X28000D2*
Y36304D1*
Y37000D2*
X28696D1*
X40000Y42696D2*
Y42000D1*
Y48696D2*
Y48000D1*
X18549Y46796D2*
Y46100D1*
X17853D2*
X19245D1*
X27284Y46792D2*
Y46096D1*
X26588D2*
X27980D1*
X29366Y46945D2*
Y46249D1*
X28670Y46945D2*
X30062D1*
X31000Y39000D2*
X31696D1*
X31000Y45696D2*
Y45000D1*
X31696D1*
X16000Y36696D2*
Y36000D1*
X17000Y36696D2*
Y36000D1*
X32246Y48678D2*
D14*
X33775D1*
X35225D2*
X36326D1*
X32246Y48379D2*
X33775D1*
X35225D2*
X36326D1*
X32246Y48080D2*
X33775D1*
X35225D2*
X36277D1*
X32246Y47782D2*
X33775D1*
X35225D2*
X36309D1*
X32246Y47483D2*
X33775D1*
X35225D2*
X36326D1*
X32246Y47184D2*
X36297D1*
X32246Y46886D2*
X36285D1*
X32246Y46587D2*
X36326D1*
X32246Y46288D2*
X36326D1*
X32246Y45990D2*
X36273D1*
X32246Y45691D2*
X35883D1*
X36119D2*
X36326D1*
X32246Y45392D2*
X35395D1*
X32246Y45094D2*
X35280D1*
X32246Y44795D2*
X35305D1*
X32246Y44496D2*
X35481D1*
X32246Y44197D2*
X35301D1*
X32246Y43899D2*
X35280D1*
X32246Y43600D2*
X35399D1*
X32246Y43301D2*
X35342D1*
X32246Y43003D2*
X35272D1*
X32246Y42704D2*
X35338D1*
X32246Y42405D2*
X35403D1*
X32246Y42107D2*
X35280D1*
X32246Y41808D2*
X35301D1*
X32246Y41509D2*
X35477D1*
X32246Y41211D2*
X35305D1*
X32246Y40912D2*
X35280D1*
X32246Y40613D2*
X35391D1*
X32246Y40315D2*
X35350D1*
X32246Y40016D2*
X35272D1*
X32246Y39717D2*
X35333D1*
X32246Y39418D2*
X35411D1*
X32246Y39120D2*
X35284D1*
X32246Y38821D2*
X35297D1*
X32246Y38522D2*
X35272D1*
X32246Y38224D2*
X35272D1*
X32246Y37925D2*
X35272D1*
X36353Y48750D2*
X36309Y48911D1*
X36307Y48973D1*
X35585Y48976D1*
X35196D1*
X35184Y48870D1*
X35148Y48744D1*
X35124Y48696D1*
X35197Y48697D1*
Y47303D1*
X33803D1*
Y48697D1*
X33873D1*
X33838Y48784D1*
X33809Y48911D1*
X33807Y48973D1*
X33223Y48976D1*
X32218D1*
X32216Y46239D1*
Y37648D1*
X34297Y37650D1*
X35302D1*
X35303Y38697D1*
X35373D1*
X35338Y38784D1*
X35309Y38911D1*
X35305Y39042D1*
X35325Y39172D1*
X35369Y39295D1*
X35435Y39408D1*
X35514Y39497D1*
X35390Y39663D1*
X35338Y39784D1*
X35309Y39911D1*
X35305Y40042D1*
X35325Y40172D1*
X35369Y40295D1*
X35435Y40408D1*
X35514Y40497D1*
X35390Y40663D1*
X35338Y40784D1*
X35309Y40911D1*
X35305Y41042D1*
X35325Y41172D1*
X35369Y41295D1*
X35435Y41408D1*
X35514Y41497D1*
X35390Y41663D1*
X35338Y41784D1*
X35309Y41911D1*
X35305Y42042D1*
X35325Y42172D1*
X35369Y42295D1*
X35435Y42408D1*
X35514Y42497D1*
X35390Y42663D1*
X35338Y42784D1*
X35309Y42911D1*
X35305Y43042D1*
X35325Y43172D1*
X35369Y43295D1*
X35435Y43408D1*
X35514Y43497D1*
X35390Y43663D1*
X35338Y43784D1*
X35309Y43911D1*
X35305Y44042D1*
X35325Y44172D1*
X35369Y44295D1*
X35435Y44408D1*
X35514Y44497D1*
X35390Y44663D1*
X35338Y44784D1*
X35309Y44911D1*
X35305Y45042D1*
X35325Y45172D1*
X35369Y45295D1*
X35435Y45408D1*
X35522Y45507D1*
X35625Y45587D1*
X35742Y45647D1*
X35868Y45684D1*
X35998Y45697D1*
X36128Y45685D1*
X36254Y45649D1*
X36353Y45599D1*
X36354Y45739D1*
X36309Y45911D1*
X36305Y46042D1*
X36325Y46172D1*
X36354Y46253D1*
Y46740D1*
X36309Y46911D1*
X36305Y47042D1*
X36325Y47172D1*
X36354Y47253D1*
Y47741D1*
X36309Y47911D1*
X36305Y48042D1*
X36325Y48172D1*
X36354Y48261D1*
Y48741D1*
D29*
X38000Y49000D3*
D30*
X37000D3*
X38000Y48000D3*
X37000D3*
X38000Y47000D3*
X37000D3*
X38000Y46000D3*
X37000D3*
X38000Y45000D3*
X37000D3*
X38000Y44000D3*
X37000D3*
X38000Y43000D3*
X37000D3*
X38000Y42000D3*
X37000D3*
X38000Y41000D3*
X37000D3*
X38000Y40000D3*
X37000D3*
X38000Y39000D3*
X37000D3*
X38000Y38000D3*
X37000D3*
D29*
X19000Y37000D3*
D30*
X20000D3*
X21000D3*
X22000D3*
X23000D3*
X24000D3*
X25000D3*
X26000D3*
X27000D3*
X28000D3*
D29*
X40000Y38000D3*
D30*
X39000D3*
X40000Y39000D3*
X39000D3*
X40000Y40000D3*
X39000D3*
X40000Y41000D3*
X39000D3*
X40000Y42000D3*
X39000D3*
D29*
X40000Y44000D3*
D30*
X39000D3*
X40000Y45000D3*
X39000D3*
X40000Y46000D3*
X39000D3*
X40000Y47000D3*
X39000D3*
X40000Y48000D3*
X39000D3*
D29*
X7681Y49374D3*
D30*
X8681D3*
X9681D3*
D29*
X18549Y44100D3*
D30*
Y45100D3*
Y46100D3*
D29*
X27284Y44096D3*
D30*
Y45096D3*
Y46096D3*
D29*
X34500Y48000D3*
D30*
Y49000D3*
D29*
X29366Y46945D3*
D30*
Y47945D3*
Y48945D3*
D29*
X29378Y40001D3*
D30*
Y41001D3*
Y42001D3*
Y43001D3*
D29*
X36000Y38000D3*
D30*
Y39000D3*
Y40000D3*
Y41000D3*
Y42000D3*
Y43000D3*
Y44000D3*
Y45000D3*
D29*
X31000Y38000D3*
D30*
Y39000D3*
Y40000D3*
Y41000D3*
Y42000D3*
Y43000D3*
Y44000D3*
Y45000D3*
D29*
X13000Y36000D3*
D30*
X14000D3*
X15000D3*
X16000D3*
X17000D3*
X18000D3*
X19000D3*
X20000D3*
X21000D3*
X22000D3*
X23000D3*
X24000D3*
X25000D3*
X26000D3*
X27000D3*
X74500Y38000D2*
D14*
X73857D1*
X70188D1*
Y39004D1*
X68929D1*
X73857Y46014D2*
D13*
Y38000D1*
X47732Y44409D2*
Y42299D1*
Y37547D2*
X50783D1*
X50969Y37732D1*
X54925Y49370D2*
X54358Y48803D1*
X51752D1*
X51181Y49374D1*
X71940Y42876D2*
Y41813D1*
X61020Y36575D2*
Y36539D1*
X61925D1*
Y37531D1*
X62531D1*
Y38496D1*
X71817Y38553D2*
Y41690D1*
X71940Y41813D1*
X59858Y48996D2*
Y45386D1*
X59882Y45362D1*
Y40154D2*
Y38760D1*
X80500Y47000D2*
X81000Y47500D1*
X83000D1*
X83500Y47000D1*
X80500Y46000D2*
X81000Y46500D1*
X83000D1*
X83500Y46000D1*
X81500Y44000D2*
X82000Y44500D1*
X83000D1*
X83500Y45000D1*
X81500Y43000D2*
X81938Y43438D1*
X82938D1*
X83500Y44000D1*
X81500Y41000D2*
X82000Y40500D1*
X82823D1*
X83000Y40323D1*
Y39687D1*
X83500Y39187D1*
Y39000D1*
X68562Y39500D2*
Y38563D1*
X68625Y38500D1*
X69625D1*
Y37563D1*
X71000D1*
Y36000D1*
X70500D1*
X54750Y39173D2*
Y35469D1*
X65969D1*
X66500Y36000D1*
X70784Y46096D2*
X72733D1*
X72866Y46229D1*
Y46945D1*
X83500Y42000D2*
X83505D1*
X84004Y41501D1*
Y37500D1*
X83942Y37438D1*
X81566D1*
X81504Y37500D1*
Y37996D1*
X81500Y38000D1*
X80500D2*
Y37504D1*
X80566Y37438D1*
X81566D1*
X66065Y41313D2*
X64940D1*
X73188Y45375D2*
Y45812D1*
X72904Y46096D1*
X72733D1*
X55979Y39061D2*
Y40616D1*
X56232D1*
X80500Y40000D2*
X81000Y39500D1*
X82813D1*
X83000Y39313D1*
Y38500D1*
X83500Y38000D1*
X62673Y49094D2*
X68370D1*
X68552Y48912D1*
Y44752D1*
X63996Y47031D2*
Y47856D1*
X63348Y48504D1*
X62673D1*
X54703Y41321D2*
D15*
Y44039D1*
Y45110D1*
X48453Y41261D2*
D13*
Y41583D1*
X50909Y44039D1*
X54703D1*
X65563Y42501D2*
X67000D1*
X80500Y39000D2*
X81000Y38500D1*
X82000D1*
X82500Y38000D1*
X62690Y47876D2*
Y47224D1*
X62959D1*
X63795Y46388D1*
Y44528D1*
X69278Y47939D2*
Y44331D1*
X81500Y49000D2*
X80937Y49563D1*
X74484D1*
X72866Y47945D1*
D18*
X68929Y39004D3*
X73857Y46014D3*
X47732Y44409D3*
Y42299D3*
Y37547D3*
X50969Y37732D3*
X54925Y49370D3*
X71940Y42876D3*
Y41813D3*
X61020Y36575D3*
X62531Y38496D3*
X71817Y38553D3*
X59858Y48996D3*
X59882Y45362D3*
Y40154D3*
Y38760D3*
X68562Y39500D3*
X54750Y39173D3*
X66065Y41313D3*
X64940D3*
X73188Y45375D3*
X56232Y40616D3*
X55979Y39061D3*
X62673Y49094D3*
X68552Y44752D3*
X63996Y47031D3*
X62673Y48504D3*
X54703Y41321D3*
Y45110D3*
X48453Y41261D3*
X67000Y42501D3*
X65563D3*
X62690Y47876D3*
X63795Y44528D3*
X69278Y47939D3*
Y44331D3*
X52250Y40846D3*
Y40346D3*
X60500Y48000D3*
Y47500D3*
Y47000D3*
Y46500D3*
Y46000D3*
Y45500D3*
Y45000D3*
Y44500D3*
Y44000D3*
Y43500D3*
Y43000D3*
Y42500D3*
Y42000D3*
Y41500D3*
Y41000D3*
X51795Y43453D3*
X48252Y36709D3*
X48752D3*
X52250Y39846D3*
Y39346D3*
X52750Y40846D3*
Y40346D3*
Y39846D3*
Y39346D3*
X49906Y48283D3*
X50406D3*
X50906D3*
X51406D3*
X76816Y44924D3*
Y44424D3*
Y43924D3*
Y43424D3*
X77379Y44924D3*
Y44424D3*
Y43924D3*
Y43424D3*
X76816Y42924D3*
X77379D3*
X75941Y44174D3*
Y43674D3*
X51906Y48283D3*
X52406D3*
X52906D3*
X53406D3*
X52295Y43453D3*
X52795D3*
X49252Y36709D3*
X49752D3*
X50252D3*
X50752D3*
X51252D3*
X51752D3*
X52252D3*
X52752D3*
X53252D3*
X53752D3*
X54252D3*
X51795Y42953D3*
X55252Y36709D3*
X55752D3*
X56252D3*
X56752D3*
X61000Y42500D3*
Y42000D3*
X52295Y42953D3*
X52795D3*
X44906Y46118D3*
X45406D3*
X45906D3*
X46406D3*
X46906D3*
X58083Y46496D3*
X58583D3*
X59083D3*
X61000Y41500D3*
X56750Y42096D3*
Y41596D3*
Y41096D3*
Y40596D3*
X61500Y42500D3*
Y42000D3*
Y41500D3*
X62000Y42500D3*
Y42000D3*
Y41500D3*
X62500Y42500D3*
Y42000D3*
Y41500D3*
X63000Y42500D3*
Y42000D3*
Y41500D3*
X63500Y42500D3*
Y42000D3*
Y41500D3*
X64000Y42500D3*
Y42000D3*
Y41500D3*
X64500Y42500D3*
Y42000D3*
Y41500D3*
X66000Y48500D3*
Y48000D3*
X66500Y48500D3*
Y48000D3*
X72000Y49000D3*
Y48500D3*
Y48000D3*
Y47500D3*
Y47000D3*
Y46500D3*
Y46000D3*
Y45500D3*
Y45000D3*
X72500Y36500D3*
X73000D3*
X73500D3*
X74000D3*
X74500D3*
X75000D3*
X75500D3*
X76000D3*
X76500D3*
X77000D3*
X77500D3*
X78000D3*
X78500D3*
X79000D3*
X79500D3*
X80000D3*
X80500D3*
X81000D3*
X81500D3*
X82000D3*
X82500D3*
X83000D3*
X83500D3*
X44500Y46000D3*
Y45500D3*
Y45000D3*
Y44500D3*
Y44000D3*
Y43500D3*
Y43000D3*
Y42500D3*
Y42000D3*
Y41500D3*
Y41000D3*
Y40500D3*
Y40000D3*
Y39500D3*
Y39000D3*
Y38500D3*
Y38000D3*
Y37500D3*
Y37000D3*
Y36500D3*
Y36000D3*
X44180Y49051D2*
D14*
X50454D1*
X55419D2*
X59267D1*
X60447D2*
X62085D1*
X68985D2*
X72149D1*
X74608D2*
X75175D1*
X82227D2*
X83820D1*
X44180Y48753D2*
X50454D1*
X54943D2*
X59321D1*
X60394D2*
X62138D1*
X69010D2*
X72165D1*
X74308D2*
X75175D1*
X82227D2*
X83820D1*
X44180Y48454D2*
X51475D1*
X54636D2*
X59403D1*
X60316D2*
X62085D1*
X64031D2*
X68097D1*
X69531D2*
X72341D1*
X74009D2*
X75175D1*
X44180Y48155D2*
X59403D1*
X60316D2*
X62171D1*
X64331D2*
X68097D1*
X69826D2*
X72173D1*
X73710D2*
X75175D1*
X44180Y47857D2*
X59403D1*
X60316D2*
X62097D1*
X64454D2*
X68097D1*
X69863D2*
X72145D1*
X73587D2*
X75175D1*
X44180Y47558D2*
X59403D1*
X60316D2*
X62195D1*
X64454D2*
X68097D1*
X69736D2*
X72140D1*
X73591D2*
X75175D1*
X44180Y47259D2*
X59403D1*
X60316D2*
X62232D1*
X64540D2*
X68097D1*
X69736D2*
X72140D1*
X73591D2*
X75175D1*
X44180Y46960D2*
X59403D1*
X60316D2*
X62323D1*
X64585D2*
X68097D1*
X69736D2*
X72140D1*
X73591D2*
X75175D1*
X44180Y46662D2*
X59403D1*
X60316D2*
X61609D1*
X62489D2*
X62888D1*
X64449D2*
X68097D1*
X69736D2*
X70348D1*
X71220D2*
X72140D1*
X73591D2*
X75175D1*
X44180Y46363D2*
X59403D1*
X60316D2*
X61375D1*
X62723D2*
X63188D1*
X64253D2*
X68097D1*
X69736D2*
X70110D1*
X71458D2*
X72140D1*
X74329D2*
X75175D1*
X44180Y46064D2*
X59403D1*
X60316D2*
X61322D1*
X62776D2*
X63340D1*
X64253D2*
X68097D1*
X69736D2*
X70057D1*
X71511D2*
X73268D1*
X74448D2*
X75175D1*
X44180Y45766D2*
X59403D1*
X60316D2*
X61408D1*
X62690D2*
X63340D1*
X64253D2*
X68097D1*
X69736D2*
X70139D1*
X71425D2*
X73322D1*
X74390D2*
X75175D1*
X44180Y45467D2*
X54239D1*
X55169D2*
X59300D1*
X60463D2*
X61428D1*
X62670D2*
X63340D1*
X64253D2*
X68097D1*
X69736D2*
X70164D1*
X71405D2*
X73399D1*
X44180Y45168D2*
X54112D1*
X55292D2*
X59325D1*
X60439D2*
X61326D1*
X62772D2*
X63340D1*
X64253D2*
X68097D1*
X69736D2*
X70061D1*
X71507D2*
X73399D1*
X44180Y44870D2*
X47378D1*
X48086D2*
X54116D1*
X55292D2*
X59583D1*
X60184D2*
X61363D1*
X62735D2*
X63319D1*
X64269D2*
X67974D1*
X69736D2*
X70094D1*
X71470D2*
X73399D1*
X44180Y44571D2*
X47165D1*
X48300D2*
X54116D1*
X55292D2*
X61322D1*
X62776D2*
X63204D1*
X64384D2*
X67990D1*
X69814D2*
X70057D1*
X71511D2*
X73399D1*
X44180Y44272D2*
X47157D1*
X48308D2*
X50507D1*
X55292D2*
X61322D1*
X62776D2*
X63266D1*
X64326D2*
X68228D1*
X69867D2*
X70057D1*
X71511D2*
X73399D1*
X44180Y43974D2*
X47276D1*
X48189D2*
X50212D1*
X55292D2*
X61322D1*
X62776D2*
X63672D1*
X63920D2*
X68814D1*
X69740D2*
X70057D1*
X71511D2*
X73399D1*
X44180Y43675D2*
X47276D1*
X48189D2*
X49913D1*
X55292D2*
X61322D1*
X62776D2*
X70057D1*
X71511D2*
X72674D1*
X73082D2*
X73399D1*
X44180Y43376D2*
X47276D1*
X48189D2*
X49613D1*
X50879D2*
X54116D1*
X55292D2*
X71656D1*
X44180Y43078D2*
X47276D1*
X48189D2*
X49314D1*
X50580D2*
X54116D1*
X55292D2*
X71386D1*
X83195D2*
X83820D1*
X44180Y42779D2*
X47276D1*
X48189D2*
X49015D1*
X50284D2*
X54116D1*
X55292D2*
X65046D1*
X67517D2*
X71357D1*
X82191D2*
X83820D1*
X44180Y42480D2*
X47169D1*
X48295D2*
X48715D1*
X49985D2*
X54116D1*
X55292D2*
X64972D1*
X67591D2*
X71484D1*
X44180Y42181D2*
X47153D1*
X49686D2*
X54116D1*
X55292D2*
X65070D1*
X67492D2*
X71484D1*
X44180Y41883D2*
X47325D1*
X49386D2*
X54116D1*
X55292D2*
X71353D1*
X44180Y41584D2*
X47965D1*
X49087D2*
X54116D1*
X55292D2*
X71361D1*
X44180Y41285D2*
X47862D1*
X49046D2*
X54112D1*
X55292D2*
X71361D1*
X44180Y40987D2*
X47932D1*
X48972D2*
X54223D1*
X55185D2*
X71361D1*
X44180Y40688D2*
X59677D1*
X60086D2*
X71361D1*
X44180Y40389D2*
X59341D1*
X60422D2*
X71361D1*
X44180Y40091D2*
X59292D1*
X60471D2*
X71361D1*
X44180Y39792D2*
X59423D1*
X60340D2*
X68052D1*
X69071D2*
X71361D1*
X44180Y39493D2*
X54260D1*
X55243D2*
X59423D1*
X60340D2*
X67970D1*
X70367D2*
X71361D1*
X75022D2*
X75178D1*
X44180Y39195D2*
X54157D1*
X55341D2*
X59423D1*
X60340D2*
X68060D1*
X70691D2*
X71361D1*
X44180Y38896D2*
X54231D1*
X55267D2*
X59308D1*
X60455D2*
X62105D1*
X62957D2*
X68105D1*
X70728D2*
X71341D1*
X44180Y38597D2*
X54293D1*
X55206D2*
X59312D1*
X60451D2*
X61949D1*
X63112D2*
X68105D1*
X70728D2*
X71226D1*
X44180Y38299D2*
X54293D1*
X55206D2*
X59530D1*
X60234D2*
X61974D1*
X63088D2*
X68195D1*
X44180Y38000D2*
X47370D1*
X48094D2*
X50446D1*
X51494D2*
X54293D1*
X55206D2*
X62076D1*
X62989D2*
X69167D1*
X44180Y37701D2*
X47161D1*
X51560D2*
X54293D1*
X55206D2*
X61502D1*
X62989D2*
X69167D1*
X44180Y37402D2*
X47161D1*
X51453D2*
X54293D1*
X55206D2*
X61469D1*
X72098D2*
X73773D1*
X80886D2*
X81114D1*
X81887D2*
X82110D1*
X44180Y37104D2*
X47358D1*
X48107D2*
X54293D1*
X55206D2*
X60801D1*
X61238D2*
X61469D1*
X72217D2*
X83820D1*
X44180Y36805D2*
X54293D1*
X55206D2*
X60477D1*
X72200D2*
X83820D1*
X44180Y36506D2*
X54293D1*
X55206D2*
X55773D1*
X72020D2*
X83820D1*
X44180Y36208D2*
X54293D1*
X55206D2*
X55773D1*
X71458D2*
X83820D1*
X44180Y35909D2*
X54293D1*
X55206D2*
X55773D1*
X71446D2*
X83820D1*
X82197Y49348D2*
Y48626D1*
X82368Y48684D1*
X82498Y48697D1*
X82628Y48685D1*
X82754Y48649D1*
X82871Y48589D1*
X83000Y48482D1*
X83061Y48541D1*
X83170Y48614D1*
X83291Y48665D1*
X83419Y48692D1*
X83550Y48695D1*
X83680Y48673D1*
X83803Y48628D1*
X83850Y48603D1*
Y49349D1*
X82200Y49350D1*
X82184Y42870D2*
X82148Y42744D1*
X82088Y42627D1*
X81980Y42499D1*
X82022Y42507D1*
X82125Y42587D1*
X82242Y42647D1*
X82368Y42684D1*
X82498Y42697D1*
X82628Y42685D1*
X82754Y42649D1*
X82871Y42589D1*
X83000Y42482D1*
X83061Y42541D1*
X83170Y42614D1*
X83291Y42665D1*
X83419Y42692D1*
X83550Y42695D1*
X83680Y42673D1*
X83803Y42628D1*
X83850Y42603D1*
Y43304D1*
X83405Y43303D1*
X83239Y43136D1*
X83134Y43058D1*
X83006Y43017D1*
X82806Y43011D1*
X82195D1*
X82184Y42870D1*
X81999Y37515D2*
X81888Y37422D1*
X81773Y37359D1*
X81648Y37319D1*
X81518Y37304D1*
X81387Y37313D1*
X81261Y37346D1*
X81142Y37402D1*
X81037Y37480D1*
X80999Y37515D1*
X80910Y37437D1*
X80797Y37370D1*
X80674Y37325D1*
X80544Y37305D1*
X80413Y37309D1*
X80321Y37327D1*
X80302Y37295D1*
X80209Y37202D1*
X80090Y37149D1*
X79873Y37138D1*
X75566D1*
X75437Y37162D1*
X75326Y37229D1*
X75245Y37332D1*
X75207Y37461D1*
X75204Y38419D1*
X75205Y49130D1*
X74901Y49136D1*
X74659D1*
X73559Y48034D1*
X73563Y47945D1*
X73550Y47814D1*
X73514Y47689D1*
X73490Y47641D1*
X73563Y47642D1*
Y46492D1*
X73704Y46555D1*
X73833Y46575D1*
X73964Y46565D1*
X74089Y46526D1*
X74201Y46458D1*
X74294Y46367D1*
X74364Y46256D1*
X74407Y46132D1*
X74419Y46014D1*
X74404Y45884D1*
X74359Y45761D1*
X74298Y45669D1*
X74446Y45695D1*
X74577Y45692D1*
X74705Y45666D1*
X74826Y45616D1*
X74935Y45544D1*
X75030Y45453D1*
X75105Y45345D1*
X75159Y45226D1*
X75190Y45099D1*
X75196Y44974D1*
X75179Y44844D1*
X75138Y44719D1*
X75074Y44605D1*
X74984Y44499D1*
X75062Y44411D1*
X75129Y44299D1*
X75174Y44176D1*
X75197Y44000D1*
X75184Y43870D1*
X75148Y43744D1*
X75088Y43627D1*
X74980Y43499D1*
X75062Y43411D1*
X75129Y43299D1*
X75174Y43176D1*
X75197Y43000D1*
X75184Y42870D1*
X75148Y42744D1*
X75088Y42627D1*
X74980Y42499D1*
X75062Y42411D1*
X75129Y42299D1*
X75174Y42176D1*
X75197Y42000D1*
X75184Y41870D1*
X75148Y41744D1*
X75088Y41627D1*
X74980Y41499D1*
X75062Y41411D1*
X75129Y41299D1*
X75174Y41176D1*
X75197Y41000D1*
X75184Y40870D1*
X75148Y40744D1*
X75088Y40627D1*
X74980Y40499D1*
X75062Y40411D1*
X75129Y40299D1*
X75174Y40176D1*
X75197Y40000D1*
X75184Y39870D1*
X75148Y39744D1*
X75088Y39627D1*
X74980Y39499D1*
X75030Y39453D1*
X75105Y39345D1*
X75159Y39226D1*
X75190Y39099D1*
X75196Y38974D1*
X75179Y38844D1*
X75138Y38719D1*
X75127Y38696D1*
X75197Y38697D1*
Y37303D1*
X73803D1*
Y37488D1*
X71999D1*
X72092Y37368D1*
X72150Y37251D1*
X72185Y37125D1*
X72197Y37000D1*
X72184Y36870D1*
X72148Y36744D1*
X72088Y36627D1*
X72008Y36523D1*
X71910Y36437D1*
X71797Y36370D1*
X71674Y36325D1*
X71544Y36305D1*
X71427Y36307D1*
Y36000D1*
X71407Y35871D1*
X71349Y35754D1*
X71266Y35667D1*
X71297Y35650D1*
X83850D1*
Y37300D1*
X82884Y37303D1*
X82803D1*
Y37373D1*
X82674Y37325D1*
X82544Y37305D1*
X82413Y37309D1*
X82285Y37337D1*
X82165Y37389D1*
X82057Y37463D1*
X82002Y37518D1*
X62956Y37697D2*
X63197D1*
Y37627D1*
X63368Y37684D1*
X63498Y37697D1*
X63628Y37685D1*
X63754Y37649D1*
X63871Y37589D1*
X64000Y37482D1*
X64125Y37587D1*
X64242Y37647D1*
X64368Y37684D1*
X64498Y37697D1*
X64628Y37685D1*
X64754Y37649D1*
X64871Y37589D1*
X65000Y37482D1*
X65125Y37587D1*
X65242Y37647D1*
X65368Y37684D1*
X65498Y37697D1*
X65628Y37685D1*
X65754Y37649D1*
X65871Y37589D1*
X66000Y37482D1*
X66061Y37541D1*
X66170Y37614D1*
X66291Y37665D1*
X66419Y37692D1*
X66550Y37695D1*
X66680Y37673D1*
X66803Y37628D1*
X66915Y37560D1*
X67000Y37485D1*
X67125Y37587D1*
X67242Y37647D1*
X67368Y37684D1*
X67498Y37697D1*
X67628Y37685D1*
X67754Y37649D1*
X67871Y37589D1*
X68000Y37482D1*
X68125Y37587D1*
X68242Y37647D1*
X68368Y37684D1*
X68498Y37697D1*
X68628Y37685D1*
X68754Y37649D1*
X68871Y37589D1*
X69000Y37482D1*
X69125Y37587D1*
X69202Y37626D1*
X69198Y38075D1*
X68625Y38073D1*
X68496Y38093D1*
X68356Y38168D1*
X68222Y38305D1*
X68165Y38408D1*
X68137Y38534D1*
X68136Y39133D1*
X68090Y39195D1*
X68033Y39313D1*
X68004Y39441D1*
X68005Y39571D1*
X68037Y39699D1*
X68097Y39815D1*
X68182Y39914D1*
X68289Y39991D1*
X68410Y40041D1*
X68539Y40061D1*
X68669Y40052D1*
X68794Y40012D1*
X68906Y39945D1*
X69000Y39853D1*
X69070Y39742D1*
X69112Y39618D1*
X69121Y39533D1*
X69164Y39514D1*
X70188Y39516D1*
X70317Y39499D1*
X70439Y39450D1*
X70544Y39372D1*
X70625Y39270D1*
X70678Y39150D1*
X70700Y39004D1*
Y38516D1*
X70975Y38512D1*
X71258D1*
X71260Y38625D1*
X71291Y38752D1*
X71351Y38868D1*
X71391Y38914D1*
Y41694D1*
X71382Y41754D1*
X71383Y41885D1*
X71415Y42012D1*
X71475Y42128D1*
X71515Y42175D1*
X71514Y42514D1*
X71468Y42571D1*
X71411Y42689D1*
X71382Y42816D1*
X71383Y42947D1*
X71415Y43074D1*
X71475Y43191D1*
X71560Y43290D1*
X71667Y43367D1*
X71788Y43417D1*
X71917Y43437D1*
X72047Y43428D1*
X72172Y43388D1*
X72267Y43331D1*
X72314Y43409D1*
X72400Y43507D1*
X72503Y43588D1*
X72620Y43648D1*
X72746Y43684D1*
X72876Y43697D1*
X73007Y43685D1*
X73133Y43649D1*
X73249Y43590D1*
X73353Y43510D1*
X73432Y43421D1*
X73430Y45648D1*
X73385Y45709D1*
X73327Y45827D1*
X73298Y45954D1*
X73300Y46085D1*
X73331Y46212D1*
X73348Y46245D1*
X73117Y46248D1*
X72170D1*
Y47642D1*
X72239D1*
X72204Y47728D1*
X72175Y47856D1*
X72171Y47987D1*
X72191Y48117D1*
X72235Y48240D1*
X72302Y48353D1*
X72380Y48442D1*
X72256Y48608D1*
X72204Y48728D1*
X72175Y48856D1*
X72171Y48987D1*
X72191Y49117D1*
X72235Y49240D1*
X72300Y49350D1*
X68715D1*
X68854Y49214D1*
X68932Y49109D1*
X68973Y48981D1*
X68979Y48781D1*
Y48416D1*
X69125Y48480D1*
X69254Y48500D1*
X69384Y48491D1*
X69509Y48451D1*
X69621Y48383D1*
X69715Y48292D1*
X69785Y48181D1*
X69827Y48057D1*
X69840Y47939D1*
X69824Y47809D1*
X69779Y47686D1*
X69704Y47574D1*
X69705Y44695D1*
X69785Y44573D1*
X69827Y44449D1*
X69840Y44331D1*
X69824Y44201D1*
X69779Y44078D1*
X69707Y43968D1*
X69612Y43879D1*
X69498Y43814D1*
X69372Y43777D1*
X69242Y43770D1*
X69113Y43793D1*
X68993Y43846D1*
X68889Y43925D1*
X68805Y44026D1*
X68748Y44144D1*
X68730Y44219D1*
X68647Y44198D1*
X68517Y44191D1*
X68388Y44215D1*
X68268Y44267D1*
X68164Y44346D1*
X68080Y44447D1*
X68022Y44565D1*
X67994Y44693D1*
X67995Y44823D1*
X68027Y44951D1*
X68087Y45067D1*
X68127Y45113D1*
X68125Y48668D1*
X63789D1*
X64298Y48158D1*
X64375Y48052D1*
X64417Y47924D1*
X64423Y47725D1*
Y47401D1*
X64503Y47274D1*
X64545Y47150D1*
X64558Y47031D1*
X64543Y46901D1*
X64498Y46778D1*
X64426Y46669D1*
X64330Y46580D1*
X64205Y46511D1*
X64222Y46388D1*
Y44891D1*
X64302Y44770D1*
X64345Y44646D1*
X64357Y44528D1*
X64342Y44398D1*
X64297Y44275D1*
X64225Y44165D1*
X64129Y44076D1*
X64016Y44011D1*
X63890Y43974D1*
X63759Y43967D1*
X63631Y43990D1*
X63511Y44043D1*
X63406Y44122D1*
X63323Y44223D1*
X63265Y44340D1*
X63236Y44468D1*
X63238Y44599D1*
X63270Y44726D1*
X63330Y44842D1*
X63370Y44889D1*
X63368Y46213D1*
X62783Y46796D1*
X62690Y46797D1*
X62560Y46817D1*
X62443Y46876D1*
X62349Y46966D1*
X62287Y47081D1*
X62263Y47224D1*
Y47507D1*
X62217Y47572D1*
X62160Y47689D1*
X62131Y47817D1*
X62132Y47948D1*
X62164Y48075D1*
X62218Y48180D1*
X62143Y48317D1*
X62114Y48445D1*
X62116Y48575D1*
X62147Y48702D1*
X62198Y48801D1*
X62143Y48907D1*
X62114Y49035D1*
X62116Y49166D1*
X62147Y49293D1*
X62176Y49348D1*
X60292Y49350D1*
X60365Y49238D1*
X60408Y49114D1*
X60420Y48996D1*
X60405Y48866D1*
X60360Y48743D1*
X60285Y48631D1*
Y45752D1*
X60319Y45715D1*
X60389Y45604D1*
X60431Y45480D1*
X60444Y45362D1*
X60429Y45232D1*
X60384Y45109D1*
X60312Y45000D1*
X60216Y44910D1*
X60102Y44845D1*
X59977Y44808D1*
X59846Y44801D1*
X59717Y44825D1*
X59597Y44878D1*
X59493Y44957D1*
X59410Y45058D1*
X59352Y45175D1*
X59323Y45303D1*
X59324Y45434D1*
X59356Y45561D1*
X59430Y45693D1*
X59431Y48630D1*
X59386Y48691D1*
X59328Y48809D1*
X59299Y48937D1*
X59301Y49068D1*
X59333Y49195D1*
X59393Y49311D1*
X59427Y49351D1*
X55485Y49350D1*
X55472Y49240D1*
X55427Y49117D1*
X55355Y49008D1*
X55259Y48918D1*
X55146Y48853D1*
X55020Y48816D1*
X54975Y48814D1*
X54660Y48501D1*
X54555Y48424D1*
X54427Y48382D1*
X54227Y48376D1*
X51752D1*
X51623Y48396D1*
X51503Y48457D1*
X51357Y48594D1*
X51273Y48678D1*
X50484Y48677D1*
Y49354D1*
X49879Y49350D1*
X44150D1*
Y35651D1*
X54322Y35650D1*
X54323Y38811D1*
X54278Y38869D1*
X54220Y38986D1*
X54191Y39114D1*
X54193Y39245D1*
X54224Y39372D1*
X54284Y39488D1*
X54370Y39587D1*
X54476Y39664D1*
X54597Y39714D1*
X54726Y39735D1*
X54857Y39725D1*
X54982Y39685D1*
X55094Y39618D1*
X55187Y39526D1*
X55257Y39415D1*
X55299Y39291D1*
X55312Y39173D1*
X55297Y39043D1*
X55252Y38920D1*
X55177Y38808D1*
Y35896D1*
X55804Y35895D1*
X55803Y36697D1*
X57197D1*
Y36627D1*
X57368Y36684D1*
X57498Y36697D1*
X57628Y36685D1*
X57754Y36649D1*
X57871Y36589D1*
X58000Y36482D1*
X58125Y36587D1*
X58242Y36647D1*
X58368Y36684D1*
X58498Y36697D1*
X58628Y36685D1*
X58754Y36649D1*
X58871Y36589D1*
X59000Y36482D1*
X59061Y36541D1*
X59170Y36614D1*
X59291Y36665D1*
X59419Y36692D1*
X59550Y36695D1*
X59680Y36673D1*
X59803Y36628D1*
X59915Y36560D1*
X60000Y36485D1*
X60103Y36573D1*
X60218Y36637D1*
X60342Y36678D1*
X60471Y36696D1*
X60494Y36773D1*
X60554Y36890D1*
X60640Y36989D1*
X60746Y37066D1*
X60867Y37116D1*
X60996Y37136D1*
X61127Y37127D1*
X61251Y37087D1*
X61364Y37019D1*
X61419Y36965D1*
X61498Y37064D1*
Y37531D1*
X61518Y37661D1*
X61576Y37778D1*
X61667Y37872D1*
X61782Y37934D1*
X61925Y37958D1*
X62102D1*
X62105Y38134D1*
X62059Y38191D1*
X62002Y38309D1*
X61973Y38437D1*
X61974Y38568D1*
X62006Y38695D1*
X62066Y38811D1*
X62151Y38910D1*
X62258Y38987D1*
X62379Y39037D1*
X62508Y39058D1*
X62638Y39048D1*
X62763Y39008D1*
X62875Y38941D1*
X62969Y38849D1*
X63039Y38738D1*
X63081Y38614D1*
X63093Y38496D1*
X63078Y38366D1*
X63033Y38243D1*
X62958Y38131D1*
Y37696D1*
X62677Y44796D2*
X62745D1*
Y43403D1*
X61352D1*
Y44796D1*
X61422D1*
X61387Y44883D1*
X61358Y45011D1*
X61353Y45142D1*
X61374Y45272D1*
X61418Y45395D1*
X61484Y45508D1*
X61562Y45597D1*
X61466Y45718D1*
X61405Y45834D1*
X61366Y45959D1*
X61352Y46090D1*
X61363Y46220D1*
X61397Y46347D1*
X61455Y46464D1*
X61534Y46569D1*
X61631Y46657D1*
X61743Y46726D1*
X61865Y46772D1*
X61994Y46794D1*
X62125Y46792D1*
X62254Y46766D1*
X62375Y46716D1*
X62484Y46644D1*
X62578Y46552D1*
X62654Y46445D1*
X62708Y46326D1*
X62738Y46198D1*
X62745Y46074D1*
X62728Y45944D1*
X62686Y45819D1*
X62623Y45705D1*
X62533Y45599D1*
X62611Y45511D1*
X62678Y45399D1*
X62723Y45276D1*
X62745Y45100D1*
X62733Y44969D1*
X62696Y44844D1*
X62672Y44796D1*
X71412Y44793D2*
X71480D1*
Y43399D1*
X70087D1*
Y44793D1*
X70157D1*
X70122Y44880D1*
X70093Y45007D1*
X70088Y45138D1*
X70109Y45268D1*
X70153Y45391D1*
X70219Y45504D1*
X70297Y45593D1*
X70201Y45714D1*
X70140Y45830D1*
X70101Y45956D1*
X70087Y46086D1*
X70098Y46217D1*
X70132Y46343D1*
X70190Y46461D1*
X70269Y46565D1*
X70366Y46653D1*
X70478Y46722D1*
X70600Y46768D1*
X70729Y46791D1*
X70860Y46788D1*
X70989Y46762D1*
X71110Y46712D1*
X71219Y46640D1*
X71313Y46549D1*
X71389Y46441D1*
X71443Y46322D1*
X71473Y46195D1*
X71480Y46070D1*
X71463Y45940D1*
X71421Y45815D1*
X71358Y45701D1*
X71268Y45595D1*
X71346Y45507D1*
X71413Y45395D1*
X71458Y45272D1*
X71480Y45096D1*
X71468Y44966D1*
X71432Y44840D1*
X71407Y44792D1*
X48159Y44044D2*
Y42667D1*
X48239Y42541D1*
X48282Y42417D1*
X48294Y42299D1*
X48279Y42169D1*
X48234Y42046D1*
X48162Y41937D1*
X48066Y41847D1*
X47953Y41782D1*
X47827Y41745D1*
X47696Y41738D1*
X47568Y41762D1*
X47448Y41815D1*
X47343Y41894D1*
X47260Y41995D1*
X47202Y42112D1*
X47173Y42240D1*
X47175Y42371D1*
X47207Y42498D1*
X47267Y42614D1*
X47307Y42661D1*
X47305Y44042D1*
X47260Y44105D1*
X47202Y44222D1*
X47173Y44350D1*
X47175Y44481D1*
X47207Y44608D1*
X47267Y44724D1*
X47352Y44823D1*
X47458Y44900D1*
X47579Y44950D1*
X47709Y44971D1*
X47839Y44961D1*
X47964Y44921D1*
X48076Y44854D1*
X48170Y44762D1*
X48239Y44652D1*
X48282Y44528D1*
X48294Y44409D1*
X48279Y44279D1*
X48234Y44156D1*
X48159Y44044D1*
X48097Y37974D2*
X50459D1*
X50503Y38047D1*
X50588Y38146D1*
X50695Y38223D1*
X50816Y38273D1*
X50945Y38294D1*
X51075Y38284D1*
X51200Y38244D1*
X51312Y38177D1*
X51406Y38085D1*
X51476Y37974D1*
X51518Y37850D1*
X51530Y37732D1*
X51515Y37602D1*
X51470Y37479D1*
X51398Y37370D1*
X51303Y37280D1*
X51189Y37215D1*
X51063Y37178D1*
X50980Y37168D1*
X50852Y37126D1*
X50652Y37120D1*
X48097D1*
X47953Y37030D1*
X47827Y36993D1*
X47696Y36986D1*
X47568Y37010D1*
X47448Y37063D1*
X47343Y37142D1*
X47260Y37243D1*
X47202Y37360D1*
X47173Y37488D1*
X47175Y37619D1*
X47207Y37746D1*
X47267Y37862D1*
X47352Y37961D1*
X47458Y38038D1*
X47579Y38088D1*
X47709Y38109D1*
X47839Y38099D1*
X47964Y38059D1*
X48097Y37972D1*
X60309Y39789D2*
Y39124D1*
X60389Y39002D1*
X60431Y38878D1*
X60444Y38760D1*
X60429Y38630D1*
X60384Y38507D1*
X60312Y38398D1*
X60216Y38308D1*
X60102Y38243D1*
X59977Y38206D1*
X59846Y38199D1*
X59717Y38222D1*
X59597Y38275D1*
X59493Y38354D1*
X59410Y38455D1*
X59352Y38573D1*
X59323Y38700D1*
X59324Y38831D1*
X59356Y38958D1*
X59416Y39075D1*
X59456Y39121D1*
X59455Y39789D1*
X59410Y39849D1*
X59352Y39966D1*
X59323Y40094D1*
X59324Y40225D1*
X59356Y40352D1*
X59416Y40468D1*
X59502Y40568D1*
X59608Y40644D1*
X59729Y40694D1*
X59858Y40715D1*
X59989Y40705D1*
X60114Y40666D1*
X60226Y40598D1*
X60319Y40506D1*
X60389Y40396D1*
X60431Y40272D1*
X60444Y40154D1*
X60429Y40024D1*
X60384Y39901D1*
X60309Y39788D1*
X54144Y41382D2*
Y43613D1*
X51090Y43612D1*
X49819Y42346D1*
X48964Y41490D1*
X49002Y41379D1*
X49015Y41261D1*
X49000Y41131D1*
X48955Y41008D1*
X48882Y40898D1*
X48787Y40809D1*
X48673Y40744D1*
X48548Y40707D1*
X48417Y40700D1*
X48288Y40723D1*
X48168Y40776D1*
X48064Y40855D1*
X47981Y40956D1*
X47923Y41074D1*
X47894Y41201D1*
X47895Y41332D1*
X47927Y41459D1*
X47987Y41576D1*
X48027Y41622D1*
X48046Y41712D1*
X48107Y41832D1*
X48244Y41977D1*
X50608Y44341D1*
X50713Y44418D1*
X50841Y44460D1*
X51041Y44466D1*
X54145D1*
X54146Y45182D1*
X54177Y45309D1*
X54237Y45425D1*
X54323Y45524D1*
X54429Y45601D1*
X54550Y45651D1*
X54679Y45672D1*
X54810Y45662D1*
X54935Y45622D1*
X55047Y45555D1*
X55140Y45463D1*
X55210Y45352D1*
X55252Y45228D1*
X55262Y45082D1*
X55265Y41321D1*
X55250Y41191D1*
X55205Y41068D1*
X55133Y40959D1*
X55037Y40869D1*
X54924Y40804D1*
X54798Y40767D1*
X54667Y40760D1*
X54538Y40784D1*
X54419Y40836D1*
X54314Y40915D1*
X54231Y41016D1*
X54173Y41134D1*
X54144Y41261D1*
X54145Y41298D1*
X65927Y42928D2*
X66633D1*
X66726Y42991D1*
X66847Y43042D1*
X66976Y43062D1*
X67107Y43053D1*
X67232Y43013D1*
X67344Y42945D1*
X67437Y42854D1*
X67507Y42743D1*
X67549Y42619D1*
X67562Y42501D1*
X67547Y42371D1*
X67502Y42248D1*
X67430Y42139D1*
X67334Y42049D1*
X67221Y41984D1*
X67095Y41947D1*
X66964Y41940D1*
X66835Y41963D1*
X66715Y42016D1*
X66640Y42073D1*
X65930Y42074D1*
X65783Y41984D1*
X65657Y41947D1*
X65527Y41940D1*
X65398Y41963D1*
X65278Y42016D1*
X65174Y42095D1*
X65090Y42196D1*
X65033Y42314D1*
X65004Y42441D1*
X65005Y42572D1*
X65037Y42699D1*
X65097Y42816D1*
X65182Y42915D1*
X65289Y42991D1*
X65410Y43042D1*
X65539Y43062D1*
X65669Y43053D1*
X65794Y43013D1*
X65927Y42925D1*
X81500Y38000D2*
D18*
Y37304D1*
X80500Y38000D2*
Y37304D1*
X66500Y37696D2*
Y37000D1*
X71500D2*
Y36304D1*
Y37000D2*
X72196D1*
X83500Y42696D2*
Y42000D1*
Y48696D2*
Y48000D1*
X62049Y46796D2*
Y46100D1*
X61353D2*
X62745D1*
X70784Y46792D2*
Y46096D1*
X70088D2*
X71480D1*
X72866Y46945D2*
Y46249D1*
X72170Y46945D2*
X73562D1*
X74500Y39000D2*
X75196D1*
X74500Y45696D2*
Y45000D1*
X75196D1*
X59500Y36696D2*
Y36000D1*
X60500Y36696D2*
Y36000D1*
X75746Y48678D2*
D14*
X77275D1*
X78725D2*
X79826D1*
X75746Y48379D2*
X77275D1*
X78725D2*
X79826D1*
X75746Y48080D2*
X77275D1*
X78725D2*
X79777D1*
X75746Y47782D2*
X77275D1*
X78725D2*
X79809D1*
X75746Y47483D2*
X77275D1*
X78725D2*
X79826D1*
X75746Y47184D2*
X79797D1*
X75746Y46886D2*
X79785D1*
X75746Y46587D2*
X79826D1*
X75746Y46288D2*
X79826D1*
X75746Y45990D2*
X79773D1*
X75746Y45691D2*
X79383D1*
X79619D2*
X79826D1*
X75746Y45392D2*
X78895D1*
X75746Y45094D2*
X78780D1*
X75746Y44795D2*
X78805D1*
X75746Y44496D2*
X78981D1*
X75746Y44197D2*
X78801D1*
X75746Y43899D2*
X78780D1*
X75746Y43600D2*
X78899D1*
X75746Y43301D2*
X78842D1*
X75746Y43003D2*
X78772D1*
X75746Y42704D2*
X78838D1*
X75746Y42405D2*
X78903D1*
X75746Y42107D2*
X78780D1*
X75746Y41808D2*
X78801D1*
X75746Y41509D2*
X78977D1*
X75746Y41211D2*
X78805D1*
X75746Y40912D2*
X78780D1*
X75746Y40613D2*
X78891D1*
X75746Y40315D2*
X78850D1*
X75746Y40016D2*
X78772D1*
X75746Y39717D2*
X78833D1*
X75746Y39418D2*
X78911D1*
X75746Y39120D2*
X78784D1*
X75746Y38821D2*
X78797D1*
X75746Y38522D2*
X78772D1*
X75746Y38224D2*
X78772D1*
X75746Y37925D2*
X78772D1*
X79853Y48750D2*
X79809Y48911D1*
X79807Y48973D1*
X79085Y48976D1*
X78696D1*
X78684Y48870D1*
X78648Y48744D1*
X78624Y48696D1*
X78697Y48697D1*
Y47303D1*
X77303D1*
Y48697D1*
X77373D1*
X77338Y48784D1*
X77309Y48911D1*
X77307Y48973D1*
X76723Y48976D1*
X75718D1*
X75716Y46239D1*
Y37648D1*
X77797Y37650D1*
X78802D1*
X78803Y38697D1*
X78873D1*
X78838Y38784D1*
X78809Y38911D1*
X78805Y39042D1*
X78825Y39172D1*
X78869Y39295D1*
X78935Y39408D1*
X79014Y39497D1*
X78890Y39663D1*
X78838Y39784D1*
X78809Y39911D1*
X78805Y40042D1*
X78825Y40172D1*
X78869Y40295D1*
X78935Y40408D1*
X79014Y40497D1*
X78890Y40663D1*
X78838Y40784D1*
X78809Y40911D1*
X78805Y41042D1*
X78825Y41172D1*
X78869Y41295D1*
X78935Y41408D1*
X79014Y41497D1*
X78890Y41663D1*
X78838Y41784D1*
X78809Y41911D1*
X78805Y42042D1*
X78825Y42172D1*
X78869Y42295D1*
X78935Y42408D1*
X79014Y42497D1*
X78890Y42663D1*
X78838Y42784D1*
X78809Y42911D1*
X78805Y43042D1*
X78825Y43172D1*
X78869Y43295D1*
X78935Y43408D1*
X79014Y43497D1*
X78890Y43663D1*
X78838Y43784D1*
X78809Y43911D1*
X78805Y44042D1*
X78825Y44172D1*
X78869Y44295D1*
X78935Y44408D1*
X79014Y44497D1*
X78890Y44663D1*
X78838Y44784D1*
X78809Y44911D1*
X78805Y45042D1*
X78825Y45172D1*
X78869Y45295D1*
X78935Y45408D1*
X79022Y45507D1*
X79125Y45587D1*
X79242Y45647D1*
X79368Y45684D1*
X79498Y45697D1*
X79628Y45685D1*
X79754Y45649D1*
X79853Y45599D1*
X79854Y45739D1*
X79809Y45911D1*
X79805Y46042D1*
X79825Y46172D1*
X79854Y46253D1*
Y46740D1*
X79809Y46911D1*
X79805Y47042D1*
X79825Y47172D1*
X79854Y47253D1*
Y47741D1*
X79809Y47911D1*
X79805Y48042D1*
X79825Y48172D1*
X79854Y48261D1*
Y48741D1*
D29*
X81500Y49000D3*
D30*
X80500D3*
X81500Y48000D3*
X80500D3*
X81500Y47000D3*
X80500D3*
X81500Y46000D3*
X80500D3*
X81500Y45000D3*
X80500D3*
X81500Y44000D3*
X80500D3*
X81500Y43000D3*
X80500D3*
X81500Y42000D3*
X80500D3*
X81500Y41000D3*
X80500D3*
X81500Y40000D3*
X80500D3*
X81500Y39000D3*
X80500D3*
X81500Y38000D3*
X80500D3*
D29*
X62500Y37000D3*
D30*
X63500D3*
X64500D3*
X65500D3*
X66500D3*
X67500D3*
X68500D3*
X69500D3*
X70500D3*
X71500D3*
D29*
X83500Y38000D3*
D30*
X82500D3*
X83500Y39000D3*
X82500D3*
X83500Y40000D3*
X82500D3*
X83500Y41000D3*
X82500D3*
X83500Y42000D3*
X82500D3*
D29*
X83500Y44000D3*
D30*
X82500D3*
X83500Y45000D3*
X82500D3*
X83500Y46000D3*
X82500D3*
X83500Y47000D3*
X82500D3*
X83500Y48000D3*
X82500D3*
D29*
X51181Y49374D3*
D30*
X52181D3*
X53181D3*
D29*
X62049Y44100D3*
D30*
Y45100D3*
Y46100D3*
D29*
X70784Y44096D3*
D30*
Y45096D3*
Y46096D3*
D29*
X78000Y48000D3*
D30*
Y49000D3*
D29*
X72866Y46945D3*
D30*
Y47945D3*
Y48945D3*
D29*
X72878Y40001D3*
D30*
Y41001D3*
Y42001D3*
Y43001D3*
D29*
X79500Y38000D3*
D30*
Y39000D3*
Y40000D3*
Y41000D3*
Y42000D3*
Y43000D3*
Y44000D3*
Y45000D3*
D29*
X74500Y38000D3*
D30*
Y39000D3*
Y40000D3*
Y41000D3*
Y42000D3*
Y43000D3*
Y44000D3*
Y45000D3*
D29*
X56500Y36000D3*
D30*
X57500D3*
X58500D3*
X59500D3*
X60500D3*
X61500D3*
X62500D3*
X63500D3*
X64500D3*
X65500D3*
X66500D3*
X67500D3*
X68500D3*
X69500D3*
X70500D3*
M02*
