M48
INCH
T01C0.0191
T02C0.0433
%
T01
X+008750Y+005846
X+008750Y+005346
X+008750Y+004846
X+008750Y+004346
X+009250Y+004346
X+009250Y+004846
X+009250Y+005346
X+009250Y+005846
X+011203Y+006321
X+012732Y+005616
X+013250Y+005596
X+013250Y+006096
X+013250Y+006596
X+013250Y+007096
X+012479Y+004061
X+011250Y+004173
X+010752Y+001709
X+010252Y+001709
X+009752Y+001709
X+009252Y+001709
X+008752Y+001709
X+008252Y+001709
X+007752Y+001709
X+007252Y+001709
X+006752Y+001709
X+006252Y+001709
X+005752Y+001709
X+005252Y+001709
X+004752Y+001709
X+004232Y+002547
X+001000Y+002500
X+001000Y+002000
X+001000Y+001500
X+001000Y+001000
X+001000Y+003000
X+001000Y+003500
X+001000Y+004000
X+001000Y+004500
X+001000Y+005000
X+001000Y+005500
X+001000Y+006000
X+001000Y+006500
X+001000Y+007000
X+001000Y+007500
X+001000Y+008000
X+001000Y+008500
X+001000Y+009000
X+001000Y+009500
X+001000Y+010000
X+001000Y+010500
X+001000Y+011000
X+001406Y+011118
X+001906Y+011118
X+002406Y+011118
X+002906Y+011118
X+003406Y+011118
X+004232Y+009409
X+004232Y+007299
X+004953Y+006261
X+008295Y+007953
X+008295Y+008453
X+008795Y+008453
X+009295Y+008453
X+009295Y+007953
X+008795Y+007953
X+011203Y+010110
X+009906Y+013283
X+009406Y+013283
X+008906Y+013283
X+008406Y+013283
X+007906Y+013283
X+007406Y+013283
X+006906Y+013283
X+006406Y+013283
X+011425Y+014370
X+014583Y+011496
X+015083Y+011496
X+015583Y+011496
X+016382Y+010362
X+017000Y+010500
X+017000Y+010000
X+017000Y+009500
X+017000Y+009000
X+017000Y+008500
X+017000Y+008000
X+017000Y+007500
X+017000Y+007000
X+017000Y+006500
X+017500Y+006500
X+018000Y+006500
X+018500Y+006500
X+018500Y+007000
X+018500Y+007500
X+019000Y+007500
X+019000Y+007000
X+019500Y+007000
X+019500Y+007500
X+020000Y+007500
X+020000Y+007000
X+020000Y+006500
X+020500Y+006500
X+021000Y+006500
X+021440Y+006313
X+021000Y+007000
X+021000Y+007500
X+020500Y+007500
X+020500Y+007000
X+019500Y+006500
X+019000Y+006500
X+018000Y+007000
X+018000Y+007500
X+017500Y+007500
X+017500Y+007000
X+017000Y+006000
X+016382Y+005154
X+016382Y+003760
X+017520Y+001575
X+019031Y+003496
X+022565Y+006313
X+022063Y+007501
X+023500Y+007501
X+025052Y+009752
X+025778Y+009331
X+028500Y+010000
X+028500Y+010500
X+028500Y+011000
X+028500Y+011500
X+028500Y+012000
X+028500Y+012500
X+028500Y+013000
X+028500Y+013500
X+028500Y+014000
X+025778Y+012939
X+023000Y+013000
X+023000Y+013500
X+022500Y+013500
X+022500Y+013000
X+020496Y+012031
X+019190Y+012876
X+019173Y+013504
X+019173Y+014094
X+017000Y+013000
X+017000Y+012500
X+017000Y+012000
X+017000Y+011500
X+017000Y+011000
X+016358Y+013996
X+017520Y+019075
X+019031Y+020996
X+016382Y+021260
X+016382Y+022654
X+017000Y+023500
X+017000Y+024000
X+017000Y+024500
X+017000Y+025000
X+017000Y+025500
X+017000Y+026000
X+017000Y+026500
X+017000Y+027000
X+017000Y+027500
X+017000Y+028000
X+017000Y+028500
X+017000Y+029000
X+017000Y+029500
X+017000Y+030000
X+017000Y+030500
X+016358Y+031496
X+015583Y+028996
X+015083Y+028996
X+014583Y+028996
X+016382Y+027862
X+017500Y+025000
X+017500Y+024500
X+017500Y+024000
X+018000Y+024000
X+018000Y+024500
X+018000Y+025000
X+018500Y+025000
X+018500Y+024500
X+018500Y+024000
X+019000Y+024000
X+019000Y+024500
X+019000Y+025000
X+019500Y+025000
X+019500Y+024500
X+019500Y+024000
X+020000Y+024000
X+020000Y+024500
X+020000Y+025000
X+020500Y+025000
X+020500Y+024500
X+020500Y+024000
X+021000Y+024000
X+021440Y+023813
X+021000Y+024500
X+021000Y+025000
X+022063Y+025001
X+022565Y+023813
X+023500Y+025001
X+025052Y+027252
X+025778Y+026831
X+028500Y+027500
X+028500Y+028000
X+028500Y+028500
X+028500Y+029000
X+028500Y+029500
X+028500Y+030000
X+028500Y+030500
X+028500Y+031000
X+028500Y+031500
X+025778Y+030439
X+023000Y+030500
X+022500Y+030500
X+022500Y+031000
X+023000Y+031000
X+020496Y+029531
X+019190Y+030376
X+019173Y+031004
X+019173Y+031594
X+020295Y+027028
X+025062Y+022000
X+025429Y+021504
X+028317Y+021053
X+029000Y+019000
X+029500Y+019000
X+030000Y+019000
X+030500Y+019000
X+031000Y+019000
X+031500Y+019000
X+032000Y+019000
X+032500Y+019000
X+033000Y+019000
X+033500Y+019000
X+034000Y+019000
X+034500Y+019000
X+035000Y+019000
X+035500Y+019000
X+036000Y+019000
X+036500Y+019000
X+037000Y+019000
X+037500Y+019000
X+038000Y+019000
X+038500Y+019000
X+039000Y+019000
X+039500Y+019000
X+040000Y+019000
X+044500Y+019000
X+044500Y+019500
X+044500Y+020000
X+044500Y+020500
X+044500Y+021000
X+044500Y+021500
X+044500Y+022000
X+044500Y+022500
X+044500Y+023000
X+044500Y+023500
X+044500Y+024000
X+044500Y+024500
X+044500Y+025000
X+044500Y+025500
X+044500Y+026000
X+044500Y+026500
X+044500Y+027000
X+044500Y+027500
X+044500Y+028000
X+044500Y+028500
X+044906Y+028618
X+045406Y+028618
X+045906Y+028618
X+046406Y+028618
X+046906Y+028618
X+047732Y+026909
X+047732Y+024799
X+048453Y+023761
X+051795Y+025453
X+051795Y+025953
X+052295Y+025953
X+052795Y+025953
X+052795Y+025453
X+052295Y+025453
X+052250Y+023346
X+052250Y+022846
X+052250Y+022346
X+052250Y+021846
X+052750Y+021846
X+052750Y+022346
X+052750Y+022846
X+052750Y+023346
X+054703Y+023821
X+056232Y+023116
X+056750Y+023096
X+056750Y+023596
X+056750Y+024096
X+056750Y+024596
X+055979Y+021561
X+054750Y+021673
X+054252Y+019209
X+053752Y+019209
X+053252Y+019209
X+052752Y+019209
X+052252Y+019209
X+051752Y+019209
X+051252Y+019209
X+050752Y+019209
X+050252Y+019209
X+049752Y+019209
X+049252Y+019209
X+048752Y+019209
X+048252Y+019209
X+047732Y+020047
X+050969Y+020232
X+055252Y+019209
X+055752Y+019209
X+056252Y+019209
X+056752Y+019209
X+059882Y+021260
X+059882Y+022654
X+060500Y+023500
X+060500Y+024000
X+060500Y+024500
X+060500Y+025000
X+060500Y+025500
X+060500Y+026000
X+060500Y+026500
X+060500Y+027000
X+060500Y+027500
X+060500Y+028000
X+060500Y+028500
X+060500Y+029000
X+060500Y+029500
X+060500Y+030000
X+060500Y+030500
X+059858Y+031496
X+059083Y+028996
X+058583Y+028996
X+058083Y+028996
X+059882Y+027862
X+061000Y+025000
X+061500Y+025000
X+061500Y+024500
X+061000Y+024500
X+061000Y+024000
X+061500Y+024000
X+062000Y+024000
X+062500Y+024000
X+062500Y+024500
X+062000Y+024500
X+062000Y+025000
X+062500Y+025000
X+063000Y+025000
X+063500Y+025000
X+063500Y+024500
X+063000Y+024500
X+063000Y+024000
X+063500Y+024000
X+064000Y+024000
X+064500Y+024000
X+064940Y+023813
X+064500Y+024500
X+064000Y+024500
X+064000Y+025000
X+064500Y+025000
X+065563Y+025001
X+066065Y+023813
X+067000Y+025001
X+068552Y+027252
X+069278Y+026831
X+072000Y+027500
X+072000Y+028000
X+072000Y+028500
X+072000Y+029000
X+072000Y+029500
X+072000Y+030000
X+072000Y+030500
X+072000Y+031000
X+072000Y+031500
X+069278Y+030439
X+066500Y+030500
X+066000Y+030500
X+066000Y+031000
X+066500Y+031000
X+063996Y+029531
X+062690Y+030376
X+062673Y+031004
X+062673Y+031594
X+063795Y+027028
X+062531Y+020996
X+061020Y+019075
X+059858Y+013996
X+060500Y+013000
X+060500Y+012500
X+060500Y+012000
X+060500Y+011500
X+060500Y+011000
X+060500Y+010500
X+060500Y+010000
X+060500Y+009500
X+060500Y+009000
X+060500Y+008500
X+060500Y+008000
X+060500Y+007500
X+060500Y+007000
X+060500Y+006500
X+060500Y+006000
X+061000Y+006500
X+061500Y+006500
X+061500Y+007000
X+061000Y+007000
X+061000Y+007500
X+061500Y+007500
X+062000Y+007500
X+062500Y+007500
X+062500Y+007000
X+062000Y+007000
X+062000Y+006500
X+062500Y+006500
X+063000Y+006500
X+063500Y+006500
X+063500Y+007000
X+063000Y+007000
X+063000Y+007500
X+063500Y+007500
X+064000Y+007500
X+064500Y+007500
X+064500Y+007000
X+064000Y+007000
X+064000Y+006500
X+064500Y+006500
X+064940Y+006313
X+066065Y+006313
X+065563Y+007501
X+067000Y+007501
X+068552Y+009752
X+069278Y+009331
X+072000Y+010000
X+072000Y+010500
X+072000Y+011000
X+072000Y+011500
X+072000Y+012000
X+072000Y+012500
X+072000Y+013000
X+072000Y+013500
X+072000Y+014000
X+069278Y+012939
X+066500Y+013000
X+066500Y+013500
X+066000Y+013500
X+066000Y+013000
X+063996Y+012031
X+062690Y+012876
X+062673Y+013504
X+062673Y+014094
X+059083Y+011496
X+058583Y+011496
X+058083Y+011496
X+059882Y+010362
X+063795Y+009528
X+059882Y+005154
X+059882Y+003760
X+061020Y+001575
X+062531Y+003496
X+056752Y+001709
X+056252Y+001709
X+055752Y+001709
X+055252Y+001709
X+054252Y+001709
X+053752Y+001709
X+053252Y+001709
X+052752Y+001709
X+052252Y+001709
X+051752Y+001709
X+051252Y+001709
X+050752Y+001709
X+050252Y+001709
X+049752Y+001709
X+049252Y+001709
X+048752Y+001709
X+048252Y+001709
X+047732Y+002547
X+044500Y+002500
X+044500Y+002000
X+044500Y+001500
X+044500Y+001000
X+044500Y+003000
X+044500Y+003500
X+044500Y+004000
X+044500Y+004500
X+044500Y+005000
X+044500Y+005500
X+044500Y+006000
X+044500Y+006500
X+044500Y+007000
X+044500Y+007500
X+044500Y+008000
X+044500Y+008500
X+044500Y+009000
X+044500Y+009500
X+044500Y+010000
X+044500Y+010500
X+044500Y+011000
X+044906Y+011118
X+045406Y+011118
X+045906Y+011118
X+046406Y+011118
X+046906Y+011118
X+047732Y+009409
X+047732Y+007299
X+048453Y+006261
X+051795Y+007953
X+051795Y+008453
X+052295Y+008453
X+052295Y+007953
X+052795Y+007953
X+052795Y+008453
X+054703Y+010110
X+053406Y+013283
X+052906Y+013283
X+052406Y+013283
X+051906Y+013283
X+051406Y+013283
X+050906Y+013283
X+050406Y+013283
X+049906Y+013283
X+054925Y+014370
X+056750Y+007096
X+056750Y+006596
X+056750Y+006096
X+056750Y+005596
X+056232Y+005616
X+055979Y+004061
X+054750Y+004173
X+052750Y+004346
X+052250Y+004346
X+052250Y+004846
X+052250Y+005346
X+052250Y+005846
X+052750Y+005846
X+052750Y+005346
X+052750Y+004846
X+054703Y+006321
X+050969Y+002732
X+040000Y+001500
X+039500Y+001500
X+039000Y+001500
X+038500Y+001500
X+038000Y+001500
X+037500Y+001500
X+037000Y+001500
X+036500Y+001500
X+036000Y+001500
X+035500Y+001500
X+035000Y+001500
X+034500Y+001500
X+034000Y+001500
X+033500Y+001500
X+033000Y+001500
X+032500Y+001500
X+032000Y+001500
X+031500Y+001500
X+031000Y+001500
X+030500Y+001500
X+030000Y+001500
X+029500Y+001500
X+029000Y+001500
X+028317Y+003553
X+025429Y+004004
X+025062Y+004500
X+028440Y+006813
X+028440Y+007876
X+029688Y+010375
X+030357Y+011014
X+032441Y+009174
X+032441Y+008674
X+033316Y+008924
X+033316Y+008424
X+033316Y+007924
X+033879Y+007924
X+033879Y+008424
X+033879Y+008924
X+033879Y+009424
X+033879Y+009924
X+033316Y+009924
X+033316Y+009424
X+020295Y+009528
X+013252Y+001709
X+012752Y+001709
X+012252Y+001709
X+011752Y+001709
X+007469Y+002732
X+007252Y+019209
X+006752Y+019209
X+006252Y+019209
X+005752Y+019209
X+005252Y+019209
X+004752Y+019209
X+004232Y+020047
X+001000Y+020000
X+001000Y+019500
X+001000Y+019000
X+001000Y+018500
X+001000Y+020500
X+001000Y+021000
X+001000Y+021500
X+001000Y+022000
X+001000Y+022500
X+001000Y+023000
X+001000Y+023500
X+001000Y+024000
X+001000Y+024500
X+001000Y+025000
X+001000Y+025500
X+001000Y+026000
X+001000Y+026500
X+001000Y+027000
X+001000Y+027500
X+001000Y+028000
X+001000Y+028500
X+001406Y+028618
X+001906Y+028618
X+002406Y+028618
X+002906Y+028618
X+003406Y+028618
X+004232Y+026909
X+004232Y+024799
X+004953Y+023761
X+008295Y+025453
X+008295Y+025953
X+008795Y+025953
X+009295Y+025953
X+009295Y+025453
X+008795Y+025453
X+008750Y+023346
X+008750Y+022846
X+008750Y+022346
X+009250Y+022346
X+009250Y+021846
X+008750Y+021846
X+009250Y+022846
X+009250Y+023346
X+011203Y+023821
X+012732Y+023116
X+013250Y+023096
X+013250Y+023596
X+013250Y+024096
X+013250Y+024596
X+012479Y+021561
X+011250Y+021673
X+010752Y+019209
X+010252Y+019209
X+009752Y+019209
X+009252Y+019209
X+008752Y+019209
X+008252Y+019209
X+007752Y+019209
X+007469Y+020232
X+011752Y+019209
X+012252Y+019209
X+012752Y+019209
X+013252Y+019209
X+011203Y+027610
X+009906Y+030783
X+009406Y+030783
X+008906Y+030783
X+008406Y+030783
X+007906Y+030783
X+007406Y+030783
X+006906Y+030783
X+006406Y+030783
X+011425Y+031870
X+011752Y+036709
X+012252Y+036709
X+012752Y+036709
X+013252Y+036709
X+012479Y+039061
X+011250Y+039173
X+009250Y+039346
X+008750Y+039346
X+008750Y+039846
X+008750Y+040346
X+008750Y+040846
X+009250Y+040846
X+009250Y+040346
X+009250Y+039846
X+011203Y+041321
X+012732Y+040616
X+013250Y+040596
X+013250Y+041096
X+013250Y+041596
X+013250Y+042096
X+011203Y+045110
X+009295Y+043453
X+008795Y+043453
X+008795Y+042953
X+009295Y+042953
X+008295Y+042953
X+008295Y+043453
X+004953Y+041261
X+004232Y+042299
X+004232Y+044409
X+003406Y+046118
X+002906Y+046118
X+002406Y+046118
X+001906Y+046118
X+001406Y+046118
X+001000Y+046000
X+001000Y+045500
X+001000Y+045000
X+001000Y+044500
X+001000Y+044000
X+001000Y+043500
X+001000Y+043000
X+001000Y+042500
X+001000Y+042000
X+001000Y+041500
X+001000Y+041000
X+001000Y+040500
X+001000Y+040000
X+001000Y+039500
X+001000Y+039000
X+001000Y+038500
X+001000Y+038000
X+001000Y+037500
X+001000Y+037000
X+001000Y+036500
X+001000Y+036000
X+004232Y+037547
X+004752Y+036709
X+005252Y+036709
X+005752Y+036709
X+006252Y+036709
X+006752Y+036709
X+007252Y+036709
X+007752Y+036709
X+008252Y+036709
X+008752Y+036709
X+009252Y+036709
X+009752Y+036709
X+010252Y+036709
X+010752Y+036709
X+007469Y+037732
X+016382Y+038760
X+016382Y+040154
X+017000Y+041000
X+017000Y+041500
X+017000Y+042000
X+017000Y+042500
X+017000Y+043000
X+017000Y+043500
X+017000Y+044000
X+017000Y+044500
X+017000Y+045000
X+017000Y+045500
X+017000Y+046000
X+017000Y+046500
X+017000Y+047000
X+017000Y+047500
X+017000Y+048000
X+016358Y+048996
X+015583Y+046496
X+015083Y+046496
X+014583Y+046496
X+016382Y+045362
X+017500Y+042500
X+017500Y+042000
X+017500Y+041500
X+018000Y+041500
X+018000Y+042000
X+018000Y+042500
X+018500Y+042500
X+018500Y+042000
X+018500Y+041500
X+019000Y+041500
X+019000Y+042000
X+019000Y+042500
X+019500Y+042500
X+019500Y+042000
X+019500Y+041500
X+020000Y+041500
X+020000Y+042000
X+020000Y+042500
X+020500Y+042500
X+020500Y+042000
X+020500Y+041500
X+021000Y+041500
X+021440Y+041313
X+021000Y+042000
X+021000Y+042500
X+022063Y+042501
X+022565Y+041313
X+023500Y+042501
X+025052Y+044752
X+025778Y+044331
X+028500Y+045000
X+028500Y+045500
X+028500Y+046000
X+028500Y+046500
X+028500Y+047000
X+028500Y+047500
X+028500Y+048000
X+028500Y+048500
X+028500Y+049000
X+025778Y+047939
X+023000Y+048000
X+022500Y+048000
X+022500Y+048500
X+023000Y+048500
X+020496Y+047031
X+019190Y+047876
X+019173Y+048504
X+019173Y+049094
X+020295Y+044528
X+019031Y+038496
X+017520Y+036575
X+025062Y+039500
X+025429Y+039004
X+028317Y+038553
X+029000Y+036500
X+029500Y+036500
X+030000Y+036500
X+030500Y+036500
X+031000Y+036500
X+031500Y+036500
X+032000Y+036500
X+032500Y+036500
X+033000Y+036500
X+033500Y+036500
X+034000Y+036500
X+034500Y+036500
X+035000Y+036500
X+035500Y+036500
X+036000Y+036500
X+036500Y+036500
X+037000Y+036500
X+037500Y+036500
X+038000Y+036500
X+038500Y+036500
X+039000Y+036500
X+039500Y+036500
X+040000Y+036500
X+044500Y+036500
X+044500Y+037000
X+044500Y+037500
X+044500Y+038000
X+044500Y+038500
X+044500Y+039000
X+044500Y+039500
X+044500Y+040000
X+044500Y+040500
X+044500Y+041000
X+044500Y+041500
X+044500Y+042000
X+044500Y+042500
X+044500Y+043000
X+044500Y+043500
X+044500Y+044000
X+044500Y+044500
X+044500Y+045000
X+044500Y+045500
X+044500Y+046000
X+044906Y+046118
X+045406Y+046118
X+045906Y+046118
X+046406Y+046118
X+046906Y+046118
X+047732Y+044409
X+047732Y+042299
X+048453Y+041261
X+051795Y+042953
X+051795Y+043453
X+052295Y+043453
X+052795Y+043453
X+052795Y+042953
X+052295Y+042953
X+052250Y+040846
X+052250Y+040346
X+052250Y+039846
X+052250Y+039346
X+052750Y+039346
X+052750Y+039846
X+052750Y+040346
X+052750Y+040846
X+054703Y+041321
X+056232Y+040616
X+056750Y+040596
X+056750Y+041096
X+056750Y+041596
X+056750Y+042096
X+055979Y+039061
X+054750Y+039173
X+054252Y+036709
X+053752Y+036709
X+053252Y+036709
X+052752Y+036709
X+052252Y+036709
X+051752Y+036709
X+051252Y+036709
X+050752Y+036709
X+050252Y+036709
X+049752Y+036709
X+049252Y+036709
X+048752Y+036709
X+048252Y+036709
X+047732Y+037547
X+050969Y+037732
X+055252Y+036709
X+055752Y+036709
X+056252Y+036709
X+056752Y+036709
X+059882Y+038760
X+059882Y+040154
X+060500Y+041000
X+060500Y+041500
X+060500Y+042000
X+060500Y+042500
X+060500Y+043000
X+060500Y+043500
X+060500Y+044000
X+060500Y+044500
X+060500Y+045000
X+060500Y+045500
X+060500Y+046000
X+060500Y+046500
X+060500Y+047000
X+060500Y+047500
X+060500Y+048000
X+059858Y+048996
X+059083Y+046496
X+058583Y+046496
X+058083Y+046496
X+059882Y+045362
X+061000Y+042500
X+061500Y+042500
X+061500Y+042000
X+061000Y+042000
X+061000Y+041500
X+061500Y+041500
X+062000Y+041500
X+062000Y+042000
X+062500Y+042000
X+062500Y+041500
X+063000Y+041500
X+063000Y+042000
X+063500Y+042000
X+063500Y+041500
X+064000Y+041500
X+064000Y+042000
X+064500Y+042000
X+064500Y+041500
X+064940Y+041313
X+066065Y+041313
X+065563Y+042501
X+064500Y+042500
X+064000Y+042500
X+063500Y+042500
X+063000Y+042500
X+062500Y+042500
X+062000Y+042500
X+063795Y+044528
X+063996Y+047031
X+062690Y+047876
X+062673Y+048504
X+062673Y+049094
X+066000Y+048500
X+066000Y+048000
X+066500Y+048000
X+066500Y+048500
X+069278Y+047939
X+072000Y+048000
X+072000Y+048500
X+072000Y+049000
X+072000Y+047500
X+072000Y+047000
X+072000Y+046500
X+072000Y+046000
X+072000Y+045500
X+072000Y+045000
X+073188Y+045375
X+073857Y+046014
X+075941Y+044174
X+075941Y+043674
X+076816Y+043924
X+076816Y+044424
X+076816Y+044924
X+077379Y+044924
X+077379Y+044424
X+077379Y+043924
X+077379Y+043424
X+077379Y+042924
X+076816Y+042924
X+076816Y+043424
X+071940Y+042876
X+071940Y+041813
X+071817Y+038553
X+072500Y+036500
X+073000Y+036500
X+073500Y+036500
X+074000Y+036500
X+074500Y+036500
X+075000Y+036500
X+075500Y+036500
X+076000Y+036500
X+076500Y+036500
X+077000Y+036500
X+077500Y+036500
X+078000Y+036500
X+078500Y+036500
X+079000Y+036500
X+079500Y+036500
X+080000Y+036500
X+080500Y+036500
X+081000Y+036500
X+081500Y+036500
X+082000Y+036500
X+082500Y+036500
X+083000Y+036500
X+083500Y+036500
X+077379Y+027424
X+077379Y+026924
X+077379Y+026424
X+077379Y+025924
X+077379Y+025424
X+076816Y+025424
X+076816Y+025924
X+076816Y+026424
X+076816Y+026924
X+076816Y+027424
X+075941Y+026674
X+075941Y+026174
X+073857Y+028514
X+073188Y+027875
X+071940Y+025376
X+071940Y+024313
X+071817Y+021053
X+072500Y+019000
X+073000Y+019000
X+073500Y+019000
X+074000Y+019000
X+074500Y+019000
X+075000Y+019000
X+075500Y+019000
X+076000Y+019000
X+076500Y+019000
X+077000Y+019000
X+077500Y+019000
X+078000Y+019000
X+078500Y+019000
X+079000Y+019000
X+079500Y+019000
X+080000Y+019000
X+080500Y+019000
X+081000Y+019000
X+081500Y+019000
X+082000Y+019000
X+082500Y+019000
X+083000Y+019000
X+083500Y+019000
X+077379Y+009924
X+077379Y+009424
X+077379Y+008924
X+077379Y+008424
X+077379Y+007924
X+076816Y+007924
X+076816Y+008424
X+076816Y+008924
X+076816Y+009424
X+076816Y+009924
X+075941Y+009174
X+075941Y+008674
X+073857Y+011014
X+073188Y+010375
X+071940Y+007876
X+071940Y+006813
X+071817Y+003553
X+072500Y+001500
X+073000Y+001500
X+073500Y+001500
X+074000Y+001500
X+074500Y+001500
X+075000Y+001500
X+075500Y+001500
X+076000Y+001500
X+076500Y+001500
X+077000Y+001500
X+077500Y+001500
X+078000Y+001500
X+078500Y+001500
X+079000Y+001500
X+079500Y+001500
X+080000Y+001500
X+080500Y+001500
X+081000Y+001500
X+081500Y+001500
X+082000Y+001500
X+082500Y+001500
X+083000Y+001500
X+083500Y+001500
X+068929Y+004004
X+068562Y+004500
X+068929Y+021504
X+068562Y+022000
X+054703Y+027610
X+053406Y+030783
X+052906Y+030783
X+052406Y+030783
X+051906Y+030783
X+051406Y+030783
X+050906Y+030783
X+050406Y+030783
X+049906Y+030783
X+054925Y+031870
X+061020Y+036575
X+062531Y+038496
X+067000Y+042501
X+068552Y+044752
X+069278Y+044331
X+068562Y+039500
X+068929Y+039004
X+054703Y+045110
X+053406Y+048283
X+052906Y+048283
X+052406Y+048283
X+051906Y+048283
X+051406Y+048283
X+050906Y+048283
X+050406Y+048283
X+049906Y+048283
X+054925Y+049370
X+044500Y+036000
X+033879Y+042924
X+033879Y+043424
X+033879Y+043924
X+033879Y+044424
X+033879Y+044924
X+033316Y+044924
X+033316Y+044424
X+033316Y+043924
X+033316Y+043424
X+033316Y+042924
X+032441Y+043674
X+032441Y+044174
X+030357Y+046014
X+029688Y+045375
X+028440Y+042876
X+028440Y+041813
X+030357Y+028514
X+029688Y+027875
X+028440Y+025376
X+028440Y+024313
X+032441Y+026174
X+032441Y+026674
X+033316Y+026924
X+033316Y+026424
X+033316Y+025924
X+033316Y+025424
X+033879Y+025424
X+033879Y+025924
X+033879Y+026424
X+033879Y+026924
X+033879Y+027424
X+033316Y+027424
X+044500Y+018500
X+011425Y+049370
X+009906Y+048283
X+009406Y+048283
X+008906Y+048283
X+008406Y+048283
X+007906Y+048283
X+007406Y+048283
X+006906Y+048283
X+006406Y+048283
T02
X+038000Y+014000
X+037000Y+014000
X+037000Y+013000
X+037000Y+012000
X+038000Y+012000
X+038000Y+013000
X+039000Y+013000
X+039000Y+012000
X+039000Y+011000
X+039000Y+010000
X+039000Y+009000
X+040000Y+009000
X+040000Y+010000
X+040000Y+011000
X+040000Y+012000
X+040000Y+013000
X+038000Y+011000
X+038000Y+010000
X+038000Y+009000
X+037000Y+009000
X+036000Y+009000
X+036000Y+008000
X+037000Y+008000
X+037000Y+007000
X+036000Y+007000
X+036000Y+006000
X+037000Y+006000
X+037000Y+005000
X+036000Y+005000
X+036000Y+004000
X+037000Y+004000
X+037000Y+003000
X+036000Y+003000
X+038000Y+003000
X+038000Y+004000
X+038000Y+005000
X+039000Y+005000
X+039000Y+004000
X+040000Y+004000
X+040000Y+005000
X+040000Y+006000
X+039000Y+006000
X+039000Y+007000
X+040000Y+007000
X+038000Y+007000
X+038000Y+008000
X+038000Y+006000
X+039000Y+003000
X+040000Y+003000
X+037000Y+010000
X+036000Y+010000
X+037000Y+011000
X+034500Y+013000
X+034500Y+014000
X+029366Y+013945
X+029366Y+012945
X+029366Y+011945
X+027284Y+011096
X+027284Y+010096
X+027284Y+009096
X+029378Y+008001
X+029378Y+007001
X+029378Y+006001
X+029378Y+005001
X+031000Y+005000
X+031000Y+004000
X+031000Y+003000
X+031000Y+006000
X+031000Y+007000
X+031000Y+008000
X+031000Y+009000
X+031000Y+010000
X+028000Y+002000
X+027000Y+002000
X+027000Y+001000
X+026000Y+001000
X+026000Y+002000
X+025000Y+002000
X+025000Y+001000
X+024000Y+001000
X+024000Y+002000
X+023000Y+002000
X+023000Y+001000
X+022000Y+001000
X+022000Y+002000
X+021000Y+002000
X+021000Y+001000
X+020000Y+001000
X+020000Y+002000
X+019000Y+002000
X+019000Y+001000
X+018000Y+001000
X+017000Y+001000
X+016000Y+001000
X+015000Y+001000
X+014000Y+001000
X+013000Y+001000
X+018549Y+009100
X+018549Y+010100
X+018549Y+011100
X+019000Y+018500
X+019000Y+019500
X+020000Y+019500
X+021000Y+019500
X+022000Y+019500
X+023000Y+019500
X+024000Y+019500
X+025000Y+019500
X+026000Y+019500
X+027000Y+019500
X+028000Y+019500
X+027000Y+018500
X+026000Y+018500
X+025000Y+018500
X+024000Y+018500
X+023000Y+018500
X+022000Y+018500
X+021000Y+018500
X+020000Y+018500
X+018000Y+018500
X+017000Y+018500
X+016000Y+018500
X+015000Y+018500
X+014000Y+018500
X+013000Y+018500
X+009681Y+014374
X+008681Y+014374
X+007681Y+014374
X+018549Y+026600
X+018549Y+027600
X+018549Y+028600
X+019000Y+036000
X+019000Y+037000
X+020000Y+037000
X+021000Y+037000
X+022000Y+037000
X+023000Y+037000
X+024000Y+037000
X+025000Y+037000
X+026000Y+037000
X+027000Y+037000
X+028000Y+037000
X+027000Y+036000
X+026000Y+036000
X+025000Y+036000
X+024000Y+036000
X+023000Y+036000
X+022000Y+036000
X+021000Y+036000
X+020000Y+036000
X+018000Y+036000
X+017000Y+036000
X+016000Y+036000
X+015000Y+036000
X+014000Y+036000
X+013000Y+036000
X+009681Y+031874
X+008681Y+031874
X+007681Y+031874
X+018549Y+044100
X+018549Y+045100
X+018549Y+046100
X+027284Y+046096
X+027284Y+045096
X+027284Y+044096
X+029378Y+043001
X+029378Y+042001
X+029378Y+041001
X+029378Y+040001
X+031000Y+040000
X+031000Y+041000
X+031000Y+042000
X+031000Y+043000
X+031000Y+044000
X+031000Y+045000
X+029366Y+046945
X+029366Y+047945
X+029366Y+048945
X+034500Y+049000
X+034500Y+048000
X+037000Y+048000
X+037000Y+049000
X+038000Y+049000
X+038000Y+048000
X+038000Y+047000
X+037000Y+047000
X+037000Y+046000
X+038000Y+046000
X+038000Y+045000
X+037000Y+045000
X+036000Y+045000
X+036000Y+044000
X+037000Y+044000
X+038000Y+044000
X+038000Y+043000
X+038000Y+042000
X+037000Y+042000
X+037000Y+043000
X+036000Y+043000
X+036000Y+042000
X+036000Y+041000
X+037000Y+041000
X+038000Y+041000
X+038000Y+040000
X+037000Y+040000
X+036000Y+040000
X+036000Y+039000
X+037000Y+039000
X+038000Y+039000
X+038000Y+038000
X+037000Y+038000
X+036000Y+038000
X+039000Y+038000
X+040000Y+038000
X+040000Y+039000
X+039000Y+039000
X+039000Y+040000
X+039000Y+041000
X+040000Y+041000
X+040000Y+040000
X+040000Y+042000
X+039000Y+042000
X+039000Y+044000
X+040000Y+044000
X+040000Y+045000
X+039000Y+045000
X+039000Y+046000
X+040000Y+046000
X+040000Y+047000
X+039000Y+047000
X+039000Y+048000
X+040000Y+048000
X+051181Y+049374
X+052181Y+049374
X+053181Y+049374
X+062049Y+046100
X+062049Y+045100
X+062049Y+044100
X+062500Y+037000
X+063500Y+037000
X+064500Y+037000
X+065500Y+037000
X+066500Y+037000
X+067500Y+037000
X+068500Y+037000
X+069500Y+037000
X+070500Y+037000
X+071500Y+037000
X+070500Y+036000
X+069500Y+036000
X+068500Y+036000
X+067500Y+036000
X+066500Y+036000
X+065500Y+036000
X+064500Y+036000
X+063500Y+036000
X+062500Y+036000
X+061500Y+036000
X+060500Y+036000
X+059500Y+036000
X+058500Y+036000
X+057500Y+036000
X+056500Y+036000
X+053181Y+031874
X+052181Y+031874
X+051181Y+031874
X+040000Y+030500
X+039000Y+030500
X+038000Y+030500
X+038000Y+029500
X+038000Y+028500
X+037000Y+028500
X+037000Y+027500
X+036000Y+027500
X+036000Y+026500
X+037000Y+026500
X+037000Y+025500
X+036000Y+025500
X+036000Y+024500
X+037000Y+024500
X+038000Y+024500
X+038000Y+025500
X+038000Y+026500
X+038000Y+027500
X+039000Y+027500
X+039000Y+028500
X+039000Y+029500
X+040000Y+029500
X+040000Y+028500
X+040000Y+027500
X+040000Y+026500
X+039000Y+026500
X+039000Y+024500
X+039000Y+023500
X+038000Y+023500
X+037000Y+023500
X+036000Y+023500
X+036000Y+022500
X+037000Y+022500
X+037000Y+021500
X+036000Y+021500
X+036000Y+020500
X+037000Y+020500
X+038000Y+020500
X+038000Y+021500
X+038000Y+022500
X+039000Y+022500
X+039000Y+021500
X+039000Y+020500
X+040000Y+020500
X+040000Y+021500
X+040000Y+022500
X+040000Y+023500
X+040000Y+024500
X+037000Y+029500
X+037000Y+030500
X+037000Y+031500
X+038000Y+031500
X+034500Y+031500
X+034500Y+030500
X+031000Y+027500
X+031000Y+026500
X+031000Y+025500
X+031000Y+024500
X+031000Y+023500
X+031000Y+022500
X+031000Y+021500
X+031000Y+020500
X+029378Y+022501
X+029378Y+023501
X+029378Y+024501
X+029378Y+025501
X+027284Y+026596
X+027284Y+027596
X+027284Y+028596
X+029366Y+029445
X+029366Y+030445
X+029366Y+031445
X+031000Y+038000
X+031000Y+039000
X+009681Y+049374
X+008681Y+049374
X+007681Y+049374
X+051181Y+014374
X+052181Y+014374
X+053181Y+014374
X+056500Y+018500
X+057500Y+018500
X+058500Y+018500
X+059500Y+018500
X+060500Y+018500
X+061500Y+018500
X+062500Y+018500
X+063500Y+018500
X+064500Y+018500
X+065500Y+018500
X+066500Y+018500
X+067500Y+018500
X+068500Y+018500
X+069500Y+018500
X+070500Y+018500
X+070500Y+019500
X+071500Y+019500
X+069500Y+019500
X+068500Y+019500
X+067500Y+019500
X+066500Y+019500
X+065500Y+019500
X+064500Y+019500
X+063500Y+019500
X+062500Y+019500
X+062049Y+026600
X+062049Y+027600
X+062049Y+028600
X+070784Y+028596
X+070784Y+027596
X+070784Y+026596
X+072878Y+025501
X+072878Y+024501
X+072878Y+023501
X+072878Y+022501
X+074500Y+022500
X+074500Y+021500
X+074500Y+020500
X+074500Y+023500
X+074500Y+024500
X+074500Y+025500
X+074500Y+026500
X+074500Y+027500
X+072866Y+029445
X+072866Y+030445
X+072866Y+031445
X+078000Y+031500
X+078000Y+030500
X+080500Y+030500
X+081500Y+030500
X+081500Y+029500
X+080500Y+029500
X+080500Y+028500
X+081500Y+028500
X+081500Y+027500
X+080500Y+027500
X+080500Y+026500
X+081500Y+026500
X+081500Y+025500
X+080500Y+025500
X+079500Y+025500
X+079500Y+024500
X+079500Y+023500
X+080500Y+023500
X+081500Y+023500
X+081500Y+022500
X+080500Y+022500
X+080500Y+021500
X+081500Y+021500
X+081500Y+020500
X+080500Y+020500
X+079500Y+020500
X+079500Y+021500
X+079500Y+022500
X+080500Y+024500
X+081500Y+024500
X+082500Y+024500
X+083500Y+024500
X+083500Y+023500
X+082500Y+023500
X+082500Y+022500
X+083500Y+022500
X+083500Y+021500
X+082500Y+021500
X+082500Y+020500
X+083500Y+020500
X+083500Y+026500
X+082500Y+026500
X+082500Y+027500
X+083500Y+027500
X+083500Y+028500
X+082500Y+028500
X+082500Y+029500
X+083500Y+029500
X+083500Y+030500
X+082500Y+030500
X+081500Y+031500
X+080500Y+031500
X+079500Y+027500
X+079500Y+026500
X+079500Y+038000
X+080500Y+038000
X+081500Y+038000
X+081500Y+039000
X+080500Y+039000
X+080500Y+040000
X+081500Y+040000
X+081500Y+041000
X+080500Y+041000
X+080500Y+042000
X+081500Y+042000
X+081500Y+043000
X+080500Y+043000
X+080500Y+044000
X+081500Y+044000
X+081500Y+045000
X+080500Y+045000
X+080500Y+046000
X+081500Y+046000
X+081500Y+047000
X+080500Y+047000
X+080500Y+048000
X+081500Y+048000
X+081500Y+049000
X+080500Y+049000
X+082500Y+048000
X+083500Y+048000
X+083500Y+047000
X+082500Y+047000
X+082500Y+046000
X+083500Y+046000
X+083500Y+045000
X+082500Y+045000
X+082500Y+044000
X+083500Y+044000
X+083500Y+042000
X+082500Y+042000
X+082500Y+041000
X+083500Y+041000
X+083500Y+040000
X+082500Y+040000
X+082500Y+039000
X+083500Y+039000
X+083500Y+038000
X+082500Y+038000
X+079500Y+039000
X+079500Y+040000
X+079500Y+041000
X+079500Y+042000
X+079500Y+043000
X+079500Y+044000
X+079500Y+045000
X+078000Y+048000
X+078000Y+049000
X+072866Y+048945
X+072866Y+047945
X+072866Y+046945
X+070784Y+046096
X+070784Y+045096
X+070784Y+044096
X+072878Y+043001
X+072878Y+042001
X+072878Y+041001
X+072878Y+040001
X+074500Y+040000
X+074500Y+041000
X+074500Y+042000
X+074500Y+043000
X+074500Y+044000
X+074500Y+045000
X+074500Y+039000
X+074500Y+038000
X+072866Y+013945
X+072866Y+012945
X+072866Y+011945
X+070784Y+011096
X+070784Y+010096
X+070784Y+009096
X+072878Y+008001
X+072878Y+007001
X+072878Y+006001
X+072878Y+005001
X+074500Y+005000
X+074500Y+004000
X+074500Y+003000
X+074500Y+006000
X+074500Y+007000
X+074500Y+008000
X+074500Y+009000
X+074500Y+010000
X+078000Y+013000
X+078000Y+014000
X+080500Y+014000
X+081500Y+014000
X+081500Y+013000
X+080500Y+013000
X+080500Y+012000
X+081500Y+012000
X+081500Y+011000
X+080500Y+011000
X+080500Y+010000
X+081500Y+010000
X+081500Y+009000
X+080500Y+009000
X+079500Y+009000
X+079500Y+008000
X+079500Y+007000
X+079500Y+006000
X+079500Y+005000
X+079500Y+004000
X+079500Y+003000
X+080500Y+003000
X+081500Y+003000
X+081500Y+004000
X+080500Y+004000
X+080500Y+005000
X+081500Y+005000
X+081500Y+006000
X+080500Y+006000
X+080500Y+007000
X+081500Y+007000
X+081500Y+008000
X+080500Y+008000
X+082500Y+009000
X+083500Y+009000
X+083500Y+010000
X+082500Y+010000
X+082500Y+011000
X+083500Y+011000
X+083500Y+012000
X+082500Y+012000
X+082500Y+013000
X+083500Y+013000
X+079500Y+010000
X+082500Y+007000
X+083500Y+007000
X+083500Y+006000
X+082500Y+006000
X+082500Y+005000
X+083500Y+005000
X+083500Y+004000
X+082500Y+004000
X+082500Y+003000
X+083500Y+003000
X+071500Y+002000
X+070500Y+002000
X+070500Y+001000
X+069500Y+001000
X+069500Y+002000
X+068500Y+002000
X+068500Y+001000
X+067500Y+001000
X+067500Y+002000
X+066500Y+002000
X+066500Y+001000
X+065500Y+001000
X+065500Y+002000
X+064500Y+002000
X+064500Y+001000
X+063500Y+001000
X+063500Y+002000
X+062500Y+002000
X+062500Y+001000
X+061500Y+001000
X+060500Y+001000
X+059500Y+001000
X+058500Y+001000
X+057500Y+001000
X+056500Y+001000
X+062049Y+009100
X+062049Y+010100
X+062049Y+011100
T00
M30
