G04 DipTrace 2.4.0.2*
%INTop.gbr*%
%MOIN*%
%ADD13C,0.013*%
%ADD14C,0.03*%
%ADD15C,0.0394*%
%ADD16C,0.025*%
%ADD17C,0.06*%
%ADD18C,0.04*%
%ADD19R,0.0433X0.0394*%
%ADD20R,0.1063X0.063*%
%ADD21R,0.0512X0.0591*%
%ADD22R,0.0591X0.0512*%
%ADD23R,0.0394X0.0433*%
%ADD25R,0.0945X0.0945*%
%ADD27R,0.0236X0.0236*%
%ADD28R,0.0315X0.0315*%
%ADD29R,0.0669X0.0669*%
%ADD30C,0.0669*%
%ADD32R,0.0413X0.0256*%
%ADD34R,0.0846X0.1772*%
%ADD35R,0.0709X0.0157*%
%ADD36R,0.0984X0.1654*%
%ADD37R,0.0846X0.0374*%
%ADD38R,0.0846X0.128*%
%ADD39R,0.0157X0.0551*%
%ADD40R,0.0236X0.0787*%
%FSLAX44Y44*%
G04*
G70*
G90*
G75*
G01*
%LNTop*%
%LPD*%
X32188Y2938D2*
D13*
X31062D1*
X31000Y3000D1*
X29875D1*
X29813Y2938D1*
X24419Y4562D2*
Y4004D1*
D14*
X21220D1*
X20079D1*
X18921D1*
X17812D1*
X17756D1*
X17012D1*
X16466Y4550D1*
X13757D1*
X25429Y4004D2*
X24419D1*
X17750Y4551D2*
D13*
X18921D1*
X20073D1*
X20079Y4557D1*
X21230D1*
X31059Y11124D2*
X30467D1*
X30357Y11014D1*
X20079Y4557D2*
D14*
Y4004D1*
X18921Y4551D2*
Y4004D1*
X17750Y4551D2*
Y4066D1*
X17812Y4004D1*
X21230Y4557D2*
D13*
X22450D1*
X22456Y4562D1*
X21230Y4557D2*
D14*
X21220D1*
Y4004D1*
X17756Y3484D2*
Y4004D1*
X1635Y12937D2*
X2854D1*
Y12933D1*
D15*
X4248D1*
Y10154D1*
X2709D1*
X2587Y10031D1*
X7681Y14374D2*
X5693D1*
X4252Y12933D1*
X4248Y10154D2*
D13*
Y9394D1*
X4232Y9409D1*
Y7299D2*
Y2547D1*
X7469Y2732D2*
Y2858D1*
X7795Y3185D1*
X8122D1*
X8140Y3203D1*
X17953Y14094D2*
X17819D1*
X17543Y14370D1*
X11425D1*
X30000Y9250D2*
X29125D1*
Y10444D1*
X30522Y11841D1*
Y12372D1*
X29125Y9250D2*
X28440D1*
Y7876D1*
Y6813D2*
X27771D1*
X27753Y6795D1*
X30000Y9250D2*
X30750D1*
X31000Y9000D1*
X33898Y5531D2*
Y4774D1*
X33893Y4063D2*
Y4774D1*
X33898D1*
X31000Y9000D2*
X31500Y8500D1*
Y6020D1*
X31555Y5965D1*
X33465D1*
X33898Y5531D1*
X15000Y1000D2*
X15026D1*
X15600Y1575D1*
X17520D1*
X19031Y3496D2*
X20012D1*
Y3553D1*
X28317D1*
X14785Y13402D2*
D14*
X15985D1*
D13*
X16003Y13384D1*
X9681Y14374D2*
D15*
X10795D1*
Y13512D1*
Y11831D1*
X10752Y11787D1*
X14785Y13402D2*
Y13512D1*
X10795D1*
X17953Y13504D2*
D13*
X16123D1*
X16003Y13384D1*
Y13641D1*
X16358Y13996D1*
X16382Y10362D2*
Y5154D1*
Y3760D2*
X16402D1*
Y2516D1*
X16122Y2236D1*
X8136D1*
Y2639D1*
X6398Y2224D2*
X8136D1*
X37000Y13000D2*
X37500Y13500D1*
X38500D1*
X39000Y13000D1*
X38000D2*
X39000Y12000D1*
X38000D2*
X39000Y11000D1*
X38000D2*
X39000Y10000D1*
X38000D2*
X39000Y9000D1*
X37000Y8000D2*
X37500Y7500D1*
X39500D1*
Y6500D1*
X40000Y6000D1*
Y5000D2*
X39500Y5500D1*
X37620D1*
X37500Y5620D1*
Y6500D1*
X37000Y7000D1*
X38000D2*
X39000Y6000D1*
X25449Y4768D2*
X25398D1*
X25192Y4562D1*
X25125D1*
X25062Y4500D1*
X22252Y9939D2*
Y9638D1*
X22627Y9262D1*
Y7278D1*
X23030Y6876D1*
X25376D1*
X25449Y6803D1*
Y6500D1*
X26217D2*
Y6850D1*
X25941Y7126D1*
X23177D1*
X22877Y7426D1*
Y9251D1*
X23252Y9626D1*
Y9938D1*
Y9939D1*
X10105Y4799D2*
X11047D1*
X11250Y4596D1*
Y4173D1*
X33187Y6433D2*
X34044D1*
X34062Y6451D1*
X32437Y11104D2*
X32569D1*
Y10827D1*
X33819D1*
X34000Y3000D2*
X33188D1*
X33063Y3125D1*
Y3965D1*
X32965Y4062D1*
X32210D1*
X32188Y4040D1*
X31201Y13346D2*
X30620D1*
X30541Y13425D1*
X32437Y11104D2*
X31614D1*
Y10000D1*
X31752D1*
Y6654D1*
X31973Y6433D1*
X33187D1*
X40000Y13000D2*
X40500Y12500D1*
Y7500D1*
X40000Y7000D1*
X30541Y13425D2*
X29996D1*
Y14502D1*
X28902D1*
Y12449D1*
X29366Y11984D1*
Y11945D1*
X23565Y6061D2*
X24492D1*
Y6059D1*
X25052Y11374D2*
X23317D1*
X23252Y11439D1*
Y12064D1*
Y12065D1*
X20507Y10626D2*
X21252D1*
X21627Y11001D1*
X23002D1*
X23317Y11316D1*
Y11374D1*
X22252Y12065D2*
Y13564D1*
X22500D1*
X23252D1*
Y12065D1*
X24338Y8189D2*
Y7751D1*
X27753D1*
Y9571D1*
X26753D1*
Y11096D1*
X27284D1*
X18549Y11100D2*
X19065D1*
Y9583D1*
X18064D1*
Y7688D1*
X21440D1*
X21161D1*
Y8189D1*
X20507Y10626D2*
Y10501D1*
X20002D1*
X19403Y11100D1*
X18549D1*
X25052Y11374D2*
X26130D1*
X26408Y11096D1*
X27284D1*
X23565Y6061D2*
X22817D1*
X22565Y6313D1*
X21440D2*
Y7688D1*
X31000Y4000D2*
X29852D1*
X29813Y4040D1*
X31000Y4000D2*
X32148D1*
X32188Y4040D1*
X30000Y9998D2*
X30998D1*
X31000Y10000D1*
X31614D1*
X30000Y9998D2*
Y10063D1*
X29688Y10375D1*
X16000Y1000D2*
X17000D1*
X5711Y4494D2*
Y3920D1*
X5699Y3908D1*
Y3349D1*
X5660Y3310D1*
Y3075D1*
X5983Y2752D1*
X6797D1*
X7428Y3383D1*
Y3679D1*
X7822D1*
X9000D1*
Y4346D1*
Y5147D1*
X8964Y5183D1*
X7822Y4031D2*
Y3679D1*
X14785Y12300D2*
D14*
X15985D1*
D13*
X16003Y12282D1*
X1635Y11835D2*
D14*
X2854D1*
Y11831D1*
X15013Y10567D2*
D15*
Y11291D1*
X16003Y12282D1*
X13956Y3357D2*
D13*
Y4061D1*
X12479D1*
X11843D1*
Y3323D1*
X12732Y5616D2*
X12722Y5626D1*
X11955D1*
X8750Y4346D2*
X9250D1*
X8750Y4846D2*
X9250D1*
X8750Y5346D2*
X9250D1*
X8750Y5846D2*
X9250D1*
X8750D2*
Y5346D1*
Y4846D1*
Y4346D1*
X9000D1*
X17750Y5654D2*
X18921D1*
X20073D1*
X20079Y5659D1*
X21230D1*
X25705Y6500D2*
Y6059D1*
Y5803D1*
X25866Y5642D1*
X26394D1*
X26827Y5209D1*
X26957D1*
X24492Y6059D2*
X25705D1*
X22500Y13500D2*
Y13564D1*
X31201Y14094D2*
X30541D1*
X37000Y14000D2*
X36938D1*
X36375Y14563D1*
X30541D1*
Y14094D1*
X32467Y8901D2*
Y7756D1*
X32437Y7727D1*
X32467Y8901D2*
Y9973D1*
X32437Y10002D1*
X34750Y8901D2*
Y8858D1*
X35167D1*
X35500Y9191D1*
Y10906D1*
X35591D1*
X32467Y8901D2*
X34750D1*
X38000Y5000D2*
X39000D1*
X38000D2*
X37500Y4500D1*
Y2687D1*
X37125Y2312D1*
X29272D1*
X29063Y2522D1*
Y3969D1*
X28843Y4189D1*
X26157D1*
X25961Y4386D1*
Y4768D1*
X5548Y5150D2*
X5504D1*
X5157Y4803D1*
Y2795D1*
X5728Y2224D1*
X11861Y2681D2*
X12532D1*
X12540Y2690D1*
X12542Y3306D2*
Y2692D1*
X11866Y7067D2*
D15*
Y8205D1*
X12102Y8441D1*
X15013Y8835D2*
X12496D1*
X12102Y8441D1*
X5445D2*
X2728D1*
X2587Y8299D1*
X5764Y7059D2*
Y8122D1*
X5445Y8441D1*
X7822Y4287D2*
D13*
X7257D1*
X7180Y4211D1*
Y3526D1*
X6991Y3337D1*
X6435D1*
X6408Y3310D1*
X10105Y4287D2*
X10675D1*
Y3618D1*
X10980Y3313D1*
X11164D1*
X11174Y3323D1*
Y2699D1*
X11192Y2681D1*
X7822Y4543D2*
X7028D1*
X6873Y4388D1*
Y3963D1*
X6838Y3927D1*
X6387D1*
X6368Y3908D1*
X10032Y2639D2*
Y3209D1*
X10105Y4031D2*
Y3282D1*
X10032Y3209D1*
X8809Y3203D2*
X9357D1*
X9363Y3209D1*
X8805Y2639D2*
X9363D1*
Y3208D1*
X32437Y7058D2*
X33187D1*
Y7102D1*
X34044D1*
X34062Y7120D1*
X34875D1*
Y7870D1*
X34750Y7995D1*
X34500Y14000D2*
X32746D1*
Y13720D1*
X32324D1*
X32106D1*
X32224Y13002D2*
Y13621D1*
X32324Y13720D1*
X36240Y13750D2*
Y13996D1*
X36220Y14016D1*
X34516D1*
X34500Y14000D1*
X27753Y6126D2*
Y5773D1*
Y5420D1*
Y5773D2*
X27141D1*
X26957Y5957D1*
X25961Y6500D2*
Y6012D1*
X26028Y5945D1*
X26945D1*
X26957Y5957D1*
X36260Y10906D2*
Y11339D1*
X34911D1*
Y12000D1*
X34500D1*
Y13000D1*
X31191Y12372D2*
X31358D1*
Y12293D1*
X32244D1*
Y12096D1*
X34500D1*
Y13000D1*
X36250Y11841D2*
X36260Y11339D1*
X32224Y12333D2*
X32244Y12293D1*
X21752Y9939D2*
Y8876D1*
X21674D1*
Y8858D1*
X21696D1*
X21161D2*
X21674D1*
X21161D2*
X20598D1*
X20042D1*
X20036Y8864D1*
X22260Y8858D2*
X21706D1*
X21674Y8876D1*
X23752Y9939D2*
Y8873D1*
X23767Y8858D1*
X23796D1*
X24338D1*
X24869D1*
X25397D1*
X25408Y8868D1*
X23252Y8858D2*
X23767D1*
X21752Y12065D2*
Y13564D1*
X21190D1*
X20458D1*
X20440Y13546D1*
X19752D1*
X25003Y13626D2*
X24333D1*
X24315Y13608D1*
X23771D1*
X23752Y13626D1*
Y12065D1*
X25690Y13608D2*
X25021D1*
X25003Y13626D1*
X31000Y5000D2*
X29379D1*
X29378Y5001D1*
Y6001D2*
X30999D1*
X31000Y6000D1*
Y7000D2*
X29379D1*
X29378Y7001D1*
Y8001D2*
X30999D1*
X31000Y8000D1*
X36000Y4000D2*
X34625D1*
X34563Y4063D1*
X34669Y3000D2*
X34625D1*
Y4000D1*
X36000Y5000D2*
X34567D1*
Y4774D1*
Y5531D2*
X36000D1*
Y6000D1*
Y7000D2*
Y8000D1*
X20000Y2000D2*
X20500Y1500D1*
X21500D1*
X22000Y2000D1*
X19000D2*
X20000Y1000D1*
X26000D2*
X27000Y2000D1*
X24000Y1000D2*
X25000Y2000D1*
Y1000D2*
X26000Y2000D1*
X13212Y3306D2*
Y2692D1*
X13210Y2690D1*
X13953D1*
X13956Y2687D1*
X36250Y12510D2*
Y13150D1*
X36240Y13159D1*
X7047Y5551D2*
Y4843D1*
X7087Y4803D1*
X7818D1*
X7822Y4799D1*
X22752Y9939D2*
Y10564D1*
X24990D1*
X25052Y10626D1*
X18622Y14094D2*
X19173D1*
X25052Y9752D2*
Y10626D1*
X20507Y11374D2*
X22752D1*
Y12065D1*
X20507Y11374D2*
Y12042D1*
X20496Y12031D1*
X19173Y13504D2*
X18622D1*
X34567Y10827D2*
X34754D1*
Y9685D1*
X34633Y9806D1*
X34750D1*
X31059Y11793D2*
X31333D1*
X31350Y11811D1*
X33632D1*
X34016Y11427D1*
X34528D1*
Y10827D1*
X34567D1*
X6388Y6261D2*
Y5688D1*
X6374Y5674D1*
X6414Y5150D2*
Y5634D1*
X6374Y5674D1*
X6380Y4494D2*
Y5115D1*
X6414Y5150D1*
X7047Y6220D2*
X6428D1*
X6388Y6261D1*
X5705Y5674D2*
Y6247D1*
X5719Y6261D1*
X10105Y5055D2*
X10636D1*
X11207Y5626D1*
D14*
X11246D1*
Y5094D1*
X11738D1*
X11919Y4913D1*
Y4596D1*
X13087D1*
Y4550D1*
X5445Y11787D2*
D15*
Y10110D1*
X11203D1*
X12122D1*
Y11768D1*
X12102Y11787D1*
X11207Y5626D2*
X11203Y6321D1*
X5719Y6261D2*
D13*
X4953D1*
X26217Y4768D2*
Y4571D1*
X27573D1*
X27753Y4750D1*
X23125Y4562D2*
X23750D1*
Y5313D1*
X23565D1*
X24492D1*
Y5311D1*
X23565Y5313D2*
X22063D1*
Y7501D1*
Y8189D1*
X21696D1*
X23565Y7438D2*
X23500Y7503D1*
Y8189D1*
X23796D1*
X22260D2*
X21696D1*
X23252D2*
X23795D1*
X23796D1*
X26217Y4768D2*
Y5295D1*
X24508D1*
X24492Y5311D1*
X25705Y4768D2*
X25689D1*
Y4323D1*
X26074Y3938D1*
X28691D1*
X28816Y3813D1*
Y2385D1*
X29138Y2063D1*
X38188D1*
X39000Y2875D1*
Y3000D1*
X38000Y4000D2*
X39000D1*
X7822Y5311D2*
Y5567D1*
Y5823D1*
Y6079D1*
Y6334D1*
Y6335D1*
X10105Y5311D2*
Y5567D1*
Y5823D1*
Y6079D1*
Y6335D1*
X6512Y7059D2*
D14*
X7264D1*
X7822Y6501D1*
Y6335D1*
X6512Y7059D2*
X10105D1*
X11110D1*
D13*
X11118Y7067D1*
X10105Y6335D2*
D14*
Y7059D1*
X6512D2*
D15*
Y8157D1*
X6795Y8441D1*
X11118Y7067D2*
Y8075D1*
X10752Y8441D1*
X18000Y1000D2*
D14*
Y2177D1*
X17764Y2413D1*
Y2807D1*
X17756Y2815D1*
X20598Y8189D2*
D13*
X20042D1*
X20036Y8195D1*
X19312D1*
Y9100D1*
Y9501D1*
X21252D1*
Y9939D1*
X18549Y9100D2*
X19312D1*
X19752Y12876D2*
X19190D1*
X20295Y9528D2*
X21252D1*
Y9939D1*
Y12065D2*
Y12832D1*
X21190Y12895D1*
X20458D1*
X20440Y12876D1*
X18549Y10100D2*
X18063D1*
Y12433D1*
X21252D1*
Y12065D1*
X24869Y8189D2*
X25397D1*
X25408Y8199D1*
X25817D1*
Y8910D1*
X25797D1*
Y9311D1*
X24252D1*
Y9939D1*
X25817Y8910D2*
X27098D1*
X27284Y9096D1*
X25690Y12939D2*
X25778D1*
Y9331D2*
X24252D1*
Y9939D1*
Y12065D2*
Y12876D1*
X24315Y12939D1*
X24984D1*
X25003Y12957D1*
X27284Y10096D2*
X27753D1*
Y12453D1*
X24252D1*
Y12065D1*
X36000Y10000D2*
X37000D1*
Y6000D2*
X36500Y5500D1*
Y3500D1*
X36000Y3000D1*
Y9000D2*
X37000D1*
D18*
X25429Y4004D3*
X30357Y11014D3*
X4232Y9409D3*
Y7299D3*
Y2547D3*
X7469Y2732D3*
X11425Y14370D3*
X28440Y7876D3*
Y6813D3*
X17520Y1575D3*
X19031Y3496D3*
X28317Y3553D3*
X16358Y13996D3*
X16382Y10362D3*
Y5154D3*
Y3760D3*
X25062Y4500D3*
X11250Y4173D3*
X22565Y6313D3*
X21440D3*
X29688Y10375D3*
X12732Y5616D3*
X12479Y4061D3*
X19173Y14094D3*
X25052Y9752D3*
X20496Y12031D3*
X19173Y13504D3*
X11203Y6321D3*
Y10110D3*
X4953Y6261D3*
X23500Y7501D3*
X22063D3*
X19190Y12876D3*
X20295Y9528D3*
X25778Y12939D3*
Y9331D3*
X8750Y5846D3*
Y5346D3*
X17000Y13000D3*
Y12500D3*
Y12000D3*
Y11500D3*
Y11000D3*
Y10500D3*
Y10000D3*
Y9500D3*
Y9000D3*
Y8500D3*
Y8000D3*
Y7500D3*
Y7000D3*
Y6500D3*
Y6000D3*
X8295Y8453D3*
X4752Y1709D3*
X5252D3*
X8750Y4846D3*
Y4346D3*
X9250Y5846D3*
Y5346D3*
Y4846D3*
Y4346D3*
X6406Y13283D3*
X6906D3*
X7406D3*
X7906D3*
X33316Y9924D3*
Y9424D3*
Y8924D3*
Y8424D3*
X33879Y9924D3*
Y9424D3*
Y8924D3*
Y8424D3*
X33316Y7924D3*
X33879D3*
X32441Y9174D3*
Y8674D3*
X8406Y13283D3*
X8906D3*
X9406D3*
X9906D3*
X8795Y8453D3*
X9295D3*
X5752Y1709D3*
X6252D3*
X6752D3*
X7252D3*
X7752D3*
X8252D3*
X8752D3*
X9252D3*
X9752D3*
X10252D3*
X10752D3*
X8295Y7953D3*
X11752Y1709D3*
X12252D3*
X12752D3*
X13252D3*
X17500Y7500D3*
Y7000D3*
X8795Y7953D3*
X9295D3*
X1406Y11118D3*
X1906D3*
X2406D3*
X2906D3*
X3406D3*
X14583Y11496D3*
X15083D3*
X15583D3*
X17500Y6500D3*
X13250Y7096D3*
Y6596D3*
Y6096D3*
Y5596D3*
X18000Y7500D3*
Y7000D3*
Y6500D3*
X18500Y7500D3*
Y7000D3*
Y6500D3*
X19000Y7500D3*
Y7000D3*
Y6500D3*
X19500Y7500D3*
Y7000D3*
Y6500D3*
X20000Y7500D3*
Y7000D3*
Y6500D3*
X20500Y7500D3*
Y7000D3*
Y6500D3*
X21000Y7500D3*
Y7000D3*
Y6500D3*
X22500Y13500D3*
Y13000D3*
X23000Y13500D3*
Y13000D3*
X28500Y14000D3*
Y13500D3*
Y13000D3*
Y12500D3*
Y12000D3*
Y11500D3*
Y11000D3*
Y10500D3*
Y10000D3*
X29000Y1500D3*
X29500D3*
X30000D3*
X30500D3*
X31000D3*
X31500D3*
X32000D3*
X32500D3*
X33000D3*
X33500D3*
X34000D3*
X34500D3*
X35000D3*
X35500D3*
X36000D3*
X36500D3*
X37000D3*
X37500D3*
X38000D3*
X38500D3*
X39000D3*
X39500D3*
X40000D3*
X1000Y11000D3*
Y10500D3*
Y10000D3*
Y9500D3*
Y9000D3*
Y8500D3*
Y8000D3*
Y7500D3*
Y7000D3*
Y6500D3*
Y6000D3*
Y5500D3*
Y5000D3*
Y4500D3*
Y4000D3*
Y3500D3*
Y3000D3*
Y2500D3*
Y2000D3*
Y1500D3*
Y1000D3*
X33328Y9967D2*
D16*
X33966D1*
X33328Y9718D2*
X33966D1*
X33328Y9469D2*
X33966D1*
X33250Y9221D2*
X33966D1*
X33250Y8972D2*
X33966D1*
X33250Y8723D2*
X33966D1*
X33250Y8475D2*
X33966D1*
X33250Y8226D2*
X33966D1*
X33250Y7977D2*
X33966D1*
X32996Y7729D2*
X33966D1*
X33992Y10196D2*
X33976Y10200D1*
X33992Y10159D1*
Y10194D1*
X33304Y10196D1*
Y9352D1*
X33225Y9350D1*
Y7926D1*
X32969D1*
Y7653D1*
X33535D1*
X33531Y7672D1*
X33995D1*
X33992Y8223D1*
X33996Y8517D1*
X33992Y8629D1*
Y10159D1*
X32437Y10002D2*
D17*
X33304D1*
X32437Y7727D2*
X32969D1*
X33992Y8901D2*
X34750D1*
X32467D2*
X33224D1*
X680Y14051D2*
D14*
X4551D1*
X21778D2*
X23682D1*
X26281D2*
X28649D1*
X38727D2*
X40320D1*
X680Y13753D2*
X4251D1*
X5890D2*
X6954D1*
X9028D2*
X9337D1*
X10024D2*
X10206D1*
X22163D2*
X23313D1*
X26281D2*
X28665D1*
X38879D2*
X40320D1*
X5591Y13454D2*
X10206D1*
X22208D2*
X23297D1*
X26281D2*
X28841D1*
X5296Y13155D2*
X10206D1*
X22208D2*
X23297D1*
X26326D2*
X28673D1*
X7609Y12857D2*
X9936D1*
X12915D2*
X13860D1*
X16926D2*
X17978D1*
X22208D2*
X23297D1*
X27921D2*
X28645D1*
X7609Y12558D2*
X9936D1*
X12915D2*
X13860D1*
X16926D2*
X17625D1*
X28196D2*
X28640D1*
X7609Y12259D2*
X9936D1*
X12915D2*
X13860D1*
X16926D2*
X17605D1*
X28208D2*
X28640D1*
X7609Y11960D2*
X9936D1*
X12915D2*
X13860D1*
X16926D2*
X17605D1*
X18522D2*
X19819D1*
X25739D2*
X27295D1*
X28208D2*
X28640D1*
X7609Y11662D2*
X9936D1*
X12915D2*
X13860D1*
X16926D2*
X17605D1*
X18989D2*
X19819D1*
X25739D2*
X26848D1*
X28208D2*
X28640D1*
X7609Y11363D2*
X9936D1*
X12915D2*
X14147D1*
X15876D2*
X17605D1*
X19223D2*
X19819D1*
X25739D2*
X26610D1*
X28208D2*
X28640D1*
X680Y11064D2*
X3661D1*
X7609D2*
X9936D1*
X12915D2*
X14147D1*
X15876D2*
X17605D1*
X19276D2*
X19819D1*
X23078D2*
X24367D1*
X25739D2*
X26557D1*
X28208D2*
X29112D1*
X680Y10766D2*
X1721D1*
X3450D2*
X3661D1*
X7609D2*
X9936D1*
X12915D2*
X14147D1*
X16803D2*
X17605D1*
X19190D2*
X19819D1*
X21195D2*
X22345D1*
X25739D2*
X26639D1*
X28208D2*
X28813D1*
X680Y10467D2*
X1721D1*
X12710D2*
X14147D1*
X16963D2*
X17605D1*
X19170D2*
X19819D1*
X25739D2*
X26664D1*
X28208D2*
X28669D1*
X680Y10168D2*
X1721D1*
X12710D2*
X14147D1*
X16939D2*
X17605D1*
X19272D2*
X19819D1*
X25739D2*
X26561D1*
X28208D2*
X28669D1*
X680Y9870D2*
X1721D1*
X12657D2*
X14147D1*
X16840D2*
X17674D1*
X25965D2*
X26594D1*
X28147D2*
X28669D1*
X680Y9571D2*
X1721D1*
X3450D2*
X3665D1*
X12915D2*
X14147D1*
X16840D2*
X17822D1*
X26314D2*
X26557D1*
X680Y9272D2*
X1721D1*
X3450D2*
X3657D1*
X7609D2*
X9936D1*
X16840D2*
X17822D1*
X680Y8974D2*
X1721D1*
X7609D2*
X9936D1*
X16840D2*
X17822D1*
X680Y8675D2*
X1721D1*
X7609D2*
X9936D1*
X16840D2*
X17822D1*
X680Y8376D2*
X1721D1*
X7609D2*
X9936D1*
X16840D2*
X18855D1*
X26273D2*
X27984D1*
X680Y8078D2*
X1721D1*
X7609D2*
X9936D1*
X12915D2*
X14147D1*
X16840D2*
X18872D1*
X26256D2*
X27886D1*
X38723D2*
X40320D1*
X680Y7779D2*
X1721D1*
X3450D2*
X3911D1*
X7609D2*
X9936D1*
X12915D2*
X15923D1*
X16840D2*
X19188D1*
X25998D2*
X27857D1*
X39851D2*
X40320D1*
X680Y7480D2*
X1721D1*
X3450D2*
X3669D1*
X12915D2*
X15923D1*
X16840D2*
X21472D1*
X26207D2*
X28013D1*
X680Y7181D2*
X3653D1*
X12514D2*
X15923D1*
X16840D2*
X21570D1*
X26519D2*
X27164D1*
X680Y6883D2*
X3776D1*
X12514D2*
X15923D1*
X16840D2*
X21607D1*
X26687D2*
X27164D1*
X680Y6584D2*
X3776D1*
X12514D2*
X15923D1*
X16840D2*
X21607D1*
X26687D2*
X27164D1*
X34651D2*
X35411D1*
X680Y6285D2*
X3776D1*
X11792D2*
X15923D1*
X34651D2*
X35333D1*
X680Y5987D2*
X3776D1*
X12604D2*
X15923D1*
X680Y5688D2*
X3776D1*
X4689D2*
X5096D1*
X12604D2*
X15923D1*
X680Y5389D2*
X3776D1*
X4689D2*
X5039D1*
X12604D2*
X15841D1*
X31608D2*
X33291D1*
X680Y5091D2*
X3776D1*
X14363D2*
X15792D1*
X31719D2*
X33291D1*
X680Y4792D2*
X3776D1*
X31694D2*
X33291D1*
X680Y4493D2*
X3776D1*
X33109D2*
X33286D1*
X680Y4195D2*
X3776D1*
X33109D2*
X33286D1*
X680Y3896D2*
X3776D1*
X11767D2*
X13368D1*
X14544D2*
X15808D1*
X33109D2*
X33286D1*
X680Y3597D2*
X3776D1*
X14544D2*
X15812D1*
X33109D2*
X33286D1*
X680Y3299D2*
X3776D1*
X14544D2*
X15944D1*
X33109D2*
X33394D1*
X680Y3000D2*
X3776D1*
X14544D2*
X15944D1*
X18345D2*
X18736D1*
X19325D2*
X28189D1*
X33109D2*
X33394D1*
X680Y2701D2*
X3661D1*
X14544D2*
X15944D1*
X18345D2*
X28357D1*
X680Y2402D2*
X3661D1*
X680Y2104D2*
X3858D1*
X4607D2*
X5121D1*
X38863D2*
X40320D1*
X680Y1805D2*
X5121D1*
X8244D2*
X15197D1*
X38563D2*
X40320D1*
X680Y1506D2*
X12273D1*
X28520D2*
X40320D1*
X680Y1208D2*
X12273D1*
X27696D2*
X40320D1*
X680Y909D2*
X12273D1*
X27720D2*
X40320D1*
X16883Y6330D2*
X19185D1*
X19211Y6336D1*
X21635D1*
X21636Y7138D1*
X21590Y7196D1*
X21533Y7314D1*
X21504Y7441D1*
X21505Y7572D1*
X21510Y7610D1*
X20039Y7614D1*
X19477Y7616D1*
Y7768D1*
X19312D1*
X19183Y7788D1*
X19066Y7846D1*
X18972Y7937D1*
X18910Y8052D1*
X18886Y8195D1*
Y8404D1*
X17852Y8403D1*
Y9728D1*
X17732Y9830D1*
X17666Y9943D1*
X17636Y10100D1*
Y12433D1*
X17656Y12562D1*
X17714Y12679D1*
X17805Y12773D1*
X17920Y12835D1*
X18063Y12860D1*
X18625D1*
X18544Y12945D1*
X18044Y12949D1*
X17613Y12945D1*
X17374D1*
Y13080D1*
X16899Y13077D1*
X16897Y12707D1*
Y11605D1*
X15110D1*
Y11624D1*
X13892Y11623D1*
Y12954D1*
X12886Y12953D1*
X12888Y10540D1*
X12678D1*
X12681Y10110D1*
X12666Y9980D1*
X12620Y9857D1*
X12498Y9689D1*
X12888D1*
X12890Y9394D1*
X14182D1*
X14178Y9669D1*
X15847D1*
Y8001D1*
X14178D1*
Y8275D1*
X12884Y8276D1*
X12888Y7720D1*
Y7193D1*
X12482D1*
X12484Y6410D1*
X11758D1*
X11762Y6292D1*
X11770Y6283D1*
X11825Y6279D1*
X11914Y6283D1*
X12573D1*
Y5108D1*
X13666Y5105D1*
X14097Y5109D1*
X14335D1*
Y5064D1*
X15828Y5062D1*
X15824Y5225D1*
X15856Y5352D1*
X15916Y5468D1*
X15956Y5515D1*
X15955Y9997D1*
X15910Y10058D1*
X15847Y10195D1*
Y9733D1*
X14178D1*
Y11402D1*
X15847D1*
Y10535D1*
X15916Y10677D1*
X16002Y10776D1*
X16108Y10853D1*
X16229Y10903D1*
X16358Y10924D1*
X16489Y10914D1*
X16614Y10874D1*
X16726Y10807D1*
X16819Y10715D1*
X16889Y10604D1*
X16931Y10480D1*
X16944Y10362D1*
X16929Y10232D1*
X16884Y10109D1*
X16809Y9997D1*
Y5519D1*
X16856Y5448D1*
X16857Y6330D1*
X16883D1*
X11729Y3882D2*
X11753Y3878D1*
X11842Y3882D1*
X12422D1*
Y3864D1*
X13121Y3861D1*
X13400Y3865D1*
X13397Y3935D1*
X14515D1*
Y2663D1*
X15948D1*
X15975Y2778D1*
Y3373D1*
X15910Y3455D1*
X15852Y3573D1*
X15823Y3700D1*
X15824Y3831D1*
X15856Y3958D1*
X15896Y4035D1*
X14760Y4038D1*
X14337D1*
X14335Y3991D1*
X13178Y3995D1*
X12747Y3991D1*
X12509D1*
Y4085D1*
X12498Y4038D1*
X11792D1*
X11752Y3920D1*
X11727Y3883D1*
X11763Y3882D1*
X26656Y6575D2*
X27198D1*
X27194Y6704D1*
Y7373D1*
X28191D1*
X28052Y7470D1*
X27968Y7571D1*
X27911Y7689D1*
X27882Y7816D1*
X27883Y7947D1*
X27915Y8074D1*
X27975Y8191D1*
X28015Y8237D1*
X28014Y9250D1*
X28034Y9379D1*
X28092Y9496D1*
X28183Y9590D1*
X28298Y9652D1*
X28440Y9677D1*
X28699D1*
X28698Y10444D1*
X28718Y10573D1*
X28779Y10693D1*
X28916Y10839D1*
X29325Y11247D1*
X28670Y11248D1*
Y12642D1*
X28739D1*
X28704Y12728D1*
X28675Y12856D1*
X28671Y12987D1*
X28691Y13117D1*
X28735Y13240D1*
X28802Y13353D1*
X28880Y13442D1*
X28756Y13608D1*
X28704Y13728D1*
X28675Y13856D1*
X28671Y13987D1*
X28691Y14117D1*
X28735Y14240D1*
X28800Y14350D1*
X19671D1*
X19723Y14213D1*
X19732Y14128D1*
X20311Y14124D1*
X20631D1*
Y14142D1*
X21749D1*
X21752Y13991D1*
X21881Y13971D1*
X21999Y13913D1*
X22093Y13822D1*
X22155Y13707D1*
X22179Y13564D1*
Y12822D1*
X22232Y12816D1*
X22350Y12820D1*
X23326D1*
Y13626D1*
X23346Y13756D1*
X23404Y13873D1*
X23495Y13967D1*
X23610Y14029D1*
X23742Y14053D1*
X23756Y14079D1*
Y14187D1*
X24441D1*
X24444Y14205D1*
X25561D1*
Y14184D1*
X26249Y14187D1*
Y13243D1*
X26285Y13181D1*
X26327Y13057D1*
X26340Y12939D1*
X26332Y12878D1*
X27753Y12880D1*
X27882Y12860D1*
X27999Y12802D1*
X28093Y12711D1*
X28155Y12596D1*
X28180Y12453D1*
Y10096D1*
X28160Y9967D1*
X28102Y9850D1*
X28019Y9763D1*
X27980Y9661D1*
Y8399D1*
X26587D1*
Y8485D1*
X26241Y8483D1*
X26244Y8199D1*
X26224Y8070D1*
X26166Y7953D1*
X26086Y7868D1*
X25969Y7801D1*
X25967Y7620D1*
X25429D1*
X25428Y7610D1*
X24310Y7614D1*
X24293Y7610D1*
X24055D1*
X24096Y7553D1*
X25941D1*
X26070Y7533D1*
X26190Y7472D1*
X26336Y7335D1*
X26521Y7149D1*
X26563Y7138D1*
X26657D1*
Y6576D1*
X2531Y13610D2*
X3748D1*
Y13491D1*
X4023Y13492D1*
X4880Y14352D1*
X650Y14350D1*
Y651D1*
X12307Y650D1*
X12303Y1222D1*
Y1697D1*
X13697D1*
Y1627D1*
X13868Y1684D1*
X13998Y1697D1*
X14128Y1685D1*
X14254Y1649D1*
X14371Y1589D1*
X14500Y1482D1*
X14625Y1587D1*
X14742Y1647D1*
X14868Y1684D1*
X14998Y1697D1*
X15108Y1687D1*
X15231Y1809D1*
X8237D1*
X8136Y1797D1*
X6975D1*
X6976Y1666D1*
X5819Y1670D1*
X5388Y1666D1*
X5150D1*
X5148Y2201D1*
X4824Y2529D1*
X4794Y2547D1*
X4779Y2417D1*
X4734Y2294D1*
X4662Y2185D1*
X4566Y2095D1*
X4453Y2030D1*
X4327Y1993D1*
X4196Y1986D1*
X4068Y2010D1*
X3948Y2063D1*
X3843Y2142D1*
X3760Y2243D1*
X3702Y2360D1*
X3673Y2488D1*
X3675Y2619D1*
X3707Y2746D1*
X3767Y2862D1*
X3807Y2909D1*
X3805Y6931D1*
X3760Y6995D1*
X3702Y7112D1*
X3673Y7240D1*
X3675Y7371D1*
X3707Y7498D1*
X3767Y7614D1*
X3852Y7713D1*
X3958Y7790D1*
X4079Y7840D1*
X4209Y7861D1*
X4339Y7851D1*
X4464Y7811D1*
X4576Y7744D1*
X4661Y7661D1*
X4657Y7882D1*
X3423D1*
X3421Y7465D1*
X1752D1*
Y9134D1*
X3421D1*
Y8998D1*
X3843Y9004D1*
X3760Y9105D1*
X3702Y9222D1*
X3673Y9350D1*
X3675Y9481D1*
X3704Y9596D1*
X3424Y9595D1*
X3421Y9197D1*
X1752D1*
Y10866D1*
X3421D1*
Y10714D1*
X3689Y10712D1*
Y11150D1*
X3512Y11154D1*
X741Y11158D1*
Y13614D1*
X2528Y13610D1*
X21164Y10948D2*
X21166Y10694D1*
X21732Y10690D1*
X22166Y10694D1*
X22232Y10690D1*
X22395Y10798D1*
X22498Y10906D1*
X22490Y10947D1*
X21164Y10942D1*
X21160Y10756D1*
X21272Y10694D1*
X22232D1*
X20004Y10008D2*
X19850D1*
Y11992D1*
X19936D1*
X19809Y12006D1*
X18492D1*
X18494Y11794D1*
X18625Y11792D1*
X18754Y11766D1*
X18875Y11716D1*
X18984Y11644D1*
X19078Y11552D1*
X19154Y11445D1*
X19208Y11326D1*
X19238Y11198D1*
X19245Y11074D1*
X19228Y10944D1*
X19186Y10819D1*
X19123Y10705D1*
X19033Y10599D1*
X19111Y10511D1*
X19178Y10399D1*
X19223Y10276D1*
X19245Y10100D1*
X19233Y9969D1*
X19218Y9918D1*
X19312Y9928D1*
X19899D1*
X20005Y10006D1*
X25710Y11244D2*
Y10008D1*
X25550D1*
X25602Y9866D1*
X25754Y9892D1*
X25884Y9882D1*
X26009Y9843D1*
X26121Y9775D1*
X26215Y9684D1*
X26285Y9573D1*
X26327Y9449D1*
X26342Y9337D1*
X26584D1*
X26587Y9793D1*
X26657D1*
X26622Y9880D1*
X26593Y10007D1*
X26588Y10138D1*
X26609Y10268D1*
X26653Y10391D1*
X26719Y10504D1*
X26797Y10593D1*
X26701Y10714D1*
X26640Y10830D1*
X26601Y10956D1*
X26587Y11086D1*
X26598Y11217D1*
X26632Y11343D1*
X26690Y11461D1*
X26769Y11565D1*
X26866Y11653D1*
X26978Y11722D1*
X27100Y11768D1*
X27229Y11791D1*
X27327D1*
X27326Y12028D1*
X24730Y12026D1*
X24736Y11992D1*
X25710D1*
X25709Y10756D1*
X24395Y10988D2*
X24399Y11244D1*
X24395Y11308D1*
X23772Y11313D1*
X23522Y11309D1*
X23174D1*
X23163Y11259D1*
X23109Y11140D1*
X23007Y11032D1*
X23015Y10991D1*
X24395Y10992D1*
Y11255D1*
X24232Y11309D1*
X23272Y11313D1*
X23171Y11309D1*
X23159Y11245D1*
X23101Y11128D1*
X23010Y11034D1*
X33078Y3614D2*
X33081Y2741D1*
X33418Y2739D1*
X33421Y2966D1*
Y3503D1*
X33315Y3504D1*
X33319Y5332D1*
X33317Y5508D1*
X33285Y5540D1*
X31551Y5538D1*
X31508Y5523D1*
X31480Y5499D1*
X31562Y5411D1*
X31629Y5299D1*
X31674Y5176D1*
X31697Y5000D1*
X31684Y4870D1*
X31635Y4718D1*
X33081Y4717D1*
X33080Y3363D1*
X5068Y5313D2*
Y5630D1*
X5130D1*
X5126Y5726D1*
X5048Y5707D1*
X4917Y5700D1*
X4788Y5723D1*
X4658Y5783D1*
X4659Y2915D1*
X4729Y2807D1*
X4731Y4803D1*
X4751Y4932D1*
X4812Y5052D1*
X4948Y5198D1*
X5067Y5317D1*
X38697Y14348D2*
Y13881D1*
X38802Y13802D1*
X38915Y13689D1*
X38998Y13697D1*
X39128Y13685D1*
X39254Y13649D1*
X39371Y13589D1*
X39500Y13482D1*
X39561Y13541D1*
X39670Y13614D1*
X39791Y13665D1*
X39919Y13692D1*
X40050Y13695D1*
X40180Y13673D1*
X40303Y13628D1*
X40350Y13603D1*
Y14349D1*
X38700Y14350D1*
X38483Y8500D2*
X38562Y8411D1*
X38629Y8299D1*
X38674Y8176D1*
X38697Y8000D1*
X38690Y7931D1*
X39500Y7927D1*
X39629Y7907D1*
X39746Y7849D1*
X39833Y7766D1*
X39893Y7688D1*
X40024Y7696D1*
X40154Y7679D1*
X40279Y7638D1*
X40350Y7603D1*
Y8304D1*
X39303Y8303D1*
Y8373D1*
X39174Y8325D1*
X39044Y8305D1*
X38913Y8309D1*
X38785Y8337D1*
X38665Y8389D1*
X38557Y8463D1*
X38502Y8518D1*
X28690Y1908D2*
X28657Y1768D1*
X28602Y1649D1*
X28526Y1543D1*
X28431Y1452D1*
X28321Y1381D1*
X28199Y1332D1*
X28071Y1307D1*
X27940Y1306D1*
X27811Y1330D1*
X27688Y1377D1*
X27577Y1446D1*
X27499Y1515D1*
X27629Y1299D1*
X27674Y1176D1*
X27697Y1000D1*
X27684Y870D1*
X27648Y744D1*
X27601Y652D1*
X29371Y650D1*
X40350D1*
Y2300D1*
X39384Y2303D1*
X39303D1*
Y2373D1*
X39174Y2325D1*
X39032Y2305D1*
X38489Y1761D1*
X38384Y1683D1*
X38256Y1642D1*
X38056Y1636D1*
X29138D1*
X29009Y1656D1*
X28889Y1717D1*
X28744Y1853D1*
X28688Y1908D1*
X8378Y13746D2*
Y13677D1*
X6984D1*
Y13813D1*
X5922Y13815D1*
X5146Y13036D1*
X6230Y13035D1*
X7580D1*
Y10669D1*
X9967Y10671D1*
Y13035D1*
X10233D1*
X10236Y13819D1*
X10091Y13811D1*
X9978Y13744D1*
X9855Y13699D1*
X9725Y13679D1*
X9595Y13683D1*
X9467Y13711D1*
X9346Y13763D1*
X9238Y13837D1*
X9183Y13892D1*
X9091Y13811D1*
X8978Y13744D1*
X8855Y13699D1*
X8725Y13679D1*
X8595Y13683D1*
X8467Y13711D1*
X8378Y13747D1*
X35308Y5956D2*
X35305Y6042D1*
X35325Y6172D1*
X35369Y6295D1*
X35435Y6408D1*
X35514Y6497D1*
X35390Y6663D1*
X35338Y6784D1*
X35309Y6911D1*
X35305Y7042D1*
X35325Y7172D1*
X35354Y7253D1*
X35302Y7214D1*
Y7120D1*
X35282Y6991D1*
X35224Y6874D1*
X35133Y6780D1*
X35018Y6718D1*
X34875Y6693D1*
X34621Y6688D1*
Y6090D1*
X35145D1*
Y5955D1*
X35301Y5958D1*
X18313Y3393D2*
X18316Y2697D1*
X19697D1*
Y2627D1*
X19868Y2684D1*
X19998Y2697D1*
X20128Y2685D1*
X20254Y2649D1*
X20371Y2589D1*
X20500Y2482D1*
X20625Y2587D1*
X20742Y2647D1*
X20868Y2684D1*
X20998Y2697D1*
X21128Y2685D1*
X21254Y2649D1*
X21371Y2589D1*
X21500Y2482D1*
X21625Y2587D1*
X21742Y2647D1*
X21868Y2684D1*
X21998Y2697D1*
X22128Y2685D1*
X22254Y2649D1*
X22371Y2589D1*
X22500Y2482D1*
X22561Y2541D1*
X22670Y2614D1*
X22791Y2665D1*
X22919Y2692D1*
X23050Y2695D1*
X23180Y2673D1*
X23303Y2628D1*
X23415Y2560D1*
X23500Y2485D1*
X23625Y2587D1*
X23742Y2647D1*
X23868Y2684D1*
X23998Y2697D1*
X24128Y2685D1*
X24254Y2649D1*
X24371Y2589D1*
X24500Y2482D1*
X24625Y2587D1*
X24742Y2647D1*
X24868Y2684D1*
X24998Y2697D1*
X25128Y2685D1*
X25254Y2649D1*
X25371Y2589D1*
X25500Y2482D1*
X25625Y2587D1*
X25742Y2647D1*
X25868Y2684D1*
X25998Y2697D1*
X26128Y2685D1*
X26254Y2649D1*
X26371Y2589D1*
X26500Y2482D1*
X26625Y2587D1*
X26742Y2647D1*
X26868Y2684D1*
X26998Y2697D1*
X27128Y2685D1*
X27254Y2649D1*
X27371Y2589D1*
X27500Y2482D1*
X27561Y2541D1*
X27670Y2614D1*
X27791Y2665D1*
X27919Y2692D1*
X28050Y2695D1*
X28180Y2673D1*
X28303Y2628D1*
X28389Y2578D1*
Y2996D1*
X28281Y2992D1*
X28152Y3016D1*
X28032Y3068D1*
X27957Y3125D1*
X20226Y3126D1*
X20111Y3081D1*
X20012Y3069D1*
X19401D1*
X19252Y2979D1*
X19126Y2942D1*
X18996Y2935D1*
X18867Y2959D1*
X18747Y3011D1*
X18643Y3090D1*
X18559Y3191D1*
X18502Y3309D1*
X18473Y3437D1*
Y3490D1*
X18318Y3492D1*
X18315Y2906D1*
Y2700D1*
X7580Y9553D2*
Y7569D1*
X9924Y7571D1*
X9969D1*
X9967Y9030D1*
Y9551D1*
X7582D1*
X17750Y6330D2*
Y5654D1*
X16857D2*
X17750D1*
X18921Y6330D2*
Y5654D1*
X20079Y6336D2*
Y5659D1*
X21230Y6336D2*
Y5659D1*
X11843Y3881D2*
Y3323D1*
X11955Y6283D2*
Y5626D1*
X12572D1*
X14785Y12300D2*
Y11623D1*
X13892Y12300D2*
X14785D1*
X16003Y12282D2*
Y11605D1*
Y12282D2*
X16896D1*
X2854Y11831D2*
Y11154D1*
X1635Y11835D2*
Y11158D1*
X742Y11835D2*
X1635D1*
X19850Y10626D2*
X21164D1*
X25052Y11991D2*
Y11374D1*
X24396D2*
X25709D1*
X32188Y4716D2*
Y4040D1*
X33080D1*
X15013Y11401D2*
Y9733D1*
X14179Y10567D2*
X15847D1*
X23000Y2696D2*
Y2000D1*
X28000Y2696D2*
Y1304D1*
Y2000D2*
X28696D1*
X40000Y7696D2*
Y7000D1*
Y13696D2*
Y13000D1*
X8681Y14374D2*
Y13678D1*
X18549Y11796D2*
Y11100D1*
X19245D1*
X27284Y11792D2*
Y11096D1*
X26588D2*
X27284D1*
X29366Y11945D2*
Y11249D1*
X28670Y11945D2*
X29366D1*
X13956Y3935D2*
Y3357D1*
X14514D1*
X21161Y8189D2*
Y7611D1*
X24338Y8189D2*
Y7611D1*
X34062Y6451D2*
X34621D1*
X33422Y3000D2*
X34000D1*
X6795Y13035D2*
Y11787D1*
X7580D1*
X23252Y12820D2*
Y11309D1*
X22252Y12820D2*
Y12065D1*
D19*
X9363Y2639D3*
X10032D3*
D20*
X17750Y4551D3*
Y5654D3*
X18921Y4551D3*
Y5654D3*
X20079Y4557D3*
Y5659D3*
X21230Y4557D3*
Y5659D3*
D19*
X11192Y2681D3*
X11861D3*
D21*
X6408Y3310D3*
X5660D3*
D19*
X11174Y3323D3*
X11843D3*
D21*
X11207Y5626D3*
X11955D3*
D22*
X26957Y5957D3*
Y5209D3*
X24492Y5311D3*
Y6059D3*
D20*
X14785Y12300D3*
Y13402D3*
X16003Y12282D3*
Y13384D3*
D21*
X5764Y7059D3*
X6512D3*
X11118Y7067D3*
X11866D3*
D23*
X20598Y8189D3*
Y8858D3*
X20440Y12876D3*
Y13546D3*
D20*
X2854Y12933D3*
Y11831D3*
X1635Y12937D3*
Y11835D3*
D23*
X24869Y8189D3*
Y8858D3*
X25003Y12957D3*
Y13626D3*
D21*
X34567Y10827D3*
X33819D3*
D20*
X32437Y10002D3*
Y11104D3*
D23*
X33187Y7102D3*
Y6433D3*
D22*
X20507Y10626D3*
Y11374D3*
X25052Y10626D3*
Y11374D3*
D20*
X29813Y2938D3*
Y4040D3*
X32188Y2938D3*
Y4040D3*
D22*
X30000Y9250D3*
Y9998D3*
D25*
X2587Y10031D3*
Y8299D3*
X15013Y10567D3*
Y8835D3*
D27*
X6414Y5150D3*
X5548D3*
D28*
X36240Y13750D3*
Y13159D3*
D29*
X38000Y14000D3*
D30*
X37000D3*
X38000Y13000D3*
X37000D3*
X38000Y12000D3*
X37000D3*
X38000Y11000D3*
X37000D3*
X38000Y10000D3*
X37000D3*
X38000Y9000D3*
X37000D3*
X38000Y8000D3*
X37000D3*
X38000Y7000D3*
X37000D3*
X38000Y6000D3*
X37000D3*
X38000Y5000D3*
X37000D3*
X38000Y4000D3*
X37000D3*
X38000Y3000D3*
X37000D3*
D29*
X19000Y2000D3*
D30*
X20000D3*
X21000D3*
X22000D3*
X23000D3*
X24000D3*
X25000D3*
X26000D3*
X27000D3*
X28000D3*
D29*
X40000Y3000D3*
D30*
X39000D3*
X40000Y4000D3*
X39000D3*
X40000Y5000D3*
X39000D3*
X40000Y6000D3*
X39000D3*
X40000Y7000D3*
X39000D3*
D29*
X40000Y9000D3*
D30*
X39000D3*
X40000Y10000D3*
X39000D3*
X40000Y11000D3*
X39000D3*
X40000Y12000D3*
X39000D3*
X40000Y13000D3*
X39000D3*
D29*
X7681Y14374D3*
D30*
X8681D3*
X9681D3*
D29*
X18549Y9100D3*
D30*
Y10100D3*
Y11100D3*
D29*
X27284Y9096D3*
D30*
Y10096D3*
Y11096D3*
D29*
X34500Y13000D3*
D30*
Y14000D3*
D29*
X29366Y11945D3*
D30*
Y12945D3*
Y13945D3*
D29*
X29378Y5001D3*
D30*
Y6001D3*
Y7001D3*
Y8001D3*
D29*
X36000Y3000D3*
D30*
Y4000D3*
Y5000D3*
Y6000D3*
Y7000D3*
Y8000D3*
Y9000D3*
Y10000D3*
D29*
X31000Y3000D3*
D30*
Y4000D3*
Y5000D3*
Y6000D3*
Y7000D3*
Y8000D3*
Y9000D3*
Y10000D3*
D29*
X13000Y1000D3*
D30*
X14000D3*
X15000D3*
X16000D3*
X17000D3*
X18000D3*
X19000D3*
X20000D3*
X21000D3*
X22000D3*
X23000D3*
X24000D3*
X25000D3*
X26000D3*
X27000D3*
D32*
X31201Y14094D3*
Y13346D3*
X32106Y13720D3*
D19*
X8809Y3203D3*
X8140D3*
X8805Y2639D3*
X8136D3*
X10032Y3209D3*
X9363D3*
D23*
X13956Y3357D3*
Y2687D3*
D19*
X13212Y3306D3*
X12542D3*
X13210Y2690D3*
X12540D3*
X5699Y3908D3*
X6368D3*
X11250Y4596D3*
X11919D3*
X5711Y4494D3*
X6380D3*
X13757Y4550D3*
X13087D3*
X5705Y5674D3*
X6374D3*
X5719Y6261D3*
X6388D3*
X23750Y4562D3*
X24419D3*
X23125D3*
X22456D3*
D23*
X27753Y6126D3*
Y6795D3*
Y4750D3*
Y5420D3*
X21161Y8189D3*
Y8858D3*
X22260Y8189D3*
Y8858D3*
X20036Y8864D3*
Y8195D3*
X21190Y13564D3*
Y12895D3*
X21696Y8189D3*
Y8858D3*
X19752Y12876D3*
Y13546D3*
X24338Y8189D3*
Y8858D3*
X23252Y8189D3*
Y8858D3*
X25408Y8868D3*
Y8199D3*
X24315Y13608D3*
Y12939D3*
X23796Y8189D3*
Y8858D3*
X25690Y12939D3*
Y13608D3*
X31059Y11124D3*
Y11793D3*
D19*
X30522Y12372D3*
X31191D3*
X35591Y10906D3*
X36260D3*
D23*
X34062Y6451D3*
Y7120D3*
X32437Y7058D3*
Y7727D3*
X30541Y14094D3*
Y13425D3*
D19*
X18622Y13504D3*
X17953D3*
Y14094D3*
X18622D3*
X34000Y3000D3*
X34669D3*
X34563Y4063D3*
X33893D3*
D23*
X17756Y2815D3*
Y3484D3*
D19*
X34567Y4774D3*
X33898D3*
X34567Y5531D3*
X33898D3*
D23*
X32224Y12333D3*
Y13002D3*
X36250Y11841D3*
Y12510D3*
X7047Y6220D3*
Y5551D3*
D19*
X6398Y2224D3*
X5728D3*
D34*
X5445Y8441D3*
X6795D3*
Y11787D3*
X5445D3*
X10752Y8441D3*
X12102D3*
Y11787D3*
X10752D3*
D35*
X10105Y4031D3*
Y4287D3*
Y4543D3*
Y4799D3*
Y5055D3*
Y5311D3*
Y5567D3*
Y5823D3*
Y6079D3*
Y6335D3*
X7822D3*
Y6079D3*
Y5823D3*
Y5567D3*
Y5311D3*
Y5055D3*
Y4799D3*
Y4543D3*
Y4287D3*
Y4031D3*
D36*
X8964Y5183D3*
D37*
X34750Y7995D3*
Y8901D3*
Y9806D3*
D38*
X32467Y8901D3*
D39*
X25449Y4768D3*
X25705D3*
X25961D3*
X26217D3*
Y6500D3*
X25961D3*
X25705D3*
X25449D3*
D32*
X23565Y5313D3*
Y6061D3*
X22659Y5687D3*
D40*
X21252Y9939D3*
X21752D3*
X22252D3*
X22752D3*
X23252D3*
X23752D3*
X24252D3*
Y12065D3*
X23752D3*
X23252D3*
X22752D3*
X22252D3*
X21752D3*
X21252D3*
X75688Y2938D2*
D13*
X74562D1*
X74500Y3000D1*
X73375D1*
X73313Y2938D1*
X67919Y4562D2*
Y4004D1*
D14*
X64720D1*
X63579D1*
X62421D1*
X61312D1*
X61256D1*
X60512D1*
X59966Y4550D1*
X57257D1*
X68929Y4004D2*
X67919D1*
X61250Y4551D2*
D13*
X62421D1*
X63573D1*
X63579Y4557D1*
X64730D1*
X74559Y11124D2*
X73967D1*
X73857Y11014D1*
X63579Y4557D2*
D14*
Y4004D1*
X62421Y4551D2*
Y4004D1*
X61250Y4551D2*
Y4066D1*
X61312Y4004D1*
X64730Y4557D2*
D13*
X65950D1*
X65956Y4562D1*
X64730Y4557D2*
D14*
X64720D1*
Y4004D1*
X61256Y3484D2*
Y4004D1*
X45135Y12937D2*
X46354D1*
Y12933D1*
D15*
X47748D1*
Y10154D1*
X46209D1*
X46087Y10031D1*
X51181Y14374D2*
X49193D1*
X47752Y12933D1*
X47748Y10154D2*
D13*
Y9394D1*
X47732Y9409D1*
Y7299D2*
Y2547D1*
X50969Y2732D2*
Y2858D1*
X51295Y3185D1*
X51622D1*
X51640Y3203D1*
X61453Y14094D2*
X61319D1*
X61043Y14370D1*
X54925D1*
X73500Y9250D2*
X72625D1*
Y10444D1*
X74022Y11841D1*
Y12372D1*
X72625Y9250D2*
X71940D1*
Y7876D1*
Y6813D2*
X71271D1*
X71253Y6795D1*
X73500Y9250D2*
X74250D1*
X74500Y9000D1*
X77398Y5531D2*
Y4774D1*
X77393Y4063D2*
Y4774D1*
X77398D1*
X74500Y9000D2*
X75000Y8500D1*
Y6020D1*
X75055Y5965D1*
X76965D1*
X77398Y5531D1*
X58500Y1000D2*
X58526D1*
X59100Y1575D1*
X61020D1*
X62531Y3496D2*
X63512D1*
Y3553D1*
X71817D1*
X58285Y13402D2*
D14*
X59485D1*
D13*
X59503Y13384D1*
X53181Y14374D2*
D15*
X54295D1*
Y13512D1*
Y11831D1*
X54252Y11787D1*
X58285Y13402D2*
Y13512D1*
X54295D1*
X61453Y13504D2*
D13*
X59623D1*
X59503Y13384D1*
Y13641D1*
X59858Y13996D1*
X59882Y10362D2*
Y5154D1*
Y3760D2*
X59902D1*
Y2516D1*
X59622Y2236D1*
X51636D1*
Y2639D1*
X49898Y2224D2*
X51636D1*
X80500Y13000D2*
X81000Y13500D1*
X82000D1*
X82500Y13000D1*
X81500D2*
X82500Y12000D1*
X81500D2*
X82500Y11000D1*
X81500D2*
X82500Y10000D1*
X81500D2*
X82500Y9000D1*
X80500Y8000D2*
X81000Y7500D1*
X83000D1*
Y6500D1*
X83500Y6000D1*
Y5000D2*
X83000Y5500D1*
X81120D1*
X81000Y5620D1*
Y6500D1*
X80500Y7000D1*
X81500D2*
X82500Y6000D1*
X68949Y4768D2*
X68898D1*
X68692Y4562D1*
X68625D1*
X68562Y4500D1*
X65752Y9939D2*
Y9638D1*
X66127Y9262D1*
Y7278D1*
X66530Y6876D1*
X68876D1*
X68949Y6803D1*
Y6500D1*
X69717D2*
Y6850D1*
X69441Y7126D1*
X66677D1*
X66377Y7426D1*
Y9251D1*
X66752Y9626D1*
Y9938D1*
Y9939D1*
X53605Y4799D2*
X54547D1*
X54750Y4596D1*
Y4173D1*
X76687Y6433D2*
X77544D1*
X77562Y6451D1*
X75937Y11104D2*
X76069D1*
Y10827D1*
X77319D1*
X77500Y3000D2*
X76688D1*
X76563Y3125D1*
Y3965D1*
X76465Y4062D1*
X75710D1*
X75688Y4040D1*
X74701Y13346D2*
X74120D1*
X74041Y13425D1*
X75937Y11104D2*
X75114D1*
Y10000D1*
X75252D1*
Y6654D1*
X75473Y6433D1*
X76687D1*
X83500Y13000D2*
X84000Y12500D1*
Y7500D1*
X83500Y7000D1*
X74041Y13425D2*
X73496D1*
Y14502D1*
X72402D1*
Y12449D1*
X72866Y11984D1*
Y11945D1*
X67065Y6061D2*
X67992D1*
Y6059D1*
X68552Y11374D2*
X66817D1*
X66752Y11439D1*
Y12064D1*
Y12065D1*
X64007Y10626D2*
X64752D1*
X65127Y11001D1*
X66502D1*
X66817Y11316D1*
Y11374D1*
X65752Y12065D2*
Y13564D1*
X66000D1*
X66752D1*
Y12065D1*
X67838Y8189D2*
Y7751D1*
X71253D1*
Y9571D1*
X70253D1*
Y11096D1*
X70784D1*
X62049Y11100D2*
X62565D1*
Y9583D1*
X61564D1*
Y7688D1*
X64940D1*
X64661D1*
Y8189D1*
X64007Y10626D2*
Y10501D1*
X63502D1*
X62903Y11100D1*
X62049D1*
X68552Y11374D2*
X69630D1*
X69908Y11096D1*
X70784D1*
X67065Y6061D2*
X66317D1*
X66065Y6313D1*
X64940D2*
Y7688D1*
X74500Y4000D2*
X73352D1*
X73313Y4040D1*
X74500Y4000D2*
X75648D1*
X75688Y4040D1*
X73500Y9998D2*
X74498D1*
X74500Y10000D1*
X75114D1*
X73500Y9998D2*
Y10063D1*
X73188Y10375D1*
X59500Y1000D2*
X60500D1*
X49211Y4494D2*
Y3920D1*
X49199Y3908D1*
Y3349D1*
X49160Y3310D1*
Y3075D1*
X49483Y2752D1*
X50297D1*
X50928Y3383D1*
Y3679D1*
X51322D1*
X52500D1*
Y4346D1*
Y5147D1*
X52464Y5183D1*
X51322Y4031D2*
Y3679D1*
X58285Y12300D2*
D14*
X59485D1*
D13*
X59503Y12282D1*
X45135Y11835D2*
D14*
X46354D1*
Y11831D1*
X58513Y10567D2*
D15*
Y11291D1*
X59503Y12282D1*
X57456Y3357D2*
D13*
Y4061D1*
X55979D1*
X55343D1*
Y3323D1*
X56232Y5616D2*
X56222Y5626D1*
X55455D1*
X52250Y4346D2*
X52750D1*
X52250Y4846D2*
X52750D1*
X52250Y5346D2*
X52750D1*
X52250Y5846D2*
X52750D1*
X52250D2*
Y5346D1*
Y4846D1*
Y4346D1*
X52500D1*
X61250Y5654D2*
X62421D1*
X63573D1*
X63579Y5659D1*
X64730D1*
X69205Y6500D2*
Y6059D1*
Y5803D1*
X69366Y5642D1*
X69894D1*
X70327Y5209D1*
X70457D1*
X67992Y6059D2*
X69205D1*
X66000Y13500D2*
Y13564D1*
X74701Y14094D2*
X74041D1*
X80500Y14000D2*
X80438D1*
X79875Y14563D1*
X74041D1*
Y14094D1*
X75967Y8901D2*
Y7756D1*
X75937Y7727D1*
X75967Y8901D2*
Y9973D1*
X75937Y10002D1*
X78250Y8901D2*
Y8858D1*
X78667D1*
X79000Y9191D1*
Y10906D1*
X79091D1*
X75967Y8901D2*
X78250D1*
X81500Y5000D2*
X82500D1*
X81500D2*
X81000Y4500D1*
Y2687D1*
X80625Y2312D1*
X72772D1*
X72563Y2522D1*
Y3969D1*
X72343Y4189D1*
X69657D1*
X69461Y4386D1*
Y4768D1*
X49048Y5150D2*
X49004D1*
X48657Y4803D1*
Y2795D1*
X49228Y2224D1*
X55361Y2681D2*
X56032D1*
X56040Y2690D1*
X56042Y3306D2*
Y2692D1*
X55366Y7067D2*
D15*
Y8205D1*
X55602Y8441D1*
X58513Y8835D2*
X55996D1*
X55602Y8441D1*
X48945D2*
X46228D1*
X46087Y8299D1*
X49264Y7059D2*
Y8122D1*
X48945Y8441D1*
X51322Y4287D2*
D13*
X50757D1*
X50680Y4211D1*
Y3526D1*
X50491Y3337D1*
X49935D1*
X49908Y3310D1*
X53605Y4287D2*
X54175D1*
Y3618D1*
X54480Y3313D1*
X54664D1*
X54674Y3323D1*
Y2699D1*
X54692Y2681D1*
X51322Y4543D2*
X50528D1*
X50373Y4388D1*
Y3963D1*
X50338Y3927D1*
X49887D1*
X49868Y3908D1*
X53532Y2639D2*
Y3209D1*
X53605Y4031D2*
Y3282D1*
X53532Y3209D1*
X52309Y3203D2*
X52857D1*
X52863Y3209D1*
X52305Y2639D2*
X52863D1*
Y3208D1*
X75937Y7058D2*
X76687D1*
Y7102D1*
X77544D1*
X77562Y7120D1*
X78375D1*
Y7870D1*
X78250Y7995D1*
X78000Y14000D2*
X76246D1*
Y13720D1*
X75824D1*
X75606D1*
X75724Y13002D2*
Y13621D1*
X75824Y13720D1*
X79740Y13750D2*
Y13996D1*
X79720Y14016D1*
X78016D1*
X78000Y14000D1*
X71253Y6126D2*
Y5773D1*
Y5420D1*
Y5773D2*
X70641D1*
X70457Y5957D1*
X69461Y6500D2*
Y6012D1*
X69528Y5945D1*
X70445D1*
X70457Y5957D1*
X79760Y10906D2*
Y11339D1*
X78411D1*
Y12000D1*
X78000D1*
Y13000D1*
X74691Y12372D2*
X74858D1*
Y12293D1*
X75744D1*
Y12096D1*
X78000D1*
Y13000D1*
X79750Y11841D2*
X79760Y11339D1*
X75724Y12333D2*
X75744Y12293D1*
X65252Y9939D2*
Y8876D1*
X65174D1*
Y8858D1*
X65196D1*
X64661D2*
X65174D1*
X64661D2*
X64098D1*
X63542D1*
X63536Y8864D1*
X65760Y8858D2*
X65206D1*
X65174Y8876D1*
X67252Y9939D2*
Y8873D1*
X67267Y8858D1*
X67296D1*
X67838D1*
X68369D1*
X68897D1*
X68908Y8868D1*
X66752Y8858D2*
X67267D1*
X65252Y12065D2*
Y13564D1*
X64690D1*
X63958D1*
X63940Y13546D1*
X63252D1*
X68503Y13626D2*
X67833D1*
X67815Y13608D1*
X67271D1*
X67252Y13626D1*
Y12065D1*
X69190Y13608D2*
X68521D1*
X68503Y13626D1*
X74500Y5000D2*
X72879D1*
X72878Y5001D1*
Y6001D2*
X74499D1*
X74500Y6000D1*
Y7000D2*
X72879D1*
X72878Y7001D1*
Y8001D2*
X74499D1*
X74500Y8000D1*
X79500Y4000D2*
X78125D1*
X78063Y4063D1*
X78169Y3000D2*
X78125D1*
Y4000D1*
X79500Y5000D2*
X78067D1*
Y4774D1*
Y5531D2*
X79500D1*
Y6000D1*
Y7000D2*
Y8000D1*
X63500Y2000D2*
X64000Y1500D1*
X65000D1*
X65500Y2000D1*
X62500D2*
X63500Y1000D1*
X69500D2*
X70500Y2000D1*
X67500Y1000D2*
X68500Y2000D1*
Y1000D2*
X69500Y2000D1*
X56712Y3306D2*
Y2692D1*
X56710Y2690D1*
X57453D1*
X57456Y2687D1*
X79750Y12510D2*
Y13150D1*
X79740Y13159D1*
X50547Y5551D2*
Y4843D1*
X50587Y4803D1*
X51318D1*
X51322Y4799D1*
X66252Y9939D2*
Y10564D1*
X68490D1*
X68552Y10626D1*
X62122Y14094D2*
X62673D1*
X68552Y9752D2*
Y10626D1*
X64007Y11374D2*
X66252D1*
Y12065D1*
X64007Y11374D2*
Y12042D1*
X63996Y12031D1*
X62673Y13504D2*
X62122D1*
X78067Y10827D2*
X78254D1*
Y9685D1*
X78133Y9806D1*
X78250D1*
X74559Y11793D2*
X74833D1*
X74850Y11811D1*
X77132D1*
X77516Y11427D1*
X78028D1*
Y10827D1*
X78067D1*
X49888Y6261D2*
Y5688D1*
X49874Y5674D1*
X49914Y5150D2*
Y5634D1*
X49874Y5674D1*
X49880Y4494D2*
Y5115D1*
X49914Y5150D1*
X50547Y6220D2*
X49928D1*
X49888Y6261D1*
X49205Y5674D2*
Y6247D1*
X49219Y6261D1*
X53605Y5055D2*
X54136D1*
X54707Y5626D1*
D14*
X54746D1*
Y5094D1*
X55238D1*
X55419Y4913D1*
Y4596D1*
X56587D1*
Y4550D1*
X48945Y11787D2*
D15*
Y10110D1*
X54703D1*
X55622D1*
Y11768D1*
X55602Y11787D1*
X54707Y5626D2*
X54703Y6321D1*
X49219Y6261D2*
D13*
X48453D1*
X69717Y4768D2*
Y4571D1*
X71073D1*
X71253Y4750D1*
X66625Y4562D2*
X67250D1*
Y5313D1*
X67065D1*
X67992D1*
Y5311D1*
X67065Y5313D2*
X65563D1*
Y7501D1*
Y8189D1*
X65196D1*
X67065Y7438D2*
X67000Y7503D1*
Y8189D1*
X67296D1*
X65760D2*
X65196D1*
X66752D2*
X67295D1*
X67296D1*
X69717Y4768D2*
Y5295D1*
X68008D1*
X67992Y5311D1*
X69205Y4768D2*
X69189D1*
Y4323D1*
X69574Y3938D1*
X72191D1*
X72316Y3813D1*
Y2385D1*
X72638Y2063D1*
X81688D1*
X82500Y2875D1*
Y3000D1*
X81500Y4000D2*
X82500D1*
X51322Y5311D2*
Y5567D1*
Y5823D1*
Y6079D1*
Y6334D1*
Y6335D1*
X53605Y5311D2*
Y5567D1*
Y5823D1*
Y6079D1*
Y6335D1*
X50012Y7059D2*
D14*
X50764D1*
X51322Y6501D1*
Y6335D1*
X50012Y7059D2*
X53605D1*
X54610D1*
D13*
X54618Y7067D1*
X53605Y6335D2*
D14*
Y7059D1*
X50012D2*
D15*
Y8157D1*
X50295Y8441D1*
X54618Y7067D2*
Y8075D1*
X54252Y8441D1*
X61500Y1000D2*
D14*
Y2177D1*
X61264Y2413D1*
Y2807D1*
X61256Y2815D1*
X64098Y8189D2*
D13*
X63542D1*
X63536Y8195D1*
X62812D1*
Y9100D1*
Y9501D1*
X64752D1*
Y9939D1*
X62049Y9100D2*
X62812D1*
X63252Y12876D2*
X62690D1*
X63795Y9528D2*
X64752D1*
Y9939D1*
Y12065D2*
Y12832D1*
X64690Y12895D1*
X63958D1*
X63940Y12876D1*
X62049Y10100D2*
X61563D1*
Y12433D1*
X64752D1*
Y12065D1*
X68369Y8189D2*
X68897D1*
X68908Y8199D1*
X69317D1*
Y8910D1*
X69297D1*
Y9311D1*
X67752D1*
Y9939D1*
X69317Y8910D2*
X70598D1*
X70784Y9096D1*
X69190Y12939D2*
X69278D1*
Y9331D2*
X67752D1*
Y9939D1*
Y12065D2*
Y12876D1*
X67815Y12939D1*
X68484D1*
X68503Y12957D1*
X70784Y10096D2*
X71253D1*
Y12453D1*
X67752D1*
Y12065D1*
X79500Y10000D2*
X80500D1*
Y6000D2*
X80000Y5500D1*
Y3500D1*
X79500Y3000D1*
Y9000D2*
X80500D1*
D18*
X68929Y4004D3*
X73857Y11014D3*
X47732Y9409D3*
Y7299D3*
Y2547D3*
X50969Y2732D3*
X54925Y14370D3*
X71940Y7876D3*
Y6813D3*
X61020Y1575D3*
X62531Y3496D3*
X71817Y3553D3*
X59858Y13996D3*
X59882Y10362D3*
Y5154D3*
Y3760D3*
X68562Y4500D3*
X54750Y4173D3*
X66065Y6313D3*
X64940D3*
X73188Y10375D3*
X56232Y5616D3*
X55979Y4061D3*
X62673Y14094D3*
X68552Y9752D3*
X63996Y12031D3*
X62673Y13504D3*
X54703Y6321D3*
Y10110D3*
X48453Y6261D3*
X67000Y7501D3*
X65563D3*
X62690Y12876D3*
X63795Y9528D3*
X69278Y12939D3*
Y9331D3*
X52250Y5846D3*
Y5346D3*
X60500Y13000D3*
Y12500D3*
Y12000D3*
Y11500D3*
Y11000D3*
Y10500D3*
Y10000D3*
Y9500D3*
Y9000D3*
Y8500D3*
Y8000D3*
Y7500D3*
Y7000D3*
Y6500D3*
Y6000D3*
X51795Y8453D3*
X48252Y1709D3*
X48752D3*
X52250Y4846D3*
Y4346D3*
X52750Y5846D3*
Y5346D3*
Y4846D3*
Y4346D3*
X49906Y13283D3*
X50406D3*
X50906D3*
X51406D3*
X76816Y9924D3*
Y9424D3*
Y8924D3*
Y8424D3*
X77379Y9924D3*
Y9424D3*
Y8924D3*
Y8424D3*
X76816Y7924D3*
X77379D3*
X75941Y9174D3*
Y8674D3*
X51906Y13283D3*
X52406D3*
X52906D3*
X53406D3*
X52295Y8453D3*
X52795D3*
X49252Y1709D3*
X49752D3*
X50252D3*
X50752D3*
X51252D3*
X51752D3*
X52252D3*
X52752D3*
X53252D3*
X53752D3*
X54252D3*
X51795Y7953D3*
X55252Y1709D3*
X55752D3*
X56252D3*
X56752D3*
X61000Y7500D3*
Y7000D3*
X52295Y7953D3*
X52795D3*
X44906Y11118D3*
X45406D3*
X45906D3*
X46406D3*
X46906D3*
X58083Y11496D3*
X58583D3*
X59083D3*
X61000Y6500D3*
X56750Y7096D3*
Y6596D3*
Y6096D3*
Y5596D3*
X61500Y7500D3*
Y7000D3*
Y6500D3*
X62000Y7500D3*
Y7000D3*
Y6500D3*
X62500Y7500D3*
Y7000D3*
Y6500D3*
X63000Y7500D3*
Y7000D3*
Y6500D3*
X63500Y7500D3*
Y7000D3*
Y6500D3*
X64000Y7500D3*
Y7000D3*
Y6500D3*
X64500Y7500D3*
Y7000D3*
Y6500D3*
X66000Y13500D3*
Y13000D3*
X66500Y13500D3*
Y13000D3*
X72000Y14000D3*
Y13500D3*
Y13000D3*
Y12500D3*
Y12000D3*
Y11500D3*
Y11000D3*
Y10500D3*
Y10000D3*
X72500Y1500D3*
X73000D3*
X73500D3*
X74000D3*
X74500D3*
X75000D3*
X75500D3*
X76000D3*
X76500D3*
X77000D3*
X77500D3*
X78000D3*
X78500D3*
X79000D3*
X79500D3*
X80000D3*
X80500D3*
X81000D3*
X81500D3*
X82000D3*
X82500D3*
X83000D3*
X83500D3*
X44500Y11000D3*
Y10500D3*
Y10000D3*
Y9500D3*
Y9000D3*
Y8500D3*
Y8000D3*
Y7500D3*
Y7000D3*
Y6500D3*
Y6000D3*
Y5500D3*
Y5000D3*
Y4500D3*
Y4000D3*
Y3500D3*
Y3000D3*
Y2500D3*
Y2000D3*
Y1500D3*
Y1000D3*
X76828Y9967D2*
D16*
X77466D1*
X76828Y9718D2*
X77466D1*
X76828Y9469D2*
X77466D1*
X76750Y9221D2*
X77466D1*
X76750Y8972D2*
X77466D1*
X76750Y8723D2*
X77466D1*
X76750Y8475D2*
X77466D1*
X76750Y8226D2*
X77466D1*
X76750Y7977D2*
X77466D1*
X76496Y7729D2*
X77466D1*
X77492Y10196D2*
X77476Y10200D1*
X77492Y10159D1*
Y10194D1*
X76804Y10196D1*
Y9352D1*
X76725Y9350D1*
Y7926D1*
X76469D1*
Y7653D1*
X77035D1*
X77031Y7672D1*
X77495D1*
X77492Y8223D1*
X77496Y8517D1*
X77492Y8629D1*
Y10159D1*
X75937Y10002D2*
D17*
X76804D1*
X75937Y7727D2*
X76469D1*
X77492Y8901D2*
X78250D1*
X75967D2*
X76724D1*
X44180Y14051D2*
D14*
X48051D1*
X65278D2*
X67182D1*
X69781D2*
X72149D1*
X82227D2*
X83820D1*
X44180Y13753D2*
X47751D1*
X49390D2*
X50454D1*
X52528D2*
X52837D1*
X53524D2*
X53706D1*
X65663D2*
X66813D1*
X69781D2*
X72165D1*
X82379D2*
X83820D1*
X49091Y13454D2*
X53706D1*
X65708D2*
X66797D1*
X69781D2*
X72341D1*
X48796Y13155D2*
X53706D1*
X65708D2*
X66797D1*
X69826D2*
X72173D1*
X51109Y12857D2*
X53436D1*
X56415D2*
X57360D1*
X60426D2*
X61478D1*
X65708D2*
X66797D1*
X71421D2*
X72145D1*
X51109Y12558D2*
X53436D1*
X56415D2*
X57360D1*
X60426D2*
X61125D1*
X71696D2*
X72140D1*
X51109Y12259D2*
X53436D1*
X56415D2*
X57360D1*
X60426D2*
X61105D1*
X71708D2*
X72140D1*
X51109Y11960D2*
X53436D1*
X56415D2*
X57360D1*
X60426D2*
X61105D1*
X62022D2*
X63319D1*
X69239D2*
X70795D1*
X71708D2*
X72140D1*
X51109Y11662D2*
X53436D1*
X56415D2*
X57360D1*
X60426D2*
X61105D1*
X62489D2*
X63319D1*
X69239D2*
X70348D1*
X71708D2*
X72140D1*
X51109Y11363D2*
X53436D1*
X56415D2*
X57647D1*
X59376D2*
X61105D1*
X62723D2*
X63319D1*
X69239D2*
X70110D1*
X71708D2*
X72140D1*
X44180Y11064D2*
X47161D1*
X51109D2*
X53436D1*
X56415D2*
X57647D1*
X59376D2*
X61105D1*
X62776D2*
X63319D1*
X66578D2*
X67867D1*
X69239D2*
X70057D1*
X71708D2*
X72612D1*
X44180Y10766D2*
X45221D1*
X46950D2*
X47161D1*
X51109D2*
X53436D1*
X56415D2*
X57647D1*
X60303D2*
X61105D1*
X62690D2*
X63319D1*
X64695D2*
X65845D1*
X69239D2*
X70139D1*
X71708D2*
X72313D1*
X44180Y10467D2*
X45221D1*
X56210D2*
X57647D1*
X60463D2*
X61105D1*
X62670D2*
X63319D1*
X69239D2*
X70164D1*
X71708D2*
X72169D1*
X44180Y10168D2*
X45221D1*
X56210D2*
X57647D1*
X60439D2*
X61105D1*
X62772D2*
X63319D1*
X69239D2*
X70061D1*
X71708D2*
X72169D1*
X44180Y9870D2*
X45221D1*
X56157D2*
X57647D1*
X60340D2*
X61174D1*
X69465D2*
X70094D1*
X71647D2*
X72169D1*
X44180Y9571D2*
X45221D1*
X46950D2*
X47165D1*
X56415D2*
X57647D1*
X60340D2*
X61322D1*
X69814D2*
X70057D1*
X44180Y9272D2*
X45221D1*
X46950D2*
X47157D1*
X51109D2*
X53436D1*
X60340D2*
X61322D1*
X44180Y8974D2*
X45221D1*
X51109D2*
X53436D1*
X60340D2*
X61322D1*
X44180Y8675D2*
X45221D1*
X51109D2*
X53436D1*
X60340D2*
X61322D1*
X44180Y8376D2*
X45221D1*
X51109D2*
X53436D1*
X60340D2*
X62355D1*
X69773D2*
X71484D1*
X44180Y8078D2*
X45221D1*
X51109D2*
X53436D1*
X56415D2*
X57647D1*
X60340D2*
X62372D1*
X69756D2*
X71386D1*
X82223D2*
X83820D1*
X44180Y7779D2*
X45221D1*
X46950D2*
X47411D1*
X51109D2*
X53436D1*
X56415D2*
X59423D1*
X60340D2*
X62688D1*
X69498D2*
X71357D1*
X83351D2*
X83820D1*
X44180Y7480D2*
X45221D1*
X46950D2*
X47169D1*
X56415D2*
X59423D1*
X60340D2*
X64972D1*
X69707D2*
X71513D1*
X44180Y7181D2*
X47153D1*
X56014D2*
X59423D1*
X60340D2*
X65070D1*
X70019D2*
X70664D1*
X44180Y6883D2*
X47276D1*
X56014D2*
X59423D1*
X60340D2*
X65107D1*
X70187D2*
X70664D1*
X44180Y6584D2*
X47276D1*
X56014D2*
X59423D1*
X60340D2*
X65107D1*
X70187D2*
X70664D1*
X78151D2*
X78911D1*
X44180Y6285D2*
X47276D1*
X55292D2*
X59423D1*
X78151D2*
X78833D1*
X44180Y5987D2*
X47276D1*
X56104D2*
X59423D1*
X44180Y5688D2*
X47276D1*
X48189D2*
X48596D1*
X56104D2*
X59423D1*
X44180Y5389D2*
X47276D1*
X48189D2*
X48539D1*
X56104D2*
X59341D1*
X75108D2*
X76791D1*
X44180Y5091D2*
X47276D1*
X57863D2*
X59292D1*
X75219D2*
X76791D1*
X44180Y4792D2*
X47276D1*
X75194D2*
X76791D1*
X44180Y4493D2*
X47276D1*
X76609D2*
X76786D1*
X44180Y4195D2*
X47276D1*
X76609D2*
X76786D1*
X44180Y3896D2*
X47276D1*
X55267D2*
X56868D1*
X58044D2*
X59308D1*
X76609D2*
X76786D1*
X44180Y3597D2*
X47276D1*
X58044D2*
X59312D1*
X76609D2*
X76786D1*
X44180Y3299D2*
X47276D1*
X58044D2*
X59444D1*
X76609D2*
X76894D1*
X44180Y3000D2*
X47276D1*
X58044D2*
X59444D1*
X61845D2*
X62236D1*
X62825D2*
X71689D1*
X76609D2*
X76894D1*
X44180Y2701D2*
X47161D1*
X58044D2*
X59444D1*
X61845D2*
X71857D1*
X44180Y2402D2*
X47161D1*
X44180Y2104D2*
X47358D1*
X48107D2*
X48621D1*
X82363D2*
X83820D1*
X44180Y1805D2*
X48621D1*
X51744D2*
X58697D1*
X82063D2*
X83820D1*
X44180Y1506D2*
X55773D1*
X72020D2*
X83820D1*
X44180Y1208D2*
X55773D1*
X71196D2*
X83820D1*
X44180Y909D2*
X55773D1*
X71220D2*
X83820D1*
X60383Y6330D2*
X62685D1*
X62711Y6336D1*
X65135D1*
X65136Y7138D1*
X65090Y7196D1*
X65033Y7314D1*
X65004Y7441D1*
X65005Y7572D1*
X65010Y7610D1*
X63539Y7614D1*
X62977Y7616D1*
Y7768D1*
X62812D1*
X62683Y7788D1*
X62566Y7846D1*
X62472Y7937D1*
X62410Y8052D1*
X62386Y8195D1*
Y8404D1*
X61352Y8403D1*
Y9728D1*
X61232Y9830D1*
X61166Y9943D1*
X61136Y10100D1*
Y12433D1*
X61156Y12562D1*
X61214Y12679D1*
X61305Y12773D1*
X61420Y12835D1*
X61563Y12860D1*
X62125D1*
X62044Y12945D1*
X61544Y12949D1*
X61113Y12945D1*
X60874D1*
Y13080D1*
X60399Y13077D1*
X60397Y12707D1*
Y11605D1*
X58610D1*
Y11624D1*
X57392Y11623D1*
Y12954D1*
X56386Y12953D1*
X56388Y10540D1*
X56178D1*
X56181Y10110D1*
X56166Y9980D1*
X56120Y9857D1*
X55998Y9689D1*
X56388D1*
X56390Y9394D1*
X57682D1*
X57678Y9669D1*
X59347D1*
Y8001D1*
X57678D1*
Y8275D1*
X56384Y8276D1*
X56388Y7720D1*
Y7193D1*
X55982D1*
X55984Y6410D1*
X55258D1*
X55262Y6292D1*
X55270Y6283D1*
X55325Y6279D1*
X55414Y6283D1*
X56073D1*
Y5108D1*
X57166Y5105D1*
X57597Y5109D1*
X57835D1*
Y5064D1*
X59328Y5062D1*
X59324Y5225D1*
X59356Y5352D1*
X59416Y5468D1*
X59456Y5515D1*
X59455Y9997D1*
X59410Y10058D1*
X59347Y10195D1*
Y9733D1*
X57678D1*
Y11402D1*
X59347D1*
Y10535D1*
X59416Y10677D1*
X59502Y10776D1*
X59608Y10853D1*
X59729Y10903D1*
X59858Y10924D1*
X59989Y10914D1*
X60114Y10874D1*
X60226Y10807D1*
X60319Y10715D1*
X60389Y10604D1*
X60431Y10480D1*
X60444Y10362D1*
X60429Y10232D1*
X60384Y10109D1*
X60309Y9997D1*
Y5519D1*
X60356Y5448D1*
X60357Y6330D1*
X60383D1*
X55229Y3882D2*
X55253Y3878D1*
X55342Y3882D1*
X55922D1*
Y3864D1*
X56621Y3861D1*
X56900Y3865D1*
X56897Y3935D1*
X58015D1*
Y2663D1*
X59448D1*
X59475Y2778D1*
Y3373D1*
X59410Y3455D1*
X59352Y3573D1*
X59323Y3700D1*
X59324Y3831D1*
X59356Y3958D1*
X59396Y4035D1*
X58260Y4038D1*
X57837D1*
X57835Y3991D1*
X56678Y3995D1*
X56247Y3991D1*
X56009D1*
Y4085D1*
X55998Y4038D1*
X55292D1*
X55252Y3920D1*
X55227Y3883D1*
X55263Y3882D1*
X70156Y6575D2*
X70698D1*
X70694Y6704D1*
Y7373D1*
X71691D1*
X71552Y7470D1*
X71468Y7571D1*
X71411Y7689D1*
X71382Y7816D1*
X71383Y7947D1*
X71415Y8074D1*
X71475Y8191D1*
X71515Y8237D1*
X71514Y9250D1*
X71534Y9379D1*
X71592Y9496D1*
X71683Y9590D1*
X71798Y9652D1*
X71940Y9677D1*
X72199D1*
X72198Y10444D1*
X72218Y10573D1*
X72279Y10693D1*
X72416Y10839D1*
X72825Y11247D1*
X72170Y11248D1*
Y12642D1*
X72239D1*
X72204Y12728D1*
X72175Y12856D1*
X72171Y12987D1*
X72191Y13117D1*
X72235Y13240D1*
X72302Y13353D1*
X72380Y13442D1*
X72256Y13608D1*
X72204Y13728D1*
X72175Y13856D1*
X72171Y13987D1*
X72191Y14117D1*
X72235Y14240D1*
X72300Y14350D1*
X63171D1*
X63223Y14213D1*
X63232Y14128D1*
X63811Y14124D1*
X64131D1*
Y14142D1*
X65249D1*
X65252Y13991D1*
X65381Y13971D1*
X65499Y13913D1*
X65593Y13822D1*
X65655Y13707D1*
X65679Y13564D1*
Y12822D1*
X65732Y12816D1*
X65850Y12820D1*
X66826D1*
Y13626D1*
X66846Y13756D1*
X66904Y13873D1*
X66995Y13967D1*
X67110Y14029D1*
X67242Y14053D1*
X67256Y14079D1*
Y14187D1*
X67941D1*
X67944Y14205D1*
X69061D1*
Y14184D1*
X69749Y14187D1*
Y13243D1*
X69785Y13181D1*
X69827Y13057D1*
X69840Y12939D1*
X69832Y12878D1*
X71253Y12880D1*
X71382Y12860D1*
X71499Y12802D1*
X71593Y12711D1*
X71655Y12596D1*
X71680Y12453D1*
Y10096D1*
X71660Y9967D1*
X71602Y9850D1*
X71519Y9763D1*
X71480Y9661D1*
Y8399D1*
X70087D1*
Y8485D1*
X69741Y8483D1*
X69744Y8199D1*
X69724Y8070D1*
X69666Y7953D1*
X69586Y7868D1*
X69469Y7801D1*
X69467Y7620D1*
X68929D1*
X68928Y7610D1*
X67810Y7614D1*
X67793Y7610D1*
X67555D1*
X67596Y7553D1*
X69441D1*
X69570Y7533D1*
X69690Y7472D1*
X69836Y7335D1*
X70021Y7149D1*
X70063Y7138D1*
X70157D1*
Y6576D1*
X46031Y13610D2*
X47248D1*
Y13491D1*
X47523Y13492D1*
X48380Y14352D1*
X44150Y14350D1*
Y651D1*
X55807Y650D1*
X55803Y1222D1*
Y1697D1*
X57197D1*
Y1627D1*
X57368Y1684D1*
X57498Y1697D1*
X57628Y1685D1*
X57754Y1649D1*
X57871Y1589D1*
X58000Y1482D1*
X58125Y1587D1*
X58242Y1647D1*
X58368Y1684D1*
X58498Y1697D1*
X58608Y1687D1*
X58731Y1809D1*
X51737D1*
X51636Y1797D1*
X50475D1*
X50476Y1666D1*
X49319Y1670D1*
X48888Y1666D1*
X48650D1*
X48648Y2201D1*
X48324Y2529D1*
X48294Y2547D1*
X48279Y2417D1*
X48234Y2294D1*
X48162Y2185D1*
X48066Y2095D1*
X47953Y2030D1*
X47827Y1993D1*
X47696Y1986D1*
X47568Y2010D1*
X47448Y2063D1*
X47343Y2142D1*
X47260Y2243D1*
X47202Y2360D1*
X47173Y2488D1*
X47175Y2619D1*
X47207Y2746D1*
X47267Y2862D1*
X47307Y2909D1*
X47305Y6931D1*
X47260Y6995D1*
X47202Y7112D1*
X47173Y7240D1*
X47175Y7371D1*
X47207Y7498D1*
X47267Y7614D1*
X47352Y7713D1*
X47458Y7790D1*
X47579Y7840D1*
X47709Y7861D1*
X47839Y7851D1*
X47964Y7811D1*
X48076Y7744D1*
X48161Y7661D1*
X48157Y7882D1*
X46923D1*
X46921Y7465D1*
X45252D1*
Y9134D1*
X46921D1*
Y8998D1*
X47343Y9004D1*
X47260Y9105D1*
X47202Y9222D1*
X47173Y9350D1*
X47175Y9481D1*
X47204Y9596D1*
X46924Y9595D1*
X46921Y9197D1*
X45252D1*
Y10866D1*
X46921D1*
Y10714D1*
X47189Y10712D1*
Y11150D1*
X47012Y11154D1*
X44241Y11158D1*
Y13614D1*
X46028Y13610D1*
X64664Y10948D2*
X64666Y10694D1*
X65232Y10690D1*
X65666Y10694D1*
X65732Y10690D1*
X65895Y10798D1*
X65998Y10906D1*
X65990Y10947D1*
X64664Y10942D1*
X64660Y10756D1*
X64772Y10694D1*
X65732D1*
X63504Y10008D2*
X63350D1*
Y11992D1*
X63436D1*
X63309Y12006D1*
X61992D1*
X61994Y11794D1*
X62125Y11792D1*
X62254Y11766D1*
X62375Y11716D1*
X62484Y11644D1*
X62578Y11552D1*
X62654Y11445D1*
X62708Y11326D1*
X62738Y11198D1*
X62745Y11074D1*
X62728Y10944D1*
X62686Y10819D1*
X62623Y10705D1*
X62533Y10599D1*
X62611Y10511D1*
X62678Y10399D1*
X62723Y10276D1*
X62745Y10100D1*
X62733Y9969D1*
X62718Y9918D1*
X62812Y9928D1*
X63399D1*
X63505Y10006D1*
X69210Y11244D2*
Y10008D1*
X69050D1*
X69102Y9866D1*
X69254Y9892D1*
X69384Y9882D1*
X69509Y9843D1*
X69621Y9775D1*
X69715Y9684D1*
X69785Y9573D1*
X69827Y9449D1*
X69842Y9337D1*
X70084D1*
X70087Y9793D1*
X70157D1*
X70122Y9880D1*
X70093Y10007D1*
X70088Y10138D1*
X70109Y10268D1*
X70153Y10391D1*
X70219Y10504D1*
X70297Y10593D1*
X70201Y10714D1*
X70140Y10830D1*
X70101Y10956D1*
X70087Y11086D1*
X70098Y11217D1*
X70132Y11343D1*
X70190Y11461D1*
X70269Y11565D1*
X70366Y11653D1*
X70478Y11722D1*
X70600Y11768D1*
X70729Y11791D1*
X70827D1*
X70826Y12028D1*
X68230Y12026D1*
X68236Y11992D1*
X69210D1*
X69209Y10756D1*
X67895Y10988D2*
X67899Y11244D1*
X67895Y11308D1*
X67272Y11313D1*
X67022Y11309D1*
X66674D1*
X66663Y11259D1*
X66609Y11140D1*
X66507Y11032D1*
X66515Y10991D1*
X67895Y10992D1*
Y11255D1*
X67732Y11309D1*
X66772Y11313D1*
X66671Y11309D1*
X66659Y11245D1*
X66601Y11128D1*
X66510Y11034D1*
X76578Y3614D2*
X76581Y2741D1*
X76918Y2739D1*
X76921Y2966D1*
Y3503D1*
X76815Y3504D1*
X76819Y5332D1*
X76817Y5508D1*
X76785Y5540D1*
X75051Y5538D1*
X75008Y5523D1*
X74980Y5499D1*
X75062Y5411D1*
X75129Y5299D1*
X75174Y5176D1*
X75197Y5000D1*
X75184Y4870D1*
X75135Y4718D1*
X76581Y4717D1*
X76580Y3363D1*
X48568Y5313D2*
Y5630D1*
X48630D1*
X48626Y5726D1*
X48548Y5707D1*
X48417Y5700D1*
X48288Y5723D1*
X48158Y5783D1*
X48159Y2915D1*
X48229Y2807D1*
X48231Y4803D1*
X48251Y4932D1*
X48312Y5052D1*
X48448Y5198D1*
X48567Y5317D1*
X82197Y14348D2*
Y13881D1*
X82302Y13802D1*
X82415Y13689D1*
X82498Y13697D1*
X82628Y13685D1*
X82754Y13649D1*
X82871Y13589D1*
X83000Y13482D1*
X83061Y13541D1*
X83170Y13614D1*
X83291Y13665D1*
X83419Y13692D1*
X83550Y13695D1*
X83680Y13673D1*
X83803Y13628D1*
X83850Y13603D1*
Y14349D1*
X82200Y14350D1*
X81983Y8500D2*
X82062Y8411D1*
X82129Y8299D1*
X82174Y8176D1*
X82197Y8000D1*
X82190Y7931D1*
X83000Y7927D1*
X83129Y7907D1*
X83246Y7849D1*
X83333Y7766D1*
X83393Y7688D1*
X83524Y7696D1*
X83654Y7679D1*
X83779Y7638D1*
X83850Y7603D1*
Y8304D1*
X82803Y8303D1*
Y8373D1*
X82674Y8325D1*
X82544Y8305D1*
X82413Y8309D1*
X82285Y8337D1*
X82165Y8389D1*
X82057Y8463D1*
X82002Y8518D1*
X72190Y1908D2*
X72157Y1768D1*
X72102Y1649D1*
X72026Y1543D1*
X71931Y1452D1*
X71821Y1381D1*
X71699Y1332D1*
X71571Y1307D1*
X71440Y1306D1*
X71311Y1330D1*
X71188Y1377D1*
X71077Y1446D1*
X70999Y1515D1*
X71129Y1299D1*
X71174Y1176D1*
X71197Y1000D1*
X71184Y870D1*
X71148Y744D1*
X71101Y652D1*
X72871Y650D1*
X83850D1*
Y2300D1*
X82884Y2303D1*
X82803D1*
Y2373D1*
X82674Y2325D1*
X82532Y2305D1*
X81989Y1761D1*
X81884Y1683D1*
X81756Y1642D1*
X81556Y1636D1*
X72638D1*
X72509Y1656D1*
X72389Y1717D1*
X72244Y1853D1*
X72188Y1908D1*
X51878Y13746D2*
Y13677D1*
X50484D1*
Y13813D1*
X49422Y13815D1*
X48646Y13036D1*
X49730Y13035D1*
X51080D1*
Y10669D1*
X53467Y10671D1*
Y13035D1*
X53733D1*
X53736Y13819D1*
X53591Y13811D1*
X53478Y13744D1*
X53355Y13699D1*
X53225Y13679D1*
X53095Y13683D1*
X52967Y13711D1*
X52846Y13763D1*
X52738Y13837D1*
X52683Y13892D1*
X52591Y13811D1*
X52478Y13744D1*
X52355Y13699D1*
X52225Y13679D1*
X52095Y13683D1*
X51967Y13711D1*
X51878Y13747D1*
X78808Y5956D2*
X78805Y6042D1*
X78825Y6172D1*
X78869Y6295D1*
X78935Y6408D1*
X79014Y6497D1*
X78890Y6663D1*
X78838Y6784D1*
X78809Y6911D1*
X78805Y7042D1*
X78825Y7172D1*
X78854Y7253D1*
X78802Y7214D1*
Y7120D1*
X78782Y6991D1*
X78724Y6874D1*
X78633Y6780D1*
X78518Y6718D1*
X78375Y6693D1*
X78121Y6688D1*
Y6090D1*
X78645D1*
Y5955D1*
X78801Y5958D1*
X61813Y3393D2*
X61816Y2697D1*
X63197D1*
Y2627D1*
X63368Y2684D1*
X63498Y2697D1*
X63628Y2685D1*
X63754Y2649D1*
X63871Y2589D1*
X64000Y2482D1*
X64125Y2587D1*
X64242Y2647D1*
X64368Y2684D1*
X64498Y2697D1*
X64628Y2685D1*
X64754Y2649D1*
X64871Y2589D1*
X65000Y2482D1*
X65125Y2587D1*
X65242Y2647D1*
X65368Y2684D1*
X65498Y2697D1*
X65628Y2685D1*
X65754Y2649D1*
X65871Y2589D1*
X66000Y2482D1*
X66061Y2541D1*
X66170Y2614D1*
X66291Y2665D1*
X66419Y2692D1*
X66550Y2695D1*
X66680Y2673D1*
X66803Y2628D1*
X66915Y2560D1*
X67000Y2485D1*
X67125Y2587D1*
X67242Y2647D1*
X67368Y2684D1*
X67498Y2697D1*
X67628Y2685D1*
X67754Y2649D1*
X67871Y2589D1*
X68000Y2482D1*
X68125Y2587D1*
X68242Y2647D1*
X68368Y2684D1*
X68498Y2697D1*
X68628Y2685D1*
X68754Y2649D1*
X68871Y2589D1*
X69000Y2482D1*
X69125Y2587D1*
X69242Y2647D1*
X69368Y2684D1*
X69498Y2697D1*
X69628Y2685D1*
X69754Y2649D1*
X69871Y2589D1*
X70000Y2482D1*
X70125Y2587D1*
X70242Y2647D1*
X70368Y2684D1*
X70498Y2697D1*
X70628Y2685D1*
X70754Y2649D1*
X70871Y2589D1*
X71000Y2482D1*
X71061Y2541D1*
X71170Y2614D1*
X71291Y2665D1*
X71419Y2692D1*
X71550Y2695D1*
X71680Y2673D1*
X71803Y2628D1*
X71889Y2578D1*
Y2996D1*
X71781Y2992D1*
X71652Y3016D1*
X71532Y3068D1*
X71457Y3125D1*
X63726Y3126D1*
X63611Y3081D1*
X63512Y3069D1*
X62901D1*
X62752Y2979D1*
X62626Y2942D1*
X62496Y2935D1*
X62367Y2959D1*
X62247Y3011D1*
X62143Y3090D1*
X62059Y3191D1*
X62002Y3309D1*
X61973Y3437D1*
Y3490D1*
X61818Y3492D1*
X61815Y2906D1*
Y2700D1*
X51080Y9553D2*
Y7569D1*
X53424Y7571D1*
X53469D1*
X53467Y9030D1*
Y9551D1*
X51082D1*
X61250Y6330D2*
Y5654D1*
X60357D2*
X61250D1*
X62421Y6330D2*
Y5654D1*
X63579Y6336D2*
Y5659D1*
X64730Y6336D2*
Y5659D1*
X55343Y3881D2*
Y3323D1*
X55455Y6283D2*
Y5626D1*
X56072D1*
X58285Y12300D2*
Y11623D1*
X57392Y12300D2*
X58285D1*
X59503Y12282D2*
Y11605D1*
Y12282D2*
X60396D1*
X46354Y11831D2*
Y11154D1*
X45135Y11835D2*
Y11158D1*
X44242Y11835D2*
X45135D1*
X63350Y10626D2*
X64664D1*
X68552Y11991D2*
Y11374D1*
X67896D2*
X69209D1*
X75688Y4716D2*
Y4040D1*
X76580D1*
X58513Y11401D2*
Y9733D1*
X57679Y10567D2*
X59347D1*
X66500Y2696D2*
Y2000D1*
X71500Y2696D2*
Y1304D1*
Y2000D2*
X72196D1*
X83500Y7696D2*
Y7000D1*
Y13696D2*
Y13000D1*
X52181Y14374D2*
Y13678D1*
X62049Y11796D2*
Y11100D1*
X62745D1*
X70784Y11792D2*
Y11096D1*
X70088D2*
X70784D1*
X72866Y11945D2*
Y11249D1*
X72170Y11945D2*
X72866D1*
X57456Y3935D2*
Y3357D1*
X58014D1*
X64661Y8189D2*
Y7611D1*
X67838Y8189D2*
Y7611D1*
X77562Y6451D2*
X78121D1*
X76922Y3000D2*
X77500D1*
X50295Y13035D2*
Y11787D1*
X51080D1*
X66752Y12820D2*
Y11309D1*
X65752Y12820D2*
Y12065D1*
D19*
X52863Y2639D3*
X53532D3*
D20*
X61250Y4551D3*
Y5654D3*
X62421Y4551D3*
Y5654D3*
X63579Y4557D3*
Y5659D3*
X64730Y4557D3*
Y5659D3*
D19*
X54692Y2681D3*
X55361D3*
D21*
X49908Y3310D3*
X49160D3*
D19*
X54674Y3323D3*
X55343D3*
D21*
X54707Y5626D3*
X55455D3*
D22*
X70457Y5957D3*
Y5209D3*
X67992Y5311D3*
Y6059D3*
D20*
X58285Y12300D3*
Y13402D3*
X59503Y12282D3*
Y13384D3*
D21*
X49264Y7059D3*
X50012D3*
X54618Y7067D3*
X55366D3*
D23*
X64098Y8189D3*
Y8858D3*
X63940Y12876D3*
Y13546D3*
D20*
X46354Y12933D3*
Y11831D3*
X45135Y12937D3*
Y11835D3*
D23*
X68369Y8189D3*
Y8858D3*
X68503Y12957D3*
Y13626D3*
D21*
X78067Y10827D3*
X77319D3*
D20*
X75937Y10002D3*
Y11104D3*
D23*
X76687Y7102D3*
Y6433D3*
D22*
X64007Y10626D3*
Y11374D3*
X68552Y10626D3*
Y11374D3*
D20*
X73313Y2938D3*
Y4040D3*
X75688Y2938D3*
Y4040D3*
D22*
X73500Y9250D3*
Y9998D3*
D25*
X46087Y10031D3*
Y8299D3*
X58513Y10567D3*
Y8835D3*
D27*
X49914Y5150D3*
X49048D3*
D28*
X79740Y13750D3*
Y13159D3*
D29*
X81500Y14000D3*
D30*
X80500D3*
X81500Y13000D3*
X80500D3*
X81500Y12000D3*
X80500D3*
X81500Y11000D3*
X80500D3*
X81500Y10000D3*
X80500D3*
X81500Y9000D3*
X80500D3*
X81500Y8000D3*
X80500D3*
X81500Y7000D3*
X80500D3*
X81500Y6000D3*
X80500D3*
X81500Y5000D3*
X80500D3*
X81500Y4000D3*
X80500D3*
X81500Y3000D3*
X80500D3*
D29*
X62500Y2000D3*
D30*
X63500D3*
X64500D3*
X65500D3*
X66500D3*
X67500D3*
X68500D3*
X69500D3*
X70500D3*
X71500D3*
D29*
X83500Y3000D3*
D30*
X82500D3*
X83500Y4000D3*
X82500D3*
X83500Y5000D3*
X82500D3*
X83500Y6000D3*
X82500D3*
X83500Y7000D3*
X82500D3*
D29*
X83500Y9000D3*
D30*
X82500D3*
X83500Y10000D3*
X82500D3*
X83500Y11000D3*
X82500D3*
X83500Y12000D3*
X82500D3*
X83500Y13000D3*
X82500D3*
D29*
X51181Y14374D3*
D30*
X52181D3*
X53181D3*
D29*
X62049Y9100D3*
D30*
Y10100D3*
Y11100D3*
D29*
X70784Y9096D3*
D30*
Y10096D3*
Y11096D3*
D29*
X78000Y13000D3*
D30*
Y14000D3*
D29*
X72866Y11945D3*
D30*
Y12945D3*
Y13945D3*
D29*
X72878Y5001D3*
D30*
Y6001D3*
Y7001D3*
Y8001D3*
D29*
X79500Y3000D3*
D30*
Y4000D3*
Y5000D3*
Y6000D3*
Y7000D3*
Y8000D3*
Y9000D3*
Y10000D3*
D29*
X74500Y3000D3*
D30*
Y4000D3*
Y5000D3*
Y6000D3*
Y7000D3*
Y8000D3*
Y9000D3*
Y10000D3*
D29*
X56500Y1000D3*
D30*
X57500D3*
X58500D3*
X59500D3*
X60500D3*
X61500D3*
X62500D3*
X63500D3*
X64500D3*
X65500D3*
X66500D3*
X67500D3*
X68500D3*
X69500D3*
X70500D3*
D32*
X74701Y14094D3*
Y13346D3*
X75606Y13720D3*
D19*
X52309Y3203D3*
X51640D3*
X52305Y2639D3*
X51636D3*
X53532Y3209D3*
X52863D3*
D23*
X57456Y3357D3*
Y2687D3*
D19*
X56712Y3306D3*
X56042D3*
X56710Y2690D3*
X56040D3*
X49199Y3908D3*
X49868D3*
X54750Y4596D3*
X55419D3*
X49211Y4494D3*
X49880D3*
X57257Y4550D3*
X56587D3*
X49205Y5674D3*
X49874D3*
X49219Y6261D3*
X49888D3*
X67250Y4562D3*
X67919D3*
X66625D3*
X65956D3*
D23*
X71253Y6126D3*
Y6795D3*
Y4750D3*
Y5420D3*
X64661Y8189D3*
Y8858D3*
X65760Y8189D3*
Y8858D3*
X63536Y8864D3*
Y8195D3*
X64690Y13564D3*
Y12895D3*
X65196Y8189D3*
Y8858D3*
X63252Y12876D3*
Y13546D3*
X67838Y8189D3*
Y8858D3*
X66752Y8189D3*
Y8858D3*
X68908Y8868D3*
Y8199D3*
X67815Y13608D3*
Y12939D3*
X67296Y8189D3*
Y8858D3*
X69190Y12939D3*
Y13608D3*
X74559Y11124D3*
Y11793D3*
D19*
X74022Y12372D3*
X74691D3*
X79091Y10906D3*
X79760D3*
D23*
X77562Y6451D3*
Y7120D3*
X75937Y7058D3*
Y7727D3*
X74041Y14094D3*
Y13425D3*
D19*
X62122Y13504D3*
X61453D3*
Y14094D3*
X62122D3*
X77500Y3000D3*
X78169D3*
X78063Y4063D3*
X77393D3*
D23*
X61256Y2815D3*
Y3484D3*
D19*
X78067Y4774D3*
X77398D3*
X78067Y5531D3*
X77398D3*
D23*
X75724Y12333D3*
Y13002D3*
X79750Y11841D3*
Y12510D3*
X50547Y6220D3*
Y5551D3*
D19*
X49898Y2224D3*
X49228D3*
D34*
X48945Y8441D3*
X50295D3*
Y11787D3*
X48945D3*
X54252Y8441D3*
X55602D3*
Y11787D3*
X54252D3*
D35*
X53605Y4031D3*
Y4287D3*
Y4543D3*
Y4799D3*
Y5055D3*
Y5311D3*
Y5567D3*
Y5823D3*
Y6079D3*
Y6335D3*
X51322D3*
Y6079D3*
Y5823D3*
Y5567D3*
Y5311D3*
Y5055D3*
Y4799D3*
Y4543D3*
Y4287D3*
Y4031D3*
D36*
X52464Y5183D3*
D37*
X78250Y7995D3*
Y8901D3*
Y9806D3*
D38*
X75967Y8901D3*
D39*
X68949Y4768D3*
X69205D3*
X69461D3*
X69717D3*
Y6500D3*
X69461D3*
X69205D3*
X68949D3*
D32*
X67065Y5313D3*
Y6061D3*
X66159Y5687D3*
D40*
X64752Y9939D3*
X65252D3*
X65752D3*
X66252D3*
X66752D3*
X67252D3*
X67752D3*
Y12065D3*
X67252D3*
X66752D3*
X66252D3*
X65752D3*
X65252D3*
X64752D3*
X32188Y20438D2*
D13*
X31062D1*
X31000Y20500D1*
X29875D1*
X29813Y20438D1*
X24419Y22062D2*
Y21504D1*
D14*
X21220D1*
X20079D1*
X18921D1*
X17812D1*
X17756D1*
X17012D1*
X16466Y22050D1*
X13757D1*
X25429Y21504D2*
X24419D1*
X17750Y22051D2*
D13*
X18921D1*
X20073D1*
X20079Y22057D1*
X21230D1*
X31059Y28624D2*
X30467D1*
X30357Y28514D1*
X20079Y22057D2*
D14*
Y21504D1*
X18921Y22051D2*
Y21504D1*
X17750Y22051D2*
Y21566D1*
X17812Y21504D1*
X21230Y22057D2*
D13*
X22450D1*
X22456Y22062D1*
X21230Y22057D2*
D14*
X21220D1*
Y21504D1*
X17756Y20984D2*
Y21504D1*
X1635Y30437D2*
X2854D1*
Y30433D1*
D15*
X4248D1*
Y27654D1*
X2709D1*
X2587Y27531D1*
X7681Y31874D2*
X5693D1*
X4252Y30433D1*
X4248Y27654D2*
D13*
Y26894D1*
X4232Y26909D1*
Y24799D2*
Y20047D1*
X7469Y20232D2*
Y20358D1*
X7795Y20685D1*
X8122D1*
X8140Y20703D1*
X17953Y31594D2*
X17819D1*
X17543Y31870D1*
X11425D1*
X30000Y26750D2*
X29125D1*
Y27944D1*
X30522Y29341D1*
Y29872D1*
X29125Y26750D2*
X28440D1*
Y25376D1*
Y24313D2*
X27771D1*
X27753Y24295D1*
X30000Y26750D2*
X30750D1*
X31000Y26500D1*
X33898Y23031D2*
Y22274D1*
X33893Y21563D2*
Y22274D1*
X33898D1*
X31000Y26500D2*
X31500Y26000D1*
Y23520D1*
X31555Y23465D1*
X33465D1*
X33898Y23031D1*
X15000Y18500D2*
X15026D1*
X15600Y19075D1*
X17520D1*
X19031Y20996D2*
X20012D1*
Y21053D1*
X28317D1*
X14785Y30902D2*
D14*
X15985D1*
D13*
X16003Y30884D1*
X9681Y31874D2*
D15*
X10795D1*
Y31012D1*
Y29331D1*
X10752Y29287D1*
X14785Y30902D2*
Y31012D1*
X10795D1*
X17953Y31004D2*
D13*
X16123D1*
X16003Y30884D1*
Y31141D1*
X16358Y31496D1*
X16382Y27862D2*
Y22654D1*
Y21260D2*
X16402D1*
Y20016D1*
X16122Y19736D1*
X8136D1*
Y20139D1*
X6398Y19724D2*
X8136D1*
X37000Y30500D2*
X37500Y31000D1*
X38500D1*
X39000Y30500D1*
X38000D2*
X39000Y29500D1*
X38000D2*
X39000Y28500D1*
X38000D2*
X39000Y27500D1*
X38000D2*
X39000Y26500D1*
X37000Y25500D2*
X37500Y25000D1*
X39500D1*
Y24000D1*
X40000Y23500D1*
Y22500D2*
X39500Y23000D1*
X37620D1*
X37500Y23120D1*
Y24000D1*
X37000Y24500D1*
X38000D2*
X39000Y23500D1*
X25449Y22268D2*
X25398D1*
X25192Y22062D1*
X25125D1*
X25062Y22000D1*
X22252Y27439D2*
Y27138D1*
X22627Y26762D1*
Y24778D1*
X23030Y24376D1*
X25376D1*
X25449Y24303D1*
Y24000D1*
X26217D2*
Y24350D1*
X25941Y24626D1*
X23177D1*
X22877Y24926D1*
Y26751D1*
X23252Y27126D1*
Y27438D1*
Y27439D1*
X10105Y22299D2*
X11047D1*
X11250Y22096D1*
Y21673D1*
X33187Y23933D2*
X34044D1*
X34062Y23951D1*
X32437Y28604D2*
X32569D1*
Y28327D1*
X33819D1*
X34000Y20500D2*
X33188D1*
X33063Y20625D1*
Y21465D1*
X32965Y21562D1*
X32210D1*
X32188Y21540D1*
X31201Y30846D2*
X30620D1*
X30541Y30925D1*
X32437Y28604D2*
X31614D1*
Y27500D1*
X31752D1*
Y24154D1*
X31973Y23933D1*
X33187D1*
X40000Y30500D2*
X40500Y30000D1*
Y25000D1*
X40000Y24500D1*
X30541Y30925D2*
X29996D1*
Y32002D1*
X28902D1*
Y29949D1*
X29366Y29484D1*
Y29445D1*
X23565Y23561D2*
X24492D1*
Y23559D1*
X25052Y28874D2*
X23317D1*
X23252Y28939D1*
Y29564D1*
Y29565D1*
X20507Y28126D2*
X21252D1*
X21627Y28501D1*
X23002D1*
X23317Y28816D1*
Y28874D1*
X22252Y29565D2*
Y31064D1*
X22500D1*
X23252D1*
Y29565D1*
X24338Y25689D2*
Y25251D1*
X27753D1*
Y27071D1*
X26753D1*
Y28596D1*
X27284D1*
X18549Y28600D2*
X19065D1*
Y27083D1*
X18064D1*
Y25188D1*
X21440D1*
X21161D1*
Y25689D1*
X20507Y28126D2*
Y28001D1*
X20002D1*
X19403Y28600D1*
X18549D1*
X25052Y28874D2*
X26130D1*
X26408Y28596D1*
X27284D1*
X23565Y23561D2*
X22817D1*
X22565Y23813D1*
X21440D2*
Y25188D1*
X31000Y21500D2*
X29852D1*
X29813Y21540D1*
X31000Y21500D2*
X32148D1*
X32188Y21540D1*
X30000Y27498D2*
X30998D1*
X31000Y27500D1*
X31614D1*
X30000Y27498D2*
Y27563D1*
X29688Y27875D1*
X16000Y18500D2*
X17000D1*
X5711Y21994D2*
Y21420D1*
X5699Y21408D1*
Y20849D1*
X5660Y20810D1*
Y20575D1*
X5983Y20252D1*
X6797D1*
X7428Y20883D1*
Y21179D1*
X7822D1*
X9000D1*
Y21846D1*
Y22647D1*
X8964Y22683D1*
X7822Y21531D2*
Y21179D1*
X14785Y29800D2*
D14*
X15985D1*
D13*
X16003Y29782D1*
X1635Y29335D2*
D14*
X2854D1*
Y29331D1*
X15013Y28067D2*
D15*
Y28791D1*
X16003Y29782D1*
X13956Y20857D2*
D13*
Y21561D1*
X12479D1*
X11843D1*
Y20823D1*
X12732Y23116D2*
X12722Y23126D1*
X11955D1*
X8750Y21846D2*
X9250D1*
X8750Y22346D2*
X9250D1*
X8750Y22846D2*
X9250D1*
X8750Y23346D2*
X9250D1*
X8750D2*
Y22846D1*
Y22346D1*
Y21846D1*
X9000D1*
X17750Y23154D2*
X18921D1*
X20073D1*
X20079Y23159D1*
X21230D1*
X25705Y24000D2*
Y23559D1*
Y23303D1*
X25866Y23142D1*
X26394D1*
X26827Y22709D1*
X26957D1*
X24492Y23559D2*
X25705D1*
X22500Y31000D2*
Y31064D1*
X31201Y31594D2*
X30541D1*
X37000Y31500D2*
X36938D1*
X36375Y32063D1*
X30541D1*
Y31594D1*
X32467Y26401D2*
Y25256D1*
X32437Y25227D1*
X32467Y26401D2*
Y27473D1*
X32437Y27502D1*
X34750Y26401D2*
Y26358D1*
X35167D1*
X35500Y26691D1*
Y28406D1*
X35591D1*
X32467Y26401D2*
X34750D1*
X38000Y22500D2*
X39000D1*
X38000D2*
X37500Y22000D1*
Y20187D1*
X37125Y19812D1*
X29272D1*
X29063Y20022D1*
Y21469D1*
X28843Y21689D1*
X26157D1*
X25961Y21886D1*
Y22268D1*
X5548Y22650D2*
X5504D1*
X5157Y22303D1*
Y20295D1*
X5728Y19724D1*
X11861Y20181D2*
X12532D1*
X12540Y20190D1*
X12542Y20806D2*
Y20192D1*
X11866Y24567D2*
D15*
Y25705D1*
X12102Y25941D1*
X15013Y26335D2*
X12496D1*
X12102Y25941D1*
X5445D2*
X2728D1*
X2587Y25799D1*
X5764Y24559D2*
Y25622D1*
X5445Y25941D1*
X7822Y21787D2*
D13*
X7257D1*
X7180Y21711D1*
Y21026D1*
X6991Y20837D1*
X6435D1*
X6408Y20810D1*
X10105Y21787D2*
X10675D1*
Y21118D1*
X10980Y20813D1*
X11164D1*
X11174Y20823D1*
Y20199D1*
X11192Y20181D1*
X7822Y22043D2*
X7028D1*
X6873Y21888D1*
Y21463D1*
X6838Y21427D1*
X6387D1*
X6368Y21408D1*
X10032Y20139D2*
Y20709D1*
X10105Y21531D2*
Y20782D1*
X10032Y20709D1*
X8809Y20703D2*
X9357D1*
X9363Y20709D1*
X8805Y20139D2*
X9363D1*
Y20708D1*
X32437Y24558D2*
X33187D1*
Y24602D1*
X34044D1*
X34062Y24620D1*
X34875D1*
Y25370D1*
X34750Y25495D1*
X34500Y31500D2*
X32746D1*
Y31220D1*
X32324D1*
X32106D1*
X32224Y30502D2*
Y31121D1*
X32324Y31220D1*
X36240Y31250D2*
Y31496D1*
X36220Y31516D1*
X34516D1*
X34500Y31500D1*
X27753Y23626D2*
Y23273D1*
Y22920D1*
Y23273D2*
X27141D1*
X26957Y23457D1*
X25961Y24000D2*
Y23512D1*
X26028Y23445D1*
X26945D1*
X26957Y23457D1*
X36260Y28406D2*
Y28839D1*
X34911D1*
Y29500D1*
X34500D1*
Y30500D1*
X31191Y29872D2*
X31358D1*
Y29793D1*
X32244D1*
Y29596D1*
X34500D1*
Y30500D1*
X36250Y29341D2*
X36260Y28839D1*
X32224Y29833D2*
X32244Y29793D1*
X21752Y27439D2*
Y26376D1*
X21674D1*
Y26358D1*
X21696D1*
X21161D2*
X21674D1*
X21161D2*
X20598D1*
X20042D1*
X20036Y26364D1*
X22260Y26358D2*
X21706D1*
X21674Y26376D1*
X23752Y27439D2*
Y26373D1*
X23767Y26358D1*
X23796D1*
X24338D1*
X24869D1*
X25397D1*
X25408Y26368D1*
X23252Y26358D2*
X23767D1*
X21752Y29565D2*
Y31064D1*
X21190D1*
X20458D1*
X20440Y31046D1*
X19752D1*
X25003Y31126D2*
X24333D1*
X24315Y31108D1*
X23771D1*
X23752Y31126D1*
Y29565D1*
X25690Y31108D2*
X25021D1*
X25003Y31126D1*
X31000Y22500D2*
X29379D1*
X29378Y22501D1*
Y23501D2*
X30999D1*
X31000Y23500D1*
Y24500D2*
X29379D1*
X29378Y24501D1*
Y25501D2*
X30999D1*
X31000Y25500D1*
X36000Y21500D2*
X34625D1*
X34563Y21563D1*
X34669Y20500D2*
X34625D1*
Y21500D1*
X36000Y22500D2*
X34567D1*
Y22274D1*
Y23031D2*
X36000D1*
Y23500D1*
Y24500D2*
Y25500D1*
X20000Y19500D2*
X20500Y19000D1*
X21500D1*
X22000Y19500D1*
X19000D2*
X20000Y18500D1*
X26000D2*
X27000Y19500D1*
X24000Y18500D2*
X25000Y19500D1*
Y18500D2*
X26000Y19500D1*
X13212Y20806D2*
Y20192D1*
X13210Y20190D1*
X13953D1*
X13956Y20187D1*
X36250Y30010D2*
Y30650D1*
X36240Y30659D1*
X7047Y23051D2*
Y22343D1*
X7087Y22303D1*
X7818D1*
X7822Y22299D1*
X22752Y27439D2*
Y28064D1*
X24990D1*
X25052Y28126D1*
X18622Y31594D2*
X19173D1*
X25052Y27252D2*
Y28126D1*
X20507Y28874D2*
X22752D1*
Y29565D1*
X20507Y28874D2*
Y29542D1*
X20496Y29531D1*
X19173Y31004D2*
X18622D1*
X34567Y28327D2*
X34754D1*
Y27185D1*
X34633Y27306D1*
X34750D1*
X31059Y29293D2*
X31333D1*
X31350Y29311D1*
X33632D1*
X34016Y28927D1*
X34528D1*
Y28327D1*
X34567D1*
X6388Y23761D2*
Y23188D1*
X6374Y23174D1*
X6414Y22650D2*
Y23134D1*
X6374Y23174D1*
X6380Y21994D2*
Y22615D1*
X6414Y22650D1*
X7047Y23720D2*
X6428D1*
X6388Y23761D1*
X5705Y23174D2*
Y23747D1*
X5719Y23761D1*
X10105Y22555D2*
X10636D1*
X11207Y23126D1*
D14*
X11246D1*
Y22594D1*
X11738D1*
X11919Y22413D1*
Y22096D1*
X13087D1*
Y22050D1*
X5445Y29287D2*
D15*
Y27610D1*
X11203D1*
X12122D1*
Y29268D1*
X12102Y29287D1*
X11207Y23126D2*
X11203Y23821D1*
X5719Y23761D2*
D13*
X4953D1*
X26217Y22268D2*
Y22071D1*
X27573D1*
X27753Y22250D1*
X23125Y22062D2*
X23750D1*
Y22813D1*
X23565D1*
X24492D1*
Y22811D1*
X23565Y22813D2*
X22063D1*
Y25001D1*
Y25689D1*
X21696D1*
X23565Y24938D2*
X23500Y25003D1*
Y25689D1*
X23796D1*
X22260D2*
X21696D1*
X23252D2*
X23795D1*
X23796D1*
X26217Y22268D2*
Y22795D1*
X24508D1*
X24492Y22811D1*
X25705Y22268D2*
X25689D1*
Y21823D1*
X26074Y21438D1*
X28691D1*
X28816Y21313D1*
Y19885D1*
X29138Y19563D1*
X38188D1*
X39000Y20375D1*
Y20500D1*
X38000Y21500D2*
X39000D1*
X7822Y22811D2*
Y23067D1*
Y23323D1*
Y23579D1*
Y23834D1*
Y23835D1*
X10105Y22811D2*
Y23067D1*
Y23323D1*
Y23579D1*
Y23835D1*
X6512Y24559D2*
D14*
X7264D1*
X7822Y24001D1*
Y23835D1*
X6512Y24559D2*
X10105D1*
X11110D1*
D13*
X11118Y24567D1*
X10105Y23835D2*
D14*
Y24559D1*
X6512D2*
D15*
Y25657D1*
X6795Y25941D1*
X11118Y24567D2*
Y25575D1*
X10752Y25941D1*
X18000Y18500D2*
D14*
Y19677D1*
X17764Y19913D1*
Y20307D1*
X17756Y20315D1*
X20598Y25689D2*
D13*
X20042D1*
X20036Y25695D1*
X19312D1*
Y26600D1*
Y27001D1*
X21252D1*
Y27439D1*
X18549Y26600D2*
X19312D1*
X19752Y30376D2*
X19190D1*
X20295Y27028D2*
X21252D1*
Y27439D1*
Y29565D2*
Y30332D1*
X21190Y30395D1*
X20458D1*
X20440Y30376D1*
X18549Y27600D2*
X18063D1*
Y29933D1*
X21252D1*
Y29565D1*
X24869Y25689D2*
X25397D1*
X25408Y25699D1*
X25817D1*
Y26410D1*
X25797D1*
Y26811D1*
X24252D1*
Y27439D1*
X25817Y26410D2*
X27098D1*
X27284Y26596D1*
X25690Y30439D2*
X25778D1*
Y26831D2*
X24252D1*
Y27439D1*
Y29565D2*
Y30376D1*
X24315Y30439D1*
X24984D1*
X25003Y30457D1*
X27284Y27596D2*
X27753D1*
Y29953D1*
X24252D1*
Y29565D1*
X36000Y27500D2*
X37000D1*
Y23500D2*
X36500Y23000D1*
Y21000D1*
X36000Y20500D1*
Y26500D2*
X37000D1*
D18*
X25429Y21504D3*
X30357Y28514D3*
X4232Y26909D3*
Y24799D3*
Y20047D3*
X7469Y20232D3*
X11425Y31870D3*
X28440Y25376D3*
Y24313D3*
X17520Y19075D3*
X19031Y20996D3*
X28317Y21053D3*
X16358Y31496D3*
X16382Y27862D3*
Y22654D3*
Y21260D3*
X25062Y22000D3*
X11250Y21673D3*
X22565Y23813D3*
X21440D3*
X29688Y27875D3*
X12732Y23116D3*
X12479Y21561D3*
X19173Y31594D3*
X25052Y27252D3*
X20496Y29531D3*
X19173Y31004D3*
X11203Y23821D3*
Y27610D3*
X4953Y23761D3*
X23500Y25001D3*
X22063D3*
X19190Y30376D3*
X20295Y27028D3*
X25778Y30439D3*
Y26831D3*
X8750Y23346D3*
Y22846D3*
X17000Y30500D3*
Y30000D3*
Y29500D3*
Y29000D3*
Y28500D3*
Y28000D3*
Y27500D3*
Y27000D3*
Y26500D3*
Y26000D3*
Y25500D3*
Y25000D3*
Y24500D3*
Y24000D3*
Y23500D3*
X8295Y25953D3*
X4752Y19209D3*
X5252D3*
X8750Y22346D3*
Y21846D3*
X9250Y23346D3*
Y22846D3*
Y22346D3*
Y21846D3*
X6406Y30783D3*
X6906D3*
X7406D3*
X7906D3*
X33316Y27424D3*
Y26924D3*
Y26424D3*
Y25924D3*
X33879Y27424D3*
Y26924D3*
Y26424D3*
Y25924D3*
X33316Y25424D3*
X33879D3*
X32441Y26674D3*
Y26174D3*
X8406Y30783D3*
X8906D3*
X9406D3*
X9906D3*
X8795Y25953D3*
X9295D3*
X5752Y19209D3*
X6252D3*
X6752D3*
X7252D3*
X7752D3*
X8252D3*
X8752D3*
X9252D3*
X9752D3*
X10252D3*
X10752D3*
X8295Y25453D3*
X11752Y19209D3*
X12252D3*
X12752D3*
X13252D3*
X17500Y25000D3*
Y24500D3*
X8795Y25453D3*
X9295D3*
X1406Y28618D3*
X1906D3*
X2406D3*
X2906D3*
X3406D3*
X14583Y28996D3*
X15083D3*
X15583D3*
X17500Y24000D3*
X13250Y24596D3*
Y24096D3*
Y23596D3*
Y23096D3*
X18000Y25000D3*
Y24500D3*
Y24000D3*
X18500Y25000D3*
Y24500D3*
Y24000D3*
X19000Y25000D3*
Y24500D3*
Y24000D3*
X19500Y25000D3*
Y24500D3*
Y24000D3*
X20000Y25000D3*
Y24500D3*
Y24000D3*
X20500Y25000D3*
Y24500D3*
Y24000D3*
X21000Y25000D3*
Y24500D3*
Y24000D3*
X22500Y31000D3*
Y30500D3*
X23000Y31000D3*
Y30500D3*
X28500Y31500D3*
Y31000D3*
Y30500D3*
Y30000D3*
Y29500D3*
Y29000D3*
Y28500D3*
Y28000D3*
Y27500D3*
X29000Y19000D3*
X29500D3*
X30000D3*
X30500D3*
X31000D3*
X31500D3*
X32000D3*
X32500D3*
X33000D3*
X33500D3*
X34000D3*
X34500D3*
X35000D3*
X35500D3*
X36000D3*
X36500D3*
X37000D3*
X37500D3*
X38000D3*
X38500D3*
X39000D3*
X39500D3*
X40000D3*
X1000Y28500D3*
Y28000D3*
Y27500D3*
Y27000D3*
Y26500D3*
Y26000D3*
Y25500D3*
Y25000D3*
Y24500D3*
Y24000D3*
Y23500D3*
Y23000D3*
Y22500D3*
Y22000D3*
Y21500D3*
Y21000D3*
Y20500D3*
Y20000D3*
Y19500D3*
Y19000D3*
Y18500D3*
X33328Y27467D2*
D16*
X33966D1*
X33328Y27218D2*
X33966D1*
X33328Y26969D2*
X33966D1*
X33250Y26721D2*
X33966D1*
X33250Y26472D2*
X33966D1*
X33250Y26223D2*
X33966D1*
X33250Y25975D2*
X33966D1*
X33250Y25726D2*
X33966D1*
X33250Y25477D2*
X33966D1*
X32996Y25229D2*
X33966D1*
X33992Y27696D2*
X33976Y27700D1*
X33992Y27659D1*
Y27694D1*
X33304Y27696D1*
Y26852D1*
X33225Y26850D1*
Y25426D1*
X32969D1*
Y25153D1*
X33535D1*
X33531Y25172D1*
X33995D1*
X33992Y25723D1*
X33996Y26017D1*
X33992Y26129D1*
Y27659D1*
X32437Y27502D2*
D17*
X33304D1*
X32437Y25227D2*
X32969D1*
X33992Y26401D2*
X34750D1*
X32467D2*
X33224D1*
X680Y31551D2*
D14*
X4551D1*
X21778D2*
X23682D1*
X26281D2*
X28649D1*
X38727D2*
X40320D1*
X680Y31253D2*
X4251D1*
X5890D2*
X6954D1*
X9028D2*
X9337D1*
X10024D2*
X10206D1*
X22163D2*
X23313D1*
X26281D2*
X28665D1*
X38879D2*
X40320D1*
X5591Y30954D2*
X10206D1*
X22208D2*
X23297D1*
X26281D2*
X28841D1*
X5296Y30655D2*
X10206D1*
X22208D2*
X23297D1*
X26326D2*
X28673D1*
X7609Y30357D2*
X9936D1*
X12915D2*
X13860D1*
X16926D2*
X17978D1*
X22208D2*
X23297D1*
X27921D2*
X28645D1*
X7609Y30058D2*
X9936D1*
X12915D2*
X13860D1*
X16926D2*
X17625D1*
X28196D2*
X28640D1*
X7609Y29759D2*
X9936D1*
X12915D2*
X13860D1*
X16926D2*
X17605D1*
X28208D2*
X28640D1*
X7609Y29460D2*
X9936D1*
X12915D2*
X13860D1*
X16926D2*
X17605D1*
X18522D2*
X19819D1*
X25739D2*
X27295D1*
X28208D2*
X28640D1*
X7609Y29162D2*
X9936D1*
X12915D2*
X13860D1*
X16926D2*
X17605D1*
X18989D2*
X19819D1*
X25739D2*
X26848D1*
X28208D2*
X28640D1*
X7609Y28863D2*
X9936D1*
X12915D2*
X14147D1*
X15876D2*
X17605D1*
X19223D2*
X19819D1*
X25739D2*
X26610D1*
X28208D2*
X28640D1*
X680Y28564D2*
X3661D1*
X7609D2*
X9936D1*
X12915D2*
X14147D1*
X15876D2*
X17605D1*
X19276D2*
X19819D1*
X23078D2*
X24367D1*
X25739D2*
X26557D1*
X28208D2*
X29112D1*
X680Y28266D2*
X1721D1*
X3450D2*
X3661D1*
X7609D2*
X9936D1*
X12915D2*
X14147D1*
X16803D2*
X17605D1*
X19190D2*
X19819D1*
X21195D2*
X22345D1*
X25739D2*
X26639D1*
X28208D2*
X28813D1*
X680Y27967D2*
X1721D1*
X12710D2*
X14147D1*
X16963D2*
X17605D1*
X19170D2*
X19819D1*
X25739D2*
X26664D1*
X28208D2*
X28669D1*
X680Y27668D2*
X1721D1*
X12710D2*
X14147D1*
X16939D2*
X17605D1*
X19272D2*
X19819D1*
X25739D2*
X26561D1*
X28208D2*
X28669D1*
X680Y27370D2*
X1721D1*
X12657D2*
X14147D1*
X16840D2*
X17674D1*
X25965D2*
X26594D1*
X28147D2*
X28669D1*
X680Y27071D2*
X1721D1*
X3450D2*
X3665D1*
X12915D2*
X14147D1*
X16840D2*
X17822D1*
X26314D2*
X26557D1*
X680Y26772D2*
X1721D1*
X3450D2*
X3657D1*
X7609D2*
X9936D1*
X16840D2*
X17822D1*
X680Y26474D2*
X1721D1*
X7609D2*
X9936D1*
X16840D2*
X17822D1*
X680Y26175D2*
X1721D1*
X7609D2*
X9936D1*
X16840D2*
X17822D1*
X680Y25876D2*
X1721D1*
X7609D2*
X9936D1*
X16840D2*
X18855D1*
X26273D2*
X27984D1*
X680Y25578D2*
X1721D1*
X7609D2*
X9936D1*
X12915D2*
X14147D1*
X16840D2*
X18872D1*
X26256D2*
X27886D1*
X38723D2*
X40320D1*
X680Y25279D2*
X1721D1*
X3450D2*
X3911D1*
X7609D2*
X9936D1*
X12915D2*
X15923D1*
X16840D2*
X19188D1*
X25998D2*
X27857D1*
X39851D2*
X40320D1*
X680Y24980D2*
X1721D1*
X3450D2*
X3669D1*
X12915D2*
X15923D1*
X16840D2*
X21472D1*
X26207D2*
X28013D1*
X680Y24681D2*
X3653D1*
X12514D2*
X15923D1*
X16840D2*
X21570D1*
X26519D2*
X27164D1*
X680Y24383D2*
X3776D1*
X12514D2*
X15923D1*
X16840D2*
X21607D1*
X26687D2*
X27164D1*
X680Y24084D2*
X3776D1*
X12514D2*
X15923D1*
X16840D2*
X21607D1*
X26687D2*
X27164D1*
X34651D2*
X35411D1*
X680Y23785D2*
X3776D1*
X11792D2*
X15923D1*
X34651D2*
X35333D1*
X680Y23487D2*
X3776D1*
X12604D2*
X15923D1*
X680Y23188D2*
X3776D1*
X4689D2*
X5096D1*
X12604D2*
X15923D1*
X680Y22889D2*
X3776D1*
X4689D2*
X5039D1*
X12604D2*
X15841D1*
X31608D2*
X33291D1*
X680Y22591D2*
X3776D1*
X14363D2*
X15792D1*
X31719D2*
X33291D1*
X680Y22292D2*
X3776D1*
X31694D2*
X33291D1*
X680Y21993D2*
X3776D1*
X33109D2*
X33286D1*
X680Y21695D2*
X3776D1*
X33109D2*
X33286D1*
X680Y21396D2*
X3776D1*
X11767D2*
X13368D1*
X14544D2*
X15808D1*
X33109D2*
X33286D1*
X680Y21097D2*
X3776D1*
X14544D2*
X15812D1*
X33109D2*
X33286D1*
X680Y20799D2*
X3776D1*
X14544D2*
X15944D1*
X33109D2*
X33394D1*
X680Y20500D2*
X3776D1*
X14544D2*
X15944D1*
X18345D2*
X18736D1*
X19325D2*
X28189D1*
X33109D2*
X33394D1*
X680Y20201D2*
X3661D1*
X14544D2*
X15944D1*
X18345D2*
X28357D1*
X680Y19902D2*
X3661D1*
X680Y19604D2*
X3858D1*
X4607D2*
X5121D1*
X38863D2*
X40320D1*
X680Y19305D2*
X5121D1*
X8244D2*
X15197D1*
X38563D2*
X40320D1*
X680Y19006D2*
X12273D1*
X28520D2*
X40320D1*
X680Y18708D2*
X12273D1*
X27696D2*
X40320D1*
X680Y18409D2*
X12273D1*
X27720D2*
X40320D1*
X16883Y23830D2*
X19185D1*
X19211Y23836D1*
X21635D1*
X21636Y24638D1*
X21590Y24696D1*
X21533Y24814D1*
X21504Y24941D1*
X21505Y25072D1*
X21510Y25110D1*
X20039Y25114D1*
X19477Y25116D1*
Y25268D1*
X19312D1*
X19183Y25288D1*
X19066Y25346D1*
X18972Y25437D1*
X18910Y25552D1*
X18886Y25695D1*
Y25904D1*
X17852Y25903D1*
Y27228D1*
X17732Y27330D1*
X17666Y27443D1*
X17636Y27600D1*
Y29933D1*
X17656Y30062D1*
X17714Y30179D1*
X17805Y30273D1*
X17920Y30335D1*
X18063Y30360D1*
X18625D1*
X18544Y30445D1*
X18044Y30449D1*
X17613Y30445D1*
X17374D1*
Y30580D1*
X16899Y30577D1*
X16897Y30207D1*
Y29105D1*
X15110D1*
Y29124D1*
X13892Y29123D1*
Y30454D1*
X12886Y30453D1*
X12888Y28040D1*
X12678D1*
X12681Y27610D1*
X12666Y27480D1*
X12620Y27357D1*
X12498Y27189D1*
X12888D1*
X12890Y26894D1*
X14182D1*
X14178Y27169D1*
X15847D1*
Y25501D1*
X14178D1*
Y25775D1*
X12884Y25776D1*
X12888Y25220D1*
Y24693D1*
X12482D1*
X12484Y23910D1*
X11758D1*
X11762Y23792D1*
X11770Y23783D1*
X11825Y23779D1*
X11914Y23783D1*
X12573D1*
Y22608D1*
X13666Y22605D1*
X14097Y22609D1*
X14335D1*
Y22564D1*
X15828Y22562D1*
X15824Y22725D1*
X15856Y22852D1*
X15916Y22968D1*
X15956Y23015D1*
X15955Y27497D1*
X15910Y27558D1*
X15847Y27695D1*
Y27233D1*
X14178D1*
Y28902D1*
X15847D1*
Y28035D1*
X15916Y28177D1*
X16002Y28276D1*
X16108Y28353D1*
X16229Y28403D1*
X16358Y28424D1*
X16489Y28414D1*
X16614Y28374D1*
X16726Y28307D1*
X16819Y28215D1*
X16889Y28104D1*
X16931Y27980D1*
X16944Y27862D1*
X16929Y27732D1*
X16884Y27609D1*
X16809Y27497D1*
Y23019D1*
X16856Y22948D1*
X16857Y23830D1*
X16883D1*
X11729Y21382D2*
X11753Y21378D1*
X11842Y21382D1*
X12422D1*
Y21364D1*
X13121Y21361D1*
X13400Y21365D1*
X13397Y21435D1*
X14515D1*
Y20163D1*
X15948D1*
X15975Y20278D1*
Y20873D1*
X15910Y20955D1*
X15852Y21073D1*
X15823Y21200D1*
X15824Y21331D1*
X15856Y21458D1*
X15896Y21535D1*
X14760Y21538D1*
X14337D1*
X14335Y21491D1*
X13178Y21495D1*
X12747Y21491D1*
X12509D1*
Y21585D1*
X12498Y21538D1*
X11792D1*
X11752Y21420D1*
X11727Y21383D1*
X11763Y21382D1*
X26656Y24075D2*
X27198D1*
X27194Y24204D1*
Y24873D1*
X28191D1*
X28052Y24970D1*
X27968Y25071D1*
X27911Y25189D1*
X27882Y25316D1*
X27883Y25447D1*
X27915Y25574D1*
X27975Y25691D1*
X28015Y25737D1*
X28014Y26750D1*
X28034Y26879D1*
X28092Y26996D1*
X28183Y27090D1*
X28298Y27152D1*
X28440Y27177D1*
X28699D1*
X28698Y27944D1*
X28718Y28073D1*
X28779Y28193D1*
X28916Y28339D1*
X29325Y28747D1*
X28670Y28748D1*
Y30142D1*
X28739D1*
X28704Y30228D1*
X28675Y30356D1*
X28671Y30487D1*
X28691Y30617D1*
X28735Y30740D1*
X28802Y30853D1*
X28880Y30942D1*
X28756Y31108D1*
X28704Y31228D1*
X28675Y31356D1*
X28671Y31487D1*
X28691Y31617D1*
X28735Y31740D1*
X28800Y31850D1*
X19671D1*
X19723Y31713D1*
X19732Y31628D1*
X20311Y31624D1*
X20631D1*
Y31642D1*
X21749D1*
X21752Y31491D1*
X21881Y31471D1*
X21999Y31413D1*
X22093Y31322D1*
X22155Y31207D1*
X22179Y31064D1*
Y30322D1*
X22232Y30316D1*
X22350Y30320D1*
X23326D1*
Y31126D1*
X23346Y31256D1*
X23404Y31373D1*
X23495Y31467D1*
X23610Y31529D1*
X23742Y31553D1*
X23756Y31579D1*
Y31687D1*
X24441D1*
X24444Y31705D1*
X25561D1*
Y31684D1*
X26249Y31687D1*
Y30743D1*
X26285Y30681D1*
X26327Y30557D1*
X26340Y30439D1*
X26332Y30378D1*
X27753Y30380D1*
X27882Y30360D1*
X27999Y30302D1*
X28093Y30211D1*
X28155Y30096D1*
X28180Y29953D1*
Y27596D1*
X28160Y27467D1*
X28102Y27350D1*
X28019Y27263D1*
X27980Y27161D1*
Y25899D1*
X26587D1*
Y25985D1*
X26241Y25983D1*
X26244Y25699D1*
X26224Y25570D1*
X26166Y25453D1*
X26086Y25368D1*
X25969Y25301D1*
X25967Y25120D1*
X25429D1*
X25428Y25110D1*
X24310Y25114D1*
X24293Y25110D1*
X24055D1*
X24096Y25053D1*
X25941D1*
X26070Y25033D1*
X26190Y24972D1*
X26336Y24835D1*
X26521Y24649D1*
X26563Y24638D1*
X26657D1*
Y24076D1*
X2531Y31110D2*
X3748D1*
Y30991D1*
X4023Y30992D1*
X4880Y31852D1*
X650Y31850D1*
Y18151D1*
X12307Y18150D1*
X12303Y18722D1*
Y19197D1*
X13697D1*
Y19127D1*
X13868Y19184D1*
X13998Y19197D1*
X14128Y19185D1*
X14254Y19149D1*
X14371Y19089D1*
X14500Y18982D1*
X14625Y19087D1*
X14742Y19147D1*
X14868Y19184D1*
X14998Y19197D1*
X15108Y19187D1*
X15231Y19309D1*
X8237D1*
X8136Y19297D1*
X6975D1*
X6976Y19166D1*
X5819Y19170D1*
X5388Y19166D1*
X5150D1*
X5148Y19701D1*
X4824Y20029D1*
X4794Y20047D1*
X4779Y19917D1*
X4734Y19794D1*
X4662Y19685D1*
X4566Y19595D1*
X4453Y19530D1*
X4327Y19493D1*
X4196Y19486D1*
X4068Y19510D1*
X3948Y19563D1*
X3843Y19642D1*
X3760Y19743D1*
X3702Y19860D1*
X3673Y19988D1*
X3675Y20119D1*
X3707Y20246D1*
X3767Y20362D1*
X3807Y20409D1*
X3805Y24431D1*
X3760Y24495D1*
X3702Y24612D1*
X3673Y24740D1*
X3675Y24871D1*
X3707Y24998D1*
X3767Y25114D1*
X3852Y25213D1*
X3958Y25290D1*
X4079Y25340D1*
X4209Y25361D1*
X4339Y25351D1*
X4464Y25311D1*
X4576Y25244D1*
X4661Y25161D1*
X4657Y25382D1*
X3423D1*
X3421Y24965D1*
X1752D1*
Y26634D1*
X3421D1*
Y26498D1*
X3843Y26504D1*
X3760Y26605D1*
X3702Y26722D1*
X3673Y26850D1*
X3675Y26981D1*
X3704Y27096D1*
X3424Y27095D1*
X3421Y26697D1*
X1752D1*
Y28366D1*
X3421D1*
Y28214D1*
X3689Y28212D1*
Y28650D1*
X3512Y28654D1*
X741Y28658D1*
Y31114D1*
X2528Y31110D1*
X21164Y28448D2*
X21166Y28194D1*
X21732Y28190D1*
X22166Y28194D1*
X22232Y28190D1*
X22395Y28298D1*
X22498Y28406D1*
X22490Y28447D1*
X21164Y28442D1*
X21160Y28256D1*
X21272Y28194D1*
X22232D1*
X20004Y27508D2*
X19850D1*
Y29492D1*
X19936D1*
X19809Y29506D1*
X18492D1*
X18494Y29294D1*
X18625Y29292D1*
X18754Y29266D1*
X18875Y29216D1*
X18984Y29144D1*
X19078Y29052D1*
X19154Y28945D1*
X19208Y28826D1*
X19238Y28698D1*
X19245Y28574D1*
X19228Y28444D1*
X19186Y28319D1*
X19123Y28205D1*
X19033Y28099D1*
X19111Y28011D1*
X19178Y27899D1*
X19223Y27776D1*
X19245Y27600D1*
X19233Y27469D1*
X19218Y27418D1*
X19312Y27428D1*
X19899D1*
X20005Y27506D1*
X25710Y28744D2*
Y27508D1*
X25550D1*
X25602Y27366D1*
X25754Y27392D1*
X25884Y27382D1*
X26009Y27343D1*
X26121Y27275D1*
X26215Y27184D1*
X26285Y27073D1*
X26327Y26949D1*
X26342Y26837D1*
X26584D1*
X26587Y27293D1*
X26657D1*
X26622Y27380D1*
X26593Y27507D1*
X26588Y27638D1*
X26609Y27768D1*
X26653Y27891D1*
X26719Y28004D1*
X26797Y28093D1*
X26701Y28214D1*
X26640Y28330D1*
X26601Y28456D1*
X26587Y28586D1*
X26598Y28717D1*
X26632Y28843D1*
X26690Y28961D1*
X26769Y29065D1*
X26866Y29153D1*
X26978Y29222D1*
X27100Y29268D1*
X27229Y29291D1*
X27327D1*
X27326Y29528D1*
X24730Y29526D1*
X24736Y29492D1*
X25710D1*
X25709Y28256D1*
X24395Y28488D2*
X24399Y28744D1*
X24395Y28808D1*
X23772Y28813D1*
X23522Y28809D1*
X23174D1*
X23163Y28759D1*
X23109Y28640D1*
X23007Y28532D1*
X23015Y28491D1*
X24395Y28492D1*
Y28755D1*
X24232Y28809D1*
X23272Y28813D1*
X23171Y28809D1*
X23159Y28745D1*
X23101Y28628D1*
X23010Y28534D1*
X33078Y21114D2*
X33081Y20241D1*
X33418Y20239D1*
X33421Y20466D1*
Y21003D1*
X33315Y21004D1*
X33319Y22832D1*
X33317Y23008D1*
X33285Y23040D1*
X31551Y23038D1*
X31508Y23023D1*
X31480Y22999D1*
X31562Y22911D1*
X31629Y22799D1*
X31674Y22676D1*
X31697Y22500D1*
X31684Y22370D1*
X31635Y22218D1*
X33081Y22217D1*
X33080Y20863D1*
X5068Y22813D2*
Y23130D1*
X5130D1*
X5126Y23226D1*
X5048Y23207D1*
X4917Y23200D1*
X4788Y23223D1*
X4658Y23283D1*
X4659Y20415D1*
X4729Y20307D1*
X4731Y22303D1*
X4751Y22432D1*
X4812Y22552D1*
X4948Y22698D1*
X5067Y22817D1*
X38697Y31848D2*
Y31381D1*
X38802Y31302D1*
X38915Y31189D1*
X38998Y31197D1*
X39128Y31185D1*
X39254Y31149D1*
X39371Y31089D1*
X39500Y30982D1*
X39561Y31041D1*
X39670Y31114D1*
X39791Y31165D1*
X39919Y31192D1*
X40050Y31195D1*
X40180Y31173D1*
X40303Y31128D1*
X40350Y31103D1*
Y31849D1*
X38700Y31850D1*
X38483Y26000D2*
X38562Y25911D1*
X38629Y25799D1*
X38674Y25676D1*
X38697Y25500D1*
X38690Y25431D1*
X39500Y25427D1*
X39629Y25407D1*
X39746Y25349D1*
X39833Y25266D1*
X39893Y25188D1*
X40024Y25196D1*
X40154Y25179D1*
X40279Y25138D1*
X40350Y25103D1*
Y25804D1*
X39303Y25803D1*
Y25873D1*
X39174Y25825D1*
X39044Y25805D1*
X38913Y25809D1*
X38785Y25837D1*
X38665Y25889D1*
X38557Y25963D1*
X38502Y26018D1*
X28690Y19408D2*
X28657Y19268D1*
X28602Y19149D1*
X28526Y19043D1*
X28431Y18952D1*
X28321Y18881D1*
X28199Y18832D1*
X28071Y18807D1*
X27940Y18806D1*
X27811Y18830D1*
X27688Y18877D1*
X27577Y18946D1*
X27499Y19015D1*
X27629Y18799D1*
X27674Y18676D1*
X27697Y18500D1*
X27684Y18370D1*
X27648Y18244D1*
X27601Y18152D1*
X29371Y18150D1*
X40350D1*
Y19800D1*
X39384Y19803D1*
X39303D1*
Y19873D1*
X39174Y19825D1*
X39032Y19805D1*
X38489Y19261D1*
X38384Y19183D1*
X38256Y19142D1*
X38056Y19136D1*
X29138D1*
X29009Y19156D1*
X28889Y19217D1*
X28744Y19353D1*
X28688Y19408D1*
X8378Y31246D2*
Y31177D1*
X6984D1*
Y31313D1*
X5922Y31315D1*
X5146Y30536D1*
X6230Y30535D1*
X7580D1*
Y28169D1*
X9967Y28171D1*
Y30535D1*
X10233D1*
X10236Y31319D1*
X10091Y31311D1*
X9978Y31244D1*
X9855Y31199D1*
X9725Y31179D1*
X9595Y31183D1*
X9467Y31211D1*
X9346Y31263D1*
X9238Y31337D1*
X9183Y31392D1*
X9091Y31311D1*
X8978Y31244D1*
X8855Y31199D1*
X8725Y31179D1*
X8595Y31183D1*
X8467Y31211D1*
X8378Y31247D1*
X35308Y23456D2*
X35305Y23542D1*
X35325Y23672D1*
X35369Y23795D1*
X35435Y23908D1*
X35514Y23997D1*
X35390Y24163D1*
X35338Y24284D1*
X35309Y24411D1*
X35305Y24542D1*
X35325Y24672D1*
X35354Y24753D1*
X35302Y24714D1*
Y24620D1*
X35282Y24491D1*
X35224Y24374D1*
X35133Y24280D1*
X35018Y24218D1*
X34875Y24193D1*
X34621Y24188D1*
Y23590D1*
X35145D1*
Y23455D1*
X35301Y23458D1*
X18313Y20893D2*
X18316Y20197D1*
X19697D1*
Y20127D1*
X19868Y20184D1*
X19998Y20197D1*
X20128Y20185D1*
X20254Y20149D1*
X20371Y20089D1*
X20500Y19982D1*
X20625Y20087D1*
X20742Y20147D1*
X20868Y20184D1*
X20998Y20197D1*
X21128Y20185D1*
X21254Y20149D1*
X21371Y20089D1*
X21500Y19982D1*
X21625Y20087D1*
X21742Y20147D1*
X21868Y20184D1*
X21998Y20197D1*
X22128Y20185D1*
X22254Y20149D1*
X22371Y20089D1*
X22500Y19982D1*
X22561Y20041D1*
X22670Y20114D1*
X22791Y20165D1*
X22919Y20192D1*
X23050Y20195D1*
X23180Y20173D1*
X23303Y20128D1*
X23415Y20060D1*
X23500Y19985D1*
X23625Y20087D1*
X23742Y20147D1*
X23868Y20184D1*
X23998Y20197D1*
X24128Y20185D1*
X24254Y20149D1*
X24371Y20089D1*
X24500Y19982D1*
X24625Y20087D1*
X24742Y20147D1*
X24868Y20184D1*
X24998Y20197D1*
X25128Y20185D1*
X25254Y20149D1*
X25371Y20089D1*
X25500Y19982D1*
X25625Y20087D1*
X25742Y20147D1*
X25868Y20184D1*
X25998Y20197D1*
X26128Y20185D1*
X26254Y20149D1*
X26371Y20089D1*
X26500Y19982D1*
X26625Y20087D1*
X26742Y20147D1*
X26868Y20184D1*
X26998Y20197D1*
X27128Y20185D1*
X27254Y20149D1*
X27371Y20089D1*
X27500Y19982D1*
X27561Y20041D1*
X27670Y20114D1*
X27791Y20165D1*
X27919Y20192D1*
X28050Y20195D1*
X28180Y20173D1*
X28303Y20128D1*
X28389Y20078D1*
Y20496D1*
X28281Y20492D1*
X28152Y20516D1*
X28032Y20568D1*
X27957Y20625D1*
X20226Y20626D1*
X20111Y20581D1*
X20012Y20569D1*
X19401D1*
X19252Y20479D1*
X19126Y20442D1*
X18996Y20435D1*
X18867Y20459D1*
X18747Y20511D1*
X18643Y20590D1*
X18559Y20691D1*
X18502Y20809D1*
X18473Y20937D1*
Y20990D1*
X18318Y20992D1*
X18315Y20406D1*
Y20200D1*
X7580Y27053D2*
Y25069D1*
X9924Y25071D1*
X9969D1*
X9967Y26530D1*
Y27051D1*
X7582D1*
X17750Y23830D2*
Y23154D1*
X16857D2*
X17750D1*
X18921Y23830D2*
Y23154D1*
X20079Y23836D2*
Y23159D1*
X21230Y23836D2*
Y23159D1*
X11843Y21381D2*
Y20823D1*
X11955Y23783D2*
Y23126D1*
X12572D1*
X14785Y29800D2*
Y29123D1*
X13892Y29800D2*
X14785D1*
X16003Y29782D2*
Y29105D1*
Y29782D2*
X16896D1*
X2854Y29331D2*
Y28654D1*
X1635Y29335D2*
Y28658D1*
X742Y29335D2*
X1635D1*
X19850Y28126D2*
X21164D1*
X25052Y29491D2*
Y28874D1*
X24396D2*
X25709D1*
X32188Y22216D2*
Y21540D1*
X33080D1*
X15013Y28901D2*
Y27233D1*
X14179Y28067D2*
X15847D1*
X23000Y20196D2*
Y19500D1*
X28000Y20196D2*
Y18804D1*
Y19500D2*
X28696D1*
X40000Y25196D2*
Y24500D1*
Y31196D2*
Y30500D1*
X8681Y31874D2*
Y31178D1*
X18549Y29296D2*
Y28600D1*
X19245D1*
X27284Y29292D2*
Y28596D1*
X26588D2*
X27284D1*
X29366Y29445D2*
Y28749D1*
X28670Y29445D2*
X29366D1*
X13956Y21435D2*
Y20857D1*
X14514D1*
X21161Y25689D2*
Y25111D1*
X24338Y25689D2*
Y25111D1*
X34062Y23951D2*
X34621D1*
X33422Y20500D2*
X34000D1*
X6795Y30535D2*
Y29287D1*
X7580D1*
X23252Y30320D2*
Y28809D1*
X22252Y30320D2*
Y29565D1*
D19*
X9363Y20139D3*
X10032D3*
D20*
X17750Y22051D3*
Y23154D3*
X18921Y22051D3*
Y23154D3*
X20079Y22057D3*
Y23159D3*
X21230Y22057D3*
Y23159D3*
D19*
X11192Y20181D3*
X11861D3*
D21*
X6408Y20810D3*
X5660D3*
D19*
X11174Y20823D3*
X11843D3*
D21*
X11207Y23126D3*
X11955D3*
D22*
X26957Y23457D3*
Y22709D3*
X24492Y22811D3*
Y23559D3*
D20*
X14785Y29800D3*
Y30902D3*
X16003Y29782D3*
Y30884D3*
D21*
X5764Y24559D3*
X6512D3*
X11118Y24567D3*
X11866D3*
D23*
X20598Y25689D3*
Y26358D3*
X20440Y30376D3*
Y31046D3*
D20*
X2854Y30433D3*
Y29331D3*
X1635Y30437D3*
Y29335D3*
D23*
X24869Y25689D3*
Y26358D3*
X25003Y30457D3*
Y31126D3*
D21*
X34567Y28327D3*
X33819D3*
D20*
X32437Y27502D3*
Y28604D3*
D23*
X33187Y24602D3*
Y23933D3*
D22*
X20507Y28126D3*
Y28874D3*
X25052Y28126D3*
Y28874D3*
D20*
X29813Y20438D3*
Y21540D3*
X32188Y20438D3*
Y21540D3*
D22*
X30000Y26750D3*
Y27498D3*
D25*
X2587Y27531D3*
Y25799D3*
X15013Y28067D3*
Y26335D3*
D27*
X6414Y22650D3*
X5548D3*
D28*
X36240Y31250D3*
Y30659D3*
D29*
X38000Y31500D3*
D30*
X37000D3*
X38000Y30500D3*
X37000D3*
X38000Y29500D3*
X37000D3*
X38000Y28500D3*
X37000D3*
X38000Y27500D3*
X37000D3*
X38000Y26500D3*
X37000D3*
X38000Y25500D3*
X37000D3*
X38000Y24500D3*
X37000D3*
X38000Y23500D3*
X37000D3*
X38000Y22500D3*
X37000D3*
X38000Y21500D3*
X37000D3*
X38000Y20500D3*
X37000D3*
D29*
X19000Y19500D3*
D30*
X20000D3*
X21000D3*
X22000D3*
X23000D3*
X24000D3*
X25000D3*
X26000D3*
X27000D3*
X28000D3*
D29*
X40000Y20500D3*
D30*
X39000D3*
X40000Y21500D3*
X39000D3*
X40000Y22500D3*
X39000D3*
X40000Y23500D3*
X39000D3*
X40000Y24500D3*
X39000D3*
D29*
X40000Y26500D3*
D30*
X39000D3*
X40000Y27500D3*
X39000D3*
X40000Y28500D3*
X39000D3*
X40000Y29500D3*
X39000D3*
X40000Y30500D3*
X39000D3*
D29*
X7681Y31874D3*
D30*
X8681D3*
X9681D3*
D29*
X18549Y26600D3*
D30*
Y27600D3*
Y28600D3*
D29*
X27284Y26596D3*
D30*
Y27596D3*
Y28596D3*
D29*
X34500Y30500D3*
D30*
Y31500D3*
D29*
X29366Y29445D3*
D30*
Y30445D3*
Y31445D3*
D29*
X29378Y22501D3*
D30*
Y23501D3*
Y24501D3*
Y25501D3*
D29*
X36000Y20500D3*
D30*
Y21500D3*
Y22500D3*
Y23500D3*
Y24500D3*
Y25500D3*
Y26500D3*
Y27500D3*
D29*
X31000Y20500D3*
D30*
Y21500D3*
Y22500D3*
Y23500D3*
Y24500D3*
Y25500D3*
Y26500D3*
Y27500D3*
D29*
X13000Y18500D3*
D30*
X14000D3*
X15000D3*
X16000D3*
X17000D3*
X18000D3*
X19000D3*
X20000D3*
X21000D3*
X22000D3*
X23000D3*
X24000D3*
X25000D3*
X26000D3*
X27000D3*
D32*
X31201Y31594D3*
Y30846D3*
X32106Y31220D3*
D19*
X8809Y20703D3*
X8140D3*
X8805Y20139D3*
X8136D3*
X10032Y20709D3*
X9363D3*
D23*
X13956Y20857D3*
Y20187D3*
D19*
X13212Y20806D3*
X12542D3*
X13210Y20190D3*
X12540D3*
X5699Y21408D3*
X6368D3*
X11250Y22096D3*
X11919D3*
X5711Y21994D3*
X6380D3*
X13757Y22050D3*
X13087D3*
X5705Y23174D3*
X6374D3*
X5719Y23761D3*
X6388D3*
X23750Y22062D3*
X24419D3*
X23125D3*
X22456D3*
D23*
X27753Y23626D3*
Y24295D3*
Y22250D3*
Y22920D3*
X21161Y25689D3*
Y26358D3*
X22260Y25689D3*
Y26358D3*
X20036Y26364D3*
Y25695D3*
X21190Y31064D3*
Y30395D3*
X21696Y25689D3*
Y26358D3*
X19752Y30376D3*
Y31046D3*
X24338Y25689D3*
Y26358D3*
X23252Y25689D3*
Y26358D3*
X25408Y26368D3*
Y25699D3*
X24315Y31108D3*
Y30439D3*
X23796Y25689D3*
Y26358D3*
X25690Y30439D3*
Y31108D3*
X31059Y28624D3*
Y29293D3*
D19*
X30522Y29872D3*
X31191D3*
X35591Y28406D3*
X36260D3*
D23*
X34062Y23951D3*
Y24620D3*
X32437Y24558D3*
Y25227D3*
X30541Y31594D3*
Y30925D3*
D19*
X18622Y31004D3*
X17953D3*
Y31594D3*
X18622D3*
X34000Y20500D3*
X34669D3*
X34563Y21563D3*
X33893D3*
D23*
X17756Y20315D3*
Y20984D3*
D19*
X34567Y22274D3*
X33898D3*
X34567Y23031D3*
X33898D3*
D23*
X32224Y29833D3*
Y30502D3*
X36250Y29341D3*
Y30010D3*
X7047Y23720D3*
Y23051D3*
D19*
X6398Y19724D3*
X5728D3*
D34*
X5445Y25941D3*
X6795D3*
Y29287D3*
X5445D3*
X10752Y25941D3*
X12102D3*
Y29287D3*
X10752D3*
D35*
X10105Y21531D3*
Y21787D3*
Y22043D3*
Y22299D3*
Y22555D3*
Y22811D3*
Y23067D3*
Y23323D3*
Y23579D3*
Y23835D3*
X7822D3*
Y23579D3*
Y23323D3*
Y23067D3*
Y22811D3*
Y22555D3*
Y22299D3*
Y22043D3*
Y21787D3*
Y21531D3*
D36*
X8964Y22683D3*
D37*
X34750Y25495D3*
Y26401D3*
Y27306D3*
D38*
X32467Y26401D3*
D39*
X25449Y22268D3*
X25705D3*
X25961D3*
X26217D3*
Y24000D3*
X25961D3*
X25705D3*
X25449D3*
D32*
X23565Y22813D3*
Y23561D3*
X22659Y23187D3*
D40*
X21252Y27439D3*
X21752D3*
X22252D3*
X22752D3*
X23252D3*
X23752D3*
X24252D3*
Y29565D3*
X23752D3*
X23252D3*
X22752D3*
X22252D3*
X21752D3*
X21252D3*
X75688Y20438D2*
D13*
X74562D1*
X74500Y20500D1*
X73375D1*
X73313Y20438D1*
X67919Y22062D2*
Y21504D1*
D14*
X64720D1*
X63579D1*
X62421D1*
X61312D1*
X61256D1*
X60512D1*
X59966Y22050D1*
X57257D1*
X68929Y21504D2*
X67919D1*
X61250Y22051D2*
D13*
X62421D1*
X63573D1*
X63579Y22057D1*
X64730D1*
X74559Y28624D2*
X73967D1*
X73857Y28514D1*
X63579Y22057D2*
D14*
Y21504D1*
X62421Y22051D2*
Y21504D1*
X61250Y22051D2*
Y21566D1*
X61312Y21504D1*
X64730Y22057D2*
D13*
X65950D1*
X65956Y22062D1*
X64730Y22057D2*
D14*
X64720D1*
Y21504D1*
X61256Y20984D2*
Y21504D1*
X45135Y30437D2*
X46354D1*
Y30433D1*
D15*
X47748D1*
Y27654D1*
X46209D1*
X46087Y27531D1*
X51181Y31874D2*
X49193D1*
X47752Y30433D1*
X47748Y27654D2*
D13*
Y26894D1*
X47732Y26909D1*
Y24799D2*
Y20047D1*
X50969Y20232D2*
Y20358D1*
X51295Y20685D1*
X51622D1*
X51640Y20703D1*
X61453Y31594D2*
X61319D1*
X61043Y31870D1*
X54925D1*
X73500Y26750D2*
X72625D1*
Y27944D1*
X74022Y29341D1*
Y29872D1*
X72625Y26750D2*
X71940D1*
Y25376D1*
Y24313D2*
X71271D1*
X71253Y24295D1*
X73500Y26750D2*
X74250D1*
X74500Y26500D1*
X77398Y23031D2*
Y22274D1*
X77393Y21563D2*
Y22274D1*
X77398D1*
X74500Y26500D2*
X75000Y26000D1*
Y23520D1*
X75055Y23465D1*
X76965D1*
X77398Y23031D1*
X58500Y18500D2*
X58526D1*
X59100Y19075D1*
X61020D1*
X62531Y20996D2*
X63512D1*
Y21053D1*
X71817D1*
X58285Y30902D2*
D14*
X59485D1*
D13*
X59503Y30884D1*
X53181Y31874D2*
D15*
X54295D1*
Y31012D1*
Y29331D1*
X54252Y29287D1*
X58285Y30902D2*
Y31012D1*
X54295D1*
X61453Y31004D2*
D13*
X59623D1*
X59503Y30884D1*
Y31141D1*
X59858Y31496D1*
X59882Y27862D2*
Y22654D1*
Y21260D2*
X59902D1*
Y20016D1*
X59622Y19736D1*
X51636D1*
Y20139D1*
X49898Y19724D2*
X51636D1*
X80500Y30500D2*
X81000Y31000D1*
X82000D1*
X82500Y30500D1*
X81500D2*
X82500Y29500D1*
X81500D2*
X82500Y28500D1*
X81500D2*
X82500Y27500D1*
X81500D2*
X82500Y26500D1*
X80500Y25500D2*
X81000Y25000D1*
X83000D1*
Y24000D1*
X83500Y23500D1*
Y22500D2*
X83000Y23000D1*
X81120D1*
X81000Y23120D1*
Y24000D1*
X80500Y24500D1*
X81500D2*
X82500Y23500D1*
X68949Y22268D2*
X68898D1*
X68692Y22062D1*
X68625D1*
X68562Y22000D1*
X65752Y27439D2*
Y27138D1*
X66127Y26762D1*
Y24778D1*
X66530Y24376D1*
X68876D1*
X68949Y24303D1*
Y24000D1*
X69717D2*
Y24350D1*
X69441Y24626D1*
X66677D1*
X66377Y24926D1*
Y26751D1*
X66752Y27126D1*
Y27438D1*
Y27439D1*
X53605Y22299D2*
X54547D1*
X54750Y22096D1*
Y21673D1*
X76687Y23933D2*
X77544D1*
X77562Y23951D1*
X75937Y28604D2*
X76069D1*
Y28327D1*
X77319D1*
X77500Y20500D2*
X76688D1*
X76563Y20625D1*
Y21465D1*
X76465Y21562D1*
X75710D1*
X75688Y21540D1*
X74701Y30846D2*
X74120D1*
X74041Y30925D1*
X75937Y28604D2*
X75114D1*
Y27500D1*
X75252D1*
Y24154D1*
X75473Y23933D1*
X76687D1*
X83500Y30500D2*
X84000Y30000D1*
Y25000D1*
X83500Y24500D1*
X74041Y30925D2*
X73496D1*
Y32002D1*
X72402D1*
Y29949D1*
X72866Y29484D1*
Y29445D1*
X67065Y23561D2*
X67992D1*
Y23559D1*
X68552Y28874D2*
X66817D1*
X66752Y28939D1*
Y29564D1*
Y29565D1*
X64007Y28126D2*
X64752D1*
X65127Y28501D1*
X66502D1*
X66817Y28816D1*
Y28874D1*
X65752Y29565D2*
Y31064D1*
X66000D1*
X66752D1*
Y29565D1*
X67838Y25689D2*
Y25251D1*
X71253D1*
Y27071D1*
X70253D1*
Y28596D1*
X70784D1*
X62049Y28600D2*
X62565D1*
Y27083D1*
X61564D1*
Y25188D1*
X64940D1*
X64661D1*
Y25689D1*
X64007Y28126D2*
Y28001D1*
X63502D1*
X62903Y28600D1*
X62049D1*
X68552Y28874D2*
X69630D1*
X69908Y28596D1*
X70784D1*
X67065Y23561D2*
X66317D1*
X66065Y23813D1*
X64940D2*
Y25188D1*
X74500Y21500D2*
X73352D1*
X73313Y21540D1*
X74500Y21500D2*
X75648D1*
X75688Y21540D1*
X73500Y27498D2*
X74498D1*
X74500Y27500D1*
X75114D1*
X73500Y27498D2*
Y27563D1*
X73188Y27875D1*
X59500Y18500D2*
X60500D1*
X49211Y21994D2*
Y21420D1*
X49199Y21408D1*
Y20849D1*
X49160Y20810D1*
Y20575D1*
X49483Y20252D1*
X50297D1*
X50928Y20883D1*
Y21179D1*
X51322D1*
X52500D1*
Y21846D1*
Y22647D1*
X52464Y22683D1*
X51322Y21531D2*
Y21179D1*
X58285Y29800D2*
D14*
X59485D1*
D13*
X59503Y29782D1*
X45135Y29335D2*
D14*
X46354D1*
Y29331D1*
X58513Y28067D2*
D15*
Y28791D1*
X59503Y29782D1*
X57456Y20857D2*
D13*
Y21561D1*
X55979D1*
X55343D1*
Y20823D1*
X56232Y23116D2*
X56222Y23126D1*
X55455D1*
X52250Y21846D2*
X52750D1*
X52250Y22346D2*
X52750D1*
X52250Y22846D2*
X52750D1*
X52250Y23346D2*
X52750D1*
X52250D2*
Y22846D1*
Y22346D1*
Y21846D1*
X52500D1*
X61250Y23154D2*
X62421D1*
X63573D1*
X63579Y23159D1*
X64730D1*
X69205Y24000D2*
Y23559D1*
Y23303D1*
X69366Y23142D1*
X69894D1*
X70327Y22709D1*
X70457D1*
X67992Y23559D2*
X69205D1*
X66000Y31000D2*
Y31064D1*
X74701Y31594D2*
X74041D1*
X80500Y31500D2*
X80438D1*
X79875Y32063D1*
X74041D1*
Y31594D1*
X75967Y26401D2*
Y25256D1*
X75937Y25227D1*
X75967Y26401D2*
Y27473D1*
X75937Y27502D1*
X78250Y26401D2*
Y26358D1*
X78667D1*
X79000Y26691D1*
Y28406D1*
X79091D1*
X75967Y26401D2*
X78250D1*
X81500Y22500D2*
X82500D1*
X81500D2*
X81000Y22000D1*
Y20187D1*
X80625Y19812D1*
X72772D1*
X72563Y20022D1*
Y21469D1*
X72343Y21689D1*
X69657D1*
X69461Y21886D1*
Y22268D1*
X49048Y22650D2*
X49004D1*
X48657Y22303D1*
Y20295D1*
X49228Y19724D1*
X55361Y20181D2*
X56032D1*
X56040Y20190D1*
X56042Y20806D2*
Y20192D1*
X55366Y24567D2*
D15*
Y25705D1*
X55602Y25941D1*
X58513Y26335D2*
X55996D1*
X55602Y25941D1*
X48945D2*
X46228D1*
X46087Y25799D1*
X49264Y24559D2*
Y25622D1*
X48945Y25941D1*
X51322Y21787D2*
D13*
X50757D1*
X50680Y21711D1*
Y21026D1*
X50491Y20837D1*
X49935D1*
X49908Y20810D1*
X53605Y21787D2*
X54175D1*
Y21118D1*
X54480Y20813D1*
X54664D1*
X54674Y20823D1*
Y20199D1*
X54692Y20181D1*
X51322Y22043D2*
X50528D1*
X50373Y21888D1*
Y21463D1*
X50338Y21427D1*
X49887D1*
X49868Y21408D1*
X53532Y20139D2*
Y20709D1*
X53605Y21531D2*
Y20782D1*
X53532Y20709D1*
X52309Y20703D2*
X52857D1*
X52863Y20709D1*
X52305Y20139D2*
X52863D1*
Y20708D1*
X75937Y24558D2*
X76687D1*
Y24602D1*
X77544D1*
X77562Y24620D1*
X78375D1*
Y25370D1*
X78250Y25495D1*
X78000Y31500D2*
X76246D1*
Y31220D1*
X75824D1*
X75606D1*
X75724Y30502D2*
Y31121D1*
X75824Y31220D1*
X79740Y31250D2*
Y31496D1*
X79720Y31516D1*
X78016D1*
X78000Y31500D1*
X71253Y23626D2*
Y23273D1*
Y22920D1*
Y23273D2*
X70641D1*
X70457Y23457D1*
X69461Y24000D2*
Y23512D1*
X69528Y23445D1*
X70445D1*
X70457Y23457D1*
X79760Y28406D2*
Y28839D1*
X78411D1*
Y29500D1*
X78000D1*
Y30500D1*
X74691Y29872D2*
X74858D1*
Y29793D1*
X75744D1*
Y29596D1*
X78000D1*
Y30500D1*
X79750Y29341D2*
X79760Y28839D1*
X75724Y29833D2*
X75744Y29793D1*
X65252Y27439D2*
Y26376D1*
X65174D1*
Y26358D1*
X65196D1*
X64661D2*
X65174D1*
X64661D2*
X64098D1*
X63542D1*
X63536Y26364D1*
X65760Y26358D2*
X65206D1*
X65174Y26376D1*
X67252Y27439D2*
Y26373D1*
X67267Y26358D1*
X67296D1*
X67838D1*
X68369D1*
X68897D1*
X68908Y26368D1*
X66752Y26358D2*
X67267D1*
X65252Y29565D2*
Y31064D1*
X64690D1*
X63958D1*
X63940Y31046D1*
X63252D1*
X68503Y31126D2*
X67833D1*
X67815Y31108D1*
X67271D1*
X67252Y31126D1*
Y29565D1*
X69190Y31108D2*
X68521D1*
X68503Y31126D1*
X74500Y22500D2*
X72879D1*
X72878Y22501D1*
Y23501D2*
X74499D1*
X74500Y23500D1*
Y24500D2*
X72879D1*
X72878Y24501D1*
Y25501D2*
X74499D1*
X74500Y25500D1*
X79500Y21500D2*
X78125D1*
X78063Y21563D1*
X78169Y20500D2*
X78125D1*
Y21500D1*
X79500Y22500D2*
X78067D1*
Y22274D1*
Y23031D2*
X79500D1*
Y23500D1*
Y24500D2*
Y25500D1*
X63500Y19500D2*
X64000Y19000D1*
X65000D1*
X65500Y19500D1*
X62500D2*
X63500Y18500D1*
X69500D2*
X70500Y19500D1*
X67500Y18500D2*
X68500Y19500D1*
Y18500D2*
X69500Y19500D1*
X56712Y20806D2*
Y20192D1*
X56710Y20190D1*
X57453D1*
X57456Y20187D1*
X79750Y30010D2*
Y30650D1*
X79740Y30659D1*
X50547Y23051D2*
Y22343D1*
X50587Y22303D1*
X51318D1*
X51322Y22299D1*
X66252Y27439D2*
Y28064D1*
X68490D1*
X68552Y28126D1*
X62122Y31594D2*
X62673D1*
X68552Y27252D2*
Y28126D1*
X64007Y28874D2*
X66252D1*
Y29565D1*
X64007Y28874D2*
Y29542D1*
X63996Y29531D1*
X62673Y31004D2*
X62122D1*
X78067Y28327D2*
X78254D1*
Y27185D1*
X78133Y27306D1*
X78250D1*
X74559Y29293D2*
X74833D1*
X74850Y29311D1*
X77132D1*
X77516Y28927D1*
X78028D1*
Y28327D1*
X78067D1*
X49888Y23761D2*
Y23188D1*
X49874Y23174D1*
X49914Y22650D2*
Y23134D1*
X49874Y23174D1*
X49880Y21994D2*
Y22615D1*
X49914Y22650D1*
X50547Y23720D2*
X49928D1*
X49888Y23761D1*
X49205Y23174D2*
Y23747D1*
X49219Y23761D1*
X53605Y22555D2*
X54136D1*
X54707Y23126D1*
D14*
X54746D1*
Y22594D1*
X55238D1*
X55419Y22413D1*
Y22096D1*
X56587D1*
Y22050D1*
X48945Y29287D2*
D15*
Y27610D1*
X54703D1*
X55622D1*
Y29268D1*
X55602Y29287D1*
X54707Y23126D2*
X54703Y23821D1*
X49219Y23761D2*
D13*
X48453D1*
X69717Y22268D2*
Y22071D1*
X71073D1*
X71253Y22250D1*
X66625Y22062D2*
X67250D1*
Y22813D1*
X67065D1*
X67992D1*
Y22811D1*
X67065Y22813D2*
X65563D1*
Y25001D1*
Y25689D1*
X65196D1*
X67065Y24938D2*
X67000Y25003D1*
Y25689D1*
X67296D1*
X65760D2*
X65196D1*
X66752D2*
X67295D1*
X67296D1*
X69717Y22268D2*
Y22795D1*
X68008D1*
X67992Y22811D1*
X69205Y22268D2*
X69189D1*
Y21823D1*
X69574Y21438D1*
X72191D1*
X72316Y21313D1*
Y19885D1*
X72638Y19563D1*
X81688D1*
X82500Y20375D1*
Y20500D1*
X81500Y21500D2*
X82500D1*
X51322Y22811D2*
Y23067D1*
Y23323D1*
Y23579D1*
Y23834D1*
Y23835D1*
X53605Y22811D2*
Y23067D1*
Y23323D1*
Y23579D1*
Y23835D1*
X50012Y24559D2*
D14*
X50764D1*
X51322Y24001D1*
Y23835D1*
X50012Y24559D2*
X53605D1*
X54610D1*
D13*
X54618Y24567D1*
X53605Y23835D2*
D14*
Y24559D1*
X50012D2*
D15*
Y25657D1*
X50295Y25941D1*
X54618Y24567D2*
Y25575D1*
X54252Y25941D1*
X61500Y18500D2*
D14*
Y19677D1*
X61264Y19913D1*
Y20307D1*
X61256Y20315D1*
X64098Y25689D2*
D13*
X63542D1*
X63536Y25695D1*
X62812D1*
Y26600D1*
Y27001D1*
X64752D1*
Y27439D1*
X62049Y26600D2*
X62812D1*
X63252Y30376D2*
X62690D1*
X63795Y27028D2*
X64752D1*
Y27439D1*
Y29565D2*
Y30332D1*
X64690Y30395D1*
X63958D1*
X63940Y30376D1*
X62049Y27600D2*
X61563D1*
Y29933D1*
X64752D1*
Y29565D1*
X68369Y25689D2*
X68897D1*
X68908Y25699D1*
X69317D1*
Y26410D1*
X69297D1*
Y26811D1*
X67752D1*
Y27439D1*
X69317Y26410D2*
X70598D1*
X70784Y26596D1*
X69190Y30439D2*
X69278D1*
Y26831D2*
X67752D1*
Y27439D1*
Y29565D2*
Y30376D1*
X67815Y30439D1*
X68484D1*
X68503Y30457D1*
X70784Y27596D2*
X71253D1*
Y29953D1*
X67752D1*
Y29565D1*
X79500Y27500D2*
X80500D1*
Y23500D2*
X80000Y23000D1*
Y21000D1*
X79500Y20500D1*
Y26500D2*
X80500D1*
D18*
X68929Y21504D3*
X73857Y28514D3*
X47732Y26909D3*
Y24799D3*
Y20047D3*
X50969Y20232D3*
X54925Y31870D3*
X71940Y25376D3*
Y24313D3*
X61020Y19075D3*
X62531Y20996D3*
X71817Y21053D3*
X59858Y31496D3*
X59882Y27862D3*
Y22654D3*
Y21260D3*
X68562Y22000D3*
X54750Y21673D3*
X66065Y23813D3*
X64940D3*
X73188Y27875D3*
X56232Y23116D3*
X55979Y21561D3*
X62673Y31594D3*
X68552Y27252D3*
X63996Y29531D3*
X62673Y31004D3*
X54703Y23821D3*
Y27610D3*
X48453Y23761D3*
X67000Y25001D3*
X65563D3*
X62690Y30376D3*
X63795Y27028D3*
X69278Y30439D3*
Y26831D3*
X52250Y23346D3*
Y22846D3*
X60500Y30500D3*
Y30000D3*
Y29500D3*
Y29000D3*
Y28500D3*
Y28000D3*
Y27500D3*
Y27000D3*
Y26500D3*
Y26000D3*
Y25500D3*
Y25000D3*
Y24500D3*
Y24000D3*
Y23500D3*
X51795Y25953D3*
X48252Y19209D3*
X48752D3*
X52250Y22346D3*
Y21846D3*
X52750Y23346D3*
Y22846D3*
Y22346D3*
Y21846D3*
X49906Y30783D3*
X50406D3*
X50906D3*
X51406D3*
X76816Y27424D3*
Y26924D3*
Y26424D3*
Y25924D3*
X77379Y27424D3*
Y26924D3*
Y26424D3*
Y25924D3*
X76816Y25424D3*
X77379D3*
X75941Y26674D3*
Y26174D3*
X51906Y30783D3*
X52406D3*
X52906D3*
X53406D3*
X52295Y25953D3*
X52795D3*
X49252Y19209D3*
X49752D3*
X50252D3*
X50752D3*
X51252D3*
X51752D3*
X52252D3*
X52752D3*
X53252D3*
X53752D3*
X54252D3*
X51795Y25453D3*
X55252Y19209D3*
X55752D3*
X56252D3*
X56752D3*
X61000Y25000D3*
Y24500D3*
X52295Y25453D3*
X52795D3*
X44906Y28618D3*
X45406D3*
X45906D3*
X46406D3*
X46906D3*
X58083Y28996D3*
X58583D3*
X59083D3*
X61000Y24000D3*
X56750Y24596D3*
Y24096D3*
Y23596D3*
Y23096D3*
X61500Y25000D3*
Y24500D3*
Y24000D3*
X62000Y25000D3*
Y24500D3*
Y24000D3*
X62500Y25000D3*
Y24500D3*
Y24000D3*
X63000Y25000D3*
Y24500D3*
Y24000D3*
X63500Y25000D3*
Y24500D3*
Y24000D3*
X64000Y25000D3*
Y24500D3*
Y24000D3*
X64500Y25000D3*
Y24500D3*
Y24000D3*
X66000Y31000D3*
Y30500D3*
X66500Y31000D3*
Y30500D3*
X72000Y31500D3*
Y31000D3*
Y30500D3*
Y30000D3*
Y29500D3*
Y29000D3*
Y28500D3*
Y28000D3*
Y27500D3*
X72500Y19000D3*
X73000D3*
X73500D3*
X74000D3*
X74500D3*
X75000D3*
X75500D3*
X76000D3*
X76500D3*
X77000D3*
X77500D3*
X78000D3*
X78500D3*
X79000D3*
X79500D3*
X80000D3*
X80500D3*
X81000D3*
X81500D3*
X82000D3*
X82500D3*
X83000D3*
X83500D3*
X44500Y28500D3*
Y28000D3*
Y27500D3*
Y27000D3*
Y26500D3*
Y26000D3*
Y25500D3*
Y25000D3*
Y24500D3*
Y24000D3*
Y23500D3*
Y23000D3*
Y22500D3*
Y22000D3*
Y21500D3*
Y21000D3*
Y20500D3*
Y20000D3*
Y19500D3*
Y19000D3*
Y18500D3*
X76828Y27467D2*
D16*
X77466D1*
X76828Y27218D2*
X77466D1*
X76828Y26969D2*
X77466D1*
X76750Y26721D2*
X77466D1*
X76750Y26472D2*
X77466D1*
X76750Y26223D2*
X77466D1*
X76750Y25975D2*
X77466D1*
X76750Y25726D2*
X77466D1*
X76750Y25477D2*
X77466D1*
X76496Y25229D2*
X77466D1*
X77492Y27696D2*
X77476Y27700D1*
X77492Y27659D1*
Y27694D1*
X76804Y27696D1*
Y26852D1*
X76725Y26850D1*
Y25426D1*
X76469D1*
Y25153D1*
X77035D1*
X77031Y25172D1*
X77495D1*
X77492Y25723D1*
X77496Y26017D1*
X77492Y26129D1*
Y27659D1*
X75937Y27502D2*
D17*
X76804D1*
X75937Y25227D2*
X76469D1*
X77492Y26401D2*
X78250D1*
X75967D2*
X76724D1*
X44180Y31551D2*
D14*
X48051D1*
X65278D2*
X67182D1*
X69781D2*
X72149D1*
X82227D2*
X83820D1*
X44180Y31253D2*
X47751D1*
X49390D2*
X50454D1*
X52528D2*
X52837D1*
X53524D2*
X53706D1*
X65663D2*
X66813D1*
X69781D2*
X72165D1*
X82379D2*
X83820D1*
X49091Y30954D2*
X53706D1*
X65708D2*
X66797D1*
X69781D2*
X72341D1*
X48796Y30655D2*
X53706D1*
X65708D2*
X66797D1*
X69826D2*
X72173D1*
X51109Y30357D2*
X53436D1*
X56415D2*
X57360D1*
X60426D2*
X61478D1*
X65708D2*
X66797D1*
X71421D2*
X72145D1*
X51109Y30058D2*
X53436D1*
X56415D2*
X57360D1*
X60426D2*
X61125D1*
X71696D2*
X72140D1*
X51109Y29759D2*
X53436D1*
X56415D2*
X57360D1*
X60426D2*
X61105D1*
X71708D2*
X72140D1*
X51109Y29460D2*
X53436D1*
X56415D2*
X57360D1*
X60426D2*
X61105D1*
X62022D2*
X63319D1*
X69239D2*
X70795D1*
X71708D2*
X72140D1*
X51109Y29162D2*
X53436D1*
X56415D2*
X57360D1*
X60426D2*
X61105D1*
X62489D2*
X63319D1*
X69239D2*
X70348D1*
X71708D2*
X72140D1*
X51109Y28863D2*
X53436D1*
X56415D2*
X57647D1*
X59376D2*
X61105D1*
X62723D2*
X63319D1*
X69239D2*
X70110D1*
X71708D2*
X72140D1*
X44180Y28564D2*
X47161D1*
X51109D2*
X53436D1*
X56415D2*
X57647D1*
X59376D2*
X61105D1*
X62776D2*
X63319D1*
X66578D2*
X67867D1*
X69239D2*
X70057D1*
X71708D2*
X72612D1*
X44180Y28266D2*
X45221D1*
X46950D2*
X47161D1*
X51109D2*
X53436D1*
X56415D2*
X57647D1*
X60303D2*
X61105D1*
X62690D2*
X63319D1*
X64695D2*
X65845D1*
X69239D2*
X70139D1*
X71708D2*
X72313D1*
X44180Y27967D2*
X45221D1*
X56210D2*
X57647D1*
X60463D2*
X61105D1*
X62670D2*
X63319D1*
X69239D2*
X70164D1*
X71708D2*
X72169D1*
X44180Y27668D2*
X45221D1*
X56210D2*
X57647D1*
X60439D2*
X61105D1*
X62772D2*
X63319D1*
X69239D2*
X70061D1*
X71708D2*
X72169D1*
X44180Y27370D2*
X45221D1*
X56157D2*
X57647D1*
X60340D2*
X61174D1*
X69465D2*
X70094D1*
X71647D2*
X72169D1*
X44180Y27071D2*
X45221D1*
X46950D2*
X47165D1*
X56415D2*
X57647D1*
X60340D2*
X61322D1*
X69814D2*
X70057D1*
X44180Y26772D2*
X45221D1*
X46950D2*
X47157D1*
X51109D2*
X53436D1*
X60340D2*
X61322D1*
X44180Y26474D2*
X45221D1*
X51109D2*
X53436D1*
X60340D2*
X61322D1*
X44180Y26175D2*
X45221D1*
X51109D2*
X53436D1*
X60340D2*
X61322D1*
X44180Y25876D2*
X45221D1*
X51109D2*
X53436D1*
X60340D2*
X62355D1*
X69773D2*
X71484D1*
X44180Y25578D2*
X45221D1*
X51109D2*
X53436D1*
X56415D2*
X57647D1*
X60340D2*
X62372D1*
X69756D2*
X71386D1*
X82223D2*
X83820D1*
X44180Y25279D2*
X45221D1*
X46950D2*
X47411D1*
X51109D2*
X53436D1*
X56415D2*
X59423D1*
X60340D2*
X62688D1*
X69498D2*
X71357D1*
X83351D2*
X83820D1*
X44180Y24980D2*
X45221D1*
X46950D2*
X47169D1*
X56415D2*
X59423D1*
X60340D2*
X64972D1*
X69707D2*
X71513D1*
X44180Y24681D2*
X47153D1*
X56014D2*
X59423D1*
X60340D2*
X65070D1*
X70019D2*
X70664D1*
X44180Y24383D2*
X47276D1*
X56014D2*
X59423D1*
X60340D2*
X65107D1*
X70187D2*
X70664D1*
X44180Y24084D2*
X47276D1*
X56014D2*
X59423D1*
X60340D2*
X65107D1*
X70187D2*
X70664D1*
X78151D2*
X78911D1*
X44180Y23785D2*
X47276D1*
X55292D2*
X59423D1*
X78151D2*
X78833D1*
X44180Y23487D2*
X47276D1*
X56104D2*
X59423D1*
X44180Y23188D2*
X47276D1*
X48189D2*
X48596D1*
X56104D2*
X59423D1*
X44180Y22889D2*
X47276D1*
X48189D2*
X48539D1*
X56104D2*
X59341D1*
X75108D2*
X76791D1*
X44180Y22591D2*
X47276D1*
X57863D2*
X59292D1*
X75219D2*
X76791D1*
X44180Y22292D2*
X47276D1*
X75194D2*
X76791D1*
X44180Y21993D2*
X47276D1*
X76609D2*
X76786D1*
X44180Y21695D2*
X47276D1*
X76609D2*
X76786D1*
X44180Y21396D2*
X47276D1*
X55267D2*
X56868D1*
X58044D2*
X59308D1*
X76609D2*
X76786D1*
X44180Y21097D2*
X47276D1*
X58044D2*
X59312D1*
X76609D2*
X76786D1*
X44180Y20799D2*
X47276D1*
X58044D2*
X59444D1*
X76609D2*
X76894D1*
X44180Y20500D2*
X47276D1*
X58044D2*
X59444D1*
X61845D2*
X62236D1*
X62825D2*
X71689D1*
X76609D2*
X76894D1*
X44180Y20201D2*
X47161D1*
X58044D2*
X59444D1*
X61845D2*
X71857D1*
X44180Y19902D2*
X47161D1*
X44180Y19604D2*
X47358D1*
X48107D2*
X48621D1*
X82363D2*
X83820D1*
X44180Y19305D2*
X48621D1*
X51744D2*
X58697D1*
X82063D2*
X83820D1*
X44180Y19006D2*
X55773D1*
X72020D2*
X83820D1*
X44180Y18708D2*
X55773D1*
X71196D2*
X83820D1*
X44180Y18409D2*
X55773D1*
X71220D2*
X83820D1*
X60383Y23830D2*
X62685D1*
X62711Y23836D1*
X65135D1*
X65136Y24638D1*
X65090Y24696D1*
X65033Y24814D1*
X65004Y24941D1*
X65005Y25072D1*
X65010Y25110D1*
X63539Y25114D1*
X62977Y25116D1*
Y25268D1*
X62812D1*
X62683Y25288D1*
X62566Y25346D1*
X62472Y25437D1*
X62410Y25552D1*
X62386Y25695D1*
Y25904D1*
X61352Y25903D1*
Y27228D1*
X61232Y27330D1*
X61166Y27443D1*
X61136Y27600D1*
Y29933D1*
X61156Y30062D1*
X61214Y30179D1*
X61305Y30273D1*
X61420Y30335D1*
X61563Y30360D1*
X62125D1*
X62044Y30445D1*
X61544Y30449D1*
X61113Y30445D1*
X60874D1*
Y30580D1*
X60399Y30577D1*
X60397Y30207D1*
Y29105D1*
X58610D1*
Y29124D1*
X57392Y29123D1*
Y30454D1*
X56386Y30453D1*
X56388Y28040D1*
X56178D1*
X56181Y27610D1*
X56166Y27480D1*
X56120Y27357D1*
X55998Y27189D1*
X56388D1*
X56390Y26894D1*
X57682D1*
X57678Y27169D1*
X59347D1*
Y25501D1*
X57678D1*
Y25775D1*
X56384Y25776D1*
X56388Y25220D1*
Y24693D1*
X55982D1*
X55984Y23910D1*
X55258D1*
X55262Y23792D1*
X55270Y23783D1*
X55325Y23779D1*
X55414Y23783D1*
X56073D1*
Y22608D1*
X57166Y22605D1*
X57597Y22609D1*
X57835D1*
Y22564D1*
X59328Y22562D1*
X59324Y22725D1*
X59356Y22852D1*
X59416Y22968D1*
X59456Y23015D1*
X59455Y27497D1*
X59410Y27558D1*
X59347Y27695D1*
Y27233D1*
X57678D1*
Y28902D1*
X59347D1*
Y28035D1*
X59416Y28177D1*
X59502Y28276D1*
X59608Y28353D1*
X59729Y28403D1*
X59858Y28424D1*
X59989Y28414D1*
X60114Y28374D1*
X60226Y28307D1*
X60319Y28215D1*
X60389Y28104D1*
X60431Y27980D1*
X60444Y27862D1*
X60429Y27732D1*
X60384Y27609D1*
X60309Y27497D1*
Y23019D1*
X60356Y22948D1*
X60357Y23830D1*
X60383D1*
X55229Y21382D2*
X55253Y21378D1*
X55342Y21382D1*
X55922D1*
Y21364D1*
X56621Y21361D1*
X56900Y21365D1*
X56897Y21435D1*
X58015D1*
Y20163D1*
X59448D1*
X59475Y20278D1*
Y20873D1*
X59410Y20955D1*
X59352Y21073D1*
X59323Y21200D1*
X59324Y21331D1*
X59356Y21458D1*
X59396Y21535D1*
X58260Y21538D1*
X57837D1*
X57835Y21491D1*
X56678Y21495D1*
X56247Y21491D1*
X56009D1*
Y21585D1*
X55998Y21538D1*
X55292D1*
X55252Y21420D1*
X55227Y21383D1*
X55263Y21382D1*
X70156Y24075D2*
X70698D1*
X70694Y24204D1*
Y24873D1*
X71691D1*
X71552Y24970D1*
X71468Y25071D1*
X71411Y25189D1*
X71382Y25316D1*
X71383Y25447D1*
X71415Y25574D1*
X71475Y25691D1*
X71515Y25737D1*
X71514Y26750D1*
X71534Y26879D1*
X71592Y26996D1*
X71683Y27090D1*
X71798Y27152D1*
X71940Y27177D1*
X72199D1*
X72198Y27944D1*
X72218Y28073D1*
X72279Y28193D1*
X72416Y28339D1*
X72825Y28747D1*
X72170Y28748D1*
Y30142D1*
X72239D1*
X72204Y30228D1*
X72175Y30356D1*
X72171Y30487D1*
X72191Y30617D1*
X72235Y30740D1*
X72302Y30853D1*
X72380Y30942D1*
X72256Y31108D1*
X72204Y31228D1*
X72175Y31356D1*
X72171Y31487D1*
X72191Y31617D1*
X72235Y31740D1*
X72300Y31850D1*
X63171D1*
X63223Y31713D1*
X63232Y31628D1*
X63811Y31624D1*
X64131D1*
Y31642D1*
X65249D1*
X65252Y31491D1*
X65381Y31471D1*
X65499Y31413D1*
X65593Y31322D1*
X65655Y31207D1*
X65679Y31064D1*
Y30322D1*
X65732Y30316D1*
X65850Y30320D1*
X66826D1*
Y31126D1*
X66846Y31256D1*
X66904Y31373D1*
X66995Y31467D1*
X67110Y31529D1*
X67242Y31553D1*
X67256Y31579D1*
Y31687D1*
X67941D1*
X67944Y31705D1*
X69061D1*
Y31684D1*
X69749Y31687D1*
Y30743D1*
X69785Y30681D1*
X69827Y30557D1*
X69840Y30439D1*
X69832Y30378D1*
X71253Y30380D1*
X71382Y30360D1*
X71499Y30302D1*
X71593Y30211D1*
X71655Y30096D1*
X71680Y29953D1*
Y27596D1*
X71660Y27467D1*
X71602Y27350D1*
X71519Y27263D1*
X71480Y27161D1*
Y25899D1*
X70087D1*
Y25985D1*
X69741Y25983D1*
X69744Y25699D1*
X69724Y25570D1*
X69666Y25453D1*
X69586Y25368D1*
X69469Y25301D1*
X69467Y25120D1*
X68929D1*
X68928Y25110D1*
X67810Y25114D1*
X67793Y25110D1*
X67555D1*
X67596Y25053D1*
X69441D1*
X69570Y25033D1*
X69690Y24972D1*
X69836Y24835D1*
X70021Y24649D1*
X70063Y24638D1*
X70157D1*
Y24076D1*
X46031Y31110D2*
X47248D1*
Y30991D1*
X47523Y30992D1*
X48380Y31852D1*
X44150Y31850D1*
Y18151D1*
X55807Y18150D1*
X55803Y18722D1*
Y19197D1*
X57197D1*
Y19127D1*
X57368Y19184D1*
X57498Y19197D1*
X57628Y19185D1*
X57754Y19149D1*
X57871Y19089D1*
X58000Y18982D1*
X58125Y19087D1*
X58242Y19147D1*
X58368Y19184D1*
X58498Y19197D1*
X58608Y19187D1*
X58731Y19309D1*
X51737D1*
X51636Y19297D1*
X50475D1*
X50476Y19166D1*
X49319Y19170D1*
X48888Y19166D1*
X48650D1*
X48648Y19701D1*
X48324Y20029D1*
X48294Y20047D1*
X48279Y19917D1*
X48234Y19794D1*
X48162Y19685D1*
X48066Y19595D1*
X47953Y19530D1*
X47827Y19493D1*
X47696Y19486D1*
X47568Y19510D1*
X47448Y19563D1*
X47343Y19642D1*
X47260Y19743D1*
X47202Y19860D1*
X47173Y19988D1*
X47175Y20119D1*
X47207Y20246D1*
X47267Y20362D1*
X47307Y20409D1*
X47305Y24431D1*
X47260Y24495D1*
X47202Y24612D1*
X47173Y24740D1*
X47175Y24871D1*
X47207Y24998D1*
X47267Y25114D1*
X47352Y25213D1*
X47458Y25290D1*
X47579Y25340D1*
X47709Y25361D1*
X47839Y25351D1*
X47964Y25311D1*
X48076Y25244D1*
X48161Y25161D1*
X48157Y25382D1*
X46923D1*
X46921Y24965D1*
X45252D1*
Y26634D1*
X46921D1*
Y26498D1*
X47343Y26504D1*
X47260Y26605D1*
X47202Y26722D1*
X47173Y26850D1*
X47175Y26981D1*
X47204Y27096D1*
X46924Y27095D1*
X46921Y26697D1*
X45252D1*
Y28366D1*
X46921D1*
Y28214D1*
X47189Y28212D1*
Y28650D1*
X47012Y28654D1*
X44241Y28658D1*
Y31114D1*
X46028Y31110D1*
X64664Y28448D2*
X64666Y28194D1*
X65232Y28190D1*
X65666Y28194D1*
X65732Y28190D1*
X65895Y28298D1*
X65998Y28406D1*
X65990Y28447D1*
X64664Y28442D1*
X64660Y28256D1*
X64772Y28194D1*
X65732D1*
X63504Y27508D2*
X63350D1*
Y29492D1*
X63436D1*
X63309Y29506D1*
X61992D1*
X61994Y29294D1*
X62125Y29292D1*
X62254Y29266D1*
X62375Y29216D1*
X62484Y29144D1*
X62578Y29052D1*
X62654Y28945D1*
X62708Y28826D1*
X62738Y28698D1*
X62745Y28574D1*
X62728Y28444D1*
X62686Y28319D1*
X62623Y28205D1*
X62533Y28099D1*
X62611Y28011D1*
X62678Y27899D1*
X62723Y27776D1*
X62745Y27600D1*
X62733Y27469D1*
X62718Y27418D1*
X62812Y27428D1*
X63399D1*
X63505Y27506D1*
X69210Y28744D2*
Y27508D1*
X69050D1*
X69102Y27366D1*
X69254Y27392D1*
X69384Y27382D1*
X69509Y27343D1*
X69621Y27275D1*
X69715Y27184D1*
X69785Y27073D1*
X69827Y26949D1*
X69842Y26837D1*
X70084D1*
X70087Y27293D1*
X70157D1*
X70122Y27380D1*
X70093Y27507D1*
X70088Y27638D1*
X70109Y27768D1*
X70153Y27891D1*
X70219Y28004D1*
X70297Y28093D1*
X70201Y28214D1*
X70140Y28330D1*
X70101Y28456D1*
X70087Y28586D1*
X70098Y28717D1*
X70132Y28843D1*
X70190Y28961D1*
X70269Y29065D1*
X70366Y29153D1*
X70478Y29222D1*
X70600Y29268D1*
X70729Y29291D1*
X70827D1*
X70826Y29528D1*
X68230Y29526D1*
X68236Y29492D1*
X69210D1*
X69209Y28256D1*
X67895Y28488D2*
X67899Y28744D1*
X67895Y28808D1*
X67272Y28813D1*
X67022Y28809D1*
X66674D1*
X66663Y28759D1*
X66609Y28640D1*
X66507Y28532D1*
X66515Y28491D1*
X67895Y28492D1*
Y28755D1*
X67732Y28809D1*
X66772Y28813D1*
X66671Y28809D1*
X66659Y28745D1*
X66601Y28628D1*
X66510Y28534D1*
X76578Y21114D2*
X76581Y20241D1*
X76918Y20239D1*
X76921Y20466D1*
Y21003D1*
X76815Y21004D1*
X76819Y22832D1*
X76817Y23008D1*
X76785Y23040D1*
X75051Y23038D1*
X75008Y23023D1*
X74980Y22999D1*
X75062Y22911D1*
X75129Y22799D1*
X75174Y22676D1*
X75197Y22500D1*
X75184Y22370D1*
X75135Y22218D1*
X76581Y22217D1*
X76580Y20863D1*
X48568Y22813D2*
Y23130D1*
X48630D1*
X48626Y23226D1*
X48548Y23207D1*
X48417Y23200D1*
X48288Y23223D1*
X48158Y23283D1*
X48159Y20415D1*
X48229Y20307D1*
X48231Y22303D1*
X48251Y22432D1*
X48312Y22552D1*
X48448Y22698D1*
X48567Y22817D1*
X82197Y31848D2*
Y31381D1*
X82302Y31302D1*
X82415Y31189D1*
X82498Y31197D1*
X82628Y31185D1*
X82754Y31149D1*
X82871Y31089D1*
X83000Y30982D1*
X83061Y31041D1*
X83170Y31114D1*
X83291Y31165D1*
X83419Y31192D1*
X83550Y31195D1*
X83680Y31173D1*
X83803Y31128D1*
X83850Y31103D1*
Y31849D1*
X82200Y31850D1*
X81983Y26000D2*
X82062Y25911D1*
X82129Y25799D1*
X82174Y25676D1*
X82197Y25500D1*
X82190Y25431D1*
X83000Y25427D1*
X83129Y25407D1*
X83246Y25349D1*
X83333Y25266D1*
X83393Y25188D1*
X83524Y25196D1*
X83654Y25179D1*
X83779Y25138D1*
X83850Y25103D1*
Y25804D1*
X82803Y25803D1*
Y25873D1*
X82674Y25825D1*
X82544Y25805D1*
X82413Y25809D1*
X82285Y25837D1*
X82165Y25889D1*
X82057Y25963D1*
X82002Y26018D1*
X72190Y19408D2*
X72157Y19268D1*
X72102Y19149D1*
X72026Y19043D1*
X71931Y18952D1*
X71821Y18881D1*
X71699Y18832D1*
X71571Y18807D1*
X71440Y18806D1*
X71311Y18830D1*
X71188Y18877D1*
X71077Y18946D1*
X70999Y19015D1*
X71129Y18799D1*
X71174Y18676D1*
X71197Y18500D1*
X71184Y18370D1*
X71148Y18244D1*
X71101Y18152D1*
X72871Y18150D1*
X83850D1*
Y19800D1*
X82884Y19803D1*
X82803D1*
Y19873D1*
X82674Y19825D1*
X82532Y19805D1*
X81989Y19261D1*
X81884Y19183D1*
X81756Y19142D1*
X81556Y19136D1*
X72638D1*
X72509Y19156D1*
X72389Y19217D1*
X72244Y19353D1*
X72188Y19408D1*
X51878Y31246D2*
Y31177D1*
X50484D1*
Y31313D1*
X49422Y31315D1*
X48646Y30536D1*
X49730Y30535D1*
X51080D1*
Y28169D1*
X53467Y28171D1*
Y30535D1*
X53733D1*
X53736Y31319D1*
X53591Y31311D1*
X53478Y31244D1*
X53355Y31199D1*
X53225Y31179D1*
X53095Y31183D1*
X52967Y31211D1*
X52846Y31263D1*
X52738Y31337D1*
X52683Y31392D1*
X52591Y31311D1*
X52478Y31244D1*
X52355Y31199D1*
X52225Y31179D1*
X52095Y31183D1*
X51967Y31211D1*
X51878Y31247D1*
X78808Y23456D2*
X78805Y23542D1*
X78825Y23672D1*
X78869Y23795D1*
X78935Y23908D1*
X79014Y23997D1*
X78890Y24163D1*
X78838Y24284D1*
X78809Y24411D1*
X78805Y24542D1*
X78825Y24672D1*
X78854Y24753D1*
X78802Y24714D1*
Y24620D1*
X78782Y24491D1*
X78724Y24374D1*
X78633Y24280D1*
X78518Y24218D1*
X78375Y24193D1*
X78121Y24188D1*
Y23590D1*
X78645D1*
Y23455D1*
X78801Y23458D1*
X61813Y20893D2*
X61816Y20197D1*
X63197D1*
Y20127D1*
X63368Y20184D1*
X63498Y20197D1*
X63628Y20185D1*
X63754Y20149D1*
X63871Y20089D1*
X64000Y19982D1*
X64125Y20087D1*
X64242Y20147D1*
X64368Y20184D1*
X64498Y20197D1*
X64628Y20185D1*
X64754Y20149D1*
X64871Y20089D1*
X65000Y19982D1*
X65125Y20087D1*
X65242Y20147D1*
X65368Y20184D1*
X65498Y20197D1*
X65628Y20185D1*
X65754Y20149D1*
X65871Y20089D1*
X66000Y19982D1*
X66061Y20041D1*
X66170Y20114D1*
X66291Y20165D1*
X66419Y20192D1*
X66550Y20195D1*
X66680Y20173D1*
X66803Y20128D1*
X66915Y20060D1*
X67000Y19985D1*
X67125Y20087D1*
X67242Y20147D1*
X67368Y20184D1*
X67498Y20197D1*
X67628Y20185D1*
X67754Y20149D1*
X67871Y20089D1*
X68000Y19982D1*
X68125Y20087D1*
X68242Y20147D1*
X68368Y20184D1*
X68498Y20197D1*
X68628Y20185D1*
X68754Y20149D1*
X68871Y20089D1*
X69000Y19982D1*
X69125Y20087D1*
X69242Y20147D1*
X69368Y20184D1*
X69498Y20197D1*
X69628Y20185D1*
X69754Y20149D1*
X69871Y20089D1*
X70000Y19982D1*
X70125Y20087D1*
X70242Y20147D1*
X70368Y20184D1*
X70498Y20197D1*
X70628Y20185D1*
X70754Y20149D1*
X70871Y20089D1*
X71000Y19982D1*
X71061Y20041D1*
X71170Y20114D1*
X71291Y20165D1*
X71419Y20192D1*
X71550Y20195D1*
X71680Y20173D1*
X71803Y20128D1*
X71889Y20078D1*
Y20496D1*
X71781Y20492D1*
X71652Y20516D1*
X71532Y20568D1*
X71457Y20625D1*
X63726Y20626D1*
X63611Y20581D1*
X63512Y20569D1*
X62901D1*
X62752Y20479D1*
X62626Y20442D1*
X62496Y20435D1*
X62367Y20459D1*
X62247Y20511D1*
X62143Y20590D1*
X62059Y20691D1*
X62002Y20809D1*
X61973Y20937D1*
Y20990D1*
X61818Y20992D1*
X61815Y20406D1*
Y20200D1*
X51080Y27053D2*
Y25069D1*
X53424Y25071D1*
X53469D1*
X53467Y26530D1*
Y27051D1*
X51082D1*
X61250Y23830D2*
Y23154D1*
X60357D2*
X61250D1*
X62421Y23830D2*
Y23154D1*
X63579Y23836D2*
Y23159D1*
X64730Y23836D2*
Y23159D1*
X55343Y21381D2*
Y20823D1*
X55455Y23783D2*
Y23126D1*
X56072D1*
X58285Y29800D2*
Y29123D1*
X57392Y29800D2*
X58285D1*
X59503Y29782D2*
Y29105D1*
Y29782D2*
X60396D1*
X46354Y29331D2*
Y28654D1*
X45135Y29335D2*
Y28658D1*
X44242Y29335D2*
X45135D1*
X63350Y28126D2*
X64664D1*
X68552Y29491D2*
Y28874D1*
X67896D2*
X69209D1*
X75688Y22216D2*
Y21540D1*
X76580D1*
X58513Y28901D2*
Y27233D1*
X57679Y28067D2*
X59347D1*
X66500Y20196D2*
Y19500D1*
X71500Y20196D2*
Y18804D1*
Y19500D2*
X72196D1*
X83500Y25196D2*
Y24500D1*
Y31196D2*
Y30500D1*
X52181Y31874D2*
Y31178D1*
X62049Y29296D2*
Y28600D1*
X62745D1*
X70784Y29292D2*
Y28596D1*
X70088D2*
X70784D1*
X72866Y29445D2*
Y28749D1*
X72170Y29445D2*
X72866D1*
X57456Y21435D2*
Y20857D1*
X58014D1*
X64661Y25689D2*
Y25111D1*
X67838Y25689D2*
Y25111D1*
X77562Y23951D2*
X78121D1*
X76922Y20500D2*
X77500D1*
X50295Y30535D2*
Y29287D1*
X51080D1*
X66752Y30320D2*
Y28809D1*
X65752Y30320D2*
Y29565D1*
D19*
X52863Y20139D3*
X53532D3*
D20*
X61250Y22051D3*
Y23154D3*
X62421Y22051D3*
Y23154D3*
X63579Y22057D3*
Y23159D3*
X64730Y22057D3*
Y23159D3*
D19*
X54692Y20181D3*
X55361D3*
D21*
X49908Y20810D3*
X49160D3*
D19*
X54674Y20823D3*
X55343D3*
D21*
X54707Y23126D3*
X55455D3*
D22*
X70457Y23457D3*
Y22709D3*
X67992Y22811D3*
Y23559D3*
D20*
X58285Y29800D3*
Y30902D3*
X59503Y29782D3*
Y30884D3*
D21*
X49264Y24559D3*
X50012D3*
X54618Y24567D3*
X55366D3*
D23*
X64098Y25689D3*
Y26358D3*
X63940Y30376D3*
Y31046D3*
D20*
X46354Y30433D3*
Y29331D3*
X45135Y30437D3*
Y29335D3*
D23*
X68369Y25689D3*
Y26358D3*
X68503Y30457D3*
Y31126D3*
D21*
X78067Y28327D3*
X77319D3*
D20*
X75937Y27502D3*
Y28604D3*
D23*
X76687Y24602D3*
Y23933D3*
D22*
X64007Y28126D3*
Y28874D3*
X68552Y28126D3*
Y28874D3*
D20*
X73313Y20438D3*
Y21540D3*
X75688Y20438D3*
Y21540D3*
D22*
X73500Y26750D3*
Y27498D3*
D25*
X46087Y27531D3*
Y25799D3*
X58513Y28067D3*
Y26335D3*
D27*
X49914Y22650D3*
X49048D3*
D28*
X79740Y31250D3*
Y30659D3*
D29*
X81500Y31500D3*
D30*
X80500D3*
X81500Y30500D3*
X80500D3*
X81500Y29500D3*
X80500D3*
X81500Y28500D3*
X80500D3*
X81500Y27500D3*
X80500D3*
X81500Y26500D3*
X80500D3*
X81500Y25500D3*
X80500D3*
X81500Y24500D3*
X80500D3*
X81500Y23500D3*
X80500D3*
X81500Y22500D3*
X80500D3*
X81500Y21500D3*
X80500D3*
X81500Y20500D3*
X80500D3*
D29*
X62500Y19500D3*
D30*
X63500D3*
X64500D3*
X65500D3*
X66500D3*
X67500D3*
X68500D3*
X69500D3*
X70500D3*
X71500D3*
D29*
X83500Y20500D3*
D30*
X82500D3*
X83500Y21500D3*
X82500D3*
X83500Y22500D3*
X82500D3*
X83500Y23500D3*
X82500D3*
X83500Y24500D3*
X82500D3*
D29*
X83500Y26500D3*
D30*
X82500D3*
X83500Y27500D3*
X82500D3*
X83500Y28500D3*
X82500D3*
X83500Y29500D3*
X82500D3*
X83500Y30500D3*
X82500D3*
D29*
X51181Y31874D3*
D30*
X52181D3*
X53181D3*
D29*
X62049Y26600D3*
D30*
Y27600D3*
Y28600D3*
D29*
X70784Y26596D3*
D30*
Y27596D3*
Y28596D3*
D29*
X78000Y30500D3*
D30*
Y31500D3*
D29*
X72866Y29445D3*
D30*
Y30445D3*
Y31445D3*
D29*
X72878Y22501D3*
D30*
Y23501D3*
Y24501D3*
Y25501D3*
D29*
X79500Y20500D3*
D30*
Y21500D3*
Y22500D3*
Y23500D3*
Y24500D3*
Y25500D3*
Y26500D3*
Y27500D3*
D29*
X74500Y20500D3*
D30*
Y21500D3*
Y22500D3*
Y23500D3*
Y24500D3*
Y25500D3*
Y26500D3*
Y27500D3*
D29*
X56500Y18500D3*
D30*
X57500D3*
X58500D3*
X59500D3*
X60500D3*
X61500D3*
X62500D3*
X63500D3*
X64500D3*
X65500D3*
X66500D3*
X67500D3*
X68500D3*
X69500D3*
X70500D3*
D32*
X74701Y31594D3*
Y30846D3*
X75606Y31220D3*
D19*
X52309Y20703D3*
X51640D3*
X52305Y20139D3*
X51636D3*
X53532Y20709D3*
X52863D3*
D23*
X57456Y20857D3*
Y20187D3*
D19*
X56712Y20806D3*
X56042D3*
X56710Y20190D3*
X56040D3*
X49199Y21408D3*
X49868D3*
X54750Y22096D3*
X55419D3*
X49211Y21994D3*
X49880D3*
X57257Y22050D3*
X56587D3*
X49205Y23174D3*
X49874D3*
X49219Y23761D3*
X49888D3*
X67250Y22062D3*
X67919D3*
X66625D3*
X65956D3*
D23*
X71253Y23626D3*
Y24295D3*
Y22250D3*
Y22920D3*
X64661Y25689D3*
Y26358D3*
X65760Y25689D3*
Y26358D3*
X63536Y26364D3*
Y25695D3*
X64690Y31064D3*
Y30395D3*
X65196Y25689D3*
Y26358D3*
X63252Y30376D3*
Y31046D3*
X67838Y25689D3*
Y26358D3*
X66752Y25689D3*
Y26358D3*
X68908Y26368D3*
Y25699D3*
X67815Y31108D3*
Y30439D3*
X67296Y25689D3*
Y26358D3*
X69190Y30439D3*
Y31108D3*
X74559Y28624D3*
Y29293D3*
D19*
X74022Y29872D3*
X74691D3*
X79091Y28406D3*
X79760D3*
D23*
X77562Y23951D3*
Y24620D3*
X75937Y24558D3*
Y25227D3*
X74041Y31594D3*
Y30925D3*
D19*
X62122Y31004D3*
X61453D3*
Y31594D3*
X62122D3*
X77500Y20500D3*
X78169D3*
X78063Y21563D3*
X77393D3*
D23*
X61256Y20315D3*
Y20984D3*
D19*
X78067Y22274D3*
X77398D3*
X78067Y23031D3*
X77398D3*
D23*
X75724Y29833D3*
Y30502D3*
X79750Y29341D3*
Y30010D3*
X50547Y23720D3*
Y23051D3*
D19*
X49898Y19724D3*
X49228D3*
D34*
X48945Y25941D3*
X50295D3*
Y29287D3*
X48945D3*
X54252Y25941D3*
X55602D3*
Y29287D3*
X54252D3*
D35*
X53605Y21531D3*
Y21787D3*
Y22043D3*
Y22299D3*
Y22555D3*
Y22811D3*
Y23067D3*
Y23323D3*
Y23579D3*
Y23835D3*
X51322D3*
Y23579D3*
Y23323D3*
Y23067D3*
Y22811D3*
Y22555D3*
Y22299D3*
Y22043D3*
Y21787D3*
Y21531D3*
D36*
X52464Y22683D3*
D37*
X78250Y25495D3*
Y26401D3*
Y27306D3*
D38*
X75967Y26401D3*
D39*
X68949Y22268D3*
X69205D3*
X69461D3*
X69717D3*
Y24000D3*
X69461D3*
X69205D3*
X68949D3*
D32*
X67065Y22813D3*
Y23561D3*
X66159Y23187D3*
D40*
X64752Y27439D3*
X65252D3*
X65752D3*
X66252D3*
X66752D3*
X67252D3*
X67752D3*
Y29565D3*
X67252D3*
X66752D3*
X66252D3*
X65752D3*
X65252D3*
X64752D3*
X32188Y37938D2*
D13*
X31062D1*
X31000Y38000D1*
X29875D1*
X29813Y37938D1*
X24419Y39562D2*
Y39004D1*
D14*
X21220D1*
X20079D1*
X18921D1*
X17812D1*
X17756D1*
X17012D1*
X16466Y39550D1*
X13757D1*
X25429Y39004D2*
X24419D1*
X17750Y39551D2*
D13*
X18921D1*
X20073D1*
X20079Y39557D1*
X21230D1*
X31059Y46124D2*
X30467D1*
X30357Y46014D1*
X20079Y39557D2*
D14*
Y39004D1*
X18921Y39551D2*
Y39004D1*
X17750Y39551D2*
Y39066D1*
X17812Y39004D1*
X21230Y39557D2*
D13*
X22450D1*
X22456Y39562D1*
X21230Y39557D2*
D14*
X21220D1*
Y39004D1*
X17756Y38484D2*
Y39004D1*
X1635Y47937D2*
X2854D1*
Y47933D1*
D15*
X4248D1*
Y45154D1*
X2709D1*
X2587Y45031D1*
X7681Y49374D2*
X5693D1*
X4252Y47933D1*
X4248Y45154D2*
D13*
Y44394D1*
X4232Y44409D1*
Y42299D2*
Y37547D1*
X7469Y37732D2*
Y37858D1*
X7795Y38185D1*
X8122D1*
X8140Y38203D1*
X17953Y49094D2*
X17819D1*
X17543Y49370D1*
X11425D1*
X30000Y44250D2*
X29125D1*
Y45444D1*
X30522Y46841D1*
Y47372D1*
X29125Y44250D2*
X28440D1*
Y42876D1*
Y41813D2*
X27771D1*
X27753Y41795D1*
X30000Y44250D2*
X30750D1*
X31000Y44000D1*
X33898Y40531D2*
Y39774D1*
X33893Y39063D2*
Y39774D1*
X33898D1*
X31000Y44000D2*
X31500Y43500D1*
Y41020D1*
X31555Y40965D1*
X33465D1*
X33898Y40531D1*
X15000Y36000D2*
X15026D1*
X15600Y36575D1*
X17520D1*
X19031Y38496D2*
X20012D1*
Y38553D1*
X28317D1*
X14785Y48402D2*
D14*
X15985D1*
D13*
X16003Y48384D1*
X9681Y49374D2*
D15*
X10795D1*
Y48512D1*
Y46831D1*
X10752Y46787D1*
X14785Y48402D2*
Y48512D1*
X10795D1*
X17953Y48504D2*
D13*
X16123D1*
X16003Y48384D1*
Y48641D1*
X16358Y48996D1*
X16382Y45362D2*
Y40154D1*
Y38760D2*
X16402D1*
Y37516D1*
X16122Y37236D1*
X8136D1*
Y37639D1*
X6398Y37224D2*
X8136D1*
X37000Y48000D2*
X37500Y48500D1*
X38500D1*
X39000Y48000D1*
X38000D2*
X39000Y47000D1*
X38000D2*
X39000Y46000D1*
X38000D2*
X39000Y45000D1*
X38000D2*
X39000Y44000D1*
X37000Y43000D2*
X37500Y42500D1*
X39500D1*
Y41500D1*
X40000Y41000D1*
Y40000D2*
X39500Y40500D1*
X37620D1*
X37500Y40620D1*
Y41500D1*
X37000Y42000D1*
X38000D2*
X39000Y41000D1*
X25449Y39768D2*
X25398D1*
X25192Y39562D1*
X25125D1*
X25062Y39500D1*
X22252Y44939D2*
Y44638D1*
X22627Y44262D1*
Y42278D1*
X23030Y41876D1*
X25376D1*
X25449Y41803D1*
Y41500D1*
X26217D2*
Y41850D1*
X25941Y42126D1*
X23177D1*
X22877Y42426D1*
Y44251D1*
X23252Y44626D1*
Y44938D1*
Y44939D1*
X10105Y39799D2*
X11047D1*
X11250Y39596D1*
Y39173D1*
X33187Y41433D2*
X34044D1*
X34062Y41451D1*
X32437Y46104D2*
X32569D1*
Y45827D1*
X33819D1*
X34000Y38000D2*
X33188D1*
X33063Y38125D1*
Y38965D1*
X32965Y39062D1*
X32210D1*
X32188Y39040D1*
X31201Y48346D2*
X30620D1*
X30541Y48425D1*
X32437Y46104D2*
X31614D1*
Y45000D1*
X31752D1*
Y41654D1*
X31973Y41433D1*
X33187D1*
X40000Y48000D2*
X40500Y47500D1*
Y42500D1*
X40000Y42000D1*
X30541Y48425D2*
X29996D1*
Y49502D1*
X28902D1*
Y47449D1*
X29366Y46984D1*
Y46945D1*
X23565Y41061D2*
X24492D1*
Y41059D1*
X25052Y46374D2*
X23317D1*
X23252Y46439D1*
Y47064D1*
Y47065D1*
X20507Y45626D2*
X21252D1*
X21627Y46001D1*
X23002D1*
X23317Y46316D1*
Y46374D1*
X22252Y47065D2*
Y48564D1*
X22500D1*
X23252D1*
Y47065D1*
X24338Y43189D2*
Y42751D1*
X27753D1*
Y44571D1*
X26753D1*
Y46096D1*
X27284D1*
X18549Y46100D2*
X19065D1*
Y44583D1*
X18064D1*
Y42688D1*
X21440D1*
X21161D1*
Y43189D1*
X20507Y45626D2*
Y45501D1*
X20002D1*
X19403Y46100D1*
X18549D1*
X25052Y46374D2*
X26130D1*
X26408Y46096D1*
X27284D1*
X23565Y41061D2*
X22817D1*
X22565Y41313D1*
X21440D2*
Y42688D1*
X31000Y39000D2*
X29852D1*
X29813Y39040D1*
X31000Y39000D2*
X32148D1*
X32188Y39040D1*
X30000Y44998D2*
X30998D1*
X31000Y45000D1*
X31614D1*
X30000Y44998D2*
Y45063D1*
X29688Y45375D1*
X16000Y36000D2*
X17000D1*
X5711Y39494D2*
Y38920D1*
X5699Y38908D1*
Y38349D1*
X5660Y38310D1*
Y38075D1*
X5983Y37752D1*
X6797D1*
X7428Y38383D1*
Y38679D1*
X7822D1*
X9000D1*
Y39346D1*
Y40147D1*
X8964Y40183D1*
X7822Y39031D2*
Y38679D1*
X14785Y47300D2*
D14*
X15985D1*
D13*
X16003Y47282D1*
X1635Y46835D2*
D14*
X2854D1*
Y46831D1*
X15013Y45567D2*
D15*
Y46291D1*
X16003Y47282D1*
X13956Y38357D2*
D13*
Y39061D1*
X12479D1*
X11843D1*
Y38323D1*
X12732Y40616D2*
X12722Y40626D1*
X11955D1*
X8750Y39346D2*
X9250D1*
X8750Y39846D2*
X9250D1*
X8750Y40346D2*
X9250D1*
X8750Y40846D2*
X9250D1*
X8750D2*
Y40346D1*
Y39846D1*
Y39346D1*
X9000D1*
X17750Y40654D2*
X18921D1*
X20073D1*
X20079Y40659D1*
X21230D1*
X25705Y41500D2*
Y41059D1*
Y40803D1*
X25866Y40642D1*
X26394D1*
X26827Y40209D1*
X26957D1*
X24492Y41059D2*
X25705D1*
X22500Y48500D2*
Y48564D1*
X31201Y49094D2*
X30541D1*
X37000Y49000D2*
X36938D1*
X36375Y49563D1*
X30541D1*
Y49094D1*
X32467Y43901D2*
Y42756D1*
X32437Y42727D1*
X32467Y43901D2*
Y44973D1*
X32437Y45002D1*
X34750Y43901D2*
Y43858D1*
X35167D1*
X35500Y44191D1*
Y45906D1*
X35591D1*
X32467Y43901D2*
X34750D1*
X38000Y40000D2*
X39000D1*
X38000D2*
X37500Y39500D1*
Y37687D1*
X37125Y37312D1*
X29272D1*
X29063Y37522D1*
Y38969D1*
X28843Y39189D1*
X26157D1*
X25961Y39386D1*
Y39768D1*
X5548Y40150D2*
X5504D1*
X5157Y39803D1*
Y37795D1*
X5728Y37224D1*
X11861Y37681D2*
X12532D1*
X12540Y37690D1*
X12542Y38306D2*
Y37692D1*
X11866Y42067D2*
D15*
Y43205D1*
X12102Y43441D1*
X15013Y43835D2*
X12496D1*
X12102Y43441D1*
X5445D2*
X2728D1*
X2587Y43299D1*
X5764Y42059D2*
Y43122D1*
X5445Y43441D1*
X7822Y39287D2*
D13*
X7257D1*
X7180Y39211D1*
Y38526D1*
X6991Y38337D1*
X6435D1*
X6408Y38310D1*
X10105Y39287D2*
X10675D1*
Y38618D1*
X10980Y38313D1*
X11164D1*
X11174Y38323D1*
Y37699D1*
X11192Y37681D1*
X7822Y39543D2*
X7028D1*
X6873Y39388D1*
Y38963D1*
X6838Y38927D1*
X6387D1*
X6368Y38908D1*
X10032Y37639D2*
Y38209D1*
X10105Y39031D2*
Y38282D1*
X10032Y38209D1*
X8809Y38203D2*
X9357D1*
X9363Y38209D1*
X8805Y37639D2*
X9363D1*
Y38208D1*
X32437Y42058D2*
X33187D1*
Y42102D1*
X34044D1*
X34062Y42120D1*
X34875D1*
Y42870D1*
X34750Y42995D1*
X34500Y49000D2*
X32746D1*
Y48720D1*
X32324D1*
X32106D1*
X32224Y48002D2*
Y48621D1*
X32324Y48720D1*
X36240Y48750D2*
Y48996D1*
X36220Y49016D1*
X34516D1*
X34500Y49000D1*
X27753Y41126D2*
Y40773D1*
Y40420D1*
Y40773D2*
X27141D1*
X26957Y40957D1*
X25961Y41500D2*
Y41012D1*
X26028Y40945D1*
X26945D1*
X26957Y40957D1*
X36260Y45906D2*
Y46339D1*
X34911D1*
Y47000D1*
X34500D1*
Y48000D1*
X31191Y47372D2*
X31358D1*
Y47293D1*
X32244D1*
Y47096D1*
X34500D1*
Y48000D1*
X36250Y46841D2*
X36260Y46339D1*
X32224Y47333D2*
X32244Y47293D1*
X21752Y44939D2*
Y43876D1*
X21674D1*
Y43858D1*
X21696D1*
X21161D2*
X21674D1*
X21161D2*
X20598D1*
X20042D1*
X20036Y43864D1*
X22260Y43858D2*
X21706D1*
X21674Y43876D1*
X23752Y44939D2*
Y43873D1*
X23767Y43858D1*
X23796D1*
X24338D1*
X24869D1*
X25397D1*
X25408Y43868D1*
X23252Y43858D2*
X23767D1*
X21752Y47065D2*
Y48564D1*
X21190D1*
X20458D1*
X20440Y48546D1*
X19752D1*
X25003Y48626D2*
X24333D1*
X24315Y48608D1*
X23771D1*
X23752Y48626D1*
Y47065D1*
X25690Y48608D2*
X25021D1*
X25003Y48626D1*
X31000Y40000D2*
X29379D1*
X29378Y40001D1*
Y41001D2*
X30999D1*
X31000Y41000D1*
Y42000D2*
X29379D1*
X29378Y42001D1*
Y43001D2*
X30999D1*
X31000Y43000D1*
X36000Y39000D2*
X34625D1*
X34563Y39063D1*
X34669Y38000D2*
X34625D1*
Y39000D1*
X36000Y40000D2*
X34567D1*
Y39774D1*
Y40531D2*
X36000D1*
Y41000D1*
Y42000D2*
Y43000D1*
X20000Y37000D2*
X20500Y36500D1*
X21500D1*
X22000Y37000D1*
X19000D2*
X20000Y36000D1*
X26000D2*
X27000Y37000D1*
X24000Y36000D2*
X25000Y37000D1*
Y36000D2*
X26000Y37000D1*
X13212Y38306D2*
Y37692D1*
X13210Y37690D1*
X13953D1*
X13956Y37687D1*
X36250Y47510D2*
Y48150D1*
X36240Y48159D1*
X7047Y40551D2*
Y39843D1*
X7087Y39803D1*
X7818D1*
X7822Y39799D1*
X22752Y44939D2*
Y45564D1*
X24990D1*
X25052Y45626D1*
X18622Y49094D2*
X19173D1*
X25052Y44752D2*
Y45626D1*
X20507Y46374D2*
X22752D1*
Y47065D1*
X20507Y46374D2*
Y47042D1*
X20496Y47031D1*
X19173Y48504D2*
X18622D1*
X34567Y45827D2*
X34754D1*
Y44685D1*
X34633Y44806D1*
X34750D1*
X31059Y46793D2*
X31333D1*
X31350Y46811D1*
X33632D1*
X34016Y46427D1*
X34528D1*
Y45827D1*
X34567D1*
X6388Y41261D2*
Y40688D1*
X6374Y40674D1*
X6414Y40150D2*
Y40634D1*
X6374Y40674D1*
X6380Y39494D2*
Y40115D1*
X6414Y40150D1*
X7047Y41220D2*
X6428D1*
X6388Y41261D1*
X5705Y40674D2*
Y41247D1*
X5719Y41261D1*
X10105Y40055D2*
X10636D1*
X11207Y40626D1*
D14*
X11246D1*
Y40094D1*
X11738D1*
X11919Y39913D1*
Y39596D1*
X13087D1*
Y39550D1*
X5445Y46787D2*
D15*
Y45110D1*
X11203D1*
X12122D1*
Y46768D1*
X12102Y46787D1*
X11207Y40626D2*
X11203Y41321D1*
X5719Y41261D2*
D13*
X4953D1*
X26217Y39768D2*
Y39571D1*
X27573D1*
X27753Y39750D1*
X23125Y39562D2*
X23750D1*
Y40313D1*
X23565D1*
X24492D1*
Y40311D1*
X23565Y40313D2*
X22063D1*
Y42501D1*
Y43189D1*
X21696D1*
X23565Y42438D2*
X23500Y42503D1*
Y43189D1*
X23796D1*
X22260D2*
X21696D1*
X23252D2*
X23795D1*
X23796D1*
X26217Y39768D2*
Y40295D1*
X24508D1*
X24492Y40311D1*
X25705Y39768D2*
X25689D1*
Y39323D1*
X26074Y38938D1*
X28691D1*
X28816Y38813D1*
Y37385D1*
X29138Y37063D1*
X38188D1*
X39000Y37875D1*
Y38000D1*
X38000Y39000D2*
X39000D1*
X7822Y40311D2*
Y40567D1*
Y40823D1*
Y41079D1*
Y41334D1*
Y41335D1*
X10105Y40311D2*
Y40567D1*
Y40823D1*
Y41079D1*
Y41335D1*
X6512Y42059D2*
D14*
X7264D1*
X7822Y41501D1*
Y41335D1*
X6512Y42059D2*
X10105D1*
X11110D1*
D13*
X11118Y42067D1*
X10105Y41335D2*
D14*
Y42059D1*
X6512D2*
D15*
Y43157D1*
X6795Y43441D1*
X11118Y42067D2*
Y43075D1*
X10752Y43441D1*
X18000Y36000D2*
D14*
Y37177D1*
X17764Y37413D1*
Y37807D1*
X17756Y37815D1*
X20598Y43189D2*
D13*
X20042D1*
X20036Y43195D1*
X19312D1*
Y44100D1*
Y44501D1*
X21252D1*
Y44939D1*
X18549Y44100D2*
X19312D1*
X19752Y47876D2*
X19190D1*
X20295Y44528D2*
X21252D1*
Y44939D1*
Y47065D2*
Y47832D1*
X21190Y47895D1*
X20458D1*
X20440Y47876D1*
X18549Y45100D2*
X18063D1*
Y47433D1*
X21252D1*
Y47065D1*
X24869Y43189D2*
X25397D1*
X25408Y43199D1*
X25817D1*
Y43910D1*
X25797D1*
Y44311D1*
X24252D1*
Y44939D1*
X25817Y43910D2*
X27098D1*
X27284Y44096D1*
X25690Y47939D2*
X25778D1*
Y44331D2*
X24252D1*
Y44939D1*
Y47065D2*
Y47876D1*
X24315Y47939D1*
X24984D1*
X25003Y47957D1*
X27284Y45096D2*
X27753D1*
Y47453D1*
X24252D1*
Y47065D1*
X36000Y45000D2*
X37000D1*
Y41000D2*
X36500Y40500D1*
Y38500D1*
X36000Y38000D1*
Y44000D2*
X37000D1*
D18*
X25429Y39004D3*
X30357Y46014D3*
X4232Y44409D3*
Y42299D3*
Y37547D3*
X7469Y37732D3*
X11425Y49370D3*
X28440Y42876D3*
Y41813D3*
X17520Y36575D3*
X19031Y38496D3*
X28317Y38553D3*
X16358Y48996D3*
X16382Y45362D3*
Y40154D3*
Y38760D3*
X25062Y39500D3*
X11250Y39173D3*
X22565Y41313D3*
X21440D3*
X29688Y45375D3*
X12732Y40616D3*
X12479Y39061D3*
X19173Y49094D3*
X25052Y44752D3*
X20496Y47031D3*
X19173Y48504D3*
X11203Y41321D3*
Y45110D3*
X4953Y41261D3*
X23500Y42501D3*
X22063D3*
X19190Y47876D3*
X20295Y44528D3*
X25778Y47939D3*
Y44331D3*
X8750Y40846D3*
Y40346D3*
X17000Y48000D3*
Y47500D3*
Y47000D3*
Y46500D3*
Y46000D3*
Y45500D3*
Y45000D3*
Y44500D3*
Y44000D3*
Y43500D3*
Y43000D3*
Y42500D3*
Y42000D3*
Y41500D3*
Y41000D3*
X8295Y43453D3*
X4752Y36709D3*
X5252D3*
X8750Y39846D3*
Y39346D3*
X9250Y40846D3*
Y40346D3*
Y39846D3*
Y39346D3*
X6406Y48283D3*
X6906D3*
X7406D3*
X7906D3*
X33316Y44924D3*
Y44424D3*
Y43924D3*
Y43424D3*
X33879Y44924D3*
Y44424D3*
Y43924D3*
Y43424D3*
X33316Y42924D3*
X33879D3*
X32441Y44174D3*
Y43674D3*
X8406Y48283D3*
X8906D3*
X9406D3*
X9906D3*
X8795Y43453D3*
X9295D3*
X5752Y36709D3*
X6252D3*
X6752D3*
X7252D3*
X7752D3*
X8252D3*
X8752D3*
X9252D3*
X9752D3*
X10252D3*
X10752D3*
X8295Y42953D3*
X11752Y36709D3*
X12252D3*
X12752D3*
X13252D3*
X17500Y42500D3*
Y42000D3*
X8795Y42953D3*
X9295D3*
X1406Y46118D3*
X1906D3*
X2406D3*
X2906D3*
X3406D3*
X14583Y46496D3*
X15083D3*
X15583D3*
X17500Y41500D3*
X13250Y42096D3*
Y41596D3*
Y41096D3*
Y40596D3*
X18000Y42500D3*
Y42000D3*
Y41500D3*
X18500Y42500D3*
Y42000D3*
Y41500D3*
X19000Y42500D3*
Y42000D3*
Y41500D3*
X19500Y42500D3*
Y42000D3*
Y41500D3*
X20000Y42500D3*
Y42000D3*
Y41500D3*
X20500Y42500D3*
Y42000D3*
Y41500D3*
X21000Y42500D3*
Y42000D3*
Y41500D3*
X22500Y48500D3*
Y48000D3*
X23000Y48500D3*
Y48000D3*
X28500Y49000D3*
Y48500D3*
Y48000D3*
Y47500D3*
Y47000D3*
Y46500D3*
Y46000D3*
Y45500D3*
Y45000D3*
X29000Y36500D3*
X29500D3*
X30000D3*
X30500D3*
X31000D3*
X31500D3*
X32000D3*
X32500D3*
X33000D3*
X33500D3*
X34000D3*
X34500D3*
X35000D3*
X35500D3*
X36000D3*
X36500D3*
X37000D3*
X37500D3*
X38000D3*
X38500D3*
X39000D3*
X39500D3*
X40000D3*
X1000Y46000D3*
Y45500D3*
Y45000D3*
Y44500D3*
Y44000D3*
Y43500D3*
Y43000D3*
Y42500D3*
Y42000D3*
Y41500D3*
Y41000D3*
Y40500D3*
Y40000D3*
Y39500D3*
Y39000D3*
Y38500D3*
Y38000D3*
Y37500D3*
Y37000D3*
Y36500D3*
Y36000D3*
X33328Y44967D2*
D16*
X33966D1*
X33328Y44718D2*
X33966D1*
X33328Y44469D2*
X33966D1*
X33250Y44221D2*
X33966D1*
X33250Y43972D2*
X33966D1*
X33250Y43723D2*
X33966D1*
X33250Y43475D2*
X33966D1*
X33250Y43226D2*
X33966D1*
X33250Y42977D2*
X33966D1*
X32996Y42729D2*
X33966D1*
X33992Y45196D2*
X33976Y45200D1*
X33992Y45159D1*
Y45194D1*
X33304Y45196D1*
Y44352D1*
X33225Y44350D1*
Y42926D1*
X32969D1*
Y42653D1*
X33535D1*
X33531Y42672D1*
X33995D1*
X33992Y43223D1*
X33996Y43517D1*
X33992Y43629D1*
Y45159D1*
X32437Y45002D2*
D17*
X33304D1*
X32437Y42727D2*
X32969D1*
X33992Y43901D2*
X34750D1*
X32467D2*
X33224D1*
X680Y49051D2*
D14*
X4551D1*
X21778D2*
X23682D1*
X26281D2*
X28649D1*
X38727D2*
X40320D1*
X680Y48753D2*
X4251D1*
X5890D2*
X6954D1*
X9028D2*
X9337D1*
X10024D2*
X10206D1*
X22163D2*
X23313D1*
X26281D2*
X28665D1*
X38879D2*
X40320D1*
X5591Y48454D2*
X10206D1*
X22208D2*
X23297D1*
X26281D2*
X28841D1*
X5296Y48155D2*
X10206D1*
X22208D2*
X23297D1*
X26326D2*
X28673D1*
X7609Y47857D2*
X9936D1*
X12915D2*
X13860D1*
X16926D2*
X17978D1*
X22208D2*
X23297D1*
X27921D2*
X28645D1*
X7609Y47558D2*
X9936D1*
X12915D2*
X13860D1*
X16926D2*
X17625D1*
X28196D2*
X28640D1*
X7609Y47259D2*
X9936D1*
X12915D2*
X13860D1*
X16926D2*
X17605D1*
X28208D2*
X28640D1*
X7609Y46960D2*
X9936D1*
X12915D2*
X13860D1*
X16926D2*
X17605D1*
X18522D2*
X19819D1*
X25739D2*
X27295D1*
X28208D2*
X28640D1*
X7609Y46662D2*
X9936D1*
X12915D2*
X13860D1*
X16926D2*
X17605D1*
X18989D2*
X19819D1*
X25739D2*
X26848D1*
X28208D2*
X28640D1*
X7609Y46363D2*
X9936D1*
X12915D2*
X14147D1*
X15876D2*
X17605D1*
X19223D2*
X19819D1*
X25739D2*
X26610D1*
X28208D2*
X28640D1*
X680Y46064D2*
X3661D1*
X7609D2*
X9936D1*
X12915D2*
X14147D1*
X15876D2*
X17605D1*
X19276D2*
X19819D1*
X23078D2*
X24367D1*
X25739D2*
X26557D1*
X28208D2*
X29112D1*
X680Y45766D2*
X1721D1*
X3450D2*
X3661D1*
X7609D2*
X9936D1*
X12915D2*
X14147D1*
X16803D2*
X17605D1*
X19190D2*
X19819D1*
X21195D2*
X22345D1*
X25739D2*
X26639D1*
X28208D2*
X28813D1*
X680Y45467D2*
X1721D1*
X12710D2*
X14147D1*
X16963D2*
X17605D1*
X19170D2*
X19819D1*
X25739D2*
X26664D1*
X28208D2*
X28669D1*
X680Y45168D2*
X1721D1*
X12710D2*
X14147D1*
X16939D2*
X17605D1*
X19272D2*
X19819D1*
X25739D2*
X26561D1*
X28208D2*
X28669D1*
X680Y44870D2*
X1721D1*
X12657D2*
X14147D1*
X16840D2*
X17674D1*
X25965D2*
X26594D1*
X28147D2*
X28669D1*
X680Y44571D2*
X1721D1*
X3450D2*
X3665D1*
X12915D2*
X14147D1*
X16840D2*
X17822D1*
X26314D2*
X26557D1*
X680Y44272D2*
X1721D1*
X3450D2*
X3657D1*
X7609D2*
X9936D1*
X16840D2*
X17822D1*
X680Y43974D2*
X1721D1*
X7609D2*
X9936D1*
X16840D2*
X17822D1*
X680Y43675D2*
X1721D1*
X7609D2*
X9936D1*
X16840D2*
X17822D1*
X680Y43376D2*
X1721D1*
X7609D2*
X9936D1*
X16840D2*
X18855D1*
X26273D2*
X27984D1*
X680Y43078D2*
X1721D1*
X7609D2*
X9936D1*
X12915D2*
X14147D1*
X16840D2*
X18872D1*
X26256D2*
X27886D1*
X38723D2*
X40320D1*
X680Y42779D2*
X1721D1*
X3450D2*
X3911D1*
X7609D2*
X9936D1*
X12915D2*
X15923D1*
X16840D2*
X19188D1*
X25998D2*
X27857D1*
X39851D2*
X40320D1*
X680Y42480D2*
X1721D1*
X3450D2*
X3669D1*
X12915D2*
X15923D1*
X16840D2*
X21472D1*
X26207D2*
X28013D1*
X680Y42181D2*
X3653D1*
X12514D2*
X15923D1*
X16840D2*
X21570D1*
X26519D2*
X27164D1*
X680Y41883D2*
X3776D1*
X12514D2*
X15923D1*
X16840D2*
X21607D1*
X26687D2*
X27164D1*
X680Y41584D2*
X3776D1*
X12514D2*
X15923D1*
X16840D2*
X21607D1*
X26687D2*
X27164D1*
X34651D2*
X35411D1*
X680Y41285D2*
X3776D1*
X11792D2*
X15923D1*
X34651D2*
X35333D1*
X680Y40987D2*
X3776D1*
X12604D2*
X15923D1*
X680Y40688D2*
X3776D1*
X4689D2*
X5096D1*
X12604D2*
X15923D1*
X680Y40389D2*
X3776D1*
X4689D2*
X5039D1*
X12604D2*
X15841D1*
X31608D2*
X33291D1*
X680Y40091D2*
X3776D1*
X14363D2*
X15792D1*
X31719D2*
X33291D1*
X680Y39792D2*
X3776D1*
X31694D2*
X33291D1*
X680Y39493D2*
X3776D1*
X33109D2*
X33286D1*
X680Y39195D2*
X3776D1*
X33109D2*
X33286D1*
X680Y38896D2*
X3776D1*
X11767D2*
X13368D1*
X14544D2*
X15808D1*
X33109D2*
X33286D1*
X680Y38597D2*
X3776D1*
X14544D2*
X15812D1*
X33109D2*
X33286D1*
X680Y38299D2*
X3776D1*
X14544D2*
X15944D1*
X33109D2*
X33394D1*
X680Y38000D2*
X3776D1*
X14544D2*
X15944D1*
X18345D2*
X18736D1*
X19325D2*
X28189D1*
X33109D2*
X33394D1*
X680Y37701D2*
X3661D1*
X14544D2*
X15944D1*
X18345D2*
X28357D1*
X680Y37402D2*
X3661D1*
X680Y37104D2*
X3858D1*
X4607D2*
X5121D1*
X38863D2*
X40320D1*
X680Y36805D2*
X5121D1*
X8244D2*
X15197D1*
X38563D2*
X40320D1*
X680Y36506D2*
X12273D1*
X28520D2*
X40320D1*
X680Y36208D2*
X12273D1*
X27696D2*
X40320D1*
X680Y35909D2*
X12273D1*
X27720D2*
X40320D1*
X16883Y41330D2*
X19185D1*
X19211Y41336D1*
X21635D1*
X21636Y42138D1*
X21590Y42196D1*
X21533Y42314D1*
X21504Y42441D1*
X21505Y42572D1*
X21510Y42610D1*
X20039Y42614D1*
X19477Y42616D1*
Y42768D1*
X19312D1*
X19183Y42788D1*
X19066Y42846D1*
X18972Y42937D1*
X18910Y43052D1*
X18886Y43195D1*
Y43404D1*
X17852Y43403D1*
Y44728D1*
X17732Y44830D1*
X17666Y44943D1*
X17636Y45100D1*
Y47433D1*
X17656Y47562D1*
X17714Y47679D1*
X17805Y47773D1*
X17920Y47835D1*
X18063Y47860D1*
X18625D1*
X18544Y47945D1*
X18044Y47949D1*
X17613Y47945D1*
X17374D1*
Y48080D1*
X16899Y48077D1*
X16897Y47707D1*
Y46605D1*
X15110D1*
Y46624D1*
X13892Y46623D1*
Y47954D1*
X12886Y47953D1*
X12888Y45540D1*
X12678D1*
X12681Y45110D1*
X12666Y44980D1*
X12620Y44857D1*
X12498Y44689D1*
X12888D1*
X12890Y44394D1*
X14182D1*
X14178Y44669D1*
X15847D1*
Y43001D1*
X14178D1*
Y43275D1*
X12884Y43276D1*
X12888Y42720D1*
Y42193D1*
X12482D1*
X12484Y41410D1*
X11758D1*
X11762Y41292D1*
X11770Y41283D1*
X11825Y41279D1*
X11914Y41283D1*
X12573D1*
Y40108D1*
X13666Y40105D1*
X14097Y40109D1*
X14335D1*
Y40064D1*
X15828Y40062D1*
X15824Y40225D1*
X15856Y40352D1*
X15916Y40468D1*
X15956Y40515D1*
X15955Y44997D1*
X15910Y45058D1*
X15847Y45195D1*
Y44733D1*
X14178D1*
Y46402D1*
X15847D1*
Y45535D1*
X15916Y45677D1*
X16002Y45776D1*
X16108Y45853D1*
X16229Y45903D1*
X16358Y45924D1*
X16489Y45914D1*
X16614Y45874D1*
X16726Y45807D1*
X16819Y45715D1*
X16889Y45604D1*
X16931Y45480D1*
X16944Y45362D1*
X16929Y45232D1*
X16884Y45109D1*
X16809Y44997D1*
Y40519D1*
X16856Y40448D1*
X16857Y41330D1*
X16883D1*
X11729Y38882D2*
X11753Y38878D1*
X11842Y38882D1*
X12422D1*
Y38864D1*
X13121Y38861D1*
X13400Y38865D1*
X13397Y38935D1*
X14515D1*
Y37663D1*
X15948D1*
X15975Y37778D1*
Y38373D1*
X15910Y38455D1*
X15852Y38573D1*
X15823Y38700D1*
X15824Y38831D1*
X15856Y38958D1*
X15896Y39035D1*
X14760Y39038D1*
X14337D1*
X14335Y38991D1*
X13178Y38995D1*
X12747Y38991D1*
X12509D1*
Y39085D1*
X12498Y39038D1*
X11792D1*
X11752Y38920D1*
X11727Y38883D1*
X11763Y38882D1*
X26656Y41575D2*
X27198D1*
X27194Y41704D1*
Y42373D1*
X28191D1*
X28052Y42470D1*
X27968Y42571D1*
X27911Y42689D1*
X27882Y42816D1*
X27883Y42947D1*
X27915Y43074D1*
X27975Y43191D1*
X28015Y43237D1*
X28014Y44250D1*
X28034Y44379D1*
X28092Y44496D1*
X28183Y44590D1*
X28298Y44652D1*
X28440Y44677D1*
X28699D1*
X28698Y45444D1*
X28718Y45573D1*
X28779Y45693D1*
X28916Y45839D1*
X29325Y46247D1*
X28670Y46248D1*
Y47642D1*
X28739D1*
X28704Y47728D1*
X28675Y47856D1*
X28671Y47987D1*
X28691Y48117D1*
X28735Y48240D1*
X28802Y48353D1*
X28880Y48442D1*
X28756Y48608D1*
X28704Y48728D1*
X28675Y48856D1*
X28671Y48987D1*
X28691Y49117D1*
X28735Y49240D1*
X28800Y49350D1*
X19671D1*
X19723Y49213D1*
X19732Y49128D1*
X20311Y49124D1*
X20631D1*
Y49142D1*
X21749D1*
X21752Y48991D1*
X21881Y48971D1*
X21999Y48913D1*
X22093Y48822D1*
X22155Y48707D1*
X22179Y48564D1*
Y47822D1*
X22232Y47816D1*
X22350Y47820D1*
X23326D1*
Y48626D1*
X23346Y48756D1*
X23404Y48873D1*
X23495Y48967D1*
X23610Y49029D1*
X23742Y49053D1*
X23756Y49079D1*
Y49187D1*
X24441D1*
X24444Y49205D1*
X25561D1*
Y49184D1*
X26249Y49187D1*
Y48243D1*
X26285Y48181D1*
X26327Y48057D1*
X26340Y47939D1*
X26332Y47878D1*
X27753Y47880D1*
X27882Y47860D1*
X27999Y47802D1*
X28093Y47711D1*
X28155Y47596D1*
X28180Y47453D1*
Y45096D1*
X28160Y44967D1*
X28102Y44850D1*
X28019Y44763D1*
X27980Y44661D1*
Y43399D1*
X26587D1*
Y43485D1*
X26241Y43483D1*
X26244Y43199D1*
X26224Y43070D1*
X26166Y42953D1*
X26086Y42868D1*
X25969Y42801D1*
X25967Y42620D1*
X25429D1*
X25428Y42610D1*
X24310Y42614D1*
X24293Y42610D1*
X24055D1*
X24096Y42553D1*
X25941D1*
X26070Y42533D1*
X26190Y42472D1*
X26336Y42335D1*
X26521Y42149D1*
X26563Y42138D1*
X26657D1*
Y41576D1*
X2531Y48610D2*
X3748D1*
Y48491D1*
X4023Y48492D1*
X4880Y49352D1*
X650Y49350D1*
Y35651D1*
X12307Y35650D1*
X12303Y36222D1*
Y36697D1*
X13697D1*
Y36627D1*
X13868Y36684D1*
X13998Y36697D1*
X14128Y36685D1*
X14254Y36649D1*
X14371Y36589D1*
X14500Y36482D1*
X14625Y36587D1*
X14742Y36647D1*
X14868Y36684D1*
X14998Y36697D1*
X15108Y36687D1*
X15231Y36809D1*
X8237D1*
X8136Y36797D1*
X6975D1*
X6976Y36666D1*
X5819Y36670D1*
X5388Y36666D1*
X5150D1*
X5148Y37201D1*
X4824Y37529D1*
X4794Y37547D1*
X4779Y37417D1*
X4734Y37294D1*
X4662Y37185D1*
X4566Y37095D1*
X4453Y37030D1*
X4327Y36993D1*
X4196Y36986D1*
X4068Y37010D1*
X3948Y37063D1*
X3843Y37142D1*
X3760Y37243D1*
X3702Y37360D1*
X3673Y37488D1*
X3675Y37619D1*
X3707Y37746D1*
X3767Y37862D1*
X3807Y37909D1*
X3805Y41931D1*
X3760Y41995D1*
X3702Y42112D1*
X3673Y42240D1*
X3675Y42371D1*
X3707Y42498D1*
X3767Y42614D1*
X3852Y42713D1*
X3958Y42790D1*
X4079Y42840D1*
X4209Y42861D1*
X4339Y42851D1*
X4464Y42811D1*
X4576Y42744D1*
X4661Y42661D1*
X4657Y42882D1*
X3423D1*
X3421Y42465D1*
X1752D1*
Y44134D1*
X3421D1*
Y43998D1*
X3843Y44004D1*
X3760Y44105D1*
X3702Y44222D1*
X3673Y44350D1*
X3675Y44481D1*
X3704Y44596D1*
X3424Y44595D1*
X3421Y44197D1*
X1752D1*
Y45866D1*
X3421D1*
Y45714D1*
X3689Y45712D1*
Y46150D1*
X3512Y46154D1*
X741Y46158D1*
Y48614D1*
X2528Y48610D1*
X21164Y45948D2*
X21166Y45694D1*
X21732Y45690D1*
X22166Y45694D1*
X22232Y45690D1*
X22395Y45798D1*
X22498Y45906D1*
X22490Y45947D1*
X21164Y45942D1*
X21160Y45756D1*
X21272Y45694D1*
X22232D1*
X20004Y45008D2*
X19850D1*
Y46992D1*
X19936D1*
X19809Y47006D1*
X18492D1*
X18494Y46794D1*
X18625Y46792D1*
X18754Y46766D1*
X18875Y46716D1*
X18984Y46644D1*
X19078Y46552D1*
X19154Y46445D1*
X19208Y46326D1*
X19238Y46198D1*
X19245Y46074D1*
X19228Y45944D1*
X19186Y45819D1*
X19123Y45705D1*
X19033Y45599D1*
X19111Y45511D1*
X19178Y45399D1*
X19223Y45276D1*
X19245Y45100D1*
X19233Y44969D1*
X19218Y44918D1*
X19312Y44928D1*
X19899D1*
X20005Y45006D1*
X25710Y46244D2*
Y45008D1*
X25550D1*
X25602Y44866D1*
X25754Y44892D1*
X25884Y44882D1*
X26009Y44843D1*
X26121Y44775D1*
X26215Y44684D1*
X26285Y44573D1*
X26327Y44449D1*
X26342Y44337D1*
X26584D1*
X26587Y44793D1*
X26657D1*
X26622Y44880D1*
X26593Y45007D1*
X26588Y45138D1*
X26609Y45268D1*
X26653Y45391D1*
X26719Y45504D1*
X26797Y45593D1*
X26701Y45714D1*
X26640Y45830D1*
X26601Y45956D1*
X26587Y46086D1*
X26598Y46217D1*
X26632Y46343D1*
X26690Y46461D1*
X26769Y46565D1*
X26866Y46653D1*
X26978Y46722D1*
X27100Y46768D1*
X27229Y46791D1*
X27327D1*
X27326Y47028D1*
X24730Y47026D1*
X24736Y46992D1*
X25710D1*
X25709Y45756D1*
X24395Y45988D2*
X24399Y46244D1*
X24395Y46308D1*
X23772Y46313D1*
X23522Y46309D1*
X23174D1*
X23163Y46259D1*
X23109Y46140D1*
X23007Y46032D1*
X23015Y45991D1*
X24395Y45992D1*
Y46255D1*
X24232Y46309D1*
X23272Y46313D1*
X23171Y46309D1*
X23159Y46245D1*
X23101Y46128D1*
X23010Y46034D1*
X33078Y38614D2*
X33081Y37741D1*
X33418Y37739D1*
X33421Y37966D1*
Y38503D1*
X33315Y38504D1*
X33319Y40332D1*
X33317Y40508D1*
X33285Y40540D1*
X31551Y40538D1*
X31508Y40523D1*
X31480Y40499D1*
X31562Y40411D1*
X31629Y40299D1*
X31674Y40176D1*
X31697Y40000D1*
X31684Y39870D1*
X31635Y39718D1*
X33081Y39717D1*
X33080Y38363D1*
X5068Y40313D2*
Y40630D1*
X5130D1*
X5126Y40726D1*
X5048Y40707D1*
X4917Y40700D1*
X4788Y40723D1*
X4658Y40783D1*
X4659Y37915D1*
X4729Y37807D1*
X4731Y39803D1*
X4751Y39932D1*
X4812Y40052D1*
X4948Y40198D1*
X5067Y40317D1*
X38697Y49348D2*
Y48881D1*
X38802Y48802D1*
X38915Y48689D1*
X38998Y48697D1*
X39128Y48685D1*
X39254Y48649D1*
X39371Y48589D1*
X39500Y48482D1*
X39561Y48541D1*
X39670Y48614D1*
X39791Y48665D1*
X39919Y48692D1*
X40050Y48695D1*
X40180Y48673D1*
X40303Y48628D1*
X40350Y48603D1*
Y49349D1*
X38700Y49350D1*
X38483Y43500D2*
X38562Y43411D1*
X38629Y43299D1*
X38674Y43176D1*
X38697Y43000D1*
X38690Y42931D1*
X39500Y42927D1*
X39629Y42907D1*
X39746Y42849D1*
X39833Y42766D1*
X39893Y42688D1*
X40024Y42696D1*
X40154Y42679D1*
X40279Y42638D1*
X40350Y42603D1*
Y43304D1*
X39303Y43303D1*
Y43373D1*
X39174Y43325D1*
X39044Y43305D1*
X38913Y43309D1*
X38785Y43337D1*
X38665Y43389D1*
X38557Y43463D1*
X38502Y43518D1*
X28690Y36908D2*
X28657Y36768D1*
X28602Y36649D1*
X28526Y36543D1*
X28431Y36452D1*
X28321Y36381D1*
X28199Y36332D1*
X28071Y36307D1*
X27940Y36306D1*
X27811Y36330D1*
X27688Y36377D1*
X27577Y36446D1*
X27499Y36515D1*
X27629Y36299D1*
X27674Y36176D1*
X27697Y36000D1*
X27684Y35870D1*
X27648Y35744D1*
X27601Y35652D1*
X29371Y35650D1*
X40350D1*
Y37300D1*
X39384Y37303D1*
X39303D1*
Y37373D1*
X39174Y37325D1*
X39032Y37305D1*
X38489Y36761D1*
X38384Y36683D1*
X38256Y36642D1*
X38056Y36636D1*
X29138D1*
X29009Y36656D1*
X28889Y36717D1*
X28744Y36853D1*
X28688Y36908D1*
X8378Y48746D2*
Y48677D1*
X6984D1*
Y48813D1*
X5922Y48815D1*
X5146Y48036D1*
X6230Y48035D1*
X7580D1*
Y45669D1*
X9967Y45671D1*
Y48035D1*
X10233D1*
X10236Y48819D1*
X10091Y48811D1*
X9978Y48744D1*
X9855Y48699D1*
X9725Y48679D1*
X9595Y48683D1*
X9467Y48711D1*
X9346Y48763D1*
X9238Y48837D1*
X9183Y48892D1*
X9091Y48811D1*
X8978Y48744D1*
X8855Y48699D1*
X8725Y48679D1*
X8595Y48683D1*
X8467Y48711D1*
X8378Y48747D1*
X35308Y40956D2*
X35305Y41042D1*
X35325Y41172D1*
X35369Y41295D1*
X35435Y41408D1*
X35514Y41497D1*
X35390Y41663D1*
X35338Y41784D1*
X35309Y41911D1*
X35305Y42042D1*
X35325Y42172D1*
X35354Y42253D1*
X35302Y42214D1*
Y42120D1*
X35282Y41991D1*
X35224Y41874D1*
X35133Y41780D1*
X35018Y41718D1*
X34875Y41693D1*
X34621Y41688D1*
Y41090D1*
X35145D1*
Y40955D1*
X35301Y40958D1*
X18313Y38393D2*
X18316Y37697D1*
X19697D1*
Y37627D1*
X19868Y37684D1*
X19998Y37697D1*
X20128Y37685D1*
X20254Y37649D1*
X20371Y37589D1*
X20500Y37482D1*
X20625Y37587D1*
X20742Y37647D1*
X20868Y37684D1*
X20998Y37697D1*
X21128Y37685D1*
X21254Y37649D1*
X21371Y37589D1*
X21500Y37482D1*
X21625Y37587D1*
X21742Y37647D1*
X21868Y37684D1*
X21998Y37697D1*
X22128Y37685D1*
X22254Y37649D1*
X22371Y37589D1*
X22500Y37482D1*
X22561Y37541D1*
X22670Y37614D1*
X22791Y37665D1*
X22919Y37692D1*
X23050Y37695D1*
X23180Y37673D1*
X23303Y37628D1*
X23415Y37560D1*
X23500Y37485D1*
X23625Y37587D1*
X23742Y37647D1*
X23868Y37684D1*
X23998Y37697D1*
X24128Y37685D1*
X24254Y37649D1*
X24371Y37589D1*
X24500Y37482D1*
X24625Y37587D1*
X24742Y37647D1*
X24868Y37684D1*
X24998Y37697D1*
X25128Y37685D1*
X25254Y37649D1*
X25371Y37589D1*
X25500Y37482D1*
X25625Y37587D1*
X25742Y37647D1*
X25868Y37684D1*
X25998Y37697D1*
X26128Y37685D1*
X26254Y37649D1*
X26371Y37589D1*
X26500Y37482D1*
X26625Y37587D1*
X26742Y37647D1*
X26868Y37684D1*
X26998Y37697D1*
X27128Y37685D1*
X27254Y37649D1*
X27371Y37589D1*
X27500Y37482D1*
X27561Y37541D1*
X27670Y37614D1*
X27791Y37665D1*
X27919Y37692D1*
X28050Y37695D1*
X28180Y37673D1*
X28303Y37628D1*
X28389Y37578D1*
Y37996D1*
X28281Y37992D1*
X28152Y38016D1*
X28032Y38068D1*
X27957Y38125D1*
X20226Y38126D1*
X20111Y38081D1*
X20012Y38069D1*
X19401D1*
X19252Y37979D1*
X19126Y37942D1*
X18996Y37935D1*
X18867Y37959D1*
X18747Y38011D1*
X18643Y38090D1*
X18559Y38191D1*
X18502Y38309D1*
X18473Y38437D1*
Y38490D1*
X18318Y38492D1*
X18315Y37906D1*
Y37700D1*
X7580Y44553D2*
Y42569D1*
X9924Y42571D1*
X9969D1*
X9967Y44030D1*
Y44551D1*
X7582D1*
X17750Y41330D2*
Y40654D1*
X16857D2*
X17750D1*
X18921Y41330D2*
Y40654D1*
X20079Y41336D2*
Y40659D1*
X21230Y41336D2*
Y40659D1*
X11843Y38881D2*
Y38323D1*
X11955Y41283D2*
Y40626D1*
X12572D1*
X14785Y47300D2*
Y46623D1*
X13892Y47300D2*
X14785D1*
X16003Y47282D2*
Y46605D1*
Y47282D2*
X16896D1*
X2854Y46831D2*
Y46154D1*
X1635Y46835D2*
Y46158D1*
X742Y46835D2*
X1635D1*
X19850Y45626D2*
X21164D1*
X25052Y46991D2*
Y46374D1*
X24396D2*
X25709D1*
X32188Y39716D2*
Y39040D1*
X33080D1*
X15013Y46401D2*
Y44733D1*
X14179Y45567D2*
X15847D1*
X23000Y37696D2*
Y37000D1*
X28000Y37696D2*
Y36304D1*
Y37000D2*
X28696D1*
X40000Y42696D2*
Y42000D1*
Y48696D2*
Y48000D1*
X8681Y49374D2*
Y48678D1*
X18549Y46796D2*
Y46100D1*
X19245D1*
X27284Y46792D2*
Y46096D1*
X26588D2*
X27284D1*
X29366Y46945D2*
Y46249D1*
X28670Y46945D2*
X29366D1*
X13956Y38935D2*
Y38357D1*
X14514D1*
X21161Y43189D2*
Y42611D1*
X24338Y43189D2*
Y42611D1*
X34062Y41451D2*
X34621D1*
X33422Y38000D2*
X34000D1*
X6795Y48035D2*
Y46787D1*
X7580D1*
X23252Y47820D2*
Y46309D1*
X22252Y47820D2*
Y47065D1*
D19*
X9363Y37639D3*
X10032D3*
D20*
X17750Y39551D3*
Y40654D3*
X18921Y39551D3*
Y40654D3*
X20079Y39557D3*
Y40659D3*
X21230Y39557D3*
Y40659D3*
D19*
X11192Y37681D3*
X11861D3*
D21*
X6408Y38310D3*
X5660D3*
D19*
X11174Y38323D3*
X11843D3*
D21*
X11207Y40626D3*
X11955D3*
D22*
X26957Y40957D3*
Y40209D3*
X24492Y40311D3*
Y41059D3*
D20*
X14785Y47300D3*
Y48402D3*
X16003Y47282D3*
Y48384D3*
D21*
X5764Y42059D3*
X6512D3*
X11118Y42067D3*
X11866D3*
D23*
X20598Y43189D3*
Y43858D3*
X20440Y47876D3*
Y48546D3*
D20*
X2854Y47933D3*
Y46831D3*
X1635Y47937D3*
Y46835D3*
D23*
X24869Y43189D3*
Y43858D3*
X25003Y47957D3*
Y48626D3*
D21*
X34567Y45827D3*
X33819D3*
D20*
X32437Y45002D3*
Y46104D3*
D23*
X33187Y42102D3*
Y41433D3*
D22*
X20507Y45626D3*
Y46374D3*
X25052Y45626D3*
Y46374D3*
D20*
X29813Y37938D3*
Y39040D3*
X32188Y37938D3*
Y39040D3*
D22*
X30000Y44250D3*
Y44998D3*
D25*
X2587Y45031D3*
Y43299D3*
X15013Y45567D3*
Y43835D3*
D27*
X6414Y40150D3*
X5548D3*
D28*
X36240Y48750D3*
Y48159D3*
D29*
X38000Y49000D3*
D30*
X37000D3*
X38000Y48000D3*
X37000D3*
X38000Y47000D3*
X37000D3*
X38000Y46000D3*
X37000D3*
X38000Y45000D3*
X37000D3*
X38000Y44000D3*
X37000D3*
X38000Y43000D3*
X37000D3*
X38000Y42000D3*
X37000D3*
X38000Y41000D3*
X37000D3*
X38000Y40000D3*
X37000D3*
X38000Y39000D3*
X37000D3*
X38000Y38000D3*
X37000D3*
D29*
X19000Y37000D3*
D30*
X20000D3*
X21000D3*
X22000D3*
X23000D3*
X24000D3*
X25000D3*
X26000D3*
X27000D3*
X28000D3*
D29*
X40000Y38000D3*
D30*
X39000D3*
X40000Y39000D3*
X39000D3*
X40000Y40000D3*
X39000D3*
X40000Y41000D3*
X39000D3*
X40000Y42000D3*
X39000D3*
D29*
X40000Y44000D3*
D30*
X39000D3*
X40000Y45000D3*
X39000D3*
X40000Y46000D3*
X39000D3*
X40000Y47000D3*
X39000D3*
X40000Y48000D3*
X39000D3*
D29*
X7681Y49374D3*
D30*
X8681D3*
X9681D3*
D29*
X18549Y44100D3*
D30*
Y45100D3*
Y46100D3*
D29*
X27284Y44096D3*
D30*
Y45096D3*
Y46096D3*
D29*
X34500Y48000D3*
D30*
Y49000D3*
D29*
X29366Y46945D3*
D30*
Y47945D3*
Y48945D3*
D29*
X29378Y40001D3*
D30*
Y41001D3*
Y42001D3*
Y43001D3*
D29*
X36000Y38000D3*
D30*
Y39000D3*
Y40000D3*
Y41000D3*
Y42000D3*
Y43000D3*
Y44000D3*
Y45000D3*
D29*
X31000Y38000D3*
D30*
Y39000D3*
Y40000D3*
Y41000D3*
Y42000D3*
Y43000D3*
Y44000D3*
Y45000D3*
D29*
X13000Y36000D3*
D30*
X14000D3*
X15000D3*
X16000D3*
X17000D3*
X18000D3*
X19000D3*
X20000D3*
X21000D3*
X22000D3*
X23000D3*
X24000D3*
X25000D3*
X26000D3*
X27000D3*
D32*
X31201Y49094D3*
Y48346D3*
X32106Y48720D3*
D19*
X8809Y38203D3*
X8140D3*
X8805Y37639D3*
X8136D3*
X10032Y38209D3*
X9363D3*
D23*
X13956Y38357D3*
Y37687D3*
D19*
X13212Y38306D3*
X12542D3*
X13210Y37690D3*
X12540D3*
X5699Y38908D3*
X6368D3*
X11250Y39596D3*
X11919D3*
X5711Y39494D3*
X6380D3*
X13757Y39550D3*
X13087D3*
X5705Y40674D3*
X6374D3*
X5719Y41261D3*
X6388D3*
X23750Y39562D3*
X24419D3*
X23125D3*
X22456D3*
D23*
X27753Y41126D3*
Y41795D3*
Y39750D3*
Y40420D3*
X21161Y43189D3*
Y43858D3*
X22260Y43189D3*
Y43858D3*
X20036Y43864D3*
Y43195D3*
X21190Y48564D3*
Y47895D3*
X21696Y43189D3*
Y43858D3*
X19752Y47876D3*
Y48546D3*
X24338Y43189D3*
Y43858D3*
X23252Y43189D3*
Y43858D3*
X25408Y43868D3*
Y43199D3*
X24315Y48608D3*
Y47939D3*
X23796Y43189D3*
Y43858D3*
X25690Y47939D3*
Y48608D3*
X31059Y46124D3*
Y46793D3*
D19*
X30522Y47372D3*
X31191D3*
X35591Y45906D3*
X36260D3*
D23*
X34062Y41451D3*
Y42120D3*
X32437Y42058D3*
Y42727D3*
X30541Y49094D3*
Y48425D3*
D19*
X18622Y48504D3*
X17953D3*
Y49094D3*
X18622D3*
X34000Y38000D3*
X34669D3*
X34563Y39063D3*
X33893D3*
D23*
X17756Y37815D3*
Y38484D3*
D19*
X34567Y39774D3*
X33898D3*
X34567Y40531D3*
X33898D3*
D23*
X32224Y47333D3*
Y48002D3*
X36250Y46841D3*
Y47510D3*
X7047Y41220D3*
Y40551D3*
D19*
X6398Y37224D3*
X5728D3*
D34*
X5445Y43441D3*
X6795D3*
Y46787D3*
X5445D3*
X10752Y43441D3*
X12102D3*
Y46787D3*
X10752D3*
D35*
X10105Y39031D3*
Y39287D3*
Y39543D3*
Y39799D3*
Y40055D3*
Y40311D3*
Y40567D3*
Y40823D3*
Y41079D3*
Y41335D3*
X7822D3*
Y41079D3*
Y40823D3*
Y40567D3*
Y40311D3*
Y40055D3*
Y39799D3*
Y39543D3*
Y39287D3*
Y39031D3*
D36*
X8964Y40183D3*
D37*
X34750Y42995D3*
Y43901D3*
Y44806D3*
D38*
X32467Y43901D3*
D39*
X25449Y39768D3*
X25705D3*
X25961D3*
X26217D3*
Y41500D3*
X25961D3*
X25705D3*
X25449D3*
D32*
X23565Y40313D3*
Y41061D3*
X22659Y40687D3*
D40*
X21252Y44939D3*
X21752D3*
X22252D3*
X22752D3*
X23252D3*
X23752D3*
X24252D3*
Y47065D3*
X23752D3*
X23252D3*
X22752D3*
X22252D3*
X21752D3*
X21252D3*
X75688Y37938D2*
D13*
X74562D1*
X74500Y38000D1*
X73375D1*
X73313Y37938D1*
X67919Y39562D2*
Y39004D1*
D14*
X64720D1*
X63579D1*
X62421D1*
X61312D1*
X61256D1*
X60512D1*
X59966Y39550D1*
X57257D1*
X68929Y39004D2*
X67919D1*
X61250Y39551D2*
D13*
X62421D1*
X63573D1*
X63579Y39557D1*
X64730D1*
X74559Y46124D2*
X73967D1*
X73857Y46014D1*
X63579Y39557D2*
D14*
Y39004D1*
X62421Y39551D2*
Y39004D1*
X61250Y39551D2*
Y39066D1*
X61312Y39004D1*
X64730Y39557D2*
D13*
X65950D1*
X65956Y39562D1*
X64730Y39557D2*
D14*
X64720D1*
Y39004D1*
X61256Y38484D2*
Y39004D1*
X45135Y47937D2*
X46354D1*
Y47933D1*
D15*
X47748D1*
Y45154D1*
X46209D1*
X46087Y45031D1*
X51181Y49374D2*
X49193D1*
X47752Y47933D1*
X47748Y45154D2*
D13*
Y44394D1*
X47732Y44409D1*
Y42299D2*
Y37547D1*
X50969Y37732D2*
Y37858D1*
X51295Y38185D1*
X51622D1*
X51640Y38203D1*
X61453Y49094D2*
X61319D1*
X61043Y49370D1*
X54925D1*
X73500Y44250D2*
X72625D1*
Y45444D1*
X74022Y46841D1*
Y47372D1*
X72625Y44250D2*
X71940D1*
Y42876D1*
Y41813D2*
X71271D1*
X71253Y41795D1*
X73500Y44250D2*
X74250D1*
X74500Y44000D1*
X77398Y40531D2*
Y39774D1*
X77393Y39063D2*
Y39774D1*
X77398D1*
X74500Y44000D2*
X75000Y43500D1*
Y41020D1*
X75055Y40965D1*
X76965D1*
X77398Y40531D1*
X58500Y36000D2*
X58526D1*
X59100Y36575D1*
X61020D1*
X62531Y38496D2*
X63512D1*
Y38553D1*
X71817D1*
X58285Y48402D2*
D14*
X59485D1*
D13*
X59503Y48384D1*
X53181Y49374D2*
D15*
X54295D1*
Y48512D1*
Y46831D1*
X54252Y46787D1*
X58285Y48402D2*
Y48512D1*
X54295D1*
X61453Y48504D2*
D13*
X59623D1*
X59503Y48384D1*
Y48641D1*
X59858Y48996D1*
X59882Y45362D2*
Y40154D1*
Y38760D2*
X59902D1*
Y37516D1*
X59622Y37236D1*
X51636D1*
Y37639D1*
X49898Y37224D2*
X51636D1*
X80500Y48000D2*
X81000Y48500D1*
X82000D1*
X82500Y48000D1*
X81500D2*
X82500Y47000D1*
X81500D2*
X82500Y46000D1*
X81500D2*
X82500Y45000D1*
X81500D2*
X82500Y44000D1*
X80500Y43000D2*
X81000Y42500D1*
X83000D1*
Y41500D1*
X83500Y41000D1*
Y40000D2*
X83000Y40500D1*
X81120D1*
X81000Y40620D1*
Y41500D1*
X80500Y42000D1*
X81500D2*
X82500Y41000D1*
X68949Y39768D2*
X68898D1*
X68692Y39562D1*
X68625D1*
X68562Y39500D1*
X65752Y44939D2*
Y44638D1*
X66127Y44262D1*
Y42278D1*
X66530Y41876D1*
X68876D1*
X68949Y41803D1*
Y41500D1*
X69717D2*
Y41850D1*
X69441Y42126D1*
X66677D1*
X66377Y42426D1*
Y44251D1*
X66752Y44626D1*
Y44938D1*
Y44939D1*
X53605Y39799D2*
X54547D1*
X54750Y39596D1*
Y39173D1*
X76687Y41433D2*
X77544D1*
X77562Y41451D1*
X75937Y46104D2*
X76069D1*
Y45827D1*
X77319D1*
X77500Y38000D2*
X76688D1*
X76563Y38125D1*
Y38965D1*
X76465Y39062D1*
X75710D1*
X75688Y39040D1*
X74701Y48346D2*
X74120D1*
X74041Y48425D1*
X75937Y46104D2*
X75114D1*
Y45000D1*
X75252D1*
Y41654D1*
X75473Y41433D1*
X76687D1*
X83500Y48000D2*
X84000Y47500D1*
Y42500D1*
X83500Y42000D1*
X74041Y48425D2*
X73496D1*
Y49502D1*
X72402D1*
Y47449D1*
X72866Y46984D1*
Y46945D1*
X67065Y41061D2*
X67992D1*
Y41059D1*
X68552Y46374D2*
X66817D1*
X66752Y46439D1*
Y47064D1*
Y47065D1*
X64007Y45626D2*
X64752D1*
X65127Y46001D1*
X66502D1*
X66817Y46316D1*
Y46374D1*
X65752Y47065D2*
Y48564D1*
X66000D1*
X66752D1*
Y47065D1*
X67838Y43189D2*
Y42751D1*
X71253D1*
Y44571D1*
X70253D1*
Y46096D1*
X70784D1*
X62049Y46100D2*
X62565D1*
Y44583D1*
X61564D1*
Y42688D1*
X64940D1*
X64661D1*
Y43189D1*
X64007Y45626D2*
Y45501D1*
X63502D1*
X62903Y46100D1*
X62049D1*
X68552Y46374D2*
X69630D1*
X69908Y46096D1*
X70784D1*
X67065Y41061D2*
X66317D1*
X66065Y41313D1*
X64940D2*
Y42688D1*
X74500Y39000D2*
X73352D1*
X73313Y39040D1*
X74500Y39000D2*
X75648D1*
X75688Y39040D1*
X73500Y44998D2*
X74498D1*
X74500Y45000D1*
X75114D1*
X73500Y44998D2*
Y45063D1*
X73188Y45375D1*
X59500Y36000D2*
X60500D1*
X49211Y39494D2*
Y38920D1*
X49199Y38908D1*
Y38349D1*
X49160Y38310D1*
Y38075D1*
X49483Y37752D1*
X50297D1*
X50928Y38383D1*
Y38679D1*
X51322D1*
X52500D1*
Y39346D1*
Y40147D1*
X52464Y40183D1*
X51322Y39031D2*
Y38679D1*
X58285Y47300D2*
D14*
X59485D1*
D13*
X59503Y47282D1*
X45135Y46835D2*
D14*
X46354D1*
Y46831D1*
X58513Y45567D2*
D15*
Y46291D1*
X59503Y47282D1*
X57456Y38357D2*
D13*
Y39061D1*
X55979D1*
X55343D1*
Y38323D1*
X56232Y40616D2*
X56222Y40626D1*
X55455D1*
X52250Y39346D2*
X52750D1*
X52250Y39846D2*
X52750D1*
X52250Y40346D2*
X52750D1*
X52250Y40846D2*
X52750D1*
X52250D2*
Y40346D1*
Y39846D1*
Y39346D1*
X52500D1*
X61250Y40654D2*
X62421D1*
X63573D1*
X63579Y40659D1*
X64730D1*
X69205Y41500D2*
Y41059D1*
Y40803D1*
X69366Y40642D1*
X69894D1*
X70327Y40209D1*
X70457D1*
X67992Y41059D2*
X69205D1*
X66000Y48500D2*
Y48564D1*
X74701Y49094D2*
X74041D1*
X80500Y49000D2*
X80438D1*
X79875Y49563D1*
X74041D1*
Y49094D1*
X75967Y43901D2*
Y42756D1*
X75937Y42727D1*
X75967Y43901D2*
Y44973D1*
X75937Y45002D1*
X78250Y43901D2*
Y43858D1*
X78667D1*
X79000Y44191D1*
Y45906D1*
X79091D1*
X75967Y43901D2*
X78250D1*
X81500Y40000D2*
X82500D1*
X81500D2*
X81000Y39500D1*
Y37687D1*
X80625Y37312D1*
X72772D1*
X72563Y37522D1*
Y38969D1*
X72343Y39189D1*
X69657D1*
X69461Y39386D1*
Y39768D1*
X49048Y40150D2*
X49004D1*
X48657Y39803D1*
Y37795D1*
X49228Y37224D1*
X55361Y37681D2*
X56032D1*
X56040Y37690D1*
X56042Y38306D2*
Y37692D1*
X55366Y42067D2*
D15*
Y43205D1*
X55602Y43441D1*
X58513Y43835D2*
X55996D1*
X55602Y43441D1*
X48945D2*
X46228D1*
X46087Y43299D1*
X49264Y42059D2*
Y43122D1*
X48945Y43441D1*
X51322Y39287D2*
D13*
X50757D1*
X50680Y39211D1*
Y38526D1*
X50491Y38337D1*
X49935D1*
X49908Y38310D1*
X53605Y39287D2*
X54175D1*
Y38618D1*
X54480Y38313D1*
X54664D1*
X54674Y38323D1*
Y37699D1*
X54692Y37681D1*
X51322Y39543D2*
X50528D1*
X50373Y39388D1*
Y38963D1*
X50338Y38927D1*
X49887D1*
X49868Y38908D1*
X53532Y37639D2*
Y38209D1*
X53605Y39031D2*
Y38282D1*
X53532Y38209D1*
X52309Y38203D2*
X52857D1*
X52863Y38209D1*
X52305Y37639D2*
X52863D1*
Y38208D1*
X75937Y42058D2*
X76687D1*
Y42102D1*
X77544D1*
X77562Y42120D1*
X78375D1*
Y42870D1*
X78250Y42995D1*
X78000Y49000D2*
X76246D1*
Y48720D1*
X75824D1*
X75606D1*
X75724Y48002D2*
Y48621D1*
X75824Y48720D1*
X79740Y48750D2*
Y48996D1*
X79720Y49016D1*
X78016D1*
X78000Y49000D1*
X71253Y41126D2*
Y40773D1*
Y40420D1*
Y40773D2*
X70641D1*
X70457Y40957D1*
X69461Y41500D2*
Y41012D1*
X69528Y40945D1*
X70445D1*
X70457Y40957D1*
X79760Y45906D2*
Y46339D1*
X78411D1*
Y47000D1*
X78000D1*
Y48000D1*
X74691Y47372D2*
X74858D1*
Y47293D1*
X75744D1*
Y47096D1*
X78000D1*
Y48000D1*
X79750Y46841D2*
X79760Y46339D1*
X75724Y47333D2*
X75744Y47293D1*
X65252Y44939D2*
Y43876D1*
X65174D1*
Y43858D1*
X65196D1*
X64661D2*
X65174D1*
X64661D2*
X64098D1*
X63542D1*
X63536Y43864D1*
X65760Y43858D2*
X65206D1*
X65174Y43876D1*
X67252Y44939D2*
Y43873D1*
X67267Y43858D1*
X67296D1*
X67838D1*
X68369D1*
X68897D1*
X68908Y43868D1*
X66752Y43858D2*
X67267D1*
X65252Y47065D2*
Y48564D1*
X64690D1*
X63958D1*
X63940Y48546D1*
X63252D1*
X68503Y48626D2*
X67833D1*
X67815Y48608D1*
X67271D1*
X67252Y48626D1*
Y47065D1*
X69190Y48608D2*
X68521D1*
X68503Y48626D1*
X74500Y40000D2*
X72879D1*
X72878Y40001D1*
Y41001D2*
X74499D1*
X74500Y41000D1*
Y42000D2*
X72879D1*
X72878Y42001D1*
Y43001D2*
X74499D1*
X74500Y43000D1*
X79500Y39000D2*
X78125D1*
X78063Y39063D1*
X78169Y38000D2*
X78125D1*
Y39000D1*
X79500Y40000D2*
X78067D1*
Y39774D1*
Y40531D2*
X79500D1*
Y41000D1*
Y42000D2*
Y43000D1*
X63500Y37000D2*
X64000Y36500D1*
X65000D1*
X65500Y37000D1*
X62500D2*
X63500Y36000D1*
X69500D2*
X70500Y37000D1*
X67500Y36000D2*
X68500Y37000D1*
Y36000D2*
X69500Y37000D1*
X56712Y38306D2*
Y37692D1*
X56710Y37690D1*
X57453D1*
X57456Y37687D1*
X79750Y47510D2*
Y48150D1*
X79740Y48159D1*
X50547Y40551D2*
Y39843D1*
X50587Y39803D1*
X51318D1*
X51322Y39799D1*
X66252Y44939D2*
Y45564D1*
X68490D1*
X68552Y45626D1*
X62122Y49094D2*
X62673D1*
X68552Y44752D2*
Y45626D1*
X64007Y46374D2*
X66252D1*
Y47065D1*
X64007Y46374D2*
Y47042D1*
X63996Y47031D1*
X62673Y48504D2*
X62122D1*
X78067Y45827D2*
X78254D1*
Y44685D1*
X78133Y44806D1*
X78250D1*
X74559Y46793D2*
X74833D1*
X74850Y46811D1*
X77132D1*
X77516Y46427D1*
X78028D1*
Y45827D1*
X78067D1*
X49888Y41261D2*
Y40688D1*
X49874Y40674D1*
X49914Y40150D2*
Y40634D1*
X49874Y40674D1*
X49880Y39494D2*
Y40115D1*
X49914Y40150D1*
X50547Y41220D2*
X49928D1*
X49888Y41261D1*
X49205Y40674D2*
Y41247D1*
X49219Y41261D1*
X53605Y40055D2*
X54136D1*
X54707Y40626D1*
D14*
X54746D1*
Y40094D1*
X55238D1*
X55419Y39913D1*
Y39596D1*
X56587D1*
Y39550D1*
X48945Y46787D2*
D15*
Y45110D1*
X54703D1*
X55622D1*
Y46768D1*
X55602Y46787D1*
X54707Y40626D2*
X54703Y41321D1*
X49219Y41261D2*
D13*
X48453D1*
X69717Y39768D2*
Y39571D1*
X71073D1*
X71253Y39750D1*
X66625Y39562D2*
X67250D1*
Y40313D1*
X67065D1*
X67992D1*
Y40311D1*
X67065Y40313D2*
X65563D1*
Y42501D1*
Y43189D1*
X65196D1*
X67065Y42438D2*
X67000Y42503D1*
Y43189D1*
X67296D1*
X65760D2*
X65196D1*
X66752D2*
X67295D1*
X67296D1*
X69717Y39768D2*
Y40295D1*
X68008D1*
X67992Y40311D1*
X69205Y39768D2*
X69189D1*
Y39323D1*
X69574Y38938D1*
X72191D1*
X72316Y38813D1*
Y37385D1*
X72638Y37063D1*
X81688D1*
X82500Y37875D1*
Y38000D1*
X81500Y39000D2*
X82500D1*
X51322Y40311D2*
Y40567D1*
Y40823D1*
Y41079D1*
Y41334D1*
Y41335D1*
X53605Y40311D2*
Y40567D1*
Y40823D1*
Y41079D1*
Y41335D1*
X50012Y42059D2*
D14*
X50764D1*
X51322Y41501D1*
Y41335D1*
X50012Y42059D2*
X53605D1*
X54610D1*
D13*
X54618Y42067D1*
X53605Y41335D2*
D14*
Y42059D1*
X50012D2*
D15*
Y43157D1*
X50295Y43441D1*
X54618Y42067D2*
Y43075D1*
X54252Y43441D1*
X61500Y36000D2*
D14*
Y37177D1*
X61264Y37413D1*
Y37807D1*
X61256Y37815D1*
X64098Y43189D2*
D13*
X63542D1*
X63536Y43195D1*
X62812D1*
Y44100D1*
Y44501D1*
X64752D1*
Y44939D1*
X62049Y44100D2*
X62812D1*
X63252Y47876D2*
X62690D1*
X63795Y44528D2*
X64752D1*
Y44939D1*
Y47065D2*
Y47832D1*
X64690Y47895D1*
X63958D1*
X63940Y47876D1*
X62049Y45100D2*
X61563D1*
Y47433D1*
X64752D1*
Y47065D1*
X68369Y43189D2*
X68897D1*
X68908Y43199D1*
X69317D1*
Y43910D1*
X69297D1*
Y44311D1*
X67752D1*
Y44939D1*
X69317Y43910D2*
X70598D1*
X70784Y44096D1*
X69190Y47939D2*
X69278D1*
Y44331D2*
X67752D1*
Y44939D1*
Y47065D2*
Y47876D1*
X67815Y47939D1*
X68484D1*
X68503Y47957D1*
X70784Y45096D2*
X71253D1*
Y47453D1*
X67752D1*
Y47065D1*
X79500Y45000D2*
X80500D1*
Y41000D2*
X80000Y40500D1*
Y38500D1*
X79500Y38000D1*
Y44000D2*
X80500D1*
D18*
X68929Y39004D3*
X73857Y46014D3*
X47732Y44409D3*
Y42299D3*
Y37547D3*
X50969Y37732D3*
X54925Y49370D3*
X71940Y42876D3*
Y41813D3*
X61020Y36575D3*
X62531Y38496D3*
X71817Y38553D3*
X59858Y48996D3*
X59882Y45362D3*
Y40154D3*
Y38760D3*
X68562Y39500D3*
X54750Y39173D3*
X66065Y41313D3*
X64940D3*
X73188Y45375D3*
X56232Y40616D3*
X55979Y39061D3*
X62673Y49094D3*
X68552Y44752D3*
X63996Y47031D3*
X62673Y48504D3*
X54703Y41321D3*
Y45110D3*
X48453Y41261D3*
X67000Y42501D3*
X65563D3*
X62690Y47876D3*
X63795Y44528D3*
X69278Y47939D3*
Y44331D3*
X52250Y40846D3*
Y40346D3*
X60500Y48000D3*
Y47500D3*
Y47000D3*
Y46500D3*
Y46000D3*
Y45500D3*
Y45000D3*
Y44500D3*
Y44000D3*
Y43500D3*
Y43000D3*
Y42500D3*
Y42000D3*
Y41500D3*
Y41000D3*
X51795Y43453D3*
X48252Y36709D3*
X48752D3*
X52250Y39846D3*
Y39346D3*
X52750Y40846D3*
Y40346D3*
Y39846D3*
Y39346D3*
X49906Y48283D3*
X50406D3*
X50906D3*
X51406D3*
X76816Y44924D3*
Y44424D3*
Y43924D3*
Y43424D3*
X77379Y44924D3*
Y44424D3*
Y43924D3*
Y43424D3*
X76816Y42924D3*
X77379D3*
X75941Y44174D3*
Y43674D3*
X51906Y48283D3*
X52406D3*
X52906D3*
X53406D3*
X52295Y43453D3*
X52795D3*
X49252Y36709D3*
X49752D3*
X50252D3*
X50752D3*
X51252D3*
X51752D3*
X52252D3*
X52752D3*
X53252D3*
X53752D3*
X54252D3*
X51795Y42953D3*
X55252Y36709D3*
X55752D3*
X56252D3*
X56752D3*
X61000Y42500D3*
Y42000D3*
X52295Y42953D3*
X52795D3*
X44906Y46118D3*
X45406D3*
X45906D3*
X46406D3*
X46906D3*
X58083Y46496D3*
X58583D3*
X59083D3*
X61000Y41500D3*
X56750Y42096D3*
Y41596D3*
Y41096D3*
Y40596D3*
X61500Y42500D3*
Y42000D3*
Y41500D3*
X62000Y42500D3*
Y42000D3*
Y41500D3*
X62500Y42500D3*
Y42000D3*
Y41500D3*
X63000Y42500D3*
Y42000D3*
Y41500D3*
X63500Y42500D3*
Y42000D3*
Y41500D3*
X64000Y42500D3*
Y42000D3*
Y41500D3*
X64500Y42500D3*
Y42000D3*
Y41500D3*
X66000Y48500D3*
Y48000D3*
X66500Y48500D3*
Y48000D3*
X72000Y49000D3*
Y48500D3*
Y48000D3*
Y47500D3*
Y47000D3*
Y46500D3*
Y46000D3*
Y45500D3*
Y45000D3*
X72500Y36500D3*
X73000D3*
X73500D3*
X74000D3*
X74500D3*
X75000D3*
X75500D3*
X76000D3*
X76500D3*
X77000D3*
X77500D3*
X78000D3*
X78500D3*
X79000D3*
X79500D3*
X80000D3*
X80500D3*
X81000D3*
X81500D3*
X82000D3*
X82500D3*
X83000D3*
X83500D3*
X44500Y46000D3*
Y45500D3*
Y45000D3*
Y44500D3*
Y44000D3*
Y43500D3*
Y43000D3*
Y42500D3*
Y42000D3*
Y41500D3*
Y41000D3*
Y40500D3*
Y40000D3*
Y39500D3*
Y39000D3*
Y38500D3*
Y38000D3*
Y37500D3*
Y37000D3*
Y36500D3*
Y36000D3*
X76828Y44967D2*
D16*
X77466D1*
X76828Y44718D2*
X77466D1*
X76828Y44469D2*
X77466D1*
X76750Y44221D2*
X77466D1*
X76750Y43972D2*
X77466D1*
X76750Y43723D2*
X77466D1*
X76750Y43475D2*
X77466D1*
X76750Y43226D2*
X77466D1*
X76750Y42977D2*
X77466D1*
X76496Y42729D2*
X77466D1*
X77492Y45196D2*
X77476Y45200D1*
X77492Y45159D1*
Y45194D1*
X76804Y45196D1*
Y44352D1*
X76725Y44350D1*
Y42926D1*
X76469D1*
Y42653D1*
X77035D1*
X77031Y42672D1*
X77495D1*
X77492Y43223D1*
X77496Y43517D1*
X77492Y43629D1*
Y45159D1*
X75937Y45002D2*
D17*
X76804D1*
X75937Y42727D2*
X76469D1*
X77492Y43901D2*
X78250D1*
X75967D2*
X76724D1*
X44180Y49051D2*
D14*
X48051D1*
X65278D2*
X67182D1*
X69781D2*
X72149D1*
X82227D2*
X83820D1*
X44180Y48753D2*
X47751D1*
X49390D2*
X50454D1*
X52528D2*
X52837D1*
X53524D2*
X53706D1*
X65663D2*
X66813D1*
X69781D2*
X72165D1*
X82379D2*
X83820D1*
X49091Y48454D2*
X53706D1*
X65708D2*
X66797D1*
X69781D2*
X72341D1*
X48796Y48155D2*
X53706D1*
X65708D2*
X66797D1*
X69826D2*
X72173D1*
X51109Y47857D2*
X53436D1*
X56415D2*
X57360D1*
X60426D2*
X61478D1*
X65708D2*
X66797D1*
X71421D2*
X72145D1*
X51109Y47558D2*
X53436D1*
X56415D2*
X57360D1*
X60426D2*
X61125D1*
X71696D2*
X72140D1*
X51109Y47259D2*
X53436D1*
X56415D2*
X57360D1*
X60426D2*
X61105D1*
X71708D2*
X72140D1*
X51109Y46960D2*
X53436D1*
X56415D2*
X57360D1*
X60426D2*
X61105D1*
X62022D2*
X63319D1*
X69239D2*
X70795D1*
X71708D2*
X72140D1*
X51109Y46662D2*
X53436D1*
X56415D2*
X57360D1*
X60426D2*
X61105D1*
X62489D2*
X63319D1*
X69239D2*
X70348D1*
X71708D2*
X72140D1*
X51109Y46363D2*
X53436D1*
X56415D2*
X57647D1*
X59376D2*
X61105D1*
X62723D2*
X63319D1*
X69239D2*
X70110D1*
X71708D2*
X72140D1*
X44180Y46064D2*
X47161D1*
X51109D2*
X53436D1*
X56415D2*
X57647D1*
X59376D2*
X61105D1*
X62776D2*
X63319D1*
X66578D2*
X67867D1*
X69239D2*
X70057D1*
X71708D2*
X72612D1*
X44180Y45766D2*
X45221D1*
X46950D2*
X47161D1*
X51109D2*
X53436D1*
X56415D2*
X57647D1*
X60303D2*
X61105D1*
X62690D2*
X63319D1*
X64695D2*
X65845D1*
X69239D2*
X70139D1*
X71708D2*
X72313D1*
X44180Y45467D2*
X45221D1*
X56210D2*
X57647D1*
X60463D2*
X61105D1*
X62670D2*
X63319D1*
X69239D2*
X70164D1*
X71708D2*
X72169D1*
X44180Y45168D2*
X45221D1*
X56210D2*
X57647D1*
X60439D2*
X61105D1*
X62772D2*
X63319D1*
X69239D2*
X70061D1*
X71708D2*
X72169D1*
X44180Y44870D2*
X45221D1*
X56157D2*
X57647D1*
X60340D2*
X61174D1*
X69465D2*
X70094D1*
X71647D2*
X72169D1*
X44180Y44571D2*
X45221D1*
X46950D2*
X47165D1*
X56415D2*
X57647D1*
X60340D2*
X61322D1*
X69814D2*
X70057D1*
X44180Y44272D2*
X45221D1*
X46950D2*
X47157D1*
X51109D2*
X53436D1*
X60340D2*
X61322D1*
X44180Y43974D2*
X45221D1*
X51109D2*
X53436D1*
X60340D2*
X61322D1*
X44180Y43675D2*
X45221D1*
X51109D2*
X53436D1*
X60340D2*
X61322D1*
X44180Y43376D2*
X45221D1*
X51109D2*
X53436D1*
X60340D2*
X62355D1*
X69773D2*
X71484D1*
X44180Y43078D2*
X45221D1*
X51109D2*
X53436D1*
X56415D2*
X57647D1*
X60340D2*
X62372D1*
X69756D2*
X71386D1*
X82223D2*
X83820D1*
X44180Y42779D2*
X45221D1*
X46950D2*
X47411D1*
X51109D2*
X53436D1*
X56415D2*
X59423D1*
X60340D2*
X62688D1*
X69498D2*
X71357D1*
X83351D2*
X83820D1*
X44180Y42480D2*
X45221D1*
X46950D2*
X47169D1*
X56415D2*
X59423D1*
X60340D2*
X64972D1*
X69707D2*
X71513D1*
X44180Y42181D2*
X47153D1*
X56014D2*
X59423D1*
X60340D2*
X65070D1*
X70019D2*
X70664D1*
X44180Y41883D2*
X47276D1*
X56014D2*
X59423D1*
X60340D2*
X65107D1*
X70187D2*
X70664D1*
X44180Y41584D2*
X47276D1*
X56014D2*
X59423D1*
X60340D2*
X65107D1*
X70187D2*
X70664D1*
X78151D2*
X78911D1*
X44180Y41285D2*
X47276D1*
X55292D2*
X59423D1*
X78151D2*
X78833D1*
X44180Y40987D2*
X47276D1*
X56104D2*
X59423D1*
X44180Y40688D2*
X47276D1*
X48189D2*
X48596D1*
X56104D2*
X59423D1*
X44180Y40389D2*
X47276D1*
X48189D2*
X48539D1*
X56104D2*
X59341D1*
X75108D2*
X76791D1*
X44180Y40091D2*
X47276D1*
X57863D2*
X59292D1*
X75219D2*
X76791D1*
X44180Y39792D2*
X47276D1*
X75194D2*
X76791D1*
X44180Y39493D2*
X47276D1*
X76609D2*
X76786D1*
X44180Y39195D2*
X47276D1*
X76609D2*
X76786D1*
X44180Y38896D2*
X47276D1*
X55267D2*
X56868D1*
X58044D2*
X59308D1*
X76609D2*
X76786D1*
X44180Y38597D2*
X47276D1*
X58044D2*
X59312D1*
X76609D2*
X76786D1*
X44180Y38299D2*
X47276D1*
X58044D2*
X59444D1*
X76609D2*
X76894D1*
X44180Y38000D2*
X47276D1*
X58044D2*
X59444D1*
X61845D2*
X62236D1*
X62825D2*
X71689D1*
X76609D2*
X76894D1*
X44180Y37701D2*
X47161D1*
X58044D2*
X59444D1*
X61845D2*
X71857D1*
X44180Y37402D2*
X47161D1*
X44180Y37104D2*
X47358D1*
X48107D2*
X48621D1*
X82363D2*
X83820D1*
X44180Y36805D2*
X48621D1*
X51744D2*
X58697D1*
X82063D2*
X83820D1*
X44180Y36506D2*
X55773D1*
X72020D2*
X83820D1*
X44180Y36208D2*
X55773D1*
X71196D2*
X83820D1*
X44180Y35909D2*
X55773D1*
X71220D2*
X83820D1*
X60383Y41330D2*
X62685D1*
X62711Y41336D1*
X65135D1*
X65136Y42138D1*
X65090Y42196D1*
X65033Y42314D1*
X65004Y42441D1*
X65005Y42572D1*
X65010Y42610D1*
X63539Y42614D1*
X62977Y42616D1*
Y42768D1*
X62812D1*
X62683Y42788D1*
X62566Y42846D1*
X62472Y42937D1*
X62410Y43052D1*
X62386Y43195D1*
Y43404D1*
X61352Y43403D1*
Y44728D1*
X61232Y44830D1*
X61166Y44943D1*
X61136Y45100D1*
Y47433D1*
X61156Y47562D1*
X61214Y47679D1*
X61305Y47773D1*
X61420Y47835D1*
X61563Y47860D1*
X62125D1*
X62044Y47945D1*
X61544Y47949D1*
X61113Y47945D1*
X60874D1*
Y48080D1*
X60399Y48077D1*
X60397Y47707D1*
Y46605D1*
X58610D1*
Y46624D1*
X57392Y46623D1*
Y47954D1*
X56386Y47953D1*
X56388Y45540D1*
X56178D1*
X56181Y45110D1*
X56166Y44980D1*
X56120Y44857D1*
X55998Y44689D1*
X56388D1*
X56390Y44394D1*
X57682D1*
X57678Y44669D1*
X59347D1*
Y43001D1*
X57678D1*
Y43275D1*
X56384Y43276D1*
X56388Y42720D1*
Y42193D1*
X55982D1*
X55984Y41410D1*
X55258D1*
X55262Y41292D1*
X55270Y41283D1*
X55325Y41279D1*
X55414Y41283D1*
X56073D1*
Y40108D1*
X57166Y40105D1*
X57597Y40109D1*
X57835D1*
Y40064D1*
X59328Y40062D1*
X59324Y40225D1*
X59356Y40352D1*
X59416Y40468D1*
X59456Y40515D1*
X59455Y44997D1*
X59410Y45058D1*
X59347Y45195D1*
Y44733D1*
X57678D1*
Y46402D1*
X59347D1*
Y45535D1*
X59416Y45677D1*
X59502Y45776D1*
X59608Y45853D1*
X59729Y45903D1*
X59858Y45924D1*
X59989Y45914D1*
X60114Y45874D1*
X60226Y45807D1*
X60319Y45715D1*
X60389Y45604D1*
X60431Y45480D1*
X60444Y45362D1*
X60429Y45232D1*
X60384Y45109D1*
X60309Y44997D1*
Y40519D1*
X60356Y40448D1*
X60357Y41330D1*
X60383D1*
X55229Y38882D2*
X55253Y38878D1*
X55342Y38882D1*
X55922D1*
Y38864D1*
X56621Y38861D1*
X56900Y38865D1*
X56897Y38935D1*
X58015D1*
Y37663D1*
X59448D1*
X59475Y37778D1*
Y38373D1*
X59410Y38455D1*
X59352Y38573D1*
X59323Y38700D1*
X59324Y38831D1*
X59356Y38958D1*
X59396Y39035D1*
X58260Y39038D1*
X57837D1*
X57835Y38991D1*
X56678Y38995D1*
X56247Y38991D1*
X56009D1*
Y39085D1*
X55998Y39038D1*
X55292D1*
X55252Y38920D1*
X55227Y38883D1*
X55263Y38882D1*
X70156Y41575D2*
X70698D1*
X70694Y41704D1*
Y42373D1*
X71691D1*
X71552Y42470D1*
X71468Y42571D1*
X71411Y42689D1*
X71382Y42816D1*
X71383Y42947D1*
X71415Y43074D1*
X71475Y43191D1*
X71515Y43237D1*
X71514Y44250D1*
X71534Y44379D1*
X71592Y44496D1*
X71683Y44590D1*
X71798Y44652D1*
X71940Y44677D1*
X72199D1*
X72198Y45444D1*
X72218Y45573D1*
X72279Y45693D1*
X72416Y45839D1*
X72825Y46247D1*
X72170Y46248D1*
Y47642D1*
X72239D1*
X72204Y47728D1*
X72175Y47856D1*
X72171Y47987D1*
X72191Y48117D1*
X72235Y48240D1*
X72302Y48353D1*
X72380Y48442D1*
X72256Y48608D1*
X72204Y48728D1*
X72175Y48856D1*
X72171Y48987D1*
X72191Y49117D1*
X72235Y49240D1*
X72300Y49350D1*
X63171D1*
X63223Y49213D1*
X63232Y49128D1*
X63811Y49124D1*
X64131D1*
Y49142D1*
X65249D1*
X65252Y48991D1*
X65381Y48971D1*
X65499Y48913D1*
X65593Y48822D1*
X65655Y48707D1*
X65679Y48564D1*
Y47822D1*
X65732Y47816D1*
X65850Y47820D1*
X66826D1*
Y48626D1*
X66846Y48756D1*
X66904Y48873D1*
X66995Y48967D1*
X67110Y49029D1*
X67242Y49053D1*
X67256Y49079D1*
Y49187D1*
X67941D1*
X67944Y49205D1*
X69061D1*
Y49184D1*
X69749Y49187D1*
Y48243D1*
X69785Y48181D1*
X69827Y48057D1*
X69840Y47939D1*
X69832Y47878D1*
X71253Y47880D1*
X71382Y47860D1*
X71499Y47802D1*
X71593Y47711D1*
X71655Y47596D1*
X71680Y47453D1*
Y45096D1*
X71660Y44967D1*
X71602Y44850D1*
X71519Y44763D1*
X71480Y44661D1*
Y43399D1*
X70087D1*
Y43485D1*
X69741Y43483D1*
X69744Y43199D1*
X69724Y43070D1*
X69666Y42953D1*
X69586Y42868D1*
X69469Y42801D1*
X69467Y42620D1*
X68929D1*
X68928Y42610D1*
X67810Y42614D1*
X67793Y42610D1*
X67555D1*
X67596Y42553D1*
X69441D1*
X69570Y42533D1*
X69690Y42472D1*
X69836Y42335D1*
X70021Y42149D1*
X70063Y42138D1*
X70157D1*
Y41576D1*
X46031Y48610D2*
X47248D1*
Y48491D1*
X47523Y48492D1*
X48380Y49352D1*
X44150Y49350D1*
Y35651D1*
X55807Y35650D1*
X55803Y36222D1*
Y36697D1*
X57197D1*
Y36627D1*
X57368Y36684D1*
X57498Y36697D1*
X57628Y36685D1*
X57754Y36649D1*
X57871Y36589D1*
X58000Y36482D1*
X58125Y36587D1*
X58242Y36647D1*
X58368Y36684D1*
X58498Y36697D1*
X58608Y36687D1*
X58731Y36809D1*
X51737D1*
X51636Y36797D1*
X50475D1*
X50476Y36666D1*
X49319Y36670D1*
X48888Y36666D1*
X48650D1*
X48648Y37201D1*
X48324Y37529D1*
X48294Y37547D1*
X48279Y37417D1*
X48234Y37294D1*
X48162Y37185D1*
X48066Y37095D1*
X47953Y37030D1*
X47827Y36993D1*
X47696Y36986D1*
X47568Y37010D1*
X47448Y37063D1*
X47343Y37142D1*
X47260Y37243D1*
X47202Y37360D1*
X47173Y37488D1*
X47175Y37619D1*
X47207Y37746D1*
X47267Y37862D1*
X47307Y37909D1*
X47305Y41931D1*
X47260Y41995D1*
X47202Y42112D1*
X47173Y42240D1*
X47175Y42371D1*
X47207Y42498D1*
X47267Y42614D1*
X47352Y42713D1*
X47458Y42790D1*
X47579Y42840D1*
X47709Y42861D1*
X47839Y42851D1*
X47964Y42811D1*
X48076Y42744D1*
X48161Y42661D1*
X48157Y42882D1*
X46923D1*
X46921Y42465D1*
X45252D1*
Y44134D1*
X46921D1*
Y43998D1*
X47343Y44004D1*
X47260Y44105D1*
X47202Y44222D1*
X47173Y44350D1*
X47175Y44481D1*
X47204Y44596D1*
X46924Y44595D1*
X46921Y44197D1*
X45252D1*
Y45866D1*
X46921D1*
Y45714D1*
X47189Y45712D1*
Y46150D1*
X47012Y46154D1*
X44241Y46158D1*
Y48614D1*
X46028Y48610D1*
X64664Y45948D2*
X64666Y45694D1*
X65232Y45690D1*
X65666Y45694D1*
X65732Y45690D1*
X65895Y45798D1*
X65998Y45906D1*
X65990Y45947D1*
X64664Y45942D1*
X64660Y45756D1*
X64772Y45694D1*
X65732D1*
X63504Y45008D2*
X63350D1*
Y46992D1*
X63436D1*
X63309Y47006D1*
X61992D1*
X61994Y46794D1*
X62125Y46792D1*
X62254Y46766D1*
X62375Y46716D1*
X62484Y46644D1*
X62578Y46552D1*
X62654Y46445D1*
X62708Y46326D1*
X62738Y46198D1*
X62745Y46074D1*
X62728Y45944D1*
X62686Y45819D1*
X62623Y45705D1*
X62533Y45599D1*
X62611Y45511D1*
X62678Y45399D1*
X62723Y45276D1*
X62745Y45100D1*
X62733Y44969D1*
X62718Y44918D1*
X62812Y44928D1*
X63399D1*
X63505Y45006D1*
X69210Y46244D2*
Y45008D1*
X69050D1*
X69102Y44866D1*
X69254Y44892D1*
X69384Y44882D1*
X69509Y44843D1*
X69621Y44775D1*
X69715Y44684D1*
X69785Y44573D1*
X69827Y44449D1*
X69842Y44337D1*
X70084D1*
X70087Y44793D1*
X70157D1*
X70122Y44880D1*
X70093Y45007D1*
X70088Y45138D1*
X70109Y45268D1*
X70153Y45391D1*
X70219Y45504D1*
X70297Y45593D1*
X70201Y45714D1*
X70140Y45830D1*
X70101Y45956D1*
X70087Y46086D1*
X70098Y46217D1*
X70132Y46343D1*
X70190Y46461D1*
X70269Y46565D1*
X70366Y46653D1*
X70478Y46722D1*
X70600Y46768D1*
X70729Y46791D1*
X70827D1*
X70826Y47028D1*
X68230Y47026D1*
X68236Y46992D1*
X69210D1*
X69209Y45756D1*
X67895Y45988D2*
X67899Y46244D1*
X67895Y46308D1*
X67272Y46313D1*
X67022Y46309D1*
X66674D1*
X66663Y46259D1*
X66609Y46140D1*
X66507Y46032D1*
X66515Y45991D1*
X67895Y45992D1*
Y46255D1*
X67732Y46309D1*
X66772Y46313D1*
X66671Y46309D1*
X66659Y46245D1*
X66601Y46128D1*
X66510Y46034D1*
X76578Y38614D2*
X76581Y37741D1*
X76918Y37739D1*
X76921Y37966D1*
Y38503D1*
X76815Y38504D1*
X76819Y40332D1*
X76817Y40508D1*
X76785Y40540D1*
X75051Y40538D1*
X75008Y40523D1*
X74980Y40499D1*
X75062Y40411D1*
X75129Y40299D1*
X75174Y40176D1*
X75197Y40000D1*
X75184Y39870D1*
X75135Y39718D1*
X76581Y39717D1*
X76580Y38363D1*
X48568Y40313D2*
Y40630D1*
X48630D1*
X48626Y40726D1*
X48548Y40707D1*
X48417Y40700D1*
X48288Y40723D1*
X48158Y40783D1*
X48159Y37915D1*
X48229Y37807D1*
X48231Y39803D1*
X48251Y39932D1*
X48312Y40052D1*
X48448Y40198D1*
X48567Y40317D1*
X82197Y49348D2*
Y48881D1*
X82302Y48802D1*
X82415Y48689D1*
X82498Y48697D1*
X82628Y48685D1*
X82754Y48649D1*
X82871Y48589D1*
X83000Y48482D1*
X83061Y48541D1*
X83170Y48614D1*
X83291Y48665D1*
X83419Y48692D1*
X83550Y48695D1*
X83680Y48673D1*
X83803Y48628D1*
X83850Y48603D1*
Y49349D1*
X82200Y49350D1*
X81983Y43500D2*
X82062Y43411D1*
X82129Y43299D1*
X82174Y43176D1*
X82197Y43000D1*
X82190Y42931D1*
X83000Y42927D1*
X83129Y42907D1*
X83246Y42849D1*
X83333Y42766D1*
X83393Y42688D1*
X83524Y42696D1*
X83654Y42679D1*
X83779Y42638D1*
X83850Y42603D1*
Y43304D1*
X82803Y43303D1*
Y43373D1*
X82674Y43325D1*
X82544Y43305D1*
X82413Y43309D1*
X82285Y43337D1*
X82165Y43389D1*
X82057Y43463D1*
X82002Y43518D1*
X72190Y36908D2*
X72157Y36768D1*
X72102Y36649D1*
X72026Y36543D1*
X71931Y36452D1*
X71821Y36381D1*
X71699Y36332D1*
X71571Y36307D1*
X71440Y36306D1*
X71311Y36330D1*
X71188Y36377D1*
X71077Y36446D1*
X70999Y36515D1*
X71129Y36299D1*
X71174Y36176D1*
X71197Y36000D1*
X71184Y35870D1*
X71148Y35744D1*
X71101Y35652D1*
X72871Y35650D1*
X83850D1*
Y37300D1*
X82884Y37303D1*
X82803D1*
Y37373D1*
X82674Y37325D1*
X82532Y37305D1*
X81989Y36761D1*
X81884Y36683D1*
X81756Y36642D1*
X81556Y36636D1*
X72638D1*
X72509Y36656D1*
X72389Y36717D1*
X72244Y36853D1*
X72188Y36908D1*
X51878Y48746D2*
Y48677D1*
X50484D1*
Y48813D1*
X49422Y48815D1*
X48646Y48036D1*
X49730Y48035D1*
X51080D1*
Y45669D1*
X53467Y45671D1*
Y48035D1*
X53733D1*
X53736Y48819D1*
X53591Y48811D1*
X53478Y48744D1*
X53355Y48699D1*
X53225Y48679D1*
X53095Y48683D1*
X52967Y48711D1*
X52846Y48763D1*
X52738Y48837D1*
X52683Y48892D1*
X52591Y48811D1*
X52478Y48744D1*
X52355Y48699D1*
X52225Y48679D1*
X52095Y48683D1*
X51967Y48711D1*
X51878Y48747D1*
X78808Y40956D2*
X78805Y41042D1*
X78825Y41172D1*
X78869Y41295D1*
X78935Y41408D1*
X79014Y41497D1*
X78890Y41663D1*
X78838Y41784D1*
X78809Y41911D1*
X78805Y42042D1*
X78825Y42172D1*
X78854Y42253D1*
X78802Y42214D1*
Y42120D1*
X78782Y41991D1*
X78724Y41874D1*
X78633Y41780D1*
X78518Y41718D1*
X78375Y41693D1*
X78121Y41688D1*
Y41090D1*
X78645D1*
Y40955D1*
X78801Y40958D1*
X61813Y38393D2*
X61816Y37697D1*
X63197D1*
Y37627D1*
X63368Y37684D1*
X63498Y37697D1*
X63628Y37685D1*
X63754Y37649D1*
X63871Y37589D1*
X64000Y37482D1*
X64125Y37587D1*
X64242Y37647D1*
X64368Y37684D1*
X64498Y37697D1*
X64628Y37685D1*
X64754Y37649D1*
X64871Y37589D1*
X65000Y37482D1*
X65125Y37587D1*
X65242Y37647D1*
X65368Y37684D1*
X65498Y37697D1*
X65628Y37685D1*
X65754Y37649D1*
X65871Y37589D1*
X66000Y37482D1*
X66061Y37541D1*
X66170Y37614D1*
X66291Y37665D1*
X66419Y37692D1*
X66550Y37695D1*
X66680Y37673D1*
X66803Y37628D1*
X66915Y37560D1*
X67000Y37485D1*
X67125Y37587D1*
X67242Y37647D1*
X67368Y37684D1*
X67498Y37697D1*
X67628Y37685D1*
X67754Y37649D1*
X67871Y37589D1*
X68000Y37482D1*
X68125Y37587D1*
X68242Y37647D1*
X68368Y37684D1*
X68498Y37697D1*
X68628Y37685D1*
X68754Y37649D1*
X68871Y37589D1*
X69000Y37482D1*
X69125Y37587D1*
X69242Y37647D1*
X69368Y37684D1*
X69498Y37697D1*
X69628Y37685D1*
X69754Y37649D1*
X69871Y37589D1*
X70000Y37482D1*
X70125Y37587D1*
X70242Y37647D1*
X70368Y37684D1*
X70498Y37697D1*
X70628Y37685D1*
X70754Y37649D1*
X70871Y37589D1*
X71000Y37482D1*
X71061Y37541D1*
X71170Y37614D1*
X71291Y37665D1*
X71419Y37692D1*
X71550Y37695D1*
X71680Y37673D1*
X71803Y37628D1*
X71889Y37578D1*
Y37996D1*
X71781Y37992D1*
X71652Y38016D1*
X71532Y38068D1*
X71457Y38125D1*
X63726Y38126D1*
X63611Y38081D1*
X63512Y38069D1*
X62901D1*
X62752Y37979D1*
X62626Y37942D1*
X62496Y37935D1*
X62367Y37959D1*
X62247Y38011D1*
X62143Y38090D1*
X62059Y38191D1*
X62002Y38309D1*
X61973Y38437D1*
Y38490D1*
X61818Y38492D1*
X61815Y37906D1*
Y37700D1*
X51080Y44553D2*
Y42569D1*
X53424Y42571D1*
X53469D1*
X53467Y44030D1*
Y44551D1*
X51082D1*
X61250Y41330D2*
Y40654D1*
X60357D2*
X61250D1*
X62421Y41330D2*
Y40654D1*
X63579Y41336D2*
Y40659D1*
X64730Y41336D2*
Y40659D1*
X55343Y38881D2*
Y38323D1*
X55455Y41283D2*
Y40626D1*
X56072D1*
X58285Y47300D2*
Y46623D1*
X57392Y47300D2*
X58285D1*
X59503Y47282D2*
Y46605D1*
Y47282D2*
X60396D1*
X46354Y46831D2*
Y46154D1*
X45135Y46835D2*
Y46158D1*
X44242Y46835D2*
X45135D1*
X63350Y45626D2*
X64664D1*
X68552Y46991D2*
Y46374D1*
X67896D2*
X69209D1*
X75688Y39716D2*
Y39040D1*
X76580D1*
X58513Y46401D2*
Y44733D1*
X57679Y45567D2*
X59347D1*
X66500Y37696D2*
Y37000D1*
X71500Y37696D2*
Y36304D1*
Y37000D2*
X72196D1*
X83500Y42696D2*
Y42000D1*
Y48696D2*
Y48000D1*
X52181Y49374D2*
Y48678D1*
X62049Y46796D2*
Y46100D1*
X62745D1*
X70784Y46792D2*
Y46096D1*
X70088D2*
X70784D1*
X72866Y46945D2*
Y46249D1*
X72170Y46945D2*
X72866D1*
X57456Y38935D2*
Y38357D1*
X58014D1*
X64661Y43189D2*
Y42611D1*
X67838Y43189D2*
Y42611D1*
X77562Y41451D2*
X78121D1*
X76922Y38000D2*
X77500D1*
X50295Y48035D2*
Y46787D1*
X51080D1*
X66752Y47820D2*
Y46309D1*
X65752Y47820D2*
Y47065D1*
D19*
X52863Y37639D3*
X53532D3*
D20*
X61250Y39551D3*
Y40654D3*
X62421Y39551D3*
Y40654D3*
X63579Y39557D3*
Y40659D3*
X64730Y39557D3*
Y40659D3*
D19*
X54692Y37681D3*
X55361D3*
D21*
X49908Y38310D3*
X49160D3*
D19*
X54674Y38323D3*
X55343D3*
D21*
X54707Y40626D3*
X55455D3*
D22*
X70457Y40957D3*
Y40209D3*
X67992Y40311D3*
Y41059D3*
D20*
X58285Y47300D3*
Y48402D3*
X59503Y47282D3*
Y48384D3*
D21*
X49264Y42059D3*
X50012D3*
X54618Y42067D3*
X55366D3*
D23*
X64098Y43189D3*
Y43858D3*
X63940Y47876D3*
Y48546D3*
D20*
X46354Y47933D3*
Y46831D3*
X45135Y47937D3*
Y46835D3*
D23*
X68369Y43189D3*
Y43858D3*
X68503Y47957D3*
Y48626D3*
D21*
X78067Y45827D3*
X77319D3*
D20*
X75937Y45002D3*
Y46104D3*
D23*
X76687Y42102D3*
Y41433D3*
D22*
X64007Y45626D3*
Y46374D3*
X68552Y45626D3*
Y46374D3*
D20*
X73313Y37938D3*
Y39040D3*
X75688Y37938D3*
Y39040D3*
D22*
X73500Y44250D3*
Y44998D3*
D25*
X46087Y45031D3*
Y43299D3*
X58513Y45567D3*
Y43835D3*
D27*
X49914Y40150D3*
X49048D3*
D28*
X79740Y48750D3*
Y48159D3*
D29*
X81500Y49000D3*
D30*
X80500D3*
X81500Y48000D3*
X80500D3*
X81500Y47000D3*
X80500D3*
X81500Y46000D3*
X80500D3*
X81500Y45000D3*
X80500D3*
X81500Y44000D3*
X80500D3*
X81500Y43000D3*
X80500D3*
X81500Y42000D3*
X80500D3*
X81500Y41000D3*
X80500D3*
X81500Y40000D3*
X80500D3*
X81500Y39000D3*
X80500D3*
X81500Y38000D3*
X80500D3*
D29*
X62500Y37000D3*
D30*
X63500D3*
X64500D3*
X65500D3*
X66500D3*
X67500D3*
X68500D3*
X69500D3*
X70500D3*
X71500D3*
D29*
X83500Y38000D3*
D30*
X82500D3*
X83500Y39000D3*
X82500D3*
X83500Y40000D3*
X82500D3*
X83500Y41000D3*
X82500D3*
X83500Y42000D3*
X82500D3*
D29*
X83500Y44000D3*
D30*
X82500D3*
X83500Y45000D3*
X82500D3*
X83500Y46000D3*
X82500D3*
X83500Y47000D3*
X82500D3*
X83500Y48000D3*
X82500D3*
D29*
X51181Y49374D3*
D30*
X52181D3*
X53181D3*
D29*
X62049Y44100D3*
D30*
Y45100D3*
Y46100D3*
D29*
X70784Y44096D3*
D30*
Y45096D3*
Y46096D3*
D29*
X78000Y48000D3*
D30*
Y49000D3*
D29*
X72866Y46945D3*
D30*
Y47945D3*
Y48945D3*
D29*
X72878Y40001D3*
D30*
Y41001D3*
Y42001D3*
Y43001D3*
D29*
X79500Y38000D3*
D30*
Y39000D3*
Y40000D3*
Y41000D3*
Y42000D3*
Y43000D3*
Y44000D3*
Y45000D3*
D29*
X74500Y38000D3*
D30*
Y39000D3*
Y40000D3*
Y41000D3*
Y42000D3*
Y43000D3*
Y44000D3*
Y45000D3*
D29*
X56500Y36000D3*
D30*
X57500D3*
X58500D3*
X59500D3*
X60500D3*
X61500D3*
X62500D3*
X63500D3*
X64500D3*
X65500D3*
X66500D3*
X67500D3*
X68500D3*
X69500D3*
X70500D3*
D32*
X74701Y49094D3*
Y48346D3*
X75606Y48720D3*
D19*
X52309Y38203D3*
X51640D3*
X52305Y37639D3*
X51636D3*
X53532Y38209D3*
X52863D3*
D23*
X57456Y38357D3*
Y37687D3*
D19*
X56712Y38306D3*
X56042D3*
X56710Y37690D3*
X56040D3*
X49199Y38908D3*
X49868D3*
X54750Y39596D3*
X55419D3*
X49211Y39494D3*
X49880D3*
X57257Y39550D3*
X56587D3*
X49205Y40674D3*
X49874D3*
X49219Y41261D3*
X49888D3*
X67250Y39562D3*
X67919D3*
X66625D3*
X65956D3*
D23*
X71253Y41126D3*
Y41795D3*
Y39750D3*
Y40420D3*
X64661Y43189D3*
Y43858D3*
X65760Y43189D3*
Y43858D3*
X63536Y43864D3*
Y43195D3*
X64690Y48564D3*
Y47895D3*
X65196Y43189D3*
Y43858D3*
X63252Y47876D3*
Y48546D3*
X67838Y43189D3*
Y43858D3*
X66752Y43189D3*
Y43858D3*
X68908Y43868D3*
Y43199D3*
X67815Y48608D3*
Y47939D3*
X67296Y43189D3*
Y43858D3*
X69190Y47939D3*
Y48608D3*
X74559Y46124D3*
Y46793D3*
D19*
X74022Y47372D3*
X74691D3*
X79091Y45906D3*
X79760D3*
D23*
X77562Y41451D3*
Y42120D3*
X75937Y42058D3*
Y42727D3*
X74041Y49094D3*
Y48425D3*
D19*
X62122Y48504D3*
X61453D3*
Y49094D3*
X62122D3*
X77500Y38000D3*
X78169D3*
X78063Y39063D3*
X77393D3*
D23*
X61256Y37815D3*
Y38484D3*
D19*
X78067Y39774D3*
X77398D3*
X78067Y40531D3*
X77398D3*
D23*
X75724Y47333D3*
Y48002D3*
X79750Y46841D3*
Y47510D3*
X50547Y41220D3*
Y40551D3*
D19*
X49898Y37224D3*
X49228D3*
D34*
X48945Y43441D3*
X50295D3*
Y46787D3*
X48945D3*
X54252Y43441D3*
X55602D3*
Y46787D3*
X54252D3*
D35*
X53605Y39031D3*
Y39287D3*
Y39543D3*
Y39799D3*
Y40055D3*
Y40311D3*
Y40567D3*
Y40823D3*
Y41079D3*
Y41335D3*
X51322D3*
Y41079D3*
Y40823D3*
Y40567D3*
Y40311D3*
Y40055D3*
Y39799D3*
Y39543D3*
Y39287D3*
Y39031D3*
D36*
X52464Y40183D3*
D37*
X78250Y42995D3*
Y43901D3*
Y44806D3*
D38*
X75967Y43901D3*
D39*
X68949Y39768D3*
X69205D3*
X69461D3*
X69717D3*
Y41500D3*
X69461D3*
X69205D3*
X68949D3*
D32*
X67065Y40313D3*
Y41061D3*
X66159Y40687D3*
D40*
X64752Y44939D3*
X65252D3*
X65752D3*
X66252D3*
X66752D3*
X67252D3*
X67752D3*
Y47065D3*
X67252D3*
X66752D3*
X66252D3*
X65752D3*
X65252D3*
X64752D3*
M02*
