G04 DipTrace 2.4.0.2*
%INBottomSilk.gbr*%
%MOIN*%
%ADD10C,0.0098*%
%ADD12C,0.003*%
%ADD20C,0.0013*%
%FSLAX44Y44*%
G04*
G70*
G90*
G75*
G01*
%LNBotSilk*%
%LPD*%
X10500Y500D2*
D10*
X18500D1*
Y1500D1*
X10500D1*
Y500D1*
X8900Y19500D2*
X16900D1*
Y20500D1*
X8900D1*
Y19500D1*
X36500Y20500D2*
X38500D1*
Y2500D1*
X36500D1*
Y20500D1*
X19500Y500D2*
X27500D1*
Y1500D1*
X19500D1*
Y500D1*
X17500Y19500D2*
X25500D1*
Y20500D1*
X17500D1*
Y19500D1*
X28500Y500D2*
X36500D1*
Y1500D1*
X28500D1*
Y500D1*
X26500Y19500D2*
X34500D1*
Y20500D1*
X26500D1*
Y19500D1*
X0Y4750D2*
D20*
X4500D1*
Y1250D1*
X0D1*
Y4750D1*
Y17250D2*
X3750D1*
Y12750D1*
X0D1*
Y17250D1*
X14507Y1793D2*
D12*
Y1640D1*
X14517Y1611D1*
X14526Y1602D1*
X14545Y1592D1*
X14564D1*
X14583Y1602D1*
X14593Y1611D1*
X14603Y1640D1*
Y1659D1*
X14445Y1754D2*
X14426Y1764D1*
X14397Y1793D1*
Y1592D1*
X12950Y20793D2*
Y20640D1*
X12960Y20611D1*
X12969Y20602D1*
X12988Y20592D1*
X13007D1*
X13026Y20602D1*
X13036Y20611D1*
X13046Y20640D1*
Y20659D1*
X12879Y20745D2*
Y20754D1*
X12869Y20774D1*
X12860Y20783D1*
X12840Y20793D1*
X12802D1*
X12783Y20783D1*
X12774Y20774D1*
X12764Y20754D1*
Y20735D1*
X12774Y20716D1*
X12793Y20688D1*
X12888Y20592D1*
X12754D1*
X37550Y20793D2*
Y20640D1*
X37560Y20611D1*
X37569Y20602D1*
X37588Y20592D1*
X37607D1*
X37626Y20602D1*
X37636Y20611D1*
X37646Y20640D1*
Y20659D1*
X37469Y20793D2*
X37364D1*
X37421Y20716D1*
X37393D1*
X37374Y20707D1*
X37364Y20697D1*
X37354Y20668D1*
Y20649D1*
X37364Y20621D1*
X37383Y20601D1*
X37412Y20592D1*
X37440D1*
X37469Y20601D1*
X37479Y20611D1*
X37488Y20630D1*
X23555Y1793D2*
Y1640D1*
X23564Y1611D1*
X23574Y1602D1*
X23593Y1592D1*
X23612D1*
X23631Y1602D1*
X23641Y1611D1*
X23650Y1640D1*
Y1659D1*
X23397Y1592D2*
Y1793D1*
X23493Y1659D1*
X23350D1*
X21550Y20793D2*
Y20640D1*
X21560Y20611D1*
X21569Y20602D1*
X21588Y20592D1*
X21607D1*
X21626Y20602D1*
X21636Y20611D1*
X21646Y20640D1*
Y20659D1*
X21374Y20793D2*
X21469D1*
X21479Y20707D1*
X21469Y20716D1*
X21440Y20726D1*
X21412D1*
X21383Y20716D1*
X21364Y20697D1*
X21354Y20668D1*
Y20649D1*
X21364Y20621D1*
X21383Y20601D1*
X21412Y20592D1*
X21440D1*
X21469Y20601D1*
X21479Y20611D1*
X21488Y20630D1*
X32550Y1793D2*
Y1640D1*
X32560Y1611D1*
X32569Y1602D1*
X32588Y1592D1*
X32607D1*
X32626Y1602D1*
X32636Y1611D1*
X32646Y1640D1*
Y1659D1*
X32450Y1592D2*
X32354Y1793D1*
X32488D1*
X30550Y20793D2*
Y20640D1*
X30559Y20611D1*
X30569Y20602D1*
X30588Y20592D1*
X30607D1*
X30626Y20602D1*
X30636Y20611D1*
X30646Y20640D1*
Y20659D1*
X30440Y20793D2*
X30469Y20783D1*
X30479Y20764D1*
Y20745D1*
X30469Y20726D1*
X30450Y20716D1*
X30412Y20707D1*
X30383Y20697D1*
X30364Y20678D1*
X30354Y20659D1*
Y20630D1*
X30364Y20611D1*
X30373Y20601D1*
X30402Y20592D1*
X30440D1*
X30469Y20601D1*
X30479Y20611D1*
X30488Y20630D1*
Y20659D1*
X30479Y20678D1*
X30459Y20697D1*
X30431Y20707D1*
X30393Y20716D1*
X30373Y20726D1*
X30364Y20745D1*
Y20764D1*
X30373Y20783D1*
X30402Y20793D1*
X30440D1*
X14555Y16088D2*
Y15887D1*
X14622Y16088D2*
X14488D1*
X14427Y15983D2*
X14340D1*
X14312Y15992D1*
X14302Y16002D1*
X14293Y16021D1*
Y16050D1*
X14302Y16069D1*
X14312Y16079D1*
X14340Y16088D1*
X14427D1*
Y15887D1*
X14231Y16050D2*
X14212Y16059D1*
X14183Y16088D1*
Y15887D1*
X14064Y16088D2*
X14093Y16078D1*
X14112Y16050D1*
X14121Y16002D1*
Y15973D1*
X14112Y15925D1*
X14093Y15897D1*
X14064Y15887D1*
X14045D1*
X14016Y15897D1*
X13997Y15925D1*
X13987Y15973D1*
Y16002D1*
X13997Y16050D1*
X14016Y16078D1*
X14045Y16088D1*
X14064D1*
X13997Y16050D2*
X14112Y15925D1*
X13926Y16050D2*
X13906Y16059D1*
X13878Y16088D1*
Y15887D1*
X15598Y16088D2*
Y15887D1*
X15665Y16088D2*
X15531D1*
X15470Y15983D2*
X15383D1*
X15355Y15992D1*
X15345Y16002D1*
X15336Y16021D1*
Y16050D1*
X15345Y16069D1*
X15355Y16079D1*
X15383Y16088D1*
X15470D1*
Y15887D1*
X15274Y16050D2*
X15255Y16059D1*
X15226Y16088D1*
Y15887D1*
X15107Y16088D2*
X15136Y16078D1*
X15155Y16050D1*
X15164Y16002D1*
Y15973D1*
X15155Y15925D1*
X15136Y15897D1*
X15107Y15887D1*
X15088D1*
X15059Y15897D1*
X15040Y15925D1*
X15030Y15973D1*
Y16002D1*
X15040Y16050D1*
X15059Y16078D1*
X15088Y16088D1*
X15107D1*
X15040Y16050D2*
X15155Y15925D1*
X14959Y16040D2*
Y16050D1*
X14949Y16069D1*
X14940Y16078D1*
X14921Y16088D1*
X14882D1*
X14863Y16078D1*
X14854Y16069D1*
X14844Y16050D1*
Y16031D1*
X14854Y16011D1*
X14873Y15983D1*
X14969Y15887D1*
X14835D1*
X16598Y16088D2*
Y15887D1*
X16665Y16088D2*
X16531D1*
X16470Y15983D2*
X16383D1*
X16355Y15992D1*
X16345Y16002D1*
X16336Y16021D1*
Y16050D1*
X16345Y16069D1*
X16355Y16079D1*
X16383Y16088D1*
X16470D1*
Y15887D1*
X16274Y16050D2*
X16255Y16059D1*
X16226Y16088D1*
Y15887D1*
X16107Y16088D2*
X16136Y16078D1*
X16155Y16050D1*
X16164Y16002D1*
Y15973D1*
X16155Y15925D1*
X16136Y15897D1*
X16107Y15887D1*
X16088D1*
X16059Y15897D1*
X16040Y15925D1*
X16030Y15973D1*
Y16002D1*
X16040Y16050D1*
X16059Y16078D1*
X16088Y16088D1*
X16107D1*
X16040Y16050D2*
X16155Y15925D1*
X15949Y16088D2*
X15844D1*
X15902Y16011D1*
X15873D1*
X15854Y16002D1*
X15844Y15992D1*
X15835Y15964D1*
Y15945D1*
X15844Y15916D1*
X15863Y15897D1*
X15892Y15887D1*
X15921D1*
X15949Y15897D1*
X15959Y15906D1*
X15969Y15925D1*
X51098Y6088D2*
Y5887D1*
X51165Y6088D2*
X51031D1*
X50970Y5983D2*
X50883D1*
X50855Y5992D1*
X50845Y6002D1*
X50836Y6021D1*
Y6050D1*
X50845Y6069D1*
X50855Y6079D1*
X50883Y6088D1*
X50970D1*
Y5887D1*
X50764Y6040D2*
Y6050D1*
X50755Y6069D1*
X50745Y6078D1*
X50726Y6088D1*
X50688D1*
X50669Y6078D1*
X50659Y6069D1*
X50650Y6050D1*
Y6031D1*
X50659Y6011D1*
X50678Y5983D1*
X50774Y5887D1*
X50640D1*
X50521Y6088D2*
X50550Y6078D1*
X50569Y6050D1*
X50578Y6002D1*
Y5973D1*
X50569Y5925D1*
X50550Y5897D1*
X50521Y5887D1*
X50502D1*
X50473Y5897D1*
X50454Y5925D1*
X50444Y5973D1*
Y6002D1*
X50454Y6050D1*
X50473Y6078D1*
X50502Y6088D1*
X50521D1*
X50454Y6050D2*
X50569Y5925D1*
X50383Y6050D2*
X50363Y6059D1*
X50335Y6088D1*
Y5887D1*
X45391Y17588D2*
Y17387D1*
X45458Y17588D2*
X45324D1*
X45263Y17483D2*
X45176D1*
X45148Y17492D1*
X45138Y17502D1*
X45129Y17521D1*
Y17550D1*
X45138Y17569D1*
X45148Y17579D1*
X45176Y17588D1*
X45263D1*
Y17387D1*
X45057Y17540D2*
Y17550D1*
X45048Y17569D1*
X45038Y17578D1*
X45019Y17588D1*
X44981D1*
X44962Y17578D1*
X44952Y17569D1*
X44943Y17550D1*
Y17531D1*
X44952Y17511D1*
X44971Y17483D1*
X45067Y17387D1*
X44933D1*
X44814Y17588D2*
X44843Y17578D1*
X44862Y17550D1*
X44871Y17502D1*
Y17473D1*
X44862Y17425D1*
X44843Y17397D1*
X44814Y17387D1*
X44795D1*
X44766Y17397D1*
X44747Y17425D1*
X44737Y17473D1*
Y17502D1*
X44747Y17550D1*
X44766Y17578D1*
X44795Y17588D1*
X44814D1*
X44747Y17550D2*
X44862Y17425D1*
X44666Y17540D2*
Y17550D1*
X44656Y17569D1*
X44647Y17578D1*
X44628Y17588D1*
X44589D1*
X44570Y17578D1*
X44561Y17569D1*
X44551Y17550D1*
Y17531D1*
X44561Y17511D1*
X44580Y17483D1*
X44676Y17387D1*
X44542D1*
X45391Y18588D2*
Y18387D1*
X45458Y18588D2*
X45324D1*
X45263Y18483D2*
X45176D1*
X45148Y18492D1*
X45138Y18502D1*
X45129Y18521D1*
Y18550D1*
X45138Y18569D1*
X45148Y18579D1*
X45176Y18588D1*
X45263D1*
Y18387D1*
X45057Y18540D2*
Y18550D1*
X45048Y18569D1*
X45038Y18578D1*
X45019Y18588D1*
X44981D1*
X44962Y18578D1*
X44952Y18569D1*
X44943Y18550D1*
Y18531D1*
X44952Y18511D1*
X44971Y18483D1*
X45067Y18387D1*
X44933D1*
X44814Y18588D2*
X44843Y18578D1*
X44862Y18550D1*
X44871Y18502D1*
Y18473D1*
X44862Y18425D1*
X44843Y18397D1*
X44814Y18387D1*
X44795D1*
X44766Y18397D1*
X44747Y18425D1*
X44737Y18473D1*
Y18502D1*
X44747Y18550D1*
X44766Y18578D1*
X44795Y18588D1*
X44814D1*
X44747Y18550D2*
X44862Y18425D1*
X44656Y18588D2*
X44551D1*
X44609Y18511D1*
X44580D1*
X44561Y18502D1*
X44551Y18492D1*
X44542Y18464D1*
Y18445D1*
X44551Y18416D1*
X44570Y18397D1*
X44599Y18387D1*
X44628D1*
X44656Y18397D1*
X44666Y18406D1*
X44676Y18425D1*
X48146Y6088D2*
Y5887D1*
X48213Y6088D2*
X48079D1*
X48017Y5983D2*
X47931D1*
X47903Y5992D1*
X47893Y6002D1*
X47883Y6021D1*
Y6050D1*
X47893Y6069D1*
X47903Y6079D1*
X47931Y6088D1*
X48017D1*
Y5887D1*
X47812Y6040D2*
Y6050D1*
X47803Y6069D1*
X47793Y6078D1*
X47774Y6088D1*
X47736D1*
X47717Y6078D1*
X47707Y6069D1*
X47697Y6050D1*
Y6031D1*
X47707Y6011D1*
X47726Y5983D1*
X47822Y5887D1*
X47688D1*
X47569Y6088D2*
X47597Y6078D1*
X47617Y6050D1*
X47626Y6002D1*
Y5973D1*
X47617Y5925D1*
X47597Y5897D1*
X47569Y5887D1*
X47550D1*
X47521Y5897D1*
X47502Y5925D1*
X47492Y5973D1*
Y6002D1*
X47502Y6050D1*
X47521Y6078D1*
X47550Y6088D1*
X47569D1*
X47502Y6050D2*
X47617Y5925D1*
X47335Y5887D2*
Y6088D1*
X47430Y5954D1*
X47287D1*
X49891Y17588D2*
Y17387D1*
X49958Y17588D2*
X49824D1*
X49763Y17483D2*
X49676D1*
X49648Y17492D1*
X49638Y17502D1*
X49629Y17521D1*
Y17550D1*
X49638Y17569D1*
X49648Y17579D1*
X49676Y17588D1*
X49763D1*
Y17387D1*
X49557Y17540D2*
Y17550D1*
X49548Y17569D1*
X49538Y17578D1*
X49519Y17588D1*
X49481D1*
X49462Y17578D1*
X49452Y17569D1*
X49443Y17550D1*
Y17531D1*
X49452Y17511D1*
X49471Y17483D1*
X49567Y17387D1*
X49433D1*
X49314Y17588D2*
X49343Y17578D1*
X49362Y17550D1*
X49371Y17502D1*
Y17473D1*
X49362Y17425D1*
X49343Y17397D1*
X49314Y17387D1*
X49295D1*
X49266Y17397D1*
X49247Y17425D1*
X49237Y17473D1*
Y17502D1*
X49247Y17550D1*
X49266Y17578D1*
X49295Y17588D1*
X49314D1*
X49247Y17550D2*
X49362Y17425D1*
X49061Y17588D2*
X49156D1*
X49166Y17502D1*
X49156Y17511D1*
X49128Y17521D1*
X49099D1*
X49070Y17511D1*
X49051Y17492D1*
X49042Y17464D1*
Y17445D1*
X49051Y17416D1*
X49070Y17397D1*
X49099Y17387D1*
X49128D1*
X49156Y17397D1*
X49166Y17406D1*
X49176Y17425D1*
X49887Y18588D2*
Y18387D1*
X49954Y18588D2*
X49820D1*
X49758Y18483D2*
X49672D1*
X49643Y18492D1*
X49633Y18502D1*
X49624Y18521D1*
Y18550D1*
X49633Y18569D1*
X49643Y18579D1*
X49672Y18588D1*
X49758D1*
Y18387D1*
X49552Y18540D2*
Y18550D1*
X49543Y18569D1*
X49533Y18578D1*
X49514Y18588D1*
X49476D1*
X49457Y18578D1*
X49447Y18569D1*
X49438Y18550D1*
Y18531D1*
X49447Y18511D1*
X49466Y18483D1*
X49562Y18387D1*
X49428D1*
X49309Y18588D2*
X49338Y18578D1*
X49357Y18550D1*
X49366Y18502D1*
Y18473D1*
X49357Y18425D1*
X49338Y18397D1*
X49309Y18387D1*
X49290D1*
X49261Y18397D1*
X49242Y18425D1*
X49232Y18473D1*
Y18502D1*
X49242Y18550D1*
X49261Y18578D1*
X49290Y18588D1*
X49309D1*
X49242Y18550D2*
X49357Y18425D1*
X49056Y18559D2*
X49065Y18578D1*
X49094Y18588D1*
X49113D1*
X49142Y18578D1*
X49161Y18550D1*
X49171Y18502D1*
Y18454D1*
X49161Y18416D1*
X49142Y18397D1*
X49113Y18387D1*
X49104D1*
X49075Y18397D1*
X49056Y18416D1*
X49046Y18445D1*
Y18454D1*
X49056Y18483D1*
X49075Y18502D1*
X49104Y18511D1*
X49113D1*
X49142Y18502D1*
X49161Y18483D1*
X49171Y18454D1*
X49141Y6088D2*
Y5887D1*
X49208Y6088D2*
X49074D1*
X49013Y5983D2*
X48926D1*
X48898Y5992D1*
X48888Y6002D1*
X48879Y6021D1*
Y6050D1*
X48888Y6069D1*
X48898Y6079D1*
X48926Y6088D1*
X49013D1*
Y5887D1*
X48807Y6040D2*
Y6050D1*
X48798Y6069D1*
X48788Y6078D1*
X48769Y6088D1*
X48731D1*
X48712Y6078D1*
X48702Y6069D1*
X48693Y6050D1*
Y6031D1*
X48702Y6011D1*
X48721Y5983D1*
X48817Y5887D1*
X48683D1*
X48564Y6088D2*
X48593Y6078D1*
X48612Y6050D1*
X48621Y6002D1*
Y5973D1*
X48612Y5925D1*
X48593Y5897D1*
X48564Y5887D1*
X48545D1*
X48516Y5897D1*
X48497Y5925D1*
X48487Y5973D1*
Y6002D1*
X48497Y6050D1*
X48516Y6078D1*
X48545Y6088D1*
X48564D1*
X48497Y6050D2*
X48612Y5925D1*
X48387Y5887D2*
X48292Y6088D1*
X48426D1*
X50141D2*
Y5887D1*
X50208Y6088D2*
X50074D1*
X50013Y5983D2*
X49926D1*
X49898Y5992D1*
X49888Y6002D1*
X49879Y6021D1*
Y6050D1*
X49888Y6069D1*
X49898Y6079D1*
X49926Y6088D1*
X50013D1*
Y5887D1*
X49807Y6040D2*
Y6050D1*
X49798Y6069D1*
X49788Y6078D1*
X49769Y6088D1*
X49731D1*
X49712Y6078D1*
X49702Y6069D1*
X49692Y6050D1*
Y6031D1*
X49702Y6011D1*
X49721Y5983D1*
X49817Y5887D1*
X49683D1*
X49564Y6088D2*
X49592Y6078D1*
X49612Y6050D1*
X49621Y6002D1*
Y5973D1*
X49612Y5925D1*
X49592Y5897D1*
X49564Y5887D1*
X49545D1*
X49516Y5897D1*
X49497Y5925D1*
X49487Y5973D1*
Y6002D1*
X49497Y6050D1*
X49516Y6078D1*
X49545Y6088D1*
X49564D1*
X49497Y6050D2*
X49612Y5925D1*
X49378Y6088D2*
X49406Y6078D1*
X49416Y6059D1*
Y6040D1*
X49406Y6021D1*
X49387Y6011D1*
X49349Y6002D1*
X49320Y5992D1*
X49301Y5973D1*
X49292Y5954D1*
Y5925D1*
X49301Y5906D1*
X49311Y5897D1*
X49339Y5887D1*
X49378D1*
X49406Y5897D1*
X49416Y5906D1*
X49425Y5925D1*
Y5954D1*
X49416Y5973D1*
X49397Y5992D1*
X49368Y6002D1*
X49330Y6011D1*
X49311Y6021D1*
X49301Y6040D1*
Y6059D1*
X49311Y6078D1*
X49339Y6088D1*
X49378D1*
X25598Y12088D2*
Y11887D1*
X25665Y12088D2*
X25531D1*
X25470Y11983D2*
X25383D1*
X25355Y11992D1*
X25345Y12002D1*
X25336Y12021D1*
Y12050D1*
X25345Y12069D1*
X25355Y12079D1*
X25383Y12088D1*
X25470D1*
Y11887D1*
X25255Y12088D2*
X25150D1*
X25207Y12011D1*
X25178D1*
X25159Y12002D1*
X25150Y11992D1*
X25140Y11964D1*
Y11945D1*
X25150Y11916D1*
X25169Y11897D1*
X25197Y11887D1*
X25226D1*
X25255Y11897D1*
X25264Y11906D1*
X25274Y11925D1*
X25021Y12088D2*
X25050Y12078D1*
X25069Y12050D1*
X25078Y12002D1*
Y11973D1*
X25069Y11925D1*
X25050Y11897D1*
X25021Y11887D1*
X25002D1*
X24973Y11897D1*
X24954Y11925D1*
X24944Y11973D1*
Y12002D1*
X24954Y12050D1*
X24973Y12078D1*
X25002Y12088D1*
X25021D1*
X24954Y12050D2*
X25069Y11925D1*
X24883Y12050D2*
X24863Y12059D1*
X24835Y12088D1*
Y11887D1*
X25641Y13088D2*
Y12887D1*
X25708Y13088D2*
X25574D1*
X25513Y12983D2*
X25426D1*
X25398Y12992D1*
X25388Y13002D1*
X25379Y13021D1*
Y13050D1*
X25388Y13069D1*
X25398Y13079D1*
X25426Y13088D1*
X25513D1*
Y12887D1*
X25298Y13088D2*
X25193D1*
X25250Y13011D1*
X25221D1*
X25202Y13002D1*
X25193Y12992D1*
X25183Y12964D1*
Y12945D1*
X25193Y12916D1*
X25212Y12897D1*
X25240Y12887D1*
X25269D1*
X25298Y12897D1*
X25307Y12906D1*
X25317Y12925D1*
X25064Y13088D2*
X25093Y13078D1*
X25112Y13050D1*
X25121Y13002D1*
Y12973D1*
X25112Y12925D1*
X25093Y12897D1*
X25064Y12887D1*
X25045D1*
X25016Y12897D1*
X24997Y12925D1*
X24987Y12973D1*
Y13002D1*
X24997Y13050D1*
X25016Y13078D1*
X25045Y13088D1*
X25064D1*
X24997Y13050D2*
X25112Y12925D1*
X24916Y13040D2*
Y13050D1*
X24906Y13069D1*
X24897Y13078D1*
X24878Y13088D1*
X24839D1*
X24820Y13078D1*
X24811Y13069D1*
X24801Y13050D1*
Y13031D1*
X24811Y13011D1*
X24830Y12983D1*
X24926Y12887D1*
X24792D1*
X25641Y14088D2*
Y13887D1*
X25708Y14088D2*
X25574D1*
X25513Y13983D2*
X25426D1*
X25398Y13992D1*
X25388Y14002D1*
X25379Y14021D1*
Y14050D1*
X25388Y14069D1*
X25398Y14079D1*
X25426Y14088D1*
X25513D1*
Y13887D1*
X25298Y14088D2*
X25193D1*
X25250Y14011D1*
X25221D1*
X25202Y14002D1*
X25193Y13992D1*
X25183Y13964D1*
Y13945D1*
X25193Y13916D1*
X25212Y13897D1*
X25240Y13887D1*
X25269D1*
X25298Y13897D1*
X25307Y13906D1*
X25317Y13925D1*
X25064Y14088D2*
X25093Y14078D1*
X25112Y14050D1*
X25121Y14002D1*
Y13973D1*
X25112Y13925D1*
X25093Y13897D1*
X25064Y13887D1*
X25045D1*
X25016Y13897D1*
X24997Y13925D1*
X24987Y13973D1*
Y14002D1*
X24997Y14050D1*
X25016Y14078D1*
X25045Y14088D1*
X25064D1*
X24997Y14050D2*
X25112Y13925D1*
X24906Y14088D2*
X24801D1*
X24859Y14011D1*
X24830D1*
X24811Y14002D1*
X24801Y13992D1*
X24792Y13964D1*
Y13945D1*
X24801Y13916D1*
X24820Y13897D1*
X24849Y13887D1*
X24878D1*
X24906Y13897D1*
X24916Y13906D1*
X24926Y13925D1*
X25646Y15088D2*
Y14887D1*
X25713Y15088D2*
X25579D1*
X25517Y14983D2*
X25431D1*
X25403Y14992D1*
X25393Y15002D1*
X25383Y15021D1*
Y15050D1*
X25393Y15069D1*
X25403Y15079D1*
X25431Y15088D1*
X25517D1*
Y14887D1*
X25303Y15088D2*
X25197D1*
X25255Y15011D1*
X25226D1*
X25207Y15002D1*
X25197Y14992D1*
X25188Y14964D1*
Y14945D1*
X25197Y14916D1*
X25217Y14897D1*
X25245Y14887D1*
X25274D1*
X25303Y14897D1*
X25312Y14906D1*
X25322Y14925D1*
X25069Y15088D2*
X25097Y15078D1*
X25117Y15050D1*
X25126Y15002D1*
Y14973D1*
X25117Y14925D1*
X25097Y14897D1*
X25069Y14887D1*
X25050D1*
X25021Y14897D1*
X25002Y14925D1*
X24992Y14973D1*
Y15002D1*
X25002Y15050D1*
X25021Y15078D1*
X25050Y15088D1*
X25069D1*
X25002Y15050D2*
X25117Y14925D1*
X24835Y14887D2*
Y15088D1*
X24930Y14954D1*
X24787D1*
X30853Y4088D2*
Y3887D1*
X30920Y4088D2*
X30786D1*
X30724Y3983D2*
X30638D1*
X30610Y3992D1*
X30600Y4002D1*
X30590Y4021D1*
Y4050D1*
X30600Y4069D1*
X30610Y4079D1*
X30638Y4088D1*
X30724D1*
Y3887D1*
X30433D2*
Y4088D1*
X30529Y3954D1*
X30385D1*
X30266Y4088D2*
X30295Y4078D1*
X30314Y4050D1*
X30324Y4002D1*
Y3973D1*
X30314Y3925D1*
X30295Y3897D1*
X30266Y3887D1*
X30247D1*
X30218Y3897D1*
X30199Y3925D1*
X30190Y3973D1*
Y4002D1*
X30199Y4050D1*
X30218Y4078D1*
X30247Y4088D1*
X30266D1*
X30199Y4050D2*
X30314Y3925D1*
X30128Y4050D2*
X30109Y4059D1*
X30080Y4088D1*
Y3887D1*
X29896Y4088D2*
Y3887D1*
X29963Y4088D2*
X29829D1*
X29767Y3983D2*
X29681D1*
X29653Y3992D1*
X29643Y4002D1*
X29633Y4021D1*
Y4050D1*
X29643Y4069D1*
X29653Y4079D1*
X29681Y4088D1*
X29767D1*
Y3887D1*
X29476D2*
Y4088D1*
X29572Y3954D1*
X29428D1*
X29309Y4088D2*
X29338Y4078D1*
X29357Y4050D1*
X29367Y4002D1*
Y3973D1*
X29357Y3925D1*
X29338Y3897D1*
X29309Y3887D1*
X29290D1*
X29261Y3897D1*
X29242Y3925D1*
X29233Y3973D1*
Y4002D1*
X29242Y4050D1*
X29261Y4078D1*
X29290Y4088D1*
X29309D1*
X29242Y4050D2*
X29357Y3925D1*
X29161Y4040D2*
Y4050D1*
X29152Y4069D1*
X29142Y4078D1*
X29123Y4088D1*
X29085D1*
X29066Y4078D1*
X29056Y4069D1*
X29046Y4050D1*
Y4031D1*
X29056Y4011D1*
X29075Y3983D1*
X29171Y3887D1*
X29037D1*
X3391Y9088D2*
Y8887D1*
X3458Y9088D2*
X3324D1*
X3263Y8983D2*
X3176D1*
X3148Y8992D1*
X3138Y9002D1*
X3129Y9021D1*
Y9050D1*
X3138Y9069D1*
X3148Y9079D1*
X3176Y9088D1*
X3263D1*
Y8887D1*
X2952Y9088D2*
X3048D1*
X3057Y9002D1*
X3048Y9011D1*
X3019Y9021D1*
X2990D1*
X2962Y9011D1*
X2943Y8992D1*
X2933Y8964D1*
Y8945D1*
X2943Y8916D1*
X2962Y8897D1*
X2990Y8887D1*
X3019D1*
X3048Y8897D1*
X3057Y8906D1*
X3067Y8925D1*
X2814Y9088D2*
X2843Y9078D1*
X2862Y9050D1*
X2871Y9002D1*
Y8973D1*
X2862Y8925D1*
X2843Y8897D1*
X2814Y8887D1*
X2795D1*
X2766Y8897D1*
X2747Y8925D1*
X2737Y8973D1*
Y9002D1*
X2747Y9050D1*
X2766Y9078D1*
X2795Y9088D1*
X2814D1*
X2747Y9050D2*
X2862Y8925D1*
X2666Y9040D2*
Y9050D1*
X2656Y9069D1*
X2647Y9078D1*
X2628Y9088D1*
X2589D1*
X2570Y9078D1*
X2561Y9069D1*
X2551Y9050D1*
Y9031D1*
X2561Y9011D1*
X2580Y8983D1*
X2676Y8887D1*
X2542D1*
X5646Y9088D2*
Y8887D1*
X5713Y9088D2*
X5579D1*
X5517Y8983D2*
X5431D1*
X5403Y8992D1*
X5393Y9002D1*
X5383Y9021D1*
Y9050D1*
X5393Y9069D1*
X5403Y9079D1*
X5431Y9088D1*
X5517D1*
Y8887D1*
X5207Y9088D2*
X5303D1*
X5312Y9002D1*
X5303Y9011D1*
X5274Y9021D1*
X5245D1*
X5217Y9011D1*
X5197Y8992D1*
X5188Y8964D1*
Y8945D1*
X5197Y8916D1*
X5217Y8897D1*
X5245Y8887D1*
X5274D1*
X5303Y8897D1*
X5312Y8906D1*
X5322Y8925D1*
X5069Y9088D2*
X5097Y9078D1*
X5117Y9050D1*
X5126Y9002D1*
Y8973D1*
X5117Y8925D1*
X5097Y8897D1*
X5069Y8887D1*
X5050D1*
X5021Y8897D1*
X5002Y8925D1*
X4992Y8973D1*
Y9002D1*
X5002Y9050D1*
X5021Y9078D1*
X5050Y9088D1*
X5069D1*
X5002Y9050D2*
X5117Y8925D1*
X4835Y8887D2*
Y9088D1*
X4930Y8954D1*
X4787D1*
X33141Y4088D2*
Y3887D1*
X33208Y4088D2*
X33074D1*
X33013Y3983D2*
X32926D1*
X32898Y3992D1*
X32888Y4002D1*
X32879Y4021D1*
Y4050D1*
X32888Y4069D1*
X32898Y4079D1*
X32926Y4088D1*
X33013D1*
Y3887D1*
X32702Y4088D2*
X32798D1*
X32807Y4002D1*
X32798Y4011D1*
X32769Y4021D1*
X32740D1*
X32712Y4011D1*
X32693Y3992D1*
X32683Y3964D1*
Y3945D1*
X32693Y3916D1*
X32712Y3897D1*
X32740Y3887D1*
X32769D1*
X32798Y3897D1*
X32807Y3906D1*
X32817Y3925D1*
X32564Y4088D2*
X32593Y4078D1*
X32612Y4050D1*
X32621Y4002D1*
Y3973D1*
X32612Y3925D1*
X32593Y3897D1*
X32564Y3887D1*
X32545D1*
X32516Y3897D1*
X32497Y3925D1*
X32487Y3973D1*
Y4002D1*
X32497Y4050D1*
X32516Y4078D1*
X32545Y4088D1*
X32564D1*
X32497Y4050D2*
X32612Y3925D1*
X32387Y3887D2*
X32292Y4088D1*
X32426D1*
M02*
