G04 DipTrace 2.4.0.2*
%INBottomAssy.gbr*%
%MOIN*%
%ADD10C,0.0098*%
%ADD12C,0.003*%
%FSLAX44Y44*%
G04*
G70*
G90*
G75*
G01*
%LNBotAssy*%
%LPD*%
X10311Y402D2*
D10*
X18689D1*
X8711Y19402D2*
X17089D1*
X19311Y402D2*
X27689D1*
X17311Y19402D2*
X25689D1*
X28311Y402D2*
X36689D1*
X26311Y19402D2*
X34689D1*
X14507Y1793D2*
D12*
Y1640D1*
X14517Y1611D1*
X14526Y1602D1*
X14545Y1592D1*
X14564D1*
X14583Y1602D1*
X14593Y1611D1*
X14603Y1640D1*
Y1659D1*
X14445Y1754D2*
X14426Y1764D1*
X14397Y1793D1*
Y1592D1*
X12950Y20793D2*
Y20640D1*
X12960Y20611D1*
X12969Y20602D1*
X12988Y20592D1*
X13007D1*
X13026Y20602D1*
X13036Y20611D1*
X13046Y20640D1*
Y20659D1*
X12879Y20745D2*
Y20754D1*
X12869Y20774D1*
X12860Y20783D1*
X12840Y20793D1*
X12802D1*
X12783Y20783D1*
X12774Y20774D1*
X12764Y20754D1*
Y20735D1*
X12774Y20716D1*
X12793Y20688D1*
X12888Y20592D1*
X12754D1*
X37550Y20793D2*
Y20640D1*
X37560Y20611D1*
X37569Y20602D1*
X37588Y20592D1*
X37607D1*
X37626Y20602D1*
X37636Y20611D1*
X37646Y20640D1*
Y20659D1*
X37469Y20793D2*
X37364D1*
X37421Y20716D1*
X37393D1*
X37374Y20707D1*
X37364Y20697D1*
X37354Y20668D1*
Y20649D1*
X37364Y20621D1*
X37383Y20601D1*
X37412Y20592D1*
X37440D1*
X37469Y20601D1*
X37479Y20611D1*
X37488Y20630D1*
X23555Y1793D2*
Y1640D1*
X23564Y1611D1*
X23574Y1602D1*
X23593Y1592D1*
X23612D1*
X23631Y1602D1*
X23641Y1611D1*
X23650Y1640D1*
Y1659D1*
X23397Y1592D2*
Y1793D1*
X23493Y1659D1*
X23350D1*
X21550Y20793D2*
Y20640D1*
X21560Y20611D1*
X21569Y20602D1*
X21588Y20592D1*
X21607D1*
X21626Y20602D1*
X21636Y20611D1*
X21646Y20640D1*
Y20659D1*
X21374Y20793D2*
X21469D1*
X21479Y20707D1*
X21469Y20716D1*
X21440Y20726D1*
X21412D1*
X21383Y20716D1*
X21364Y20697D1*
X21354Y20668D1*
Y20649D1*
X21364Y20621D1*
X21383Y20601D1*
X21412Y20592D1*
X21440D1*
X21469Y20601D1*
X21479Y20611D1*
X21488Y20630D1*
X32550Y1793D2*
Y1640D1*
X32560Y1611D1*
X32569Y1602D1*
X32588Y1592D1*
X32607D1*
X32626Y1602D1*
X32636Y1611D1*
X32646Y1640D1*
Y1659D1*
X32450Y1592D2*
X32354Y1793D1*
X32488D1*
X30550Y20793D2*
Y20640D1*
X30559Y20611D1*
X30569Y20602D1*
X30588Y20592D1*
X30607D1*
X30626Y20602D1*
X30636Y20611D1*
X30646Y20640D1*
Y20659D1*
X30440Y20793D2*
X30469Y20783D1*
X30479Y20764D1*
Y20745D1*
X30469Y20726D1*
X30450Y20716D1*
X30412Y20707D1*
X30383Y20697D1*
X30364Y20678D1*
X30354Y20659D1*
Y20630D1*
X30364Y20611D1*
X30373Y20601D1*
X30402Y20592D1*
X30440D1*
X30469Y20601D1*
X30479Y20611D1*
X30488Y20630D1*
Y20659D1*
X30479Y20678D1*
X30459Y20697D1*
X30431Y20707D1*
X30393Y20716D1*
X30373Y20726D1*
X30364Y20745D1*
Y20764D1*
X30373Y20783D1*
X30402Y20793D1*
X30440D1*
X14555Y16088D2*
Y15887D1*
X14622Y16088D2*
X14488D1*
X14427Y15983D2*
X14340D1*
X14312Y15992D1*
X14302Y16002D1*
X14293Y16021D1*
Y16050D1*
X14302Y16069D1*
X14312Y16079D1*
X14340Y16088D1*
X14427D1*
Y15887D1*
X14231Y16050D2*
X14212Y16059D1*
X14183Y16088D1*
Y15887D1*
X14064Y16088D2*
X14093Y16078D1*
X14112Y16050D1*
X14121Y16002D1*
Y15973D1*
X14112Y15925D1*
X14093Y15897D1*
X14064Y15887D1*
X14045D1*
X14016Y15897D1*
X13997Y15925D1*
X13987Y15973D1*
Y16002D1*
X13997Y16050D1*
X14016Y16078D1*
X14045Y16088D1*
X14064D1*
X13997Y16050D2*
X14112Y15925D1*
X13926Y16050D2*
X13906Y16059D1*
X13878Y16088D1*
Y15887D1*
X15598Y16088D2*
Y15887D1*
X15665Y16088D2*
X15531D1*
X15470Y15983D2*
X15383D1*
X15355Y15992D1*
X15345Y16002D1*
X15336Y16021D1*
Y16050D1*
X15345Y16069D1*
X15355Y16079D1*
X15383Y16088D1*
X15470D1*
Y15887D1*
X15274Y16050D2*
X15255Y16059D1*
X15226Y16088D1*
Y15887D1*
X15107Y16088D2*
X15136Y16078D1*
X15155Y16050D1*
X15164Y16002D1*
Y15973D1*
X15155Y15925D1*
X15136Y15897D1*
X15107Y15887D1*
X15088D1*
X15059Y15897D1*
X15040Y15925D1*
X15030Y15973D1*
Y16002D1*
X15040Y16050D1*
X15059Y16078D1*
X15088Y16088D1*
X15107D1*
X15040Y16050D2*
X15155Y15925D1*
X14959Y16040D2*
Y16050D1*
X14949Y16069D1*
X14940Y16078D1*
X14921Y16088D1*
X14882D1*
X14863Y16078D1*
X14854Y16069D1*
X14844Y16050D1*
Y16031D1*
X14854Y16011D1*
X14873Y15983D1*
X14969Y15887D1*
X14835D1*
X16598Y16088D2*
Y15887D1*
X16665Y16088D2*
X16531D1*
X16470Y15983D2*
X16383D1*
X16355Y15992D1*
X16345Y16002D1*
X16336Y16021D1*
Y16050D1*
X16345Y16069D1*
X16355Y16079D1*
X16383Y16088D1*
X16470D1*
Y15887D1*
X16274Y16050D2*
X16255Y16059D1*
X16226Y16088D1*
Y15887D1*
X16107Y16088D2*
X16136Y16078D1*
X16155Y16050D1*
X16164Y16002D1*
Y15973D1*
X16155Y15925D1*
X16136Y15897D1*
X16107Y15887D1*
X16088D1*
X16059Y15897D1*
X16040Y15925D1*
X16030Y15973D1*
Y16002D1*
X16040Y16050D1*
X16059Y16078D1*
X16088Y16088D1*
X16107D1*
X16040Y16050D2*
X16155Y15925D1*
X15949Y16088D2*
X15844D1*
X15902Y16011D1*
X15873D1*
X15854Y16002D1*
X15844Y15992D1*
X15835Y15964D1*
Y15945D1*
X15844Y15916D1*
X15863Y15897D1*
X15892Y15887D1*
X15921D1*
X15949Y15897D1*
X15959Y15906D1*
X15969Y15925D1*
X51098Y6088D2*
Y5887D1*
X51165Y6088D2*
X51031D1*
X50970Y5983D2*
X50883D1*
X50855Y5992D1*
X50845Y6002D1*
X50836Y6021D1*
Y6050D1*
X50845Y6069D1*
X50855Y6079D1*
X50883Y6088D1*
X50970D1*
Y5887D1*
X50764Y6040D2*
Y6050D1*
X50755Y6069D1*
X50745Y6078D1*
X50726Y6088D1*
X50688D1*
X50669Y6078D1*
X50659Y6069D1*
X50650Y6050D1*
Y6031D1*
X50659Y6011D1*
X50678Y5983D1*
X50774Y5887D1*
X50640D1*
X50521Y6088D2*
X50550Y6078D1*
X50569Y6050D1*
X50578Y6002D1*
Y5973D1*
X50569Y5925D1*
X50550Y5897D1*
X50521Y5887D1*
X50502D1*
X50473Y5897D1*
X50454Y5925D1*
X50444Y5973D1*
Y6002D1*
X50454Y6050D1*
X50473Y6078D1*
X50502Y6088D1*
X50521D1*
X50454Y6050D2*
X50569Y5925D1*
X50383Y6050D2*
X50363Y6059D1*
X50335Y6088D1*
Y5887D1*
X45391Y17588D2*
Y17387D1*
X45458Y17588D2*
X45324D1*
X45263Y17483D2*
X45176D1*
X45148Y17492D1*
X45138Y17502D1*
X45129Y17521D1*
Y17550D1*
X45138Y17569D1*
X45148Y17579D1*
X45176Y17588D1*
X45263D1*
Y17387D1*
X45057Y17540D2*
Y17550D1*
X45048Y17569D1*
X45038Y17578D1*
X45019Y17588D1*
X44981D1*
X44962Y17578D1*
X44952Y17569D1*
X44943Y17550D1*
Y17531D1*
X44952Y17511D1*
X44971Y17483D1*
X45067Y17387D1*
X44933D1*
X44814Y17588D2*
X44843Y17578D1*
X44862Y17550D1*
X44871Y17502D1*
Y17473D1*
X44862Y17425D1*
X44843Y17397D1*
X44814Y17387D1*
X44795D1*
X44766Y17397D1*
X44747Y17425D1*
X44737Y17473D1*
Y17502D1*
X44747Y17550D1*
X44766Y17578D1*
X44795Y17588D1*
X44814D1*
X44747Y17550D2*
X44862Y17425D1*
X44666Y17540D2*
Y17550D1*
X44656Y17569D1*
X44647Y17578D1*
X44628Y17588D1*
X44589D1*
X44570Y17578D1*
X44561Y17569D1*
X44551Y17550D1*
Y17531D1*
X44561Y17511D1*
X44580Y17483D1*
X44676Y17387D1*
X44542D1*
X45391Y18588D2*
Y18387D1*
X45458Y18588D2*
X45324D1*
X45263Y18483D2*
X45176D1*
X45148Y18492D1*
X45138Y18502D1*
X45129Y18521D1*
Y18550D1*
X45138Y18569D1*
X45148Y18579D1*
X45176Y18588D1*
X45263D1*
Y18387D1*
X45057Y18540D2*
Y18550D1*
X45048Y18569D1*
X45038Y18578D1*
X45019Y18588D1*
X44981D1*
X44962Y18578D1*
X44952Y18569D1*
X44943Y18550D1*
Y18531D1*
X44952Y18511D1*
X44971Y18483D1*
X45067Y18387D1*
X44933D1*
X44814Y18588D2*
X44843Y18578D1*
X44862Y18550D1*
X44871Y18502D1*
Y18473D1*
X44862Y18425D1*
X44843Y18397D1*
X44814Y18387D1*
X44795D1*
X44766Y18397D1*
X44747Y18425D1*
X44737Y18473D1*
Y18502D1*
X44747Y18550D1*
X44766Y18578D1*
X44795Y18588D1*
X44814D1*
X44747Y18550D2*
X44862Y18425D1*
X44656Y18588D2*
X44551D1*
X44609Y18511D1*
X44580D1*
X44561Y18502D1*
X44551Y18492D1*
X44542Y18464D1*
Y18445D1*
X44551Y18416D1*
X44570Y18397D1*
X44599Y18387D1*
X44628D1*
X44656Y18397D1*
X44666Y18406D1*
X44676Y18425D1*
X48146Y6088D2*
Y5887D1*
X48213Y6088D2*
X48079D1*
X48017Y5983D2*
X47931D1*
X47903Y5992D1*
X47893Y6002D1*
X47883Y6021D1*
Y6050D1*
X47893Y6069D1*
X47903Y6079D1*
X47931Y6088D1*
X48017D1*
Y5887D1*
X47812Y6040D2*
Y6050D1*
X47803Y6069D1*
X47793Y6078D1*
X47774Y6088D1*
X47736D1*
X47717Y6078D1*
X47707Y6069D1*
X47697Y6050D1*
Y6031D1*
X47707Y6011D1*
X47726Y5983D1*
X47822Y5887D1*
X47688D1*
X47569Y6088D2*
X47597Y6078D1*
X47617Y6050D1*
X47626Y6002D1*
Y5973D1*
X47617Y5925D1*
X47597Y5897D1*
X47569Y5887D1*
X47550D1*
X47521Y5897D1*
X47502Y5925D1*
X47492Y5973D1*
Y6002D1*
X47502Y6050D1*
X47521Y6078D1*
X47550Y6088D1*
X47569D1*
X47502Y6050D2*
X47617Y5925D1*
X47335Y5887D2*
Y6088D1*
X47430Y5954D1*
X47287D1*
X49891Y17588D2*
Y17387D1*
X49958Y17588D2*
X49824D1*
X49763Y17483D2*
X49676D1*
X49648Y17492D1*
X49638Y17502D1*
X49629Y17521D1*
Y17550D1*
X49638Y17569D1*
X49648Y17579D1*
X49676Y17588D1*
X49763D1*
Y17387D1*
X49557Y17540D2*
Y17550D1*
X49548Y17569D1*
X49538Y17578D1*
X49519Y17588D1*
X49481D1*
X49462Y17578D1*
X49452Y17569D1*
X49443Y17550D1*
Y17531D1*
X49452Y17511D1*
X49471Y17483D1*
X49567Y17387D1*
X49433D1*
X49314Y17588D2*
X49343Y17578D1*
X49362Y17550D1*
X49371Y17502D1*
Y17473D1*
X49362Y17425D1*
X49343Y17397D1*
X49314Y17387D1*
X49295D1*
X49266Y17397D1*
X49247Y17425D1*
X49237Y17473D1*
Y17502D1*
X49247Y17550D1*
X49266Y17578D1*
X49295Y17588D1*
X49314D1*
X49247Y17550D2*
X49362Y17425D1*
X49061Y17588D2*
X49156D1*
X49166Y17502D1*
X49156Y17511D1*
X49128Y17521D1*
X49099D1*
X49070Y17511D1*
X49051Y17492D1*
X49042Y17464D1*
Y17445D1*
X49051Y17416D1*
X49070Y17397D1*
X49099Y17387D1*
X49128D1*
X49156Y17397D1*
X49166Y17406D1*
X49176Y17425D1*
X49887Y18588D2*
Y18387D1*
X49954Y18588D2*
X49820D1*
X49758Y18483D2*
X49672D1*
X49643Y18492D1*
X49633Y18502D1*
X49624Y18521D1*
Y18550D1*
X49633Y18569D1*
X49643Y18579D1*
X49672Y18588D1*
X49758D1*
Y18387D1*
X49552Y18540D2*
Y18550D1*
X49543Y18569D1*
X49533Y18578D1*
X49514Y18588D1*
X49476D1*
X49457Y18578D1*
X49447Y18569D1*
X49438Y18550D1*
Y18531D1*
X49447Y18511D1*
X49466Y18483D1*
X49562Y18387D1*
X49428D1*
X49309Y18588D2*
X49338Y18578D1*
X49357Y18550D1*
X49366Y18502D1*
Y18473D1*
X49357Y18425D1*
X49338Y18397D1*
X49309Y18387D1*
X49290D1*
X49261Y18397D1*
X49242Y18425D1*
X49232Y18473D1*
Y18502D1*
X49242Y18550D1*
X49261Y18578D1*
X49290Y18588D1*
X49309D1*
X49242Y18550D2*
X49357Y18425D1*
X49056Y18559D2*
X49065Y18578D1*
X49094Y18588D1*
X49113D1*
X49142Y18578D1*
X49161Y18550D1*
X49171Y18502D1*
Y18454D1*
X49161Y18416D1*
X49142Y18397D1*
X49113Y18387D1*
X49104D1*
X49075Y18397D1*
X49056Y18416D1*
X49046Y18445D1*
Y18454D1*
X49056Y18483D1*
X49075Y18502D1*
X49104Y18511D1*
X49113D1*
X49142Y18502D1*
X49161Y18483D1*
X49171Y18454D1*
X49141Y6088D2*
Y5887D1*
X49208Y6088D2*
X49074D1*
X49013Y5983D2*
X48926D1*
X48898Y5992D1*
X48888Y6002D1*
X48879Y6021D1*
Y6050D1*
X48888Y6069D1*
X48898Y6079D1*
X48926Y6088D1*
X49013D1*
Y5887D1*
X48807Y6040D2*
Y6050D1*
X48798Y6069D1*
X48788Y6078D1*
X48769Y6088D1*
X48731D1*
X48712Y6078D1*
X48702Y6069D1*
X48693Y6050D1*
Y6031D1*
X48702Y6011D1*
X48721Y5983D1*
X48817Y5887D1*
X48683D1*
X48564Y6088D2*
X48593Y6078D1*
X48612Y6050D1*
X48621Y6002D1*
Y5973D1*
X48612Y5925D1*
X48593Y5897D1*
X48564Y5887D1*
X48545D1*
X48516Y5897D1*
X48497Y5925D1*
X48487Y5973D1*
Y6002D1*
X48497Y6050D1*
X48516Y6078D1*
X48545Y6088D1*
X48564D1*
X48497Y6050D2*
X48612Y5925D1*
X48387Y5887D2*
X48292Y6088D1*
X48426D1*
X50141D2*
Y5887D1*
X50208Y6088D2*
X50074D1*
X50013Y5983D2*
X49926D1*
X49898Y5992D1*
X49888Y6002D1*
X49879Y6021D1*
Y6050D1*
X49888Y6069D1*
X49898Y6079D1*
X49926Y6088D1*
X50013D1*
Y5887D1*
X49807Y6040D2*
Y6050D1*
X49798Y6069D1*
X49788Y6078D1*
X49769Y6088D1*
X49731D1*
X49712Y6078D1*
X49702Y6069D1*
X49692Y6050D1*
Y6031D1*
X49702Y6011D1*
X49721Y5983D1*
X49817Y5887D1*
X49683D1*
X49564Y6088D2*
X49592Y6078D1*
X49612Y6050D1*
X49621Y6002D1*
Y5973D1*
X49612Y5925D1*
X49592Y5897D1*
X49564Y5887D1*
X49545D1*
X49516Y5897D1*
X49497Y5925D1*
X49487Y5973D1*
Y6002D1*
X49497Y6050D1*
X49516Y6078D1*
X49545Y6088D1*
X49564D1*
X49497Y6050D2*
X49612Y5925D1*
X49378Y6088D2*
X49406Y6078D1*
X49416Y6059D1*
Y6040D1*
X49406Y6021D1*
X49387Y6011D1*
X49349Y6002D1*
X49320Y5992D1*
X49301Y5973D1*
X49292Y5954D1*
Y5925D1*
X49301Y5906D1*
X49311Y5897D1*
X49339Y5887D1*
X49378D1*
X49406Y5897D1*
X49416Y5906D1*
X49425Y5925D1*
Y5954D1*
X49416Y5973D1*
X49397Y5992D1*
X49368Y6002D1*
X49330Y6011D1*
X49311Y6021D1*
X49301Y6040D1*
Y6059D1*
X49311Y6078D1*
X49339Y6088D1*
X49378D1*
X25598Y12088D2*
Y11887D1*
X25665Y12088D2*
X25531D1*
X25470Y11983D2*
X25383D1*
X25355Y11992D1*
X25345Y12002D1*
X25336Y12021D1*
Y12050D1*
X25345Y12069D1*
X25355Y12079D1*
X25383Y12088D1*
X25470D1*
Y11887D1*
X25255Y12088D2*
X25150D1*
X25207Y12011D1*
X25178D1*
X25159Y12002D1*
X25150Y11992D1*
X25140Y11964D1*
Y11945D1*
X25150Y11916D1*
X25169Y11897D1*
X25197Y11887D1*
X25226D1*
X25255Y11897D1*
X25264Y11906D1*
X25274Y11925D1*
X25021Y12088D2*
X25050Y12078D1*
X25069Y12050D1*
X25078Y12002D1*
Y11973D1*
X25069Y11925D1*
X25050Y11897D1*
X25021Y11887D1*
X25002D1*
X24973Y11897D1*
X24954Y11925D1*
X24944Y11973D1*
Y12002D1*
X24954Y12050D1*
X24973Y12078D1*
X25002Y12088D1*
X25021D1*
X24954Y12050D2*
X25069Y11925D1*
X24883Y12050D2*
X24863Y12059D1*
X24835Y12088D1*
Y11887D1*
X25641Y13088D2*
Y12887D1*
X25708Y13088D2*
X25574D1*
X25513Y12983D2*
X25426D1*
X25398Y12992D1*
X25388Y13002D1*
X25379Y13021D1*
Y13050D1*
X25388Y13069D1*
X25398Y13079D1*
X25426Y13088D1*
X25513D1*
Y12887D1*
X25298Y13088D2*
X25193D1*
X25250Y13011D1*
X25221D1*
X25202Y13002D1*
X25193Y12992D1*
X25183Y12964D1*
Y12945D1*
X25193Y12916D1*
X25212Y12897D1*
X25240Y12887D1*
X25269D1*
X25298Y12897D1*
X25307Y12906D1*
X25317Y12925D1*
X25064Y13088D2*
X25093Y13078D1*
X25112Y13050D1*
X25121Y13002D1*
Y12973D1*
X25112Y12925D1*
X25093Y12897D1*
X25064Y12887D1*
X25045D1*
X25016Y12897D1*
X24997Y12925D1*
X24987Y12973D1*
Y13002D1*
X24997Y13050D1*
X25016Y13078D1*
X25045Y13088D1*
X25064D1*
X24997Y13050D2*
X25112Y12925D1*
X24916Y13040D2*
Y13050D1*
X24906Y13069D1*
X24897Y13078D1*
X24878Y13088D1*
X24839D1*
X24820Y13078D1*
X24811Y13069D1*
X24801Y13050D1*
Y13031D1*
X24811Y13011D1*
X24830Y12983D1*
X24926Y12887D1*
X24792D1*
X25641Y14088D2*
Y13887D1*
X25708Y14088D2*
X25574D1*
X25513Y13983D2*
X25426D1*
X25398Y13992D1*
X25388Y14002D1*
X25379Y14021D1*
Y14050D1*
X25388Y14069D1*
X25398Y14079D1*
X25426Y14088D1*
X25513D1*
Y13887D1*
X25298Y14088D2*
X25193D1*
X25250Y14011D1*
X25221D1*
X25202Y14002D1*
X25193Y13992D1*
X25183Y13964D1*
Y13945D1*
X25193Y13916D1*
X25212Y13897D1*
X25240Y13887D1*
X25269D1*
X25298Y13897D1*
X25307Y13906D1*
X25317Y13925D1*
X25064Y14088D2*
X25093Y14078D1*
X25112Y14050D1*
X25121Y14002D1*
Y13973D1*
X25112Y13925D1*
X25093Y13897D1*
X25064Y13887D1*
X25045D1*
X25016Y13897D1*
X24997Y13925D1*
X24987Y13973D1*
Y14002D1*
X24997Y14050D1*
X25016Y14078D1*
X25045Y14088D1*
X25064D1*
X24997Y14050D2*
X25112Y13925D1*
X24906Y14088D2*
X24801D1*
X24859Y14011D1*
X24830D1*
X24811Y14002D1*
X24801Y13992D1*
X24792Y13964D1*
Y13945D1*
X24801Y13916D1*
X24820Y13897D1*
X24849Y13887D1*
X24878D1*
X24906Y13897D1*
X24916Y13906D1*
X24926Y13925D1*
X25646Y15088D2*
Y14887D1*
X25713Y15088D2*
X25579D1*
X25517Y14983D2*
X25431D1*
X25403Y14992D1*
X25393Y15002D1*
X25383Y15021D1*
Y15050D1*
X25393Y15069D1*
X25403Y15079D1*
X25431Y15088D1*
X25517D1*
Y14887D1*
X25303Y15088D2*
X25197D1*
X25255Y15011D1*
X25226D1*
X25207Y15002D1*
X25197Y14992D1*
X25188Y14964D1*
Y14945D1*
X25197Y14916D1*
X25217Y14897D1*
X25245Y14887D1*
X25274D1*
X25303Y14897D1*
X25312Y14906D1*
X25322Y14925D1*
X25069Y15088D2*
X25097Y15078D1*
X25117Y15050D1*
X25126Y15002D1*
Y14973D1*
X25117Y14925D1*
X25097Y14897D1*
X25069Y14887D1*
X25050D1*
X25021Y14897D1*
X25002Y14925D1*
X24992Y14973D1*
Y15002D1*
X25002Y15050D1*
X25021Y15078D1*
X25050Y15088D1*
X25069D1*
X25002Y15050D2*
X25117Y14925D1*
X24835Y14887D2*
Y15088D1*
X24930Y14954D1*
X24787D1*
X30853Y4088D2*
Y3887D1*
X30920Y4088D2*
X30786D1*
X30724Y3983D2*
X30638D1*
X30610Y3992D1*
X30600Y4002D1*
X30590Y4021D1*
Y4050D1*
X30600Y4069D1*
X30610Y4079D1*
X30638Y4088D1*
X30724D1*
Y3887D1*
X30433D2*
Y4088D1*
X30529Y3954D1*
X30385D1*
X30266Y4088D2*
X30295Y4078D1*
X30314Y4050D1*
X30324Y4002D1*
Y3973D1*
X30314Y3925D1*
X30295Y3897D1*
X30266Y3887D1*
X30247D1*
X30218Y3897D1*
X30199Y3925D1*
X30190Y3973D1*
Y4002D1*
X30199Y4050D1*
X30218Y4078D1*
X30247Y4088D1*
X30266D1*
X30199Y4050D2*
X30314Y3925D1*
X30128Y4050D2*
X30109Y4059D1*
X30080Y4088D1*
Y3887D1*
X29896Y4088D2*
Y3887D1*
X29963Y4088D2*
X29829D1*
X29767Y3983D2*
X29681D1*
X29653Y3992D1*
X29643Y4002D1*
X29633Y4021D1*
Y4050D1*
X29643Y4069D1*
X29653Y4079D1*
X29681Y4088D1*
X29767D1*
Y3887D1*
X29476D2*
Y4088D1*
X29572Y3954D1*
X29428D1*
X29309Y4088D2*
X29338Y4078D1*
X29357Y4050D1*
X29367Y4002D1*
Y3973D1*
X29357Y3925D1*
X29338Y3897D1*
X29309Y3887D1*
X29290D1*
X29261Y3897D1*
X29242Y3925D1*
X29233Y3973D1*
Y4002D1*
X29242Y4050D1*
X29261Y4078D1*
X29290Y4088D1*
X29309D1*
X29242Y4050D2*
X29357Y3925D1*
X29161Y4040D2*
Y4050D1*
X29152Y4069D1*
X29142Y4078D1*
X29123Y4088D1*
X29085D1*
X29066Y4078D1*
X29056Y4069D1*
X29046Y4050D1*
Y4031D1*
X29056Y4011D1*
X29075Y3983D1*
X29171Y3887D1*
X29037D1*
X3391Y9088D2*
Y8887D1*
X3458Y9088D2*
X3324D1*
X3263Y8983D2*
X3176D1*
X3148Y8992D1*
X3138Y9002D1*
X3129Y9021D1*
Y9050D1*
X3138Y9069D1*
X3148Y9079D1*
X3176Y9088D1*
X3263D1*
Y8887D1*
X2952Y9088D2*
X3048D1*
X3057Y9002D1*
X3048Y9011D1*
X3019Y9021D1*
X2990D1*
X2962Y9011D1*
X2943Y8992D1*
X2933Y8964D1*
Y8945D1*
X2943Y8916D1*
X2962Y8897D1*
X2990Y8887D1*
X3019D1*
X3048Y8897D1*
X3057Y8906D1*
X3067Y8925D1*
X2814Y9088D2*
X2843Y9078D1*
X2862Y9050D1*
X2871Y9002D1*
Y8973D1*
X2862Y8925D1*
X2843Y8897D1*
X2814Y8887D1*
X2795D1*
X2766Y8897D1*
X2747Y8925D1*
X2737Y8973D1*
Y9002D1*
X2747Y9050D1*
X2766Y9078D1*
X2795Y9088D1*
X2814D1*
X2747Y9050D2*
X2862Y8925D1*
X2666Y9040D2*
Y9050D1*
X2656Y9069D1*
X2647Y9078D1*
X2628Y9088D1*
X2589D1*
X2570Y9078D1*
X2561Y9069D1*
X2551Y9050D1*
Y9031D1*
X2561Y9011D1*
X2580Y8983D1*
X2676Y8887D1*
X2542D1*
X5646Y9088D2*
Y8887D1*
X5713Y9088D2*
X5579D1*
X5517Y8983D2*
X5431D1*
X5403Y8992D1*
X5393Y9002D1*
X5383Y9021D1*
Y9050D1*
X5393Y9069D1*
X5403Y9079D1*
X5431Y9088D1*
X5517D1*
Y8887D1*
X5207Y9088D2*
X5303D1*
X5312Y9002D1*
X5303Y9011D1*
X5274Y9021D1*
X5245D1*
X5217Y9011D1*
X5197Y8992D1*
X5188Y8964D1*
Y8945D1*
X5197Y8916D1*
X5217Y8897D1*
X5245Y8887D1*
X5274D1*
X5303Y8897D1*
X5312Y8906D1*
X5322Y8925D1*
X5069Y9088D2*
X5097Y9078D1*
X5117Y9050D1*
X5126Y9002D1*
Y8973D1*
X5117Y8925D1*
X5097Y8897D1*
X5069Y8887D1*
X5050D1*
X5021Y8897D1*
X5002Y8925D1*
X4992Y8973D1*
Y9002D1*
X5002Y9050D1*
X5021Y9078D1*
X5050Y9088D1*
X5069D1*
X5002Y9050D2*
X5117Y8925D1*
X4835Y8887D2*
Y9088D1*
X4930Y8954D1*
X4787D1*
X33141Y4088D2*
Y3887D1*
X33208Y4088D2*
X33074D1*
X33013Y3983D2*
X32926D1*
X32898Y3992D1*
X32888Y4002D1*
X32879Y4021D1*
Y4050D1*
X32888Y4069D1*
X32898Y4079D1*
X32926Y4088D1*
X33013D1*
Y3887D1*
X32702Y4088D2*
X32798D1*
X32807Y4002D1*
X32798Y4011D1*
X32769Y4021D1*
X32740D1*
X32712Y4011D1*
X32693Y3992D1*
X32683Y3964D1*
Y3945D1*
X32693Y3916D1*
X32712Y3897D1*
X32740Y3887D1*
X32769D1*
X32798Y3897D1*
X32807Y3906D1*
X32817Y3925D1*
X32564Y4088D2*
X32593Y4078D1*
X32612Y4050D1*
X32621Y4002D1*
Y3973D1*
X32612Y3925D1*
X32593Y3897D1*
X32564Y3887D1*
X32545D1*
X32516Y3897D1*
X32497Y3925D1*
X32487Y3973D1*
Y4002D1*
X32497Y4050D1*
X32516Y4078D1*
X32545Y4088D1*
X32564D1*
X32497Y4050D2*
X32612Y3925D1*
X32387Y3887D2*
X32292Y4088D1*
X32426D1*
X13505Y19D2*
Y220D1*
X13592D1*
X13620Y210D1*
X13630Y200D1*
X13639Y181D1*
Y153D1*
X13630Y133D1*
X13620Y124D1*
X13592Y114D1*
X13620Y105D1*
X13630Y95D1*
X13639Y76D1*
Y57D1*
X13630Y38D1*
X13620Y28D1*
X13592Y19D1*
X13505D1*
Y114D2*
X13592D1*
X13759Y19D2*
X13739Y28D1*
X13720Y47D1*
X13711Y66D1*
X13701Y95D1*
Y143D1*
X13711Y172D1*
X13720Y191D1*
X13739Y210D1*
X13759Y220D1*
X13797D1*
X13816Y210D1*
X13835Y191D1*
X13845Y172D1*
X13854Y143D1*
Y95D1*
X13845Y66D1*
X13835Y47D1*
X13816Y28D1*
X13797Y19D1*
X13759D1*
X14069Y220D2*
X13992Y19D1*
X13916Y220D1*
X13945Y153D2*
X14040D1*
X14131Y114D2*
X14217D1*
X14246Y105D1*
X14255Y95D1*
X14265Y76D1*
Y57D1*
X14255Y38D1*
X14246Y28D1*
X14217Y19D1*
X14131D1*
Y220D1*
X14198Y114D2*
X14265Y220D1*
X14327Y19D2*
Y220D1*
X14394D1*
X14422Y210D1*
X14442Y191D1*
X14451Y172D1*
X14461Y143D1*
Y95D1*
X14451Y66D1*
X14442Y47D1*
X14422Y28D1*
X14394Y19D1*
X14327D1*
X14841D2*
X14717D1*
Y220D1*
X14841D1*
X14717Y114D2*
X14793D1*
X14903Y19D2*
Y220D1*
X14970D1*
X14998Y210D1*
X15018Y191D1*
X15027Y172D1*
X15037Y143D1*
Y95D1*
X15027Y66D1*
X15018Y47D1*
X14998Y28D1*
X14970Y19D1*
X14903D1*
X15242Y66D2*
X15232Y47D1*
X15213Y28D1*
X15194Y19D1*
X15156D1*
X15137Y28D1*
X15118Y47D1*
X15108Y66D1*
X15098Y95D1*
Y143D1*
X15108Y172D1*
X15118Y191D1*
X15137Y210D1*
X15156Y220D1*
X15194D1*
X15213Y210D1*
X15232Y191D1*
X15242Y172D1*
Y143D1*
X15194D1*
X15428Y19D2*
X15304D1*
Y220D1*
X15428D1*
X15304Y114D2*
X15380D1*
X11905Y19019D2*
Y19220D1*
X11992D1*
X12020Y19210D1*
X12030Y19200D1*
X12039Y19181D1*
Y19153D1*
X12030Y19133D1*
X12020Y19124D1*
X11992Y19114D1*
X12020Y19105D1*
X12030Y19095D1*
X12039Y19076D1*
Y19057D1*
X12030Y19038D1*
X12020Y19028D1*
X11992Y19019D1*
X11905D1*
Y19114D2*
X11992D1*
X12159Y19019D2*
X12139Y19028D1*
X12120Y19047D1*
X12111Y19066D1*
X12101Y19095D1*
Y19143D1*
X12111Y19172D1*
X12120Y19191D1*
X12139Y19210D1*
X12159Y19220D1*
X12197D1*
X12216Y19210D1*
X12235Y19191D1*
X12245Y19172D1*
X12254Y19143D1*
Y19095D1*
X12245Y19066D1*
X12235Y19047D1*
X12216Y19028D1*
X12197Y19019D1*
X12159D1*
X12469Y19220D2*
X12392Y19019D1*
X12316Y19220D1*
X12345Y19153D2*
X12440D1*
X12531Y19114D2*
X12617D1*
X12646Y19105D1*
X12655Y19095D1*
X12665Y19076D1*
Y19057D1*
X12655Y19038D1*
X12646Y19028D1*
X12617Y19019D1*
X12531D1*
Y19220D1*
X12598Y19114D2*
X12665Y19220D1*
X12727Y19019D2*
Y19220D1*
X12794D1*
X12822Y19210D1*
X12842Y19191D1*
X12851Y19172D1*
X12861Y19143D1*
Y19095D1*
X12851Y19066D1*
X12842Y19047D1*
X12822Y19028D1*
X12794Y19019D1*
X12727D1*
X13241D2*
X13117D1*
Y19220D1*
X13241D1*
X13117Y19114D2*
X13193D1*
X13303Y19019D2*
Y19220D1*
X13370D1*
X13398Y19210D1*
X13418Y19191D1*
X13427Y19172D1*
X13437Y19143D1*
Y19095D1*
X13427Y19066D1*
X13418Y19047D1*
X13398Y19028D1*
X13370Y19019D1*
X13303D1*
X13642Y19066D2*
X13632Y19047D1*
X13613Y19028D1*
X13594Y19019D1*
X13556D1*
X13537Y19028D1*
X13518Y19047D1*
X13508Y19066D1*
X13498Y19095D1*
Y19143D1*
X13508Y19172D1*
X13518Y19191D1*
X13537Y19210D1*
X13556Y19220D1*
X13594D1*
X13613Y19210D1*
X13632Y19191D1*
X13642Y19172D1*
Y19143D1*
X13594D1*
X13828Y19019D2*
X13704D1*
Y19220D1*
X13828D1*
X13704Y19114D2*
X13780D1*
X22505Y19D2*
Y220D1*
X22592D1*
X22620Y210D1*
X22630Y200D1*
X22639Y181D1*
Y153D1*
X22630Y133D1*
X22620Y124D1*
X22592Y114D1*
X22620Y105D1*
X22630Y95D1*
X22639Y76D1*
Y57D1*
X22630Y38D1*
X22620Y28D1*
X22592Y19D1*
X22505D1*
Y114D2*
X22592D1*
X22759Y19D2*
X22739Y28D1*
X22720Y47D1*
X22711Y66D1*
X22701Y95D1*
Y143D1*
X22711Y172D1*
X22720Y191D1*
X22739Y210D1*
X22759Y220D1*
X22797D1*
X22816Y210D1*
X22835Y191D1*
X22845Y172D1*
X22854Y143D1*
Y95D1*
X22845Y66D1*
X22835Y47D1*
X22816Y28D1*
X22797Y19D1*
X22759D1*
X23069Y220D2*
X22992Y19D1*
X22916Y220D1*
X22945Y153D2*
X23040D1*
X23131Y114D2*
X23217D1*
X23246Y105D1*
X23255Y95D1*
X23265Y76D1*
Y57D1*
X23255Y38D1*
X23246Y28D1*
X23217Y19D1*
X23131D1*
Y220D1*
X23198Y114D2*
X23265Y220D1*
X23327Y19D2*
Y220D1*
X23394D1*
X23422Y210D1*
X23442Y191D1*
X23451Y172D1*
X23461Y143D1*
Y95D1*
X23451Y66D1*
X23442Y47D1*
X23422Y28D1*
X23394Y19D1*
X23327D1*
X23841D2*
X23717D1*
Y220D1*
X23841D1*
X23717Y114D2*
X23793D1*
X23903Y19D2*
Y220D1*
X23970D1*
X23998Y210D1*
X24018Y191D1*
X24027Y172D1*
X24037Y143D1*
Y95D1*
X24027Y66D1*
X24018Y47D1*
X23998Y28D1*
X23970Y19D1*
X23903D1*
X24242Y66D2*
X24232Y47D1*
X24213Y28D1*
X24194Y19D1*
X24156D1*
X24137Y28D1*
X24118Y47D1*
X24108Y66D1*
X24098Y95D1*
Y143D1*
X24108Y172D1*
X24118Y191D1*
X24137Y210D1*
X24156Y220D1*
X24194D1*
X24213Y210D1*
X24232Y191D1*
X24242Y172D1*
Y143D1*
X24194D1*
X24428Y19D2*
X24304D1*
Y220D1*
X24428D1*
X24304Y114D2*
X24380D1*
X20505Y19019D2*
Y19220D1*
X20592D1*
X20620Y19210D1*
X20630Y19200D1*
X20639Y19181D1*
Y19153D1*
X20630Y19133D1*
X20620Y19124D1*
X20592Y19114D1*
X20620Y19105D1*
X20630Y19095D1*
X20639Y19076D1*
Y19057D1*
X20630Y19038D1*
X20620Y19028D1*
X20592Y19019D1*
X20505D1*
Y19114D2*
X20592D1*
X20759Y19019D2*
X20739Y19028D1*
X20720Y19047D1*
X20711Y19066D1*
X20701Y19095D1*
Y19143D1*
X20711Y19172D1*
X20720Y19191D1*
X20739Y19210D1*
X20759Y19220D1*
X20797D1*
X20816Y19210D1*
X20835Y19191D1*
X20845Y19172D1*
X20854Y19143D1*
Y19095D1*
X20845Y19066D1*
X20835Y19047D1*
X20816Y19028D1*
X20797Y19019D1*
X20759D1*
X21069Y19220D2*
X20992Y19019D1*
X20916Y19220D1*
X20945Y19153D2*
X21040D1*
X21131Y19114D2*
X21217D1*
X21246Y19105D1*
X21255Y19095D1*
X21265Y19076D1*
Y19057D1*
X21255Y19038D1*
X21246Y19028D1*
X21217Y19019D1*
X21131D1*
Y19220D1*
X21198Y19114D2*
X21265Y19220D1*
X21327Y19019D2*
Y19220D1*
X21394D1*
X21422Y19210D1*
X21442Y19191D1*
X21451Y19172D1*
X21461Y19143D1*
Y19095D1*
X21451Y19066D1*
X21442Y19047D1*
X21422Y19028D1*
X21394Y19019D1*
X21327D1*
X21841D2*
X21717D1*
Y19220D1*
X21841D1*
X21717Y19114D2*
X21793D1*
X21903Y19019D2*
Y19220D1*
X21970D1*
X21998Y19210D1*
X22018Y19191D1*
X22027Y19172D1*
X22037Y19143D1*
Y19095D1*
X22027Y19066D1*
X22018Y19047D1*
X21998Y19028D1*
X21970Y19019D1*
X21903D1*
X22242Y19066D2*
X22232Y19047D1*
X22213Y19028D1*
X22194Y19019D1*
X22156D1*
X22137Y19028D1*
X22118Y19047D1*
X22108Y19066D1*
X22098Y19095D1*
Y19143D1*
X22108Y19172D1*
X22118Y19191D1*
X22137Y19210D1*
X22156Y19220D1*
X22194D1*
X22213Y19210D1*
X22232Y19191D1*
X22242Y19172D1*
Y19143D1*
X22194D1*
X22428Y19019D2*
X22304D1*
Y19220D1*
X22428D1*
X22304Y19114D2*
X22380D1*
X31505Y19D2*
Y220D1*
X31592D1*
X31620Y210D1*
X31630Y200D1*
X31639Y181D1*
Y153D1*
X31630Y133D1*
X31620Y124D1*
X31592Y114D1*
X31620Y105D1*
X31630Y95D1*
X31639Y76D1*
Y57D1*
X31630Y38D1*
X31620Y28D1*
X31592Y19D1*
X31505D1*
Y114D2*
X31592D1*
X31759Y19D2*
X31739Y28D1*
X31720Y47D1*
X31711Y66D1*
X31701Y95D1*
Y143D1*
X31711Y172D1*
X31720Y191D1*
X31739Y210D1*
X31759Y220D1*
X31797D1*
X31816Y210D1*
X31835Y191D1*
X31845Y172D1*
X31854Y143D1*
Y95D1*
X31845Y66D1*
X31835Y47D1*
X31816Y28D1*
X31797Y19D1*
X31759D1*
X32069Y220D2*
X31992Y19D1*
X31916Y220D1*
X31945Y153D2*
X32040D1*
X32131Y114D2*
X32217D1*
X32246Y105D1*
X32255Y95D1*
X32265Y76D1*
Y57D1*
X32255Y38D1*
X32246Y28D1*
X32217Y19D1*
X32131D1*
Y220D1*
X32198Y114D2*
X32265Y220D1*
X32327Y19D2*
Y220D1*
X32394D1*
X32422Y210D1*
X32442Y191D1*
X32451Y172D1*
X32461Y143D1*
Y95D1*
X32451Y66D1*
X32442Y47D1*
X32422Y28D1*
X32394Y19D1*
X32327D1*
X32841D2*
X32717D1*
Y220D1*
X32841D1*
X32717Y114D2*
X32793D1*
X32903Y19D2*
Y220D1*
X32970D1*
X32998Y210D1*
X33018Y191D1*
X33027Y172D1*
X33037Y143D1*
Y95D1*
X33027Y66D1*
X33018Y47D1*
X32998Y28D1*
X32970Y19D1*
X32903D1*
X33242Y66D2*
X33232Y47D1*
X33213Y28D1*
X33194Y19D1*
X33156D1*
X33137Y28D1*
X33118Y47D1*
X33108Y66D1*
X33098Y95D1*
Y143D1*
X33108Y172D1*
X33118Y191D1*
X33137Y210D1*
X33156Y220D1*
X33194D1*
X33213Y210D1*
X33232Y191D1*
X33242Y172D1*
Y143D1*
X33194D1*
X33428Y19D2*
X33304D1*
Y220D1*
X33428D1*
X33304Y114D2*
X33380D1*
X29505Y19019D2*
Y19220D1*
X29592D1*
X29620Y19210D1*
X29630Y19200D1*
X29639Y19181D1*
Y19153D1*
X29630Y19133D1*
X29620Y19124D1*
X29592Y19114D1*
X29620Y19105D1*
X29630Y19095D1*
X29639Y19076D1*
Y19057D1*
X29630Y19038D1*
X29620Y19028D1*
X29592Y19019D1*
X29505D1*
Y19114D2*
X29592D1*
X29759Y19019D2*
X29739Y19028D1*
X29720Y19047D1*
X29711Y19066D1*
X29701Y19095D1*
Y19143D1*
X29711Y19172D1*
X29720Y19191D1*
X29739Y19210D1*
X29759Y19220D1*
X29797D1*
X29816Y19210D1*
X29835Y19191D1*
X29845Y19172D1*
X29854Y19143D1*
Y19095D1*
X29845Y19066D1*
X29835Y19047D1*
X29816Y19028D1*
X29797Y19019D1*
X29759D1*
X30069Y19220D2*
X29992Y19019D1*
X29916Y19220D1*
X29945Y19153D2*
X30040D1*
X30131Y19114D2*
X30217D1*
X30246Y19105D1*
X30255Y19095D1*
X30265Y19076D1*
Y19057D1*
X30255Y19038D1*
X30246Y19028D1*
X30217Y19019D1*
X30131D1*
Y19220D1*
X30198Y19114D2*
X30265Y19220D1*
X30327Y19019D2*
Y19220D1*
X30394D1*
X30422Y19210D1*
X30442Y19191D1*
X30451Y19172D1*
X30461Y19143D1*
Y19095D1*
X30451Y19066D1*
X30442Y19047D1*
X30422Y19028D1*
X30394Y19019D1*
X30327D1*
X30841D2*
X30717D1*
Y19220D1*
X30841D1*
X30717Y19114D2*
X30793D1*
X30903Y19019D2*
Y19220D1*
X30970D1*
X30998Y19210D1*
X31018Y19191D1*
X31027Y19172D1*
X31037Y19143D1*
Y19095D1*
X31027Y19066D1*
X31018Y19047D1*
X30998Y19028D1*
X30970Y19019D1*
X30903D1*
X31242Y19066D2*
X31232Y19047D1*
X31213Y19028D1*
X31194Y19019D1*
X31156D1*
X31137Y19028D1*
X31118Y19047D1*
X31108Y19066D1*
X31098Y19095D1*
Y19143D1*
X31108Y19172D1*
X31118Y19191D1*
X31137Y19210D1*
X31156Y19220D1*
X31194D1*
X31213Y19210D1*
X31232Y19191D1*
X31242Y19172D1*
Y19143D1*
X31194D1*
X31428Y19019D2*
X31304D1*
Y19220D1*
X31428D1*
X31304Y19114D2*
X31380D1*
M02*
