G04 DipTrace 2.4.0.2*
%INBottom.gbr*%
%MOIN*%
%ADD13C,0.03*%
%ADD14C,0.012*%
%ADD15C,0.01*%
%ADD16C,0.013*%
%ADD19C,0.02*%
%ADD31R,0.0669X0.0669*%
%ADD32C,0.0669*%
%ADD33R,0.0709X0.0709*%
%ADD34C,0.0709*%
%ADD35R,0.063X0.063*%
%ADD36C,0.063*%
%ADD37R,0.0748X0.0984*%
%ADD38O,0.0748X0.0984*%
%ADD41R,0.0748X0.0748*%
%ADD42C,0.0748*%
%ADD45C,0.0591*%
%ADD51C,0.024*%
%FSLAX44Y44*%
G04*
G70*
G90*
G75*
G01*
%LNBottom*%
%LPD*%
X1500Y18250D2*
D13*
X1187Y17937D1*
Y5812D1*
X1937Y5062D1*
X4063D1*
Y3875D1*
X625D1*
Y750D1*
X938Y438D1*
X10062D1*
X12760Y4492D2*
D15*
X13250Y4982D1*
Y9500D1*
X14250Y15500D2*
D13*
Y16750D1*
D16*
X15438Y17938D1*
X16813D1*
X17000Y18125D1*
Y20750D1*
X17250Y21000D1*
X38875D1*
X39000Y20875D1*
Y13500D1*
X44375D1*
X45750Y12125D1*
Y11250D1*
X43000Y20000D2*
Y20937D1*
X54437D1*
Y437D1*
X49625D1*
X15000D1*
Y1000D1*
X49625Y1750D2*
Y437D1*
X17500Y9000D2*
D14*
X20500D1*
Y4250D1*
X20250D1*
X16250Y15500D2*
D13*
Y16750D1*
D16*
X17437Y17937D1*
Y20625D1*
X17562Y20750D1*
X38625D1*
Y12500D1*
X44812D1*
X45312Y12000D1*
X38000Y6000D2*
X39500Y4500D1*
X41500D1*
X42000Y4000D1*
X44500Y6000D2*
X44000Y6500D1*
X37500D1*
X37000Y6000D1*
X48750Y6500D2*
Y5500D1*
X49750Y6500D2*
Y5500D1*
X47750Y6500D2*
Y5500D1*
X15250Y15500D2*
Y16750D1*
X49250Y7937D2*
X47500D1*
X49250D2*
X51063D1*
X49250D2*
X49187Y8000D1*
Y15188D1*
X49000Y4687D2*
X46500D1*
Y5062D1*
X19884Y6689D2*
X20063Y6868D1*
Y7063D1*
X19884Y6689D2*
X19688Y6885D1*
Y7063D1*
X19884Y6689D2*
X19688Y6493D1*
Y6312D1*
X19884Y6689D2*
X20063Y6510D1*
Y6312D1*
X10884Y6439D2*
X11062Y6618D1*
Y6813D1*
X10884Y6439D2*
X10688Y6635D1*
Y6813D1*
X10884Y6439D2*
X10688Y6243D1*
Y6062D1*
X10884Y6439D2*
X11062Y6260D1*
Y6062D1*
X11400Y20000D2*
X10900Y20500D1*
X1187D1*
X812Y20125D1*
Y5438D1*
X1625Y4625D1*
X2750D1*
X2000Y8500D2*
D13*
X3000D1*
X21500Y3000D2*
D14*
X16750D1*
X13750Y3500D2*
X12250D1*
X11750Y4000D1*
X11581D1*
X48062Y2250D2*
D16*
X47375Y2937D1*
X46500D1*
X16500Y7500D2*
D14*
Y4250D1*
X17250Y3500D1*
X21500D1*
Y5750D1*
Y7250D1*
X23750Y5750D2*
X21500D1*
Y7250D2*
D16*
Y11313D1*
X7750Y7750D2*
D14*
X7000D1*
Y4500D1*
X9000Y2500D1*
X14000D1*
X16000D2*
Y8000D1*
X17000D1*
X18750Y6250D1*
Y5250D1*
X48250Y7250D2*
D16*
X50250D1*
X50750Y5500D2*
Y6500D1*
X30500Y4500D2*
Y3500D1*
X7256Y6750D2*
D15*
Y4976D1*
X12226D1*
X12469Y5219D1*
Y7500D1*
D13*
X12500Y7531D1*
Y9998D1*
Y13750D1*
X15000Y7500D2*
D14*
X13750Y8750D1*
Y9750D1*
X13502Y9998D1*
X12500D1*
X14000Y3250D2*
X10002D1*
X29516Y4500D2*
D16*
X29500Y4484D1*
Y3500D1*
X12400Y20000D2*
X11650Y20750D1*
X1000D1*
X562Y20312D1*
Y5313D1*
X1500Y4375D1*
X3500D1*
Y4625D1*
X5250Y8500D2*
D13*
X4250D1*
X44500Y5000D2*
D16*
X43000Y3500D1*
X41250D1*
X41000Y3250D1*
Y3000D1*
X25250Y13500D2*
D13*
X26500D1*
X25250Y14500D2*
X26500D1*
X25250Y12500D2*
X26500D1*
X25250Y11500D2*
X26500D1*
X32750Y4500D2*
D16*
Y3500D1*
X45000Y17000D2*
X46000D1*
X47312Y10750D2*
Y15125D1*
X46000Y17984D2*
X45984Y18000D1*
X45000D1*
X49500Y17000D2*
X50500D1*
X51312Y11000D2*
Y15063D1*
X49500Y18000D2*
X49516Y17984D1*
X50500D1*
X33500Y16500D2*
X36000Y19000D1*
X37000D1*
X33500Y9500D2*
X35750Y11750D1*
Y13000D1*
X36750Y14000D1*
X37000D1*
X32500Y11750D2*
X32750Y12000D1*
X34000D1*
X37000Y15000D1*
X32500Y12750D2*
X32750Y13000D1*
X33813D1*
X36813Y16000D1*
X37000D1*
X32500Y13750D2*
X32750Y14000D1*
X33813D1*
X36813Y17000D1*
X37000D1*
X33500Y15500D2*
X36000Y18000D1*
X37000D1*
D51*
X10062Y438D3*
X12760Y4492D3*
X13250Y9500D3*
X45750Y11250D3*
X49625Y1750D3*
X17500Y9000D3*
X20250Y4250D3*
X45312Y12000D3*
X49250Y7937D3*
X47500D3*
X51063D3*
X49250D3*
X49187Y15188D3*
X49250Y7937D3*
X49000Y4687D3*
X46500Y5062D3*
X19884Y6689D3*
X20063Y7063D3*
X19884Y6689D3*
X19688Y7063D3*
X19884Y6689D3*
X19688Y6312D3*
X20063D3*
X19884Y6689D3*
X10884Y6439D3*
X11062Y6813D3*
X10884Y6439D3*
X10688Y6813D3*
Y6062D3*
X10884Y6439D3*
X11062Y6062D3*
X10884Y6439D3*
X2750Y4625D3*
X21500Y3000D3*
X16750D3*
X13750Y3500D3*
X11581Y4000D3*
X48062Y2250D3*
X46500Y2937D3*
X16500Y7500D3*
X21500Y7250D3*
X23750Y5750D3*
X21500Y11313D3*
X7750Y7750D3*
X14000Y2500D3*
X16000D3*
X18750Y5250D3*
X48250Y7250D3*
X50250D3*
X12469Y7500D3*
X7256Y6750D3*
X12500Y13750D3*
X15000Y7500D3*
X14000Y3250D3*
X10002D3*
X3500Y4625D3*
X47312Y10750D3*
Y15125D3*
X51312Y11000D3*
Y15063D3*
X32500Y11750D3*
Y12750D3*
Y13750D3*
X39330Y20851D2*
D15*
X42670D1*
X39330Y20753D2*
X42670D1*
X39330Y20654D2*
X42670D1*
X39330Y20555D2*
X40795D1*
X41205D2*
X41795D1*
X42205D2*
X42670D1*
X43330D2*
X54108D1*
X39330Y20457D2*
X40619D1*
X41381D2*
X41619D1*
X42381D2*
X42619D1*
X43381D2*
X54108D1*
X25478Y20358D2*
X26402D1*
X34478D2*
X36522D1*
X39330D2*
X40522D1*
X43478D2*
X54108D1*
X25539Y20259D2*
X26402D1*
X34539D2*
X36461D1*
X39330D2*
X40461D1*
X43539D2*
X54108D1*
X1309Y20160D2*
X8802D1*
X25576D2*
X26402D1*
X34576D2*
X36424D1*
X39330D2*
X40424D1*
X43576D2*
X54108D1*
X1211Y20062D2*
X8802D1*
X25595D2*
X26402D1*
X34595D2*
X36405D1*
X39330D2*
X40405D1*
X43595D2*
X54108D1*
X1142Y19963D2*
X8802D1*
X25597D2*
X26402D1*
X34597D2*
X36403D1*
X39330D2*
X40403D1*
X43597D2*
X54108D1*
X1142Y19864D2*
X8802D1*
X25583D2*
X26402D1*
X34583D2*
X36417D1*
X39330D2*
X40417D1*
X43583D2*
X54108D1*
X1142Y19766D2*
X8802D1*
X25550D2*
X26402D1*
X34550D2*
X36450D1*
X39330D2*
X40450D1*
X43550D2*
X54108D1*
X1142Y19667D2*
X8802D1*
X25495D2*
X26402D1*
X34495D2*
X36505D1*
X39330D2*
X40505D1*
X43495D2*
X54108D1*
X1142Y19568D2*
X8802D1*
X10811D2*
X10989D1*
X11811D2*
X11989D1*
X12811D2*
X12989D1*
X13811D2*
X13989D1*
X14811D2*
X14989D1*
X15811D2*
X15989D1*
X19411D2*
X19589D1*
X20411D2*
X20589D1*
X21411D2*
X21589D1*
X22411D2*
X22589D1*
X23411D2*
X23589D1*
X24411D2*
X24589D1*
X25411D2*
X26402D1*
X28411D2*
X28589D1*
X29411D2*
X29589D1*
X30411D2*
X30589D1*
X31411D2*
X31589D1*
X32411D2*
X32589D1*
X33411D2*
X33589D1*
X34411D2*
X36589D1*
X39330D2*
X40589D1*
X43411D2*
X54108D1*
X1142Y19470D2*
X8802D1*
X9998D2*
X10135D1*
X10665D2*
X11135D1*
X11665D2*
X12135D1*
X12665D2*
X13135D1*
X13665D2*
X14135D1*
X14665D2*
X15135D1*
X15665D2*
X16135D1*
X18598D2*
X18735D1*
X19265D2*
X19735D1*
X20265D2*
X20735D1*
X21265D2*
X21735D1*
X22265D2*
X22735D1*
X23265D2*
X23735D1*
X24265D2*
X24735D1*
X25265D2*
X26402D1*
X27598D2*
X27735D1*
X28265D2*
X28735D1*
X29265D2*
X29735D1*
X30265D2*
X30735D1*
X31265D2*
X31735D1*
X32265D2*
X32735D1*
X33265D2*
X33735D1*
X34265D2*
X36636D1*
X39330D2*
X40636D1*
X43364D2*
X45720D1*
X46280D2*
X50220D1*
X50780D2*
X54108D1*
X1142Y19371D2*
X16670D1*
X17767D2*
X36533D1*
X39330D2*
X40533D1*
X43467D2*
X45588D1*
X46412D2*
X50088D1*
X50912D2*
X54108D1*
X1142Y19272D2*
X16670D1*
X17767D2*
X35824D1*
X39330D2*
X40469D1*
X43531D2*
X45510D1*
X46490D2*
X50010D1*
X50990D2*
X54108D1*
X1142Y19174D2*
X16670D1*
X17767D2*
X35713D1*
X39330D2*
X40428D1*
X43572D2*
X45460D1*
X46540D2*
X49960D1*
X51040D2*
X54108D1*
X1142Y19075D2*
X16670D1*
X17767D2*
X35614D1*
X39330D2*
X40406D1*
X43594D2*
X45431D1*
X46569D2*
X49931D1*
X51069D2*
X54108D1*
X1142Y18976D2*
X1335D1*
X1665D2*
X2335D1*
X2665D2*
X3335D1*
X3665D2*
X3863D1*
X5137D2*
X16670D1*
X17767D2*
X35516D1*
X39330D2*
X40402D1*
X43598D2*
X45420D1*
X46580D2*
X49920D1*
X51080D2*
X54108D1*
X1876Y18878D2*
X2124D1*
X2876D2*
X3124D1*
X5137D2*
X16670D1*
X17767D2*
X35417D1*
X39330D2*
X40414D1*
X43586D2*
X45428D1*
X46572D2*
X49928D1*
X51072D2*
X54108D1*
X5137Y18779D2*
X16670D1*
X17767D2*
X35317D1*
X39330D2*
X40444D1*
X43556D2*
X45453D1*
X46547D2*
X49953D1*
X51047D2*
X54108D1*
X5137Y18680D2*
X16670D1*
X17767D2*
X35219D1*
X39330D2*
X40495D1*
X43505D2*
X45500D1*
X46500D2*
X50000D1*
X51000D2*
X54108D1*
X5137Y18581D2*
X16670D1*
X17767D2*
X35120D1*
X39330D2*
X40577D1*
X43423D2*
X45574D1*
X46426D2*
X50074D1*
X50926D2*
X54108D1*
X5137Y18483D2*
X16670D1*
X17767D2*
X35022D1*
X39330D2*
X40653D1*
X43347D2*
X44728D1*
X45272D2*
X45694D1*
X46306D2*
X49228D1*
X49772D2*
X50194D1*
X50806D2*
X54108D1*
X5137Y18384D2*
X16670D1*
X17767D2*
X34924D1*
X39330D2*
X40544D1*
X43456D2*
X44597D1*
X45403D2*
X45586D1*
X46414D2*
X49097D1*
X49903D2*
X50086D1*
X50914D2*
X54108D1*
X5137Y18285D2*
X16670D1*
X17767D2*
X34825D1*
X39330D2*
X40475D1*
X43525D2*
X44520D1*
X46492D2*
X49020D1*
X50992D2*
X54108D1*
X5137Y18187D2*
X15228D1*
X17767D2*
X34725D1*
X39330D2*
X40431D1*
X43569D2*
X44474D1*
X46542D2*
X48974D1*
X51042D2*
X54108D1*
X5137Y18088D2*
X15127D1*
X17767D2*
X34627D1*
X39330D2*
X40408D1*
X43592D2*
X44449D1*
X46569D2*
X48949D1*
X51069D2*
X54108D1*
X5137Y17989D2*
X15028D1*
X17767D2*
X34528D1*
X39330D2*
X40402D1*
X43598D2*
X44441D1*
X46580D2*
X48941D1*
X51080D2*
X54108D1*
X5137Y17891D2*
X14930D1*
X17762D2*
X34430D1*
X39330D2*
X40411D1*
X43589D2*
X44452D1*
X46572D2*
X48952D1*
X51072D2*
X54108D1*
X5137Y17792D2*
X14831D1*
X17731D2*
X34331D1*
X39330D2*
X40439D1*
X43561D2*
X44481D1*
X46545D2*
X48981D1*
X51045D2*
X54108D1*
X1959Y17693D2*
X2041D1*
X2959D2*
X3041D1*
X5137D2*
X14733D1*
X17655D2*
X34233D1*
X39330D2*
X40488D1*
X43512D2*
X44535D1*
X46498D2*
X49035D1*
X50998D2*
X54108D1*
X1834Y17595D2*
X2166D1*
X2834D2*
X3166D1*
X5137D2*
X14633D1*
X17556D2*
X34133D1*
X39330D2*
X40563D1*
X43437D2*
X44619D1*
X46425D2*
X49119D1*
X50925D2*
X54108D1*
X1601Y17496D2*
X14535D1*
X17458D2*
X34035D1*
X39330D2*
X40402D1*
X43598D2*
X44755D1*
X46580D2*
X49255D1*
X51080D2*
X54108D1*
X1601Y17397D2*
X14436D1*
X17358D2*
X33936D1*
X39330D2*
X40402D1*
X43598D2*
X44611D1*
X46580D2*
X49111D1*
X51080D2*
X54108D1*
X1601Y17299D2*
X13631D1*
X17259D2*
X33838D1*
X39330D2*
X40402D1*
X43598D2*
X44530D1*
X46580D2*
X49030D1*
X51080D2*
X54108D1*
X1601Y17200D2*
X13631D1*
X17161D2*
X33739D1*
X39330D2*
X40402D1*
X43598D2*
X44478D1*
X46580D2*
X48978D1*
X51080D2*
X54108D1*
X1601Y17101D2*
X13631D1*
X17062D2*
X33641D1*
X39330D2*
X40402D1*
X43598D2*
X44450D1*
X46580D2*
X48950D1*
X51080D2*
X54108D1*
X1601Y17002D2*
X13631D1*
X16964D2*
X28183D1*
X28817D2*
X33183D1*
X39330D2*
X40402D1*
X43598D2*
X44441D1*
X46580D2*
X48941D1*
X51080D2*
X54108D1*
X1601Y16904D2*
X13631D1*
X16865D2*
X28063D1*
X28937D2*
X33063D1*
X39330D2*
X40402D1*
X43598D2*
X44449D1*
X46580D2*
X48949D1*
X51080D2*
X54108D1*
X1601Y16805D2*
X13631D1*
X16865D2*
X27986D1*
X29014D2*
X32986D1*
X39330D2*
X40402D1*
X43598D2*
X44477D1*
X46580D2*
X48977D1*
X51080D2*
X54108D1*
X1601Y16706D2*
X13631D1*
X16867D2*
X27939D1*
X29061D2*
X32939D1*
X39330D2*
X40402D1*
X43598D2*
X44525D1*
X46580D2*
X49025D1*
X51080D2*
X54108D1*
X1601Y16608D2*
X13631D1*
X16851D2*
X27911D1*
X29089D2*
X32911D1*
X39330D2*
X40402D1*
X43598D2*
X44606D1*
X46580D2*
X49106D1*
X51080D2*
X54108D1*
X1601Y16509D2*
X13631D1*
X16819D2*
X27902D1*
X29098D2*
X32902D1*
X39330D2*
X40402D1*
X43598D2*
X44744D1*
X45256D2*
X45420D1*
X46580D2*
X49244D1*
X49756D2*
X49920D1*
X51080D2*
X54108D1*
X1601Y16410D2*
X13631D1*
X16764D2*
X27908D1*
X29092D2*
X32908D1*
X39330D2*
X54108D1*
X1601Y16312D2*
X13631D1*
X15681D2*
X15819D1*
X16681D2*
X27933D1*
X29067D2*
X32933D1*
X39330D2*
X54108D1*
X1601Y16213D2*
X13631D1*
X14869D2*
X14955D1*
X15545D2*
X15836D1*
X16664D2*
X27977D1*
X29023D2*
X32977D1*
X39330D2*
X54108D1*
X1601Y16114D2*
X13836D1*
X14664D2*
X15836D1*
X16664D2*
X28045D1*
X28955D2*
X33045D1*
X39330D2*
X54108D1*
X1601Y16016D2*
X13836D1*
X14664D2*
X15836D1*
X16664D2*
X28156D1*
X28844D2*
X33156D1*
X39330D2*
X54108D1*
X1601Y15917D2*
X13836D1*
X14664D2*
X15836D1*
X16664D2*
X28075D1*
X28925D2*
X33075D1*
X39330D2*
X54108D1*
X1601Y15818D2*
X13792D1*
X14708D2*
X15792D1*
X16708D2*
X27995D1*
X29005D2*
X32995D1*
X39330D2*
X54108D1*
X1601Y15720D2*
X13736D1*
X14764D2*
X15736D1*
X16764D2*
X27944D1*
X29056D2*
X32944D1*
X39330D2*
X54108D1*
X1601Y15621D2*
X13705D1*
X14795D2*
X15705D1*
X16795D2*
X27914D1*
X29086D2*
X32914D1*
X39330D2*
X54108D1*
X1601Y15522D2*
X13691D1*
X14809D2*
X15691D1*
X16809D2*
X27902D1*
X29098D2*
X32902D1*
X39330D2*
X54108D1*
X1601Y15423D2*
X13695D1*
X14805D2*
X15695D1*
X16805D2*
X27906D1*
X29094D2*
X32906D1*
X39330D2*
X47077D1*
X47548D2*
X51205D1*
X51420D2*
X54108D1*
X1601Y15325D2*
X13719D1*
X14781D2*
X15719D1*
X16781D2*
X27928D1*
X29072D2*
X32928D1*
X39330D2*
X46986D1*
X47639D2*
X51036D1*
X51589D2*
X54108D1*
X1601Y15226D2*
X13764D1*
X14736D2*
X15764D1*
X16736D2*
X27969D1*
X29031D2*
X32969D1*
X39330D2*
X46942D1*
X47683D2*
X50966D1*
X51659D2*
X54108D1*
X1601Y15127D2*
X13836D1*
X14664D2*
X15836D1*
X16664D2*
X28035D1*
X28965D2*
X33035D1*
X39330D2*
X46928D1*
X47697D2*
X50935D1*
X51690D2*
X54108D1*
X1601Y15029D2*
X13958D1*
X14542D2*
X15958D1*
X16542D2*
X25092D1*
X25408D2*
X26231D1*
X26769D2*
X28138D1*
X28862D2*
X33138D1*
X39330D2*
X46941D1*
X47684D2*
X50930D1*
X51695D2*
X54108D1*
X1601Y14930D2*
X24899D1*
X25601D2*
X26088D1*
X26912D2*
X28088D1*
X28912D2*
X33088D1*
X39330D2*
X46983D1*
X47642D2*
X50953D1*
X51672D2*
X54108D1*
X1601Y14831D2*
X24802D1*
X26997D2*
X28003D1*
X28997D2*
X33003D1*
X39330D2*
X46983D1*
X47642D2*
X50983D1*
X51642D2*
X54108D1*
X1601Y14733D2*
X24742D1*
X27050D2*
X27950D1*
X29050D2*
X32950D1*
X39330D2*
X46983D1*
X47642D2*
X50983D1*
X51642D2*
X54108D1*
X1601Y14634D2*
X24708D1*
X27083D2*
X27917D1*
X29083D2*
X32917D1*
X39330D2*
X46983D1*
X47642D2*
X50983D1*
X51642D2*
X54108D1*
X1601Y14535D2*
X24692D1*
X27097D2*
X27903D1*
X29097D2*
X32903D1*
X39330D2*
X40745D1*
X41255D2*
X41745D1*
X42255D2*
X46983D1*
X47642D2*
X50983D1*
X51642D2*
X54108D1*
X1601Y14437D2*
X24694D1*
X27095D2*
X27905D1*
X29095D2*
X32905D1*
X39330D2*
X40595D1*
X41405D2*
X41595D1*
X42405D2*
X46983D1*
X47642D2*
X50983D1*
X51642D2*
X54108D1*
X1601Y14338D2*
X24716D1*
X27076D2*
X27924D1*
X29076D2*
X32924D1*
X39330D2*
X40508D1*
X42492D2*
X46983D1*
X47642D2*
X50983D1*
X51642D2*
X54108D1*
X1601Y14239D2*
X24756D1*
X27037D2*
X27963D1*
X29037D2*
X32530D1*
X39330D2*
X40452D1*
X42548D2*
X46983D1*
X47642D2*
X50983D1*
X51642D2*
X54108D1*
X1601Y14141D2*
X12388D1*
X12612D2*
X24825D1*
X26976D2*
X28024D1*
X28976D2*
X32430D1*
X39330D2*
X40419D1*
X42581D2*
X46983D1*
X47642D2*
X50983D1*
X51642D2*
X54108D1*
X1601Y14042D2*
X12211D1*
X12789D2*
X24938D1*
X26880D2*
X28120D1*
X28880D2*
X32256D1*
X39330D2*
X40403D1*
X42597D2*
X46983D1*
X47642D2*
X50983D1*
X51642D2*
X54108D1*
X1601Y13943D2*
X12136D1*
X12864D2*
X24916D1*
X26897D2*
X28103D1*
X28897D2*
X32170D1*
X39330D2*
X40405D1*
X42595D2*
X46983D1*
X47642D2*
X50983D1*
X51642D2*
X54108D1*
X1601Y13844D2*
X12097D1*
X12903D2*
X24813D1*
X26987D2*
X28013D1*
X28987D2*
X32128D1*
X39330D2*
X40422D1*
X42578D2*
X46983D1*
X47642D2*
X50983D1*
X51642D2*
X54108D1*
X1601Y13746D2*
X12086D1*
X12914D2*
X24749D1*
X27045D2*
X27955D1*
X29045D2*
X32116D1*
X44587D2*
X46983D1*
X47642D2*
X50983D1*
X51642D2*
X54108D1*
X1601Y13647D2*
X12086D1*
X12914D2*
X24711D1*
X27080D2*
X27920D1*
X29080D2*
X32130D1*
X44689D2*
X46983D1*
X47642D2*
X50983D1*
X51642D2*
X54108D1*
X1601Y13548D2*
X12086D1*
X12914D2*
X24692D1*
X27097D2*
X27903D1*
X29097D2*
X32175D1*
X32825D2*
X32903D1*
X44787D2*
X46983D1*
X47642D2*
X50983D1*
X51642D2*
X54108D1*
X1601Y13450D2*
X12086D1*
X12914D2*
X24694D1*
X27097D2*
X27903D1*
X29097D2*
X32267D1*
X32733D2*
X32903D1*
X44886D2*
X46983D1*
X47642D2*
X50983D1*
X51642D2*
X54108D1*
X1601Y13351D2*
X12086D1*
X12914D2*
X24711D1*
X27080D2*
X27920D1*
X29080D2*
X32920D1*
X44984D2*
X46983D1*
X47642D2*
X50983D1*
X51642D2*
X54108D1*
X1601Y13252D2*
X12086D1*
X12914D2*
X24750D1*
X27044D2*
X27956D1*
X29044D2*
X32545D1*
X45084D2*
X46983D1*
X47642D2*
X50983D1*
X51642D2*
X54108D1*
X1601Y13154D2*
X12086D1*
X12914D2*
X24814D1*
X26986D2*
X28014D1*
X28986D2*
X32442D1*
X36364D2*
X36420D1*
X45183D2*
X46983D1*
X47642D2*
X50983D1*
X51642D2*
X54108D1*
X1601Y13055D2*
X12086D1*
X12914D2*
X24919D1*
X26895D2*
X28105D1*
X28895D2*
X32274D1*
X36265D2*
X36403D1*
X45281D2*
X46983D1*
X47642D2*
X50983D1*
X51642D2*
X54108D1*
X1601Y12956D2*
X12086D1*
X12914D2*
X24935D1*
X26881D2*
X28119D1*
X28881D2*
X32178D1*
X36167D2*
X36403D1*
X45380D2*
X46983D1*
X47642D2*
X50983D1*
X51642D2*
X54108D1*
X1601Y12858D2*
X12086D1*
X12914D2*
X24824D1*
X26978D2*
X28022D1*
X28978D2*
X32131D1*
X36080D2*
X36419D1*
X45478D2*
X46983D1*
X47642D2*
X50983D1*
X51642D2*
X54108D1*
X1601Y12759D2*
X12086D1*
X12914D2*
X24756D1*
X27039D2*
X27961D1*
X29039D2*
X32116D1*
X36080D2*
X36453D1*
X45576D2*
X46983D1*
X47642D2*
X50983D1*
X51642D2*
X54108D1*
X1601Y12660D2*
X12086D1*
X12914D2*
X24714D1*
X27076D2*
X27924D1*
X29076D2*
X32127D1*
X36080D2*
X36510D1*
X45676D2*
X46983D1*
X47642D2*
X50983D1*
X51642D2*
X54108D1*
X1601Y12562D2*
X12086D1*
X12914D2*
X24694D1*
X27095D2*
X27905D1*
X29095D2*
X32167D1*
X32833D2*
X32905D1*
X36080D2*
X36597D1*
X45775D2*
X46983D1*
X47642D2*
X50983D1*
X51642D2*
X54108D1*
X1601Y12463D2*
X12086D1*
X12914D2*
X24692D1*
X27097D2*
X27903D1*
X29097D2*
X32250D1*
X32750D2*
X32903D1*
X36080D2*
X36627D1*
X45873D2*
X46983D1*
X47642D2*
X50983D1*
X51642D2*
X54108D1*
X1601Y12364D2*
X12086D1*
X12914D2*
X24708D1*
X27083D2*
X27917D1*
X29083D2*
X32917D1*
X36080D2*
X36528D1*
X45972D2*
X46983D1*
X47642D2*
X50983D1*
X51642D2*
X54108D1*
X1601Y12265D2*
X12086D1*
X12914D2*
X24744D1*
X27050D2*
X27950D1*
X29050D2*
X32564D1*
X36080D2*
X36464D1*
X46047D2*
X46983D1*
X47642D2*
X50983D1*
X51642D2*
X54108D1*
X1601Y12167D2*
X12086D1*
X12914D2*
X24803D1*
X26995D2*
X28005D1*
X28995D2*
X32456D1*
X36080D2*
X36425D1*
X38575D2*
X40425D1*
X42575D2*
X44685D1*
X46076D2*
X46983D1*
X47642D2*
X50983D1*
X51642D2*
X54108D1*
X1601Y12068D2*
X12086D1*
X12914D2*
X24900D1*
X27098D2*
X28091D1*
X28909D2*
X32294D1*
X36080D2*
X36405D1*
X38595D2*
X40405D1*
X42595D2*
X44783D1*
X46080D2*
X46983D1*
X47642D2*
X50983D1*
X51642D2*
X54108D1*
X1601Y11969D2*
X12086D1*
X12914D2*
X24955D1*
X27098D2*
X28135D1*
X28865D2*
X32188D1*
X36080D2*
X36402D1*
X38598D2*
X40402D1*
X42598D2*
X44881D1*
X46080D2*
X46983D1*
X47642D2*
X50983D1*
X51642D2*
X54108D1*
X1601Y11871D2*
X12086D1*
X12914D2*
X24835D1*
X27098D2*
X28033D1*
X28967D2*
X32136D1*
X36080D2*
X36416D1*
X38584D2*
X40416D1*
X42584D2*
X44952D1*
X46080D2*
X46983D1*
X47642D2*
X50983D1*
X51642D2*
X54108D1*
X1601Y11772D2*
X12086D1*
X12914D2*
X24763D1*
X27098D2*
X27969D1*
X29031D2*
X32117D1*
X36080D2*
X36447D1*
X38553D2*
X40447D1*
X42553D2*
X45006D1*
X46080D2*
X46983D1*
X47642D2*
X50983D1*
X51642D2*
X54108D1*
X1601Y11673D2*
X12086D1*
X12914D2*
X21392D1*
X21608D2*
X24719D1*
X27098D2*
X27928D1*
X29072D2*
X32124D1*
X36070D2*
X36500D1*
X38500D2*
X40500D1*
X42500D2*
X45120D1*
X46080D2*
X46983D1*
X47642D2*
X50983D1*
X51642D2*
X54108D1*
X1601Y11575D2*
X12086D1*
X12914D2*
X21224D1*
X21776D2*
X24695D1*
X27098D2*
X27906D1*
X29094D2*
X32160D1*
X32840D2*
X32906D1*
X36026D2*
X36583D1*
X38417D2*
X40583D1*
X42417D2*
X45420D1*
X46080D2*
X46983D1*
X47642D2*
X50983D1*
X51642D2*
X54108D1*
X1601Y11476D2*
X12086D1*
X12914D2*
X21153D1*
X21847D2*
X24691D1*
X27098D2*
X27902D1*
X29098D2*
X32236D1*
X32764D2*
X32902D1*
X35937D2*
X36644D1*
X38356D2*
X40644D1*
X42356D2*
X45420D1*
X46080D2*
X46983D1*
X47642D2*
X50983D1*
X51642D2*
X54108D1*
X1601Y11377D2*
X12086D1*
X12914D2*
X21122D1*
X21878D2*
X24705D1*
X27098D2*
X27914D1*
X29086D2*
X32460D1*
X32541D2*
X32914D1*
X35839D2*
X36538D1*
X38462D2*
X40538D1*
X42462D2*
X45388D1*
X46112D2*
X46983D1*
X47642D2*
X50983D1*
X51642D2*
X54108D1*
X1601Y11279D2*
X12086D1*
X12914D2*
X21117D1*
X21883D2*
X24738D1*
X27098D2*
X27945D1*
X29055D2*
X32945D1*
X35739D2*
X36472D1*
X38528D2*
X40472D1*
X42528D2*
X45367D1*
X46133D2*
X46983D1*
X47642D2*
X50983D1*
X51642D2*
X54108D1*
X1601Y11180D2*
X12086D1*
X12914D2*
X21141D1*
X21859D2*
X24794D1*
X27098D2*
X27995D1*
X29005D2*
X32995D1*
X35640D2*
X36430D1*
X38570D2*
X40430D1*
X42570D2*
X45372D1*
X46128D2*
X46983D1*
X47642D2*
X50975D1*
X51650D2*
X54108D1*
X1601Y11081D2*
X12086D1*
X12914D2*
X21170D1*
X21830D2*
X24885D1*
X25615D2*
X25902D1*
X27098D2*
X28077D1*
X28923D2*
X33077D1*
X35542D2*
X36406D1*
X38594D2*
X40406D1*
X42594D2*
X45406D1*
X46094D2*
X46983D1*
X47642D2*
X50938D1*
X51687D2*
X54108D1*
X1601Y10983D2*
X12086D1*
X12914D2*
X21170D1*
X21830D2*
X25056D1*
X25444D2*
X25902D1*
X27098D2*
X28153D1*
X28847D2*
X33153D1*
X35444D2*
X36402D1*
X38598D2*
X40402D1*
X42598D2*
X45478D1*
X46022D2*
X46983D1*
X47642D2*
X50928D1*
X51697D2*
X54108D1*
X1601Y10884D2*
X12086D1*
X12914D2*
X21170D1*
X21830D2*
X28044D1*
X28956D2*
X33044D1*
X35345D2*
X36413D1*
X38587D2*
X40413D1*
X42587D2*
X45664D1*
X45836D2*
X46953D1*
X47672D2*
X50947D1*
X51678D2*
X54108D1*
X1601Y10785D2*
X12086D1*
X12914D2*
X21170D1*
X21830D2*
X27975D1*
X29025D2*
X32975D1*
X35247D2*
X36442D1*
X38558D2*
X40442D1*
X42558D2*
X46930D1*
X47695D2*
X50997D1*
X51628D2*
X54108D1*
X1601Y10686D2*
X12086D1*
X12914D2*
X21170D1*
X21830D2*
X27931D1*
X29069D2*
X32931D1*
X35147D2*
X36492D1*
X38508D2*
X40492D1*
X42508D2*
X46935D1*
X47690D2*
X51099D1*
X51526D2*
X54108D1*
X1601Y10588D2*
X12086D1*
X12914D2*
X21170D1*
X21830D2*
X27908D1*
X29092D2*
X32908D1*
X35048D2*
X36570D1*
X38430D2*
X40570D1*
X42598D2*
X46966D1*
X47659D2*
X54108D1*
X1601Y10489D2*
X12086D1*
X12914D2*
X21170D1*
X21830D2*
X27902D1*
X29098D2*
X32902D1*
X34950D2*
X36663D1*
X38337D2*
X40663D1*
X42598D2*
X47035D1*
X47590D2*
X54108D1*
X1601Y10390D2*
X12086D1*
X12914D2*
X21170D1*
X21830D2*
X27911D1*
X29089D2*
X32911D1*
X34851D2*
X36550D1*
X38450D2*
X40550D1*
X42598D2*
X47200D1*
X47425D2*
X54108D1*
X1601Y10292D2*
X12086D1*
X13623D2*
X21170D1*
X21830D2*
X27939D1*
X29061D2*
X32939D1*
X34753D2*
X36478D1*
X38522D2*
X40478D1*
X42598D2*
X54108D1*
X1601Y10193D2*
X12086D1*
X13761D2*
X21170D1*
X21830D2*
X27988D1*
X29012D2*
X32988D1*
X34655D2*
X36435D1*
X38565D2*
X40435D1*
X42598D2*
X54108D1*
X1601Y10094D2*
X1788D1*
X2212D2*
X4038D1*
X4462D2*
X12086D1*
X13859D2*
X21170D1*
X21830D2*
X28064D1*
X28936D2*
X33064D1*
X34555D2*
X36410D1*
X38590D2*
X40410D1*
X42598D2*
X54108D1*
X2395Y9996D2*
X3855D1*
X4645D2*
X12086D1*
X13958D2*
X21170D1*
X21830D2*
X27902D1*
X29098D2*
X32902D1*
X34456D2*
X36402D1*
X38598D2*
X40402D1*
X42598D2*
X54108D1*
X2497Y9897D2*
X3753D1*
X4747D2*
X12086D1*
X14037D2*
X21170D1*
X21830D2*
X27902D1*
X29098D2*
X32902D1*
X34358D2*
X36411D1*
X38589D2*
X40411D1*
X42598D2*
X54108D1*
X2562Y9798D2*
X3688D1*
X4812D2*
X12086D1*
X14070D2*
X21170D1*
X21830D2*
X27902D1*
X29098D2*
X32902D1*
X34259D2*
X36438D1*
X38562D2*
X40438D1*
X42598D2*
X54108D1*
X2605Y9700D2*
X3645D1*
X4855D2*
X12086D1*
X14073D2*
X21170D1*
X21830D2*
X27902D1*
X29098D2*
X32902D1*
X34161D2*
X36485D1*
X38515D2*
X40485D1*
X42598D2*
X54108D1*
X2630Y9601D2*
X3620D1*
X4880D2*
X12086D1*
X14073D2*
X21170D1*
X21830D2*
X27902D1*
X29098D2*
X32902D1*
X34098D2*
X36558D1*
X38442D2*
X40558D1*
X42598D2*
X54108D1*
X2637Y9502D2*
X3613D1*
X4887D2*
X12086D1*
X14073D2*
X21170D1*
X21830D2*
X27902D1*
X29098D2*
X32902D1*
X34098D2*
X36677D1*
X38323D2*
X40677D1*
X41323D2*
X41402D1*
X42598D2*
X54108D1*
X2631Y9404D2*
X3619D1*
X4881D2*
X12086D1*
X14073D2*
X21170D1*
X21830D2*
X27902D1*
X29098D2*
X32902D1*
X34098D2*
X36561D1*
X38439D2*
X54108D1*
X2606Y9305D2*
X3644D1*
X4856D2*
X12086D1*
X14073D2*
X17274D1*
X20584D2*
X21170D1*
X21830D2*
X27902D1*
X29098D2*
X32902D1*
X34098D2*
X36486D1*
X38514D2*
X54108D1*
X2565Y9206D2*
X3685D1*
X4815D2*
X12086D1*
X14073D2*
X17178D1*
X20747D2*
X21170D1*
X21830D2*
X27902D1*
X29098D2*
X32902D1*
X34098D2*
X36439D1*
X38561D2*
X54108D1*
X2500Y9107D2*
X3750D1*
X4750D2*
X12086D1*
X14073D2*
X17131D1*
X20805D2*
X21170D1*
X21830D2*
X27902D1*
X29098D2*
X32902D1*
X34098D2*
X36411D1*
X38589D2*
X54108D1*
X2401Y9009D2*
X2783D1*
X3217D2*
X3849D1*
X4651D2*
X5033D1*
X5467D2*
X12086D1*
X14073D2*
X17116D1*
X20823D2*
X21170D1*
X21830D2*
X27902D1*
X29098D2*
X32902D1*
X34098D2*
X36402D1*
X38598D2*
X54108D1*
X2486Y8910D2*
X2625D1*
X3375D2*
X3764D1*
X4736D2*
X4875D1*
X5625D2*
X12086D1*
X14073D2*
X17127D1*
X20823D2*
X21170D1*
X21830D2*
X36408D1*
X38592D2*
X54108D1*
X3462Y8811D2*
X3695D1*
X5712D2*
X12086D1*
X14142D2*
X17167D1*
X20823D2*
X21170D1*
X21830D2*
X36433D1*
X38567D2*
X54108D1*
X3517Y8713D2*
X3649D1*
X5767D2*
X12086D1*
X14240D2*
X17250D1*
X20823D2*
X21170D1*
X21830D2*
X36477D1*
X38523D2*
X54108D1*
X3547Y8614D2*
X3622D1*
X5797D2*
X12086D1*
X14340D2*
X20177D1*
X20823D2*
X21170D1*
X21830D2*
X36545D1*
X38455D2*
X54108D1*
X3559Y8515D2*
X3613D1*
X5809D2*
X12086D1*
X14439D2*
X20177D1*
X20823D2*
X21170D1*
X21830D2*
X36656D1*
X38344D2*
X54108D1*
X3553Y8417D2*
X3617D1*
X5803D2*
X12086D1*
X13564D2*
X13629D1*
X14537D2*
X20177D1*
X20823D2*
X21170D1*
X21830D2*
X36575D1*
X38425D2*
X54108D1*
X3528Y8318D2*
X3639D1*
X5778D2*
X12086D1*
X13564D2*
X13728D1*
X14636D2*
X20177D1*
X20823D2*
X21170D1*
X21830D2*
X36495D1*
X38505D2*
X54108D1*
X3483Y8219D2*
X3678D1*
X5733D2*
X12086D1*
X13564D2*
X13827D1*
X14734D2*
X15766D1*
X17234D2*
X20177D1*
X20823D2*
X21170D1*
X21830D2*
X36444D1*
X38556D2*
X54108D1*
X3408Y8121D2*
X3613D1*
X5658D2*
X7691D1*
X7808D2*
X12086D1*
X13564D2*
X13925D1*
X14833D2*
X15700D1*
X17333D2*
X20177D1*
X20823D2*
X21170D1*
X21830D2*
X36414D1*
X38586D2*
X54108D1*
X2637Y8022D2*
X2720D1*
X3280D2*
X3613D1*
X4887D2*
X4970D1*
X5530D2*
X6833D1*
X8017D2*
X12086D1*
X13564D2*
X14024D1*
X14933D2*
X15677D1*
X17433D2*
X20177D1*
X20823D2*
X21170D1*
X21830D2*
X36402D1*
X38598D2*
X54108D1*
X2637Y7923D2*
X3613D1*
X4887D2*
X6728D1*
X8092D2*
X12086D1*
X13564D2*
X14124D1*
X15031D2*
X15677D1*
X17531D2*
X20177D1*
X20823D2*
X21170D1*
X21830D2*
X36406D1*
X38594D2*
X54108D1*
X2637Y7825D2*
X3613D1*
X4887D2*
X6685D1*
X8126D2*
X12086D1*
X13564D2*
X14222D1*
X15195D2*
X15677D1*
X17630D2*
X20177D1*
X20823D2*
X21170D1*
X21830D2*
X36428D1*
X38572D2*
X54108D1*
X2637Y7726D2*
X3613D1*
X4887D2*
X6677D1*
X8133D2*
X12086D1*
X13564D2*
X14320D1*
X15308D2*
X15677D1*
X17728D2*
X20177D1*
X20823D2*
X21170D1*
X21830D2*
X36469D1*
X38531D2*
X54108D1*
X2637Y7627D2*
X3613D1*
X4887D2*
X6677D1*
X8114D2*
X12075D1*
X13564D2*
X14419D1*
X15362D2*
X15677D1*
X16862D2*
X16920D1*
X17826D2*
X20177D1*
X20823D2*
X21170D1*
X21830D2*
X36535D1*
X38465D2*
X54108D1*
X2637Y7528D2*
X3613D1*
X4887D2*
X6677D1*
X8061D2*
X12056D1*
X13564D2*
X14517D1*
X15383D2*
X15677D1*
X16883D2*
X17017D1*
X17925D2*
X20177D1*
X20823D2*
X21170D1*
X21830D2*
X36638D1*
X38362D2*
X40731D1*
X41269D2*
X41731D1*
X42269D2*
X47991D1*
X50509D2*
X54108D1*
X2637Y7430D2*
X3613D1*
X4887D2*
X6677D1*
X7323D2*
X7547D1*
X7953D2*
X12061D1*
X13564D2*
X14616D1*
X15378D2*
X15677D1*
X16878D2*
X17116D1*
X18025D2*
X20177D1*
X20823D2*
X21163D1*
X21837D2*
X36588D1*
X38412D2*
X40588D1*
X41412D2*
X41588D1*
X42412D2*
X47913D1*
X50587D2*
X54108D1*
X2637Y7331D2*
X3613D1*
X4887D2*
X6677D1*
X7323D2*
X12092D1*
X12861D2*
X12935D1*
X13564D2*
X14656D1*
X15344D2*
X15677D1*
X16844D2*
X17216D1*
X18123D2*
X20177D1*
X20823D2*
X21125D1*
X21875D2*
X36503D1*
X38497D2*
X40503D1*
X42497D2*
X47875D1*
X50625D2*
X54108D1*
X2637Y7232D2*
X3613D1*
X4887D2*
X6677D1*
X7323D2*
X12155D1*
X12783D2*
X12936D1*
X13564D2*
X14728D1*
X15272D2*
X15677D1*
X16823D2*
X17314D1*
X18222D2*
X20177D1*
X20823D2*
X21116D1*
X21884D2*
X36449D1*
X38551D2*
X40449D1*
X42551D2*
X47866D1*
X50634D2*
X54108D1*
X2637Y7134D2*
X3613D1*
X4887D2*
X6677D1*
X7323D2*
X12155D1*
X12783D2*
X12936D1*
X13564D2*
X14914D1*
X15086D2*
X15677D1*
X16823D2*
X17413D1*
X18320D2*
X20177D1*
X20823D2*
X21135D1*
X21865D2*
X36417D1*
X38583D2*
X40417D1*
X42583D2*
X47885D1*
X50615D2*
X54108D1*
X2637Y7035D2*
X3613D1*
X4887D2*
X6677D1*
X7508D2*
X12155D1*
X12783D2*
X12936D1*
X13564D2*
X15677D1*
X16823D2*
X17511D1*
X18419D2*
X20177D1*
X20823D2*
X21177D1*
X21823D2*
X36403D1*
X38597D2*
X40403D1*
X42597D2*
X47152D1*
X51005D2*
X54108D1*
X2637Y6936D2*
X3613D1*
X4887D2*
X6677D1*
X7590D2*
X12155D1*
X12783D2*
X12936D1*
X13564D2*
X15677D1*
X16823D2*
X17610D1*
X18517D2*
X20177D1*
X20823D2*
X21177D1*
X21823D2*
X36405D1*
X38595D2*
X40405D1*
X42595D2*
X47152D1*
X51155D2*
X54108D1*
X1601Y6838D2*
X6677D1*
X7630D2*
X12155D1*
X12783D2*
X12936D1*
X13564D2*
X15677D1*
X16823D2*
X17708D1*
X18615D2*
X20177D1*
X20823D2*
X21177D1*
X21823D2*
X36424D1*
X38576D2*
X40424D1*
X42576D2*
X47152D1*
X51242D2*
X54108D1*
X1601Y6739D2*
X6677D1*
X7640D2*
X12155D1*
X12783D2*
X12936D1*
X13564D2*
X15677D1*
X16823D2*
X17806D1*
X18715D2*
X20177D1*
X20823D2*
X21177D1*
X21823D2*
X36463D1*
X44222D2*
X47152D1*
X51298D2*
X54108D1*
X1601Y6640D2*
X6677D1*
X7623D2*
X12155D1*
X12783D2*
X12936D1*
X13564D2*
X15677D1*
X16823D2*
X17906D1*
X18814D2*
X20177D1*
X20823D2*
X21177D1*
X21823D2*
X36524D1*
X44320D2*
X47152D1*
X51331D2*
X54108D1*
X1601Y6542D2*
X6677D1*
X7576D2*
X12155D1*
X12783D2*
X12936D1*
X13564D2*
X15677D1*
X16823D2*
X18005D1*
X18912D2*
X20177D1*
X20823D2*
X21177D1*
X21823D2*
X36620D1*
X44740D2*
X47152D1*
X51347D2*
X54108D1*
X1601Y6443D2*
X6677D1*
X7570D2*
X12155D1*
X12783D2*
X12936D1*
X13564D2*
X15677D1*
X16823D2*
X18103D1*
X19008D2*
X20177D1*
X20823D2*
X21177D1*
X21823D2*
X36602D1*
X44898D2*
X47152D1*
X51345D2*
X54108D1*
X1601Y6344D2*
X6677D1*
X7570D2*
X12155D1*
X12783D2*
X12936D1*
X13564D2*
X15677D1*
X16823D2*
X18202D1*
X19059D2*
X20177D1*
X20823D2*
X21177D1*
X21823D2*
X36513D1*
X44987D2*
X47152D1*
X51328D2*
X54108D1*
X1601Y6246D2*
X6677D1*
X7570D2*
X12155D1*
X12783D2*
X12936D1*
X13564D2*
X15677D1*
X16823D2*
X18300D1*
X19073D2*
X20177D1*
X20823D2*
X21177D1*
X21823D2*
X36455D1*
X45045D2*
X47152D1*
X51290D2*
X54108D1*
X1601Y6147D2*
X6677D1*
X7570D2*
X12155D1*
X12783D2*
X12936D1*
X13564D2*
X15677D1*
X16823D2*
X18399D1*
X19073D2*
X20177D1*
X20823D2*
X21177D1*
X21823D2*
X36420D1*
X45080D2*
X47152D1*
X51231D2*
X54108D1*
X1601Y6048D2*
X6677D1*
X7570D2*
X12155D1*
X12783D2*
X12936D1*
X13564D2*
X15677D1*
X16823D2*
X18427D1*
X19073D2*
X20177D1*
X20823D2*
X21177D1*
X23986D2*
X36403D1*
X45097D2*
X47152D1*
X51137D2*
X54108D1*
X1631Y5949D2*
X6677D1*
X7570D2*
X12155D1*
X12783D2*
X12936D1*
X13564D2*
X15677D1*
X16823D2*
X18427D1*
X19073D2*
X20177D1*
X20823D2*
X21177D1*
X24076D2*
X36403D1*
X45097D2*
X47152D1*
X48348D2*
X48420D1*
X51080D2*
X54108D1*
X1731Y5851D2*
X6677D1*
X7570D2*
X12155D1*
X12783D2*
X12936D1*
X13564D2*
X15677D1*
X16823D2*
X18427D1*
X19073D2*
X20177D1*
X20823D2*
X21177D1*
X24120D2*
X36420D1*
X45080D2*
X48317D1*
X51183D2*
X54108D1*
X1830Y5752D2*
X6677D1*
X7570D2*
X12155D1*
X12783D2*
X12936D1*
X13564D2*
X15677D1*
X16823D2*
X18427D1*
X19073D2*
X20177D1*
X20823D2*
X21177D1*
X24134D2*
X36456D1*
X45044D2*
X48252D1*
X51248D2*
X54108D1*
X1928Y5653D2*
X6677D1*
X7570D2*
X12155D1*
X12783D2*
X12936D1*
X13564D2*
X15677D1*
X16823D2*
X18427D1*
X19073D2*
X20177D1*
X20823D2*
X21177D1*
X24122D2*
X36514D1*
X44986D2*
X48213D1*
X51287D2*
X54108D1*
X2026Y5555D2*
X6677D1*
X7570D2*
X12155D1*
X12783D2*
X12936D1*
X13564D2*
X15677D1*
X16823D2*
X18427D1*
X19073D2*
X20177D1*
X20823D2*
X21177D1*
X24080D2*
X36605D1*
X44895D2*
X48194D1*
X51306D2*
X54108D1*
X4164Y5456D2*
X6677D1*
X7570D2*
X12155D1*
X12783D2*
X12936D1*
X13564D2*
X15677D1*
X16823D2*
X18427D1*
X19073D2*
X20177D1*
X20823D2*
X21177D1*
X23990D2*
X36617D1*
X44883D2*
X48192D1*
X51308D2*
X54108D1*
X4348Y5357D2*
X6677D1*
X7570D2*
X12155D1*
X12783D2*
X12936D1*
X13564D2*
X15677D1*
X16823D2*
X18381D1*
X19119D2*
X20177D1*
X20823D2*
X21177D1*
X21823D2*
X36522D1*
X44978D2*
X48210D1*
X51290D2*
X54108D1*
X4425Y5259D2*
X6677D1*
X12783D2*
X12936D1*
X13564D2*
X15677D1*
X16823D2*
X18366D1*
X19134D2*
X20177D1*
X20823D2*
X21177D1*
X21823D2*
X36461D1*
X45039D2*
X48247D1*
X51253D2*
X54108D1*
X4464Y5160D2*
X6677D1*
X12776D2*
X12936D1*
X13564D2*
X15677D1*
X16823D2*
X18377D1*
X19123D2*
X20177D1*
X20823D2*
X21177D1*
X21823D2*
X36424D1*
X45076D2*
X48310D1*
X49190D2*
X49310D1*
X50190D2*
X50310D1*
X51190D2*
X54108D1*
X4476Y5061D2*
X6677D1*
X12739D2*
X12889D1*
X13564D2*
X15677D1*
X16823D2*
X18417D1*
X19083D2*
X20177D1*
X20823D2*
X21177D1*
X21823D2*
X25913D1*
X26119D2*
X26420D1*
X27580D2*
X29413D1*
X29619D2*
X29920D1*
X31080D2*
X32152D1*
X33348D2*
X33563D1*
X33937D2*
X36405D1*
X45095D2*
X48410D1*
X49090D2*
X49410D1*
X50090D2*
X50410D1*
X51090D2*
X54108D1*
X4476Y4963D2*
X6677D1*
X12653D2*
X12791D1*
X13564D2*
X15677D1*
X16823D2*
X18500D1*
X19000D2*
X20177D1*
X20823D2*
X21177D1*
X21823D2*
X25675D1*
X26356D2*
X26420D1*
X27580D2*
X29175D1*
X29856D2*
X29920D1*
X31080D2*
X32152D1*
X34123D2*
X36403D1*
X45097D2*
X48627D1*
X48873D2*
X49627D1*
X49873D2*
X50627D1*
X50873D2*
X54108D1*
X4476Y4864D2*
X6677D1*
X12553D2*
X12692D1*
X13540D2*
X15677D1*
X16823D2*
X20177D1*
X20823D2*
X21177D1*
X21823D2*
X25569D1*
X27580D2*
X29069D1*
X31080D2*
X32152D1*
X34223D2*
X36417D1*
X38583D2*
X38675D1*
X45083D2*
X54108D1*
X4476Y4765D2*
X6677D1*
X13473D2*
X15677D1*
X16823D2*
X20177D1*
X20823D2*
X21177D1*
X21823D2*
X25503D1*
X27580D2*
X29003D1*
X31080D2*
X32152D1*
X34286D2*
X36450D1*
X38550D2*
X38774D1*
X45050D2*
X54108D1*
X4476Y4667D2*
X6677D1*
X7323D2*
X12419D1*
X13373D2*
X15677D1*
X16823D2*
X20177D1*
X20823D2*
X21177D1*
X21823D2*
X25461D1*
X27580D2*
X28961D1*
X31080D2*
X32152D1*
X34325D2*
X36505D1*
X38495D2*
X38872D1*
X44995D2*
X54108D1*
X4476Y4568D2*
X6677D1*
X7386D2*
X12383D1*
X13275D2*
X15677D1*
X16823D2*
X20042D1*
X20823D2*
X21177D1*
X21823D2*
X25441D1*
X27580D2*
X28941D1*
X31080D2*
X32152D1*
X34345D2*
X36591D1*
X38409D2*
X38970D1*
X44909D2*
X54108D1*
X4476Y4469D2*
X6678D1*
X7484D2*
X12377D1*
X13176D2*
X15677D1*
X16823D2*
X19938D1*
X20823D2*
X21177D1*
X21823D2*
X25438D1*
X27580D2*
X28938D1*
X31080D2*
X32152D1*
X34348D2*
X36635D1*
X38365D2*
X39070D1*
X44865D2*
X54108D1*
X4476Y4370D2*
X6705D1*
X7583D2*
X11520D1*
X11642D2*
X12395D1*
X13123D2*
X15677D1*
X16833D2*
X19886D1*
X20823D2*
X21177D1*
X21823D2*
X25452D1*
X27580D2*
X28952D1*
X31080D2*
X32152D1*
X34334D2*
X36533D1*
X38467D2*
X39169D1*
X44967D2*
X54108D1*
X4476Y4272D2*
X6774D1*
X7683D2*
X11314D1*
X11917D2*
X12447D1*
X13072D2*
X15677D1*
X16933D2*
X19867D1*
X20823D2*
X21177D1*
X21823D2*
X25485D1*
X27580D2*
X28985D1*
X31080D2*
X32152D1*
X34303D2*
X36467D1*
X38533D2*
X39267D1*
X45033D2*
X54108D1*
X4476Y4173D2*
X6874D1*
X7781D2*
X11239D1*
X12031D2*
X12555D1*
X12965D2*
X15677D1*
X17031D2*
X19874D1*
X20814D2*
X21177D1*
X21823D2*
X25541D1*
X27580D2*
X29041D1*
X31080D2*
X32152D1*
X34250D2*
X36428D1*
X38572D2*
X40428D1*
X45072D2*
X54108D1*
X4476Y4074D2*
X6972D1*
X7880D2*
X11205D1*
X12130D2*
X15677D1*
X17130D2*
X19910D1*
X20770D2*
X21177D1*
X21823D2*
X25628D1*
X27580D2*
X29128D1*
X31080D2*
X32152D1*
X34167D2*
X36406D1*
X38594D2*
X40406D1*
X45094D2*
X54108D1*
X4476Y3976D2*
X7070D1*
X7978D2*
X11197D1*
X12228D2*
X15677D1*
X17228D2*
X19986D1*
X20662D2*
X21177D1*
X21823D2*
X25785D1*
X26247D2*
X26420D1*
X27580D2*
X29170D1*
X31080D2*
X32152D1*
X33348D2*
X33472D1*
X34028D2*
X36402D1*
X38598D2*
X40402D1*
X45098D2*
X54108D1*
X4476Y3877D2*
X7169D1*
X8076D2*
X11217D1*
X12326D2*
X15677D1*
X16323D2*
X16419D1*
X17326D2*
X20213D1*
X20287D2*
X21177D1*
X21823D2*
X29091D1*
X30909D2*
X32341D1*
X33159D2*
X36414D1*
X38586D2*
X40414D1*
X43837D2*
X43914D1*
X45086D2*
X54108D1*
X4464Y3778D2*
X7267D1*
X8175D2*
X11269D1*
X14009D2*
X15677D1*
X16323D2*
X16517D1*
X21823D2*
X29017D1*
X30983D2*
X32267D1*
X33233D2*
X36445D1*
X38555D2*
X40445D1*
X43739D2*
X43945D1*
X45055D2*
X54108D1*
X4426Y3680D2*
X7366D1*
X8275D2*
X11378D1*
X14087D2*
X15677D1*
X16323D2*
X16616D1*
X21823D2*
X28970D1*
X31030D2*
X32220D1*
X33280D2*
X36497D1*
X38503D2*
X40497D1*
X43640D2*
X43997D1*
X45003D2*
X54108D1*
X4350Y3581D2*
X7466D1*
X8373D2*
X9817D1*
X10186D2*
X11716D1*
X14184D2*
X15677D1*
X16323D2*
X16716D1*
X21823D2*
X28947D1*
X31053D2*
X32197D1*
X33303D2*
X36577D1*
X38423D2*
X40577D1*
X43542D2*
X43902D1*
X45098D2*
X54108D1*
X4167Y3482D2*
X7564D1*
X8472D2*
X9699D1*
X14303D2*
X15677D1*
X16323D2*
X16814D1*
X21823D2*
X28941D1*
X31059D2*
X32191D1*
X33309D2*
X36653D1*
X38347D2*
X40653D1*
X43444D2*
X43902D1*
X45098D2*
X54108D1*
X1039Y3384D2*
X7663D1*
X8570D2*
X9642D1*
X14359D2*
X15677D1*
X16323D2*
X16913D1*
X21801D2*
X28953D1*
X31047D2*
X32203D1*
X33297D2*
X36544D1*
X38456D2*
X40544D1*
X43345D2*
X43902D1*
X45098D2*
X54108D1*
X1039Y3285D2*
X7761D1*
X8669D2*
X9619D1*
X14383D2*
X15677D1*
X16323D2*
X16497D1*
X21753D2*
X28985D1*
X31015D2*
X32235D1*
X33265D2*
X36475D1*
X38525D2*
X40475D1*
X43245D2*
X43902D1*
X45098D2*
X46352D1*
X46648D2*
X54108D1*
X1039Y3186D2*
X7860D1*
X8767D2*
X9624D1*
X14378D2*
X15677D1*
X16323D2*
X16416D1*
X21834D2*
X29039D1*
X29961D2*
X30038D1*
X30961D2*
X32289D1*
X33211D2*
X36431D1*
X38569D2*
X40431D1*
X43067D2*
X43902D1*
X45098D2*
X46211D1*
X47584D2*
X54108D1*
X1039Y3088D2*
X7958D1*
X8867D2*
X9655D1*
X14347D2*
X15677D1*
X16323D2*
X16375D1*
X21873D2*
X29127D1*
X29873D2*
X30127D1*
X30873D2*
X32377D1*
X33123D2*
X36408D1*
X38592D2*
X40408D1*
X42598D2*
X43902D1*
X45098D2*
X46147D1*
X47686D2*
X54108D1*
X1039Y2989D2*
X8058D1*
X8965D2*
X9724D1*
X14278D2*
X15677D1*
X21884D2*
X29289D1*
X29711D2*
X30289D1*
X30711D2*
X32539D1*
X32961D2*
X36402D1*
X38598D2*
X40402D1*
X42598D2*
X43902D1*
X45098D2*
X46119D1*
X47784D2*
X54108D1*
X1039Y2890D2*
X8156D1*
X9064D2*
X9891D1*
X10114D2*
X13888D1*
X14112D2*
X15677D1*
X16323D2*
X16383D1*
X21867D2*
X36411D1*
X38589D2*
X40411D1*
X42598D2*
X43902D1*
X45098D2*
X46119D1*
X47883D2*
X54108D1*
X1039Y2791D2*
X8255D1*
X14244D2*
X15677D1*
X16323D2*
X16430D1*
X21820D2*
X36439D1*
X38561D2*
X40439D1*
X42598D2*
X43902D1*
X45098D2*
X46145D1*
X47983D2*
X54108D1*
X1039Y2693D2*
X8353D1*
X14331D2*
X15669D1*
X16331D2*
X16527D1*
X21723D2*
X36488D1*
X38512D2*
X40488D1*
X42598D2*
X43902D1*
X45098D2*
X46208D1*
X48081D2*
X54108D1*
X1039Y2594D2*
X8452D1*
X14372D2*
X15628D1*
X16372D2*
X36564D1*
X37436D2*
X37564D1*
X38436D2*
X40564D1*
X42598D2*
X43902D1*
X45098D2*
X46342D1*
X46658D2*
X47258D1*
X48219D2*
X54108D1*
X1039Y2495D2*
X8550D1*
X14384D2*
X15616D1*
X16384D2*
X36688D1*
X37312D2*
X37688D1*
X38312D2*
X40688D1*
X41312D2*
X41402D1*
X42598D2*
X43902D1*
X45098D2*
X47356D1*
X48355D2*
X54108D1*
X1039Y2397D2*
X8650D1*
X14370D2*
X15630D1*
X16370D2*
X47455D1*
X48417D2*
X54108D1*
X1039Y2298D2*
X8749D1*
X14325D2*
X15675D1*
X16325D2*
X47553D1*
X48444D2*
X54108D1*
X1039Y2199D2*
X8900D1*
X14233D2*
X15767D1*
X16233D2*
X47652D1*
X48444D2*
X54108D1*
X1039Y2101D2*
X47710D1*
X48415D2*
X49485D1*
X49765D2*
X54108D1*
X1039Y2002D2*
X47772D1*
X48353D2*
X49339D1*
X49911D2*
X54108D1*
X1039Y1903D2*
X47913D1*
X48212D2*
X49274D1*
X49976D2*
X54108D1*
X1039Y1805D2*
X49245D1*
X50005D2*
X54108D1*
X1039Y1706D2*
X49244D1*
X50006D2*
X54108D1*
X1039Y1607D2*
X49269D1*
X49981D2*
X54108D1*
X1039Y1509D2*
X10402D1*
X11598D2*
X11694D1*
X12306D2*
X12694D1*
X13306D2*
X13694D1*
X14306D2*
X14694D1*
X15306D2*
X15694D1*
X16306D2*
X16694D1*
X17306D2*
X17694D1*
X18306D2*
X19402D1*
X20598D2*
X20694D1*
X21306D2*
X21694D1*
X22306D2*
X22694D1*
X23306D2*
X23694D1*
X24306D2*
X24694D1*
X25306D2*
X25694D1*
X26306D2*
X26694D1*
X27306D2*
X28402D1*
X29598D2*
X29694D1*
X30306D2*
X30694D1*
X31306D2*
X31694D1*
X32306D2*
X32694D1*
X33306D2*
X33694D1*
X34306D2*
X34694D1*
X35306D2*
X35694D1*
X36306D2*
X49295D1*
X49955D2*
X54108D1*
X1039Y1410D2*
X10402D1*
X12433D2*
X12567D1*
X13433D2*
X13567D1*
X14433D2*
X14567D1*
X15433D2*
X15567D1*
X16433D2*
X16567D1*
X17433D2*
X17567D1*
X18433D2*
X19402D1*
X21433D2*
X21567D1*
X22433D2*
X22567D1*
X23433D2*
X23567D1*
X24433D2*
X24567D1*
X25433D2*
X25567D1*
X26433D2*
X26567D1*
X27433D2*
X28402D1*
X30433D2*
X30567D1*
X31433D2*
X31567D1*
X32433D2*
X32567D1*
X33433D2*
X33567D1*
X34433D2*
X34567D1*
X35433D2*
X35567D1*
X36433D2*
X49295D1*
X49955D2*
X54108D1*
X1039Y1311D2*
X10402D1*
X18509D2*
X19402D1*
X27509D2*
X28402D1*
X36509D2*
X49295D1*
X49955D2*
X54108D1*
X1039Y1212D2*
X10402D1*
X18559D2*
X19402D1*
X27559D2*
X28402D1*
X36559D2*
X49295D1*
X49955D2*
X54108D1*
X1039Y1114D2*
X10402D1*
X18587D2*
X19402D1*
X27587D2*
X28402D1*
X36587D2*
X49295D1*
X49955D2*
X54108D1*
X1039Y1015D2*
X10402D1*
X18598D2*
X19402D1*
X27598D2*
X28402D1*
X36598D2*
X49295D1*
X49955D2*
X54108D1*
X1040Y916D2*
X10402D1*
X18592D2*
X19402D1*
X27592D2*
X28402D1*
X36592D2*
X49295D1*
X49955D2*
X54108D1*
X10209Y818D2*
X10402D1*
X18570D2*
X19402D1*
X27570D2*
X28402D1*
X36570D2*
X49295D1*
X49955D2*
X54108D1*
X10461Y1589D2*
X11589D1*
Y1421D1*
X11651Y1474D1*
X11736Y1526D1*
X11829Y1563D1*
X11926Y1584D1*
X12026Y1588D1*
X12125Y1575D1*
X12221Y1546D1*
X12310Y1501D1*
X12390Y1441D1*
X12459Y1369D1*
X12499Y1311D1*
X12543Y1370D1*
X12612Y1442D1*
X12692Y1502D1*
X12781Y1547D1*
X12877Y1576D1*
X12976Y1588D1*
X13076Y1584D1*
X13173Y1563D1*
X13266Y1525D1*
X13351Y1473D1*
X13426Y1406D1*
X13488Y1329D1*
X13499Y1311D1*
X13543Y1370D1*
X13612Y1442D1*
X13692Y1502D1*
X13781Y1547D1*
X13877Y1576D1*
X13976Y1588D1*
X14076Y1584D1*
X14173Y1563D1*
X14266Y1525D1*
X14351Y1473D1*
X14426Y1406D1*
X14488Y1329D1*
X14499Y1311D1*
X14543Y1370D1*
X14612Y1442D1*
X14692Y1502D1*
X14781Y1547D1*
X14877Y1576D1*
X14976Y1588D1*
X15076Y1584D1*
X15173Y1563D1*
X15266Y1525D1*
X15351Y1473D1*
X15426Y1406D1*
X15488Y1329D1*
X15499Y1311D1*
X15543Y1370D1*
X15597Y1429D1*
X15659Y1480D1*
X15727Y1521D1*
X15800Y1554D1*
X15877Y1576D1*
X15956Y1587D1*
X16036Y1588D1*
X16115Y1577D1*
X16192Y1556D1*
X16266Y1525D1*
X16335Y1484D1*
X16397Y1434D1*
X16452Y1377D1*
X16500Y1310D1*
X16543Y1370D1*
X16597Y1429D1*
X16659Y1480D1*
X16727Y1521D1*
X16800Y1554D1*
X16877Y1576D1*
X16956Y1587D1*
X17036Y1588D1*
X17115Y1577D1*
X17192Y1556D1*
X17266Y1525D1*
X17335Y1484D1*
X17397Y1434D1*
X17452Y1377D1*
X17500Y1310D1*
X17543Y1370D1*
X17612Y1442D1*
X17692Y1502D1*
X17781Y1547D1*
X17877Y1576D1*
X17976Y1588D1*
X18076Y1584D1*
X18173Y1563D1*
X18266Y1525D1*
X18351Y1473D1*
X18426Y1406D1*
X18488Y1329D1*
X18537Y1241D1*
X18570Y1147D1*
X18587Y1049D1*
Y950D1*
X18570Y852D1*
X18553Y799D1*
X19411Y800D1*
Y1589D1*
X20589D1*
Y1421D1*
X20651Y1474D1*
X20736Y1526D1*
X20829Y1563D1*
X20926Y1584D1*
X21026Y1588D1*
X21125Y1575D1*
X21221Y1546D1*
X21310Y1501D1*
X21390Y1441D1*
X21459Y1369D1*
X21499Y1311D1*
X21543Y1370D1*
X21612Y1442D1*
X21692Y1502D1*
X21781Y1547D1*
X21877Y1576D1*
X21976Y1588D1*
X22076Y1584D1*
X22173Y1563D1*
X22266Y1525D1*
X22351Y1473D1*
X22426Y1406D1*
X22488Y1329D1*
X22499Y1311D1*
X22543Y1370D1*
X22612Y1442D1*
X22692Y1502D1*
X22781Y1547D1*
X22877Y1576D1*
X22976Y1588D1*
X23076Y1584D1*
X23173Y1563D1*
X23266Y1525D1*
X23351Y1473D1*
X23426Y1406D1*
X23488Y1329D1*
X23499Y1311D1*
X23543Y1370D1*
X23612Y1442D1*
X23692Y1502D1*
X23781Y1547D1*
X23877Y1576D1*
X23976Y1588D1*
X24076Y1584D1*
X24173Y1563D1*
X24266Y1525D1*
X24351Y1473D1*
X24426Y1406D1*
X24488Y1329D1*
X24499Y1311D1*
X24543Y1370D1*
X24612Y1442D1*
X24692Y1502D1*
X24781Y1547D1*
X24877Y1576D1*
X24976Y1588D1*
X25076Y1584D1*
X25173Y1563D1*
X25266Y1525D1*
X25351Y1473D1*
X25426Y1406D1*
X25488Y1329D1*
X25499Y1311D1*
X25543Y1370D1*
X25612Y1442D1*
X25692Y1502D1*
X25781Y1547D1*
X25877Y1576D1*
X25976Y1588D1*
X26076Y1584D1*
X26173Y1563D1*
X26266Y1525D1*
X26351Y1473D1*
X26426Y1406D1*
X26488Y1329D1*
X26499Y1311D1*
X26543Y1370D1*
X26612Y1442D1*
X26692Y1502D1*
X26781Y1547D1*
X26877Y1576D1*
X26976Y1588D1*
X27076Y1584D1*
X27173Y1563D1*
X27266Y1525D1*
X27351Y1473D1*
X27426Y1406D1*
X27488Y1329D1*
X27537Y1241D1*
X27570Y1147D1*
X27587Y1049D1*
Y950D1*
X27570Y852D1*
X27553Y799D1*
X28411Y800D1*
Y1589D1*
X29589D1*
Y1421D1*
X29651Y1474D1*
X29736Y1526D1*
X29829Y1563D1*
X29926Y1584D1*
X30026Y1588D1*
X30125Y1575D1*
X30221Y1546D1*
X30310Y1501D1*
X30390Y1441D1*
X30459Y1369D1*
X30499Y1311D1*
X30543Y1370D1*
X30612Y1442D1*
X30692Y1502D1*
X30781Y1547D1*
X30877Y1576D1*
X30976Y1588D1*
X31076Y1584D1*
X31173Y1563D1*
X31266Y1525D1*
X31351Y1473D1*
X31426Y1406D1*
X31488Y1329D1*
X31499Y1311D1*
X31543Y1370D1*
X31612Y1442D1*
X31692Y1502D1*
X31781Y1547D1*
X31877Y1576D1*
X31976Y1588D1*
X32076Y1584D1*
X32173Y1563D1*
X32266Y1525D1*
X32351Y1473D1*
X32426Y1406D1*
X32488Y1329D1*
X32499Y1311D1*
X32543Y1370D1*
X32612Y1442D1*
X32692Y1502D1*
X32781Y1547D1*
X32877Y1576D1*
X32976Y1588D1*
X33076Y1584D1*
X33173Y1563D1*
X33266Y1525D1*
X33351Y1473D1*
X33426Y1406D1*
X33488Y1329D1*
X33499Y1311D1*
X33543Y1370D1*
X33612Y1442D1*
X33692Y1502D1*
X33781Y1547D1*
X33877Y1576D1*
X33976Y1588D1*
X34076Y1584D1*
X34173Y1563D1*
X34266Y1525D1*
X34351Y1473D1*
X34426Y1406D1*
X34488Y1329D1*
X34499Y1311D1*
X34543Y1370D1*
X34612Y1442D1*
X34692Y1502D1*
X34781Y1547D1*
X34877Y1576D1*
X34976Y1588D1*
X35076Y1584D1*
X35173Y1563D1*
X35266Y1525D1*
X35351Y1473D1*
X35426Y1406D1*
X35488Y1329D1*
X35499Y1311D1*
X35543Y1370D1*
X35612Y1442D1*
X35692Y1502D1*
X35781Y1547D1*
X35877Y1576D1*
X35976Y1588D1*
X36076Y1584D1*
X36173Y1563D1*
X36266Y1525D1*
X36351Y1473D1*
X36426Y1406D1*
X36488Y1329D1*
X36537Y1241D1*
X36570Y1147D1*
X36587Y1049D1*
Y950D1*
X36570Y852D1*
X36553Y799D1*
X45300Y800D1*
X49305D1*
X49306Y1187D1*
Y1555D1*
X49272Y1627D1*
X49258Y1675D1*
X49252Y1725D1*
Y1775D1*
X49258Y1824D1*
X49272Y1872D1*
X49291Y1919D1*
X49316Y1962D1*
X49347Y2001D1*
X49383Y2035D1*
X49423Y2065D1*
X49467Y2089D1*
X49514Y2107D1*
X49562Y2119D1*
X49612Y2124D1*
X49662Y2122D1*
X49711Y2114D1*
X49759Y2099D1*
X49804Y2078D1*
X49847Y2051D1*
X49885Y2019D1*
X49918Y1982D1*
X49947Y1941D1*
X49969Y1896D1*
X49986Y1849D1*
X49996Y1800D1*
X49999Y1750D1*
X49996Y1700D1*
X49986Y1651D1*
X49969Y1604D1*
X49944Y1556D1*
Y798D1*
X50050Y800D1*
X54117D1*
X54118Y1187D1*
Y20617D1*
X53787Y20618D1*
X43320D1*
X43319Y20495D1*
X43390Y20441D1*
X43459Y20369D1*
X43515Y20286D1*
X43555Y20195D1*
X43580Y20098D1*
X43589Y20000D1*
X43580Y19900D1*
X43555Y19804D1*
X43514Y19713D1*
X43458Y19630D1*
X43389Y19558D1*
X43310Y19500D1*
X43351Y19473D1*
X43426Y19406D1*
X43488Y19329D1*
X43537Y19241D1*
X43570Y19147D1*
X43587Y19049D1*
Y18950D1*
X43570Y18852D1*
X43536Y18757D1*
X43488Y18670D1*
X43425Y18593D1*
X43350Y18527D1*
X43310Y18500D1*
X43351Y18473D1*
X43426Y18406D1*
X43488Y18329D1*
X43537Y18241D1*
X43570Y18147D1*
X43587Y18049D1*
Y17950D1*
X43570Y17852D1*
X43536Y17757D1*
X43488Y17670D1*
X43425Y17593D1*
X43421Y17589D1*
X43589D1*
Y16411D1*
X42411Y16413D1*
X42379Y16411D1*
X40411D1*
Y17589D1*
X40579D1*
X40512Y17671D1*
X40463Y17758D1*
X40430Y17852D1*
X40413Y17951D1*
X40414Y18051D1*
X40431Y18149D1*
X40464Y18243D1*
X40513Y18330D1*
X40576Y18408D1*
X40651Y18474D1*
X40691Y18501D1*
X40650Y18527D1*
X40575Y18593D1*
X40512Y18671D1*
X40463Y18758D1*
X40430Y18852D1*
X40413Y18951D1*
X40414Y19051D1*
X40431Y19149D1*
X40464Y19243D1*
X40513Y19330D1*
X40576Y19408D1*
X40651Y19474D1*
X40691Y19501D1*
X40650Y19527D1*
X40575Y19593D1*
X40512Y19671D1*
X40463Y19758D1*
X40430Y19852D1*
X40413Y19951D1*
X40414Y20051D1*
X40431Y20149D1*
X40464Y20243D1*
X40513Y20330D1*
X40576Y20408D1*
X40651Y20474D1*
X40736Y20526D1*
X40829Y20563D1*
X40926Y20584D1*
X41026Y20588D1*
X41125Y20575D1*
X41221Y20546D1*
X41310Y20501D1*
X41390Y20441D1*
X41459Y20369D1*
X41499Y20311D1*
X41543Y20370D1*
X41597Y20429D1*
X41659Y20480D1*
X41727Y20521D1*
X41800Y20554D1*
X41877Y20576D1*
X41956Y20587D1*
X42036Y20588D1*
X42115Y20577D1*
X42192Y20556D1*
X42266Y20525D1*
X42335Y20484D1*
X42397Y20434D1*
X42452Y20377D1*
X42500Y20310D1*
X42543Y20370D1*
X42612Y20442D1*
X42681Y20494D1*
Y20938D1*
X42650Y20950D1*
X39311D1*
X39319Y20875D1*
Y13820D1*
X39650Y13819D1*
X40439D1*
X40420Y13901D1*
X40411Y14001D1*
X40420Y14100D1*
X40445Y14197D1*
X40487Y14288D1*
X40543Y14370D1*
X40612Y14442D1*
X40692Y14502D1*
X40781Y14547D1*
X40877Y14576D1*
X40976Y14588D1*
X41076Y14584D1*
X41173Y14563D1*
X41266Y14525D1*
X41351Y14473D1*
X41426Y14406D1*
X41488Y14329D1*
X41499Y14311D1*
X41543Y14370D1*
X41597Y14429D1*
X41659Y14480D1*
X41727Y14521D1*
X41800Y14554D1*
X41877Y14576D1*
X41956Y14587D1*
X42036Y14588D1*
X42115Y14577D1*
X42192Y14556D1*
X42266Y14525D1*
X42335Y14484D1*
X42397Y14434D1*
X42452Y14377D1*
X42499Y14312D1*
X42537Y14241D1*
X42565Y14166D1*
X42582Y14088D1*
X42589Y14009D1*
X42584Y13930D1*
X42570Y13852D1*
X42560Y13819D1*
X44375D1*
X44425Y13815D1*
X44473Y13803D1*
X44520Y13784D1*
X44562Y13758D1*
X44636Y13690D1*
X45976Y12351D1*
X46008Y12313D1*
X46034Y12270D1*
X46053Y12224D1*
X46065Y12175D1*
X46069Y12075D1*
Y11445D1*
X46094Y11396D1*
X46111Y11349D1*
X46121Y11300D1*
X46124Y11250D1*
X46121Y11200D1*
X46111Y11151D1*
X46094Y11104D1*
X46072Y11059D1*
X46044Y11018D1*
X46010Y10981D1*
X45972Y10949D1*
X45930Y10922D1*
X45885Y10901D1*
X45837Y10886D1*
X45788Y10878D1*
X45738Y10876D1*
X45688Y10881D1*
X45639Y10893D1*
X45593Y10911D1*
X45549Y10935D1*
X45509Y10964D1*
X45473Y10999D1*
X45442Y11038D1*
X45416Y11081D1*
X45397Y11127D1*
X45383Y11175D1*
X45377Y11225D1*
Y11275D1*
X45383Y11324D1*
X45397Y11372D1*
X45431Y11444D1*
Y11645D1*
X45350Y11628D1*
X45300Y11626D1*
X45250Y11631D1*
X45202Y11643D1*
X45155Y11661D1*
X45111Y11685D1*
X45071Y11714D1*
X45035Y11749D1*
X45004Y11788D1*
X44979Y11831D1*
X44959Y11877D1*
X44950Y11912D1*
X44679Y12182D1*
X44312Y12181D1*
X42561D1*
X42580Y12098D1*
X42589Y12000D1*
X42580Y11900D1*
X42555Y11804D1*
X42514Y11713D1*
X42458Y11630D1*
X42389Y11558D1*
X42310Y11500D1*
X42351Y11473D1*
X42426Y11406D1*
X42488Y11329D1*
X42537Y11241D1*
X42570Y11147D1*
X42587Y11049D1*
Y10950D1*
X42570Y10852D1*
X42536Y10757D1*
X42488Y10670D1*
X42425Y10593D1*
X42421Y10589D1*
X42589D1*
Y9411D1*
X41411D1*
Y9579D1*
X41350Y9527D1*
X41265Y9474D1*
X41172Y9437D1*
X41074Y9416D1*
X40975Y9412D1*
X40876Y9425D1*
X40780Y9454D1*
X40691Y9499D1*
X40611Y9558D1*
X40542Y9631D1*
X40486Y9713D1*
X40445Y9804D1*
X40420Y9901D1*
X40411Y10001D1*
X40420Y10100D1*
X40445Y10197D1*
X40487Y10288D1*
X40543Y10370D1*
X40612Y10442D1*
X40691Y10501D1*
X40650Y10527D1*
X40575Y10593D1*
X40512Y10671D1*
X40463Y10758D1*
X40430Y10852D1*
X40413Y10951D1*
X40414Y11051D1*
X40431Y11149D1*
X40464Y11243D1*
X40513Y11330D1*
X40576Y11408D1*
X40651Y11474D1*
X40691Y11501D1*
X40650Y11527D1*
X40575Y11593D1*
X40512Y11671D1*
X40463Y11758D1*
X40430Y11852D1*
X40413Y11951D1*
X40414Y12051D1*
X40431Y12149D1*
X40440Y12180D1*
X38625Y12181D1*
X38575Y12185D1*
X38570Y12147D1*
X38587Y12049D1*
Y11950D1*
X38570Y11852D1*
X38536Y11757D1*
X38488Y11670D1*
X38425Y11593D1*
X38350Y11527D1*
X38310Y11500D1*
X38351Y11473D1*
X38426Y11406D1*
X38488Y11329D1*
X38537Y11241D1*
X38570Y11147D1*
X38587Y11049D1*
Y10950D1*
X38570Y10852D1*
X38536Y10757D1*
X38488Y10670D1*
X38425Y10593D1*
X38350Y10527D1*
X38310Y10500D1*
X38351Y10473D1*
X38426Y10406D1*
X38488Y10329D1*
X38537Y10241D1*
X38570Y10147D1*
X38587Y10049D1*
Y9950D1*
X38570Y9852D1*
X38536Y9757D1*
X38488Y9670D1*
X38425Y9593D1*
X38350Y9527D1*
X38310Y9500D1*
X38351Y9473D1*
X38426Y9406D1*
X38488Y9329D1*
X38537Y9241D1*
X38570Y9147D1*
X38587Y9049D1*
Y8950D1*
X38570Y8852D1*
X38536Y8757D1*
X38488Y8670D1*
X38425Y8593D1*
X38350Y8527D1*
X38310Y8500D1*
X38351Y8473D1*
X38426Y8406D1*
X38488Y8329D1*
X38537Y8241D1*
X38570Y8147D1*
X38587Y8049D1*
Y7950D1*
X38570Y7852D1*
X38536Y7757D1*
X38488Y7670D1*
X38425Y7593D1*
X38350Y7527D1*
X38310Y7500D1*
X38351Y7473D1*
X38426Y7406D1*
X38488Y7329D1*
X38537Y7241D1*
X38570Y7147D1*
X38587Y7049D1*
Y6950D1*
X38570Y6852D1*
X38560Y6820D1*
X38950Y6819D1*
X40439D1*
X40420Y6901D1*
X40411Y7001D1*
X40420Y7100D1*
X40445Y7197D1*
X40487Y7288D1*
X40543Y7370D1*
X40612Y7442D1*
X40692Y7502D1*
X40781Y7547D1*
X40877Y7576D1*
X40976Y7588D1*
X41076Y7584D1*
X41173Y7563D1*
X41266Y7525D1*
X41351Y7473D1*
X41426Y7406D1*
X41488Y7329D1*
X41499Y7311D1*
X41543Y7370D1*
X41597Y7429D1*
X41659Y7480D1*
X41727Y7521D1*
X41800Y7554D1*
X41877Y7576D1*
X41956Y7587D1*
X42036Y7588D1*
X42115Y7577D1*
X42192Y7556D1*
X42266Y7525D1*
X42335Y7484D1*
X42397Y7434D1*
X42452Y7377D1*
X42499Y7312D1*
X42537Y7241D1*
X42565Y7166D1*
X42582Y7088D1*
X42589Y7009D1*
X42584Y6930D1*
X42570Y6852D1*
X42560Y6819D1*
X44000D1*
X44050Y6815D1*
X44098Y6803D1*
X44145Y6784D1*
X44187Y6758D1*
X44261Y6690D1*
X44377Y6576D1*
X44476Y6588D1*
X44576Y6584D1*
X44673Y6563D1*
X44766Y6525D1*
X44851Y6473D1*
X44926Y6406D1*
X44988Y6329D1*
X45037Y6241D1*
X45070Y6147D1*
X45087Y6049D1*
Y5950D1*
X45070Y5852D1*
X45036Y5757D1*
X44988Y5670D1*
X44925Y5593D1*
X44850Y5527D1*
X44810Y5500D1*
X44851Y5473D1*
X44926Y5406D1*
X44988Y5329D1*
X45037Y5241D1*
X45070Y5147D1*
X45087Y5049D1*
Y4950D1*
X45070Y4852D1*
X45036Y4757D1*
X44988Y4670D1*
X44925Y4593D1*
X44850Y4527D1*
X44810Y4500D1*
X44851Y4473D1*
X44926Y4406D1*
X44988Y4329D1*
X45037Y4241D1*
X45070Y4147D1*
X45087Y4049D1*
Y3950D1*
X45070Y3852D1*
X45036Y3757D1*
X44988Y3670D1*
X44925Y3593D1*
X44921Y3589D1*
X45089D1*
Y2411D1*
X43911D1*
Y3589D1*
X44079D1*
X44012Y3671D1*
X43963Y3758D1*
X43930Y3852D1*
X43913Y3951D1*
X43912Y3961D1*
X43226Y3274D1*
X43188Y3242D1*
X43145Y3216D1*
X43099Y3197D1*
X43050Y3185D1*
X42950Y3181D1*
X42589D1*
Y2411D1*
X41411D1*
Y2579D1*
X41350Y2527D1*
X41265Y2474D1*
X41172Y2437D1*
X41074Y2416D1*
X40975Y2412D1*
X40876Y2425D1*
X40780Y2454D1*
X40691Y2499D1*
X40611Y2558D1*
X40542Y2631D1*
X40486Y2713D1*
X40445Y2804D1*
X40420Y2901D1*
X40411Y3001D1*
X40420Y3100D1*
X40445Y3197D1*
X40487Y3288D1*
X40543Y3370D1*
X40612Y3442D1*
X40691Y3501D1*
X40650Y3527D1*
X40575Y3593D1*
X40512Y3671D1*
X40463Y3758D1*
X40430Y3852D1*
X40413Y3951D1*
X40414Y4051D1*
X40431Y4149D1*
X40440Y4180D1*
X39500Y4181D1*
X39450Y4185D1*
X39402Y4197D1*
X39355Y4216D1*
X39313Y4242D1*
X39239Y4310D1*
X38588Y4961D1*
X38570Y4852D1*
X38536Y4757D1*
X38488Y4670D1*
X38425Y4593D1*
X38350Y4527D1*
X38310Y4500D1*
X38351Y4473D1*
X38426Y4406D1*
X38488Y4329D1*
X38537Y4241D1*
X38570Y4147D1*
X38587Y4049D1*
Y3950D1*
X38570Y3852D1*
X38536Y3757D1*
X38488Y3670D1*
X38425Y3593D1*
X38350Y3527D1*
X38310Y3500D1*
X38351Y3473D1*
X38412Y3421D1*
X38465Y3361D1*
X38510Y3295D1*
X38545Y3223D1*
X38570Y3147D1*
X38585Y3068D1*
X38589Y2990D1*
X38582Y2910D1*
X38564Y2832D1*
X38536Y2757D1*
X38499Y2687D1*
X38452Y2622D1*
X38396Y2565D1*
X38334Y2515D1*
X38265Y2474D1*
X38191Y2443D1*
X38114Y2422D1*
X38035Y2412D1*
X37955Y2413D1*
X37876Y2425D1*
X37799Y2447D1*
X37726Y2479D1*
X37658Y2521D1*
X37596Y2572D1*
X37542Y2631D1*
X37500Y2689D1*
X37458Y2630D1*
X37404Y2571D1*
X37342Y2521D1*
X37274Y2479D1*
X37201Y2447D1*
X37124Y2425D1*
X37045Y2413D1*
X36965Y2412D1*
X36885Y2423D1*
X36808Y2443D1*
X36735Y2475D1*
X36666Y2515D1*
X36603Y2565D1*
X36548Y2623D1*
X36501Y2688D1*
X36463Y2758D1*
X36436Y2833D1*
X36418Y2911D1*
X36411Y2991D1*
X36416Y3071D1*
X36431Y3149D1*
X36456Y3225D1*
X36491Y3296D1*
X36536Y3363D1*
X36590Y3422D1*
X36651Y3474D1*
X36689Y3500D1*
X36611Y3558D1*
X36542Y3631D1*
X36486Y3713D1*
X36445Y3804D1*
X36420Y3901D1*
X36411Y4001D1*
X36420Y4100D1*
X36445Y4197D1*
X36487Y4288D1*
X36543Y4370D1*
X36612Y4442D1*
X36691Y4501D1*
X36650Y4527D1*
X36575Y4593D1*
X36512Y4671D1*
X36463Y4758D1*
X36430Y4852D1*
X36413Y4951D1*
X36414Y5051D1*
X36431Y5149D1*
X36464Y5243D1*
X36513Y5330D1*
X36576Y5408D1*
X36651Y5474D1*
X36691Y5501D1*
X36650Y5527D1*
X36575Y5593D1*
X36512Y5671D1*
X36463Y5758D1*
X36430Y5852D1*
X36413Y5951D1*
X36414Y6051D1*
X36431Y6149D1*
X36464Y6243D1*
X36513Y6330D1*
X36576Y6408D1*
X36651Y6474D1*
X36691Y6501D1*
X36650Y6527D1*
X36575Y6593D1*
X36512Y6671D1*
X36463Y6758D1*
X36430Y6852D1*
X36413Y6951D1*
X36414Y7051D1*
X36431Y7149D1*
X36464Y7243D1*
X36513Y7330D1*
X36576Y7408D1*
X36651Y7474D1*
X36691Y7501D1*
X36650Y7527D1*
X36575Y7593D1*
X36512Y7671D1*
X36463Y7758D1*
X36430Y7852D1*
X36413Y7951D1*
X36414Y8051D1*
X36431Y8149D1*
X36464Y8243D1*
X36513Y8330D1*
X36576Y8408D1*
X36651Y8474D1*
X36691Y8501D1*
X36650Y8527D1*
X36575Y8593D1*
X36512Y8671D1*
X36463Y8758D1*
X36430Y8852D1*
X36413Y8951D1*
X36414Y9051D1*
X36431Y9149D1*
X36464Y9243D1*
X36513Y9330D1*
X36576Y9408D1*
X36651Y9474D1*
X36691Y9501D1*
X36650Y9527D1*
X36575Y9593D1*
X36512Y9671D1*
X36463Y9758D1*
X36430Y9852D1*
X36413Y9951D1*
X36414Y10051D1*
X36431Y10149D1*
X36464Y10243D1*
X36513Y10330D1*
X36576Y10408D1*
X36651Y10474D1*
X36691Y10501D1*
X36650Y10527D1*
X36575Y10593D1*
X36512Y10671D1*
X36463Y10758D1*
X36430Y10852D1*
X36413Y10951D1*
X36414Y11051D1*
X36431Y11149D1*
X36464Y11243D1*
X36513Y11330D1*
X36576Y11408D1*
X36651Y11474D1*
X36691Y11501D1*
X36650Y11527D1*
X36575Y11593D1*
X36512Y11671D1*
X36463Y11758D1*
X36430Y11852D1*
X36413Y11951D1*
X36414Y12051D1*
X36431Y12149D1*
X36464Y12243D1*
X36513Y12330D1*
X36576Y12408D1*
X36651Y12474D1*
X36691Y12501D1*
X36650Y12527D1*
X36575Y12593D1*
X36512Y12671D1*
X36463Y12758D1*
X36430Y12852D1*
X36413Y12951D1*
X36414Y13051D1*
X36431Y13149D1*
X36464Y13243D1*
X36481Y13279D1*
X36068Y12867D1*
X36069Y11750D1*
X36065Y11700D1*
X36053Y11652D1*
X36034Y11605D1*
X36008Y11563D1*
X35940Y11489D1*
X34090Y9638D1*
X34089Y8911D1*
X32911D1*
Y10089D1*
X33079D1*
X33012Y10171D1*
X32963Y10258D1*
X32930Y10352D1*
X32913Y10451D1*
X32914Y10551D1*
X32931Y10649D1*
X32964Y10743D1*
X33013Y10830D1*
X33076Y10908D1*
X33151Y10974D1*
X33191Y11001D1*
X33150Y11027D1*
X33075Y11093D1*
X33012Y11171D1*
X32963Y11258D1*
X32930Y11352D1*
X32913Y11451D1*
X32914Y11551D1*
X32931Y11649D1*
X32940Y11680D1*
X32883Y11681D1*
X32864Y11663D1*
X32844Y11604D1*
X32822Y11559D1*
X32794Y11518D1*
X32760Y11481D1*
X32722Y11449D1*
X32680Y11422D1*
X32635Y11401D1*
X32587Y11386D1*
X32538Y11378D1*
X32488Y11376D1*
X32438Y11381D1*
X32389Y11393D1*
X32343Y11411D1*
X32299Y11435D1*
X32259Y11464D1*
X32223Y11499D1*
X32192Y11538D1*
X32166Y11581D1*
X32147Y11627D1*
X32133Y11675D1*
X32127Y11725D1*
Y11775D1*
X32133Y11824D1*
X32147Y11872D1*
X32166Y11919D1*
X32191Y11962D1*
X32222Y12001D1*
X32258Y12035D1*
X32298Y12065D1*
X32342Y12089D1*
X32412Y12113D1*
X32524Y12226D1*
X32562Y12258D1*
X32605Y12284D1*
X32651Y12303D1*
X32700Y12315D1*
X32800Y12319D1*
X32939D1*
X32920Y12401D1*
X32911Y12501D1*
X32920Y12600D1*
X32940Y12680D1*
X32883Y12681D1*
X32864Y12663D1*
X32844Y12604D1*
X32822Y12559D1*
X32794Y12518D1*
X32760Y12481D1*
X32722Y12449D1*
X32680Y12422D1*
X32635Y12401D1*
X32587Y12386D1*
X32538Y12378D1*
X32488Y12376D1*
X32438Y12381D1*
X32389Y12393D1*
X32343Y12411D1*
X32299Y12435D1*
X32259Y12464D1*
X32223Y12499D1*
X32192Y12538D1*
X32166Y12581D1*
X32147Y12627D1*
X32133Y12675D1*
X32127Y12725D1*
Y12775D1*
X32133Y12824D1*
X32147Y12872D1*
X32166Y12919D1*
X32191Y12962D1*
X32222Y13001D1*
X32258Y13035D1*
X32298Y13065D1*
X32342Y13089D1*
X32412Y13113D1*
X32524Y13226D1*
X32562Y13258D1*
X32605Y13284D1*
X32651Y13303D1*
X32700Y13315D1*
X32800Y13319D1*
X32939D1*
X32920Y13401D1*
X32911Y13501D1*
X32920Y13600D1*
X32940Y13680D1*
X32883Y13681D1*
X32864Y13663D1*
X32844Y13604D1*
X32822Y13559D1*
X32794Y13518D1*
X32760Y13481D1*
X32722Y13449D1*
X32680Y13422D1*
X32635Y13401D1*
X32587Y13386D1*
X32538Y13378D1*
X32488Y13376D1*
X32438Y13381D1*
X32389Y13393D1*
X32343Y13411D1*
X32299Y13435D1*
X32259Y13464D1*
X32223Y13499D1*
X32192Y13538D1*
X32166Y13581D1*
X32147Y13627D1*
X32133Y13675D1*
X32127Y13725D1*
Y13775D1*
X32133Y13824D1*
X32147Y13872D1*
X32166Y13919D1*
X32191Y13962D1*
X32222Y14001D1*
X32258Y14035D1*
X32298Y14065D1*
X32342Y14089D1*
X32412Y14113D1*
X32524Y14226D1*
X32562Y14258D1*
X32605Y14284D1*
X32651Y14303D1*
X32700Y14315D1*
X32800Y14319D1*
X32939D1*
X32920Y14401D1*
X32911Y14501D1*
X32920Y14600D1*
X32945Y14697D1*
X32987Y14788D1*
X33043Y14870D1*
X33112Y14942D1*
X33191Y15001D1*
X33150Y15027D1*
X33075Y15093D1*
X33012Y15171D1*
X32963Y15258D1*
X32930Y15352D1*
X32913Y15451D1*
X32914Y15551D1*
X32931Y15649D1*
X32964Y15743D1*
X33013Y15830D1*
X33076Y15908D1*
X33151Y15974D1*
X33191Y16001D1*
X33150Y16027D1*
X33075Y16093D1*
X33012Y16171D1*
X32963Y16258D1*
X32930Y16352D1*
X32913Y16451D1*
X32914Y16551D1*
X32931Y16649D1*
X32964Y16743D1*
X33013Y16830D1*
X33076Y16908D1*
X33151Y16974D1*
X33236Y17026D1*
X33329Y17063D1*
X33426Y17084D1*
X33526Y17088D1*
X33624Y17075D1*
X35396Y18847D1*
X35774Y19226D1*
X35812Y19258D1*
X35855Y19284D1*
X35901Y19303D1*
X35950Y19315D1*
X36050Y19319D1*
X36505D1*
X36543Y19370D1*
X36612Y19442D1*
X36691Y19501D1*
X36650Y19527D1*
X36575Y19593D1*
X36512Y19671D1*
X36463Y19758D1*
X36430Y19852D1*
X36413Y19951D1*
X36414Y20051D1*
X36431Y20149D1*
X36464Y20243D1*
X36513Y20330D1*
X36576Y20408D1*
X36599Y20431D1*
X34402D1*
X34459Y20369D1*
X34515Y20286D1*
X34555Y20195D1*
X34580Y20098D1*
X34589Y20000D1*
X34580Y19900D1*
X34555Y19804D1*
X34514Y19713D1*
X34458Y19630D1*
X34389Y19558D1*
X34308Y19499D1*
X34219Y19454D1*
X34124Y19425D1*
X34025Y19412D1*
X33925Y19416D1*
X33827Y19437D1*
X33735Y19475D1*
X33650Y19527D1*
X33575Y19593D1*
X33512Y19671D1*
X33500Y19691D1*
X33458Y19630D1*
X33389Y19558D1*
X33308Y19499D1*
X33219Y19454D1*
X33124Y19425D1*
X33025Y19412D1*
X32925Y19416D1*
X32827Y19437D1*
X32735Y19475D1*
X32650Y19527D1*
X32575Y19593D1*
X32512Y19671D1*
X32500Y19691D1*
X32458Y19630D1*
X32389Y19558D1*
X32308Y19499D1*
X32219Y19454D1*
X32124Y19425D1*
X32025Y19412D1*
X31925Y19416D1*
X31827Y19437D1*
X31735Y19475D1*
X31650Y19527D1*
X31575Y19593D1*
X31512Y19671D1*
X31500Y19691D1*
X31458Y19630D1*
X31389Y19558D1*
X31308Y19499D1*
X31219Y19454D1*
X31124Y19425D1*
X31025Y19412D1*
X30925Y19416D1*
X30827Y19437D1*
X30735Y19475D1*
X30650Y19527D1*
X30575Y19593D1*
X30512Y19671D1*
X30500Y19691D1*
X30458Y19630D1*
X30389Y19558D1*
X30308Y19499D1*
X30219Y19454D1*
X30124Y19425D1*
X30025Y19412D1*
X29925Y19416D1*
X29827Y19437D1*
X29735Y19475D1*
X29650Y19527D1*
X29575Y19593D1*
X29512Y19671D1*
X29500Y19691D1*
X29458Y19630D1*
X29389Y19558D1*
X29308Y19499D1*
X29219Y19454D1*
X29124Y19425D1*
X29025Y19412D1*
X28925Y19416D1*
X28827Y19437D1*
X28735Y19475D1*
X28650Y19527D1*
X28575Y19593D1*
X28512Y19671D1*
X28500Y19691D1*
X28458Y19630D1*
X28389Y19558D1*
X28308Y19499D1*
X28219Y19454D1*
X28124Y19425D1*
X28025Y19412D1*
X27925Y19416D1*
X27827Y19437D1*
X27735Y19475D1*
X27650Y19527D1*
X27589Y19579D1*
Y19411D1*
X26411D1*
Y20432D1*
X25402Y20431D1*
X25459Y20369D1*
X25515Y20286D1*
X25555Y20195D1*
X25580Y20098D1*
X25589Y20000D1*
X25580Y19900D1*
X25555Y19804D1*
X25514Y19713D1*
X25458Y19630D1*
X25389Y19558D1*
X25308Y19499D1*
X25219Y19454D1*
X25124Y19425D1*
X25025Y19412D1*
X24925Y19416D1*
X24827Y19437D1*
X24735Y19475D1*
X24650Y19527D1*
X24575Y19593D1*
X24512Y19671D1*
X24500Y19691D1*
X24458Y19630D1*
X24389Y19558D1*
X24308Y19499D1*
X24219Y19454D1*
X24124Y19425D1*
X24025Y19412D1*
X23925Y19416D1*
X23827Y19437D1*
X23735Y19475D1*
X23650Y19527D1*
X23575Y19593D1*
X23512Y19671D1*
X23500Y19691D1*
X23458Y19630D1*
X23389Y19558D1*
X23308Y19499D1*
X23219Y19454D1*
X23124Y19425D1*
X23025Y19412D1*
X22925Y19416D1*
X22827Y19437D1*
X22735Y19475D1*
X22650Y19527D1*
X22575Y19593D1*
X22512Y19671D1*
X22500Y19691D1*
X22458Y19630D1*
X22389Y19558D1*
X22308Y19499D1*
X22219Y19454D1*
X22124Y19425D1*
X22025Y19412D1*
X21925Y19416D1*
X21827Y19437D1*
X21735Y19475D1*
X21650Y19527D1*
X21575Y19593D1*
X21512Y19671D1*
X21500Y19691D1*
X21458Y19630D1*
X21389Y19558D1*
X21308Y19499D1*
X21219Y19454D1*
X21124Y19425D1*
X21025Y19412D1*
X20925Y19416D1*
X20827Y19437D1*
X20735Y19475D1*
X20650Y19527D1*
X20575Y19593D1*
X20512Y19671D1*
X20500Y19691D1*
X20458Y19630D1*
X20389Y19558D1*
X20308Y19499D1*
X20219Y19454D1*
X20124Y19425D1*
X20025Y19412D1*
X19925Y19416D1*
X19827Y19437D1*
X19735Y19475D1*
X19650Y19527D1*
X19575Y19593D1*
X19512Y19671D1*
X19500Y19691D1*
X19458Y19630D1*
X19389Y19558D1*
X19308Y19499D1*
X19219Y19454D1*
X19124Y19425D1*
X19025Y19412D1*
X18925Y19416D1*
X18827Y19437D1*
X18735Y19475D1*
X18650Y19527D1*
X18589Y19579D1*
Y19411D1*
X17756D1*
Y17937D1*
X17753Y17888D1*
X17741Y17839D1*
X17722Y17793D1*
X17696Y17750D1*
X17628Y17677D1*
X16842Y16891D1*
X16854Y16822D1*
X16858Y16750D1*
X16850Y16650D1*
X16826Y16554D1*
X16786Y16462D1*
X16731Y16378D1*
X16664Y16304D1*
X16653Y16295D1*
X16654Y15873D1*
X16691Y15828D1*
X16743Y15743D1*
X16779Y15649D1*
X16797Y15551D1*
Y15450D1*
X16779Y15352D1*
X16743Y15259D1*
X16691Y15173D1*
X16625Y15099D1*
X16546Y15037D1*
X16458Y14991D1*
X16362Y14962D1*
X16263Y14951D1*
X16163Y14958D1*
X16066Y14982D1*
X15976Y15024D1*
X15894Y15082D1*
X15824Y15153D1*
X15768Y15236D1*
X15729Y15327D1*
X15706Y15425D1*
X15701Y15524D1*
X15715Y15623D1*
X15746Y15718D1*
X15794Y15806D1*
X15845Y15871D1*
X15846Y16295D1*
X15775Y16369D1*
X15749Y16402D1*
X15699Y16340D1*
X15642Y16285D1*
X15577Y16237D1*
X15507Y16199D1*
X15433Y16170D1*
X15355Y16151D1*
X15276Y16142D1*
X15196Y16144D1*
X15117Y16156D1*
X15040Y16179D1*
X14967Y16212D1*
X14899Y16253D1*
X14858Y16285D1*
Y16142D1*
X14654D1*
Y15873D1*
X14691Y15828D1*
X14743Y15743D1*
X14779Y15649D1*
X14797Y15551D1*
Y15450D1*
X14779Y15352D1*
X14743Y15259D1*
X14691Y15173D1*
X14625Y15099D1*
X14546Y15037D1*
X14458Y14991D1*
X14362Y14962D1*
X14263Y14951D1*
X14163Y14958D1*
X14066Y14982D1*
X13976Y15024D1*
X13894Y15082D1*
X13824Y15153D1*
X13768Y15236D1*
X13729Y15327D1*
X13706Y15425D1*
X13701Y15524D1*
X13715Y15623D1*
X13746Y15718D1*
X13794Y15806D1*
X13845Y15871D1*
X13846Y16142D1*
X13642D1*
Y17358D1*
X14409D1*
X14590Y17541D1*
X15212Y18163D1*
X15250Y18196D1*
X15292Y18222D1*
X15339Y18241D1*
X15387Y18253D1*
X15488Y18257D1*
X16680D1*
X16681Y18525D1*
Y19483D1*
X16619Y19454D1*
X16524Y19425D1*
X16425Y19412D1*
X16325Y19416D1*
X16227Y19437D1*
X16135Y19475D1*
X16050Y19527D1*
X15975Y19593D1*
X15912Y19671D1*
X15900Y19691D1*
X15858Y19630D1*
X15789Y19558D1*
X15708Y19499D1*
X15619Y19454D1*
X15524Y19425D1*
X15425Y19412D1*
X15325Y19416D1*
X15227Y19437D1*
X15135Y19475D1*
X15050Y19527D1*
X14975Y19593D1*
X14912Y19671D1*
X14900Y19691D1*
X14858Y19630D1*
X14789Y19558D1*
X14708Y19499D1*
X14619Y19454D1*
X14524Y19425D1*
X14425Y19412D1*
X14325Y19416D1*
X14227Y19437D1*
X14135Y19475D1*
X14050Y19527D1*
X13975Y19593D1*
X13912Y19671D1*
X13900Y19691D1*
X13858Y19630D1*
X13789Y19558D1*
X13708Y19499D1*
X13619Y19454D1*
X13524Y19425D1*
X13425Y19412D1*
X13325Y19416D1*
X13227Y19437D1*
X13135Y19475D1*
X13050Y19527D1*
X12975Y19593D1*
X12912Y19671D1*
X12900Y19691D1*
X12858Y19630D1*
X12789Y19558D1*
X12708Y19499D1*
X12619Y19454D1*
X12524Y19425D1*
X12425Y19412D1*
X12325Y19416D1*
X12227Y19437D1*
X12135Y19475D1*
X12050Y19527D1*
X11975Y19593D1*
X11912Y19671D1*
X11900Y19691D1*
X11858Y19630D1*
X11789Y19558D1*
X11708Y19499D1*
X11619Y19454D1*
X11524Y19425D1*
X11425Y19412D1*
X11325Y19416D1*
X11227Y19437D1*
X11135Y19475D1*
X11050Y19527D1*
X10975Y19593D1*
X10912Y19671D1*
X10900Y19691D1*
X10876Y19654D1*
X10825Y19593D1*
X10766Y19539D1*
X10700Y19493D1*
X10628Y19458D1*
X10553Y19432D1*
X10474Y19416D1*
X10395Y19411D1*
X10315Y19418D1*
X10237Y19434D1*
X10162Y19462D1*
X10091Y19499D1*
X10026Y19545D1*
X9988Y19579D1*
X9989Y19411D1*
X8811D1*
Y20182D1*
X6800Y20181D1*
X1320D1*
X1131Y19993D1*
Y18877D1*
X1203Y18921D1*
X1294Y18962D1*
X1391Y18987D1*
X1491Y18996D1*
X1590Y18990D1*
X1688Y18967D1*
X1780Y18930D1*
X1866Y18879D1*
X1942Y18814D1*
X2000Y18747D1*
X2045Y18801D1*
X2119Y18867D1*
X2203Y18921D1*
X2294Y18962D1*
X2391Y18987D1*
X2491Y18996D1*
X2590Y18990D1*
X2688Y18967D1*
X2780Y18930D1*
X2866Y18879D1*
X2942Y18814D1*
X3000Y18747D1*
X3045Y18801D1*
X3119Y18867D1*
X3203Y18921D1*
X3294Y18962D1*
X3391Y18987D1*
X3491Y18996D1*
X3590Y18990D1*
X3688Y18967D1*
X3780Y18930D1*
X3866Y18879D1*
X3872Y18874D1*
Y18996D1*
X5128D1*
Y17504D1*
X3872D1*
Y17627D1*
X3821Y17592D1*
X3731Y17548D1*
X3635Y17519D1*
X3536Y17505D1*
X3437Y17507D1*
X3338Y17525D1*
X3244Y17558D1*
X3156Y17606D1*
X3077Y17667D1*
X3009Y17740D1*
X3001Y17752D1*
X2939Y17683D1*
X2863Y17619D1*
X2777Y17568D1*
X2684Y17531D1*
X2586Y17510D1*
X2486Y17504D1*
X2387Y17514D1*
X2291Y17540D1*
X2199Y17581D1*
X2116Y17635D1*
X2042Y17702D1*
X2001Y17752D1*
X1939Y17683D1*
X1863Y17619D1*
X1777Y17568D1*
X1684Y17531D1*
X1591Y17511D1*
Y15537D1*
Y9977D1*
X1643Y10017D1*
X1712Y10058D1*
X1785Y10090D1*
X1862Y10113D1*
X1941Y10125D1*
X2021Y10128D1*
X2100Y10120D1*
X2178Y10102D1*
X2253Y10075D1*
X2324Y10038D1*
X2390Y9992D1*
X2449Y9939D1*
X2501Y9878D1*
X2545Y9812D1*
X2580Y9740D1*
X2606Y9664D1*
X2622Y9586D1*
X2628Y9506D1*
X2624Y9430D1*
X2610Y9351D1*
X2586Y9275D1*
X2553Y9202D1*
X2511Y9135D1*
X2460Y9073D1*
X2402Y9018D1*
X2380Y9000D1*
X2442Y8946D1*
X2481Y8903D1*
X2627Y8904D1*
X2683Y8948D1*
X2769Y8998D1*
X2863Y9032D1*
X2962Y9048D1*
X3061Y9046D1*
X3159Y9026D1*
X3252Y8988D1*
X3336Y8934D1*
X3409Y8866D1*
X3469Y8786D1*
X3513Y8697D1*
X3540Y8601D1*
X3549Y8500D1*
X3540Y8401D1*
X3513Y8304D1*
X3469Y8215D1*
X3410Y8134D1*
X3337Y8066D1*
X3253Y8012D1*
X3160Y7975D1*
X3063Y7954D1*
X2963Y7952D1*
X2864Y7968D1*
X2770Y8001D1*
X2684Y8051D1*
X2629Y8095D1*
X2628Y7778D1*
Y6872D1*
X1592D1*
X1591Y5980D1*
X2104Y5467D1*
X3437Y5466D1*
X4063D1*
X4112Y5463D1*
X4161Y5454D1*
X4209Y5439D1*
X4254Y5418D1*
X4297Y5392D1*
X4336Y5360D1*
X4370Y5324D1*
X4400Y5284D1*
X4425Y5241D1*
X4444Y5195D1*
X4458Y5146D1*
X4466Y5082D1*
X4467Y3875D1*
X4463Y3825D1*
X4454Y3776D1*
X4439Y3728D1*
X4418Y3683D1*
X4392Y3641D1*
X4360Y3602D1*
X4324Y3567D1*
X4284Y3537D1*
X4241Y3512D1*
X4195Y3493D1*
X4146Y3480D1*
X4082Y3471D1*
X1030D1*
X1029Y917D1*
X1104Y842D1*
X2338D1*
X10062D1*
X10112Y838D1*
X10161Y829D1*
X10239Y800D1*
X10411D1*
Y1589D1*
X10461D1*
X46389Y17569D2*
X46569D1*
Y16431D1*
X45431D1*
Y16661D1*
X45375Y16599D1*
X45296Y16537D1*
X45208Y16491D1*
X45112Y16462D1*
X45013Y16451D1*
X44913Y16458D1*
X44816Y16482D1*
X44726Y16524D1*
X44644Y16582D1*
X44574Y16653D1*
X44518Y16736D1*
X44479Y16827D1*
X44456Y16925D1*
X44451Y17024D1*
X44465Y17123D1*
X44496Y17218D1*
X44544Y17306D1*
X44607Y17383D1*
X44683Y17448D1*
X44769Y17498D1*
X44773Y17500D1*
X44726Y17524D1*
X44644Y17582D1*
X44574Y17653D1*
X44518Y17736D1*
X44479Y17827D1*
X44456Y17925D1*
X44451Y18024D1*
X44465Y18123D1*
X44496Y18218D1*
X44544Y18306D1*
X44607Y18383D1*
X44683Y18448D1*
X44769Y18498D1*
X44863Y18532D1*
X44962Y18548D1*
X45061Y18546D1*
X45159Y18526D1*
X45252Y18488D1*
X45336Y18434D1*
X45409Y18366D1*
X45447Y18319D1*
X45539D1*
X45609Y18398D1*
X45687Y18460D1*
X45715Y18476D1*
X45659Y18513D1*
X45598Y18566D1*
X45546Y18626D1*
X45502Y18693D1*
X45468Y18766D1*
X45445Y18842D1*
X45433Y18921D1*
X45432Y19001D1*
X45442Y19080D1*
X45463Y19157D1*
X45495Y19231D1*
X45537Y19299D1*
X45588Y19361D1*
X45647Y19414D1*
X45713Y19460D1*
X45784Y19495D1*
X45860Y19520D1*
X45939Y19534D1*
X46019Y19537D1*
X46098Y19529D1*
X46176Y19510D1*
X46250Y19480D1*
X46319Y19440D1*
X46382Y19390D1*
X46437Y19332D1*
X46484Y19268D1*
X46521Y19197D1*
X46548Y19121D1*
X46564Y19043D1*
X46569Y18969D1*
X46563Y18889D1*
X46547Y18811D1*
X46519Y18736D1*
X46481Y18665D1*
X46434Y18601D1*
X46378Y18543D1*
X46315Y18495D1*
X46285Y18476D1*
X46344Y18438D1*
X46418Y18371D1*
X46479Y18292D1*
X46525Y18203D1*
X46555Y18108D1*
X46568Y18009D1*
X46567Y17934D1*
X46549Y17836D1*
X46515Y17742D1*
X46465Y17656D1*
X46400Y17580D1*
X46387Y17568D1*
X50889Y17569D2*
X51069D1*
Y16431D1*
X49931D1*
Y16661D1*
X49875Y16599D1*
X49796Y16537D1*
X49708Y16491D1*
X49612Y16462D1*
X49513Y16451D1*
X49413Y16458D1*
X49316Y16482D1*
X49226Y16524D1*
X49144Y16582D1*
X49074Y16653D1*
X49018Y16736D1*
X48979Y16827D1*
X48956Y16925D1*
X48951Y17024D1*
X48965Y17123D1*
X48996Y17218D1*
X49044Y17306D1*
X49107Y17383D1*
X49183Y17448D1*
X49269Y17498D1*
X49273Y17500D1*
X49226Y17524D1*
X49144Y17582D1*
X49074Y17653D1*
X49018Y17736D1*
X48979Y17827D1*
X48956Y17925D1*
X48951Y18024D1*
X48965Y18123D1*
X48996Y18218D1*
X49044Y18306D1*
X49107Y18383D1*
X49183Y18448D1*
X49269Y18498D1*
X49363Y18532D1*
X49462Y18548D1*
X49561Y18546D1*
X49659Y18526D1*
X49752Y18488D1*
X49836Y18434D1*
X49909Y18366D1*
X49957Y18303D1*
X50030D1*
X50074Y18362D1*
X50147Y18430D1*
X50215Y18476D1*
X50159Y18513D1*
X50098Y18566D1*
X50046Y18626D1*
X50002Y18693D1*
X49968Y18766D1*
X49945Y18842D1*
X49933Y18921D1*
X49932Y19001D1*
X49942Y19080D1*
X49963Y19157D1*
X49995Y19231D1*
X50037Y19299D1*
X50088Y19361D1*
X50147Y19414D1*
X50213Y19460D1*
X50284Y19495D1*
X50360Y19520D1*
X50439Y19534D1*
X50519Y19537D1*
X50598Y19529D1*
X50676Y19510D1*
X50750Y19480D1*
X50819Y19440D1*
X50882Y19390D1*
X50937Y19332D1*
X50984Y19268D1*
X51021Y19197D1*
X51048Y19121D1*
X51064Y19043D1*
X51069Y18969D1*
X51063Y18889D1*
X51047Y18811D1*
X51019Y18736D1*
X50981Y18665D1*
X50934Y18601D1*
X50878Y18543D1*
X50815Y18495D1*
X50785Y18476D1*
X50844Y18438D1*
X50918Y18371D1*
X50979Y18292D1*
X51025Y18203D1*
X51055Y18108D1*
X51068Y18009D1*
X51067Y17934D1*
X51049Y17836D1*
X51015Y17742D1*
X50965Y17656D1*
X50900Y17580D1*
X50887Y17568D1*
X47171Y7089D2*
X47913D1*
X47897Y7127D1*
X47883Y7175D1*
X47877Y7225D1*
Y7275D1*
X47883Y7324D1*
X47897Y7372D1*
X47916Y7419D1*
X47941Y7462D1*
X47972Y7501D1*
X48008Y7535D1*
X48048Y7565D1*
X48092Y7589D1*
X48139Y7607D1*
X48187Y7619D1*
X48237Y7624D1*
X48287Y7622D1*
X48336Y7614D1*
X48384Y7599D1*
X48444Y7569D1*
X50055D1*
X50092Y7589D1*
X50139Y7607D1*
X50187Y7619D1*
X50237Y7624D1*
X50287Y7622D1*
X50336Y7614D1*
X50384Y7599D1*
X50429Y7578D1*
X50472Y7551D1*
X50510Y7519D1*
X50543Y7482D1*
X50572Y7441D1*
X50594Y7396D1*
X50611Y7349D1*
X50621Y7300D1*
X50624Y7250D1*
X50621Y7200D1*
X50611Y7151D1*
X50594Y7104D1*
X50573Y7061D1*
X50627Y7076D1*
X50726Y7088D1*
X50826Y7084D1*
X50923Y7063D1*
X51016Y7025D1*
X51101Y6973D1*
X51176Y6906D1*
X51238Y6829D1*
X51287Y6741D1*
X51320Y6647D1*
X51337Y6549D1*
Y6450D1*
X51320Y6352D1*
X51286Y6257D1*
X51238Y6170D1*
X51175Y6093D1*
X51100Y6027D1*
X51070Y6006D1*
X51069Y5948D1*
X51124Y5902D1*
X51191Y5828D1*
X51243Y5743D1*
X51279Y5649D1*
X51297Y5551D1*
Y5450D1*
X51279Y5352D1*
X51243Y5259D1*
X51191Y5173D1*
X51125Y5099D1*
X51046Y5037D1*
X50958Y4991D1*
X50862Y4962D1*
X50763Y4951D1*
X50663Y4958D1*
X50566Y4982D1*
X50476Y5024D1*
X50394Y5082D1*
X50324Y5153D1*
X50268Y5236D1*
X50250Y5274D1*
X50219Y5215D1*
X50160Y5134D1*
X50087Y5066D1*
X50003Y5012D1*
X49910Y4975D1*
X49813Y4954D1*
X49713Y4952D1*
X49614Y4968D1*
X49520Y5001D1*
X49434Y5051D1*
X49358Y5116D1*
X49294Y5193D1*
X49250Y5274D1*
X49219Y5215D1*
X49160Y5134D1*
X49087Y5066D1*
X49003Y5012D1*
X48910Y4975D1*
X48813Y4954D1*
X48713Y4952D1*
X48614Y4968D1*
X48520Y5001D1*
X48434Y5051D1*
X48358Y5116D1*
X48294Y5193D1*
X48246Y5281D1*
X48215Y5375D1*
X48201Y5474D1*
X48206Y5574D1*
X48228Y5671D1*
X48268Y5763D1*
X48323Y5846D1*
X48393Y5918D1*
X48431Y5950D1*
Y6005D1*
X48361Y6058D1*
X48339Y6079D1*
Y5911D1*
X47161D1*
Y7089D1*
X47171D1*
X26922Y12089D2*
X27089D1*
Y10911D1*
X25911D1*
Y11097D1*
X25700Y11096D1*
X25623D1*
X25546Y11037D1*
X25458Y10991D1*
X25362Y10962D1*
X25263Y10951D1*
X25163Y10958D1*
X25066Y10982D1*
X24976Y11024D1*
X24894Y11082D1*
X24824Y11153D1*
X24768Y11236D1*
X24729Y11327D1*
X24706Y11425D1*
X24701Y11524D1*
X24715Y11623D1*
X24746Y11718D1*
X24794Y11806D1*
X24857Y11883D1*
X24933Y11948D1*
X25019Y11998D1*
X25023Y12000D1*
X24976Y12024D1*
X24894Y12082D1*
X24824Y12153D1*
X24768Y12236D1*
X24729Y12327D1*
X24706Y12425D1*
X24701Y12524D1*
X24715Y12623D1*
X24746Y12718D1*
X24794Y12806D1*
X24857Y12883D1*
X24933Y12948D1*
X25019Y12998D1*
X25023Y13000D1*
X24976Y13024D1*
X24894Y13082D1*
X24824Y13153D1*
X24768Y13236D1*
X24729Y13327D1*
X24706Y13425D1*
X24701Y13524D1*
X24715Y13623D1*
X24746Y13718D1*
X24794Y13806D1*
X24857Y13883D1*
X24933Y13948D1*
X25019Y13998D1*
X25023Y14000D1*
X24976Y14024D1*
X24894Y14082D1*
X24824Y14153D1*
X24768Y14236D1*
X24729Y14327D1*
X24706Y14425D1*
X24701Y14524D1*
X24715Y14623D1*
X24746Y14718D1*
X24794Y14806D1*
X24857Y14883D1*
X24933Y14948D1*
X25019Y14998D1*
X25113Y15032D1*
X25212Y15048D1*
X25311Y15046D1*
X25409Y15026D1*
X25502Y14988D1*
X25586Y14934D1*
X25623Y14903D1*
X26073Y14904D1*
X26112Y14942D1*
X26192Y15002D1*
X26281Y15047D1*
X26377Y15076D1*
X26476Y15088D1*
X26576Y15084D1*
X26673Y15063D1*
X26766Y15025D1*
X26851Y14973D1*
X26926Y14906D1*
X26988Y14829D1*
X27037Y14741D1*
X27070Y14647D1*
X27087Y14549D1*
Y14450D1*
X27070Y14352D1*
X27036Y14257D1*
X26988Y14170D1*
X26925Y14093D1*
X26850Y14027D1*
X26810Y14000D1*
X26851Y13973D1*
X26926Y13906D1*
X26988Y13829D1*
X27037Y13741D1*
X27070Y13647D1*
X27087Y13549D1*
Y13450D1*
X27070Y13352D1*
X27036Y13257D1*
X26988Y13170D1*
X26925Y13093D1*
X26850Y13027D1*
X26810Y13000D1*
X26851Y12973D1*
X26926Y12906D1*
X26988Y12829D1*
X27037Y12741D1*
X27070Y12647D1*
X27087Y12549D1*
Y12450D1*
X27070Y12352D1*
X27036Y12257D1*
X26988Y12170D1*
X26925Y12093D1*
X26921Y12089D1*
X27961Y10089D2*
X28079D1*
X28023Y10154D1*
X27981Y10222D1*
X27948Y10295D1*
X27925Y10372D1*
X27913Y10451D1*
X27912Y10531D1*
X27922Y10610D1*
X27942Y10687D1*
X27973Y10761D1*
X28013Y10830D1*
X28062Y10893D1*
X28119Y10949D1*
X28184Y10996D1*
X28189Y11000D1*
X28111Y11058D1*
X28042Y11131D1*
X27986Y11213D1*
X27945Y11304D1*
X27920Y11401D1*
X27911Y11501D1*
X27920Y11600D1*
X27945Y11697D1*
X27987Y11788D1*
X28043Y11870D1*
X28112Y11942D1*
X28191Y12001D1*
X28150Y12027D1*
X28075Y12093D1*
X28012Y12171D1*
X27963Y12258D1*
X27930Y12352D1*
X27913Y12451D1*
X27914Y12551D1*
X27931Y12649D1*
X27964Y12743D1*
X28013Y12830D1*
X28076Y12908D1*
X28151Y12974D1*
X28191Y13001D1*
X28150Y13027D1*
X28075Y13093D1*
X28012Y13171D1*
X27963Y13258D1*
X27930Y13352D1*
X27913Y13451D1*
X27914Y13551D1*
X27931Y13649D1*
X27964Y13743D1*
X28013Y13830D1*
X28076Y13908D1*
X28151Y13974D1*
X28191Y14001D1*
X28150Y14027D1*
X28075Y14093D1*
X28012Y14171D1*
X27963Y14258D1*
X27930Y14352D1*
X27913Y14451D1*
X27914Y14551D1*
X27931Y14649D1*
X27964Y14743D1*
X28013Y14830D1*
X28076Y14908D1*
X28151Y14974D1*
X28191Y15001D1*
X28150Y15027D1*
X28075Y15093D1*
X28012Y15171D1*
X27963Y15258D1*
X27930Y15352D1*
X27913Y15451D1*
X27914Y15551D1*
X27931Y15649D1*
X27964Y15743D1*
X28013Y15830D1*
X28076Y15908D1*
X28151Y15974D1*
X28191Y16001D1*
X28158Y16021D1*
X28096Y16072D1*
X28042Y16131D1*
X27996Y16196D1*
X27959Y16267D1*
X27933Y16343D1*
X27917Y16421D1*
X27911Y16501D1*
X27917Y16580D1*
X27933Y16659D1*
X27960Y16734D1*
X27997Y16805D1*
X28043Y16870D1*
X28097Y16929D1*
X28159Y16980D1*
X28227Y17021D1*
X28300Y17054D1*
X28377Y17076D1*
X28456Y17087D1*
X28536Y17088D1*
X28615Y17077D1*
X28692Y17056D1*
X28766Y17025D1*
X28835Y16984D1*
X28897Y16934D1*
X28952Y16877D1*
X28999Y16812D1*
X29037Y16741D1*
X29065Y16666D1*
X29082Y16588D1*
X29089Y16509D1*
X29084Y16430D1*
X29070Y16352D1*
X29044Y16276D1*
X29009Y16204D1*
X28964Y16138D1*
X28911Y16078D1*
X28850Y16027D1*
X28810Y16000D1*
X28890Y15941D1*
X28959Y15869D1*
X29015Y15786D1*
X29055Y15695D1*
X29080Y15598D1*
X29089Y15500D1*
X29080Y15400D1*
X29055Y15304D1*
X29014Y15213D1*
X28958Y15130D1*
X28889Y15058D1*
X28810Y15000D1*
X28851Y14973D1*
X28926Y14906D1*
X28988Y14829D1*
X29037Y14741D1*
X29070Y14647D1*
X29087Y14549D1*
Y14450D1*
X29070Y14352D1*
X29036Y14257D1*
X28988Y14170D1*
X28925Y14093D1*
X28850Y14027D1*
X28810Y14000D1*
X28851Y13973D1*
X28926Y13906D1*
X28988Y13829D1*
X29037Y13741D1*
X29070Y13647D1*
X29087Y13549D1*
Y13450D1*
X29070Y13352D1*
X29036Y13257D1*
X28988Y13170D1*
X28925Y13093D1*
X28850Y13027D1*
X28810Y13000D1*
X28851Y12973D1*
X28926Y12906D1*
X28988Y12829D1*
X29037Y12741D1*
X29070Y12647D1*
X29087Y12549D1*
Y12450D1*
X29070Y12352D1*
X29036Y12257D1*
X28988Y12170D1*
X28925Y12093D1*
X28850Y12027D1*
X28810Y12000D1*
X28851Y11973D1*
X28926Y11906D1*
X28988Y11829D1*
X29037Y11741D1*
X29070Y11647D1*
X29087Y11549D1*
Y11450D1*
X29070Y11352D1*
X29036Y11257D1*
X28988Y11170D1*
X28925Y11093D1*
X28850Y11027D1*
X28810Y11000D1*
X28851Y10973D1*
X28912Y10921D1*
X28965Y10861D1*
X29010Y10795D1*
X29045Y10723D1*
X29070Y10647D1*
X29085Y10568D1*
X29089Y10490D1*
X29082Y10410D1*
X29064Y10332D1*
X29036Y10257D1*
X28999Y10187D1*
X28952Y10122D1*
X28921Y10088D1*
X29089Y10089D1*
Y8911D1*
X27911D1*
Y10089D1*
X27961D1*
X26481Y5069D2*
X27569D1*
Y3931D1*
X26431D1*
X26430Y4110D1*
X26371Y4056D1*
X26305Y4010D1*
X26234Y3974D1*
X26158Y3949D1*
X26079Y3935D1*
X25999Y3931D1*
X25920Y3939D1*
X25842Y3958D1*
X25768Y3988D1*
X25699Y4028D1*
X25636Y4077D1*
X25580Y4134D1*
X25533Y4199D1*
X25496Y4269D1*
X25468Y4345D1*
X25452Y4423D1*
X25447Y4503D1*
X25453Y4582D1*
X25470Y4660D1*
X25498Y4735D1*
X25536Y4806D1*
X25583Y4870D1*
X25639Y4927D1*
X25703Y4975D1*
X25773Y5014D1*
X25847Y5043D1*
X25925Y5062D1*
X26005Y5069D1*
X26084Y5065D1*
X26163Y5050D1*
X26238Y5024D1*
X26310Y4987D1*
X26375Y4941D1*
X26431Y4889D1*
Y5069D1*
X26481D1*
X29981D2*
X31069D1*
Y3931D1*
X30839D1*
X30909Y3866D1*
X30969Y3786D1*
X31013Y3697D1*
X31040Y3601D1*
X31049Y3500D1*
X31040Y3401D1*
X31013Y3304D1*
X30969Y3215D1*
X30910Y3134D1*
X30837Y3066D1*
X30753Y3012D1*
X30660Y2975D1*
X30563Y2954D1*
X30463Y2952D1*
X30364Y2968D1*
X30270Y3001D1*
X30184Y3051D1*
X30108Y3116D1*
X30044Y3193D1*
X30000Y3274D1*
X29969Y3215D1*
X29910Y3134D1*
X29837Y3066D1*
X29753Y3012D1*
X29660Y2975D1*
X29563Y2954D1*
X29463Y2952D1*
X29364Y2968D1*
X29270Y3001D1*
X29184Y3051D1*
X29108Y3116D1*
X29044Y3193D1*
X28996Y3281D1*
X28965Y3375D1*
X28951Y3474D1*
X28956Y3574D1*
X28978Y3671D1*
X29018Y3763D1*
X29073Y3846D1*
X29143Y3918D1*
X29181Y3950D1*
Y4039D1*
X29107Y4104D1*
X29044Y4182D1*
X28996Y4269D1*
X28963Y4364D1*
X28948Y4463D1*
X28950Y4562D1*
X28970Y4660D1*
X29006Y4753D1*
X29058Y4839D1*
X29125Y4913D1*
X29203Y4975D1*
X29291Y5023D1*
X29386Y5054D1*
X29485Y5068D1*
X29584Y5065D1*
X29682Y5044D1*
X29775Y5007D1*
X29859Y4954D1*
X29932Y4888D1*
X29931Y5069D1*
X29981D1*
X32211Y5089D2*
X33339D1*
X33340Y4922D1*
X33401Y4974D1*
X33468Y5017D1*
X33541Y5050D1*
X33617Y5073D1*
X33696Y5086D1*
X33776Y5088D1*
X33855Y5079D1*
X33933Y5059D1*
X34007Y5030D1*
X34076Y4990D1*
X34140Y4941D1*
X34196Y4884D1*
X34244Y4820D1*
X34283Y4750D1*
X34312Y4676D1*
X34330Y4598D1*
X34338Y4519D1*
X34336Y4440D1*
X34322Y4361D1*
X34298Y4285D1*
X34264Y4213D1*
X34220Y4146D1*
X34168Y4085D1*
X34108Y4033D1*
X34041Y3988D1*
X33969Y3954D1*
X33893Y3929D1*
X33815Y3915D1*
X33735Y3912D1*
X33655Y3919D1*
X33577Y3937D1*
X33503Y3966D1*
X33432Y4004D1*
X33368Y4052D1*
X33338Y4079D1*
X33339Y3911D1*
X33115D1*
X33159Y3866D1*
X33219Y3786D1*
X33263Y3697D1*
X33290Y3601D1*
X33299Y3500D1*
X33290Y3401D1*
X33263Y3304D1*
X33219Y3215D1*
X33160Y3134D1*
X33087Y3066D1*
X33003Y3012D1*
X32910Y2975D1*
X32813Y2954D1*
X32713Y2952D1*
X32614Y2968D1*
X32520Y3001D1*
X32434Y3051D1*
X32358Y3116D1*
X32294Y3193D1*
X32246Y3281D1*
X32215Y3375D1*
X32201Y3474D1*
X32206Y3574D1*
X32228Y3671D1*
X32268Y3763D1*
X32323Y3846D1*
X32387Y3912D1*
X32161Y3911D1*
Y5089D1*
X32211D1*
X3672Y8128D2*
X3745D1*
X3703Y8191D1*
X3661Y8282D1*
X3634Y8378D1*
X3622Y8477D1*
X3627Y8577D1*
X3647Y8675D1*
X3682Y8768D1*
X3732Y8855D1*
X3795Y8932D1*
X3870Y9000D1*
X3813Y9049D1*
X3759Y9108D1*
X3713Y9174D1*
X3676Y9245D1*
X3648Y9320D1*
X3630Y9397D1*
X3622Y9477D1*
X3625Y9557D1*
X3637Y9636D1*
X3659Y9713D1*
X3691Y9786D1*
X3732Y9855D1*
X3781Y9918D1*
X3838Y9974D1*
X3901Y10022D1*
X3971Y10062D1*
X4044Y10093D1*
X4121Y10115D1*
X4201Y10126D1*
X4281Y10127D1*
X4360Y10118D1*
X4438Y10099D1*
X4512Y10071D1*
X4583Y10033D1*
X4648Y9986D1*
X4706Y9932D1*
X4757Y9870D1*
X4800Y9803D1*
X4834Y9730D1*
X4859Y9654D1*
X4873Y9576D1*
X4878Y9500D1*
X4873Y9420D1*
X4858Y9342D1*
X4833Y9266D1*
X4798Y9194D1*
X4755Y9127D1*
X4703Y9065D1*
X4644Y9011D1*
X4630Y9000D1*
X4692Y8946D1*
X4731Y8903D1*
X4877Y8904D1*
X4933Y8948D1*
X5019Y8998D1*
X5113Y9032D1*
X5212Y9048D1*
X5311Y9046D1*
X5409Y9026D1*
X5502Y8988D1*
X5586Y8934D1*
X5659Y8866D1*
X5719Y8786D1*
X5763Y8697D1*
X5790Y8601D1*
X5799Y8500D1*
X5790Y8401D1*
X5763Y8304D1*
X5719Y8215D1*
X5660Y8134D1*
X5587Y8066D1*
X5503Y8012D1*
X5410Y7975D1*
X5313Y7954D1*
X5213Y7952D1*
X5114Y7968D1*
X5020Y8001D1*
X4934Y8051D1*
X4879Y8095D1*
X4878Y7778D1*
Y6872D1*
X3622D1*
Y8128D1*
X3672D1*
X12698Y4861D2*
X12946Y5108D1*
Y9281D1*
X12916Y9331D1*
X12903Y9361D1*
X12904Y7531D1*
X12901Y7482D1*
X12892Y7433D1*
X12876Y7385D1*
X12855Y7340D1*
X12829Y7297D1*
X12786Y7246D1*
X12772Y7232D1*
X12773Y5219D1*
X12768Y5169D1*
X12756Y5120D1*
X12736Y5075D1*
X12719Y5046D1*
X12683Y5004D1*
X12441Y4761D1*
X12403Y4729D1*
X12360Y4704D1*
X12314Y4685D1*
X12281Y4677D1*
X12226Y4672D1*
X7312D1*
X7314Y4630D1*
X9130Y2814D1*
X13798Y2815D1*
X13842Y2839D1*
X13889Y2857D1*
X13937Y2869D1*
X13987Y2874D1*
X14037Y2872D1*
X14086Y2864D1*
X14134Y2849D1*
X14179Y2828D1*
X14222Y2801D1*
X14260Y2769D1*
X14293Y2732D1*
X14322Y2691D1*
X14344Y2646D1*
X14361Y2599D1*
X14371Y2550D1*
X14374Y2500D1*
X14371Y2450D1*
X14361Y2401D1*
X14344Y2354D1*
X14322Y2309D1*
X14294Y2268D1*
X14260Y2231D1*
X14222Y2199D1*
X14180Y2172D1*
X14135Y2151D1*
X14087Y2136D1*
X14038Y2128D1*
X13988Y2126D1*
X13938Y2131D1*
X13889Y2143D1*
X13843Y2161D1*
X13798Y2186D1*
X9000D1*
X8950Y2190D1*
X8902Y2202D1*
X8856Y2221D1*
X8813Y2248D1*
X8778Y2278D1*
X6778Y4278D1*
X6746Y4316D1*
X6720Y4359D1*
X6701Y4405D1*
X6689Y4454D1*
X6686Y4500D1*
Y7750D1*
X6690Y7800D1*
X6702Y7848D1*
X6721Y7894D1*
X6748Y7937D1*
X6780Y7974D1*
X6819Y8006D1*
X6862Y8032D1*
X6908Y8050D1*
X6957Y8061D1*
X7000Y8064D1*
X7548Y8065D1*
X7592Y8089D1*
X7639Y8107D1*
X7687Y8119D1*
X7737Y8124D1*
X7787Y8122D1*
X7836Y8114D1*
X7884Y8099D1*
X7929Y8078D1*
X7972Y8051D1*
X8010Y8019D1*
X8043Y7982D1*
X8072Y7941D1*
X8094Y7896D1*
X8111Y7849D1*
X8121Y7800D1*
X8124Y7750D1*
X8121Y7700D1*
X8111Y7651D1*
X8094Y7604D1*
X8072Y7559D1*
X8044Y7518D1*
X8010Y7481D1*
X7972Y7449D1*
X7930Y7422D1*
X7885Y7401D1*
X7837Y7386D1*
X7788Y7378D1*
X7738Y7376D1*
X7688Y7381D1*
X7639Y7393D1*
X7593Y7411D1*
X7548Y7436D1*
X7314D1*
Y7120D1*
X7390Y7099D1*
X7435Y7078D1*
X7478Y7051D1*
X7516Y7019D1*
X7549Y6982D1*
X7578Y6941D1*
X7600Y6896D1*
X7617Y6849D1*
X7627Y6800D1*
X7630Y6750D1*
X7627Y6700D1*
X7617Y6651D1*
X7600Y6604D1*
X7578Y6559D1*
X7559Y6532D1*
X7560Y5280D1*
X10206D1*
X12101D1*
X12165Y5345D1*
Y7233D1*
X12118Y7300D1*
X12092Y7353D1*
X12075Y7410D1*
X12066Y7469D1*
X12065Y7528D1*
X12074Y7587D1*
X12096Y7656D1*
Y13750D1*
X12099Y13800D1*
X12108Y13849D1*
X12124Y13897D1*
X12145Y13942D1*
X12171Y13984D1*
X12202Y14023D1*
X12238Y14058D1*
X12278Y14088D1*
X12322Y14113D1*
X12368Y14132D1*
X12416Y14145D1*
X12465Y14153D1*
X12515Y14154D1*
X12565Y14149D1*
X12614Y14138D1*
X12661Y14121D1*
X12705Y14098D1*
X12747Y14070D1*
X12784Y14037D1*
X12818Y14000D1*
X12846Y13959D1*
X12869Y13914D1*
X12887Y13867D1*
X12898Y13819D1*
X12904Y13750D1*
Y10311D1*
X13502Y10312D1*
X13552Y10308D1*
X13600Y10296D1*
X13646Y10277D1*
X13689Y10250D1*
X13724Y10220D1*
X13972Y9972D1*
X14004Y9934D1*
X14030Y9891D1*
X14049Y9845D1*
X14061Y9796D1*
X14064Y9750D1*
Y8880D1*
X15078Y7866D1*
X15134Y7849D1*
X15179Y7828D1*
X15222Y7801D1*
X15260Y7769D1*
X15293Y7732D1*
X15322Y7691D1*
X15344Y7646D1*
X15361Y7599D1*
X15371Y7550D1*
X15374Y7500D1*
X15371Y7450D1*
X15361Y7401D1*
X15344Y7354D1*
X15322Y7309D1*
X15294Y7268D1*
X15260Y7231D1*
X15222Y7199D1*
X15180Y7172D1*
X15135Y7151D1*
X15087Y7136D1*
X15038Y7128D1*
X14988Y7126D1*
X14938Y7131D1*
X14889Y7143D1*
X14843Y7161D1*
X14799Y7185D1*
X14759Y7214D1*
X14723Y7249D1*
X14692Y7288D1*
X14666Y7331D1*
X14647Y7377D1*
X14635Y7421D1*
X13554Y8500D1*
Y4982D1*
X13550Y4933D1*
X13538Y4884D1*
X13518Y4838D1*
X13500Y4810D1*
X13465Y4767D1*
X13128Y4430D1*
X13121Y4393D1*
X13104Y4346D1*
X13082Y4302D1*
X13053Y4260D1*
X13020Y4223D1*
X12982Y4191D1*
X12940Y4164D1*
X12894Y4143D1*
X12847Y4128D1*
X12797Y4120D1*
X12747Y4118D1*
X12698Y4123D1*
X12649Y4135D1*
X12602Y4153D1*
X12559Y4177D1*
X12518Y4206D1*
X12483Y4241D1*
X12452Y4280D1*
X12426Y4323D1*
X12407Y4369D1*
X12393Y4417D1*
X12387Y4467D1*
Y4517D1*
X12393Y4566D1*
X12406Y4615D1*
X12426Y4661D1*
X12451Y4704D1*
X12482Y4743D1*
X12518Y4778D1*
X12558Y4807D1*
X12602Y4831D1*
X12649Y4849D1*
X12699Y4861D1*
X17702Y9314D2*
X20500D1*
X20550Y9310D1*
X20598Y9298D1*
X20644Y9279D1*
X20687Y9252D1*
X20724Y9220D1*
X20756Y9181D1*
X20782Y9138D1*
X20800Y9092D1*
X20811Y9043D1*
X20814Y9000D1*
Y4250D1*
X20810Y4200D1*
X20798Y4152D1*
X20779Y4106D1*
X20752Y4063D1*
X20720Y4026D1*
X20681Y3994D1*
X20638Y3968D1*
X20592Y3950D1*
X20543Y3939D1*
X20500Y3936D1*
X20452D1*
X20385Y3901D1*
X20337Y3886D1*
X20288Y3878D1*
X20238Y3876D1*
X20188Y3881D1*
X20139Y3893D1*
X20093Y3911D1*
X20049Y3935D1*
X20009Y3964D1*
X19973Y3999D1*
X19942Y4038D1*
X19916Y4081D1*
X19897Y4127D1*
X19883Y4175D1*
X19877Y4225D1*
Y4275D1*
X19883Y4324D1*
X19897Y4372D1*
X19916Y4419D1*
X19941Y4462D1*
X19972Y4501D1*
X20008Y4535D1*
X20048Y4565D1*
X20092Y4589D1*
X20139Y4607D1*
X20186Y4618D1*
Y8686D1*
X17702D1*
X17635Y8651D1*
X17587Y8636D1*
X17538Y8628D1*
X17488Y8626D1*
X17438Y8631D1*
X17389Y8643D1*
X17343Y8661D1*
X17299Y8685D1*
X17259Y8714D1*
X17223Y8749D1*
X17192Y8788D1*
X17166Y8831D1*
X17147Y8877D1*
X17133Y8925D1*
X17127Y8975D1*
Y9025D1*
X17133Y9074D1*
X17147Y9122D1*
X17166Y9169D1*
X17191Y9212D1*
X17222Y9251D1*
X17258Y9285D1*
X17298Y9315D1*
X17342Y9339D1*
X17389Y9357D1*
X17437Y9369D1*
X17487Y9374D1*
X17537Y9372D1*
X17586Y9364D1*
X17634Y9349D1*
X17702Y9314D1*
X21298Y2686D2*
X16952D1*
X16885Y2651D1*
X16837Y2636D1*
X16788Y2628D1*
X16738Y2626D1*
X16688Y2631D1*
X16639Y2643D1*
X16593Y2661D1*
X16549Y2685D1*
X16509Y2714D1*
X16473Y2749D1*
X16442Y2788D1*
X16416Y2831D1*
X16397Y2877D1*
X16383Y2925D1*
X16377Y2975D1*
Y3025D1*
X16383Y3074D1*
X16397Y3122D1*
X16416Y3169D1*
X16441Y3212D1*
X16472Y3251D1*
X16508Y3285D1*
X16548Y3315D1*
X16592Y3339D1*
X16639Y3357D1*
X16687Y3369D1*
X16737Y3374D1*
X16787Y3372D1*
X16836Y3364D1*
X16884Y3349D1*
X16952Y3314D1*
X16957Y3349D1*
X16313Y3993D1*
X16314Y2850D1*
Y2702D1*
X16344Y2646D1*
X16361Y2599D1*
X16371Y2550D1*
X16374Y2500D1*
X16371Y2450D1*
X16361Y2401D1*
X16344Y2354D1*
X16322Y2309D1*
X16294Y2268D1*
X16260Y2231D1*
X16222Y2199D1*
X16180Y2172D1*
X16135Y2151D1*
X16087Y2136D1*
X16038Y2128D1*
X15988Y2126D1*
X15938Y2131D1*
X15889Y2143D1*
X15843Y2161D1*
X15799Y2185D1*
X15759Y2214D1*
X15723Y2249D1*
X15692Y2288D1*
X15666Y2331D1*
X15647Y2377D1*
X15633Y2425D1*
X15627Y2475D1*
Y2525D1*
X15633Y2574D1*
X15647Y2622D1*
X15666Y2669D1*
X15686Y2702D1*
Y8000D1*
X15690Y8050D1*
X15702Y8098D1*
X15721Y8144D1*
X15748Y8187D1*
X15780Y8224D1*
X15819Y8256D1*
X15862Y8282D1*
X15908Y8300D1*
X15957Y8311D1*
X16000Y8314D1*
X17000D1*
X17050Y8310D1*
X17098Y8298D1*
X17144Y8279D1*
X17187Y8252D1*
X17222Y8222D1*
X18972Y6472D1*
X19004Y6434D1*
X19030Y6391D1*
X19049Y6345D1*
X19061Y6296D1*
X19064Y6250D1*
Y5452D1*
X19094Y5396D1*
X19111Y5349D1*
X19121Y5300D1*
X19124Y5250D1*
X19121Y5200D1*
X19111Y5151D1*
X19094Y5104D1*
X19072Y5059D1*
X19044Y5018D1*
X19010Y4981D1*
X18972Y4949D1*
X18930Y4922D1*
X18885Y4901D1*
X18837Y4886D1*
X18788Y4878D1*
X18738Y4876D1*
X18688Y4881D1*
X18639Y4893D1*
X18593Y4911D1*
X18549Y4935D1*
X18509Y4964D1*
X18473Y4999D1*
X18442Y5038D1*
X18416Y5081D1*
X18397Y5127D1*
X18383Y5175D1*
X18377Y5225D1*
Y5275D1*
X18383Y5324D1*
X18397Y5372D1*
X18416Y5419D1*
X18436Y5452D1*
Y6120D1*
X16870Y7686D1*
X16823D1*
X16844Y7646D1*
X16861Y7599D1*
X16871Y7550D1*
X16874Y7500D1*
X16871Y7450D1*
X16861Y7401D1*
X16844Y7354D1*
X16814Y7298D1*
Y4380D1*
X17379Y3815D1*
X19650Y3814D1*
X21186D1*
Y7048D1*
X21166Y7081D1*
X21147Y7127D1*
X21133Y7175D1*
X21127Y7225D1*
Y7275D1*
X21133Y7324D1*
X21147Y7372D1*
X21181Y7444D1*
Y11117D1*
X21147Y11190D1*
X21133Y11238D1*
X21127Y11287D1*
Y11337D1*
X21133Y11387D1*
X21147Y11435D1*
X21166Y11481D1*
X21191Y11524D1*
X21222Y11563D1*
X21258Y11598D1*
X21298Y11628D1*
X21342Y11652D1*
X21389Y11670D1*
X21437Y11681D1*
X21487Y11686D1*
X21537Y11685D1*
X21586Y11676D1*
X21634Y11662D1*
X21679Y11641D1*
X21722Y11614D1*
X21760Y11582D1*
X21793Y11545D1*
X21822Y11503D1*
X21844Y11459D1*
X21861Y11412D1*
X21871Y11363D1*
X21874Y11313D1*
X21871Y11263D1*
X21861Y11214D1*
X21844Y11166D1*
X21819Y11118D1*
Y7445D1*
X21844Y7396D1*
X21861Y7349D1*
X21871Y7300D1*
X21874Y7250D1*
X21871Y7200D1*
X21861Y7151D1*
X21844Y7104D1*
X21814Y7048D1*
Y6064D1*
X23548Y6065D1*
X23592Y6089D1*
X23639Y6107D1*
X23687Y6119D1*
X23737Y6124D1*
X23787Y6122D1*
X23836Y6114D1*
X23884Y6099D1*
X23929Y6078D1*
X23972Y6051D1*
X24010Y6019D1*
X24043Y5982D1*
X24072Y5941D1*
X24094Y5896D1*
X24111Y5849D1*
X24121Y5800D1*
X24124Y5750D1*
X24121Y5700D1*
X24111Y5651D1*
X24094Y5604D1*
X24072Y5559D1*
X24044Y5518D1*
X24010Y5481D1*
X23972Y5449D1*
X23930Y5422D1*
X23885Y5401D1*
X23837Y5386D1*
X23788Y5378D1*
X23738Y5376D1*
X23688Y5381D1*
X23639Y5393D1*
X23593Y5411D1*
X23548Y5436D1*
X21814D1*
Y3500D1*
X21810Y3450D1*
X21798Y3402D1*
X21779Y3356D1*
X21747Y3307D1*
X21760Y3269D1*
X21793Y3232D1*
X21822Y3191D1*
X21844Y3146D1*
X21861Y3099D1*
X21871Y3050D1*
X21874Y3000D1*
X21871Y2950D1*
X21861Y2901D1*
X21844Y2854D1*
X21822Y2809D1*
X21794Y2768D1*
X21760Y2731D1*
X21722Y2699D1*
X21680Y2672D1*
X21635Y2651D1*
X21587Y2636D1*
X21538Y2628D1*
X21488Y2626D1*
X21438Y2631D1*
X21389Y2643D1*
X21343Y2661D1*
X21298Y2686D1*
X12380Y3814D2*
X13548Y3815D1*
X13592Y3839D1*
X13639Y3857D1*
X13687Y3869D1*
X13737Y3874D1*
X13787Y3872D1*
X13836Y3864D1*
X13884Y3849D1*
X13929Y3828D1*
X13972Y3801D1*
X14010Y3769D1*
X14043Y3732D1*
X14072Y3691D1*
X14094Y3646D1*
X14107Y3610D1*
X14179Y3578D1*
X14222Y3551D1*
X14260Y3519D1*
X14293Y3482D1*
X14322Y3441D1*
X14344Y3396D1*
X14361Y3349D1*
X14371Y3300D1*
X14374Y3250D1*
X14371Y3200D1*
X14361Y3151D1*
X14344Y3104D1*
X14322Y3059D1*
X14294Y3018D1*
X14260Y2981D1*
X14222Y2949D1*
X14180Y2922D1*
X14135Y2901D1*
X14087Y2886D1*
X14038Y2878D1*
X13988Y2876D1*
X13938Y2881D1*
X13889Y2893D1*
X13843Y2911D1*
X13798Y2936D1*
X10205D1*
X10136Y2901D1*
X10089Y2886D1*
X10040Y2878D1*
X9990Y2876D1*
X9940Y2881D1*
X9891Y2893D1*
X9845Y2911D1*
X9801Y2935D1*
X9761Y2964D1*
X9725Y2999D1*
X9694Y3038D1*
X9668Y3081D1*
X9649Y3127D1*
X9635Y3175D1*
X9629Y3225D1*
Y3275D1*
X9635Y3324D1*
X9649Y3372D1*
X9668Y3419D1*
X9693Y3462D1*
X9724Y3501D1*
X9760Y3535D1*
X9800Y3565D1*
X9844Y3589D1*
X9891Y3607D1*
X9939Y3619D1*
X9989Y3624D1*
X10039Y3622D1*
X10088Y3614D1*
X10136Y3599D1*
X10204Y3564D1*
X11741D1*
X11668Y3636D1*
X11618Y3628D1*
X11568Y3626D1*
X11519Y3631D1*
X11470Y3643D1*
X11423Y3661D1*
X11380Y3685D1*
X11339Y3714D1*
X11303Y3749D1*
X11272Y3788D1*
X11247Y3831D1*
X11227Y3877D1*
X11214Y3925D1*
X11207Y3975D1*
Y4025D1*
X11214Y4074D1*
X11227Y4122D1*
X11247Y4169D1*
X11272Y4212D1*
X11303Y4251D1*
X11339Y4285D1*
X11379Y4315D1*
X11423Y4339D1*
X11470Y4357D1*
X11518Y4369D1*
X11568Y4374D1*
X11618Y4372D1*
X11667Y4364D1*
X11715Y4349D1*
X11785Y4312D1*
X11848Y4298D1*
X11894Y4279D1*
X11937Y4252D1*
X11972Y4222D1*
X12380Y3814D1*
X47699Y2163D2*
X47244Y2618D1*
X46695D1*
X46635Y2588D1*
X46587Y2574D1*
X46538Y2565D1*
X46488Y2564D1*
X46438Y2569D1*
X46389Y2580D1*
X46343Y2598D1*
X46299Y2622D1*
X46259Y2652D1*
X46223Y2686D1*
X46192Y2726D1*
X46166Y2769D1*
X46147Y2815D1*
X46133Y2863D1*
X46127Y2912D1*
Y2962D1*
X46133Y3012D1*
X46147Y3060D1*
X46166Y3106D1*
X46191Y3149D1*
X46222Y3188D1*
X46258Y3223D1*
X46298Y3253D1*
X46342Y3277D1*
X46389Y3295D1*
X46437Y3306D1*
X46487Y3311D1*
X46537Y3310D1*
X46586Y3301D1*
X46634Y3287D1*
X46694Y3256D1*
X47375D1*
X47425Y3253D1*
X47473Y3241D1*
X47520Y3222D1*
X47562Y3196D1*
X47636Y3128D1*
X48150Y2614D1*
X48197Y2599D1*
X48242Y2578D1*
X48284Y2551D1*
X48322Y2519D1*
X48356Y2482D1*
X48384Y2441D1*
X48407Y2396D1*
X48423Y2349D1*
X48433Y2300D1*
X48437Y2250D1*
X48433Y2200D1*
X48423Y2151D1*
X48407Y2104D1*
X48384Y2059D1*
X48356Y2018D1*
X48323Y1981D1*
X48284Y1949D1*
X48242Y1922D1*
X48197Y1901D1*
X48149Y1886D1*
X48100Y1878D1*
X48050Y1876D1*
X48000Y1881D1*
X47952Y1893D1*
X47905Y1911D1*
X47861Y1935D1*
X47821Y1964D1*
X47785Y1999D1*
X47754Y2038D1*
X47729Y2081D1*
X47709Y2127D1*
X47700Y2162D1*
X46993Y10945D2*
Y14930D1*
X46959Y15002D1*
X46946Y15050D1*
X46939Y15100D1*
Y15150D1*
X46946Y15199D1*
X46959Y15247D1*
X46979Y15294D1*
X47004Y15337D1*
X47035Y15376D1*
X47071Y15410D1*
X47111Y15440D1*
X47155Y15464D1*
X47201Y15482D1*
X47250Y15494D1*
X47300Y15499D1*
X47350Y15497D1*
X47399Y15489D1*
X47447Y15474D1*
X47492Y15453D1*
X47534Y15426D1*
X47572Y15394D1*
X47606Y15357D1*
X47634Y15316D1*
X47657Y15271D1*
X47673Y15224D1*
X47683Y15175D1*
X47687Y15125D1*
X47683Y15075D1*
X47673Y15026D1*
X47657Y14979D1*
X47632Y14931D1*
X47631Y10945D1*
X47657Y10896D1*
X47673Y10849D1*
X47683Y10800D1*
X47687Y10750D1*
X47683Y10700D1*
X47673Y10651D1*
X47657Y10604D1*
X47634Y10559D1*
X47606Y10518D1*
X47573Y10481D1*
X47534Y10449D1*
X47492Y10422D1*
X47447Y10401D1*
X47399Y10386D1*
X47350Y10378D1*
X47300Y10376D1*
X47250Y10381D1*
X47202Y10393D1*
X47155Y10411D1*
X47111Y10435D1*
X47071Y10464D1*
X47035Y10499D1*
X47004Y10538D1*
X46979Y10581D1*
X46959Y10627D1*
X46946Y10675D1*
X46939Y10725D1*
Y10775D1*
X46946Y10824D1*
X46959Y10872D1*
X46994Y10944D1*
X50993Y11195D2*
Y14867D1*
X50959Y14940D1*
X50946Y14988D1*
X50939Y15037D1*
Y15087D1*
X50946Y15137D1*
X50959Y15185D1*
X50979Y15231D1*
X51004Y15274D1*
X51035Y15313D1*
X51071Y15348D1*
X51111Y15378D1*
X51155Y15402D1*
X51201Y15420D1*
X51250Y15431D1*
X51300Y15436D1*
X51350Y15435D1*
X51399Y15426D1*
X51447Y15412D1*
X51492Y15391D1*
X51534Y15364D1*
X51572Y15332D1*
X51606Y15295D1*
X51634Y15253D1*
X51657Y15209D1*
X51673Y15162D1*
X51683Y15113D1*
X51687Y15063D1*
X51683Y15013D1*
X51673Y14964D1*
X51657Y14916D1*
X51632Y14868D1*
X51631Y11195D1*
X51657Y11146D1*
X51673Y11099D1*
X51683Y11050D1*
X51687Y11000D1*
X51683Y10950D1*
X51673Y10901D1*
X51657Y10854D1*
X51634Y10809D1*
X51606Y10768D1*
X51573Y10731D1*
X51534Y10699D1*
X51492Y10672D1*
X51447Y10651D1*
X51399Y10636D1*
X51350Y10628D1*
X51300Y10626D1*
X51250Y10631D1*
X51202Y10643D1*
X51155Y10661D1*
X51111Y10685D1*
X51071Y10714D1*
X51035Y10749D1*
X51004Y10788D1*
X50979Y10831D1*
X50959Y10877D1*
X50946Y10925D1*
X50939Y10975D1*
Y11025D1*
X50946Y11074D1*
X50959Y11122D1*
X50994Y11194D1*
X16000Y1588D2*
D19*
Y1000D1*
X17000Y1588D2*
Y1000D1*
X10400Y20000D2*
Y19412D1*
X38000Y3000D2*
Y2412D1*
Y3000D2*
X38588D1*
X37000D2*
Y2412D1*
X36412Y3000D2*
X37000D1*
X42000Y14588D2*
Y14000D1*
X42588D1*
X42000Y7588D2*
Y7000D1*
X42588D1*
X42000Y17000D2*
Y16412D1*
Y20588D2*
Y20000D1*
X15250Y16750D2*
Y16142D1*
X46000Y19537D2*
Y18969D1*
X45431D2*
X46569D1*
X50500Y19537D2*
Y18969D1*
X49931D2*
X51069D1*
X47750Y7088D2*
Y5912D1*
X47162Y6500D2*
X47750D1*
X27912Y10500D2*
X29088D1*
X28500Y17088D2*
Y16500D1*
X27912D2*
X29088D1*
X26016Y5069D2*
Y3931D1*
X25447Y4500D2*
X26016D1*
X33750Y5088D2*
Y3912D1*
Y4500D2*
X34338D1*
X2000Y10128D2*
Y9500D1*
X2628D1*
X4250Y10128D2*
Y9500D1*
X3622D2*
X4878D1*
D31*
X11000Y1000D3*
D32*
X12000D3*
X13000D3*
X14000D3*
X15000D3*
X16000D3*
X17000D3*
X18000D3*
D31*
X9400Y20000D3*
D32*
X10400D3*
X11400D3*
X12400D3*
X13400D3*
X14400D3*
X15400D3*
X16400D3*
D31*
X38000D3*
D32*
X37000D3*
X38000Y19000D3*
X37000D3*
X38000Y18000D3*
X37000D3*
X38000Y17000D3*
X37000D3*
X38000Y16000D3*
X37000D3*
X38000Y15000D3*
X37000D3*
X38000Y14000D3*
X37000D3*
X38000Y13000D3*
X37000D3*
X38000Y12000D3*
X37000D3*
X38000Y11000D3*
X37000D3*
X38000Y10000D3*
X37000D3*
X38000Y9000D3*
X37000D3*
X38000Y8000D3*
X37000D3*
X38000Y7000D3*
X37000D3*
X38000Y6000D3*
X37000D3*
X38000Y5000D3*
X37000D3*
X38000Y4000D3*
X37000D3*
X38000Y3000D3*
X37000D3*
D31*
X20000Y1000D3*
D32*
X21000D3*
X22000D3*
X23000D3*
X24000D3*
X25000D3*
X26000D3*
X27000D3*
D31*
X18000Y20000D3*
D32*
X19000D3*
X20000D3*
X21000D3*
X22000D3*
X23000D3*
X24000D3*
X25000D3*
D31*
X42000Y10000D3*
D32*
X41000D3*
X42000Y11000D3*
X41000D3*
X42000Y12000D3*
X41000D3*
X42000Y13000D3*
X41000D3*
X42000Y14000D3*
X41000D3*
D31*
X29000Y1000D3*
D32*
X30000D3*
X31000D3*
X32000D3*
X33000D3*
X34000D3*
X35000D3*
X36000D3*
D31*
X27000Y20000D3*
D32*
X28000D3*
X29000D3*
X30000D3*
X31000D3*
X32000D3*
X33000D3*
X34000D3*
D31*
X42000Y3000D3*
D32*
X41000D3*
X42000Y4000D3*
X41000D3*
X42000Y5000D3*
X41000D3*
X42000Y6000D3*
X41000D3*
X42000Y7000D3*
X41000D3*
D31*
X44500Y3000D3*
D32*
Y4000D3*
Y5000D3*
Y6000D3*
D31*
X41000Y17000D3*
D32*
Y18000D3*
Y19000D3*
Y20000D3*
D31*
X42000Y17000D3*
D32*
Y18000D3*
Y19000D3*
Y20000D3*
D31*
X43000Y17000D3*
D32*
Y18000D3*
Y19000D3*
Y20000D3*
D33*
X14250Y16750D3*
D34*
X15250D3*
X16250D3*
D35*
X46000Y17000D3*
D36*
Y17984D3*
Y18969D3*
D35*
X50500Y17000D3*
D36*
Y17984D3*
Y18969D3*
D31*
X47750Y6500D3*
D32*
X48750D3*
X49750D3*
X50750D3*
D31*
X26500Y11500D3*
D32*
Y12500D3*
Y13500D3*
Y14500D3*
D31*
X33500Y9500D3*
D32*
Y10500D3*
Y11500D3*
Y12500D3*
Y13500D3*
Y14500D3*
Y15500D3*
Y16500D3*
D31*
X28500Y9500D3*
D32*
Y10500D3*
Y11500D3*
Y12500D3*
Y13500D3*
Y14500D3*
Y15500D3*
Y16500D3*
D35*
X27000Y4500D3*
D36*
X26016D3*
D35*
X30500D3*
D36*
X29516D3*
D37*
X4500Y18250D3*
D38*
X3500D3*
X2500D3*
X1500D3*
D31*
X32750Y4500D3*
D32*
X33750D3*
D41*
X2000Y7500D3*
D42*
Y8500D3*
Y9500D3*
D41*
X4250Y7500D3*
D42*
Y8500D3*
Y9500D3*
D45*
X14250Y15500D3*
X15250D3*
X16250D3*
X50750Y5500D3*
X45000Y17000D3*
Y18000D3*
X47750Y5500D3*
X49500Y17000D3*
Y18000D3*
X48750Y5500D3*
X49750D3*
X25250Y11500D3*
Y12500D3*
Y13500D3*
Y14500D3*
X30500Y3500D3*
X29500D3*
X3000Y8500D3*
X5250D3*
X32750Y3500D3*
M02*
