M48
INCH
T01C0.012
T02C0.0394
T03C0.0433
T04C0.0492
T05C0.0512
%
T01
X+010062Y+000438
X+010002Y+003250
X+011581Y+004000
X+012760Y+004492
X+013750Y+003500
X+014000Y+003250
X+014000Y+002500
X+016000Y+002500
X+016750Y+003000
X+018750Y+005250
X+019688Y+006312
X+020063Y+006312
X+019884Y+006689
X+020063Y+007063
X+019688Y+007063
X+021500Y+007250
X+023750Y+005750
X+021500Y+003000
X+020250Y+004250
X+016500Y+007500
X+015000Y+007500
X+012469Y+007500
X+011062Y+006813
X+010688Y+006813
X+010884Y+006439
X+011062Y+006062
X+010688Y+006062
X+007750Y+007750
X+007256Y+006750
X+003500Y+004625
X+002750Y+004625
X+013250Y+009500
X+017500Y+009000
X+021500Y+011313
X+012500Y+013750
X+032500Y+013750
X+032500Y+012750
X+032500Y+011750
X+045312Y+012000
X+045750Y+011250
X+047312Y+010750
X+047500Y+007937
X+048250Y+007250
X+049250Y+007937
X+050250Y+007250
X+051063Y+007937
X+051312Y+011000
X+051312Y+015063
X+049187Y+015188
X+047312Y+015125
X+046500Y+005062
X+046500Y+002937
X+048062Y+002250
X+049625Y+001750
X+049000Y+004687
T02
X+046000Y+017000
X+046000Y+017984
X+046000Y+018969
X+050500Y+018969
X+050500Y+017984
X+050500Y+017000
X+030500Y+004500
X+029516Y+004500
X+027000Y+004500
X+026016Y+004500
T03
X+011000Y+001000
X+012000Y+001000
X+013000Y+001000
X+014000Y+001000
X+015000Y+001000
X+016000Y+001000
X+017000Y+001000
X+018000Y+001000
X+020000Y+001000
X+021000Y+001000
X+022000Y+001000
X+023000Y+001000
X+024000Y+001000
X+025000Y+001000
X+026000Y+001000
X+027000Y+001000
X+029000Y+001000
X+030000Y+001000
X+031000Y+001000
X+032000Y+001000
X+033000Y+001000
X+034000Y+001000
X+035000Y+001000
X+036000Y+001000
X+037000Y+003000
X+038000Y+003000
X+038000Y+004000
X+038000Y+005000
X+038000Y+006000
X+038000Y+007000
X+038000Y+008000
X+038000Y+009000
X+038000Y+010000
X+038000Y+011000
X+037000Y+011000
X+037000Y+010000
X+037000Y+009000
X+037000Y+008000
X+037000Y+007000
X+037000Y+006000
X+037000Y+005000
X+037000Y+004000
X+033750Y+004500
X+032750Y+004500
X+033500Y+009500
X+033500Y+010500
X+033500Y+011500
X+033500Y+012500
X+033500Y+013500
X+033500Y+014500
X+033500Y+015500
X+033500Y+016500
X+037000Y+017000
X+037000Y+016000
X+037000Y+015000
X+038000Y+015000
X+038000Y+016000
X+038000Y+017000
X+038000Y+018000
X+038000Y+019000
X+038000Y+020000
X+037000Y+020000
X+037000Y+019000
X+037000Y+018000
X+034000Y+020000
X+033000Y+020000
X+032000Y+020000
X+031000Y+020000
X+030000Y+020000
X+029000Y+020000
X+028000Y+020000
X+027000Y+020000
X+025000Y+020000
X+024000Y+020000
X+023000Y+020000
X+022000Y+020000
X+021000Y+020000
X+020000Y+020000
X+019000Y+020000
X+018000Y+020000
X+016400Y+020000
X+015400Y+020000
X+014400Y+020000
X+013400Y+020000
X+012400Y+020000
X+011400Y+020000
X+010400Y+020000
X+009400Y+020000
X+004250Y+009500
X+004250Y+008500
X+004250Y+007500
X+002000Y+007500
X+002000Y+008500
X+002000Y+009500
X+026500Y+011500
X+026500Y+012500
X+026500Y+013500
X+026500Y+014500
X+028500Y+014500
X+028500Y+013500
X+028500Y+012500
X+028500Y+011500
X+028500Y+010500
X+028500Y+009500
X+028500Y+015500
X+028500Y+016500
X+037000Y+014000
X+037000Y+013000
X+037000Y+012000
X+038000Y+012000
X+038000Y+013000
X+038000Y+014000
X+041000Y+014000
X+042000Y+014000
X+042000Y+013000
X+042000Y+012000
X+042000Y+011000
X+041000Y+011000
X+041000Y+012000
X+041000Y+013000
X+041000Y+010000
X+042000Y+010000
X+042000Y+007000
X+041000Y+007000
X+041000Y+006000
X+041000Y+005000
X+041000Y+004000
X+042000Y+004000
X+042000Y+005000
X+042000Y+006000
X+044500Y+006000
X+044500Y+005000
X+044500Y+004000
X+044500Y+003000
X+042000Y+003000
X+041000Y+003000
X+047750Y+006500
X+048750Y+006500
X+049750Y+006500
X+050750Y+006500
X+043000Y+017000
X+042000Y+017000
X+041000Y+017000
X+041000Y+018000
X+042000Y+018000
X+043000Y+018000
X+043000Y+019000
X+042000Y+019000
X+042000Y+020000
X+043000Y+020000
X+041000Y+020000
X+041000Y+019000
T04
X+014250Y+016750
X+015250Y+016750
X+016250Y+016750
T05
X+004500Y+018250
X+003500Y+018250
X+002500Y+018250
X+001500Y+018250
T00
M30
