G04 DipTrace 2.4.0.2*
%INTopAssy.gbr*%
%MOIN*%
%ADD10C,0.0098*%
%ADD12C,0.003*%
%ADD39C,0.0154*%
%ADD101C,0.0124*%
%FSLAX44Y44*%
G04*
G70*
G90*
G75*
G01*
%LNTopAssy*%
%LPD*%
X43902Y2106D2*
D10*
Y6894D1*
X40402Y16106D2*
Y20894D1*
X41402Y16106D2*
Y20894D1*
X42402Y16106D2*
Y20894D1*
X46856Y7098D2*
X51644D1*
X25902Y10606D2*
Y15394D1*
X32902Y8811D2*
Y17189D1*
X27902Y8811D2*
Y17189D1*
X31856Y5098D2*
X34644D1*
X313Y49375D2*
X13436D1*
Y47800D1*
X313D1*
Y49375D1*
Y47800D2*
X13436D1*
Y46225D1*
X313D1*
Y47800D1*
Y46225D2*
X13436D1*
Y44651D1*
X313D1*
Y46225D1*
Y44651D2*
X13436D1*
Y43076D1*
X313D1*
Y44651D1*
Y43076D2*
X13436D1*
Y41501D1*
X313D1*
Y43076D1*
Y41501D2*
X13436D1*
Y39926D1*
X313D1*
Y41501D1*
X13436Y49375D2*
X19998D1*
Y47800D1*
X13436D1*
Y49375D1*
Y47800D2*
X19998D1*
Y46225D1*
X13436D1*
Y47800D1*
Y46225D2*
X19998D1*
Y44651D1*
X13436D1*
Y46225D1*
Y44651D2*
X19998D1*
Y43076D1*
X13436D1*
Y44651D1*
Y43076D2*
X19998D1*
Y41501D1*
X13436D1*
Y43076D1*
Y41501D2*
X19998D1*
Y39926D1*
X13436D1*
Y41501D1*
X14340Y5811D2*
D12*
X14320Y5801D1*
X14301Y5782D1*
X14292Y5763D1*
Y5725D1*
X14301Y5706D1*
X14320Y5687D1*
X14340Y5677D1*
X14368Y5668D1*
X14416D1*
X14445Y5677D1*
X14464Y5687D1*
X14483Y5706D1*
X14493Y5725D1*
Y5763D1*
X14483Y5782D1*
X14464Y5801D1*
X14445Y5811D1*
X14330Y5873D2*
X14320Y5892D1*
X14292Y5921D1*
X14493D1*
X14292Y6040D2*
X14301Y6011D1*
X14330Y5992D1*
X14378Y5982D1*
X14407D1*
X14454Y5992D1*
X14483Y6011D1*
X14493Y6040D1*
Y6059D1*
X14483Y6088D1*
X14454Y6107D1*
X14407Y6116D1*
X14378D1*
X14330Y6107D1*
X14301Y6088D1*
X14292Y6059D1*
Y6040D1*
X14330Y6107D2*
X14454Y5992D1*
X14330Y6178D2*
X14320Y6197D1*
X14292Y6226D1*
X14493D1*
X22406Y6192D2*
X22396Y6211D1*
X22377Y6230D1*
X22358Y6240D1*
X22320D1*
X22301Y6230D1*
X22282Y6211D1*
X22272Y6192D1*
X22262Y6163D1*
Y6115D1*
X22272Y6087D1*
X22282Y6068D1*
X22301Y6049D1*
X22320Y6039D1*
X22358D1*
X22377Y6049D1*
X22396Y6068D1*
X22406Y6087D1*
X22468Y6201D2*
X22487Y6211D1*
X22516Y6240D1*
Y6039D1*
X22635Y6240D2*
X22606Y6230D1*
X22587Y6201D1*
X22577Y6154D1*
Y6125D1*
X22587Y6077D1*
X22606Y6048D1*
X22635Y6039D1*
X22654D1*
X22683Y6048D1*
X22702Y6077D1*
X22711Y6125D1*
Y6154D1*
X22702Y6201D1*
X22683Y6230D1*
X22654Y6240D1*
X22635D1*
X22702Y6201D2*
X22587Y6077D1*
X22783Y6192D2*
Y6201D1*
X22792Y6221D1*
X22802Y6230D1*
X22821Y6240D1*
X22859D1*
X22878Y6230D1*
X22888Y6221D1*
X22897Y6201D1*
Y6182D1*
X22888Y6163D1*
X22869Y6135D1*
X22773Y6039D1*
X22907D1*
X13486Y4192D2*
X13477Y4211D1*
X13458Y4230D1*
X13439Y4240D1*
X13400D1*
X13381Y4230D1*
X13362Y4211D1*
X13353Y4192D1*
X13343Y4163D1*
Y4115D1*
X13353Y4087D1*
X13362Y4068D1*
X13381Y4049D1*
X13400Y4039D1*
X13439D1*
X13458Y4049D1*
X13477Y4068D1*
X13486Y4087D1*
X13548Y4201D2*
X13567Y4211D1*
X13596Y4240D1*
Y4039D1*
X13715Y4240D2*
X13687Y4230D1*
X13667Y4201D1*
X13658Y4154D1*
Y4125D1*
X13667Y4077D1*
X13687Y4048D1*
X13715Y4039D1*
X13734D1*
X13763Y4048D1*
X13782Y4077D1*
X13792Y4125D1*
Y4154D1*
X13782Y4201D1*
X13763Y4230D1*
X13734Y4240D1*
X13715D1*
X13782Y4201D2*
X13667Y4077D1*
X13873Y4240D2*
X13978D1*
X13921Y4163D1*
X13949D1*
X13968Y4154D1*
X13978Y4144D1*
X13988Y4115D1*
Y4096D1*
X13978Y4068D1*
X13959Y4048D1*
X13930Y4039D1*
X13901D1*
X13873Y4048D1*
X13863Y4058D1*
X13854Y4077D1*
X10114Y3790D2*
X10104Y3809D1*
X10085Y3829D1*
X10066Y3838D1*
X10028D1*
X10008Y3829D1*
X9989Y3809D1*
X9980Y3790D1*
X9970Y3762D1*
Y3714D1*
X9980Y3685D1*
X9989Y3666D1*
X10008Y3647D1*
X10028Y3637D1*
X10066D1*
X10085Y3647D1*
X10104Y3666D1*
X10114Y3685D1*
X10175Y3800D2*
X10195Y3809D1*
X10223Y3838D1*
Y3637D1*
X10342Y3838D2*
X10314Y3828D1*
X10295Y3800D1*
X10285Y3752D1*
Y3723D1*
X10295Y3675D1*
X10314Y3647D1*
X10342Y3637D1*
X10362D1*
X10390Y3647D1*
X10409Y3675D1*
X10419Y3723D1*
Y3752D1*
X10409Y3800D1*
X10390Y3828D1*
X10362Y3838D1*
X10342D1*
X10409Y3800D2*
X10295Y3675D1*
X10576Y3637D2*
Y3838D1*
X10481Y3704D1*
X10624D1*
X22486Y4692D2*
X22477Y4711D1*
X22458Y4730D1*
X22439Y4740D1*
X22400D1*
X22381Y4730D1*
X22362Y4711D1*
X22353Y4692D1*
X22343Y4663D1*
Y4615D1*
X22353Y4587D1*
X22362Y4568D1*
X22381Y4549D1*
X22400Y4539D1*
X22439D1*
X22458Y4549D1*
X22477Y4568D1*
X22486Y4587D1*
X22548Y4701D2*
X22567Y4711D1*
X22596Y4740D1*
Y4539D1*
X22715Y4740D2*
X22687Y4730D1*
X22667Y4701D1*
X22658Y4654D1*
Y4625D1*
X22667Y4577D1*
X22687Y4548D1*
X22715Y4539D1*
X22734D1*
X22763Y4548D1*
X22782Y4577D1*
X22792Y4625D1*
Y4654D1*
X22782Y4701D1*
X22763Y4730D1*
X22734Y4740D1*
X22715D1*
X22782Y4701D2*
X22667Y4577D1*
X22968Y4740D2*
X22873D1*
X22863Y4654D1*
X22873Y4663D1*
X22902Y4673D1*
X22930D1*
X22959Y4663D1*
X22978Y4644D1*
X22988Y4615D1*
Y4596D1*
X22978Y4568D1*
X22959Y4548D1*
X22930Y4539D1*
X22902D1*
X22873Y4548D1*
X22863Y4558D1*
X22854Y4577D1*
X19121Y4790D2*
X19112Y4809D1*
X19092Y4829D1*
X19073Y4838D1*
X19035D1*
X19016Y4829D1*
X18997Y4809D1*
X18987Y4790D1*
X18978Y4762D1*
Y4714D1*
X18987Y4685D1*
X18997Y4666D1*
X19016Y4647D1*
X19035Y4637D1*
X19073D1*
X19092Y4647D1*
X19112Y4666D1*
X19121Y4685D1*
X19183Y4800D2*
X19202Y4809D1*
X19231Y4838D1*
Y4637D1*
X19350Y4838D2*
X19321Y4828D1*
X19302Y4800D1*
X19293Y4752D1*
Y4723D1*
X19302Y4675D1*
X19321Y4647D1*
X19350Y4637D1*
X19369D1*
X19398Y4647D1*
X19417Y4675D1*
X19427Y4723D1*
Y4752D1*
X19417Y4800D1*
X19398Y4828D1*
X19369Y4838D1*
X19350D1*
X19417Y4800D2*
X19302Y4675D1*
X19603Y4809D2*
X19594Y4828D1*
X19565Y4838D1*
X19546D1*
X19517Y4828D1*
X19498Y4800D1*
X19488Y4752D1*
Y4704D1*
X19498Y4666D1*
X19517Y4647D1*
X19546Y4637D1*
X19555D1*
X19584Y4647D1*
X19603Y4666D1*
X19613Y4695D1*
Y4704D1*
X19603Y4733D1*
X19584Y4752D1*
X19555Y4761D1*
X19546D1*
X19517Y4752D1*
X19498Y4733D1*
X19488Y4704D1*
X7196Y11912D2*
X7187Y11931D1*
X7167Y11951D1*
X7148Y11960D1*
X7110D1*
X7091Y11951D1*
X7072Y11931D1*
X7062Y11912D1*
X7053Y11884D1*
Y11836D1*
X7062Y11807D1*
X7072Y11788D1*
X7091Y11769D1*
X7110Y11759D1*
X7148D1*
X7167Y11769D1*
X7187Y11788D1*
X7196Y11807D1*
X7258Y11922D2*
X7277Y11931D1*
X7306Y11960D1*
Y11759D1*
X7425Y11960D2*
X7396Y11950D1*
X7377Y11922D1*
X7368Y11874D1*
Y11845D1*
X7377Y11798D1*
X7396Y11769D1*
X7425Y11759D1*
X7444D1*
X7473Y11769D1*
X7492Y11798D1*
X7502Y11845D1*
Y11874D1*
X7492Y11922D1*
X7473Y11950D1*
X7444Y11960D1*
X7425D1*
X7492Y11922D2*
X7377Y11798D1*
X7602Y11759D2*
X7697Y11960D1*
X7563D1*
X7196Y14810D2*
X7187Y14829D1*
X7168Y14848D1*
X7149Y14858D1*
X7110D1*
X7091Y14848D1*
X7072Y14829D1*
X7062Y14810D1*
X7053Y14781D1*
Y14733D1*
X7062Y14705D1*
X7072Y14686D1*
X7091Y14667D1*
X7110Y14657D1*
X7149D1*
X7168Y14667D1*
X7187Y14686D1*
X7196Y14705D1*
X7258Y14819D2*
X7277Y14829D1*
X7306Y14858D1*
Y14657D1*
X7425Y14858D2*
X7396Y14848D1*
X7377Y14819D1*
X7368Y14772D1*
Y14743D1*
X7377Y14695D1*
X7396Y14666D1*
X7425Y14657D1*
X7444D1*
X7473Y14666D1*
X7492Y14695D1*
X7502Y14743D1*
Y14772D1*
X7492Y14819D1*
X7473Y14848D1*
X7444Y14858D1*
X7425D1*
X7492Y14819D2*
X7377Y14695D1*
X7611Y14858D2*
X7583Y14848D1*
X7573Y14829D1*
Y14810D1*
X7583Y14791D1*
X7602Y14781D1*
X7640Y14772D1*
X7669Y14762D1*
X7688Y14743D1*
X7697Y14724D1*
Y14695D1*
X7688Y14676D1*
X7678Y14666D1*
X7649Y14657D1*
X7611D1*
X7583Y14666D1*
X7573Y14676D1*
X7563Y14695D1*
Y14724D1*
X7573Y14743D1*
X7592Y14762D1*
X7621Y14772D1*
X7659Y14781D1*
X7678Y14791D1*
X7688Y14810D1*
Y14829D1*
X7678Y14848D1*
X7649Y14858D1*
X7611D1*
X13371Y8040D2*
X13362Y8059D1*
X13342Y8079D1*
X13323Y8088D1*
X13285D1*
X13266Y8079D1*
X13247Y8059D1*
X13237Y8040D1*
X13228Y8012D1*
Y7964D1*
X13237Y7935D1*
X13247Y7916D1*
X13266Y7897D1*
X13285Y7887D1*
X13323D1*
X13342Y7897D1*
X13362Y7916D1*
X13371Y7935D1*
X13433Y8050D2*
X13452Y8059D1*
X13481Y8088D1*
Y7887D1*
X13600Y8088D2*
X13571Y8078D1*
X13552Y8050D1*
X13543Y8002D1*
Y7973D1*
X13552Y7925D1*
X13571Y7897D1*
X13600Y7887D1*
X13619D1*
X13648Y7897D1*
X13667Y7925D1*
X13677Y7973D1*
Y8002D1*
X13667Y8050D1*
X13648Y8078D1*
X13619Y8088D1*
X13600D1*
X13667Y8050D2*
X13552Y7925D1*
X13863Y8021D2*
X13853Y7992D1*
X13834Y7973D1*
X13805Y7964D1*
X13796D1*
X13767Y7973D1*
X13748Y7992D1*
X13738Y8021D1*
Y8031D1*
X13748Y8059D1*
X13767Y8078D1*
X13796Y8088D1*
X13805D1*
X13834Y8078D1*
X13853Y8059D1*
X13863Y8021D1*
Y7973D1*
X13853Y7925D1*
X13834Y7897D1*
X13805Y7887D1*
X13786D1*
X13758Y7897D1*
X13748Y7916D1*
X23084Y14943D2*
X23074Y14962D1*
X23055Y14981D1*
X23036Y14991D1*
X22998D1*
X22978Y14981D1*
X22959Y14962D1*
X22950Y14943D1*
X22940Y14914D1*
Y14866D1*
X22950Y14838D1*
X22959Y14819D1*
X22978Y14799D1*
X22998Y14790D1*
X23036D1*
X23055Y14799D1*
X23074Y14819D1*
X23084Y14838D1*
X23145Y14952D2*
X23165Y14962D1*
X23193Y14991D1*
Y14790D1*
X23255Y14952D2*
X23274Y14962D1*
X23303Y14991D1*
Y14790D1*
X23422Y14991D2*
X23394Y14981D1*
X23374Y14952D1*
X23365Y14905D1*
Y14876D1*
X23374Y14828D1*
X23394Y14799D1*
X23422Y14790D1*
X23441D1*
X23470Y14799D1*
X23489Y14828D1*
X23499Y14876D1*
Y14905D1*
X23489Y14952D1*
X23470Y14981D1*
X23441Y14991D1*
X23422D1*
X23489Y14952D2*
X23374Y14828D1*
X23178Y11892D2*
X23168Y11911D1*
X23149Y11930D1*
X23130Y11940D1*
X23092D1*
X23073Y11930D1*
X23054Y11911D1*
X23044Y11892D1*
X23034Y11863D1*
Y11815D1*
X23044Y11787D1*
X23054Y11767D1*
X23073Y11748D1*
X23092Y11739D1*
X23130D1*
X23149Y11748D1*
X23168Y11767D1*
X23178Y11787D1*
X23240Y11901D2*
X23259Y11911D1*
X23288Y11939D1*
Y11739D1*
X23349Y11901D2*
X23369Y11911D1*
X23397Y11939D1*
Y11739D1*
X23459Y11901D2*
X23478Y11911D1*
X23507Y11939D1*
Y11739D1*
X22409Y8040D2*
X22400Y8059D1*
X22381Y8079D1*
X22362Y8088D1*
X22323D1*
X22304Y8079D1*
X22285Y8059D1*
X22275Y8040D1*
X22266Y8012D1*
Y7964D1*
X22275Y7935D1*
X22285Y7916D1*
X22304Y7897D1*
X22323Y7887D1*
X22362D1*
X22381Y7897D1*
X22400Y7916D1*
X22409Y7935D1*
X22471Y8050D2*
X22490Y8059D1*
X22519Y8088D1*
Y7887D1*
X22581Y8050D2*
X22600Y8059D1*
X22629Y8088D1*
Y7887D1*
X22700Y8040D2*
Y8050D1*
X22710Y8069D1*
X22719Y8078D1*
X22739Y8088D1*
X22777D1*
X22796Y8078D1*
X22805Y8069D1*
X22815Y8050D1*
Y8031D1*
X22805Y8011D1*
X22786Y7983D1*
X22691Y7887D1*
X22825D1*
X8784Y9103D2*
X8775Y9122D1*
X8756Y9141D1*
X8737Y9151D1*
X8698D1*
X8679Y9141D1*
X8660Y9122D1*
X8650Y9103D1*
X8641Y9074D1*
Y9026D1*
X8650Y8998D1*
X8660Y8978D1*
X8679Y8959D1*
X8698Y8950D1*
X8737D1*
X8756Y8959D1*
X8775Y8978D1*
X8784Y8998D1*
X8846Y9112D2*
X8865Y9122D1*
X8894Y9150D1*
Y8950D1*
X8956Y9112D2*
X8975Y9122D1*
X9004Y9150D1*
Y8950D1*
X9085Y9150D2*
X9190D1*
X9133Y9074D1*
X9161D1*
X9180Y9064D1*
X9190Y9055D1*
X9200Y9026D1*
Y9007D1*
X9190Y8978D1*
X9171Y8959D1*
X9142Y8950D1*
X9113D1*
X9085Y8959D1*
X9075Y8969D1*
X9066Y8988D1*
X18905Y9290D2*
X18895Y9309D1*
X18876Y9329D1*
X18857Y9338D1*
X18819D1*
X18799Y9329D1*
X18780Y9309D1*
X18771Y9290D1*
X18761Y9262D1*
Y9214D1*
X18771Y9185D1*
X18780Y9166D1*
X18799Y9147D1*
X18819Y9137D1*
X18857D1*
X18876Y9147D1*
X18895Y9166D1*
X18905Y9185D1*
X18966Y9300D2*
X18986Y9309D1*
X19014Y9338D1*
Y9137D1*
X19076Y9300D2*
X19095Y9309D1*
X19124Y9338D1*
Y9137D1*
X19282D2*
Y9338D1*
X19186Y9204D1*
X19329D1*
X13989Y14810D2*
X13980Y14829D1*
X13960Y14848D1*
X13941Y14858D1*
X13903D1*
X13884Y14848D1*
X13865Y14829D1*
X13855Y14810D1*
X13846Y14781D1*
Y14733D1*
X13855Y14705D1*
X13865Y14686D1*
X13884Y14667D1*
X13903Y14657D1*
X13941D1*
X13960Y14667D1*
X13980Y14686D1*
X13989Y14705D1*
X14051Y14819D2*
X14070Y14829D1*
X14099Y14858D1*
Y14657D1*
X14161Y14819D2*
X14180Y14829D1*
X14209Y14858D1*
Y14657D1*
X14385Y14858D2*
X14290D1*
X14280Y14772D1*
X14290Y14781D1*
X14318Y14791D1*
X14347D1*
X14376Y14781D1*
X14395Y14762D1*
X14404Y14733D1*
Y14714D1*
X14395Y14686D1*
X14376Y14666D1*
X14347Y14657D1*
X14318D1*
X14290Y14666D1*
X14280Y14676D1*
X14270Y14695D1*
X13994Y11912D2*
X13985Y11931D1*
X13965Y11951D1*
X13946Y11960D1*
X13908D1*
X13889Y11951D1*
X13870Y11931D1*
X13860Y11912D1*
X13851Y11884D1*
Y11836D1*
X13860Y11807D1*
X13870Y11788D1*
X13889Y11769D1*
X13908Y11759D1*
X13946D1*
X13965Y11769D1*
X13985Y11788D1*
X13994Y11807D1*
X14056Y11922D2*
X14075Y11931D1*
X14104Y11960D1*
Y11759D1*
X14165Y11922D2*
X14185Y11931D1*
X14213Y11960D1*
Y11759D1*
X14390Y11931D2*
X14380Y11950D1*
X14352Y11960D1*
X14333D1*
X14304Y11950D1*
X14285Y11922D1*
X14275Y11874D1*
Y11826D1*
X14285Y11788D1*
X14304Y11769D1*
X14333Y11759D1*
X14342D1*
X14371Y11769D1*
X14390Y11788D1*
X14399Y11817D1*
Y11826D1*
X14390Y11855D1*
X14371Y11874D1*
X14342Y11884D1*
X14333D1*
X14304Y11874D1*
X14285Y11855D1*
X14275Y11826D1*
X16334Y12091D2*
X16324Y12110D1*
X16305Y12129D1*
X16286Y12138D1*
X16248D1*
X16228Y12129D1*
X16209Y12110D1*
X16200Y12091D1*
X16190Y12062D1*
Y12014D1*
X16200Y11985D1*
X16209Y11966D1*
X16228Y11947D1*
X16248Y11937D1*
X16286D1*
X16305Y11947D1*
X16324Y11966D1*
X16334Y11985D1*
X16395Y12100D2*
X16415Y12110D1*
X16443Y12138D1*
Y11937D1*
X16505Y12100D2*
X16524Y12110D1*
X16553Y12138D1*
Y11937D1*
X16653D2*
X16749Y12138D1*
X16615D1*
X16334Y14943D2*
X16324Y14962D1*
X16305Y14981D1*
X16286Y14991D1*
X16248D1*
X16229Y14981D1*
X16209Y14962D1*
X16200Y14943D1*
X16190Y14914D1*
Y14866D1*
X16200Y14838D1*
X16209Y14819D1*
X16229Y14799D1*
X16248Y14790D1*
X16286D1*
X16305Y14799D1*
X16324Y14819D1*
X16334Y14838D1*
X16395Y14952D2*
X16415Y14962D1*
X16443Y14991D1*
Y14790D1*
X16505Y14952D2*
X16524Y14962D1*
X16553Y14991D1*
Y14790D1*
X16663Y14991D2*
X16634Y14981D1*
X16624Y14962D1*
Y14943D1*
X16634Y14924D1*
X16653Y14914D1*
X16691Y14905D1*
X16720Y14895D1*
X16739Y14876D1*
X16749Y14857D1*
Y14828D1*
X16739Y14809D1*
X16730Y14799D1*
X16701Y14790D1*
X16663D1*
X16634Y14799D1*
X16624Y14809D1*
X16615Y14828D1*
Y14857D1*
X16624Y14876D1*
X16644Y14895D1*
X16672Y14905D1*
X16710Y14914D1*
X16730Y14924D1*
X16739Y14943D1*
Y14962D1*
X16730Y14981D1*
X16701Y14991D1*
X16663D1*
X46308Y8906D2*
X46289Y8896D1*
X46270Y8877D1*
X46260Y8858D1*
Y8820D1*
X46270Y8801D1*
X46289Y8782D1*
X46308Y8772D1*
X46337Y8762D1*
X46385D1*
X46413Y8772D1*
X46432Y8782D1*
X46451Y8801D1*
X46461Y8820D1*
Y8858D1*
X46451Y8877D1*
X46432Y8896D1*
X46413Y8906D1*
X46308Y8977D2*
X46299D1*
X46279Y8987D1*
X46270Y8996D1*
X46260Y9016D1*
Y9054D1*
X46270Y9073D1*
X46279Y9082D1*
X46299Y9092D1*
X46318D1*
X46337Y9082D1*
X46365Y9063D1*
X46461Y8968D1*
Y9102D1*
X46260Y9221D2*
X46270Y9192D1*
X46299Y9173D1*
X46346Y9163D1*
X46375D1*
X46423Y9173D1*
X46452Y9192D1*
X46461Y9221D1*
Y9240D1*
X46452Y9269D1*
X46423Y9288D1*
X46375Y9297D1*
X46346D1*
X46299Y9288D1*
X46270Y9269D1*
X46260Y9240D1*
Y9221D1*
X46299Y9288D2*
X46423Y9173D1*
X46299Y9359D2*
X46289Y9378D1*
X46260Y9407D1*
X46461D1*
X51960Y3323D2*
X51941Y3314D1*
X51921Y3295D1*
X51912Y3276D1*
Y3237D1*
X51921Y3218D1*
X51941Y3199D1*
X51960Y3189D1*
X51988Y3180D1*
X52036D1*
X52065Y3189D1*
X52084Y3199D1*
X52103Y3218D1*
X52113Y3237D1*
Y3276D1*
X52103Y3295D1*
X52084Y3314D1*
X52065Y3323D1*
X51960Y3395D2*
X51950D1*
X51931Y3404D1*
X51922Y3414D1*
X51912Y3433D1*
Y3471D1*
X51922Y3490D1*
X51931Y3500D1*
X51950Y3510D1*
X51969D1*
X51989Y3500D1*
X52017Y3481D1*
X52113Y3385D1*
Y3519D1*
X51912Y3638D2*
X51922Y3610D1*
X51950Y3590D1*
X51998Y3581D1*
X52027D1*
X52075Y3590D1*
X52103Y3610D1*
X52113Y3638D1*
Y3657D1*
X52103Y3686D1*
X52075Y3705D1*
X52027Y3715D1*
X51998D1*
X51950Y3705D1*
X51922Y3686D1*
X51912Y3657D1*
Y3638D1*
X51950Y3705D2*
X52075Y3590D1*
X51960Y3786D2*
X51950D1*
X51931Y3796D1*
X51922Y3805D1*
X51912Y3825D1*
Y3863D1*
X51922Y3882D1*
X51931Y3891D1*
X51950Y3901D1*
X51969D1*
X51989Y3891D1*
X52017Y3872D1*
X52113Y3777D1*
Y3911D1*
X47058Y13943D2*
X47039Y13934D1*
X47020Y13915D1*
X47010Y13896D1*
Y13858D1*
X47020Y13838D1*
X47039Y13819D1*
X47058Y13810D1*
X47087Y13800D1*
X47135D1*
X47163Y13810D1*
X47182Y13819D1*
X47201Y13838D1*
X47211Y13858D1*
Y13896D1*
X47201Y13915D1*
X47182Y13934D1*
X47163Y13943D1*
X47058Y14015D2*
X47049D1*
X47029Y14024D1*
X47020Y14034D1*
X47010Y14053D1*
Y14091D1*
X47020Y14110D1*
X47029Y14120D1*
X47049Y14130D1*
X47068D1*
X47087Y14120D1*
X47115Y14101D1*
X47211Y14005D1*
Y14139D1*
X47010Y14258D2*
X47020Y14230D1*
X47049Y14210D1*
X47096Y14201D1*
X47125D1*
X47173Y14210D1*
X47202Y14230D1*
X47211Y14258D1*
Y14277D1*
X47202Y14306D1*
X47173Y14325D1*
X47125Y14335D1*
X47096D1*
X47049Y14325D1*
X47020Y14306D1*
X47010Y14277D1*
Y14258D1*
X47049Y14325D2*
X47173Y14210D1*
X47010Y14416D2*
Y14521D1*
X47087Y14464D1*
Y14492D1*
X47096Y14511D1*
X47106Y14521D1*
X47135Y14531D1*
X47154D1*
X47182Y14521D1*
X47202Y14502D1*
X47211Y14473D1*
Y14444D1*
X47202Y14416D1*
X47192Y14406D1*
X47173Y14397D1*
X51308Y8858D2*
X51289Y8849D1*
X51270Y8829D1*
X51260Y8810D1*
Y8772D1*
X51270Y8753D1*
X51289Y8734D1*
X51308Y8724D1*
X51337Y8715D1*
X51385D1*
X51413Y8724D1*
X51432Y8734D1*
X51451Y8753D1*
X51461Y8772D1*
Y8810D1*
X51451Y8829D1*
X51432Y8849D1*
X51413Y8858D1*
X51308Y8930D2*
X51299D1*
X51279Y8939D1*
X51270Y8949D1*
X51260Y8968D1*
Y9006D1*
X51270Y9025D1*
X51279Y9035D1*
X51299Y9044D1*
X51318D1*
X51337Y9035D1*
X51365Y9016D1*
X51461Y8920D1*
Y9054D1*
X51260Y9173D2*
X51270Y9144D1*
X51299Y9125D1*
X51346Y9116D1*
X51375D1*
X51423Y9125D1*
X51452Y9144D1*
X51461Y9173D1*
Y9192D1*
X51452Y9221D1*
X51423Y9240D1*
X51375Y9249D1*
X51346D1*
X51299Y9240D1*
X51270Y9221D1*
X51260Y9192D1*
Y9173D1*
X51299Y9240D2*
X51423Y9125D1*
X51461Y9407D2*
X51260D1*
X51394Y9311D1*
Y9455D1*
X50558Y13943D2*
X50539Y13934D1*
X50520Y13915D1*
X50510Y13896D1*
Y13858D1*
X50520Y13838D1*
X50539Y13819D1*
X50558Y13810D1*
X50587Y13800D1*
X50635D1*
X50663Y13810D1*
X50682Y13819D1*
X50701Y13838D1*
X50711Y13858D1*
Y13896D1*
X50701Y13915D1*
X50682Y13934D1*
X50663Y13943D1*
X50558Y14015D2*
X50549D1*
X50529Y14024D1*
X50520Y14034D1*
X50510Y14053D1*
Y14091D1*
X50520Y14110D1*
X50529Y14120D1*
X50549Y14130D1*
X50568D1*
X50587Y14120D1*
X50615Y14101D1*
X50711Y14005D1*
Y14139D1*
X50510Y14258D2*
X50520Y14230D1*
X50549Y14210D1*
X50596Y14201D1*
X50625D1*
X50673Y14210D1*
X50702Y14230D1*
X50711Y14258D1*
Y14277D1*
X50702Y14306D1*
X50673Y14325D1*
X50625Y14335D1*
X50596D1*
X50549Y14325D1*
X50520Y14306D1*
X50510Y14277D1*
Y14258D1*
X50549Y14325D2*
X50673Y14210D1*
X50510Y14511D2*
Y14416D1*
X50596Y14406D1*
X50587Y14416D1*
X50577Y14445D1*
Y14473D1*
X50587Y14502D1*
X50606Y14521D1*
X50635Y14531D1*
X50654D1*
X50682Y14521D1*
X50702Y14502D1*
X50711Y14473D1*
Y14445D1*
X50702Y14416D1*
X50692Y14406D1*
X50673Y14397D1*
X45960Y3830D2*
X45941Y3821D1*
X45921Y3801D1*
X45912Y3782D1*
Y3744D1*
X45921Y3725D1*
X45941Y3706D1*
X45960Y3696D1*
X45988Y3687D1*
X46036D1*
X46065Y3696D1*
X46084Y3706D1*
X46103Y3725D1*
X46113Y3744D1*
Y3782D1*
X46103Y3801D1*
X46084Y3821D1*
X46065Y3830D1*
X45960Y3902D2*
X45950D1*
X45931Y3911D1*
X45922Y3921D1*
X45912Y3940D1*
Y3978D1*
X45922Y3997D1*
X45931Y4007D1*
X45950Y4016D1*
X45969D1*
X45989Y4007D1*
X46017Y3988D1*
X46113Y3892D1*
Y4026D1*
X45912Y4145D2*
X45922Y4116D1*
X45950Y4097D1*
X45998Y4088D1*
X46027D1*
X46075Y4097D1*
X46103Y4116D1*
X46113Y4145D1*
Y4164D1*
X46103Y4193D1*
X46075Y4212D1*
X46027Y4222D1*
X45998D1*
X45950Y4212D1*
X45922Y4193D1*
X45912Y4164D1*
Y4145D1*
X45950Y4212D2*
X46075Y4097D1*
X45941Y4398D2*
X45922Y4389D1*
X45912Y4360D1*
Y4341D1*
X45922Y4312D1*
X45950Y4293D1*
X45998Y4283D1*
X46046D1*
X46084Y4293D1*
X46103Y4312D1*
X46113Y4341D1*
Y4350D1*
X46103Y4379D1*
X46084Y4398D1*
X46055Y4408D1*
X46046D1*
X46017Y4398D1*
X45998Y4379D1*
X45989Y4350D1*
Y4341D1*
X45998Y4312D1*
X46017Y4293D1*
X46046Y4283D1*
X48460Y3323D2*
X48441Y3314D1*
X48421Y3295D1*
X48412Y3276D1*
Y3237D1*
X48421Y3218D1*
X48441Y3199D1*
X48460Y3189D1*
X48488Y3180D1*
X48536D1*
X48565Y3189D1*
X48584Y3199D1*
X48603Y3218D1*
X48613Y3237D1*
Y3276D1*
X48603Y3295D1*
X48584Y3314D1*
X48565Y3323D1*
X48460Y3395D2*
X48450D1*
X48431Y3404D1*
X48422Y3414D1*
X48412Y3433D1*
Y3471D1*
X48422Y3490D1*
X48431Y3500D1*
X48450Y3510D1*
X48469D1*
X48489Y3500D1*
X48517Y3481D1*
X48613Y3385D1*
Y3519D1*
X48412Y3638D2*
X48422Y3610D1*
X48450Y3590D1*
X48498Y3581D1*
X48527D1*
X48575Y3590D1*
X48603Y3610D1*
X48613Y3638D1*
Y3657D1*
X48603Y3686D1*
X48575Y3705D1*
X48527Y3715D1*
X48498D1*
X48450Y3705D1*
X48422Y3686D1*
X48412Y3657D1*
Y3638D1*
X48450Y3705D2*
X48575Y3590D1*
X48613Y3815D2*
X48412Y3911D1*
Y3777D1*
X48710Y13983D2*
X48691Y13974D1*
X48671Y13954D1*
X48662Y13935D1*
Y13897D1*
X48671Y13878D1*
X48691Y13859D1*
X48710Y13849D1*
X48738Y13840D1*
X48786D1*
X48815Y13849D1*
X48834Y13859D1*
X48853Y13878D1*
X48863Y13897D1*
Y13935D1*
X48853Y13954D1*
X48834Y13974D1*
X48815Y13983D1*
X48710Y14055D2*
X48700D1*
X48681Y14064D1*
X48672Y14074D1*
X48662Y14093D1*
Y14131D1*
X48672Y14150D1*
X48681Y14160D1*
X48700Y14169D1*
X48719D1*
X48739Y14160D1*
X48767Y14141D1*
X48863Y14045D1*
Y14179D1*
X48662Y14298D2*
X48672Y14269D1*
X48700Y14250D1*
X48748Y14241D1*
X48777D1*
X48825Y14250D1*
X48853Y14269D1*
X48863Y14298D1*
Y14317D1*
X48853Y14346D1*
X48825Y14365D1*
X48777Y14375D1*
X48748D1*
X48700Y14365D1*
X48672Y14346D1*
X48662Y14317D1*
Y14298D1*
X48700Y14365D2*
X48825Y14250D1*
X48662Y14484D2*
X48672Y14456D1*
X48691Y14446D1*
X48710D1*
X48729Y14456D1*
X48739Y14475D1*
X48748Y14513D1*
X48758Y14542D1*
X48777Y14561D1*
X48796Y14570D1*
X48825D1*
X48844Y14561D1*
X48853Y14551D1*
X48863Y14522D1*
Y14484D1*
X48853Y14456D1*
X48844Y14446D1*
X48825Y14436D1*
X48796D1*
X48777Y14446D1*
X48758Y14465D1*
X48748Y14494D1*
X48739Y14532D1*
X48729Y14551D1*
X48710Y14561D1*
X48691D1*
X48672Y14551D1*
X48662Y14522D1*
Y14484D1*
X48710Y8738D2*
X48691Y8728D1*
X48671Y8709D1*
X48662Y8690D1*
Y8652D1*
X48671Y8632D1*
X48691Y8613D1*
X48710Y8604D1*
X48738Y8594D1*
X48786D1*
X48815Y8604D1*
X48834Y8613D1*
X48853Y8632D1*
X48863Y8652D1*
Y8690D1*
X48853Y8709D1*
X48834Y8728D1*
X48815Y8738D1*
X48710Y8809D2*
X48700D1*
X48681Y8819D1*
X48672Y8828D1*
X48662Y8847D1*
Y8886D1*
X48672Y8905D1*
X48681Y8914D1*
X48700Y8924D1*
X48719D1*
X48739Y8914D1*
X48767Y8895D1*
X48863Y8799D1*
Y8933D1*
X48662Y9053D2*
X48672Y9024D1*
X48700Y9005D1*
X48748Y8995D1*
X48777D1*
X48825Y9005D1*
X48853Y9024D1*
X48863Y9053D1*
Y9072D1*
X48853Y9100D1*
X48825Y9119D1*
X48777Y9129D1*
X48748D1*
X48700Y9119D1*
X48672Y9100D1*
X48662Y9072D1*
Y9053D1*
X48700Y9119D2*
X48825Y9005D1*
X48729Y9315D2*
X48758Y9306D1*
X48777Y9287D1*
X48786Y9258D1*
Y9248D1*
X48777Y9220D1*
X48758Y9201D1*
X48729Y9191D1*
X48719D1*
X48691Y9201D1*
X48672Y9220D1*
X48662Y9248D1*
Y9258D1*
X48672Y9287D1*
X48691Y9306D1*
X48729Y9315D1*
X48777D1*
X48825Y9306D1*
X48853Y9287D1*
X48863Y9258D1*
Y9239D1*
X48853Y9210D1*
X48834Y9201D1*
X29210Y15866D2*
X29191Y15857D1*
X29171Y15838D1*
X29162Y15819D1*
Y15780D1*
X29171Y15761D1*
X29191Y15742D1*
X29210Y15732D1*
X29238Y15723D1*
X29286D1*
X29315Y15732D1*
X29334Y15742D1*
X29353Y15761D1*
X29363Y15780D1*
Y15819D1*
X29353Y15838D1*
X29334Y15857D1*
X29315Y15866D1*
X29162Y15947D2*
Y16052D1*
X29239Y15995D1*
Y16024D1*
X29248Y16043D1*
X29258Y16052D1*
X29286Y16062D1*
X29305D1*
X29334Y16052D1*
X29353Y16033D1*
X29363Y16005D1*
Y15976D1*
X29353Y15947D1*
X29344Y15938D1*
X29325Y15928D1*
X29162Y16181D2*
X29172Y16153D1*
X29200Y16133D1*
X29248Y16124D1*
X29277D1*
X29325Y16133D1*
X29353Y16153D1*
X29363Y16181D1*
Y16200D1*
X29353Y16229D1*
X29325Y16248D1*
X29277Y16258D1*
X29248D1*
X29200Y16248D1*
X29172Y16229D1*
X29162Y16200D1*
Y16181D1*
X29200Y16248D2*
X29325Y16133D1*
X29200Y16320D2*
X29191Y16339D1*
X29162Y16368D1*
X29363D1*
X31278Y11162D2*
X31269Y11181D1*
X31249Y11201D1*
X31230Y11210D1*
X31192D1*
X31173Y11201D1*
X31154Y11181D1*
X31144Y11162D1*
X31135Y11134D1*
Y11086D1*
X31144Y11057D1*
X31154Y11038D1*
X31173Y11019D1*
X31192Y11009D1*
X31230D1*
X31249Y11019D1*
X31269Y11038D1*
X31278Y11057D1*
X31359Y11210D2*
X31464D1*
X31407Y11134D1*
X31436D1*
X31455Y11124D1*
X31464Y11114D1*
X31474Y11086D1*
Y11067D1*
X31464Y11038D1*
X31445Y11019D1*
X31416Y11009D1*
X31388D1*
X31359Y11019D1*
X31350Y11028D1*
X31340Y11048D1*
X31593Y11210D2*
X31564Y11200D1*
X31545Y11172D1*
X31536Y11124D1*
Y11095D1*
X31545Y11048D1*
X31564Y11019D1*
X31593Y11009D1*
X31612D1*
X31641Y11019D1*
X31660Y11048D1*
X31670Y11095D1*
Y11124D1*
X31660Y11172D1*
X31641Y11200D1*
X31612Y11210D1*
X31593D1*
X31660Y11172D2*
X31545Y11048D1*
X31741Y11162D2*
Y11172D1*
X31751Y11191D1*
X31760Y11200D1*
X31779Y11210D1*
X31818D1*
X31837Y11200D1*
X31846Y11191D1*
X31856Y11172D1*
Y11153D1*
X31846Y11134D1*
X31827Y11105D1*
X31731Y11009D1*
X31865D1*
X29778Y11162D2*
X29769Y11181D1*
X29749Y11201D1*
X29730Y11210D1*
X29692D1*
X29673Y11201D1*
X29654Y11181D1*
X29644Y11162D1*
X29635Y11134D1*
Y11086D1*
X29644Y11057D1*
X29654Y11038D1*
X29673Y11019D1*
X29692Y11009D1*
X29730D1*
X29749Y11019D1*
X29769Y11038D1*
X29778Y11057D1*
X29859Y11210D2*
X29964D1*
X29907Y11134D1*
X29936D1*
X29955Y11124D1*
X29964Y11114D1*
X29974Y11086D1*
Y11067D1*
X29964Y11038D1*
X29945Y11019D1*
X29916Y11009D1*
X29888D1*
X29859Y11019D1*
X29850Y11028D1*
X29840Y11048D1*
X30093Y11210D2*
X30064Y11200D1*
X30045Y11172D1*
X30036Y11124D1*
Y11095D1*
X30045Y11048D1*
X30064Y11019D1*
X30093Y11009D1*
X30112D1*
X30141Y11019D1*
X30160Y11048D1*
X30170Y11095D1*
Y11124D1*
X30160Y11172D1*
X30141Y11200D1*
X30112Y11210D1*
X30093D1*
X30160Y11172D2*
X30045Y11048D1*
X30251Y11210D2*
X30356D1*
X30298Y11134D1*
X30327D1*
X30346Y11124D1*
X30356Y11114D1*
X30365Y11086D1*
Y11067D1*
X30356Y11038D1*
X30337Y11019D1*
X30308Y11009D1*
X30279D1*
X30251Y11019D1*
X30241Y11028D1*
X30231Y11048D1*
X2821Y13060D2*
X2812Y13079D1*
X2792Y13098D1*
X2773Y13108D1*
X2735D1*
X2716Y13098D1*
X2697Y13079D1*
X2687Y13060D1*
X2678Y13031D1*
Y12983D1*
X2687Y12955D1*
X2697Y12936D1*
X2716Y12917D1*
X2735Y12907D1*
X2773D1*
X2792Y12917D1*
X2812Y12936D1*
X2821Y12955D1*
X2998Y13108D2*
X2902D1*
X2893Y13022D1*
X2902Y13031D1*
X2931Y13041D1*
X2959D1*
X2988Y13031D1*
X3007Y13012D1*
X3017Y12983D1*
Y12964D1*
X3007Y12936D1*
X2988Y12916D1*
X2959Y12907D1*
X2931D1*
X2902Y12916D1*
X2893Y12926D1*
X2883Y12945D1*
X3136Y13108D2*
X3107Y13098D1*
X3088Y13069D1*
X3079Y13022D1*
Y12993D1*
X3088Y12945D1*
X3107Y12916D1*
X3136Y12907D1*
X3155D1*
X3184Y12916D1*
X3203Y12945D1*
X3213Y12993D1*
Y13022D1*
X3203Y13069D1*
X3184Y13098D1*
X3155Y13108D1*
X3136D1*
X3203Y13069D2*
X3088Y12945D1*
X3274Y13069D2*
X3294Y13079D1*
X3322Y13108D1*
Y12907D1*
X33075Y6790D2*
X33066Y6809D1*
X33047Y6829D1*
X33028Y6838D1*
X32989D1*
X32970Y6829D1*
X32951Y6809D1*
X32941Y6790D1*
X32932Y6762D1*
Y6714D1*
X32941Y6685D1*
X32951Y6666D1*
X32970Y6647D1*
X32989Y6637D1*
X33028D1*
X33047Y6647D1*
X33066Y6666D1*
X33075Y6685D1*
X33252Y6838D2*
X33156D1*
X33147Y6752D1*
X33156Y6761D1*
X33185Y6771D1*
X33214D1*
X33242Y6761D1*
X33262Y6742D1*
X33271Y6714D1*
Y6695D1*
X33262Y6666D1*
X33242Y6647D1*
X33214Y6637D1*
X33185D1*
X33156Y6647D1*
X33147Y6656D1*
X33137Y6675D1*
X33390Y6838D2*
X33362Y6828D1*
X33342Y6800D1*
X33333Y6752D1*
Y6723D1*
X33342Y6675D1*
X33362Y6647D1*
X33390Y6637D1*
X33409D1*
X33438Y6647D1*
X33457Y6675D1*
X33467Y6723D1*
Y6752D1*
X33457Y6800D1*
X33438Y6828D1*
X33409Y6838D1*
X33390D1*
X33457Y6800D2*
X33342Y6675D1*
X33538Y6790D2*
Y6800D1*
X33548Y6819D1*
X33557Y6828D1*
X33576Y6838D1*
X33615D1*
X33634Y6828D1*
X33643Y6819D1*
X33653Y6800D1*
Y6781D1*
X33643Y6761D1*
X33624Y6733D1*
X33529Y6637D1*
X33662D1*
X21301Y9752D2*
Y9551D1*
X21368D1*
X21397Y9560D1*
X21416Y9579D1*
X21426Y9599D1*
X21435Y9627D1*
Y9675D1*
X21426Y9704D1*
X21416Y9723D1*
X21397Y9742D1*
X21368Y9752D1*
X21301D1*
X21497Y9713D2*
X21516Y9723D1*
X21545Y9751D1*
Y9551D1*
X21664Y9751D2*
X21635Y9742D1*
X21616Y9713D1*
X21607Y9665D1*
Y9637D1*
X21616Y9589D1*
X21635Y9560D1*
X21664Y9551D1*
X21683D1*
X21712Y9560D1*
X21731Y9589D1*
X21741Y9637D1*
Y9665D1*
X21731Y9713D1*
X21712Y9742D1*
X21683Y9751D1*
X21664D1*
X21731Y9713D2*
X21616Y9589D1*
X21802Y9713D2*
X21822Y9723D1*
X21850Y9751D1*
Y9551D1*
X11258Y9564D2*
Y9363D1*
X11325D1*
X11354Y9373D1*
X11373Y9392D1*
X11383Y9411D1*
X11392Y9440D1*
Y9488D1*
X11383Y9516D1*
X11373Y9535D1*
X11354Y9555D1*
X11325Y9564D1*
X11258D1*
X11454Y9526D2*
X11473Y9535D1*
X11502Y9564D1*
Y9363D1*
X11621Y9564D2*
X11592Y9554D1*
X11573Y9526D1*
X11564Y9478D1*
Y9449D1*
X11573Y9401D1*
X11592Y9373D1*
X11621Y9363D1*
X11640D1*
X11669Y9373D1*
X11688Y9401D1*
X11698Y9449D1*
Y9478D1*
X11688Y9526D1*
X11669Y9554D1*
X11640Y9564D1*
X11621D1*
X11688Y9526D2*
X11573Y9401D1*
X11769Y9516D2*
Y9526D1*
X11779Y9545D1*
X11788Y9554D1*
X11807Y9564D1*
X11846D1*
X11865Y9554D1*
X11874Y9545D1*
X11884Y9526D1*
Y9507D1*
X11874Y9487D1*
X11855Y9459D1*
X11759Y9363D1*
X11893D1*
X18753Y17358D2*
Y17157D1*
X18820D1*
X18849Y17167D1*
X18868Y17186D1*
X18878Y17205D1*
X18887Y17233D1*
Y17281D1*
X18878Y17310D1*
X18868Y17329D1*
X18849Y17348D1*
X18820Y17358D1*
X18753D1*
X18949Y17319D2*
X18968Y17329D1*
X18997Y17358D1*
Y17157D1*
X19116Y17358D2*
X19087Y17348D1*
X19068Y17319D1*
X19059Y17272D1*
Y17243D1*
X19068Y17195D1*
X19087Y17166D1*
X19116Y17157D1*
X19135D1*
X19164Y17166D1*
X19183Y17195D1*
X19193Y17243D1*
Y17272D1*
X19183Y17319D1*
X19164Y17348D1*
X19135Y17358D1*
X19116D1*
X19183Y17319D2*
X19068Y17195D1*
X19274Y17358D2*
X19379D1*
X19321Y17281D1*
X19350D1*
X19369Y17272D1*
X19379Y17262D1*
X19388Y17233D1*
Y17214D1*
X19379Y17186D1*
X19360Y17166D1*
X19331Y17157D1*
X19302D1*
X19274Y17166D1*
X19264Y17176D1*
X19254Y17195D1*
X9749Y17358D2*
Y17157D1*
X9816D1*
X9844Y17167D1*
X9863Y17186D1*
X9873Y17205D1*
X9883Y17233D1*
Y17281D1*
X9873Y17310D1*
X9863Y17329D1*
X9844Y17348D1*
X9816Y17358D1*
X9749D1*
X9944Y17319D2*
X9963Y17329D1*
X9992Y17358D1*
Y17157D1*
X10111Y17358D2*
X10083Y17348D1*
X10063Y17319D1*
X10054Y17272D1*
Y17243D1*
X10063Y17195D1*
X10083Y17166D1*
X10111Y17157D1*
X10130D1*
X10159Y17166D1*
X10178Y17195D1*
X10188Y17243D1*
Y17272D1*
X10178Y17319D1*
X10159Y17348D1*
X10130Y17358D1*
X10111D1*
X10178Y17319D2*
X10063Y17195D1*
X10345Y17157D2*
Y17358D1*
X10250Y17224D1*
X10393D1*
X29676Y7108D2*
Y6907D1*
X29743D1*
X29771Y6917D1*
X29791Y6936D1*
X29800Y6955D1*
X29810Y6983D1*
Y7031D1*
X29800Y7060D1*
X29791Y7079D1*
X29771Y7098D1*
X29743Y7108D1*
X29676D1*
X29967Y6907D2*
Y7108D1*
X29871Y6974D1*
X30015D1*
X30134Y7108D2*
X30105Y7098D1*
X30086Y7069D1*
X30077Y7022D1*
Y6993D1*
X30086Y6945D1*
X30105Y6916D1*
X30134Y6907D1*
X30153D1*
X30182Y6916D1*
X30201Y6945D1*
X30211Y6993D1*
Y7022D1*
X30201Y7069D1*
X30182Y7098D1*
X30153Y7108D1*
X30134D1*
X30201Y7069D2*
X30086Y6945D1*
X30272Y7069D2*
X30292Y7079D1*
X30320Y7108D1*
Y6907D1*
X1182Y14399D2*
Y14198D1*
X1249D1*
X1278Y14208D1*
X1297Y14227D1*
X1307Y14246D1*
X1316Y14275D1*
Y14323D1*
X1307Y14351D1*
X1297Y14370D1*
X1278Y14390D1*
X1249Y14399D1*
X1182D1*
X1493D2*
X1397D1*
X1388Y14313D1*
X1397Y14322D1*
X1426Y14332D1*
X1455D1*
X1483Y14322D1*
X1503Y14303D1*
X1512Y14275D1*
Y14256D1*
X1503Y14227D1*
X1483Y14208D1*
X1455Y14198D1*
X1426D1*
X1397Y14208D1*
X1388Y14217D1*
X1378Y14236D1*
X1631Y14399D2*
X1603Y14389D1*
X1583Y14361D1*
X1574Y14313D1*
Y14284D1*
X1583Y14236D1*
X1603Y14208D1*
X1631Y14198D1*
X1650D1*
X1679Y14208D1*
X1698Y14236D1*
X1708Y14284D1*
Y14313D1*
X1698Y14361D1*
X1679Y14389D1*
X1650Y14399D1*
X1631D1*
X1698Y14361D2*
X1583Y14236D1*
X1770Y14361D2*
X1789Y14370D1*
X1818Y14399D1*
Y14198D1*
X4139Y14399D2*
Y14198D1*
X4206D1*
X4235Y14208D1*
X4254Y14227D1*
X4264Y14246D1*
X4273Y14275D1*
Y14323D1*
X4264Y14351D1*
X4254Y14370D1*
X4235Y14390D1*
X4206Y14399D1*
X4139D1*
X4450D2*
X4354D1*
X4345Y14313D1*
X4354Y14322D1*
X4383Y14332D1*
X4412D1*
X4440Y14322D1*
X4460Y14303D1*
X4469Y14275D1*
Y14256D1*
X4460Y14227D1*
X4440Y14208D1*
X4412Y14198D1*
X4383D1*
X4354Y14208D1*
X4345Y14217D1*
X4335Y14236D1*
X4588Y14399D2*
X4560Y14389D1*
X4540Y14361D1*
X4531Y14313D1*
Y14284D1*
X4540Y14236D1*
X4560Y14208D1*
X4588Y14198D1*
X4607D1*
X4636Y14208D1*
X4655Y14236D1*
X4665Y14284D1*
Y14313D1*
X4655Y14361D1*
X4636Y14389D1*
X4607Y14399D1*
X4588D1*
X4655Y14361D2*
X4540Y14236D1*
X4736Y14351D2*
Y14361D1*
X4746Y14380D1*
X4755Y14389D1*
X4775Y14399D1*
X4813D1*
X4832Y14389D1*
X4841Y14380D1*
X4851Y14361D1*
Y14342D1*
X4841Y14322D1*
X4822Y14294D1*
X4727Y14198D1*
X4861D1*
X15260Y6341D2*
Y6217D1*
X15461D1*
X15356D2*
Y6293D1*
X15260Y6403D2*
X15461D1*
Y6489D1*
X15451Y6518D1*
X15442Y6528D1*
X15423Y6537D1*
X15394D1*
X15375Y6528D1*
X15365Y6518D1*
X15356Y6489D1*
X15346Y6518D1*
X15337Y6528D1*
X15318Y6537D1*
X15299D1*
X15279Y6528D1*
X15270Y6518D1*
X15260Y6489D1*
Y6403D1*
X15356D2*
Y6489D1*
X15299Y6599D2*
X15289Y6618D1*
X15260Y6647D1*
X15461D1*
X15260Y6766D2*
X15270Y6737D1*
X15299Y6718D1*
X15346Y6709D1*
X15375D1*
X15423Y6718D1*
X15452Y6737D1*
X15461Y6766D1*
Y6785D1*
X15452Y6814D1*
X15423Y6833D1*
X15375Y6843D1*
X15346D1*
X15299Y6833D1*
X15270Y6814D1*
X15260Y6785D1*
Y6766D1*
X15299Y6833D2*
X15423Y6718D1*
X15299Y6904D2*
X15289Y6924D1*
X15260Y6952D1*
X15461D1*
X23345Y4464D2*
Y4339D1*
X23546D1*
X23441D2*
Y4416D1*
X23345Y4526D2*
X23546D1*
Y4612D1*
X23536Y4640D1*
X23527Y4650D1*
X23508Y4660D1*
X23479D1*
X23460Y4650D1*
X23450Y4640D1*
X23441Y4612D1*
X23431Y4640D1*
X23421Y4650D1*
X23402Y4660D1*
X23383D1*
X23364Y4650D1*
X23354Y4640D1*
X23345Y4612D1*
Y4526D1*
X23441D2*
Y4612D1*
X23383Y4721D2*
X23374Y4740D1*
X23345Y4769D1*
X23546D1*
X23345Y4888D2*
X23355Y4860D1*
X23383Y4840D1*
X23431Y4831D1*
X23460D1*
X23508Y4840D1*
X23536Y4860D1*
X23546Y4888D1*
Y4907D1*
X23536Y4936D1*
X23508Y4955D1*
X23460Y4965D1*
X23431D1*
X23383Y4955D1*
X23355Y4936D1*
X23345Y4907D1*
Y4888D1*
X23383Y4955D2*
X23508Y4840D1*
X23393Y5036D2*
X23383D1*
X23364Y5046D1*
X23355Y5055D1*
X23345Y5075D1*
Y5113D1*
X23355Y5132D1*
X23364Y5141D1*
X23383Y5151D1*
X23402D1*
X23422Y5141D1*
X23450Y5122D1*
X23546Y5027D1*
Y5161D1*
X48548Y2740D2*
X48424D1*
Y2539D1*
Y2644D2*
X48500D1*
X48610Y2740D2*
Y2539D1*
X48696D1*
X48725Y2549D1*
X48735Y2558D1*
X48744Y2577D1*
Y2606D1*
X48735Y2625D1*
X48725Y2635D1*
X48696Y2644D1*
X48725Y2654D1*
X48735Y2663D1*
X48744Y2682D1*
Y2701D1*
X48735Y2721D1*
X48725Y2730D1*
X48696Y2740D1*
X48610D1*
Y2644D2*
X48696D1*
X48816Y2692D2*
Y2701D1*
X48825Y2721D1*
X48835Y2730D1*
X48854Y2740D1*
X48892D1*
X48911Y2730D1*
X48921Y2721D1*
X48930Y2701D1*
Y2682D1*
X48921Y2663D1*
X48902Y2635D1*
X48806Y2539D1*
X48940D1*
X49059Y2740D2*
X49030Y2730D1*
X49011Y2701D1*
X49002Y2654D1*
Y2625D1*
X49011Y2577D1*
X49030Y2548D1*
X49059Y2539D1*
X49078D1*
X49107Y2548D1*
X49126Y2577D1*
X49136Y2625D1*
Y2654D1*
X49126Y2701D1*
X49107Y2730D1*
X49078Y2740D1*
X49059D1*
X49126Y2701D2*
X49011Y2577D1*
X49197Y2701D2*
X49217Y2711D1*
X49245Y2740D1*
Y2539D1*
X26379Y9990D2*
X26255D1*
Y9789D1*
Y9894D2*
X26331D1*
X26441Y9990D2*
Y9789D1*
X26527D1*
X26556Y9799D1*
X26565Y9808D1*
X26575Y9827D1*
Y9856D1*
X26565Y9875D1*
X26556Y9885D1*
X26527Y9894D1*
X26556Y9904D1*
X26565Y9913D1*
X26575Y9932D1*
Y9951D1*
X26565Y9971D1*
X26556Y9980D1*
X26527Y9990D1*
X26441D1*
Y9894D2*
X26527D1*
X26656Y9990D2*
X26761D1*
X26704Y9913D1*
X26732D1*
X26751Y9904D1*
X26761Y9894D1*
X26771Y9865D1*
Y9846D1*
X26761Y9818D1*
X26742Y9798D1*
X26713Y9789D1*
X26684D1*
X26656Y9798D1*
X26646Y9808D1*
X26637Y9827D1*
X26890Y9990D2*
X26861Y9980D1*
X26842Y9951D1*
X26832Y9904D1*
Y9875D1*
X26842Y9827D1*
X26861Y9798D1*
X26890Y9789D1*
X26909D1*
X26938Y9798D1*
X26957Y9827D1*
X26966Y9875D1*
Y9904D1*
X26957Y9951D1*
X26938Y9980D1*
X26909Y9990D1*
X26890D1*
X26957Y9951D2*
X26842Y9827D1*
X27028Y9951D2*
X27047Y9961D1*
X27076Y9990D1*
Y9789D1*
X8410Y1793D2*
X8285D1*
Y1592D1*
Y1697D2*
X8362D1*
X8471Y1793D2*
Y1592D1*
X8538D1*
X8567Y1602D1*
X8586Y1621D1*
X8596Y1640D1*
X8605Y1668D1*
Y1716D1*
X8596Y1745D1*
X8586Y1764D1*
X8567Y1783D1*
X8538Y1793D1*
X8471D1*
X8667Y1754D2*
X8686Y1764D1*
X8715Y1793D1*
Y1592D1*
X35367Y20793D2*
X35242D1*
Y20592D1*
Y20697D2*
X35319D1*
X35428Y20793D2*
Y20592D1*
X35495D1*
X35524Y20602D1*
X35543Y20621D1*
X35553Y20640D1*
X35562Y20668D1*
Y20716D1*
X35553Y20745D1*
X35543Y20764D1*
X35524Y20783D1*
X35495Y20793D1*
X35428D1*
X35634Y20745D2*
Y20754D1*
X35643Y20774D1*
X35653Y20783D1*
X35672Y20793D1*
X35710D1*
X35729Y20783D1*
X35739Y20774D1*
X35748Y20754D1*
Y20735D1*
X35739Y20716D1*
X35720Y20688D1*
X35624Y20592D1*
X35758D1*
X41455Y14793D2*
Y14640D1*
X41445Y14611D1*
X41436Y14602D1*
X41417Y14592D1*
X41397D1*
X41378Y14602D1*
X41369Y14611D1*
X41359Y14640D1*
Y14659D1*
X41631Y14764D2*
X41622Y14783D1*
X41593Y14793D1*
X41574D1*
X41545Y14783D1*
X41526Y14754D1*
X41517Y14707D1*
Y14659D1*
X41526Y14621D1*
X41545Y14601D1*
X41574Y14592D1*
X41584D1*
X41612Y14601D1*
X41631Y14621D1*
X41641Y14649D1*
Y14659D1*
X41631Y14688D1*
X41612Y14707D1*
X41584Y14716D1*
X41574D1*
X41545Y14707D1*
X41526Y14688D1*
X41517Y14659D1*
X41455Y7793D2*
Y7640D1*
X41445Y7611D1*
X41436Y7602D1*
X41417Y7592D1*
X41397D1*
X41378Y7602D1*
X41369Y7611D1*
X41359Y7640D1*
Y7659D1*
X41641Y7726D2*
X41631Y7697D1*
X41612Y7678D1*
X41583Y7668D1*
X41574D1*
X41545Y7678D1*
X41526Y7697D1*
X41517Y7726D1*
Y7735D1*
X41526Y7764D1*
X41545Y7783D1*
X41574Y7793D1*
X41583D1*
X41612Y7783D1*
X41631Y7764D1*
X41641Y7726D1*
Y7678D1*
X41631Y7630D1*
X41612Y7601D1*
X41583Y7592D1*
X41564D1*
X41536Y7601D1*
X41526Y7621D1*
X44145Y7187D2*
Y7034D1*
X44136Y7005D1*
X44126Y6995D1*
X44107Y6986D1*
X44088D1*
X44069Y6995D1*
X44059Y7005D1*
X44049Y7034D1*
Y7053D1*
X44207Y7148D2*
X44226Y7158D1*
X44255Y7186D1*
Y6986D1*
X44374Y7186D2*
X44345Y7177D1*
X44326Y7148D1*
X44317Y7100D1*
Y7072D1*
X44326Y7024D1*
X44345Y6995D1*
X44374Y6986D1*
X44393D1*
X44422Y6995D1*
X44441Y7024D1*
X44451Y7072D1*
Y7100D1*
X44441Y7148D1*
X44422Y7177D1*
X44393Y7186D1*
X44374D1*
X44441Y7148D2*
X44326Y7024D1*
X40626Y20937D2*
Y20784D1*
X40616Y20755D1*
X40606Y20745D1*
X40587Y20736D1*
X40568D1*
X40549Y20745D1*
X40540Y20755D1*
X40530Y20784D1*
Y20803D1*
X40687Y20898D2*
X40707Y20908D1*
X40735Y20936D1*
Y20736D1*
X40797Y20898D2*
X40816Y20908D1*
X40845Y20936D1*
Y20736D1*
X41583Y20937D2*
Y20784D1*
X41573Y20755D1*
X41563Y20745D1*
X41544Y20736D1*
X41525D1*
X41506Y20745D1*
X41497Y20755D1*
X41487Y20784D1*
Y20803D1*
X41644Y20898D2*
X41664Y20908D1*
X41692Y20936D1*
Y20736D1*
X41764Y20889D2*
Y20898D1*
X41773Y20917D1*
X41783Y20927D1*
X41802Y20936D1*
X41840D1*
X41859Y20927D1*
X41869Y20917D1*
X41879Y20898D1*
Y20879D1*
X41869Y20860D1*
X41850Y20831D1*
X41754Y20736D1*
X41888D1*
X42583Y20937D2*
Y20784D1*
X42573Y20755D1*
X42563Y20745D1*
X42544Y20736D1*
X42525D1*
X42506Y20745D1*
X42497Y20755D1*
X42487Y20784D1*
Y20803D1*
X42644Y20898D2*
X42664Y20908D1*
X42692Y20936D1*
Y20736D1*
X42773Y20936D2*
X42878D1*
X42821Y20860D1*
X42850D1*
X42869Y20850D1*
X42878Y20841D1*
X42888Y20812D1*
Y20793D1*
X42878Y20764D1*
X42859Y20745D1*
X42831Y20736D1*
X42802D1*
X42773Y20745D1*
X42764Y20755D1*
X42754Y20774D1*
X15090Y18177D2*
Y18024D1*
X15081Y17995D1*
X15071Y17986D1*
X15052Y17976D1*
X15033D1*
X15014Y17986D1*
X15004Y17995D1*
X14995Y18024D1*
Y18043D1*
X15152Y18138D2*
X15171Y18148D1*
X15200Y18177D1*
Y17976D1*
X15319Y18177D2*
X15290Y18167D1*
X15271Y18138D1*
X15262Y18091D1*
Y18062D1*
X15271Y18014D1*
X15290Y17985D1*
X15319Y17976D1*
X15338D1*
X15367Y17985D1*
X15386Y18014D1*
X15396Y18062D1*
Y18091D1*
X15386Y18138D1*
X15367Y18167D1*
X15338Y18177D1*
X15319D1*
X15386Y18138D2*
X15271Y18014D1*
X15457Y18138D2*
X15477Y18148D1*
X15505Y18177D1*
Y17976D1*
X45591Y20246D2*
Y20093D1*
X45581Y20064D1*
X45571Y20054D1*
X45552Y20045D1*
X45533D1*
X45514Y20054D1*
X45505Y20064D1*
X45495Y20093D1*
Y20112D1*
X45662Y20198D2*
Y20207D1*
X45672Y20226D1*
X45681Y20236D1*
X45700Y20245D1*
X45739D1*
X45758Y20236D1*
X45767Y20226D1*
X45777Y20207D1*
Y20188D1*
X45767Y20169D1*
X45748Y20140D1*
X45652Y20045D1*
X45786D1*
X45906Y20245D2*
X45877Y20236D1*
X45858Y20207D1*
X45848Y20159D1*
Y20131D1*
X45858Y20083D1*
X45877Y20054D1*
X45906Y20045D1*
X45925D1*
X45953Y20054D1*
X45972Y20083D1*
X45982Y20131D1*
Y20159D1*
X45972Y20207D1*
X45953Y20236D1*
X45925Y20245D1*
X45906D1*
X45972Y20207D2*
X45858Y20083D1*
X46044Y20207D2*
X46063Y20217D1*
X46092Y20245D1*
Y20045D1*
X50048Y20246D2*
Y20093D1*
X50038Y20064D1*
X50028Y20054D1*
X50009Y20045D1*
X49990D1*
X49971Y20054D1*
X49962Y20064D1*
X49952Y20093D1*
Y20112D1*
X50119Y20198D2*
Y20207D1*
X50129Y20226D1*
X50138Y20236D1*
X50157Y20245D1*
X50196D1*
X50215Y20236D1*
X50224Y20226D1*
X50234Y20207D1*
Y20188D1*
X50224Y20169D1*
X50205Y20140D1*
X50109Y20045D1*
X50243D1*
X50363Y20245D2*
X50334Y20236D1*
X50315Y20207D1*
X50305Y20159D1*
Y20131D1*
X50315Y20083D1*
X50334Y20054D1*
X50363Y20045D1*
X50382D1*
X50410Y20054D1*
X50429Y20083D1*
X50439Y20131D1*
Y20159D1*
X50429Y20207D1*
X50410Y20236D1*
X50382Y20245D1*
X50363D1*
X50429Y20207D2*
X50315Y20083D1*
X50511Y20198D2*
Y20207D1*
X50520Y20226D1*
X50530Y20236D1*
X50549Y20245D1*
X50587D1*
X50606Y20236D1*
X50616Y20226D1*
X50625Y20207D1*
Y20188D1*
X50616Y20169D1*
X50597Y20140D1*
X50501Y20045D1*
X50635D1*
X49004Y7793D2*
Y7640D1*
X48995Y7611D1*
X48985Y7602D1*
X48966Y7592D1*
X48947D1*
X48928Y7602D1*
X48918Y7611D1*
X48909Y7640D1*
Y7659D1*
X49076Y7745D2*
Y7754D1*
X49085Y7774D1*
X49095Y7783D1*
X49114Y7793D1*
X49152D1*
X49171Y7783D1*
X49181Y7774D1*
X49190Y7754D1*
Y7735D1*
X49181Y7716D1*
X49162Y7688D1*
X49066Y7592D1*
X49200D1*
X49319Y7793D2*
X49290Y7783D1*
X49271Y7754D1*
X49262Y7707D1*
Y7678D1*
X49271Y7630D1*
X49290Y7601D1*
X49319Y7592D1*
X49338D1*
X49367Y7601D1*
X49386Y7630D1*
X49396Y7678D1*
Y7707D1*
X49386Y7754D1*
X49367Y7783D1*
X49338Y7793D1*
X49319D1*
X49386Y7754D2*
X49271Y7630D1*
X49477Y7793D2*
X49582D1*
X49524Y7716D1*
X49553D1*
X49572Y7707D1*
X49582Y7697D1*
X49591Y7668D1*
Y7649D1*
X49582Y7621D1*
X49563Y7601D1*
X49534Y7592D1*
X49505D1*
X49477Y7601D1*
X49467Y7611D1*
X49457Y7630D1*
X26047Y15687D2*
Y15534D1*
X26038Y15505D1*
X26028Y15495D1*
X26009Y15486D1*
X25990D1*
X25971Y15495D1*
X25961Y15505D1*
X25952Y15534D1*
Y15553D1*
X26128Y15686D2*
X26233D1*
X26176Y15610D1*
X26205D1*
X26224Y15600D1*
X26233Y15591D1*
X26243Y15562D1*
Y15543D1*
X26233Y15514D1*
X26214Y15495D1*
X26186Y15486D1*
X26157D1*
X26128Y15495D1*
X26119Y15505D1*
X26109Y15524D1*
X26362Y15686D2*
X26333Y15677D1*
X26314Y15648D1*
X26305Y15600D1*
Y15572D1*
X26314Y15524D1*
X26333Y15495D1*
X26362Y15486D1*
X26381D1*
X26410Y15495D1*
X26429Y15524D1*
X26439Y15572D1*
Y15600D1*
X26429Y15648D1*
X26410Y15677D1*
X26381Y15686D1*
X26362D1*
X26429Y15648D2*
X26314Y15524D1*
X26500Y15648D2*
X26520Y15658D1*
X26548Y15686D1*
Y15486D1*
X32980Y17482D2*
Y17329D1*
X32970Y17300D1*
X32960Y17291D1*
X32941Y17281D1*
X32922D1*
X32903Y17291D1*
X32894Y17300D1*
X32884Y17329D1*
Y17348D1*
X33061Y17482D2*
X33166D1*
X33108Y17405D1*
X33137D1*
X33156Y17396D1*
X33166Y17386D1*
X33175Y17357D1*
Y17338D1*
X33166Y17310D1*
X33147Y17290D1*
X33118Y17281D1*
X33089D1*
X33061Y17290D1*
X33051Y17300D1*
X33041Y17319D1*
X33295Y17482D2*
X33266Y17472D1*
X33247Y17443D1*
X33237Y17396D1*
Y17367D1*
X33247Y17319D1*
X33266Y17290D1*
X33295Y17281D1*
X33314D1*
X33342Y17290D1*
X33361Y17319D1*
X33371Y17367D1*
Y17396D1*
X33361Y17443D1*
X33342Y17472D1*
X33314Y17482D1*
X33295D1*
X33361Y17443D2*
X33247Y17319D1*
X33443Y17434D2*
Y17443D1*
X33452Y17463D1*
X33462Y17472D1*
X33481Y17482D1*
X33519D1*
X33538Y17472D1*
X33548Y17463D1*
X33557Y17443D1*
Y17424D1*
X33548Y17405D1*
X33529Y17377D1*
X33433Y17281D1*
X33567D1*
X27980Y17482D2*
Y17329D1*
X27970Y17300D1*
X27960Y17291D1*
X27941Y17281D1*
X27922D1*
X27903Y17291D1*
X27894Y17300D1*
X27884Y17329D1*
Y17348D1*
X28061Y17482D2*
X28166D1*
X28108Y17405D1*
X28137D1*
X28156Y17396D1*
X28166Y17386D1*
X28175Y17357D1*
Y17338D1*
X28166Y17310D1*
X28147Y17290D1*
X28118Y17281D1*
X28089D1*
X28061Y17290D1*
X28051Y17300D1*
X28041Y17319D1*
X28295Y17482D2*
X28266Y17472D1*
X28247Y17443D1*
X28237Y17396D1*
Y17367D1*
X28247Y17319D1*
X28266Y17290D1*
X28295Y17281D1*
X28314D1*
X28342Y17290D1*
X28361Y17319D1*
X28371Y17367D1*
Y17396D1*
X28361Y17443D1*
X28342Y17472D1*
X28314Y17482D1*
X28295D1*
X28361Y17443D2*
X28247Y17319D1*
X28452Y17482D2*
X28557D1*
X28500Y17405D1*
X28529D1*
X28548Y17396D1*
X28557Y17386D1*
X28567Y17357D1*
Y17338D1*
X28557Y17310D1*
X28538Y17290D1*
X28509Y17281D1*
X28481D1*
X28452Y17290D1*
X28443Y17300D1*
X28433Y17319D1*
X26300Y5718D2*
Y5565D1*
X26291Y5536D1*
X26281Y5527D1*
X26262Y5517D1*
X26243D1*
X26224Y5527D1*
X26214Y5536D1*
X26205Y5565D1*
Y5584D1*
X26458Y5517D2*
Y5718D1*
X26362Y5584D1*
X26506D1*
X26625Y5718D2*
X26596Y5708D1*
X26577Y5680D1*
X26567Y5632D1*
Y5603D1*
X26577Y5555D1*
X26596Y5527D1*
X26625Y5517D1*
X26644D1*
X26673Y5527D1*
X26692Y5555D1*
X26701Y5603D1*
Y5632D1*
X26692Y5680D1*
X26673Y5708D1*
X26644Y5718D1*
X26625D1*
X26692Y5680D2*
X26577Y5555D1*
X26763Y5680D2*
X26782Y5689D1*
X26811Y5718D1*
Y5517D1*
X29757Y5718D2*
Y5565D1*
X29748Y5536D1*
X29738Y5527D1*
X29719Y5517D1*
X29700D1*
X29681Y5527D1*
X29671Y5536D1*
X29662Y5565D1*
Y5584D1*
X29915Y5517D2*
Y5718D1*
X29819Y5584D1*
X29963D1*
X30082Y5718D2*
X30053Y5708D1*
X30034Y5680D1*
X30024Y5632D1*
Y5603D1*
X30034Y5555D1*
X30053Y5527D1*
X30082Y5517D1*
X30101D1*
X30130Y5527D1*
X30149Y5555D1*
X30158Y5603D1*
Y5632D1*
X30149Y5680D1*
X30130Y5708D1*
X30101Y5718D1*
X30082D1*
X30149Y5680D2*
X30034Y5555D1*
X30230Y5670D2*
Y5680D1*
X30239Y5699D1*
X30249Y5708D1*
X30268Y5718D1*
X30306D1*
X30325Y5708D1*
X30335Y5699D1*
X30345Y5680D1*
Y5661D1*
X30335Y5641D1*
X30316Y5613D1*
X30220Y5517D1*
X30354D1*
X2797Y19833D2*
Y19680D1*
X2788Y19651D1*
X2778Y19642D1*
X2759Y19632D1*
X2740D1*
X2721Y19642D1*
X2711Y19651D1*
X2702Y19680D1*
Y19699D1*
X2974Y19833D2*
X2878D1*
X2869Y19747D1*
X2878Y19756D1*
X2907Y19766D1*
X2936D1*
X2964Y19756D1*
X2983Y19737D1*
X2993Y19708D1*
Y19689D1*
X2983Y19661D1*
X2964Y19641D1*
X2936Y19632D1*
X2907D1*
X2878Y19641D1*
X2869Y19651D1*
X2859Y19670D1*
X3112Y19833D2*
X3083Y19823D1*
X3064Y19794D1*
X3055Y19747D1*
Y19718D1*
X3064Y19670D1*
X3083Y19641D1*
X3112Y19632D1*
X3131D1*
X3160Y19641D1*
X3179Y19670D1*
X3189Y19718D1*
Y19747D1*
X3179Y19794D1*
X3160Y19823D1*
X3131Y19833D1*
X3112D1*
X3179Y19794D2*
X3064Y19670D1*
X3250Y19794D2*
X3270Y19804D1*
X3298Y19833D1*
Y19632D1*
X33004Y5793D2*
Y5640D1*
X32995Y5611D1*
X32985Y5602D1*
X32966Y5592D1*
X32947D1*
X32928Y5602D1*
X32918Y5611D1*
X32909Y5640D1*
Y5659D1*
X33181Y5793D2*
X33085D1*
X33076Y5707D1*
X33085Y5716D1*
X33114Y5726D1*
X33143D1*
X33171Y5716D1*
X33190Y5697D1*
X33200Y5668D1*
Y5649D1*
X33190Y5621D1*
X33171Y5601D1*
X33143Y5592D1*
X33114D1*
X33085Y5601D1*
X33076Y5611D1*
X33066Y5630D1*
X33319Y5793D2*
X33290Y5783D1*
X33271Y5754D1*
X33262Y5707D1*
Y5678D1*
X33271Y5630D1*
X33290Y5601D1*
X33319Y5592D1*
X33338D1*
X33367Y5601D1*
X33386Y5630D1*
X33396Y5678D1*
Y5707D1*
X33386Y5754D1*
X33367Y5783D1*
X33338Y5793D1*
X33319D1*
X33386Y5754D2*
X33271Y5630D1*
X33467Y5745D2*
Y5754D1*
X33477Y5774D1*
X33486Y5783D1*
X33505Y5793D1*
X33544D1*
X33563Y5783D1*
X33572Y5774D1*
X33582Y5754D1*
Y5735D1*
X33572Y5716D1*
X33553Y5688D1*
X33457Y5592D1*
X33591D1*
X26607Y7594D2*
X26588Y7585D1*
X26569Y7565D1*
X26560Y7546D1*
X26550Y7517D1*
Y7470D1*
X26560Y7441D1*
X26569Y7422D1*
X26588Y7403D1*
X26607Y7393D1*
X26646D1*
X26665Y7403D1*
X26684Y7422D1*
X26693Y7441D1*
X26703Y7470D1*
Y7517D1*
X26693Y7546D1*
X26684Y7565D1*
X26665Y7585D1*
X26646Y7594D1*
X26607D1*
X26636Y7431D2*
X26693Y7374D1*
X26860Y7393D2*
Y7594D1*
X26765Y7460D1*
X26908D1*
X27027Y7594D2*
X26999Y7584D1*
X26979Y7555D1*
X26970Y7508D1*
Y7479D1*
X26979Y7431D1*
X26999Y7402D1*
X27027Y7393D1*
X27046D1*
X27075Y7402D1*
X27094Y7431D1*
X27104Y7479D1*
Y7508D1*
X27094Y7555D1*
X27075Y7584D1*
X27046Y7594D1*
X27027D1*
X27094Y7555D2*
X26979Y7431D1*
X27166Y7555D2*
X27185Y7565D1*
X27214Y7594D1*
Y7393D1*
X1553Y10761D2*
X1534Y10752D1*
X1515Y10733D1*
X1505Y10714D1*
X1496Y10685D1*
Y10637D1*
X1505Y10608D1*
X1515Y10589D1*
X1534Y10570D1*
X1553Y10561D1*
X1591D1*
X1611Y10570D1*
X1630Y10589D1*
X1639Y10608D1*
X1649Y10637D1*
Y10685D1*
X1639Y10714D1*
X1630Y10733D1*
X1611Y10752D1*
X1591Y10761D1*
X1553D1*
X1582Y10599D2*
X1639Y10541D1*
X1825Y10761D2*
X1730D1*
X1720Y10675D1*
X1730Y10685D1*
X1759Y10694D1*
X1787D1*
X1816Y10685D1*
X1835Y10666D1*
X1845Y10637D1*
Y10618D1*
X1835Y10589D1*
X1816Y10570D1*
X1787Y10560D1*
X1759D1*
X1730Y10570D1*
X1720Y10580D1*
X1711Y10599D1*
X1964Y10761D2*
X1935Y10752D1*
X1916Y10723D1*
X1906Y10675D1*
Y10646D1*
X1916Y10599D1*
X1935Y10570D1*
X1964Y10560D1*
X1983D1*
X2012Y10570D1*
X2031Y10599D1*
X2040Y10646D1*
Y10675D1*
X2031Y10723D1*
X2012Y10752D1*
X1983Y10761D1*
X1964D1*
X2031Y10723D2*
X1916Y10599D1*
X2102Y10723D2*
X2121Y10733D1*
X2150Y10761D1*
Y10560D1*
X3760Y10761D2*
X3741Y10752D1*
X3722Y10733D1*
X3712Y10714D1*
X3703Y10685D1*
Y10637D1*
X3712Y10608D1*
X3722Y10589D1*
X3741Y10570D1*
X3760Y10561D1*
X3798D1*
X3818Y10570D1*
X3837Y10589D1*
X3846Y10608D1*
X3856Y10637D1*
Y10685D1*
X3846Y10714D1*
X3837Y10733D1*
X3818Y10752D1*
X3798Y10761D1*
X3760D1*
X3789Y10599D2*
X3846Y10541D1*
X4032Y10761D2*
X3937D1*
X3927Y10675D1*
X3937Y10685D1*
X3966Y10694D1*
X3994D1*
X4023Y10685D1*
X4042Y10666D1*
X4052Y10637D1*
Y10618D1*
X4042Y10589D1*
X4023Y10570D1*
X3994Y10560D1*
X3966D1*
X3937Y10570D1*
X3927Y10580D1*
X3918Y10599D1*
X4171Y10761D2*
X4142Y10752D1*
X4123Y10723D1*
X4113Y10675D1*
Y10646D1*
X4123Y10599D1*
X4142Y10570D1*
X4171Y10560D1*
X4190D1*
X4219Y10570D1*
X4238Y10599D1*
X4247Y10646D1*
Y10675D1*
X4238Y10723D1*
X4219Y10752D1*
X4190Y10761D1*
X4171D1*
X4238Y10723D2*
X4123Y10599D1*
X4319Y10713D2*
Y10723D1*
X4328Y10742D1*
X4338Y10752D1*
X4357Y10761D1*
X4395D1*
X4414Y10752D1*
X4424Y10742D1*
X4434Y10723D1*
Y10704D1*
X4424Y10685D1*
X4405Y10656D1*
X4309Y10560D1*
X4443D1*
X17310Y4644D2*
X17396D1*
X17425Y4654D1*
X17435Y4663D1*
X17444Y4682D1*
Y4701D1*
X17435Y4721D1*
X17425Y4730D1*
X17396Y4740D1*
X17310D1*
Y4539D1*
X17377Y4644D2*
X17444Y4539D1*
X17506Y4701D2*
X17525Y4711D1*
X17554Y4740D1*
Y4539D1*
X17673Y4740D2*
X17644Y4730D1*
X17625Y4701D1*
X17616Y4654D1*
Y4625D1*
X17625Y4577D1*
X17644Y4548D1*
X17673Y4539D1*
X17692D1*
X17721Y4548D1*
X17740Y4577D1*
X17749Y4625D1*
Y4654D1*
X17740Y4701D1*
X17721Y4730D1*
X17692Y4740D1*
X17673D1*
X17740Y4701D2*
X17625Y4577D1*
X17811Y4701D2*
X17830Y4711D1*
X17859Y4740D1*
Y4539D1*
X21106Y4348D2*
Y4434D1*
X21096Y4463D1*
X21087Y4472D1*
X21068Y4482D1*
X21049D1*
X21029Y4472D1*
X21020Y4463D1*
X21010Y4434D1*
Y4348D1*
X21211D1*
X21106Y4415D2*
X21211Y4482D1*
X21049Y4544D2*
X21039Y4563D1*
X21010Y4591D1*
X21211D1*
X21010Y4711D2*
X21020Y4682D1*
X21049Y4663D1*
X21096Y4653D1*
X21125D1*
X21173Y4663D1*
X21202Y4682D1*
X21211Y4711D1*
Y4730D1*
X21202Y4758D1*
X21173Y4777D1*
X21125Y4787D1*
X21096D1*
X21049Y4777D1*
X21020Y4758D1*
X21010Y4730D1*
Y4711D1*
X21049Y4777D2*
X21173Y4663D1*
X21058Y4859D2*
X21049D1*
X21029Y4868D1*
X21020Y4878D1*
X21010Y4897D1*
Y4935D1*
X21020Y4954D1*
X21029Y4964D1*
X21049Y4973D1*
X21068D1*
X21087Y4964D1*
X21115Y4945D1*
X21211Y4849D1*
Y4983D1*
X10098Y5394D2*
X10184D1*
X10213Y5404D1*
X10222Y5413D1*
X10232Y5432D1*
Y5451D1*
X10222Y5471D1*
X10213Y5480D1*
X10184Y5490D1*
X10098D1*
Y5289D1*
X10165Y5394D2*
X10232Y5289D1*
X10294Y5451D2*
X10313Y5461D1*
X10341Y5490D1*
Y5289D1*
X10461Y5490D2*
X10432Y5480D1*
X10413Y5451D1*
X10403Y5404D1*
Y5375D1*
X10413Y5327D1*
X10432Y5298D1*
X10461Y5289D1*
X10480D1*
X10508Y5298D1*
X10527Y5327D1*
X10537Y5375D1*
Y5404D1*
X10527Y5451D1*
X10508Y5480D1*
X10480Y5490D1*
X10461D1*
X10527Y5451D2*
X10413Y5327D1*
X10618Y5490D2*
X10723D1*
X10666Y5413D1*
X10695D1*
X10714Y5404D1*
X10723Y5394D1*
X10733Y5365D1*
Y5346D1*
X10723Y5318D1*
X10704Y5298D1*
X10675Y5289D1*
X10647D1*
X10618Y5298D1*
X10609Y5308D1*
X10599Y5327D1*
X19178Y5559D2*
X19264D1*
X19292Y5569D1*
X19302Y5579D1*
X19312Y5598D1*
Y5617D1*
X19302Y5636D1*
X19292Y5646D1*
X19264Y5655D1*
X19178D1*
Y5454D1*
X19245Y5559D2*
X19312Y5454D1*
X19373Y5617D2*
X19393Y5626D1*
X19421Y5655D1*
Y5454D1*
X19541Y5655D2*
X19512Y5645D1*
X19493Y5617D1*
X19483Y5569D1*
Y5540D1*
X19493Y5492D1*
X19512Y5464D1*
X19541Y5454D1*
X19560D1*
X19588Y5464D1*
X19607Y5492D1*
X19617Y5540D1*
Y5569D1*
X19607Y5617D1*
X19588Y5645D1*
X19560Y5655D1*
X19541D1*
X19607Y5617D2*
X19493Y5492D1*
X19775Y5454D2*
Y5655D1*
X19679Y5521D1*
X19822D1*
X14468Y4879D2*
Y4965D1*
X14458Y4994D1*
X14449Y5004D1*
X14430Y5013D1*
X14411D1*
X14392Y5004D1*
X14382Y4994D1*
X14372Y4965D1*
Y4879D1*
X14573D1*
X14468Y4946D2*
X14573Y5013D1*
X14411Y5075D2*
X14401Y5094D1*
X14373Y5123D1*
X14573D1*
X14373Y5242D2*
X14382Y5213D1*
X14411Y5194D1*
X14459Y5185D1*
X14487D1*
X14535Y5194D1*
X14564Y5213D1*
X14573Y5242D1*
Y5261D1*
X14564Y5290D1*
X14535Y5309D1*
X14487Y5319D1*
X14459D1*
X14411Y5309D1*
X14382Y5290D1*
X14373Y5261D1*
Y5242D1*
X14411Y5309D2*
X14535Y5194D1*
X14373Y5495D2*
Y5400D1*
X14459Y5390D1*
X14449Y5400D1*
X14439Y5428D1*
Y5457D1*
X14449Y5486D1*
X14468Y5505D1*
X14497Y5514D1*
X14516D1*
X14545Y5505D1*
X14564Y5486D1*
X14573Y5457D1*
Y5428D1*
X14564Y5400D1*
X14554Y5390D1*
X14535Y5380D1*
X22353Y5394D2*
X22439D1*
X22467Y5404D1*
X22477Y5413D1*
X22487Y5432D1*
Y5451D1*
X22477Y5471D1*
X22467Y5480D1*
X22439Y5490D1*
X22353D1*
Y5289D1*
X22420Y5394D2*
X22487Y5289D1*
X22548Y5451D2*
X22568Y5461D1*
X22596Y5490D1*
Y5289D1*
X22716Y5490D2*
X22687Y5480D1*
X22668Y5451D1*
X22658Y5404D1*
Y5375D1*
X22668Y5327D1*
X22687Y5298D1*
X22716Y5289D1*
X22735D1*
X22763Y5298D1*
X22782Y5327D1*
X22792Y5375D1*
Y5404D1*
X22782Y5451D1*
X22763Y5480D1*
X22735Y5490D1*
X22716D1*
X22782Y5451D2*
X22668Y5327D1*
X22969Y5461D2*
X22959Y5480D1*
X22930Y5490D1*
X22911D1*
X22883Y5480D1*
X22863Y5451D1*
X22854Y5404D1*
Y5356D1*
X22863Y5318D1*
X22883Y5298D1*
X22911Y5289D1*
X22921D1*
X22949Y5298D1*
X22969Y5318D1*
X22978Y5346D1*
Y5356D1*
X22969Y5385D1*
X22949Y5404D1*
X22921Y5413D1*
X22911D1*
X22883Y5404D1*
X22863Y5385D1*
X22854Y5356D1*
X6848Y5644D2*
X6934D1*
X6963Y5654D1*
X6972Y5663D1*
X6982Y5682D1*
Y5701D1*
X6972Y5721D1*
X6963Y5730D1*
X6934Y5740D1*
X6848D1*
Y5539D1*
X6915Y5644D2*
X6982Y5539D1*
X7044Y5701D2*
X7063Y5711D1*
X7091Y5740D1*
Y5539D1*
X7211Y5740D2*
X7182Y5730D1*
X7163Y5701D1*
X7153Y5654D1*
Y5625D1*
X7163Y5577D1*
X7182Y5548D1*
X7211Y5539D1*
X7230D1*
X7258Y5548D1*
X7277Y5577D1*
X7287Y5625D1*
Y5654D1*
X7277Y5701D1*
X7258Y5730D1*
X7230Y5740D1*
X7211D1*
X7277Y5701D2*
X7163Y5577D1*
X7387Y5539D2*
X7483Y5740D1*
X7349D1*
X17098Y6394D2*
X17184D1*
X17213Y6404D1*
X17222Y6413D1*
X17232Y6432D1*
Y6451D1*
X17222Y6471D1*
X17213Y6480D1*
X17184Y6490D1*
X17098D1*
Y6289D1*
X17165Y6394D2*
X17232Y6289D1*
X17294Y6451D2*
X17313Y6461D1*
X17342Y6490D1*
Y6289D1*
X17461Y6490D2*
X17432Y6480D1*
X17413Y6451D1*
X17403Y6404D1*
Y6375D1*
X17413Y6327D1*
X17432Y6298D1*
X17461Y6289D1*
X17480D1*
X17509Y6298D1*
X17528Y6327D1*
X17537Y6375D1*
Y6404D1*
X17528Y6451D1*
X17509Y6480D1*
X17480Y6490D1*
X17461D1*
X17528Y6451D2*
X17413Y6327D1*
X17647Y6490D2*
X17618Y6480D1*
X17609Y6461D1*
Y6442D1*
X17618Y6423D1*
X17637Y6413D1*
X17676Y6404D1*
X17704Y6394D1*
X17723Y6375D1*
X17733Y6356D1*
Y6327D1*
X17723Y6308D1*
X17714Y6298D1*
X17685Y6289D1*
X17647D1*
X17618Y6298D1*
X17609Y6308D1*
X17599Y6327D1*
Y6356D1*
X17609Y6375D1*
X17628Y6394D1*
X17656Y6404D1*
X17695Y6413D1*
X17714Y6423D1*
X17723Y6442D1*
Y6461D1*
X17714Y6480D1*
X17685Y6490D1*
X17647D1*
X14387Y6384D2*
Y6470D1*
X14378Y6499D1*
X14368Y6508D1*
X14349Y6518D1*
X14330D1*
X14311Y6508D1*
X14301Y6499D1*
X14292Y6470D1*
Y6384D1*
X14493D1*
X14387Y6451D2*
X14493Y6518D1*
X14330Y6580D2*
X14320Y6599D1*
X14292Y6628D1*
X14493D1*
X14292Y6747D2*
X14301Y6718D1*
X14330Y6699D1*
X14378Y6689D1*
X14407D1*
X14454Y6699D1*
X14483Y6718D1*
X14493Y6747D1*
Y6766D1*
X14483Y6795D1*
X14454Y6814D1*
X14407Y6823D1*
X14378D1*
X14330Y6814D1*
X14301Y6795D1*
X14292Y6766D1*
Y6747D1*
X14330Y6814D2*
X14454Y6699D1*
X14359Y7010D2*
X14387Y7000D1*
X14407Y6981D1*
X14416Y6952D1*
Y6943D1*
X14407Y6914D1*
X14387Y6895D1*
X14359Y6885D1*
X14349D1*
X14320Y6895D1*
X14301Y6914D1*
X14292Y6943D1*
Y6952D1*
X14301Y6981D1*
X14320Y7000D1*
X14359Y7010D1*
X14407D1*
X14454Y7000D1*
X14483Y6981D1*
X14493Y6952D1*
Y6933D1*
X14483Y6904D1*
X14464Y6895D1*
X6891Y6144D2*
X6977D1*
X7006Y6154D1*
X7015Y6163D1*
X7025Y6182D1*
Y6201D1*
X7015Y6221D1*
X7006Y6230D1*
X6977Y6240D1*
X6891D1*
Y6039D1*
X6958Y6144D2*
X7025Y6039D1*
X7087Y6201D2*
X7106Y6211D1*
X7134Y6240D1*
Y6039D1*
X7196Y6201D2*
X7215Y6211D1*
X7244Y6240D1*
Y6039D1*
X7363Y6240D2*
X7335Y6230D1*
X7315Y6201D1*
X7306Y6154D1*
Y6125D1*
X7315Y6077D1*
X7335Y6048D1*
X7363Y6039D1*
X7382D1*
X7411Y6048D1*
X7430Y6077D1*
X7440Y6125D1*
Y6154D1*
X7430Y6201D1*
X7411Y6230D1*
X7382Y6240D1*
X7363D1*
X7430Y6201D2*
X7315Y6077D1*
X23353Y6644D2*
X23439D1*
X23468Y6654D1*
X23478Y6663D1*
X23487Y6682D1*
Y6701D1*
X23478Y6721D1*
X23468Y6730D1*
X23439Y6740D1*
X23353D1*
Y6539D1*
X23420Y6644D2*
X23487Y6539D1*
X23549Y6701D2*
X23568Y6711D1*
X23597Y6740D1*
Y6539D1*
X23659Y6701D2*
X23678Y6711D1*
X23706Y6740D1*
Y6539D1*
X23768Y6701D2*
X23787Y6711D1*
X23816Y6740D1*
Y6539D1*
X17141Y7144D2*
X17227D1*
X17256Y7154D1*
X17265Y7163D1*
X17275Y7182D1*
Y7201D1*
X17265Y7221D1*
X17256Y7230D1*
X17227Y7240D1*
X17141D1*
Y7039D1*
X17208Y7144D2*
X17275Y7039D1*
X17337Y7201D2*
X17356Y7211D1*
X17384Y7240D1*
Y7039D1*
X17446Y7201D2*
X17465Y7211D1*
X17494Y7240D1*
Y7039D1*
X17566Y7192D2*
Y7201D1*
X17575Y7221D1*
X17585Y7230D1*
X17604Y7240D1*
X17642D1*
X17661Y7230D1*
X17671Y7221D1*
X17680Y7201D1*
Y7182D1*
X17671Y7163D1*
X17652Y7135D1*
X17556Y7039D1*
X17690D1*
X6891Y6644D2*
X6977D1*
X7006Y6654D1*
X7015Y6663D1*
X7025Y6682D1*
Y6701D1*
X7015Y6721D1*
X7006Y6730D1*
X6977Y6740D1*
X6891D1*
Y6539D1*
X6958Y6644D2*
X7025Y6539D1*
X7087Y6701D2*
X7106Y6711D1*
X7134Y6740D1*
Y6539D1*
X7196Y6701D2*
X7215Y6711D1*
X7244Y6740D1*
Y6539D1*
X7325Y6740D2*
X7430D1*
X7373Y6663D1*
X7402D1*
X7421Y6654D1*
X7430Y6644D1*
X7440Y6615D1*
Y6596D1*
X7430Y6568D1*
X7411Y6548D1*
X7382Y6539D1*
X7354D1*
X7325Y6548D1*
X7316Y6558D1*
X7306Y6577D1*
X17136Y7894D2*
X17222D1*
X17251Y7904D1*
X17260Y7913D1*
X17270Y7932D1*
Y7951D1*
X17260Y7971D1*
X17251Y7980D1*
X17222Y7990D1*
X17136D1*
Y7789D1*
X17203Y7894D2*
X17270Y7789D1*
X17332Y7951D2*
X17351Y7961D1*
X17380Y7990D1*
Y7789D1*
X17441Y7951D2*
X17461Y7961D1*
X17489Y7990D1*
Y7789D1*
X17647D2*
Y7990D1*
X17551Y7856D1*
X17695D1*
X6891Y7144D2*
X6977D1*
X7006Y7154D1*
X7015Y7163D1*
X7025Y7182D1*
Y7201D1*
X7015Y7221D1*
X7006Y7230D1*
X6977Y7240D1*
X6891D1*
Y7039D1*
X6958Y7144D2*
X7025Y7039D1*
X7087Y7201D2*
X7106Y7211D1*
X7134Y7240D1*
Y7039D1*
X7196Y7201D2*
X7215Y7211D1*
X7244Y7240D1*
Y7039D1*
X7421Y7240D2*
X7325D1*
X7316Y7154D1*
X7325Y7163D1*
X7354Y7173D1*
X7382D1*
X7411Y7163D1*
X7430Y7144D1*
X7440Y7115D1*
Y7096D1*
X7430Y7068D1*
X7411Y7048D1*
X7382Y7039D1*
X7354D1*
X7325Y7048D1*
X7316Y7058D1*
X7306Y7077D1*
X11646Y4894D2*
X11732D1*
X11760Y4904D1*
X11770Y4913D1*
X11780Y4932D1*
Y4951D1*
X11770Y4971D1*
X11760Y4980D1*
X11732Y4990D1*
X11646D1*
Y4789D1*
X11713Y4894D2*
X11780Y4789D1*
X11841Y4951D2*
X11861Y4961D1*
X11889Y4990D1*
Y4789D1*
X11951Y4951D2*
X11970Y4961D1*
X11999Y4990D1*
Y4789D1*
X12176Y4961D2*
X12166Y4980D1*
X12137Y4990D1*
X12118D1*
X12090Y4980D1*
X12070Y4951D1*
X12061Y4904D1*
Y4856D1*
X12070Y4818D1*
X12090Y4798D1*
X12118Y4789D1*
X12128D1*
X12156Y4798D1*
X12176Y4818D1*
X12185Y4846D1*
Y4856D1*
X12176Y4885D1*
X12156Y4904D1*
X12128Y4913D1*
X12118D1*
X12090Y4904D1*
X12070Y4885D1*
X12061Y4856D1*
X20356Y4310D2*
Y4396D1*
X20346Y4425D1*
X20337Y4435D1*
X20318Y4444D1*
X20299D1*
X20279Y4435D1*
X20270Y4425D1*
X20260Y4396D1*
Y4310D1*
X20461D1*
X20356Y4377D2*
X20461Y4444D1*
X20299Y4506D2*
X20289Y4525D1*
X20260Y4554D1*
X20461D1*
X20299Y4616D2*
X20289Y4635D1*
X20260Y4663D1*
X20461D1*
Y4764D2*
X20260Y4859D1*
Y4725D1*
X11891Y17144D2*
X11977D1*
X12006Y17154D1*
X12015Y17163D1*
X12025Y17182D1*
Y17201D1*
X12015Y17221D1*
X12006Y17230D1*
X11977Y17240D1*
X11891D1*
Y17039D1*
X11958Y17144D2*
X12025Y17039D1*
X12087Y17201D2*
X12106Y17211D1*
X12135Y17240D1*
Y17039D1*
X12196Y17201D2*
X12216Y17211D1*
X12244Y17240D1*
Y17039D1*
X12354Y17240D2*
X12325Y17230D1*
X12316Y17211D1*
Y17192D1*
X12325Y17173D1*
X12344Y17163D1*
X12383Y17154D1*
X12411Y17144D1*
X12430Y17125D1*
X12440Y17106D1*
Y17077D1*
X12430Y17058D1*
X12421Y17048D1*
X12392Y17039D1*
X12354D1*
X12325Y17048D1*
X12316Y17058D1*
X12306Y17077D1*
Y17106D1*
X12316Y17125D1*
X12335Y17144D1*
X12363Y17154D1*
X12402Y17163D1*
X12421Y17173D1*
X12430Y17192D1*
Y17211D1*
X12421Y17230D1*
X12392Y17240D1*
X12354D1*
X20815Y17144D2*
X20901D1*
X20930Y17154D1*
X20939Y17163D1*
X20949Y17182D1*
Y17201D1*
X20939Y17221D1*
X20930Y17230D1*
X20901Y17240D1*
X20815D1*
Y17039D1*
X20882Y17144D2*
X20949Y17039D1*
X21011Y17201D2*
X21030Y17211D1*
X21059Y17240D1*
Y17039D1*
X21120Y17201D2*
X21140Y17211D1*
X21168Y17240D1*
Y17039D1*
X21354Y17173D2*
X21345Y17144D1*
X21326Y17125D1*
X21297Y17115D1*
X21287D1*
X21259Y17125D1*
X21240Y17144D1*
X21230Y17173D1*
Y17182D1*
X21240Y17211D1*
X21259Y17230D1*
X21287Y17240D1*
X21297D1*
X21326Y17230D1*
X21345Y17211D1*
X21354Y17173D1*
Y17125D1*
X21345Y17077D1*
X21326Y17048D1*
X21297Y17039D1*
X21278D1*
X21249Y17048D1*
X21240Y17068D1*
X50098Y2644D2*
X50184D1*
X50213Y2654D1*
X50222Y2663D1*
X50232Y2682D1*
Y2701D1*
X50222Y2721D1*
X50213Y2730D1*
X50184Y2740D1*
X50098D1*
Y2539D1*
X50165Y2644D2*
X50232Y2539D1*
X50303Y2692D2*
Y2701D1*
X50313Y2721D1*
X50322Y2730D1*
X50341Y2740D1*
X50380D1*
X50399Y2730D1*
X50408Y2721D1*
X50418Y2701D1*
Y2682D1*
X50408Y2663D1*
X50389Y2635D1*
X50294Y2539D1*
X50427D1*
X50547Y2740D2*
X50518Y2730D1*
X50499Y2701D1*
X50489Y2654D1*
Y2625D1*
X50499Y2577D1*
X50518Y2548D1*
X50547Y2539D1*
X50566D1*
X50594Y2548D1*
X50613Y2577D1*
X50623Y2625D1*
Y2654D1*
X50613Y2701D1*
X50594Y2730D1*
X50566Y2740D1*
X50547D1*
X50613Y2701D2*
X50499Y2577D1*
X50685Y2701D2*
X50704Y2711D1*
X50733Y2740D1*
Y2539D1*
X47106Y8724D2*
Y8810D1*
X47096Y8839D1*
X47087Y8849D1*
X47068Y8858D1*
X47049D1*
X47029Y8849D1*
X47020Y8839D1*
X47010Y8810D1*
Y8724D1*
X47211D1*
X47106Y8791D2*
X47211Y8858D1*
X47058Y8930D2*
X47049D1*
X47029Y8939D1*
X47020Y8949D1*
X47010Y8968D1*
Y9006D1*
X47020Y9025D1*
X47029Y9035D1*
X47049Y9044D1*
X47068D1*
X47087Y9035D1*
X47115Y9016D1*
X47211Y8920D1*
Y9054D1*
X47010Y9173D2*
X47020Y9144D1*
X47049Y9125D1*
X47096Y9116D1*
X47125D1*
X47173Y9125D1*
X47202Y9144D1*
X47211Y9173D1*
Y9192D1*
X47202Y9221D1*
X47173Y9240D1*
X47125Y9249D1*
X47096D1*
X47049Y9240D1*
X47020Y9221D1*
X47010Y9192D1*
Y9173D1*
X47049Y9240D2*
X47173Y9125D1*
X47058Y9321D2*
X47049D1*
X47029Y9330D1*
X47020Y9340D1*
X47010Y9359D1*
Y9397D1*
X47020Y9416D1*
X47029Y9426D1*
X47049Y9436D1*
X47068D1*
X47087Y9426D1*
X47115Y9407D1*
X47211Y9311D1*
Y9445D1*
X45606Y8805D2*
Y8891D1*
X45596Y8920D1*
X45587Y8929D1*
X45568Y8939D1*
X45549D1*
X45529Y8929D1*
X45520Y8920D1*
X45510Y8891D1*
Y8805D1*
X45711D1*
X45606Y8872D2*
X45711Y8939D1*
X45558Y9010D2*
X45549D1*
X45529Y9020D1*
X45520Y9029D1*
X45510Y9048D1*
Y9087D1*
X45520Y9106D1*
X45529Y9115D1*
X45549Y9125D1*
X45568D1*
X45587Y9115D1*
X45615Y9096D1*
X45711Y9001D1*
Y9134D1*
X45510Y9254D2*
X45520Y9225D1*
X45549Y9206D1*
X45596Y9196D1*
X45625D1*
X45673Y9206D1*
X45702Y9225D1*
X45711Y9254D1*
Y9273D1*
X45702Y9301D1*
X45673Y9320D1*
X45625Y9330D1*
X45596D1*
X45549Y9320D1*
X45520Y9301D1*
X45510Y9273D1*
Y9254D1*
X45549Y9320D2*
X45673Y9206D1*
X45510Y9411D2*
Y9516D1*
X45587Y9459D1*
Y9488D1*
X45596Y9507D1*
X45606Y9516D1*
X45635Y9526D1*
X45654D1*
X45682Y9516D1*
X45702Y9497D1*
X45711Y9468D1*
Y9440D1*
X45702Y9411D1*
X45692Y9402D1*
X45673Y9392D1*
X46356Y13719D2*
Y13805D1*
X46346Y13834D1*
X46337Y13844D1*
X46318Y13853D1*
X46299D1*
X46279Y13844D1*
X46270Y13834D1*
X46260Y13805D1*
Y13719D1*
X46461D1*
X46356Y13786D2*
X46461Y13853D1*
X46308Y13925D2*
X46299D1*
X46279Y13934D1*
X46270Y13944D1*
X46260Y13963D1*
Y14001D1*
X46270Y14020D1*
X46279Y14030D1*
X46299Y14040D1*
X46318D1*
X46337Y14030D1*
X46365Y14011D1*
X46461Y13915D1*
Y14049D1*
X46260Y14168D2*
X46270Y14140D1*
X46299Y14120D1*
X46346Y14111D1*
X46375D1*
X46423Y14120D1*
X46452Y14140D1*
X46461Y14168D1*
Y14187D1*
X46452Y14216D1*
X46423Y14235D1*
X46375Y14245D1*
X46346D1*
X46299Y14235D1*
X46270Y14216D1*
X46260Y14187D1*
Y14168D1*
X46299Y14235D2*
X46423Y14120D1*
X46461Y14402D2*
X46260D1*
X46394Y14307D1*
Y14450D1*
X47856Y8724D2*
Y8810D1*
X47846Y8839D1*
X47837Y8849D1*
X47818Y8858D1*
X47799D1*
X47779Y8849D1*
X47770Y8839D1*
X47760Y8810D1*
Y8724D1*
X47961D1*
X47856Y8791D2*
X47961Y8858D1*
X47808Y8930D2*
X47799D1*
X47779Y8939D1*
X47770Y8949D1*
X47760Y8968D1*
Y9006D1*
X47770Y9025D1*
X47779Y9035D1*
X47799Y9044D1*
X47818D1*
X47837Y9035D1*
X47865Y9016D1*
X47961Y8920D1*
Y9054D1*
X47760Y9173D2*
X47770Y9144D1*
X47799Y9125D1*
X47846Y9116D1*
X47875D1*
X47923Y9125D1*
X47952Y9144D1*
X47961Y9173D1*
Y9192D1*
X47952Y9221D1*
X47923Y9240D1*
X47875Y9249D1*
X47846D1*
X47799Y9240D1*
X47770Y9221D1*
X47760Y9192D1*
Y9173D1*
X47799Y9240D2*
X47923Y9125D1*
X47760Y9426D2*
Y9330D1*
X47846Y9321D1*
X47837Y9330D1*
X47827Y9359D1*
Y9388D1*
X47837Y9416D1*
X47856Y9436D1*
X47885Y9445D1*
X47904D1*
X47932Y9436D1*
X47952Y9416D1*
X47961Y9388D1*
Y9359D1*
X47952Y9330D1*
X47942Y9321D1*
X47923Y9311D1*
X47856Y13810D2*
Y13896D1*
X47846Y13924D1*
X47837Y13934D1*
X47818Y13944D1*
X47799D1*
X47779Y13934D1*
X47770Y13924D1*
X47760Y13896D1*
Y13810D1*
X47961D1*
X47856Y13877D2*
X47961Y13944D1*
X47808Y14015D2*
X47799D1*
X47779Y14025D1*
X47770Y14034D1*
X47760Y14053D1*
Y14092D1*
X47770Y14111D1*
X47779Y14120D1*
X47799Y14130D1*
X47818D1*
X47837Y14120D1*
X47865Y14101D1*
X47961Y14005D1*
Y14139D1*
X47760Y14259D2*
X47770Y14230D1*
X47799Y14211D1*
X47846Y14201D1*
X47875D1*
X47923Y14211D1*
X47952Y14230D1*
X47961Y14259D1*
Y14278D1*
X47952Y14306D1*
X47923Y14325D1*
X47875Y14335D1*
X47846D1*
X47799Y14325D1*
X47770Y14306D1*
X47760Y14278D1*
Y14259D1*
X47799Y14325D2*
X47923Y14211D1*
X47789Y14512D2*
X47770Y14502D1*
X47760Y14473D1*
Y14454D1*
X47770Y14426D1*
X47799Y14406D1*
X47846Y14397D1*
X47894D1*
X47932Y14406D1*
X47952Y14426D1*
X47961Y14454D1*
Y14464D1*
X47952Y14492D1*
X47932Y14512D1*
X47904Y14521D1*
X47894D1*
X47865Y14512D1*
X47846Y14492D1*
X47837Y14464D1*
Y14454D1*
X47846Y14426D1*
X47865Y14406D1*
X47894Y14397D1*
X50606Y8724D2*
Y8810D1*
X50596Y8839D1*
X50587Y8849D1*
X50568Y8858D1*
X50549D1*
X50529Y8849D1*
X50520Y8839D1*
X50510Y8810D1*
Y8724D1*
X50711D1*
X50606Y8791D2*
X50711Y8858D1*
X50558Y8930D2*
X50549D1*
X50529Y8939D1*
X50520Y8949D1*
X50510Y8968D1*
Y9006D1*
X50520Y9025D1*
X50529Y9035D1*
X50549Y9044D1*
X50568D1*
X50587Y9035D1*
X50615Y9016D1*
X50711Y8920D1*
Y9054D1*
X50510Y9173D2*
X50520Y9144D1*
X50549Y9125D1*
X50596Y9116D1*
X50625D1*
X50673Y9125D1*
X50702Y9144D1*
X50711Y9173D1*
Y9192D1*
X50702Y9221D1*
X50673Y9240D1*
X50625Y9249D1*
X50596D1*
X50549Y9240D1*
X50520Y9221D1*
X50510Y9192D1*
Y9173D1*
X50549Y9240D2*
X50673Y9125D1*
X50711Y9350D2*
X50510Y9445D1*
Y9311D1*
X52106Y8803D2*
Y8889D1*
X52096Y8918D1*
X52087Y8927D1*
X52068Y8937D1*
X52049D1*
X52029Y8927D1*
X52020Y8918D1*
X52010Y8889D1*
Y8803D1*
X52211D1*
X52106Y8870D2*
X52211Y8937D1*
X52058Y9008D2*
X52049D1*
X52029Y9018D1*
X52020Y9027D1*
X52010Y9047D1*
Y9085D1*
X52020Y9104D1*
X52029Y9113D1*
X52049Y9123D1*
X52068D1*
X52087Y9113D1*
X52115Y9094D1*
X52211Y8999D1*
Y9133D1*
X52010Y9252D2*
X52020Y9223D1*
X52049Y9204D1*
X52096Y9194D1*
X52125D1*
X52173Y9204D1*
X52202Y9223D1*
X52211Y9252D1*
Y9271D1*
X52202Y9300D1*
X52173Y9319D1*
X52125Y9328D1*
X52096D1*
X52049Y9319D1*
X52020Y9300D1*
X52010Y9271D1*
Y9252D1*
X52049Y9319D2*
X52173Y9204D1*
X52010Y9438D2*
X52020Y9409D1*
X52039Y9400D1*
X52058D1*
X52077Y9409D1*
X52087Y9428D1*
X52096Y9467D1*
X52106Y9495D1*
X52125Y9514D1*
X52144Y9524D1*
X52173D1*
X52192Y9514D1*
X52202Y9505D1*
X52211Y9476D1*
Y9438D1*
X52202Y9409D1*
X52192Y9400D1*
X52173Y9390D1*
X52144D1*
X52125Y9400D1*
X52106Y9419D1*
X52096Y9447D1*
X52087Y9486D1*
X52077Y9505D1*
X52058Y9514D1*
X52039D1*
X52020Y9505D1*
X52010Y9476D1*
Y9438D1*
X51356Y13729D2*
Y13815D1*
X51346Y13844D1*
X51337Y13853D1*
X51318Y13863D1*
X51299D1*
X51279Y13853D1*
X51270Y13844D1*
X51260Y13815D1*
Y13729D1*
X51461D1*
X51356Y13796D2*
X51461Y13863D1*
X51308Y13934D2*
X51299D1*
X51279Y13944D1*
X51270Y13953D1*
X51260Y13973D1*
Y14011D1*
X51270Y14030D1*
X51279Y14039D1*
X51299Y14049D1*
X51318D1*
X51337Y14039D1*
X51365Y14020D1*
X51461Y13925D1*
Y14059D1*
X51260Y14178D2*
X51270Y14149D1*
X51299Y14130D1*
X51346Y14120D1*
X51375D1*
X51423Y14130D1*
X51452Y14149D1*
X51461Y14178D1*
Y14197D1*
X51452Y14226D1*
X51423Y14245D1*
X51375Y14254D1*
X51346D1*
X51299Y14245D1*
X51270Y14226D1*
X51260Y14197D1*
Y14178D1*
X51299Y14245D2*
X51423Y14130D1*
X51327Y14440D2*
X51356Y14431D1*
X51375Y14412D1*
X51385Y14383D1*
Y14373D1*
X51375Y14345D1*
X51356Y14326D1*
X51327Y14316D1*
X51318D1*
X51289Y14326D1*
X51270Y14345D1*
X51260Y14373D1*
Y14383D1*
X51270Y14412D1*
X51289Y14431D1*
X51327Y14440D1*
X51375D1*
X51423Y14431D1*
X51452Y14412D1*
X51461Y14383D1*
Y14364D1*
X51452Y14335D1*
X51432Y14326D1*
X49856Y8767D2*
Y8853D1*
X49846Y8882D1*
X49837Y8892D1*
X49818Y8901D1*
X49799D1*
X49779Y8892D1*
X49770Y8882D1*
X49760Y8853D1*
Y8767D1*
X49961D1*
X49856Y8834D2*
X49961Y8901D1*
X49808Y8973D2*
X49799D1*
X49779Y8982D1*
X49770Y8992D1*
X49760Y9011D1*
Y9049D1*
X49770Y9068D1*
X49779Y9078D1*
X49799Y9087D1*
X49818D1*
X49837Y9078D1*
X49865Y9059D1*
X49961Y8963D1*
Y9097D1*
X49799Y9159D2*
X49789Y9178D1*
X49760Y9206D1*
X49961D1*
X49760Y9326D2*
X49770Y9297D1*
X49799Y9278D1*
X49846Y9268D1*
X49875D1*
X49923Y9278D1*
X49952Y9297D1*
X49961Y9326D1*
Y9345D1*
X49952Y9373D1*
X49923Y9393D1*
X49875Y9402D1*
X49846D1*
X49799Y9393D1*
X49770Y9373D1*
X49760Y9345D1*
Y9326D1*
X49799Y9393D2*
X49923Y9278D1*
X49856Y13891D2*
Y13977D1*
X49846Y14006D1*
X49837Y14015D1*
X49818Y14025D1*
X49799D1*
X49779Y14015D1*
X49770Y14006D1*
X49760Y13977D1*
Y13891D1*
X49961D1*
X49856Y13958D2*
X49961Y14025D1*
X49808Y14096D2*
X49799D1*
X49779Y14106D1*
X49770Y14115D1*
X49760Y14134D1*
Y14173D1*
X49770Y14192D1*
X49779Y14201D1*
X49799Y14211D1*
X49818D1*
X49837Y14201D1*
X49865Y14182D1*
X49961Y14087D1*
Y14220D1*
X49799Y14282D2*
X49789Y14301D1*
X49760Y14330D1*
X49961D1*
X49799Y14392D2*
X49789Y14411D1*
X49760Y14440D1*
X49961D1*
X46098Y12394D2*
X46184D1*
X46213Y12404D1*
X46222Y12413D1*
X46232Y12432D1*
Y12451D1*
X46222Y12471D1*
X46213Y12480D1*
X46184Y12490D1*
X46098D1*
Y12289D1*
X46165Y12394D2*
X46232Y12289D1*
X46303Y12442D2*
Y12451D1*
X46313Y12471D1*
X46322Y12480D1*
X46341Y12490D1*
X46380D1*
X46399Y12480D1*
X46408Y12471D1*
X46418Y12451D1*
Y12432D1*
X46408Y12413D1*
X46389Y12385D1*
X46294Y12289D1*
X46427D1*
X46489Y12451D2*
X46508Y12461D1*
X46537Y12490D1*
Y12289D1*
X46609Y12442D2*
Y12451D1*
X46618Y12471D1*
X46628Y12480D1*
X46647Y12490D1*
X46685D1*
X46704Y12480D1*
X46714Y12471D1*
X46723Y12451D1*
Y12432D1*
X46714Y12413D1*
X46695Y12385D1*
X46599Y12289D1*
X46733D1*
X46267Y11644D2*
X46353D1*
X46382Y11654D1*
X46392Y11663D1*
X46401Y11682D1*
Y11701D1*
X46392Y11721D1*
X46382Y11730D1*
X46353Y11740D1*
X46267D1*
Y11539D1*
X46334Y11644D2*
X46401Y11539D1*
X46473Y11692D2*
Y11701D1*
X46482Y11721D1*
X46492Y11730D1*
X46511Y11740D1*
X46549D1*
X46568Y11730D1*
X46578Y11721D1*
X46587Y11701D1*
Y11682D1*
X46578Y11663D1*
X46559Y11635D1*
X46463Y11539D1*
X46597D1*
X46659Y11701D2*
X46678Y11711D1*
X46706Y11740D1*
Y11539D1*
X46787Y11740D2*
X46893D1*
X46835Y11663D1*
X46864D1*
X46883Y11654D1*
X46893Y11644D1*
X46902Y11615D1*
Y11596D1*
X46893Y11568D1*
X46873Y11548D1*
X46845Y11539D1*
X46816D1*
X46787Y11548D1*
X46778Y11558D1*
X46768Y11577D1*
X30271Y15682D2*
Y15768D1*
X30262Y15797D1*
X30252Y15807D1*
X30233Y15816D1*
X30214D1*
X30195Y15807D1*
X30185Y15797D1*
X30176Y15768D1*
Y15682D1*
X30377D1*
X30271Y15749D2*
X30377Y15816D1*
X30176Y15897D2*
Y16002D1*
X30252Y15945D1*
Y15974D1*
X30262Y15993D1*
X30271Y16002D1*
X30300Y16012D1*
X30319D1*
X30348Y16002D1*
X30367Y15983D1*
X30377Y15955D1*
Y15926D1*
X30367Y15897D1*
X30357Y15888D1*
X30338Y15878D1*
X30176Y16131D2*
X30185Y16103D1*
X30214Y16083D1*
X30262Y16074D1*
X30291D1*
X30338Y16083D1*
X30367Y16103D1*
X30377Y16131D1*
Y16150D1*
X30367Y16179D1*
X30338Y16198D1*
X30291Y16208D1*
X30262D1*
X30214Y16198D1*
X30185Y16179D1*
X30176Y16150D1*
Y16131D1*
X30214Y16198D2*
X30338Y16083D1*
X30214Y16270D2*
X30204Y16289D1*
X30176Y16318D1*
X30377D1*
X29805Y12144D2*
X29891D1*
X29920Y12154D1*
X29929Y12163D1*
X29939Y12182D1*
Y12201D1*
X29929Y12221D1*
X29920Y12230D1*
X29891Y12240D1*
X29805D1*
Y12039D1*
X29872Y12144D2*
X29939Y12039D1*
X30020Y12240D2*
X30125D1*
X30067Y12163D1*
X30096D1*
X30115Y12154D1*
X30125Y12144D1*
X30134Y12115D1*
Y12096D1*
X30125Y12068D1*
X30106Y12048D1*
X30077Y12039D1*
X30048D1*
X30020Y12048D1*
X30010Y12058D1*
X30001Y12077D1*
X30254Y12240D2*
X30225Y12230D1*
X30206Y12201D1*
X30196Y12154D1*
Y12125D1*
X30206Y12077D1*
X30225Y12048D1*
X30254Y12039D1*
X30273D1*
X30301Y12048D1*
X30320Y12077D1*
X30330Y12125D1*
Y12154D1*
X30320Y12201D1*
X30301Y12230D1*
X30273Y12240D1*
X30254D1*
X30320Y12201D2*
X30206Y12077D1*
X30402Y12192D2*
Y12201D1*
X30411Y12221D1*
X30421Y12230D1*
X30440Y12240D1*
X30478D1*
X30497Y12230D1*
X30507Y12221D1*
X30516Y12201D1*
Y12182D1*
X30507Y12163D1*
X30488Y12135D1*
X30392Y12039D1*
X30526D1*
X29805Y13144D2*
X29891D1*
X29920Y13154D1*
X29929Y13163D1*
X29939Y13182D1*
Y13201D1*
X29929Y13221D1*
X29920Y13230D1*
X29891Y13240D1*
X29805D1*
Y13039D1*
X29872Y13144D2*
X29939Y13039D1*
X30020Y13240D2*
X30125D1*
X30067Y13163D1*
X30096D1*
X30115Y13154D1*
X30125Y13144D1*
X30134Y13115D1*
Y13096D1*
X30125Y13068D1*
X30106Y13048D1*
X30077Y13039D1*
X30048D1*
X30020Y13048D1*
X30010Y13058D1*
X30001Y13077D1*
X30254Y13240D2*
X30225Y13230D1*
X30206Y13201D1*
X30196Y13154D1*
Y13125D1*
X30206Y13077D1*
X30225Y13048D1*
X30254Y13039D1*
X30273D1*
X30301Y13048D1*
X30320Y13077D1*
X30330Y13125D1*
Y13154D1*
X30320Y13201D1*
X30301Y13230D1*
X30273Y13240D1*
X30254D1*
X30320Y13201D2*
X30206Y13077D1*
X30411Y13240D2*
X30516D1*
X30459Y13163D1*
X30488D1*
X30507Y13154D1*
X30516Y13144D1*
X30526Y13115D1*
Y13096D1*
X30516Y13068D1*
X30497Y13048D1*
X30468Y13039D1*
X30440D1*
X30411Y13048D1*
X30402Y13058D1*
X30392Y13077D1*
X29800Y14144D2*
X29886D1*
X29915Y14154D1*
X29924Y14163D1*
X29934Y14182D1*
Y14201D1*
X29924Y14221D1*
X29915Y14230D1*
X29886Y14240D1*
X29800D1*
Y14039D1*
X29867Y14144D2*
X29934Y14039D1*
X30015Y14240D2*
X30120D1*
X30063Y14163D1*
X30091D1*
X30110Y14154D1*
X30120Y14144D1*
X30130Y14115D1*
Y14096D1*
X30120Y14068D1*
X30101Y14048D1*
X30072Y14039D1*
X30044D1*
X30015Y14048D1*
X30005Y14058D1*
X29996Y14077D1*
X30249Y14240D2*
X30220Y14230D1*
X30201Y14201D1*
X30191Y14154D1*
Y14125D1*
X30201Y14077D1*
X30220Y14048D1*
X30249Y14039D1*
X30268D1*
X30297Y14048D1*
X30316Y14077D1*
X30325Y14125D1*
Y14154D1*
X30316Y14201D1*
X30297Y14230D1*
X30268Y14240D1*
X30249D1*
X30316Y14201D2*
X30201Y14077D1*
X30483Y14039D2*
Y14240D1*
X30387Y14106D1*
X30531D1*
X31224Y12144D2*
X31310D1*
X31339Y12154D1*
X31349Y12163D1*
X31358Y12182D1*
Y12201D1*
X31349Y12221D1*
X31339Y12230D1*
X31310Y12240D1*
X31224D1*
Y12039D1*
X31291Y12144D2*
X31358Y12039D1*
X31439Y12240D2*
X31544D1*
X31487Y12163D1*
X31516D1*
X31535Y12154D1*
X31544Y12144D1*
X31554Y12115D1*
Y12096D1*
X31544Y12068D1*
X31525Y12048D1*
X31496Y12039D1*
X31468D1*
X31439Y12048D1*
X31430Y12058D1*
X31420Y12077D1*
X31673Y12240D2*
X31644Y12230D1*
X31625Y12201D1*
X31616Y12154D1*
Y12125D1*
X31625Y12077D1*
X31644Y12048D1*
X31673Y12039D1*
X31692D1*
X31721Y12048D1*
X31740Y12077D1*
X31749Y12125D1*
Y12154D1*
X31740Y12201D1*
X31721Y12230D1*
X31692Y12240D1*
X31673D1*
X31740Y12201D2*
X31625Y12077D1*
X31926Y12240D2*
X31830D1*
X31821Y12154D1*
X31830Y12163D1*
X31859Y12173D1*
X31888D1*
X31916Y12163D1*
X31936Y12144D1*
X31945Y12115D1*
Y12096D1*
X31936Y12068D1*
X31916Y12048D1*
X31888Y12039D1*
X31859D1*
X31830Y12048D1*
X31821Y12058D1*
X31811Y12077D1*
X31229Y13144D2*
X31315D1*
X31344Y13154D1*
X31353Y13163D1*
X31363Y13182D1*
Y13201D1*
X31353Y13221D1*
X31344Y13230D1*
X31315Y13240D1*
X31229D1*
Y13039D1*
X31296Y13144D2*
X31363Y13039D1*
X31444Y13240D2*
X31549D1*
X31492Y13163D1*
X31520D1*
X31539Y13154D1*
X31549Y13144D1*
X31559Y13115D1*
Y13096D1*
X31549Y13068D1*
X31530Y13048D1*
X31501Y13039D1*
X31472D1*
X31444Y13048D1*
X31434Y13058D1*
X31425Y13077D1*
X31678Y13240D2*
X31649Y13230D1*
X31630Y13201D1*
X31620Y13154D1*
Y13125D1*
X31630Y13077D1*
X31649Y13048D1*
X31678Y13039D1*
X31697D1*
X31726Y13048D1*
X31745Y13077D1*
X31754Y13125D1*
Y13154D1*
X31745Y13201D1*
X31726Y13230D1*
X31697Y13240D1*
X31678D1*
X31745Y13201D2*
X31630Y13077D1*
X31931Y13211D2*
X31921Y13230D1*
X31893Y13240D1*
X31874D1*
X31845Y13230D1*
X31826Y13201D1*
X31816Y13154D1*
Y13106D1*
X31826Y13068D1*
X31845Y13048D1*
X31874Y13039D1*
X31883D1*
X31912Y13048D1*
X31931Y13068D1*
X31940Y13096D1*
Y13106D1*
X31931Y13135D1*
X31912Y13154D1*
X31883Y13163D1*
X31874D1*
X31845Y13154D1*
X31826Y13135D1*
X31816Y13106D1*
X31224Y14144D2*
X31310D1*
X31339Y14154D1*
X31349Y14163D1*
X31358Y14182D1*
Y14201D1*
X31349Y14221D1*
X31339Y14230D1*
X31310Y14240D1*
X31224D1*
Y14039D1*
X31291Y14144D2*
X31358Y14039D1*
X31439Y14240D2*
X31544D1*
X31487Y14163D1*
X31516D1*
X31535Y14154D1*
X31544Y14144D1*
X31554Y14115D1*
Y14096D1*
X31544Y14068D1*
X31525Y14048D1*
X31496Y14039D1*
X31468D1*
X31439Y14048D1*
X31430Y14058D1*
X31420Y14077D1*
X31673Y14240D2*
X31644Y14230D1*
X31625Y14201D1*
X31616Y14154D1*
Y14125D1*
X31625Y14077D1*
X31644Y14048D1*
X31673Y14039D1*
X31692D1*
X31721Y14048D1*
X31740Y14077D1*
X31749Y14125D1*
Y14154D1*
X31740Y14201D1*
X31721Y14230D1*
X31692Y14240D1*
X31673D1*
X31740Y14201D2*
X31625Y14077D1*
X31850Y14039D2*
X31945Y14240D1*
X31811D1*
X26428Y8229D2*
X26514D1*
X26542Y8238D1*
X26552Y8248D1*
X26562Y8267D1*
Y8286D1*
X26552Y8305D1*
X26542Y8315D1*
X26514Y8324D1*
X26428D1*
Y8123D1*
X26495Y8229D2*
X26562Y8123D1*
X26719D2*
Y8324D1*
X26623Y8190D1*
X26767D1*
X26886Y8324D2*
X26857Y8315D1*
X26838Y8286D1*
X26829Y8238D1*
Y8209D1*
X26838Y8162D1*
X26857Y8133D1*
X26886Y8123D1*
X26905D1*
X26934Y8133D1*
X26953Y8162D1*
X26963Y8209D1*
Y8238D1*
X26953Y8286D1*
X26934Y8315D1*
X26905Y8324D1*
X26886D1*
X26953Y8286D2*
X26838Y8162D1*
X27024Y8286D2*
X27044Y8296D1*
X27072Y8324D1*
Y8123D1*
X27941Y6385D2*
Y6471D1*
X27931Y6499D1*
X27921Y6509D1*
X27902Y6519D1*
X27883D1*
X27864Y6509D1*
X27854Y6499D1*
X27845Y6471D1*
Y6385D1*
X28046D1*
X27941Y6452D2*
X28046Y6519D1*
Y6676D2*
X27845D1*
X27979Y6580D1*
Y6724D1*
X27845Y6843D2*
X27855Y6814D1*
X27883Y6795D1*
X27931Y6786D1*
X27960D1*
X28008Y6795D1*
X28036Y6814D1*
X28046Y6843D1*
Y6862D1*
X28036Y6891D1*
X28008Y6910D1*
X27960Y6920D1*
X27931D1*
X27883Y6910D1*
X27855Y6891D1*
X27845Y6862D1*
Y6843D1*
X27883Y6910D2*
X28008Y6795D1*
X27893Y6991D2*
X27883D1*
X27864Y7001D1*
X27855Y7010D1*
X27845Y7029D1*
Y7068D1*
X27855Y7087D1*
X27864Y7096D1*
X27883Y7106D1*
X27902D1*
X27922Y7096D1*
X27950Y7077D1*
X28046Y6981D1*
Y7115D1*
X25106Y6300D2*
Y6386D1*
X25096Y6415D1*
X25087Y6424D1*
X25068Y6434D1*
X25049D1*
X25029Y6424D1*
X25020Y6415D1*
X25010Y6386D1*
Y6300D1*
X25211D1*
X25106Y6367D2*
X25211Y6434D1*
Y6591D2*
X25010D1*
X25144Y6496D1*
Y6639D1*
X25010Y6758D2*
X25020Y6730D1*
X25049Y6710D1*
X25096Y6701D1*
X25125D1*
X25173Y6710D1*
X25202Y6730D1*
X25211Y6758D1*
Y6777D1*
X25202Y6806D1*
X25173Y6825D1*
X25125Y6835D1*
X25096D1*
X25049Y6825D1*
X25020Y6806D1*
X25010Y6777D1*
Y6758D1*
X25049Y6825D2*
X25173Y6710D1*
X25010Y6916D2*
Y7021D1*
X25087Y6964D1*
Y6992D1*
X25096Y7011D1*
X25106Y7021D1*
X25135Y7031D1*
X25154D1*
X25182Y7021D1*
X25202Y7002D1*
X25211Y6973D1*
Y6944D1*
X25202Y6916D1*
X25192Y6906D1*
X25173Y6897D1*
X1606Y5224D2*
Y5310D1*
X1596Y5339D1*
X1587Y5349D1*
X1568Y5358D1*
X1549D1*
X1529Y5349D1*
X1520Y5339D1*
X1510Y5310D1*
Y5224D1*
X1711D1*
X1606Y5291D2*
X1711Y5358D1*
X1510Y5535D2*
Y5439D1*
X1596Y5430D1*
X1587Y5439D1*
X1577Y5468D1*
Y5496D1*
X1587Y5525D1*
X1606Y5544D1*
X1635Y5554D1*
X1654D1*
X1682Y5544D1*
X1702Y5525D1*
X1711Y5496D1*
Y5468D1*
X1702Y5439D1*
X1692Y5430D1*
X1673Y5420D1*
X1510Y5673D2*
X1520Y5644D1*
X1549Y5625D1*
X1596Y5616D1*
X1625D1*
X1673Y5625D1*
X1702Y5644D1*
X1711Y5673D1*
Y5692D1*
X1702Y5721D1*
X1673Y5740D1*
X1625Y5749D1*
X1596D1*
X1549Y5740D1*
X1520Y5721D1*
X1510Y5692D1*
Y5673D1*
X1549Y5740D2*
X1673Y5625D1*
X1510Y5830D2*
Y5936D1*
X1587Y5878D1*
Y5907D1*
X1596Y5926D1*
X1606Y5936D1*
X1635Y5945D1*
X1654D1*
X1682Y5936D1*
X1702Y5916D1*
X1711Y5888D1*
Y5859D1*
X1702Y5830D1*
X1692Y5821D1*
X1673Y5811D1*
X3856Y5219D2*
Y5305D1*
X3846Y5334D1*
X3837Y5344D1*
X3818Y5353D1*
X3799D1*
X3779Y5344D1*
X3770Y5334D1*
X3760Y5305D1*
Y5219D1*
X3961D1*
X3856Y5286D2*
X3961Y5353D1*
X3760Y5530D2*
Y5434D1*
X3846Y5425D1*
X3837Y5434D1*
X3827Y5463D1*
Y5492D1*
X3837Y5520D1*
X3856Y5540D1*
X3885Y5549D1*
X3904D1*
X3932Y5540D1*
X3952Y5520D1*
X3961Y5492D1*
Y5463D1*
X3952Y5434D1*
X3942Y5425D1*
X3923Y5415D1*
X3760Y5668D2*
X3770Y5640D1*
X3799Y5620D1*
X3846Y5611D1*
X3875D1*
X3923Y5620D1*
X3952Y5640D1*
X3961Y5668D1*
Y5687D1*
X3952Y5716D1*
X3923Y5735D1*
X3875Y5745D1*
X3846D1*
X3799Y5735D1*
X3770Y5716D1*
X3760Y5687D1*
Y5668D1*
X3799Y5735D2*
X3923Y5620D1*
X3961Y5902D2*
X3760D1*
X3894Y5807D1*
Y5950D1*
X32974Y7644D2*
X33060D1*
X33089Y7654D1*
X33099Y7663D1*
X33108Y7682D1*
Y7701D1*
X33099Y7721D1*
X33089Y7730D1*
X33060Y7740D1*
X32974D1*
Y7539D1*
X33041Y7644D2*
X33108Y7539D1*
X33285Y7740D2*
X33189D1*
X33180Y7654D1*
X33189Y7663D1*
X33218Y7673D1*
X33246D1*
X33275Y7663D1*
X33294Y7644D1*
X33304Y7615D1*
Y7596D1*
X33294Y7568D1*
X33275Y7548D1*
X33246Y7539D1*
X33218D1*
X33189Y7548D1*
X33180Y7558D1*
X33170Y7577D1*
X33423Y7740D2*
X33394Y7730D1*
X33375Y7701D1*
X33366Y7654D1*
Y7625D1*
X33375Y7577D1*
X33394Y7548D1*
X33423Y7539D1*
X33442D1*
X33471Y7548D1*
X33490Y7577D1*
X33499Y7625D1*
Y7654D1*
X33490Y7701D1*
X33471Y7730D1*
X33442Y7740D1*
X33423D1*
X33490Y7701D2*
X33375Y7577D1*
X33676Y7740D2*
X33580D1*
X33571Y7654D1*
X33580Y7663D1*
X33609Y7673D1*
X33638D1*
X33666Y7663D1*
X33686Y7644D1*
X33695Y7615D1*
Y7596D1*
X33686Y7568D1*
X33666Y7548D1*
X33638Y7539D1*
X33609D1*
X33580Y7548D1*
X33571Y7558D1*
X33561Y7577D1*
X2356Y5229D2*
Y5315D1*
X2346Y5344D1*
X2337Y5353D1*
X2318Y5363D1*
X2299D1*
X2279Y5353D1*
X2270Y5344D1*
X2260Y5315D1*
Y5229D1*
X2461D1*
X2356Y5296D2*
X2461Y5363D1*
X2260Y5539D2*
Y5444D1*
X2346Y5434D1*
X2337Y5444D1*
X2327Y5473D1*
Y5501D1*
X2337Y5530D1*
X2356Y5549D1*
X2385Y5559D1*
X2404D1*
X2432Y5549D1*
X2452Y5530D1*
X2461Y5501D1*
Y5473D1*
X2452Y5444D1*
X2442Y5434D1*
X2423Y5425D1*
X2260Y5678D2*
X2270Y5649D1*
X2299Y5630D1*
X2346Y5620D1*
X2375D1*
X2423Y5630D1*
X2452Y5649D1*
X2461Y5678D1*
Y5697D1*
X2452Y5726D1*
X2423Y5745D1*
X2375Y5754D1*
X2346D1*
X2299Y5745D1*
X2270Y5726D1*
X2260Y5697D1*
Y5678D1*
X2299Y5745D2*
X2423Y5630D1*
X2289Y5931D2*
X2270Y5921D1*
X2260Y5893D1*
Y5874D1*
X2270Y5845D1*
X2299Y5826D1*
X2346Y5816D1*
X2394D1*
X2432Y5826D1*
X2452Y5845D1*
X2461Y5874D1*
Y5883D1*
X2452Y5912D1*
X2432Y5931D1*
X2404Y5940D1*
X2394D1*
X2365Y5931D1*
X2346Y5912D1*
X2337Y5883D1*
Y5874D1*
X2346Y5845D1*
X2365Y5826D1*
X2394Y5816D1*
X3106Y5224D2*
Y5310D1*
X3096Y5339D1*
X3087Y5349D1*
X3068Y5358D1*
X3049D1*
X3029Y5349D1*
X3020Y5339D1*
X3010Y5310D1*
Y5224D1*
X3211D1*
X3106Y5291D2*
X3211Y5358D1*
X3010Y5535D2*
Y5439D1*
X3096Y5430D1*
X3087Y5439D1*
X3077Y5468D1*
Y5496D1*
X3087Y5525D1*
X3106Y5544D1*
X3135Y5554D1*
X3154D1*
X3182Y5544D1*
X3202Y5525D1*
X3211Y5496D1*
Y5468D1*
X3202Y5439D1*
X3192Y5430D1*
X3173Y5420D1*
X3010Y5673D2*
X3020Y5644D1*
X3049Y5625D1*
X3096Y5616D1*
X3125D1*
X3173Y5625D1*
X3202Y5644D1*
X3211Y5673D1*
Y5692D1*
X3202Y5721D1*
X3173Y5740D1*
X3125Y5749D1*
X3096D1*
X3049Y5740D1*
X3020Y5721D1*
X3010Y5692D1*
Y5673D1*
X3049Y5740D2*
X3173Y5625D1*
X3211Y5850D2*
X3010Y5945D1*
Y5811D1*
X10617Y15179D2*
Y14978D1*
X10550Y15179D2*
X10684D1*
X10746Y15140D2*
X10765Y15150D1*
X10794Y15178D1*
Y14978D1*
X10913Y15178D2*
X10884Y15169D1*
X10865Y15140D1*
X10856Y15092D1*
Y15064D1*
X10865Y15016D1*
X10884Y14987D1*
X10913Y14978D1*
X10932D1*
X10961Y14987D1*
X10980Y15016D1*
X10990Y15064D1*
Y15092D1*
X10980Y15140D1*
X10961Y15169D1*
X10932Y15178D1*
X10913D1*
X10980Y15140D2*
X10865Y15016D1*
X11051Y15140D2*
X11071Y15150D1*
X11099Y15178D1*
Y14978D1*
X19574Y15179D2*
Y14978D1*
X19507Y15179D2*
X19641D1*
X19703Y15140D2*
X19722Y15150D1*
X19751Y15178D1*
Y14978D1*
X19870Y15178D2*
X19841Y15169D1*
X19822Y15140D1*
X19813Y15092D1*
Y15064D1*
X19822Y15016D1*
X19841Y14987D1*
X19870Y14978D1*
X19889D1*
X19918Y14987D1*
X19937Y15016D1*
X19947Y15064D1*
Y15092D1*
X19937Y15140D1*
X19918Y15169D1*
X19889Y15178D1*
X19870D1*
X19937Y15140D2*
X19822Y15016D1*
X20018Y15131D2*
Y15140D1*
X20028Y15159D1*
X20037Y15169D1*
X20056Y15178D1*
X20095D1*
X20114Y15169D1*
X20123Y15159D1*
X20133Y15140D1*
Y15121D1*
X20123Y15102D1*
X20104Y15073D1*
X20008Y14978D1*
X20142D1*
X10609Y7519D2*
Y7376D1*
X10619Y7347D1*
X10638Y7328D1*
X10667Y7318D1*
X10686D1*
X10715Y7328D1*
X10734Y7347D1*
X10743Y7376D1*
Y7519D1*
X10805Y7481D2*
X10824Y7491D1*
X10853Y7519D1*
Y7318D1*
X10972Y7519D2*
X10943Y7510D1*
X10924Y7481D1*
X10915Y7433D1*
Y7404D1*
X10924Y7357D1*
X10943Y7328D1*
X10972Y7318D1*
X10991D1*
X11020Y7328D1*
X11039Y7357D1*
X11049Y7404D1*
Y7433D1*
X11039Y7481D1*
X11020Y7510D1*
X10991Y7519D1*
X10972D1*
X11039Y7481D2*
X10924Y7357D1*
X11110Y7481D2*
X11130Y7491D1*
X11158Y7519D1*
Y7318D1*
X19566Y7769D2*
Y7626D1*
X19576Y7597D1*
X19595Y7578D1*
X19624Y7568D1*
X19643D1*
X19672Y7578D1*
X19691Y7597D1*
X19700Y7626D1*
Y7769D1*
X19762Y7731D2*
X19781Y7741D1*
X19810Y7769D1*
Y7568D1*
X19929Y7769D2*
X19900Y7760D1*
X19881Y7731D1*
X19872Y7683D1*
Y7654D1*
X19881Y7607D1*
X19900Y7578D1*
X19929Y7568D1*
X19948D1*
X19977Y7578D1*
X19996Y7607D1*
X20006Y7654D1*
Y7683D1*
X19996Y7731D1*
X19977Y7760D1*
X19948Y7769D1*
X19929D1*
X19996Y7731D2*
X19881Y7607D1*
X20077Y7721D2*
Y7731D1*
X20087Y7750D1*
X20096Y7760D1*
X20115Y7769D1*
X20154D1*
X20173Y7760D1*
X20182Y7750D1*
X20192Y7731D1*
Y7712D1*
X20182Y7693D1*
X20163Y7664D1*
X20067Y7568D1*
X20201D1*
X49988Y4507D2*
Y4364D1*
X49998Y4335D1*
X50017Y4316D1*
X50046Y4306D1*
X50065D1*
X50094Y4316D1*
X50113Y4335D1*
X50122Y4364D1*
Y4507D1*
X50194Y4459D2*
Y4469D1*
X50203Y4488D1*
X50213Y4498D1*
X50232Y4507D1*
X50270D1*
X50289Y4498D1*
X50299Y4488D1*
X50309Y4469D1*
Y4450D1*
X50299Y4431D1*
X50280Y4402D1*
X50184Y4306D1*
X50318D1*
X50437Y4507D2*
X50409Y4498D1*
X50389Y4469D1*
X50380Y4421D1*
Y4392D1*
X50389Y4345D1*
X50409Y4316D1*
X50437Y4306D1*
X50456D1*
X50485Y4316D1*
X50504Y4345D1*
X50514Y4392D1*
Y4421D1*
X50504Y4469D1*
X50485Y4498D1*
X50456Y4507D1*
X50437D1*
X50504Y4469D2*
X50389Y4345D1*
X50576Y4469D2*
X50595Y4479D1*
X50624Y4507D1*
Y4306D1*
X48889Y13313D2*
Y13169D1*
X48899Y13140D1*
X48918Y13121D1*
X48947Y13112D1*
X48966D1*
X48995Y13121D1*
X49014Y13140D1*
X49023Y13169D1*
Y13313D1*
X49095Y13265D2*
Y13274D1*
X49104Y13293D1*
X49114Y13303D1*
X49133Y13312D1*
X49171D1*
X49190Y13303D1*
X49200Y13293D1*
X49210Y13274D1*
Y13255D1*
X49200Y13236D1*
X49181Y13207D1*
X49085Y13112D1*
X49219D1*
X49338Y13312D2*
X49310Y13303D1*
X49290Y13274D1*
X49281Y13226D1*
Y13198D1*
X49290Y13150D1*
X49310Y13121D1*
X49338Y13112D1*
X49357D1*
X49386Y13121D1*
X49405Y13150D1*
X49415Y13198D1*
Y13226D1*
X49405Y13274D1*
X49386Y13303D1*
X49357Y13312D1*
X49338D1*
X49405Y13274D2*
X49290Y13150D1*
X49486Y13265D2*
Y13274D1*
X49496Y13293D1*
X49505Y13303D1*
X49525Y13312D1*
X49563D1*
X49582Y13303D1*
X49591Y13293D1*
X49601Y13274D1*
Y13255D1*
X49591Y13236D1*
X49572Y13207D1*
X49477Y13112D1*
X49611D1*
X47273Y5551D2*
Y5407D1*
X47283Y5379D1*
X47302Y5360D1*
X47331Y5350D1*
X47350D1*
X47379Y5360D1*
X47398Y5379D1*
X47407Y5407D1*
Y5551D1*
X47479Y5503D2*
Y5512D1*
X47488Y5532D1*
X47498Y5541D1*
X47517Y5551D1*
X47555D1*
X47574Y5541D1*
X47584Y5532D1*
X47593Y5512D1*
Y5493D1*
X47584Y5474D1*
X47565Y5446D1*
X47469Y5350D1*
X47603D1*
X47722Y5551D2*
X47693Y5541D1*
X47674Y5512D1*
X47665Y5465D1*
Y5436D1*
X47674Y5388D1*
X47693Y5359D1*
X47722Y5350D1*
X47741D1*
X47770Y5359D1*
X47789Y5388D1*
X47799Y5436D1*
Y5465D1*
X47789Y5512D1*
X47770Y5541D1*
X47741Y5551D1*
X47722D1*
X47789Y5512D2*
X47674Y5388D1*
X47880Y5551D2*
X47985D1*
X47927Y5474D1*
X47956D1*
X47975Y5465D1*
X47985Y5455D1*
X47994Y5426D1*
Y5407D1*
X47985Y5379D1*
X47966Y5359D1*
X47937Y5350D1*
X47908D1*
X47880Y5359D1*
X47870Y5369D1*
X47860Y5388D1*
X5757Y49038D2*
D101*
Y48234D1*
X6293Y49038D2*
Y48234D1*
X5757Y48655D2*
X6293D1*
X6731Y48770D2*
X6655Y48732D1*
X6578Y48655D1*
X6540Y48540D1*
Y48464D1*
X6578Y48349D1*
X6655Y48273D1*
X6731Y48234D1*
X6846D1*
X6923Y48273D1*
X6999Y48349D1*
X7038Y48464D1*
Y48540D1*
X6999Y48655D1*
X6923Y48732D1*
X6846Y48770D1*
X6731D1*
X7285Y49038D2*
Y48234D1*
X7532Y48540D2*
X7991D1*
Y48617D1*
X7953Y48694D1*
X7915Y48732D1*
X7838Y48770D1*
X7723D1*
X7647Y48732D1*
X7570Y48655D1*
X7532Y48540D1*
Y48464D1*
X7570Y48349D1*
X7647Y48273D1*
X7723Y48234D1*
X7838D1*
X7915Y48273D1*
X7991Y48349D1*
X768Y47080D2*
X1112D1*
X1227Y47119D1*
X1266Y47157D1*
X1304Y47233D1*
Y47310D1*
X1266Y47386D1*
X1227Y47425D1*
X1112Y47463D1*
X768D1*
Y46659D1*
X1036Y47080D2*
X1304Y46659D1*
X1742Y47195D2*
X1666Y47157D1*
X1589Y47080D1*
X1551Y46965D1*
Y46889D1*
X1589Y46774D1*
X1666Y46698D1*
X1742Y46659D1*
X1857D1*
X1934Y46698D1*
X2010Y46774D1*
X2049Y46889D1*
Y46965D1*
X2010Y47080D1*
X1934Y47157D1*
X1857Y47195D1*
X1742D1*
X2296D2*
Y46812D1*
X2334Y46698D1*
X2411Y46659D1*
X2526D1*
X2602Y46698D1*
X2717Y46812D1*
Y47195D2*
Y46659D1*
X2964Y47195D2*
Y46659D1*
Y47042D2*
X3079Y47157D1*
X3156Y47195D1*
X3270D1*
X3347Y47157D1*
X3385Y47042D1*
Y46659D1*
X4091Y47463D2*
Y46659D1*
Y47080D2*
X4015Y47157D1*
X3938Y47195D1*
X3823D1*
X3747Y47157D1*
X3670Y47080D1*
X3632Y46965D1*
Y46889D1*
X3670Y46774D1*
X3747Y46698D1*
X3823Y46659D1*
X3938D1*
X4015Y46698D1*
X4091Y46774D1*
X5115Y47309D2*
X5192Y47348D1*
X5307Y47462D1*
Y46659D1*
X5593Y47271D2*
Y47309D1*
X5631Y47386D1*
X5669Y47424D1*
X5746Y47462D1*
X5899D1*
X5975Y47424D1*
X6013Y47386D1*
X6052Y47309D1*
Y47233D1*
X6013Y47156D1*
X5937Y47042D1*
X5554Y46659D1*
X6090D1*
X7115Y47195D2*
Y46659D1*
Y47042D2*
X7230Y47157D1*
X7307Y47195D1*
X7421D1*
X7498Y47157D1*
X7536Y47042D1*
Y46659D1*
Y47042D2*
X7651Y47157D1*
X7728Y47195D1*
X7842D1*
X7919Y47157D1*
X7958Y47042D1*
Y46659D1*
X8205Y47463D2*
X8243Y47425D1*
X8281Y47463D1*
X8243Y47502D1*
X8205Y47463D1*
X8243Y47195D2*
Y46659D1*
X8528Y47463D2*
Y46659D1*
X768Y45505D2*
X1112D1*
X1227Y45544D1*
X1266Y45582D1*
X1304Y45658D1*
Y45735D1*
X1266Y45811D1*
X1227Y45850D1*
X1112Y45888D1*
X768D1*
Y45084D1*
X1036Y45505D2*
X1304Y45084D1*
X1742Y45620D2*
X1666Y45582D1*
X1589Y45505D1*
X1551Y45390D1*
Y45314D1*
X1589Y45199D1*
X1666Y45123D1*
X1742Y45084D1*
X1857D1*
X1934Y45123D1*
X2010Y45199D1*
X2049Y45314D1*
Y45390D1*
X2010Y45505D1*
X1934Y45582D1*
X1857Y45620D1*
X1742D1*
X2296D2*
Y45237D1*
X2334Y45123D1*
X2411Y45084D1*
X2526D1*
X2602Y45123D1*
X2717Y45237D1*
Y45620D2*
Y45084D1*
X2964Y45620D2*
Y45084D1*
Y45467D2*
X3079Y45582D1*
X3156Y45620D1*
X3270D1*
X3347Y45582D1*
X3385Y45467D1*
Y45084D1*
X4091Y45888D2*
Y45084D1*
Y45505D2*
X4015Y45582D1*
X3938Y45620D1*
X3823D1*
X3747Y45582D1*
X3670Y45505D1*
X3632Y45390D1*
Y45314D1*
X3670Y45199D1*
X3747Y45123D1*
X3823Y45084D1*
X3938D1*
X4015Y45123D1*
X4091Y45199D1*
X5192Y45887D2*
X5612D1*
X5383Y45581D1*
X5498D1*
X5574Y45543D1*
X5612Y45505D1*
X5651Y45390D1*
Y45314D1*
X5612Y45199D1*
X5536Y45122D1*
X5421Y45084D1*
X5306D1*
X5192Y45122D1*
X5154Y45161D1*
X5115Y45237D1*
X6396Y45620D2*
X6357Y45505D1*
X6281Y45428D1*
X6166Y45390D1*
X6128D1*
X6013Y45428D1*
X5937Y45505D1*
X5898Y45620D1*
Y45658D1*
X5937Y45773D1*
X6013Y45849D1*
X6128Y45887D1*
X6166D1*
X6281Y45849D1*
X6357Y45773D1*
X6396Y45620D1*
Y45428D1*
X6357Y45237D1*
X6281Y45122D1*
X6166Y45084D1*
X6090D1*
X5975Y45122D1*
X5937Y45199D1*
X6681Y45161D2*
X6643Y45122D1*
X6681Y45084D1*
X6720Y45122D1*
X6681Y45161D1*
X7350Y45084D2*
Y45887D1*
X6967Y45352D1*
X7541D1*
X8566Y45620D2*
Y45084D1*
Y45467D2*
X8681Y45582D1*
X8758Y45620D1*
X8872D1*
X8949Y45582D1*
X8987Y45467D1*
Y45084D1*
Y45467D2*
X9102Y45582D1*
X9178Y45620D1*
X9293D1*
X9369Y45582D1*
X9408Y45467D1*
Y45084D1*
X9655Y45888D2*
X9693Y45850D1*
X9732Y45888D1*
X9693Y45927D1*
X9655Y45888D1*
X9693Y45620D2*
Y45084D1*
X9979Y45888D2*
Y45084D1*
X768Y43930D2*
X1112D1*
X1227Y43969D1*
X1266Y44007D1*
X1304Y44083D1*
Y44160D1*
X1266Y44236D1*
X1227Y44275D1*
X1112Y44313D1*
X768D1*
Y43509D1*
X1036Y43930D2*
X1304Y43509D1*
X1742Y44045D2*
X1666Y44007D1*
X1589Y43930D1*
X1551Y43815D1*
Y43739D1*
X1589Y43624D1*
X1666Y43548D1*
X1742Y43509D1*
X1857D1*
X1934Y43548D1*
X2010Y43624D1*
X2049Y43739D1*
Y43815D1*
X2010Y43930D1*
X1934Y44007D1*
X1857Y44045D1*
X1742D1*
X2296D2*
Y43662D1*
X2334Y43548D1*
X2411Y43509D1*
X2526D1*
X2602Y43548D1*
X2717Y43662D1*
Y44045D2*
Y43509D1*
X2964Y44045D2*
Y43509D1*
Y43892D2*
X3079Y44007D1*
X3156Y44045D1*
X3270D1*
X3347Y44007D1*
X3385Y43892D1*
Y43509D1*
X4091Y44313D2*
Y43509D1*
Y43930D2*
X4015Y44007D1*
X3938Y44045D1*
X3823D1*
X3747Y44007D1*
X3670Y43930D1*
X3632Y43815D1*
Y43739D1*
X3670Y43624D1*
X3747Y43548D1*
X3823Y43509D1*
X3938D1*
X4015Y43548D1*
X4091Y43624D1*
X5498Y43509D2*
Y44312D1*
X5115Y43777D1*
X5689D1*
X6013Y44312D2*
X6433D1*
X6204Y44006D1*
X6319D1*
X6395Y43968D1*
X6433Y43930D1*
X6472Y43815D1*
Y43739D1*
X6433Y43624D1*
X6357Y43547D1*
X6242Y43509D1*
X6127D1*
X6013Y43547D1*
X5975Y43586D1*
X5936Y43662D1*
X6757Y43586D2*
X6719Y43547D1*
X6757Y43509D1*
X6796Y43547D1*
X6757Y43586D1*
X7120Y44312D2*
X7540D1*
X7311Y44006D1*
X7426D1*
X7502Y43968D1*
X7540Y43930D1*
X7579Y43815D1*
Y43739D1*
X7540Y43624D1*
X7464Y43547D1*
X7349Y43509D1*
X7234D1*
X7120Y43547D1*
X7082Y43586D1*
X7043Y43662D1*
X8604Y44045D2*
Y43509D1*
Y43892D2*
X8719Y44007D1*
X8796Y44045D1*
X8910D1*
X8987Y44007D1*
X9025Y43892D1*
Y43509D1*
Y43892D2*
X9140Y44007D1*
X9216Y44045D1*
X9331D1*
X9408Y44007D1*
X9446Y43892D1*
Y43509D1*
X9693Y44313D2*
X9731Y44275D1*
X9770Y44313D1*
X9731Y44352D1*
X9693Y44313D1*
X9731Y44045D2*
Y43509D1*
X10017Y44313D2*
Y43509D1*
X768Y42356D2*
X1112D1*
X1227Y42395D1*
X1266Y42433D1*
X1304Y42509D1*
Y42586D1*
X1266Y42662D1*
X1227Y42700D1*
X1112Y42739D1*
X768D1*
Y41935D1*
X1036Y42356D2*
X1304Y41935D1*
X1742Y42471D2*
X1666Y42433D1*
X1589Y42356D1*
X1551Y42241D1*
Y42165D1*
X1589Y42050D1*
X1666Y41974D1*
X1742Y41935D1*
X1857D1*
X1934Y41974D1*
X2010Y42050D1*
X2049Y42165D1*
Y42241D1*
X2010Y42356D1*
X1934Y42433D1*
X1857Y42471D1*
X1742D1*
X2296D2*
Y42088D1*
X2334Y41974D1*
X2411Y41935D1*
X2526D1*
X2602Y41974D1*
X2717Y42088D1*
Y42471D2*
Y41935D1*
X2964Y42471D2*
Y41935D1*
Y42318D2*
X3079Y42433D1*
X3156Y42471D1*
X3270D1*
X3347Y42433D1*
X3385Y42318D1*
Y41935D1*
X4091Y42739D2*
Y41935D1*
Y42356D2*
X4015Y42433D1*
X3938Y42471D1*
X3823D1*
X3747Y42433D1*
X3670Y42356D1*
X3632Y42241D1*
Y42165D1*
X3670Y42050D1*
X3747Y41974D1*
X3823Y41935D1*
X3938D1*
X4015Y41974D1*
X4091Y42050D1*
X5498Y41935D2*
Y42738D1*
X5115Y42203D1*
X5689D1*
X6434Y42471D2*
X6395Y42356D1*
X6319Y42279D1*
X6204Y42241D1*
X6166D1*
X6051Y42279D1*
X5975Y42356D1*
X5936Y42471D1*
Y42509D1*
X5975Y42624D1*
X6051Y42700D1*
X6166Y42738D1*
X6204D1*
X6319Y42700D1*
X6395Y42624D1*
X6434Y42471D1*
Y42279D1*
X6395Y42088D1*
X6319Y41973D1*
X6204Y41935D1*
X6128D1*
X6013Y41973D1*
X5975Y42050D1*
X6719Y42012D2*
X6681Y41973D1*
X6719Y41935D1*
X6758Y41973D1*
X6719Y42012D1*
X7044Y42547D2*
Y42585D1*
X7082Y42662D1*
X7120Y42700D1*
X7197Y42738D1*
X7350D1*
X7426Y42700D1*
X7464Y42662D1*
X7503Y42585D1*
Y42509D1*
X7464Y42432D1*
X7388Y42318D1*
X7005Y41935D1*
X7541D1*
X8566Y42471D2*
Y41935D1*
Y42318D2*
X8681Y42433D1*
X8758Y42471D1*
X8872D1*
X8949Y42433D1*
X8987Y42318D1*
Y41935D1*
Y42318D2*
X9102Y42433D1*
X9178Y42471D1*
X9293D1*
X9369Y42433D1*
X9408Y42318D1*
Y41935D1*
X9655Y42739D2*
X9693Y42700D1*
X9732Y42739D1*
X9693Y42777D1*
X9655Y42739D1*
X9693Y42471D2*
Y41935D1*
X9979Y42739D2*
Y41935D1*
X768Y40781D2*
X1112D1*
X1227Y40820D1*
X1266Y40858D1*
X1304Y40934D1*
Y41011D1*
X1266Y41087D1*
X1227Y41126D1*
X1112Y41164D1*
X768D1*
Y40360D1*
X1036Y40781D2*
X1304Y40360D1*
X1742Y40896D2*
X1666Y40858D1*
X1589Y40781D1*
X1551Y40666D1*
Y40590D1*
X1589Y40475D1*
X1666Y40399D1*
X1742Y40360D1*
X1857D1*
X1934Y40399D1*
X2010Y40475D1*
X2049Y40590D1*
Y40666D1*
X2010Y40781D1*
X1934Y40858D1*
X1857Y40896D1*
X1742D1*
X2296D2*
Y40513D1*
X2334Y40399D1*
X2411Y40360D1*
X2526D1*
X2602Y40399D1*
X2717Y40513D1*
Y40896D2*
Y40360D1*
X2964Y40896D2*
Y40360D1*
Y40743D2*
X3079Y40858D1*
X3156Y40896D1*
X3270D1*
X3347Y40858D1*
X3385Y40743D1*
Y40360D1*
X4091Y41164D2*
Y40360D1*
Y40781D2*
X4015Y40858D1*
X3938Y40896D1*
X3823D1*
X3747Y40858D1*
X3670Y40781D1*
X3632Y40666D1*
Y40590D1*
X3670Y40475D1*
X3747Y40399D1*
X3823Y40360D1*
X3938D1*
X4015Y40399D1*
X4091Y40475D1*
X5574Y41163D2*
X5192D1*
X5154Y40819D1*
X5192Y40857D1*
X5307Y40896D1*
X5421D1*
X5536Y40857D1*
X5613Y40781D1*
X5651Y40666D1*
Y40590D1*
X5613Y40475D1*
X5536Y40398D1*
X5421Y40360D1*
X5307D1*
X5192Y40398D1*
X5154Y40437D1*
X5115Y40513D1*
X5898Y41010D2*
X5975Y41049D1*
X6090Y41163D1*
Y40360D1*
X6375Y40437D2*
X6337Y40398D1*
X6375Y40360D1*
X6414Y40398D1*
X6375Y40437D1*
X6700Y40972D2*
Y41010D1*
X6738Y41087D1*
X6776Y41125D1*
X6853Y41163D1*
X7006D1*
X7082Y41125D1*
X7120Y41087D1*
X7159Y41010D1*
Y40934D1*
X7120Y40857D1*
X7044Y40743D1*
X6661Y40360D1*
X7197D1*
X8222Y40896D2*
Y40360D1*
Y40743D2*
X8337Y40858D1*
X8414Y40896D1*
X8528D1*
X8605Y40858D1*
X8643Y40743D1*
Y40360D1*
Y40743D2*
X8758Y40858D1*
X8834Y40896D1*
X8949D1*
X9025Y40858D1*
X9064Y40743D1*
Y40360D1*
X9311Y41164D2*
X9349Y41126D1*
X9388Y41164D1*
X9349Y41203D1*
X9311Y41164D1*
X9349Y40896D2*
Y40360D1*
X9635Y41164D2*
Y40360D1*
X15687Y48847D2*
X15649Y48923D1*
X15572Y49000D1*
X15496Y49038D1*
X15343D1*
X15266Y49000D1*
X15190Y48923D1*
X15151Y48847D1*
X15113Y48732D1*
Y48540D1*
X15151Y48426D1*
X15190Y48349D1*
X15266Y48273D1*
X15343Y48234D1*
X15496D1*
X15572Y48273D1*
X15649Y48349D1*
X15687Y48426D1*
X16125Y48770D2*
X16049Y48732D1*
X15972Y48655D1*
X15934Y48540D1*
Y48464D1*
X15972Y48349D1*
X16049Y48273D1*
X16125Y48234D1*
X16240D1*
X16317Y48273D1*
X16393Y48349D1*
X16432Y48464D1*
Y48540D1*
X16393Y48655D1*
X16317Y48732D1*
X16240Y48770D1*
X16125D1*
X16679D2*
Y48387D1*
X16717Y48273D1*
X16794Y48234D1*
X16909D1*
X16985Y48273D1*
X17100Y48387D1*
Y48770D2*
Y48234D1*
X17347Y48770D2*
Y48234D1*
Y48617D2*
X17462Y48732D1*
X17539Y48770D1*
X17653D1*
X17730Y48732D1*
X17768Y48617D1*
Y48234D1*
X18130Y49038D2*
Y48387D1*
X18168Y48273D1*
X18245Y48234D1*
X18321D1*
X18015Y48770D2*
X18283D1*
X14350Y47462D2*
X13968D1*
X13930Y47118D1*
X13968Y47156D1*
X14083Y47195D1*
X14197D1*
X14312Y47156D1*
X14389Y47080D1*
X14427Y46965D1*
Y46889D1*
X14389Y46774D1*
X14312Y46697D1*
X14197Y46659D1*
X14083D1*
X13968Y46697D1*
X13930Y46736D1*
X13891Y46812D1*
X14865Y47462D2*
X14751Y47424D1*
X14712Y47348D1*
Y47271D1*
X14751Y47195D1*
X14827Y47156D1*
X14980Y47118D1*
X15095Y47080D1*
X15171Y47003D1*
X15209Y46927D1*
Y46812D1*
X15171Y46736D1*
X15133Y46697D1*
X15018Y46659D1*
X14865D1*
X14751Y46697D1*
X14712Y46736D1*
X14674Y46812D1*
Y46927D1*
X14712Y47003D1*
X14789Y47080D1*
X14903Y47118D1*
X15056Y47156D1*
X15133Y47195D1*
X15171Y47271D1*
Y47348D1*
X15133Y47424D1*
X15018Y47462D1*
X14865D1*
X13891Y45734D2*
X13968Y45773D1*
X14083Y45887D1*
Y45084D1*
X14560Y45887D2*
X14445Y45849D1*
X14368Y45734D1*
X14330Y45543D1*
Y45428D1*
X14368Y45237D1*
X14445Y45122D1*
X14560Y45084D1*
X14636D1*
X14751Y45122D1*
X14827Y45237D1*
X14866Y45428D1*
Y45543D1*
X14827Y45734D1*
X14751Y45849D1*
X14636Y45887D1*
X14560D1*
X14827Y45734D2*
X14368Y45237D1*
X13891Y44159D2*
X13968Y44198D1*
X14083Y44312D1*
Y43509D1*
X14789Y44312D2*
X14407D1*
X14369Y43968D1*
X14407Y44006D1*
X14522Y44045D1*
X14636D1*
X14751Y44006D1*
X14828Y43930D1*
X14866Y43815D1*
Y43739D1*
X14828Y43624D1*
X14751Y43547D1*
X14636Y43509D1*
X14522D1*
X14407Y43547D1*
X14369Y43586D1*
X14330Y43662D1*
X15152Y44121D2*
Y44159D1*
X15190Y44236D1*
X15228Y44274D1*
X15305Y44312D1*
X15458D1*
X15534Y44274D1*
X15572Y44236D1*
X15611Y44159D1*
Y44083D1*
X15572Y44006D1*
X15496Y43892D1*
X15113Y43509D1*
X15649D1*
X13968Y42738D2*
X14388D1*
X14159Y42432D1*
X14274D1*
X14350Y42394D1*
X14388Y42356D1*
X14427Y42241D1*
Y42165D1*
X14388Y42050D1*
X14312Y41973D1*
X14197Y41935D1*
X14082D1*
X13968Y41973D1*
X13930Y42012D1*
X13891Y42088D1*
X14274Y40360D2*
Y41163D1*
X13891Y40628D1*
X14465D1*
X1247Y-11262D2*
D39*
X625D1*
Y-12267D1*
Y-11741D2*
X1007D1*
X2130Y-11597D2*
Y-12267D1*
Y-11741D2*
X2035Y-11644D1*
X1939Y-11597D1*
X1796D1*
X1700Y-11644D1*
X1605Y-11741D1*
X1556Y-11884D1*
Y-11979D1*
X1605Y-12123D1*
X1700Y-12218D1*
X1796Y-12267D1*
X1939D1*
X2035Y-12218D1*
X2130Y-12123D1*
X2439Y-11262D2*
Y-12267D1*
Y-11741D2*
X2535Y-11644D1*
X2630Y-11597D1*
X2774D1*
X2869Y-11644D1*
X2965Y-11741D1*
X3012Y-11884D1*
Y-11979D1*
X2965Y-12123D1*
X2869Y-12218D1*
X2774Y-12267D1*
X2630D1*
X2535Y-12218D1*
X2439Y-12123D1*
X4963Y-11262D2*
Y-12267D1*
X4293Y-11262D1*
Y-12267D1*
X5511Y-11597D2*
X5415Y-11644D1*
X5319Y-11741D1*
X5272Y-11884D1*
Y-11979D1*
X5319Y-12123D1*
X5415Y-12218D1*
X5511Y-12267D1*
X5654D1*
X5750Y-12218D1*
X5845Y-12123D1*
X5894Y-11979D1*
Y-11884D1*
X5845Y-11741D1*
X5750Y-11644D1*
X5654Y-11597D1*
X5511D1*
X6347Y-11262D2*
Y-12076D1*
X6394Y-12218D1*
X6490Y-12267D1*
X6585D1*
X6203Y-11597D2*
X6538D1*
X6894Y-11884D2*
X7468D1*
Y-11788D1*
X7420Y-11692D1*
X7373Y-11644D1*
X7277Y-11597D1*
X7133D1*
X7038Y-11644D1*
X6942Y-11741D1*
X6894Y-11884D1*
Y-11979D1*
X6942Y-12123D1*
X7038Y-12218D1*
X7133Y-12267D1*
X7277D1*
X7373Y-12218D1*
X7468Y-12123D1*
X8303Y-11741D2*
X8255Y-11644D1*
X8112Y-11597D1*
X7968D1*
X7824Y-11644D1*
X7777Y-11741D1*
X7824Y-11836D1*
X7920Y-11884D1*
X8159Y-11932D1*
X8255Y-11979D1*
X8303Y-12076D1*
Y-12123D1*
X8255Y-12218D1*
X8112Y-12267D1*
X7968D1*
X7824Y-12218D1*
X7777Y-12123D1*
X8660Y-11597D2*
X8612Y-11646D1*
X8660Y-11693D1*
X8708Y-11646D1*
X8660Y-11597D1*
Y-12171D2*
X8612Y-12219D1*
X8660Y-12267D1*
X8708Y-12219D1*
X8660Y-12171D1*
X43568Y3506D2*
D12*
X43769D1*
Y3592D1*
X43759Y3621D1*
X43750Y3630D1*
X43731Y3640D1*
X43702D1*
X43683Y3630D1*
X43673Y3621D1*
X43664Y3592D1*
X43654Y3621D1*
X43644Y3630D1*
X43625Y3640D1*
X43606D1*
X43587Y3630D1*
X43577Y3621D1*
X43568Y3592D1*
Y3506D1*
X43664D2*
Y3592D1*
X43568Y3759D2*
X43577Y3740D1*
X43597Y3721D1*
X43616Y3711D1*
X43644Y3702D1*
X43692D1*
X43721Y3711D1*
X43740Y3721D1*
X43759Y3740D1*
X43769Y3759D1*
Y3797D1*
X43759Y3816D1*
X43740Y3835D1*
X43721Y3845D1*
X43692Y3854D1*
X43644D1*
X43616Y3845D1*
X43597Y3835D1*
X43577Y3816D1*
X43568Y3797D1*
Y3759D1*
X43769Y4069D2*
X43568Y3993D1*
X43769Y3916D1*
X43702Y3945D2*
Y4041D1*
X43664Y4131D2*
Y4217D1*
X43654Y4246D1*
X43644Y4256D1*
X43625Y4265D1*
X43606D1*
X43587Y4256D1*
X43577Y4246D1*
X43568Y4217D1*
Y4131D1*
X43769D1*
X43664Y4198D2*
X43769Y4265D1*
X43568Y4327D2*
X43769D1*
Y4394D1*
X43759Y4423D1*
X43740Y4442D1*
X43721Y4451D1*
X43692Y4461D1*
X43644D1*
X43616Y4451D1*
X43597Y4442D1*
X43577Y4423D1*
X43568Y4394D1*
Y4327D1*
Y4841D2*
Y4717D1*
X43769D1*
Y4841D1*
X43664Y4717D2*
Y4794D1*
X43568Y4903D2*
X43769D1*
Y4970D1*
X43759Y4999D1*
X43740Y5018D1*
X43721Y5028D1*
X43692Y5037D1*
X43644D1*
X43616Y5028D1*
X43597Y5018D1*
X43577Y4999D1*
X43568Y4970D1*
Y4903D1*
X43616Y5242D2*
X43597Y5233D1*
X43577Y5214D1*
X43568Y5195D1*
Y5156D1*
X43577Y5137D1*
X43597Y5118D1*
X43616Y5108D1*
X43644Y5099D1*
X43692D1*
X43721Y5108D1*
X43740Y5118D1*
X43759Y5137D1*
X43769Y5156D1*
Y5195D1*
X43759Y5214D1*
X43740Y5233D1*
X43721Y5242D1*
X43692D1*
Y5195D1*
X43568Y5428D2*
Y5304D1*
X43769D1*
Y5428D1*
X43664Y5304D2*
Y5381D1*
X40068Y17506D2*
X40269D1*
Y17592D1*
X40259Y17621D1*
X40250Y17630D1*
X40231Y17640D1*
X40202D1*
X40183Y17630D1*
X40173Y17621D1*
X40164Y17592D1*
X40154Y17621D1*
X40144Y17630D1*
X40125Y17640D1*
X40106D1*
X40087Y17630D1*
X40077Y17621D1*
X40068Y17592D1*
Y17506D1*
X40164D2*
Y17592D1*
X40068Y17759D2*
X40077Y17740D1*
X40097Y17721D1*
X40116Y17711D1*
X40144Y17702D1*
X40192D1*
X40221Y17711D1*
X40240Y17721D1*
X40259Y17740D1*
X40269Y17759D1*
Y17797D1*
X40259Y17816D1*
X40240Y17835D1*
X40221Y17845D1*
X40192Y17854D1*
X40144D1*
X40116Y17845D1*
X40097Y17835D1*
X40077Y17816D1*
X40068Y17797D1*
Y17759D1*
X40269Y18069D2*
X40068Y17993D1*
X40269Y17916D1*
X40202Y17945D2*
Y18041D1*
X40164Y18131D2*
Y18217D1*
X40154Y18246D1*
X40144Y18256D1*
X40125Y18265D1*
X40106D1*
X40087Y18256D1*
X40077Y18246D1*
X40068Y18217D1*
Y18131D1*
X40269D1*
X40164Y18198D2*
X40269Y18265D1*
X40068Y18327D2*
X40269D1*
Y18394D1*
X40259Y18423D1*
X40240Y18442D1*
X40221Y18451D1*
X40192Y18461D1*
X40144D1*
X40116Y18451D1*
X40097Y18442D1*
X40077Y18423D1*
X40068Y18394D1*
Y18327D1*
Y18841D2*
Y18717D1*
X40269D1*
Y18841D1*
X40164Y18717D2*
Y18794D1*
X40068Y18903D2*
X40269D1*
Y18970D1*
X40259Y18999D1*
X40240Y19018D1*
X40221Y19028D1*
X40192Y19037D1*
X40144D1*
X40116Y19028D1*
X40097Y19018D1*
X40077Y18999D1*
X40068Y18970D1*
Y18903D1*
X40116Y19242D2*
X40097Y19233D1*
X40077Y19214D1*
X40068Y19195D1*
Y19156D1*
X40077Y19137D1*
X40097Y19118D1*
X40116Y19108D1*
X40144Y19099D1*
X40192D1*
X40221Y19108D1*
X40240Y19118D1*
X40259Y19137D1*
X40269Y19156D1*
Y19195D1*
X40259Y19214D1*
X40240Y19233D1*
X40221Y19242D1*
X40192D1*
Y19195D1*
X40068Y19428D2*
Y19304D1*
X40269D1*
Y19428D1*
X40164Y19304D2*
Y19381D1*
X41068Y17506D2*
X41269D1*
Y17592D1*
X41259Y17621D1*
X41250Y17630D1*
X41231Y17640D1*
X41202D1*
X41183Y17630D1*
X41173Y17621D1*
X41164Y17592D1*
X41154Y17621D1*
X41144Y17630D1*
X41125Y17640D1*
X41106D1*
X41087Y17630D1*
X41077Y17621D1*
X41068Y17592D1*
Y17506D1*
X41164D2*
Y17592D1*
X41068Y17759D2*
X41077Y17740D1*
X41097Y17721D1*
X41116Y17711D1*
X41144Y17702D1*
X41192D1*
X41221Y17711D1*
X41240Y17721D1*
X41259Y17740D1*
X41269Y17759D1*
Y17797D1*
X41259Y17816D1*
X41240Y17835D1*
X41221Y17845D1*
X41192Y17854D1*
X41144D1*
X41116Y17845D1*
X41097Y17835D1*
X41077Y17816D1*
X41068Y17797D1*
Y17759D1*
X41269Y18069D2*
X41068Y17993D1*
X41269Y17916D1*
X41202Y17945D2*
Y18041D1*
X41164Y18131D2*
Y18217D1*
X41154Y18246D1*
X41144Y18256D1*
X41125Y18265D1*
X41106D1*
X41087Y18256D1*
X41077Y18246D1*
X41068Y18217D1*
Y18131D1*
X41269D1*
X41164Y18198D2*
X41269Y18265D1*
X41068Y18327D2*
X41269D1*
Y18394D1*
X41259Y18423D1*
X41240Y18442D1*
X41221Y18451D1*
X41192Y18461D1*
X41144D1*
X41116Y18451D1*
X41097Y18442D1*
X41077Y18423D1*
X41068Y18394D1*
Y18327D1*
Y18841D2*
Y18717D1*
X41269D1*
Y18841D1*
X41164Y18717D2*
Y18794D1*
X41068Y18903D2*
X41269D1*
Y18970D1*
X41259Y18999D1*
X41240Y19018D1*
X41221Y19028D1*
X41192Y19037D1*
X41144D1*
X41116Y19028D1*
X41097Y19018D1*
X41077Y18999D1*
X41068Y18970D1*
Y18903D1*
X41116Y19242D2*
X41097Y19233D1*
X41077Y19214D1*
X41068Y19195D1*
Y19156D1*
X41077Y19137D1*
X41097Y19118D1*
X41116Y19108D1*
X41144Y19099D1*
X41192D1*
X41221Y19108D1*
X41240Y19118D1*
X41259Y19137D1*
X41269Y19156D1*
Y19195D1*
X41259Y19214D1*
X41240Y19233D1*
X41221Y19242D1*
X41192D1*
Y19195D1*
X41068Y19428D2*
Y19304D1*
X41269D1*
Y19428D1*
X41164Y19304D2*
Y19381D1*
X42068Y17506D2*
X42269D1*
Y17592D1*
X42259Y17621D1*
X42250Y17630D1*
X42231Y17640D1*
X42202D1*
X42183Y17630D1*
X42173Y17621D1*
X42164Y17592D1*
X42154Y17621D1*
X42144Y17630D1*
X42125Y17640D1*
X42106D1*
X42087Y17630D1*
X42077Y17621D1*
X42068Y17592D1*
Y17506D1*
X42164D2*
Y17592D1*
X42068Y17759D2*
X42077Y17740D1*
X42097Y17721D1*
X42116Y17711D1*
X42144Y17702D1*
X42192D1*
X42221Y17711D1*
X42240Y17721D1*
X42259Y17740D1*
X42269Y17759D1*
Y17797D1*
X42259Y17816D1*
X42240Y17835D1*
X42221Y17845D1*
X42192Y17854D1*
X42144D1*
X42116Y17845D1*
X42097Y17835D1*
X42077Y17816D1*
X42068Y17797D1*
Y17759D1*
X42269Y18069D2*
X42068Y17993D1*
X42269Y17916D1*
X42202Y17945D2*
Y18041D1*
X42164Y18131D2*
Y18217D1*
X42154Y18246D1*
X42144Y18256D1*
X42125Y18265D1*
X42106D1*
X42087Y18256D1*
X42077Y18246D1*
X42068Y18217D1*
Y18131D1*
X42269D1*
X42164Y18198D2*
X42269Y18265D1*
X42068Y18327D2*
X42269D1*
Y18394D1*
X42259Y18423D1*
X42240Y18442D1*
X42221Y18451D1*
X42192Y18461D1*
X42144D1*
X42116Y18451D1*
X42097Y18442D1*
X42077Y18423D1*
X42068Y18394D1*
Y18327D1*
Y18841D2*
Y18717D1*
X42269D1*
Y18841D1*
X42164Y18717D2*
Y18794D1*
X42068Y18903D2*
X42269D1*
Y18970D1*
X42259Y18999D1*
X42240Y19018D1*
X42221Y19028D1*
X42192Y19037D1*
X42144D1*
X42116Y19028D1*
X42097Y19018D1*
X42077Y18999D1*
X42068Y18970D1*
Y18903D1*
X42116Y19242D2*
X42097Y19233D1*
X42077Y19214D1*
X42068Y19195D1*
Y19156D1*
X42077Y19137D1*
X42097Y19118D1*
X42116Y19108D1*
X42144Y19099D1*
X42192D1*
X42221Y19108D1*
X42240Y19118D1*
X42259Y19137D1*
X42269Y19156D1*
Y19195D1*
X42259Y19214D1*
X42240Y19233D1*
X42221Y19242D1*
X42192D1*
Y19195D1*
X42068Y19428D2*
Y19304D1*
X42269D1*
Y19428D1*
X42164Y19304D2*
Y19381D1*
X48256Y7432D2*
Y7231D1*
X48342D1*
X48371Y7241D1*
X48380Y7250D1*
X48390Y7269D1*
Y7298D1*
X48380Y7317D1*
X48371Y7327D1*
X48342Y7336D1*
X48371Y7346D1*
X48380Y7356D1*
X48390Y7375D1*
Y7394D1*
X48380Y7413D1*
X48371Y7423D1*
X48342Y7432D1*
X48256D1*
Y7336D2*
X48342D1*
X48509Y7432D2*
X48490Y7423D1*
X48471Y7403D1*
X48461Y7384D1*
X48452Y7356D1*
Y7308D1*
X48461Y7279D1*
X48471Y7260D1*
X48490Y7241D1*
X48509Y7231D1*
X48547D1*
X48566Y7241D1*
X48585Y7260D1*
X48595Y7279D1*
X48604Y7308D1*
Y7356D1*
X48595Y7384D1*
X48585Y7403D1*
X48566Y7423D1*
X48547Y7432D1*
X48509D1*
X48819Y7231D2*
X48743Y7432D1*
X48666Y7231D1*
X48695Y7298D2*
X48791D1*
X48881Y7336D2*
X48967D1*
X48996Y7346D1*
X49006Y7356D1*
X49015Y7375D1*
Y7394D1*
X49006Y7413D1*
X48996Y7423D1*
X48967Y7432D1*
X48881D1*
Y7231D1*
X48948Y7336D2*
X49015Y7231D1*
X49077Y7432D2*
Y7231D1*
X49144D1*
X49173Y7241D1*
X49192Y7260D1*
X49201Y7279D1*
X49211Y7308D1*
Y7356D1*
X49201Y7384D1*
X49192Y7403D1*
X49173Y7423D1*
X49144Y7432D1*
X49077D1*
X49591D2*
X49467D1*
Y7231D1*
X49591D1*
X49467Y7336D2*
X49544D1*
X49653Y7432D2*
Y7231D1*
X49720D1*
X49749Y7241D1*
X49768Y7260D1*
X49778Y7279D1*
X49787Y7308D1*
Y7356D1*
X49778Y7384D1*
X49768Y7403D1*
X49749Y7423D1*
X49720Y7432D1*
X49653D1*
X49992Y7384D2*
X49983Y7403D1*
X49964Y7423D1*
X49945Y7432D1*
X49906D1*
X49887Y7423D1*
X49868Y7403D1*
X49858Y7384D1*
X49849Y7356D1*
Y7308D1*
X49858Y7279D1*
X49868Y7260D1*
X49887Y7241D1*
X49906Y7231D1*
X49945D1*
X49964Y7241D1*
X49983Y7260D1*
X49992Y7279D1*
Y7308D1*
X49945D1*
X50178Y7432D2*
X50054D1*
Y7231D1*
X50178D1*
X50054Y7336D2*
X50131D1*
X25568Y12006D2*
X25769D1*
Y12092D1*
X25759Y12121D1*
X25750Y12130D1*
X25731Y12140D1*
X25702D1*
X25683Y12130D1*
X25673Y12121D1*
X25664Y12092D1*
X25654Y12121D1*
X25644Y12130D1*
X25625Y12140D1*
X25606D1*
X25587Y12130D1*
X25577Y12121D1*
X25568Y12092D1*
Y12006D1*
X25664D2*
Y12092D1*
X25568Y12259D2*
X25577Y12240D1*
X25597Y12221D1*
X25616Y12211D1*
X25644Y12202D1*
X25692D1*
X25721Y12211D1*
X25740Y12221D1*
X25759Y12240D1*
X25769Y12259D1*
Y12297D1*
X25759Y12316D1*
X25740Y12335D1*
X25721Y12345D1*
X25692Y12354D1*
X25644D1*
X25616Y12345D1*
X25597Y12335D1*
X25577Y12316D1*
X25568Y12297D1*
Y12259D1*
X25769Y12569D2*
X25568Y12493D1*
X25769Y12416D1*
X25702Y12445D2*
Y12541D1*
X25664Y12631D2*
Y12717D1*
X25654Y12746D1*
X25644Y12756D1*
X25625Y12765D1*
X25606D1*
X25587Y12756D1*
X25577Y12746D1*
X25568Y12717D1*
Y12631D1*
X25769D1*
X25664Y12698D2*
X25769Y12765D1*
X25568Y12827D2*
X25769D1*
Y12894D1*
X25759Y12923D1*
X25740Y12942D1*
X25721Y12951D1*
X25692Y12961D1*
X25644D1*
X25616Y12951D1*
X25597Y12942D1*
X25577Y12923D1*
X25568Y12894D1*
Y12827D1*
Y13341D2*
Y13217D1*
X25769D1*
Y13341D1*
X25664Y13217D2*
Y13294D1*
X25568Y13403D2*
X25769D1*
Y13470D1*
X25759Y13499D1*
X25740Y13518D1*
X25721Y13528D1*
X25692Y13537D1*
X25644D1*
X25616Y13528D1*
X25597Y13518D1*
X25577Y13499D1*
X25568Y13470D1*
Y13403D1*
X25616Y13742D2*
X25597Y13733D1*
X25577Y13714D1*
X25568Y13695D1*
Y13656D1*
X25577Y13637D1*
X25597Y13618D1*
X25616Y13608D1*
X25644Y13599D1*
X25692D1*
X25721Y13608D1*
X25740Y13618D1*
X25759Y13637D1*
X25769Y13656D1*
Y13695D1*
X25759Y13714D1*
X25740Y13733D1*
X25721Y13742D1*
X25692D1*
Y13695D1*
X25568Y13928D2*
Y13804D1*
X25769D1*
Y13928D1*
X25664Y13804D2*
Y13881D1*
X32519Y12006D2*
X32720D1*
Y12092D1*
X32710Y12121D1*
X32700Y12130D1*
X32681Y12140D1*
X32653D1*
X32633Y12130D1*
X32624Y12121D1*
X32614Y12092D1*
X32605Y12121D1*
X32595Y12130D1*
X32576Y12140D1*
X32557D1*
X32538Y12130D1*
X32528Y12121D1*
X32519Y12092D1*
Y12006D1*
X32614D2*
Y12092D1*
X32519Y12259D2*
X32528Y12240D1*
X32547Y12221D1*
X32566Y12211D1*
X32595Y12202D1*
X32643D1*
X32672Y12211D1*
X32691Y12221D1*
X32710Y12240D1*
X32720Y12259D1*
Y12297D1*
X32710Y12316D1*
X32691Y12336D1*
X32672Y12345D1*
X32643Y12355D1*
X32595D1*
X32566Y12345D1*
X32547Y12336D1*
X32528Y12316D1*
X32519Y12297D1*
Y12259D1*
X32720Y12570D2*
X32519Y12493D1*
X32720Y12416D1*
X32653Y12445D2*
Y12541D1*
X32614Y12631D2*
Y12717D1*
X32605Y12746D1*
X32595Y12756D1*
X32576Y12765D1*
X32557D1*
X32538Y12756D1*
X32528Y12746D1*
X32519Y12717D1*
Y12631D1*
X32720D1*
X32614Y12698D2*
X32720Y12765D1*
X32519Y12827D2*
X32720D1*
Y12894D1*
X32710Y12923D1*
X32691Y12942D1*
X32672Y12952D1*
X32643Y12961D1*
X32595D1*
X32566Y12952D1*
X32547Y12942D1*
X32528Y12923D1*
X32519Y12894D1*
Y12827D1*
Y13341D2*
Y13217D1*
X32720D1*
Y13341D1*
X32614Y13217D2*
Y13294D1*
X32519Y13403D2*
X32720D1*
Y13470D1*
X32710Y13499D1*
X32691Y13518D1*
X32672Y13528D1*
X32643Y13537D1*
X32595D1*
X32566Y13528D1*
X32547Y13518D1*
X32528Y13499D1*
X32519Y13470D1*
Y13403D1*
X32566Y13742D2*
X32547Y13733D1*
X32528Y13714D1*
X32519Y13695D1*
Y13656D1*
X32528Y13637D1*
X32547Y13618D1*
X32566Y13608D1*
X32595Y13599D1*
X32643D1*
X32672Y13608D1*
X32691Y13618D1*
X32710Y13637D1*
X32720Y13656D1*
Y13695D1*
X32710Y13714D1*
X32691Y13733D1*
X32672Y13742D1*
X32643D1*
Y13695D1*
X32519Y13928D2*
Y13804D1*
X32720D1*
Y13928D1*
X32614Y13804D2*
Y13881D1*
X27519Y12006D2*
X27720D1*
Y12092D1*
X27710Y12121D1*
X27700Y12130D1*
X27681Y12140D1*
X27653D1*
X27633Y12130D1*
X27624Y12121D1*
X27614Y12092D1*
X27605Y12121D1*
X27595Y12130D1*
X27576Y12140D1*
X27557D1*
X27538Y12130D1*
X27528Y12121D1*
X27519Y12092D1*
Y12006D1*
X27614D2*
Y12092D1*
X27519Y12259D2*
X27528Y12240D1*
X27547Y12221D1*
X27566Y12211D1*
X27595Y12202D1*
X27643D1*
X27672Y12211D1*
X27691Y12221D1*
X27710Y12240D1*
X27720Y12259D1*
Y12297D1*
X27710Y12316D1*
X27691Y12336D1*
X27672Y12345D1*
X27643Y12355D1*
X27595D1*
X27566Y12345D1*
X27547Y12336D1*
X27528Y12316D1*
X27519Y12297D1*
Y12259D1*
X27720Y12570D2*
X27519Y12493D1*
X27720Y12416D1*
X27653Y12445D2*
Y12541D1*
X27614Y12631D2*
Y12717D1*
X27605Y12746D1*
X27595Y12756D1*
X27576Y12765D1*
X27557D1*
X27538Y12756D1*
X27528Y12746D1*
X27519Y12717D1*
Y12631D1*
X27720D1*
X27614Y12698D2*
X27720Y12765D1*
X27519Y12827D2*
X27720D1*
Y12894D1*
X27710Y12923D1*
X27691Y12942D1*
X27672Y12952D1*
X27643Y12961D1*
X27595D1*
X27566Y12952D1*
X27547Y12942D1*
X27528Y12923D1*
X27519Y12894D1*
Y12827D1*
Y13341D2*
Y13217D1*
X27720D1*
Y13341D1*
X27614Y13217D2*
Y13294D1*
X27519Y13403D2*
X27720D1*
Y13470D1*
X27710Y13499D1*
X27691Y13518D1*
X27672Y13528D1*
X27643Y13537D1*
X27595D1*
X27566Y13528D1*
X27547Y13518D1*
X27528Y13499D1*
X27519Y13470D1*
Y13403D1*
X27566Y13742D2*
X27547Y13733D1*
X27528Y13714D1*
X27519Y13695D1*
Y13656D1*
X27528Y13637D1*
X27547Y13618D1*
X27566Y13608D1*
X27595Y13599D1*
X27643D1*
X27672Y13608D1*
X27691Y13618D1*
X27710Y13637D1*
X27720Y13656D1*
Y13695D1*
X27710Y13714D1*
X27691Y13733D1*
X27672Y13742D1*
X27643D1*
Y13695D1*
X27519Y13928D2*
Y13804D1*
X27720D1*
Y13928D1*
X27614Y13804D2*
Y13881D1*
X32265Y5432D2*
Y5231D1*
X32352D1*
X32380Y5241D1*
X32390Y5250D1*
X32399Y5269D1*
Y5298D1*
X32390Y5317D1*
X32380Y5327D1*
X32352Y5336D1*
X32380Y5346D1*
X32390Y5356D1*
X32399Y5375D1*
Y5394D1*
X32390Y5413D1*
X32380Y5423D1*
X32352Y5432D1*
X32265D1*
Y5336D2*
X32352D1*
X32519Y5432D2*
X32499Y5423D1*
X32480Y5403D1*
X32471Y5384D1*
X32461Y5356D1*
Y5308D1*
X32471Y5279D1*
X32480Y5260D1*
X32499Y5241D1*
X32519Y5231D1*
X32557D1*
X32576Y5241D1*
X32595Y5260D1*
X32605Y5279D1*
X32614Y5308D1*
Y5356D1*
X32605Y5384D1*
X32595Y5403D1*
X32576Y5423D1*
X32557Y5432D1*
X32519D1*
X32829Y5231D2*
X32752Y5432D1*
X32676Y5231D1*
X32705Y5298D2*
X32800D1*
X32891Y5336D2*
X32977D1*
X33005Y5346D1*
X33015Y5356D1*
X33025Y5375D1*
Y5394D1*
X33015Y5413D1*
X33005Y5423D1*
X32977Y5432D1*
X32891D1*
Y5231D1*
X32958Y5336D2*
X33025Y5231D1*
X33086Y5432D2*
Y5231D1*
X33153D1*
X33182Y5241D1*
X33201Y5260D1*
X33211Y5279D1*
X33220Y5308D1*
Y5356D1*
X33211Y5384D1*
X33201Y5403D1*
X33182Y5423D1*
X33153Y5432D1*
X33086D1*
X33601D2*
X33477D1*
Y5231D1*
X33601D1*
X33477Y5336D2*
X33553D1*
X33663Y5432D2*
Y5231D1*
X33730D1*
X33758Y5241D1*
X33778Y5260D1*
X33787Y5279D1*
X33797Y5308D1*
Y5356D1*
X33787Y5384D1*
X33778Y5403D1*
X33758Y5423D1*
X33730Y5432D1*
X33663D1*
X34002Y5384D2*
X33992Y5403D1*
X33973Y5423D1*
X33954Y5432D1*
X33916D1*
X33897Y5423D1*
X33878Y5403D1*
X33868Y5384D1*
X33858Y5356D1*
Y5308D1*
X33868Y5279D1*
X33878Y5260D1*
X33897Y5241D1*
X33916Y5231D1*
X33954D1*
X33973Y5241D1*
X33992Y5260D1*
X34002Y5279D1*
Y5308D1*
X33954D1*
X34188Y5432D2*
X34064D1*
Y5231D1*
X34188D1*
X34064Y5336D2*
X34140D1*
M02*
