G04 DipTrace 2.4.0.2*
%INTopMask.gbr*%
%MOIN*%
%ADD29C,0.1*%
%ADD33R,0.0709X0.0709*%
%ADD34C,0.0709*%
%ADD41R,0.0748X0.0748*%
%ADD42C,0.0748*%
%ADD59R,0.0237X0.0631*%
%ADD61R,0.0316X0.0867*%
%ADD63R,0.0493X0.0336*%
%ADD65R,0.071X0.1143*%
%ADD67R,0.071X0.0198*%
%ADD70R,0.0926X0.1852*%
%ADD72C,0.0828*%
%ADD73R,0.0828X0.0828*%
%ADD74R,0.0336X0.0493*%
%ADD76O,0.0828X0.1064*%
%ADD78R,0.0828X0.1064*%
%ADD82C,0.0789*%
%ADD83R,0.0789X0.0789*%
%ADD85C,0.058*%
%ADD87R,0.0631X0.071*%
%ADD89R,0.1025X0.1025*%
%ADD91R,0.0671X0.0592*%
%ADD93R,0.0474X0.0513*%
%ADD95R,0.1143X0.071*%
%ADD97R,0.0592X0.0671*%
%ADD99R,0.0513X0.0474*%
%FSLAX44Y44*%
G04*
G70*
G90*
G75*
G01*
%LNTopMask*%
%LPD*%
D99*
X13250Y6000D3*
X13919D3*
X22250Y5750D3*
X22919D3*
X14000Y4500D3*
X13331D3*
D97*
X10002Y4250D3*
X10750D3*
D99*
X23000D3*
X22331D3*
D97*
X19000D3*
X19748D3*
D95*
X7375Y10250D3*
Y11352D3*
Y14250D3*
Y13148D3*
D97*
X13250Y7500D3*
X13998D3*
D95*
X23219Y13281D3*
Y14383D3*
X23271Y11332D3*
Y10229D3*
D97*
X22250Y7500D3*
X22998D3*
X8625Y8562D3*
X9373D3*
X18750Y8750D3*
X19498D3*
D95*
X14125Y14250D3*
Y13148D3*
Y10250D3*
Y11352D3*
X16469Y11531D3*
Y10428D3*
Y13281D3*
Y14383D3*
D93*
X46750Y8750D3*
Y9419D3*
D91*
X51500Y3250D3*
Y3998D3*
D93*
X47500Y14500D3*
Y13831D3*
X51750Y8750D3*
Y9419D3*
X51000Y14500D3*
Y13831D3*
D91*
X46500Y3752D3*
Y4500D3*
X49000Y3250D3*
Y3998D3*
X49250Y14500D3*
Y13752D3*
Y9250D3*
Y8502D3*
X29750Y15750D3*
Y16498D3*
D95*
X31500Y9500D3*
Y10602D3*
X30000Y9500D3*
Y10602D3*
X3000Y12500D3*
Y11398D3*
D97*
X33002Y6250D3*
X33750D3*
D89*
X22250Y8750D3*
X20518D3*
X12250Y8562D3*
X10518D3*
D87*
X19750Y16750D3*
X18569D3*
X10750D3*
X9569D3*
X29319Y6500D3*
X30500D3*
D89*
X1500Y13250D3*
Y11518D3*
X4500Y13250D3*
Y11518D3*
D93*
X15000Y6250D3*
Y6919D3*
X23835Y4415D3*
Y5085D3*
D99*
X49169Y2250D3*
X48500D3*
X26331Y9500D3*
X27000D3*
D29*
X8500Y1000D3*
D85*
D3*
D29*
X35500Y20000D3*
D85*
D3*
D41*
X11000Y1000D3*
D42*
X12000D3*
X13000D3*
X14000D3*
X15000D3*
X16000D3*
X17000D3*
X18000D3*
D41*
X9400Y20000D3*
D42*
X10400D3*
X11400D3*
X12400D3*
X13400D3*
X14400D3*
X15400D3*
X16400D3*
D41*
X38000D3*
D42*
X37000D3*
X38000Y19000D3*
X37000D3*
X38000Y18000D3*
X37000D3*
X38000Y17000D3*
X37000D3*
X38000Y16000D3*
X37000D3*
X38000Y15000D3*
X37000D3*
X38000Y14000D3*
X37000D3*
X38000Y13000D3*
X37000D3*
X38000Y12000D3*
X37000D3*
X38000Y11000D3*
X37000D3*
X38000Y10000D3*
X37000D3*
X38000Y9000D3*
X37000D3*
X38000Y8000D3*
X37000D3*
X38000Y7000D3*
X37000D3*
X38000Y6000D3*
X37000D3*
X38000Y5000D3*
X37000D3*
X38000Y4000D3*
X37000D3*
X38000Y3000D3*
X37000D3*
D41*
X20000Y1000D3*
D42*
X21000D3*
X22000D3*
X23000D3*
X24000D3*
X25000D3*
X26000D3*
X27000D3*
D41*
X18000Y20000D3*
D42*
X19000D3*
X20000D3*
X21000D3*
X22000D3*
X23000D3*
X24000D3*
X25000D3*
D41*
X42000Y10000D3*
D42*
X41000D3*
X42000Y11000D3*
X41000D3*
X42000Y12000D3*
X41000D3*
X42000Y13000D3*
X41000D3*
X42000Y14000D3*
X41000D3*
D41*
X29000Y1000D3*
D42*
X30000D3*
X31000D3*
X32000D3*
X33000D3*
X34000D3*
X35000D3*
X36000D3*
D41*
X27000Y20000D3*
D42*
X28000D3*
X29000D3*
X30000D3*
X31000D3*
X32000D3*
X33000D3*
X34000D3*
D41*
X42000Y3000D3*
D42*
X41000D3*
X42000Y4000D3*
X41000D3*
X42000Y5000D3*
X41000D3*
X42000Y6000D3*
X41000D3*
X42000Y7000D3*
X41000D3*
D41*
X44500Y3000D3*
D42*
Y4000D3*
Y5000D3*
Y6000D3*
D41*
X41000Y17000D3*
D42*
Y18000D3*
Y19000D3*
Y20000D3*
D41*
X42000Y17000D3*
D42*
Y18000D3*
Y19000D3*
Y20000D3*
D41*
X43000Y17000D3*
D42*
Y18000D3*
Y19000D3*
Y20000D3*
D83*
X14250Y16750D3*
D82*
X15250D3*
X16250D3*
D33*
X46000Y17000D3*
D34*
Y17984D3*
Y18969D3*
D33*
X50500Y17000D3*
D34*
Y17984D3*
Y18969D3*
D41*
X47750Y6500D3*
D42*
X48750D3*
X49750D3*
X50750D3*
D41*
X26500Y11500D3*
D42*
Y12500D3*
Y13500D3*
Y14500D3*
D41*
X33500Y9500D3*
D42*
Y10500D3*
Y11500D3*
Y12500D3*
Y13500D3*
Y14500D3*
Y15500D3*
Y16500D3*
D41*
X28500Y9500D3*
D42*
Y10500D3*
Y11500D3*
Y12500D3*
Y13500D3*
Y14500D3*
Y15500D3*
Y16500D3*
D33*
X27000Y4500D3*
D34*
X26016D3*
D33*
X30500D3*
D34*
X29516D3*
D78*
X4500Y18250D3*
D76*
X3500D3*
X2500D3*
X1500D3*
D41*
X32750Y4500D3*
D42*
X33750D3*
D74*
X27171Y7077D3*
X26423D3*
X26797Y6171D3*
D73*
X2000Y7500D3*
D72*
Y8500D3*
Y9500D3*
D73*
X4250Y7500D3*
D72*
Y8500D3*
Y9500D3*
D99*
X17250Y4250D3*
X17919D3*
D93*
X21500Y5000D3*
Y4331D3*
D99*
X10081Y5000D3*
X10750D3*
X19165Y5165D3*
X19835D3*
X14000Y5250D3*
X13331D3*
X23000Y5000D3*
X22331D3*
X8500Y5750D3*
X7831D3*
X17750Y6000D3*
X17081D3*
X13250Y6750D3*
X13919D3*
X8500Y6250D3*
X7831D3*
X22250Y6750D3*
X22919D3*
X17750D3*
X17081D3*
X8500D3*
X7831D3*
X17750Y7500D3*
X17081D3*
X8500Y7250D3*
X7831D3*
X12250Y4500D3*
X11581D3*
D93*
X20750Y4250D3*
Y4919D3*
D99*
X12500Y16750D3*
X11831D3*
X20750D3*
X21419D3*
X50750Y2250D3*
X50081D3*
D93*
X47500Y8750D3*
Y9419D3*
X46000Y9500D3*
Y8831D3*
X46750Y13750D3*
Y14419D3*
X48250Y8750D3*
Y9419D3*
Y14500D3*
Y13831D3*
X51000Y8750D3*
Y9419D3*
X52500Y9498D3*
Y8829D3*
X51750Y13750D3*
Y14419D3*
X50250Y8750D3*
Y9419D3*
Y14500D3*
Y13831D3*
D99*
X46750Y12000D3*
X46081D3*
X46250Y11250D3*
X46919D3*
D93*
X30665Y16335D3*
Y15665D3*
D99*
X30500Y11750D3*
X29831D3*
X30500Y12750D3*
X29831D3*
X30500Y13750D3*
X29831D3*
X31250Y11750D3*
X31919D3*
X31250Y12750D3*
X31919D3*
X31250Y13750D3*
X31919D3*
X26415Y7835D3*
X27085D3*
D93*
X28335Y7085D3*
Y6415D3*
X25500Y7000D3*
Y6331D3*
X2000Y5250D3*
Y5919D3*
X4250Y5250D3*
Y5919D3*
D99*
X33000Y7250D3*
X33669D3*
D93*
X2750Y5250D3*
Y5919D3*
X3500Y5250D3*
Y5919D3*
D70*
X11500Y14000D3*
X10150D3*
Y10654D3*
X11500D3*
X20500Y14000D3*
X19150D3*
Y10654D3*
X20500D3*
D67*
X11750Y5750D3*
Y5947D3*
Y6144D3*
Y6341D3*
Y6537D3*
Y6734D3*
Y6931D3*
Y7128D3*
X10018D3*
Y6931D3*
Y6734D3*
Y6537D3*
Y6341D3*
Y6144D3*
Y5947D3*
Y5750D3*
D65*
X10884Y6439D3*
D67*
X20750Y6000D3*
Y6197D3*
Y6394D3*
Y6591D3*
Y6787D3*
Y6984D3*
Y7181D3*
Y7378D3*
X19018D3*
Y7181D3*
Y6984D3*
Y6787D3*
Y6591D3*
Y6394D3*
Y6197D3*
Y6000D3*
D65*
X19884Y6689D3*
D63*
X50750Y3250D3*
Y3998D3*
X49844Y3624D3*
D61*
X47750Y10500D3*
X48250D3*
X48750D3*
X49250D3*
X49750D3*
X50250D3*
X50750D3*
Y12626D3*
X50250D3*
X49750D3*
X49250D3*
X48750D3*
X48250D3*
X47750D3*
D59*
X47250Y3250D3*
X47506D3*
X47762D3*
X48018D3*
Y4982D3*
X47762D3*
X47506D3*
X47250D3*
M02*
