G04 DipTrace 2.4.0.2*
%INTopPaste.gbr*%
%MOIN*%
%ADD60R,0.0077X0.0471*%
%ADD62R,0.0156X0.0707*%
%ADD64R,0.0333X0.0176*%
%ADD66R,0.055X0.0983*%
%ADD68R,0.055X0.0038*%
%ADD71R,0.0766X0.1692*%
%ADD75R,0.0176X0.0333*%
%ADD88R,0.0471X0.055*%
%ADD90R,0.0865X0.0865*%
%ADD92R,0.0511X0.0432*%
%ADD94R,0.0314X0.0353*%
%ADD96R,0.0983X0.055*%
%ADD98R,0.0432X0.0511*%
%ADD100R,0.0353X0.0314*%
%FSLAX44Y44*%
G04*
G70*
G90*
G75*
G01*
%LNTopPaste*%
%LPD*%
D100*
X13250Y6000D3*
X13919D3*
X22250Y5750D3*
X22919D3*
X14000Y4500D3*
X13331D3*
D98*
X10002Y4250D3*
X10750D3*
D100*
X23000D3*
X22331D3*
D98*
X19000D3*
X19748D3*
D96*
X7375Y10250D3*
Y11352D3*
Y14250D3*
Y13148D3*
D98*
X13250Y7500D3*
X13998D3*
D96*
X23219Y13281D3*
Y14383D3*
X23271Y11332D3*
Y10229D3*
D98*
X22250Y7500D3*
X22998D3*
X8625Y8562D3*
X9373D3*
X18750Y8750D3*
X19498D3*
D96*
X14125Y14250D3*
Y13148D3*
Y10250D3*
Y11352D3*
X16469Y11531D3*
Y10428D3*
Y13281D3*
Y14383D3*
D94*
X46750Y8750D3*
Y9419D3*
D92*
X51500Y3250D3*
Y3998D3*
D94*
X47500Y14500D3*
Y13831D3*
X51750Y8750D3*
Y9419D3*
X51000Y14500D3*
Y13831D3*
D92*
X46500Y3752D3*
Y4500D3*
X49000Y3250D3*
Y3998D3*
X49250Y14500D3*
Y13752D3*
Y9250D3*
Y8502D3*
X29750Y15750D3*
Y16498D3*
D96*
X31500Y9500D3*
Y10602D3*
X30000Y9500D3*
Y10602D3*
X3000Y12500D3*
Y11398D3*
D98*
X33002Y6250D3*
X33750D3*
D90*
X22250Y8750D3*
X20518D3*
X12250Y8562D3*
X10518D3*
D88*
X19750Y16750D3*
X18569D3*
X10750D3*
X9569D3*
X29319Y6500D3*
X30500D3*
D90*
X1500Y13250D3*
Y11518D3*
X4500Y13250D3*
Y11518D3*
D94*
X15000Y6250D3*
Y6919D3*
X23835Y4415D3*
Y5085D3*
D100*
X49169Y2250D3*
X48500D3*
X26331Y9500D3*
X27000D3*
D75*
X27171Y7077D3*
X26423D3*
X26797Y6171D3*
D100*
X17250Y4250D3*
X17919D3*
D94*
X21500Y5000D3*
Y4331D3*
D100*
X10081Y5000D3*
X10750D3*
X19165Y5165D3*
X19835D3*
X14000Y5250D3*
X13331D3*
X23000Y5000D3*
X22331D3*
X8500Y5750D3*
X7831D3*
X17750Y6000D3*
X17081D3*
X13250Y6750D3*
X13919D3*
X8500Y6250D3*
X7831D3*
X22250Y6750D3*
X22919D3*
X17750D3*
X17081D3*
X8500D3*
X7831D3*
X17750Y7500D3*
X17081D3*
X8500Y7250D3*
X7831D3*
X12250Y4500D3*
X11581D3*
D94*
X20750Y4250D3*
Y4919D3*
D100*
X12500Y16750D3*
X11831D3*
X20750D3*
X21419D3*
X50750Y2250D3*
X50081D3*
D94*
X47500Y8750D3*
Y9419D3*
X46000Y9500D3*
Y8831D3*
X46750Y13750D3*
Y14419D3*
X48250Y8750D3*
Y9419D3*
Y14500D3*
Y13831D3*
X51000Y8750D3*
Y9419D3*
X52500Y9498D3*
Y8829D3*
X51750Y13750D3*
Y14419D3*
X50250Y8750D3*
Y9419D3*
Y14500D3*
Y13831D3*
D100*
X46750Y12000D3*
X46081D3*
X46250Y11250D3*
X46919D3*
D94*
X30665Y16335D3*
Y15665D3*
D100*
X30500Y11750D3*
X29831D3*
X30500Y12750D3*
X29831D3*
X30500Y13750D3*
X29831D3*
X31250Y11750D3*
X31919D3*
X31250Y12750D3*
X31919D3*
X31250Y13750D3*
X31919D3*
X26415Y7835D3*
X27085D3*
D94*
X28335Y7085D3*
Y6415D3*
X25500Y7000D3*
Y6331D3*
X2000Y5250D3*
Y5919D3*
X4250Y5250D3*
Y5919D3*
D100*
X33000Y7250D3*
X33669D3*
D94*
X2750Y5250D3*
Y5919D3*
X3500Y5250D3*
Y5919D3*
D71*
X11500Y14000D3*
X10150D3*
Y10654D3*
X11500D3*
X20500Y14000D3*
X19150D3*
Y10654D3*
X20500D3*
D68*
X11750Y5750D3*
Y5947D3*
Y6144D3*
Y6341D3*
Y6537D3*
Y6734D3*
Y6931D3*
Y7128D3*
X10018D3*
Y6931D3*
Y6734D3*
Y6537D3*
Y6341D3*
Y6144D3*
Y5947D3*
Y5750D3*
D66*
X10884Y6439D3*
D68*
X20750Y6000D3*
Y6197D3*
Y6394D3*
Y6591D3*
Y6787D3*
Y6984D3*
Y7181D3*
Y7378D3*
X19018D3*
Y7181D3*
Y6984D3*
Y6787D3*
Y6591D3*
Y6394D3*
Y6197D3*
Y6000D3*
D66*
X19884Y6689D3*
D64*
X50750Y3250D3*
Y3998D3*
X49844Y3624D3*
D62*
X47750Y10500D3*
X48250D3*
X48750D3*
X49250D3*
X49750D3*
X50250D3*
X50750D3*
Y12626D3*
X50250D3*
X49750D3*
X49250D3*
X48750D3*
X48250D3*
X47750D3*
D60*
X47250Y3250D3*
X47506D3*
X47762D3*
X48018D3*
Y4982D3*
X47762D3*
X47506D3*
X47250D3*
M02*
