G04 DipTrace 2.4.0.2*
%INThrough.gbr*%
%MOMM*%
G04 Drill Symbols*
G04 D=0.486 - Cross*
G04 D=1.1 - X*
%ADD10C,0.203*%
%ADD11C,0.14*%
%ADD13C,0.035*%
%ADD86C,0.157*%
%FSLAX53Y53*%
G04*
G71*
G90*
G75*
G01*
X95923Y36157D2*
D10*
X97117Y34963D1*
Y36157D2*
X95923Y34963D1*
X93383Y36157D2*
X94577Y34963D1*
Y36157D2*
X93383Y34963D1*
X95923Y33617D2*
X97117Y32423D1*
Y33617D2*
X95923Y32423D1*
X93383Y33617D2*
X94577Y32423D1*
Y33617D2*
X93383Y32423D1*
X95923Y31077D2*
X97117Y29883D1*
Y31077D2*
X95923Y29883D1*
X93383Y31077D2*
X94577Y29883D1*
Y31077D2*
X93383Y29883D1*
X95923Y28537D2*
X97117Y27343D1*
Y28537D2*
X95923Y27343D1*
X93383Y28537D2*
X94577Y27343D1*
Y28537D2*
X93383Y27343D1*
X95923Y25997D2*
X97117Y24803D1*
Y25997D2*
X95923Y24803D1*
X93383Y25997D2*
X94577Y24803D1*
Y25997D2*
X93383Y24803D1*
X95923Y23457D2*
X97117Y22263D1*
Y23457D2*
X95923Y22263D1*
X93383Y23457D2*
X94577Y22263D1*
Y23457D2*
X93383Y22263D1*
X95923Y20917D2*
X97117Y19723D1*
Y20917D2*
X95923Y19723D1*
X93383Y20917D2*
X94577Y19723D1*
Y20917D2*
X93383Y19723D1*
X95923Y18377D2*
X97117Y17183D1*
Y18377D2*
X95923Y17183D1*
X93383Y18377D2*
X94577Y17183D1*
Y18377D2*
X93383Y17183D1*
X95923Y15837D2*
X97117Y14643D1*
Y15837D2*
X95923Y14643D1*
X93383Y15837D2*
X94577Y14643D1*
Y15837D2*
X93383Y14643D1*
X95923Y13297D2*
X97117Y12103D1*
Y13297D2*
X95923Y12103D1*
X93383Y13297D2*
X94577Y12103D1*
Y13297D2*
X93383Y12103D1*
X95923Y10757D2*
X97117Y9563D1*
Y10757D2*
X95923Y9563D1*
X93383Y10757D2*
X94577Y9563D1*
Y10757D2*
X93383Y9563D1*
X95923Y8217D2*
X97117Y7023D1*
Y8217D2*
X95923Y7023D1*
X93383Y8217D2*
X94577Y7023D1*
Y8217D2*
X93383Y7023D1*
X47663Y5677D2*
X48857Y4483D1*
Y5677D2*
X47663Y4483D1*
X50203Y5677D2*
X51397Y4483D1*
Y5677D2*
X50203Y4483D1*
X52743Y5677D2*
X53937Y4483D1*
Y5677D2*
X52743Y4483D1*
X55283Y5677D2*
X56477Y4483D1*
Y5677D2*
X55283Y4483D1*
X57823Y5677D2*
X59017Y4483D1*
Y5677D2*
X57823Y4483D1*
X60363Y5677D2*
X61557Y4483D1*
Y5677D2*
X60363Y4483D1*
X62903Y5677D2*
X64097Y4483D1*
Y5677D2*
X62903Y4483D1*
X65443Y5677D2*
X66637Y4483D1*
Y5677D2*
X65443Y4483D1*
X67983Y5677D2*
X69177Y4483D1*
Y5677D2*
X67983Y4483D1*
X70523Y5677D2*
X71717Y4483D1*
Y5677D2*
X70523Y4483D1*
X101003Y8217D2*
X102197Y7023D1*
Y8217D2*
X101003Y7023D1*
X98463Y8217D2*
X99657Y7023D1*
Y8217D2*
X98463Y7023D1*
X101003Y10757D2*
X102197Y9563D1*
Y10757D2*
X101003Y9563D1*
X98463Y10757D2*
X99657Y9563D1*
Y10757D2*
X98463Y9563D1*
X101003Y13297D2*
X102197Y12103D1*
Y13297D2*
X101003Y12103D1*
X98463Y13297D2*
X99657Y12103D1*
Y13297D2*
X98463Y12103D1*
X101003Y15837D2*
X102197Y14643D1*
Y15837D2*
X101003Y14643D1*
X98463Y15837D2*
X99657Y14643D1*
Y15837D2*
X98463Y14643D1*
X101003Y18377D2*
X102197Y17183D1*
Y18377D2*
X101003Y17183D1*
X98463Y18377D2*
X99657Y17183D1*
Y18377D2*
X98463Y17183D1*
X101003Y23457D2*
X102197Y22263D1*
Y23457D2*
X101003Y22263D1*
X98463Y23457D2*
X99657Y22263D1*
Y23457D2*
X98463Y22263D1*
X101003Y25997D2*
X102197Y24803D1*
Y25997D2*
X101003Y24803D1*
X98463Y25997D2*
X99657Y24803D1*
Y25997D2*
X98463Y24803D1*
X101003Y28537D2*
X102197Y27343D1*
Y28537D2*
X101003Y27343D1*
X98463Y28537D2*
X99657Y27343D1*
Y28537D2*
X98463Y27343D1*
X101003Y31077D2*
X102197Y29883D1*
Y31077D2*
X101003Y29883D1*
X98463Y31077D2*
X99657Y29883D1*
Y31077D2*
X98463Y29883D1*
X101003Y33617D2*
X102197Y32423D1*
Y33617D2*
X101003Y32423D1*
X98463Y33617D2*
X99657Y32423D1*
Y33617D2*
X98463Y32423D1*
X18913Y37107D2*
X20107Y35913D1*
Y37107D2*
X18913Y35913D1*
X21453Y37107D2*
X22647Y35913D1*
Y37107D2*
X21453Y35913D1*
X23993Y37107D2*
X25187Y35913D1*
Y37107D2*
X23993Y35913D1*
X46517Y23711D2*
X47711Y22517D1*
Y23711D2*
X46517Y22517D1*
Y26251D2*
X47711Y25057D1*
Y26251D2*
X46517Y25057D1*
Y28791D2*
X47711Y27597D1*
Y28791D2*
X46517Y27597D1*
X68704Y23701D2*
X69898Y22507D1*
Y23701D2*
X68704Y22507D1*
Y26241D2*
X69898Y25047D1*
Y26241D2*
X68704Y25047D1*
Y28781D2*
X69898Y27587D1*
Y28781D2*
X68704Y27587D1*
X87033Y33617D2*
X88227Y32423D1*
Y33617D2*
X87033Y32423D1*
Y36157D2*
X88227Y34963D1*
Y36157D2*
X87033Y34963D1*
X74333Y31077D2*
X75527Y29883D1*
Y31077D2*
X74333Y29883D1*
Y33617D2*
X75527Y32423D1*
Y33617D2*
X74333Y32423D1*
Y36157D2*
X75527Y34963D1*
Y36157D2*
X74333Y34963D1*
X74023Y13298D2*
X75217Y12104D1*
Y13298D2*
X74023Y12104D1*
Y15838D2*
X75217Y14644D1*
Y15838D2*
X74023Y14644D1*
Y18378D2*
X75217Y17184D1*
Y18378D2*
X74023Y17184D1*
Y20918D2*
X75217Y19724D1*
Y20918D2*
X74023Y19724D1*
X90843Y8217D2*
X92037Y7023D1*
Y8217D2*
X90843Y7023D1*
Y10757D2*
X92037Y9563D1*
Y10757D2*
X90843Y9563D1*
Y13297D2*
X92037Y12103D1*
Y13297D2*
X90843Y12103D1*
Y15837D2*
X92037Y14643D1*
Y15837D2*
X90843Y14643D1*
Y18377D2*
X92037Y17183D1*
Y18377D2*
X90843Y17183D1*
Y20917D2*
X92037Y19723D1*
Y20917D2*
X90843Y19723D1*
Y23457D2*
X92037Y22263D1*
Y23457D2*
X90843Y22263D1*
Y25997D2*
X92037Y24803D1*
Y25997D2*
X90843Y24803D1*
X78143Y8217D2*
X79337Y7023D1*
Y8217D2*
X78143Y7023D1*
Y10757D2*
X79337Y9563D1*
Y10757D2*
X78143Y9563D1*
Y13297D2*
X79337Y12103D1*
Y13297D2*
X78143Y12103D1*
Y15837D2*
X79337Y14643D1*
Y15837D2*
X78143Y14643D1*
Y18377D2*
X79337Y17183D1*
Y18377D2*
X78143Y17183D1*
Y20917D2*
X79337Y19723D1*
Y20917D2*
X78143Y19723D1*
Y23457D2*
X79337Y22263D1*
Y23457D2*
X78143Y22263D1*
Y25997D2*
X79337Y24803D1*
Y25997D2*
X78143Y24803D1*
X32423Y3137D2*
X33617Y1943D1*
Y3137D2*
X32423Y1943D1*
X34963Y3137D2*
X36157Y1943D1*
Y3137D2*
X34963Y1943D1*
X37503Y3137D2*
X38697Y1943D1*
Y3137D2*
X37503Y1943D1*
X40043Y3137D2*
X41237Y1943D1*
Y3137D2*
X40043Y1943D1*
X42583Y3137D2*
X43777Y1943D1*
Y3137D2*
X42583Y1943D1*
X45123Y3137D2*
X46317Y1943D1*
Y3137D2*
X45123Y1943D1*
X47663Y3137D2*
X48857Y1943D1*
Y3137D2*
X47663Y1943D1*
X50203Y3137D2*
X51397Y1943D1*
Y3137D2*
X50203Y1943D1*
X52743Y3137D2*
X53937Y1943D1*
Y3137D2*
X52743Y1943D1*
X55283Y3137D2*
X56477Y1943D1*
Y3137D2*
X55283Y1943D1*
X57823Y3137D2*
X59017Y1943D1*
Y3137D2*
X57823Y1943D1*
X60363Y3137D2*
X61557Y1943D1*
Y3137D2*
X60363Y1943D1*
X62903Y3137D2*
X64097Y1943D1*
Y3137D2*
X62903Y1943D1*
X65443Y3137D2*
X66637Y1943D1*
Y3137D2*
X65443Y1943D1*
X67983Y3137D2*
X69177Y1943D1*
Y3137D2*
X67983Y1943D1*
X22225Y15447D2*
Y14253D1*
X21628Y14850D2*
X22822D1*
X22225Y14177D2*
Y12983D1*
X21628Y13580D2*
X22822D1*
X43180Y33617D2*
Y32423D1*
X42583Y33020D2*
X43777D1*
X43180Y32347D2*
Y31153D1*
X42583Y31750D2*
X43777D1*
X43180Y31077D2*
Y29883D1*
X42583Y30480D2*
X43777D1*
X43180Y29807D2*
Y28613D1*
X42583Y29210D2*
X43777D1*
X43180Y28537D2*
Y27343D1*
X42583Y27940D2*
X43777D1*
X43180Y27267D2*
Y26073D1*
X42583Y26670D2*
X43777D1*
X43180Y25997D2*
Y24803D1*
X42583Y25400D2*
X43777D1*
X43180Y24727D2*
Y23533D1*
X42583Y24130D2*
X43777D1*
X43180Y23457D2*
Y22263D1*
X42583Y22860D2*
X43777D1*
X43180Y22187D2*
Y20993D1*
X42583Y21590D2*
X43777D1*
X43180Y20917D2*
Y19723D1*
X42583Y20320D2*
X43777D1*
X43180Y19647D2*
Y18453D1*
X42583Y19050D2*
X43777D1*
X43180Y18377D2*
Y17183D1*
X42583Y17780D2*
X43777D1*
X43180Y17107D2*
Y15913D1*
X42583Y16510D2*
X43777D1*
X43180Y15837D2*
Y14643D1*
X42583Y15240D2*
X43777D1*
X21070Y22067D2*
Y20873D1*
X20473Y21470D2*
X21667D1*
X12070Y4937D2*
Y3743D1*
X11473Y4340D2*
X12667D1*
X13340Y4937D2*
Y3743D1*
X12743Y4340D2*
X13937D1*
X22225Y12907D2*
Y11713D1*
X21628Y12310D2*
X22822D1*
X22225Y11637D2*
Y10443D1*
X21628Y11040D2*
X22822D1*
X23495Y15447D2*
Y14253D1*
X22898Y14850D2*
X24092D1*
X23495Y14177D2*
Y12983D1*
X22898Y13580D2*
X24092D1*
X23495Y12907D2*
Y11713D1*
X22898Y12310D2*
X24092D1*
X23495Y11637D2*
Y10443D1*
X22898Y11040D2*
X24092D1*
X16270Y34337D2*
Y33143D1*
X15673Y33740D2*
X16867D1*
X17540Y34337D2*
Y33143D1*
X16943Y33740D2*
X18137D1*
X18810Y34337D2*
Y33143D1*
X18213Y33740D2*
X19407D1*
X20080Y34337D2*
Y33143D1*
X19483Y33740D2*
X20677D1*
X84623Y25803D2*
Y24609D1*
X84026Y25206D2*
X85220D1*
X84623Y24533D2*
Y23339D1*
X84026Y23936D2*
X85220D1*
X84623Y23263D2*
Y22069D1*
X84026Y22666D2*
X85220D1*
X84623Y21993D2*
Y20799D1*
X84026Y21396D2*
X85220D1*
X86052Y25803D2*
Y24609D1*
X85455Y25206D2*
X86649D1*
X86052Y24533D2*
Y23339D1*
X85455Y23936D2*
X86649D1*
X86052Y23263D2*
Y22069D1*
X85455Y22666D2*
X86649D1*
X86052Y21993D2*
Y20799D1*
X85455Y21396D2*
X86649D1*
X84623Y20723D2*
Y19529D1*
X84026Y20126D2*
X85220D1*
X86052Y20723D2*
Y19529D1*
X85455Y20126D2*
X86649D1*
X82400Y23898D2*
Y22704D1*
X81803Y23301D2*
X82997D1*
X82400Y22628D2*
Y21434D1*
X81803Y22031D2*
X82997D1*
X21350Y34337D2*
Y33143D1*
X20753Y33740D2*
X21947D1*
X22620Y34337D2*
Y33143D1*
X22023Y33740D2*
X23217D1*
X23890Y34337D2*
Y33143D1*
X23293Y33740D2*
X24487D1*
X25160Y34337D2*
Y33143D1*
X24563Y33740D2*
X25757D1*
X22340Y22067D2*
Y20873D1*
X21743Y21470D2*
X22937D1*
X23610Y22067D2*
Y20873D1*
X23013Y21470D2*
X24207D1*
X14610Y4937D2*
Y3743D1*
X14013Y4340D2*
X15207D1*
X15880Y4937D2*
Y3743D1*
X15283Y4340D2*
X16477D1*
X17150Y4937D2*
Y3743D1*
X16553Y4340D2*
X17747D1*
X18420Y4937D2*
Y3743D1*
X17823Y4340D2*
X19017D1*
X19690Y4937D2*
Y3743D1*
X19093Y4340D2*
X20287D1*
X20960Y4937D2*
Y3743D1*
X20363Y4340D2*
X21557D1*
X22230Y4937D2*
Y3743D1*
X21633Y4340D2*
X22827D1*
X23500Y4937D2*
Y3743D1*
X22903Y4340D2*
X24097D1*
X24770Y4937D2*
Y3743D1*
X24173Y4340D2*
X25367D1*
X26040Y4937D2*
Y3743D1*
X25443Y4340D2*
X26637D1*
X27310Y4937D2*
Y3743D1*
X26713Y4340D2*
X27907D1*
X21070Y20797D2*
Y19603D1*
X20473Y20200D2*
X21667D1*
X29850Y4937D2*
Y3743D1*
X29253Y4340D2*
X30447D1*
X31120Y4937D2*
Y3743D1*
X30523Y4340D2*
X31717D1*
X32390Y4937D2*
Y3743D1*
X31793Y4340D2*
X32987D1*
X33660Y4937D2*
Y3743D1*
X33063Y4340D2*
X34257D1*
X22340Y20797D2*
Y19603D1*
X21743Y20200D2*
X22937D1*
X23610Y20797D2*
Y19603D1*
X23013Y20200D2*
X24207D1*
X3570Y28837D2*
Y27643D1*
X2973Y28240D2*
X4167D1*
X4840Y28837D2*
Y27643D1*
X4243Y28240D2*
X5437D1*
X6110Y28837D2*
Y27643D1*
X5513Y28240D2*
X6707D1*
X7380Y28837D2*
Y27643D1*
X6783Y28240D2*
X7977D1*
X8650Y28837D2*
Y27643D1*
X8053Y28240D2*
X9247D1*
X37040Y29797D2*
Y28603D1*
X36443Y29200D2*
X37637D1*
X38310Y29797D2*
Y28603D1*
X37713Y29200D2*
X38907D1*
X39580Y29797D2*
Y28603D1*
X38983Y29200D2*
X40177D1*
X33655Y18622D2*
Y17428D1*
X33058Y18025D2*
X34252D1*
X33655Y17352D2*
Y16158D1*
X33058Y16755D2*
X34252D1*
X33655Y16082D2*
Y14888D1*
X33058Y15485D2*
X34252D1*
X33655Y14812D2*
Y13618D1*
X33058Y14215D2*
X34252D1*
X65722Y10757D2*
Y9563D1*
X65126Y10160D2*
X66319D1*
X77107Y28572D2*
Y27378D1*
X76510Y27975D2*
X77704D1*
X57315Y16632D2*
Y15438D1*
X56718Y16035D2*
X57912D1*
X54457Y16632D2*
Y15438D1*
X53860Y16035D2*
X55054D1*
X75406Y26950D2*
Y25756D1*
X74809Y26353D2*
X76003D1*
X32340Y14862D2*
Y13668D1*
X31743Y14265D2*
X32937D1*
X31697Y10912D2*
Y9718D1*
X31100Y10315D2*
X32294D1*
X10750Y24497D2*
Y23303D1*
X10153Y23900D2*
X11347D1*
X10750Y19137D2*
Y17943D1*
X10153Y18540D2*
X11347D1*
X10750Y7067D2*
Y5873D1*
X10153Y6470D2*
X11347D1*
X18970Y7537D2*
Y6343D1*
X18373Y6940D2*
X19567D1*
X29020Y37097D2*
Y35903D1*
X28423Y36500D2*
X29617D1*
X41550Y36147D2*
Y34953D1*
X40953Y35550D2*
X42147D1*
X41610Y26917D2*
Y25723D1*
X41013Y26320D2*
X42207D1*
X41610Y13687D2*
Y12493D1*
X41013Y13090D2*
X42207D1*
X41610Y10147D2*
Y8953D1*
X41013Y9550D2*
X42207D1*
X56039Y19649D2*
Y18455D1*
X55442Y19052D2*
X56636D1*
X59690Y19655D2*
Y18461D1*
X59093Y19058D2*
X60287D1*
X63659Y12027D2*
Y10833D1*
X63062Y11430D2*
X64256D1*
X72239Y20602D2*
Y19408D1*
X71642Y20005D2*
X72836D1*
X72239Y17903D2*
Y16709D1*
X71642Y17306D2*
X72836D1*
X44500Y4597D2*
Y3403D1*
X43903Y4000D2*
X45097D1*
X50850Y9122D2*
Y7928D1*
X50253Y8525D2*
X51447D1*
X71925Y9622D2*
Y8428D1*
X71328Y9025D2*
X72522D1*
X48741Y33303D2*
Y32109D1*
X48144Y32706D2*
X49338D1*
X51550Y24797D2*
Y23603D1*
X50953Y24200D2*
X52147D1*
X65475Y33462D2*
Y32268D1*
X64878Y32865D2*
X66072D1*
X65475Y24297D2*
Y23103D1*
X64878Y23700D2*
X66072D1*
X48700Y36397D2*
Y35203D1*
X48103Y35800D2*
X49297D1*
X63633Y25367D2*
Y24173D1*
X63036Y24770D2*
X64230D1*
X52060Y31157D2*
Y29963D1*
X51463Y30560D2*
X52657D1*
X48700Y34897D2*
Y33703D1*
X48103Y34300D2*
X49297D1*
X28456Y16652D2*
Y15458D1*
X27859Y16055D2*
X29053D1*
X28456Y26277D2*
Y25083D1*
X27859Y25680D2*
X29053D1*
X12580Y16499D2*
Y15305D1*
X11983Y15902D2*
X13177D1*
X105807Y38100D2*
X115807D1*
Y34100D1*
X105807D1*
Y38100D1*
Y34100D2*
X115807D1*
Y30100D1*
X105807D1*
Y34100D1*
Y30100D2*
X115807D1*
Y26100D1*
X105807D1*
Y30100D1*
X115807Y38100D2*
X149140D1*
Y34100D1*
X115807D1*
Y38100D1*
Y34100D2*
X149140D1*
Y30100D1*
X115807D1*
Y34100D1*
Y30100D2*
X149140D1*
Y26100D1*
X115807D1*
Y30100D1*
X149140Y38100D2*
X162473D1*
Y34100D1*
X149140D1*
Y38100D1*
Y34100D2*
X162473D1*
Y30100D1*
X149140D1*
Y34100D1*
Y30100D2*
X162473D1*
Y26100D1*
X149140D1*
Y30100D1*
X162473Y38100D2*
X175807D1*
Y34100D1*
X162473D1*
Y38100D1*
Y34100D2*
X175807D1*
Y30100D1*
X162473D1*
Y34100D1*
Y30100D2*
X175807D1*
Y26100D1*
X162473D1*
Y30100D1*
X109140Y32697D2*
Y31503D1*
X108543Y32100D2*
X109737D1*
X108543Y28697D2*
X109737Y27503D1*
Y28697D2*
X108543Y27503D1*
X109147Y37057D2*
X108978Y37228D1*
X108723Y37312D1*
X108383D1*
X108127Y37228D1*
X107956Y37057D1*
Y36888D1*
X108043Y36717D1*
X108127Y36632D1*
X108296Y36548D1*
X108807Y36377D1*
X108978Y36292D1*
X109063Y36206D1*
X109147Y36037D1*
Y35781D1*
X108978Y35612D1*
X108723Y35526D1*
X108383D1*
X108127Y35612D1*
X107956Y35781D1*
X109783Y36717D2*
X110292Y35526D1*
X110123Y35186D1*
X109952Y35015D1*
X109783Y34930D1*
X109696D1*
X110803Y36717D2*
X110292Y35526D1*
X111352Y36717D2*
Y35526D1*
Y36377D2*
X111607Y36632D1*
X111778Y36717D1*
X112032D1*
X112203Y36632D1*
X112287Y36377D1*
Y35526D1*
Y36377D2*
X112543Y36632D1*
X112714Y36717D1*
X112967D1*
X113138Y36632D1*
X113225Y36377D1*
Y35526D1*
X129948Y37312D2*
Y35526D1*
X131139Y37312D2*
Y35526D1*
X129948Y36461D2*
X131139D1*
X132112Y36717D2*
X131943Y36632D1*
X131772Y36461D1*
X131688Y36206D1*
Y36037D1*
X131772Y35781D1*
X131943Y35612D1*
X132112Y35526D1*
X132368D1*
X132539Y35612D1*
X132708Y35781D1*
X132794Y36037D1*
Y36206D1*
X132708Y36461D1*
X132539Y36632D1*
X132368Y36717D1*
X132112D1*
X133343Y37312D2*
Y35526D1*
X133892Y36206D2*
X134912D1*
Y36377D1*
X134828Y36548D1*
X134743Y36632D1*
X134572Y36717D1*
X134317D1*
X134148Y36632D1*
X133977Y36461D1*
X133892Y36206D1*
Y36037D1*
X133977Y35781D1*
X134148Y35612D1*
X134317Y35526D1*
X134572D1*
X134743Y35612D1*
X134912Y35781D1*
X116944Y32461D2*
X117708D1*
X117964Y32548D1*
X118050Y32632D1*
X118135Y32801D1*
Y32972D1*
X118050Y33141D1*
X117964Y33228D1*
X117708Y33312D1*
X116944D1*
Y31526D1*
X117539Y32461D2*
X118135Y31526D1*
X119108Y32717D2*
X118939Y32632D1*
X118768Y32461D1*
X118684Y32206D1*
Y32037D1*
X118768Y31781D1*
X118939Y31612D1*
X119108Y31526D1*
X119364D1*
X119535Y31612D1*
X119704Y31781D1*
X119790Y32037D1*
Y32206D1*
X119704Y32461D1*
X119535Y32632D1*
X119364Y32717D1*
X119108D1*
X120339D2*
Y31866D1*
X120424Y31612D1*
X120595Y31526D1*
X120850D1*
X121020Y31612D1*
X121275Y31866D1*
Y32717D2*
Y31526D1*
X121824Y32717D2*
Y31526D1*
Y32377D2*
X122080Y32632D1*
X122251Y32717D1*
X122504D1*
X122675Y32632D1*
X122760Y32377D1*
Y31526D1*
X124329Y33312D2*
Y31526D1*
Y32461D2*
X124160Y32632D1*
X123989Y32717D1*
X123733D1*
X123564Y32632D1*
X123393Y32461D1*
X123309Y32206D1*
Y32037D1*
X123393Y31781D1*
X123564Y31612D1*
X123733Y31526D1*
X123989D1*
X124160Y31612D1*
X124329Y31781D1*
X127117Y33310D2*
X126861Y33226D1*
X126690Y32970D1*
X126606Y32546D1*
Y32290D1*
X126690Y31866D1*
X126861Y31610D1*
X127117Y31526D1*
X127286D1*
X127541Y31610D1*
X127710Y31866D1*
X127797Y32290D1*
Y32546D1*
X127710Y32970D1*
X127541Y33226D1*
X127286Y33310D1*
X127117D1*
X127710Y32970D2*
X126690Y31866D1*
X128430Y31697D2*
X128346Y31610D1*
X128430Y31526D1*
X128517Y31610D1*
X128430Y31697D1*
X129917Y31526D2*
Y33310D1*
X129066Y32121D1*
X130341D1*
X131997Y32717D2*
X131911Y32461D1*
X131742Y32290D1*
X131486Y32206D1*
X131401D1*
X131146Y32290D1*
X130977Y32461D1*
X130890Y32717D1*
Y32801D1*
X130977Y33057D1*
X131146Y33226D1*
X131401Y33310D1*
X131486D1*
X131742Y33226D1*
X131911Y33057D1*
X131997Y32717D1*
Y32290D1*
X131911Y31866D1*
X131742Y31610D1*
X131486Y31526D1*
X131317D1*
X131061Y31610D1*
X130977Y31781D1*
X134274Y32717D2*
Y31526D1*
Y32377D2*
X134530Y32632D1*
X134701Y32717D1*
X134954D1*
X135125Y32632D1*
X135210Y32377D1*
Y31526D1*
Y32377D2*
X135465Y32632D1*
X135636Y32717D1*
X135890D1*
X136061Y32632D1*
X136147Y32377D1*
Y31526D1*
X136696Y32717D2*
Y31526D1*
Y32377D2*
X136952Y32632D1*
X137123Y32717D1*
X137376D1*
X137547Y32632D1*
X137632Y32377D1*
Y31526D1*
Y32377D2*
X137887Y32632D1*
X138058Y32717D1*
X138312D1*
X138483Y32632D1*
X138569Y32377D1*
Y31526D1*
X116944Y28461D2*
X117708D1*
X117964Y28548D1*
X118050Y28632D1*
X118135Y28801D1*
Y28972D1*
X118050Y29141D1*
X117964Y29228D1*
X117708Y29312D1*
X116944D1*
Y27526D1*
X117539Y28461D2*
X118135Y27526D1*
X119108Y28717D2*
X118939Y28632D1*
X118768Y28461D1*
X118684Y28206D1*
Y28037D1*
X118768Y27781D1*
X118939Y27612D1*
X119108Y27526D1*
X119364D1*
X119535Y27612D1*
X119704Y27781D1*
X119790Y28037D1*
Y28206D1*
X119704Y28461D1*
X119535Y28632D1*
X119364Y28717D1*
X119108D1*
X120339D2*
Y27866D1*
X120424Y27612D1*
X120595Y27526D1*
X120850D1*
X121020Y27612D1*
X121275Y27866D1*
Y28717D2*
Y27526D1*
X121824Y28717D2*
Y27526D1*
Y28377D2*
X122080Y28632D1*
X122251Y28717D1*
X122504D1*
X122675Y28632D1*
X122760Y28377D1*
Y27526D1*
X124329Y29312D2*
Y27526D1*
Y28461D2*
X124160Y28632D1*
X123989Y28717D1*
X123733D1*
X123564Y28632D1*
X123393Y28461D1*
X123309Y28206D1*
Y28037D1*
X123393Y27781D1*
X123564Y27612D1*
X123733Y27526D1*
X123989D1*
X124160Y27612D1*
X124329Y27781D1*
X126606Y28970D2*
X126777Y29057D1*
X127032Y29310D1*
Y27526D1*
X127666Y27697D2*
X127581Y27610D1*
X127666Y27526D1*
X127752Y27610D1*
X127666Y27697D1*
X128301Y28970D2*
X128472Y29057D1*
X128728Y29310D1*
Y27526D1*
X131005Y28717D2*
Y27526D1*
Y28377D2*
X131261Y28632D1*
X131432Y28717D1*
X131685D1*
X131856Y28632D1*
X131941Y28377D1*
Y27526D1*
Y28377D2*
X132196Y28632D1*
X132367Y28717D1*
X132621D1*
X132792Y28632D1*
X132878Y28377D1*
Y27526D1*
X133427Y28717D2*
Y27526D1*
Y28377D2*
X133683Y28632D1*
X133854Y28717D1*
X134107D1*
X134278Y28632D1*
X134363Y28377D1*
Y27526D1*
Y28377D2*
X134618Y28632D1*
X134789Y28717D1*
X135043D1*
X135214Y28632D1*
X135300Y28377D1*
Y27526D1*
X151876Y36377D2*
X152643D1*
X152896Y36461D1*
X152983Y36548D1*
X153067Y36717D1*
Y36972D1*
X152983Y37141D1*
X152896Y37228D1*
X152643Y37312D1*
X151876D1*
Y35526D1*
X153616Y37312D2*
Y35526D1*
X155185Y36717D2*
Y35526D1*
Y36461D2*
X155016Y36632D1*
X154845Y36717D1*
X154592D1*
X154421Y36632D1*
X154252Y36461D1*
X154165Y36206D1*
Y36037D1*
X154252Y35781D1*
X154421Y35612D1*
X154592Y35526D1*
X154845D1*
X155016Y35612D1*
X155185Y35781D1*
X155990Y37312D2*
Y35866D1*
X156074Y35612D1*
X156245Y35526D1*
X156414D1*
X155734Y36717D2*
X156330D1*
X156963Y36206D2*
X157983D1*
Y36377D1*
X157899Y36548D1*
X157814Y36632D1*
X157643Y36717D1*
X157388D1*
X157219Y36632D1*
X157048Y36461D1*
X156963Y36206D1*
Y36037D1*
X157048Y35781D1*
X157219Y35612D1*
X157388Y35526D1*
X157643D1*
X157814Y35612D1*
X157983Y35781D1*
X159553Y37312D2*
Y35526D1*
Y36461D2*
X159384Y36632D1*
X159213Y36717D1*
X158957D1*
X158788Y36632D1*
X158617Y36461D1*
X158533Y36206D1*
Y36037D1*
X158617Y35781D1*
X158788Y35612D1*
X158957Y35526D1*
X159213D1*
X159384Y35612D1*
X159553Y35781D1*
X150277Y33312D2*
X150957Y32461D1*
Y31526D1*
X151637Y33312D2*
X150957Y32461D1*
X152186Y32206D2*
X153206D1*
Y32377D1*
X153122Y32548D1*
X153037Y32632D1*
X152866Y32717D1*
X152611D1*
X152442Y32632D1*
X152271Y32461D1*
X152186Y32206D1*
Y32037D1*
X152271Y31781D1*
X152442Y31612D1*
X152611Y31526D1*
X152866D1*
X153037Y31612D1*
X153206Y31781D1*
X154691Y32461D2*
X154606Y32632D1*
X154351Y32717D1*
X154095D1*
X153840Y32632D1*
X153755Y32461D1*
X153840Y32292D1*
X154011Y32206D1*
X154435Y32121D1*
X154606Y32037D1*
X154691Y31866D1*
Y31781D1*
X154606Y31612D1*
X154351Y31526D1*
X154095D1*
X153840Y31612D1*
X153755Y31781D1*
X150277Y29312D2*
X150957Y28461D1*
Y27526D1*
X151637Y29312D2*
X150957Y28461D1*
X152186Y28206D2*
X153206D1*
Y28377D1*
X153122Y28548D1*
X153037Y28632D1*
X152866Y28717D1*
X152611D1*
X152442Y28632D1*
X152271Y28461D1*
X152186Y28206D1*
Y28037D1*
X152271Y27781D1*
X152442Y27612D1*
X152611Y27526D1*
X152866D1*
X153037Y27612D1*
X153206Y27781D1*
X154691Y28461D2*
X154606Y28632D1*
X154351Y28717D1*
X154095D1*
X153840Y28632D1*
X153755Y28461D1*
X153840Y28292D1*
X154011Y28206D1*
X154435Y28121D1*
X154606Y28037D1*
X154691Y27866D1*
Y27781D1*
X154606Y27612D1*
X154351Y27526D1*
X154095D1*
X153840Y27612D1*
X153755Y27781D1*
X166687Y36888D2*
X166602Y37057D1*
X166431Y37228D1*
X166262Y37312D1*
X165922D1*
X165751Y37228D1*
X165582Y37057D1*
X165496Y36888D1*
X165411Y36632D1*
Y36206D1*
X165496Y35952D1*
X165582Y35781D1*
X165751Y35612D1*
X165922Y35526D1*
X166262D1*
X166431Y35612D1*
X166602Y35781D1*
X166687Y35952D1*
X167660Y36717D2*
X167491Y36632D1*
X167320Y36461D1*
X167236Y36206D1*
Y36037D1*
X167320Y35781D1*
X167491Y35612D1*
X167660Y35526D1*
X167916D1*
X168087Y35612D1*
X168256Y35781D1*
X168342Y36037D1*
Y36206D1*
X168256Y36461D1*
X168087Y36632D1*
X167916Y36717D1*
X167660D1*
X168892D2*
Y35866D1*
X168976Y35612D1*
X169147Y35526D1*
X169403D1*
X169572Y35612D1*
X169827Y35866D1*
Y36717D2*
Y35526D1*
X170376Y36717D2*
Y35526D1*
Y36377D2*
X170632Y36632D1*
X170803Y36717D1*
X171056D1*
X171227Y36632D1*
X171312Y36377D1*
Y35526D1*
X172116Y37312D2*
Y35866D1*
X172201Y35612D1*
X172372Y35526D1*
X172541D1*
X171861Y36717D2*
X172456D1*
X163611Y32970D2*
X163782Y33057D1*
X164037Y33310D1*
Y31526D1*
X164586Y32970D2*
X164757Y33057D1*
X165013Y33310D1*
Y31526D1*
X165733Y33310D2*
X166666D1*
X166157Y32630D1*
X166413D1*
X166582Y32546D1*
X166666Y32461D1*
X166753Y32206D1*
Y32037D1*
X166666Y31781D1*
X166497Y31610D1*
X166242Y31526D1*
X165986D1*
X165733Y31610D1*
X165648Y31697D1*
X165562Y31866D1*
X163611Y28970D2*
X163782Y29057D1*
X164037Y29310D1*
Y27526D1*
X165097Y29310D2*
X164842Y29226D1*
X164671Y28970D1*
X164586Y28546D1*
Y28290D1*
X164671Y27866D1*
X164842Y27610D1*
X165097Y27526D1*
X165266D1*
X165522Y27610D1*
X165691Y27866D1*
X165777Y28290D1*
Y28546D1*
X165691Y28970D1*
X165522Y29226D1*
X165266Y29310D1*
X165097D1*
X165691Y28970D2*
X164671Y27866D1*
X166497Y29310D2*
X167431D1*
X166922Y28630D1*
X167177D1*
X167346Y28546D1*
X167431Y28461D1*
X167517Y28206D1*
Y28037D1*
X167431Y27781D1*
X167262Y27610D1*
X167006Y27526D1*
X166751D1*
X166497Y27610D1*
X166413Y27697D1*
X166326Y27866D1*
%LNTop*%
%LPD*%
X0Y0D2*
D11*
X104140D1*
Y38100D1*
X0D1*
Y0D1*
%LNBottom*%
X104140Y38100D2*
D13*
Y41462D1*
X0Y38100D2*
Y41462D1*
X52070Y40962D2*
X103140D1*
G36*
X104140D2*
X103140Y40762D1*
Y41162D1*
X104140Y40962D1*
G37*
X52070D2*
D13*
X1000D1*
G36*
X0D2*
X1000Y41162D1*
Y40762D1*
X0Y40962D1*
G37*
Y38100D2*
D13*
X-3040D1*
X0Y0D2*
X-3040D1*
X-2540Y19050D2*
Y37100D1*
G36*
Y38100D2*
X-2340Y37100D1*
X-2740D1*
X-2540Y38100D1*
G37*
Y19050D2*
D13*
Y1000D1*
G36*
Y0D2*
X-2740Y1000D1*
X-2340D1*
X-2540Y0D1*
G37*
X48125Y42097D2*
D86*
X48222Y42147D1*
X48368Y42292D1*
Y41272D1*
X48974Y42292D2*
X48828Y42243D1*
X48730Y42097D1*
X48682Y41855D1*
Y41709D1*
X48730Y41466D1*
X48828Y41320D1*
X48974Y41272D1*
X49071D1*
X49217Y41320D1*
X49313Y41466D1*
X49363Y41709D1*
Y41855D1*
X49313Y42097D1*
X49217Y42243D1*
X49071Y42292D1*
X48974D1*
X49313Y42097D2*
X48730Y41466D1*
X50163Y41272D2*
Y42292D1*
X49676Y41612D1*
X50405D1*
X50767Y41370D2*
X50719Y41320D1*
X50767Y41272D1*
X50817Y41320D1*
X50767Y41370D1*
X51130Y42097D2*
X51228Y42147D1*
X51374Y42292D1*
Y41272D1*
X52174D2*
Y42292D1*
X51688Y41612D1*
X52417D1*
X53718Y41953D2*
Y41272D1*
Y41758D2*
X53864Y41904D1*
X53962Y41953D1*
X54107D1*
X54204Y41904D1*
X54253Y41758D1*
Y41272D1*
Y41758D2*
X54399Y41904D1*
X54496Y41953D1*
X54641D1*
X54739Y41904D1*
X54788Y41758D1*
Y41272D1*
X55102Y41953D2*
Y41272D1*
Y41758D2*
X55248Y41904D1*
X55346Y41953D1*
X55491D1*
X55588Y41904D1*
X55637Y41758D1*
Y41272D1*
Y41758D2*
X55783Y41904D1*
X55880Y41953D1*
X56025D1*
X56123Y41904D1*
X56172Y41758D1*
Y41272D1*
X-3870Y16027D2*
Y16560D1*
X-3482Y16270D1*
Y16416D1*
X-3433Y16512D1*
X-3385Y16560D1*
X-3239Y16610D1*
X-3142D1*
X-2996Y16560D1*
X-2899Y16464D1*
X-2850Y16318D1*
Y16172D1*
X-2899Y16027D1*
X-2948Y15979D1*
X-3045Y15929D1*
X-3870Y17166D2*
X-3822Y17021D1*
X-3725Y16972D1*
X-3628D1*
X-3531Y17021D1*
X-3482Y17118D1*
X-3433Y17312D1*
X-3385Y17458D1*
X-3287Y17555D1*
X-3191Y17603D1*
X-3045D1*
X-2948Y17555D1*
X-2899Y17506D1*
X-2850Y17360D1*
Y17166D1*
X-2899Y17021D1*
X-2948Y16972D1*
X-3045Y16924D1*
X-3191D1*
X-3287Y16972D1*
X-3385Y17070D1*
X-3433Y17214D1*
X-3482Y17409D1*
X-3531Y17506D1*
X-3628Y17555D1*
X-3725D1*
X-3822Y17506D1*
X-3870Y17360D1*
Y17166D1*
X-2948Y17965D2*
X-2899Y17917D1*
X-2850Y17965D1*
X-2899Y18015D1*
X-2948Y17965D1*
X-3676Y18328D2*
X-3725Y18426D1*
X-3870Y18572D1*
X-2850D1*
X-3531Y19873D2*
X-2850D1*
X-3337D2*
X-3483Y20019D1*
X-3531Y20117D1*
Y20262D1*
X-3483Y20360D1*
X-3337Y20408D1*
X-2850D1*
X-3337D2*
X-3483Y20554D1*
X-3531Y20652D1*
Y20796D1*
X-3483Y20894D1*
X-3337Y20944D1*
X-2850D1*
X-3531Y21257D2*
X-2850D1*
X-3337D2*
X-3483Y21403D1*
X-3531Y21501D1*
Y21646D1*
X-3483Y21744D1*
X-3337Y21792D1*
X-2850D1*
X-3337D2*
X-3483Y21938D1*
X-3531Y22036D1*
Y22180D1*
X-3483Y22278D1*
X-3337Y22328D1*
X-2850D1*
M02*
